<?xml version="1.0" encoding="UTF-8" standalone="no"?>
<!DOCTYPE svg PUBLIC "-//W3C//DTD SVG 1.1//EN"
 "http://www.w3.org/Graphics/SVG/1.1/DTD/svg11.dtd">
<!-- Generated by graphviz version 2.38.0 (20140413.2041)
 -->
<!-- Title: G Pages: 1 -->
<svg width="1221pt" height="188pt"
 viewBox="0.00 0.00 1221.34 188.00" xmlns="http://www.w3.org/2000/svg" xmlns:xlink="http://www.w3.org/1999/xlink">
<g id="graph0" class="graph" transform="scale(1 1) rotate(0) translate(4 184)">
<title>G</title>
<polygon fill="white" stroke="none" points="-4,4 -4,-184 1217.34,-184 1217.34,4 -4,4"/>
<!-- 0141 (b) -->
<g id="node1" class="node"><title>0141 (b)</title>
<ellipse fill="#cea8f4" stroke="#835da9" cx="40.9464" cy="-18" rx="40.8928" ry="18"/>
<text text-anchor="middle" x="40.9464" y="-14.3" font-family="Times,serif" font-size="14.00">0141 (b)</text>
</g>
<!-- 02 (b) -->
<g id="node2" class="node"><title>02 (b)</title>
<ellipse fill="#cea8f4" stroke="#835da9" cx="55.9464" cy="-90" rx="32.4942" ry="18"/>
<text text-anchor="middle" x="55.9464" y="-86.3" font-family="Times,serif" font-size="14.00">02 (b)</text>
</g>
<!-- 01/2 (a) -->
<g id="node3" class="node"><title>01/2 (a)</title>
<ellipse fill="#ff8a8a" stroke="#b43f3f" cx="606.946" cy="-18" rx="38.1938" ry="18"/>
<text text-anchor="middle" x="606.946" y="-14.3" font-family="Times,serif" font-size="14.00">01/2 (a)</text>
</g>
<!-- P75 (b) -->
<g id="node4" class="node"><title>P75 (b)</title>
<ellipse fill="#cea8f4" stroke="#835da9" cx="604.946" cy="-162" rx="37.0935" ry="18"/>
<text text-anchor="middle" x="604.946" y="-158.3" font-family="Times,serif" font-size="14.00">P75 (b)</text>
</g>
<!-- 037 (a) -->
<g id="node5" class="node"><title>037 (a)</title>
<ellipse fill="#ff8a8a" stroke="#b43f3f" cx="881.946" cy="-18" rx="36.2938" ry="18"/>
<text text-anchor="middle" x="881.946" y="-14.3" font-family="Times,serif" font-size="14.00">037 (a)</text>
</g>
<!-- 034 (a) -->
<g id="node6" class="node"><title>034 (a)</title>
<ellipse fill="#ff8a8a" stroke="#b43f3f" cx="972.946" cy="-18" rx="36.2938" ry="18"/>
<text text-anchor="middle" x="972.946" y="-14.3" font-family="Times,serif" font-size="14.00">034 (a)</text>
</g>
<!-- 045 (a) -->
<g id="node7" class="node"><title>045 (a)</title>
<ellipse fill="#ff8a8a" stroke="#b43f3f" cx="331.946" cy="-90" rx="36.2938" ry="18"/>
<text text-anchor="middle" x="331.946" y="-86.3" font-family="Times,serif" font-size="14.00">045 (a)</text>
</g>
<!-- 038 (a) -->
<g id="node14" class="node"><title>038 (a)</title>
<ellipse fill="#ff8a8a" stroke="#b43f3f" cx="331.946" cy="-18" rx="36.2938" ry="18"/>
<text text-anchor="middle" x="331.946" y="-14.3" font-family="Times,serif" font-size="14.00">038 (a)</text>
</g>
<!-- 045 (a)&#45;&gt;038 (a) -->
<g id="edge1" class="edge"><title>045 (a)&#45;&gt;038 (a)</title>
<path fill="none" stroke="black" d="M331.946,-71.6966C331.946,-63.9827 331.946,-54.7125 331.946,-46.1124"/>
<polygon fill="black" stroke="black" points="335.446,-46.1043 331.946,-36.1043 328.446,-46.1044 335.446,-46.1043"/>
</g>
<!-- 028 (a) -->
<g id="node8" class="node"><title>028 (a)</title>
<ellipse fill="#ff8a8a" stroke="#b43f3f" cx="422.946" cy="-90" rx="36.2938" ry="18"/>
<text text-anchor="middle" x="422.946" y="-86.3" font-family="Times,serif" font-size="14.00">028 (a)</text>
</g>
<!-- 011/2 (b) -->
<g id="node9" class="node"><title>011/2 (b)</title>
<ellipse fill="#cea8f4" stroke="#835da9" cx="142.946" cy="-18" rx="43.5923" ry="18"/>
<text text-anchor="middle" x="142.946" y="-14.3" font-family="Times,serif" font-size="14.00">011/2 (b)</text>
</g>
<!-- 063 (a) -->
<g id="node10" class="node"><title>063 (a)</title>
<ellipse fill="#ff8a8a" stroke="#b43f3f" cx="513.946" cy="-162" rx="36.2938" ry="18"/>
<text text-anchor="middle" x="513.946" y="-158.3" font-family="Times,serif" font-size="14.00">063 (a)</text>
</g>
<!-- 063 (a)&#45;&gt;045 (a) -->
<g id="edge3" class="edge"><title>063 (a)&#45;&gt;045 (a)</title>
<path fill="none" stroke="black" d="M485.908,-150.216C454.689,-138.209 404.078,-118.743 369.466,-105.431"/>
<polygon fill="black" stroke="black" points="370.308,-102.005 359.718,-101.681 367.795,-108.538 370.308,-102.005"/>
</g>
<!-- 063 (a)&#45;&gt;028 (a) -->
<g id="edge4" class="edge"><title>063 (a)&#45;&gt;028 (a)</title>
<path fill="none" stroke="black" d="M495.091,-146.496C482.036,-136.453 464.461,-122.934 449.927,-111.754"/>
<polygon fill="black" stroke="black" points="451.838,-108.808 441.777,-105.485 447.57,-114.357 451.838,-108.808"/>
</g>
<!-- 021 (a) -->
<g id="node16" class="node"><title>021 (a)</title>
<ellipse fill="#ff8a8a" stroke="#b43f3f" cx="513.946" cy="-90" rx="36.2938" ry="18"/>
<text text-anchor="middle" x="513.946" y="-86.3" font-family="Times,serif" font-size="14.00">021 (a)</text>
</g>
<!-- 063 (a)&#45;&gt;021 (a) -->
<g id="edge5" class="edge"><title>063 (a)&#45;&gt;021 (a)</title>
<path fill="none" stroke="black" d="M513.946,-143.697C513.946,-135.983 513.946,-126.712 513.946,-118.112"/>
<polygon fill="black" stroke="black" points="517.446,-118.104 513.946,-108.104 510.446,-118.104 517.446,-118.104"/>
</g>
<!-- 031 (a) -->
<g id="node21" class="node"><title>031 (a)</title>
<ellipse fill="#ff8a8a" stroke="#b43f3f" cx="652.946" cy="-90" rx="36.2938" ry="18"/>
<text text-anchor="middle" x="652.946" y="-86.3" font-family="Times,serif" font-size="14.00">031 (a)</text>
</g>
<!-- 063 (a)&#45;&gt;031 (a) -->
<g id="edge2" class="edge"><title>063 (a)&#45;&gt;031 (a)</title>
<path fill="none" stroke="black" d="M538.477,-148.647C560.868,-137.37 594.173,-120.598 619.093,-108.048"/>
<polygon fill="black" stroke="black" points="620.836,-111.089 628.194,-103.465 617.688,-104.837 620.836,-111.089"/>
</g>
<!-- 07 (a) -->
<g id="node25" class="node"><title>07 (a)</title>
<ellipse fill="#ff8a8a" stroke="#b43f3f" cx="972.946" cy="-90" rx="31.6951" ry="18"/>
<text text-anchor="middle" x="972.946" y="-86.3" font-family="Times,serif" font-size="14.00">07 (a)</text>
</g>
<!-- 063 (a)&#45;&gt;07 (a) -->
<g id="edge6" class="edge"><title>063 (a)&#45;&gt;07 (a)</title>
<path fill="none" stroke="black" d="M540.747,-149.706C546.66,-147.546 552.95,-145.495 558.946,-144 692.579,-110.693 855.982,-97.6286 931.293,-93.1082"/>
<polygon fill="black" stroke="black" points="931.542,-96.5997 941.323,-92.5258 931.137,-89.6115 931.542,-96.5997"/>
</g>
<!-- 0211/2 (a) -->
<g id="node11" class="node"><title>0211/2 (a)</title>
<ellipse fill="#ff8a8a" stroke="#b43f3f" cx="1074.95" cy="-18" rx="47.3916" ry="18"/>
<text text-anchor="middle" x="1074.95" y="-14.3" font-family="Times,serif" font-size="14.00">0211/2 (a)</text>
</g>
<!-- 05 (c) -->
<g id="node12" class="node"><title>05 (c)</title>
<ellipse fill="#72fe95" stroke="#27b34a" cx="691.946" cy="-162" rx="31.6951" ry="18"/>
<text text-anchor="middle" x="691.946" y="-158.3" font-family="Times,serif" font-size="14.00">05 (c)</text>
</g>
<!-- 044 (b) -->
<g id="node13" class="node"><title>044 (b)</title>
<ellipse fill="#cea8f4" stroke="#835da9" cx="142.946" cy="-90" rx="36.2938" ry="18"/>
<text text-anchor="middle" x="142.946" y="-86.3" font-family="Times,serif" font-size="14.00">044 (b)</text>
</g>
<!-- 044 (b)&#45;&gt;0141 (b) -->
<g id="edge7" class="edge"><title>044 (b)&#45;&gt;0141 (b)</title>
<path fill="none" stroke="black" d="M122.305,-74.8345C107.434,-64.6286 87.1475,-50.7067 70.5525,-39.3179"/>
<polygon fill="black" stroke="black" points="72.4847,-36.399 62.259,-33.6263 68.5237,-42.1706 72.4847,-36.399"/>
</g>
<!-- 044 (b)&#45;&gt;011/2 (b) -->
<g id="edge9" class="edge"><title>044 (b)&#45;&gt;011/2 (b)</title>
<path fill="none" stroke="black" d="M142.946,-71.6966C142.946,-63.9827 142.946,-54.7125 142.946,-46.1124"/>
<polygon fill="black" stroke="black" points="146.446,-46.1043 142.946,-36.1043 139.446,-46.1044 146.446,-46.1043"/>
</g>
<!-- 022 (b) -->
<g id="node15" class="node"><title>022 (b)</title>
<ellipse fill="#cea8f4" stroke="#835da9" cx="240.946" cy="-18" rx="36.2938" ry="18"/>
<text text-anchor="middle" x="240.946" y="-14.3" font-family="Times,serif" font-size="14.00">022 (b)</text>
</g>
<!-- 044 (b)&#45;&gt;022 (b) -->
<g id="edge8" class="edge"><title>044 (b)&#45;&gt;022 (b)</title>
<path fill="none" stroke="black" d="M162.778,-74.8345C177.124,-64.5874 196.714,-50.5942 212.694,-39.1801"/>
<polygon fill="black" stroke="black" points="215.041,-41.805 221.144,-33.1445 210.972,-36.1088 215.041,-41.805"/>
</g>
<!-- 036 (a) -->
<g id="node20" class="node"><title>036 (a)</title>
<ellipse fill="#ff8a8a" stroke="#b43f3f" cx="422.946" cy="-18" rx="36.2938" ry="18"/>
<text text-anchor="middle" x="422.946" y="-14.3" font-family="Times,serif" font-size="14.00">036 (a)</text>
</g>
<!-- 021 (a)&#45;&gt;036 (a) -->
<g id="edge10" class="edge"><title>021 (a)&#45;&gt;036 (a)</title>
<path fill="none" stroke="black" d="M495.091,-74.496C482.036,-64.4532 464.461,-50.9344 449.927,-39.7541"/>
<polygon fill="black" stroke="black" points="451.838,-36.8084 441.777,-33.4855 447.57,-42.3568 451.838,-36.8084"/>
</g>
<!-- 047 (a) -->
<g id="node23" class="node"><title>047 (a)</title>
<ellipse fill="#ff8a8a" stroke="#b43f3f" cx="513.946" cy="-18" rx="36.2938" ry="18"/>
<text text-anchor="middle" x="513.946" y="-14.3" font-family="Times,serif" font-size="14.00">047 (a)</text>
</g>
<!-- 021 (a)&#45;&gt;047 (a) -->
<g id="edge11" class="edge"><title>021 (a)&#45;&gt;047 (a)</title>
<path fill="none" stroke="black" d="M513.946,-71.6966C513.946,-63.9827 513.946,-54.7125 513.946,-46.1124"/>
<polygon fill="black" stroke="black" points="517.446,-46.1043 513.946,-36.1043 510.446,-46.1044 517.446,-46.1043"/>
</g>
<!-- 017 (a) -->
<g id="node17" class="node"><title>017 (a)</title>
<ellipse fill="#ff8a8a" stroke="#b43f3f" cx="699.946" cy="-18" rx="36.2938" ry="18"/>
<text text-anchor="middle" x="699.946" y="-14.3" font-family="Times,serif" font-size="14.00">017 (a)</text>
</g>
<!-- 019 (b) -->
<g id="node18" class="node"><title>019 (b)</title>
<ellipse fill="#cea8f4" stroke="#835da9" cx="777.946" cy="-162" rx="36.2938" ry="18"/>
<text text-anchor="middle" x="777.946" y="-158.3" font-family="Times,serif" font-size="14.00">019 (b)</text>
</g>
<!-- 032 (b) -->
<g id="node19" class="node"><title>032 (b)</title>
<ellipse fill="#cea8f4" stroke="#835da9" cx="233.946" cy="-90" rx="36.2938" ry="18"/>
<text text-anchor="middle" x="233.946" y="-86.3" font-family="Times,serif" font-size="14.00">032 (b)</text>
</g>
<!-- 031 (a)&#45;&gt;01/2 (a) -->
<g id="edge13" class="edge"><title>031 (a)&#45;&gt;01/2 (a)</title>
<path fill="none" stroke="black" d="M642.277,-72.7646C636.669,-64.2301 629.672,-53.5822 623.387,-44.0191"/>
<polygon fill="black" stroke="black" points="626.294,-42.0683 617.877,-35.6334 620.444,-45.9126 626.294,-42.0683"/>
</g>
<!-- 031 (a)&#45;&gt;017 (a) -->
<g id="edge14" class="edge"><title>031 (a)&#45;&gt;017 (a)</title>
<path fill="none" stroke="black" d="M663.847,-72.7646C669.578,-64.2301 676.727,-53.5822 683.148,-44.0191"/>
<polygon fill="black" stroke="black" points="686.11,-45.8867 688.778,-35.6334 680.298,-41.9846 686.11,-45.8867"/>
</g>
<!-- 013 (a) -->
<g id="node26" class="node"><title>013 (a)</title>
<ellipse fill="#ff8a8a" stroke="#b43f3f" cx="790.946" cy="-18" rx="36.2938" ry="18"/>
<text text-anchor="middle" x="790.946" y="-14.3" font-family="Times,serif" font-size="14.00">013 (a)</text>
</g>
<!-- 031 (a)&#45;&gt;013 (a) -->
<g id="edge12" class="edge"><title>031 (a)&#45;&gt;013 (a)</title>
<path fill="none" stroke="black" d="M677.618,-76.4854C699.891,-65.1874 732.851,-48.4686 757.492,-35.9698"/>
<polygon fill="black" stroke="black" points="759.153,-39.0515 766.488,-31.4063 755.987,-32.8087 759.153,-39.0515"/>
</g>
<!-- 03 (b) -->
<g id="node22" class="node"><title>03 (b)</title>
<ellipse fill="#cea8f4" stroke="#835da9" cx="142.946" cy="-162" rx="32.4942" ry="18"/>
<text text-anchor="middle" x="142.946" y="-158.3" font-family="Times,serif" font-size="14.00">03 (b)</text>
</g>
<!-- 03 (b)&#45;&gt;02 (b) -->
<g id="edge17" class="edge"><title>03 (b)&#45;&gt;02 (b)</title>
<path fill="none" stroke="black" d="M125.341,-146.834C112.723,-136.682 95.5351,-122.853 81.4223,-111.498"/>
<polygon fill="black" stroke="black" points="83.5112,-108.686 73.5259,-105.144 79.1231,-114.14 83.5112,-108.686"/>
</g>
<!-- 03 (b)&#45;&gt;044 (b) -->
<g id="edge15" class="edge"><title>03 (b)&#45;&gt;044 (b)</title>
<path fill="none" stroke="black" d="M142.946,-143.697C142.946,-135.983 142.946,-126.712 142.946,-118.112"/>
<polygon fill="black" stroke="black" points="146.446,-118.104 142.946,-108.104 139.446,-118.104 146.446,-118.104"/>
</g>
<!-- 03 (b)&#45;&gt;032 (b) -->
<g id="edge16" class="edge"><title>03 (b)&#45;&gt;032 (b)</title>
<path fill="none" stroke="black" d="M161.362,-146.834C174.386,-136.816 192.065,-123.216 206.715,-111.947"/>
<polygon fill="black" stroke="black" points="209.14,-114.498 214.932,-105.626 204.872,-108.949 209.14,-114.498"/>
</g>
<!-- 030 (a) -->
<g id="node24" class="node"><title>030 (a)</title>
<ellipse fill="#ff8a8a" stroke="#b43f3f" cx="1176.95" cy="-18" rx="36.2938" ry="18"/>
<text text-anchor="middle" x="1176.95" y="-14.3" font-family="Times,serif" font-size="14.00">030 (a)</text>
</g>
<!-- 07 (a)&#45;&gt;037 (a) -->
<g id="edge20" class="edge"><title>07 (a)&#45;&gt;037 (a)</title>
<path fill="none" stroke="black" d="M954.531,-74.8345C941.507,-64.8158 923.828,-51.2163 909.178,-39.9473"/>
<polygon fill="black" stroke="black" points="911.021,-36.9493 900.961,-33.6263 906.753,-42.4977 911.021,-36.9493"/>
</g>
<!-- 07 (a)&#45;&gt;034 (a) -->
<g id="edge18" class="edge"><title>07 (a)&#45;&gt;034 (a)</title>
<path fill="none" stroke="black" d="M972.946,-71.6966C972.946,-63.9827 972.946,-54.7125 972.946,-46.1124"/>
<polygon fill="black" stroke="black" points="976.446,-46.1043 972.946,-36.1043 969.446,-46.1044 976.446,-46.1043"/>
</g>
<!-- 07 (a)&#45;&gt;0211/2 (a) -->
<g id="edge19" class="edge"><title>07 (a)&#45;&gt;0211/2 (a)</title>
<path fill="none" stroke="black" d="M992.613,-75.5033C1007.3,-65.4215 1027.66,-51.4532 1044.45,-39.9276"/>
<polygon fill="black" stroke="black" points="1046.6,-42.7009 1052.86,-34.1566 1042.64,-36.9293 1046.6,-42.7009"/>
</g>
<!-- 07 (a)&#45;&gt;030 (a) -->
<g id="edge21" class="edge"><title>07 (a)&#45;&gt;030 (a)</title>
<path fill="none" stroke="black" d="M999.869,-80.2446C1031.38,-69.9323 1085.1,-52.1558 1130.95,-36 1133.66,-35.0449 1136.45,-34.0462 1139.26,-33.0319"/>
<polygon fill="black" stroke="black" points="1140.58,-36.2772 1148.78,-29.5645 1138.18,-29.7004 1140.58,-36.2772"/>
</g>
</g>
</svg>
