<?xml version="1.0" encoding="UTF-8" standalone="no"?>
<!DOCTYPE svg PUBLIC "-//W3C//DTD SVG 1.1//EN"
 "http://www.w3.org/Graphics/SVG/1.1/DTD/svg11.dtd">
<!-- Generated by graphviz version 2.38.0 (20140413.2041)
 -->
<!-- Title: G Pages: 1 -->
<svg width="885pt" height="332pt"
 viewBox="0.00 0.00 885.24 332.00" xmlns="http://www.w3.org/2000/svg" xmlns:xlink="http://www.w3.org/1999/xlink">
<g id="graph0" class="graph" transform="scale(1 1) rotate(0) translate(4 328)">
<title>G</title>
<polygon fill="white" stroke="none" points="-4,4 -4,-328 881.244,-328 881.244,4 -4,4"/>
<!-- 038 (a) -->
<g id="node1" class="node"><title>038 (a)</title>
<ellipse fill="#ff8a8a" stroke="#b43f3f" cx="218.397" cy="-18" rx="36.2938" ry="18"/>
<text text-anchor="middle" x="218.397" y="-14.3" font-family="Times,serif" font-size="14.00">038 (a)</text>
</g>
<!-- 028 (a) -->
<g id="node2" class="node"><title>028 (a)</title>
<ellipse fill="#ff8a8a" stroke="#b43f3f" cx="48.3968" cy="-90" rx="36.2938" ry="18"/>
<text text-anchor="middle" x="48.3968" y="-86.3" font-family="Times,serif" font-size="14.00">028 (a)</text>
</g>
<!-- 034 (a) -->
<g id="node3" class="node"><title>034 (a)</title>
<ellipse fill="#ff8a8a" stroke="#b43f3f" cx="491.397" cy="-18" rx="36.2938" ry="18"/>
<text text-anchor="middle" x="491.397" y="-14.3" font-family="Times,serif" font-size="14.00">034 (a)</text>
</g>
<!-- 031 (a) -->
<g id="node4" class="node"><title>031 (a)</title>
<ellipse fill="#ff8a8a" stroke="#b43f3f" cx="139.397" cy="-90" rx="36.2938" ry="18"/>
<text text-anchor="middle" x="139.397" y="-86.3" font-family="Times,serif" font-size="14.00">031 (a)</text>
</g>
<!-- 013 (a) -->
<g id="node9" class="node"><title>013 (a)</title>
<ellipse fill="#ff8a8a" stroke="#b43f3f" cx="36.3968" cy="-18" rx="36.2938" ry="18"/>
<text text-anchor="middle" x="36.3968" y="-14.3" font-family="Times,serif" font-size="14.00">013 (a)</text>
</g>
<!-- 031 (a)&#45;&gt;013 (a) -->
<g id="edge1" class="edge"><title>031 (a)&#45;&gt;013 (a)</title>
<path fill="none" stroke="black" d="M118.553,-74.8345C103.236,-64.4245 82.2293,-50.1483 65.2922,-38.6377"/>
<polygon fill="black" stroke="black" points="67.096,-35.6318 56.8578,-32.9056 63.1613,-41.4213 67.096,-35.6318"/>
</g>
<!-- 017 (a) -->
<g id="node11" class="node"><title>017 (a)</title>
<ellipse fill="#ff8a8a" stroke="#b43f3f" cx="127.397" cy="-18" rx="36.2938" ry="18"/>
<text text-anchor="middle" x="127.397" y="-14.3" font-family="Times,serif" font-size="14.00">017 (a)</text>
</g>
<!-- 031 (a)&#45;&gt;017 (a) -->
<g id="edge2" class="edge"><title>031 (a)&#45;&gt;017 (a)</title>
<path fill="none" stroke="black" d="M136.492,-72.055C135.17,-64.3456 133.573,-55.0269 132.088,-46.3642"/>
<polygon fill="black" stroke="black" points="135.498,-45.5401 130.358,-36.2753 128.598,-46.7229 135.498,-45.5401"/>
</g>
<!-- 022 (a) -->
<g id="node5" class="node"><title>022 (a)</title>
<ellipse fill="#ff8a8a" stroke="#b43f3f" cx="668.397" cy="-90" rx="36.2938" ry="18"/>
<text text-anchor="middle" x="668.397" y="-86.3" font-family="Times,serif" font-size="14.00">022 (a)</text>
</g>
<!-- 044 (a) -->
<g id="node6" class="node"><title>044 (a)</title>
<ellipse fill="#ff8a8a" stroke="#b43f3f" cx="668.397" cy="-162" rx="36.2938" ry="18"/>
<text text-anchor="middle" x="668.397" y="-158.3" font-family="Times,serif" font-size="14.00">044 (a)</text>
</g>
<!-- 044 (a)&#45;&gt;022 (a) -->
<g id="edge3" class="edge"><title>044 (a)&#45;&gt;022 (a)</title>
<path fill="none" stroke="black" d="M668.397,-143.697C668.397,-135.983 668.397,-126.712 668.397,-118.112"/>
<polygon fill="black" stroke="black" points="671.897,-118.104 668.397,-108.104 664.897,-118.104 671.897,-118.104"/>
</g>
<!-- 0141 (a) -->
<g id="node13" class="node"><title>0141 (a)</title>
<ellipse fill="#ff8a8a" stroke="#b43f3f" cx="763.397" cy="-90" rx="40.0939" ry="18"/>
<text text-anchor="middle" x="763.397" y="-86.3" font-family="Times,serif" font-size="14.00">0141 (a)</text>
</g>
<!-- 044 (a)&#45;&gt;0141 (a) -->
<g id="edge4" class="edge"><title>044 (a)&#45;&gt;0141 (a)</title>
<path fill="none" stroke="black" d="M688.081,-146.496C701.746,-136.427 720.153,-122.864 735.35,-111.666"/>
<polygon fill="black" stroke="black" points="737.437,-114.476 743.411,-105.726 733.284,-108.841 737.437,-114.476"/>
</g>
<!-- 047 (a) -->
<g id="node7" class="node"><title>047 (a)</title>
<ellipse fill="#ff8a8a" stroke="#b43f3f" cx="309.397" cy="-18" rx="36.2938" ry="18"/>
<text text-anchor="middle" x="309.397" y="-14.3" font-family="Times,serif" font-size="14.00">047 (a)</text>
</g>
<!-- P75 (a) -->
<g id="node8" class="node"><title>P75 (a)</title>
<ellipse fill="#ff8a8a" stroke="#b43f3f" cx="441.397" cy="-234" rx="36.2938" ry="18"/>
<text text-anchor="middle" x="441.397" y="-230.3" font-family="Times,serif" font-size="14.00">P75 (a)</text>
</g>
<!-- 036 (a) -->
<g id="node10" class="node"><title>036 (a)</title>
<ellipse fill="#ff8a8a" stroke="#b43f3f" cx="400.397" cy="-18" rx="36.2938" ry="18"/>
<text text-anchor="middle" x="400.397" y="-14.3" font-family="Times,serif" font-size="14.00">036 (a)</text>
</g>
<!-- 0211/2 (a) -->
<g id="node12" class="node"><title>0211/2 (a)</title>
<ellipse fill="#ff8a8a" stroke="#b43f3f" cx="593.397" cy="-18" rx="47.3916" ry="18"/>
<text text-anchor="middle" x="593.397" y="-14.3" font-family="Times,serif" font-size="14.00">0211/2 (a)</text>
</g>
<!-- 045 (a) -->
<g id="node14" class="node"><title>045 (a)</title>
<ellipse fill="#ff8a8a" stroke="#b43f3f" cx="275.397" cy="-90" rx="36.2938" ry="18"/>
<text text-anchor="middle" x="275.397" y="-86.3" font-family="Times,serif" font-size="14.00">045 (a)</text>
</g>
<!-- 045 (a)&#45;&gt;038 (a) -->
<g id="edge5" class="edge"><title>045 (a)&#45;&gt;038 (a)</title>
<path fill="none" stroke="black" d="M262.463,-73.1159C255.277,-64.292 246.188,-53.1298 238.133,-43.238"/>
<polygon fill="black" stroke="black" points="240.704,-40.8514 231.675,-35.307 235.276,-45.2714 240.704,-40.8514"/>
</g>
<!-- 032 (a) -->
<g id="node15" class="node"><title>032 (a)</title>
<ellipse fill="#ff8a8a" stroke="#b43f3f" cx="759.397" cy="-162" rx="36.2938" ry="18"/>
<text text-anchor="middle" x="759.397" y="-158.3" font-family="Times,serif" font-size="14.00">032 (a)</text>
</g>
<!-- 063 (a) -->
<g id="node16" class="node"><title>063 (a)</title>
<ellipse fill="#ff8a8a" stroke="#b43f3f" cx="389.397" cy="-162" rx="36.2938" ry="18"/>
<text text-anchor="middle" x="389.397" y="-158.3" font-family="Times,serif" font-size="14.00">063 (a)</text>
</g>
<!-- 063 (a)&#45;&gt;028 (a) -->
<g id="edge6" class="edge"><title>063 (a)&#45;&gt;028 (a)</title>
<path fill="none" stroke="black" d="M354.44,-156.751C298.758,-149.531 186.777,-133.158 94.3968,-108 91.4523,-107.198 88.4305,-106.288 85.4109,-105.314"/>
<polygon fill="black" stroke="black" points="86.465,-101.976 75.8704,-102.05 84.1986,-108.599 86.465,-101.976"/>
</g>
<!-- 063 (a)&#45;&gt;031 (a) -->
<g id="edge7" class="edge"><title>063 (a)&#45;&gt;031 (a)</title>
<path fill="none" stroke="black" d="M358.491,-152.346C313.514,-139.753 229.96,-116.358 180.046,-102.382"/>
<polygon fill="black" stroke="black" points="180.805,-98.9598 170.232,-99.6338 178.918,-105.701 180.805,-98.9598"/>
</g>
<!-- 063 (a)&#45;&gt;045 (a) -->
<g id="edge8" class="edge"><title>063 (a)&#45;&gt;045 (a)</title>
<path fill="none" stroke="black" d="M367.416,-147.503C349.99,-136.803 325.432,-121.724 306.069,-109.834"/>
<polygon fill="black" stroke="black" points="307.663,-106.705 297.31,-104.455 304,-112.671 307.663,-106.705"/>
</g>
<!-- 021 (a) -->
<g id="node20" class="node"><title>021 (a)</title>
<ellipse fill="#ff8a8a" stroke="#b43f3f" cx="389.397" cy="-90" rx="36.2938" ry="18"/>
<text text-anchor="middle" x="389.397" y="-86.3" font-family="Times,serif" font-size="14.00">021 (a)</text>
</g>
<!-- 063 (a)&#45;&gt;021 (a) -->
<g id="edge10" class="edge"><title>063 (a)&#45;&gt;021 (a)</title>
<path fill="none" stroke="black" d="M389.397,-143.697C389.397,-135.983 389.397,-126.712 389.397,-118.112"/>
<polygon fill="black" stroke="black" points="392.897,-118.104 389.397,-108.104 385.897,-118.104 392.897,-118.104"/>
</g>
<!-- 07 (a) -->
<g id="node21" class="node"><title>07 (a)</title>
<ellipse fill="#ff8a8a" stroke="#b43f3f" cx="491.397" cy="-90" rx="31.6951" ry="18"/>
<text text-anchor="middle" x="491.397" y="-86.3" font-family="Times,serif" font-size="14.00">07 (a)</text>
</g>
<!-- 063 (a)&#45;&gt;07 (a) -->
<g id="edge11" class="edge"><title>063 (a)&#45;&gt;07 (a)</title>
<path fill="none" stroke="black" d="M410.038,-146.834C425.405,-136.288 446.554,-121.774 463.438,-110.188"/>
<polygon fill="black" stroke="black" points="465.56,-112.976 471.824,-104.432 461.599,-107.205 465.56,-112.976"/>
</g>
<!-- 011 (a) -->
<g id="node23" class="node"><title>011 (a)</title>
<ellipse fill="#ff8a8a" stroke="#b43f3f" cx="577.397" cy="-90" rx="36.2938" ry="18"/>
<text text-anchor="middle" x="577.397" y="-86.3" font-family="Times,serif" font-size="14.00">011 (a)</text>
</g>
<!-- 063 (a)&#45;&gt;011 (a) -->
<g id="edge9" class="edge"><title>063 (a)&#45;&gt;011 (a)</title>
<path fill="none" stroke="black" d="M417.634,-150.594C446.493,-139.944 492.597,-122.893 532.397,-108 534.792,-107.104 537.258,-106.178 539.744,-105.244"/>
<polygon fill="black" stroke="black" points="541.197,-108.437 549.321,-101.637 538.73,-101.886 541.197,-108.437"/>
</g>
<!-- A (a) -->
<g id="node17" class="node"><title>A (a)</title>
<ellipse fill="#ff8a8a" stroke="#b43f3f" cx="625.397" cy="-306" rx="29.4969" ry="18"/>
<text text-anchor="middle" x="625.397" y="-302.3" font-family="Times,serif" font-size="14.00">A (a)</text>
</g>
<!-- A (a)&#45;&gt;P75 (a) -->
<g id="edge14" class="edge"><title>A (a)&#45;&gt;P75 (a)</title>
<path fill="none" stroke="black" d="M600.963,-295.705C569.778,-283.841 515.509,-263.195 479.027,-249.316"/>
<polygon fill="black" stroke="black" points="479.834,-245.878 469.243,-245.594 477.345,-252.421 479.834,-245.878"/>
</g>
<!-- 019 (a) -->
<g id="node18" class="node"><title>019 (a)</title>
<ellipse fill="#ff8a8a" stroke="#b43f3f" cx="532.397" cy="-234" rx="36.2938" ry="18"/>
<text text-anchor="middle" x="532.397" y="-230.3" font-family="Times,serif" font-size="14.00">019 (a)</text>
</g>
<!-- A (a)&#45;&gt;019 (a) -->
<g id="edge13" class="edge"><title>A (a)&#45;&gt;019 (a)</title>
<path fill="none" stroke="black" d="M607.465,-291.503C593.927,-281.313 575.113,-267.152 559.707,-255.556"/>
<polygon fill="black" stroke="black" points="561.648,-252.637 551.554,-249.419 557.439,-258.229 561.648,-252.637"/>
</g>
<!-- 05/2 (a) -->
<g id="node24" class="node"><title>05/2 (a)</title>
<ellipse fill="#ff8a8a" stroke="#b43f3f" cx="625.397" cy="-234" rx="38.1938" ry="18"/>
<text text-anchor="middle" x="625.397" y="-230.3" font-family="Times,serif" font-size="14.00">05/2 (a)</text>
</g>
<!-- A (a)&#45;&gt;05/2 (a) -->
<g id="edge16" class="edge"><title>A (a)&#45;&gt;05/2 (a)</title>
<path fill="none" stroke="black" d="M625.397,-287.697C625.397,-279.983 625.397,-270.712 625.397,-262.112"/>
<polygon fill="black" stroke="black" points="628.897,-262.104 625.397,-252.104 621.897,-262.104 628.897,-262.104"/>
</g>
<!-- 03 (a) -->
<g id="node25" class="node"><title>03 (a)</title>
<ellipse fill="#ff8a8a" stroke="#b43f3f" cx="713.397" cy="-234" rx="31.6951" ry="18"/>
<text text-anchor="middle" x="713.397" y="-230.3" font-family="Times,serif" font-size="14.00">03 (a)</text>
</g>
<!-- A (a)&#45;&gt;03 (a) -->
<g id="edge12" class="edge"><title>A (a)&#45;&gt;03 (a)</title>
<path fill="none" stroke="black" d="M642.783,-291.17C655.596,-280.978 673.231,-266.95 687.673,-255.462"/>
<polygon fill="black" stroke="black" points="690.099,-258.005 695.746,-249.041 685.741,-252.527 690.099,-258.005"/>
</g>
<!-- 01 (b) -->
<g id="node27" class="node"><title>01 (b)</title>
<ellipse fill="#cea8f4" stroke="#835da9" cx="795.397" cy="-234" rx="32.4942" ry="18"/>
<text text-anchor="middle" x="795.397" y="-230.3" font-family="Times,serif" font-size="14.00">01 (b)</text>
</g>
<!-- A (a)&#45;&gt;01 (b) -->
<g id="edge15" class="edge"><title>A (a)&#45;&gt;01 (b)</title>
<path fill="none" stroke="black" d="M649.182,-295.255C675.074,-284.64 717.692,-267.15 754.397,-252 756.48,-251.14 758.623,-250.255 760.784,-249.361"/>
<polygon fill="black" stroke="black" points="762.35,-252.501 770.25,-245.442 759.672,-246.033 762.35,-252.501"/>
</g>
<!-- 019 (a)&#45;&gt;063 (a) -->
<g id="edge17" class="edge"><title>019 (a)&#45;&gt;063 (a)</title>
<path fill="none" stroke="black" d="M507.488,-220.807C484.255,-209.434 449.396,-192.37 423.568,-179.727"/>
<polygon fill="black" stroke="black" points="425.02,-176.541 414.5,-175.288 421.943,-182.828 425.02,-176.541"/>
</g>
<!-- 037 (a) -->
<g id="node19" class="node"><title>037 (a)</title>
<ellipse fill="#ff8a8a" stroke="#b43f3f" cx="695.397" cy="-18" rx="36.2938" ry="18"/>
<text text-anchor="middle" x="695.397" y="-14.3" font-family="Times,serif" font-size="14.00">037 (a)</text>
</g>
<!-- 021 (a)&#45;&gt;047 (a) -->
<g id="edge18" class="edge"><title>021 (a)&#45;&gt;047 (a)</title>
<path fill="none" stroke="black" d="M372.038,-73.811C360.955,-64.1135 346.414,-51.3905 334.133,-40.6438"/>
<polygon fill="black" stroke="black" points="336.277,-37.8699 326.447,-33.9188 331.668,-43.1379 336.277,-37.8699"/>
</g>
<!-- 021 (a)&#45;&gt;036 (a) -->
<g id="edge19" class="edge"><title>021 (a)&#45;&gt;036 (a)</title>
<path fill="none" stroke="black" d="M392.116,-71.6966C393.328,-63.9827 394.785,-54.7125 396.136,-46.1124"/>
<polygon fill="black" stroke="black" points="399.614,-46.5265 397.709,-36.1043 392.699,-45.4397 399.614,-46.5265"/>
</g>
<!-- 07 (a)&#45;&gt;034 (a) -->
<g id="edge21" class="edge"><title>07 (a)&#45;&gt;034 (a)</title>
<path fill="none" stroke="black" d="M491.397,-71.6966C491.397,-63.9827 491.397,-54.7125 491.397,-46.1124"/>
<polygon fill="black" stroke="black" points="494.897,-46.1043 491.397,-36.1043 487.897,-46.1044 494.897,-46.1043"/>
</g>
<!-- 07 (a)&#45;&gt;0211/2 (a) -->
<g id="edge20" class="edge"><title>07 (a)&#45;&gt;0211/2 (a)</title>
<path fill="none" stroke="black" d="M511.063,-75.5033C525.754,-65.4215 546.108,-51.4532 562.902,-39.9276"/>
<polygon fill="black" stroke="black" points="565.047,-42.7009 571.311,-34.1566 561.086,-36.9293 565.047,-42.7009"/>
</g>
<!-- 07 (a)&#45;&gt;037 (a) -->
<g id="edge23" class="edge"><title>07 (a)&#45;&gt;037 (a)</title>
<path fill="none" stroke="black" d="M515.965,-78.3707C521.343,-76.1684 527.032,-73.9326 532.397,-72 583.582,-53.5603 597.861,-53.4366 649.397,-36 652.119,-35.0791 654.922,-34.1055 657.739,-33.1092"/>
<polygon fill="black" stroke="black" points="659.043,-36.3595 667.265,-29.6774 656.671,-29.7738 659.043,-36.3595"/>
</g>
<!-- 030 (a) -->
<g id="node22" class="node"><title>030 (a)</title>
<ellipse fill="#ff8a8a" stroke="#b43f3f" cx="786.397" cy="-18" rx="36.2938" ry="18"/>
<text text-anchor="middle" x="786.397" y="-14.3" font-family="Times,serif" font-size="14.00">030 (a)</text>
</g>
<!-- 07 (a)&#45;&gt;030 (a) -->
<g id="edge22" class="edge"><title>07 (a)&#45;&gt;030 (a)</title>
<path fill="none" stroke="black" d="M515.36,-78.0242C520.874,-75.7918 526.772,-73.6309 532.397,-72 622.504,-45.8727 649.796,-60.3626 740.397,-36 743.344,-35.2075 746.367,-34.3037 749.388,-33.3352"/>
<polygon fill="black" stroke="black" points="750.597,-36.621 758.931,-30.079 748.337,-29.996 750.597,-36.621"/>
</g>
<!-- 03 (a)&#45;&gt;044 (a) -->
<g id="edge24" class="edge"><title>03 (a)&#45;&gt;044 (a)</title>
<path fill="none" stroke="black" d="M702.96,-216.765C697.529,-208.317 690.768,-197.799 684.669,-188.312"/>
<polygon fill="black" stroke="black" points="687.441,-186.153 679.09,-179.633 681.553,-189.938 687.441,-186.153"/>
</g>
<!-- 03 (a)&#45;&gt;032 (a) -->
<g id="edge26" class="edge"><title>03 (a)&#45;&gt;032 (a)</title>
<path fill="none" stroke="black" d="M724.066,-216.765C729.674,-208.23 736.671,-197.582 742.956,-188.019"/>
<polygon fill="black" stroke="black" points="745.899,-189.913 748.466,-179.633 740.049,-186.068 745.899,-189.913"/>
</g>
<!-- 02 (a) -->
<g id="node26" class="node"><title>02 (a)</title>
<ellipse fill="#ff8a8a" stroke="#b43f3f" cx="845.397" cy="-162" rx="31.6951" ry="18"/>
<text text-anchor="middle" x="845.397" y="-158.3" font-family="Times,serif" font-size="14.00">02 (a)</text>
</g>
<!-- 03 (a)&#45;&gt;02 (a) -->
<g id="edge25" class="edge"><title>03 (a)&#45;&gt;02 (a)</title>
<path fill="none" stroke="black" d="M735.789,-221.125C757.217,-209.762 789.747,-192.511 813.807,-179.752"/>
<polygon fill="black" stroke="black" points="815.7,-182.71 822.895,-174.933 812.421,-176.526 815.7,-182.71"/>
</g>
</g>
</svg>
