<?xml version="1.0" encoding="UTF-8" standalone="no"?>
<!DOCTYPE svg PUBLIC "-//W3C//DTD SVG 1.1//EN"
 "http://www.w3.org/Graphics/SVG/1.1/DTD/svg11.dtd">
<!-- Generated by graphviz version 2.38.0 (20140413.2041)
 -->
<!-- Title: G Pages: 1 -->
<svg width="1221pt" height="188pt"
 viewBox="0.00 0.00 1220.94 188.00" xmlns="http://www.w3.org/2000/svg" xmlns:xlink="http://www.w3.org/1999/xlink">
<g id="graph0" class="graph" transform="scale(1 1) rotate(0) translate(4 184)">
<title>G</title>
<polygon fill="white" stroke="none" points="-4,4 -4,-184 1216.94,-184 1216.94,4 -4,4"/>
<!-- 02 (b) -->
<g id="node1" class="node"><title>02 (b)</title>
<ellipse fill="#cea8f4" stroke="#835da9" cx="54.5461" cy="-90" rx="32.4942" ry="18"/>
<text text-anchor="middle" x="54.5461" y="-86.3" font-family="Times,serif" font-size="14.00">02 (b)</text>
</g>
<!-- 017 (a) -->
<g id="node2" class="node"><title>017 (a)</title>
<ellipse fill="#ff8a8a" stroke="#b43f3f" cx="808.546" cy="-18" rx="36.2938" ry="18"/>
<text text-anchor="middle" x="808.546" y="-14.3" font-family="Times,serif" font-size="14.00">017 (a)</text>
</g>
<!-- 019 (b) -->
<g id="node3" class="node"><title>019 (b)</title>
<ellipse fill="#cea8f4" stroke="#835da9" cx="794.546" cy="-162" rx="36.2938" ry="18"/>
<text text-anchor="middle" x="794.546" y="-158.3" font-family="Times,serif" font-size="14.00">019 (b)</text>
</g>
<!-- 034 (a) -->
<g id="node4" class="node"><title>034 (a)</title>
<ellipse fill="#ff8a8a" stroke="#b43f3f" cx="422.546" cy="-18" rx="36.2938" ry="18"/>
<text text-anchor="middle" x="422.546" y="-14.3" font-family="Times,serif" font-size="14.00">034 (a)</text>
</g>
<!-- 045 (a) -->
<g id="node5" class="node"><title>045 (a)</title>
<ellipse fill="#ff8a8a" stroke="#b43f3f" cx="425.546" cy="-90" rx="36.2938" ry="18"/>
<text text-anchor="middle" x="425.546" y="-86.3" font-family="Times,serif" font-size="14.00">045 (a)</text>
</g>
<!-- 038 (a) -->
<g id="node13" class="node"><title>038 (a)</title>
<ellipse fill="#ff8a8a" stroke="#b43f3f" cx="331.546" cy="-18" rx="36.2938" ry="18"/>
<text text-anchor="middle" x="331.546" y="-14.3" font-family="Times,serif" font-size="14.00">038 (a)</text>
</g>
<!-- 045 (a)&#45;&gt;038 (a) -->
<g id="edge1" class="edge"><title>045 (a)&#45;&gt;038 (a)</title>
<path fill="none" stroke="black" d="M406.069,-74.496C392.583,-64.4532 374.429,-50.9344 359.416,-39.7541"/>
<polygon fill="black" stroke="black" points="361.109,-36.651 350.998,-33.4855 356.928,-42.2653 361.109,-36.651"/>
</g>
<!-- 044 (b) -->
<g id="node6" class="node"><title>044 (b)</title>
<ellipse fill="#cea8f4" stroke="#835da9" cx="141.546" cy="-90" rx="36.2938" ry="18"/>
<text text-anchor="middle" x="141.546" y="-86.3" font-family="Times,serif" font-size="14.00">044 (b)</text>
</g>
<!-- 011/2 (b) -->
<g id="node12" class="node"><title>011/2 (b)</title>
<ellipse fill="#cea8f4" stroke="#835da9" cx="43.5461" cy="-18" rx="43.5923" ry="18"/>
<text text-anchor="middle" x="43.5461" y="-14.3" font-family="Times,serif" font-size="14.00">011/2 (b)</text>
</g>
<!-- 044 (b)&#45;&gt;011/2 (b) -->
<g id="edge2" class="edge"><title>044 (b)&#45;&gt;011/2 (b)</title>
<path fill="none" stroke="black" d="M121.714,-74.8345C107.652,-64.7896 88.5493,-51.1451 72.7486,-39.8589"/>
<polygon fill="black" stroke="black" points="74.5348,-36.8336 64.3631,-33.8693 70.4661,-42.5298 74.5348,-36.8336"/>
</g>
<!-- 022 (b) -->
<g id="node14" class="node"><title>022 (b)</title>
<ellipse fill="#cea8f4" stroke="#835da9" cx="141.546" cy="-18" rx="36.2938" ry="18"/>
<text text-anchor="middle" x="141.546" y="-14.3" font-family="Times,serif" font-size="14.00">022 (b)</text>
</g>
<!-- 044 (b)&#45;&gt;022 (b) -->
<g id="edge4" class="edge"><title>044 (b)&#45;&gt;022 (b)</title>
<path fill="none" stroke="black" d="M141.546,-71.6966C141.546,-63.9827 141.546,-54.7125 141.546,-46.1124"/>
<polygon fill="black" stroke="black" points="145.046,-46.1043 141.546,-36.1043 138.046,-46.1044 145.046,-46.1043"/>
</g>
<!-- 0141 (b) -->
<g id="node24" class="node"><title>0141 (b)</title>
<ellipse fill="#cea8f4" stroke="#835da9" cx="236.546" cy="-18" rx="40.8928" ry="18"/>
<text text-anchor="middle" x="236.546" y="-14.3" font-family="Times,serif" font-size="14.00">0141 (b)</text>
</g>
<!-- 044 (b)&#45;&gt;0141 (b) -->
<g id="edge3" class="edge"><title>044 (b)&#45;&gt;0141 (b)</title>
<path fill="none" stroke="black" d="M161.23,-74.496C174.895,-64.4269 193.303,-50.8636 208.499,-39.6664"/>
<polygon fill="black" stroke="black" points="210.586,-42.476 216.56,-33.7263 206.434,-36.8406 210.586,-42.476"/>
</g>
<!-- 07 (a) -->
<g id="node7" class="node"><title>07 (a)</title>
<ellipse fill="#ff8a8a" stroke="#b43f3f" cx="604.546" cy="-90" rx="31.6951" ry="18"/>
<text text-anchor="middle" x="604.546" y="-86.3" font-family="Times,serif" font-size="14.00">07 (a)</text>
</g>
<!-- 07 (a)&#45;&gt;034 (a) -->
<g id="edge6" class="edge"><title>07 (a)&#45;&gt;034 (a)</title>
<path fill="none" stroke="black" d="M578.856,-79.1192C547.867,-67.2002 495.52,-47.0669 460.026,-33.4152"/>
<polygon fill="black" stroke="black" points="461.083,-30.072 450.493,-29.7489 458.57,-36.6054 461.083,-30.072"/>
</g>
<!-- 030 (a) -->
<g id="node9" class="node"><title>030 (a)</title>
<ellipse fill="#ff8a8a" stroke="#b43f3f" cx="513.546" cy="-18" rx="36.2938" ry="18"/>
<text text-anchor="middle" x="513.546" y="-14.3" font-family="Times,serif" font-size="14.00">030 (a)</text>
</g>
<!-- 07 (a)&#45;&gt;030 (a) -->
<g id="edge8" class="edge"><title>07 (a)&#45;&gt;030 (a)</title>
<path fill="none" stroke="black" d="M586.131,-74.8345C573.107,-64.8158 555.427,-51.2163 540.778,-39.9473"/>
<polygon fill="black" stroke="black" points="542.621,-36.9493 532.56,-33.6263 538.353,-42.4977 542.621,-36.9493"/>
</g>
<!-- 037 (a) -->
<g id="node17" class="node"><title>037 (a)</title>
<ellipse fill="#ff8a8a" stroke="#b43f3f" cx="604.546" cy="-18" rx="36.2938" ry="18"/>
<text text-anchor="middle" x="604.546" y="-14.3" font-family="Times,serif" font-size="14.00">037 (a)</text>
</g>
<!-- 07 (a)&#45;&gt;037 (a) -->
<g id="edge7" class="edge"><title>07 (a)&#45;&gt;037 (a)</title>
<path fill="none" stroke="black" d="M604.546,-71.6966C604.546,-63.9827 604.546,-54.7125 604.546,-46.1124"/>
<polygon fill="black" stroke="black" points="608.046,-46.1043 604.546,-36.1043 601.046,-46.1044 608.046,-46.1043"/>
</g>
<!-- 0211/2 (a) -->
<g id="node18" class="node"><title>0211/2 (a)</title>
<ellipse fill="#ff8a8a" stroke="#b43f3f" cx="706.546" cy="-18" rx="47.3916" ry="18"/>
<text text-anchor="middle" x="706.546" y="-14.3" font-family="Times,serif" font-size="14.00">0211/2 (a)</text>
</g>
<!-- 07 (a)&#45;&gt;0211/2 (a) -->
<g id="edge5" class="edge"><title>07 (a)&#45;&gt;0211/2 (a)</title>
<path fill="none" stroke="black" d="M624.213,-75.5033C638.903,-65.4215 659.257,-51.4532 676.052,-39.9276"/>
<polygon fill="black" stroke="black" points="678.196,-42.7009 684.461,-34.1566 674.235,-36.9293 678.196,-42.7009"/>
</g>
<!-- 032 (b) -->
<g id="node8" class="node"><title>032 (b)</title>
<ellipse fill="#cea8f4" stroke="#835da9" cx="232.546" cy="-90" rx="36.2938" ry="18"/>
<text text-anchor="middle" x="232.546" y="-86.3" font-family="Times,serif" font-size="14.00">032 (b)</text>
</g>
<!-- 047 (a) -->
<g id="node10" class="node"><title>047 (a)</title>
<ellipse fill="#ff8a8a" stroke="#b43f3f" cx="1085.55" cy="-18" rx="36.2938" ry="18"/>
<text text-anchor="middle" x="1085.55" y="-14.3" font-family="Times,serif" font-size="14.00">047 (a)</text>
</g>
<!-- 05 (c) -->
<g id="node11" class="node"><title>05 (c)</title>
<ellipse fill="#72fe95" stroke="#27b34a" cx="880.546" cy="-162" rx="31.6951" ry="18"/>
<text text-anchor="middle" x="880.546" y="-158.3" font-family="Times,serif" font-size="14.00">05 (c)</text>
</g>
<!-- 028 (a) -->
<g id="node15" class="node"><title>028 (a)</title>
<ellipse fill="#ff8a8a" stroke="#b43f3f" cx="703.546" cy="-90" rx="36.2938" ry="18"/>
<text text-anchor="middle" x="703.546" y="-86.3" font-family="Times,serif" font-size="14.00">028 (a)</text>
</g>
<!-- 063 (a) -->
<g id="node16" class="node"><title>063 (a)</title>
<ellipse fill="#ff8a8a" stroke="#b43f3f" cx="703.546" cy="-162" rx="36.2938" ry="18"/>
<text text-anchor="middle" x="703.546" y="-158.3" font-family="Times,serif" font-size="14.00">063 (a)</text>
</g>
<!-- 063 (a)&#45;&gt;045 (a) -->
<g id="edge9" class="edge"><title>063 (a)&#45;&gt;045 (a)</title>
<path fill="none" stroke="black" d="M671.927,-153.038C621.553,-140.354 523.071,-115.557 467.076,-101.457"/>
<polygon fill="black" stroke="black" points="467.688,-98.0021 457.136,-98.9543 465.979,-104.79 467.688,-98.0021"/>
</g>
<!-- 063 (a)&#45;&gt;07 (a) -->
<g id="edge10" class="edge"><title>063 (a)&#45;&gt;07 (a)</title>
<path fill="none" stroke="black" d="M683.512,-146.834C668.829,-136.453 648.708,-122.225 632.451,-110.731"/>
<polygon fill="black" stroke="black" points="634.063,-107.584 623.877,-104.668 630.021,-113.299 634.063,-107.584"/>
</g>
<!-- 063 (a)&#45;&gt;028 (a) -->
<g id="edge13" class="edge"><title>063 (a)&#45;&gt;028 (a)</title>
<path fill="none" stroke="black" d="M703.546,-143.697C703.546,-135.983 703.546,-126.712 703.546,-118.112"/>
<polygon fill="black" stroke="black" points="707.046,-118.104 703.546,-108.104 700.046,-118.104 707.046,-118.104"/>
</g>
<!-- 031 (a) -->
<g id="node19" class="node"><title>031 (a)</title>
<ellipse fill="#ff8a8a" stroke="#b43f3f" cx="853.546" cy="-90" rx="36.2938" ry="18"/>
<text text-anchor="middle" x="853.546" y="-86.3" font-family="Times,serif" font-size="14.00">031 (a)</text>
</g>
<!-- 063 (a)&#45;&gt;031 (a) -->
<g id="edge12" class="edge"><title>063 (a)&#45;&gt;031 (a)</title>
<path fill="none" stroke="black" d="M728.992,-149.125C753.666,-137.611 791.291,-120.052 818.732,-107.246"/>
<polygon fill="black" stroke="black" points="820.394,-110.333 827.976,-102.933 817.434,-103.99 820.394,-110.333"/>
</g>
<!-- 021 (a) -->
<g id="node22" class="node"><title>021 (a)</title>
<ellipse fill="#ff8a8a" stroke="#b43f3f" cx="1085.55" cy="-90" rx="36.2938" ry="18"/>
<text text-anchor="middle" x="1085.55" y="-86.3" font-family="Times,serif" font-size="14.00">021 (a)</text>
</g>
<!-- 063 (a)&#45;&gt;021 (a) -->
<g id="edge11" class="edge"><title>063 (a)&#45;&gt;021 (a)</title>
<path fill="none" stroke="black" d="M730.994,-149.852C737.034,-147.682 743.45,-145.591 749.546,-144 851.517,-117.394 974.594,-102.127 1039.8,-95.3195"/>
<polygon fill="black" stroke="black" points="1040.17,-98.8004 1049.76,-94.299 1039.45,-91.8369 1040.17,-98.8004"/>
</g>
<!-- 031 (a)&#45;&gt;017 (a) -->
<g id="edge14" class="edge"><title>031 (a)&#45;&gt;017 (a)</title>
<path fill="none" stroke="black" d="M842.882,-72.411C837.446,-63.9549 830.721,-53.4944 824.668,-44.0783"/>
<polygon fill="black" stroke="black" points="827.486,-41.9891 819.134,-35.4699 821.597,-45.7744 827.486,-41.9891"/>
</g>
<!-- 013 (a) -->
<g id="node25" class="node"><title>013 (a)</title>
<ellipse fill="#ff8a8a" stroke="#b43f3f" cx="899.546" cy="-18" rx="36.2938" ry="18"/>
<text text-anchor="middle" x="899.546" y="-14.3" font-family="Times,serif" font-size="14.00">013 (a)</text>
</g>
<!-- 031 (a)&#45;&gt;013 (a) -->
<g id="edge15" class="edge"><title>031 (a)&#45;&gt;013 (a)</title>
<path fill="none" stroke="black" d="M864.215,-72.7646C869.823,-64.2301 876.821,-53.5822 883.105,-44.0191"/>
<polygon fill="black" stroke="black" points="886.049,-45.9126 888.616,-35.6334 880.199,-42.0683 886.049,-45.9126"/>
</g>
<!-- 01/2 (a) -->
<g id="node26" class="node"><title>01/2 (a)</title>
<ellipse fill="#ff8a8a" stroke="#b43f3f" cx="992.546" cy="-18" rx="38.1938" ry="18"/>
<text text-anchor="middle" x="992.546" y="-14.3" font-family="Times,serif" font-size="14.00">01/2 (a)</text>
</g>
<!-- 031 (a)&#45;&gt;01/2 (a) -->
<g id="edge16" class="edge"><title>031 (a)&#45;&gt;01/2 (a)</title>
<path fill="none" stroke="black" d="M878.077,-76.6465C900.33,-65.44 933.362,-48.805 958.231,-36.2812"/>
<polygon fill="black" stroke="black" points="959.966,-39.3263 967.323,-31.7025 956.817,-33.0744 959.966,-39.3263"/>
</g>
<!-- P75 (b) -->
<g id="node20" class="node"><title>P75 (b)</title>
<ellipse fill="#cea8f4" stroke="#835da9" cx="967.546" cy="-162" rx="37.0935" ry="18"/>
<text text-anchor="middle" x="967.546" y="-158.3" font-family="Times,serif" font-size="14.00">P75 (b)</text>
</g>
<!-- 03 (b) -->
<g id="node21" class="node"><title>03 (b)</title>
<ellipse fill="#cea8f4" stroke="#835da9" cx="141.546" cy="-162" rx="32.4942" ry="18"/>
<text text-anchor="middle" x="141.546" y="-158.3" font-family="Times,serif" font-size="14.00">03 (b)</text>
</g>
<!-- 03 (b)&#45;&gt;02 (b) -->
<g id="edge17" class="edge"><title>03 (b)&#45;&gt;02 (b)</title>
<path fill="none" stroke="black" d="M123.94,-146.834C111.323,-136.682 94.1349,-122.853 80.022,-111.498"/>
<polygon fill="black" stroke="black" points="82.111,-108.686 72.1257,-105.144 77.7228,-114.14 82.111,-108.686"/>
</g>
<!-- 03 (b)&#45;&gt;044 (b) -->
<g id="edge19" class="edge"><title>03 (b)&#45;&gt;044 (b)</title>
<path fill="none" stroke="black" d="M141.546,-143.697C141.546,-135.983 141.546,-126.712 141.546,-118.112"/>
<polygon fill="black" stroke="black" points="145.046,-118.104 141.546,-108.104 138.046,-118.104 145.046,-118.104"/>
</g>
<!-- 03 (b)&#45;&gt;032 (b) -->
<g id="edge18" class="edge"><title>03 (b)&#45;&gt;032 (b)</title>
<path fill="none" stroke="black" d="M159.961,-146.834C172.986,-136.816 190.665,-123.216 205.315,-111.947"/>
<polygon fill="black" stroke="black" points="207.74,-114.498 213.532,-105.626 203.472,-108.949 207.74,-114.498"/>
</g>
<!-- 021 (a)&#45;&gt;047 (a) -->
<g id="edge20" class="edge"><title>021 (a)&#45;&gt;047 (a)</title>
<path fill="none" stroke="black" d="M1085.55,-71.6966C1085.55,-63.9827 1085.55,-54.7125 1085.55,-46.1124"/>
<polygon fill="black" stroke="black" points="1089.05,-46.1043 1085.55,-36.1043 1082.05,-46.1044 1089.05,-46.1043"/>
</g>
<!-- 036 (a) -->
<g id="node23" class="node"><title>036 (a)</title>
<ellipse fill="#ff8a8a" stroke="#b43f3f" cx="1176.55" cy="-18" rx="36.2938" ry="18"/>
<text text-anchor="middle" x="1176.55" y="-14.3" font-family="Times,serif" font-size="14.00">036 (a)</text>
</g>
<!-- 021 (a)&#45;&gt;036 (a) -->
<g id="edge21" class="edge"><title>021 (a)&#45;&gt;036 (a)</title>
<path fill="none" stroke="black" d="M1104.4,-74.496C1117.46,-64.4532 1135.03,-50.9344 1149.57,-39.7541"/>
<polygon fill="black" stroke="black" points="1151.92,-42.3568 1157.72,-33.4855 1147.65,-36.8084 1151.92,-42.3568"/>
</g>
</g>
</svg>
