<?xml version="1.0" encoding="UTF-8" standalone="no"?>
<!DOCTYPE svg PUBLIC "-//W3C//DTD SVG 1.1//EN"
 "http://www.w3.org/Graphics/SVG/1.1/DTD/svg11.dtd">
<!-- Generated by graphviz version 2.38.0 (20140413.2041)
 -->
<!-- Title: G Pages: 1 -->
<svg width="900pt" height="332pt"
 viewBox="0.00 0.00 899.69 332.00" xmlns="http://www.w3.org/2000/svg" xmlns:xlink="http://www.w3.org/1999/xlink">
<g id="graph0" class="graph" transform="scale(1 1) rotate(0) translate(4 328)">
<title>G</title>
<polygon fill="white" stroke="none" points="-4,4 -4,-328 895.693,-328 895.693,4 -4,4"/>
<!-- 02 (a) -->
<g id="node1" class="node"><title>02 (a)</title>
<ellipse fill="none" stroke="black" cx="759.397" cy="-18" rx="31.6951" ry="18"/>
<text text-anchor="middle" x="759.397" y="-14.3" font-family="Times,serif" font-size="14.00">02 (a)</text>
</g>
<!-- A (b) -->
<g id="node2" class="node"><title>A (b)</title>
<ellipse fill="none" stroke="black" cx="620.397" cy="-306" rx="29.795" ry="18"/>
<text text-anchor="middle" x="620.397" y="-302.3" font-family="Times,serif" font-size="14.00">A (b)</text>
</g>
<!-- 019 (a) -->
<g id="node11" class="node"><title>019 (a)</title>
<ellipse fill="none" stroke="black" cx="471.397" cy="-234" rx="36.2938" ry="18"/>
<text text-anchor="middle" x="471.397" y="-230.3" font-family="Times,serif" font-size="14.00">019 (a)</text>
</g>
<!-- A (b)&#45;&gt;019 (a) -->
<g id="edge2" class="edge"><title>A (b)&#45;&gt;019 (a)</title>
<path fill="none" stroke="black" d="M597.442,-294.216C573.019,-282.742 534.101,-264.458 505.966,-251.241"/>
<polygon fill="black" stroke="black" points="507.414,-248.054 496.875,-246.97 504.438,-254.39 507.414,-248.054"/>
</g>
<!-- 03 (a) -->
<g id="node13" class="node"><title>03 (a)</title>
<ellipse fill="none" stroke="black" cx="571.397" cy="-234" rx="31.6951" ry="18"/>
<text text-anchor="middle" x="571.397" y="-230.3" font-family="Times,serif" font-size="14.00">03 (a)</text>
</g>
<!-- A (b)&#45;&gt;03 (a) -->
<g id="edge4" class="edge"><title>A (b)&#45;&gt;03 (a)</title>
<path fill="none" stroke="black" d="M609.278,-289.116C603.163,-280.38 595.444,-269.353 588.571,-259.535"/>
<polygon fill="black" stroke="black" points="591.414,-257.492 582.812,-251.307 585.679,-261.506 591.414,-257.492"/>
</g>
<!-- 0211/4 (b) -->
<g id="node19" class="node"><title>0211/4 (b)</title>
<ellipse fill="none" stroke="black" cx="669.397" cy="-234" rx="48.1917" ry="18"/>
<text text-anchor="middle" x="669.397" y="-230.3" font-family="Times,serif" font-size="14.00">0211/4 (b)</text>
</g>
<!-- A (b)&#45;&gt;0211/4 (b) -->
<g id="edge1" class="edge"><title>A (b)&#45;&gt;0211/4 (b)</title>
<path fill="none" stroke="black" d="M631.516,-289.116C637.482,-280.592 644.976,-269.886 651.721,-260.251"/>
<polygon fill="black" stroke="black" points="654.771,-261.997 657.639,-251.797 649.037,-257.983 654.771,-261.997"/>
</g>
<!-- 01 (b) -->
<g id="node20" class="node"><title>01 (b)</title>
<ellipse fill="none" stroke="black" cx="768.397" cy="-234" rx="32.4942" ry="18"/>
<text text-anchor="middle" x="768.397" y="-230.3" font-family="Times,serif" font-size="14.00">01 (b)</text>
</g>
<!-- A (b)&#45;&gt;01 (b) -->
<g id="edge3" class="edge"><title>A (b)&#45;&gt;01 (b)</title>
<path fill="none" stroke="black" d="M643.197,-294.216C667.713,-282.621 706.935,-264.07 734.944,-250.822"/>
<polygon fill="black" stroke="black" points="736.798,-253.817 744.341,-246.377 733.805,-247.489 736.798,-253.817"/>
</g>
<!-- 038 (a) -->
<g id="node3" class="node"><title>038 (a)</title>
<ellipse fill="none" stroke="black" cx="36.3968" cy="-18" rx="36.2938" ry="18"/>
<text text-anchor="middle" x="36.3968" y="-14.3" font-family="Times,serif" font-size="14.00">038 (a)</text>
</g>
<!-- 013 (a) -->
<g id="node4" class="node"><title>013 (a)</title>
<ellipse fill="none" stroke="black" cx="127.397" cy="-18" rx="36.2938" ry="18"/>
<text text-anchor="middle" x="127.397" y="-14.3" font-family="Times,serif" font-size="14.00">013 (a)</text>
</g>
<!-- 036 (a) -->
<g id="node5" class="node"><title>036 (a)</title>
<ellipse fill="none" stroke="black" cx="582.397" cy="-18" rx="36.2938" ry="18"/>
<text text-anchor="middle" x="582.397" y="-14.3" font-family="Times,serif" font-size="14.00">036 (a)</text>
</g>
<!-- 05/2 (a) -->
<g id="node6" class="node"><title>05/2 (a)</title>
<ellipse fill="none" stroke="black" cx="754.397" cy="-90" rx="38.1938" ry="18"/>
<text text-anchor="middle" x="754.397" y="-86.3" font-family="Times,serif" font-size="14.00">05/2 (a)</text>
</g>
<!-- 047 (a) -->
<g id="node7" class="node"><title>047 (a)</title>
<ellipse fill="none" stroke="black" cx="673.397" cy="-18" rx="36.2938" ry="18"/>
<text text-anchor="middle" x="673.397" y="-14.3" font-family="Times,serif" font-size="14.00">047 (a)</text>
</g>
<!-- 045 (a) -->
<g id="node8" class="node"><title>045 (a)</title>
<ellipse fill="none" stroke="black" cx="82.3968" cy="-90" rx="36.2938" ry="18"/>
<text text-anchor="middle" x="82.3968" y="-86.3" font-family="Times,serif" font-size="14.00">045 (a)</text>
</g>
<!-- 045 (a)&#45;&gt;038 (a) -->
<g id="edge5" class="edge"><title>045 (a)&#45;&gt;038 (a)</title>
<path fill="none" stroke="black" d="M71.7278,-72.7646C66.1194,-64.2301 59.1222,-53.5822 52.8379,-44.0191"/>
<polygon fill="black" stroke="black" points="55.7441,-42.0683 47.3273,-35.6334 49.8941,-45.9126 55.7441,-42.0683"/>
</g>
<!-- 031 (a) -->
<g id="node9" class="node"><title>031 (a)</title>
<ellipse fill="none" stroke="black" cx="218.397" cy="-90" rx="36.2938" ry="18"/>
<text text-anchor="middle" x="218.397" y="-86.3" font-family="Times,serif" font-size="14.00">031 (a)</text>
</g>
<!-- 031 (a)&#45;&gt;013 (a) -->
<g id="edge7" class="edge"><title>031 (a)&#45;&gt;013 (a)</title>
<path fill="none" stroke="black" d="M199.542,-74.496C186.486,-64.4532 168.912,-50.9344 154.377,-39.7541"/>
<polygon fill="black" stroke="black" points="156.288,-36.8084 146.228,-33.4855 152.02,-42.3568 156.288,-36.8084"/>
</g>
<!-- 017 (a) -->
<g id="node15" class="node"><title>017 (a)</title>
<ellipse fill="none" stroke="black" cx="218.397" cy="-18" rx="36.2938" ry="18"/>
<text text-anchor="middle" x="218.397" y="-14.3" font-family="Times,serif" font-size="14.00">017 (a)</text>
</g>
<!-- 031 (a)&#45;&gt;017 (a) -->
<g id="edge6" class="edge"><title>031 (a)&#45;&gt;017 (a)</title>
<path fill="none" stroke="black" d="M218.397,-71.6966C218.397,-63.9827 218.397,-54.7125 218.397,-46.1124"/>
<polygon fill="black" stroke="black" points="221.897,-46.1043 218.397,-36.1043 214.897,-46.1044 221.897,-46.1043"/>
</g>
<!-- 028 (a) -->
<g id="node10" class="node"><title>028 (a)</title>
<ellipse fill="none" stroke="black" cx="326.397" cy="-90" rx="36.2938" ry="18"/>
<text text-anchor="middle" x="326.397" y="-86.3" font-family="Times,serif" font-size="14.00">028 (a)</text>
</g>
<!-- 063 (a) -->
<g id="node14" class="node"><title>063 (a)</title>
<ellipse fill="none" stroke="black" cx="412.397" cy="-162" rx="36.2938" ry="18"/>
<text text-anchor="middle" x="412.397" y="-158.3" font-family="Times,serif" font-size="14.00">063 (a)</text>
</g>
<!-- 019 (a)&#45;&gt;063 (a) -->
<g id="edge8" class="edge"><title>019 (a)&#45;&gt;063 (a)</title>
<path fill="none" stroke="black" d="M458.009,-217.116C450.39,-208.076 440.702,-196.583 432.217,-186.515"/>
<polygon fill="black" stroke="black" points="434.853,-184.212 425.732,-178.821 429.5,-188.723 434.853,-184.212"/>
</g>
<!-- 07 (a) -->
<g id="node12" class="node"><title>07 (a)</title>
<ellipse fill="none" stroke="black" cx="412.397" cy="-90" rx="31.6951" ry="18"/>
<text text-anchor="middle" x="412.397" y="-86.3" font-family="Times,serif" font-size="14.00">07 (a)</text>
</g>
<!-- 030 (a) -->
<g id="node17" class="node"><title>030 (a)</title>
<ellipse fill="none" stroke="black" cx="309.397" cy="-18" rx="36.2938" ry="18"/>
<text text-anchor="middle" x="309.397" y="-14.3" font-family="Times,serif" font-size="14.00">030 (a)</text>
</g>
<!-- 07 (a)&#45;&gt;030 (a) -->
<g id="edge9" class="edge"><title>07 (a)&#45;&gt;030 (a)</title>
<path fill="none" stroke="black" d="M392.537,-75.5033C377.205,-65.0832 355.763,-50.5113 338.495,-38.7758"/>
<polygon fill="black" stroke="black" points="340.138,-35.6606 329.9,-32.9344 336.204,-41.4501 340.138,-35.6606"/>
</g>
<!-- 037 (a) -->
<g id="node24" class="node"><title>037 (a)</title>
<ellipse fill="none" stroke="black" cx="400.397" cy="-18" rx="36.2938" ry="18"/>
<text text-anchor="middle" x="400.397" y="-14.3" font-family="Times,serif" font-size="14.00">037 (a)</text>
</g>
<!-- 07 (a)&#45;&gt;037 (a) -->
<g id="edge11" class="edge"><title>07 (a)&#45;&gt;037 (a)</title>
<path fill="none" stroke="black" d="M409.492,-72.055C408.17,-64.3456 406.573,-55.0269 405.088,-46.3642"/>
<polygon fill="black" stroke="black" points="408.498,-45.5401 403.358,-36.2753 401.598,-46.7229 408.498,-45.5401"/>
</g>
<!-- 034 (a) -->
<g id="node25" class="node"><title>034 (a)</title>
<ellipse fill="none" stroke="black" cx="491.397" cy="-18" rx="36.2938" ry="18"/>
<text text-anchor="middle" x="491.397" y="-14.3" font-family="Times,serif" font-size="14.00">034 (a)</text>
</g>
<!-- 07 (a)&#45;&gt;034 (a) -->
<g id="edge10" class="edge"><title>07 (a)&#45;&gt;034 (a)</title>
<path fill="none" stroke="black" d="M428.766,-74.496C439.739,-64.7723 454.391,-51.79 466.764,-40.8268"/>
<polygon fill="black" stroke="black" points="469.34,-43.2199 474.504,-33.9684 464.698,-37.9807 469.34,-43.2199"/>
</g>
<!-- 032 (a) -->
<g id="node16" class="node"><title>032 (a)</title>
<ellipse fill="none" stroke="black" cx="526.397" cy="-162" rx="36.2938" ry="18"/>
<text text-anchor="middle" x="526.397" y="-158.3" font-family="Times,serif" font-size="14.00">032 (a)</text>
</g>
<!-- 03 (a)&#45;&gt;032 (a) -->
<g id="edge14" class="edge"><title>03 (a)&#45;&gt;032 (a)</title>
<path fill="none" stroke="black" d="M560.96,-216.765C555.529,-208.317 548.768,-197.799 542.669,-188.312"/>
<polygon fill="black" stroke="black" points="545.441,-186.153 537.09,-179.633 539.553,-189.938 545.441,-186.153"/>
</g>
<!-- 022 (a) -->
<g id="node18" class="node"><title>022 (a)</title>
<ellipse fill="none" stroke="black" cx="617.397" cy="-162" rx="36.2938" ry="18"/>
<text text-anchor="middle" x="617.397" y="-158.3" font-family="Times,serif" font-size="14.00">022 (a)</text>
</g>
<!-- 03 (a)&#45;&gt;022 (a) -->
<g id="edge12" class="edge"><title>03 (a)&#45;&gt;022 (a)</title>
<path fill="none" stroke="black" d="M582.066,-216.765C587.674,-208.23 594.671,-197.582 600.956,-188.019"/>
<polygon fill="black" stroke="black" points="603.899,-189.913 606.466,-179.633 598.049,-186.068 603.899,-189.913"/>
</g>
<!-- 044 (a) -->
<g id="node23" class="node"><title>044 (a)</title>
<ellipse fill="none" stroke="black" cx="754.397" cy="-162" rx="36.2938" ry="18"/>
<text text-anchor="middle" x="754.397" y="-158.3" font-family="Times,serif" font-size="14.00">044 (a)</text>
</g>
<!-- 03 (a)&#45;&gt;044 (a) -->
<g id="edge13" class="edge"><title>03 (a)&#45;&gt;044 (a)</title>
<path fill="none" stroke="black" d="M596.055,-222.608C601.427,-220.391 607.091,-218.089 612.397,-216 647.439,-202.201 687.684,-187.265 716.36,-176.777"/>
<polygon fill="black" stroke="black" points="717.799,-179.977 725.994,-173.261 715.4,-173.401 717.799,-179.977"/>
</g>
<!-- 063 (a)&#45;&gt;045 (a) -->
<g id="edge15" class="edge"><title>063 (a)&#45;&gt;045 (a)</title>
<path fill="none" stroke="black" d="M379.549,-154.032C319.506,-141.296 192.088,-114.268 125.292,-100.099"/>
<polygon fill="black" stroke="black" points="125.621,-96.5909 115.112,-97.9396 124.168,-103.439 125.621,-96.5909"/>
</g>
<!-- 063 (a)&#45;&gt;031 (a) -->
<g id="edge20" class="edge"><title>063 (a)&#45;&gt;031 (a)</title>
<path fill="none" stroke="black" d="M383.771,-150.671C350.005,-138.487 293.746,-118.188 256.363,-104.699"/>
<polygon fill="black" stroke="black" points="257.418,-101.359 246.824,-101.257 255.042,-107.943 257.418,-101.359"/>
</g>
<!-- 063 (a)&#45;&gt;028 (a) -->
<g id="edge19" class="edge"><title>063 (a)&#45;&gt;028 (a)</title>
<path fill="none" stroke="black" d="M394.158,-146.155C382.072,-136.317 366.027,-123.257 352.584,-112.315"/>
<polygon fill="black" stroke="black" points="354.574,-109.422 344.609,-105.824 350.155,-114.851 354.574,-109.422"/>
</g>
<!-- 063 (a)&#45;&gt;07 (a) -->
<g id="edge16" class="edge"><title>063 (a)&#45;&gt;07 (a)</title>
<path fill="none" stroke="black" d="M412.397,-143.697C412.397,-135.983 412.397,-126.712 412.397,-118.112"/>
<polygon fill="black" stroke="black" points="415.897,-118.104 412.397,-108.104 408.897,-118.104 415.897,-118.104"/>
</g>
<!-- 021 (a) -->
<g id="node21" class="node"><title>021 (a)</title>
<ellipse fill="none" stroke="black" cx="570.397" cy="-90" rx="36.2938" ry="18"/>
<text text-anchor="middle" x="570.397" y="-86.3" font-family="Times,serif" font-size="14.00">021 (a)</text>
</g>
<!-- 063 (a)&#45;&gt;021 (a) -->
<g id="edge17" class="edge"><title>063 (a)&#45;&gt;021 (a)</title>
<path fill="none" stroke="black" d="M438.487,-149.441C464.789,-137.788 505.571,-119.72 534.826,-106.759"/>
<polygon fill="black" stroke="black" points="536.542,-109.827 544.268,-102.576 533.707,-103.427 536.542,-109.827"/>
</g>
<!-- 011 (a) -->
<g id="node22" class="node"><title>011 (a)</title>
<ellipse fill="none" stroke="black" cx="661.397" cy="-90" rx="36.2938" ry="18"/>
<text text-anchor="middle" x="661.397" y="-86.3" font-family="Times,serif" font-size="14.00">011 (a)</text>
</g>
<!-- 063 (a)&#45;&gt;011 (a) -->
<g id="edge18" class="edge"><title>063 (a)&#45;&gt;011 (a)</title>
<path fill="none" stroke="black" d="M444.348,-153.068C493.039,-140.91 583.517,-118.026 615.397,-108 618.138,-107.138 620.956,-106.208 623.783,-105.242"/>
<polygon fill="black" stroke="black" points="625.064,-108.502 633.329,-101.872 622.734,-101.901 625.064,-108.502"/>
</g>
<!-- 021 (a)&#45;&gt;036 (a) -->
<g id="edge21" class="edge"><title>021 (a)&#45;&gt;036 (a)</title>
<path fill="none" stroke="black" d="M573.302,-72.055C574.623,-64.3456 576.221,-55.0269 577.706,-46.3642"/>
<polygon fill="black" stroke="black" points="581.195,-46.7229 579.435,-36.2753 574.296,-45.5401 581.195,-46.7229"/>
</g>
<!-- 021 (a)&#45;&gt;047 (a) -->
<g id="edge22" class="edge"><title>021 (a)&#45;&gt;047 (a)</title>
<path fill="none" stroke="black" d="M591.24,-74.8345C606.558,-64.4245 627.564,-50.1483 644.501,-38.6377"/>
<polygon fill="black" stroke="black" points="646.632,-41.4213 652.936,-32.9056 642.698,-35.6318 646.632,-41.4213"/>
</g>
<!-- 011 (a)&#45;&gt;02 (a) -->
<g id="edge23" class="edge"><title>011 (a)&#45;&gt;02 (a)</title>
<path fill="none" stroke="black" d="M681.229,-74.8345C695.763,-64.4525 715.681,-50.2253 731.773,-38.7309"/>
<polygon fill="black" stroke="black" points="734.158,-41.3286 740.261,-32.6681 730.09,-35.6324 734.158,-41.3286"/>
</g>
<!-- 044 (a)&#45;&gt;05/2 (a) -->
<g id="edge24" class="edge"><title>044 (a)&#45;&gt;05/2 (a)</title>
<path fill="none" stroke="black" d="M754.397,-143.697C754.397,-135.983 754.397,-126.712 754.397,-118.112"/>
<polygon fill="black" stroke="black" points="757.897,-118.104 754.397,-108.104 750.897,-118.104 757.897,-118.104"/>
</g>
<!-- 0141 (a) -->
<g id="node26" class="node"><title>0141 (a)</title>
<ellipse fill="none" stroke="black" cx="851.397" cy="-90" rx="40.0939" ry="18"/>
<text text-anchor="middle" x="851.397" y="-86.3" font-family="Times,serif" font-size="14.00">0141 (a)</text>
</g>
<!-- 044 (a)&#45;&gt;0141 (a) -->
<g id="edge25" class="edge"><title>044 (a)&#45;&gt;0141 (a)</title>
<path fill="none" stroke="black" d="M774.026,-146.834C788.039,-136.722 807.107,-122.962 822.807,-111.632"/>
<polygon fill="black" stroke="black" points="825.068,-114.316 831.129,-105.626 820.972,-108.64 825.068,-114.316"/>
</g>
</g>
</svg>
