<?xml version="1.0" encoding="UTF-8" standalone="no"?>
<!DOCTYPE svg PUBLIC "-//W3C//DTD SVG 1.1//EN"
 "http://www.w3.org/Graphics/SVG/1.1/DTD/svg11.dtd">
<!-- Generated by graphviz version 2.38.0 (20140413.2041)
 -->
<!-- Title: %3 Pages: 1 -->
<svg width="1412pt" height="321pt"
 viewBox="0.00 0.00 1412.40 321.00" xmlns="http://www.w3.org/2000/svg" xmlns:xlink="http://www.w3.org/1999/xlink">
<g id="graph0" class="graph" transform="scale(1 1) rotate(0) translate(4 317)">
<title>%3</title>
<polygon fill="white" stroke="none" points="-4,4 -4,-317 1408.4,-317 1408.4,4 -4,4"/>
<g id="clust1" class="cluster"><title>cluster_legend</title>
<path fill="none" stroke="black" d="M20,-177C20,-177 210,-177 210,-177 216,-177 222,-183 222,-189 222,-189 222,-293 222,-293 222,-299 216,-305 210,-305 210,-305 20,-305 20,-305 14,-305 8,-299 8,-293 8,-293 8,-189 8,-189 8,-183 14,-177 20,-177"/>
</g>
<!-- leg_s -->
<g id="node1" class="node"><title>leg_s</title>
<text text-anchor="middle" x="115" y="-275.3" font-family="Times,serif" font-size="14.00">Textual flow strength</text>
</g>
<!-- leg_e1 -->
<!-- leg_s&#45;&gt;leg_e1 -->
<g id="edge1" class="edge"><title>leg_s&#45;&gt;leg_e1</title>
<path fill="none" stroke="black" stroke-dasharray="1,5" d="M96.6657,-260.686C91.1324,-255.194 85.1607,-248.989 80,-243 70.1708,-231.593 60.0722,-217.779 52.9137,-207.563"/>
<polygon fill="black" stroke="black" points="55.6142,-205.314 47.056,-199.068 49.8514,-209.288 55.6142,-205.314"/>
<text text-anchor="middle" x="95.5" y="-231.8" font-family="Times,serif" font-size="14.00">&lt;=5 &#160;</text>
</g>
<!-- leg_e2 -->
<!-- leg_s&#45;&gt;leg_e2 -->
<g id="edge2" class="edge"><title>leg_s&#45;&gt;leg_e2</title>
<path fill="none" stroke="black" stroke-dasharray="5,2" d="M115,-260.799C115,-245.794 115,-224.174 115,-209.409"/>
<polygon fill="black" stroke="black" points="118.5,-209.293 115,-199.293 111.5,-209.293 118.5,-209.293"/>
<text text-anchor="middle" x="134" y="-231.8" font-family="Times,serif" font-size="14.00"> &#160;&lt;=25</text>
</g>
<!-- leg_e3 -->
<!-- leg_s&#45;&gt;leg_e3 -->
<g id="edge3" class="edge"><title>leg_s&#45;&gt;leg_e3</title>
<path fill="none" stroke="black" d="M138.503,-260.76C144.906,-255.462 151.567,-249.344 157,-243 166.087,-232.39 174.095,-218.689 179.546,-208.313"/>
<polygon fill="black" stroke="black" points="182.722,-209.789 184.091,-199.283 176.469,-206.642 182.722,-209.789"/>
<text text-anchor="middle" x="179" y="-231.8" font-family="Times,serif" font-size="14.00">&gt;25</text>
</g>
<!-- 063 -->
<g id="node5" class="node"><title>063</title>
<ellipse fill="#ff8a8a" stroke="#b43f3f" cx="507" cy="-279" rx="36.2938" ry="18"/>
<text text-anchor="middle" x="507" y="-275.3" font-family="Times,serif" font-size="14.00">063 (a)</text>
</g>
<!-- 028 -->
<g id="node6" class="node"><title>028</title>
<ellipse fill="#ff8a8a" stroke="#b43f3f" cx="268" cy="-192" rx="36.2938" ry="18"/>
<text text-anchor="middle" x="268" y="-188.3" font-family="Times,serif" font-size="14.00">028 (a)</text>
</g>
<!-- 063&#45;&gt;028 -->
<g id="edge4" class="edge"><title>063&#45;&gt;028</title>
<path fill="none" stroke="#b43f3f" stroke-dasharray="1,5" d="M474.239,-271.144C447.001,-265.027 407.431,-255.167 374,-243 348.797,-233.828 321.445,-220.845 300.84,-210.408"/>
<polygon fill="#b43f3f" stroke="#b43f3f" points="302.374,-207.261 291.879,-205.814 299.181,-213.491 302.374,-207.261"/>
<text text-anchor="middle" x="396" y="-231.8" font-family="Times,serif" font-size="14.00">1 (96.6)</text>
</g>
<!-- 07 -->
<g id="node7" class="node"><title>07</title>
<ellipse fill="#ff8a8a" stroke="#b43f3f" cx="354" cy="-192" rx="31.6951" ry="18"/>
<text text-anchor="middle" x="354" y="-188.3" font-family="Times,serif" font-size="14.00">07 (a)</text>
</g>
<!-- 063&#45;&gt;07 -->
<g id="edge5" class="edge"><title>063&#45;&gt;07</title>
<path fill="none" stroke="#b43f3f" stroke-dasharray="1,5" d="M483.763,-265.09C457.361,-250.423 414.157,-226.421 384.925,-210.181"/>
<polygon fill="#b43f3f" stroke="#b43f3f" points="386.406,-206.999 375.964,-205.202 383.006,-213.118 386.406,-206.999"/>
<text text-anchor="middle" x="462" y="-231.8" font-family="Times,serif" font-size="14.00">1 (96.6)</text>
</g>
<!-- 021 -->
<g id="node8" class="node"><title>021</title>
<ellipse fill="#ff8a8a" stroke="#b43f3f" cx="507" cy="-192" rx="36.2938" ry="18"/>
<text text-anchor="middle" x="507" y="-188.3" font-family="Times,serif" font-size="14.00">021 (a)</text>
</g>
<!-- 063&#45;&gt;021 -->
<g id="edge6" class="edge"><title>063&#45;&gt;021</title>
<path fill="none" stroke="#b43f3f" stroke-dasharray="1,5" d="M507,-260.799C507,-249.163 507,-233.548 507,-220.237"/>
<polygon fill="#b43f3f" stroke="#b43f3f" points="510.5,-220.175 507,-210.175 503.5,-220.175 510.5,-220.175"/>
<text text-anchor="middle" x="529" y="-231.8" font-family="Times,serif" font-size="14.00">1 (93.1)</text>
</g>
<!-- 045 -->
<g id="node9" class="node"><title>045</title>
<ellipse fill="#ff8a8a" stroke="#b43f3f" cx="598" cy="-192" rx="36.2938" ry="18"/>
<text text-anchor="middle" x="598" y="-188.3" font-family="Times,serif" font-size="14.00">045 (a)</text>
</g>
<!-- 063&#45;&gt;045 -->
<g id="edge7" class="edge"><title>063&#45;&gt;045</title>
<path fill="none" stroke="#b43f3f" stroke-dasharray="1,5" d="M528.372,-264.006C536.992,-257.963 546.814,-250.554 555,-243 563.544,-235.115 572.076,-225.619 579.26,-217.029"/>
<polygon fill="#b43f3f" stroke="#b43f3f" points="582.077,-219.113 585.692,-209.155 576.656,-214.685 582.077,-219.113"/>
<text text-anchor="middle" x="591" y="-231.8" font-family="Times,serif" font-size="14.00">1 (93.1)</text>
</g>
<!-- 011 -->
<g id="node10" class="node"><title>011</title>
<ellipse fill="#ff8a8a" stroke="#b43f3f" cx="689" cy="-192" rx="36.2938" ry="18"/>
<text text-anchor="middle" x="689" y="-188.3" font-family="Times,serif" font-size="14.00">011 (a)</text>
</g>
<!-- 063&#45;&gt;011 -->
<g id="edge8" class="edge"><title>063&#45;&gt;011</title>
<path fill="none" stroke="#b43f3f" stroke-dasharray="1,5" d="M539.267,-270.461C561.727,-264.566 592.009,-255.305 617,-243 633.128,-235.059 649.702,-223.801 662.877,-213.977"/>
<polygon fill="#b43f3f" stroke="#b43f3f" points="665.176,-216.626 671.004,-207.778 660.931,-211.06 665.176,-216.626"/>
<text text-anchor="middle" x="664" y="-231.8" font-family="Times,serif" font-size="14.00">1 (93.1)</text>
</g>
<!-- 030 -->
<g id="node11" class="node"><title>030</title>
<ellipse fill="#ff8a8a" stroke="#b43f3f" cx="143" cy="-105" rx="36.2938" ry="18"/>
<text text-anchor="middle" x="143" y="-101.3" font-family="Times,serif" font-size="14.00">030 (a)</text>
</g>
<!-- 07&#45;&gt;030 -->
<g id="edge9" class="edge"><title>07&#45;&gt;030</title>
<path fill="none" stroke="#b43f3f" stroke-dasharray="1,5" d="M330,-180.151C324.487,-177.912 318.599,-175.716 313,-174 274.832,-162.301 262.152,-170.609 225,-156 205.802,-148.451 186.009,-136.52 170.679,-126.207"/>
<polygon fill="#b43f3f" stroke="#b43f3f" points="172.426,-123.161 162.207,-120.366 168.453,-128.924 172.426,-123.161"/>
<text text-anchor="middle" x="247" y="-144.8" font-family="Times,serif" font-size="14.00">1 (95.1)</text>
</g>
<!-- 037 -->
<g id="node12" class="node"><title>037</title>
<ellipse fill="#ff8a8a" stroke="#b43f3f" cx="234" cy="-105" rx="36.2938" ry="18"/>
<text text-anchor="middle" x="234" y="-101.3" font-family="Times,serif" font-size="14.00">037 (a)</text>
</g>
<!-- 07&#45;&gt;037 -->
<g id="edge10" class="edge"><title>07&#45;&gt;037</title>
<path fill="none" stroke="#b43f3f" stroke-dasharray="1,5" d="M330.431,-179.749C317.997,-173.413 302.726,-164.983 290,-156 278.405,-147.816 266.542,-137.548 256.737,-128.449"/>
<polygon fill="#b43f3f" stroke="#b43f3f" points="259.028,-125.798 249.359,-121.465 254.216,-130.882 259.028,-125.798"/>
<text text-anchor="middle" x="312" y="-144.8" font-family="Times,serif" font-size="14.00">1 (97.5)</text>
</g>
<!-- 013 -->
<g id="node13" class="node"><title>013</title>
<ellipse fill="#ff8a8a" stroke="#b43f3f" cx="325" cy="-105" rx="36.2938" ry="18"/>
<text text-anchor="middle" x="325" y="-101.3" font-family="Times,serif" font-size="14.00">013 (a)</text>
</g>
<!-- 07&#45;&gt;013 -->
<g id="edge11" class="edge"><title>07&#45;&gt;013</title>
<path fill="none" stroke="#b43f3f" stroke-dasharray="1,5" d="M348.271,-174.207C344.245,-162.409 338.776,-146.378 334.151,-132.822"/>
<polygon fill="#b43f3f" stroke="#b43f3f" points="337.358,-131.383 330.817,-123.049 330.733,-133.644 337.358,-131.383"/>
<text text-anchor="middle" x="364" y="-144.8" font-family="Times,serif" font-size="14.00">2 (95.1)</text>
</g>
<!-- 034 -->
<g id="node14" class="node"><title>034</title>
<ellipse fill="#ff8a8a" stroke="#b43f3f" cx="416" cy="-105" rx="36.2938" ry="18"/>
<text text-anchor="middle" x="416" y="-101.3" font-family="Times,serif" font-size="14.00">034 (a)</text>
</g>
<!-- 07&#45;&gt;034 -->
<g id="edge12" class="edge"><title>07&#45;&gt;034</title>
<path fill="none" stroke="#b43f3f" stroke-dasharray="1,5" d="M370.915,-176.669C377.366,-170.689 384.486,-163.414 390,-156 395.456,-148.665 400.393,-140.023 404.463,-132.006"/>
<polygon fill="#b43f3f" stroke="#b43f3f" points="407.617,-133.523 408.821,-122.997 401.315,-130.475 407.617,-133.523"/>
<text text-anchor="middle" x="422" y="-144.8" font-family="Times,serif" font-size="14.00">1 (95.1)</text>
</g>
<!-- 047 -->
<g id="node15" class="node"><title>047</title>
<ellipse fill="#ff8a8a" stroke="#b43f3f" cx="507" cy="-105" rx="36.2938" ry="18"/>
<text text-anchor="middle" x="507" y="-101.3" font-family="Times,serif" font-size="14.00">047 (a)</text>
</g>
<!-- 021&#45;&gt;047 -->
<g id="edge13" class="edge"><title>021&#45;&gt;047</title>
<path fill="none" stroke="#b43f3f" stroke-dasharray="1,5" d="M507,-173.799C507,-162.163 507,-146.548 507,-133.237"/>
<polygon fill="#b43f3f" stroke="#b43f3f" points="510.5,-133.175 507,-123.175 503.5,-133.175 510.5,-133.175"/>
<text text-anchor="middle" x="529" y="-144.8" font-family="Times,serif" font-size="14.00">1 (95.1)</text>
</g>
<!-- 036 -->
<g id="node16" class="node"><title>036</title>
<ellipse fill="#ff8a8a" stroke="#b43f3f" cx="598" cy="-105" rx="36.2938" ry="18"/>
<text text-anchor="middle" x="598" y="-101.3" font-family="Times,serif" font-size="14.00">036 (a)</text>
</g>
<!-- 021&#45;&gt;036 -->
<g id="edge14" class="edge"><title>021&#45;&gt;036</title>
<path fill="none" stroke="#b43f3f" stroke-dasharray="1,5" d="M528.372,-177.006C536.992,-170.963 546.814,-163.554 555,-156 563.544,-148.115 572.076,-138.619 579.26,-130.029"/>
<polygon fill="#b43f3f" stroke="#b43f3f" points="582.077,-132.113 585.692,-122.155 576.656,-127.685 582.077,-132.113"/>
<text text-anchor="middle" x="591" y="-144.8" font-family="Times,serif" font-size="14.00">1 (97.6)</text>
</g>
<!-- 038 -->
<g id="node17" class="node"><title>038</title>
<ellipse fill="#ff8a8a" stroke="#b43f3f" cx="689" cy="-105" rx="36.2938" ry="18"/>
<text text-anchor="middle" x="689" y="-101.3" font-family="Times,serif" font-size="14.00">038 (a)</text>
</g>
<!-- 045&#45;&gt;038 -->
<g id="edge15" class="edge"><title>045&#45;&gt;038</title>
<path fill="none" stroke="#b43f3f" stroke-dasharray="1,5" d="M614.269,-175.804C628.416,-162.59 649.1,-143.269 665.123,-128.303"/>
<polygon fill="#b43f3f" stroke="#b43f3f" points="667.646,-130.735 672.565,-121.351 662.868,-125.62 667.646,-130.735"/>
<text text-anchor="middle" x="671" y="-144.8" font-family="Times,serif" font-size="14.00">1 (92.7)</text>
</g>
<!-- 0141 -->
<g id="node18" class="node"><title>0141</title>
<ellipse fill="#cea8f4" stroke="#835da9" cx="820" cy="-105" rx="40.8928" ry="18"/>
<text text-anchor="middle" x="820" y="-101.3" font-family="Times,serif" font-size="14.00">0141 (b)</text>
</g>
<!-- 017 -->
<g id="node19" class="node"><title>017</title>
<ellipse fill="#cea8f4" stroke="#835da9" cx="820" cy="-18" rx="36.2938" ry="18"/>
<text text-anchor="middle" x="820" y="-14.3" font-family="Times,serif" font-size="14.00">017 (b)</text>
</g>
<!-- 0141&#45;&gt;017 -->
<g id="edge16" class="edge"><title>0141&#45;&gt;017</title>
<path fill="none" stroke="#835da9" stroke-dasharray="1,5" d="M820,-86.799C820,-75.1626 820,-59.5479 820,-46.2368"/>
<polygon fill="#835da9" stroke="#835da9" points="823.5,-46.1754 820,-36.1754 816.5,-46.1755 823.5,-46.1754"/>
<text text-anchor="middle" x="842" y="-57.8" font-family="Times,serif" font-size="14.00">2 (92.7)</text>
</g>
<!-- 03 -->
<g id="node20" class="node"><title>03</title>
<ellipse fill="#cea8f4" stroke="#835da9" cx="871" cy="-279" rx="32.4942" ry="18"/>
<text text-anchor="middle" x="871" y="-275.3" font-family="Times,serif" font-size="14.00">03 (b)</text>
</g>
<!-- 02 -->
<g id="node21" class="node"><title>02</title>
<ellipse fill="#cea8f4" stroke="#835da9" cx="784" cy="-192" rx="32.4942" ry="18"/>
<text text-anchor="middle" x="784" y="-188.3" font-family="Times,serif" font-size="14.00">02 (b)</text>
</g>
<!-- 03&#45;&gt;02 -->
<g id="edge17" class="edge"><title>03&#45;&gt;02</title>
<path fill="none" stroke="#835da9" stroke-dasharray="1,5" d="M850.401,-264.862C841.524,-258.738 831.299,-251.034 823,-243 815.051,-235.304 807.333,-225.945 800.889,-217.414"/>
<polygon fill="#835da9" stroke="#835da9" points="803.642,-215.25 794.909,-209.252 797.996,-219.388 803.642,-215.25"/>
<text text-anchor="middle" x="845" y="-231.8" font-family="Times,serif" font-size="14.00">1 (86.5)</text>
</g>
<!-- 044 -->
<g id="node22" class="node"><title>044</title>
<ellipse fill="#cea8f4" stroke="#835da9" cx="871" cy="-192" rx="36.2938" ry="18"/>
<text text-anchor="middle" x="871" y="-188.3" font-family="Times,serif" font-size="14.00">044 (b)</text>
</g>
<!-- 03&#45;&gt;044 -->
<g id="edge18" class="edge"><title>03&#45;&gt;044</title>
<path fill="none" stroke="#835da9" stroke-dasharray="1,5" d="M871,-260.799C871,-249.163 871,-233.548 871,-220.237"/>
<polygon fill="#835da9" stroke="#835da9" points="874.5,-220.175 871,-210.175 867.5,-220.175 874.5,-220.175"/>
<text text-anchor="middle" x="893" y="-231.8" font-family="Times,serif" font-size="14.00">1 (89.2)</text>
</g>
<!-- 032 -->
<g id="node23" class="node"><title>032</title>
<ellipse fill="#cea8f4" stroke="#835da9" cx="962" cy="-192" rx="36.2938" ry="18"/>
<text text-anchor="middle" x="962" y="-188.3" font-family="Times,serif" font-size="14.00">032 (b)</text>
</g>
<!-- 03&#45;&gt;032 -->
<g id="edge19" class="edge"><title>03&#45;&gt;032</title>
<path fill="none" stroke="#835da9" stroke-dasharray="1,5" d="M891.419,-264.672C900.263,-258.512 910.511,-250.834 919,-243 927.544,-235.115 936.076,-225.619 943.26,-217.029"/>
<polygon fill="#835da9" stroke="#835da9" points="946.077,-219.113 949.692,-209.155 940.656,-214.685 946.077,-219.113"/>
<text text-anchor="middle" x="955" y="-231.8" font-family="Times,serif" font-size="14.00">1 (91.7)</text>
</g>
<!-- 044&#45;&gt;0141 -->
<g id="edge20" class="edge"><title>044&#45;&gt;0141</title>
<path fill="none" stroke="#835da9" stroke-dasharray="1,5" d="M857.032,-175.226C852.253,-169.411 847.087,-162.622 843,-156 838.484,-148.682 834.3,-140.33 830.774,-132.575"/>
<polygon fill="#835da9" stroke="#835da9" points="833.888,-130.961 826.683,-123.194 827.472,-133.76 833.888,-130.961"/>
<text text-anchor="middle" x="865" y="-144.8" font-family="Times,serif" font-size="14.00">1 (89.2)</text>
</g>
<!-- 022 -->
<g id="node24" class="node"><title>022</title>
<ellipse fill="#cea8f4" stroke="#835da9" cx="915" cy="-105" rx="36.2938" ry="18"/>
<text text-anchor="middle" x="915" y="-101.3" font-family="Times,serif" font-size="14.00">022 (b)</text>
</g>
<!-- 044&#45;&gt;022 -->
<g id="edge21" class="edge"><title>044&#45;&gt;022</title>
<path fill="none" stroke="#835da9" stroke-dasharray="1,5" d="M879.693,-174.207C885.96,-162.099 894.536,-145.533 901.666,-131.759"/>
<polygon fill="#835da9" stroke="#835da9" points="904.836,-133.248 906.325,-122.758 898.62,-130.03 904.836,-133.248"/>
<text text-anchor="middle" x="918" y="-144.8" font-family="Times,serif" font-size="14.00">1 (91.7)</text>
</g>
<!-- 091 -->
<g id="node25" class="node"><title>091</title>
<ellipse fill="#cea8f4" stroke="#835da9" cx="1102" cy="-279" rx="36.2938" ry="18"/>
<text text-anchor="middle" x="1102" y="-275.3" font-family="Times,serif" font-size="14.00">091 (b)</text>
</g>
<!-- 0211 -->
<g id="node26" class="node"><title>0211</title>
<ellipse fill="#cea8f4" stroke="#835da9" cx="1057" cy="-192" rx="40.8928" ry="18"/>
<text text-anchor="middle" x="1057" y="-188.3" font-family="Times,serif" font-size="14.00">0211 (b)</text>
</g>
<!-- 091&#45;&gt;0211 -->
<g id="edge22" class="edge"><title>091&#45;&gt;0211</title>
<path fill="none" stroke="#835da9" stroke-dasharray="1,5" d="M1092.25,-261.371C1088.93,-255.593 1085.24,-249.047 1082,-243 1077.83,-235.213 1073.47,-226.645 1069.58,-218.834"/>
<polygon fill="#835da9" stroke="#835da9" points="1072.67,-217.2 1065.1,-209.785 1066.4,-220.301 1072.67,-217.2"/>
<text text-anchor="middle" x="1104" y="-231.8" font-family="Times,serif" font-size="14.00">1 (83.3)</text>
</g>
<!-- 05 -->
<g id="node27" class="node"><title>05</title>
<ellipse fill="#cea8f4" stroke="#835da9" cx="1148" cy="-192" rx="32.4942" ry="18"/>
<text text-anchor="middle" x="1148" y="-188.3" font-family="Times,serif" font-size="14.00">05 (b)</text>
</g>
<!-- 091&#45;&gt;05 -->
<g id="edge23" class="edge"><title>091&#45;&gt;05</title>
<path fill="none" stroke="#835da9" stroke-dasharray="1,5" d="M1114.13,-261.67C1118.15,-255.917 1122.49,-249.309 1126,-243 1130.15,-235.542 1134.1,-227.148 1137.48,-219.398"/>
<polygon fill="#835da9" stroke="#835da9" points="1140.76,-220.619 1141.43,-210.044 1134.31,-217.897 1140.76,-220.619"/>
<text text-anchor="middle" x="1155" y="-231.8" font-family="Times,serif" font-size="14.00">1 (87.5)</text>
</g>
<!-- P75 -->
<g id="node28" class="node"><title>P75</title>
<ellipse fill="#cea8f4" stroke="#835da9" cx="1193" cy="-279" rx="37.0935" ry="18"/>
<text text-anchor="middle" x="1193" y="-275.3" font-family="Times,serif" font-size="14.00">P75 (b)</text>
</g>
<!-- 01 -->
<g id="node29" class="node"><title>01</title>
<ellipse fill="#cea8f4" stroke="#835da9" cx="1281" cy="-279" rx="32.4942" ry="18"/>
<text text-anchor="middle" x="1281" y="-275.3" font-family="Times,serif" font-size="14.00">01 (b)</text>
</g>
<!-- 019 -->
<g id="node30" class="node"><title>019</title>
<ellipse fill="#cea8f4" stroke="#835da9" cx="1368" cy="-279" rx="36.2938" ry="18"/>
<text text-anchor="middle" x="1368" y="-275.3" font-family="Times,serif" font-size="14.00">019 (b)</text>
</g>
</g>
</svg>
