<?xml version="1.0" encoding="UTF-8" standalone="no"?>
<!DOCTYPE svg PUBLIC "-//W3C//DTD SVG 1.1//EN"
 "http://www.w3.org/Graphics/SVG/1.1/DTD/svg11.dtd">
<!-- Generated by graphviz version 2.38.0 (20140413.2041)
 -->
<!-- Title: G Pages: 1 -->
<svg width="935pt" height="392pt"
 viewBox="0.00 0.00 934.79 392.00" xmlns="http://www.w3.org/2000/svg" xmlns:xlink="http://www.w3.org/1999/xlink">
<g id="graph0" class="graph" transform="scale(1 1) rotate(0) translate(4 388)">
<title>G</title>
<polygon fill="white" stroke="none" points="-4,4 -4,-388 930.794,-388 930.794,4 -4,4"/>
<!-- 013 (a) -->
<g id="node1" class="node"><title>013 (a)</title>
<ellipse fill="#ff8a8a" stroke="#b43f3f" cx="799.397" cy="-18" rx="36.2938" ry="18"/>
<text text-anchor="middle" x="799.397" y="-14.3" font-family="Times,serif" font-size="14.00">013 (a)</text>
</g>
<!-- 032 (a) -->
<g id="node2" class="node"><title>032 (a)</title>
<ellipse fill="#ff8a8a" stroke="#b43f3f" cx="36.3968" cy="-192" rx="36.2938" ry="18"/>
<text text-anchor="middle" x="36.3968" y="-188.3" font-family="Times,serif" font-size="14.00">032 (a)</text>
</g>
<!-- 021 (a) -->
<g id="node3" class="node"><title>021 (a)</title>
<ellipse fill="#ff8a8a" stroke="#b43f3f" cx="299.397" cy="-105" rx="36.2938" ry="18"/>
<text text-anchor="middle" x="299.397" y="-101.3" font-family="Times,serif" font-size="14.00">021 (a)</text>
</g>
<!-- 036 (a) -->
<g id="node8" class="node"><title>036 (a)</title>
<ellipse fill="#ff8a8a" stroke="#b43f3f" cx="154.397" cy="-18" rx="36.2938" ry="18"/>
<text text-anchor="middle" x="154.397" y="-14.3" font-family="Times,serif" font-size="14.00">036 (a)</text>
</g>
<!-- 021 (a)&#45;&gt;036 (a) -->
<g id="edge1" class="edge"><title>021 (a)&#45;&gt;036 (a)</title>
<path fill="none" stroke="#b43f3f" d="M271.328,-93.4995C250.617,-85.5543 224.373,-75.0164 214.397,-69 201.443,-61.1879 188.384,-50.689 177.773,-41.3287"/>
<polygon fill="#b43f3f" stroke="#b43f3f" points="179.941,-38.5701 170.177,-34.4561 175.244,-43.7608 179.941,-38.5701"/>
<text text-anchor="middle" x="236.397" y="-57.8" font-family="Times,serif" font-size="14.00">1 (97.6)</text>
</g>
<!-- 047 (a) -->
<g id="node24" class="node"><title>047 (a)</title>
<ellipse fill="#ff8a8a" stroke="#b43f3f" cx="245.397" cy="-18" rx="36.2938" ry="18"/>
<text text-anchor="middle" x="245.397" y="-14.3" font-family="Times,serif" font-size="14.00">047 (a)</text>
</g>
<!-- 021 (a)&#45;&gt;047 (a) -->
<g id="edge2" class="edge"><title>021 (a)&#45;&gt;047 (a)</title>
<path fill="none" stroke="#b43f3f" d="M285.016,-88.2133C280.075,-82.3968 274.707,-75.6103 270.397,-69 265.498,-61.4863 260.878,-52.881 256.974,-44.9515"/>
<polygon fill="#b43f3f" stroke="#b43f3f" points="260.047,-43.2651 252.596,-35.7334 253.724,-46.268 260.047,-43.2651"/>
<text text-anchor="middle" x="292.397" y="-57.8" font-family="Times,serif" font-size="14.00">1 (95.1)</text>
</g>
<!-- 037 (a) -->
<g id="node4" class="node"><title>037 (a)</title>
<ellipse fill="#ff8a8a" stroke="#b43f3f" cx="336.397" cy="-18" rx="36.2938" ry="18"/>
<text text-anchor="middle" x="336.397" y="-14.3" font-family="Times,serif" font-size="14.00">037 (a)</text>
</g>
<!-- 05 (a) -->
<g id="node5" class="node"><title>05 (a)</title>
<ellipse fill="#ff8a8a" stroke="#b43f3f" cx="83.3968" cy="-279" rx="31.6951" ry="18"/>
<text text-anchor="middle" x="83.3968" y="-275.3" font-family="Times,serif" font-size="14.00">05 (a)</text>
</g>
<!-- 02 (a) -->
<g id="node6" class="node"><title>02 (a)</title>
<ellipse fill="#ff8a8a" stroke="#b43f3f" cx="122.397" cy="-192" rx="31.6951" ry="18"/>
<text text-anchor="middle" x="122.397" y="-188.3" font-family="Times,serif" font-size="14.00">02 (a)</text>
</g>
<!-- 017 (b) -->
<g id="node7" class="node"><title>017 (b)</title>
<ellipse fill="#cea8f4" stroke="#835da9" cx="890.397" cy="-18" rx="36.2938" ry="18"/>
<text text-anchor="middle" x="890.397" y="-14.3" font-family="Times,serif" font-size="14.00">017 (b)</text>
</g>
<!-- 07 (a) -->
<g id="node9" class="node"><title>07 (a)</title>
<ellipse fill="#ff8a8a" stroke="#b43f3f" cx="435.397" cy="-105" rx="31.6951" ry="18"/>
<text text-anchor="middle" x="435.397" y="-101.3" font-family="Times,serif" font-size="14.00">07 (a)</text>
</g>
<!-- 07 (a)&#45;&gt;037 (a) -->
<g id="edge6" class="edge"><title>07 (a)&#45;&gt;037 (a)</title>
<path fill="none" stroke="#b43f3f" d="M414.346,-90.9512C404.866,-84.7274 393.731,-76.9205 384.397,-69 374.984,-61.0128 365.406,-51.3971 357.308,-42.741"/>
<polygon fill="#b43f3f" stroke="#b43f3f" points="359.672,-40.1404 350.334,-35.1356 354.513,-44.8714 359.672,-40.1404"/>
<text text-anchor="middle" x="406.397" y="-57.8" font-family="Times,serif" font-size="14.00">1 (97.5)</text>
</g>
<!-- 0211 (a) -->
<g id="node16" class="node"><title>0211 (a)</title>
<ellipse fill="#ff8a8a" stroke="#b43f3f" cx="431.397" cy="-18" rx="40.0939" ry="18"/>
<text text-anchor="middle" x="431.397" y="-14.3" font-family="Times,serif" font-size="14.00">0211 (a)</text>
</g>
<!-- 07 (a)&#45;&gt;0211 (a) -->
<g id="edge5" class="edge"><title>07 (a)&#45;&gt;0211 (a)</title>
<path fill="none" stroke="#b43f3f" d="M434.587,-86.799C434.04,-75.1626 433.305,-59.5479 432.679,-46.2368"/>
<polygon fill="#b43f3f" stroke="#b43f3f" points="436.171,-45.9998 432.205,-36.1754 429.179,-46.3289 436.171,-45.9998"/>
<text text-anchor="middle" x="455.397" y="-57.8" font-family="Times,serif" font-size="14.00">2 (82.9)</text>
</g>
<!-- 034 (a) -->
<g id="node17" class="node"><title>034 (a)</title>
<ellipse fill="#ff8a8a" stroke="#b43f3f" cx="526.397" cy="-18" rx="36.2938" ry="18"/>
<text text-anchor="middle" x="526.397" y="-14.3" font-family="Times,serif" font-size="14.00">034 (a)</text>
</g>
<!-- 07 (a)&#45;&gt;034 (a) -->
<g id="edge4" class="edge"><title>07 (a)&#45;&gt;034 (a)</title>
<path fill="none" stroke="#b43f3f" d="M454.839,-90.4625C463.291,-84.2641 473.129,-76.6132 481.397,-69 490.211,-60.884 499.187,-51.2428 506.781,-42.6023"/>
<polygon fill="#b43f3f" stroke="#b43f3f" points="509.439,-44.879 513.321,-35.021 504.139,-40.3065 509.439,-44.879"/>
<text text-anchor="middle" x="517.397" y="-57.8" font-family="Times,serif" font-size="14.00">1 (95.1)</text>
</g>
<!-- 030 (a) -->
<g id="node21" class="node"><title>030 (a)</title>
<ellipse fill="#ff8a8a" stroke="#b43f3f" cx="617.397" cy="-18" rx="36.2938" ry="18"/>
<text text-anchor="middle" x="617.397" y="-14.3" font-family="Times,serif" font-size="14.00">030 (a)</text>
</g>
<!-- 07 (a)&#45;&gt;030 (a) -->
<g id="edge3" class="edge"><title>07 (a)&#45;&gt;030 (a)</title>
<path fill="none" stroke="#b43f3f" d="M459.914,-93.2236C465.295,-91.0306 470.998,-88.8357 476.397,-87 505.589,-77.074 515.349,-81.807 543.397,-69 560.173,-61.3398 577.335,-50.0039 590.903,-40.0616"/>
<polygon fill="#b43f3f" stroke="#b43f3f" points="593.367,-42.5875 599.259,-33.782 589.162,-36.9914 593.367,-42.5875"/>
<text text-anchor="middle" x="590.397" y="-57.8" font-family="Times,serif" font-size="14.00">1 (95.1)</text>
</g>
<!-- 03 (a) -->
<g id="node10" class="node"><title>03 (a)</title>
<ellipse fill="#ff8a8a" stroke="#b43f3f" cx="165.397" cy="-279" rx="31.6951" ry="18"/>
<text text-anchor="middle" x="165.397" y="-275.3" font-family="Times,serif" font-size="14.00">03 (a)</text>
</g>
<!-- 03 (a)&#45;&gt;032 (a) -->
<g id="edge8" class="edge"><title>03 (a)&#45;&gt;032 (a)</title>
<path fill="none" stroke="#b43f3f" d="M140.567,-267.677C116.585,-257.685 83.6918,-243.911 82.3968,-243 72.2037,-235.83 62.5889,-226.061 54.8113,-217.06"/>
<polygon fill="#b43f3f" stroke="#b43f3f" points="57.2965,-214.574 48.2211,-209.107 51.9063,-219.04 57.2965,-214.574"/>
<text text-anchor="middle" x="104.397" y="-231.8" font-family="Times,serif" font-size="14.00">1 (91.7)</text>
</g>
<!-- 03 (a)&#45;&gt;02 (a) -->
<g id="edge9" class="edge"><title>03 (a)&#45;&gt;02 (a)</title>
<path fill="none" stroke="#b43f3f" d="M150.594,-262.982C145.494,-257.135 140.131,-250.13 136.397,-243 132.716,-235.973 129.912,-227.869 127.816,-220.258"/>
<polygon fill="#b43f3f" stroke="#b43f3f" points="131.163,-219.212 125.382,-210.334 124.365,-220.88 131.163,-219.212"/>
<text text-anchor="middle" x="158.397" y="-231.8" font-family="Times,serif" font-size="14.00">1 (86.5)</text>
</g>
<!-- 044 (a) -->
<g id="node25" class="node"><title>044 (a)</title>
<ellipse fill="#ff8a8a" stroke="#b43f3f" cx="208.397" cy="-192" rx="36.2938" ry="18"/>
<text text-anchor="middle" x="208.397" y="-188.3" font-family="Times,serif" font-size="14.00">044 (a)</text>
</g>
<!-- 03 (a)&#45;&gt;044 (a) -->
<g id="edge7" class="edge"><title>03 (a)&#45;&gt;044 (a)</title>
<path fill="none" stroke="#b43f3f" d="M173.688,-261.611C179.835,-249.46 188.334,-232.66 195.383,-218.725"/>
<polygon fill="#b43f3f" stroke="#b43f3f" points="198.594,-220.132 199.985,-209.629 192.347,-216.972 198.594,-220.132"/>
<text text-anchor="middle" x="212.397" y="-231.8" font-family="Times,serif" font-size="14.00">1 (89.2)</text>
</g>
<!-- P75 (a) -->
<g id="node11" class="node"><title>P75 (a)</title>
<ellipse fill="#ff8a8a" stroke="#b43f3f" cx="251.397" cy="-279" rx="36.2938" ry="18"/>
<text text-anchor="middle" x="251.397" y="-275.3" font-family="Times,serif" font-size="14.00">P75 (a)</text>
</g>
<!-- 038 (a) -->
<g id="node12" class="node"><title>038 (a)</title>
<ellipse fill="#ff8a8a" stroke="#b43f3f" cx="708.397" cy="-18" rx="36.2938" ry="18"/>
<text text-anchor="middle" x="708.397" y="-14.3" font-family="Times,serif" font-size="14.00">038 (a)</text>
</g>
<!-- A (a) -->
<g id="node13" class="node"><title>A (a)</title>
<ellipse fill="#ff8a8a" stroke="#b43f3f" cx="251.397" cy="-366" rx="29.4969" ry="18"/>
<text text-anchor="middle" x="251.397" y="-362.3" font-family="Times,serif" font-size="14.00">A (a)</text>
</g>
<!-- A (a)&#45;&gt;05 (a) -->
<g id="edge11" class="edge"><title>A (a)&#45;&gt;05 (a)</title>
<path fill="none" stroke="#b43f3f" d="M224.044,-359.202C201.479,-353.714 169.112,-344.184 143.397,-330 129.962,-322.589 116.681,-311.961 106.043,-302.407"/>
<polygon fill="#b43f3f" stroke="#b43f3f" points="108.178,-299.614 98.4645,-295.382 103.419,-304.747 108.178,-299.614"/>
<text text-anchor="middle" x="165.397" y="-318.8" font-family="Times,serif" font-size="14.00">2 (76.9)</text>
</g>
<!-- A (a)&#45;&gt;03 (a) -->
<g id="edge10" class="edge"><title>A (a)&#45;&gt;03 (a)</title>
<path fill="none" stroke="#b43f3f" d="M231.697,-352.561C222.596,-346.347 211.94,-338.375 203.397,-330 195.572,-322.329 188.035,-312.975 181.765,-304.442"/>
<polygon fill="#b43f3f" stroke="#b43f3f" points="184.603,-302.394 175.954,-296.275 178.899,-306.452 184.603,-302.394"/>
<text text-anchor="middle" x="225.397" y="-318.8" font-family="Times,serif" font-size="14.00">1 (93.3)</text>
</g>
<!-- A (a)&#45;&gt;P75 (a) -->
<g id="edge13" class="edge"><title>A (a)&#45;&gt;P75 (a)</title>
<path fill="none" stroke="#b43f3f" d="M251.397,-347.799C251.397,-336.163 251.397,-320.548 251.397,-307.237"/>
<polygon fill="#b43f3f" stroke="#b43f3f" points="254.897,-307.175 251.397,-297.175 247.897,-307.175 254.897,-307.175"/>
<text text-anchor="middle" x="273.397" y="-318.8" font-family="Times,serif" font-size="14.00">1 (93.3)</text>
</g>
<!-- 019 (a) -->
<g id="node14" class="node"><title>019 (a)</title>
<ellipse fill="#ff8a8a" stroke="#b43f3f" cx="342.397" cy="-279" rx="36.2938" ry="18"/>
<text text-anchor="middle" x="342.397" y="-275.3" font-family="Times,serif" font-size="14.00">019 (a)</text>
</g>
<!-- A (a)&#45;&gt;019 (a) -->
<g id="edge14" class="edge"><title>A (a)&#45;&gt;019 (a)</title>
<path fill="none" stroke="#b43f3f" d="M270.874,-352.326C279.925,-346.06 290.605,-338.113 299.397,-330 307.941,-322.115 316.472,-312.619 323.657,-304.029"/>
<polygon fill="#b43f3f" stroke="#b43f3f" points="326.474,-306.113 330.089,-296.155 321.053,-301.685 326.474,-306.113"/>
<text text-anchor="middle" x="335.397" y="-318.8" font-family="Times,serif" font-size="14.00">1 (93.3)</text>
</g>
<!-- 01 (a) -->
<g id="node18" class="node"><title>01 (a)</title>
<ellipse fill="#ff8a8a" stroke="#b43f3f" cx="428.397" cy="-279" rx="31.6951" ry="18"/>
<text text-anchor="middle" x="428.397" y="-275.3" font-family="Times,serif" font-size="14.00">01 (a)</text>
</g>
<!-- A (a)&#45;&gt;01 (a) -->
<g id="edge12" class="edge"><title>A (a)&#45;&gt;01 (a)</title>
<path fill="none" stroke="#b43f3f" d="M278.604,-359.033C301.488,-353.392 334.658,-343.737 361.397,-330 376.606,-322.186 392.007,-310.975 404.201,-301.148"/>
<polygon fill="#b43f3f" stroke="#b43f3f" points="406.613,-303.695 412.089,-294.625 402.152,-298.3 406.613,-303.695"/>
<text text-anchor="middle" x="407.397" y="-318.8" font-family="Times,serif" font-size="14.00">1 (57.1)</text>
</g>
<!-- 063 (a) -->
<g id="node26" class="node"><title>063 (a)</title>
<ellipse fill="#ff8a8a" stroke="#b43f3f" cx="521.397" cy="-192" rx="36.2938" ry="18"/>
<text text-anchor="middle" x="521.397" y="-188.3" font-family="Times,serif" font-size="14.00">063 (a)</text>
</g>
<!-- 019 (a)&#45;&gt;063 (a) -->
<g id="edge15" class="edge"><title>019 (a)&#45;&gt;063 (a)</title>
<path fill="none" stroke="#b43f3f" d="M367.663,-266.002C398.759,-251.236 451.717,-226.088 486.633,-209.508"/>
<polygon fill="#b43f3f" stroke="#b43f3f" points="488.438,-212.526 495.969,-205.074 485.435,-206.202 488.438,-212.526"/>
<text text-anchor="middle" x="464.397" y="-231.8" font-family="Times,serif" font-size="14.00">1 (85.7)</text>
</g>
<!-- 0141 (a) -->
<g id="node15" class="node"><title>0141 (a)</title>
<ellipse fill="#ff8a8a" stroke="#b43f3f" cx="113.397" cy="-105" rx="40.0939" ry="18"/>
<text text-anchor="middle" x="113.397" y="-101.3" font-family="Times,serif" font-size="14.00">0141 (a)</text>
</g>
<!-- 011 (a) -->
<g id="node19" class="node"><title>011 (a)</title>
<ellipse fill="#ff8a8a" stroke="#b43f3f" cx="521.397" cy="-105" rx="36.2938" ry="18"/>
<text text-anchor="middle" x="521.397" y="-101.3" font-family="Times,serif" font-size="14.00">011 (a)</text>
</g>
<!-- 045 (a) -->
<g id="node20" class="node"><title>045 (a)</title>
<ellipse fill="#ff8a8a" stroke="#b43f3f" cx="612.397" cy="-105" rx="36.2938" ry="18"/>
<text text-anchor="middle" x="612.397" y="-101.3" font-family="Times,serif" font-size="14.00">045 (a)</text>
</g>
<!-- 045 (a)&#45;&gt;038 (a) -->
<g id="edge16" class="edge"><title>045 (a)&#45;&gt;038 (a)</title>
<path fill="none" stroke="#b43f3f" d="M635.305,-90.8201C645.028,-84.7443 656.212,-77.0898 665.397,-69 674.121,-61.3157 682.69,-51.8603 689.854,-43.2481"/>
<polygon fill="#b43f3f" stroke="#b43f3f" points="692.687,-45.3117 696.252,-35.3346 687.243,-40.911 692.687,-45.3117"/>
<text text-anchor="middle" x="701.397" y="-57.8" font-family="Times,serif" font-size="14.00">1 (92.7)</text>
</g>
<!-- 028 (a) -->
<g id="node22" class="node"><title>028 (a)</title>
<ellipse fill="#ff8a8a" stroke="#b43f3f" cx="703.397" cy="-105" rx="36.2938" ry="18"/>
<text text-anchor="middle" x="703.397" y="-101.3" font-family="Times,serif" font-size="14.00">028 (a)</text>
</g>
<!-- 022 (a) -->
<g id="node23" class="node"><title>022 (a)</title>
<ellipse fill="#ff8a8a" stroke="#b43f3f" cx="208.397" cy="-105" rx="36.2938" ry="18"/>
<text text-anchor="middle" x="208.397" y="-101.3" font-family="Times,serif" font-size="14.00">022 (a)</text>
</g>
<!-- 044 (a)&#45;&gt;0141 (a) -->
<g id="edge18" class="edge"><title>044 (a)&#45;&gt;0141 (a)</title>
<path fill="none" stroke="#b43f3f" d="M187.667,-177.159C178.96,-171.025 168.902,-163.508 160.397,-156 151.233,-147.911 141.866,-138.276 133.93,-129.632"/>
<polygon fill="#b43f3f" stroke="#b43f3f" points="136.386,-127.129 127.091,-122.045 131.187,-131.816 136.386,-127.129"/>
<text text-anchor="middle" x="182.397" y="-144.8" font-family="Times,serif" font-size="14.00">1 (89.2)</text>
</g>
<!-- 044 (a)&#45;&gt;022 (a) -->
<g id="edge17" class="edge"><title>044 (a)&#45;&gt;022 (a)</title>
<path fill="none" stroke="#b43f3f" d="M208.397,-173.799C208.397,-162.163 208.397,-146.548 208.397,-133.237"/>
<polygon fill="#b43f3f" stroke="#b43f3f" points="211.897,-133.175 208.397,-123.175 204.897,-133.175 211.897,-133.175"/>
<text text-anchor="middle" x="230.397" y="-144.8" font-family="Times,serif" font-size="14.00">1 (91.7)</text>
</g>
<!-- 063 (a)&#45;&gt;021 (a) -->
<g id="edge23" class="edge"><title>063 (a)&#45;&gt;021 (a)</title>
<path fill="none" stroke="#b43f3f" d="M490.557,-182.05C468.563,-175.437 438.403,-165.897 412.397,-156 385.675,-145.831 356.149,-132.698 333.982,-122.444"/>
<polygon fill="#b43f3f" stroke="#b43f3f" points="335.199,-119.15 324.657,-118.099 332.243,-125.495 335.199,-119.15"/>
<text text-anchor="middle" x="434.397" y="-144.8" font-family="Times,serif" font-size="14.00">1 (93.1)</text>
</g>
<!-- 063 (a)&#45;&gt;07 (a) -->
<g id="edge22" class="edge"><title>063 (a)&#45;&gt;07 (a)</title>
<path fill="none" stroke="#b43f3f" d="M499.793,-177.25C491.136,-171.245 481.351,-163.798 473.397,-156 465.572,-148.329 458.035,-138.975 451.765,-130.442"/>
<polygon fill="#b43f3f" stroke="#b43f3f" points="454.603,-128.394 445.954,-122.275 448.899,-132.452 454.603,-128.394"/>
<text text-anchor="middle" x="495.397" y="-144.8" font-family="Times,serif" font-size="14.00">1 (96.6)</text>
</g>
<!-- 063 (a)&#45;&gt;011 (a) -->
<g id="edge21" class="edge"><title>063 (a)&#45;&gt;011 (a)</title>
<path fill="none" stroke="#b43f3f" d="M521.397,-173.799C521.397,-162.163 521.397,-146.548 521.397,-133.237"/>
<polygon fill="#b43f3f" stroke="#b43f3f" points="524.897,-133.175 521.397,-123.175 517.897,-133.175 524.897,-133.175"/>
<text text-anchor="middle" x="543.397" y="-144.8" font-family="Times,serif" font-size="14.00">1 (93.1)</text>
</g>
<!-- 063 (a)&#45;&gt;045 (a) -->
<g id="edge19" class="edge"><title>063 (a)&#45;&gt;045 (a)</title>
<path fill="none" stroke="#b43f3f" d="M542.768,-177.006C551.389,-170.963 561.211,-163.554 569.397,-156 577.941,-148.115 586.472,-138.619 593.657,-130.029"/>
<polygon fill="#b43f3f" stroke="#b43f3f" points="596.474,-132.113 600.089,-122.155 591.053,-127.685 596.474,-132.113"/>
<text text-anchor="middle" x="604.397" y="-144.8" font-family="Times,serif" font-size="14.00">1 (93.1)</text>
</g>
<!-- 063 (a)&#45;&gt;028 (a) -->
<g id="edge20" class="edge"><title>063 (a)&#45;&gt;028 (a)</title>
<path fill="none" stroke="#b43f3f" d="M553.343,-183.368C575.586,-177.43 605.588,-168.156 630.397,-156 646.691,-148.016 663.491,-136.754 676.861,-126.939"/>
<polygon fill="#b43f3f" stroke="#b43f3f" points="679.214,-129.55 685.111,-120.748 675.012,-123.951 679.214,-129.55"/>
<text text-anchor="middle" x="677.397" y="-144.8" font-family="Times,serif" font-size="14.00">1 (96.6)</text>
</g>
<!-- 031 (a) -->
<g id="node27" class="node"><title>031 (a)</title>
<ellipse fill="#ff8a8a" stroke="#b43f3f" cx="799.397" cy="-105" rx="36.2938" ry="18"/>
<text text-anchor="middle" x="799.397" y="-101.3" font-family="Times,serif" font-size="14.00">031 (a)</text>
</g>
<!-- 063 (a)&#45;&gt;031 (a) -->
<g id="edge24" class="edge"><title>063 (a)&#45;&gt;031 (a)</title>
<path fill="none" stroke="#b43f3f" d="M556.736,-187.285C593.995,-182.662 654.018,-173.194 703.397,-156 726.321,-148.017 750.553,-135.36 768.937,-124.778"/>
<polygon fill="#b43f3f" stroke="#b43f3f" points="770.866,-127.704 777.719,-119.625 767.323,-121.667 770.866,-127.704"/>
<text text-anchor="middle" x="757.397" y="-144.8" font-family="Times,serif" font-size="14.00">1 (95.8)</text>
</g>
<!-- 031 (a)&#45;&gt;013 (a) -->
<g id="edge25" class="edge"><title>031 (a)&#45;&gt;013 (a)</title>
<path fill="none" stroke="#b43f3f" d="M799.397,-86.799C799.397,-75.1626 799.397,-59.5479 799.397,-46.2368"/>
<polygon fill="#b43f3f" stroke="#b43f3f" points="802.897,-46.1754 799.397,-36.1754 795.897,-46.1755 802.897,-46.1754"/>
<text text-anchor="middle" x="821.397" y="-57.8" font-family="Times,serif" font-size="14.00">1 (97.1)</text>
</g>
<!-- 031 (a)&#45;&gt;017 (b) -->
<g id="edge26" class="edge"><title>031 (a)&#45;&gt;017 (b)</title>
<path fill="none" stroke="#835da9" d="M820.768,-90.006C829.389,-83.9634 839.211,-76.5539 847.397,-69 855.941,-61.1154 864.472,-51.6186 871.657,-43.0293"/>
<polygon fill="#835da9" stroke="#835da9" points="874.474,-45.1135 878.089,-35.1545 869.053,-40.6853 874.474,-45.1135"/>
<text text-anchor="middle" x="882.397" y="-57.8" font-family="Times,serif" font-size="14.00">1 (94.3)</text>
</g>
</g>
</svg>
