<?xml version="1.0" encoding="UTF-8" standalone="no"?>
<!DOCTYPE svg PUBLIC "-//W3C//DTD SVG 1.1//EN"
 "http://www.w3.org/Graphics/SVG/1.1/DTD/svg11.dtd">
<!-- Generated by graphviz version 2.38.0 (20140413.2041)
 -->
<!-- Title: %3 Pages: 1 -->
<svg width="878pt" height="424pt"
 viewBox="0.00 0.00 878.00 424.00" xmlns="http://www.w3.org/2000/svg" xmlns:xlink="http://www.w3.org/1999/xlink">
<g id="graph0" class="graph" transform="scale(1 1) rotate(0) translate(4 420)">
<title>%3</title>
<polygon fill="white" stroke="none" points="-4,4 -4,-420 874,-420 874,4 -4,4"/>
<g id="clust1" class="cluster"><title>cluster_legend</title>
<path fill="none" stroke="black" d="M20,-280C20,-280 210,-280 210,-280 216,-280 222,-286 222,-292 222,-292 222,-396 222,-396 222,-402 216,-408 210,-408 210,-408 20,-408 20,-408 14,-408 8,-402 8,-396 8,-396 8,-292 8,-292 8,-286 14,-280 20,-280"/>
</g>
<g id="clust2" class="cluster"><title>cluster_reading</title>
<polygon fill="none" stroke="black" points="230,-8 230,-408 862,-408 862,-8 230,-8"/>
</g>
<!-- leg_s -->
<g id="node1" class="node"><title>leg_s</title>
<text text-anchor="middle" x="115" y="-378.3" font-family="Times,serif" font-size="14.00">Textual flow strength</text>
</g>
<!-- leg_e1 -->
<!-- leg_s&#45;&gt;leg_e1 -->
<g id="edge1" class="edge"><title>leg_s&#45;&gt;leg_e1</title>
<path fill="none" stroke="black" stroke-dasharray="1,5" d="M96.6657,-363.686C91.1324,-358.194 85.1607,-351.989 80,-346 70.1708,-334.593 60.0722,-320.779 52.9137,-310.563"/>
<polygon fill="black" stroke="black" points="55.6142,-308.314 47.056,-302.068 49.8514,-312.288 55.6142,-308.314"/>
<text text-anchor="middle" x="95.5" y="-334.8" font-family="Times,serif" font-size="14.00">&lt;=5 &#160;</text>
</g>
<!-- leg_e2 -->
<!-- leg_s&#45;&gt;leg_e2 -->
<g id="edge2" class="edge"><title>leg_s&#45;&gt;leg_e2</title>
<path fill="none" stroke="black" stroke-dasharray="5,2" d="M115,-363.799C115,-348.794 115,-327.174 115,-312.409"/>
<polygon fill="black" stroke="black" points="118.5,-312.293 115,-302.293 111.5,-312.293 118.5,-312.293"/>
<text text-anchor="middle" x="134" y="-334.8" font-family="Times,serif" font-size="14.00"> &#160;&lt;=25</text>
</g>
<!-- leg_e3 -->
<!-- leg_s&#45;&gt;leg_e3 -->
<g id="edge3" class="edge"><title>leg_s&#45;&gt;leg_e3</title>
<path fill="none" stroke="black" d="M138.503,-363.76C144.906,-358.462 151.567,-352.344 157,-346 166.087,-335.39 174.095,-321.689 179.546,-311.313"/>
<polygon fill="black" stroke="black" points="182.722,-312.789 184.091,-302.283 176.469,-309.642 182.722,-312.789"/>
<text text-anchor="middle" x="179" y="-334.8" font-family="Times,serif" font-size="14.00">&gt;25</text>
</g>
<!-- 044 -->
<g id="node5" class="node"><title>044</title>
<ellipse fill="#ff8a8a" stroke="#b43f3f" cx="465" cy="-208" rx="36.2938" ry="18"/>
<text text-anchor="middle" x="465" y="-204.3" font-family="Times,serif" font-size="14.00">044 (a)</text>
</g>
<!-- 022 -->
<g id="node6" class="node"><title>022</title>
<ellipse fill="#ff8a8a" stroke="#b43f3f" cx="274" cy="-121" rx="36.2938" ry="18"/>
<text text-anchor="middle" x="274" y="-117.3" font-family="Times,serif" font-size="14.00">022 (a)</text>
</g>
<!-- 044&#45;&gt;022 -->
<g id="edge4" class="edge"><title>044&#45;&gt;022</title>
<path fill="none" stroke="#b43f3f" stroke-dasharray="1,5" d="M431.799,-200.586C406.844,-195.017 372.244,-185.675 344,-172 328.122,-164.312 311.993,-153.073 299.225,-143.197"/>
<polygon fill="#b43f3f" stroke="#b43f3f" points="301.366,-140.428 291.357,-136.955 297.016,-145.912 301.366,-140.428"/>
<text text-anchor="middle" x="366" y="-160.8" font-family="Times,serif" font-size="14.00">1 (91.7)</text>
</g>
<!-- 07 -->
<g id="node7" class="node"><title>07</title>
<ellipse fill="#ff8a8a" stroke="#b43f3f" cx="360" cy="-121" rx="31.6951" ry="18"/>
<text text-anchor="middle" x="360" y="-117.3" font-family="Times,serif" font-size="14.00">07 (a)</text>
</g>
<!-- 044&#45;&gt;07 -->
<g id="edge5" class="edge"><title>044&#45;&gt;07</title>
<path fill="none" stroke="#b43f3f" stroke-dasharray="1,5" d="M440.887,-194.418C430.07,-188.289 417.428,-180.427 407,-172 397.351,-164.203 387.776,-154.477 379.811,-145.681"/>
<polygon fill="#b43f3f" stroke="#b43f3f" points="382.231,-143.134 372.993,-137.947 376.98,-147.763 382.231,-143.134"/>
<text text-anchor="middle" x="429" y="-160.8" font-family="Times,serif" font-size="14.00">2 (83.8)</text>
</g>
<!-- 011 -->
<g id="node8" class="node"><title>011</title>
<ellipse fill="#ff8a8a" stroke="#b43f3f" cx="446" cy="-121" rx="36.2938" ry="18"/>
<text text-anchor="middle" x="446" y="-117.3" font-family="Times,serif" font-size="14.00">011 (a)</text>
</g>
<!-- 044&#45;&gt;011 -->
<g id="edge6" class="edge"><title>044&#45;&gt;011</title>
<path fill="none" stroke="#b43f3f" stroke-dasharray="1,5" d="M461.155,-189.799C458.554,-178.163 455.064,-162.548 452.088,-149.237"/>
<polygon fill="#b43f3f" stroke="#b43f3f" points="455.436,-148.171 449.839,-139.175 448.605,-149.698 455.436,-148.171"/>
<text text-anchor="middle" x="479" y="-160.8" font-family="Times,serif" font-size="14.00">2 (86.5)</text>
</g>
<!-- 045 -->
<g id="node9" class="node"><title>045</title>
<ellipse fill="#ff8a8a" stroke="#b43f3f" cx="537" cy="-121" rx="36.2938" ry="18"/>
<text text-anchor="middle" x="537" y="-117.3" font-family="Times,serif" font-size="14.00">045 (a)</text>
</g>
<!-- 044&#45;&gt;045 -->
<g id="edge7" class="edge"><title>044&#45;&gt;045</title>
<path fill="none" stroke="#b43f3f" stroke-dasharray="1,5" d="M483.938,-192.329C490.965,-186.414 498.74,-179.274 505,-172 511.517,-164.428 517.687,-155.421 522.838,-147.152"/>
<polygon fill="#b43f3f" stroke="#b43f3f" points="525.844,-148.945 527.996,-138.571 519.844,-145.338 525.844,-148.945"/>
<text text-anchor="middle" x="538" y="-160.8" font-family="Times,serif" font-size="14.00">2 (81.1)</text>
</g>
<!-- 021 -->
<g id="node10" class="node"><title>021</title>
<ellipse fill="#ff8a8a" stroke="#b43f3f" cx="628" cy="-121" rx="36.2938" ry="18"/>
<text text-anchor="middle" x="628" y="-117.3" font-family="Times,serif" font-size="14.00">021 (a)</text>
</g>
<!-- 044&#45;&gt;021 -->
<g id="edge8" class="edge"><title>044&#45;&gt;021</title>
<path fill="none" stroke="#b43f3f" stroke-dasharray="1,5" d="M493.023,-196.218C498.631,-194.116 504.492,-191.958 510,-190 533.838,-181.528 541.708,-183.961 564,-172 578.197,-164.382 592.471,-153.604 603.925,-144.003"/>
<polygon fill="#b43f3f" stroke="#b43f3f" points="606.433,-146.462 611.725,-137.283 601.864,-141.158 606.433,-146.462"/>
<text text-anchor="middle" x="609" y="-160.8" font-family="Times,serif" font-size="14.00">2 (83.8)</text>
</g>
<!-- 028 -->
<g id="node11" class="node"><title>028</title>
<ellipse fill="#ff8a8a" stroke="#b43f3f" cx="719" cy="-121" rx="36.2938" ry="18"/>
<text text-anchor="middle" x="719" y="-117.3" font-family="Times,serif" font-size="14.00">028 (a)</text>
</g>
<!-- 044&#45;&gt;028 -->
<g id="edge9" class="edge"><title>044&#45;&gt;028</title>
<path fill="none" stroke="#b43f3f" stroke-dasharray="1,5" d="M491.819,-195.778C497.73,-193.612 504.015,-191.542 510,-190 564.354,-175.999 582.084,-190.716 635,-172 654.929,-164.951 675.35,-152.925 691.067,-142.434"/>
<polygon fill="#b43f3f" stroke="#b43f3f" points="693.473,-145.028 699.738,-136.484 689.512,-139.256 693.473,-145.028"/>
<text text-anchor="middle" x="688" y="-160.8" font-family="Times,serif" font-size="14.00">2 (81.1)</text>
</g>
<!-- 0141 -->
<g id="node12" class="node"><title>0141</title>
<ellipse fill="#ff8a8a" stroke="#b43f3f" cx="814" cy="-121" rx="40.0939" ry="18"/>
<text text-anchor="middle" x="814" y="-117.3" font-family="Times,serif" font-size="14.00">0141 (a)</text>
</g>
<!-- 044&#45;&gt;0141 -->
<g id="edge10" class="edge"><title>044&#45;&gt;0141</title>
<path fill="none" stroke="#b43f3f" stroke-dasharray="1,5" d="M491.758,-195.527C497.673,-193.378 503.975,-191.376 510,-190 598.733,-169.728 626.422,-196.788 714,-172 738.396,-165.095 763.932,-152.218 783.092,-141.262"/>
<polygon fill="#b43f3f" stroke="#b43f3f" points="785.093,-144.147 791.953,-136.073 781.555,-138.106 785.093,-144.147"/>
<text text-anchor="middle" x="773" y="-160.8" font-family="Times,serif" font-size="14.00">1 (89.2)</text>
</g>
<!-- 017 -->
<g id="node22" class="node"><title>017</title>
<ellipse fill="#ff8a8a" stroke="#b43f3f" cx="274" cy="-34" rx="36.2938" ry="18"/>
<text text-anchor="middle" x="274" y="-30.3" font-family="Times,serif" font-size="14.00">017 (a)</text>
</g>
<!-- 07&#45;&gt;017 -->
<g id="edge20" class="edge"><title>07&#45;&gt;017</title>
<path fill="none" stroke="#b43f3f" stroke-dasharray="1,5" d="M340.839,-106.58C332.544,-100.403 322.939,-92.7366 315,-85 306.92,-77.1259 298.866,-67.7284 292.062,-59.217"/>
<polygon fill="#b43f3f" stroke="#b43f3f" points="294.631,-56.8207 285.72,-51.0903 289.113,-61.1272 294.631,-56.8207"/>
<text text-anchor="middle" x="337" y="-73.8" font-family="Times,serif" font-size="14.00">2 (92.7)</text>
</g>
<!-- 037 -->
<g id="node23" class="node"><title>037</title>
<ellipse fill="#ff8a8a" stroke="#b43f3f" cx="365" cy="-34" rx="36.2938" ry="18"/>
<text text-anchor="middle" x="365" y="-30.3" font-family="Times,serif" font-size="14.00">037 (a)</text>
</g>
<!-- 07&#45;&gt;037 -->
<g id="edge21" class="edge"><title>07&#45;&gt;037</title>
<path fill="none" stroke="#b43f3f" stroke-dasharray="1,5" d="M361.012,-102.799C361.696,-91.1626 362.615,-75.5479 363.398,-62.2368"/>
<polygon fill="#b43f3f" stroke="#b43f3f" points="366.896,-62.3637 363.99,-52.1754 359.908,-61.9526 366.896,-62.3637"/>
<text text-anchor="middle" x="385" y="-73.8" font-family="Times,serif" font-size="14.00">1 (97.5)</text>
</g>
<!-- 034 -->
<g id="node24" class="node"><title>034</title>
<ellipse fill="#ff8a8a" stroke="#b43f3f" cx="456" cy="-34" rx="36.2938" ry="18"/>
<text text-anchor="middle" x="456" y="-30.3" font-family="Times,serif" font-size="14.00">034 (a)</text>
</g>
<!-- 07&#45;&gt;034 -->
<g id="edge22" class="edge"><title>07&#45;&gt;034</title>
<path fill="none" stroke="#b43f3f" stroke-dasharray="1,5" d="M381.17,-107.089C390.674,-100.893 401.794,-93.0696 411,-85 420.01,-77.1022 429.026,-67.5043 436.595,-58.8374"/>
<polygon fill="#b43f3f" stroke="#b43f3f" points="439.271,-61.0942 443.099,-51.2152 433.945,-56.5506 439.271,-61.0942"/>
<text text-anchor="middle" x="448" y="-73.8" font-family="Times,serif" font-size="14.00">1 (95.1)</text>
</g>
<!-- 030 -->
<g id="node25" class="node"><title>030</title>
<ellipse fill="#ff8a8a" stroke="#b43f3f" cx="547" cy="-34" rx="36.2938" ry="18"/>
<text text-anchor="middle" x="547" y="-30.3" font-family="Times,serif" font-size="14.00">030 (a)</text>
</g>
<!-- 07&#45;&gt;030 -->
<g id="edge23" class="edge"><title>07&#45;&gt;030</title>
<path fill="none" stroke="#b43f3f" stroke-dasharray="1,5" d="M384.489,-109.139C389.871,-106.951 395.583,-104.78 401,-103 432.747,-92.5707 443.504,-98.6608 474,-85 490.675,-77.5304 507.614,-66.208 520.972,-56.2255"/>
<polygon fill="#b43f3f" stroke="#b43f3f" points="523.393,-58.779 529.194,-49.9131 519.13,-53.2266 523.393,-58.779"/>
<text text-anchor="middle" x="522" y="-73.8" font-family="Times,serif" font-size="14.00">1 (95.1)</text>
</g>
<!-- 036 -->
<g id="node26" class="node"><title>036</title>
<ellipse fill="#ff8a8a" stroke="#b43f3f" cx="638" cy="-34" rx="36.2938" ry="18"/>
<text text-anchor="middle" x="638" y="-30.3" font-family="Times,serif" font-size="14.00">036 (a)</text>
</g>
<!-- 021&#45;&gt;036 -->
<g id="edge24" class="edge"><title>021&#45;&gt;036</title>
<path fill="none" stroke="#b43f3f" stroke-dasharray="1,5" d="M630.024,-102.799C631.393,-91.1626 633.23,-75.5479 634.796,-62.2368"/>
<polygon fill="#b43f3f" stroke="#b43f3f" points="638.287,-62.5159 635.979,-52.1754 631.335,-61.698 638.287,-62.5159"/>
<text text-anchor="middle" x="656" y="-73.8" font-family="Times,serif" font-size="14.00">1 (97.6)</text>
</g>
<!-- 047 -->
<g id="node27" class="node"><title>047</title>
<ellipse fill="#ff8a8a" stroke="#b43f3f" cx="729" cy="-34" rx="36.2938" ry="18"/>
<text text-anchor="middle" x="729" y="-30.3" font-family="Times,serif" font-size="14.00">047 (a)</text>
</g>
<!-- 021&#45;&gt;047 -->
<g id="edge25" class="edge"><title>021&#45;&gt;047</title>
<path fill="none" stroke="#b43f3f" stroke-dasharray="1,5" d="M650.919,-106.848C660.859,-100.721 672.395,-93.0196 682,-85 691.522,-77.0494 701.074,-67.2946 709.056,-58.5186"/>
<polygon fill="#b43f3f" stroke="#b43f3f" points="711.875,-60.6151 715.899,-50.8141 706.641,-55.9666 711.875,-60.6151"/>
<text text-anchor="middle" x="719" y="-73.8" font-family="Times,serif" font-size="14.00">1 (95.1)</text>
</g>
<!-- A -->
<g id="node13" class="node"><title>A</title>
<ellipse fill="#ff8a8a" stroke="#b43f3f" cx="534" cy="-382" rx="29.4969" ry="18"/>
<text text-anchor="middle" x="534" y="-378.3" font-family="Times,serif" font-size="14.00">A (a)</text>
</g>
<!-- P75 -->
<g id="node14" class="node"><title>P75</title>
<ellipse fill="#ff8a8a" stroke="#b43f3f" cx="405" cy="-295" rx="36.2938" ry="18"/>
<text text-anchor="middle" x="405" y="-291.3" font-family="Times,serif" font-size="14.00">P75 (a)</text>
</g>
<!-- A&#45;&gt;P75 -->
<g id="edge11" class="edge"><title>A&#45;&gt;P75</title>
<path fill="none" stroke="#b43f3f" stroke-dasharray="1,5" d="M509.314,-372.013C493.899,-365.837 474.012,-356.812 458,-346 446.697,-338.368 435.515,-328.296 426.356,-319.193"/>
<polygon fill="#b43f3f" stroke="#b43f3f" points="428.672,-316.556 419.18,-311.85 423.665,-321.448 428.672,-316.556"/>
<text text-anchor="middle" x="480" y="-334.8" font-family="Times,serif" font-size="14.00">1 (93.3)</text>
</g>
<!-- 019 -->
<g id="node15" class="node"><title>019</title>
<ellipse fill="#ff8a8a" stroke="#b43f3f" cx="496" cy="-295" rx="36.2938" ry="18"/>
<text text-anchor="middle" x="496" y="-291.3" font-family="Times,serif" font-size="14.00">019 (a)</text>
</g>
<!-- A&#45;&gt;019 -->
<g id="edge12" class="edge"><title>A&#45;&gt;019</title>
<path fill="none" stroke="#b43f3f" stroke-dasharray="1,5" d="M522.211,-365.19C518.255,-359.371 514.073,-352.589 511,-346 507.629,-338.772 504.803,-330.605 502.546,-322.999"/>
<polygon fill="#b43f3f" stroke="#b43f3f" points="505.853,-321.826 499.822,-313.115 499.105,-323.686 505.853,-321.826"/>
<text text-anchor="middle" x="533" y="-334.8" font-family="Times,serif" font-size="14.00">1 (93.3)</text>
</g>
<!-- 03 -->
<g id="node16" class="node"><title>03</title>
<ellipse fill="#ff8a8a" stroke="#b43f3f" cx="582" cy="-295" rx="31.6951" ry="18"/>
<text text-anchor="middle" x="582" y="-291.3" font-family="Times,serif" font-size="14.00">03 (a)</text>
</g>
<!-- A&#45;&gt;03 -->
<g id="edge13" class="edge"><title>A&#45;&gt;03</title>
<path fill="none" stroke="#b43f3f" stroke-dasharray="1,5" d="M543.983,-364.709C547.521,-358.845 551.493,-352.157 555,-346 559.443,-338.199 564.139,-329.627 568.347,-321.816"/>
<polygon fill="#b43f3f" stroke="#b43f3f" points="571.555,-323.239 573.188,-312.771 565.383,-319.936 571.555,-323.239"/>
<text text-anchor="middle" x="585" y="-334.8" font-family="Times,serif" font-size="14.00">1 (93.3)</text>
</g>
<!-- 091 -->
<g id="node17" class="node"><title>091</title>
<ellipse fill="#ff8a8a" stroke="#b43f3f" cx="732" cy="-295" rx="36.2938" ry="18"/>
<text text-anchor="middle" x="732" y="-291.3" font-family="Times,serif" font-size="14.00">091 (a)</text>
</g>
<!-- A&#45;&gt;091 -->
<g id="edge14" class="edge"><title>A&#45;&gt;091</title>
<path fill="none" stroke="#b43f3f" stroke-dasharray="1,5" d="M557.491,-370.916C591.749,-356.209 655.706,-328.752 695.949,-311.476"/>
<polygon fill="#b43f3f" stroke="#b43f3f" points="697.582,-314.585 705.39,-307.423 694.82,-308.152 697.582,-314.585"/>
<text text-anchor="middle" x="667" y="-334.8" font-family="Times,serif" font-size="14.00">1 (87.5)</text>
</g>
<!-- 03&#45;&gt;044 -->
<g id="edge15" class="edge"><title>03&#45;&gt;044</title>
<path fill="none" stroke="#b43f3f" stroke-dasharray="1,5" d="M557.67,-283.384C540.08,-275.484 518.051,-265.06 510,-259 500.284,-251.687 491.028,-242.051 483.464,-233.192"/>
<polygon fill="#b43f3f" stroke="#b43f3f" points="486.082,-230.866 477.029,-225.363 480.675,-235.311 486.082,-230.866"/>
<text text-anchor="middle" x="532" y="-247.8" font-family="Times,serif" font-size="14.00">1 (89.2)</text>
</g>
<!-- 02 -->
<g id="node18" class="node"><title>02</title>
<ellipse fill="#ff8a8a" stroke="#b43f3f" cx="551" cy="-208" rx="31.6951" ry="18"/>
<text text-anchor="middle" x="551" y="-204.3" font-family="Times,serif" font-size="14.00">02 (a)</text>
</g>
<!-- 03&#45;&gt;02 -->
<g id="edge16" class="edge"><title>03&#45;&gt;02</title>
<path fill="none" stroke="#b43f3f" stroke-dasharray="1,5" d="M571.367,-277.774C567.975,-272.029 564.466,-265.4 562,-259 559.187,-251.702 557.009,-243.513 555.36,-235.908"/>
<polygon fill="#b43f3f" stroke="#b43f3f" points="558.785,-235.181 553.432,-226.038 551.914,-236.524 558.785,-235.181"/>
<text text-anchor="middle" x="584" y="-247.8" font-family="Times,serif" font-size="14.00">1 (86.5)</text>
</g>
<!-- 032 -->
<g id="node19" class="node"><title>032</title>
<ellipse fill="#ff8a8a" stroke="#b43f3f" cx="637" cy="-208" rx="36.2938" ry="18"/>
<text text-anchor="middle" x="637" y="-204.3" font-family="Times,serif" font-size="14.00">032 (a)</text>
</g>
<!-- 03&#45;&gt;032 -->
<g id="edge17" class="edge"><title>03&#45;&gt;032</title>
<path fill="none" stroke="#b43f3f" stroke-dasharray="1,5" d="M593.148,-278.074C597.25,-272.129 601.894,-265.294 606,-259 611.271,-250.92 616.872,-241.996 621.843,-233.951"/>
<polygon fill="#b43f3f" stroke="#b43f3f" points="624.885,-235.685 627.136,-225.332 618.92,-232.022 624.885,-235.685"/>
<text text-anchor="middle" x="638" y="-247.8" font-family="Times,serif" font-size="14.00">1 (91.7)</text>
</g>
<!-- 0211 -->
<g id="node20" class="node"><title>0211</title>
<ellipse fill="#ff8a8a" stroke="#b43f3f" cx="732" cy="-208" rx="40.0939" ry="18"/>
<text text-anchor="middle" x="732" y="-204.3" font-family="Times,serif" font-size="14.00">0211 (a)</text>
</g>
<!-- 091&#45;&gt;0211 -->
<g id="edge18" class="edge"><title>091&#45;&gt;0211</title>
<path fill="none" stroke="#b43f3f" stroke-dasharray="1,5" d="M732,-276.799C732,-265.163 732,-249.548 732,-236.237"/>
<polygon fill="#b43f3f" stroke="#b43f3f" points="735.5,-236.175 732,-226.175 728.5,-236.175 735.5,-236.175"/>
<text text-anchor="middle" x="754" y="-247.8" font-family="Times,serif" font-size="14.00">1 (83.3)</text>
</g>
<!-- 05 -->
<g id="node21" class="node"><title>05</title>
<ellipse fill="#ff8a8a" stroke="#b43f3f" cx="822" cy="-208" rx="31.6951" ry="18"/>
<text text-anchor="middle" x="822" y="-204.3" font-family="Times,serif" font-size="14.00">05 (a)</text>
</g>
<!-- 091&#45;&gt;05 -->
<g id="edge19" class="edge"><title>091&#45;&gt;05</title>
<path fill="none" stroke="#b43f3f" stroke-dasharray="1,5" d="M753.416,-280.054C762.043,-274.018 771.858,-266.601 780,-259 788.415,-251.144 796.762,-241.653 803.772,-233.06"/>
<polygon fill="#b43f3f" stroke="#b43f3f" points="806.554,-235.185 810.041,-225.18 801.076,-230.827 806.554,-235.185"/>
<text text-anchor="middle" x="815" y="-247.8" font-family="Times,serif" font-size="14.00">1 (87.5)</text>
</g>
</g>
</svg>
