<?xml version="1.0" encoding="UTF-8" standalone="no"?>
<!DOCTYPE svg PUBLIC "-//W3C//DTD SVG 1.1//EN"
 "http://www.w3.org/Graphics/SVG/1.1/DTD/svg11.dtd">
<!-- Generated by graphviz version 2.38.0 (20140413.2041)
 -->
<!-- Title: G Pages: 1 -->
<svg width="870pt" height="332pt"
 viewBox="0.00 0.00 870.19 332.00" xmlns="http://www.w3.org/2000/svg" xmlns:xlink="http://www.w3.org/1999/xlink">
<g id="graph0" class="graph" transform="scale(1 1) rotate(0) translate(4 328)">
<title>G</title>
<polygon fill="white" stroke="none" points="-4,4 -4,-328 866.193,-328 866.193,4 -4,4"/>
<!-- 032 (a) -->
<g id="node1" class="node"><title>032 (a)</title>
<ellipse fill="#ff8a8a" stroke="#b43f3f" cx="339.896" cy="-162" rx="36.2938" ry="18"/>
<text text-anchor="middle" x="339.896" y="-158.3" font-family="Times,serif" font-size="14.00">032 (a)</text>
</g>
<!-- 011/2 (a) -->
<g id="node2" class="node"><title>011/2 (a)</title>
<ellipse fill="#ff8a8a" stroke="#b43f3f" cx="214.896" cy="-90" rx="42.7926" ry="18"/>
<text text-anchor="middle" x="214.896" y="-86.3" font-family="Times,serif" font-size="14.00">011/2 (a)</text>
</g>
<!-- 05 (a) -->
<g id="node3" class="node"><title>05 (a)</title>
<ellipse fill="#ff8a8a" stroke="#b43f3f" cx="731.896" cy="-162" rx="31.6951" ry="18"/>
<text text-anchor="middle" x="731.896" y="-158.3" font-family="Times,serif" font-size="14.00">05 (a)</text>
</g>
<!-- 07/2 (a) -->
<g id="node4" class="node"><title>07/2 (a)</title>
<ellipse fill="#ff8a8a" stroke="#b43f3f" cx="313.896" cy="-90" rx="38.1938" ry="18"/>
<text text-anchor="middle" x="313.896" y="-86.3" font-family="Times,serif" font-size="14.00">07/2 (a)</text>
</g>
<!-- 013/2 (c) -->
<g id="node13" class="node"><title>013/2 (c)</title>
<ellipse fill="#72fe95" stroke="#27b34a" cx="42.8962" cy="-18" rx="42.7926" ry="18"/>
<text text-anchor="middle" x="42.8962" y="-14.3" font-family="Times,serif" font-size="14.00">013/2 (c)</text>
</g>
<!-- 07/2 (a)&#45;&gt;013/2 (c) -->
<g id="edge1" class="edge"><title>07/2 (a)&#45;&gt;013/2 (c)</title>
<path fill="none" stroke="black" d="M285.272,-77.9228C279.253,-75.7981 272.906,-73.7067 266.896,-72 191.766,-50.6647 170.349,-56.1648 94.8962,-36 91.5369,-35.1022 88.075,-34.1136 84.6086,-33.0784"/>
<polygon fill="black" stroke="black" points="85.4963,-29.6894 74.9085,-30.0746 83.4256,-36.3761 85.4963,-29.6894"/>
</g>
<!-- 034 (a) -->
<g id="node17" class="node"><title>034 (a)</title>
<ellipse fill="#ff8a8a" stroke="#b43f3f" cx="139.896" cy="-18" rx="36.2938" ry="18"/>
<text text-anchor="middle" x="139.896" y="-14.3" font-family="Times,serif" font-size="14.00">034 (a)</text>
</g>
<!-- 07/2 (a)&#45;&gt;034 (a) -->
<g id="edge2" class="edge"><title>07/2 (a)&#45;&gt;034 (a)</title>
<path fill="none" stroke="black" d="M285.553,-77.5975C255.968,-65.6956 209.444,-46.9792 176.962,-33.9114"/>
<polygon fill="black" stroke="black" points="177.949,-30.5362 167.366,-30.051 175.337,-37.0304 177.949,-30.5362"/>
</g>
<!-- 030 (a) -->
<g id="node21" class="node"><title>030 (a)</title>
<ellipse fill="#ff8a8a" stroke="#b43f3f" cx="230.896" cy="-18" rx="36.2938" ry="18"/>
<text text-anchor="middle" x="230.896" y="-14.3" font-family="Times,serif" font-size="14.00">030 (a)</text>
</g>
<!-- 07/2 (a)&#45;&gt;030 (a) -->
<g id="edge4" class="edge"><title>07/2 (a)&#45;&gt;030 (a)</title>
<path fill="none" stroke="black" d="M295.886,-73.811C284.388,-64.1135 269.302,-51.3905 256.56,-40.6438"/>
<polygon fill="black" stroke="black" points="258.486,-37.6904 248.586,-33.9188 253.974,-43.0414 258.486,-37.6904"/>
</g>
<!-- 037 (a) -->
<g id="node24" class="node"><title>037 (a)</title>
<ellipse fill="#ff8a8a" stroke="#b43f3f" cx="321.896" cy="-18" rx="36.2938" ry="18"/>
<text text-anchor="middle" x="321.896" y="-14.3" font-family="Times,serif" font-size="14.00">037 (a)</text>
</g>
<!-- 07/2 (a)&#45;&gt;037 (a) -->
<g id="edge3" class="edge"><title>07/2 (a)&#45;&gt;037 (a)</title>
<path fill="none" stroke="black" d="M315.874,-71.6966C316.755,-63.9827 317.815,-54.7125 318.798,-46.1124"/>
<polygon fill="black" stroke="black" points="322.283,-46.4371 319.941,-36.1043 315.328,-45.6422 322.283,-46.4371"/>
</g>
<!-- 017/2 (a) -->
<g id="node26" class="node"><title>017/2 (a)</title>
<ellipse fill="#ff8a8a" stroke="#b43f3f" cx="418.896" cy="-18" rx="42.7926" ry="18"/>
<text text-anchor="middle" x="418.896" y="-14.3" font-family="Times,serif" font-size="14.00">017/2 (a)</text>
</g>
<!-- 07/2 (a)&#45;&gt;017/2 (a) -->
<g id="edge5" class="edge"><title>07/2 (a)&#45;&gt;017/2 (a)</title>
<path fill="none" stroke="black" d="M335.145,-74.8345C350.453,-64.6286 371.336,-50.7067 388.419,-39.3179"/>
<polygon fill="black" stroke="black" points="390.578,-42.0856 396.957,-33.6263 386.695,-36.2612 390.578,-42.0856"/>
</g>
<!-- 02 (a) -->
<g id="node5" class="node"><title>02 (a)</title>
<ellipse fill="#ff8a8a" stroke="#b43f3f" cx="425.896" cy="-162" rx="31.6951" ry="18"/>
<text text-anchor="middle" x="425.896" y="-158.3" font-family="Times,serif" font-size="14.00">02 (a)</text>
</g>
<!-- 03 (a) -->
<g id="node6" class="node"><title>03 (a)</title>
<ellipse fill="#ff8a8a" stroke="#b43f3f" cx="425.896" cy="-234" rx="31.6951" ry="18"/>
<text text-anchor="middle" x="425.896" y="-230.3" font-family="Times,serif" font-size="14.00">03 (a)</text>
</g>
<!-- 03 (a)&#45;&gt;032 (a) -->
<g id="edge6" class="edge"><title>03 (a)&#45;&gt;032 (a)</title>
<path fill="none" stroke="black" d="M408.493,-218.834C396.381,-208.976 380.008,-195.649 366.296,-184.488"/>
<polygon fill="black" stroke="black" points="368.129,-181.468 358.164,-177.869 363.71,-186.897 368.129,-181.468"/>
</g>
<!-- 03 (a)&#45;&gt;02 (a) -->
<g id="edge8" class="edge"><title>03 (a)&#45;&gt;02 (a)</title>
<path fill="none" stroke="black" d="M425.896,-215.697C425.896,-207.983 425.896,-198.712 425.896,-190.112"/>
<polygon fill="black" stroke="black" points="429.396,-190.104 425.896,-180.104 422.396,-190.104 429.396,-190.104"/>
</g>
<!-- 044 (a) -->
<g id="node7" class="node"><title>044 (a)</title>
<ellipse fill="#ff8a8a" stroke="#b43f3f" cx="511.896" cy="-162" rx="36.2938" ry="18"/>
<text text-anchor="middle" x="511.896" y="-158.3" font-family="Times,serif" font-size="14.00">044 (a)</text>
</g>
<!-- 03 (a)&#45;&gt;044 (a) -->
<g id="edge7" class="edge"><title>03 (a)&#45;&gt;044 (a)</title>
<path fill="none" stroke="black" d="M443.3,-218.834C455.412,-208.976 471.784,-195.649 485.496,-184.488"/>
<polygon fill="black" stroke="black" points="488.082,-186.897 493.628,-177.869 483.663,-181.468 488.082,-186.897"/>
</g>
<!-- 044 (a)&#45;&gt;011/2 (a) -->
<g id="edge13" class="edge"><title>044 (a)&#45;&gt;011/2 (a)</title>
<path fill="none" stroke="black" d="M484.555,-149.76C478.787,-147.647 472.692,-145.602 466.896,-144 379.842,-119.94 354.472,-130.085 266.896,-108 263.477,-107.138 259.956,-106.168 256.435,-105.14"/>
<polygon fill="black" stroke="black" points="257.18,-101.708 246.593,-102.131 255.133,-108.402 257.18,-101.708"/>
</g>
<!-- 044 (a)&#45;&gt;07/2 (a) -->
<g id="edge9" class="edge"><title>044 (a)&#45;&gt;07/2 (a)</title>
<path fill="none" stroke="black" d="M483.86,-150.256C478.253,-148.15 472.396,-145.981 466.896,-144 420.482,-127.281 408.482,-124.235 361.896,-108 359.025,-106.999 356.059,-105.961 353.076,-104.913"/>
<polygon fill="black" stroke="black" points="354.177,-101.59 343.582,-101.566 351.849,-108.192 354.177,-101.59"/>
</g>
<!-- 0141 (a) -->
<g id="node8" class="node"><title>0141 (a)</title>
<ellipse fill="#ff8a8a" stroke="#b43f3f" cx="410.896" cy="-90" rx="40.0939" ry="18"/>
<text text-anchor="middle" x="410.896" y="-86.3" font-family="Times,serif" font-size="14.00">0141 (a)</text>
</g>
<!-- 044 (a)&#45;&gt;0141 (a) -->
<g id="edge12" class="edge"><title>044 (a)&#45;&gt;0141 (a)</title>
<path fill="none" stroke="black" d="M491.457,-146.834C476.867,-136.722 457.012,-122.962 440.665,-111.632"/>
<polygon fill="black" stroke="black" points="442.213,-108.446 432,-105.626 438.225,-114.199 442.213,-108.446"/>
</g>
<!-- 045/2 (a) -->
<g id="node9" class="node"><title>045/2 (a)</title>
<ellipse fill="#ff8a8a" stroke="#b43f3f" cx="511.896" cy="-90" rx="42.7926" ry="18"/>
<text text-anchor="middle" x="511.896" y="-86.3" font-family="Times,serif" font-size="14.00">045/2 (a)</text>
</g>
<!-- 044 (a)&#45;&gt;045/2 (a) -->
<g id="edge14" class="edge"><title>044 (a)&#45;&gt;045/2 (a)</title>
<path fill="none" stroke="black" d="M511.896,-143.697C511.896,-135.983 511.896,-126.712 511.896,-118.112"/>
<polygon fill="black" stroke="black" points="515.396,-118.104 511.896,-108.104 508.396,-118.104 515.396,-118.104"/>
</g>
<!-- 021/2 (a) -->
<g id="node12" class="node"><title>021/2 (a)</title>
<ellipse fill="#ff8a8a" stroke="#b43f3f" cx="615.896" cy="-90" rx="42.7926" ry="18"/>
<text text-anchor="middle" x="615.896" y="-86.3" font-family="Times,serif" font-size="14.00">021/2 (a)</text>
</g>
<!-- 044 (a)&#45;&gt;021/2 (a) -->
<g id="edge10" class="edge"><title>044 (a)&#45;&gt;021/2 (a)</title>
<path fill="none" stroke="black" d="M532.942,-146.834C548.105,-136.629 568.789,-122.707 585.71,-111.318"/>
<polygon fill="black" stroke="black" points="587.824,-114.114 594.166,-105.626 583.915,-108.307 587.824,-114.114"/>
</g>
<!-- 028/2 (a) -->
<g id="node16" class="node"><title>028/2 (a)</title>
<ellipse fill="#ff8a8a" stroke="#b43f3f" cx="719.896" cy="-90" rx="42.7926" ry="18"/>
<text text-anchor="middle" x="719.896" y="-86.3" font-family="Times,serif" font-size="14.00">028/2 (a)</text>
</g>
<!-- 044 (a)&#45;&gt;028/2 (a) -->
<g id="edge11" class="edge"><title>044 (a)&#45;&gt;028/2 (a)</title>
<path fill="none" stroke="black" d="M541.256,-151.119C576.948,-139.108 637.428,-118.754 678.004,-105.098"/>
<polygon fill="black" stroke="black" points="679.248,-108.373 687.609,-101.866 677.015,-101.738 679.248,-108.373"/>
</g>
<!-- 022 (a) -->
<g id="node20" class="node"><title>022 (a)</title>
<ellipse fill="#ff8a8a" stroke="#b43f3f" cx="816.896" cy="-90" rx="36.2938" ry="18"/>
<text text-anchor="middle" x="816.896" y="-86.3" font-family="Times,serif" font-size="14.00">022 (a)</text>
</g>
<!-- 044 (a)&#45;&gt;022 (a) -->
<g id="edge15" class="edge"><title>044 (a)&#45;&gt;022 (a)</title>
<path fill="none" stroke="black" d="M546.39,-155.777C596.589,-147.769 692.452,-130.943 771.896,-108 774.514,-107.244 777.195,-106.405 779.881,-105.515"/>
<polygon fill="black" stroke="black" points="781.245,-108.746 789.526,-102.137 778.931,-102.14 781.245,-108.746"/>
</g>
<!-- 038 (b) -->
<g id="node23" class="node"><title>038 (b)</title>
<ellipse fill="#cea8f4" stroke="#835da9" cx="515.896" cy="-18" rx="36.2938" ry="18"/>
<text text-anchor="middle" x="515.896" y="-14.3" font-family="Times,serif" font-size="14.00">038 (b)</text>
</g>
<!-- 045/2 (a)&#45;&gt;038 (b) -->
<g id="edge16" class="edge"><title>045/2 (a)&#45;&gt;038 (b)</title>
<path fill="none" stroke="black" d="M512.885,-71.6966C513.326,-63.9827 513.855,-54.7125 514.347,-46.1124"/>
<polygon fill="black" stroke="black" points="517.843,-46.2878 514.919,-36.1043 510.854,-45.8883 517.843,-46.2878"/>
</g>
<!-- 019 (a) -->
<g id="node10" class="node"><title>019 (a)</title>
<ellipse fill="#ff8a8a" stroke="#b43f3f" cx="511.896" cy="-234" rx="36.2938" ry="18"/>
<text text-anchor="middle" x="511.896" y="-230.3" font-family="Times,serif" font-size="14.00">019 (a)</text>
</g>
<!-- P75 (a) -->
<g id="node11" class="node"><title>P75 (a)</title>
<ellipse fill="#ff8a8a" stroke="#b43f3f" cx="602.896" cy="-234" rx="36.2938" ry="18"/>
<text text-anchor="middle" x="602.896" y="-230.3" font-family="Times,serif" font-size="14.00">P75 (a)</text>
</g>
<!-- 036 (a) -->
<g id="node18" class="node"><title>036 (a)</title>
<ellipse fill="#ff8a8a" stroke="#b43f3f" cx="609.896" cy="-18" rx="36.2938" ry="18"/>
<text text-anchor="middle" x="609.896" y="-14.3" font-family="Times,serif" font-size="14.00">036 (a)</text>
</g>
<!-- 021/2 (a)&#45;&gt;036 (a) -->
<g id="edge17" class="edge"><title>021/2 (a)&#45;&gt;036 (a)</title>
<path fill="none" stroke="black" d="M614.413,-71.6966C613.752,-63.9827 612.957,-54.7125 612.22,-46.1124"/>
<polygon fill="black" stroke="black" points="615.704,-45.7689 611.362,-36.1043 608.729,-46.3667 615.704,-45.7689"/>
</g>
<!-- 047 (a) -->
<g id="node19" class="node"><title>047 (a)</title>
<ellipse fill="#ff8a8a" stroke="#b43f3f" cx="700.896" cy="-18" rx="36.2938" ry="18"/>
<text text-anchor="middle" x="700.896" y="-14.3" font-family="Times,serif" font-size="14.00">047 (a)</text>
</g>
<!-- 021/2 (a)&#45;&gt;047 (a) -->
<g id="edge18" class="edge"><title>021/2 (a)&#45;&gt;047 (a)</title>
<path fill="none" stroke="black" d="M634.76,-73.4647C646.668,-63.6582 662.206,-50.8624 675.229,-40.1377"/>
<polygon fill="black" stroke="black" points="677.463,-42.8319 682.958,-33.773 673.013,-37.4284 677.463,-42.8319"/>
</g>
<!-- 01 (b) -->
<g id="node14" class="node"><title>01 (b)</title>
<ellipse fill="#cea8f4" stroke="#835da9" cx="689.896" cy="-234" rx="32.4942" ry="18"/>
<text text-anchor="middle" x="689.896" y="-230.3" font-family="Times,serif" font-size="14.00">01 (b)</text>
</g>
<!-- 0211 (a) -->
<g id="node15" class="node"><title>0211 (a)</title>
<ellipse fill="#ff8a8a" stroke="#b43f3f" cx="821.896" cy="-162" rx="40.0939" ry="18"/>
<text text-anchor="middle" x="821.896" y="-158.3" font-family="Times,serif" font-size="14.00">0211 (a)</text>
</g>
<!-- 091 (a) -->
<g id="node22" class="node"><title>091 (a)</title>
<ellipse fill="#ff8a8a" stroke="#b43f3f" cx="776.896" cy="-234" rx="36.2938" ry="18"/>
<text text-anchor="middle" x="776.896" y="-230.3" font-family="Times,serif" font-size="14.00">091 (a)</text>
</g>
<!-- 091 (a)&#45;&gt;05 (a) -->
<g id="edge19" class="edge"><title>091 (a)&#45;&gt;05 (a)</title>
<path fill="none" stroke="black" d="M766.232,-216.411C760.796,-207.955 754.071,-197.494 748.018,-188.078"/>
<polygon fill="black" stroke="black" points="750.836,-185.989 742.484,-179.47 744.948,-189.774 750.836,-185.989"/>
</g>
<!-- 091 (a)&#45;&gt;0211 (a) -->
<g id="edge20" class="edge"><title>091 (a)&#45;&gt;0211 (a)</title>
<path fill="none" stroke="black" d="M787.561,-216.411C792.997,-207.955 799.721,-197.494 805.774,-188.078"/>
<polygon fill="black" stroke="black" points="808.845,-189.774 811.308,-179.47 802.957,-185.989 808.845,-189.774"/>
</g>
<!-- A (a) -->
<g id="node25" class="node"><title>A (a)</title>
<ellipse fill="#ff8a8a" stroke="#b43f3f" cx="602.896" cy="-306" rx="29.4969" ry="18"/>
<text text-anchor="middle" x="602.896" y="-302.3" font-family="Times,serif" font-size="14.00">A (a)</text>
</g>
<!-- A (a)&#45;&gt;03 (a) -->
<g id="edge24" class="edge"><title>A (a)&#45;&gt;03 (a)</title>
<path fill="none" stroke="black" d="M578.759,-295.773C551.522,-285.32 505.925,-267.694 466.896,-252 464.805,-251.159 462.656,-250.288 460.491,-249.406"/>
<polygon fill="black" stroke="black" points="461.593,-246.075 451.013,-245.514 458.935,-252.55 461.593,-246.075"/>
</g>
<!-- A (a)&#45;&gt;019 (a) -->
<g id="edge22" class="edge"><title>A (a)&#45;&gt;019 (a)</title>
<path fill="none" stroke="black" d="M585.35,-291.503C572.19,-281.38 553.935,-267.338 538.917,-255.785"/>
<polygon fill="black" stroke="black" points="541.019,-252.987 530.959,-249.664 536.751,-258.535 541.019,-252.987"/>
</g>
<!-- A (a)&#45;&gt;P75 (a) -->
<g id="edge21" class="edge"><title>A (a)&#45;&gt;P75 (a)</title>
<path fill="none" stroke="black" d="M602.896,-287.697C602.896,-279.983 602.896,-270.712 602.896,-262.112"/>
<polygon fill="black" stroke="black" points="606.396,-262.104 602.896,-252.104 599.396,-262.104 606.396,-262.104"/>
</g>
<!-- A (a)&#45;&gt;01 (b) -->
<g id="edge23" class="edge"><title>A (a)&#45;&gt;01 (b)</title>
<path fill="none" stroke="black" d="M620.085,-291.17C632.669,-281.045 649.959,-267.133 664.184,-255.688"/>
<polygon fill="black" stroke="black" points="666.549,-258.277 672.146,-249.282 662.161,-252.823 666.549,-258.277"/>
</g>
<!-- A (a)&#45;&gt;091 (a) -->
<g id="edge25" class="edge"><title>A (a)&#45;&gt;091 (a)</title>
<path fill="none" stroke="black" d="M626.725,-295.414C655.951,-283.656 705.812,-263.597 740.005,-249.841"/>
<polygon fill="black" stroke="black" points="741.667,-252.945 749.638,-245.966 739.054,-246.451 741.667,-252.945"/>
</g>
</g>
</svg>
