<?xml version="1.0" encoding="UTF-8" standalone="no"?>
<!DOCTYPE svg PUBLIC "-//W3C//DTD SVG 1.1//EN"
 "http://www.w3.org/Graphics/SVG/1.1/DTD/svg11.dtd">
<!-- Generated by graphviz version 2.38.0 (20140413.2041)
 -->
<!-- Title: %3 Pages: 1 -->
<svg width="1152pt" height="250pt"
 viewBox="0.00 0.00 1152.00 250.00" xmlns="http://www.w3.org/2000/svg" xmlns:xlink="http://www.w3.org/1999/xlink">
<g id="graph0" class="graph" transform="scale(1 1) rotate(0) translate(4 246)">
<title>%3</title>
<polygon fill="white" stroke="none" points="-4,4 -4,-246 1148,-246 1148,4 -4,4"/>
<g id="clust1" class="cluster"><title>cluster_reading</title>
<polygon fill="none" stroke="black" points="8,-8 8,-234 914,-234 914,-8 8,-8"/>
</g>
<g id="clust2" class="cluster"><title>cluster_legend</title>
<path fill="none" stroke="black" d="M934,-106C934,-106 1124,-106 1124,-106 1130,-106 1136,-112 1136,-118 1136,-118 1136,-222 1136,-222 1136,-228 1130,-234 1124,-234 1124,-234 934,-234 934,-234 928,-234 922,-228 922,-222 922,-222 922,-118 922,-118 922,-112 928,-106 934,-106"/>
</g>
<!-- 031 -->
<g id="node1" class="node"><title>031</title>
<ellipse fill="#ff8a8a" stroke="#b43f3f" cx="174" cy="-121" rx="36.2938" ry="18"/>
<text text-anchor="middle" x="174" y="-117.3" font-family="Times,serif" font-size="14.00">031 (a)</text>
</g>
<!-- 01 -->
<g id="node2" class="node"><title>01</title>
<ellipse fill="#ff8a8a" stroke="#b43f3f" cx="48" cy="-34" rx="31.6951" ry="18"/>
<text text-anchor="middle" x="48" y="-30.3" font-family="Times,serif" font-size="14.00">01 (a)</text>
</g>
<!-- 031&#45;&gt;01 -->
<g id="edge1" class="edge"><title>031&#45;&gt;01</title>
<path fill="none" stroke="#b43f3f" stroke-dasharray="1,5" d="M144.331,-110.388C128.55,-104.471 109.303,-95.9183 94,-85 83.855,-77.7616 74.2486,-67.9812 66.4642,-58.99"/>
<polygon fill="#b43f3f" stroke="#b43f3f" points="68.9483,-56.5031 59.8644,-51.0503 63.5652,-60.9777 68.9483,-56.5031"/>
<text text-anchor="middle" x="116" y="-73.8" font-family="Times,serif" font-size="14.00">2 (48.5)</text>
</g>
<!-- 013 -->
<g id="node3" class="node"><title>013</title>
<ellipse fill="#ff8a8a" stroke="#b43f3f" cx="134" cy="-34" rx="36.2938" ry="18"/>
<text text-anchor="middle" x="134" y="-30.3" font-family="Times,serif" font-size="14.00">013 (a)</text>
</g>
<!-- 031&#45;&gt;013 -->
<g id="edge2" class="edge"><title>031&#45;&gt;013</title>
<path fill="none" stroke="#b43f3f" stroke-dasharray="1,5" d="M159.623,-104.178C155.043,-98.4652 150.31,-91.7533 147,-85 143.526,-77.9127 140.905,-69.7897 138.96,-62.1805"/>
<polygon fill="#b43f3f" stroke="#b43f3f" points="142.337,-61.2459 136.71,-52.2684 135.51,-62.795 142.337,-61.2459"/>
<text text-anchor="middle" x="169" y="-73.8" font-family="Times,serif" font-size="14.00">1 (97.1)</text>
</g>
<!-- 017 -->
<g id="node4" class="node"><title>017</title>
<ellipse fill="#ff8a8a" stroke="#b43f3f" cx="225" cy="-34" rx="36.2938" ry="18"/>
<text text-anchor="middle" x="225" y="-30.3" font-family="Times,serif" font-size="14.00">017 (a)</text>
</g>
<!-- 031&#45;&gt;017 -->
<g id="edge3" class="edge"><title>031&#45;&gt;017</title>
<path fill="none" stroke="#b43f3f" stroke-dasharray="1,5" d="M183.833,-103.611C191.242,-91.2642 201.53,-74.1167 209.968,-60.0534"/>
<polygon fill="#b43f3f" stroke="#b43f3f" points="213.053,-61.7142 215.197,-51.3385 207.051,-58.1127 213.053,-61.7142"/>
<text text-anchor="middle" x="225" y="-73.8" font-family="Times,serif" font-size="14.00">1 (94.3)</text>
</g>
<!-- 045 -->
<g id="node5" class="node"><title>045</title>
<ellipse fill="#ff8a8a" stroke="#b43f3f" cx="316" cy="-121" rx="36.2938" ry="18"/>
<text text-anchor="middle" x="316" y="-117.3" font-family="Times,serif" font-size="14.00">045 (a)</text>
</g>
<!-- 038 -->
<g id="node6" class="node"><title>038</title>
<ellipse fill="#ff8a8a" stroke="#b43f3f" cx="316" cy="-34" rx="36.2938" ry="18"/>
<text text-anchor="middle" x="316" y="-30.3" font-family="Times,serif" font-size="14.00">038 (a)</text>
</g>
<!-- 045&#45;&gt;038 -->
<g id="edge4" class="edge"><title>045&#45;&gt;038</title>
<path fill="none" stroke="#b43f3f" stroke-dasharray="1,5" d="M316,-102.799C316,-91.1626 316,-75.5479 316,-62.2368"/>
<polygon fill="#b43f3f" stroke="#b43f3f" points="319.5,-62.1754 316,-52.1754 312.5,-62.1755 319.5,-62.1754"/>
<text text-anchor="middle" x="338" y="-73.8" font-family="Times,serif" font-size="14.00">1 (92.7)</text>
</g>
<!-- 063 -->
<g id="node7" class="node"><title>063</title>
<ellipse fill="#ff8a8a" stroke="#b43f3f" cx="407" cy="-208" rx="36.2938" ry="18"/>
<text text-anchor="middle" x="407" y="-204.3" font-family="Times,serif" font-size="14.00">063 (a)</text>
</g>
<!-- 063&#45;&gt;031 -->
<g id="edge5" class="edge"><title>063&#45;&gt;031</title>
<path fill="none" stroke="#b43f3f" stroke-dasharray="1,5" d="M376.729,-197.926C354.744,-191.18 324.354,-181.53 298,-172 268.131,-161.199 234.765,-147.659 210.174,-137.394"/>
<polygon fill="#b43f3f" stroke="#b43f3f" points="211.45,-134.134 200.874,-133.494 208.742,-140.589 211.45,-134.134"/>
<text text-anchor="middle" x="320" y="-160.8" font-family="Times,serif" font-size="14.00">1 (95.8)</text>
</g>
<!-- 063&#45;&gt;045 -->
<g id="edge6" class="edge"><title>063&#45;&gt;045</title>
<path fill="none" stroke="#b43f3f" stroke-dasharray="1,5" d="M385.628,-193.006C377.008,-186.963 367.186,-179.554 359,-172 350.456,-164.115 341.924,-154.619 334.74,-146.029"/>
<polygon fill="#b43f3f" stroke="#b43f3f" points="337.344,-143.685 328.308,-138.155 331.923,-148.113 337.344,-143.685"/>
<text text-anchor="middle" x="381" y="-160.8" font-family="Times,serif" font-size="14.00">1 (93.1)</text>
</g>
<!-- 021 -->
<g id="node8" class="node"><title>021</title>
<ellipse fill="#ff8a8a" stroke="#b43f3f" cx="407" cy="-121" rx="36.2938" ry="18"/>
<text text-anchor="middle" x="407" y="-117.3" font-family="Times,serif" font-size="14.00">021 (a)</text>
</g>
<!-- 063&#45;&gt;021 -->
<g id="edge7" class="edge"><title>063&#45;&gt;021</title>
<path fill="none" stroke="#b43f3f" stroke-dasharray="1,5" d="M407,-189.799C407,-178.163 407,-162.548 407,-149.237"/>
<polygon fill="#b43f3f" stroke="#b43f3f" points="410.5,-149.175 407,-139.175 403.5,-149.175 410.5,-149.175"/>
<text text-anchor="middle" x="429" y="-160.8" font-family="Times,serif" font-size="14.00">1 (93.1)</text>
</g>
<!-- 028 -->
<g id="node9" class="node"><title>028</title>
<ellipse fill="#ff8a8a" stroke="#b43f3f" cx="498" cy="-121" rx="36.2938" ry="18"/>
<text text-anchor="middle" x="498" y="-117.3" font-family="Times,serif" font-size="14.00">028 (a)</text>
</g>
<!-- 063&#45;&gt;028 -->
<g id="edge8" class="edge"><title>063&#45;&gt;028</title>
<path fill="none" stroke="#b43f3f" stroke-dasharray="1,5" d="M428.372,-193.006C436.992,-186.963 446.814,-179.554 455,-172 463.544,-164.115 472.076,-154.619 479.26,-146.029"/>
<polygon fill="#b43f3f" stroke="#b43f3f" points="482.077,-148.113 485.692,-138.155 476.656,-143.685 482.077,-148.113"/>
<text text-anchor="middle" x="491" y="-160.8" font-family="Times,serif" font-size="14.00">1 (96.6)</text>
</g>
<!-- 07 -->
<g id="node10" class="node"><title>07</title>
<ellipse fill="#ff8a8a" stroke="#b43f3f" cx="680" cy="-121" rx="31.6951" ry="18"/>
<text text-anchor="middle" x="680" y="-117.3" font-family="Times,serif" font-size="14.00">07 (a)</text>
</g>
<!-- 063&#45;&gt;07 -->
<g id="edge9" class="edge"><title>063&#45;&gt;07</title>
<path fill="none" stroke="#b43f3f" stroke-dasharray="1,5" d="M436.997,-197.66C487.329,-181.989 588.622,-150.451 643.185,-133.462"/>
<polygon fill="#b43f3f" stroke="#b43f3f" points="644.3,-136.781 652.807,-130.467 642.219,-130.098 644.3,-136.781"/>
<text text-anchor="middle" x="582" y="-160.8" font-family="Times,serif" font-size="14.00">1 (96.6)</text>
</g>
<!-- 036 -->
<g id="node11" class="node"><title>036</title>
<ellipse fill="#ff8a8a" stroke="#b43f3f" cx="407" cy="-34" rx="36.2938" ry="18"/>
<text text-anchor="middle" x="407" y="-30.3" font-family="Times,serif" font-size="14.00">036 (a)</text>
</g>
<!-- 021&#45;&gt;036 -->
<g id="edge10" class="edge"><title>021&#45;&gt;036</title>
<path fill="none" stroke="#b43f3f" stroke-dasharray="1,5" d="M407,-102.799C407,-91.1626 407,-75.5479 407,-62.2368"/>
<polygon fill="#b43f3f" stroke="#b43f3f" points="410.5,-62.1754 407,-52.1754 403.5,-62.1755 410.5,-62.1754"/>
<text text-anchor="middle" x="429" y="-73.8" font-family="Times,serif" font-size="14.00">1 (97.6)</text>
</g>
<!-- 047 -->
<g id="node12" class="node"><title>047</title>
<ellipse fill="#ff8a8a" stroke="#b43f3f" cx="498" cy="-34" rx="36.2938" ry="18"/>
<text text-anchor="middle" x="498" y="-30.3" font-family="Times,serif" font-size="14.00">047 (a)</text>
</g>
<!-- 021&#45;&gt;047 -->
<g id="edge11" class="edge"><title>021&#45;&gt;047</title>
<path fill="none" stroke="#b43f3f" stroke-dasharray="1,5" d="M428.372,-106.006C436.992,-99.9634 446.814,-92.5539 455,-85 463.544,-77.1154 472.076,-67.6186 479.26,-59.0293"/>
<polygon fill="#b43f3f" stroke="#b43f3f" points="482.077,-61.1135 485.692,-51.1545 476.656,-56.6853 482.077,-61.1135"/>
<text text-anchor="middle" x="491" y="-73.8" font-family="Times,serif" font-size="14.00">1 (95.1)</text>
</g>
<!-- 030 -->
<g id="node13" class="node"><title>030</title>
<ellipse fill="#ff8a8a" stroke="#b43f3f" cx="589" cy="-34" rx="36.2938" ry="18"/>
<text text-anchor="middle" x="589" y="-30.3" font-family="Times,serif" font-size="14.00">030 (a)</text>
</g>
<!-- 07&#45;&gt;030 -->
<g id="edge12" class="edge"><title>07&#45;&gt;030</title>
<path fill="none" stroke="#b43f3f" stroke-dasharray="1,5" d="M659.581,-106.672C650.737,-100.512 640.489,-92.8337 632,-85 623.456,-77.1154 614.924,-67.6186 607.74,-59.0293"/>
<polygon fill="#b43f3f" stroke="#b43f3f" points="610.344,-56.6853 601.308,-51.1545 604.923,-61.1135 610.344,-56.6853"/>
<text text-anchor="middle" x="654" y="-73.8" font-family="Times,serif" font-size="14.00">1 (95.1)</text>
</g>
<!-- 034 -->
<g id="node14" class="node"><title>034</title>
<ellipse fill="#ff8a8a" stroke="#b43f3f" cx="680" cy="-34" rx="36.2938" ry="18"/>
<text text-anchor="middle" x="680" y="-30.3" font-family="Times,serif" font-size="14.00">034 (a)</text>
</g>
<!-- 07&#45;&gt;034 -->
<g id="edge13" class="edge"><title>07&#45;&gt;034</title>
<path fill="none" stroke="#b43f3f" stroke-dasharray="1,5" d="M680,-102.799C680,-91.1626 680,-75.5479 680,-62.2368"/>
<polygon fill="#b43f3f" stroke="#b43f3f" points="683.5,-62.1754 680,-52.1754 676.5,-62.1755 683.5,-62.1754"/>
<text text-anchor="middle" x="702" y="-73.8" font-family="Times,serif" font-size="14.00">1 (95.1)</text>
</g>
<!-- 0211 -->
<g id="node15" class="node"><title>0211</title>
<ellipse fill="#ff8a8a" stroke="#b43f3f" cx="775" cy="-34" rx="40.0939" ry="18"/>
<text text-anchor="middle" x="775" y="-30.3" font-family="Times,serif" font-size="14.00">0211 (a)</text>
</g>
<!-- 07&#45;&gt;0211 -->
<g id="edge14" class="edge"><title>07&#45;&gt;0211</title>
<path fill="none" stroke="#b43f3f" stroke-dasharray="1,5" d="M699.786,-106.822C708.703,-100.572 719.185,-92.7806 728,-85 737.163,-76.9115 746.531,-67.2757 754.467,-58.6319"/>
<polygon fill="#b43f3f" stroke="#b43f3f" points="757.21,-60.8165 761.306,-51.0454 752.01,-56.1295 757.21,-60.8165"/>
<text text-anchor="middle" x="766" y="-73.8" font-family="Times,serif" font-size="14.00">2 (82.9)</text>
</g>
<!-- 037 -->
<g id="node16" class="node"><title>037</title>
<ellipse fill="#ff8a8a" stroke="#b43f3f" cx="870" cy="-34" rx="36.2938" ry="18"/>
<text text-anchor="middle" x="870" y="-30.3" font-family="Times,serif" font-size="14.00">037 (a)</text>
</g>
<!-- 07&#45;&gt;037 -->
<g id="edge15" class="edge"><title>07&#45;&gt;037</title>
<path fill="none" stroke="#b43f3f" stroke-dasharray="1,5" d="M708.863,-113.253C731.96,-107.321 764.861,-97.6595 792,-85 809.504,-76.835 827.748,-65.329 842.187,-55.4127"/>
<polygon fill="#b43f3f" stroke="#b43f3f" points="844.463,-58.092 850.645,-49.4879 840.447,-52.3587 844.463,-58.092"/>
<text text-anchor="middle" x="841" y="-73.8" font-family="Times,serif" font-size="14.00">1 (97.5)</text>
</g>
<!-- leg_s -->
<g id="node17" class="node"><title>leg_s</title>
<text text-anchor="middle" x="1029" y="-204.3" font-family="Times,serif" font-size="14.00">Textual flow strength</text>
</g>
<!-- leg_e1 -->
<!-- leg_s&#45;&gt;leg_e1 -->
<g id="edge16" class="edge"><title>leg_s&#45;&gt;leg_e1</title>
<path fill="none" stroke="black" stroke-dasharray="1,5" d="M1010.67,-189.686C1005.13,-184.194 999.161,-177.989 994,-172 984.171,-160.593 974.072,-146.779 966.914,-136.563"/>
<polygon fill="black" stroke="black" points="969.614,-134.314 961.056,-128.068 963.851,-138.288 969.614,-134.314"/>
<text text-anchor="middle" x="1009.5" y="-160.8" font-family="Times,serif" font-size="14.00">&lt;=5 &#160;</text>
</g>
<!-- leg_e2 -->
<!-- leg_s&#45;&gt;leg_e2 -->
<g id="edge17" class="edge"><title>leg_s&#45;&gt;leg_e2</title>
<path fill="none" stroke="black" stroke-dasharray="5,2" d="M1029,-189.799C1029,-174.794 1029,-153.174 1029,-138.409"/>
<polygon fill="black" stroke="black" points="1032.5,-138.293 1029,-128.293 1025.5,-138.293 1032.5,-138.293"/>
<text text-anchor="middle" x="1048" y="-160.8" font-family="Times,serif" font-size="14.00"> &#160;&lt;=25</text>
</g>
<!-- leg_e3 -->
<!-- leg_s&#45;&gt;leg_e3 -->
<g id="edge18" class="edge"><title>leg_s&#45;&gt;leg_e3</title>
<path fill="none" stroke="black" d="M1052.5,-189.76C1058.91,-184.462 1065.57,-178.344 1071,-172 1080.09,-161.39 1088.1,-147.689 1093.55,-137.313"/>
<polygon fill="black" stroke="black" points="1096.72,-138.789 1098.09,-128.283 1090.47,-135.642 1096.72,-138.789"/>
<text text-anchor="middle" x="1092" y="-160.8" font-family="Times,serif" font-size="14.00">&gt;25</text>
</g>
</g>
</svg>
