<?xml version="1.0" encoding="UTF-8" standalone="no"?>
<!DOCTYPE svg PUBLIC "-//W3C//DTD SVG 1.1//EN"
 "http://www.w3.org/Graphics/SVG/1.1/DTD/svg11.dtd">
<!-- Generated by graphviz version 2.38.0 (20140413.2041)
 -->
<!-- Title: G Pages: 1 -->
<svg width="1180pt" height="260pt"
 viewBox="0.00 0.00 1179.89 260.00" xmlns="http://www.w3.org/2000/svg" xmlns:xlink="http://www.w3.org/1999/xlink">
<g id="graph0" class="graph" transform="scale(1 1) rotate(0) translate(4 256)">
<title>G</title>
<polygon fill="white" stroke="none" points="-4,4 -4,-256 1175.89,-256 1175.89,4 -4,4"/>
<!-- 038 (a) -->
<g id="node1" class="node"><title>038 (a)</title>
<ellipse fill="#ff8a8a" stroke="#b43f3f" cx="36.3968" cy="-18" rx="36.2938" ry="18"/>
<text text-anchor="middle" x="36.3968" y="-14.3" font-family="Times,serif" font-size="14.00">038 (a)</text>
</g>
<!-- 032 (a) -->
<g id="node2" class="node"><title>032 (a)</title>
<ellipse fill="#ff8a8a" stroke="#b43f3f" cx="657.397" cy="-162" rx="36.2938" ry="18"/>
<text text-anchor="middle" x="657.397" y="-158.3" font-family="Times,serif" font-size="14.00">032 (a)</text>
</g>
<!-- 063 (a) -->
<g id="node3" class="node"><title>063 (a)</title>
<ellipse fill="#ff8a8a" stroke="#b43f3f" cx="241.397" cy="-162" rx="36.2938" ry="18"/>
<text text-anchor="middle" x="241.397" y="-158.3" font-family="Times,serif" font-size="14.00">063 (a)</text>
</g>
<!-- 028 (a) -->
<g id="node5" class="node"><title>028 (a)</title>
<ellipse fill="#ff8a8a" stroke="#b43f3f" cx="59.3968" cy="-90" rx="36.2938" ry="18"/>
<text text-anchor="middle" x="59.3968" y="-86.3" font-family="Times,serif" font-size="14.00">028 (a)</text>
</g>
<!-- 063 (a)&#45;&gt;028 (a) -->
<g id="edge1" class="edge"><title>063 (a)&#45;&gt;028 (a)</title>
<path fill="none" stroke="black" d="M213.358,-150.216C182.139,-138.209 131.528,-118.743 96.9167,-105.431"/>
<polygon fill="black" stroke="black" points="97.7585,-102.005 87.1686,-101.681 95.2456,-108.538 97.7585,-102.005"/>
</g>
<!-- 011 (a) -->
<g id="node17" class="node"><title>011 (a)</title>
<ellipse fill="#ff8a8a" stroke="#b43f3f" cx="150.397" cy="-90" rx="36.2938" ry="18"/>
<text text-anchor="middle" x="150.397" y="-86.3" font-family="Times,serif" font-size="14.00">011 (a)</text>
</g>
<!-- 063 (a)&#45;&gt;011 (a) -->
<g id="edge4" class="edge"><title>063 (a)&#45;&gt;011 (a)</title>
<path fill="none" stroke="black" d="M222.542,-146.496C209.486,-136.453 191.912,-122.934 177.377,-111.754"/>
<polygon fill="black" stroke="black" points="179.288,-108.808 169.228,-105.485 175.02,-114.357 179.288,-108.808"/>
</g>
<!-- 045 (a) -->
<g id="node19" class="node"><title>045 (a)</title>
<ellipse fill="#ff8a8a" stroke="#b43f3f" cx="241.397" cy="-90" rx="36.2938" ry="18"/>
<text text-anchor="middle" x="241.397" y="-86.3" font-family="Times,serif" font-size="14.00">045 (a)</text>
</g>
<!-- 063 (a)&#45;&gt;045 (a) -->
<g id="edge3" class="edge"><title>063 (a)&#45;&gt;045 (a)</title>
<path fill="none" stroke="black" d="M241.397,-143.697C241.397,-135.983 241.397,-126.712 241.397,-118.112"/>
<polygon fill="black" stroke="black" points="244.897,-118.104 241.397,-108.104 237.897,-118.104 244.897,-118.104"/>
</g>
<!-- 07 (a) -->
<g id="node22" class="node"><title>07 (a)</title>
<ellipse fill="#ff8a8a" stroke="#b43f3f" cx="327.397" cy="-90" rx="31.6951" ry="18"/>
<text text-anchor="middle" x="327.397" y="-86.3" font-family="Times,serif" font-size="14.00">07 (a)</text>
</g>
<!-- 063 (a)&#45;&gt;07 (a) -->
<g id="edge2" class="edge"><title>063 (a)&#45;&gt;07 (a)</title>
<path fill="none" stroke="black" d="M259.635,-146.155C271.966,-136.118 288.418,-122.727 302.024,-111.653"/>
<polygon fill="black" stroke="black" points="304.518,-114.135 310.065,-105.108 300.099,-108.706 304.518,-114.135"/>
</g>
<!-- 021 (a) -->
<g id="node26" class="node"><title>021 (a)</title>
<ellipse fill="#ff8a8a" stroke="#b43f3f" cx="606.397" cy="-90" rx="36.2938" ry="18"/>
<text text-anchor="middle" x="606.397" y="-86.3" font-family="Times,serif" font-size="14.00">021 (a)</text>
</g>
<!-- 063 (a)&#45;&gt;021 (a) -->
<g id="edge5" class="edge"><title>063 (a)&#45;&gt;021 (a)</title>
<path fill="none" stroke="black" d="M274.756,-154.602C341.063,-141.886 489.377,-113.442 563.093,-99.3048"/>
<polygon fill="black" stroke="black" points="563.822,-102.729 572.984,-97.408 562.503,-95.8542 563.822,-102.729"/>
</g>
<!-- 05 (a) -->
<g id="node4" class="node"><title>05 (a)</title>
<ellipse fill="#ff8a8a" stroke="#b43f3f" cx="916.397" cy="-162" rx="31.6951" ry="18"/>
<text text-anchor="middle" x="916.397" y="-158.3" font-family="Times,serif" font-size="14.00">05 (a)</text>
</g>
<!-- 03 (a) -->
<g id="node6" class="node"><title>03 (a)</title>
<ellipse fill="#ff8a8a" stroke="#b43f3f" cx="748.397" cy="-234" rx="31.6951" ry="18"/>
<text text-anchor="middle" x="748.397" y="-230.3" font-family="Times,serif" font-size="14.00">03 (a)</text>
</g>
<!-- 03 (a)&#45;&gt;032 (a) -->
<g id="edge6" class="edge"><title>03 (a)&#45;&gt;032 (a)</title>
<path fill="none" stroke="black" d="M729.982,-218.834C716.957,-208.816 699.278,-195.216 684.628,-183.947"/>
<polygon fill="black" stroke="black" points="686.471,-180.949 676.411,-177.626 682.203,-186.498 686.471,-180.949"/>
</g>
<!-- 044 (a) -->
<g id="node8" class="node"><title>044 (a)</title>
<ellipse fill="#ff8a8a" stroke="#b43f3f" cx="748.397" cy="-162" rx="36.2938" ry="18"/>
<text text-anchor="middle" x="748.397" y="-158.3" font-family="Times,serif" font-size="14.00">044 (a)</text>
</g>
<!-- 03 (a)&#45;&gt;044 (a) -->
<g id="edge7" class="edge"><title>03 (a)&#45;&gt;044 (a)</title>
<path fill="none" stroke="black" d="M748.397,-215.697C748.397,-207.983 748.397,-198.712 748.397,-190.112"/>
<polygon fill="black" stroke="black" points="751.897,-190.104 748.397,-180.104 744.897,-190.104 751.897,-190.104"/>
</g>
<!-- 02 (a) -->
<g id="node10" class="node"><title>02 (a)</title>
<ellipse fill="#ff8a8a" stroke="#b43f3f" cx="834.397" cy="-162" rx="31.6951" ry="18"/>
<text text-anchor="middle" x="834.397" y="-158.3" font-family="Times,serif" font-size="14.00">02 (a)</text>
</g>
<!-- 03 (a)&#45;&gt;02 (a) -->
<g id="edge8" class="edge"><title>03 (a)&#45;&gt;02 (a)</title>
<path fill="none" stroke="black" d="M765.8,-218.834C778.273,-208.682 795.263,-194.853 809.214,-183.498"/>
<polygon fill="black" stroke="black" points="811.473,-186.172 817.019,-177.144 807.054,-180.743 811.473,-186.172"/>
</g>
<!-- 013/2 (a) -->
<g id="node7" class="node"><title>013/2 (a)</title>
<ellipse fill="#ff8a8a" stroke="#b43f3f" cx="133.397" cy="-18" rx="42.7926" ry="18"/>
<text text-anchor="middle" x="133.397" y="-14.3" font-family="Times,serif" font-size="14.00">013/2 (a)</text>
</g>
<!-- 0141 (a) -->
<g id="node9" class="node"><title>0141 (a)</title>
<ellipse fill="#ff8a8a" stroke="#b43f3f" cx="701.397" cy="-90" rx="40.0939" ry="18"/>
<text text-anchor="middle" x="701.397" y="-86.3" font-family="Times,serif" font-size="14.00">0141 (a)</text>
</g>
<!-- 044 (a)&#45;&gt;0141 (a) -->
<g id="edge10" class="edge"><title>044 (a)&#45;&gt;0141 (a)</title>
<path fill="none" stroke="black" d="M737.496,-144.765C731.766,-136.23 724.616,-125.582 718.195,-116.019"/>
<polygon fill="black" stroke="black" points="721.045,-113.985 712.565,-107.633 715.234,-117.887 721.045,-113.985"/>
</g>
<!-- 022 (a) -->
<g id="node20" class="node"><title>022 (a)</title>
<ellipse fill="#ff8a8a" stroke="#b43f3f" cx="796.397" cy="-90" rx="36.2938" ry="18"/>
<text text-anchor="middle" x="796.397" y="-86.3" font-family="Times,serif" font-size="14.00">022 (a)</text>
</g>
<!-- 044 (a)&#45;&gt;022 (a) -->
<g id="edge9" class="edge"><title>044 (a)&#45;&gt;022 (a)</title>
<path fill="none" stroke="black" d="M759.53,-144.765C765.467,-136.106 772.895,-125.273 779.525,-115.604"/>
<polygon fill="black" stroke="black" points="782.556,-117.374 785.324,-107.147 776.782,-113.415 782.556,-117.374"/>
</g>
<!-- 019 (a) -->
<g id="node11" class="node"><title>019 (a)</title>
<ellipse fill="#ff8a8a" stroke="#b43f3f" cx="241.397" cy="-234" rx="36.2938" ry="18"/>
<text text-anchor="middle" x="241.397" y="-230.3" font-family="Times,serif" font-size="14.00">019 (a)</text>
</g>
<!-- 019 (a)&#45;&gt;063 (a) -->
<g id="edge11" class="edge"><title>019 (a)&#45;&gt;063 (a)</title>
<path fill="none" stroke="black" d="M241.397,-215.697C241.397,-207.983 241.397,-198.712 241.397,-190.112"/>
<polygon fill="black" stroke="black" points="244.897,-190.104 241.397,-180.104 237.897,-190.104 244.897,-190.104"/>
</g>
<!-- P75 (a) -->
<g id="node12" class="node"><title>P75 (a)</title>
<ellipse fill="#ff8a8a" stroke="#b43f3f" cx="1052.4" cy="-234" rx="36.2938" ry="18"/>
<text text-anchor="middle" x="1052.4" y="-230.3" font-family="Times,serif" font-size="14.00">P75 (a)</text>
</g>
<!-- 01 (b) -->
<g id="node13" class="node"><title>01 (b)</title>
<ellipse fill="#cea8f4" stroke="#835da9" cx="1139.4" cy="-234" rx="32.4942" ry="18"/>
<text text-anchor="middle" x="1139.4" y="-230.3" font-family="Times,serif" font-size="14.00">01 (b)</text>
</g>
<!-- 0211 (a) -->
<g id="node14" class="node"><title>0211 (a)</title>
<ellipse fill="#ff8a8a" stroke="#b43f3f" cx="1006.4" cy="-162" rx="40.0939" ry="18"/>
<text text-anchor="middle" x="1006.4" y="-158.3" font-family="Times,serif" font-size="14.00">0211 (a)</text>
</g>
<!-- 034 (a) -->
<g id="node15" class="node"><title>034 (a)</title>
<ellipse fill="#ff8a8a" stroke="#b43f3f" cx="230.397" cy="-18" rx="36.2938" ry="18"/>
<text text-anchor="middle" x="230.397" y="-14.3" font-family="Times,serif" font-size="14.00">034 (a)</text>
</g>
<!-- 036 (a) -->
<g id="node16" class="node"><title>036 (a)</title>
<ellipse fill="#ff8a8a" stroke="#b43f3f" cx="606.397" cy="-18" rx="36.2938" ry="18"/>
<text text-anchor="middle" x="606.397" y="-14.3" font-family="Times,serif" font-size="14.00">036 (a)</text>
</g>
<!-- 047 (a) -->
<g id="node18" class="node"><title>047 (a)</title>
<ellipse fill="#ff8a8a" stroke="#b43f3f" cx="697.397" cy="-18" rx="36.2938" ry="18"/>
<text text-anchor="middle" x="697.397" y="-14.3" font-family="Times,serif" font-size="14.00">047 (a)</text>
</g>
<!-- 045 (a)&#45;&gt;038 (a) -->
<g id="edge12" class="edge"><title>045 (a)&#45;&gt;038 (a)</title>
<path fill="none" stroke="black" d="M213.254,-78.3558C207.372,-76.1997 201.196,-73.9861 195.397,-72 145.13,-54.7857 131.602,-53.3953 81.3968,-36 78.9801,-35.1627 76.4977,-34.2824 73.9997,-33.3814"/>
<polygon fill="black" stroke="black" points="74.9887,-30.016 64.3951,-29.8509 72.5736,-36.5862 74.9887,-30.016"/>
</g>
<!-- 091 (a) -->
<g id="node21" class="node"><title>091 (a)</title>
<ellipse fill="#ff8a8a" stroke="#b43f3f" cx="961.397" cy="-234" rx="36.2938" ry="18"/>
<text text-anchor="middle" x="961.397" y="-230.3" font-family="Times,serif" font-size="14.00">091 (a)</text>
</g>
<!-- 091 (a)&#45;&gt;05 (a) -->
<g id="edge13" class="edge"><title>091 (a)&#45;&gt;05 (a)</title>
<path fill="none" stroke="black" d="M950.732,-216.411C945.296,-207.955 938.572,-197.494 932.519,-188.078"/>
<polygon fill="black" stroke="black" points="935.336,-185.989 926.985,-179.47 929.448,-189.774 935.336,-185.989"/>
</g>
<!-- 091 (a)&#45;&gt;0211 (a) -->
<g id="edge14" class="edge"><title>091 (a)&#45;&gt;0211 (a)</title>
<path fill="none" stroke="black" d="M972.061,-216.411C977.497,-207.955 984.222,-197.494 990.275,-188.078"/>
<polygon fill="black" stroke="black" points="993.345,-189.774 995.809,-179.47 987.457,-185.989 993.345,-189.774"/>
</g>
<!-- 07 (a)&#45;&gt;013/2 (a) -->
<g id="edge19" class="edge"><title>07 (a)&#45;&gt;013/2 (a)</title>
<path fill="none" stroke="black" d="M302.776,-78.5124C297.401,-76.3014 291.727,-74.0261 286.397,-72 249.29,-57.8944 206.564,-43.2233 175.711,-32.9029"/>
<polygon fill="black" stroke="black" points="176.726,-29.5521 166.132,-29.7112 174.513,-36.1931 176.726,-29.5521"/>
</g>
<!-- 07 (a)&#45;&gt;034 (a) -->
<g id="edge15" class="edge"><title>07 (a)&#45;&gt;034 (a)</title>
<path fill="none" stroke="black" d="M308.233,-75.1703C294.071,-64.9503 274.563,-50.8728 258.621,-39.3678"/>
<polygon fill="black" stroke="black" points="260.344,-36.2953 250.187,-33.2816 256.248,-41.9716 260.344,-36.2953"/>
</g>
<!-- 017/2 (a) -->
<g id="node23" class="node"><title>017/2 (a)</title>
<ellipse fill="#ff8a8a" stroke="#b43f3f" cx="327.397" cy="-18" rx="42.7926" ry="18"/>
<text text-anchor="middle" x="327.397" y="-14.3" font-family="Times,serif" font-size="14.00">017/2 (a)</text>
</g>
<!-- 07 (a)&#45;&gt;017/2 (a) -->
<g id="edge16" class="edge"><title>07 (a)&#45;&gt;017/2 (a)</title>
<path fill="none" stroke="black" d="M327.397,-71.6966C327.397,-63.9827 327.397,-54.7125 327.397,-46.1124"/>
<polygon fill="black" stroke="black" points="330.897,-46.1043 327.397,-36.1043 323.897,-46.1044 330.897,-46.1043"/>
</g>
<!-- 037 (a) -->
<g id="node24" class="node"><title>037 (a)</title>
<ellipse fill="#ff8a8a" stroke="#b43f3f" cx="424.397" cy="-18" rx="36.2938" ry="18"/>
<text text-anchor="middle" x="424.397" y="-14.3" font-family="Times,serif" font-size="14.00">037 (a)</text>
</g>
<!-- 07 (a)&#45;&gt;037 (a) -->
<g id="edge17" class="edge"><title>07 (a)&#45;&gt;037 (a)</title>
<path fill="none" stroke="black" d="M346.561,-75.1703C360.723,-64.9503 380.23,-50.8728 396.173,-39.3678"/>
<polygon fill="black" stroke="black" points="398.546,-41.9716 404.607,-33.2816 394.449,-36.2953 398.546,-41.9716"/>
</g>
<!-- 030 (a) -->
<g id="node25" class="node"><title>030 (a)</title>
<ellipse fill="#ff8a8a" stroke="#b43f3f" cx="515.397" cy="-18" rx="36.2938" ry="18"/>
<text text-anchor="middle" x="515.397" y="-14.3" font-family="Times,serif" font-size="14.00">030 (a)</text>
</g>
<!-- 07 (a)&#45;&gt;030 (a) -->
<g id="edge18" class="edge"><title>07 (a)&#45;&gt;030 (a)</title>
<path fill="none" stroke="black" d="M353.537,-79.2668C385.768,-67.266 440.79,-46.7793 477.615,-33.0677"/>
<polygon fill="black" stroke="black" points="478.872,-36.3344 487.022,-29.565 476.429,-29.7744 478.872,-36.3344"/>
</g>
<!-- 021 (a)&#45;&gt;036 (a) -->
<g id="edge20" class="edge"><title>021 (a)&#45;&gt;036 (a)</title>
<path fill="none" stroke="black" d="M606.397,-71.6966C606.397,-63.9827 606.397,-54.7125 606.397,-46.1124"/>
<polygon fill="black" stroke="black" points="609.897,-46.1043 606.397,-36.1043 602.897,-46.1044 609.897,-46.1043"/>
</g>
<!-- 021 (a)&#45;&gt;047 (a) -->
<g id="edge21" class="edge"><title>021 (a)&#45;&gt;047 (a)</title>
<path fill="none" stroke="black" d="M625.252,-74.496C638.308,-64.4532 655.882,-50.9344 670.416,-39.7541"/>
<polygon fill="black" stroke="black" points="672.773,-42.3568 678.566,-33.4855 668.505,-36.8084 672.773,-42.3568"/>
</g>
</g>
</svg>
