<?xml version="1.0" encoding="UTF-8" standalone="no"?>
<!DOCTYPE svg PUBLIC "-//W3C//DTD SVG 1.1//EN"
 "http://www.w3.org/Graphics/SVG/1.1/DTD/svg11.dtd">
<!-- Generated by graphviz version 2.38.0 (20140413.2041)
 -->
<!-- Title: %3 Pages: 1 -->
<svg width="908pt" height="408pt"
 viewBox="0.00 0.00 907.69 408.00" xmlns="http://www.w3.org/2000/svg" xmlns:xlink="http://www.w3.org/1999/xlink">
<g id="graph0" class="graph" transform="scale(1 1) rotate(0) translate(4 404)">
<title>%3</title>
<polygon fill="white" stroke="none" points="-4,4 -4,-404 903.693,-404 903.693,4 -4,4"/>
<g id="clust1" class="cluster"><title>cluster_legend</title>
<path fill="none" stroke="black" d="M239.397,-264C239.397,-264 429.397,-264 429.397,-264 435.397,-264 441.397,-270 441.397,-276 441.397,-276 441.397,-380 441.397,-380 441.397,-386 435.397,-392 429.397,-392 429.397,-392 239.397,-392 239.397,-392 233.397,-392 227.397,-386 227.397,-380 227.397,-380 227.397,-276 227.397,-276 227.397,-270 233.397,-264 239.397,-264"/>
</g>
<!-- leg_s -->
<g id="node1" class="node"><title>leg_s</title>
<text text-anchor="middle" x="334.397" y="-362.3" font-family="Times,serif" font-size="14.00">Textual flow strength</text>
</g>
<!-- leg_e1 -->
<!-- leg_s&#45;&gt;leg_e1 -->
<g id="edge1" class="edge"><title>leg_s&#45;&gt;leg_e1</title>
<path fill="none" stroke="black" stroke-dasharray="1,5" d="M316.062,-347.686C310.529,-342.194 304.557,-335.989 299.397,-330 289.568,-318.593 279.469,-304.779 272.31,-294.563"/>
<polygon fill="black" stroke="black" points="275.011,-292.314 266.453,-286.068 269.248,-296.288 275.011,-292.314"/>
<text text-anchor="middle" x="314.897" y="-318.8" font-family="Times,serif" font-size="14.00">&lt;=5 &#160;</text>
</g>
<!-- leg_e2 -->
<!-- leg_s&#45;&gt;leg_e2 -->
<g id="edge2" class="edge"><title>leg_s&#45;&gt;leg_e2</title>
<path fill="none" stroke="black" stroke-dasharray="5,2" d="M334.397,-347.799C334.397,-332.794 334.397,-311.174 334.397,-296.409"/>
<polygon fill="black" stroke="black" points="337.897,-296.293 334.397,-286.293 330.897,-296.293 337.897,-296.293"/>
<text text-anchor="middle" x="353.397" y="-318.8" font-family="Times,serif" font-size="14.00"> &#160;&lt;=25</text>
</g>
<!-- leg_e3 -->
<!-- leg_s&#45;&gt;leg_e3 -->
<g id="edge3" class="edge"><title>leg_s&#45;&gt;leg_e3</title>
<path fill="none" stroke="black" d="M357.9,-347.76C364.303,-342.462 370.963,-336.344 376.397,-330 385.484,-319.39 393.492,-305.689 398.943,-295.313"/>
<polygon fill="black" stroke="black" points="402.119,-296.789 403.488,-286.283 395.866,-293.642 402.119,-296.789"/>
<text text-anchor="middle" x="398.397" y="-318.8" font-family="Times,serif" font-size="14.00">&gt;25</text>
</g>
<!-- 091 -->
<g id="node5" class="node"><title>091</title>
<ellipse fill="#ff8a8a" stroke="#b43f3f" cx="487.397" cy="-279" rx="36.2938" ry="18"/>
<text text-anchor="middle" x="487.397" y="-275.3" font-family="Times,serif" font-size="14.00">091 (a)</text>
</g>
<!-- 05 -->
<g id="node6" class="node"><title>05</title>
<ellipse fill="#ff8a8a" stroke="#b43f3f" cx="397.397" cy="-192" rx="31.6951" ry="18"/>
<text text-anchor="middle" x="397.397" y="-188.3" font-family="Times,serif" font-size="14.00">05 (a)</text>
</g>
<!-- 091&#45;&gt;05 -->
<g id="edge4" class="edge"><title>091&#45;&gt;05</title>
<path fill="none" stroke="#b43f3f" stroke-dasharray="1,5" d="M465.981,-264.054C457.354,-258.018 447.538,-250.601 439.397,-243 430.982,-235.144 422.635,-225.653 415.625,-217.06"/>
<polygon fill="#b43f3f" stroke="#b43f3f" points="418.32,-214.827 409.356,-209.18 412.842,-219.185 418.32,-214.827"/>
<text text-anchor="middle" x="461.397" y="-231.8" font-family="Times,serif" font-size="14.00">1 (87.5)</text>
</g>
<!-- 0211 -->
<g id="node7" class="node"><title>0211</title>
<ellipse fill="#ff8a8a" stroke="#b43f3f" cx="487.397" cy="-192" rx="40.0939" ry="18"/>
<text text-anchor="middle" x="487.397" y="-188.3" font-family="Times,serif" font-size="14.00">0211 (a)</text>
</g>
<!-- 091&#45;&gt;0211 -->
<g id="edge5" class="edge"><title>091&#45;&gt;0211</title>
<path fill="none" stroke="#b43f3f" stroke-dasharray="1,5" d="M487.397,-260.799C487.397,-249.163 487.397,-233.548 487.397,-220.237"/>
<polygon fill="#b43f3f" stroke="#b43f3f" points="490.897,-220.175 487.397,-210.175 483.897,-220.175 490.897,-220.175"/>
<text text-anchor="middle" x="509.397" y="-231.8" font-family="Times,serif" font-size="14.00">1 (83.3)</text>
</g>
<!-- A -->
<g id="node8" class="node"><title>A</title>
<ellipse fill="#ff8a8a" stroke="#b43f3f" cx="668.397" cy="-366" rx="29.4969" ry="18"/>
<text text-anchor="middle" x="668.397" y="-362.3" font-family="Times,serif" font-size="14.00">A (a)</text>
</g>
<!-- A&#45;&gt;091 -->
<g id="edge6" class="edge"><title>A&#45;&gt;091</title>
<path fill="none" stroke="#b43f3f" stroke-dasharray="1,5" d="M641.379,-358.559C619.014,-352.689 586.751,-342.958 560.397,-330 544.113,-321.994 527.314,-310.73 513.942,-300.92"/>
<polygon fill="#b43f3f" stroke="#b43f3f" points="515.79,-297.931 505.69,-294.732 511.591,-303.532 515.79,-297.931"/>
<text text-anchor="middle" x="582.397" y="-318.8" font-family="Times,serif" font-size="14.00">1 (87.5)</text>
</g>
<!-- P75 -->
<g id="node9" class="node"><title>P75</title>
<ellipse fill="#ff8a8a" stroke="#b43f3f" cx="582.397" cy="-279" rx="36.2938" ry="18"/>
<text text-anchor="middle" x="582.397" y="-275.3" font-family="Times,serif" font-size="14.00">P75 (a)</text>
</g>
<!-- A&#45;&gt;P75 -->
<g id="edge7" class="edge"><title>A&#45;&gt;P75</title>
<path fill="none" stroke="#b43f3f" stroke-dasharray="1,5" d="M648.697,-352.561C639.596,-346.347 628.94,-338.375 620.397,-330 612.572,-322.329 605.035,-312.975 598.765,-304.442"/>
<polygon fill="#b43f3f" stroke="#b43f3f" points="601.603,-302.394 592.954,-296.275 595.899,-306.452 601.603,-302.394"/>
<text text-anchor="middle" x="642.397" y="-318.8" font-family="Times,serif" font-size="14.00">1 (93.3)</text>
</g>
<!-- 03 -->
<g id="node10" class="node"><title>03</title>
<ellipse fill="#ff8a8a" stroke="#b43f3f" cx="668.397" cy="-279" rx="31.6951" ry="18"/>
<text text-anchor="middle" x="668.397" y="-275.3" font-family="Times,serif" font-size="14.00">03 (a)</text>
</g>
<!-- A&#45;&gt;03 -->
<g id="edge8" class="edge"><title>A&#45;&gt;03</title>
<path fill="none" stroke="#b43f3f" stroke-dasharray="1,5" d="M668.397,-347.799C668.397,-336.163 668.397,-320.548 668.397,-307.237"/>
<polygon fill="#b43f3f" stroke="#b43f3f" points="671.897,-307.175 668.397,-297.175 664.897,-307.175 671.897,-307.175"/>
<text text-anchor="middle" x="690.397" y="-318.8" font-family="Times,serif" font-size="14.00">1 (93.3)</text>
</g>
<!-- 019 -->
<g id="node11" class="node"><title>019</title>
<ellipse fill="#ff8a8a" stroke="#b43f3f" cx="754.397" cy="-279" rx="36.2938" ry="18"/>
<text text-anchor="middle" x="754.397" y="-275.3" font-family="Times,serif" font-size="14.00">019 (a)</text>
</g>
<!-- A&#45;&gt;019 -->
<g id="edge9" class="edge"><title>A&#45;&gt;019</title>
<path fill="none" stroke="#b43f3f" stroke-dasharray="1,5" d="M688.097,-352.561C697.197,-346.347 707.854,-338.375 716.397,-330 724.221,-322.329 731.759,-312.975 738.029,-304.442"/>
<polygon fill="#b43f3f" stroke="#b43f3f" points="740.894,-306.452 743.84,-296.275 735.191,-302.394 740.894,-306.452"/>
<text text-anchor="middle" x="751.397" y="-318.8" font-family="Times,serif" font-size="14.00">1 (93.3)</text>
</g>
<!-- 01 -->
<g id="node12" class="node"><title>01</title>
<ellipse fill="#cea8f4" stroke="#835da9" cx="841.397" cy="-279" rx="32.4942" ry="18"/>
<text text-anchor="middle" x="841.397" y="-275.3" font-family="Times,serif" font-size="14.00">01 (b)</text>
</g>
<!-- A&#45;&gt;01 -->
<g id="edge10" class="edge"><title>A&#45;&gt;01</title>
<path fill="none" stroke="#835da9" stroke-dasharray="5,2" d="M695.888,-359.031C718.594,-353.441 751.225,-343.857 777.397,-330 791.836,-322.355 806.316,-311.387 817.842,-301.67"/>
<polygon fill="#835da9" stroke="#835da9" points="820.408,-304.077 825.669,-294.881 815.821,-298.789 820.408,-304.077"/>
<text text-anchor="middle" x="822.397" y="-318.8" font-family="Times,serif" font-size="14.00">1 (57.1)</text>
</g>
<!-- 044 -->
<g id="node13" class="node"><title>044</title>
<ellipse fill="#ff8a8a" stroke="#b43f3f" cx="582.397" cy="-192" rx="36.2938" ry="18"/>
<text text-anchor="middle" x="582.397" y="-188.3" font-family="Times,serif" font-size="14.00">044 (a)</text>
</g>
<!-- 03&#45;&gt;044 -->
<g id="edge25" class="edge"><title>03&#45;&gt;044</title>
<path fill="none" stroke="#b43f3f" stroke-dasharray="1,5" d="M649.236,-264.58C640.941,-258.403 631.335,-250.737 623.397,-243 615.317,-235.126 607.262,-225.728 600.458,-217.217"/>
<polygon fill="#b43f3f" stroke="#b43f3f" points="603.028,-214.821 594.116,-209.09 597.509,-219.127 603.028,-214.821"/>
<text text-anchor="middle" x="645.397" y="-231.8" font-family="Times,serif" font-size="14.00">1 (89.2)</text>
</g>
<!-- 032 -->
<g id="node28" class="node"><title>032</title>
<ellipse fill="#ff8a8a" stroke="#b43f3f" cx="673.397" cy="-192" rx="36.2938" ry="18"/>
<text text-anchor="middle" x="673.397" y="-188.3" font-family="Times,serif" font-size="14.00">032 (a)</text>
</g>
<!-- 03&#45;&gt;032 -->
<g id="edge26" class="edge"><title>03&#45;&gt;032</title>
<path fill="none" stroke="#b43f3f" stroke-dasharray="1,5" d="M669.409,-260.799C670.093,-249.163 671.012,-233.548 671.795,-220.237"/>
<polygon fill="#b43f3f" stroke="#b43f3f" points="675.293,-220.364 672.386,-210.175 668.305,-219.953 675.293,-220.364"/>
<text text-anchor="middle" x="693.397" y="-231.8" font-family="Times,serif" font-size="14.00">1 (91.7)</text>
</g>
<!-- 02 -->
<g id="node29" class="node"><title>02</title>
<ellipse fill="#ff8a8a" stroke="#b43f3f" cx="759.397" cy="-192" rx="31.6951" ry="18"/>
<text text-anchor="middle" x="759.397" y="-188.3" font-family="Times,serif" font-size="14.00">02 (a)</text>
</g>
<!-- 03&#45;&gt;02 -->
<g id="edge27" class="edge"><title>03&#45;&gt;02</title>
<path fill="none" stroke="#b43f3f" stroke-dasharray="1,5" d="M689.535,-265.494C699.14,-259.323 710.35,-251.407 719.397,-243 727.581,-235.395 735.504,-226.055 742.109,-217.515"/>
<polygon fill="#b43f3f" stroke="#b43f3f" points="745.043,-219.437 748.237,-209.335 739.44,-215.24 745.043,-219.437"/>
<text text-anchor="middle" x="755.397" y="-231.8" font-family="Times,serif" font-size="14.00">1 (86.5)</text>
</g>
<!-- 07 -->
<g id="node14" class="node"><title>07</title>
<ellipse fill="#ff8a8a" stroke="#b43f3f" cx="264.397" cy="-105" rx="31.6951" ry="18"/>
<text text-anchor="middle" x="264.397" y="-101.3" font-family="Times,serif" font-size="14.00">07 (a)</text>
</g>
<!-- 044&#45;&gt;07 -->
<g id="edge11" class="edge"><title>044&#45;&gt;07</title>
<path fill="none" stroke="#b43f3f" stroke-dasharray="1,5" d="M554.979,-179.737C548.936,-177.574 542.512,-175.515 536.397,-174 477.213,-159.342 459.592,-170.608 400.397,-156 364.723,-147.196 325.484,-132.162 298.362,-120.873"/>
<polygon fill="#b43f3f" stroke="#b43f3f" points="299.521,-117.563 288.946,-116.901 296.8,-124.013 299.521,-117.563"/>
<text text-anchor="middle" x="422.397" y="-144.8" font-family="Times,serif" font-size="14.00">2 (83.8)</text>
</g>
<!-- 028 -->
<g id="node15" class="node"><title>028</title>
<ellipse fill="#ff8a8a" stroke="#b43f3f" cx="400.397" cy="-105" rx="36.2938" ry="18"/>
<text text-anchor="middle" x="400.397" y="-101.3" font-family="Times,serif" font-size="14.00">028 (a)</text>
</g>
<!-- 044&#45;&gt;028 -->
<g id="edge12" class="edge"><title>044&#45;&gt;028</title>
<path fill="none" stroke="#b43f3f" stroke-dasharray="1,5" d="M554.296,-180.232C548.411,-178.084 542.223,-175.906 536.397,-174 508.72,-164.946 499.751,-168.388 473.397,-156 456.861,-148.227 439.932,-136.883 426.545,-126.965"/>
<polygon fill="#b43f3f" stroke="#b43f3f" points="428.38,-123.963 418.299,-120.704 424.147,-129.539 428.38,-123.963"/>
<text text-anchor="middle" x="495.397" y="-144.8" font-family="Times,serif" font-size="14.00">2 (81.1)</text>
</g>
<!-- 021 -->
<g id="node16" class="node"><title>021</title>
<ellipse fill="#ff8a8a" stroke="#b43f3f" cx="491.397" cy="-105" rx="36.2938" ry="18"/>
<text text-anchor="middle" x="491.397" y="-101.3" font-family="Times,serif" font-size="14.00">021 (a)</text>
</g>
<!-- 044&#45;&gt;021 -->
<g id="edge13" class="edge"><title>044&#45;&gt;021</title>
<path fill="none" stroke="#b43f3f" stroke-dasharray="1,5" d="M561.025,-177.006C552.404,-170.963 542.582,-163.554 534.397,-156 525.853,-148.115 517.321,-138.619 510.136,-130.029"/>
<polygon fill="#b43f3f" stroke="#b43f3f" points="512.741,-127.685 503.704,-122.155 507.32,-132.113 512.741,-127.685"/>
<text text-anchor="middle" x="556.397" y="-144.8" font-family="Times,serif" font-size="14.00">2 (83.8)</text>
</g>
<!-- 022 -->
<g id="node17" class="node"><title>022</title>
<ellipse fill="#ff8a8a" stroke="#b43f3f" cx="582.397" cy="-105" rx="36.2938" ry="18"/>
<text text-anchor="middle" x="582.397" y="-101.3" font-family="Times,serif" font-size="14.00">022 (a)</text>
</g>
<!-- 044&#45;&gt;022 -->
<g id="edge14" class="edge"><title>044&#45;&gt;022</title>
<path fill="none" stroke="#b43f3f" stroke-dasharray="1,5" d="M582.397,-173.799C582.397,-162.163 582.397,-146.548 582.397,-133.237"/>
<polygon fill="#b43f3f" stroke="#b43f3f" points="585.897,-133.175 582.397,-123.175 578.897,-133.175 585.897,-133.175"/>
<text text-anchor="middle" x="604.397" y="-144.8" font-family="Times,serif" font-size="14.00">1 (91.7)</text>
</g>
<!-- 011 -->
<g id="node18" class="node"><title>011</title>
<ellipse fill="#ff8a8a" stroke="#b43f3f" cx="673.397" cy="-105" rx="36.2938" ry="18"/>
<text text-anchor="middle" x="673.397" y="-101.3" font-family="Times,serif" font-size="14.00">011 (a)</text>
</g>
<!-- 044&#45;&gt;011 -->
<g id="edge15" class="edge"><title>044&#45;&gt;011</title>
<path fill="none" stroke="#b43f3f" stroke-dasharray="1,5" d="M603.768,-177.006C612.389,-170.963 622.211,-163.554 630.397,-156 638.941,-148.115 647.472,-138.619 654.657,-130.029"/>
<polygon fill="#b43f3f" stroke="#b43f3f" points="657.474,-132.113 661.089,-122.155 652.053,-127.685 657.474,-132.113"/>
<text text-anchor="middle" x="666.397" y="-144.8" font-family="Times,serif" font-size="14.00">2 (86.5)</text>
</g>
<!-- 045 -->
<g id="node19" class="node"><title>045</title>
<ellipse fill="#ff8a8a" stroke="#b43f3f" cx="764.397" cy="-105" rx="36.2938" ry="18"/>
<text text-anchor="middle" x="764.397" y="-101.3" font-family="Times,serif" font-size="14.00">045 (a)</text>
</g>
<!-- 044&#45;&gt;045 -->
<g id="edge16" class="edge"><title>044&#45;&gt;045</title>
<path fill="none" stroke="#b43f3f" stroke-dasharray="1,5" d="M610.492,-180.213C616.377,-178.067 622.567,-175.894 628.397,-174 656.499,-164.871 665.67,-168.601 692.397,-156 708.657,-148.334 725.241,-137.096 738.388,-127.216"/>
<polygon fill="#b43f3f" stroke="#b43f3f" points="740.709,-129.847 746.494,-120.97 736.436,-124.302 740.709,-129.847"/>
<text text-anchor="middle" x="740.397" y="-144.8" font-family="Times,serif" font-size="14.00">2 (81.1)</text>
</g>
<!-- 0141 -->
<g id="node20" class="node"><title>0141</title>
<ellipse fill="#ff8a8a" stroke="#b43f3f" cx="859.397" cy="-105" rx="40.0939" ry="18"/>
<text text-anchor="middle" x="859.397" y="-101.3" font-family="Times,serif" font-size="14.00">0141 (a)</text>
</g>
<!-- 044&#45;&gt;0141 -->
<g id="edge17" class="edge"><title>044&#45;&gt;0141</title>
<path fill="none" stroke="#b43f3f" stroke-dasharray="1,5" d="M609.813,-179.728C615.856,-177.566 622.28,-175.509 628.397,-174 688.45,-159.186 707.521,-174.957 766.397,-156 788.537,-148.871 811.576,-136.526 829.184,-125.887"/>
<polygon fill="#b43f3f" stroke="#b43f3f" points="831.202,-128.754 837.864,-120.515 827.518,-122.802 831.202,-128.754"/>
<text text-anchor="middle" x="823.397" y="-144.8" font-family="Times,serif" font-size="14.00">1 (89.2)</text>
</g>
<!-- 017 -->
<g id="node21" class="node"><title>017</title>
<ellipse fill="#ff8a8a" stroke="#b43f3f" cx="36.3968" cy="-18" rx="36.2938" ry="18"/>
<text text-anchor="middle" x="36.3968" y="-14.3" font-family="Times,serif" font-size="14.00">017 (a)</text>
</g>
<!-- 07&#45;&gt;017 -->
<g id="edge18" class="edge"><title>07&#45;&gt;017</title>
<path fill="none" stroke="#b43f3f" stroke-dasharray="1,5" d="M233.79,-99.869C203,-95.0154 154.597,-85.458 115.397,-69 97.178,-61.351 78.4224,-49.6704 63.7602,-39.5221"/>
<polygon fill="#b43f3f" stroke="#b43f3f" points="65.3827,-36.3819 55.2013,-33.451 61.3328,-42.0914 65.3827,-36.3819"/>
<text text-anchor="middle" x="137.397" y="-57.8" font-family="Times,serif" font-size="14.00">2 (92.7)</text>
</g>
<!-- 037 -->
<g id="node22" class="node"><title>037</title>
<ellipse fill="#ff8a8a" stroke="#b43f3f" cx="127.397" cy="-18" rx="36.2938" ry="18"/>
<text text-anchor="middle" x="127.397" y="-14.3" font-family="Times,serif" font-size="14.00">037 (a)</text>
</g>
<!-- 07&#45;&gt;037 -->
<g id="edge19" class="edge"><title>07&#45;&gt;037</title>
<path fill="none" stroke="#b43f3f" stroke-dasharray="1,5" d="M237.421,-95.088C220.855,-88.9968 199.592,-80.0363 182.397,-69 170.571,-61.4099 158.855,-51.2304 149.294,-42.0377"/>
<polygon fill="#b43f3f" stroke="#b43f3f" points="151.698,-39.492 142.128,-34.9451 146.774,-44.4673 151.698,-39.492"/>
<text text-anchor="middle" x="204.397" y="-57.8" font-family="Times,serif" font-size="14.00">1 (97.5)</text>
</g>
<!-- 030 -->
<g id="node23" class="node"><title>030</title>
<ellipse fill="#ff8a8a" stroke="#b43f3f" cx="218.397" cy="-18" rx="36.2938" ry="18"/>
<text text-anchor="middle" x="218.397" y="-14.3" font-family="Times,serif" font-size="14.00">030 (a)</text>
</g>
<!-- 07&#45;&gt;030 -->
<g id="edge20" class="edge"><title>07&#45;&gt;030</title>
<path fill="none" stroke="#b43f3f" stroke-dasharray="1,5" d="M250.397,-88.761C245.505,-82.8899 240.273,-75.9266 236.397,-69 232.387,-61.8344 228.99,-53.6079 226.264,-45.9242"/>
<polygon fill="#b43f3f" stroke="#b43f3f" points="229.535,-44.6664 223.072,-36.2708 222.888,-46.8641 229.535,-44.6664"/>
<text text-anchor="middle" x="258.397" y="-57.8" font-family="Times,serif" font-size="14.00">1 (95.1)</text>
</g>
<!-- 034 -->
<g id="node24" class="node"><title>034</title>
<ellipse fill="#ff8a8a" stroke="#b43f3f" cx="309.397" cy="-18" rx="36.2938" ry="18"/>
<text text-anchor="middle" x="309.397" y="-14.3" font-family="Times,serif" font-size="14.00">034 (a)</text>
</g>
<!-- 07&#45;&gt;034 -->
<g id="edge21" class="edge"><title>07&#45;&gt;034</title>
<path fill="none" stroke="#b43f3f" stroke-dasharray="1,5" d="M273.073,-87.6111C279.506,-75.4601 288.4,-58.6599 295.777,-44.7254"/>
<polygon fill="#b43f3f" stroke="#b43f3f" points="299.008,-46.1041 300.593,-35.6286 292.821,-42.8288 299.008,-46.1041"/>
<text text-anchor="middle" x="312.397" y="-57.8" font-family="Times,serif" font-size="14.00">1 (95.1)</text>
</g>
<!-- 013 -->
<g id="node25" class="node"><title>013</title>
<ellipse fill="#72fe95" stroke="#27b34a" cx="400.397" cy="-18" rx="36.2938" ry="18"/>
<text text-anchor="middle" x="400.397" y="-14.3" font-family="Times,serif" font-size="14.00">013 (c)</text>
</g>
<!-- 07&#45;&gt;013 -->
<g id="edge22" class="edge"><title>07&#45;&gt;013</title>
<path fill="none" stroke="#27b34a" stroke-dasharray="1,5" d="M289.496,-93.8977C304.197,-87.553 322.866,-78.7419 338.397,-69 351.594,-60.7221 365.182,-50.047 376.262,-40.6876"/>
<polygon fill="#27b34a" stroke="#27b34a" points="378.551,-43.3355 383.845,-34.1582 373.983,-38.0309 378.551,-43.3355"/>
<text text-anchor="middle" x="380.397" y="-57.8" font-family="Times,serif" font-size="14.00">2 (95.1)</text>
</g>
<!-- 036 -->
<g id="node26" class="node"><title>036</title>
<ellipse fill="#ff8a8a" stroke="#b43f3f" cx="491.397" cy="-18" rx="36.2938" ry="18"/>
<text text-anchor="middle" x="491.397" y="-14.3" font-family="Times,serif" font-size="14.00">036 (a)</text>
</g>
<!-- 021&#45;&gt;036 -->
<g id="edge23" class="edge"><title>021&#45;&gt;036</title>
<path fill="none" stroke="#b43f3f" stroke-dasharray="1,5" d="M491.397,-86.799C491.397,-75.1626 491.397,-59.5479 491.397,-46.2368"/>
<polygon fill="#b43f3f" stroke="#b43f3f" points="494.897,-46.1754 491.397,-36.1754 487.897,-46.1755 494.897,-46.1754"/>
<text text-anchor="middle" x="513.397" y="-57.8" font-family="Times,serif" font-size="14.00">1 (97.6)</text>
</g>
<!-- 047 -->
<g id="node27" class="node"><title>047</title>
<ellipse fill="#ff8a8a" stroke="#b43f3f" cx="582.397" cy="-18" rx="36.2938" ry="18"/>
<text text-anchor="middle" x="582.397" y="-14.3" font-family="Times,serif" font-size="14.00">047 (a)</text>
</g>
<!-- 021&#45;&gt;047 -->
<g id="edge24" class="edge"><title>021&#45;&gt;047</title>
<path fill="none" stroke="#b43f3f" stroke-dasharray="1,5" d="M512.768,-90.006C521.389,-83.9634 531.211,-76.5539 539.397,-69 547.941,-61.1154 556.472,-51.6186 563.657,-43.0293"/>
<polygon fill="#b43f3f" stroke="#b43f3f" points="566.474,-45.1135 570.089,-35.1545 561.053,-40.6853 566.474,-45.1135"/>
<text text-anchor="middle" x="575.397" y="-57.8" font-family="Times,serif" font-size="14.00">1 (95.1)</text>
</g>
<!-- 038 -->
<g id="node30" class="node"><title>038</title>
<ellipse fill="#cea8f4" stroke="#835da9" cx="764.397" cy="-18" rx="36.2938" ry="18"/>
<text text-anchor="middle" x="764.397" y="-14.3" font-family="Times,serif" font-size="14.00">038 (b)</text>
</g>
<!-- 045&#45;&gt;038 -->
<g id="edge28" class="edge"><title>045&#45;&gt;038</title>
<path fill="none" stroke="#835da9" stroke-dasharray="1,5" d="M764.397,-86.799C764.397,-75.1626 764.397,-59.5479 764.397,-46.2368"/>
<polygon fill="#835da9" stroke="#835da9" points="767.897,-46.1754 764.397,-36.1754 760.897,-46.1755 767.897,-46.1754"/>
<text text-anchor="middle" x="786.397" y="-57.8" font-family="Times,serif" font-size="14.00">1 (92.7)</text>
</g>
</g>
</svg>
