<?xml version="1.0" encoding="UTF-8" standalone="no"?>
<!DOCTYPE svg PUBLIC "-//W3C//DTD SVG 1.1//EN"
 "http://www.w3.org/Graphics/SVG/1.1/DTD/svg11.dtd">
<!-- Generated by graphviz version 2.38.0 (20140413.2041)
 -->
<!-- Title: G Pages: 1 -->
<svg width="1141pt" height="332pt"
 viewBox="0.00 0.00 1141.34 332.00" xmlns="http://www.w3.org/2000/svg" xmlns:xlink="http://www.w3.org/1999/xlink">
<g id="graph0" class="graph" transform="scale(1 1) rotate(0) translate(4 328)">
<title>G</title>
<polygon fill="white" stroke="none" points="-4,4 -4,-328 1137.34,-328 1137.34,4 -4,4"/>
<!-- 030 (b) -->
<g id="node1" class="node"><title>030 (b)</title>
<ellipse fill="#cea8f4" stroke="#835da9" cx="36.3968" cy="-18" rx="36.2938" ry="18"/>
<text text-anchor="middle" x="36.3968" y="-14.3" font-family="Times,serif" font-size="14.00">030 (b)</text>
</g>
<!-- P75 (a) -->
<g id="node2" class="node"><title>P75 (a)</title>
<ellipse fill="#ff8a8a" stroke="#b43f3f" cx="706.397" cy="-234" rx="36.2938" ry="18"/>
<text text-anchor="middle" x="706.397" y="-230.3" font-family="Times,serif" font-size="14.00">P75 (a)</text>
</g>
<!-- 037 (b) -->
<g id="node3" class="node"><title>037 (b)</title>
<ellipse fill="#cea8f4" stroke="#835da9" cx="127.397" cy="-18" rx="36.2938" ry="18"/>
<text text-anchor="middle" x="127.397" y="-14.3" font-family="Times,serif" font-size="14.00">037 (b)</text>
</g>
<!-- 07 (b) -->
<g id="node4" class="node"><title>07 (b)</title>
<ellipse fill="#cea8f4" stroke="#835da9" cx="320.397" cy="-90" rx="32.4942" ry="18"/>
<text text-anchor="middle" x="320.397" y="-86.3" font-family="Times,serif" font-size="14.00">07 (b)</text>
</g>
<!-- 07 (b)&#45;&gt;030 (b) -->
<g id="edge1" class="edge"><title>07 (b)&#45;&gt;030 (b)</title>
<path fill="none" stroke="black" d="M290.008,-83.5948C244.435,-75.1838 155.893,-57.6567 82.3968,-36 79.4695,-35.1374 76.4601,-34.1831 73.449,-33.1797"/>
<polygon fill="black" stroke="black" points="74.5191,-29.8462 63.9243,-29.8596 72.215,-36.4562 74.5191,-29.8462"/>
</g>
<!-- 07 (b)&#45;&gt;037 (b) -->
<g id="edge4" class="edge"><title>07 (b)&#45;&gt;037 (b)</title>
<path fill="none" stroke="black" d="M293.818,-79.4889C264.358,-68.93 215.445,-51.3498 173.397,-36 170.698,-35.0146 167.91,-33.9936 165.106,-32.9635"/>
<polygon fill="black" stroke="black" points="166.197,-29.6355 155.603,-29.4644 163.778,-36.2043 166.197,-29.6355"/>
</g>
<!-- 034 (b) -->
<g id="node9" class="node"><title>034 (b)</title>
<ellipse fill="#cea8f4" stroke="#835da9" cx="218.397" cy="-18" rx="36.2938" ry="18"/>
<text text-anchor="middle" x="218.397" y="-14.3" font-family="Times,serif" font-size="14.00">034 (b)</text>
</g>
<!-- 07 (b)&#45;&gt;034 (b) -->
<g id="edge3" class="edge"><title>07 (b)&#45;&gt;034 (b)</title>
<path fill="none" stroke="black" d="M300.73,-75.5033C285.645,-65.1508 264.589,-50.7004 247.547,-39.0047"/>
<polygon fill="black" stroke="black" points="249.279,-35.9487 239.053,-33.1761 245.318,-41.7204 249.279,-35.9487"/>
</g>
<!-- 0211/2 (b) -->
<g id="node11" class="node"><title>0211/2 (b)</title>
<ellipse fill="#cea8f4" stroke="#835da9" cx="320.397" cy="-18" rx="48.1917" ry="18"/>
<text text-anchor="middle" x="320.397" y="-14.3" font-family="Times,serif" font-size="14.00">0211/2 (b)</text>
</g>
<!-- 07 (b)&#45;&gt;0211/2 (b) -->
<g id="edge5" class="edge"><title>07 (b)&#45;&gt;0211/2 (b)</title>
<path fill="none" stroke="black" d="M320.397,-71.6966C320.397,-63.9827 320.397,-54.7125 320.397,-46.1124"/>
<polygon fill="black" stroke="black" points="323.897,-46.1043 320.397,-36.1043 316.897,-46.1044 323.897,-46.1043"/>
</g>
<!-- 017/2 (b) -->
<g id="node23" class="node"><title>017/2 (b)</title>
<ellipse fill="#cea8f4" stroke="#835da9" cx="430.397" cy="-18" rx="43.5923" ry="18"/>
<text text-anchor="middle" x="430.397" y="-14.3" font-family="Times,serif" font-size="14.00">017/2 (b)</text>
</g>
<!-- 07 (b)&#45;&gt;017/2 (b) -->
<g id="edge2" class="edge"><title>07 (b)&#45;&gt;017/2 (b)</title>
<path fill="none" stroke="black" d="M340.829,-75.9976C357.135,-65.6213 380.257,-50.9072 398.924,-39.0283"/>
<polygon fill="black" stroke="black" points="400.855,-41.948 407.413,-33.6263 397.097,-36.0423 400.855,-41.948"/>
</g>
<!-- 013/2 (b) -->
<g id="node25" class="node"><title>013/2 (b)</title>
<ellipse fill="#cea8f4" stroke="#835da9" cx="535.397" cy="-18" rx="43.5923" ry="18"/>
<text text-anchor="middle" x="535.397" y="-14.3" font-family="Times,serif" font-size="14.00">013/2 (b)</text>
</g>
<!-- 07 (b)&#45;&gt;013/2 (b) -->
<g id="edge6" class="edge"><title>07 (b)&#45;&gt;013/2 (b)</title>
<path fill="none" stroke="black" d="M347.799,-80.1047C380.193,-69.586 435.726,-51.5425 483.397,-36 486.467,-34.999 489.639,-33.964 492.831,-32.9217"/>
<polygon fill="black" stroke="black" points="493.97,-36.2318 502.389,-29.7997 491.797,-29.5778 493.97,-36.2318"/>
</g>
<!-- 045 (b) -->
<g id="node5" class="node"><title>045 (b)</title>
<ellipse fill="#cea8f4" stroke="#835da9" cx="633.397" cy="-90" rx="36.2938" ry="18"/>
<text text-anchor="middle" x="633.397" y="-86.3" font-family="Times,serif" font-size="14.00">045 (b)</text>
</g>
<!-- 038 (b) -->
<g id="node22" class="node"><title>038 (b)</title>
<ellipse fill="#cea8f4" stroke="#835da9" cx="633.397" cy="-18" rx="36.2938" ry="18"/>
<text text-anchor="middle" x="633.397" y="-14.3" font-family="Times,serif" font-size="14.00">038 (b)</text>
</g>
<!-- 045 (b)&#45;&gt;038 (b) -->
<g id="edge7" class="edge"><title>045 (b)&#45;&gt;038 (b)</title>
<path fill="none" stroke="black" d="M633.397,-71.6966C633.397,-63.9827 633.397,-54.7125 633.397,-46.1124"/>
<polygon fill="black" stroke="black" points="636.897,-46.1043 633.397,-36.1043 629.897,-46.1044 636.897,-46.1043"/>
</g>
<!-- 047 (b) -->
<g id="node6" class="node"><title>047 (b)</title>
<ellipse fill="#cea8f4" stroke="#835da9" cx="724.397" cy="-18" rx="36.2938" ry="18"/>
<text text-anchor="middle" x="724.397" y="-14.3" font-family="Times,serif" font-size="14.00">047 (b)</text>
</g>
<!-- 032 (b) -->
<g id="node7" class="node"><title>032 (b)</title>
<ellipse fill="#cea8f4" stroke="#835da9" cx="883.397" cy="-162" rx="36.2938" ry="18"/>
<text text-anchor="middle" x="883.397" y="-158.3" font-family="Times,serif" font-size="14.00">032 (b)</text>
</g>
<!-- 021 (b) -->
<g id="node8" class="node"><title>021 (b)</title>
<ellipse fill="#cea8f4" stroke="#835da9" cx="724.397" cy="-90" rx="36.2938" ry="18"/>
<text text-anchor="middle" x="724.397" y="-86.3" font-family="Times,serif" font-size="14.00">021 (b)</text>
</g>
<!-- 021 (b)&#45;&gt;047 (b) -->
<g id="edge8" class="edge"><title>021 (b)&#45;&gt;047 (b)</title>
<path fill="none" stroke="black" d="M724.397,-71.6966C724.397,-63.9827 724.397,-54.7125 724.397,-46.1124"/>
<polygon fill="black" stroke="black" points="727.897,-46.1043 724.397,-36.1043 720.897,-46.1044 727.897,-46.1043"/>
</g>
<!-- 036 (b) -->
<g id="node19" class="node"><title>036 (b)</title>
<ellipse fill="#cea8f4" stroke="#835da9" cx="815.397" cy="-18" rx="36.2938" ry="18"/>
<text text-anchor="middle" x="815.397" y="-14.3" font-family="Times,serif" font-size="14.00">036 (b)</text>
</g>
<!-- 021 (b)&#45;&gt;036 (b) -->
<g id="edge9" class="edge"><title>021 (b)&#45;&gt;036 (b)</title>
<path fill="none" stroke="black" d="M743.252,-74.496C756.308,-64.4532 773.882,-50.9344 788.416,-39.7541"/>
<polygon fill="black" stroke="black" points="790.773,-42.3568 796.566,-33.4855 786.505,-36.8084 790.773,-42.3568"/>
</g>
<!-- 011 (b) -->
<g id="node10" class="node"><title>011 (b)</title>
<ellipse fill="#cea8f4" stroke="#835da9" cx="815.397" cy="-90" rx="36.2938" ry="18"/>
<text text-anchor="middle" x="815.397" y="-86.3" font-family="Times,serif" font-size="14.00">011 (b)</text>
</g>
<!-- 019 (a) -->
<g id="node12" class="node"><title>019 (a)</title>
<ellipse fill="#ff8a8a" stroke="#b43f3f" cx="797.397" cy="-234" rx="36.2938" ry="18"/>
<text text-anchor="middle" x="797.397" y="-230.3" font-family="Times,serif" font-size="14.00">019 (a)</text>
</g>
<!-- 063 (b) -->
<g id="node17" class="node"><title>063 (b)</title>
<ellipse fill="#cea8f4" stroke="#835da9" cx="747.397" cy="-162" rx="36.2938" ry="18"/>
<text text-anchor="middle" x="747.397" y="-158.3" font-family="Times,serif" font-size="14.00">063 (b)</text>
</g>
<!-- 019 (a)&#45;&gt;063 (b) -->
<g id="edge10" class="edge"><title>019 (a)&#45;&gt;063 (b)</title>
<path fill="none" stroke="black" d="M785.8,-216.765C779.553,-208.018 771.719,-197.052 764.76,-187.308"/>
<polygon fill="black" stroke="black" points="767.591,-185.25 758.931,-179.147 761.895,-189.319 767.591,-185.25"/>
</g>
<!-- 044 (b) -->
<g id="node13" class="node"><title>044 (b)</title>
<ellipse fill="#cea8f4" stroke="#835da9" cx="997.397" cy="-162" rx="36.2938" ry="18"/>
<text text-anchor="middle" x="997.397" y="-158.3" font-family="Times,serif" font-size="14.00">044 (b)</text>
</g>
<!-- 022 (b) -->
<g id="node15" class="node"><title>022 (b)</title>
<ellipse fill="#cea8f4" stroke="#835da9" cx="997.397" cy="-90" rx="36.2938" ry="18"/>
<text text-anchor="middle" x="997.397" y="-86.3" font-family="Times,serif" font-size="14.00">022 (b)</text>
</g>
<!-- 044 (b)&#45;&gt;022 (b) -->
<g id="edge11" class="edge"><title>044 (b)&#45;&gt;022 (b)</title>
<path fill="none" stroke="black" d="M997.397,-143.697C997.397,-135.983 997.397,-126.712 997.397,-118.112"/>
<polygon fill="black" stroke="black" points="1000.9,-118.104 997.397,-108.104 993.897,-118.104 1000.9,-118.104"/>
</g>
<!-- 0141 (b) -->
<g id="node20" class="node"><title>0141 (b)</title>
<ellipse fill="#cea8f4" stroke="#835da9" cx="1092.4" cy="-90" rx="40.8928" ry="18"/>
<text text-anchor="middle" x="1092.4" y="-86.3" font-family="Times,serif" font-size="14.00">0141 (b)</text>
</g>
<!-- 044 (b)&#45;&gt;0141 (b) -->
<g id="edge12" class="edge"><title>044 (b)&#45;&gt;0141 (b)</title>
<path fill="none" stroke="black" d="M1017.08,-146.496C1030.75,-136.427 1049.15,-122.864 1064.35,-111.666"/>
<polygon fill="black" stroke="black" points="1066.44,-114.476 1072.41,-105.726 1062.28,-108.841 1066.44,-114.476"/>
</g>
<!-- 02 (b) -->
<g id="node14" class="node"><title>02 (b)</title>
<ellipse fill="#cea8f4" stroke="#835da9" cx="1092.4" cy="-18" rx="32.4942" ry="18"/>
<text text-anchor="middle" x="1092.4" y="-14.3" font-family="Times,serif" font-size="14.00">02 (b)</text>
</g>
<!-- 028 (b) -->
<g id="node16" class="node"><title>028 (b)</title>
<ellipse fill="#cea8f4" stroke="#835da9" cx="906.397" cy="-90" rx="36.2938" ry="18"/>
<text text-anchor="middle" x="906.397" y="-86.3" font-family="Times,serif" font-size="14.00">028 (b)</text>
</g>
<!-- 063 (b)&#45;&gt;07 (b) -->
<g id="edge15" class="edge"><title>063 (b)&#45;&gt;07 (b)</title>
<path fill="none" stroke="black" d="M713.175,-155.39C635.285,-142.621 445.042,-111.434 361.209,-97.6906"/>
<polygon fill="black" stroke="black" points="361.725,-94.2285 351.291,-96.0646 360.593,-101.136 361.725,-94.2285"/>
</g>
<!-- 063 (b)&#45;&gt;045 (b) -->
<g id="edge16" class="edge"><title>063 (b)&#45;&gt;045 (b)</title>
<path fill="none" stroke="black" d="M725.416,-147.503C707.99,-136.803 683.432,-121.724 664.069,-109.834"/>
<polygon fill="black" stroke="black" points="665.663,-106.705 655.31,-104.455 662,-112.671 665.663,-106.705"/>
</g>
<!-- 063 (b)&#45;&gt;021 (b) -->
<g id="edge17" class="edge"><title>063 (b)&#45;&gt;021 (b)</title>
<path fill="none" stroke="black" d="M741.829,-144.055C739.24,-136.176 736.099,-126.617 733.201,-117.794"/>
<polygon fill="black" stroke="black" points="736.52,-116.683 730.073,-108.275 729.869,-118.868 736.52,-116.683"/>
</g>
<!-- 063 (b)&#45;&gt;011 (b) -->
<g id="edge13" class="edge"><title>063 (b)&#45;&gt;011 (b)</title>
<path fill="none" stroke="black" d="M762.488,-145.465C771.556,-136.13 783.255,-124.087 793.345,-113.7"/>
<polygon fill="black" stroke="black" points="795.89,-116.103 800.348,-106.492 790.869,-111.226 795.89,-116.103"/>
</g>
<!-- 063 (b)&#45;&gt;028 (b) -->
<g id="edge14" class="edge"><title>063 (b)&#45;&gt;028 (b)</title>
<path fill="none" stroke="black" d="M773.652,-149.441C800.12,-137.788 841.161,-119.72 870.601,-106.759"/>
<polygon fill="black" stroke="black" points="872.36,-109.809 880.102,-102.576 869.54,-103.402 872.36,-109.809"/>
</g>
<!-- 03 (a) -->
<g id="node18" class="node"><title>03 (a)</title>
<ellipse fill="#ff8a8a" stroke="#b43f3f" cx="883.397" cy="-234" rx="31.6951" ry="18"/>
<text text-anchor="middle" x="883.397" y="-230.3" font-family="Times,serif" font-size="14.00">03 (a)</text>
</g>
<!-- 03 (a)&#45;&gt;032 (b) -->
<g id="edge19" class="edge"><title>03 (a)&#45;&gt;032 (b)</title>
<path fill="none" stroke="black" d="M883.397,-215.697C883.397,-207.983 883.397,-198.712 883.397,-190.112"/>
<polygon fill="black" stroke="black" points="886.897,-190.104 883.397,-180.104 879.897,-190.104 886.897,-190.104"/>
</g>
<!-- 03 (a)&#45;&gt;044 (b) -->
<g id="edge18" class="edge"><title>03 (a)&#45;&gt;044 (b)</title>
<path fill="none" stroke="black" d="M904.306,-220.161C921.809,-209.413 947.025,-193.93 966.799,-181.788"/>
<polygon fill="black" stroke="black" points="968.764,-184.689 975.454,-176.473 965.101,-178.723 968.764,-184.689"/>
</g>
<!-- 0141 (b)&#45;&gt;02 (b) -->
<g id="edge20" class="edge"><title>0141 (b)&#45;&gt;02 (b)</title>
<path fill="none" stroke="black" d="M1092.4,-71.6966C1092.4,-63.9827 1092.4,-54.7125 1092.4,-46.1124"/>
<polygon fill="black" stroke="black" points="1095.9,-46.1043 1092.4,-36.1043 1088.9,-46.1044 1095.9,-46.1043"/>
</g>
<!-- 091 (a) -->
<g id="node21" class="node"><title>091 (a)</title>
<ellipse fill="#ff8a8a" stroke="#b43f3f" cx="969.397" cy="-234" rx="36.2938" ry="18"/>
<text text-anchor="middle" x="969.397" y="-230.3" font-family="Times,serif" font-size="14.00">091 (a)</text>
</g>
<!-- A (a) -->
<g id="node24" class="node"><title>A (a)</title>
<ellipse fill="#ff8a8a" stroke="#b43f3f" cx="840.397" cy="-306" rx="29.4969" ry="18"/>
<text text-anchor="middle" x="840.397" y="-302.3" font-family="Times,serif" font-size="14.00">A (a)</text>
</g>
<!-- A (a)&#45;&gt;P75 (a) -->
<g id="edge21" class="edge"><title>A (a)&#45;&gt;P75 (a)</title>
<path fill="none" stroke="black" d="M818.867,-293.753C797.481,-282.582 764.393,-265.296 739.633,-252.362"/>
<polygon fill="black" stroke="black" points="741.077,-249.168 730.593,-247.64 737.836,-255.372 741.077,-249.168"/>
</g>
<!-- A (a)&#45;&gt;019 (a) -->
<g id="edge22" class="edge"><title>A (a)&#45;&gt;019 (a)</title>
<path fill="none" stroke="black" d="M830.424,-288.765C825.234,-280.317 818.773,-269.799 812.946,-260.312"/>
<polygon fill="black" stroke="black" points="815.831,-258.322 807.614,-251.633 809.866,-261.986 815.831,-258.322"/>
</g>
<!-- A (a)&#45;&gt;03 (a) -->
<g id="edge23" class="edge"><title>A (a)&#45;&gt;03 (a)</title>
<path fill="none" stroke="black" d="M850.37,-288.765C855.634,-280.195 862.208,-269.494 868.101,-259.9"/>
<polygon fill="black" stroke="black" points="871.226,-261.5 873.478,-251.147 865.261,-257.836 871.226,-261.5"/>
</g>
<!-- A (a)&#45;&gt;091 (a) -->
<g id="edge24" class="edge"><title>A (a)&#45;&gt;091 (a)</title>
<path fill="none" stroke="black" d="M861.698,-293.441C882.167,-282.334 913.378,-265.398 936.941,-252.612"/>
<polygon fill="black" stroke="black" points="938.757,-255.609 945.877,-247.763 935.418,-249.456 938.757,-255.609"/>
</g>
</g>
</svg>
