<?xml version="1.0" encoding="UTF-8" standalone="no"?>
<!DOCTYPE svg PUBLIC "-//W3C//DTD SVG 1.1//EN"
 "http://www.w3.org/Graphics/SVG/1.1/DTD/svg11.dtd">
<!-- Generated by graphviz version 2.38.0 (20140413.2041)
 -->
<!-- Title: %3 Pages: 1 -->
<svg width="971pt" height="424pt"
 viewBox="0.00 0.00 971.00 424.00" xmlns="http://www.w3.org/2000/svg" xmlns:xlink="http://www.w3.org/1999/xlink">
<g id="graph0" class="graph" transform="scale(1 1) rotate(0) translate(4 420)">
<title>%3</title>
<polygon fill="white" stroke="none" points="-4,4 -4,-420 967,-420 967,4 -4,4"/>
<g id="clust1" class="cluster"><title>cluster_reading</title>
<polygon fill="none" stroke="black" points="8,-8 8,-408 733,-408 733,-8 8,-8"/>
</g>
<g id="clust2" class="cluster"><title>cluster_legend</title>
<path fill="none" stroke="black" d="M753,-280C753,-280 943,-280 943,-280 949,-280 955,-286 955,-292 955,-292 955,-396 955,-396 955,-402 949,-408 943,-408 943,-408 753,-408 753,-408 747,-408 741,-402 741,-396 741,-396 741,-292 741,-292 741,-286 747,-280 753,-280"/>
</g>
<!-- A -->
<g id="node1" class="node"><title>A</title>
<ellipse fill="#ff8a8a" stroke="#b43f3f" cx="445" cy="-382" rx="29.4969" ry="18"/>
<text text-anchor="middle" x="445" y="-378.3" font-family="Times,serif" font-size="14.00">A (a)</text>
</g>
<!-- 01 -->
<g id="node2" class="node"><title>01</title>
<ellipse fill="#ff8a8a" stroke="#b43f3f" cx="268" cy="-295" rx="31.6951" ry="18"/>
<text text-anchor="middle" x="268" y="-291.3" font-family="Times,serif" font-size="14.00">01 (a)</text>
</g>
<!-- A&#45;&gt;01 -->
<g id="edge1" class="edge"><title>A&#45;&gt;01</title>
<path fill="none" stroke="#b43f3f" stroke-dasharray="5,2" d="M418.067,-374.944C395.407,-369.249 362.548,-359.565 336,-346 320.627,-338.145 305.002,-326.931 292.612,-317.112"/>
<polygon fill="#b43f3f" stroke="#b43f3f" points="294.563,-314.187 284.595,-310.596 290.148,-319.619 294.563,-314.187"/>
<text text-anchor="middle" x="358" y="-334.8" font-family="Times,serif" font-size="14.00">1 (57.1)</text>
</g>
<!-- P75 -->
<g id="node3" class="node"><title>P75</title>
<ellipse fill="#ff8a8a" stroke="#b43f3f" cx="354" cy="-295" rx="36.2938" ry="18"/>
<text text-anchor="middle" x="354" y="-291.3" font-family="Times,serif" font-size="14.00">P75 (a)</text>
</g>
<!-- A&#45;&gt;P75 -->
<g id="edge2" class="edge"><title>A&#45;&gt;P75</title>
<path fill="none" stroke="#b43f3f" stroke-dasharray="1,5" d="M425.523,-368.326C416.472,-362.06 405.792,-354.113 397,-346 388.456,-338.115 379.924,-328.619 372.74,-320.029"/>
<polygon fill="#b43f3f" stroke="#b43f3f" points="375.344,-317.685 366.308,-312.155 369.923,-322.113 375.344,-317.685"/>
<text text-anchor="middle" x="419" y="-334.8" font-family="Times,serif" font-size="14.00">1 (93.3)</text>
</g>
<!-- 019 -->
<g id="node4" class="node"><title>019</title>
<ellipse fill="#ff8a8a" stroke="#b43f3f" cx="445" cy="-295" rx="36.2938" ry="18"/>
<text text-anchor="middle" x="445" y="-291.3" font-family="Times,serif" font-size="14.00">019 (a)</text>
</g>
<!-- A&#45;&gt;019 -->
<g id="edge3" class="edge"><title>A&#45;&gt;019</title>
<path fill="none" stroke="#b43f3f" stroke-dasharray="1,5" d="M445,-363.799C445,-352.163 445,-336.548 445,-323.237"/>
<polygon fill="#b43f3f" stroke="#b43f3f" points="448.5,-323.175 445,-313.175 441.5,-323.175 448.5,-323.175"/>
<text text-anchor="middle" x="467" y="-334.8" font-family="Times,serif" font-size="14.00">1 (93.3)</text>
</g>
<!-- 03 -->
<g id="node5" class="node"><title>03</title>
<ellipse fill="#ff8a8a" stroke="#b43f3f" cx="531" cy="-295" rx="31.6951" ry="18"/>
<text text-anchor="middle" x="531" y="-291.3" font-family="Times,serif" font-size="14.00">03 (a)</text>
</g>
<!-- A&#45;&gt;03 -->
<g id="edge4" class="edge"><title>A&#45;&gt;03</title>
<path fill="none" stroke="#b43f3f" stroke-dasharray="1,5" d="M464.7,-368.561C473.801,-362.347 484.457,-354.375 493,-346 500.825,-338.329 508.362,-328.975 514.632,-320.442"/>
<polygon fill="#b43f3f" stroke="#b43f3f" points="517.497,-322.452 520.443,-312.275 511.794,-318.394 517.497,-322.452"/>
<text text-anchor="middle" x="528" y="-334.8" font-family="Times,serif" font-size="14.00">1 (93.3)</text>
</g>
<!-- 05 -->
<g id="node6" class="node"><title>05</title>
<ellipse fill="#ff8a8a" stroke="#b43f3f" cx="613" cy="-295" rx="31.6951" ry="18"/>
<text text-anchor="middle" x="613" y="-291.3" font-family="Times,serif" font-size="14.00">05 (a)</text>
</g>
<!-- A&#45;&gt;05 -->
<g id="edge5" class="edge"><title>A&#45;&gt;05</title>
<path fill="none" stroke="#b43f3f" stroke-dasharray="1,5" d="M472.639,-375.302C495.432,-369.874 528.109,-360.376 554,-346 567.283,-338.625 580.351,-328.001 590.798,-318.441"/>
<polygon fill="#b43f3f" stroke="#b43f3f" points="593.374,-320.822 598.237,-311.409 588.565,-315.735 593.374,-320.822"/>
<text text-anchor="middle" x="598" y="-334.8" font-family="Times,serif" font-size="14.00">2 (76.9)</text>
</g>
<!-- 063 -->
<g id="node13" class="node"><title>063</title>
<ellipse fill="#ff8a8a" stroke="#b43f3f" cx="317" cy="-208" rx="36.2938" ry="18"/>
<text text-anchor="middle" x="317" y="-204.3" font-family="Times,serif" font-size="14.00">063 (a)</text>
</g>
<!-- 019&#45;&gt;063 -->
<g id="edge10" class="edge"><title>019&#45;&gt;063</title>
<path fill="none" stroke="#b43f3f" stroke-dasharray="1,5" d="M424.15,-280.154C403.044,-266.138 370.218,-244.34 346.46,-228.563"/>
<polygon fill="#b43f3f" stroke="#b43f3f" points="348.108,-225.456 337.841,-222.84 344.236,-231.288 348.108,-225.456"/>
<text text-anchor="middle" x="411" y="-247.8" font-family="Times,serif" font-size="14.00">1 (85.7)</text>
</g>
<!-- 044 -->
<g id="node7" class="node"><title>044</title>
<ellipse fill="#ff8a8a" stroke="#b43f3f" cx="517" cy="-208" rx="36.2938" ry="18"/>
<text text-anchor="middle" x="517" y="-204.3" font-family="Times,serif" font-size="14.00">044 (a)</text>
</g>
<!-- 03&#45;&gt;044 -->
<g id="edge11" class="edge"><title>03&#45;&gt;044</title>
<path fill="none" stroke="#b43f3f" stroke-dasharray="1,5" d="M528.167,-276.799C526.25,-265.163 523.678,-249.548 521.486,-236.237"/>
<polygon fill="#b43f3f" stroke="#b43f3f" points="524.908,-235.474 519.829,-226.175 518.001,-236.611 524.908,-235.474"/>
<text text-anchor="middle" x="547" y="-247.8" font-family="Times,serif" font-size="14.00">1 (89.2)</text>
</g>
<!-- 02 -->
<g id="node14" class="node"><title>02</title>
<ellipse fill="#ff8a8a" stroke="#b43f3f" cx="603" cy="-208" rx="31.6951" ry="18"/>
<text text-anchor="middle" x="603" y="-204.3" font-family="Times,serif" font-size="14.00">02 (a)</text>
</g>
<!-- 03&#45;&gt;02 -->
<g id="edge12" class="edge"><title>03&#45;&gt;02</title>
<path fill="none" stroke="#b43f3f" stroke-dasharray="1,5" d="M550.196,-280.238C557.815,-274.231 566.332,-266.786 573,-259 579.316,-251.626 585.11,-242.76 589.886,-234.554"/>
<polygon fill="#b43f3f" stroke="#b43f3f" points="593.017,-236.125 594.821,-225.685 586.901,-232.722 593.017,-236.125"/>
<text text-anchor="middle" x="606" y="-247.8" font-family="Times,serif" font-size="14.00">1 (86.5)</text>
</g>
<!-- 032 -->
<g id="node15" class="node"><title>032</title>
<ellipse fill="#ff8a8a" stroke="#b43f3f" cx="689" cy="-208" rx="36.2938" ry="18"/>
<text text-anchor="middle" x="689" y="-204.3" font-family="Times,serif" font-size="14.00">032 (a)</text>
</g>
<!-- 03&#45;&gt;032 -->
<g id="edge13" class="edge"><title>03&#45;&gt;032</title>
<path fill="none" stroke="#b43f3f" stroke-dasharray="1,5" d="M555.558,-283.342C560.937,-281.142 566.629,-278.914 572,-277 598.226,-267.656 607.645,-272.488 632,-259 644.721,-251.955 657.077,-241.68 667.015,-232.274"/>
<polygon fill="#b43f3f" stroke="#b43f3f" points="669.744,-234.499 674.427,-224.995 664.839,-229.505 669.744,-234.499"/>
<text text-anchor="middle" x="675" y="-247.8" font-family="Times,serif" font-size="14.00">1 (91.7)</text>
</g>
<!-- 022 -->
<g id="node8" class="node"><title>022</title>
<ellipse fill="#ff8a8a" stroke="#b43f3f" cx="590" cy="-121" rx="36.2938" ry="18"/>
<text text-anchor="middle" x="590" y="-117.3" font-family="Times,serif" font-size="14.00">022 (a)</text>
</g>
<!-- 044&#45;&gt;022 -->
<g id="edge6" class="edge"><title>044&#45;&gt;022</title>
<path fill="none" stroke="#b43f3f" stroke-dasharray="1,5" d="M530.731,-191.012C541.743,-178.19 557.358,-160.007 569.797,-145.524"/>
<polygon fill="#b43f3f" stroke="#b43f3f" points="572.471,-147.783 576.331,-137.916 567.16,-143.222 572.471,-147.783"/>
<text text-anchor="middle" x="580" y="-160.8" font-family="Times,serif" font-size="14.00">1 (91.7)</text>
</g>
<!-- 0141 -->
<g id="node9" class="node"><title>0141</title>
<ellipse fill="#ff8a8a" stroke="#b43f3f" cx="685" cy="-121" rx="40.0939" ry="18"/>
<text text-anchor="middle" x="685" y="-117.3" font-family="Times,serif" font-size="14.00">0141 (a)</text>
</g>
<!-- 044&#45;&gt;0141 -->
<g id="edge7" class="edge"><title>044&#45;&gt;0141</title>
<path fill="none" stroke="#b43f3f" stroke-dasharray="1,5" d="M544.949,-196.314C568.846,-187.127 600.262,-174.911 606,-172 623.022,-163.365 641.075,-152.112 655.62,-142.47"/>
<polygon fill="#b43f3f" stroke="#b43f3f" points="657.838,-145.196 664.183,-136.711 653.932,-139.387 657.838,-145.196"/>
<text text-anchor="middle" x="653" y="-160.8" font-family="Times,serif" font-size="14.00">1 (89.2)</text>
</g>
<!-- 031 -->
<g id="node10" class="node"><title>031</title>
<ellipse fill="#ff8a8a" stroke="#b43f3f" cx="54" cy="-121" rx="36.2938" ry="18"/>
<text text-anchor="middle" x="54" y="-117.3" font-family="Times,serif" font-size="14.00">031 (a)</text>
</g>
<!-- 013 -->
<g id="node11" class="node"><title>013</title>
<ellipse fill="#ff8a8a" stroke="#b43f3f" cx="52" cy="-34" rx="36.2938" ry="18"/>
<text text-anchor="middle" x="52" y="-30.3" font-family="Times,serif" font-size="14.00">013 (a)</text>
</g>
<!-- 031&#45;&gt;013 -->
<g id="edge8" class="edge"><title>031&#45;&gt;013</title>
<path fill="none" stroke="#b43f3f" stroke-dasharray="1,5" d="M53.5953,-102.799C53.3215,-91.1626 52.9541,-75.5479 52.6409,-62.2368"/>
<polygon fill="#b43f3f" stroke="#b43f3f" points="56.1385,-62.0903 52.4041,-52.1754 49.1404,-62.255 56.1385,-62.0903"/>
<text text-anchor="middle" x="76" y="-73.8" font-family="Times,serif" font-size="14.00">1 (97.1)</text>
</g>
<!-- 017 -->
<g id="node12" class="node"><title>017</title>
<ellipse fill="#ff8a8a" stroke="#b43f3f" cx="143" cy="-34" rx="36.2938" ry="18"/>
<text text-anchor="middle" x="143" y="-30.3" font-family="Times,serif" font-size="14.00">017 (a)</text>
</g>
<!-- 031&#45;&gt;017 -->
<g id="edge9" class="edge"><title>031&#45;&gt;017</title>
<path fill="none" stroke="#b43f3f" stroke-dasharray="1,5" d="M75.461,-106.102C84.0954,-100.074 93.9035,-92.6494 102,-85 110.201,-77.2521 118.281,-67.8817 125.073,-59.3567"/>
<polygon fill="#b43f3f" stroke="#b43f3f" points="128.031,-61.2531 131.39,-51.205 122.498,-56.965 128.031,-61.2531"/>
<text text-anchor="middle" x="138" y="-73.8" font-family="Times,serif" font-size="14.00">1 (94.3)</text>
</g>
<!-- 063&#45;&gt;031 -->
<g id="edge14" class="edge"><title>063&#45;&gt;031</title>
<path fill="none" stroke="#b43f3f" stroke-dasharray="1,5" d="M281.58,-203.595C244.947,-199.261 186.55,-190.058 139,-172 118.878,-164.359 98.0202,-152.164 82.0019,-141.731"/>
<polygon fill="#b43f3f" stroke="#b43f3f" points="83.8987,-138.789 73.6362,-136.156 80.017,-144.614 83.8987,-138.789"/>
<text text-anchor="middle" x="161" y="-160.8" font-family="Times,serif" font-size="14.00">1 (95.8)</text>
</g>
<!-- 011 -->
<g id="node16" class="node"><title>011</title>
<ellipse fill="#ff8a8a" stroke="#b43f3f" cx="145" cy="-121" rx="36.2938" ry="18"/>
<text text-anchor="middle" x="145" y="-117.3" font-family="Times,serif" font-size="14.00">011 (a)</text>
</g>
<!-- 063&#45;&gt;011 -->
<g id="edge15" class="edge"><title>063&#45;&gt;011</title>
<path fill="none" stroke="#b43f3f" stroke-dasharray="1,5" d="M284.626,-199.68C262.528,-193.934 233.021,-184.76 209,-172 194.771,-164.442 180.494,-153.669 169.046,-144.058"/>
<polygon fill="#b43f3f" stroke="#b43f3f" points="171.108,-141.214 161.252,-137.327 166.533,-146.512 171.108,-141.214"/>
<text text-anchor="middle" x="231" y="-160.8" font-family="Times,serif" font-size="14.00">1 (93.1)</text>
</g>
<!-- 07 -->
<g id="node17" class="node"><title>07</title>
<ellipse fill="#ff8a8a" stroke="#b43f3f" cx="231" cy="-121" rx="31.6951" ry="18"/>
<text text-anchor="middle" x="231" y="-117.3" font-family="Times,serif" font-size="14.00">07 (a)</text>
</g>
<!-- 063&#45;&gt;07 -->
<g id="edge16" class="edge"><title>063&#45;&gt;07</title>
<path fill="none" stroke="#b43f3f" stroke-dasharray="1,5" d="M295.396,-193.25C286.74,-187.245 276.954,-179.798 269,-172 261.175,-164.329 253.638,-154.975 247.368,-146.442"/>
<polygon fill="#b43f3f" stroke="#b43f3f" points="250.206,-144.394 241.557,-138.275 244.503,-148.452 250.206,-144.394"/>
<text text-anchor="middle" x="291" y="-160.8" font-family="Times,serif" font-size="14.00">1 (96.6)</text>
</g>
<!-- 045 -->
<g id="node18" class="node"><title>045</title>
<ellipse fill="#ff8a8a" stroke="#b43f3f" cx="317" cy="-121" rx="36.2938" ry="18"/>
<text text-anchor="middle" x="317" y="-117.3" font-family="Times,serif" font-size="14.00">045 (a)</text>
</g>
<!-- 063&#45;&gt;045 -->
<g id="edge17" class="edge"><title>063&#45;&gt;045</title>
<path fill="none" stroke="#b43f3f" stroke-dasharray="1,5" d="M317,-189.799C317,-178.163 317,-162.548 317,-149.237"/>
<polygon fill="#b43f3f" stroke="#b43f3f" points="320.5,-149.175 317,-139.175 313.5,-149.175 320.5,-149.175"/>
<text text-anchor="middle" x="339" y="-160.8" font-family="Times,serif" font-size="14.00">1 (93.1)</text>
</g>
<!-- 021 -->
<g id="node19" class="node"><title>021</title>
<ellipse fill="#ff8a8a" stroke="#b43f3f" cx="408" cy="-121" rx="36.2938" ry="18"/>
<text text-anchor="middle" x="408" y="-117.3" font-family="Times,serif" font-size="14.00">021 (a)</text>
</g>
<!-- 063&#45;&gt;021 -->
<g id="edge18" class="edge"><title>063&#45;&gt;021</title>
<path fill="none" stroke="#b43f3f" stroke-dasharray="1,5" d="M338.372,-193.006C346.992,-186.963 356.814,-179.554 365,-172 373.544,-164.115 382.076,-154.619 389.26,-146.029"/>
<polygon fill="#b43f3f" stroke="#b43f3f" points="392.077,-148.113 395.692,-138.155 386.656,-143.685 392.077,-148.113"/>
<text text-anchor="middle" x="401" y="-160.8" font-family="Times,serif" font-size="14.00">1 (93.1)</text>
</g>
<!-- 028 -->
<g id="node20" class="node"><title>028</title>
<ellipse fill="#ff8a8a" stroke="#b43f3f" cx="499" cy="-121" rx="36.2938" ry="18"/>
<text text-anchor="middle" x="499" y="-117.3" font-family="Times,serif" font-size="14.00">028 (a)</text>
</g>
<!-- 063&#45;&gt;028 -->
<g id="edge19" class="edge"><title>063&#45;&gt;028</title>
<path fill="none" stroke="#b43f3f" stroke-dasharray="1,5" d="M349.267,-199.461C371.727,-193.566 402.009,-184.305 427,-172 443.128,-164.059 459.702,-152.801 472.877,-142.977"/>
<polygon fill="#b43f3f" stroke="#b43f3f" points="475.176,-145.626 481.004,-136.778 470.931,-140.06 475.176,-145.626"/>
<text text-anchor="middle" x="474" y="-160.8" font-family="Times,serif" font-size="14.00">1 (96.6)</text>
</g>
<!-- 037 -->
<g id="node21" class="node"><title>037</title>
<ellipse fill="#ff8a8a" stroke="#b43f3f" cx="234" cy="-34" rx="36.2938" ry="18"/>
<text text-anchor="middle" x="234" y="-30.3" font-family="Times,serif" font-size="14.00">037 (a)</text>
</g>
<!-- 07&#45;&gt;037 -->
<g id="edge20" class="edge"><title>07&#45;&gt;037</title>
<path fill="none" stroke="#b43f3f" stroke-dasharray="1,5" d="M231.607,-102.799C232.018,-91.1626 232.569,-75.5479 233.039,-62.2368"/>
<polygon fill="#b43f3f" stroke="#b43f3f" points="236.539,-62.2927 233.394,-52.1754 229.543,-62.0457 236.539,-62.2927"/>
<text text-anchor="middle" x="255" y="-73.8" font-family="Times,serif" font-size="14.00">1 (97.5)</text>
</g>
<!-- 034 -->
<g id="node22" class="node"><title>034</title>
<ellipse fill="#ff8a8a" stroke="#b43f3f" cx="325" cy="-34" rx="36.2938" ry="18"/>
<text text-anchor="middle" x="325" y="-30.3" font-family="Times,serif" font-size="14.00">034 (a)</text>
</g>
<!-- 07&#45;&gt;034 -->
<g id="edge21" class="edge"><title>07&#45;&gt;034</title>
<path fill="none" stroke="#b43f3f" stroke-dasharray="1,5" d="M251.776,-107.075C261.098,-100.876 271.998,-93.0548 281,-85 289.75,-77.1702 298.482,-67.6848 305.833,-59.0893"/>
<polygon fill="#b43f3f" stroke="#b43f3f" points="308.693,-61.1242 312.413,-51.2039 303.319,-56.6393 308.693,-61.1242"/>
<text text-anchor="middle" x="318" y="-73.8" font-family="Times,serif" font-size="14.00">1 (95.1)</text>
</g>
<!-- 030 -->
<g id="node23" class="node"><title>030</title>
<ellipse fill="#ff8a8a" stroke="#b43f3f" cx="416" cy="-34" rx="36.2938" ry="18"/>
<text text-anchor="middle" x="416" y="-30.3" font-family="Times,serif" font-size="14.00">030 (a)</text>
</g>
<!-- 07&#45;&gt;030 -->
<g id="edge22" class="edge"><title>07&#45;&gt;030</title>
<path fill="none" stroke="#b43f3f" stroke-dasharray="1,5" d="M255.493,-109.152C260.875,-106.963 266.586,-104.788 272,-103 303.321,-92.6548 313.963,-98.6299 344,-85 360.484,-77.5201 377.193,-66.1969 390.36,-56.2166"/>
<polygon fill="#b43f3f" stroke="#b43f3f" points="392.724,-58.8118 398.463,-49.906 388.423,-53.2891 392.724,-58.8118"/>
<text text-anchor="middle" x="392" y="-73.8" font-family="Times,serif" font-size="14.00">1 (95.1)</text>
</g>
<!-- 038 -->
<g id="node24" class="node"><title>038</title>
<ellipse fill="#ff8a8a" stroke="#b43f3f" cx="507" cy="-34" rx="36.2938" ry="18"/>
<text text-anchor="middle" x="507" y="-30.3" font-family="Times,serif" font-size="14.00">038 (a)</text>
</g>
<!-- 045&#45;&gt;038 -->
<g id="edge23" class="edge"><title>045&#45;&gt;038</title>
<path fill="none" stroke="#b43f3f" stroke-dasharray="1,5" d="M345.159,-109.403C351.04,-107.243 357.211,-105.016 363,-103 387.289,-94.5405 394.453,-95.3483 418,-85 438.124,-76.1558 459.64,-64.1448 476.475,-54.1115"/>
<polygon fill="#b43f3f" stroke="#b43f3f" points="478.559,-56.9414 485.307,-48.7737 474.938,-50.9505 478.559,-56.9414"/>
<text text-anchor="middle" x="471" y="-73.8" font-family="Times,serif" font-size="14.00">1 (92.7)</text>
</g>
<!-- 036 -->
<g id="node25" class="node"><title>036</title>
<ellipse fill="#ff8a8a" stroke="#b43f3f" cx="598" cy="-34" rx="36.2938" ry="18"/>
<text text-anchor="middle" x="598" y="-30.3" font-family="Times,serif" font-size="14.00">036 (a)</text>
</g>
<!-- 021&#45;&gt;036 -->
<g id="edge24" class="edge"><title>021&#45;&gt;036</title>
<path fill="none" stroke="#b43f3f" stroke-dasharray="1,5" d="M436.312,-109.57C453.927,-102.908 476.963,-93.8801 497,-85 519.905,-74.8488 545.165,-62.3433 564.694,-52.3784"/>
<polygon fill="#b43f3f" stroke="#b43f3f" points="566.487,-55.3924 573.785,-47.7121 563.29,-49.1648 566.487,-55.3924"/>
<text text-anchor="middle" x="550" y="-73.8" font-family="Times,serif" font-size="14.00">1 (97.6)</text>
</g>
<!-- 047 -->
<g id="node26" class="node"><title>047</title>
<ellipse fill="#ff8a8a" stroke="#b43f3f" cx="689" cy="-34" rx="36.2938" ry="18"/>
<text text-anchor="middle" x="689" y="-30.3" font-family="Times,serif" font-size="14.00">047 (a)</text>
</g>
<!-- 021&#45;&gt;047 -->
<g id="edge25" class="edge"><title>021&#45;&gt;047</title>
<path fill="none" stroke="#b43f3f" stroke-dasharray="1,5" d="M435.436,-108.806C441.477,-106.639 447.896,-104.56 454,-103 507.102,-89.4272 523.349,-100.228 576,-85 603.95,-76.9165 634.001,-63.3644 656.082,-52.4069"/>
<polygon fill="#b43f3f" stroke="#b43f3f" points="657.677,-55.5227 665.028,-47.8932 654.523,-49.2731 657.677,-55.5227"/>
<text text-anchor="middle" x="640" y="-73.8" font-family="Times,serif" font-size="14.00">1 (95.1)</text>
</g>
<!-- leg_s -->
<g id="node27" class="node"><title>leg_s</title>
<text text-anchor="middle" x="848" y="-378.3" font-family="Times,serif" font-size="14.00">Textual flow strength</text>
</g>
<!-- leg_e1 -->
<!-- leg_s&#45;&gt;leg_e1 -->
<g id="edge26" class="edge"><title>leg_s&#45;&gt;leg_e1</title>
<path fill="none" stroke="black" stroke-dasharray="1,5" d="M829.666,-363.686C824.132,-358.194 818.161,-351.989 813,-346 803.171,-334.593 793.072,-320.779 785.914,-310.563"/>
<polygon fill="black" stroke="black" points="788.614,-308.314 780.056,-302.068 782.851,-312.288 788.614,-308.314"/>
<text text-anchor="middle" x="828.5" y="-334.8" font-family="Times,serif" font-size="14.00">&lt;=5 &#160;</text>
</g>
<!-- leg_e2 -->
<!-- leg_s&#45;&gt;leg_e2 -->
<g id="edge27" class="edge"><title>leg_s&#45;&gt;leg_e2</title>
<path fill="none" stroke="black" stroke-dasharray="5,2" d="M848,-363.799C848,-348.794 848,-327.174 848,-312.409"/>
<polygon fill="black" stroke="black" points="851.5,-312.293 848,-302.293 844.5,-312.293 851.5,-312.293"/>
<text text-anchor="middle" x="867" y="-334.8" font-family="Times,serif" font-size="14.00"> &#160;&lt;=25</text>
</g>
<!-- leg_e3 -->
<!-- leg_s&#45;&gt;leg_e3 -->
<g id="edge28" class="edge"><title>leg_s&#45;&gt;leg_e3</title>
<path fill="none" stroke="black" d="M871.503,-363.76C877.906,-358.462 884.567,-352.344 890,-346 899.087,-335.39 907.095,-321.689 912.546,-311.313"/>
<polygon fill="black" stroke="black" points="915.722,-312.789 917.091,-302.283 909.469,-309.642 915.722,-312.789"/>
<text text-anchor="middle" x="911" y="-334.8" font-family="Times,serif" font-size="14.00">&gt;25</text>
</g>
</g>
</svg>
