<?xml version="1.0" encoding="UTF-8" standalone="no"?>
<!DOCTYPE svg PUBLIC "-//W3C//DTD SVG 1.1//EN"
 "http://www.w3.org/Graphics/SVG/1.1/DTD/svg11.dtd">
<!-- Generated by graphviz version 2.38.0 (20140413.2041)
 -->
<!-- Title: %3 Pages: 1 -->
<svg width="1388pt" height="321pt"
 viewBox="0.00 0.00 1388.50 321.00" xmlns="http://www.w3.org/2000/svg" xmlns:xlink="http://www.w3.org/1999/xlink">
<g id="graph0" class="graph" transform="scale(1 1) rotate(0) translate(4 317)">
<title>%3</title>
<polygon fill="white" stroke="none" points="-4,4 -4,-317 1384.5,-317 1384.5,4 -4,4"/>
<g id="clust1" class="cluster"><title>cluster_legend</title>
<path fill="none" stroke="black" d="M20,-177C20,-177 210,-177 210,-177 216,-177 222,-183 222,-189 222,-189 222,-293 222,-293 222,-299 216,-305 210,-305 210,-305 20,-305 20,-305 14,-305 8,-299 8,-293 8,-293 8,-189 8,-189 8,-183 14,-177 20,-177"/>
</g>
<!-- leg_s -->
<g id="node1" class="node"><title>leg_s</title>
<text text-anchor="middle" x="115" y="-275.3" font-family="Times,serif" font-size="14.00">Textual flow strength</text>
</g>
<!-- leg_e1 -->
<!-- leg_s&#45;&gt;leg_e1 -->
<g id="edge1" class="edge"><title>leg_s&#45;&gt;leg_e1</title>
<path fill="none" stroke="black" stroke-dasharray="1,5" d="M96.6657,-260.686C91.1324,-255.194 85.1607,-248.989 80,-243 70.1708,-231.593 60.0722,-217.779 52.9137,-207.563"/>
<polygon fill="black" stroke="black" points="55.6142,-205.314 47.056,-199.068 49.8514,-209.288 55.6142,-205.314"/>
<text text-anchor="middle" x="95.5" y="-231.8" font-family="Times,serif" font-size="14.00">&lt;=5 &#160;</text>
</g>
<!-- leg_e2 -->
<!-- leg_s&#45;&gt;leg_e2 -->
<g id="edge2" class="edge"><title>leg_s&#45;&gt;leg_e2</title>
<path fill="none" stroke="black" stroke-dasharray="5,2" d="M115,-260.799C115,-245.794 115,-224.174 115,-209.409"/>
<polygon fill="black" stroke="black" points="118.5,-209.293 115,-199.293 111.5,-209.293 118.5,-209.293"/>
<text text-anchor="middle" x="134" y="-231.8" font-family="Times,serif" font-size="14.00"> &#160;&lt;=25</text>
</g>
<!-- leg_e3 -->
<!-- leg_s&#45;&gt;leg_e3 -->
<g id="edge3" class="edge"><title>leg_s&#45;&gt;leg_e3</title>
<path fill="none" stroke="black" d="M138.503,-260.76C144.906,-255.462 151.567,-249.344 157,-243 166.087,-232.39 174.095,-218.689 179.546,-208.313"/>
<polygon fill="black" stroke="black" points="182.722,-209.789 184.091,-199.283 176.469,-206.642 182.722,-209.789"/>
<text text-anchor="middle" x="179" y="-231.8" font-family="Times,serif" font-size="14.00">&gt;25</text>
</g>
<!-- 063 -->
<g id="node5" class="node"><title>063</title>
<ellipse fill="#ff8a8a" stroke="#b43f3f" cx="535" cy="-279" rx="36.2938" ry="18"/>
<text text-anchor="middle" x="535" y="-275.3" font-family="Times,serif" font-size="14.00">063 (a)</text>
</g>
<!-- 045 -->
<g id="node6" class="node"><title>045</title>
<ellipse fill="#ff8a8a" stroke="#b43f3f" cx="268" cy="-192" rx="36.2938" ry="18"/>
<text text-anchor="middle" x="268" y="-188.3" font-family="Times,serif" font-size="14.00">045 (a)</text>
</g>
<!-- 063&#45;&gt;045 -->
<g id="edge4" class="edge"><title>063&#45;&gt;045</title>
<path fill="none" stroke="#b43f3f" stroke-dasharray="1,5" d="M505.149,-268.497C456.725,-253.081 361.056,-222.625 307.206,-205.481"/>
<polygon fill="#b43f3f" stroke="#b43f3f" points="308.25,-202.141 297.659,-202.442 306.126,-208.811 308.25,-202.141"/>
<text text-anchor="middle" x="440" y="-231.8" font-family="Times,serif" font-size="14.00">1 (93.1)</text>
</g>
<!-- 07 -->
<g id="node7" class="node"><title>07</title>
<ellipse fill="#ff8a8a" stroke="#b43f3f" cx="447" cy="-192" rx="31.6951" ry="18"/>
<text text-anchor="middle" x="447" y="-188.3" font-family="Times,serif" font-size="14.00">07 (a)</text>
</g>
<!-- 063&#45;&gt;07 -->
<g id="edge5" class="edge"><title>063&#45;&gt;07</title>
<path fill="none" stroke="#b43f3f" stroke-dasharray="1,5" d="M513.493,-264.151C504.851,-258.13 495.05,-250.698 487,-243 478.926,-235.279 471.026,-225.914 464.409,-217.386"/>
<polygon fill="#b43f3f" stroke="#b43f3f" points="467.074,-215.107 458.26,-209.229 461.484,-219.321 467.074,-215.107"/>
<text text-anchor="middle" x="509" y="-231.8" font-family="Times,serif" font-size="14.00">1 (96.6)</text>
</g>
<!-- 028 -->
<g id="node8" class="node"><title>028</title>
<ellipse fill="#ff8a8a" stroke="#b43f3f" cx="535" cy="-192" rx="36.2938" ry="18"/>
<text text-anchor="middle" x="535" y="-188.3" font-family="Times,serif" font-size="14.00">028 (a)</text>
</g>
<!-- 063&#45;&gt;028 -->
<g id="edge6" class="edge"><title>063&#45;&gt;028</title>
<path fill="none" stroke="#b43f3f" stroke-dasharray="1,5" d="M535,-260.799C535,-249.163 535,-233.548 535,-220.237"/>
<polygon fill="#b43f3f" stroke="#b43f3f" points="538.5,-220.175 535,-210.175 531.5,-220.175 538.5,-220.175"/>
<text text-anchor="middle" x="557" y="-231.8" font-family="Times,serif" font-size="14.00">1 (96.6)</text>
</g>
<!-- 021 -->
<g id="node9" class="node"><title>021</title>
<ellipse fill="#ff8a8a" stroke="#b43f3f" cx="627" cy="-192" rx="36.2938" ry="18"/>
<text text-anchor="middle" x="627" y="-188.3" font-family="Times,serif" font-size="14.00">021 (a)</text>
</g>
<!-- 063&#45;&gt;021 -->
<g id="edge7" class="edge"><title>063&#45;&gt;021</title>
<path fill="none" stroke="#b43f3f" stroke-dasharray="1,5" d="M556.329,-263.959C564.943,-257.909 574.771,-250.507 583,-243 591.674,-235.086 600.39,-225.583 607.75,-216.997"/>
<polygon fill="#b43f3f" stroke="#b43f3f" points="610.604,-219.041 614.345,-209.128 605.239,-214.544 610.604,-219.041"/>
<text text-anchor="middle" x="620" y="-231.8" font-family="Times,serif" font-size="14.00">1 (93.1)</text>
</g>
<!-- 011 -->
<g id="node10" class="node"><title>011</title>
<ellipse fill="#ff8a8a" stroke="#b43f3f" cx="718" cy="-192" rx="36.2938" ry="18"/>
<text text-anchor="middle" x="718" y="-188.3" font-family="Times,serif" font-size="14.00">011 (a)</text>
</g>
<!-- 063&#45;&gt;011 -->
<g id="edge8" class="edge"><title>063&#45;&gt;011</title>
<path fill="none" stroke="#b43f3f" stroke-dasharray="1,5" d="M567.563,-270.504C590.228,-264.629 620.786,-255.374 646,-243 662.138,-235.08 678.713,-223.824 691.886,-213.996"/>
<polygon fill="#b43f3f" stroke="#b43f3f" points="694.186,-216.643 700.012,-207.793 689.939,-211.078 694.186,-216.643"/>
<text text-anchor="middle" x="693" y="-231.8" font-family="Times,serif" font-size="14.00">1 (93.1)</text>
</g>
<!-- 038 -->
<g id="node11" class="node"><title>038</title>
<ellipse fill="#ff8a8a" stroke="#b43f3f" cx="174" cy="-105" rx="36.2938" ry="18"/>
<text text-anchor="middle" x="174" y="-101.3" font-family="Times,serif" font-size="14.00">038 (a)</text>
</g>
<!-- 045&#45;&gt;038 -->
<g id="edge9" class="edge"><title>045&#45;&gt;038</title>
<path fill="none" stroke="#b43f3f" stroke-dasharray="1,5" d="M241.338,-179.572C224.792,-172.09 205.487,-162.525 199,-156 192.41,-149.371 187.24,-140.653 183.354,-132.356"/>
<polygon fill="#b43f3f" stroke="#b43f3f" points="186.497,-130.803 179.374,-122.96 180.051,-133.533 186.497,-130.803"/>
<text text-anchor="middle" x="221" y="-144.8" font-family="Times,serif" font-size="14.00">1 (92.7)</text>
</g>
<!-- 034 -->
<g id="node12" class="node"><title>034</title>
<ellipse fill="#ff8a8a" stroke="#b43f3f" cx="265" cy="-105" rx="36.2938" ry="18"/>
<text text-anchor="middle" x="265" y="-101.3" font-family="Times,serif" font-size="14.00">034 (a)</text>
</g>
<!-- 07&#45;&gt;034 -->
<g id="edge10" class="edge"><title>07&#45;&gt;034</title>
<path fill="none" stroke="#b43f3f" stroke-dasharray="1,5" d="M417.89,-184.118C395.411,-178.225 363.879,-168.681 338,-156 321.705,-148.016 304.906,-136.754 291.536,-126.939"/>
<polygon fill="#b43f3f" stroke="#b43f3f" points="293.385,-123.951 283.286,-120.748 289.183,-129.55 293.385,-123.951"/>
<text text-anchor="middle" x="360" y="-144.8" font-family="Times,serif" font-size="14.00">1 (95.1)</text>
</g>
<!-- 030 -->
<g id="node13" class="node"><title>030</title>
<ellipse fill="#ff8a8a" stroke="#b43f3f" cx="356" cy="-105" rx="36.2938" ry="18"/>
<text text-anchor="middle" x="356" y="-101.3" font-family="Times,serif" font-size="14.00">030 (a)</text>
</g>
<!-- 07&#45;&gt;030 -->
<g id="edge11" class="edge"><title>07&#45;&gt;030</title>
<path fill="none" stroke="#b43f3f" stroke-dasharray="1,5" d="M426.581,-177.672C417.737,-171.512 407.489,-163.834 399,-156 390.456,-148.115 381.924,-138.619 374.74,-130.029"/>
<polygon fill="#b43f3f" stroke="#b43f3f" points="377.344,-127.685 368.308,-122.155 371.923,-132.113 377.344,-127.685"/>
<text text-anchor="middle" x="421" y="-144.8" font-family="Times,serif" font-size="14.00">1 (95.1)</text>
</g>
<!-- 037 -->
<g id="node14" class="node"><title>037</title>
<ellipse fill="#ff8a8a" stroke="#b43f3f" cx="447" cy="-105" rx="36.2938" ry="18"/>
<text text-anchor="middle" x="447" y="-101.3" font-family="Times,serif" font-size="14.00">037 (a)</text>
</g>
<!-- 07&#45;&gt;037 -->
<g id="edge12" class="edge"><title>07&#45;&gt;037</title>
<path fill="none" stroke="#b43f3f" stroke-dasharray="1,5" d="M447,-173.799C447,-162.163 447,-146.548 447,-133.237"/>
<polygon fill="#b43f3f" stroke="#b43f3f" points="450.5,-133.175 447,-123.175 443.5,-133.175 450.5,-133.175"/>
<text text-anchor="middle" x="469" y="-144.8" font-family="Times,serif" font-size="14.00">1 (97.5)</text>
</g>
<!-- 013 -->
<g id="node15" class="node"><title>013</title>
<ellipse fill="#ff8a8a" stroke="#b43f3f" cx="538" cy="-105" rx="36.2938" ry="18"/>
<text text-anchor="middle" x="538" y="-101.3" font-family="Times,serif" font-size="14.00">013 (a)</text>
</g>
<!-- 07&#45;&gt;013 -->
<g id="edge13" class="edge"><title>07&#45;&gt;013</title>
<path fill="none" stroke="#b43f3f" stroke-dasharray="1,5" d="M467.419,-177.672C476.263,-171.512 486.511,-163.834 495,-156 503.544,-148.115 512.076,-138.619 519.26,-130.029"/>
<polygon fill="#b43f3f" stroke="#b43f3f" points="522.077,-132.113 525.692,-122.155 516.656,-127.685 522.077,-132.113"/>
<text text-anchor="middle" x="531" y="-144.8" font-family="Times,serif" font-size="14.00">2 (95.1)</text>
</g>
<!-- 036 -->
<g id="node16" class="node"><title>036</title>
<ellipse fill="#ff8a8a" stroke="#b43f3f" cx="629" cy="-105" rx="36.2938" ry="18"/>
<text text-anchor="middle" x="629" y="-101.3" font-family="Times,serif" font-size="14.00">036 (a)</text>
</g>
<!-- 021&#45;&gt;036 -->
<g id="edge14" class="edge"><title>021&#45;&gt;036</title>
<path fill="none" stroke="#b43f3f" stroke-dasharray="1,5" d="M627.405,-173.799C627.679,-162.163 628.046,-146.548 628.359,-133.237"/>
<polygon fill="#b43f3f" stroke="#b43f3f" points="631.86,-133.255 628.596,-123.175 624.862,-133.09 631.86,-133.255"/>
<text text-anchor="middle" x="651" y="-144.8" font-family="Times,serif" font-size="14.00">1 (97.6)</text>
</g>
<!-- 047 -->
<g id="node17" class="node"><title>047</title>
<ellipse fill="#ff8a8a" stroke="#b43f3f" cx="720" cy="-105" rx="36.2938" ry="18"/>
<text text-anchor="middle" x="720" y="-101.3" font-family="Times,serif" font-size="14.00">047 (a)</text>
</g>
<!-- 021&#45;&gt;047 -->
<g id="edge15" class="edge"><title>021&#45;&gt;047</title>
<path fill="none" stroke="#b43f3f" stroke-dasharray="1,5" d="M648.807,-177.465C657.912,-171.383 668.358,-163.821 677,-156 685.62,-148.198 694.167,-138.719 701.343,-130.12"/>
<polygon fill="#b43f3f" stroke="#b43f3f" points="704.166,-132.196 707.761,-122.229 698.736,-127.779 704.166,-132.196"/>
<text text-anchor="middle" x="714" y="-144.8" font-family="Times,serif" font-size="14.00">1 (95.1)</text>
</g>
<!-- 091 -->
<g id="node18" class="node"><title>091</title>
<ellipse fill="#cea8f4" stroke="#835da9" cx="850" cy="-279" rx="36.2938" ry="18"/>
<text text-anchor="middle" x="850" y="-275.3" font-family="Times,serif" font-size="14.00">091 (b)</text>
</g>
<!-- 05 -->
<g id="node19" class="node"><title>05</title>
<ellipse fill="#cea8f4" stroke="#835da9" cx="805" cy="-192" rx="32.4942" ry="18"/>
<text text-anchor="middle" x="805" y="-188.3" font-family="Times,serif" font-size="14.00">05 (b)</text>
</g>
<!-- 091&#45;&gt;05 -->
<g id="edge16" class="edge"><title>091&#45;&gt;05</title>
<path fill="none" stroke="#835da9" stroke-dasharray="1,5" d="M840.247,-261.371C836.926,-255.593 833.236,-249.047 830,-243 825.833,-235.213 821.469,-226.645 817.575,-218.834"/>
<polygon fill="#835da9" stroke="#835da9" points="820.672,-217.2 813.104,-209.785 814.397,-220.301 820.672,-217.2"/>
<text text-anchor="middle" x="852" y="-231.8" font-family="Times,serif" font-size="14.00">1 (87.5)</text>
</g>
<!-- 0211 -->
<g id="node20" class="node"><title>0211</title>
<ellipse fill="#cea8f4" stroke="#835da9" cx="896" cy="-192" rx="40.8928" ry="18"/>
<text text-anchor="middle" x="896" y="-188.3" font-family="Times,serif" font-size="14.00">0211 (b)</text>
</g>
<!-- 091&#45;&gt;0211 -->
<g id="edge17" class="edge"><title>091&#45;&gt;0211</title>
<path fill="none" stroke="#835da9" stroke-dasharray="1,5" d="M862.129,-261.67C866.149,-255.917 870.489,-249.309 874,-243 878.15,-235.542 882.102,-227.148 885.481,-219.398"/>
<polygon fill="#835da9" stroke="#835da9" points="888.764,-220.619 889.427,-210.044 882.315,-217.897 888.764,-220.619"/>
<text text-anchor="middle" x="904" y="-231.8" font-family="Times,serif" font-size="14.00">1 (83.3)</text>
</g>
<!-- 03 -->
<g id="node21" class="node"><title>03</title>
<ellipse fill="#cea8f4" stroke="#835da9" cx="1082" cy="-279" rx="32.4942" ry="18"/>
<text text-anchor="middle" x="1082" y="-275.3" font-family="Times,serif" font-size="14.00">03 (b)</text>
</g>
<!-- 032 -->
<g id="node22" class="node"><title>032</title>
<ellipse fill="#cea8f4" stroke="#835da9" cx="991" cy="-192" rx="36.2938" ry="18"/>
<text text-anchor="middle" x="991" y="-188.3" font-family="Times,serif" font-size="14.00">032 (b)</text>
</g>
<!-- 03&#45;&gt;032 -->
<g id="edge18" class="edge"><title>03&#45;&gt;032</title>
<path fill="none" stroke="#835da9" stroke-dasharray="1,5" d="M1061.58,-264.672C1052.74,-258.512 1042.49,-250.834 1034,-243 1025.46,-235.115 1016.92,-225.619 1009.74,-217.029"/>
<polygon fill="#835da9" stroke="#835da9" points="1012.34,-214.685 1003.31,-209.155 1006.92,-219.113 1012.34,-214.685"/>
<text text-anchor="middle" x="1056" y="-231.8" font-family="Times,serif" font-size="14.00">1 (91.7)</text>
</g>
<!-- 044 -->
<g id="node23" class="node"><title>044</title>
<ellipse fill="#cea8f4" stroke="#835da9" cx="1082" cy="-192" rx="36.2938" ry="18"/>
<text text-anchor="middle" x="1082" y="-188.3" font-family="Times,serif" font-size="14.00">044 (b)</text>
</g>
<!-- 03&#45;&gt;044 -->
<g id="edge19" class="edge"><title>03&#45;&gt;044</title>
<path fill="none" stroke="#835da9" stroke-dasharray="1,5" d="M1082,-260.799C1082,-249.163 1082,-233.548 1082,-220.237"/>
<polygon fill="#835da9" stroke="#835da9" points="1085.5,-220.175 1082,-210.175 1078.5,-220.175 1085.5,-220.175"/>
<text text-anchor="middle" x="1104" y="-231.8" font-family="Times,serif" font-size="14.00">1 (89.2)</text>
</g>
<!-- 02 -->
<g id="node24" class="node"><title>02</title>
<ellipse fill="#cea8f4" stroke="#835da9" cx="1169" cy="-192" rx="32.4942" ry="18"/>
<text text-anchor="middle" x="1169" y="-188.3" font-family="Times,serif" font-size="14.00">02 (b)</text>
</g>
<!-- 03&#45;&gt;02 -->
<g id="edge20" class="edge"><title>03&#45;&gt;02</title>
<path fill="none" stroke="#835da9" stroke-dasharray="1,5" d="M1102.6,-264.862C1111.48,-258.738 1121.7,-251.034 1130,-243 1137.95,-235.304 1145.67,-225.945 1152.11,-217.414"/>
<polygon fill="#835da9" stroke="#835da9" points="1155,-219.388 1158.09,-209.252 1149.36,-215.25 1155,-219.388"/>
<text text-anchor="middle" x="1164" y="-231.8" font-family="Times,serif" font-size="14.00">1 (86.5)</text>
</g>
<!-- 0141 -->
<g id="node25" class="node"><title>0141</title>
<ellipse fill="#cea8f4" stroke="#835da9" cx="1034" cy="-105" rx="40.8928" ry="18"/>
<text text-anchor="middle" x="1034" y="-101.3" font-family="Times,serif" font-size="14.00">0141 (b)</text>
</g>
<!-- 044&#45;&gt;0141 -->
<g id="edge21" class="edge"><title>044&#45;&gt;0141</title>
<path fill="none" stroke="#835da9" stroke-dasharray="1,5" d="M1067.84,-175.339C1063.05,-169.535 1057.92,-162.723 1054,-156 1049.76,-148.73 1046.03,-140.392 1042.98,-132.635"/>
<polygon fill="#835da9" stroke="#835da9" points="1046.25,-131.395 1039.48,-123.245 1039.69,-133.838 1046.25,-131.395"/>
<text text-anchor="middle" x="1076" y="-144.8" font-family="Times,serif" font-size="14.00">1 (89.2)</text>
</g>
<!-- 022 -->
<g id="node26" class="node"><title>022</title>
<ellipse fill="#cea8f4" stroke="#835da9" cx="1129" cy="-105" rx="36.2938" ry="18"/>
<text text-anchor="middle" x="1129" y="-101.3" font-family="Times,serif" font-size="14.00">022 (b)</text>
</g>
<!-- 044&#45;&gt;022 -->
<g id="edge22" class="edge"><title>044&#45;&gt;022</title>
<path fill="none" stroke="#835da9" stroke-dasharray="1,5" d="M1091.29,-174.207C1098.02,-162.021 1107.26,-145.318 1114.9,-131.491"/>
<polygon fill="#835da9" stroke="#835da9" points="1118.12,-132.914 1119.89,-122.469 1111.99,-129.527 1118.12,-132.914"/>
<text text-anchor="middle" x="1130" y="-144.8" font-family="Times,serif" font-size="14.00">1 (91.7)</text>
</g>
<!-- 017 -->
<g id="node27" class="node"><title>017</title>
<ellipse fill="#cea8f4" stroke="#835da9" cx="1034" cy="-18" rx="36.2938" ry="18"/>
<text text-anchor="middle" x="1034" y="-14.3" font-family="Times,serif" font-size="14.00">017 (b)</text>
</g>
<!-- 0141&#45;&gt;017 -->
<g id="edge23" class="edge"><title>0141&#45;&gt;017</title>
<path fill="none" stroke="#835da9" stroke-dasharray="1,5" d="M1034,-86.799C1034,-75.1626 1034,-59.5479 1034,-46.2368"/>
<polygon fill="#835da9" stroke="#835da9" points="1037.5,-46.1754 1034,-36.1754 1030.5,-46.1755 1037.5,-46.1754"/>
<text text-anchor="middle" x="1056" y="-57.8" font-family="Times,serif" font-size="14.00">2 (92.7)</text>
</g>
<!-- P75 -->
<g id="node28" class="node"><title>P75</title>
<ellipse fill="#cea8f4" stroke="#835da9" cx="1170" cy="-279" rx="37.0935" ry="18"/>
<text text-anchor="middle" x="1170" y="-275.3" font-family="Times,serif" font-size="14.00">P75 (b)</text>
</g>
<!-- 019 -->
<g id="node29" class="node"><title>019</title>
<ellipse fill="#cea8f4" stroke="#835da9" cx="1261" cy="-279" rx="36.2938" ry="18"/>
<text text-anchor="middle" x="1261" y="-275.3" font-family="Times,serif" font-size="14.00">019 (b)</text>
</g>
<!-- 01 -->
<g id="node30" class="node"><title>01</title>
<ellipse fill="#cea8f4" stroke="#835da9" cx="1348" cy="-279" rx="32.4942" ry="18"/>
<text text-anchor="middle" x="1348" y="-275.3" font-family="Times,serif" font-size="14.00">01 (b)</text>
</g>
</g>
</svg>
