<?xml version="1.0" encoding="UTF-8" standalone="no"?>
<!DOCTYPE svg PUBLIC "-//W3C//DTD SVG 1.1//EN"
 "http://www.w3.org/Graphics/SVG/1.1/DTD/svg11.dtd">
<!-- Generated by graphviz version 2.38.0 (20140413.2041)
 -->
<!-- Title: %3 Pages: 1 -->
<svg width="907pt" height="408pt"
 viewBox="0.00 0.00 907.40 408.00" xmlns="http://www.w3.org/2000/svg" xmlns:xlink="http://www.w3.org/1999/xlink">
<g id="graph0" class="graph" transform="scale(1 1) rotate(0) translate(4 404)">
<title>%3</title>
<polygon fill="white" stroke="none" points="-4,4 -4,-404 903.397,-404 903.397,4 -4,4"/>
<g id="clust1" class="cluster"><title>cluster_legend</title>
<path fill="none" stroke="black" d="M20,-264C20,-264 210,-264 210,-264 216,-264 222,-270 222,-276 222,-276 222,-380 222,-380 222,-386 216,-392 210,-392 210,-392 20,-392 20,-392 14,-392 8,-386 8,-380 8,-380 8,-276 8,-276 8,-270 14,-264 20,-264"/>
</g>
<!-- leg_s -->
<g id="node1" class="node"><title>leg_s</title>
<text text-anchor="middle" x="115" y="-362.3" font-family="Times,serif" font-size="14.00">Textual flow strength</text>
</g>
<!-- leg_e1 -->
<!-- leg_s&#45;&gt;leg_e1 -->
<g id="edge1" class="edge"><title>leg_s&#45;&gt;leg_e1</title>
<path fill="none" stroke="black" stroke-dasharray="1,5" d="M96.6657,-347.686C91.1324,-342.194 85.1607,-335.989 80,-330 70.1708,-318.593 60.0722,-304.779 52.9137,-294.563"/>
<polygon fill="black" stroke="black" points="55.6142,-292.314 47.056,-286.068 49.8514,-296.288 55.6142,-292.314"/>
<text text-anchor="middle" x="95.5" y="-318.8" font-family="Times,serif" font-size="14.00">&lt;=5 &#160;</text>
</g>
<!-- leg_e2 -->
<!-- leg_s&#45;&gt;leg_e2 -->
<g id="edge2" class="edge"><title>leg_s&#45;&gt;leg_e2</title>
<path fill="none" stroke="black" stroke-dasharray="5,2" d="M115,-347.799C115,-332.794 115,-311.174 115,-296.409"/>
<polygon fill="black" stroke="black" points="118.5,-296.293 115,-286.293 111.5,-296.293 118.5,-296.293"/>
<text text-anchor="middle" x="134" y="-318.8" font-family="Times,serif" font-size="14.00"> &#160;&lt;=25</text>
</g>
<!-- leg_e3 -->
<!-- leg_s&#45;&gt;leg_e3 -->
<g id="edge3" class="edge"><title>leg_s&#45;&gt;leg_e3</title>
<path fill="none" stroke="black" d="M138.503,-347.76C144.906,-342.462 151.567,-336.344 157,-330 166.087,-319.39 174.095,-305.689 179.546,-295.313"/>
<polygon fill="black" stroke="black" points="182.722,-296.789 184.091,-286.283 176.469,-293.642 182.722,-296.789"/>
<text text-anchor="middle" x="179" y="-318.8" font-family="Times,serif" font-size="14.00">&gt;25</text>
</g>
<!-- 03 -->
<g id="node5" class="node"><title>03</title>
<ellipse fill="#ff8a8a" stroke="#b43f3f" cx="264" cy="-279" rx="31.6951" ry="18"/>
<text text-anchor="middle" x="264" y="-275.3" font-family="Times,serif" font-size="14.00">03 (a)</text>
</g>
<!-- 02 -->
<g id="node6" class="node"><title>02</title>
<ellipse fill="#ff8a8a" stroke="#b43f3f" cx="120" cy="-192" rx="31.6951" ry="18"/>
<text text-anchor="middle" x="120" y="-188.3" font-family="Times,serif" font-size="14.00">02 (a)</text>
</g>
<!-- 03&#45;&gt;02 -->
<g id="edge4" class="edge"><title>03&#45;&gt;02</title>
<path fill="none" stroke="#b43f3f" stroke-dasharray="1,5" d="M240.003,-266.91C235.385,-264.877 230.564,-262.823 226,-261 203.677,-252.085 195.635,-255.328 175,-243 162.588,-235.584 150.504,-225.081 140.84,-215.615"/>
<polygon fill="#b43f3f" stroke="#b43f3f" points="143.162,-212.985 133.648,-208.324 138.179,-217.901 143.162,-212.985"/>
<text text-anchor="middle" x="197" y="-231.8" font-family="Times,serif" font-size="14.00">1 (86.5)</text>
</g>
<!-- 032 -->
<g id="node7" class="node"><title>032</title>
<ellipse fill="#ff8a8a" stroke="#b43f3f" cx="206" cy="-192" rx="36.2938" ry="18"/>
<text text-anchor="middle" x="206" y="-188.3" font-family="Times,serif" font-size="14.00">032 (a)</text>
</g>
<!-- 03&#45;&gt;032 -->
<g id="edge5" class="edge"><title>03&#45;&gt;032</title>
<path fill="none" stroke="#b43f3f" stroke-dasharray="1,5" d="M248.175,-263.166C242.353,-257.231 235.974,-250.12 231,-243 225.863,-235.647 221.177,-227.086 217.285,-219.148"/>
<polygon fill="#b43f3f" stroke="#b43f3f" points="220.365,-217.471 212.956,-209.898 214.025,-220.439 220.365,-217.471"/>
<text text-anchor="middle" x="253" y="-231.8" font-family="Times,serif" font-size="14.00">1 (91.7)</text>
</g>
<!-- 044 -->
<g id="node8" class="node"><title>044</title>
<ellipse fill="#ff8a8a" stroke="#b43f3f" cx="297" cy="-192" rx="36.2938" ry="18"/>
<text text-anchor="middle" x="297" y="-188.3" font-family="Times,serif" font-size="14.00">044 (a)</text>
</g>
<!-- 03&#45;&gt;044 -->
<g id="edge6" class="edge"><title>03&#45;&gt;044</title>
<path fill="none" stroke="#b43f3f" stroke-dasharray="1,5" d="M270.52,-261.207C275.175,-249.216 281.528,-232.851 286.845,-219.157"/>
<polygon fill="#b43f3f" stroke="#b43f3f" points="290.137,-220.347 290.494,-209.758 283.612,-217.814 290.137,-220.347"/>
<text text-anchor="middle" x="305" y="-231.8" font-family="Times,serif" font-size="14.00">1 (89.2)</text>
</g>
<!-- 0141 -->
<g id="node31" class="node"><title>0141</title>
<ellipse fill="#ff8a8a" stroke="#b43f3f" cx="202" cy="-105" rx="40.0939" ry="18"/>
<text text-anchor="middle" x="202" y="-101.3" font-family="Times,serif" font-size="14.00">0141 (a)</text>
</g>
<!-- 044&#45;&gt;0141 -->
<g id="edge29" class="edge"><title>044&#45;&gt;0141</title>
<path fill="none" stroke="#b43f3f" stroke-dasharray="1,5" d="M276.27,-177.159C267.564,-171.025 257.505,-163.508 249,-156 239.837,-147.911 230.469,-138.276 222.533,-129.632"/>
<polygon fill="#b43f3f" stroke="#b43f3f" points="224.99,-127.129 215.694,-122.045 219.79,-131.816 224.99,-127.129"/>
<text text-anchor="middle" x="271" y="-144.8" font-family="Times,serif" font-size="14.00">1 (89.2)</text>
</g>
<!-- 022 -->
<g id="node32" class="node"><title>022</title>
<ellipse fill="#ff8a8a" stroke="#b43f3f" cx="297" cy="-105" rx="36.2938" ry="18"/>
<text text-anchor="middle" x="297" y="-101.3" font-family="Times,serif" font-size="14.00">022 (a)</text>
</g>
<!-- 044&#45;&gt;022 -->
<g id="edge30" class="edge"><title>044&#45;&gt;022</title>
<path fill="none" stroke="#b43f3f" stroke-dasharray="1,5" d="M297,-173.799C297,-162.163 297,-146.548 297,-133.237"/>
<polygon fill="#b43f3f" stroke="#b43f3f" points="300.5,-133.175 297,-123.175 293.5,-133.175 300.5,-133.175"/>
<text text-anchor="middle" x="319" y="-144.8" font-family="Times,serif" font-size="14.00">1 (91.7)</text>
</g>
<!-- A -->
<g id="node9" class="node"><title>A</title>
<ellipse fill="#ff8a8a" stroke="#b43f3f" cx="446" cy="-366" rx="29.4969" ry="18"/>
<text text-anchor="middle" x="446" y="-362.3" font-family="Times,serif" font-size="14.00">A (a)</text>
</g>
<!-- A&#45;&gt;03 -->
<g id="edge7" class="edge"><title>A&#45;&gt;03</title>
<path fill="none" stroke="#b43f3f" stroke-dasharray="1,5" d="M419.182,-358.715C396.592,-352.88 363.772,-343.118 337,-330 320.479,-321.905 303.439,-310.44 289.981,-300.531"/>
<polygon fill="#b43f3f" stroke="#b43f3f" points="291.791,-297.513 281.696,-294.295 287.581,-303.105 291.791,-297.513"/>
<text text-anchor="middle" x="359" y="-318.8" font-family="Times,serif" font-size="14.00">1 (93.3)</text>
</g>
<!-- P75 -->
<g id="node10" class="node"><title>P75</title>
<ellipse fill="#ff8a8a" stroke="#b43f3f" cx="355" cy="-279" rx="36.2938" ry="18"/>
<text text-anchor="middle" x="355" y="-275.3" font-family="Times,serif" font-size="14.00">P75 (a)</text>
</g>
<!-- A&#45;&gt;P75 -->
<g id="edge8" class="edge"><title>A&#45;&gt;P75</title>
<path fill="none" stroke="#b43f3f" stroke-dasharray="1,5" d="M426.523,-352.326C417.472,-346.06 406.792,-338.113 398,-330 389.456,-322.115 380.924,-312.619 373.74,-304.029"/>
<polygon fill="#b43f3f" stroke="#b43f3f" points="376.344,-301.685 367.308,-296.155 370.923,-306.113 376.344,-301.685"/>
<text text-anchor="middle" x="420" y="-318.8" font-family="Times,serif" font-size="14.00">1 (93.3)</text>
</g>
<!-- 091 -->
<g id="node11" class="node"><title>091</title>
<ellipse fill="#ff8a8a" stroke="#b43f3f" cx="446" cy="-279" rx="36.2938" ry="18"/>
<text text-anchor="middle" x="446" y="-275.3" font-family="Times,serif" font-size="14.00">091 (a)</text>
</g>
<!-- A&#45;&gt;091 -->
<g id="edge9" class="edge"><title>A&#45;&gt;091</title>
<path fill="none" stroke="#b43f3f" stroke-dasharray="1,5" d="M446,-347.799C446,-336.163 446,-320.548 446,-307.237"/>
<polygon fill="#b43f3f" stroke="#b43f3f" points="449.5,-307.175 446,-297.175 442.5,-307.175 449.5,-307.175"/>
<text text-anchor="middle" x="468" y="-318.8" font-family="Times,serif" font-size="14.00">1 (87.5)</text>
</g>
<!-- 019 -->
<g id="node12" class="node"><title>019</title>
<ellipse fill="#ff8a8a" stroke="#b43f3f" cx="537" cy="-279" rx="36.2938" ry="18"/>
<text text-anchor="middle" x="537" y="-275.3" font-family="Times,serif" font-size="14.00">019 (a)</text>
</g>
<!-- A&#45;&gt;019 -->
<g id="edge10" class="edge"><title>A&#45;&gt;019</title>
<path fill="none" stroke="#b43f3f" stroke-dasharray="1,5" d="M465.477,-352.326C474.528,-346.06 485.208,-338.113 494,-330 502.544,-322.115 511.076,-312.619 518.26,-304.029"/>
<polygon fill="#b43f3f" stroke="#b43f3f" points="521.077,-306.113 524.692,-296.155 515.656,-301.685 521.077,-306.113"/>
<text text-anchor="middle" x="530" y="-318.8" font-family="Times,serif" font-size="14.00">1 (93.3)</text>
</g>
<!-- 01 -->
<g id="node13" class="node"><title>01</title>
<ellipse fill="#cea8f4" stroke="#835da9" cx="624" cy="-279" rx="32.4942" ry="18"/>
<text text-anchor="middle" x="624" y="-275.3" font-family="Times,serif" font-size="14.00">01 (b)</text>
</g>
<!-- A&#45;&gt;01 -->
<g id="edge11" class="edge"><title>A&#45;&gt;01</title>
<path fill="none" stroke="#835da9" stroke-dasharray="5,2" d="M473.182,-358.984C496.051,-353.314 529.213,-343.642 556,-330 571.384,-322.166 587.01,-310.953 599.397,-301.13"/>
<polygon fill="#835da9" stroke="#835da9" points="601.863,-303.636 607.412,-294.61 597.446,-298.205 601.863,-303.636"/>
<text text-anchor="middle" x="602" y="-318.8" font-family="Times,serif" font-size="14.00">1 (57.1)</text>
</g>
<!-- 0211 -->
<g id="node17" class="node"><title>0211</title>
<ellipse fill="#ff8a8a" stroke="#b43f3f" cx="413" cy="-192" rx="40.0939" ry="18"/>
<text text-anchor="middle" x="413" y="-188.3" font-family="Times,serif" font-size="14.00">0211 (a)</text>
</g>
<!-- 091&#45;&gt;0211 -->
<g id="edge14" class="edge"><title>091&#45;&gt;0211</title>
<path fill="none" stroke="#b43f3f" stroke-dasharray="1,5" d="M439.48,-261.207C434.855,-249.293 428.554,-233.063 423.259,-219.424"/>
<polygon fill="#b43f3f" stroke="#b43f3f" points="426.501,-218.105 419.619,-210.049 419.976,-220.638 426.501,-218.105"/>
<text text-anchor="middle" x="454" y="-231.8" font-family="Times,serif" font-size="14.00">1 (83.3)</text>
</g>
<!-- 05 -->
<g id="node18" class="node"><title>05</title>
<ellipse fill="#ff8a8a" stroke="#b43f3f" cx="503" cy="-192" rx="31.6951" ry="18"/>
<text text-anchor="middle" x="503" y="-188.3" font-family="Times,serif" font-size="14.00">05 (a)</text>
</g>
<!-- 091&#45;&gt;05 -->
<g id="edge15" class="edge"><title>091&#45;&gt;05</title>
<path fill="none" stroke="#b43f3f" stroke-dasharray="1,5" d="M462.804,-262.978C468.724,-257.131 475.114,-250.127 480,-243 484.994,-235.717 489.38,-227.175 492.945,-219.234"/>
<polygon fill="#b43f3f" stroke="#b43f3f" points="496.192,-220.542 496.874,-209.969 489.748,-217.809 496.192,-220.542"/>
<text text-anchor="middle" x="511" y="-231.8" font-family="Times,serif" font-size="14.00">1 (87.5)</text>
</g>
<!-- 063 -->
<g id="node19" class="node"><title>063</title>
<ellipse fill="#ff8a8a" stroke="#b43f3f" cx="590" cy="-192" rx="36.2938" ry="18"/>
<text text-anchor="middle" x="590" y="-188.3" font-family="Times,serif" font-size="14.00">063 (a)</text>
</g>
<!-- 019&#45;&gt;063 -->
<g id="edge27" class="edge"><title>019&#45;&gt;063</title>
<path fill="none" stroke="#b43f3f" stroke-dasharray="1,5" d="M547.219,-261.611C554.918,-249.264 565.61,-232.117 574.378,-218.053"/>
<polygon fill="#b43f3f" stroke="#b43f3f" points="577.491,-219.676 579.812,-209.339 571.551,-215.972 577.491,-219.676"/>
<text text-anchor="middle" x="589" y="-231.8" font-family="Times,serif" font-size="14.00">1 (85.7)</text>
</g>
<!-- 021 -->
<g id="node14" class="node"><title>021</title>
<ellipse fill="#ff8a8a" stroke="#b43f3f" cx="388" cy="-105" rx="36.2938" ry="18"/>
<text text-anchor="middle" x="388" y="-101.3" font-family="Times,serif" font-size="14.00">021 (a)</text>
</g>
<!-- 047 -->
<g id="node15" class="node"><title>047</title>
<ellipse fill="#ff8a8a" stroke="#b43f3f" cx="226" cy="-18" rx="36.2938" ry="18"/>
<text text-anchor="middle" x="226" y="-14.3" font-family="Times,serif" font-size="14.00">047 (a)</text>
</g>
<!-- 021&#45;&gt;047 -->
<g id="edge12" class="edge"><title>021&#45;&gt;047</title>
<path fill="none" stroke="#b43f3f" stroke-dasharray="1,5" d="M359.857,-93.3558C353.975,-91.1997 347.799,-88.9861 342,-87 316.866,-78.3929 308.257,-81.8402 285,-69 271.887,-61.7603 258.998,-51.3349 248.628,-41.8753"/>
<polygon fill="#b43f3f" stroke="#b43f3f" points="250.905,-39.2114 241.227,-34.8985 246.103,-44.3049 250.905,-39.2114"/>
<text text-anchor="middle" x="307" y="-57.8" font-family="Times,serif" font-size="14.00">1 (95.1)</text>
</g>
<!-- 036 -->
<g id="node16" class="node"><title>036</title>
<ellipse fill="#ff8a8a" stroke="#b43f3f" cx="317" cy="-18" rx="36.2938" ry="18"/>
<text text-anchor="middle" x="317" y="-14.3" font-family="Times,serif" font-size="14.00">036 (a)</text>
</g>
<!-- 021&#45;&gt;036 -->
<g id="edge13" class="edge"><title>021&#45;&gt;036</title>
<path fill="none" stroke="#b43f3f" stroke-dasharray="1,5" d="M366.119,-90.4683C357.841,-84.5985 348.787,-77.1902 342,-69 336.125,-61.9103 331.17,-53.2082 327.262,-45.0625"/>
<polygon fill="#b43f3f" stroke="#b43f3f" points="330.436,-43.5876 323.161,-35.8858 324.045,-46.4436 330.436,-43.5876"/>
<text text-anchor="middle" x="364" y="-57.8" font-family="Times,serif" font-size="14.00">1 (97.6)</text>
</g>
<!-- 063&#45;&gt;021 -->
<g id="edge16" class="edge"><title>063&#45;&gt;021</title>
<path fill="none" stroke="#b43f3f" stroke-dasharray="1,5" d="M561.899,-180.232C556.014,-178.084 549.826,-175.906 544,-174 516.323,-164.946 507.98,-166.958 481,-156 459.45,-147.247 436.416,-134.888 418.663,-124.648"/>
<polygon fill="#b43f3f" stroke="#b43f3f" points="420.295,-121.547 409.897,-119.516 416.758,-127.589 420.295,-121.547"/>
<text text-anchor="middle" x="503" y="-144.8" font-family="Times,serif" font-size="14.00">1 (93.1)</text>
</g>
<!-- 031 -->
<g id="node20" class="node"><title>031</title>
<ellipse fill="#ff8a8a" stroke="#b43f3f" cx="499" cy="-105" rx="36.2938" ry="18"/>
<text text-anchor="middle" x="499" y="-101.3" font-family="Times,serif" font-size="14.00">031 (a)</text>
</g>
<!-- 063&#45;&gt;031 -->
<g id="edge17" class="edge"><title>063&#45;&gt;031</title>
<path fill="none" stroke="#b43f3f" stroke-dasharray="1,5" d="M568.628,-177.006C560.008,-170.963 550.186,-163.554 542,-156 533.456,-148.115 524.924,-138.619 517.74,-130.029"/>
<polygon fill="#b43f3f" stroke="#b43f3f" points="520.344,-127.685 511.308,-122.155 514.923,-132.113 520.344,-127.685"/>
<text text-anchor="middle" x="564" y="-144.8" font-family="Times,serif" font-size="14.00">1 (95.8)</text>
</g>
<!-- 07 -->
<g id="node21" class="node"><title>07</title>
<ellipse fill="#ff8a8a" stroke="#b43f3f" cx="590" cy="-105" rx="31.6951" ry="18"/>
<text text-anchor="middle" x="590" y="-101.3" font-family="Times,serif" font-size="14.00">07 (a)</text>
</g>
<!-- 063&#45;&gt;07 -->
<g id="edge18" class="edge"><title>063&#45;&gt;07</title>
<path fill="none" stroke="#b43f3f" stroke-dasharray="1,5" d="M590,-173.799C590,-162.163 590,-146.548 590,-133.237"/>
<polygon fill="#b43f3f" stroke="#b43f3f" points="593.5,-133.175 590,-123.175 586.5,-133.175 593.5,-133.175"/>
<text text-anchor="middle" x="612" y="-144.8" font-family="Times,serif" font-size="14.00">1 (96.6)</text>
</g>
<!-- 045 -->
<g id="node22" class="node"><title>045</title>
<ellipse fill="#ff8a8a" stroke="#b43f3f" cx="676" cy="-105" rx="36.2938" ry="18"/>
<text text-anchor="middle" x="676" y="-101.3" font-family="Times,serif" font-size="14.00">045 (a)</text>
</g>
<!-- 063&#45;&gt;045 -->
<g id="edge19" class="edge"><title>063&#45;&gt;045</title>
<path fill="none" stroke="#b43f3f" stroke-dasharray="1,5" d="M611.604,-177.25C620.26,-171.245 630.046,-163.798 638,-156 645.825,-148.329 653.362,-138.975 659.632,-130.442"/>
<polygon fill="#b43f3f" stroke="#b43f3f" points="662.497,-132.452 665.443,-122.275 656.794,-128.394 662.497,-132.452"/>
<text text-anchor="middle" x="673" y="-144.8" font-family="Times,serif" font-size="14.00">1 (93.1)</text>
</g>
<!-- 028 -->
<g id="node23" class="node"><title>028</title>
<ellipse fill="#ff8a8a" stroke="#b43f3f" cx="767" cy="-105" rx="36.2938" ry="18"/>
<text text-anchor="middle" x="767" y="-101.3" font-family="Times,serif" font-size="14.00">028 (a)</text>
</g>
<!-- 063&#45;&gt;028 -->
<g id="edge20" class="edge"><title>063&#45;&gt;028</title>
<path fill="none" stroke="#b43f3f" stroke-dasharray="1,5" d="M622.558,-183.501C644.81,-177.675 674.576,-168.479 699,-156 714.161,-148.254 729.567,-137.239 741.873,-127.519"/>
<polygon fill="#b43f3f" stroke="#b43f3f" points="744.289,-130.067 749.856,-121.053 739.883,-124.627 744.289,-130.067"/>
<text text-anchor="middle" x="745" y="-144.8" font-family="Times,serif" font-size="14.00">1 (96.6)</text>
</g>
<!-- 011 -->
<g id="node24" class="node"><title>011</title>
<ellipse fill="#ff8a8a" stroke="#b43f3f" cx="858" cy="-105" rx="36.2938" ry="18"/>
<text text-anchor="middle" x="858" y="-101.3" font-family="Times,serif" font-size="14.00">011 (a)</text>
</g>
<!-- 063&#45;&gt;011 -->
<g id="edge21" class="edge"><title>063&#45;&gt;011</title>
<path fill="none" stroke="#b43f3f" stroke-dasharray="1,5" d="M625.635,-187.624C662.833,-183.298 722.407,-174.086 771,-156 791.526,-148.36 812.873,-136.166 829.285,-125.732"/>
<polygon fill="#b43f3f" stroke="#b43f3f" points="831.383,-128.543 837.859,-120.157 827.567,-122.675 831.383,-128.543"/>
<text text-anchor="middle" x="824" y="-144.8" font-family="Times,serif" font-size="14.00">1 (93.1)</text>
</g>
<!-- 017 -->
<g id="node25" class="node"><title>017</title>
<ellipse fill="#ff8a8a" stroke="#b43f3f" cx="408" cy="-18" rx="36.2938" ry="18"/>
<text text-anchor="middle" x="408" y="-14.3" font-family="Times,serif" font-size="14.00">017 (a)</text>
</g>
<!-- 031&#45;&gt;017 -->
<g id="edge22" class="edge"><title>031&#45;&gt;017</title>
<path fill="none" stroke="#b43f3f" stroke-dasharray="1,5" d="M477.628,-90.006C469.008,-83.9634 459.186,-76.5539 451,-69 442.456,-61.1154 433.924,-51.6186 426.74,-43.0293"/>
<polygon fill="#b43f3f" stroke="#b43f3f" points="429.344,-40.6853 420.308,-35.1545 423.923,-45.1135 429.344,-40.6853"/>
<text text-anchor="middle" x="473" y="-57.8" font-family="Times,serif" font-size="14.00">1 (94.3)</text>
</g>
<!-- 013 -->
<g id="node26" class="node"><title>013</title>
<ellipse fill="#ff8a8a" stroke="#b43f3f" cx="499" cy="-18" rx="36.2938" ry="18"/>
<text text-anchor="middle" x="499" y="-14.3" font-family="Times,serif" font-size="14.00">013 (a)</text>
</g>
<!-- 031&#45;&gt;013 -->
<g id="edge23" class="edge"><title>031&#45;&gt;013</title>
<path fill="none" stroke="#b43f3f" stroke-dasharray="1,5" d="M499,-86.799C499,-75.1626 499,-59.5479 499,-46.2368"/>
<polygon fill="#b43f3f" stroke="#b43f3f" points="502.5,-46.1754 499,-36.1754 495.5,-46.1755 502.5,-46.1754"/>
<text text-anchor="middle" x="521" y="-57.8" font-family="Times,serif" font-size="14.00">1 (97.1)</text>
</g>
<!-- 030 -->
<g id="node27" class="node"><title>030</title>
<ellipse fill="#ff8a8a" stroke="#b43f3f" cx="590" cy="-18" rx="36.2938" ry="18"/>
<text text-anchor="middle" x="590" y="-14.3" font-family="Times,serif" font-size="14.00">030 (a)</text>
</g>
<!-- 07&#45;&gt;030 -->
<g id="edge24" class="edge"><title>07&#45;&gt;030</title>
<path fill="none" stroke="#b43f3f" stroke-dasharray="1,5" d="M590,-86.799C590,-75.1626 590,-59.5479 590,-46.2368"/>
<polygon fill="#b43f3f" stroke="#b43f3f" points="593.5,-46.1754 590,-36.1754 586.5,-46.1755 593.5,-46.1754"/>
<text text-anchor="middle" x="612" y="-57.8" font-family="Times,serif" font-size="14.00">1 (95.1)</text>
</g>
<!-- 037 -->
<g id="node28" class="node"><title>037</title>
<ellipse fill="#ff8a8a" stroke="#b43f3f" cx="681" cy="-18" rx="36.2938" ry="18"/>
<text text-anchor="middle" x="681" y="-14.3" font-family="Times,serif" font-size="14.00">037 (a)</text>
</g>
<!-- 07&#45;&gt;037 -->
<g id="edge25" class="edge"><title>07&#45;&gt;037</title>
<path fill="none" stroke="#b43f3f" stroke-dasharray="1,5" d="M610.419,-90.6717C619.263,-84.5121 629.511,-76.8337 638,-69 646.544,-61.1154 655.076,-51.6186 662.26,-43.0293"/>
<polygon fill="#b43f3f" stroke="#b43f3f" points="665.077,-45.1135 668.692,-35.1545 659.656,-40.6853 665.077,-45.1135"/>
<text text-anchor="middle" x="674" y="-57.8" font-family="Times,serif" font-size="14.00">1 (97.5)</text>
</g>
<!-- 034 -->
<g id="node29" class="node"><title>034</title>
<ellipse fill="#ff8a8a" stroke="#b43f3f" cx="772" cy="-18" rx="36.2938" ry="18"/>
<text text-anchor="middle" x="772" y="-14.3" font-family="Times,serif" font-size="14.00">034 (a)</text>
</g>
<!-- 07&#45;&gt;034 -->
<g id="edge26" class="edge"><title>07&#45;&gt;034</title>
<path fill="none" stroke="#b43f3f" stroke-dasharray="1,5" d="M614.507,-93.1938C619.889,-91.0026 625.595,-88.816 631,-87 661.043,-76.9066 671.207,-82.2431 700,-69 716.446,-61.4361 733.152,-50.107 746.327,-40.1444"/>
<polygon fill="#b43f3f" stroke="#b43f3f" points="748.685,-42.7454 754.437,-33.8482 744.392,-37.2162 748.685,-42.7454"/>
<text text-anchor="middle" x="748" y="-57.8" font-family="Times,serif" font-size="14.00">1 (95.1)</text>
</g>
<!-- 038 -->
<g id="node30" class="node"><title>038</title>
<ellipse fill="#ff8a8a" stroke="#b43f3f" cx="863" cy="-18" rx="36.2938" ry="18"/>
<text text-anchor="middle" x="863" y="-14.3" font-family="Times,serif" font-size="14.00">038 (a)</text>
</g>
<!-- 045&#45;&gt;038 -->
<g id="edge28" class="edge"><title>045&#45;&gt;038</title>
<path fill="none" stroke="#b43f3f" stroke-dasharray="1,5" d="M704.186,-93.4785C710.064,-91.3135 716.228,-89.0652 722,-87 745.027,-78.7606 751.694,-79.0293 774,-69 794.048,-59.9855 815.562,-47.9692 832.414,-37.9757"/>
<polygon fill="#b43f3f" stroke="#b43f3f" points="834.488,-40.8131 841.258,-32.6639 830.884,-34.8123 834.488,-40.8131"/>
<text text-anchor="middle" x="827" y="-57.8" font-family="Times,serif" font-size="14.00">1 (92.7)</text>
</g>
</g>
</svg>
