<?xml version="1.0" encoding="UTF-8" standalone="no"?>
<!DOCTYPE svg PUBLIC "-//W3C//DTD SVG 1.1//EN"
 "http://www.w3.org/Graphics/SVG/1.1/DTD/svg11.dtd">
<!-- Generated by graphviz version 2.38.0 (20140413.2041)
 -->
<!-- Title: %3 Pages: 1 -->
<svg width="980pt" height="408pt"
 viewBox="0.00 0.00 980.40 408.00" xmlns="http://www.w3.org/2000/svg" xmlns:xlink="http://www.w3.org/1999/xlink">
<g id="graph0" class="graph" transform="scale(1 1) rotate(0) translate(4 404)">
<title>%3</title>
<polygon fill="white" stroke="none" points="-4,4 -4,-404 976.397,-404 976.397,4 -4,4"/>
<g id="clust1" class="cluster"><title>cluster_legend</title>
<path fill="none" stroke="black" d="M20,-264C20,-264 210,-264 210,-264 216,-264 222,-270 222,-276 222,-276 222,-380 222,-380 222,-386 216,-392 210,-392 210,-392 20,-392 20,-392 14,-392 8,-386 8,-380 8,-380 8,-276 8,-276 8,-270 14,-264 20,-264"/>
</g>
<!-- leg_s -->
<g id="node1" class="node"><title>leg_s</title>
<text text-anchor="middle" x="115" y="-362.3" font-family="Times,serif" font-size="14.00">Textual flow strength</text>
</g>
<!-- leg_e1 -->
<!-- leg_s&#45;&gt;leg_e1 -->
<g id="edge1" class="edge"><title>leg_s&#45;&gt;leg_e1</title>
<path fill="none" stroke="black" stroke-dasharray="1,5" d="M96.6657,-347.686C91.1324,-342.194 85.1607,-335.989 80,-330 70.1708,-318.593 60.0722,-304.779 52.9137,-294.563"/>
<polygon fill="black" stroke="black" points="55.6142,-292.314 47.056,-286.068 49.8514,-296.288 55.6142,-292.314"/>
<text text-anchor="middle" x="95.5" y="-318.8" font-family="Times,serif" font-size="14.00">&lt;=5 &#160;</text>
</g>
<!-- leg_e2 -->
<!-- leg_s&#45;&gt;leg_e2 -->
<g id="edge2" class="edge"><title>leg_s&#45;&gt;leg_e2</title>
<path fill="none" stroke="black" stroke-dasharray="5,2" d="M115,-347.799C115,-332.794 115,-311.174 115,-296.409"/>
<polygon fill="black" stroke="black" points="118.5,-296.293 115,-286.293 111.5,-296.293 118.5,-296.293"/>
<text text-anchor="middle" x="134" y="-318.8" font-family="Times,serif" font-size="14.00"> &#160;&lt;=25</text>
</g>
<!-- leg_e3 -->
<!-- leg_s&#45;&gt;leg_e3 -->
<g id="edge3" class="edge"><title>leg_s&#45;&gt;leg_e3</title>
<path fill="none" stroke="black" d="M138.503,-347.76C144.906,-342.462 151.567,-336.344 157,-330 166.087,-319.39 174.095,-305.689 179.546,-295.313"/>
<polygon fill="black" stroke="black" points="182.722,-296.789 184.091,-286.283 176.469,-293.642 182.722,-296.789"/>
<text text-anchor="middle" x="179" y="-318.8" font-family="Times,serif" font-size="14.00">&gt;25</text>
</g>
<!-- A -->
<g id="node5" class="node"><title>A</title>
<ellipse fill="#ff8a8a" stroke="#b43f3f" cx="436" cy="-366" rx="29.4969" ry="18"/>
<text text-anchor="middle" x="436" y="-362.3" font-family="Times,serif" font-size="14.00">A (a)</text>
</g>
<!-- 05 -->
<g id="node6" class="node"><title>05</title>
<ellipse fill="#ff8a8a" stroke="#b43f3f" cx="264" cy="-279" rx="31.6951" ry="18"/>
<text text-anchor="middle" x="264" y="-275.3" font-family="Times,serif" font-size="14.00">05 (a)</text>
</g>
<!-- A&#45;&gt;05 -->
<g id="edge4" class="edge"><title>A&#45;&gt;05</title>
<path fill="none" stroke="#b43f3f" stroke-dasharray="1,5" d="M408.763,-358.989C386.267,-353.373 353.936,-343.777 328,-330 313.571,-322.335 299.092,-311.365 287.564,-301.652"/>
<polygon fill="#b43f3f" stroke="#b43f3f" points="289.584,-298.772 279.735,-294.867 285,-304.062 289.584,-298.772"/>
<text text-anchor="middle" x="350" y="-318.8" font-family="Times,serif" font-size="14.00">2 (76.9)</text>
</g>
<!-- P75 -->
<g id="node7" class="node"><title>P75</title>
<ellipse fill="#ff8a8a" stroke="#b43f3f" cx="350" cy="-279" rx="36.2938" ry="18"/>
<text text-anchor="middle" x="350" y="-275.3" font-family="Times,serif" font-size="14.00">P75 (a)</text>
</g>
<!-- A&#45;&gt;P75 -->
<g id="edge5" class="edge"><title>A&#45;&gt;P75</title>
<path fill="none" stroke="#b43f3f" stroke-dasharray="1,5" d="M416.3,-352.561C407.199,-346.347 396.543,-338.375 388,-330 380.175,-322.329 372.638,-312.975 366.368,-304.442"/>
<polygon fill="#b43f3f" stroke="#b43f3f" points="369.206,-302.394 360.557,-296.275 363.503,-306.452 369.206,-302.394"/>
<text text-anchor="middle" x="410" y="-318.8" font-family="Times,serif" font-size="14.00">1 (93.3)</text>
</g>
<!-- 03 -->
<g id="node8" class="node"><title>03</title>
<ellipse fill="#ff8a8a" stroke="#b43f3f" cx="436" cy="-279" rx="31.6951" ry="18"/>
<text text-anchor="middle" x="436" y="-275.3" font-family="Times,serif" font-size="14.00">03 (a)</text>
</g>
<!-- A&#45;&gt;03 -->
<g id="edge6" class="edge"><title>A&#45;&gt;03</title>
<path fill="none" stroke="#b43f3f" stroke-dasharray="1,5" d="M436,-347.799C436,-336.163 436,-320.548 436,-307.237"/>
<polygon fill="#b43f3f" stroke="#b43f3f" points="439.5,-307.175 436,-297.175 432.5,-307.175 439.5,-307.175"/>
<text text-anchor="middle" x="458" y="-318.8" font-family="Times,serif" font-size="14.00">1 (93.3)</text>
</g>
<!-- 019 -->
<g id="node9" class="node"><title>019</title>
<ellipse fill="#ff8a8a" stroke="#b43f3f" cx="522" cy="-279" rx="36.2938" ry="18"/>
<text text-anchor="middle" x="522" y="-275.3" font-family="Times,serif" font-size="14.00">019 (a)</text>
</g>
<!-- A&#45;&gt;019 -->
<g id="edge7" class="edge"><title>A&#45;&gt;019</title>
<path fill="none" stroke="#b43f3f" stroke-dasharray="1,5" d="M455.7,-352.561C464.801,-346.347 475.457,-338.375 484,-330 491.825,-322.329 499.362,-312.975 505.632,-304.442"/>
<polygon fill="#b43f3f" stroke="#b43f3f" points="508.497,-306.452 511.443,-296.275 502.794,-302.394 508.497,-306.452"/>
<text text-anchor="middle" x="519" y="-318.8" font-family="Times,serif" font-size="14.00">1 (93.3)</text>
</g>
<!-- 01 -->
<g id="node10" class="node"><title>01</title>
<ellipse fill="#ff8a8a" stroke="#b43f3f" cx="608" cy="-279" rx="31.6951" ry="18"/>
<text text-anchor="middle" x="608" y="-275.3" font-family="Times,serif" font-size="14.00">01 (a)</text>
</g>
<!-- A&#45;&gt;01 -->
<g id="edge8" class="edge"><title>A&#45;&gt;01</title>
<path fill="none" stroke="#b43f3f" stroke-dasharray="5,2" d="M463.52,-359.083C486.242,-353.524 518.881,-343.958 545,-330 559.27,-322.374 573.53,-311.408 584.864,-301.687"/>
<polygon fill="#b43f3f" stroke="#b43f3f" points="587.378,-304.137 592.559,-294.895 582.745,-298.889 587.378,-304.137"/>
<text text-anchor="middle" x="590" y="-318.8" font-family="Times,serif" font-size="14.00">1 (57.1)</text>
</g>
<!-- 044 -->
<g id="node24" class="node"><title>044</title>
<ellipse fill="#ff8a8a" stroke="#b43f3f" cx="299" cy="-192" rx="36.2938" ry="18"/>
<text text-anchor="middle" x="299" y="-188.3" font-family="Times,serif" font-size="14.00">044 (a)</text>
</g>
<!-- 03&#45;&gt;044 -->
<g id="edge21" class="edge"><title>03&#45;&gt;044</title>
<path fill="none" stroke="#b43f3f" stroke-dasharray="1,5" d="M411.346,-267.52C397.129,-261.111 379.129,-252.361 364,-243 350.361,-234.561 336.138,-223.866 324.487,-214.536"/>
<polygon fill="#b43f3f" stroke="#b43f3f" points="326.467,-211.635 316.503,-208.035 322.047,-217.063 326.467,-211.635"/>
<text text-anchor="middle" x="386" y="-231.8" font-family="Times,serif" font-size="14.00">1 (89.2)</text>
</g>
<!-- 032 -->
<g id="node25" class="node"><title>032</title>
<ellipse fill="#ff8a8a" stroke="#b43f3f" cx="398" cy="-192" rx="36.2938" ry="18"/>
<text text-anchor="middle" x="398" y="-188.3" font-family="Times,serif" font-size="14.00">032 (a)</text>
</g>
<!-- 03&#45;&gt;032 -->
<g id="edge22" class="edge"><title>03&#45;&gt;032</title>
<path fill="none" stroke="#b43f3f" stroke-dasharray="1,5" d="M427.068,-261.423C424.067,-255.65 420.778,-249.093 418,-243 414.509,-235.344 411.001,-226.891 407.919,-219.148"/>
<polygon fill="#b43f3f" stroke="#b43f3f" points="411.178,-217.872 404.277,-209.833 404.659,-220.421 411.178,-217.872"/>
<text text-anchor="middle" x="440" y="-231.8" font-family="Times,serif" font-size="14.00">1 (91.7)</text>
</g>
<!-- 02 -->
<g id="node26" class="node"><title>02</title>
<ellipse fill="#ff8a8a" stroke="#b43f3f" cx="484" cy="-192" rx="31.6951" ry="18"/>
<text text-anchor="middle" x="484" y="-188.3" font-family="Times,serif" font-size="14.00">02 (a)</text>
</g>
<!-- 03&#45;&gt;02 -->
<g id="edge23" class="edge"><title>03&#45;&gt;02</title>
<path fill="none" stroke="#b43f3f" stroke-dasharray="1,5" d="M448.693,-262.487C453.203,-256.587 458.119,-249.674 462,-243 466.358,-235.506 470.408,-226.989 473.815,-219.135"/>
<polygon fill="#b43f3f" stroke="#b43f3f" points="477.145,-220.245 477.762,-209.669 470.684,-217.552 477.145,-220.245"/>
<text text-anchor="middle" x="492" y="-231.8" font-family="Times,serif" font-size="14.00">1 (86.5)</text>
</g>
<!-- 063 -->
<g id="node11" class="node"><title>063</title>
<ellipse fill="#ff8a8a" stroke="#b43f3f" cx="572" cy="-192" rx="36.2938" ry="18"/>
<text text-anchor="middle" x="572" y="-188.3" font-family="Times,serif" font-size="14.00">063 (a)</text>
</g>
<!-- 019&#45;&gt;063 -->
<g id="edge26" class="edge"><title>019&#45;&gt;063</title>
<path fill="none" stroke="#b43f3f" stroke-dasharray="1,5" d="M531.641,-261.611C538.857,-249.343 548.861,-232.336 557.103,-218.324"/>
<polygon fill="#b43f3f" stroke="#b43f3f" points="560.165,-220.023 562.218,-209.629 554.131,-216.473 560.165,-220.023"/>
<text text-anchor="middle" x="572" y="-231.8" font-family="Times,serif" font-size="14.00">1 (85.7)</text>
</g>
<!-- 07 -->
<g id="node12" class="node"><title>07</title>
<ellipse fill="#ff8a8a" stroke="#b43f3f" cx="389" cy="-105" rx="31.6951" ry="18"/>
<text text-anchor="middle" x="389" y="-101.3" font-family="Times,serif" font-size="14.00">07 (a)</text>
</g>
<!-- 063&#45;&gt;07 -->
<g id="edge9" class="edge"><title>063&#45;&gt;07</title>
<path fill="none" stroke="#b43f3f" stroke-dasharray="1,5" d="M543.769,-180.455C537.608,-178.247 531.105,-175.988 525,-174 497.717,-165.116 488.98,-168.18 463,-156 445.91,-147.988 428.34,-136.29 414.612,-126.223"/>
<polygon fill="#b43f3f" stroke="#b43f3f" points="416.698,-123.413 406.598,-120.213 412.498,-129.013 416.698,-123.413"/>
<text text-anchor="middle" x="485" y="-144.8" font-family="Times,serif" font-size="14.00">1 (96.6)</text>
</g>
<!-- 028 -->
<g id="node13" class="node"><title>028</title>
<ellipse fill="#ff8a8a" stroke="#b43f3f" cx="481" cy="-105" rx="36.2938" ry="18"/>
<text text-anchor="middle" x="481" y="-101.3" font-family="Times,serif" font-size="14.00">028 (a)</text>
</g>
<!-- 063&#45;&gt;028 -->
<g id="edge10" class="edge"><title>063&#45;&gt;028</title>
<path fill="none" stroke="#b43f3f" stroke-dasharray="1,5" d="M550.628,-177.006C542.008,-170.963 532.186,-163.554 524,-156 515.456,-148.115 506.924,-138.619 499.74,-130.029"/>
<polygon fill="#b43f3f" stroke="#b43f3f" points="502.344,-127.685 493.308,-122.155 496.923,-132.113 502.344,-127.685"/>
<text text-anchor="middle" x="546" y="-144.8" font-family="Times,serif" font-size="14.00">1 (96.6)</text>
</g>
<!-- 021 -->
<g id="node14" class="node"><title>021</title>
<ellipse fill="#ff8a8a" stroke="#b43f3f" cx="572" cy="-105" rx="36.2938" ry="18"/>
<text text-anchor="middle" x="572" y="-101.3" font-family="Times,serif" font-size="14.00">021 (a)</text>
</g>
<!-- 063&#45;&gt;021 -->
<g id="edge11" class="edge"><title>063&#45;&gt;021</title>
<path fill="none" stroke="#b43f3f" stroke-dasharray="1,5" d="M572,-173.799C572,-162.163 572,-146.548 572,-133.237"/>
<polygon fill="#b43f3f" stroke="#b43f3f" points="575.5,-133.175 572,-123.175 568.5,-133.175 575.5,-133.175"/>
<text text-anchor="middle" x="594" y="-144.8" font-family="Times,serif" font-size="14.00">1 (93.1)</text>
</g>
<!-- 045 -->
<g id="node15" class="node"><title>045</title>
<ellipse fill="#ff8a8a" stroke="#b43f3f" cx="663" cy="-105" rx="36.2938" ry="18"/>
<text text-anchor="middle" x="663" y="-101.3" font-family="Times,serif" font-size="14.00">045 (a)</text>
</g>
<!-- 063&#45;&gt;045 -->
<g id="edge12" class="edge"><title>063&#45;&gt;045</title>
<path fill="none" stroke="#b43f3f" stroke-dasharray="1,5" d="M593.372,-177.006C601.992,-170.963 611.814,-163.554 620,-156 628.544,-148.115 637.076,-138.619 644.26,-130.029"/>
<polygon fill="#b43f3f" stroke="#b43f3f" points="647.077,-132.113 650.692,-122.155 641.656,-127.685 647.077,-132.113"/>
<text text-anchor="middle" x="656" y="-144.8" font-family="Times,serif" font-size="14.00">1 (93.1)</text>
</g>
<!-- 011 -->
<g id="node16" class="node"><title>011</title>
<ellipse fill="#ff8a8a" stroke="#b43f3f" cx="754" cy="-105" rx="36.2938" ry="18"/>
<text text-anchor="middle" x="754" y="-101.3" font-family="Times,serif" font-size="14.00">011 (a)</text>
</g>
<!-- 063&#45;&gt;011 -->
<g id="edge13" class="edge"><title>063&#45;&gt;011</title>
<path fill="none" stroke="#b43f3f" stroke-dasharray="1,5" d="M604.267,-183.461C626.727,-177.566 657.009,-168.305 682,-156 698.128,-148.059 714.702,-136.801 727.877,-126.977"/>
<polygon fill="#b43f3f" stroke="#b43f3f" points="730.176,-129.626 736.004,-120.778 725.931,-124.06 730.176,-129.626"/>
<text text-anchor="middle" x="729" y="-144.8" font-family="Times,serif" font-size="14.00">1 (93.1)</text>
</g>
<!-- 031 -->
<g id="node17" class="node"><title>031</title>
<ellipse fill="#ff8a8a" stroke="#b43f3f" cx="845" cy="-105" rx="36.2938" ry="18"/>
<text text-anchor="middle" x="845" y="-101.3" font-family="Times,serif" font-size="14.00">031 (a)</text>
</g>
<!-- 063&#45;&gt;031 -->
<g id="edge14" class="edge"><title>063&#45;&gt;031</title>
<path fill="none" stroke="#b43f3f" stroke-dasharray="1,5" d="M607.629,-187.578C645.17,-183.197 705.588,-173.927 755,-156 776.266,-148.285 798.502,-135.977 815.552,-125.504"/>
<polygon fill="#b43f3f" stroke="#b43f3f" points="817.844,-128.197 824.451,-119.915 814.121,-122.269 817.844,-128.197"/>
<text text-anchor="middle" x="808" y="-144.8" font-family="Times,serif" font-size="14.00">1 (95.8)</text>
</g>
<!-- 037 -->
<g id="node18" class="node"><title>037</title>
<ellipse fill="#ff8a8a" stroke="#b43f3f" cx="200" cy="-18" rx="36.2938" ry="18"/>
<text text-anchor="middle" x="200" y="-14.3" font-family="Times,serif" font-size="14.00">037 (a)</text>
</g>
<!-- 07&#45;&gt;037 -->
<g id="edge15" class="edge"><title>07&#45;&gt;037</title>
<path fill="none" stroke="#b43f3f" stroke-dasharray="1,5" d="M364.511,-93.1387C359.129,-90.9509 353.417,-88.7797 348,-87 316.253,-76.5707 305.581,-82.4693 275,-69 257.684,-61.3735 239.995,-49.7979 226.148,-39.7047"/>
<polygon fill="#b43f3f" stroke="#b43f3f" points="228.166,-36.8432 218.06,-33.6603 223.975,-42.4503 228.166,-36.8432"/>
<text text-anchor="middle" x="297" y="-57.8" font-family="Times,serif" font-size="14.00">1 (97.5)</text>
</g>
<!-- 030 -->
<g id="node19" class="node"><title>030</title>
<ellipse fill="#ff8a8a" stroke="#b43f3f" cx="291" cy="-18" rx="36.2938" ry="18"/>
<text text-anchor="middle" x="291" y="-14.3" font-family="Times,serif" font-size="14.00">030 (a)</text>
</g>
<!-- 07&#45;&gt;030 -->
<g id="edge16" class="edge"><title>07&#45;&gt;030</title>
<path fill="none" stroke="#b43f3f" stroke-dasharray="1,5" d="M367.911,-90.9964C358.423,-84.7817 347.293,-76.9694 338,-69 328.722,-61.0432 319.332,-51.4336 311.41,-42.7739"/>
<polygon fill="#b43f3f" stroke="#b43f3f" points="313.871,-40.2763 304.592,-35.1627 308.657,-44.9467 313.871,-40.2763"/>
<text text-anchor="middle" x="360" y="-57.8" font-family="Times,serif" font-size="14.00">1 (95.1)</text>
</g>
<!-- 034 -->
<g id="node20" class="node"><title>034</title>
<ellipse fill="#ff8a8a" stroke="#b43f3f" cx="382" cy="-18" rx="36.2938" ry="18"/>
<text text-anchor="middle" x="382" y="-14.3" font-family="Times,serif" font-size="14.00">034 (a)</text>
</g>
<!-- 07&#45;&gt;034 -->
<g id="edge17" class="edge"><title>07&#45;&gt;034</title>
<path fill="none" stroke="#b43f3f" stroke-dasharray="1,5" d="M387.583,-86.799C386.625,-75.1626 385.339,-59.5479 384.243,-46.2368"/>
<polygon fill="#b43f3f" stroke="#b43f3f" points="387.723,-45.8544 383.414,-36.1754 380.747,-46.429 387.723,-45.8544"/>
<text text-anchor="middle" x="408" y="-57.8" font-family="Times,serif" font-size="14.00">1 (95.1)</text>
</g>
<!-- 0211 -->
<g id="node21" class="node"><title>0211</title>
<ellipse fill="#ff8a8a" stroke="#b43f3f" cx="477" cy="-18" rx="40.0939" ry="18"/>
<text text-anchor="middle" x="477" y="-14.3" font-family="Times,serif" font-size="14.00">0211 (a)</text>
</g>
<!-- 07&#45;&gt;0211 -->
<g id="edge18" class="edge"><title>07&#45;&gt;0211</title>
<path fill="none" stroke="#b43f3f" stroke-dasharray="1,5" d="M408.076,-90.4907C416.354,-84.2976 425.971,-76.643 434,-69 442.295,-61.1035 450.673,-51.7439 457.803,-43.2703"/>
<polygon fill="#b43f3f" stroke="#b43f3f" points="460.552,-45.4369 464.212,-35.4942 455.151,-40.9846 460.552,-45.4369"/>
<text text-anchor="middle" x="470" y="-57.8" font-family="Times,serif" font-size="14.00">2 (82.9)</text>
</g>
<!-- 036 -->
<g id="node22" class="node"><title>036</title>
<ellipse fill="#ff8a8a" stroke="#b43f3f" cx="572" cy="-18" rx="36.2938" ry="18"/>
<text text-anchor="middle" x="572" y="-14.3" font-family="Times,serif" font-size="14.00">036 (a)</text>
</g>
<!-- 021&#45;&gt;036 -->
<g id="edge19" class="edge"><title>021&#45;&gt;036</title>
<path fill="none" stroke="#b43f3f" stroke-dasharray="1,5" d="M572,-86.799C572,-75.1626 572,-59.5479 572,-46.2368"/>
<polygon fill="#b43f3f" stroke="#b43f3f" points="575.5,-46.1754 572,-36.1754 568.5,-46.1755 575.5,-46.1754"/>
<text text-anchor="middle" x="594" y="-57.8" font-family="Times,serif" font-size="14.00">1 (97.6)</text>
</g>
<!-- 047 -->
<g id="node23" class="node"><title>047</title>
<ellipse fill="#ff8a8a" stroke="#b43f3f" cx="663" cy="-18" rx="36.2938" ry="18"/>
<text text-anchor="middle" x="663" y="-14.3" font-family="Times,serif" font-size="14.00">047 (a)</text>
</g>
<!-- 021&#45;&gt;047 -->
<g id="edge20" class="edge"><title>021&#45;&gt;047</title>
<path fill="none" stroke="#b43f3f" stroke-dasharray="1,5" d="M593.372,-90.006C601.992,-83.9634 611.814,-76.5539 620,-69 628.544,-61.1154 637.076,-51.6186 644.26,-43.0293"/>
<polygon fill="#b43f3f" stroke="#b43f3f" points="647.077,-45.1135 650.692,-35.1545 641.656,-40.6853 647.077,-45.1135"/>
<text text-anchor="middle" x="656" y="-57.8" font-family="Times,serif" font-size="14.00">1 (95.1)</text>
</g>
<!-- 038 -->
<g id="node29" class="node"><title>038</title>
<ellipse fill="#ff8a8a" stroke="#b43f3f" cx="754" cy="-18" rx="36.2938" ry="18"/>
<text text-anchor="middle" x="754" y="-14.3" font-family="Times,serif" font-size="14.00">038 (a)</text>
</g>
<!-- 045&#45;&gt;038 -->
<g id="edge27" class="edge"><title>045&#45;&gt;038</title>
<path fill="none" stroke="#b43f3f" stroke-dasharray="1,5" d="M679.269,-88.8037C693.416,-75.5898 714.1,-56.2693 730.123,-41.3029"/>
<polygon fill="#b43f3f" stroke="#b43f3f" points="732.646,-43.7352 737.565,-34.3513 727.868,-38.6196 732.646,-43.7352"/>
<text text-anchor="middle" x="736" y="-57.8" font-family="Times,serif" font-size="14.00">1 (92.7)</text>
</g>
<!-- 013 -->
<g id="node30" class="node"><title>013</title>
<ellipse fill="#ff8a8a" stroke="#b43f3f" cx="845" cy="-18" rx="36.2938" ry="18"/>
<text text-anchor="middle" x="845" y="-14.3" font-family="Times,serif" font-size="14.00">013 (a)</text>
</g>
<!-- 031&#45;&gt;013 -->
<g id="edge28" class="edge"><title>031&#45;&gt;013</title>
<path fill="none" stroke="#b43f3f" stroke-dasharray="1,5" d="M845,-86.799C845,-75.1626 845,-59.5479 845,-46.2368"/>
<polygon fill="#b43f3f" stroke="#b43f3f" points="848.5,-46.1754 845,-36.1754 841.5,-46.1755 848.5,-46.1754"/>
<text text-anchor="middle" x="867" y="-57.8" font-family="Times,serif" font-size="14.00">1 (97.1)</text>
</g>
<!-- 017 -->
<g id="node31" class="node"><title>017</title>
<ellipse fill="#cea8f4" stroke="#835da9" cx="936" cy="-18" rx="36.2938" ry="18"/>
<text text-anchor="middle" x="936" y="-14.3" font-family="Times,serif" font-size="14.00">017 (b)</text>
</g>
<!-- 031&#45;&gt;017 -->
<g id="edge29" class="edge"><title>031&#45;&gt;017</title>
<path fill="none" stroke="#835da9" stroke-dasharray="1,5" d="M866.372,-90.006C874.992,-83.9634 884.814,-76.5539 893,-69 901.544,-61.1154 910.076,-51.6186 917.26,-43.0293"/>
<polygon fill="#835da9" stroke="#835da9" points="920.077,-45.1135 923.692,-35.1545 914.656,-40.6853 920.077,-45.1135"/>
<text text-anchor="middle" x="929" y="-57.8" font-family="Times,serif" font-size="14.00">1 (94.3)</text>
</g>
<!-- 022 -->
<g id="node27" class="node"><title>022</title>
<ellipse fill="#ff8a8a" stroke="#b43f3f" cx="204" cy="-105" rx="36.2938" ry="18"/>
<text text-anchor="middle" x="204" y="-101.3" font-family="Times,serif" font-size="14.00">022 (a)</text>
</g>
<!-- 044&#45;&gt;022 -->
<g id="edge24" class="edge"><title>044&#45;&gt;022</title>
<path fill="none" stroke="#b43f3f" stroke-dasharray="1,5" d="M278.27,-177.159C269.564,-171.025 259.505,-163.508 251,-156 241.837,-147.911 232.469,-138.276 224.533,-129.632"/>
<polygon fill="#b43f3f" stroke="#b43f3f" points="226.99,-127.129 217.694,-122.045 221.79,-131.816 226.99,-127.129"/>
<text text-anchor="middle" x="273" y="-144.8" font-family="Times,serif" font-size="14.00">1 (91.7)</text>
</g>
<!-- 0141 -->
<g id="node28" class="node"><title>0141</title>
<ellipse fill="#ff8a8a" stroke="#b43f3f" cx="299" cy="-105" rx="40.0939" ry="18"/>
<text text-anchor="middle" x="299" y="-101.3" font-family="Times,serif" font-size="14.00">0141 (a)</text>
</g>
<!-- 044&#45;&gt;0141 -->
<g id="edge25" class="edge"><title>044&#45;&gt;0141</title>
<path fill="none" stroke="#b43f3f" stroke-dasharray="1,5" d="M299,-173.799C299,-162.163 299,-146.548 299,-133.237"/>
<polygon fill="#b43f3f" stroke="#b43f3f" points="302.5,-133.175 299,-123.175 295.5,-133.175 302.5,-133.175"/>
<text text-anchor="middle" x="321" y="-144.8" font-family="Times,serif" font-size="14.00">1 (89.2)</text>
</g>
</g>
</svg>
