<?xml version="1.0" encoding="UTF-8" standalone="no"?>
<!DOCTYPE svg PUBLIC "-//W3C//DTD SVG 1.1//EN"
 "http://www.w3.org/Graphics/SVG/1.1/DTD/svg11.dtd">
<!-- Generated by graphviz version 2.38.0 (20140413.2041)
 -->
<!-- Title: %3 Pages: 1 -->
<svg width="987pt" height="408pt"
 viewBox="0.00 0.00 987.44 408.00" xmlns="http://www.w3.org/2000/svg" xmlns:xlink="http://www.w3.org/1999/xlink">
<g id="graph0" class="graph" transform="scale(1 1) rotate(0) translate(4 404)">
<title>%3</title>
<polygon fill="white" stroke="none" points="-4,4 -4,-404 983.443,-404 983.443,4 -4,4"/>
<g id="clust1" class="cluster"><title>cluster_legend</title>
<path fill="none" stroke="black" d="M342.397,-264C342.397,-264 532.397,-264 532.397,-264 538.397,-264 544.397,-270 544.397,-276 544.397,-276 544.397,-380 544.397,-380 544.397,-386 538.397,-392 532.397,-392 532.397,-392 342.397,-392 342.397,-392 336.397,-392 330.397,-386 330.397,-380 330.397,-380 330.397,-276 330.397,-276 330.397,-270 336.397,-264 342.397,-264"/>
</g>
<!-- leg_s -->
<g id="node1" class="node"><title>leg_s</title>
<text text-anchor="middle" x="437.397" y="-362.3" font-family="Times,serif" font-size="14.00">Textual flow strength</text>
</g>
<!-- leg_e1 -->
<!-- leg_s&#45;&gt;leg_e1 -->
<g id="edge1" class="edge"><title>leg_s&#45;&gt;leg_e1</title>
<path fill="none" stroke="black" stroke-dasharray="1,5" d="M419.062,-347.686C413.529,-342.194 407.557,-335.989 402.397,-330 392.568,-318.593 382.469,-304.779 375.31,-294.563"/>
<polygon fill="black" stroke="black" points="378.011,-292.314 369.453,-286.068 372.248,-296.288 378.011,-292.314"/>
<text text-anchor="middle" x="417.897" y="-318.8" font-family="Times,serif" font-size="14.00">&lt;=5 &#160;</text>
</g>
<!-- leg_e2 -->
<!-- leg_s&#45;&gt;leg_e2 -->
<g id="edge2" class="edge"><title>leg_s&#45;&gt;leg_e2</title>
<path fill="none" stroke="black" stroke-dasharray="5,2" d="M437.397,-347.799C437.397,-332.794 437.397,-311.174 437.397,-296.409"/>
<polygon fill="black" stroke="black" points="440.897,-296.293 437.397,-286.293 433.897,-296.293 440.897,-296.293"/>
<text text-anchor="middle" x="456.397" y="-318.8" font-family="Times,serif" font-size="14.00"> &#160;&lt;=25</text>
</g>
<!-- leg_e3 -->
<!-- leg_s&#45;&gt;leg_e3 -->
<g id="edge3" class="edge"><title>leg_s&#45;&gt;leg_e3</title>
<path fill="none" stroke="black" d="M460.9,-347.76C467.303,-342.462 473.963,-336.344 479.397,-330 488.484,-319.39 496.492,-305.689 501.943,-295.313"/>
<polygon fill="black" stroke="black" points="505.119,-296.789 506.488,-286.283 498.866,-293.642 505.119,-296.789"/>
<text text-anchor="middle" x="501.397" y="-318.8" font-family="Times,serif" font-size="14.00">&gt;25</text>
</g>
<!-- 044 -->
<g id="node5" class="node"><title>044</title>
<ellipse fill="#ff8a8a" stroke="#b43f3f" cx="590.397" cy="-279" rx="36.2938" ry="18"/>
<text text-anchor="middle" x="590.397" y="-275.3" font-family="Times,serif" font-size="14.00">044 (a)</text>
</g>
<!-- 07 -->
<g id="node6" class="node"><title>07</title>
<ellipse fill="#ff8a8a" stroke="#b43f3f" cx="222.397" cy="-192" rx="31.6951" ry="18"/>
<text text-anchor="middle" x="222.397" y="-188.3" font-family="Times,serif" font-size="14.00">07 (a)</text>
</g>
<!-- 044&#45;&gt;07 -->
<g id="edge4" class="edge"><title>044&#45;&gt;07</title>
<path fill="none" stroke="#b43f3f" stroke-dasharray="1,5" d="M564.536,-266.328C559.277,-264.299 553.723,-262.396 548.397,-261 487.711,-245.1 469.939,-255.171 408.397,-243 356.075,-232.653 296.746,-215.789 259.454,-204.546"/>
<polygon fill="#b43f3f" stroke="#b43f3f" points="260.13,-201.094 249.544,-201.534 258.094,-207.791 260.13,-201.094"/>
<text text-anchor="middle" x="430.397" y="-231.8" font-family="Times,serif" font-size="14.00">2 (83.8)</text>
</g>
<!-- 028 -->
<g id="node7" class="node"><title>028</title>
<ellipse fill="#ff8a8a" stroke="#b43f3f" cx="408.397" cy="-192" rx="36.2938" ry="18"/>
<text text-anchor="middle" x="408.397" y="-188.3" font-family="Times,serif" font-size="14.00">028 (a)</text>
</g>
<!-- 044&#45;&gt;028 -->
<g id="edge5" class="edge"><title>044&#45;&gt;028</title>
<path fill="none" stroke="#b43f3f" stroke-dasharray="1,5" d="M563.467,-266.535C558.495,-264.58 553.319,-262.651 548.397,-261 519.163,-251.197 509.404,-255.896 481.397,-243 464.8,-235.358 447.867,-224.024 434.492,-214.077"/>
<polygon fill="#b43f3f" stroke="#b43f3f" points="436.33,-211.077 426.257,-207.795 432.084,-216.643 436.33,-211.077"/>
<text text-anchor="middle" x="503.397" y="-231.8" font-family="Times,serif" font-size="14.00">2 (81.1)</text>
</g>
<!-- 021 -->
<g id="node8" class="node"><title>021</title>
<ellipse fill="#ff8a8a" stroke="#b43f3f" cx="499.397" cy="-192" rx="36.2938" ry="18"/>
<text text-anchor="middle" x="499.397" y="-188.3" font-family="Times,serif" font-size="14.00">021 (a)</text>
</g>
<!-- 044&#45;&gt;021 -->
<g id="edge6" class="edge"><title>044&#45;&gt;021</title>
<path fill="none" stroke="#b43f3f" stroke-dasharray="1,5" d="M569.025,-264.006C560.404,-257.963 550.582,-250.554 542.397,-243 533.853,-235.115 525.321,-225.619 518.136,-217.029"/>
<polygon fill="#b43f3f" stroke="#b43f3f" points="520.741,-214.685 511.704,-209.155 515.32,-219.113 520.741,-214.685"/>
<text text-anchor="middle" x="564.397" y="-231.8" font-family="Times,serif" font-size="14.00">2 (83.8)</text>
</g>
<!-- 045 -->
<g id="node9" class="node"><title>045</title>
<ellipse fill="#ff8a8a" stroke="#b43f3f" cx="590.397" cy="-192" rx="36.2938" ry="18"/>
<text text-anchor="middle" x="590.397" y="-188.3" font-family="Times,serif" font-size="14.00">045 (a)</text>
</g>
<!-- 044&#45;&gt;045 -->
<g id="edge7" class="edge"><title>044&#45;&gt;045</title>
<path fill="none" stroke="#b43f3f" stroke-dasharray="1,5" d="M590.397,-260.799C590.397,-249.163 590.397,-233.548 590.397,-220.237"/>
<polygon fill="#b43f3f" stroke="#b43f3f" points="593.897,-220.175 590.397,-210.175 586.897,-220.175 593.897,-220.175"/>
<text text-anchor="middle" x="612.397" y="-231.8" font-family="Times,serif" font-size="14.00">2 (81.1)</text>
</g>
<!-- 022 -->
<g id="node10" class="node"><title>022</title>
<ellipse fill="#ff8a8a" stroke="#b43f3f" cx="681.397" cy="-192" rx="36.2938" ry="18"/>
<text text-anchor="middle" x="681.397" y="-188.3" font-family="Times,serif" font-size="14.00">022 (a)</text>
</g>
<!-- 044&#45;&gt;022 -->
<g id="edge8" class="edge"><title>044&#45;&gt;022</title>
<path fill="none" stroke="#b43f3f" stroke-dasharray="1,5" d="M611.768,-264.006C620.389,-257.963 630.211,-250.554 638.397,-243 646.941,-235.115 655.472,-225.619 662.657,-217.029"/>
<polygon fill="#b43f3f" stroke="#b43f3f" points="665.474,-219.113 669.089,-209.155 660.053,-214.685 665.474,-219.113"/>
<text text-anchor="middle" x="674.397" y="-231.8" font-family="Times,serif" font-size="14.00">1 (91.7)</text>
</g>
<!-- 011 -->
<g id="node11" class="node"><title>011</title>
<ellipse fill="#ff8a8a" stroke="#b43f3f" cx="772.397" cy="-192" rx="36.2938" ry="18"/>
<text text-anchor="middle" x="772.397" y="-188.3" font-family="Times,serif" font-size="14.00">011 (a)</text>
</g>
<!-- 044&#45;&gt;011 -->
<g id="edge9" class="edge"><title>044&#45;&gt;011</title>
<path fill="none" stroke="#b43f3f" stroke-dasharray="1,5" d="M618.492,-267.213C624.377,-265.067 630.567,-262.894 636.397,-261 664.499,-251.871 673.67,-255.601 700.397,-243 716.657,-235.334 733.241,-224.096 746.388,-214.216"/>
<polygon fill="#b43f3f" stroke="#b43f3f" points="748.709,-216.847 754.494,-207.97 744.436,-211.302 748.709,-216.847"/>
<text text-anchor="middle" x="748.397" y="-231.8" font-family="Times,serif" font-size="14.00">2 (86.5)</text>
</g>
<!-- 0141 -->
<g id="node12" class="node"><title>0141</title>
<ellipse fill="#ff8a8a" stroke="#b43f3f" cx="867.397" cy="-192" rx="40.0939" ry="18"/>
<text text-anchor="middle" x="867.397" y="-188.3" font-family="Times,serif" font-size="14.00">0141 (a)</text>
</g>
<!-- 044&#45;&gt;0141 -->
<g id="edge10" class="edge"><title>044&#45;&gt;0141</title>
<path fill="none" stroke="#b43f3f" stroke-dasharray="1,5" d="M617.813,-266.728C623.856,-264.566 630.28,-262.509 636.397,-261 696.45,-246.186 715.521,-261.957 774.397,-243 796.537,-235.871 819.576,-223.526 837.184,-212.887"/>
<polygon fill="#b43f3f" stroke="#b43f3f" points="839.202,-215.754 845.864,-207.515 835.518,-209.802 839.202,-215.754"/>
<text text-anchor="middle" x="831.397" y="-231.8" font-family="Times,serif" font-size="14.00">1 (89.2)</text>
</g>
<!-- 037 -->
<g id="node13" class="node"><title>037</title>
<ellipse fill="#ff8a8a" stroke="#b43f3f" cx="36.3968" cy="-105" rx="36.2938" ry="18"/>
<text text-anchor="middle" x="36.3968" y="-101.3" font-family="Times,serif" font-size="14.00">037 (a)</text>
</g>
<!-- 07&#45;&gt;037 -->
<g id="edge11" class="edge"><title>07&#45;&gt;037</title>
<path fill="none" stroke="#b43f3f" stroke-dasharray="1,5" d="M193.263,-184.226C170.365,-178.337 138.003,-168.745 111.397,-156 94.4497,-147.882 76.8999,-136.379 63.0413,-126.452"/>
<polygon fill="#b43f3f" stroke="#b43f3f" points="65.066,-123.597 54.9278,-120.52 60.9343,-129.248 65.066,-123.597"/>
<text text-anchor="middle" x="133.397" y="-144.8" font-family="Times,serif" font-size="14.00">1 (97.5)</text>
</g>
<!-- 030 -->
<g id="node14" class="node"><title>030</title>
<ellipse fill="#ff8a8a" stroke="#b43f3f" cx="127.397" cy="-105" rx="36.2938" ry="18"/>
<text text-anchor="middle" x="127.397" y="-101.3" font-family="Times,serif" font-size="14.00">030 (a)</text>
</g>
<!-- 07&#45;&gt;030 -->
<g id="edge12" class="edge"><title>07&#45;&gt;030</title>
<path fill="none" stroke="#b43f3f" stroke-dasharray="1,5" d="M202.611,-177.822C193.694,-171.572 183.211,-163.781 174.397,-156 165.233,-147.911 155.866,-138.276 147.93,-129.632"/>
<polygon fill="#b43f3f" stroke="#b43f3f" points="150.386,-127.129 141.091,-122.045 145.187,-131.816 150.386,-127.129"/>
<text text-anchor="middle" x="196.397" y="-144.8" font-family="Times,serif" font-size="14.00">1 (95.1)</text>
</g>
<!-- 0211 -->
<g id="node15" class="node"><title>0211</title>
<ellipse fill="#ff8a8a" stroke="#b43f3f" cx="222.397" cy="-105" rx="40.0939" ry="18"/>
<text text-anchor="middle" x="222.397" y="-101.3" font-family="Times,serif" font-size="14.00">0211 (a)</text>
</g>
<!-- 07&#45;&gt;0211 -->
<g id="edge13" class="edge"><title>07&#45;&gt;0211</title>
<path fill="none" stroke="#b43f3f" stroke-dasharray="1,5" d="M222.397,-173.799C222.397,-162.163 222.397,-146.548 222.397,-133.237"/>
<polygon fill="#b43f3f" stroke="#b43f3f" points="225.897,-133.175 222.397,-123.175 218.897,-133.175 225.897,-133.175"/>
<text text-anchor="middle" x="244.397" y="-144.8" font-family="Times,serif" font-size="14.00">2 (82.9)</text>
</g>
<!-- 034 -->
<g id="node16" class="node"><title>034</title>
<ellipse fill="#ff8a8a" stroke="#b43f3f" cx="317.397" cy="-105" rx="36.2938" ry="18"/>
<text text-anchor="middle" x="317.397" y="-101.3" font-family="Times,serif" font-size="14.00">034 (a)</text>
</g>
<!-- 07&#45;&gt;034 -->
<g id="edge14" class="edge"><title>07&#45;&gt;034</title>
<path fill="none" stroke="#b43f3f" stroke-dasharray="1,5" d="M242.182,-177.822C251.1,-171.572 261.582,-163.781 270.397,-156 279.56,-147.911 288.927,-138.276 296.863,-129.632"/>
<polygon fill="#b43f3f" stroke="#b43f3f" points="299.606,-131.816 303.702,-122.045 294.407,-127.129 299.606,-131.816"/>
<text text-anchor="middle" x="308.397" y="-144.8" font-family="Times,serif" font-size="14.00">1 (95.1)</text>
</g>
<!-- 036 -->
<g id="node17" class="node"><title>036</title>
<ellipse fill="#ff8a8a" stroke="#b43f3f" cx="408.397" cy="-105" rx="36.2938" ry="18"/>
<text text-anchor="middle" x="408.397" y="-101.3" font-family="Times,serif" font-size="14.00">036 (a)</text>
</g>
<!-- 021&#45;&gt;036 -->
<g id="edge15" class="edge"><title>021&#45;&gt;036</title>
<path fill="none" stroke="#b43f3f" stroke-dasharray="1,5" d="M478.025,-177.006C469.404,-170.963 459.582,-163.554 451.397,-156 442.853,-148.115 434.321,-138.619 427.136,-130.029"/>
<polygon fill="#b43f3f" stroke="#b43f3f" points="429.741,-127.685 420.704,-122.155 424.32,-132.113 429.741,-127.685"/>
<text text-anchor="middle" x="473.397" y="-144.8" font-family="Times,serif" font-size="14.00">1 (97.6)</text>
</g>
<!-- 047 -->
<g id="node18" class="node"><title>047</title>
<ellipse fill="#ff8a8a" stroke="#b43f3f" cx="499.397" cy="-105" rx="36.2938" ry="18"/>
<text text-anchor="middle" x="499.397" y="-101.3" font-family="Times,serif" font-size="14.00">047 (a)</text>
</g>
<!-- 021&#45;&gt;047 -->
<g id="edge16" class="edge"><title>021&#45;&gt;047</title>
<path fill="none" stroke="#b43f3f" stroke-dasharray="1,5" d="M499.397,-173.799C499.397,-162.163 499.397,-146.548 499.397,-133.237"/>
<polygon fill="#b43f3f" stroke="#b43f3f" points="502.897,-133.175 499.397,-123.175 495.897,-133.175 502.897,-133.175"/>
<text text-anchor="middle" x="521.397" y="-144.8" font-family="Times,serif" font-size="14.00">1 (95.1)</text>
</g>
<!-- 038 -->
<g id="node22" class="node"><title>038</title>
<ellipse fill="#ff8a8a" stroke="#b43f3f" cx="590.397" cy="-105" rx="36.2938" ry="18"/>
<text text-anchor="middle" x="590.397" y="-101.3" font-family="Times,serif" font-size="14.00">038 (a)</text>
</g>
<!-- 045&#45;&gt;038 -->
<g id="edge20" class="edge"><title>045&#45;&gt;038</title>
<path fill="none" stroke="#b43f3f" stroke-dasharray="1,5" d="M590.397,-173.799C590.397,-162.163 590.397,-146.548 590.397,-133.237"/>
<polygon fill="#b43f3f" stroke="#b43f3f" points="593.897,-133.175 590.397,-123.175 586.897,-133.175 593.897,-133.175"/>
<text text-anchor="middle" x="612.397" y="-144.8" font-family="Times,serif" font-size="14.00">1 (92.7)</text>
</g>
<!-- 031 -->
<g id="node23" class="node"><title>031</title>
<ellipse fill="#ff8a8a" stroke="#b43f3f" cx="681.397" cy="-105" rx="36.2938" ry="18"/>
<text text-anchor="middle" x="681.397" y="-101.3" font-family="Times,serif" font-size="14.00">031 (a)</text>
</g>
<!-- 022&#45;&gt;031 -->
<g id="edge21" class="edge"><title>022&#45;&gt;031</title>
<path fill="none" stroke="#b43f3f" stroke-dasharray="1,5" d="M681.397,-173.799C681.397,-162.163 681.397,-146.548 681.397,-133.237"/>
<polygon fill="#b43f3f" stroke="#b43f3f" points="684.897,-133.175 681.397,-123.175 677.897,-133.175 684.897,-133.175"/>
<text text-anchor="middle" x="703.397" y="-144.8" font-family="Times,serif" font-size="14.00">2 (86.7)</text>
</g>
<!-- 03 -->
<g id="node19" class="node"><title>03</title>
<ellipse fill="#ff8a8a" stroke="#b43f3f" cx="681.397" cy="-366" rx="31.6951" ry="18"/>
<text text-anchor="middle" x="681.397" y="-362.3" font-family="Times,serif" font-size="14.00">03 (a)</text>
</g>
<!-- 03&#45;&gt;044 -->
<g id="edge17" class="edge"><title>03&#45;&gt;044</title>
<path fill="none" stroke="#b43f3f" stroke-dasharray="1,5" d="M660.978,-351.672C652.134,-345.512 641.886,-337.834 633.397,-330 624.853,-322.115 616.321,-312.619 609.136,-304.029"/>
<polygon fill="#b43f3f" stroke="#b43f3f" points="611.741,-301.685 602.704,-296.155 606.32,-306.113 611.741,-301.685"/>
<text text-anchor="middle" x="655.397" y="-318.8" font-family="Times,serif" font-size="14.00">1 (89.2)</text>
</g>
<!-- 032 -->
<g id="node20" class="node"><title>032</title>
<ellipse fill="#ff8a8a" stroke="#b43f3f" cx="681.397" cy="-279" rx="36.2938" ry="18"/>
<text text-anchor="middle" x="681.397" y="-275.3" font-family="Times,serif" font-size="14.00">032 (a)</text>
</g>
<!-- 03&#45;&gt;032 -->
<g id="edge18" class="edge"><title>03&#45;&gt;032</title>
<path fill="none" stroke="#b43f3f" stroke-dasharray="1,5" d="M681.397,-347.799C681.397,-336.163 681.397,-320.548 681.397,-307.237"/>
<polygon fill="#b43f3f" stroke="#b43f3f" points="684.897,-307.175 681.397,-297.175 677.897,-307.175 684.897,-307.175"/>
<text text-anchor="middle" x="703.397" y="-318.8" font-family="Times,serif" font-size="14.00">1 (91.7)</text>
</g>
<!-- 02 -->
<g id="node21" class="node"><title>02</title>
<ellipse fill="#ff8a8a" stroke="#b43f3f" cx="767.397" cy="-279" rx="31.6951" ry="18"/>
<text text-anchor="middle" x="767.397" y="-275.3" font-family="Times,serif" font-size="14.00">02 (a)</text>
</g>
<!-- 03&#45;&gt;02 -->
<g id="edge19" class="edge"><title>03&#45;&gt;02</title>
<path fill="none" stroke="#b43f3f" stroke-dasharray="1,5" d="M702.044,-351.912C710.93,-345.796 721.148,-338.086 729.397,-330 737.221,-322.329 744.759,-312.975 751.029,-304.442"/>
<polygon fill="#b43f3f" stroke="#b43f3f" points="753.894,-306.452 756.84,-296.275 748.191,-302.394 753.894,-306.452"/>
<text text-anchor="middle" x="764.397" y="-318.8" font-family="Times,serif" font-size="14.00">1 (86.5)</text>
</g>
<!-- 017 -->
<g id="node24" class="node"><title>017</title>
<ellipse fill="#ff8a8a" stroke="#b43f3f" cx="636.397" cy="-18" rx="36.2938" ry="18"/>
<text text-anchor="middle" x="636.397" y="-14.3" font-family="Times,serif" font-size="14.00">017 (a)</text>
</g>
<!-- 031&#45;&gt;017 -->
<g id="edge22" class="edge"><title>031&#45;&gt;017</title>
<path fill="none" stroke="#b43f3f" stroke-dasharray="1,5" d="M671.644,-87.3706C668.322,-81.5933 664.633,-75.047 661.397,-69 657.229,-61.2133 652.866,-52.6446 648.972,-44.8337"/>
<polygon fill="#b43f3f" stroke="#b43f3f" points="652.069,-43.1997 644.5,-35.7855 645.793,-46.3011 652.069,-43.1997"/>
<text text-anchor="middle" x="683.397" y="-57.8" font-family="Times,serif" font-size="14.00">1 (94.3)</text>
</g>
<!-- 013 -->
<g id="node25" class="node"><title>013</title>
<ellipse fill="#ff8a8a" stroke="#b43f3f" cx="727.397" cy="-18" rx="36.2938" ry="18"/>
<text text-anchor="middle" x="727.397" y="-14.3" font-family="Times,serif" font-size="14.00">013 (a)</text>
</g>
<!-- 031&#45;&gt;013 -->
<g id="edge23" class="edge"><title>031&#45;&gt;013</title>
<path fill="none" stroke="#b43f3f" stroke-dasharray="1,5" d="M693.526,-87.6704C697.546,-81.9172 701.886,-75.3093 705.397,-69 709.547,-61.5417 713.498,-53.1477 716.877,-45.3977"/>
<polygon fill="#b43f3f" stroke="#b43f3f" points="720.161,-46.6185 720.824,-36.0444 713.712,-43.8974 720.161,-46.6185"/>
<text text-anchor="middle" x="735.397" y="-57.8" font-family="Times,serif" font-size="14.00">1 (97.1)</text>
</g>
<!-- 019 -->
<g id="node26" class="node"><title>019</title>
<ellipse fill="#cea8f4" stroke="#835da9" cx="767.397" cy="-366" rx="36.2938" ry="18"/>
<text text-anchor="middle" x="767.397" y="-362.3" font-family="Times,serif" font-size="14.00">019 (b)</text>
</g>
<!-- 01 -->
<g id="node27" class="node"><title>01</title>
<ellipse fill="#cea8f4" stroke="#835da9" cx="854.397" cy="-366" rx="32.4942" ry="18"/>
<text text-anchor="middle" x="854.397" y="-362.3" font-family="Times,serif" font-size="14.00">01 (b)</text>
</g>
<!-- P75 -->
<g id="node28" class="node"><title>P75</title>
<ellipse fill="#cea8f4" stroke="#835da9" cx="942.397" cy="-366" rx="37.0935" ry="18"/>
<text text-anchor="middle" x="942.397" y="-362.3" font-family="Times,serif" font-size="14.00">P75 (b)</text>
</g>
</g>
</svg>
