<?xml version="1.0" encoding="UTF-8" standalone="no"?>
<!DOCTYPE svg PUBLIC "-//W3C//DTD SVG 1.1//EN"
 "http://www.w3.org/Graphics/SVG/1.1/DTD/svg11.dtd">
<!-- Generated by graphviz version 2.38.0 (20140413.2041)
 -->
<!-- Title: %3 Pages: 1 -->
<svg width="1070pt" height="163pt"
 viewBox="0.00 0.00 1070.00 163.00" xmlns="http://www.w3.org/2000/svg" xmlns:xlink="http://www.w3.org/1999/xlink">
<g id="graph0" class="graph" transform="scale(1 1) rotate(0) translate(4 159)">
<title>%3</title>
<polygon fill="white" stroke="none" points="-4,4 -4,-159 1066,-159 1066,4 -4,4"/>
<g id="clust1" class="cluster"><title>cluster_legend</title>
<path fill="none" stroke="black" d="M20,-19C20,-19 210,-19 210,-19 216,-19 222,-25 222,-31 222,-31 222,-135 222,-135 222,-141 216,-147 210,-147 210,-147 20,-147 20,-147 14,-147 8,-141 8,-135 8,-135 8,-31 8,-31 8,-25 14,-19 20,-19"/>
</g>
<g id="clust2" class="cluster"><title>cluster_reading</title>
<polygon fill="none" stroke="black" points="230,-8 230,-147 1054,-147 1054,-8 230,-8"/>
</g>
<!-- leg_s -->
<g id="node1" class="node"><title>leg_s</title>
<text text-anchor="middle" x="115" y="-117.3" font-family="Times,serif" font-size="14.00">Textual flow strength</text>
</g>
<!-- leg_e1 -->
<!-- leg_s&#45;&gt;leg_e1 -->
<g id="edge1" class="edge"><title>leg_s&#45;&gt;leg_e1</title>
<path fill="none" stroke="black" stroke-dasharray="1,5" d="M96.6657,-102.686C91.1324,-97.1938 85.1607,-90.9891 80,-85 70.1708,-73.593 60.0722,-59.7786 52.9137,-49.5634"/>
<polygon fill="black" stroke="black" points="55.6142,-47.3142 47.056,-41.0685 49.8514,-51.2879 55.6142,-47.3142"/>
<text text-anchor="middle" x="95.5" y="-73.8" font-family="Times,serif" font-size="14.00">&lt;=5 &#160;</text>
</g>
<!-- leg_e2 -->
<!-- leg_s&#45;&gt;leg_e2 -->
<g id="edge2" class="edge"><title>leg_s&#45;&gt;leg_e2</title>
<path fill="none" stroke="black" stroke-dasharray="5,2" d="M115,-102.799C115,-87.7942 115,-66.1745 115,-51.4086"/>
<polygon fill="black" stroke="black" points="118.5,-51.2934 115,-41.2934 111.5,-51.2934 118.5,-51.2934"/>
<text text-anchor="middle" x="134" y="-73.8" font-family="Times,serif" font-size="14.00"> &#160;&lt;=25</text>
</g>
<!-- leg_e3 -->
<!-- leg_s&#45;&gt;leg_e3 -->
<g id="edge3" class="edge"><title>leg_s&#45;&gt;leg_e3</title>
<path fill="none" stroke="black" d="M138.503,-102.76C144.906,-97.4621 151.567,-91.3439 157,-85 166.087,-74.3897 174.095,-60.6892 179.546,-50.3134"/>
<polygon fill="black" stroke="black" points="182.722,-51.7893 184.091,-41.2833 176.469,-48.6425 182.722,-51.7893"/>
<text text-anchor="middle" x="179" y="-73.8" font-family="Times,serif" font-size="14.00">&gt;25</text>
</g>
<!-- 031 -->
<g id="node5" class="node"><title>031</title>
<ellipse fill="#ff8a8a" stroke="#b43f3f" cx="961" cy="-121" rx="36.2938" ry="18"/>
<text text-anchor="middle" x="961" y="-117.3" font-family="Times,serif" font-size="14.00">031 (a)</text>
</g>
<!-- 013 -->
<g id="node6" class="node"><title>013</title>
<ellipse fill="#ff8a8a" stroke="#b43f3f" cx="919" cy="-34" rx="36.2938" ry="18"/>
<text text-anchor="middle" x="919" y="-30.3" font-family="Times,serif" font-size="14.00">013 (a)</text>
</g>
<!-- 031&#45;&gt;013 -->
<g id="edge4" class="edge"><title>031&#45;&gt;013</title>
<path fill="none" stroke="#b43f3f" stroke-dasharray="1,5" d="M945.523,-104.327C940.6,-98.6263 935.524,-91.8838 932,-85 928.403,-77.9743 925.743,-69.8705 923.801,-62.2601"/>
<polygon fill="#b43f3f" stroke="#b43f3f" points="927.179,-61.3279 921.576,-52.3355 920.348,-62.859 927.179,-61.3279"/>
<text text-anchor="middle" x="954" y="-73.8" font-family="Times,serif" font-size="14.00">1 (97.1)</text>
</g>
<!-- 017 -->
<g id="node7" class="node"><title>017</title>
<ellipse fill="#ff8a8a" stroke="#b43f3f" cx="1010" cy="-34" rx="36.2938" ry="18"/>
<text text-anchor="middle" x="1010" y="-30.3" font-family="Times,serif" font-size="14.00">017 (a)</text>
</g>
<!-- 031&#45;&gt;017 -->
<g id="edge5" class="edge"><title>031&#45;&gt;017</title>
<path fill="none" stroke="#b43f3f" stroke-dasharray="1,5" d="M970.448,-103.611C977.52,-91.3433 987.324,-74.3364 995.401,-60.3242"/>
<polygon fill="#b43f3f" stroke="#b43f3f" points="998.452,-62.0401 1000.41,-51.6286 992.388,-58.5441 998.452,-62.0401"/>
<text text-anchor="middle" x="1010" y="-73.8" font-family="Times,serif" font-size="14.00">1 (94.3)</text>
</g>
<!-- 07 -->
<g id="node8" class="node"><title>07</title>
<ellipse fill="#ff8a8a" stroke="#b43f3f" cx="734" cy="-121" rx="31.6951" ry="18"/>
<text text-anchor="middle" x="734" y="-117.3" font-family="Times,serif" font-size="14.00">07 (a)</text>
</g>
<!-- 0211 -->
<g id="node9" class="node"><title>0211</title>
<ellipse fill="#ff8a8a" stroke="#b43f3f" cx="551" cy="-34" rx="40.0939" ry="18"/>
<text text-anchor="middle" x="551" y="-30.3" font-family="Times,serif" font-size="14.00">0211 (a)</text>
</g>
<!-- 07&#45;&gt;0211 -->
<g id="edge6" class="edge"><title>07&#45;&gt;0211</title>
<path fill="none" stroke="#b43f3f" stroke-dasharray="1,5" d="M709.148,-109.675C703.242,-107.361 696.933,-105.001 691,-103 663.002,-93.5558 653.882,-97.2649 627,-85 609.865,-77.1822 592.203,-65.7984 578.222,-55.8671"/>
<polygon fill="#b43f3f" stroke="#b43f3f" points="580.178,-52.9622 570.031,-49.9161 576.064,-58.6254 580.178,-52.9622"/>
<text text-anchor="middle" x="649" y="-73.8" font-family="Times,serif" font-size="14.00">2 (82.9)</text>
</g>
<!-- 037 -->
<g id="node10" class="node"><title>037</title>
<ellipse fill="#ff8a8a" stroke="#b43f3f" cx="646" cy="-34" rx="36.2938" ry="18"/>
<text text-anchor="middle" x="646" y="-30.3" font-family="Times,serif" font-size="14.00">037 (a)</text>
</g>
<!-- 07&#45;&gt;037 -->
<g id="edge7" class="edge"><title>07&#45;&gt;037</title>
<path fill="none" stroke="#b43f3f" stroke-dasharray="1,5" d="M714.433,-106.595C705.958,-100.422 696.137,-92.7533 688,-85 679.666,-77.0584 671.335,-67.5499 664.316,-58.9672"/>
<polygon fill="#b43f3f" stroke="#b43f3f" points="667.009,-56.7301 658.031,-51.1034 661.54,-61.1003 667.009,-56.7301"/>
<text text-anchor="middle" x="710" y="-73.8" font-family="Times,serif" font-size="14.00">1 (97.5)</text>
</g>
<!-- 034 -->
<g id="node11" class="node"><title>034</title>
<ellipse fill="#ff8a8a" stroke="#b43f3f" cx="737" cy="-34" rx="36.2938" ry="18"/>
<text text-anchor="middle" x="737" y="-30.3" font-family="Times,serif" font-size="14.00">034 (a)</text>
</g>
<!-- 07&#45;&gt;034 -->
<g id="edge8" class="edge"><title>07&#45;&gt;034</title>
<path fill="none" stroke="#b43f3f" stroke-dasharray="1,5" d="M734.607,-102.799C735.018,-91.1626 735.569,-75.5479 736.039,-62.2368"/>
<polygon fill="#b43f3f" stroke="#b43f3f" points="739.539,-62.2927 736.394,-52.1754 732.543,-62.0457 739.539,-62.2927"/>
<text text-anchor="middle" x="758" y="-73.8" font-family="Times,serif" font-size="14.00">1 (95.1)</text>
</g>
<!-- 030 -->
<g id="node12" class="node"><title>030</title>
<ellipse fill="#ff8a8a" stroke="#b43f3f" cx="828" cy="-34" rx="36.2938" ry="18"/>
<text text-anchor="middle" x="828" y="-30.3" font-family="Times,serif" font-size="14.00">030 (a)</text>
</g>
<!-- 07&#45;&gt;030 -->
<g id="edge9" class="edge"><title>07&#45;&gt;030</title>
<path fill="none" stroke="#b43f3f" stroke-dasharray="1,5" d="M754.776,-107.075C764.098,-100.876 774.998,-93.0548 784,-85 792.75,-77.1702 801.482,-67.6848 808.833,-59.0893"/>
<polygon fill="#b43f3f" stroke="#b43f3f" points="811.693,-61.1242 815.413,-51.2039 806.319,-56.6393 811.693,-61.1242"/>
<text text-anchor="middle" x="820" y="-73.8" font-family="Times,serif" font-size="14.00">1 (95.1)</text>
</g>
<!-- 045 -->
<g id="node13" class="node"><title>045</title>
<ellipse fill="#ff8a8a" stroke="#b43f3f" cx="646" cy="-121" rx="36.2938" ry="18"/>
<text text-anchor="middle" x="646" y="-117.3" font-family="Times,serif" font-size="14.00">045 (a)</text>
</g>
<!-- 038 -->
<g id="node14" class="node"><title>038</title>
<ellipse fill="#ff8a8a" stroke="#b43f3f" cx="456" cy="-34" rx="36.2938" ry="18"/>
<text text-anchor="middle" x="456" y="-30.3" font-family="Times,serif" font-size="14.00">038 (a)</text>
</g>
<!-- 045&#45;&gt;038 -->
<g id="edge10" class="edge"><title>045&#45;&gt;038</title>
<path fill="none" stroke="#b43f3f" stroke-dasharray="1,5" d="M617.809,-109.579C592.765,-100.29 559.188,-87.7483 553,-85 530.929,-75.1982 506.789,-62.7615 488.112,-52.7438"/>
<polygon fill="#b43f3f" stroke="#b43f3f" points="489.611,-49.5754 479.15,-47.8979 486.282,-55.733 489.611,-49.5754"/>
<text text-anchor="middle" x="575" y="-73.8" font-family="Times,serif" font-size="14.00">1 (92.7)</text>
</g>
<!-- 021 -->
<g id="node15" class="node"><title>021</title>
<ellipse fill="#ff8a8a" stroke="#b43f3f" cx="555" cy="-121" rx="36.2938" ry="18"/>
<text text-anchor="middle" x="555" y="-117.3" font-family="Times,serif" font-size="14.00">021 (a)</text>
</g>
<!-- 036 -->
<g id="node16" class="node"><title>036</title>
<ellipse fill="#ff8a8a" stroke="#b43f3f" cx="274" cy="-34" rx="36.2938" ry="18"/>
<text text-anchor="middle" x="274" y="-30.3" font-family="Times,serif" font-size="14.00">036 (a)</text>
</g>
<!-- 021&#45;&gt;036 -->
<g id="edge11" class="edge"><title>021&#45;&gt;036</title>
<path fill="none" stroke="#b43f3f" stroke-dasharray="1,5" d="M527.547,-108.872C521.507,-106.701 515.093,-104.604 509,-103 460.668,-90.2783 446.14,-98.4281 398,-85 367.011,-76.3559 333.23,-62.4155 308.764,-51.4476"/>
<polygon fill="#b43f3f" stroke="#b43f3f" points="310.093,-48.2074 299.541,-47.2563 307.197,-54.5802 310.093,-48.2074"/>
<text text-anchor="middle" x="420" y="-73.8" font-family="Times,serif" font-size="14.00">1 (97.6)</text>
</g>
<!-- 047 -->
<g id="node17" class="node"><title>047</title>
<ellipse fill="#ff8a8a" stroke="#b43f3f" cx="365" cy="-34" rx="36.2938" ry="18"/>
<text text-anchor="middle" x="365" y="-30.3" font-family="Times,serif" font-size="14.00">047 (a)</text>
</g>
<!-- 021&#45;&gt;047 -->
<g id="edge12" class="edge"><title>021&#45;&gt;047</title>
<path fill="none" stroke="#b43f3f" stroke-dasharray="1,5" d="M528.649,-108.374C513.281,-101.582 493.531,-92.832 476,-85 450.617,-73.6604 422.014,-60.7736 400.201,-50.9231"/>
<polygon fill="#b43f3f" stroke="#b43f3f" points="401.55,-47.692 390.996,-46.7644 398.668,-54.0712 401.55,-47.692"/>
<text text-anchor="middle" x="498" y="-73.8" font-family="Times,serif" font-size="14.00">1 (95.1)</text>
</g>
<!-- 011 -->
<g id="node18" class="node"><title>011</title>
<ellipse fill="#ff8a8a" stroke="#b43f3f" cx="464" cy="-121" rx="36.2938" ry="18"/>
<text text-anchor="middle" x="464" y="-117.3" font-family="Times,serif" font-size="14.00">011 (a)</text>
</g>
<!-- 028 -->
<g id="node19" class="node"><title>028</title>
<ellipse fill="#ff8a8a" stroke="#b43f3f" cx="373" cy="-121" rx="36.2938" ry="18"/>
<text text-anchor="middle" x="373" y="-117.3" font-family="Times,serif" font-size="14.00">028 (a)</text>
</g>
<!-- 0141 -->
<g id="node20" class="node"><title>0141</title>
<ellipse fill="#ff8a8a" stroke="#b43f3f" cx="278" cy="-121" rx="40.0939" ry="18"/>
<text text-anchor="middle" x="278" y="-117.3" font-family="Times,serif" font-size="14.00">0141 (a)</text>
</g>
</g>
</svg>
