<?xml version="1.0" encoding="UTF-8" standalone="no"?>
<!DOCTYPE svg PUBLIC "-//W3C//DTD SVG 1.1//EN"
 "http://www.w3.org/Graphics/SVG/1.1/DTD/svg11.dtd">
<!-- Generated by graphviz version 2.38.0 (20140413.2041)
 -->
<!-- Title: %3 Pages: 1 -->
<svg width="691pt" height="337pt"
 viewBox="0.00 0.00 691.00 337.00" xmlns="http://www.w3.org/2000/svg" xmlns:xlink="http://www.w3.org/1999/xlink">
<g id="graph0" class="graph" transform="scale(1 1) rotate(0) translate(4 333)">
<title>%3</title>
<polygon fill="white" stroke="none" points="-4,4 -4,-333 687,-333 687,4 -4,4"/>
<g id="clust1" class="cluster"><title>cluster_legend</title>
<path fill="none" stroke="black" d="M20,-193C20,-193 210,-193 210,-193 216,-193 222,-199 222,-205 222,-205 222,-309 222,-309 222,-315 216,-321 210,-321 210,-321 20,-321 20,-321 14,-321 8,-315 8,-309 8,-309 8,-205 8,-205 8,-199 14,-193 20,-193"/>
</g>
<g id="clust2" class="cluster"><title>cluster_reading</title>
<polygon fill="none" stroke="black" points="230,-8 230,-321 675,-321 675,-8 230,-8"/>
</g>
<!-- leg_s -->
<g id="node1" class="node"><title>leg_s</title>
<text text-anchor="middle" x="115" y="-291.3" font-family="Times,serif" font-size="14.00">Textual flow strength</text>
</g>
<!-- leg_e1 -->
<!-- leg_s&#45;&gt;leg_e1 -->
<g id="edge1" class="edge"><title>leg_s&#45;&gt;leg_e1</title>
<path fill="none" stroke="black" stroke-dasharray="1,5" d="M96.6657,-276.686C91.1324,-271.194 85.1607,-264.989 80,-259 70.1708,-247.593 60.0722,-233.779 52.9137,-223.563"/>
<polygon fill="black" stroke="black" points="55.6142,-221.314 47.056,-215.068 49.8514,-225.288 55.6142,-221.314"/>
<text text-anchor="middle" x="95.5" y="-247.8" font-family="Times,serif" font-size="14.00">&lt;=5 &#160;</text>
</g>
<!-- leg_e2 -->
<!-- leg_s&#45;&gt;leg_e2 -->
<g id="edge2" class="edge"><title>leg_s&#45;&gt;leg_e2</title>
<path fill="none" stroke="black" stroke-dasharray="5,2" d="M115,-276.799C115,-261.794 115,-240.174 115,-225.409"/>
<polygon fill="black" stroke="black" points="118.5,-225.293 115,-215.293 111.5,-225.293 118.5,-225.293"/>
<text text-anchor="middle" x="134" y="-247.8" font-family="Times,serif" font-size="14.00"> &#160;&lt;=25</text>
</g>
<!-- leg_e3 -->
<!-- leg_s&#45;&gt;leg_e3 -->
<g id="edge3" class="edge"><title>leg_s&#45;&gt;leg_e3</title>
<path fill="none" stroke="black" d="M138.503,-276.76C144.906,-271.462 151.567,-265.344 157,-259 166.087,-248.39 174.095,-234.689 179.546,-224.313"/>
<polygon fill="black" stroke="black" points="182.722,-225.789 184.091,-215.283 176.469,-222.642 182.722,-225.789"/>
<text text-anchor="middle" x="179" y="-247.8" font-family="Times,serif" font-size="14.00">&gt;25</text>
</g>
<!-- 044 -->
<g id="node5" class="node"><title>044</title>
<ellipse fill="#cea8f4" stroke="#835da9" cx="457" cy="-208" rx="36.2938" ry="18"/>
<text text-anchor="middle" x="457" y="-204.3" font-family="Times,serif" font-size="14.00">044 (b)</text>
</g>
<!-- 022 -->
<g id="node6" class="node"><title>022</title>
<ellipse fill="#cea8f4" stroke="#835da9" cx="416" cy="-121" rx="36.2938" ry="18"/>
<text text-anchor="middle" x="416" y="-117.3" font-family="Times,serif" font-size="14.00">022 (b)</text>
</g>
<!-- 044&#45;&gt;022 -->
<g id="edge4" class="edge"><title>044&#45;&gt;022</title>
<path fill="none" stroke="#835da9" stroke-dasharray="1,5" d="M443.316,-191.037C438.918,-185.313 434.328,-178.63 431,-172 427.422,-164.872 424.532,-156.737 422.279,-149.128"/>
<polygon fill="#835da9" stroke="#835da9" points="425.589,-147.962 419.597,-139.224 418.833,-149.791 425.589,-147.962"/>
<text text-anchor="middle" x="453" y="-160.8" font-family="Times,serif" font-size="14.00">1 (91.7)</text>
</g>
<!-- 0141 -->
<g id="node7" class="node"><title>0141</title>
<ellipse fill="#cea8f4" stroke="#835da9" cx="511" cy="-121" rx="40.8928" ry="18"/>
<text text-anchor="middle" x="511" y="-117.3" font-family="Times,serif" font-size="14.00">0141 (b)</text>
</g>
<!-- 044&#45;&gt;0141 -->
<g id="edge5" class="edge"><title>044&#45;&gt;0141</title>
<path fill="none" stroke="#835da9" stroke-dasharray="1,5" d="M467.412,-190.611C475.205,-178.343 486.01,-161.336 494.912,-147.324"/>
<polygon fill="#835da9" stroke="#835da9" points="498.028,-148.946 500.436,-138.629 492.119,-145.192 498.028,-148.946"/>
<text text-anchor="middle" x="510" y="-160.8" font-family="Times,serif" font-size="14.00">1 (89.2)</text>
</g>
<!-- 017 -->
<g id="node14" class="node"><title>017</title>
<ellipse fill="#cea8f4" stroke="#835da9" cx="511" cy="-34" rx="36.2938" ry="18"/>
<text text-anchor="middle" x="511" y="-30.3" font-family="Times,serif" font-size="14.00">017 (b)</text>
</g>
<!-- 0141&#45;&gt;017 -->
<g id="edge11" class="edge"><title>0141&#45;&gt;017</title>
<path fill="none" stroke="#835da9" stroke-dasharray="1,5" d="M511,-102.799C511,-91.1626 511,-75.5479 511,-62.2368"/>
<polygon fill="#835da9" stroke="#835da9" points="514.5,-62.1754 511,-52.1754 507.5,-62.1755 514.5,-62.1754"/>
<text text-anchor="middle" x="533" y="-73.8" font-family="Times,serif" font-size="14.00">2 (92.7)</text>
</g>
<!-- 03 -->
<g id="node8" class="node"><title>03</title>
<ellipse fill="#cea8f4" stroke="#835da9" cx="627" cy="-295" rx="32.4942" ry="18"/>
<text text-anchor="middle" x="627" y="-291.3" font-family="Times,serif" font-size="14.00">03 (b)</text>
</g>
<!-- 03&#45;&gt;044 -->
<g id="edge6" class="edge"><title>03&#45;&gt;044</title>
<path fill="none" stroke="#835da9" stroke-dasharray="1,5" d="M601.863,-283.262C596.352,-281.067 590.516,-278.861 585,-277 556.191,-267.279 546.074,-272.836 519,-259 504.831,-251.759 490.873,-240.925 479.799,-231.192"/>
<polygon fill="#835da9" stroke="#835da9" points="482.039,-228.498 472.284,-224.366 477.333,-233.68 482.039,-228.498"/>
<text text-anchor="middle" x="541" y="-247.8" font-family="Times,serif" font-size="14.00">1 (89.2)</text>
</g>
<!-- 02 -->
<g id="node9" class="node"><title>02</title>
<ellipse fill="#cea8f4" stroke="#835da9" cx="544" cy="-208" rx="32.4942" ry="18"/>
<text text-anchor="middle" x="544" y="-204.3" font-family="Times,serif" font-size="14.00">02 (b)</text>
</g>
<!-- 03&#45;&gt;02 -->
<g id="edge7" class="edge"><title>03&#45;&gt;02</title>
<path fill="none" stroke="#835da9" stroke-dasharray="1,5" d="M606.235,-280.616C597.631,-274.56 587.849,-266.977 580,-259 572.538,-251.418 565.441,-242.18 559.551,-233.718"/>
<polygon fill="#835da9" stroke="#835da9" points="562.367,-231.633 553.886,-225.283 556.556,-235.536 562.367,-231.633"/>
<text text-anchor="middle" x="602" y="-247.8" font-family="Times,serif" font-size="14.00">1 (86.5)</text>
</g>
<!-- 032 -->
<g id="node10" class="node"><title>032</title>
<ellipse fill="#cea8f4" stroke="#835da9" cx="631" cy="-208" rx="36.2938" ry="18"/>
<text text-anchor="middle" x="631" y="-204.3" font-family="Times,serif" font-size="14.00">032 (b)</text>
</g>
<!-- 03&#45;&gt;032 -->
<g id="edge8" class="edge"><title>03&#45;&gt;032</title>
<path fill="none" stroke="#835da9" stroke-dasharray="1,5" d="M627.809,-276.799C628.357,-265.163 629.092,-249.548 629.718,-236.237"/>
<polygon fill="#835da9" stroke="#835da9" points="633.218,-236.329 630.192,-226.175 626.225,-236 633.218,-236.329"/>
<text text-anchor="middle" x="651" y="-247.8" font-family="Times,serif" font-size="14.00">1 (91.7)</text>
</g>
<!-- 091 -->
<g id="node11" class="node"><title>091</title>
<ellipse fill="#cea8f4" stroke="#835da9" cx="540" cy="-295" rx="36.2938" ry="18"/>
<text text-anchor="middle" x="540" y="-291.3" font-family="Times,serif" font-size="14.00">091 (b)</text>
</g>
<!-- 0211 -->
<g id="node12" class="node"><title>0211</title>
<ellipse fill="#cea8f4" stroke="#835da9" cx="279" cy="-208" rx="40.8928" ry="18"/>
<text text-anchor="middle" x="279" y="-204.3" font-family="Times,serif" font-size="14.00">0211 (b)</text>
</g>
<!-- 091&#45;&gt;0211 -->
<g id="edge9" class="edge"><title>091&#45;&gt;0211</title>
<path fill="none" stroke="#835da9" stroke-dasharray="1,5" d="M512.557,-282.834C506.516,-280.666 500.099,-278.579 494,-277 443.067,-263.814 427.068,-275.161 377,-259 353.569,-251.437 328.886,-238.813 310.154,-228.142"/>
<polygon fill="#835da9" stroke="#835da9" points="311.872,-225.093 301.468,-223.092 308.353,-231.144 311.872,-225.093"/>
<text text-anchor="middle" x="399" y="-247.8" font-family="Times,serif" font-size="14.00">1 (83.3)</text>
</g>
<!-- 05 -->
<g id="node13" class="node"><title>05</title>
<ellipse fill="#cea8f4" stroke="#835da9" cx="370" cy="-208" rx="32.4942" ry="18"/>
<text text-anchor="middle" x="370" y="-204.3" font-family="Times,serif" font-size="14.00">05 (b)</text>
</g>
<!-- 091&#45;&gt;05 -->
<g id="edge10" class="edge"><title>091&#45;&gt;05</title>
<path fill="none" stroke="#835da9" stroke-dasharray="1,5" d="M511.892,-283.508C487.4,-274.313 454.898,-261.965 449,-259 431.345,-250.127 412.617,-238.386 397.829,-228.512"/>
<polygon fill="#835da9" stroke="#835da9" points="399.417,-225.36 389.175,-222.647 395.489,-231.154 399.417,-225.36"/>
<text text-anchor="middle" x="471" y="-247.8" font-family="Times,serif" font-size="14.00">1 (87.5)</text>
</g>
<!-- 01 -->
<g id="node15" class="node"><title>01</title>
<ellipse fill="#cea8f4" stroke="#835da9" cx="453" cy="-295" rx="32.4942" ry="18"/>
<text text-anchor="middle" x="453" y="-291.3" font-family="Times,serif" font-size="14.00">01 (b)</text>
</g>
<!-- P75 -->
<g id="node16" class="node"><title>P75</title>
<ellipse fill="#cea8f4" stroke="#835da9" cx="365" cy="-295" rx="37.0935" ry="18"/>
<text text-anchor="middle" x="365" y="-291.3" font-family="Times,serif" font-size="14.00">P75 (b)</text>
</g>
<!-- 019 -->
<g id="node17" class="node"><title>019</title>
<ellipse fill="#cea8f4" stroke="#835da9" cx="274" cy="-295" rx="36.2938" ry="18"/>
<text text-anchor="middle" x="274" y="-291.3" font-family="Times,serif" font-size="14.00">019 (b)</text>
</g>
</g>
</svg>
