<?xml version="1.0" encoding="UTF-8" standalone="no"?>
<!DOCTYPE svg PUBLIC "-//W3C//DTD SVG 1.1//EN"
 "http://www.w3.org/Graphics/SVG/1.1/DTD/svg11.dtd">
<!-- Generated by graphviz version 2.38.0 (20140413.2041)
 -->
<!-- Title: G Pages: 1 -->
<svg width="1171pt" height="260pt"
 viewBox="0.00 0.00 1171.39 260.00" xmlns="http://www.w3.org/2000/svg" xmlns:xlink="http://www.w3.org/1999/xlink">
<g id="graph0" class="graph" transform="scale(1 1) rotate(0) translate(4 256)">
<title>G</title>
<polygon fill="white" stroke="none" points="-4,4 -4,-256 1167.39,-256 1167.39,4 -4,4"/>
<!-- 038 (a) -->
<g id="node1" class="node"><title>038 (a)</title>
<ellipse fill="#ff8a8a" stroke="#b43f3f" cx="412.896" cy="-90" rx="36.2938" ry="18"/>
<text text-anchor="middle" x="412.896" y="-86.3" font-family="Times,serif" font-size="14.00">038 (a)</text>
</g>
<!-- 019 (b) -->
<g id="node2" class="node"><title>019 (b)</title>
<ellipse fill="#cea8f4" stroke="#835da9" cx="462.896" cy="-234" rx="36.2938" ry="18"/>
<text text-anchor="middle" x="462.896" y="-230.3" font-family="Times,serif" font-size="14.00">019 (b)</text>
</g>
<!-- 032 (b) -->
<g id="node3" class="node"><title>032 (b)</title>
<ellipse fill="#cea8f4" stroke="#835da9" cx="645.896" cy="-162" rx="36.2938" ry="18"/>
<text text-anchor="middle" x="645.896" y="-158.3" font-family="Times,serif" font-size="14.00">032 (b)</text>
</g>
<!-- 063 (a) -->
<g id="node4" class="node"><title>063 (a)</title>
<ellipse fill="#ff8a8a" stroke="#b43f3f" cx="276.896" cy="-234" rx="36.2938" ry="18"/>
<text text-anchor="middle" x="276.896" y="-230.3" font-family="Times,serif" font-size="14.00">063 (a)</text>
</g>
<!-- 028 (a) -->
<g id="node7" class="node"><title>028 (a)</title>
<ellipse fill="#ff8a8a" stroke="#b43f3f" cx="99.8962" cy="-162" rx="36.2938" ry="18"/>
<text text-anchor="middle" x="99.8962" y="-158.3" font-family="Times,serif" font-size="14.00">028 (a)</text>
</g>
<!-- 063 (a)&#45;&gt;028 (a) -->
<g id="edge1" class="edge"><title>063 (a)&#45;&gt;028 (a)</title>
<path fill="none" stroke="black" d="M249.24,-222.062C218.975,-210.093 170.311,-190.848 136.805,-177.597"/>
<polygon fill="black" stroke="black" points="137.945,-174.284 127.358,-173.861 135.37,-180.793 137.945,-174.284"/>
</g>
<!-- 011 (a) -->
<g id="node16" class="node"><title>011 (a)</title>
<ellipse fill="#ff8a8a" stroke="#b43f3f" cx="190.896" cy="-162" rx="36.2938" ry="18"/>
<text text-anchor="middle" x="190.896" y="-158.3" font-family="Times,serif" font-size="14.00">011 (a)</text>
</g>
<!-- 063 (a)&#45;&gt;011 (a) -->
<g id="edge4" class="edge"><title>063 (a)&#45;&gt;011 (a)</title>
<path fill="none" stroke="black" d="M258.658,-218.155C246.572,-208.317 230.527,-195.257 217.084,-184.315"/>
<polygon fill="black" stroke="black" points="219.073,-181.422 209.108,-177.824 214.654,-186.851 219.073,-181.422"/>
</g>
<!-- 07 (a) -->
<g id="node21" class="node"><title>07 (a)</title>
<ellipse fill="#ff8a8a" stroke="#b43f3f" cx="276.896" cy="-162" rx="31.6951" ry="18"/>
<text text-anchor="middle" x="276.896" y="-158.3" font-family="Times,serif" font-size="14.00">07 (a)</text>
</g>
<!-- 063 (a)&#45;&gt;07 (a) -->
<g id="edge2" class="edge"><title>063 (a)&#45;&gt;07 (a)</title>
<path fill="none" stroke="black" d="M276.896,-215.697C276.896,-207.983 276.896,-198.712 276.896,-190.112"/>
<polygon fill="black" stroke="black" points="280.396,-190.104 276.896,-180.104 273.396,-190.104 280.396,-190.104"/>
</g>
<!-- 045 (a) -->
<g id="node23" class="node"><title>045 (a)</title>
<ellipse fill="#ff8a8a" stroke="#b43f3f" cx="410.896" cy="-162" rx="36.2938" ry="18"/>
<text text-anchor="middle" x="410.896" y="-158.3" font-family="Times,serif" font-size="14.00">045 (a)</text>
</g>
<!-- 063 (a)&#45;&gt;045 (a) -->
<g id="edge3" class="edge"><title>063 (a)&#45;&gt;045 (a)</title>
<path fill="none" stroke="black" d="M301.163,-220.324C322.602,-209.124 354.061,-192.69 377.804,-180.287"/>
<polygon fill="black" stroke="black" points="379.567,-183.315 386.81,-175.582 376.326,-177.11 379.567,-183.315"/>
</g>
<!-- 021 (a) -->
<g id="node26" class="node"><title>021 (a)</title>
<ellipse fill="#ff8a8a" stroke="#b43f3f" cx="503.896" cy="-162" rx="36.2938" ry="18"/>
<text text-anchor="middle" x="503.896" y="-158.3" font-family="Times,serif" font-size="14.00">021 (a)</text>
</g>
<!-- 063 (a)&#45;&gt;021 (a) -->
<g id="edge5" class="edge"><title>063 (a)&#45;&gt;021 (a)</title>
<path fill="none" stroke="black" d="M307.771,-224.391C343.568,-214.287 404.266,-196.774 455.896,-180 459.191,-178.93 462.602,-177.788 466.016,-176.623"/>
<polygon fill="black" stroke="black" points="467.252,-179.899 475.553,-173.316 464.958,-173.286 467.252,-179.899"/>
</g>
<!-- 091 (b) -->
<g id="node5" class="node"><title>091 (b)</title>
<ellipse fill="#cea8f4" stroke="#835da9" cx="951.896" cy="-234" rx="36.2938" ry="18"/>
<text text-anchor="middle" x="951.896" y="-230.3" font-family="Times,serif" font-size="14.00">091 (b)</text>
</g>
<!-- 05 (b) -->
<g id="node6" class="node"><title>05 (b)</title>
<ellipse fill="#cea8f4" stroke="#835da9" cx="906.896" cy="-162" rx="32.4942" ry="18"/>
<text text-anchor="middle" x="906.896" y="-158.3" font-family="Times,serif" font-size="14.00">05 (b)</text>
</g>
<!-- 091 (b)&#45;&gt;05 (b) -->
<g id="edge6" class="edge"><title>091 (b)&#45;&gt;05 (b)</title>
<path fill="none" stroke="black" d="M941.232,-216.411C935.796,-207.955 929.071,-197.494 923.018,-188.078"/>
<polygon fill="black" stroke="black" points="925.836,-185.989 917.484,-179.47 919.948,-189.774 925.836,-185.989"/>
</g>
<!-- 0211 (b) -->
<g id="node17" class="node"><title>0211 (b)</title>
<ellipse fill="#cea8f4" stroke="#835da9" cx="997.896" cy="-162" rx="40.8928" ry="18"/>
<text text-anchor="middle" x="997.896" y="-158.3" font-family="Times,serif" font-size="14.00">0211 (b)</text>
</g>
<!-- 091 (b)&#45;&gt;0211 (b) -->
<g id="edge7" class="edge"><title>091 (b)&#45;&gt;0211 (b)</title>
<path fill="none" stroke="black" d="M962.565,-216.765C968.174,-208.23 975.171,-197.582 981.455,-188.019"/>
<polygon fill="black" stroke="black" points="984.399,-189.913 986.966,-179.633 978.549,-186.068 984.399,-189.913"/>
</g>
<!-- 044 (b) -->
<g id="node8" class="node"><title>044 (b)</title>
<ellipse fill="#cea8f4" stroke="#835da9" cx="736.896" cy="-162" rx="36.2938" ry="18"/>
<text text-anchor="middle" x="736.896" y="-158.3" font-family="Times,serif" font-size="14.00">044 (b)</text>
</g>
<!-- 0141 (b) -->
<g id="node10" class="node"><title>0141 (b)</title>
<ellipse fill="#cea8f4" stroke="#835da9" cx="689.896" cy="-90" rx="40.8928" ry="18"/>
<text text-anchor="middle" x="689.896" y="-86.3" font-family="Times,serif" font-size="14.00">0141 (b)</text>
</g>
<!-- 044 (b)&#45;&gt;0141 (b) -->
<g id="edge9" class="edge"><title>044 (b)&#45;&gt;0141 (b)</title>
<path fill="none" stroke="black" d="M725.995,-144.765C720.265,-136.23 713.116,-125.582 706.695,-116.019"/>
<polygon fill="black" stroke="black" points="709.544,-113.985 701.064,-107.633 703.733,-117.887 709.544,-113.985"/>
</g>
<!-- 022 (b) -->
<g id="node18" class="node"><title>022 (b)</title>
<ellipse fill="#cea8f4" stroke="#835da9" cx="784.896" cy="-90" rx="36.2938" ry="18"/>
<text text-anchor="middle" x="784.896" y="-86.3" font-family="Times,serif" font-size="14.00">022 (b)</text>
</g>
<!-- 044 (b)&#45;&gt;022 (b) -->
<g id="edge8" class="edge"><title>044 (b)&#45;&gt;022 (b)</title>
<path fill="none" stroke="black" d="M748.029,-144.765C753.966,-136.106 761.395,-125.273 768.025,-115.604"/>
<polygon fill="black" stroke="black" points="771.055,-117.374 773.824,-107.147 765.282,-113.415 771.055,-117.374"/>
</g>
<!-- 013/2 (a) -->
<g id="node9" class="node"><title>013/2 (a)</title>
<ellipse fill="#ff8a8a" stroke="#b43f3f" cx="42.8962" cy="-90" rx="42.7926" ry="18"/>
<text text-anchor="middle" x="42.8962" y="-86.3" font-family="Times,serif" font-size="14.00">013/2 (a)</text>
</g>
<!-- 017/2 (b) -->
<g id="node22" class="node"><title>017/2 (b)</title>
<ellipse fill="#cea8f4" stroke="#835da9" cx="689.896" cy="-18" rx="43.5923" ry="18"/>
<text text-anchor="middle" x="689.896" y="-14.3" font-family="Times,serif" font-size="14.00">017/2 (b)</text>
</g>
<!-- 0141 (b)&#45;&gt;017/2 (b) -->
<g id="edge10" class="edge"><title>0141 (b)&#45;&gt;017/2 (b)</title>
<path fill="none" stroke="black" d="M689.896,-71.6966C689.896,-63.9827 689.896,-54.7125 689.896,-46.1124"/>
<polygon fill="black" stroke="black" points="693.396,-46.1043 689.896,-36.1043 686.396,-46.1044 693.396,-46.1043"/>
</g>
<!-- 03 (b) -->
<g id="node11" class="node"><title>03 (b)</title>
<ellipse fill="#cea8f4" stroke="#835da9" cx="736.896" cy="-234" rx="32.4942" ry="18"/>
<text text-anchor="middle" x="736.896" y="-230.3" font-family="Times,serif" font-size="14.00">03 (b)</text>
</g>
<!-- 03 (b)&#45;&gt;032 (b) -->
<g id="edge13" class="edge"><title>03 (b)&#45;&gt;032 (b)</title>
<path fill="none" stroke="black" d="M718.481,-218.834C705.457,-208.816 687.777,-195.216 673.128,-183.947"/>
<polygon fill="black" stroke="black" points="674.971,-180.949 664.91,-177.626 670.703,-186.498 674.971,-180.949"/>
</g>
<!-- 03 (b)&#45;&gt;044 (b) -->
<g id="edge11" class="edge"><title>03 (b)&#45;&gt;044 (b)</title>
<path fill="none" stroke="black" d="M736.896,-215.697C736.896,-207.983 736.896,-198.712 736.896,-190.112"/>
<polygon fill="black" stroke="black" points="740.396,-190.104 736.896,-180.104 733.396,-190.104 740.396,-190.104"/>
</g>
<!-- 02 (b) -->
<g id="node19" class="node"><title>02 (b)</title>
<ellipse fill="#cea8f4" stroke="#835da9" cx="823.896" cy="-162" rx="32.4942" ry="18"/>
<text text-anchor="middle" x="823.896" y="-158.3" font-family="Times,serif" font-size="14.00">02 (b)</text>
</g>
<!-- 03 (b)&#45;&gt;02 (b) -->
<g id="edge12" class="edge"><title>03 (b)&#45;&gt;02 (b)</title>
<path fill="none" stroke="black" d="M754.502,-218.834C767.12,-208.682 784.307,-194.853 798.42,-183.498"/>
<polygon fill="black" stroke="black" points="800.72,-186.14 806.317,-177.144 796.331,-180.686 800.72,-186.14"/>
</g>
<!-- P75 (b) -->
<g id="node12" class="node"><title>P75 (b)</title>
<ellipse fill="#cea8f4" stroke="#835da9" cx="1042.9" cy="-234" rx="37.0935" ry="18"/>
<text text-anchor="middle" x="1042.9" y="-230.3" font-family="Times,serif" font-size="14.00">P75 (b)</text>
</g>
<!-- 01 (b) -->
<g id="node13" class="node"><title>01 (b)</title>
<ellipse fill="#cea8f4" stroke="#835da9" cx="1130.9" cy="-234" rx="32.4942" ry="18"/>
<text text-anchor="middle" x="1130.9" y="-230.3" font-family="Times,serif" font-size="14.00">01 (b)</text>
</g>
<!-- 034 (a) -->
<g id="node14" class="node"><title>034 (a)</title>
<ellipse fill="#ff8a8a" stroke="#b43f3f" cx="139.896" cy="-90" rx="36.2938" ry="18"/>
<text text-anchor="middle" x="139.896" y="-86.3" font-family="Times,serif" font-size="14.00">034 (a)</text>
</g>
<!-- 036 (a) -->
<g id="node15" class="node"><title>036 (a)</title>
<ellipse fill="#ff8a8a" stroke="#b43f3f" cx="503.896" cy="-90" rx="36.2938" ry="18"/>
<text text-anchor="middle" x="503.896" y="-86.3" font-family="Times,serif" font-size="14.00">036 (a)</text>
</g>
<!-- 047 (a) -->
<g id="node20" class="node"><title>047 (a)</title>
<ellipse fill="#ff8a8a" stroke="#b43f3f" cx="594.896" cy="-90" rx="36.2938" ry="18"/>
<text text-anchor="middle" x="594.896" y="-86.3" font-family="Times,serif" font-size="14.00">047 (a)</text>
</g>
<!-- 07 (a)&#45;&gt;013/2 (a) -->
<g id="edge17" class="edge"><title>07 (a)&#45;&gt;013/2 (a)</title>
<path fill="none" stroke="black" d="M252.396,-150.172C247.014,-147.983 241.306,-145.802 235.896,-144 174.533,-123.562 157.001,-126.059 94.8962,-108 91.6044,-107.043 88.2071,-106.018 84.7995,-104.963"/>
<polygon fill="black" stroke="black" points="85.8381,-101.62 75.2481,-101.942 83.7274,-108.294 85.8381,-101.62"/>
</g>
<!-- 07 (a)&#45;&gt;034 (a) -->
<g id="edge14" class="edge"><title>07 (a)&#45;&gt;034 (a)</title>
<path fill="none" stroke="black" d="M253.965,-149.284C231.946,-138.033 198.43,-120.908 173.417,-108.128"/>
<polygon fill="black" stroke="black" points="174.787,-104.897 164.289,-103.464 171.602,-111.13 174.787,-104.897"/>
</g>
<!-- 037 (a) -->
<g id="node24" class="node"><title>037 (a)</title>
<ellipse fill="#ff8a8a" stroke="#b43f3f" cx="230.896" cy="-90" rx="36.2938" ry="18"/>
<text text-anchor="middle" x="230.896" y="-86.3" font-family="Times,serif" font-size="14.00">037 (a)</text>
</g>
<!-- 07 (a)&#45;&gt;037 (a) -->
<g id="edge15" class="edge"><title>07 (a)&#45;&gt;037 (a)</title>
<path fill="none" stroke="black" d="M266.227,-144.765C260.619,-136.23 253.622,-125.582 247.337,-116.019"/>
<polygon fill="black" stroke="black" points="250.244,-114.068 241.827,-107.633 244.394,-117.913 250.244,-114.068"/>
</g>
<!-- 030 (a) -->
<g id="node25" class="node"><title>030 (a)</title>
<ellipse fill="#ff8a8a" stroke="#b43f3f" cx="321.896" cy="-90" rx="36.2938" ry="18"/>
<text text-anchor="middle" x="321.896" y="-86.3" font-family="Times,serif" font-size="14.00">030 (a)</text>
</g>
<!-- 07 (a)&#45;&gt;030 (a) -->
<g id="edge16" class="edge"><title>07 (a)&#45;&gt;030 (a)</title>
<path fill="none" stroke="black" d="M287.333,-144.765C292.764,-136.317 299.525,-125.799 305.624,-116.312"/>
<polygon fill="black" stroke="black" points="308.74,-117.938 311.203,-107.633 302.852,-114.153 308.74,-117.938"/>
</g>
<!-- 045 (a)&#45;&gt;038 (a) -->
<g id="edge18" class="edge"><title>045 (a)&#45;&gt;038 (a)</title>
<path fill="none" stroke="black" d="M411.391,-143.697C411.611,-135.983 411.876,-126.712 412.122,-118.112"/>
<polygon fill="black" stroke="black" points="415.62,-118.2 412.407,-108.104 408.623,-118 415.62,-118.2"/>
</g>
<!-- 021 (a)&#45;&gt;036 (a) -->
<g id="edge19" class="edge"><title>021 (a)&#45;&gt;036 (a)</title>
<path fill="none" stroke="black" d="M503.896,-143.697C503.896,-135.983 503.896,-126.712 503.896,-118.112"/>
<polygon fill="black" stroke="black" points="507.396,-118.104 503.896,-108.104 500.396,-118.104 507.396,-118.104"/>
</g>
<!-- 021 (a)&#45;&gt;047 (a) -->
<g id="edge20" class="edge"><title>021 (a)&#45;&gt;047 (a)</title>
<path fill="none" stroke="black" d="M522.751,-146.496C535.807,-136.453 553.381,-122.934 567.916,-111.754"/>
<polygon fill="black" stroke="black" points="570.273,-114.357 576.065,-105.485 566.005,-108.808 570.273,-114.357"/>
</g>
</g>
</svg>
