<?xml version="1.0" encoding="UTF-8" standalone="no"?>
<!DOCTYPE svg PUBLIC "-//W3C//DTD SVG 1.1//EN"
 "http://www.w3.org/Graphics/SVG/1.1/DTD/svg11.dtd">
<!-- Generated by graphviz version 2.38.0 (20140413.2041)
 -->
<!-- Title: G Pages: 1 -->
<svg width="1251pt" height="305pt"
 viewBox="0.00 0.00 1250.79 305.00" xmlns="http://www.w3.org/2000/svg" xmlns:xlink="http://www.w3.org/1999/xlink">
<g id="graph0" class="graph" transform="scale(1 1) rotate(0) translate(4 301)">
<title>G</title>
<polygon fill="white" stroke="none" points="-4,4 -4,-301 1246.79,-301 1246.79,4 -4,4"/>
<!-- 013 (a) -->
<g id="node1" class="node"><title>013 (a)</title>
<ellipse fill="#ff8a8a" stroke="#b43f3f" cx="218.397" cy="-105" rx="36.2938" ry="18"/>
<text text-anchor="middle" x="218.397" y="-101.3" font-family="Times,serif" font-size="14.00">013 (a)</text>
</g>
<!-- 05 (b) -->
<g id="node2" class="node"><title>05 (b)</title>
<ellipse fill="#cea8f4" stroke="#835da9" cx="667.397" cy="-192" rx="32.4942" ry="18"/>
<text text-anchor="middle" x="667.397" y="-188.3" font-family="Times,serif" font-size="14.00">05 (b)</text>
</g>
<!-- 021 (a) -->
<g id="node3" class="node"><title>021 (a)</title>
<ellipse fill="#ff8a8a" stroke="#b43f3f" cx="127.397" cy="-192" rx="36.2938" ry="18"/>
<text text-anchor="middle" x="127.397" y="-188.3" font-family="Times,serif" font-size="14.00">021 (a)</text>
</g>
<!-- 036 (a) -->
<g id="node6" class="node"><title>036 (a)</title>
<ellipse fill="#ff8a8a" stroke="#b43f3f" cx="36.3968" cy="-105" rx="36.2938" ry="18"/>
<text text-anchor="middle" x="36.3968" y="-101.3" font-family="Times,serif" font-size="14.00">036 (a)</text>
</g>
<!-- 021 (a)&#45;&gt;036 (a) -->
<g id="edge1" class="edge"><title>021 (a)&#45;&gt;036 (a)</title>
<path fill="none" stroke="#b43f3f" d="M106.025,-177.006C97.4044,-170.963 87.5824,-163.554 79.3968,-156 70.8527,-148.115 62.3211,-138.619 55.1364,-130.029"/>
<polygon fill="#b43f3f" stroke="#b43f3f" points="57.741,-127.685 48.7043,-122.155 52.3196,-132.113 57.741,-127.685"/>
<text text-anchor="middle" x="101.397" y="-144.8" font-family="Times,serif" font-size="14.00">1 (97.6)</text>
</g>
<!-- 047 (a) -->
<g id="node22" class="node"><title>047 (a)</title>
<ellipse fill="#ff8a8a" stroke="#b43f3f" cx="127.397" cy="-105" rx="36.2938" ry="18"/>
<text text-anchor="middle" x="127.397" y="-101.3" font-family="Times,serif" font-size="14.00">047 (a)</text>
</g>
<!-- 021 (a)&#45;&gt;047 (a) -->
<g id="edge2" class="edge"><title>021 (a)&#45;&gt;047 (a)</title>
<path fill="none" stroke="#b43f3f" d="M127.397,-173.799C127.397,-162.163 127.397,-146.548 127.397,-133.237"/>
<polygon fill="#b43f3f" stroke="#b43f3f" points="130.897,-133.175 127.397,-123.175 123.897,-133.175 130.897,-133.175"/>
<text text-anchor="middle" x="149.397" y="-144.8" font-family="Times,serif" font-size="14.00">1 (95.1)</text>
</g>
<!-- 037 (a) -->
<g id="node4" class="node"><title>037 (a)</title>
<ellipse fill="#ff8a8a" stroke="#b43f3f" cx="309.397" cy="-105" rx="36.2938" ry="18"/>
<text text-anchor="middle" x="309.397" y="-101.3" font-family="Times,serif" font-size="14.00">037 (a)</text>
</g>
<!-- 017 (b) -->
<g id="node5" class="node"><title>017 (b)</title>
<ellipse fill="#cea8f4" stroke="#835da9" cx="998.397" cy="-18" rx="36.2938" ry="18"/>
<text text-anchor="middle" x="998.397" y="-14.3" font-family="Times,serif" font-size="14.00">017 (b)</text>
</g>
<!-- 07 (a) -->
<g id="node7" class="node"><title>07 (a)</title>
<ellipse fill="#ff8a8a" stroke="#b43f3f" cx="310.397" cy="-192" rx="31.6951" ry="18"/>
<text text-anchor="middle" x="310.397" y="-188.3" font-family="Times,serif" font-size="14.00">07 (a)</text>
</g>
<!-- 07 (a)&#45;&gt;013 (a) -->
<g id="edge3" class="edge"><title>07 (a)&#45;&gt;013 (a)</title>
<path fill="none" stroke="#b43f3f" d="M290.02,-177.626C281.184,-171.458 270.93,-163.785 262.397,-156 253.722,-148.086 245.007,-138.583 237.647,-129.997"/>
<polygon fill="#b43f3f" stroke="#b43f3f" points="240.158,-127.544 231.052,-122.128 234.793,-132.041 240.158,-127.544"/>
<text text-anchor="middle" x="284.397" y="-144.8" font-family="Times,serif" font-size="14.00">2 (95.1)</text>
</g>
<!-- 07 (a)&#45;&gt;037 (a) -->
<g id="edge5" class="edge"><title>07 (a)&#45;&gt;037 (a)</title>
<path fill="none" stroke="#b43f3f" d="M310.194,-173.799C310.058,-162.163 309.874,-146.548 309.717,-133.237"/>
<polygon fill="#b43f3f" stroke="#b43f3f" points="313.216,-133.134 309.599,-123.175 306.217,-133.216 313.216,-133.134"/>
<text text-anchor="middle" x="332.397" y="-144.8" font-family="Times,serif" font-size="14.00">1 (97.5)</text>
</g>
<!-- 034 (a) -->
<g id="node10" class="node"><title>034 (a)</title>
<ellipse fill="#ff8a8a" stroke="#b43f3f" cx="400.397" cy="-105" rx="36.2938" ry="18"/>
<text text-anchor="middle" x="400.397" y="-101.3" font-family="Times,serif" font-size="14.00">034 (a)</text>
</g>
<!-- 07 (a)&#45;&gt;034 (a) -->
<g id="edge4" class="edge"><title>07 (a)&#45;&gt;034 (a)</title>
<path fill="none" stroke="#b43f3f" d="M330.859,-177.718C339.711,-171.567 349.954,-163.883 358.397,-156 366.811,-148.144 375.159,-138.653 382.169,-130.06"/>
<polygon fill="#b43f3f" stroke="#b43f3f" points="384.951,-132.185 388.438,-122.18 379.473,-127.827 384.951,-132.185"/>
<text text-anchor="middle" x="394.397" y="-144.8" font-family="Times,serif" font-size="14.00">1 (95.1)</text>
</g>
<!-- 030 (a) -->
<g id="node17" class="node"><title>030 (a)</title>
<ellipse fill="#ff8a8a" stroke="#b43f3f" cx="491.397" cy="-105" rx="36.2938" ry="18"/>
<text text-anchor="middle" x="491.397" y="-101.3" font-family="Times,serif" font-size="14.00">030 (a)</text>
</g>
<!-- 07 (a)&#45;&gt;030 (a) -->
<g id="edge6" class="edge"><title>07 (a)&#45;&gt;030 (a)</title>
<path fill="none" stroke="#b43f3f" d="M334.904,-180.194C340.285,-178.003 345.991,-175.816 351.397,-174 381.44,-163.907 391.647,-169.338 420.397,-156 436.664,-148.453 453.142,-137.125 466.124,-127.159"/>
<polygon fill="#b43f3f" stroke="#b43f3f" points="468.427,-129.8 474.112,-120.86 464.092,-124.304 468.427,-129.8"/>
<text text-anchor="middle" x="467.397" y="-144.8" font-family="Times,serif" font-size="14.00">1 (95.1)</text>
</g>
<!-- 091 (b) -->
<g id="node8" class="node"><title>091 (b)</title>
<ellipse fill="#cea8f4" stroke="#835da9" cx="712.397" cy="-279" rx="36.2938" ry="18"/>
<text text-anchor="middle" x="712.397" y="-275.3" font-family="Times,serif" font-size="14.00">091 (b)</text>
</g>
<!-- 091 (b)&#45;&gt;05 (b) -->
<g id="edge7" class="edge"><title>091 (b)&#45;&gt;05 (b)</title>
<path fill="none" stroke="#835da9" d="M702.644,-261.371C699.322,-255.593 695.633,-249.047 692.397,-243 688.229,-235.213 683.866,-226.645 679.972,-218.834"/>
<polygon fill="#835da9" stroke="#835da9" points="683.069,-217.2 675.5,-209.785 676.793,-220.301 683.069,-217.2"/>
<text text-anchor="middle" x="714.397" y="-231.8" font-family="Times,serif" font-size="14.00">1 (87.5)</text>
</g>
<!-- 0211 (b) -->
<g id="node11" class="node"><title>0211 (b)</title>
<ellipse fill="#cea8f4" stroke="#835da9" cx="758.397" cy="-192" rx="40.8928" ry="18"/>
<text text-anchor="middle" x="758.397" y="-188.3" font-family="Times,serif" font-size="14.00">0211 (b)</text>
</g>
<!-- 091 (b)&#45;&gt;0211 (b) -->
<g id="edge8" class="edge"><title>091 (b)&#45;&gt;0211 (b)</title>
<path fill="none" stroke="#835da9" d="M724.526,-261.67C728.546,-255.917 732.886,-249.309 736.397,-243 740.547,-235.542 744.498,-227.148 747.877,-219.398"/>
<polygon fill="#835da9" stroke="#835da9" points="751.161,-220.619 751.824,-210.044 744.712,-217.897 751.161,-220.619"/>
<text text-anchor="middle" x="766.397" y="-231.8" font-family="Times,serif" font-size="14.00">1 (83.3)</text>
</g>
<!-- 022 (b) -->
<g id="node9" class="node"><title>022 (b)</title>
<ellipse fill="#cea8f4" stroke="#835da9" cx="903.397" cy="-105" rx="36.2938" ry="18"/>
<text text-anchor="middle" x="903.397" y="-101.3" font-family="Times,serif" font-size="14.00">022 (b)</text>
</g>
<!-- 032 (b) -->
<g id="node12" class="node"><title>032 (b)</title>
<ellipse fill="#cea8f4" stroke="#835da9" cx="853.397" cy="-192" rx="36.2938" ry="18"/>
<text text-anchor="middle" x="853.397" y="-188.3" font-family="Times,serif" font-size="14.00">032 (b)</text>
</g>
<!-- 044 (b) -->
<g id="node13" class="node"><title>044 (b)</title>
<ellipse fill="#cea8f4" stroke="#835da9" cx="944.397" cy="-192" rx="36.2938" ry="18"/>
<text text-anchor="middle" x="944.397" y="-188.3" font-family="Times,serif" font-size="14.00">044 (b)</text>
</g>
<!-- 044 (b)&#45;&gt;022 (b) -->
<g id="edge9" class="edge"><title>044 (b)&#45;&gt;022 (b)</title>
<path fill="none" stroke="#835da9" d="M930.713,-175.037C926.315,-169.313 921.724,-162.63 918.397,-156 914.819,-148.872 911.929,-140.737 909.676,-133.128"/>
<polygon fill="#835da9" stroke="#835da9" points="912.986,-131.962 906.994,-123.224 906.229,-133.791 912.986,-131.962"/>
<text text-anchor="middle" x="940.397" y="-144.8" font-family="Times,serif" font-size="14.00">1 (91.7)</text>
</g>
<!-- 0141 (b) -->
<g id="node23" class="node"><title>0141 (b)</title>
<ellipse fill="#cea8f4" stroke="#835da9" cx="998.397" cy="-105" rx="40.8928" ry="18"/>
<text text-anchor="middle" x="998.397" y="-101.3" font-family="Times,serif" font-size="14.00">0141 (b)</text>
</g>
<!-- 044 (b)&#45;&gt;0141 (b) -->
<g id="edge10" class="edge"><title>044 (b)&#45;&gt;0141 (b)</title>
<path fill="none" stroke="#835da9" d="M954.809,-174.611C962.602,-162.343 973.407,-145.336 982.308,-131.324"/>
<polygon fill="#835da9" stroke="#835da9" points="985.425,-132.946 987.833,-122.629 979.516,-129.192 985.425,-132.946"/>
<text text-anchor="middle" x="997.397" y="-144.8" font-family="Times,serif" font-size="14.00">1 (89.2)</text>
</g>
<!-- 011 (a) -->
<g id="node14" class="node"><title>011 (a)</title>
<ellipse fill="#ff8a8a" stroke="#b43f3f" cx="396.397" cy="-192" rx="36.2938" ry="18"/>
<text text-anchor="middle" x="396.397" y="-188.3" font-family="Times,serif" font-size="14.00">011 (a)</text>
</g>
<!-- 038 (a) -->
<g id="node15" class="node"><title>038 (a)</title>
<ellipse fill="#ff8a8a" stroke="#b43f3f" cx="582.397" cy="-105" rx="36.2938" ry="18"/>
<text text-anchor="middle" x="582.397" y="-101.3" font-family="Times,serif" font-size="14.00">038 (a)</text>
</g>
<!-- 01 (b) -->
<g id="node16" class="node"><title>01 (b)</title>
<ellipse fill="#cea8f4" stroke="#835da9" cx="1027.4" cy="-279" rx="32.4942" ry="18"/>
<text text-anchor="middle" x="1027.4" y="-275.3" font-family="Times,serif" font-size="14.00">01 (b)</text>
</g>
<!-- 028 (a) -->
<g id="node18" class="node"><title>028 (a)</title>
<ellipse fill="#ff8a8a" stroke="#b43f3f" cx="487.397" cy="-192" rx="36.2938" ry="18"/>
<text text-anchor="middle" x="487.397" y="-188.3" font-family="Times,serif" font-size="14.00">028 (a)</text>
</g>
<!-- P75 (b) -->
<g id="node19" class="node"><title>P75 (b)</title>
<ellipse fill="#cea8f4" stroke="#835da9" cx="1115.4" cy="-279" rx="37.0935" ry="18"/>
<text text-anchor="middle" x="1115.4" y="-275.3" font-family="Times,serif" font-size="14.00">P75 (b)</text>
</g>
<!-- 045 (a) -->
<g id="node20" class="node"><title>045 (a)</title>
<ellipse fill="#ff8a8a" stroke="#b43f3f" cx="580.397" cy="-192" rx="36.2938" ry="18"/>
<text text-anchor="middle" x="580.397" y="-188.3" font-family="Times,serif" font-size="14.00">045 (a)</text>
</g>
<!-- 045 (a)&#45;&gt;038 (a) -->
<g id="edge11" class="edge"><title>045 (a)&#45;&gt;038 (a)</title>
<path fill="none" stroke="#b43f3f" d="M580.802,-173.799C581.075,-162.163 581.443,-146.548 581.756,-133.237"/>
<polygon fill="#b43f3f" stroke="#b43f3f" points="585.256,-133.255 581.993,-123.175 578.258,-133.09 585.256,-133.255"/>
<text text-anchor="middle" x="604.397" y="-144.8" font-family="Times,serif" font-size="14.00">1 (92.7)</text>
</g>
<!-- 019 (b) -->
<g id="node21" class="node"><title>019 (b)</title>
<ellipse fill="#cea8f4" stroke="#835da9" cx="1206.4" cy="-279" rx="36.2938" ry="18"/>
<text text-anchor="middle" x="1206.4" y="-275.3" font-family="Times,serif" font-size="14.00">019 (b)</text>
</g>
<!-- 0141 (b)&#45;&gt;017 (b) -->
<g id="edge12" class="edge"><title>0141 (b)&#45;&gt;017 (b)</title>
<path fill="none" stroke="#835da9" d="M998.397,-86.799C998.397,-75.1626 998.397,-59.5479 998.397,-46.2368"/>
<polygon fill="#835da9" stroke="#835da9" points="1001.9,-46.1754 998.397,-36.1754 994.897,-46.1755 1001.9,-46.1754"/>
<text text-anchor="middle" x="1020.4" y="-57.8" font-family="Times,serif" font-size="14.00">2 (92.7)</text>
</g>
<!-- 03 (b) -->
<g id="node24" class="node"><title>03 (b)</title>
<ellipse fill="#cea8f4" stroke="#835da9" cx="944.397" cy="-279" rx="32.4942" ry="18"/>
<text text-anchor="middle" x="944.397" y="-275.3" font-family="Times,serif" font-size="14.00">03 (b)</text>
</g>
<!-- 03 (b)&#45;&gt;032 (b) -->
<g id="edge13" class="edge"><title>03 (b)&#45;&gt;032 (b)</title>
<path fill="none" stroke="#835da9" d="M923.978,-264.672C915.134,-258.512 904.886,-250.834 896.397,-243 887.853,-235.115 879.321,-225.619 872.136,-217.029"/>
<polygon fill="#835da9" stroke="#835da9" points="874.741,-214.685 865.704,-209.155 869.32,-219.113 874.741,-214.685"/>
<text text-anchor="middle" x="918.397" y="-231.8" font-family="Times,serif" font-size="14.00">1 (91.7)</text>
</g>
<!-- 03 (b)&#45;&gt;044 (b) -->
<g id="edge15" class="edge"><title>03 (b)&#45;&gt;044 (b)</title>
<path fill="none" stroke="#835da9" d="M944.397,-260.799C944.397,-249.163 944.397,-233.548 944.397,-220.237"/>
<polygon fill="#835da9" stroke="#835da9" points="947.897,-220.175 944.397,-210.175 940.897,-220.175 947.897,-220.175"/>
<text text-anchor="middle" x="966.397" y="-231.8" font-family="Times,serif" font-size="14.00">1 (89.2)</text>
</g>
<!-- 02 (b) -->
<g id="node26" class="node"><title>02 (b)</title>
<ellipse fill="#cea8f4" stroke="#835da9" cx="1031.4" cy="-192" rx="32.4942" ry="18"/>
<text text-anchor="middle" x="1031.4" y="-188.3" font-family="Times,serif" font-size="14.00">02 (b)</text>
</g>
<!-- 03 (b)&#45;&gt;02 (b) -->
<g id="edge14" class="edge"><title>03 (b)&#45;&gt;02 (b)</title>
<path fill="none" stroke="#835da9" d="M964.996,-264.862C973.873,-258.738 984.098,-251.034 992.397,-243 1000.35,-235.304 1008.06,-225.945 1014.51,-217.414"/>
<polygon fill="#835da9" stroke="#835da9" points="1017.4,-219.388 1020.49,-209.252 1011.75,-215.25 1017.4,-219.388"/>
<text text-anchor="middle" x="1027.4" y="-231.8" font-family="Times,serif" font-size="14.00">1 (86.5)</text>
</g>
<!-- 063 (a) -->
<g id="node25" class="node"><title>063 (a)</title>
<ellipse fill="#ff8a8a" stroke="#b43f3f" cx="396.397" cy="-279" rx="36.2938" ry="18"/>
<text text-anchor="middle" x="396.397" y="-275.3" font-family="Times,serif" font-size="14.00">063 (a)</text>
</g>
<!-- 063 (a)&#45;&gt;021 (a) -->
<g id="edge20" class="edge"><title>063 (a)&#45;&gt;021 (a)</title>
<path fill="none" stroke="#b43f3f" d="M366.581,-268.579C317.904,-253.197 221.351,-222.688 166.985,-205.509"/>
<polygon fill="#b43f3f" stroke="#b43f3f" points="167.936,-202.139 157.346,-202.463 165.827,-208.814 167.936,-202.139"/>
<text text-anchor="middle" x="300.397" y="-231.8" font-family="Times,serif" font-size="14.00">1 (93.1)</text>
</g>
<!-- 063 (a)&#45;&gt;07 (a) -->
<g id="edge19" class="edge"><title>063 (a)&#45;&gt;07 (a)</title>
<path fill="none" stroke="#b43f3f" d="M374.793,-264.25C366.136,-258.245 356.351,-250.798 348.397,-243 340.572,-235.329 333.035,-225.975 326.765,-217.442"/>
<polygon fill="#b43f3f" stroke="#b43f3f" points="329.603,-215.394 320.954,-209.275 323.899,-219.452 329.603,-215.394"/>
<text text-anchor="middle" x="370.397" y="-231.8" font-family="Times,serif" font-size="14.00">1 (96.6)</text>
</g>
<!-- 063 (a)&#45;&gt;011 (a) -->
<g id="edge18" class="edge"><title>063 (a)&#45;&gt;011 (a)</title>
<path fill="none" stroke="#b43f3f" d="M396.397,-260.799C396.397,-249.163 396.397,-233.548 396.397,-220.237"/>
<polygon fill="#b43f3f" stroke="#b43f3f" points="399.897,-220.175 396.397,-210.175 392.897,-220.175 399.897,-220.175"/>
<text text-anchor="middle" x="418.397" y="-231.8" font-family="Times,serif" font-size="14.00">1 (93.1)</text>
</g>
<!-- 063 (a)&#45;&gt;028 (a) -->
<g id="edge17" class="edge"><title>063 (a)&#45;&gt;028 (a)</title>
<path fill="none" stroke="#b43f3f" d="M417.768,-264.006C426.389,-257.963 436.211,-250.554 444.397,-243 452.941,-235.115 461.472,-225.619 468.657,-217.029"/>
<polygon fill="#b43f3f" stroke="#b43f3f" points="471.474,-219.113 475.089,-209.155 466.053,-214.685 471.474,-219.113"/>
<text text-anchor="middle" x="480.397" y="-231.8" font-family="Times,serif" font-size="14.00">1 (96.6)</text>
</g>
<!-- 063 (a)&#45;&gt;045 (a) -->
<g id="edge16" class="edge"><title>063 (a)&#45;&gt;045 (a)</title>
<path fill="none" stroke="#b43f3f" d="M428.615,-270.361C451.052,-264.42 481.327,-255.145 506.397,-243 522.88,-235.015 539.907,-223.753 553.467,-213.939"/>
<polygon fill="#b43f3f" stroke="#b43f3f" points="555.878,-216.508 561.836,-207.747 551.715,-210.881 555.878,-216.508"/>
<text text-anchor="middle" x="554.397" y="-231.8" font-family="Times,serif" font-size="14.00">1 (93.1)</text>
</g>
</g>
</svg>
