<?xml version="1.0" encoding="UTF-8" standalone="no"?>
<!DOCTYPE svg PUBLIC "-//W3C//DTD SVG 1.1//EN"
 "http://www.w3.org/Graphics/SVG/1.1/DTD/svg11.dtd">
<!-- Generated by graphviz version 2.38.0 (20140413.2041)
 -->
<!-- Title: %3 Pages: 1 -->
<svg width="1411pt" height="152pt"
 viewBox="0.00 0.00 1410.85 152.00" xmlns="http://www.w3.org/2000/svg" xmlns:xlink="http://www.w3.org/1999/xlink">
<g id="graph0" class="graph" transform="scale(1 1) rotate(0) translate(4 148)">
<title>%3</title>
<polygon fill="white" stroke="none" points="-4,4 -4,-148 1406.85,-148 1406.85,4 -4,4"/>
<g id="clust1" class="cluster"><title>cluster_legend</title>
<path fill="none" stroke="black" d="M20,-8C20,-8 210,-8 210,-8 216,-8 222,-14 222,-20 222,-20 222,-124 222,-124 222,-130 216,-136 210,-136 210,-136 20,-136 20,-136 14,-136 8,-130 8,-124 8,-124 8,-20 8,-20 8,-14 14,-8 20,-8"/>
</g>
<!-- leg_s -->
<g id="node1" class="node"><title>leg_s</title>
<text text-anchor="middle" x="115" y="-106.3" font-family="Times,serif" font-size="14.00">Textual flow strength</text>
</g>
<!-- leg_e1 -->
<!-- leg_s&#45;&gt;leg_e1 -->
<g id="edge1" class="edge"><title>leg_s&#45;&gt;leg_e1</title>
<path fill="none" stroke="black" stroke-dasharray="1,5" d="M96.6657,-91.6857C91.1324,-86.1938 85.1607,-79.9891 80,-74 70.1708,-62.593 60.0722,-48.7786 52.9137,-38.5634"/>
<polygon fill="black" stroke="black" points="55.6142,-36.3142 47.056,-30.0685 49.8514,-40.2879 55.6142,-36.3142"/>
<text text-anchor="middle" x="95.5" y="-62.8" font-family="Times,serif" font-size="14.00">&lt;=5 &#160;</text>
</g>
<!-- leg_e2 -->
<!-- leg_s&#45;&gt;leg_e2 -->
<g id="edge2" class="edge"><title>leg_s&#45;&gt;leg_e2</title>
<path fill="none" stroke="black" stroke-dasharray="5,2" d="M115,-91.799C115,-76.7942 115,-55.1745 115,-40.4086"/>
<polygon fill="black" stroke="black" points="118.5,-40.2934 115,-30.2934 111.5,-40.2934 118.5,-40.2934"/>
<text text-anchor="middle" x="134" y="-62.8" font-family="Times,serif" font-size="14.00"> &#160;&lt;=25</text>
</g>
<!-- leg_e3 -->
<!-- leg_s&#45;&gt;leg_e3 -->
<g id="edge3" class="edge"><title>leg_s&#45;&gt;leg_e3</title>
<path fill="none" stroke="black" d="M138.503,-91.7602C144.906,-86.4621 151.567,-80.3439 157,-74 166.087,-63.3897 174.095,-49.6892 179.546,-39.3134"/>
<polygon fill="black" stroke="black" points="182.722,-40.7893 184.091,-30.2833 176.469,-37.6425 182.722,-40.7893"/>
<text text-anchor="middle" x="179" y="-62.8" font-family="Times,serif" font-size="14.00">&gt;25</text>
</g>
<!-- 021 -->
<g id="node5" class="node"><title>021</title>
<ellipse fill="#ff8a8a" stroke="#b43f3f" cx="313" cy="-110" rx="36.2938" ry="18"/>
<text text-anchor="middle" x="313" y="-106.3" font-family="Times,serif" font-size="14.00">021 (a)</text>
</g>
<!-- 047 -->
<g id="node6" class="node"><title>047</title>
<ellipse fill="#ff8a8a" stroke="#b43f3f" cx="268" cy="-23" rx="36.2938" ry="18"/>
<text text-anchor="middle" x="268" y="-19.3" font-family="Times,serif" font-size="14.00">047 (a)</text>
</g>
<!-- 021&#45;&gt;047 -->
<g id="edge4" class="edge"><title>021&#45;&gt;047</title>
<path fill="none" stroke="#b43f3f" stroke-dasharray="1,5" d="M303.247,-92.3706C299.926,-86.5933 296.236,-80.047 293,-74 288.833,-66.2133 284.469,-57.6446 280.575,-49.8337"/>
<polygon fill="#b43f3f" stroke="#b43f3f" points="283.672,-48.1997 276.104,-40.7855 277.397,-51.3011 283.672,-48.1997"/>
<text text-anchor="middle" x="315" y="-62.8" font-family="Times,serif" font-size="14.00">1 (95.1)</text>
</g>
<!-- 036 -->
<g id="node7" class="node"><title>036</title>
<ellipse fill="#ff8a8a" stroke="#b43f3f" cx="359" cy="-23" rx="36.2938" ry="18"/>
<text text-anchor="middle" x="359" y="-19.3" font-family="Times,serif" font-size="14.00">036 (a)</text>
</g>
<!-- 021&#45;&gt;036 -->
<g id="edge5" class="edge"><title>021&#45;&gt;036</title>
<path fill="none" stroke="#b43f3f" stroke-dasharray="1,5" d="M325.129,-92.6704C329.149,-86.9172 333.489,-80.3093 337,-74 341.15,-66.5417 345.102,-58.1477 348.481,-50.3977"/>
<polygon fill="#b43f3f" stroke="#b43f3f" points="351.764,-51.6185 352.427,-41.0444 345.315,-48.8974 351.764,-51.6185"/>
<text text-anchor="middle" x="367" y="-62.8" font-family="Times,serif" font-size="14.00">1 (97.6)</text>
</g>
<!-- 07 -->
<g id="node8" class="node"><title>07</title>
<ellipse fill="#ff8a8a" stroke="#b43f3f" cx="594" cy="-110" rx="31.6951" ry="18"/>
<text text-anchor="middle" x="594" y="-106.3" font-family="Times,serif" font-size="14.00">07 (a)</text>
</g>
<!-- 0211 -->
<g id="node9" class="node"><title>0211</title>
<ellipse fill="#ff8a8a" stroke="#b43f3f" cx="454" cy="-23" rx="40.0939" ry="18"/>
<text text-anchor="middle" x="454" y="-19.3" font-family="Times,serif" font-size="14.00">0211 (a)</text>
</g>
<!-- 07&#45;&gt;0211 -->
<g id="edge6" class="edge"><title>07&#45;&gt;0211</title>
<path fill="none" stroke="#b43f3f" stroke-dasharray="1,5" d="M568.634,-98.8135C553.76,-92.4398 534.839,-83.6277 519,-74 505.392,-65.7286 491.267,-55.1402 479.674,-45.8384"/>
<polygon fill="#b43f3f" stroke="#b43f3f" points="481.683,-42.9599 471.724,-39.3441 477.254,-48.3811 481.683,-42.9599"/>
<text text-anchor="middle" x="541" y="-62.8" font-family="Times,serif" font-size="14.00">2 (82.9)</text>
</g>
<!-- 030 -->
<g id="node10" class="node"><title>030</title>
<ellipse fill="#ff8a8a" stroke="#b43f3f" cx="549" cy="-23" rx="36.2938" ry="18"/>
<text text-anchor="middle" x="549" y="-19.3" font-family="Times,serif" font-size="14.00">030 (a)</text>
</g>
<!-- 07&#45;&gt;030 -->
<g id="edge7" class="edge"><title>07&#45;&gt;030</title>
<path fill="none" stroke="#b43f3f" stroke-dasharray="1,5" d="M584.45,-92.7233C581.076,-86.8607 577.302,-80.1704 574,-74 569.833,-66.2133 565.469,-57.6446 561.575,-49.8337"/>
<polygon fill="#b43f3f" stroke="#b43f3f" points="564.672,-48.1997 557.104,-40.7855 558.397,-51.3011 564.672,-48.1997"/>
<text text-anchor="middle" x="596" y="-62.8" font-family="Times,serif" font-size="14.00">1 (95.1)</text>
</g>
<!-- 037 -->
<g id="node11" class="node"><title>037</title>
<ellipse fill="#ff8a8a" stroke="#b43f3f" cx="640" cy="-23" rx="36.2938" ry="18"/>
<text text-anchor="middle" x="640" y="-19.3" font-family="Times,serif" font-size="14.00">037 (a)</text>
</g>
<!-- 07&#45;&gt;037 -->
<g id="edge8" class="edge"><title>07&#45;&gt;037</title>
<path fill="none" stroke="#b43f3f" stroke-dasharray="1,5" d="M605.884,-93.0215C609.972,-87.187 614.417,-80.4381 618,-74 622.15,-66.5417 626.102,-58.1477 629.481,-50.3977"/>
<polygon fill="#b43f3f" stroke="#b43f3f" points="632.764,-51.6185 633.427,-41.0444 626.315,-48.8974 632.764,-51.6185"/>
<text text-anchor="middle" x="648" y="-62.8" font-family="Times,serif" font-size="14.00">1 (97.5)</text>
</g>
<!-- 034 -->
<g id="node12" class="node"><title>034</title>
<ellipse fill="#ff8a8a" stroke="#b43f3f" cx="731" cy="-23" rx="36.2938" ry="18"/>
<text text-anchor="middle" x="731" y="-19.3" font-family="Times,serif" font-size="14.00">034 (a)</text>
</g>
<!-- 07&#45;&gt;034 -->
<g id="edge9" class="edge"><title>07&#45;&gt;034</title>
<path fill="none" stroke="#b43f3f" stroke-dasharray="1,5" d="M620.606,-99.7354C636.684,-93.5692 657.24,-84.6539 674,-74 686.097,-66.3104 698.215,-56.1161 708.149,-46.9391"/>
<polygon fill="#b43f3f" stroke="#b43f3f" points="710.759,-49.2869 715.605,-39.8648 705.941,-44.2089 710.759,-49.2869"/>
<text text-anchor="middle" x="717" y="-62.8" font-family="Times,serif" font-size="14.00">1 (95.1)</text>
</g>
<!-- 045 -->
<g id="node13" class="node"><title>045</title>
<ellipse fill="#ff8a8a" stroke="#b43f3f" cx="822" cy="-110" rx="36.2938" ry="18"/>
<text text-anchor="middle" x="822" y="-106.3" font-family="Times,serif" font-size="14.00">045 (a)</text>
</g>
<!-- 038 -->
<g id="node14" class="node"><title>038</title>
<ellipse fill="#ff8a8a" stroke="#b43f3f" cx="822" cy="-23" rx="36.2938" ry="18"/>
<text text-anchor="middle" x="822" y="-19.3" font-family="Times,serif" font-size="14.00">038 (a)</text>
</g>
<!-- 045&#45;&gt;038 -->
<g id="edge10" class="edge"><title>045&#45;&gt;038</title>
<path fill="none" stroke="#b43f3f" stroke-dasharray="1,5" d="M822,-91.799C822,-80.1626 822,-64.5479 822,-51.2368"/>
<polygon fill="#b43f3f" stroke="#b43f3f" points="825.5,-51.1754 822,-41.1754 818.5,-51.1755 825.5,-51.1754"/>
<text text-anchor="middle" x="844" y="-62.8" font-family="Times,serif" font-size="14.00">1 (92.7)</text>
</g>
<!-- 031 -->
<g id="node15" class="node"><title>031</title>
<ellipse fill="#ff8a8a" stroke="#b43f3f" cx="1004" cy="-110" rx="36.2938" ry="18"/>
<text text-anchor="middle" x="1004" y="-106.3" font-family="Times,serif" font-size="14.00">031 (a)</text>
</g>
<!-- 017 -->
<g id="node16" class="node"><title>017</title>
<ellipse fill="#ff8a8a" stroke="#b43f3f" cx="913" cy="-23" rx="36.2938" ry="18"/>
<text text-anchor="middle" x="913" y="-19.3" font-family="Times,serif" font-size="14.00">017 (a)</text>
</g>
<!-- 031&#45;&gt;017 -->
<g id="edge11" class="edge"><title>031&#45;&gt;017</title>
<path fill="none" stroke="#b43f3f" stroke-dasharray="1,5" d="M982.628,-95.006C974.008,-88.9634 964.186,-81.5539 956,-74 947.456,-66.1154 938.924,-56.6186 931.74,-48.0293"/>
<polygon fill="#b43f3f" stroke="#b43f3f" points="934.344,-45.6853 925.308,-40.1545 928.923,-50.1135 934.344,-45.6853"/>
<text text-anchor="middle" x="978" y="-62.8" font-family="Times,serif" font-size="14.00">1 (94.3)</text>
</g>
<!-- 013 -->
<g id="node17" class="node"><title>013</title>
<ellipse fill="#ff8a8a" stroke="#b43f3f" cx="1004" cy="-23" rx="36.2938" ry="18"/>
<text text-anchor="middle" x="1004" y="-19.3" font-family="Times,serif" font-size="14.00">013 (a)</text>
</g>
<!-- 031&#45;&gt;013 -->
<g id="edge12" class="edge"><title>031&#45;&gt;013</title>
<path fill="none" stroke="#b43f3f" stroke-dasharray="1,5" d="M1004,-91.799C1004,-80.1626 1004,-64.5479 1004,-51.2368"/>
<polygon fill="#b43f3f" stroke="#b43f3f" points="1007.5,-51.1754 1004,-41.1754 1000.5,-51.1755 1007.5,-51.1754"/>
<text text-anchor="middle" x="1026" y="-62.8" font-family="Times,serif" font-size="14.00">1 (97.1)</text>
</g>
<!-- 01 -->
<g id="node18" class="node"><title>01</title>
<ellipse fill="#cea8f4" stroke="#835da9" cx="1091" cy="-23" rx="32.4942" ry="18"/>
<text text-anchor="middle" x="1091" y="-19.3" font-family="Times,serif" font-size="14.00">01 (b)</text>
</g>
<!-- 031&#45;&gt;01 -->
<g id="edge13" class="edge"><title>031&#45;&gt;01</title>
<path fill="none" stroke="#835da9" stroke-dasharray="1,5" d="M1025.56,-95.2001C1034.2,-89.1873 1044,-81.7475 1052,-74 1059.95,-66.3043 1067.67,-56.9451 1074.11,-48.4145"/>
<polygon fill="#835da9" stroke="#835da9" points="1077,-50.3875 1080.09,-40.2524 1071.36,-46.2504 1077,-50.3875"/>
<text text-anchor="middle" x="1086" y="-62.8" font-family="Times,serif" font-size="14.00">2 (48.5)</text>
</g>
<!-- 028 -->
<g id="node19" class="node"><title>028</title>
<ellipse fill="#ff8a8a" stroke="#b43f3f" cx="1095" cy="-110" rx="36.2938" ry="18"/>
<text text-anchor="middle" x="1095" y="-106.3" font-family="Times,serif" font-size="14.00">028 (a)</text>
</g>
<!-- 011 -->
<g id="node20" class="node"><title>011</title>
<ellipse fill="#ff8a8a" stroke="#b43f3f" cx="1186" cy="-110" rx="36.2938" ry="18"/>
<text text-anchor="middle" x="1186" y="-106.3" font-family="Times,serif" font-size="14.00">011 (a)</text>
</g>
<!-- 0141 -->
<g id="node21" class="node"><title>0141</title>
<ellipse fill="#ff8a8a" stroke="#b43f3f" cx="1281" cy="-110" rx="40.0939" ry="18"/>
<text text-anchor="middle" x="1281" y="-106.3" font-family="Times,serif" font-size="14.00">0141 (a)</text>
</g>
<!-- 05 -->
<g id="node22" class="node"><title>05</title>
<ellipse fill="#72fe95" stroke="#27b34a" cx="1371" cy="-110" rx="31.6951" ry="18"/>
<text text-anchor="middle" x="1371" y="-106.3" font-family="Times,serif" font-size="14.00">05 (c)</text>
</g>
</g>
</svg>
