<?xml version="1.0" encoding="UTF-8" standalone="no"?>
<!DOCTYPE svg PUBLIC "-//W3C//DTD SVG 1.1//EN"
 "http://www.w3.org/Graphics/SVG/1.1/DTD/svg11.dtd">
<!-- Generated by graphviz version 2.38.0 (20140413.2041)
 -->
<!-- Title: %3 Pages: 1 -->
<svg width="1055pt" height="408pt"
 viewBox="0.00 0.00 1054.89 408.00" xmlns="http://www.w3.org/2000/svg" xmlns:xlink="http://www.w3.org/1999/xlink">
<g id="graph0" class="graph" transform="scale(1 1) rotate(0) translate(4 404)">
<title>%3</title>
<polygon fill="white" stroke="none" points="-4,4 -4,-404 1050.89,-404 1050.89,4 -4,4"/>
<g id="clust1" class="cluster"><title>cluster_legend</title>
<path fill="none" stroke="black" d="M374.397,-264C374.397,-264 564.397,-264 564.397,-264 570.397,-264 576.397,-270 576.397,-276 576.397,-276 576.397,-380 576.397,-380 576.397,-386 570.397,-392 564.397,-392 564.397,-392 374.397,-392 374.397,-392 368.397,-392 362.397,-386 362.397,-380 362.397,-380 362.397,-276 362.397,-276 362.397,-270 368.397,-264 374.397,-264"/>
</g>
<!-- leg_s -->
<g id="node1" class="node"><title>leg_s</title>
<text text-anchor="middle" x="469.397" y="-362.3" font-family="Times,serif" font-size="14.00">Textual flow strength</text>
</g>
<!-- leg_e1 -->
<!-- leg_s&#45;&gt;leg_e1 -->
<g id="edge1" class="edge"><title>leg_s&#45;&gt;leg_e1</title>
<path fill="none" stroke="black" stroke-dasharray="1,5" d="M451.062,-347.686C445.529,-342.194 439.557,-335.989 434.397,-330 424.568,-318.593 414.469,-304.779 407.31,-294.563"/>
<polygon fill="black" stroke="black" points="410.011,-292.314 401.453,-286.068 404.248,-296.288 410.011,-292.314"/>
<text text-anchor="middle" x="449.897" y="-318.8" font-family="Times,serif" font-size="14.00">&lt;=5 &#160;</text>
</g>
<!-- leg_e2 -->
<!-- leg_s&#45;&gt;leg_e2 -->
<g id="edge2" class="edge"><title>leg_s&#45;&gt;leg_e2</title>
<path fill="none" stroke="black" stroke-dasharray="5,2" d="M469.397,-347.799C469.397,-332.794 469.397,-311.174 469.397,-296.409"/>
<polygon fill="black" stroke="black" points="472.897,-296.293 469.397,-286.293 465.897,-296.293 472.897,-296.293"/>
<text text-anchor="middle" x="488.397" y="-318.8" font-family="Times,serif" font-size="14.00"> &#160;&lt;=25</text>
</g>
<!-- leg_e3 -->
<!-- leg_s&#45;&gt;leg_e3 -->
<g id="edge3" class="edge"><title>leg_s&#45;&gt;leg_e3</title>
<path fill="none" stroke="black" d="M492.9,-347.76C499.303,-342.462 505.963,-336.344 511.397,-330 520.484,-319.39 528.492,-305.689 533.943,-295.313"/>
<polygon fill="black" stroke="black" points="537.119,-296.789 538.488,-286.283 530.866,-293.642 537.119,-296.789"/>
<text text-anchor="middle" x="533.397" y="-318.8" font-family="Times,serif" font-size="14.00">&gt;25</text>
</g>
<!-- 021 -->
<g id="node5" class="node"><title>021</title>
<ellipse fill="#ff8a8a" stroke="#b43f3f" cx="127.397" cy="-105" rx="36.2938" ry="18"/>
<text text-anchor="middle" x="127.397" y="-101.3" font-family="Times,serif" font-size="14.00">021 (a)</text>
</g>
<!-- 036 -->
<g id="node6" class="node"><title>036</title>
<ellipse fill="#ff8a8a" stroke="#b43f3f" cx="36.3968" cy="-18" rx="36.2938" ry="18"/>
<text text-anchor="middle" x="36.3968" y="-14.3" font-family="Times,serif" font-size="14.00">036 (a)</text>
</g>
<!-- 021&#45;&gt;036 -->
<g id="edge4" class="edge"><title>021&#45;&gt;036</title>
<path fill="none" stroke="#b43f3f" stroke-dasharray="1,5" d="M106.025,-90.006C97.4044,-83.9634 87.5824,-76.5539 79.3968,-69 70.8527,-61.1154 62.3211,-51.6186 55.1364,-43.0293"/>
<polygon fill="#b43f3f" stroke="#b43f3f" points="57.741,-40.6853 48.7043,-35.1545 52.3196,-45.1135 57.741,-40.6853"/>
<text text-anchor="middle" x="101.397" y="-57.8" font-family="Times,serif" font-size="14.00">1 (97.6)</text>
</g>
<!-- 047 -->
<g id="node7" class="node"><title>047</title>
<ellipse fill="#ff8a8a" stroke="#b43f3f" cx="127.397" cy="-18" rx="36.2938" ry="18"/>
<text text-anchor="middle" x="127.397" y="-14.3" font-family="Times,serif" font-size="14.00">047 (a)</text>
</g>
<!-- 021&#45;&gt;047 -->
<g id="edge5" class="edge"><title>021&#45;&gt;047</title>
<path fill="none" stroke="#b43f3f" stroke-dasharray="1,5" d="M127.397,-86.799C127.397,-75.1626 127.397,-59.5479 127.397,-46.2368"/>
<polygon fill="#b43f3f" stroke="#b43f3f" points="130.897,-46.1754 127.397,-36.1754 123.897,-46.1755 130.897,-46.1754"/>
<text text-anchor="middle" x="149.397" y="-57.8" font-family="Times,serif" font-size="14.00">1 (95.1)</text>
</g>
<!-- 03 -->
<g id="node8" class="node"><title>03</title>
<ellipse fill="#ff8a8a" stroke="#b43f3f" cx="618.397" cy="-279" rx="31.6951" ry="18"/>
<text text-anchor="middle" x="618.397" y="-275.3" font-family="Times,serif" font-size="14.00">03 (a)</text>
</g>
<!-- 032 -->
<g id="node9" class="node"><title>032</title>
<ellipse fill="#ff8a8a" stroke="#b43f3f" cx="486.397" cy="-192" rx="36.2938" ry="18"/>
<text text-anchor="middle" x="486.397" y="-188.3" font-family="Times,serif" font-size="14.00">032 (a)</text>
</g>
<!-- 03&#45;&gt;032 -->
<g id="edge6" class="edge"><title>03&#45;&gt;032</title>
<path fill="none" stroke="#b43f3f" stroke-dasharray="1,5" d="M593.978,-267.021C573.89,-257.919 547.999,-246.004 543.397,-243 531.394,-235.164 519.289,-224.948 509.341,-215.795"/>
<polygon fill="#b43f3f" stroke="#b43f3f" points="511.545,-213.062 501.868,-208.747 506.742,-218.154 511.545,-213.062"/>
<text text-anchor="middle" x="565.397" y="-231.8" font-family="Times,serif" font-size="14.00">1 (91.7)</text>
</g>
<!-- 044 -->
<g id="node10" class="node"><title>044</title>
<ellipse fill="#ff8a8a" stroke="#b43f3f" cx="577.397" cy="-192" rx="36.2938" ry="18"/>
<text text-anchor="middle" x="577.397" y="-188.3" font-family="Times,serif" font-size="14.00">044 (a)</text>
</g>
<!-- 03&#45;&gt;044 -->
<g id="edge7" class="edge"><title>03&#45;&gt;044</title>
<path fill="none" stroke="#b43f3f" stroke-dasharray="1,5" d="M608.014,-261.921C604.439,-256.077 600.546,-249.348 597.397,-243 593.658,-235.462 590.076,-227.044 587.003,-219.297"/>
<polygon fill="#b43f3f" stroke="#b43f3f" points="590.267,-218.035 583.408,-209.96 583.734,-220.549 590.267,-218.035"/>
<text text-anchor="middle" x="619.397" y="-231.8" font-family="Times,serif" font-size="14.00">1 (89.2)</text>
</g>
<!-- 02 -->
<g id="node11" class="node"><title>02</title>
<ellipse fill="#ff8a8a" stroke="#b43f3f" cx="663.397" cy="-192" rx="31.6951" ry="18"/>
<text text-anchor="middle" x="663.397" y="-188.3" font-family="Times,serif" font-size="14.00">02 (a)</text>
</g>
<!-- 03&#45;&gt;02 -->
<g id="edge8" class="edge"><title>03&#45;&gt;02</title>
<path fill="none" stroke="#b43f3f" stroke-dasharray="1,5" d="M629.741,-261.966C633.655,-256.126 637.924,-249.388 641.397,-243 645.473,-235.501 649.403,-227.095 652.785,-219.347"/>
<polygon fill="#b43f3f" stroke="#b43f3f" points="656.066,-220.574 656.745,-210.001 649.62,-217.843 656.066,-220.574"/>
<text text-anchor="middle" x="671.397" y="-231.8" font-family="Times,serif" font-size="14.00">1 (86.5)</text>
</g>
<!-- 044&#45;&gt;021 -->
<g id="edge14" class="edge"><title>044&#45;&gt;021</title>
<path fill="none" stroke="#b43f3f" stroke-dasharray="1,5" d="M549.976,-179.746C543.934,-177.583 537.511,-175.521 531.397,-174 473.083,-159.497 456.736,-165.474 397.397,-156 317.074,-143.176 223.881,-125.235 170.655,-114.695"/>
<polygon fill="#b43f3f" stroke="#b43f3f" points="171.049,-111.205 160.558,-112.689 169.685,-118.071 171.049,-111.205"/>
<text text-anchor="middle" x="419.397" y="-144.8" font-family="Times,serif" font-size="14.00">2 (83.8)</text>
</g>
<!-- 07 -->
<g id="node12" class="node"><title>07</title>
<ellipse fill="#ff8a8a" stroke="#b43f3f" cx="400.397" cy="-105" rx="31.6951" ry="18"/>
<text text-anchor="middle" x="400.397" y="-101.3" font-family="Times,serif" font-size="14.00">07 (a)</text>
</g>
<!-- 044&#45;&gt;07 -->
<g id="edge15" class="edge"><title>044&#45;&gt;07</title>
<path fill="none" stroke="#b43f3f" stroke-dasharray="1,5" d="M549.296,-180.232C543.411,-178.084 537.223,-175.906 531.397,-174 503.72,-164.946 494.54,-168.828 468.397,-156 452.792,-148.343 437.048,-137.046 424.644,-127.127"/>
<polygon fill="#b43f3f" stroke="#b43f3f" points="426.581,-124.188 416.634,-120.541 422.136,-129.596 426.581,-124.188"/>
<text text-anchor="middle" x="490.397" y="-144.8" font-family="Times,serif" font-size="14.00">2 (83.8)</text>
</g>
<!-- 045 -->
<g id="node18" class="node"><title>045</title>
<ellipse fill="#ff8a8a" stroke="#b43f3f" cx="486.397" cy="-105" rx="36.2938" ry="18"/>
<text text-anchor="middle" x="486.397" y="-101.3" font-family="Times,serif" font-size="14.00">045 (a)</text>
</g>
<!-- 044&#45;&gt;045 -->
<g id="edge16" class="edge"><title>044&#45;&gt;045</title>
<path fill="none" stroke="#b43f3f" stroke-dasharray="1,5" d="M556.025,-177.006C547.404,-170.963 537.582,-163.554 529.397,-156 520.853,-148.115 512.321,-138.619 505.136,-130.029"/>
<polygon fill="#b43f3f" stroke="#b43f3f" points="507.741,-127.685 498.704,-122.155 502.32,-132.113 507.741,-127.685"/>
<text text-anchor="middle" x="551.397" y="-144.8" font-family="Times,serif" font-size="14.00">2 (81.1)</text>
</g>
<!-- 022 -->
<g id="node19" class="node"><title>022</title>
<ellipse fill="#ff8a8a" stroke="#b43f3f" cx="577.397" cy="-105" rx="36.2938" ry="18"/>
<text text-anchor="middle" x="577.397" y="-101.3" font-family="Times,serif" font-size="14.00">022 (a)</text>
</g>
<!-- 044&#45;&gt;022 -->
<g id="edge17" class="edge"><title>044&#45;&gt;022</title>
<path fill="none" stroke="#b43f3f" stroke-dasharray="1,5" d="M577.397,-173.799C577.397,-162.163 577.397,-146.548 577.397,-133.237"/>
<polygon fill="#b43f3f" stroke="#b43f3f" points="580.897,-133.175 577.397,-123.175 573.897,-133.175 580.897,-133.175"/>
<text text-anchor="middle" x="599.397" y="-144.8" font-family="Times,serif" font-size="14.00">1 (91.7)</text>
</g>
<!-- 0141 -->
<g id="node20" class="node"><title>0141</title>
<ellipse fill="#ff8a8a" stroke="#b43f3f" cx="672.397" cy="-105" rx="40.0939" ry="18"/>
<text text-anchor="middle" x="672.397" y="-101.3" font-family="Times,serif" font-size="14.00">0141 (a)</text>
</g>
<!-- 044&#45;&gt;0141 -->
<g id="edge18" class="edge"><title>044&#45;&gt;0141</title>
<path fill="none" stroke="#b43f3f" stroke-dasharray="1,5" d="M598.127,-177.159C606.833,-171.025 616.891,-163.508 625.397,-156 634.56,-147.911 643.927,-138.276 651.863,-129.632"/>
<polygon fill="#b43f3f" stroke="#b43f3f" points="654.606,-131.816 658.702,-122.045 649.407,-127.129 654.606,-131.816"/>
<text text-anchor="middle" x="663.397" y="-144.8" font-family="Times,serif" font-size="14.00">1 (89.2)</text>
</g>
<!-- 011 -->
<g id="node21" class="node"><title>011</title>
<ellipse fill="#ff8a8a" stroke="#b43f3f" cx="767.397" cy="-105" rx="36.2938" ry="18"/>
<text text-anchor="middle" x="767.397" y="-101.3" font-family="Times,serif" font-size="14.00">011 (a)</text>
</g>
<!-- 044&#45;&gt;011 -->
<g id="edge19" class="edge"><title>044&#45;&gt;011</title>
<path fill="none" stroke="#b43f3f" stroke-dasharray="1,5" d="M604.851,-180.137C610.61,-177.997 616.674,-175.845 622.397,-174 651.743,-164.54 661.196,-168.467 689.397,-156 707.184,-148.137 725.568,-136.548 740.018,-126.507"/>
<polygon fill="#b43f3f" stroke="#b43f3f" points="742.343,-129.148 748.466,-120.502 738.288,-123.443 742.343,-129.148"/>
<text text-anchor="middle" x="738.397" y="-144.8" font-family="Times,serif" font-size="14.00">2 (86.5)</text>
</g>
<!-- 028 -->
<g id="node22" class="node"><title>028</title>
<ellipse fill="#ff8a8a" stroke="#b43f3f" cx="858.397" cy="-105" rx="36.2938" ry="18"/>
<text text-anchor="middle" x="858.397" y="-101.3" font-family="Times,serif" font-size="14.00">028 (a)</text>
</g>
<!-- 044&#45;&gt;028 -->
<g id="edge20" class="edge"><title>044&#45;&gt;028</title>
<path fill="none" stroke="#b43f3f" stroke-dasharray="1,5" d="M604.196,-179.701C610.109,-177.54 616.399,-175.491 622.397,-174 684.134,-158.653 703.764,-175.253 764.397,-156 787.201,-148.759 810.975,-136.058 828.909,-125.269"/>
<polygon fill="#b43f3f" stroke="#b43f3f" points="831.042,-128.067 837.719,-119.841 827.37,-122.107 831.042,-128.067"/>
<text text-anchor="middle" x="822.397" y="-144.8" font-family="Times,serif" font-size="14.00">2 (81.1)</text>
</g>
<!-- 034 -->
<g id="node13" class="node"><title>034</title>
<ellipse fill="#ff8a8a" stroke="#b43f3f" cx="218.397" cy="-18" rx="36.2938" ry="18"/>
<text text-anchor="middle" x="218.397" y="-14.3" font-family="Times,serif" font-size="14.00">034 (a)</text>
</g>
<!-- 07&#45;&gt;034 -->
<g id="edge9" class="edge"><title>07&#45;&gt;034</title>
<path fill="none" stroke="#b43f3f" stroke-dasharray="1,5" d="M371.287,-97.118C348.808,-91.2254 317.276,-81.681 291.397,-69 275.102,-61.0155 258.302,-49.7539 244.933,-39.9394"/>
<polygon fill="#b43f3f" stroke="#b43f3f" points="246.782,-36.9507 236.682,-33.7478 242.58,-42.5495 246.782,-36.9507"/>
<text text-anchor="middle" x="313.397" y="-57.8" font-family="Times,serif" font-size="14.00">1 (95.1)</text>
</g>
<!-- 037 -->
<g id="node14" class="node"><title>037</title>
<ellipse fill="#ff8a8a" stroke="#b43f3f" cx="309.397" cy="-18" rx="36.2938" ry="18"/>
<text text-anchor="middle" x="309.397" y="-14.3" font-family="Times,serif" font-size="14.00">037 (a)</text>
</g>
<!-- 07&#45;&gt;037 -->
<g id="edge10" class="edge"><title>07&#45;&gt;037</title>
<path fill="none" stroke="#b43f3f" stroke-dasharray="1,5" d="M379.978,-90.6717C371.134,-84.5121 360.886,-76.8337 352.397,-69 343.853,-61.1154 335.321,-51.6186 328.136,-43.0293"/>
<polygon fill="#b43f3f" stroke="#b43f3f" points="330.741,-40.6853 321.704,-35.1545 325.32,-45.1135 330.741,-40.6853"/>
<text text-anchor="middle" x="374.397" y="-57.8" font-family="Times,serif" font-size="14.00">1 (97.5)</text>
</g>
<!-- 017 -->
<g id="node15" class="node"><title>017</title>
<ellipse fill="#ff8a8a" stroke="#b43f3f" cx="400.397" cy="-18" rx="36.2938" ry="18"/>
<text text-anchor="middle" x="400.397" y="-14.3" font-family="Times,serif" font-size="14.00">017 (a)</text>
</g>
<!-- 07&#45;&gt;017 -->
<g id="edge11" class="edge"><title>07&#45;&gt;017</title>
<path fill="none" stroke="#b43f3f" stroke-dasharray="1,5" d="M400.397,-86.799C400.397,-75.1626 400.397,-59.5479 400.397,-46.2368"/>
<polygon fill="#b43f3f" stroke="#b43f3f" points="403.897,-46.1754 400.397,-36.1754 396.897,-46.1755 403.897,-46.1754"/>
<text text-anchor="middle" x="422.397" y="-57.8" font-family="Times,serif" font-size="14.00">2 (92.7)</text>
</g>
<!-- 030 -->
<g id="node16" class="node"><title>030</title>
<ellipse fill="#ff8a8a" stroke="#b43f3f" cx="491.397" cy="-18" rx="36.2938" ry="18"/>
<text text-anchor="middle" x="491.397" y="-14.3" font-family="Times,serif" font-size="14.00">030 (a)</text>
</g>
<!-- 07&#45;&gt;030 -->
<g id="edge12" class="edge"><title>07&#45;&gt;030</title>
<path fill="none" stroke="#b43f3f" stroke-dasharray="1,5" d="M420.816,-90.6717C429.659,-84.5121 439.908,-76.8337 448.397,-69 456.941,-61.1154 465.472,-51.6186 472.657,-43.0293"/>
<polygon fill="#b43f3f" stroke="#b43f3f" points="475.474,-45.1135 479.089,-35.1545 470.053,-40.6853 475.474,-45.1135"/>
<text text-anchor="middle" x="484.397" y="-57.8" font-family="Times,serif" font-size="14.00">1 (95.1)</text>
</g>
<!-- 013 -->
<g id="node17" class="node"><title>013</title>
<ellipse fill="#72fe95" stroke="#27b34a" cx="582.397" cy="-18" rx="36.2938" ry="18"/>
<text text-anchor="middle" x="582.397" y="-14.3" font-family="Times,serif" font-size="14.00">013 (c)</text>
</g>
<!-- 07&#45;&gt;013 -->
<g id="edge13" class="edge"><title>07&#45;&gt;013</title>
<path fill="none" stroke="#27b34a" stroke-dasharray="1,5" d="M424.904,-93.1938C430.285,-91.0026 435.991,-88.816 441.397,-87 471.44,-76.9066 481.603,-82.2431 510.397,-69 526.842,-61.4361 543.549,-50.107 556.724,-40.1444"/>
<polygon fill="#27b34a" stroke="#27b34a" points="559.081,-42.7454 564.834,-33.8482 554.788,-37.2162 559.081,-42.7454"/>
<text text-anchor="middle" x="558.397" y="-57.8" font-family="Times,serif" font-size="14.00">2 (95.1)</text>
</g>
<!-- 038 -->
<g id="node30" class="node"><title>038</title>
<ellipse fill="#cea8f4" stroke="#835da9" cx="673.397" cy="-18" rx="36.2938" ry="18"/>
<text text-anchor="middle" x="673.397" y="-14.3" font-family="Times,serif" font-size="14.00">038 (b)</text>
</g>
<!-- 045&#45;&gt;038 -->
<g id="edge28" class="edge"><title>045&#45;&gt;038</title>
<path fill="none" stroke="#835da9" stroke-dasharray="1,5" d="M514.582,-93.4785C520.461,-91.3135 526.625,-89.0652 532.397,-87 555.424,-78.7606 562.091,-79.0293 584.397,-69 604.445,-59.9855 625.958,-47.9692 642.811,-37.9757"/>
<polygon fill="#835da9" stroke="#835da9" points="644.885,-40.8131 651.655,-32.6639 641.28,-34.8123 644.885,-40.8131"/>
<text text-anchor="middle" x="637.397" y="-57.8" font-family="Times,serif" font-size="14.00">1 (92.7)</text>
</g>
<!-- 091 -->
<g id="node23" class="node"><title>091</title>
<ellipse fill="#ff8a8a" stroke="#b43f3f" cx="745.397" cy="-279" rx="36.2938" ry="18"/>
<text text-anchor="middle" x="745.397" y="-275.3" font-family="Times,serif" font-size="14.00">091 (a)</text>
</g>
<!-- 05 -->
<g id="node24" class="node"><title>05</title>
<ellipse fill="#ff8a8a" stroke="#b43f3f" cx="745.397" cy="-192" rx="31.6951" ry="18"/>
<text text-anchor="middle" x="745.397" y="-188.3" font-family="Times,serif" font-size="14.00">05 (a)</text>
</g>
<!-- 091&#45;&gt;05 -->
<g id="edge21" class="edge"><title>091&#45;&gt;05</title>
<path fill="none" stroke="#b43f3f" stroke-dasharray="1,5" d="M745.397,-260.799C745.397,-249.163 745.397,-233.548 745.397,-220.237"/>
<polygon fill="#b43f3f" stroke="#b43f3f" points="748.897,-220.175 745.397,-210.175 741.897,-220.175 748.897,-220.175"/>
<text text-anchor="middle" x="767.397" y="-231.8" font-family="Times,serif" font-size="14.00">1 (87.5)</text>
</g>
<!-- 0211 -->
<g id="node25" class="node"><title>0211</title>
<ellipse fill="#ff8a8a" stroke="#b43f3f" cx="835.397" cy="-192" rx="40.0939" ry="18"/>
<text text-anchor="middle" x="835.397" y="-188.3" font-family="Times,serif" font-size="14.00">0211 (a)</text>
</g>
<!-- 091&#45;&gt;0211 -->
<g id="edge22" class="edge"><title>091&#45;&gt;0211</title>
<path fill="none" stroke="#b43f3f" stroke-dasharray="1,5" d="M766.812,-264.054C775.44,-258.018 785.255,-250.601 793.397,-243 801.6,-235.341 809.74,-226.128 816.639,-217.709"/>
<polygon fill="#b43f3f" stroke="#b43f3f" points="819.576,-219.639 823.08,-209.641 814.105,-215.272 819.576,-219.639"/>
<text text-anchor="middle" x="829.397" y="-231.8" font-family="Times,serif" font-size="14.00">1 (83.3)</text>
</g>
<!-- A -->
<g id="node26" class="node"><title>A</title>
<ellipse fill="#ff8a8a" stroke="#b43f3f" cx="836.397" cy="-366" rx="29.4969" ry="18"/>
<text text-anchor="middle" x="836.397" y="-362.3" font-family="Times,serif" font-size="14.00">A (a)</text>
</g>
<!-- A&#45;&gt;03 -->
<g id="edge23" class="edge"><title>A&#45;&gt;03</title>
<path fill="none" stroke="#b43f3f" stroke-dasharray="1,5" d="M810.103,-357.518C787.834,-350.953 755.188,-340.792 727.397,-330 701.023,-319.759 671.936,-306.302 650.447,-295.928"/>
<polygon fill="#b43f3f" stroke="#b43f3f" points="651.963,-292.774 641.44,-291.546 648.901,-299.068 651.963,-292.774"/>
<text text-anchor="middle" x="749.397" y="-318.8" font-family="Times,serif" font-size="14.00">1 (93.3)</text>
</g>
<!-- A&#45;&gt;091 -->
<g id="edge24" class="edge"><title>A&#45;&gt;091</title>
<path fill="none" stroke="#b43f3f" stroke-dasharray="1,5" d="M816.92,-352.326C807.869,-346.06 797.189,-338.113 788.397,-330 779.853,-322.115 771.321,-312.619 764.136,-304.029"/>
<polygon fill="#b43f3f" stroke="#b43f3f" points="766.741,-301.685 757.704,-296.155 761.32,-306.113 766.741,-301.685"/>
<text text-anchor="middle" x="810.397" y="-318.8" font-family="Times,serif" font-size="14.00">1 (87.5)</text>
</g>
<!-- 019 -->
<g id="node27" class="node"><title>019</title>
<ellipse fill="#ff8a8a" stroke="#b43f3f" cx="836.397" cy="-279" rx="36.2938" ry="18"/>
<text text-anchor="middle" x="836.397" y="-275.3" font-family="Times,serif" font-size="14.00">019 (a)</text>
</g>
<!-- A&#45;&gt;019 -->
<g id="edge25" class="edge"><title>A&#45;&gt;019</title>
<path fill="none" stroke="#b43f3f" stroke-dasharray="1,5" d="M836.397,-347.799C836.397,-336.163 836.397,-320.548 836.397,-307.237"/>
<polygon fill="#b43f3f" stroke="#b43f3f" points="839.897,-307.175 836.397,-297.175 832.897,-307.175 839.897,-307.175"/>
<text text-anchor="middle" x="858.397" y="-318.8" font-family="Times,serif" font-size="14.00">1 (93.3)</text>
</g>
<!-- P75 -->
<g id="node28" class="node"><title>P75</title>
<ellipse fill="#ff8a8a" stroke="#b43f3f" cx="927.397" cy="-279" rx="36.2938" ry="18"/>
<text text-anchor="middle" x="927.397" y="-275.3" font-family="Times,serif" font-size="14.00">P75 (a)</text>
</g>
<!-- A&#45;&gt;P75 -->
<g id="edge26" class="edge"><title>A&#45;&gt;P75</title>
<path fill="none" stroke="#b43f3f" stroke-dasharray="1,5" d="M855.874,-352.326C864.925,-346.06 875.605,-338.113 884.397,-330 892.941,-322.115 901.472,-312.619 908.657,-304.029"/>
<polygon fill="#b43f3f" stroke="#b43f3f" points="911.474,-306.113 915.089,-296.155 906.053,-301.685 911.474,-306.113"/>
<text text-anchor="middle" x="920.397" y="-318.8" font-family="Times,serif" font-size="14.00">1 (93.3)</text>
</g>
<!-- 01 -->
<g id="node29" class="node"><title>01</title>
<ellipse fill="#cea8f4" stroke="#835da9" cx="1014.4" cy="-279" rx="32.4942" ry="18"/>
<text text-anchor="middle" x="1014.4" y="-275.3" font-family="Times,serif" font-size="14.00">01 (b)</text>
</g>
<!-- A&#45;&gt;01 -->
<g id="edge27" class="edge"><title>A&#45;&gt;01</title>
<path fill="none" stroke="#835da9" stroke-dasharray="5,2" d="M863.579,-358.984C886.448,-353.314 919.61,-343.642 946.397,-330 961.78,-322.166 977.406,-310.953 989.794,-301.13"/>
<polygon fill="#835da9" stroke="#835da9" points="992.26,-303.636 997.809,-294.61 987.843,-298.205 992.26,-303.636"/>
<text text-anchor="middle" x="992.397" y="-318.8" font-family="Times,serif" font-size="14.00">1 (57.1)</text>
</g>
</g>
</svg>
