<?xml version="1.0" encoding="UTF-8" standalone="no"?>
<!DOCTYPE svg PUBLIC "-//W3C//DTD SVG 1.1//EN"
 "http://www.w3.org/Graphics/SVG/1.1/DTD/svg11.dtd">
<!-- Generated by graphviz version 2.38.0 (20140413.2041)
 -->
<!-- Title: %3 Pages: 1 -->
<svg width="911pt" height="408pt"
 viewBox="0.00 0.00 910.69 408.00" xmlns="http://www.w3.org/2000/svg" xmlns:xlink="http://www.w3.org/1999/xlink">
<g id="graph0" class="graph" transform="scale(1 1) rotate(0) translate(4 404)">
<title>%3</title>
<polygon fill="white" stroke="none" points="-4,4 -4,-404 906.693,-404 906.693,4 -4,4"/>
<g id="clust1" class="cluster"><title>cluster_legend</title>
<path fill="none" stroke="black" d="M101.296,-264C101.296,-264 291.296,-264 291.296,-264 297.296,-264 303.296,-270 303.296,-276 303.296,-276 303.296,-380 303.296,-380 303.296,-386 297.296,-392 291.296,-392 291.296,-392 101.296,-392 101.296,-392 95.2964,-392 89.2964,-386 89.2964,-380 89.2964,-380 89.2964,-276 89.2964,-276 89.2964,-270 95.2964,-264 101.296,-264"/>
</g>
<!-- leg_s -->
<g id="node1" class="node"><title>leg_s</title>
<text text-anchor="middle" x="196.296" y="-362.3" font-family="Times,serif" font-size="14.00">Textual flow strength</text>
</g>
<!-- leg_e1 -->
<!-- leg_s&#45;&gt;leg_e1 -->
<g id="edge1" class="edge"><title>leg_s&#45;&gt;leg_e1</title>
<path fill="none" stroke="black" stroke-dasharray="1,5" d="M177.962,-347.686C172.429,-342.194 166.457,-335.989 161.296,-330 151.467,-318.593 141.369,-304.779 134.21,-294.563"/>
<polygon fill="black" stroke="black" points="136.911,-292.314 128.352,-286.068 131.148,-296.288 136.911,-292.314"/>
<text text-anchor="middle" x="176.796" y="-318.8" font-family="Times,serif" font-size="14.00">&lt;=5 &#160;</text>
</g>
<!-- leg_e2 -->
<!-- leg_s&#45;&gt;leg_e2 -->
<g id="edge2" class="edge"><title>leg_s&#45;&gt;leg_e2</title>
<path fill="none" stroke="black" stroke-dasharray="5,2" d="M196.296,-347.799C196.296,-332.794 196.296,-311.174 196.296,-296.409"/>
<polygon fill="black" stroke="black" points="199.797,-296.293 196.296,-286.293 192.797,-296.293 199.797,-296.293"/>
<text text-anchor="middle" x="215.296" y="-318.8" font-family="Times,serif" font-size="14.00"> &#160;&lt;=25</text>
</g>
<!-- leg_e3 -->
<!-- leg_s&#45;&gt;leg_e3 -->
<g id="edge3" class="edge"><title>leg_s&#45;&gt;leg_e3</title>
<path fill="none" stroke="black" d="M219.8,-347.76C226.202,-342.462 232.863,-336.344 238.296,-330 247.384,-319.39 255.392,-305.689 260.843,-295.313"/>
<polygon fill="black" stroke="black" points="264.018,-296.789 265.387,-286.283 257.766,-293.642 264.018,-296.789"/>
<text text-anchor="middle" x="260.296" y="-318.8" font-family="Times,serif" font-size="14.00">&gt;25</text>
</g>
<!-- 021 -->
<g id="node5" class="node"><title>021</title>
<ellipse fill="#ff8a8a" stroke="#b43f3f" cx="226.296" cy="-105" rx="36.2938" ry="18"/>
<text text-anchor="middle" x="226.296" y="-101.3" font-family="Times,serif" font-size="14.00">021 (a)</text>
</g>
<!-- 036 -->
<g id="node6" class="node"><title>036</title>
<ellipse fill="#ff8a8a" stroke="#b43f3f" cx="39.2964" cy="-18" rx="36.2938" ry="18"/>
<text text-anchor="middle" x="39.2964" y="-14.3" font-family="Times,serif" font-size="14.00">036 (a)</text>
</g>
<!-- 021&#45;&gt;036 -->
<g id="edge4" class="edge"><title>021&#45;&gt;036</title>
<path fill="none" stroke="#b43f3f" stroke-dasharray="1,5" d="M198.776,-93.115C192.74,-90.9287 186.345,-88.764 180.296,-87 144.06,-76.4316 131.077,-85.8423 97.2964,-69 83.8333,-62.2876 70.9401,-51.7402 60.7433,-42.0596"/>
<polygon fill="#b43f3f" stroke="#b43f3f" points="63.0783,-39.4463 53.5067,-34.9036 58.1563,-44.4237 63.0783,-39.4463"/>
<text text-anchor="middle" x="119.296" y="-57.8" font-family="Times,serif" font-size="14.00">1 (97.6)</text>
</g>
<!-- 047 -->
<g id="node7" class="node"><title>047</title>
<ellipse fill="#ff8a8a" stroke="#b43f3f" cx="130.296" cy="-18" rx="36.2938" ry="18"/>
<text text-anchor="middle" x="130.296" y="-14.3" font-family="Times,serif" font-size="14.00">047 (a)</text>
</g>
<!-- 021&#45;&gt;047 -->
<g id="edge5" class="edge"><title>021&#45;&gt;047</title>
<path fill="none" stroke="#b43f3f" stroke-dasharray="1,5" d="M196.669,-94.4214C182.779,-88.7638 166.796,-80.4343 155.296,-69 148.668,-62.4092 143.489,-53.7005 139.606,-45.4003"/>
<polygon fill="#b43f3f" stroke="#b43f3f" points="142.749,-43.8466 135.635,-35.9957 136.301,-46.5696 142.749,-43.8466"/>
<text text-anchor="middle" x="177.296" y="-57.8" font-family="Times,serif" font-size="14.00">1 (95.1)</text>
</g>
<!-- 07 -->
<g id="node8" class="node"><title>07</title>
<ellipse fill="#ff8a8a" stroke="#b43f3f" cx="407.296" cy="-105" rx="31.6951" ry="18"/>
<text text-anchor="middle" x="407.296" y="-101.3" font-family="Times,serif" font-size="14.00">07 (a)</text>
</g>
<!-- 034 -->
<g id="node9" class="node"><title>034</title>
<ellipse fill="#ff8a8a" stroke="#b43f3f" cx="221.296" cy="-18" rx="36.2938" ry="18"/>
<text text-anchor="middle" x="221.296" y="-14.3" font-family="Times,serif" font-size="14.00">034 (a)</text>
</g>
<!-- 07&#45;&gt;034 -->
<g id="edge6" class="edge"><title>07&#45;&gt;034</title>
<path fill="none" stroke="#b43f3f" stroke-dasharray="1,5" d="M378.163,-97.2264C355.264,-91.3366 322.902,-81.7448 296.296,-69 279.349,-60.882 261.8,-49.3789 247.941,-39.4524"/>
<polygon fill="#b43f3f" stroke="#b43f3f" points="249.966,-36.597 239.827,-33.5199 245.834,-42.2476 249.966,-36.597"/>
<text text-anchor="middle" x="318.296" y="-57.8" font-family="Times,serif" font-size="14.00">1 (95.1)</text>
</g>
<!-- 037 -->
<g id="node10" class="node"><title>037</title>
<ellipse fill="#ff8a8a" stroke="#b43f3f" cx="312.296" cy="-18" rx="36.2938" ry="18"/>
<text text-anchor="middle" x="312.296" y="-14.3" font-family="Times,serif" font-size="14.00">037 (a)</text>
</g>
<!-- 07&#45;&gt;037 -->
<g id="edge7" class="edge"><title>07&#45;&gt;037</title>
<path fill="none" stroke="#b43f3f" stroke-dasharray="1,5" d="M387.511,-90.8221C378.594,-84.5722 368.111,-76.7806 359.296,-69 350.133,-60.9115 340.766,-51.2757 332.83,-42.6319"/>
<polygon fill="#b43f3f" stroke="#b43f3f" points="335.286,-40.1295 325.991,-35.0454 330.087,-44.8165 335.286,-40.1295"/>
<text text-anchor="middle" x="381.296" y="-57.8" font-family="Times,serif" font-size="14.00">1 (97.5)</text>
</g>
<!-- 0211 -->
<g id="node11" class="node"><title>0211</title>
<ellipse fill="#ff8a8a" stroke="#b43f3f" cx="407.296" cy="-18" rx="40.0939" ry="18"/>
<text text-anchor="middle" x="407.296" y="-14.3" font-family="Times,serif" font-size="14.00">0211 (a)</text>
</g>
<!-- 07&#45;&gt;0211 -->
<g id="edge8" class="edge"><title>07&#45;&gt;0211</title>
<path fill="none" stroke="#b43f3f" stroke-dasharray="1,5" d="M407.296,-86.799C407.296,-75.1626 407.296,-59.5479 407.296,-46.2368"/>
<polygon fill="#b43f3f" stroke="#b43f3f" points="410.797,-46.1754 407.296,-36.1754 403.797,-46.1755 410.797,-46.1754"/>
<text text-anchor="middle" x="429.296" y="-57.8" font-family="Times,serif" font-size="14.00">2 (82.9)</text>
</g>
<!-- 030 -->
<g id="node12" class="node"><title>030</title>
<ellipse fill="#ff8a8a" stroke="#b43f3f" cx="502.296" cy="-18" rx="36.2938" ry="18"/>
<text text-anchor="middle" x="502.296" y="-14.3" font-family="Times,serif" font-size="14.00">030 (a)</text>
</g>
<!-- 07&#45;&gt;030 -->
<g id="edge9" class="edge"><title>07&#45;&gt;030</title>
<path fill="none" stroke="#b43f3f" stroke-dasharray="1,5" d="M427.082,-90.8221C435.999,-84.5722 446.482,-76.7806 455.296,-69 464.46,-60.9115 473.827,-51.2757 481.763,-42.6319"/>
<polygon fill="#b43f3f" stroke="#b43f3f" points="484.506,-44.8165 488.602,-35.0454 479.307,-40.1295 484.506,-44.8165"/>
<text text-anchor="middle" x="493.296" y="-57.8" font-family="Times,serif" font-size="14.00">1 (95.1)</text>
</g>
<!-- 031 -->
<g id="node13" class="node"><title>031</title>
<ellipse fill="#ff8a8a" stroke="#b43f3f" cx="593.296" cy="-105" rx="36.2938" ry="18"/>
<text text-anchor="middle" x="593.296" y="-101.3" font-family="Times,serif" font-size="14.00">031 (a)</text>
</g>
<!-- 013 -->
<g id="node14" class="node"><title>013</title>
<ellipse fill="#ff8a8a" stroke="#b43f3f" cx="593.296" cy="-18" rx="36.2938" ry="18"/>
<text text-anchor="middle" x="593.296" y="-14.3" font-family="Times,serif" font-size="14.00">013 (a)</text>
</g>
<!-- 031&#45;&gt;013 -->
<g id="edge10" class="edge"><title>031&#45;&gt;013</title>
<path fill="none" stroke="#b43f3f" stroke-dasharray="1,5" d="M593.296,-86.799C593.296,-75.1626 593.296,-59.5479 593.296,-46.2368"/>
<polygon fill="#b43f3f" stroke="#b43f3f" points="596.797,-46.1754 593.296,-36.1754 589.797,-46.1755 596.797,-46.1754"/>
<text text-anchor="middle" x="615.296" y="-57.8" font-family="Times,serif" font-size="14.00">1 (97.1)</text>
</g>
<!-- 01 -->
<g id="node15" class="node"><title>01</title>
<ellipse fill="#ff8a8a" stroke="#b43f3f" cx="679.296" cy="-18" rx="31.6951" ry="18"/>
<text text-anchor="middle" x="679.296" y="-14.3" font-family="Times,serif" font-size="14.00">01 (a)</text>
</g>
<!-- 031&#45;&gt;01 -->
<g id="edge11" class="edge"><title>031&#45;&gt;01</title>
<path fill="none" stroke="#b43f3f" stroke-dasharray="1,5" d="M614.9,-90.2504C623.557,-84.2452 633.343,-76.7976 641.296,-69 649.121,-61.3291 656.659,-51.9752 662.929,-43.4419"/>
<polygon fill="#b43f3f" stroke="#b43f3f" points="665.794,-45.452 668.74,-35.2749 660.09,-41.3937 665.794,-45.452"/>
<text text-anchor="middle" x="676.296" y="-57.8" font-family="Times,serif" font-size="14.00">2 (48.5)</text>
</g>
<!-- 017 -->
<g id="node16" class="node"><title>017</title>
<ellipse fill="#ff8a8a" stroke="#b43f3f" cx="765.296" cy="-18" rx="36.2938" ry="18"/>
<text text-anchor="middle" x="765.296" y="-14.3" font-family="Times,serif" font-size="14.00">017 (a)</text>
</g>
<!-- 031&#45;&gt;017 -->
<g id="edge12" class="edge"><title>031&#45;&gt;017</title>
<path fill="none" stroke="#b43f3f" stroke-dasharray="1,5" d="M621.398,-93.2315C627.282,-91.0845 633.47,-88.9059 639.296,-87 666.974,-77.9462 676.394,-82.307 702.296,-69 716.589,-61.6575 730.761,-50.8136 742.034,-41.0996"/>
<polygon fill="#b43f3f" stroke="#b43f3f" points="744.542,-43.5525 749.69,-34.2921 739.891,-38.3213 744.542,-43.5525"/>
<text text-anchor="middle" x="747.296" y="-57.8" font-family="Times,serif" font-size="14.00">1 (94.3)</text>
</g>
<!-- 063 -->
<g id="node17" class="node"><title>063</title>
<ellipse fill="#cea8f4" stroke="#835da9" cx="593.296" cy="-192" rx="36.2938" ry="18"/>
<text text-anchor="middle" x="593.296" y="-188.3" font-family="Times,serif" font-size="14.00">063 (b)</text>
</g>
<!-- 063&#45;&gt;021 -->
<g id="edge13" class="edge"><title>063&#45;&gt;021</title>
<path fill="none" stroke="#b43f3f" stroke-dasharray="1,5" d="M560.972,-183.578C530.197,-176.507 482.585,-165.555 441.296,-156 381.326,-142.122 311.971,-125.976 268.616,-115.871"/>
<polygon fill="#b43f3f" stroke="#b43f3f" points="269.242,-112.423 258.709,-113.561 267.653,-119.24 269.242,-112.423"/>
<text text-anchor="middle" x="463.296" y="-144.8" font-family="Times,serif" font-size="14.00">1 (93.1)</text>
</g>
<!-- 063&#45;&gt;07 -->
<g id="edge14" class="edge"><title>063&#45;&gt;07</title>
<path fill="none" stroke="#b43f3f" stroke-dasharray="1,5" d="M567.434,-179.181C534.355,-164.064 477.011,-137.859 440.671,-121.252"/>
<polygon fill="#b43f3f" stroke="#b43f3f" points="442.014,-118.017 431.464,-117.044 439.104,-124.384 442.014,-118.017"/>
<text text-anchor="middle" x="534.296" y="-144.8" font-family="Times,serif" font-size="14.00">1 (96.6)</text>
</g>
<!-- 063&#45;&gt;031 -->
<g id="edge15" class="edge"><title>063&#45;&gt;031</title>
<path fill="none" stroke="#b43f3f" stroke-dasharray="1,5" d="M593.296,-173.799C593.296,-162.163 593.296,-146.548 593.296,-133.237"/>
<polygon fill="#b43f3f" stroke="#b43f3f" points="596.797,-133.175 593.296,-123.175 589.797,-133.175 596.797,-133.175"/>
<text text-anchor="middle" x="615.296" y="-144.8" font-family="Times,serif" font-size="14.00">1 (95.8)</text>
</g>
<!-- 045 -->
<g id="node18" class="node"><title>045</title>
<ellipse fill="#ff8a8a" stroke="#b43f3f" cx="684.296" cy="-105" rx="36.2938" ry="18"/>
<text text-anchor="middle" x="684.296" y="-101.3" font-family="Times,serif" font-size="14.00">045 (a)</text>
</g>
<!-- 063&#45;&gt;045 -->
<g id="edge16" class="edge"><title>063&#45;&gt;045</title>
<path fill="none" stroke="#b43f3f" stroke-dasharray="1,5" d="M614.668,-177.006C623.289,-170.963 633.111,-163.554 641.296,-156 649.841,-148.115 658.372,-138.619 665.557,-130.029"/>
<polygon fill="#b43f3f" stroke="#b43f3f" points="668.374,-132.113 671.989,-122.155 662.952,-127.685 668.374,-132.113"/>
<text text-anchor="middle" x="677.296" y="-144.8" font-family="Times,serif" font-size="14.00">1 (93.1)</text>
</g>
<!-- 011 -->
<g id="node19" class="node"><title>011</title>
<ellipse fill="#ff8a8a" stroke="#b43f3f" cx="775.296" cy="-105" rx="36.2938" ry="18"/>
<text text-anchor="middle" x="775.296" y="-101.3" font-family="Times,serif" font-size="14.00">011 (a)</text>
</g>
<!-- 063&#45;&gt;011 -->
<g id="edge17" class="edge"><title>063&#45;&gt;011</title>
<path fill="none" stroke="#b43f3f" stroke-dasharray="1,5" d="M625.564,-183.461C648.023,-177.566 678.305,-168.305 703.296,-156 719.424,-148.059 735.998,-136.801 749.173,-126.977"/>
<polygon fill="#b43f3f" stroke="#b43f3f" points="751.472,-129.626 757.301,-120.778 747.227,-124.06 751.472,-129.626"/>
<text text-anchor="middle" x="750.296" y="-144.8" font-family="Times,serif" font-size="14.00">1 (93.1)</text>
</g>
<!-- 028 -->
<g id="node20" class="node"><title>028</title>
<ellipse fill="#ff8a8a" stroke="#b43f3f" cx="866.296" cy="-105" rx="36.2938" ry="18"/>
<text text-anchor="middle" x="866.296" y="-101.3" font-family="Times,serif" font-size="14.00">028 (a)</text>
</g>
<!-- 063&#45;&gt;028 -->
<g id="edge18" class="edge"><title>063&#45;&gt;028</title>
<path fill="none" stroke="#b43f3f" stroke-dasharray="1,5" d="M628.925,-187.578C666.467,-183.197 726.885,-173.927 776.296,-156 797.562,-148.285 819.799,-135.977 836.848,-125.504"/>
<polygon fill="#b43f3f" stroke="#b43f3f" points="839.14,-128.197 845.747,-119.915 835.417,-122.269 839.14,-128.197"/>
<text text-anchor="middle" x="829.296" y="-144.8" font-family="Times,serif" font-size="14.00">1 (96.6)</text>
</g>
<!-- 038 -->
<g id="node21" class="node"><title>038</title>
<ellipse fill="#ff8a8a" stroke="#b43f3f" cx="856.296" cy="-18" rx="36.2938" ry="18"/>
<text text-anchor="middle" x="856.296" y="-14.3" font-family="Times,serif" font-size="14.00">038 (a)</text>
</g>
<!-- 045&#45;&gt;038 -->
<g id="edge19" class="edge"><title>045&#45;&gt;038</title>
<path fill="none" stroke="#b43f3f" stroke-dasharray="1,5" d="M712.569,-93.4713C734.254,-85.2857 762.279,-74.4373 773.296,-69 791.582,-59.9763 811.159,-48.2885 826.705,-38.4823"/>
<polygon fill="#b43f3f" stroke="#b43f3f" points="828.808,-41.2923 835.352,-32.9605 825.041,-35.3925 828.808,-41.2923"/>
<text text-anchor="middle" x="821.296" y="-57.8" font-family="Times,serif" font-size="14.00">1 (92.7)</text>
</g>
<!-- A -->
<g id="node22" class="node"><title>A</title>
<ellipse fill="#cea8f4" stroke="#835da9" cx="475.296" cy="-366" rx="29.795" ry="18"/>
<text text-anchor="middle" x="475.296" y="-362.3" font-family="Times,serif" font-size="14.00">A (b)</text>
</g>
<!-- 05 -->
<g id="node23" class="node"><title>05</title>
<ellipse fill="#ff8a8a" stroke="#b43f3f" cx="345.296" cy="-279" rx="31.6951" ry="18"/>
<text text-anchor="middle" x="345.296" y="-275.3" font-family="Times,serif" font-size="14.00">05 (a)</text>
</g>
<!-- A&#45;&gt;05 -->
<g id="edge20" class="edge"><title>A&#45;&gt;05</title>
<path fill="none" stroke="#b43f3f" stroke-dasharray="1,5" d="M448.853,-357.512C431.25,-351.74 408.163,-342.602 390.296,-330 380.213,-322.888 370.788,-313.13 363.195,-304.121"/>
<polygon fill="#b43f3f" stroke="#b43f3f" points="365.773,-301.742 356.771,-296.155 360.324,-306.137 365.773,-301.742"/>
<text text-anchor="middle" x="412.296" y="-318.8" font-family="Times,serif" font-size="14.00">2 (76.9)</text>
</g>
<!-- 03 -->
<g id="node24" class="node"><title>03</title>
<ellipse fill="#cea8f4" stroke="#835da9" cx="427.296" cy="-279" rx="32.4942" ry="18"/>
<text text-anchor="middle" x="427.296" y="-275.3" font-family="Times,serif" font-size="14.00">03 (b)</text>
</g>
<!-- A&#45;&gt;03 -->
<g id="edge21" class="edge"><title>A&#45;&gt;03</title>
<path fill="none" stroke="#835da9" stroke-dasharray="1,5" d="M460.555,-350.244C455.219,-344.319 449.483,-337.194 445.296,-330 441.102,-322.792 437.625,-314.441 434.882,-306.652"/>
<polygon fill="#835da9" stroke="#835da9" points="438.125,-305.306 431.701,-296.881 431.469,-307.473 438.125,-305.306"/>
<text text-anchor="middle" x="467.296" y="-318.8" font-family="Times,serif" font-size="14.00">1 (93.3)</text>
</g>
<!-- 019 -->
<g id="node25" class="node"><title>019</title>
<ellipse fill="#cea8f4" stroke="#835da9" cx="514.296" cy="-279" rx="36.2938" ry="18"/>
<text text-anchor="middle" x="514.296" y="-275.3" font-family="Times,serif" font-size="14.00">019 (b)</text>
</g>
<!-- A&#45;&gt;019 -->
<g id="edge22" class="edge"><title>A&#45;&gt;019</title>
<path fill="none" stroke="#835da9" stroke-dasharray="1,5" d="M483.002,-348.207C488.503,-336.216 496.012,-319.851 502.295,-306.157"/>
<polygon fill="#835da9" stroke="#835da9" points="505.618,-307.307 506.607,-296.758 499.256,-304.388 505.618,-307.307"/>
<text text-anchor="middle" x="519.296" y="-318.8" font-family="Times,serif" font-size="14.00">1 (93.3)</text>
</g>
<!-- P75 -->
<g id="node26" class="node"><title>P75</title>
<ellipse fill="#cea8f4" stroke="#835da9" cx="605.296" cy="-279" rx="37.0935" ry="18"/>
<text text-anchor="middle" x="605.296" y="-275.3" font-family="Times,serif" font-size="14.00">P75 (b)</text>
</g>
<!-- A&#45;&gt;P75 -->
<g id="edge23" class="edge"><title>A&#45;&gt;P75</title>
<path fill="none" stroke="#835da9" stroke-dasharray="1,5" d="M499.056,-354.788C512.968,-348.406 530.628,-339.594 545.296,-330 557.866,-321.779 570.791,-311.312 581.411,-302.081"/>
<polygon fill="#835da9" stroke="#835da9" points="583.876,-304.573 589.038,-295.321 579.233,-299.334 583.876,-304.573"/>
<text text-anchor="middle" x="587.296" y="-318.8" font-family="Times,serif" font-size="14.00">1 (93.3)</text>
</g>
<!-- 044 -->
<g id="node27" class="node"><title>044</title>
<ellipse fill="#cea8f4" stroke="#835da9" cx="135.296" cy="-192" rx="36.2938" ry="18"/>
<text text-anchor="middle" x="135.296" y="-188.3" font-family="Times,serif" font-size="14.00">044 (b)</text>
</g>
<!-- 03&#45;&gt;044 -->
<g id="edge26" class="edge"><title>03&#45;&gt;044</title>
<path fill="none" stroke="#835da9" stroke-dasharray="1,5" d="M402.339,-267.054C397.088,-264.92 391.547,-262.792 386.296,-261 314.142,-236.381 227.965,-214.653 177.659,-202.714"/>
<polygon fill="#835da9" stroke="#835da9" points="178.326,-199.276 167.789,-200.389 176.72,-206.089 178.326,-199.276"/>
<text text-anchor="middle" x="347.296" y="-231.8" font-family="Times,serif" font-size="14.00">1 (89.2)</text>
</g>
<!-- 032 -->
<g id="node30" class="node"><title>032</title>
<ellipse fill="#cea8f4" stroke="#835da9" cx="389.296" cy="-192" rx="36.2938" ry="18"/>
<text text-anchor="middle" x="389.296" y="-188.3" font-family="Times,serif" font-size="14.00">032 (b)</text>
</g>
<!-- 03&#45;&gt;032 -->
<g id="edge27" class="edge"><title>03&#45;&gt;032</title>
<path fill="none" stroke="#835da9" stroke-dasharray="1,5" d="M418.981,-261.353C416.156,-255.574 413.025,-249.031 410.296,-243 406.803,-235.28 403.171,-226.808 399.929,-219.067"/>
<polygon fill="#835da9" stroke="#835da9" points="403.135,-217.661 396.071,-209.765 396.669,-220.343 403.135,-217.661"/>
<text text-anchor="middle" x="432.296" y="-231.8" font-family="Times,serif" font-size="14.00">1 (91.7)</text>
</g>
<!-- 02 -->
<g id="node31" class="node"><title>02</title>
<ellipse fill="#cea8f4" stroke="#835da9" cx="476.296" cy="-192" rx="32.4942" ry="18"/>
<text text-anchor="middle" x="476.296" y="-188.3" font-family="Times,serif" font-size="14.00">02 (b)</text>
</g>
<!-- 03&#45;&gt;02 -->
<g id="edge28" class="edge"><title>03&#45;&gt;02</title>
<path fill="none" stroke="#835da9" stroke-dasharray="1,5" d="M440.515,-262.549C445.202,-256.654 450.3,-249.731 454.296,-243 458.722,-235.546 462.792,-227.041 466.196,-219.185"/>
<polygon fill="#835da9" stroke="#835da9" points="469.528,-220.288 470.128,-209.71 463.062,-217.604 469.528,-220.288"/>
<text text-anchor="middle" x="484.296" y="-231.8" font-family="Times,serif" font-size="14.00">1 (86.5)</text>
</g>
<!-- 019&#45;&gt;063 -->
<g id="edge29" class="edge"><title>019&#45;&gt;063</title>
<path fill="none" stroke="#835da9" stroke-dasharray="1,5" d="M528.786,-262.41C540.738,-249.55 557.879,-231.107 571.489,-216.464"/>
<polygon fill="#835da9" stroke="#835da9" points="574.387,-218.487 578.631,-208.779 569.259,-213.721 574.387,-218.487"/>
<text text-anchor="middle" x="581.296" y="-231.8" font-family="Times,serif" font-size="14.00">1 (85.7)</text>
</g>
<!-- 0141 -->
<g id="node28" class="node"><title>0141</title>
<ellipse fill="#ff8a8a" stroke="#b43f3f" cx="40.2964" cy="-105" rx="40.0939" ry="18"/>
<text text-anchor="middle" x="40.2964" y="-101.3" font-family="Times,serif" font-size="14.00">0141 (a)</text>
</g>
<!-- 044&#45;&gt;0141 -->
<g id="edge24" class="edge"><title>044&#45;&gt;0141</title>
<path fill="none" stroke="#b43f3f" stroke-dasharray="1,5" d="M114.566,-177.159C105.86,-171.025 95.8017,-163.508 87.2964,-156 78.1331,-147.911 68.7658,-138.276 60.8297,-129.632"/>
<polygon fill="#b43f3f" stroke="#b43f3f" points="63.2861,-127.129 53.9907,-122.045 58.0868,-131.816 63.2861,-127.129"/>
<text text-anchor="middle" x="109.296" y="-144.8" font-family="Times,serif" font-size="14.00">1 (89.2)</text>
</g>
<!-- 022 -->
<g id="node29" class="node"><title>022</title>
<ellipse fill="#cea8f4" stroke="#835da9" cx="135.296" cy="-105" rx="36.2938" ry="18"/>
<text text-anchor="middle" x="135.296" y="-101.3" font-family="Times,serif" font-size="14.00">022 (b)</text>
</g>
<!-- 044&#45;&gt;022 -->
<g id="edge25" class="edge"><title>044&#45;&gt;022</title>
<path fill="none" stroke="#835da9" stroke-dasharray="1,5" d="M135.296,-173.799C135.296,-162.163 135.296,-146.548 135.296,-133.237"/>
<polygon fill="#835da9" stroke="#835da9" points="138.797,-133.175 135.296,-123.175 131.797,-133.175 138.797,-133.175"/>
<text text-anchor="middle" x="157.296" y="-144.8" font-family="Times,serif" font-size="14.00">1 (91.7)</text>
</g>
</g>
</svg>
