<?xml version="1.0" encoding="UTF-8" standalone="no"?>
<!DOCTYPE svg PUBLIC "-//W3C//DTD SVG 1.1//EN"
 "http://www.w3.org/Graphics/SVG/1.1/DTD/svg11.dtd">
<!-- Generated by graphviz version 2.38.0 (20140413.2041)
 -->
<!-- Title: G Pages: 1 -->
<svg width="986pt" height="260pt"
 viewBox="0.00 0.00 985.89 260.00" xmlns="http://www.w3.org/2000/svg" xmlns:xlink="http://www.w3.org/1999/xlink">
<g id="graph0" class="graph" transform="scale(1 1) rotate(0) translate(4 256)">
<title>G</title>
<polygon fill="white" stroke="none" points="-4,4 -4,-256 981.894,-256 981.894,4 -4,4"/>
<!-- 038 (a) -->
<g id="node1" class="node"><title>038 (a)</title>
<ellipse fill="#ff8a8a" stroke="#b43f3f" cx="218.397" cy="-18" rx="36.2938" ry="18"/>
<text text-anchor="middle" x="218.397" y="-14.3" font-family="Times,serif" font-size="14.00">038 (a)</text>
</g>
<!-- 034 (a) -->
<g id="node2" class="node"><title>034 (a)</title>
<ellipse fill="#ff8a8a" stroke="#b43f3f" cx="309.397" cy="-18" rx="36.2938" ry="18"/>
<text text-anchor="middle" x="309.397" y="-14.3" font-family="Times,serif" font-size="14.00">034 (a)</text>
</g>
<!-- 063 (a) -->
<g id="node3" class="node"><title>063 (a)</title>
<ellipse fill="#ff8a8a" stroke="#b43f3f" cx="264.397" cy="-162" rx="36.2938" ry="18"/>
<text text-anchor="middle" x="264.397" y="-158.3" font-family="Times,serif" font-size="14.00">063 (a)</text>
</g>
<!-- 028 (a) -->
<g id="node5" class="node"><title>028 (a)</title>
<ellipse fill="#ff8a8a" stroke="#b43f3f" cx="36.3968" cy="-90" rx="36.2938" ry="18"/>
<text text-anchor="middle" x="36.3968" y="-86.3" font-family="Times,serif" font-size="14.00">028 (a)</text>
</g>
<!-- 063 (a)&#45;&gt;028 (a) -->
<g id="edge1" class="edge"><title>063 (a)&#45;&gt;028 (a)</title>
<path fill="none" stroke="black" d="M233.277,-152.658C196.874,-142.735 134.901,-125.323 82.3968,-108 79.668,-107.1 76.8592,-106.141 74.0389,-105.156"/>
<polygon fill="black" stroke="black" points="75.1,-101.818 64.5054,-101.746 72.7423,-108.409 75.1,-101.818"/>
</g>
<!-- 031 (a) -->
<g id="node15" class="node"><title>031 (a)</title>
<ellipse fill="#ff8a8a" stroke="#b43f3f" cx="127.397" cy="-90" rx="36.2938" ry="18"/>
<text text-anchor="middle" x="127.397" y="-86.3" font-family="Times,serif" font-size="14.00">031 (a)</text>
</g>
<!-- 063 (a)&#45;&gt;031 (a) -->
<g id="edge2" class="edge"><title>063 (a)&#45;&gt;031 (a)</title>
<path fill="none" stroke="black" d="M239.904,-148.485C217.929,-137.257 185.475,-120.675 161.063,-108.202"/>
<polygon fill="black" stroke="black" points="162.637,-105.076 152.139,-103.642 159.452,-111.309 162.637,-105.076"/>
</g>
<!-- 011 (a) -->
<g id="node18" class="node"><title>011 (a)</title>
<ellipse fill="#ff8a8a" stroke="#b43f3f" cx="218.397" cy="-90" rx="36.2938" ry="18"/>
<text text-anchor="middle" x="218.397" y="-86.3" font-family="Times,serif" font-size="14.00">011 (a)</text>
</g>
<!-- 063 (a)&#45;&gt;011 (a) -->
<g id="edge5" class="edge"><title>063 (a)&#45;&gt;011 (a)</title>
<path fill="none" stroke="black" d="M253.728,-144.765C248.119,-136.23 241.122,-125.582 234.838,-116.019"/>
<polygon fill="black" stroke="black" points="237.744,-114.068 229.327,-107.633 231.894,-117.913 237.744,-114.068"/>
</g>
<!-- 045 (a) -->
<g id="node20" class="node"><title>045 (a)</title>
<ellipse fill="#ff8a8a" stroke="#b43f3f" cx="309.397" cy="-90" rx="36.2938" ry="18"/>
<text text-anchor="middle" x="309.397" y="-86.3" font-family="Times,serif" font-size="14.00">045 (a)</text>
</g>
<!-- 063 (a)&#45;&gt;045 (a) -->
<g id="edge6" class="edge"><title>063 (a)&#45;&gt;045 (a)</title>
<path fill="none" stroke="black" d="M275.061,-144.411C280.497,-135.955 287.222,-125.494 293.275,-116.078"/>
<polygon fill="black" stroke="black" points="296.345,-117.774 298.809,-107.47 290.457,-113.989 296.345,-117.774"/>
</g>
<!-- 07 (a) -->
<g id="node24" class="node"><title>07 (a)</title>
<ellipse fill="#ff8a8a" stroke="#b43f3f" cx="398.397" cy="-90" rx="31.6951" ry="18"/>
<text text-anchor="middle" x="398.397" y="-86.3" font-family="Times,serif" font-size="14.00">07 (a)</text>
</g>
<!-- 063 (a)&#45;&gt;07 (a) -->
<g id="edge3" class="edge"><title>063 (a)&#45;&gt;07 (a)</title>
<path fill="none" stroke="black" d="M288.663,-148.324C310.502,-136.915 342.737,-120.076 366.624,-107.598"/>
<polygon fill="black" stroke="black" points="368.408,-110.614 375.651,-102.882 365.167,-104.41 368.408,-110.614"/>
</g>
<!-- 021 (a) -->
<g id="node27" class="node"><title>021 (a)</title>
<ellipse fill="#ff8a8a" stroke="#b43f3f" cx="582.397" cy="-90" rx="36.2938" ry="18"/>
<text text-anchor="middle" x="582.397" y="-86.3" font-family="Times,serif" font-size="14.00">021 (a)</text>
</g>
<!-- 063 (a)&#45;&gt;021 (a) -->
<g id="edge4" class="edge"><title>063 (a)&#45;&gt;021 (a)</title>
<path fill="none" stroke="black" d="M293.383,-151.051C301.133,-148.57 309.54,-146.039 317.397,-144 394.246,-124.058 485.287,-107.322 538.179,-98.2674"/>
<polygon fill="black" stroke="black" points="538.961,-101.685 548.234,-96.5601 537.789,-94.7837 538.961,-101.685"/>
</g>
<!-- 05 (a) -->
<g id="node4" class="node"><title>05 (a)</title>
<ellipse fill="#ff8a8a" stroke="#b43f3f" cx="358.397" cy="-162" rx="31.6951" ry="18"/>
<text text-anchor="middle" x="358.397" y="-158.3" font-family="Times,serif" font-size="14.00">05 (a)</text>
</g>
<!-- 02 (a) -->
<g id="node6" class="node"><title>02 (a)</title>
<ellipse fill="#ff8a8a" stroke="#b43f3f" cx="638.397" cy="-162" rx="31.6951" ry="18"/>
<text text-anchor="middle" x="638.397" y="-158.3" font-family="Times,serif" font-size="14.00">02 (a)</text>
</g>
<!-- 03 (a) -->
<g id="node7" class="node"><title>03 (a)</title>
<ellipse fill="#ff8a8a" stroke="#b43f3f" cx="681.397" cy="-234" rx="31.6951" ry="18"/>
<text text-anchor="middle" x="681.397" y="-230.3" font-family="Times,serif" font-size="14.00">03 (a)</text>
</g>
<!-- 03 (a)&#45;&gt;02 (a) -->
<g id="edge7" class="edge"><title>03 (a)&#45;&gt;02 (a)</title>
<path fill="none" stroke="black" d="M671.424,-216.765C666.159,-208.195 659.586,-197.494 653.693,-187.9"/>
<polygon fill="black" stroke="black" points="656.532,-185.836 648.316,-179.147 650.568,-189.5 656.532,-185.836"/>
</g>
<!-- 044 (a) -->
<g id="node8" class="node"><title>044 (a)</title>
<ellipse fill="#ff8a8a" stroke="#b43f3f" cx="724.397" cy="-162" rx="36.2938" ry="18"/>
<text text-anchor="middle" x="724.397" y="-158.3" font-family="Times,serif" font-size="14.00">044 (a)</text>
</g>
<!-- 03 (a)&#45;&gt;044 (a) -->
<g id="edge8" class="edge"><title>03 (a)&#45;&gt;044 (a)</title>
<path fill="none" stroke="black" d="M691.37,-216.765C696.559,-208.317 703.02,-197.799 708.848,-188.312"/>
<polygon fill="black" stroke="black" points="711.927,-189.986 714.179,-179.633 705.963,-186.322 711.927,-189.986"/>
</g>
<!-- 0141 (a) -->
<g id="node9" class="node"><title>0141 (a)</title>
<ellipse fill="#ff8a8a" stroke="#b43f3f" cx="677.397" cy="-90" rx="40.0939" ry="18"/>
<text text-anchor="middle" x="677.397" y="-86.3" font-family="Times,serif" font-size="14.00">0141 (a)</text>
</g>
<!-- 044 (a)&#45;&gt;0141 (a) -->
<g id="edge10" class="edge"><title>044 (a)&#45;&gt;0141 (a)</title>
<path fill="none" stroke="black" d="M713.496,-144.765C707.766,-136.23 700.616,-125.582 694.195,-116.019"/>
<polygon fill="black" stroke="black" points="697.045,-113.985 688.565,-107.633 691.234,-117.887 697.045,-113.985"/>
</g>
<!-- 022 (a) -->
<g id="node21" class="node"><title>022 (a)</title>
<ellipse fill="#ff8a8a" stroke="#b43f3f" cx="772.397" cy="-90" rx="36.2938" ry="18"/>
<text text-anchor="middle" x="772.397" y="-86.3" font-family="Times,serif" font-size="14.00">022 (a)</text>
</g>
<!-- 044 (a)&#45;&gt;022 (a) -->
<g id="edge9" class="edge"><title>044 (a)&#45;&gt;022 (a)</title>
<path fill="none" stroke="black" d="M735.53,-144.765C741.467,-136.106 748.895,-125.273 755.525,-115.604"/>
<polygon fill="black" stroke="black" points="758.556,-117.374 761.324,-107.147 752.782,-113.415 758.556,-117.374"/>
</g>
<!-- 019 (a) -->
<g id="node10" class="node"><title>019 (a)</title>
<ellipse fill="#ff8a8a" stroke="#b43f3f" cx="264.397" cy="-234" rx="36.2938" ry="18"/>
<text text-anchor="middle" x="264.397" y="-230.3" font-family="Times,serif" font-size="14.00">019 (a)</text>
</g>
<!-- 019 (a)&#45;&gt;063 (a) -->
<g id="edge11" class="edge"><title>019 (a)&#45;&gt;063 (a)</title>
<path fill="none" stroke="black" d="M264.397,-215.697C264.397,-207.983 264.397,-198.712 264.397,-190.112"/>
<polygon fill="black" stroke="black" points="267.897,-190.104 264.397,-180.104 260.897,-190.104 267.897,-190.104"/>
</g>
<!-- 032 (c) -->
<g id="node11" class="node"><title>032 (c)</title>
<ellipse fill="#72fe95" stroke="#27b34a" cx="767.397" cy="-234" rx="36.2938" ry="18"/>
<text text-anchor="middle" x="767.397" y="-230.3" font-family="Times,serif" font-size="14.00">032 (c)</text>
</g>
<!-- P75 (a) -->
<g id="node12" class="node"><title>P75 (a)</title>
<ellipse fill="#ff8a8a" stroke="#b43f3f" cx="858.397" cy="-234" rx="36.2938" ry="18"/>
<text text-anchor="middle" x="858.397" y="-230.3" font-family="Times,serif" font-size="14.00">P75 (a)</text>
</g>
<!-- 01 (b) -->
<g id="node13" class="node"><title>01 (b)</title>
<ellipse fill="#cea8f4" stroke="#835da9" cx="945.397" cy="-234" rx="32.4942" ry="18"/>
<text text-anchor="middle" x="945.397" y="-230.3" font-family="Times,serif" font-size="14.00">01 (b)</text>
</g>
<!-- 0211 (a) -->
<g id="node14" class="node"><title>0211 (a)</title>
<ellipse fill="#ff8a8a" stroke="#b43f3f" cx="448.397" cy="-162" rx="40.0939" ry="18"/>
<text text-anchor="middle" x="448.397" y="-158.3" font-family="Times,serif" font-size="14.00">0211 (a)</text>
</g>
<!-- 017 (a) -->
<g id="node17" class="node"><title>017 (a)</title>
<ellipse fill="#ff8a8a" stroke="#b43f3f" cx="36.3968" cy="-18" rx="36.2938" ry="18"/>
<text text-anchor="middle" x="36.3968" y="-14.3" font-family="Times,serif" font-size="14.00">017 (a)</text>
</g>
<!-- 031 (a)&#45;&gt;017 (a) -->
<g id="edge12" class="edge"><title>031 (a)&#45;&gt;017 (a)</title>
<path fill="none" stroke="black" d="M108.542,-74.496C95.486,-64.4532 77.9115,-50.9344 63.3771,-39.7541"/>
<polygon fill="black" stroke="black" points="65.2881,-36.8084 55.2279,-33.4855 61.0201,-42.3568 65.2881,-36.8084"/>
</g>
<!-- 013 (a) -->
<g id="node22" class="node"><title>013 (a)</title>
<ellipse fill="#ff8a8a" stroke="#b43f3f" cx="127.397" cy="-18" rx="36.2938" ry="18"/>
<text text-anchor="middle" x="127.397" y="-14.3" font-family="Times,serif" font-size="14.00">013 (a)</text>
</g>
<!-- 031 (a)&#45;&gt;013 (a) -->
<g id="edge13" class="edge"><title>031 (a)&#45;&gt;013 (a)</title>
<path fill="none" stroke="black" d="M127.397,-71.6966C127.397,-63.9827 127.397,-54.7125 127.397,-46.1124"/>
<polygon fill="black" stroke="black" points="130.897,-46.1043 127.397,-36.1043 123.897,-46.1044 130.897,-46.1043"/>
</g>
<!-- 036 (a) -->
<g id="node16" class="node"><title>036 (a)</title>
<ellipse fill="#ff8a8a" stroke="#b43f3f" cx="582.397" cy="-18" rx="36.2938" ry="18"/>
<text text-anchor="middle" x="582.397" y="-14.3" font-family="Times,serif" font-size="14.00">036 (a)</text>
</g>
<!-- 047 (a) -->
<g id="node19" class="node"><title>047 (a)</title>
<ellipse fill="#ff8a8a" stroke="#b43f3f" cx="673.397" cy="-18" rx="36.2938" ry="18"/>
<text text-anchor="middle" x="673.397" y="-14.3" font-family="Times,serif" font-size="14.00">047 (a)</text>
</g>
<!-- 045 (a)&#45;&gt;038 (a) -->
<g id="edge14" class="edge"><title>045 (a)&#45;&gt;038 (a)</title>
<path fill="none" stroke="black" d="M290.542,-74.496C277.486,-64.4532 259.912,-50.9344 245.377,-39.7541"/>
<polygon fill="black" stroke="black" points="247.288,-36.8084 237.228,-33.4855 243.02,-42.3568 247.288,-36.8084"/>
</g>
<!-- 091 (a) -->
<g id="node23" class="node"><title>091 (a)</title>
<ellipse fill="#ff8a8a" stroke="#b43f3f" cx="403.397" cy="-234" rx="36.2938" ry="18"/>
<text text-anchor="middle" x="403.397" y="-230.3" font-family="Times,serif" font-size="14.00">091 (a)</text>
</g>
<!-- 091 (a)&#45;&gt;05 (a) -->
<g id="edge15" class="edge"><title>091 (a)&#45;&gt;05 (a)</title>
<path fill="none" stroke="black" d="M392.732,-216.411C387.296,-207.955 380.572,-197.494 374.519,-188.078"/>
<polygon fill="black" stroke="black" points="377.336,-185.989 368.985,-179.47 371.448,-189.774 377.336,-185.989"/>
</g>
<!-- 091 (a)&#45;&gt;0211 (a) -->
<g id="edge16" class="edge"><title>091 (a)&#45;&gt;0211 (a)</title>
<path fill="none" stroke="black" d="M414.061,-216.411C419.497,-207.955 426.222,-197.494 432.275,-188.078"/>
<polygon fill="black" stroke="black" points="435.345,-189.774 437.809,-179.47 429.457,-185.989 435.345,-189.774"/>
</g>
<!-- 07 (a)&#45;&gt;034 (a) -->
<g id="edge19" class="edge"><title>07 (a)&#45;&gt;034 (a)</title>
<path fill="none" stroke="black" d="M380.386,-74.8345C367.648,-64.8158 350.357,-51.2163 336.03,-39.9473"/>
<polygon fill="black" stroke="black" points="338.017,-37.0574 327.993,-33.6263 333.69,-42.5595 338.017,-37.0574"/>
</g>
<!-- 037 (a) -->
<g id="node25" class="node"><title>037 (a)</title>
<ellipse fill="#ff8a8a" stroke="#b43f3f" cx="400.397" cy="-18" rx="36.2938" ry="18"/>
<text text-anchor="middle" x="400.397" y="-14.3" font-family="Times,serif" font-size="14.00">037 (a)</text>
</g>
<!-- 07 (a)&#45;&gt;037 (a) -->
<g id="edge17" class="edge"><title>07 (a)&#45;&gt;037 (a)</title>
<path fill="none" stroke="black" d="M398.891,-71.6966C399.112,-63.9827 399.376,-54.7125 399.622,-46.1124"/>
<polygon fill="black" stroke="black" points="403.121,-46.2002 399.908,-36.1043 396.124,-46.0003 403.121,-46.2002"/>
</g>
<!-- 030 (a) -->
<g id="node26" class="node"><title>030 (a)</title>
<ellipse fill="#ff8a8a" stroke="#b43f3f" cx="491.397" cy="-18" rx="36.2938" ry="18"/>
<text text-anchor="middle" x="491.397" y="-14.3" font-family="Times,serif" font-size="14.00">030 (a)</text>
</g>
<!-- 07 (a)&#45;&gt;030 (a) -->
<g id="edge18" class="edge"><title>07 (a)&#45;&gt;030 (a)</title>
<path fill="none" stroke="black" d="M416.771,-75.1703C430.259,-65.0175 448.806,-51.0578 464.035,-39.5952"/>
<polygon fill="black" stroke="black" points="466.216,-42.3341 472.101,-33.524 462.006,-36.7413 466.216,-42.3341"/>
</g>
<!-- 021 (a)&#45;&gt;036 (a) -->
<g id="edge20" class="edge"><title>021 (a)&#45;&gt;036 (a)</title>
<path fill="none" stroke="black" d="M582.397,-71.6966C582.397,-63.9827 582.397,-54.7125 582.397,-46.1124"/>
<polygon fill="black" stroke="black" points="585.897,-46.1043 582.397,-36.1043 578.897,-46.1044 585.897,-46.1043"/>
</g>
<!-- 021 (a)&#45;&gt;047 (a) -->
<g id="edge21" class="edge"><title>021 (a)&#45;&gt;047 (a)</title>
<path fill="none" stroke="black" d="M601.252,-74.496C614.308,-64.4532 631.882,-50.9344 646.416,-39.7541"/>
<polygon fill="black" stroke="black" points="648.773,-42.3568 654.566,-33.4855 644.505,-36.8084 648.773,-42.3568"/>
</g>
</g>
</svg>
