<?xml version="1.0" encoding="UTF-8" standalone="no"?>
<!DOCTYPE svg PUBLIC "-//W3C//DTD SVG 1.1//EN"
 "http://www.w3.org/Graphics/SVG/1.1/DTD/svg11.dtd">
<!-- Generated by graphviz version 2.38.0 (20140413.2041)
 -->
<!-- Title: %3 Pages: 1 -->
<svg width="1445pt" height="152pt"
 viewBox="0.00 0.00 1445.40 152.00" xmlns="http://www.w3.org/2000/svg" xmlns:xlink="http://www.w3.org/1999/xlink">
<g id="graph0" class="graph" transform="scale(1 1) rotate(0) translate(4 148)">
<title>%3</title>
<polygon fill="white" stroke="none" points="-4,4 -4,-148 1441.4,-148 1441.4,4 -4,4"/>
<g id="clust1" class="cluster"><title>cluster_legend</title>
<path fill="none" stroke="black" d="M20,-8C20,-8 210,-8 210,-8 216,-8 222,-14 222,-20 222,-20 222,-124 222,-124 222,-130 216,-136 210,-136 210,-136 20,-136 20,-136 14,-136 8,-130 8,-124 8,-124 8,-20 8,-20 8,-14 14,-8 20,-8"/>
</g>
<!-- leg_s -->
<g id="node1" class="node"><title>leg_s</title>
<text text-anchor="middle" x="115" y="-106.3" font-family="Times,serif" font-size="14.00">Textual flow strength</text>
</g>
<!-- leg_e1 -->
<!-- leg_s&#45;&gt;leg_e1 -->
<g id="edge1" class="edge"><title>leg_s&#45;&gt;leg_e1</title>
<path fill="none" stroke="black" stroke-dasharray="1,5" d="M96.6657,-91.6857C91.1324,-86.1938 85.1607,-79.9891 80,-74 70.1708,-62.593 60.0722,-48.7786 52.9137,-38.5634"/>
<polygon fill="black" stroke="black" points="55.6142,-36.3142 47.056,-30.0685 49.8514,-40.2879 55.6142,-36.3142"/>
<text text-anchor="middle" x="95.5" y="-62.8" font-family="Times,serif" font-size="14.00">&lt;=5 &#160;</text>
</g>
<!-- leg_e2 -->
<!-- leg_s&#45;&gt;leg_e2 -->
<g id="edge2" class="edge"><title>leg_s&#45;&gt;leg_e2</title>
<path fill="none" stroke="black" stroke-dasharray="5,2" d="M115,-91.799C115,-76.7942 115,-55.1745 115,-40.4086"/>
<polygon fill="black" stroke="black" points="118.5,-40.2934 115,-30.2934 111.5,-40.2934 118.5,-40.2934"/>
<text text-anchor="middle" x="134" y="-62.8" font-family="Times,serif" font-size="14.00"> &#160;&lt;=25</text>
</g>
<!-- leg_e3 -->
<!-- leg_s&#45;&gt;leg_e3 -->
<g id="edge3" class="edge"><title>leg_s&#45;&gt;leg_e3</title>
<path fill="none" stroke="black" d="M138.503,-91.7602C144.906,-86.4621 151.567,-80.3439 157,-74 166.087,-63.3897 174.095,-49.6892 179.546,-39.3134"/>
<polygon fill="black" stroke="black" points="182.722,-40.7893 184.091,-30.2833 176.469,-37.6425 182.722,-40.7893"/>
<text text-anchor="middle" x="179" y="-62.8" font-family="Times,serif" font-size="14.00">&gt;25</text>
</g>
<!-- 031 -->
<g id="node5" class="node"><title>031</title>
<ellipse fill="#ff8a8a" stroke="#b43f3f" cx="359" cy="-110" rx="36.2938" ry="18"/>
<text text-anchor="middle" x="359" y="-106.3" font-family="Times,serif" font-size="14.00">031 (a)</text>
</g>
<!-- 017 -->
<g id="node6" class="node"><title>017</title>
<ellipse fill="#ff8a8a" stroke="#b43f3f" cx="268" cy="-23" rx="36.2938" ry="18"/>
<text text-anchor="middle" x="268" y="-19.3" font-family="Times,serif" font-size="14.00">017 (a)</text>
</g>
<!-- 031&#45;&gt;017 -->
<g id="edge4" class="edge"><title>031&#45;&gt;017</title>
<path fill="none" stroke="#b43f3f" stroke-dasharray="1,5" d="M337.628,-95.006C329.008,-88.9634 319.186,-81.5539 311,-74 302.456,-66.1154 293.924,-56.6186 286.74,-48.0293"/>
<polygon fill="#b43f3f" stroke="#b43f3f" points="289.344,-45.6853 280.308,-40.1545 283.923,-50.1135 289.344,-45.6853"/>
<text text-anchor="middle" x="333" y="-62.8" font-family="Times,serif" font-size="14.00">1 (94.3)</text>
</g>
<!-- 013 -->
<g id="node7" class="node"><title>013</title>
<ellipse fill="#ff8a8a" stroke="#b43f3f" cx="359" cy="-23" rx="36.2938" ry="18"/>
<text text-anchor="middle" x="359" y="-19.3" font-family="Times,serif" font-size="14.00">013 (a)</text>
</g>
<!-- 031&#45;&gt;013 -->
<g id="edge5" class="edge"><title>031&#45;&gt;013</title>
<path fill="none" stroke="#b43f3f" stroke-dasharray="1,5" d="M359,-91.799C359,-80.1626 359,-64.5479 359,-51.2368"/>
<polygon fill="#b43f3f" stroke="#b43f3f" points="362.5,-51.1754 359,-41.1754 355.5,-51.1755 362.5,-51.1754"/>
<text text-anchor="middle" x="381" y="-62.8" font-family="Times,serif" font-size="14.00">1 (97.1)</text>
</g>
<!-- 01 -->
<g id="node8" class="node"><title>01</title>
<ellipse fill="#ff8a8a" stroke="#b43f3f" cx="445" cy="-23" rx="31.6951" ry="18"/>
<text text-anchor="middle" x="445" y="-19.3" font-family="Times,serif" font-size="14.00">01 (a)</text>
</g>
<!-- 031&#45;&gt;01 -->
<g id="edge6" class="edge"><title>031&#45;&gt;01</title>
<path fill="none" stroke="#b43f3f" stroke-dasharray="1,5" d="M380.604,-95.2504C389.26,-89.2452 399.046,-81.7976 407,-74 414.825,-66.3291 422.362,-56.9752 428.632,-48.4419"/>
<polygon fill="#b43f3f" stroke="#b43f3f" points="431.497,-50.452 434.443,-40.2749 425.794,-46.3937 431.497,-50.452"/>
<text text-anchor="middle" x="442" y="-62.8" font-family="Times,serif" font-size="14.00">2 (48.5)</text>
</g>
<!-- 045 -->
<g id="node9" class="node"><title>045</title>
<ellipse fill="#ff8a8a" stroke="#b43f3f" cx="531" cy="-110" rx="36.2938" ry="18"/>
<text text-anchor="middle" x="531" y="-106.3" font-family="Times,serif" font-size="14.00">045 (a)</text>
</g>
<!-- 038 -->
<g id="node10" class="node"><title>038</title>
<ellipse fill="#ff8a8a" stroke="#b43f3f" cx="531" cy="-23" rx="36.2938" ry="18"/>
<text text-anchor="middle" x="531" y="-19.3" font-family="Times,serif" font-size="14.00">038 (a)</text>
</g>
<!-- 045&#45;&gt;038 -->
<g id="edge7" class="edge"><title>045&#45;&gt;038</title>
<path fill="none" stroke="#b43f3f" stroke-dasharray="1,5" d="M531,-91.799C531,-80.1626 531,-64.5479 531,-51.2368"/>
<polygon fill="#b43f3f" stroke="#b43f3f" points="534.5,-51.1754 531,-41.1754 527.5,-51.1755 534.5,-51.1754"/>
<text text-anchor="middle" x="553" y="-62.8" font-family="Times,serif" font-size="14.00">1 (92.7)</text>
</g>
<!-- 07 -->
<g id="node11" class="node"><title>07</title>
<ellipse fill="#ff8a8a" stroke="#b43f3f" cx="717" cy="-110" rx="31.6951" ry="18"/>
<text text-anchor="middle" x="717" y="-106.3" font-family="Times,serif" font-size="14.00">07 (a)</text>
</g>
<!-- 030 -->
<g id="node12" class="node"><title>030</title>
<ellipse fill="#ff8a8a" stroke="#b43f3f" cx="622" cy="-23" rx="36.2938" ry="18"/>
<text text-anchor="middle" x="622" y="-19.3" font-family="Times,serif" font-size="14.00">030 (a)</text>
</g>
<!-- 07&#45;&gt;030 -->
<g id="edge8" class="edge"><title>07&#45;&gt;030</title>
<path fill="none" stroke="#b43f3f" stroke-dasharray="1,5" d="M697.214,-95.8221C688.297,-89.5722 677.815,-81.7806 669,-74 659.837,-65.9115 650.469,-56.2757 642.533,-47.6319"/>
<polygon fill="#b43f3f" stroke="#b43f3f" points="644.99,-45.1295 635.694,-40.0454 639.79,-49.8165 644.99,-45.1295"/>
<text text-anchor="middle" x="691" y="-62.8" font-family="Times,serif" font-size="14.00">1 (95.1)</text>
</g>
<!-- 0211 -->
<g id="node13" class="node"><title>0211</title>
<ellipse fill="#ff8a8a" stroke="#b43f3f" cx="717" cy="-23" rx="40.0939" ry="18"/>
<text text-anchor="middle" x="717" y="-19.3" font-family="Times,serif" font-size="14.00">0211 (a)</text>
</g>
<!-- 07&#45;&gt;0211 -->
<g id="edge9" class="edge"><title>07&#45;&gt;0211</title>
<path fill="none" stroke="#b43f3f" stroke-dasharray="1,5" d="M717,-91.799C717,-80.1626 717,-64.5479 717,-51.2368"/>
<polygon fill="#b43f3f" stroke="#b43f3f" points="720.5,-51.1754 717,-41.1754 713.5,-51.1755 720.5,-51.1754"/>
<text text-anchor="middle" x="739" y="-62.8" font-family="Times,serif" font-size="14.00">2 (82.9)</text>
</g>
<!-- 037 -->
<g id="node14" class="node"><title>037</title>
<ellipse fill="#ff8a8a" stroke="#b43f3f" cx="812" cy="-23" rx="36.2938" ry="18"/>
<text text-anchor="middle" x="812" y="-19.3" font-family="Times,serif" font-size="14.00">037 (a)</text>
</g>
<!-- 07&#45;&gt;037 -->
<g id="edge10" class="edge"><title>07&#45;&gt;037</title>
<path fill="none" stroke="#b43f3f" stroke-dasharray="1,5" d="M736.786,-95.8221C745.703,-89.5722 756.185,-81.7806 765,-74 774.163,-65.9115 783.531,-56.2757 791.467,-47.6319"/>
<polygon fill="#b43f3f" stroke="#b43f3f" points="794.21,-49.8165 798.306,-40.0454 789.01,-45.1295 794.21,-49.8165"/>
<text text-anchor="middle" x="803" y="-62.8" font-family="Times,serif" font-size="14.00">1 (97.5)</text>
</g>
<!-- 021 -->
<g id="node15" class="node"><title>021</title>
<ellipse fill="#ff8a8a" stroke="#b43f3f" cx="948" cy="-110" rx="36.2938" ry="18"/>
<text text-anchor="middle" x="948" y="-106.3" font-family="Times,serif" font-size="14.00">021 (a)</text>
</g>
<!-- 036 -->
<g id="node16" class="node"><title>036</title>
<ellipse fill="#ff8a8a" stroke="#b43f3f" cx="903" cy="-23" rx="36.2938" ry="18"/>
<text text-anchor="middle" x="903" y="-19.3" font-family="Times,serif" font-size="14.00">036 (a)</text>
</g>
<!-- 021&#45;&gt;036 -->
<g id="edge11" class="edge"><title>021&#45;&gt;036</title>
<path fill="none" stroke="#b43f3f" stroke-dasharray="1,5" d="M938.247,-92.3706C934.926,-86.5933 931.236,-80.047 928,-74 923.833,-66.2133 919.469,-57.6446 915.575,-49.8337"/>
<polygon fill="#b43f3f" stroke="#b43f3f" points="918.672,-48.1997 911.104,-40.7855 912.397,-51.3011 918.672,-48.1997"/>
<text text-anchor="middle" x="950" y="-62.8" font-family="Times,serif" font-size="14.00">1 (97.6)</text>
</g>
<!-- 047 -->
<g id="node17" class="node"><title>047</title>
<ellipse fill="#ff8a8a" stroke="#b43f3f" cx="994" cy="-23" rx="36.2938" ry="18"/>
<text text-anchor="middle" x="994" y="-19.3" font-family="Times,serif" font-size="14.00">047 (a)</text>
</g>
<!-- 021&#45;&gt;047 -->
<g id="edge12" class="edge"><title>021&#45;&gt;047</title>
<path fill="none" stroke="#b43f3f" stroke-dasharray="1,5" d="M960.129,-92.6704C964.149,-86.9172 968.489,-80.3093 972,-74 976.15,-66.5417 980.102,-58.1477 983.481,-50.3977"/>
<polygon fill="#b43f3f" stroke="#b43f3f" points="986.764,-51.6185 987.427,-41.0444 980.315,-48.8974 986.764,-51.6185"/>
<text text-anchor="middle" x="1001" y="-62.8" font-family="Times,serif" font-size="14.00">1 (95.1)</text>
</g>
<!-- 011 -->
<g id="node18" class="node"><title>011</title>
<ellipse fill="#ff8a8a" stroke="#b43f3f" cx="1039" cy="-110" rx="36.2938" ry="18"/>
<text text-anchor="middle" x="1039" y="-106.3" font-family="Times,serif" font-size="14.00">011 (a)</text>
</g>
<!-- 028 -->
<g id="node19" class="node"><title>028</title>
<ellipse fill="#ff8a8a" stroke="#b43f3f" cx="1130" cy="-110" rx="36.2938" ry="18"/>
<text text-anchor="middle" x="1130" y="-106.3" font-family="Times,serif" font-size="14.00">028 (a)</text>
</g>
<!-- 0141 -->
<g id="node20" class="node"><title>0141</title>
<ellipse fill="#ff8a8a" stroke="#b43f3f" cx="1225" cy="-110" rx="40.0939" ry="18"/>
<text text-anchor="middle" x="1225" y="-106.3" font-family="Times,serif" font-size="14.00">0141 (a)</text>
</g>
<!-- 05 -->
<g id="node21" class="node"><title>05</title>
<ellipse fill="#ff8a8a" stroke="#b43f3f" cx="1315" cy="-110" rx="31.6951" ry="18"/>
<text text-anchor="middle" x="1315" y="-106.3" font-family="Times,serif" font-size="14.00">05 (a)</text>
</g>
<!-- 034 -->
<g id="node22" class="node"><title>034</title>
<ellipse fill="#cea8f4" stroke="#835da9" cx="1401" cy="-110" rx="36.2938" ry="18"/>
<text text-anchor="middle" x="1401" y="-106.3" font-family="Times,serif" font-size="14.00">034 (b)</text>
</g>
</g>
</svg>
