<?xml version="1.0" encoding="UTF-8" standalone="no"?>
<!DOCTYPE svg PUBLIC "-//W3C//DTD SVG 1.1//EN"
 "http://www.w3.org/Graphics/SVG/1.1/DTD/svg11.dtd">
<!-- Generated by graphviz version 2.38.0 (20140413.2041)
 -->
<!-- Title: G Pages: 1 -->
<svg width="942pt" height="218pt"
 viewBox="0.00 0.00 942.24 218.00" xmlns="http://www.w3.org/2000/svg" xmlns:xlink="http://www.w3.org/1999/xlink">
<g id="graph0" class="graph" transform="scale(1 1) rotate(0) translate(4 214)">
<title>G</title>
<polygon fill="white" stroke="none" points="-4,4 -4,-214 938.244,-214 938.244,4 -4,4"/>
<!-- 013 (a) -->
<g id="node1" class="node"><title>013 (a)</title>
<ellipse fill="#ff8a8a" stroke="#b43f3f" cx="445.397" cy="-18" rx="36.2938" ry="18"/>
<text text-anchor="middle" x="445.397" y="-14.3" font-family="Times,serif" font-size="14.00">013 (a)</text>
</g>
<!-- 011 (a) -->
<g id="node2" class="node"><title>011 (a)</title>
<ellipse fill="#ff8a8a" stroke="#b43f3f" cx="43.3968" cy="-105" rx="36.2938" ry="18"/>
<text text-anchor="middle" x="43.3968" y="-101.3" font-family="Times,serif" font-size="14.00">011 (a)</text>
</g>
<!-- 017 (a) -->
<g id="node3" class="node"><title>017 (a)</title>
<ellipse fill="#ff8a8a" stroke="#b43f3f" cx="536.397" cy="-18" rx="36.2938" ry="18"/>
<text text-anchor="middle" x="536.397" y="-14.3" font-family="Times,serif" font-size="14.00">017 (a)</text>
</g>
<!-- 07 (a) -->
<g id="node4" class="node"><title>07 (a)</title>
<ellipse fill="#ff8a8a" stroke="#b43f3f" cx="129.397" cy="-105" rx="31.6951" ry="18"/>
<text text-anchor="middle" x="129.397" y="-101.3" font-family="Times,serif" font-size="14.00">07 (a)</text>
</g>
<!-- 030 (a) -->
<g id="node5" class="node"><title>030 (a)</title>
<ellipse fill="#ff8a8a" stroke="#b43f3f" cx="36.3968" cy="-18" rx="36.2938" ry="18"/>
<text text-anchor="middle" x="36.3968" y="-14.3" font-family="Times,serif" font-size="14.00">030 (a)</text>
</g>
<!-- 07 (a)&#45;&gt;030 (a) -->
<g id="edge1" class="edge"><title>07 (a)&#45;&gt;030 (a)</title>
<path fill="none" stroke="#b43f3f" d="M109.056,-91.0147C99.9243,-84.8037 89.2402,-76.9892 80.3968,-69 71.6838,-61.1287 62.96,-51.6347 55.6048,-43.0439"/>
<polygon fill="#b43f3f" stroke="#b43f3f" points="58.1174,-40.5924 49.0174,-35.1665 52.7475,-45.083 58.1174,-40.5924"/>
<text text-anchor="middle" x="102.397" y="-57.8" font-family="Times,serif" font-size="14.00">1 (95.1)</text>
</g>
<!-- 034 (a) -->
<g id="node15" class="node"><title>034 (a)</title>
<ellipse fill="#ff8a8a" stroke="#b43f3f" cx="127.397" cy="-18" rx="36.2938" ry="18"/>
<text text-anchor="middle" x="127.397" y="-14.3" font-family="Times,serif" font-size="14.00">034 (a)</text>
</g>
<!-- 07 (a)&#45;&gt;034 (a) -->
<g id="edge2" class="edge"><title>07 (a)&#45;&gt;034 (a)</title>
<path fill="none" stroke="#b43f3f" d="M128.992,-86.799C128.718,-75.1626 128.351,-59.5479 128.038,-46.2368"/>
<polygon fill="#b43f3f" stroke="#b43f3f" points="131.535,-46.0903 127.801,-36.1754 124.537,-46.255 131.535,-46.0903"/>
<text text-anchor="middle" x="151.397" y="-57.8" font-family="Times,serif" font-size="14.00">1 (95.1)</text>
</g>
<!-- 05 (c) -->
<g id="node6" class="node"><title>05 (c)</title>
<ellipse fill="#72fe95" stroke="#27b34a" cx="360.397" cy="-192" rx="31.6951" ry="18"/>
<text text-anchor="middle" x="360.397" y="-188.3" font-family="Times,serif" font-size="14.00">05 (c)</text>
</g>
<!-- 021 (a) -->
<g id="node7" class="node"><title>021 (a)</title>
<ellipse fill="#ff8a8a" stroke="#b43f3f" cx="217.397" cy="-105" rx="36.2938" ry="18"/>
<text text-anchor="middle" x="217.397" y="-101.3" font-family="Times,serif" font-size="14.00">021 (a)</text>
</g>
<!-- 036 (a) -->
<g id="node10" class="node"><title>036 (a)</title>
<ellipse fill="#ff8a8a" stroke="#b43f3f" cx="218.397" cy="-18" rx="36.2938" ry="18"/>
<text text-anchor="middle" x="218.397" y="-14.3" font-family="Times,serif" font-size="14.00">036 (a)</text>
</g>
<!-- 021 (a)&#45;&gt;036 (a) -->
<g id="edge3" class="edge"><title>021 (a)&#45;&gt;036 (a)</title>
<path fill="none" stroke="#b43f3f" d="M217.599,-86.799C217.736,-75.1626 217.92,-59.5479 218.076,-46.2368"/>
<polygon fill="#b43f3f" stroke="#b43f3f" points="221.577,-46.216 218.195,-36.1754 214.577,-46.1335 221.577,-46.216"/>
<text text-anchor="middle" x="240.397" y="-57.8" font-family="Times,serif" font-size="14.00">1 (97.6)</text>
</g>
<!-- 047 (a) -->
<g id="node17" class="node"><title>047 (a)</title>
<ellipse fill="#ff8a8a" stroke="#b43f3f" cx="309.397" cy="-18" rx="36.2938" ry="18"/>
<text text-anchor="middle" x="309.397" y="-14.3" font-family="Times,serif" font-size="14.00">047 (a)</text>
</g>
<!-- 021 (a)&#45;&gt;047 (a) -->
<g id="edge4" class="edge"><title>021 (a)&#45;&gt;047 (a)</title>
<path fill="none" stroke="#b43f3f" d="M238.747,-90.4023C247.667,-84.3103 257.908,-76.7574 266.397,-69 274.979,-61.1573 283.519,-51.6692 290.699,-43.0751"/>
<polygon fill="#b43f3f" stroke="#b43f3f" points="293.519,-45.155 297.124,-35.1922 288.093,-40.7326 293.519,-45.155"/>
<text text-anchor="middle" x="303.397" y="-57.8" font-family="Times,serif" font-size="14.00">1 (95.1)</text>
</g>
<!-- 028 (a) -->
<g id="node8" class="node"><title>028 (a)</title>
<ellipse fill="#ff8a8a" stroke="#b43f3f" cx="308.397" cy="-105" rx="36.2938" ry="18"/>
<text text-anchor="middle" x="308.397" y="-101.3" font-family="Times,serif" font-size="14.00">028 (a)</text>
</g>
<!-- 0211 (d) -->
<g id="node9" class="node"><title>0211 (d)</title>
<ellipse fill="#ff86c2" stroke="#b43b77" cx="451.397" cy="-192" rx="40.8928" ry="18"/>
<text text-anchor="middle" x="451.397" y="-188.3" font-family="Times,serif" font-size="14.00">0211 (d)</text>
</g>
<!-- P75 (b) -->
<g id="node11" class="node"><title>P75 (b)</title>
<ellipse fill="#cea8f4" stroke="#835da9" cx="547.397" cy="-192" rx="37.0935" ry="18"/>
<text text-anchor="middle" x="547.397" y="-188.3" font-family="Times,serif" font-size="14.00">P75 (b)</text>
</g>
<!-- 045 (a) -->
<g id="node12" class="node"><title>045 (a)</title>
<ellipse fill="#ff8a8a" stroke="#b43f3f" cx="399.397" cy="-105" rx="36.2938" ry="18"/>
<text text-anchor="middle" x="399.397" y="-101.3" font-family="Times,serif" font-size="14.00">045 (a)</text>
</g>
<!-- 038 (b) -->
<g id="node13" class="node"><title>038 (b)</title>
<ellipse fill="#cea8f4" stroke="#835da9" cx="638.397" cy="-192" rx="36.2938" ry="18"/>
<text text-anchor="middle" x="638.397" y="-188.3" font-family="Times,serif" font-size="14.00">038 (b)</text>
</g>
<!-- 03 (b) -->
<g id="node14" class="node"><title>03 (b)</title>
<ellipse fill="#cea8f4" stroke="#835da9" cx="725.397" cy="-192" rx="32.4942" ry="18"/>
<text text-anchor="middle" x="725.397" y="-188.3" font-family="Times,serif" font-size="14.00">03 (b)</text>
</g>
<!-- 02 (b) -->
<g id="node18" class="node"><title>02 (b)</title>
<ellipse fill="#cea8f4" stroke="#835da9" cx="725.397" cy="-105" rx="32.4942" ry="18"/>
<text text-anchor="middle" x="725.397" y="-101.3" font-family="Times,serif" font-size="14.00">02 (b)</text>
</g>
<!-- 03 (b)&#45;&gt;02 (b) -->
<g id="edge5" class="edge"><title>03 (b)&#45;&gt;02 (b)</title>
<path fill="none" stroke="#835da9" d="M725.397,-173.799C725.397,-162.163 725.397,-146.548 725.397,-133.237"/>
<polygon fill="#835da9" stroke="#835da9" points="728.897,-133.175 725.397,-123.175 721.897,-133.175 728.897,-133.175"/>
<text text-anchor="middle" x="747.397" y="-144.8" font-family="Times,serif" font-size="14.00">1 (86.5)</text>
</g>
<!-- 0141 (a) -->
<g id="node16" class="node"><title>0141 (a)</title>
<ellipse fill="#ff8a8a" stroke="#b43f3f" cx="816.397" cy="-105" rx="40.0939" ry="18"/>
<text text-anchor="middle" x="816.397" y="-101.3" font-family="Times,serif" font-size="14.00">0141 (a)</text>
</g>
<!-- 044 (a) -->
<g id="node19" class="node"><title>044 (a)</title>
<ellipse fill="#ff8a8a" stroke="#b43f3f" cx="816.397" cy="-192" rx="36.2938" ry="18"/>
<text text-anchor="middle" x="816.397" y="-188.3" font-family="Times,serif" font-size="14.00">044 (a)</text>
</g>
<!-- 044 (a)&#45;&gt;0141 (a) -->
<g id="edge6" class="edge"><title>044 (a)&#45;&gt;0141 (a)</title>
<path fill="none" stroke="#b43f3f" d="M816.397,-173.799C816.397,-162.163 816.397,-146.548 816.397,-133.237"/>
<polygon fill="#b43f3f" stroke="#b43f3f" points="819.897,-133.175 816.397,-123.175 812.897,-133.175 819.897,-133.175"/>
<text text-anchor="middle" x="838.397" y="-144.8" font-family="Times,serif" font-size="14.00">1 (89.2)</text>
</g>
<!-- 01 (c) -->
<g id="node20" class="node"><title>01 (c)</title>
<ellipse fill="#72fe95" stroke="#27b34a" cx="902.397" cy="-192" rx="31.6951" ry="18"/>
<text text-anchor="middle" x="902.397" y="-188.3" font-family="Times,serif" font-size="14.00">01 (c)</text>
</g>
<!-- 063 (a) -->
<g id="node21" class="node"><title>063 (a)</title>
<ellipse fill="#ff8a8a" stroke="#b43f3f" cx="274.397" cy="-192" rx="36.2938" ry="18"/>
<text text-anchor="middle" x="274.397" y="-188.3" font-family="Times,serif" font-size="14.00">063 (a)</text>
</g>
<!-- 063 (a)&#45;&gt;011 (a) -->
<g id="edge9" class="edge"><title>063 (a)&#45;&gt;011 (a)</title>
<path fill="none" stroke="#b43f3f" d="M239.18,-186.859C206.795,-182.187 157.95,-172.926 118.397,-156 101.002,-148.556 83.3085,-136.991 69.4787,-126.857"/>
<polygon fill="#b43f3f" stroke="#b43f3f" points="71.4994,-123.998 61.4041,-120.782 67.291,-129.591 71.4994,-123.998"/>
<text text-anchor="middle" x="140.397" y="-144.8" font-family="Times,serif" font-size="14.00">1 (93.1)</text>
</g>
<!-- 063 (a)&#45;&gt;07 (a) -->
<g id="edge10" class="edge"><title>063 (a)&#45;&gt;07 (a)</title>
<path fill="none" stroke="#b43f3f" d="M243.885,-181.994C226.093,-176.027 203.636,-167.227 185.397,-156 173.135,-148.453 161.028,-138.109 151.226,-128.787"/>
<polygon fill="#b43f3f" stroke="#b43f3f" points="153.49,-126.105 143.899,-121.603 148.589,-131.103 153.49,-126.105"/>
<text text-anchor="middle" x="207.397" y="-144.8" font-family="Times,serif" font-size="14.00">1 (96.6)</text>
</g>
<!-- 063 (a)&#45;&gt;021 (a) -->
<g id="edge11" class="edge"><title>063 (a)&#45;&gt;021 (a)</title>
<path fill="none" stroke="#b43f3f" d="M258.174,-175.865C252.437,-170.005 246.219,-163.022 241.397,-156 236.359,-148.664 231.831,-140.108 228.101,-132.169"/>
<polygon fill="#b43f3f" stroke="#b43f3f" points="231.241,-130.617 223.966,-122.915 224.85,-133.473 231.241,-130.617"/>
<text text-anchor="middle" x="263.397" y="-144.8" font-family="Times,serif" font-size="14.00">1 (93.1)</text>
</g>
<!-- 063 (a)&#45;&gt;028 (a) -->
<g id="edge8" class="edge"><title>063 (a)&#45;&gt;028 (a)</title>
<path fill="none" stroke="#b43f3f" d="M281.114,-174.207C285.911,-162.216 292.456,-145.851 297.934,-132.157"/>
<polygon fill="#b43f3f" stroke="#b43f3f" points="301.229,-133.343 301.693,-122.758 294.73,-130.743 301.229,-133.343"/>
<text text-anchor="middle" x="316.397" y="-144.8" font-family="Times,serif" font-size="14.00">1 (96.6)</text>
</g>
<!-- 063 (a)&#45;&gt;045 (a) -->
<g id="edge7" class="edge"><title>063 (a)&#45;&gt;045 (a)</title>
<path fill="none" stroke="#b43f3f" d="M300.755,-179.297C313.724,-173.08 329.336,-164.892 342.397,-156 354.246,-147.934 366.327,-137.683 376.3,-128.566"/>
<polygon fill="#b43f3f" stroke="#b43f3f" points="378.882,-130.944 383.801,-121.56 374.104,-125.828 378.882,-130.944"/>
<text text-anchor="middle" x="383.397" y="-144.8" font-family="Times,serif" font-size="14.00">1 (93.1)</text>
</g>
<!-- 031 (a) -->
<g id="node22" class="node"><title>031 (a)</title>
<ellipse fill="#ff8a8a" stroke="#b43f3f" cx="490.397" cy="-105" rx="36.2938" ry="18"/>
<text text-anchor="middle" x="490.397" y="-101.3" font-family="Times,serif" font-size="14.00">031 (a)</text>
</g>
<!-- 063 (a)&#45;&gt;031 (a) -->
<g id="edge12" class="edge"><title>063 (a)&#45;&gt;031 (a)</title>
<path fill="none" stroke="#b43f3f" d="M301.762,-179.847C307.528,-177.728 313.617,-175.658 319.397,-174 358.608,-162.754 371.443,-170.949 409.397,-156 428.42,-148.507 447.974,-136.579 463.103,-126.252"/>
<polygon fill="#b43f3f" stroke="#b43f3f" points="465.276,-129.004 471.462,-120.402 461.262,-123.268 465.276,-129.004"/>
<text text-anchor="middle" x="460.397" y="-144.8" font-family="Times,serif" font-size="14.00">1 (95.8)</text>
</g>
<!-- 031 (a)&#45;&gt;013 (a) -->
<g id="edge13" class="edge"><title>031 (a)&#45;&gt;013 (a)</title>
<path fill="none" stroke="#b43f3f" d="M480.644,-87.3706C477.322,-81.5933 473.633,-75.047 470.397,-69 466.229,-61.2133 461.866,-52.6446 457.972,-44.8337"/>
<polygon fill="#b43f3f" stroke="#b43f3f" points="461.069,-43.1997 453.5,-35.7855 454.793,-46.3011 461.069,-43.1997"/>
<text text-anchor="middle" x="492.397" y="-57.8" font-family="Times,serif" font-size="14.00">1 (97.1)</text>
</g>
<!-- 031 (a)&#45;&gt;017 (a) -->
<g id="edge14" class="edge"><title>031 (a)&#45;&gt;017 (a)</title>
<path fill="none" stroke="#b43f3f" d="M502.526,-87.6704C506.546,-81.9172 510.886,-75.3093 514.397,-69 518.547,-61.5417 522.498,-53.1477 525.877,-45.3977"/>
<polygon fill="#b43f3f" stroke="#b43f3f" points="529.161,-46.6185 529.824,-36.0444 522.712,-43.8974 529.161,-46.6185"/>
<text text-anchor="middle" x="544.397" y="-57.8" font-family="Times,serif" font-size="14.00">1 (94.3)</text>
</g>
</g>
</svg>
