<?xml version="1.0" encoding="UTF-8" standalone="no"?>
<!DOCTYPE svg PUBLIC "-//W3C//DTD SVG 1.1//EN"
 "http://www.w3.org/Graphics/SVG/1.1/DTD/svg11.dtd">
<!-- Generated by graphviz version 2.38.0 (20140413.2041)
 -->
<!-- Title: G Pages: 1 -->
<svg width="842pt" height="392pt"
 viewBox="0.00 0.00 841.79 392.00" xmlns="http://www.w3.org/2000/svg" xmlns:xlink="http://www.w3.org/1999/xlink">
<g id="graph0" class="graph" transform="scale(1 1) rotate(0) translate(4 388)">
<title>G</title>
<polygon fill="white" stroke="none" points="-4,4 -4,-388 837.794,-388 837.794,4 -4,4"/>
<!-- 013 (a) -->
<g id="node1" class="node"><title>013 (a)</title>
<ellipse fill="#ff8a8a" stroke="#b43f3f" cx="706.397" cy="-18" rx="36.2938" ry="18"/>
<text text-anchor="middle" x="706.397" y="-14.3" font-family="Times,serif" font-size="14.00">013 (a)</text>
</g>
<!-- 017 (a) -->
<g id="node2" class="node"><title>017 (a)</title>
<ellipse fill="#ff8a8a" stroke="#b43f3f" cx="797.397" cy="-18" rx="36.2938" ry="18"/>
<text text-anchor="middle" x="797.397" y="-14.3" font-family="Times,serif" font-size="14.00">017 (a)</text>
</g>
<!-- 032 (a) -->
<g id="node3" class="node"><title>032 (a)</title>
<ellipse fill="#ff8a8a" stroke="#b43f3f" cx="36.3968" cy="-192" rx="36.2938" ry="18"/>
<text text-anchor="middle" x="36.3968" y="-188.3" font-family="Times,serif" font-size="14.00">032 (a)</text>
</g>
<!-- A (a) -->
<g id="node4" class="node"><title>A (a)</title>
<ellipse fill="#ff8a8a" stroke="#b43f3f" cx="474.397" cy="-366" rx="29.4969" ry="18"/>
<text text-anchor="middle" x="474.397" y="-362.3" font-family="Times,serif" font-size="14.00">A (a)</text>
</g>
<!-- 03 (a) -->
<g id="node11" class="node"><title>03 (a)</title>
<ellipse fill="#ff8a8a" stroke="#b43f3f" cx="160.397" cy="-279" rx="31.6951" ry="18"/>
<text text-anchor="middle" x="160.397" y="-275.3" font-family="Times,serif" font-size="14.00">03 (a)</text>
</g>
<!-- A (a)&#45;&gt;03 (a) -->
<g id="edge1" class="edge"><title>A (a)&#45;&gt;03 (a)</title>
<path fill="none" stroke="#b43f3f" d="M448.165,-357.899C392.621,-342.863 262.95,-307.761 198.358,-290.276"/>
<polygon fill="#b43f3f" stroke="#b43f3f" points="199.139,-286.862 188.572,-287.627 197.31,-293.619 199.139,-286.862"/>
<text text-anchor="middle" x="358.397" y="-318.8" font-family="Times,serif" font-size="14.00">1 (93.3)</text>
</g>
<!-- P75 (a) -->
<g id="node12" class="node"><title>P75 (a)</title>
<ellipse fill="#ff8a8a" stroke="#b43f3f" cx="383.397" cy="-279" rx="36.2938" ry="18"/>
<text text-anchor="middle" x="383.397" y="-275.3" font-family="Times,serif" font-size="14.00">P75 (a)</text>
</g>
<!-- A (a)&#45;&gt;P75 (a) -->
<g id="edge3" class="edge"><title>A (a)&#45;&gt;P75 (a)</title>
<path fill="none" stroke="#b43f3f" d="M454.92,-352.326C445.869,-346.06 435.189,-338.113 426.397,-330 417.853,-322.115 409.321,-312.619 402.136,-304.029"/>
<polygon fill="#b43f3f" stroke="#b43f3f" points="404.741,-301.685 395.704,-296.155 399.32,-306.113 404.741,-301.685"/>
<text text-anchor="middle" x="448.397" y="-318.8" font-family="Times,serif" font-size="14.00">1 (93.3)</text>
</g>
<!-- 019 (a) -->
<g id="node15" class="node"><title>019 (a)</title>
<ellipse fill="#ff8a8a" stroke="#b43f3f" cx="474.397" cy="-279" rx="36.2938" ry="18"/>
<text text-anchor="middle" x="474.397" y="-275.3" font-family="Times,serif" font-size="14.00">019 (a)</text>
</g>
<!-- A (a)&#45;&gt;019 (a) -->
<g id="edge4" class="edge"><title>A (a)&#45;&gt;019 (a)</title>
<path fill="none" stroke="#b43f3f" d="M474.397,-347.799C474.397,-336.163 474.397,-320.548 474.397,-307.237"/>
<polygon fill="#b43f3f" stroke="#b43f3f" points="477.897,-307.175 474.397,-297.175 470.897,-307.175 477.897,-307.175"/>
<text text-anchor="middle" x="496.397" y="-318.8" font-family="Times,serif" font-size="14.00">1 (93.3)</text>
</g>
<!-- 091 (a) -->
<g id="node18" class="node"><title>091 (a)</title>
<ellipse fill="#ff8a8a" stroke="#b43f3f" cx="565.397" cy="-279" rx="36.2938" ry="18"/>
<text text-anchor="middle" x="565.397" y="-275.3" font-family="Times,serif" font-size="14.00">091 (a)</text>
</g>
<!-- A (a)&#45;&gt;091 (a) -->
<g id="edge5" class="edge"><title>A (a)&#45;&gt;091 (a)</title>
<path fill="none" stroke="#b43f3f" d="M493.874,-352.326C502.925,-346.06 513.605,-338.113 522.397,-330 530.941,-322.115 539.472,-312.619 546.657,-304.029"/>
<polygon fill="#b43f3f" stroke="#b43f3f" points="549.474,-306.113 553.089,-296.155 544.053,-301.685 549.474,-306.113"/>
<text text-anchor="middle" x="558.397" y="-318.8" font-family="Times,serif" font-size="14.00">1 (87.5)</text>
</g>
<!-- 01 (b) -->
<g id="node21" class="node"><title>01 (b)</title>
<ellipse fill="#cea8f4" stroke="#835da9" cx="652.397" cy="-279" rx="32.4942" ry="18"/>
<text text-anchor="middle" x="652.397" y="-275.3" font-family="Times,serif" font-size="14.00">01 (b)</text>
</g>
<!-- A (a)&#45;&gt;01 (b) -->
<g id="edge2" class="edge"><title>A (a)&#45;&gt;01 (b)</title>
<path fill="none" stroke="#835da9" d="M501.579,-358.984C524.448,-353.314 557.61,-343.642 584.397,-330 599.78,-322.166 615.406,-310.953 627.794,-301.13"/>
<polygon fill="#835da9" stroke="#835da9" points="630.26,-303.636 635.809,-294.61 625.843,-298.205 630.26,-303.636"/>
<text text-anchor="middle" x="630.397" y="-318.8" font-family="Times,serif" font-size="14.00">1 (57.1)</text>
</g>
<!-- 021 (a) -->
<g id="node5" class="node"><title>021 (a)</title>
<ellipse fill="#ff8a8a" stroke="#b43f3f" cx="299.397" cy="-105" rx="36.2938" ry="18"/>
<text text-anchor="middle" x="299.397" y="-101.3" font-family="Times,serif" font-size="14.00">021 (a)</text>
</g>
<!-- 036 (a) -->
<g id="node9" class="node"><title>036 (a)</title>
<ellipse fill="#ff8a8a" stroke="#b43f3f" cx="139.397" cy="-18" rx="36.2938" ry="18"/>
<text text-anchor="middle" x="139.397" y="-14.3" font-family="Times,serif" font-size="14.00">036 (a)</text>
</g>
<!-- 021 (a)&#45;&gt;036 (a) -->
<g id="edge6" class="edge"><title>021 (a)&#45;&gt;036 (a)</title>
<path fill="none" stroke="#b43f3f" d="M271.238,-93.4025C265.357,-91.243 259.186,-89.0162 253.397,-87 229.108,-78.5405 220.848,-81.5482 198.397,-69 185.321,-61.6922 172.437,-51.258 162.061,-41.8102"/>
<polygon fill="#b43f3f" stroke="#b43f3f" points="164.337,-39.1457 154.654,-34.8459 159.542,-44.2456 164.337,-39.1457"/>
<text text-anchor="middle" x="220.397" y="-57.8" font-family="Times,serif" font-size="14.00">1 (97.6)</text>
</g>
<!-- 047 (a) -->
<g id="node25" class="node"><title>047 (a)</title>
<ellipse fill="#ff8a8a" stroke="#b43f3f" cx="230.397" cy="-18" rx="36.2938" ry="18"/>
<text text-anchor="middle" x="230.397" y="-14.3" font-family="Times,serif" font-size="14.00">047 (a)</text>
</g>
<!-- 021 (a)&#45;&gt;047 (a) -->
<g id="edge7" class="edge"><title>021 (a)&#45;&gt;047 (a)</title>
<path fill="none" stroke="#b43f3f" d="M278.043,-89.9756C270.25,-84.1404 261.79,-76.8855 255.397,-69 249.598,-61.8475 244.664,-53.1291 240.75,-44.9878"/>
<polygon fill="#b43f3f" stroke="#b43f3f" points="243.923,-43.5115 236.633,-35.8242 237.538,-46.3803 243.923,-43.5115"/>
<text text-anchor="middle" x="277.397" y="-57.8" font-family="Times,serif" font-size="14.00">1 (95.1)</text>
</g>
<!-- 037 (a) -->
<g id="node6" class="node"><title>037 (a)</title>
<ellipse fill="#ff8a8a" stroke="#b43f3f" cx="321.397" cy="-18" rx="36.2938" ry="18"/>
<text text-anchor="middle" x="321.397" y="-14.3" font-family="Times,serif" font-size="14.00">037 (a)</text>
</g>
<!-- 05 (a) -->
<g id="node7" class="node"><title>05 (a)</title>
<ellipse fill="#ff8a8a" stroke="#b43f3f" cx="563.397" cy="-192" rx="31.6951" ry="18"/>
<text text-anchor="middle" x="563.397" y="-188.3" font-family="Times,serif" font-size="14.00">05 (a)</text>
</g>
<!-- 02 (a) -->
<g id="node8" class="node"><title>02 (a)</title>
<ellipse fill="#ff8a8a" stroke="#b43f3f" cx="122.397" cy="-192" rx="31.6951" ry="18"/>
<text text-anchor="middle" x="122.397" y="-188.3" font-family="Times,serif" font-size="14.00">02 (a)</text>
</g>
<!-- 07 (a) -->
<g id="node10" class="node"><title>07 (a)</title>
<ellipse fill="#ff8a8a" stroke="#b43f3f" cx="390.397" cy="-105" rx="31.6951" ry="18"/>
<text text-anchor="middle" x="390.397" y="-101.3" font-family="Times,serif" font-size="14.00">07 (a)</text>
</g>
<!-- 07 (a)&#45;&gt;037 (a) -->
<g id="edge10" class="edge"><title>07 (a)&#45;&gt;037 (a)</title>
<path fill="none" stroke="#b43f3f" d="M372.785,-89.5804C366.01,-83.5882 358.454,-76.328 352.397,-69 346.156,-61.4499 340.24,-52.5393 335.282,-44.3472"/>
<polygon fill="#b43f3f" stroke="#b43f3f" points="338.19,-42.3852 330.125,-35.5143 332.145,-45.9148 338.19,-42.3852"/>
<text text-anchor="middle" x="374.397" y="-57.8" font-family="Times,serif" font-size="14.00">1 (97.5)</text>
</g>
<!-- 034 (a) -->
<g id="node14" class="node"><title>034 (a)</title>
<ellipse fill="#ff8a8a" stroke="#b43f3f" cx="412.397" cy="-18" rx="36.2938" ry="18"/>
<text text-anchor="middle" x="412.397" y="-14.3" font-family="Times,serif" font-size="14.00">034 (a)</text>
</g>
<!-- 07 (a)&#45;&gt;034 (a) -->
<g id="edge9" class="edge"><title>07 (a)&#45;&gt;034 (a)</title>
<path fill="none" stroke="#b43f3f" d="M394.849,-86.799C397.91,-74.9701 402.036,-59.0301 405.518,-45.578"/>
<polygon fill="#b43f3f" stroke="#b43f3f" points="408.909,-46.4434 408.026,-35.8854 402.132,-44.6893 408.909,-46.4434"/>
<text text-anchor="middle" x="425.397" y="-57.8" font-family="Times,serif" font-size="14.00">1 (95.1)</text>
</g>
<!-- 030 (a) -->
<g id="node22" class="node"><title>030 (a)</title>
<ellipse fill="#ff8a8a" stroke="#b43f3f" cx="503.397" cy="-18" rx="36.2938" ry="18"/>
<text text-anchor="middle" x="503.397" y="-14.3" font-family="Times,serif" font-size="14.00">030 (a)</text>
</g>
<!-- 07 (a)&#45;&gt;030 (a) -->
<g id="edge8" class="edge"><title>07 (a)&#45;&gt;030 (a)</title>
<path fill="none" stroke="#b43f3f" d="M413.535,-92.4596C425.302,-86.1663 439.576,-77.8625 451.397,-69 462.043,-61.0175 472.81,-51.0482 481.763,-42.1164"/>
<polygon fill="#b43f3f" stroke="#b43f3f" points="484.313,-44.515 488.814,-34.9241 479.314,-39.6145 484.313,-44.515"/>
<text text-anchor="middle" x="490.397" y="-57.8" font-family="Times,serif" font-size="14.00">1 (95.1)</text>
</g>
<!-- 03 (a)&#45;&gt;032 (a) -->
<g id="edge12" class="edge"><title>03 (a)&#45;&gt;032 (a)</title>
<path fill="none" stroke="#b43f3f" d="M132.883,-269.62C116.394,-263.777 95.5626,-254.891 79.3968,-243 69.8915,-236.008 61.0703,-226.542 53.923,-217.727"/>
<polygon fill="#b43f3f" stroke="#b43f3f" points="56.504,-215.344 47.6157,-209.578 50.9682,-219.628 56.504,-215.344"/>
<text text-anchor="middle" x="101.397" y="-231.8" font-family="Times,serif" font-size="14.00">1 (91.7)</text>
</g>
<!-- 03 (a)&#45;&gt;02 (a) -->
<g id="edge13" class="edge"><title>03 (a)&#45;&gt;02 (a)</title>
<path fill="none" stroke="#b43f3f" d="M145.538,-262.707C140.675,-256.937 135.684,-250.053 132.397,-243 129.106,-235.939 126.896,-227.824 125.413,-220.214"/>
<polygon fill="#b43f3f" stroke="#b43f3f" points="128.861,-219.609 123.807,-210.297 121.951,-220.728 128.861,-219.609"/>
<text text-anchor="middle" x="154.397" y="-231.8" font-family="Times,serif" font-size="14.00">1 (86.5)</text>
</g>
<!-- 044 (a) -->
<g id="node26" class="node"><title>044 (a)</title>
<ellipse fill="#ff8a8a" stroke="#b43f3f" cx="208.397" cy="-192" rx="36.2938" ry="18"/>
<text text-anchor="middle" x="208.397" y="-188.3" font-family="Times,serif" font-size="14.00">044 (a)</text>
</g>
<!-- 03 (a)&#45;&gt;044 (a) -->
<g id="edge11" class="edge"><title>03 (a)&#45;&gt;044 (a)</title>
<path fill="none" stroke="#b43f3f" d="M169.652,-261.611C176.513,-249.46 186.001,-232.66 193.87,-218.725"/>
<polygon fill="#b43f3f" stroke="#b43f3f" points="197.137,-220.057 199.007,-209.629 191.042,-216.615 197.137,-220.057"/>
<text text-anchor="middle" x="209.397" y="-231.8" font-family="Times,serif" font-size="14.00">1 (89.2)</text>
</g>
<!-- 038 (a) -->
<g id="node13" class="node"><title>038 (a)</title>
<ellipse fill="#ff8a8a" stroke="#b43f3f" cx="594.397" cy="-18" rx="36.2938" ry="18"/>
<text text-anchor="middle" x="594.397" y="-14.3" font-family="Times,serif" font-size="14.00">038 (a)</text>
</g>
<!-- 063 (a) -->
<g id="node27" class="node"><title>063 (a)</title>
<ellipse fill="#ff8a8a" stroke="#b43f3f" cx="476.397" cy="-192" rx="36.2938" ry="18"/>
<text text-anchor="middle" x="476.397" y="-188.3" font-family="Times,serif" font-size="14.00">063 (a)</text>
</g>
<!-- 019 (a)&#45;&gt;063 (a) -->
<g id="edge14" class="edge"><title>019 (a)&#45;&gt;063 (a)</title>
<path fill="none" stroke="#b43f3f" d="M474.802,-260.799C475.075,-249.163 475.443,-233.548 475.756,-220.237"/>
<polygon fill="#b43f3f" stroke="#b43f3f" points="479.256,-220.255 475.993,-210.175 472.258,-220.09 479.256,-220.255"/>
<text text-anchor="middle" x="498.397" y="-231.8" font-family="Times,serif" font-size="14.00">1 (85.7)</text>
</g>
<!-- 0141 (a) -->
<g id="node16" class="node"><title>0141 (a)</title>
<ellipse fill="#ff8a8a" stroke="#b43f3f" cx="113.397" cy="-105" rx="40.0939" ry="18"/>
<text text-anchor="middle" x="113.397" y="-101.3" font-family="Times,serif" font-size="14.00">0141 (a)</text>
</g>
<!-- 0211 (a) -->
<g id="node17" class="node"><title>0211 (a)</title>
<ellipse fill="#ff8a8a" stroke="#b43f3f" cx="653.397" cy="-192" rx="40.0939" ry="18"/>
<text text-anchor="middle" x="653.397" y="-188.3" font-family="Times,serif" font-size="14.00">0211 (a)</text>
</g>
<!-- 091 (a)&#45;&gt;05 (a) -->
<g id="edge16" class="edge"><title>091 (a)&#45;&gt;05 (a)</title>
<path fill="none" stroke="#b43f3f" d="M564.992,-260.799C564.718,-249.163 564.351,-233.548 564.038,-220.237"/>
<polygon fill="#b43f3f" stroke="#b43f3f" points="567.535,-220.09 563.801,-210.175 560.537,-220.255 567.535,-220.09"/>
<text text-anchor="middle" x="587.397" y="-231.8" font-family="Times,serif" font-size="14.00">1 (87.5)</text>
</g>
<!-- 091 (a)&#45;&gt;0211 (a) -->
<g id="edge15" class="edge"><title>091 (a)&#45;&gt;0211 (a)</title>
<path fill="none" stroke="#b43f3f" d="M586.904,-264.151C595.546,-258.13 605.347,-250.698 613.397,-243 621.351,-235.394 629.135,-226.193 635.691,-217.768"/>
<polygon fill="#b43f3f" stroke="#b43f3f" points="638.559,-219.778 641.799,-209.69 632.976,-215.556 638.559,-219.778"/>
<text text-anchor="middle" x="649.397" y="-231.8" font-family="Times,serif" font-size="14.00">1 (83.3)</text>
</g>
<!-- 011 (a) -->
<g id="node19" class="node"><title>011 (a)</title>
<ellipse fill="#ff8a8a" stroke="#b43f3f" cx="476.397" cy="-105" rx="36.2938" ry="18"/>
<text text-anchor="middle" x="476.397" y="-101.3" font-family="Times,serif" font-size="14.00">011 (a)</text>
</g>
<!-- 045 (a) -->
<g id="node20" class="node"><title>045 (a)</title>
<ellipse fill="#ff8a8a" stroke="#b43f3f" cx="567.397" cy="-105" rx="36.2938" ry="18"/>
<text text-anchor="middle" x="567.397" y="-101.3" font-family="Times,serif" font-size="14.00">045 (a)</text>
</g>
<!-- 045 (a)&#45;&gt;038 (a) -->
<g id="edge17" class="edge"><title>045 (a)&#45;&gt;038 (a)</title>
<path fill="none" stroke="#b43f3f" d="M572.861,-86.799C576.618,-74.9701 581.681,-59.0301 585.954,-45.578"/>
<polygon fill="#b43f3f" stroke="#b43f3f" points="589.341,-46.4757 589.033,-35.8854 582.67,-44.3565 589.341,-46.4757"/>
<text text-anchor="middle" x="605.397" y="-57.8" font-family="Times,serif" font-size="14.00">1 (92.7)</text>
</g>
<!-- 028 (a) -->
<g id="node23" class="node"><title>028 (a)</title>
<ellipse fill="#ff8a8a" stroke="#b43f3f" cx="658.397" cy="-105" rx="36.2938" ry="18"/>
<text text-anchor="middle" x="658.397" y="-101.3" font-family="Times,serif" font-size="14.00">028 (a)</text>
</g>
<!-- 022 (a) -->
<g id="node24" class="node"><title>022 (a)</title>
<ellipse fill="#ff8a8a" stroke="#b43f3f" cx="208.397" cy="-105" rx="36.2938" ry="18"/>
<text text-anchor="middle" x="208.397" y="-101.3" font-family="Times,serif" font-size="14.00">022 (a)</text>
</g>
<!-- 044 (a)&#45;&gt;0141 (a) -->
<g id="edge19" class="edge"><title>044 (a)&#45;&gt;0141 (a)</title>
<path fill="none" stroke="#b43f3f" d="M187.667,-177.159C178.96,-171.025 168.902,-163.508 160.397,-156 151.233,-147.911 141.866,-138.276 133.93,-129.632"/>
<polygon fill="#b43f3f" stroke="#b43f3f" points="136.386,-127.129 127.091,-122.045 131.187,-131.816 136.386,-127.129"/>
<text text-anchor="middle" x="182.397" y="-144.8" font-family="Times,serif" font-size="14.00">1 (89.2)</text>
</g>
<!-- 044 (a)&#45;&gt;022 (a) -->
<g id="edge18" class="edge"><title>044 (a)&#45;&gt;022 (a)</title>
<path fill="none" stroke="#b43f3f" d="M208.397,-173.799C208.397,-162.163 208.397,-146.548 208.397,-133.237"/>
<polygon fill="#b43f3f" stroke="#b43f3f" points="211.897,-133.175 208.397,-123.175 204.897,-133.175 211.897,-133.175"/>
<text text-anchor="middle" x="230.397" y="-144.8" font-family="Times,serif" font-size="14.00">1 (91.7)</text>
</g>
<!-- 063 (a)&#45;&gt;021 (a) -->
<g id="edge24" class="edge"><title>063 (a)&#45;&gt;021 (a)</title>
<path fill="none" stroke="#b43f3f" d="M444.167,-183.402C422.134,-177.532 392.644,-168.324 368.397,-156 353.074,-148.212 337.447,-137.194 324.948,-127.482"/>
<polygon fill="#b43f3f" stroke="#b43f3f" points="326.84,-124.514 316.837,-121.023 322.479,-129.99 326.84,-124.514"/>
<text text-anchor="middle" x="390.397" y="-144.8" font-family="Times,serif" font-size="14.00">1 (93.1)</text>
</g>
<!-- 063 (a)&#45;&gt;07 (a) -->
<g id="edge23" class="edge"><title>063 (a)&#45;&gt;07 (a)</title>
<path fill="none" stroke="#b43f3f" d="M454.793,-177.25C446.136,-171.245 436.351,-163.798 428.397,-156 420.572,-148.329 413.035,-138.975 406.765,-130.442"/>
<polygon fill="#b43f3f" stroke="#b43f3f" points="409.603,-128.394 400.954,-122.275 403.899,-132.452 409.603,-128.394"/>
<text text-anchor="middle" x="450.397" y="-144.8" font-family="Times,serif" font-size="14.00">1 (96.6)</text>
</g>
<!-- 063 (a)&#45;&gt;011 (a) -->
<g id="edge22" class="edge"><title>063 (a)&#45;&gt;011 (a)</title>
<path fill="none" stroke="#b43f3f" d="M476.397,-173.799C476.397,-162.163 476.397,-146.548 476.397,-133.237"/>
<polygon fill="#b43f3f" stroke="#b43f3f" points="479.897,-133.175 476.397,-123.175 472.897,-133.175 479.897,-133.175"/>
<text text-anchor="middle" x="498.397" y="-144.8" font-family="Times,serif" font-size="14.00">1 (93.1)</text>
</g>
<!-- 063 (a)&#45;&gt;045 (a) -->
<g id="edge20" class="edge"><title>063 (a)&#45;&gt;045 (a)</title>
<path fill="none" stroke="#b43f3f" d="M497.768,-177.006C506.389,-170.963 516.211,-163.554 524.397,-156 532.941,-148.115 541.472,-138.619 548.657,-130.029"/>
<polygon fill="#b43f3f" stroke="#b43f3f" points="551.474,-132.113 555.089,-122.155 546.053,-127.685 551.474,-132.113"/>
<text text-anchor="middle" x="560.397" y="-144.8" font-family="Times,serif" font-size="14.00">1 (93.1)</text>
</g>
<!-- 063 (a)&#45;&gt;028 (a) -->
<g id="edge21" class="edge"><title>063 (a)&#45;&gt;028 (a)</title>
<path fill="none" stroke="#b43f3f" d="M504.492,-180.213C510.377,-178.067 516.567,-175.894 522.397,-174 550.499,-164.871 559.67,-168.601 586.397,-156 602.657,-148.334 619.241,-137.096 632.388,-127.216"/>
<polygon fill="#b43f3f" stroke="#b43f3f" points="634.709,-129.847 640.494,-120.97 630.436,-124.302 634.709,-129.847"/>
<text text-anchor="middle" x="634.397" y="-144.8" font-family="Times,serif" font-size="14.00">1 (96.6)</text>
</g>
<!-- 031 (a) -->
<g id="node28" class="node"><title>031 (a)</title>
<ellipse fill="#ff8a8a" stroke="#b43f3f" cx="749.397" cy="-105" rx="36.2938" ry="18"/>
<text text-anchor="middle" x="749.397" y="-101.3" font-family="Times,serif" font-size="14.00">031 (a)</text>
</g>
<!-- 063 (a)&#45;&gt;031 (a) -->
<g id="edge25" class="edge"><title>063 (a)&#45;&gt;031 (a)</title>
<path fill="none" stroke="#b43f3f" d="M503.813,-179.728C509.856,-177.566 516.28,-175.509 522.397,-174 582.45,-159.186 601.699,-175.503 660.397,-156 681.683,-148.928 703.675,-136.627 720.472,-125.997"/>
<polygon fill="#b43f3f" stroke="#b43f3f" points="722.753,-128.689 729.232,-120.307 718.94,-122.819 722.753,-128.689"/>
<text text-anchor="middle" x="716.397" y="-144.8" font-family="Times,serif" font-size="14.00">1 (95.8)</text>
</g>
<!-- 031 (a)&#45;&gt;013 (a) -->
<g id="edge26" class="edge"><title>031 (a)&#45;&gt;013 (a)</title>
<path fill="none" stroke="#b43f3f" d="M740.752,-87.2851C737.773,-81.501 734.425,-74.9722 731.397,-69 727.402,-61.1233 723.089,-52.5285 719.188,-44.7215"/>
<polygon fill="#b43f3f" stroke="#b43f3f" points="722.278,-43.0767 714.683,-35.6905 716.015,-46.2013 722.278,-43.0767"/>
<text text-anchor="middle" x="753.397" y="-57.8" font-family="Times,serif" font-size="14.00">1 (97.1)</text>
</g>
<!-- 031 (a)&#45;&gt;017 (a) -->
<g id="edge27" class="edge"><title>031 (a)&#45;&gt;017 (a)</title>
<path fill="none" stroke="#b43f3f" d="M762.355,-88.1391C766.792,-82.3156 771.592,-75.5436 775.397,-69 779.687,-61.6215 783.68,-53.2512 787.055,-45.4984"/>
<polygon fill="#b43f3f" stroke="#b43f3f" points="790.343,-46.7057 790.973,-36.1296 783.886,-44.0044 790.343,-46.7057"/>
<text text-anchor="middle" x="804.397" y="-57.8" font-family="Times,serif" font-size="14.00">1 (94.3)</text>
</g>
</g>
</svg>
