<?xml version="1.0" encoding="UTF-8" standalone="no"?>
<!DOCTYPE svg PUBLIC "-//W3C//DTD SVG 1.1//EN"
 "http://www.w3.org/Graphics/SVG/1.1/DTD/svg11.dtd">
<!-- Generated by graphviz version 2.38.0 (20140413.2041)
 -->
<!-- Title: %3 Pages: 1 -->
<svg width="870pt" height="495pt"
 viewBox="0.00 0.00 869.79 495.00" xmlns="http://www.w3.org/2000/svg" xmlns:xlink="http://www.w3.org/1999/xlink">
<g id="graph0" class="graph" transform="scale(1 1) rotate(0) translate(4 491)">
<title>%3</title>
<polygon fill="white" stroke="none" points="-4,4 -4,-491 865.794,-491 865.794,4 -4,4"/>
<g id="clust1" class="cluster"><title>cluster_legend</title>
<path fill="none" stroke="black" d="M256.397,-351C256.397,-351 446.397,-351 446.397,-351 452.397,-351 458.397,-357 458.397,-363 458.397,-363 458.397,-467 458.397,-467 458.397,-473 452.397,-479 446.397,-479 446.397,-479 256.397,-479 256.397,-479 250.397,-479 244.397,-473 244.397,-467 244.397,-467 244.397,-363 244.397,-363 244.397,-357 250.397,-351 256.397,-351"/>
</g>
<!-- leg_s -->
<g id="node1" class="node"><title>leg_s</title>
<text text-anchor="middle" x="351.397" y="-449.3" font-family="Times,serif" font-size="14.00">Textual flow strength</text>
</g>
<!-- leg_e1 -->
<!-- leg_s&#45;&gt;leg_e1 -->
<g id="edge1" class="edge"><title>leg_s&#45;&gt;leg_e1</title>
<path fill="none" stroke="black" stroke-dasharray="1,5" d="M333.062,-434.686C327.529,-429.194 321.557,-422.989 316.397,-417 306.568,-405.593 296.469,-391.779 289.31,-381.563"/>
<polygon fill="black" stroke="black" points="292.011,-379.314 283.453,-373.068 286.248,-383.288 292.011,-379.314"/>
<text text-anchor="middle" x="331.897" y="-405.8" font-family="Times,serif" font-size="14.00">&lt;=5 &#160;</text>
</g>
<!-- leg_e2 -->
<!-- leg_s&#45;&gt;leg_e2 -->
<g id="edge2" class="edge"><title>leg_s&#45;&gt;leg_e2</title>
<path fill="none" stroke="black" stroke-dasharray="5,2" d="M351.397,-434.799C351.397,-419.794 351.397,-398.174 351.397,-383.409"/>
<polygon fill="black" stroke="black" points="354.897,-383.293 351.397,-373.293 347.897,-383.293 354.897,-383.293"/>
<text text-anchor="middle" x="370.397" y="-405.8" font-family="Times,serif" font-size="14.00"> &#160;&lt;=25</text>
</g>
<!-- leg_e3 -->
<!-- leg_s&#45;&gt;leg_e3 -->
<g id="edge3" class="edge"><title>leg_s&#45;&gt;leg_e3</title>
<path fill="none" stroke="black" d="M374.9,-434.76C381.303,-429.462 387.963,-423.344 393.397,-417 402.484,-406.39 410.492,-392.689 415.943,-382.313"/>
<polygon fill="black" stroke="black" points="419.119,-383.789 420.488,-373.283 412.866,-380.642 419.119,-383.789"/>
<text text-anchor="middle" x="415.397" y="-405.8" font-family="Times,serif" font-size="14.00">&gt;25</text>
</g>
<!-- A -->
<g id="node5" class="node"><title>A</title>
<ellipse fill="#ff8a8a" stroke="#b43f3f" cx="642.397" cy="-453" rx="29.4969" ry="18"/>
<text text-anchor="middle" x="642.397" y="-449.3" font-family="Times,serif" font-size="14.00">A (a)</text>
</g>
<!-- P75 -->
<g id="node6" class="node"><title>P75</title>
<ellipse fill="#ff8a8a" stroke="#b43f3f" cx="504.397" cy="-366" rx="36.2938" ry="18"/>
<text text-anchor="middle" x="504.397" y="-362.3" font-family="Times,serif" font-size="14.00">P75 (a)</text>
</g>
<!-- A&#45;&gt;P75 -->
<g id="edge4" class="edge"><title>A&#45;&gt;P75</title>
<path fill="none" stroke="#b43f3f" stroke-dasharray="1,5" d="M616.018,-444.622C597.792,-438.801 573.489,-429.562 554.397,-417 543.451,-409.798 532.941,-399.91 524.406,-390.827"/>
<polygon fill="#b43f3f" stroke="#b43f3f" points="526.757,-388.209 517.453,-383.141 521.566,-392.905 526.757,-388.209"/>
<text text-anchor="middle" x="576.397" y="-405.8" font-family="Times,serif" font-size="14.00">1 (93.3)</text>
</g>
<!-- 03 -->
<g id="node7" class="node"><title>03</title>
<ellipse fill="#ff8a8a" stroke="#b43f3f" cx="590.397" cy="-366" rx="31.6951" ry="18"/>
<text text-anchor="middle" x="590.397" y="-362.3" font-family="Times,serif" font-size="14.00">03 (a)</text>
</g>
<!-- A&#45;&gt;03 -->
<g id="edge5" class="edge"><title>A&#45;&gt;03</title>
<path fill="none" stroke="#b43f3f" stroke-dasharray="1,5" d="M626.525,-437.76C620.561,-431.792 614.096,-424.502 609.397,-417 604.891,-409.806 601.181,-401.375 598.272,-393.508"/>
<polygon fill="#b43f3f" stroke="#b43f3f" points="601.562,-392.311 595.017,-383.979 594.938,-394.573 601.562,-392.311"/>
<text text-anchor="middle" x="631.397" y="-405.8" font-family="Times,serif" font-size="14.00">1 (93.3)</text>
</g>
<!-- 019 -->
<g id="node8" class="node"><title>019</title>
<ellipse fill="#ff8a8a" stroke="#b43f3f" cx="676.397" cy="-366" rx="36.2938" ry="18"/>
<text text-anchor="middle" x="676.397" y="-362.3" font-family="Times,serif" font-size="14.00">019 (a)</text>
</g>
<!-- A&#45;&gt;019 -->
<g id="edge6" class="edge"><title>A&#45;&gt;019</title>
<path fill="none" stroke="#b43f3f" stroke-dasharray="1,5" d="M649.114,-435.207C653.911,-423.216 660.456,-406.851 665.934,-393.157"/>
<polygon fill="#b43f3f" stroke="#b43f3f" points="669.229,-394.343 669.693,-383.758 662.73,-391.743 669.229,-394.343"/>
<text text-anchor="middle" x="684.397" y="-405.8" font-family="Times,serif" font-size="14.00">1 (93.3)</text>
</g>
<!-- 01 -->
<g id="node9" class="node"><title>01</title>
<ellipse fill="#ff8a8a" stroke="#b43f3f" cx="762.397" cy="-366" rx="31.6951" ry="18"/>
<text text-anchor="middle" x="762.397" y="-362.3" font-family="Times,serif" font-size="14.00">01 (a)</text>
</g>
<!-- A&#45;&gt;01 -->
<g id="edge7" class="edge"><title>A&#45;&gt;01</title>
<path fill="none" stroke="#b43f3f" stroke-dasharray="5,2" d="M665.71,-442.059C679.304,-435.769 696.462,-426.96 710.397,-417 721.382,-409.148 732.337,-399.042 741.339,-389.973"/>
<polygon fill="#b43f3f" stroke="#b43f3f" points="743.965,-392.292 748.4,-382.67 738.932,-387.427 743.965,-392.292"/>
<text text-anchor="middle" x="749.397" y="-405.8" font-family="Times,serif" font-size="14.00">1 (57.1)</text>
</g>
<!-- 044 -->
<g id="node10" class="node"><title>044</title>
<ellipse fill="#ff8a8a" stroke="#b43f3f" cx="499.397" cy="-279" rx="36.2938" ry="18"/>
<text text-anchor="middle" x="499.397" y="-275.3" font-family="Times,serif" font-size="14.00">044 (a)</text>
</g>
<!-- 03&#45;&gt;044 -->
<g id="edge19" class="edge"><title>03&#45;&gt;044</title>
<path fill="none" stroke="#b43f3f" stroke-dasharray="1,5" d="M569.978,-351.672C561.134,-345.512 550.886,-337.834 542.397,-330 533.853,-322.115 525.321,-312.619 518.136,-304.029"/>
<polygon fill="#b43f3f" stroke="#b43f3f" points="520.741,-301.685 511.704,-296.155 515.32,-306.113 520.741,-301.685"/>
<text text-anchor="middle" x="564.397" y="-318.8" font-family="Times,serif" font-size="14.00">1 (89.2)</text>
</g>
<!-- 032 -->
<g id="node22" class="node"><title>032</title>
<ellipse fill="#ff8a8a" stroke="#b43f3f" cx="590.397" cy="-279" rx="36.2938" ry="18"/>
<text text-anchor="middle" x="590.397" y="-275.3" font-family="Times,serif" font-size="14.00">032 (a)</text>
</g>
<!-- 03&#45;&gt;032 -->
<g id="edge20" class="edge"><title>03&#45;&gt;032</title>
<path fill="none" stroke="#b43f3f" stroke-dasharray="1,5" d="M590.397,-347.799C590.397,-336.163 590.397,-320.548 590.397,-307.237"/>
<polygon fill="#b43f3f" stroke="#b43f3f" points="593.897,-307.175 590.397,-297.175 586.897,-307.175 593.897,-307.175"/>
<text text-anchor="middle" x="612.397" y="-318.8" font-family="Times,serif" font-size="14.00">1 (91.7)</text>
</g>
<!-- 02 -->
<g id="node23" class="node"><title>02</title>
<ellipse fill="#ff8a8a" stroke="#b43f3f" cx="676.397" cy="-279" rx="31.6951" ry="18"/>
<text text-anchor="middle" x="676.397" y="-275.3" font-family="Times,serif" font-size="14.00">02 (a)</text>
</g>
<!-- 03&#45;&gt;02 -->
<g id="edge21" class="edge"><title>03&#45;&gt;02</title>
<path fill="none" stroke="#b43f3f" stroke-dasharray="1,5" d="M611.044,-351.912C619.93,-345.796 630.148,-338.086 638.397,-330 646.221,-322.329 653.759,-312.975 660.029,-304.442"/>
<polygon fill="#b43f3f" stroke="#b43f3f" points="662.894,-306.452 665.84,-296.275 657.191,-302.394 662.894,-306.452"/>
<text text-anchor="middle" x="673.397" y="-318.8" font-family="Times,serif" font-size="14.00">1 (86.5)</text>
</g>
<!-- 07 -->
<g id="node11" class="node"><title>07</title>
<ellipse fill="#ff8a8a" stroke="#b43f3f" cx="218.397" cy="-192" rx="31.6951" ry="18"/>
<text text-anchor="middle" x="218.397" y="-188.3" font-family="Times,serif" font-size="14.00">07 (a)</text>
</g>
<!-- 044&#45;&gt;07 -->
<g id="edge8" class="edge"><title>044&#45;&gt;07</title>
<path fill="none" stroke="#b43f3f" stroke-dasharray="1,5" d="M464.1,-274.161C426.877,-269.437 366.882,-259.885 317.397,-243 293.123,-234.717 267.306,-221.517 248.125,-210.759"/>
<polygon fill="#b43f3f" stroke="#b43f3f" points="249.696,-207.626 239.277,-205.706 246.225,-213.705 249.696,-207.626"/>
<text text-anchor="middle" x="339.397" y="-231.8" font-family="Times,serif" font-size="14.00">2 (83.8)</text>
</g>
<!-- 028 -->
<g id="node12" class="node"><title>028</title>
<ellipse fill="#ff8a8a" stroke="#b43f3f" cx="317.397" cy="-192" rx="36.2938" ry="18"/>
<text text-anchor="middle" x="317.397" y="-188.3" font-family="Times,serif" font-size="14.00">028 (a)</text>
</g>
<!-- 044&#45;&gt;028 -->
<g id="edge9" class="edge"><title>044&#45;&gt;028</title>
<path fill="none" stroke="#b43f3f" stroke-dasharray="1,5" d="M467.451,-270.368C445.208,-264.43 415.205,-255.156 390.397,-243 374.102,-235.016 357.302,-223.754 343.933,-213.939"/>
<polygon fill="#b43f3f" stroke="#b43f3f" points="345.782,-210.951 335.682,-207.748 341.58,-216.55 345.782,-210.951"/>
<text text-anchor="middle" x="412.397" y="-231.8" font-family="Times,serif" font-size="14.00">2 (81.1)</text>
</g>
<!-- 045 -->
<g id="node13" class="node"><title>045</title>
<ellipse fill="#ff8a8a" stroke="#b43f3f" cx="408.397" cy="-192" rx="36.2938" ry="18"/>
<text text-anchor="middle" x="408.397" y="-188.3" font-family="Times,serif" font-size="14.00">045 (a)</text>
</g>
<!-- 044&#45;&gt;045 -->
<g id="edge10" class="edge"><title>044&#45;&gt;045</title>
<path fill="none" stroke="#b43f3f" stroke-dasharray="1,5" d="M478.025,-264.006C469.404,-257.963 459.582,-250.554 451.397,-243 442.853,-235.115 434.321,-225.619 427.136,-217.029"/>
<polygon fill="#b43f3f" stroke="#b43f3f" points="429.741,-214.685 420.704,-209.155 424.32,-219.113 429.741,-214.685"/>
<text text-anchor="middle" x="473.397" y="-231.8" font-family="Times,serif" font-size="14.00">2 (81.1)</text>
</g>
<!-- 022 -->
<g id="node14" class="node"><title>022</title>
<ellipse fill="#ff8a8a" stroke="#b43f3f" cx="499.397" cy="-192" rx="36.2938" ry="18"/>
<text text-anchor="middle" x="499.397" y="-188.3" font-family="Times,serif" font-size="14.00">022 (a)</text>
</g>
<!-- 044&#45;&gt;022 -->
<g id="edge11" class="edge"><title>044&#45;&gt;022</title>
<path fill="none" stroke="#b43f3f" stroke-dasharray="1,5" d="M499.397,-260.799C499.397,-249.163 499.397,-233.548 499.397,-220.237"/>
<polygon fill="#b43f3f" stroke="#b43f3f" points="502.897,-220.175 499.397,-210.175 495.897,-220.175 502.897,-220.175"/>
<text text-anchor="middle" x="521.397" y="-231.8" font-family="Times,serif" font-size="14.00">1 (91.7)</text>
</g>
<!-- 011 -->
<g id="node15" class="node"><title>011</title>
<ellipse fill="#ff8a8a" stroke="#b43f3f" cx="590.397" cy="-192" rx="36.2938" ry="18"/>
<text text-anchor="middle" x="590.397" y="-188.3" font-family="Times,serif" font-size="14.00">011 (a)</text>
</g>
<!-- 044&#45;&gt;011 -->
<g id="edge12" class="edge"><title>044&#45;&gt;011</title>
<path fill="none" stroke="#b43f3f" stroke-dasharray="1,5" d="M520.768,-264.006C529.389,-257.963 539.211,-250.554 547.397,-243 555.941,-235.115 564.472,-225.619 571.657,-217.029"/>
<polygon fill="#b43f3f" stroke="#b43f3f" points="574.474,-219.113 578.089,-209.155 569.053,-214.685 574.474,-219.113"/>
<text text-anchor="middle" x="583.397" y="-231.8" font-family="Times,serif" font-size="14.00">2 (86.5)</text>
</g>
<!-- 0141 -->
<g id="node16" class="node"><title>0141</title>
<ellipse fill="#ff8a8a" stroke="#b43f3f" cx="685.397" cy="-192" rx="40.0939" ry="18"/>
<text text-anchor="middle" x="685.397" y="-188.3" font-family="Times,serif" font-size="14.00">0141 (a)</text>
</g>
<!-- 044&#45;&gt;0141 -->
<g id="edge13" class="edge"><title>044&#45;&gt;0141</title>
<path fill="none" stroke="#b43f3f" stroke-dasharray="1,5" d="M527.492,-267.213C533.377,-265.067 539.567,-262.894 545.397,-261 573.499,-251.871 582.514,-255.265 609.397,-243 626.532,-235.182 644.194,-223.798 658.175,-213.867"/>
<polygon fill="#b43f3f" stroke="#b43f3f" points="660.333,-216.625 666.366,-207.916 656.218,-210.962 660.333,-216.625"/>
<text text-anchor="middle" x="658.397" y="-231.8" font-family="Times,serif" font-size="14.00">1 (89.2)</text>
</g>
<!-- 021 -->
<g id="node17" class="node"><title>021</title>
<ellipse fill="#ff8a8a" stroke="#b43f3f" cx="780.397" cy="-192" rx="36.2938" ry="18"/>
<text text-anchor="middle" x="780.397" y="-188.3" font-family="Times,serif" font-size="14.00">021 (a)</text>
</g>
<!-- 044&#45;&gt;021 -->
<g id="edge14" class="edge"><title>044&#45;&gt;021</title>
<path fill="none" stroke="#b43f3f" stroke-dasharray="1,5" d="M526.812,-266.724C532.855,-264.562 539.279,-262.506 545.397,-261 605.884,-246.109 624.968,-261.675 684.397,-243 707.708,-235.674 732.106,-222.891 750.472,-212.084"/>
<polygon fill="#b43f3f" stroke="#b43f3f" points="752.468,-214.968 759.23,-206.811 748.858,-208.97 752.468,-214.968"/>
<text text-anchor="middle" x="742.397" y="-231.8" font-family="Times,serif" font-size="14.00">2 (83.8)</text>
</g>
<!-- 037 -->
<g id="node18" class="node"><title>037</title>
<ellipse fill="#ff8a8a" stroke="#b43f3f" cx="36.3968" cy="-105" rx="36.2938" ry="18"/>
<text text-anchor="middle" x="36.3968" y="-101.3" font-family="Times,serif" font-size="14.00">037 (a)</text>
</g>
<!-- 07&#45;&gt;037 -->
<g id="edge15" class="edge"><title>07&#45;&gt;037</title>
<path fill="none" stroke="#b43f3f" stroke-dasharray="1,5" d="M189.287,-184.118C166.808,-178.225 135.276,-168.681 109.397,-156 93.1022,-148.016 76.3024,-136.754 62.933,-126.939"/>
<polygon fill="#b43f3f" stroke="#b43f3f" points="64.7816,-123.951 54.6825,-120.748 60.5799,-129.55 64.7816,-123.951"/>
<text text-anchor="middle" x="131.397" y="-144.8" font-family="Times,serif" font-size="14.00">1 (97.5)</text>
</g>
<!-- 034 -->
<g id="node19" class="node"><title>034</title>
<ellipse fill="#ff8a8a" stroke="#b43f3f" cx="127.397" cy="-105" rx="36.2938" ry="18"/>
<text text-anchor="middle" x="127.397" y="-101.3" font-family="Times,serif" font-size="14.00">034 (a)</text>
</g>
<!-- 07&#45;&gt;034 -->
<g id="edge16" class="edge"><title>07&#45;&gt;034</title>
<path fill="none" stroke="#b43f3f" stroke-dasharray="1,5" d="M197.978,-177.672C189.134,-171.512 178.886,-163.834 170.397,-156 161.853,-148.115 153.321,-138.619 146.136,-130.029"/>
<polygon fill="#b43f3f" stroke="#b43f3f" points="148.741,-127.685 139.704,-122.155 143.32,-132.113 148.741,-127.685"/>
<text text-anchor="middle" x="192.397" y="-144.8" font-family="Times,serif" font-size="14.00">1 (95.1)</text>
</g>
<!-- 030 -->
<g id="node20" class="node"><title>030</title>
<ellipse fill="#cea8f4" stroke="#835da9" cx="218.397" cy="-105" rx="36.2938" ry="18"/>
<text text-anchor="middle" x="218.397" y="-101.3" font-family="Times,serif" font-size="14.00">030 (b)</text>
</g>
<!-- 07&#45;&gt;030 -->
<g id="edge17" class="edge"><title>07&#45;&gt;030</title>
<path fill="none" stroke="#835da9" stroke-dasharray="1,5" d="M218.397,-173.799C218.397,-162.163 218.397,-146.548 218.397,-133.237"/>
<polygon fill="#835da9" stroke="#835da9" points="221.897,-133.175 218.397,-123.175 214.897,-133.175 221.897,-133.175"/>
<text text-anchor="middle" x="240.397" y="-144.8" font-family="Times,serif" font-size="14.00">1 (95.1)</text>
</g>
<!-- 0211 -->
<g id="node21" class="node"><title>0211</title>
<ellipse fill="#cea8f4" stroke="#835da9" cx="313.397" cy="-105" rx="40.8928" ry="18"/>
<text text-anchor="middle" x="313.397" y="-101.3" font-family="Times,serif" font-size="14.00">0211 (b)</text>
</g>
<!-- 07&#45;&gt;0211 -->
<g id="edge18" class="edge"><title>07&#45;&gt;0211</title>
<path fill="none" stroke="#835da9" stroke-dasharray="1,5" d="M238.182,-177.822C247.1,-171.572 257.582,-163.781 266.397,-156 275.56,-147.911 284.927,-138.276 292.863,-129.632"/>
<polygon fill="#835da9" stroke="#835da9" points="295.606,-131.816 299.702,-122.045 290.407,-127.129 295.606,-131.816"/>
<text text-anchor="middle" x="304.397" y="-144.8" font-family="Times,serif" font-size="14.00">2 (82.9)</text>
</g>
<!-- 038 -->
<g id="node24" class="node"><title>038</title>
<ellipse fill="#ff8a8a" stroke="#b43f3f" cx="408.397" cy="-105" rx="36.2938" ry="18"/>
<text text-anchor="middle" x="408.397" y="-101.3" font-family="Times,serif" font-size="14.00">038 (a)</text>
</g>
<!-- 045&#45;&gt;038 -->
<g id="edge22" class="edge"><title>045&#45;&gt;038</title>
<path fill="none" stroke="#b43f3f" stroke-dasharray="1,5" d="M408.397,-173.799C408.397,-162.163 408.397,-146.548 408.397,-133.237"/>
<polygon fill="#b43f3f" stroke="#b43f3f" points="411.897,-133.175 408.397,-123.175 404.897,-133.175 411.897,-133.175"/>
<text text-anchor="middle" x="430.397" y="-144.8" font-family="Times,serif" font-size="14.00">1 (92.7)</text>
</g>
<!-- 031 -->
<g id="node25" class="node"><title>031</title>
<ellipse fill="#ff8a8a" stroke="#b43f3f" cx="499.397" cy="-105" rx="36.2938" ry="18"/>
<text text-anchor="middle" x="499.397" y="-101.3" font-family="Times,serif" font-size="14.00">031 (a)</text>
</g>
<!-- 022&#45;&gt;031 -->
<g id="edge23" class="edge"><title>022&#45;&gt;031</title>
<path fill="none" stroke="#b43f3f" stroke-dasharray="1,5" d="M499.397,-173.799C499.397,-162.163 499.397,-146.548 499.397,-133.237"/>
<polygon fill="#b43f3f" stroke="#b43f3f" points="502.897,-133.175 499.397,-123.175 495.897,-133.175 502.897,-133.175"/>
<text text-anchor="middle" x="521.397" y="-144.8" font-family="Times,serif" font-size="14.00">2 (86.7)</text>
</g>
<!-- 047 -->
<g id="node28" class="node"><title>047</title>
<ellipse fill="#ff8a8a" stroke="#b43f3f" cx="734.397" cy="-105" rx="36.2938" ry="18"/>
<text text-anchor="middle" x="734.397" y="-101.3" font-family="Times,serif" font-size="14.00">047 (a)</text>
</g>
<!-- 021&#45;&gt;047 -->
<g id="edge26" class="edge"><title>021&#45;&gt;047</title>
<path fill="none" stroke="#b43f3f" stroke-dasharray="1,5" d="M766.109,-175.414C761.3,-169.617 756.197,-162.791 752.397,-156 748.387,-148.834 744.99,-140.608 742.264,-132.924"/>
<polygon fill="#b43f3f" stroke="#b43f3f" points="745.535,-131.666 739.072,-123.271 738.888,-133.864 745.535,-131.666"/>
<text text-anchor="middle" x="774.397" y="-144.8" font-family="Times,serif" font-size="14.00">1 (95.1)</text>
</g>
<!-- 036 -->
<g id="node29" class="node"><title>036</title>
<ellipse fill="#cea8f4" stroke="#835da9" cx="825.397" cy="-105" rx="36.2938" ry="18"/>
<text text-anchor="middle" x="825.397" y="-101.3" font-family="Times,serif" font-size="14.00">036 (b)</text>
</g>
<!-- 021&#45;&gt;036 -->
<g id="edge27" class="edge"><title>021&#45;&gt;036</title>
<path fill="none" stroke="#835da9" stroke-dasharray="1,5" d="M789.287,-174.207C795.697,-162.099 804.468,-145.533 811.76,-131.759"/>
<polygon fill="#835da9" stroke="#835da9" points="814.939,-133.234 816.525,-122.758 808.752,-129.959 814.939,-133.234"/>
<text text-anchor="middle" x="828.397" y="-144.8" font-family="Times,serif" font-size="14.00">1 (97.6)</text>
</g>
<!-- 017 -->
<g id="node26" class="node"><title>017</title>
<ellipse fill="#ff8a8a" stroke="#b43f3f" cx="454.397" cy="-18" rx="36.2938" ry="18"/>
<text text-anchor="middle" x="454.397" y="-14.3" font-family="Times,serif" font-size="14.00">017 (a)</text>
</g>
<!-- 031&#45;&gt;017 -->
<g id="edge24" class="edge"><title>031&#45;&gt;017</title>
<path fill="none" stroke="#b43f3f" stroke-dasharray="1,5" d="M489.644,-87.3706C486.322,-81.5933 482.633,-75.047 479.397,-69 475.229,-61.2133 470.866,-52.6446 466.972,-44.8337"/>
<polygon fill="#b43f3f" stroke="#b43f3f" points="470.069,-43.1997 462.5,-35.7855 463.793,-46.3011 470.069,-43.1997"/>
<text text-anchor="middle" x="501.397" y="-57.8" font-family="Times,serif" font-size="14.00">1 (94.3)</text>
</g>
<!-- 013 -->
<g id="node27" class="node"><title>013</title>
<ellipse fill="#ff8a8a" stroke="#b43f3f" cx="545.397" cy="-18" rx="36.2938" ry="18"/>
<text text-anchor="middle" x="545.397" y="-14.3" font-family="Times,serif" font-size="14.00">013 (a)</text>
</g>
<!-- 031&#45;&gt;013 -->
<g id="edge25" class="edge"><title>031&#45;&gt;013</title>
<path fill="none" stroke="#b43f3f" stroke-dasharray="1,5" d="M511.526,-87.6704C515.546,-81.9172 519.886,-75.3093 523.397,-69 527.547,-61.5417 531.498,-53.1477 534.877,-45.3977"/>
<polygon fill="#b43f3f" stroke="#b43f3f" points="538.161,-46.6185 538.824,-36.0444 531.712,-43.8974 538.161,-46.6185"/>
<text text-anchor="middle" x="553.397" y="-57.8" font-family="Times,serif" font-size="14.00">1 (97.1)</text>
</g>
</g>
</svg>
