<?xml version="1.0" encoding="UTF-8" standalone="no"?>
<!DOCTYPE svg PUBLIC "-//W3C//DTD SVG 1.1//EN"
 "http://www.w3.org/Graphics/SVG/1.1/DTD/svg11.dtd">
<!-- Generated by graphviz version 2.38.0 (20140413.2041)
 -->
<!-- Title: %3 Pages: 1 -->
<svg width="1340pt" height="321pt"
 viewBox="0.00 0.00 1339.85 321.00" xmlns="http://www.w3.org/2000/svg" xmlns:xlink="http://www.w3.org/1999/xlink">
<g id="graph0" class="graph" transform="scale(1 1) rotate(0) translate(4 317)">
<title>%3</title>
<polygon fill="white" stroke="none" points="-4,4 -4,-317 1335.85,-317 1335.85,4 -4,4"/>
<g id="clust1" class="cluster"><title>cluster_legend</title>
<path fill="none" stroke="black" d="M20,-177C20,-177 210,-177 210,-177 216,-177 222,-183 222,-189 222,-189 222,-293 222,-293 222,-299 216,-305 210,-305 210,-305 20,-305 20,-305 14,-305 8,-299 8,-293 8,-293 8,-189 8,-189 8,-183 14,-177 20,-177"/>
</g>
<!-- leg_s -->
<g id="node1" class="node"><title>leg_s</title>
<text text-anchor="middle" x="115" y="-275.3" font-family="Times,serif" font-size="14.00">Textual flow strength</text>
</g>
<!-- leg_e1 -->
<!-- leg_s&#45;&gt;leg_e1 -->
<g id="edge1" class="edge"><title>leg_s&#45;&gt;leg_e1</title>
<path fill="none" stroke="black" stroke-dasharray="1,5" d="M96.6657,-260.686C91.1324,-255.194 85.1607,-248.989 80,-243 70.1708,-231.593 60.0722,-217.779 52.9137,-207.563"/>
<polygon fill="black" stroke="black" points="55.6142,-205.314 47.056,-199.068 49.8514,-209.288 55.6142,-205.314"/>
<text text-anchor="middle" x="95.5" y="-231.8" font-family="Times,serif" font-size="14.00">&lt;=5 &#160;</text>
</g>
<!-- leg_e2 -->
<!-- leg_s&#45;&gt;leg_e2 -->
<g id="edge2" class="edge"><title>leg_s&#45;&gt;leg_e2</title>
<path fill="none" stroke="black" stroke-dasharray="5,2" d="M115,-260.799C115,-245.794 115,-224.174 115,-209.409"/>
<polygon fill="black" stroke="black" points="118.5,-209.293 115,-199.293 111.5,-209.293 118.5,-209.293"/>
<text text-anchor="middle" x="134" y="-231.8" font-family="Times,serif" font-size="14.00"> &#160;&lt;=25</text>
</g>
<!-- leg_e3 -->
<!-- leg_s&#45;&gt;leg_e3 -->
<g id="edge3" class="edge"><title>leg_s&#45;&gt;leg_e3</title>
<path fill="none" stroke="black" d="M138.503,-260.76C144.906,-255.462 151.567,-249.344 157,-243 166.087,-232.39 174.095,-218.689 179.546,-208.313"/>
<polygon fill="black" stroke="black" points="182.722,-209.789 184.091,-199.283 176.469,-206.642 182.722,-209.789"/>
<text text-anchor="middle" x="179" y="-231.8" font-family="Times,serif" font-size="14.00">&gt;25</text>
</g>
<!-- 03 -->
<g id="node5" class="node"><title>03</title>
<ellipse fill="#ff8a8a" stroke="#b43f3f" cx="350" cy="-279" rx="31.6951" ry="18"/>
<text text-anchor="middle" x="350" y="-275.3" font-family="Times,serif" font-size="14.00">03 (a)</text>
</g>
<!-- 02 -->
<g id="node6" class="node"><title>02</title>
<ellipse fill="#ff8a8a" stroke="#b43f3f" cx="264" cy="-192" rx="31.6951" ry="18"/>
<text text-anchor="middle" x="264" y="-188.3" font-family="Times,serif" font-size="14.00">02 (a)</text>
</g>
<!-- 03&#45;&gt;02 -->
<g id="edge4" class="edge"><title>03&#45;&gt;02</title>
<path fill="none" stroke="#b43f3f" stroke-dasharray="1,5" d="M329.353,-264.912C320.467,-258.796 310.248,-251.086 302,-243 294.175,-235.329 286.638,-225.975 280.368,-217.442"/>
<polygon fill="#b43f3f" stroke="#b43f3f" points="283.206,-215.394 274.557,-209.275 277.503,-219.452 283.206,-215.394"/>
<text text-anchor="middle" x="324" y="-231.8" font-family="Times,serif" font-size="14.00">1 (86.5)</text>
</g>
<!-- 032 -->
<g id="node7" class="node"><title>032</title>
<ellipse fill="#ff8a8a" stroke="#b43f3f" cx="350" cy="-192" rx="36.2938" ry="18"/>
<text text-anchor="middle" x="350" y="-188.3" font-family="Times,serif" font-size="14.00">032 (a)</text>
</g>
<!-- 03&#45;&gt;032 -->
<g id="edge5" class="edge"><title>03&#45;&gt;032</title>
<path fill="none" stroke="#b43f3f" stroke-dasharray="1,5" d="M350,-260.799C350,-249.163 350,-233.548 350,-220.237"/>
<polygon fill="#b43f3f" stroke="#b43f3f" points="353.5,-220.175 350,-210.175 346.5,-220.175 353.5,-220.175"/>
<text text-anchor="middle" x="372" y="-231.8" font-family="Times,serif" font-size="14.00">1 (91.7)</text>
</g>
<!-- 044 -->
<g id="node8" class="node"><title>044</title>
<ellipse fill="#ff8a8a" stroke="#b43f3f" cx="441" cy="-192" rx="36.2938" ry="18"/>
<text text-anchor="middle" x="441" y="-188.3" font-family="Times,serif" font-size="14.00">044 (a)</text>
</g>
<!-- 03&#45;&gt;044 -->
<g id="edge6" class="edge"><title>03&#45;&gt;044</title>
<path fill="none" stroke="#b43f3f" stroke-dasharray="1,5" d="M370.419,-264.672C379.263,-258.512 389.511,-250.834 398,-243 406.544,-235.115 415.076,-225.619 422.26,-217.029"/>
<polygon fill="#b43f3f" stroke="#b43f3f" points="425.077,-219.113 428.692,-209.155 419.656,-214.685 425.077,-219.113"/>
<text text-anchor="middle" x="434" y="-231.8" font-family="Times,serif" font-size="14.00">1 (89.2)</text>
</g>
<!-- 0141 -->
<g id="node27" class="node"><title>0141</title>
<ellipse fill="#ff8a8a" stroke="#b43f3f" cx="393" cy="-105" rx="40.0939" ry="18"/>
<text text-anchor="middle" x="393" y="-101.3" font-family="Times,serif" font-size="14.00">0141 (a)</text>
</g>
<!-- 044&#45;&gt;0141 -->
<g id="edge23" class="edge"><title>044&#45;&gt;0141</title>
<path fill="none" stroke="#b43f3f" stroke-dasharray="1,5" d="M427.443,-175.237C422.827,-169.423 417.862,-162.632 414,-156 409.736,-148.678 405.874,-140.324 402.659,-132.569"/>
<polygon fill="#b43f3f" stroke="#b43f3f" points="405.883,-131.202 398.951,-123.189 399.373,-133.776 405.883,-131.202"/>
<text text-anchor="middle" x="436" y="-144.8" font-family="Times,serif" font-size="14.00">1 (89.2)</text>
</g>
<!-- 022 -->
<g id="node28" class="node"><title>022</title>
<ellipse fill="#ff8a8a" stroke="#b43f3f" cx="488" cy="-105" rx="36.2938" ry="18"/>
<text text-anchor="middle" x="488" y="-101.3" font-family="Times,serif" font-size="14.00">022 (a)</text>
</g>
<!-- 044&#45;&gt;022 -->
<g id="edge24" class="edge"><title>044&#45;&gt;022</title>
<path fill="none" stroke="#b43f3f" stroke-dasharray="1,5" d="M450.286,-174.207C457.024,-162.021 466.26,-145.318 473.905,-131.491"/>
<polygon fill="#b43f3f" stroke="#b43f3f" points="477.117,-132.914 478.894,-122.469 470.992,-129.527 477.117,-132.914"/>
<text text-anchor="middle" x="490" y="-144.8" font-family="Times,serif" font-size="14.00">1 (91.7)</text>
</g>
<!-- 021 -->
<g id="node9" class="node"><title>021</title>
<ellipse fill="#ff8a8a" stroke="#b43f3f" cx="579" cy="-105" rx="36.2938" ry="18"/>
<text text-anchor="middle" x="579" y="-101.3" font-family="Times,serif" font-size="14.00">021 (a)</text>
</g>
<!-- 047 -->
<g id="node10" class="node"><title>047</title>
<ellipse fill="#ff8a8a" stroke="#b43f3f" cx="488" cy="-18" rx="36.2938" ry="18"/>
<text text-anchor="middle" x="488" y="-14.3" font-family="Times,serif" font-size="14.00">047 (a)</text>
</g>
<!-- 021&#45;&gt;047 -->
<g id="edge7" class="edge"><title>021&#45;&gt;047</title>
<path fill="none" stroke="#b43f3f" stroke-dasharray="1,5" d="M557.628,-90.006C549.008,-83.9634 539.186,-76.5539 531,-69 522.456,-61.1154 513.924,-51.6186 506.74,-43.0293"/>
<polygon fill="#b43f3f" stroke="#b43f3f" points="509.344,-40.6853 500.308,-35.1545 503.923,-45.1135 509.344,-40.6853"/>
<text text-anchor="middle" x="553" y="-57.8" font-family="Times,serif" font-size="14.00">1 (95.1)</text>
</g>
<!-- 036 -->
<g id="node11" class="node"><title>036</title>
<ellipse fill="#ff8a8a" stroke="#b43f3f" cx="579" cy="-18" rx="36.2938" ry="18"/>
<text text-anchor="middle" x="579" y="-14.3" font-family="Times,serif" font-size="14.00">036 (a)</text>
</g>
<!-- 021&#45;&gt;036 -->
<g id="edge8" class="edge"><title>021&#45;&gt;036</title>
<path fill="none" stroke="#b43f3f" stroke-dasharray="1,5" d="M579,-86.799C579,-75.1626 579,-59.5479 579,-46.2368"/>
<polygon fill="#b43f3f" stroke="#b43f3f" points="582.5,-46.1754 579,-36.1754 575.5,-46.1755 582.5,-46.1754"/>
<text text-anchor="middle" x="601" y="-57.8" font-family="Times,serif" font-size="14.00">1 (97.6)</text>
</g>
<!-- 063 -->
<g id="node12" class="node"><title>063</title>
<ellipse fill="#ff8a8a" stroke="#b43f3f" cx="945" cy="-192" rx="36.2938" ry="18"/>
<text text-anchor="middle" x="945" y="-188.3" font-family="Times,serif" font-size="14.00">063 (a)</text>
</g>
<!-- 063&#45;&gt;021 -->
<g id="edge9" class="edge"><title>063&#45;&gt;021</title>
<path fill="none" stroke="#b43f3f" stroke-dasharray="1,5" d="M911.844,-184.184C878.862,-177.333 826.845,-166.335 782,-156 725.918,-143.075 661.43,-126.979 620.465,-116.599"/>
<polygon fill="#b43f3f" stroke="#b43f3f" points="621.13,-113.157 610.576,-114.089 619.407,-119.942 621.13,-113.157"/>
<text text-anchor="middle" x="804" y="-144.8" font-family="Times,serif" font-size="14.00">1 (93.1)</text>
</g>
<!-- 031 -->
<g id="node13" class="node"><title>031</title>
<ellipse fill="#ff8a8a" stroke="#b43f3f" cx="761" cy="-105" rx="36.2938" ry="18"/>
<text text-anchor="middle" x="761" y="-101.3" font-family="Times,serif" font-size="14.00">031 (a)</text>
</g>
<!-- 063&#45;&gt;031 -->
<g id="edge10" class="edge"><title>063&#45;&gt;031</title>
<path fill="none" stroke="#b43f3f" stroke-dasharray="1,5" d="M917.206,-180.184C900.49,-173.523 878.865,-164.633 860,-156 837.58,-145.741 812.82,-133.236 793.67,-123.298"/>
<polygon fill="#b43f3f" stroke="#b43f3f" points="795.24,-120.169 784.755,-118.646 792.002,-126.375 795.24,-120.169"/>
<text text-anchor="middle" x="882" y="-144.8" font-family="Times,serif" font-size="14.00">1 (95.8)</text>
</g>
<!-- 07 -->
<g id="node14" class="node"><title>07</title>
<ellipse fill="#ff8a8a" stroke="#b43f3f" cx="897" cy="-105" rx="31.6951" ry="18"/>
<text text-anchor="middle" x="897" y="-101.3" font-family="Times,serif" font-size="14.00">07 (a)</text>
</g>
<!-- 063&#45;&gt;07 -->
<g id="edge11" class="edge"><title>063&#45;&gt;07</title>
<path fill="none" stroke="#b43f3f" stroke-dasharray="1,5" d="M929.038,-175.668C923.7,-169.895 918.078,-163.019 914,-156 909.837,-148.834 906.494,-140.495 903.912,-132.705"/>
<polygon fill="#b43f3f" stroke="#b43f3f" points="907.198,-131.48 900.949,-122.924 900.498,-133.509 907.198,-131.48"/>
<text text-anchor="middle" x="936" y="-144.8" font-family="Times,serif" font-size="14.00">1 (96.6)</text>
</g>
<!-- 045 -->
<g id="node15" class="node"><title>045</title>
<ellipse fill="#ff8a8a" stroke="#b43f3f" cx="983" cy="-105" rx="36.2938" ry="18"/>
<text text-anchor="middle" x="983" y="-101.3" font-family="Times,serif" font-size="14.00">045 (a)</text>
</g>
<!-- 063&#45;&gt;045 -->
<g id="edge12" class="edge"><title>063&#45;&gt;045</title>
<path fill="none" stroke="#b43f3f" stroke-dasharray="1,5" d="M952.508,-174.207C957.868,-162.216 965.184,-145.851 971.306,-132.157"/>
<polygon fill="#b43f3f" stroke="#b43f3f" points="974.622,-133.316 975.508,-122.758 968.231,-130.459 974.622,-133.316"/>
<text text-anchor="middle" x="989" y="-144.8" font-family="Times,serif" font-size="14.00">1 (93.1)</text>
</g>
<!-- 028 -->
<g id="node16" class="node"><title>028</title>
<ellipse fill="#ff8a8a" stroke="#b43f3f" cx="1074" cy="-105" rx="36.2938" ry="18"/>
<text text-anchor="middle" x="1074" y="-101.3" font-family="Times,serif" font-size="14.00">028 (a)</text>
</g>
<!-- 063&#45;&gt;028 -->
<g id="edge13" class="edge"><title>063&#45;&gt;028</title>
<path fill="none" stroke="#b43f3f" stroke-dasharray="1,5" d="M971.755,-179.465C985.16,-173.232 1001.39,-164.981 1015,-156 1027.32,-147.867 1039.95,-137.495 1050.34,-128.309"/>
<polygon fill="#b43f3f" stroke="#b43f3f" points="1052.73,-130.868 1057.81,-121.571 1048.04,-125.67 1052.73,-130.868"/>
<text text-anchor="middle" x="1056" y="-144.8" font-family="Times,serif" font-size="14.00">1 (96.6)</text>
</g>
<!-- 011 -->
<g id="node17" class="node"><title>011</title>
<ellipse fill="#ff8a8a" stroke="#b43f3f" cx="1165" cy="-105" rx="36.2938" ry="18"/>
<text text-anchor="middle" x="1165" y="-101.3" font-family="Times,serif" font-size="14.00">011 (a)</text>
</g>
<!-- 063&#45;&gt;011 -->
<g id="edge14" class="edge"><title>063&#45;&gt;011</title>
<path fill="none" stroke="#b43f3f" stroke-dasharray="1,5" d="M972.496,-180.031C978.534,-177.85 984.936,-175.709 991,-174 1030.68,-162.819 1043.54,-170.86 1082,-156 1101.41,-148.498 1121.45,-136.57 1136.97,-126.245"/>
<polygon fill="#b43f3f" stroke="#b43f3f" points="1139.26,-128.922 1145.55,-120.397 1135.31,-123.138 1139.26,-128.922"/>
<text text-anchor="middle" x="1132" y="-144.8" font-family="Times,serif" font-size="14.00">1 (93.1)</text>
</g>
<!-- 017 -->
<g id="node18" class="node"><title>017</title>
<ellipse fill="#ff8a8a" stroke="#b43f3f" cx="670" cy="-18" rx="36.2938" ry="18"/>
<text text-anchor="middle" x="670" y="-14.3" font-family="Times,serif" font-size="14.00">017 (a)</text>
</g>
<!-- 031&#45;&gt;017 -->
<g id="edge15" class="edge"><title>031&#45;&gt;017</title>
<path fill="none" stroke="#b43f3f" stroke-dasharray="1,5" d="M739.628,-90.006C731.008,-83.9634 721.186,-76.5539 713,-69 704.456,-61.1154 695.924,-51.6186 688.74,-43.0293"/>
<polygon fill="#b43f3f" stroke="#b43f3f" points="691.344,-40.6853 682.308,-35.1545 685.923,-45.1135 691.344,-40.6853"/>
<text text-anchor="middle" x="735" y="-57.8" font-family="Times,serif" font-size="14.00">1 (94.3)</text>
</g>
<!-- 013 -->
<g id="node19" class="node"><title>013</title>
<ellipse fill="#ff8a8a" stroke="#b43f3f" cx="761" cy="-18" rx="36.2938" ry="18"/>
<text text-anchor="middle" x="761" y="-14.3" font-family="Times,serif" font-size="14.00">013 (a)</text>
</g>
<!-- 031&#45;&gt;013 -->
<g id="edge16" class="edge"><title>031&#45;&gt;013</title>
<path fill="none" stroke="#b43f3f" stroke-dasharray="1,5" d="M761,-86.799C761,-75.1626 761,-59.5479 761,-46.2368"/>
<polygon fill="#b43f3f" stroke="#b43f3f" points="764.5,-46.1754 761,-36.1754 757.5,-46.1755 764.5,-46.1754"/>
<text text-anchor="middle" x="783" y="-57.8" font-family="Times,serif" font-size="14.00">1 (97.1)</text>
</g>
<!-- 030 -->
<g id="node20" class="node"><title>030</title>
<ellipse fill="#ff8a8a" stroke="#b43f3f" cx="852" cy="-18" rx="36.2938" ry="18"/>
<text text-anchor="middle" x="852" y="-14.3" font-family="Times,serif" font-size="14.00">030 (a)</text>
</g>
<!-- 07&#45;&gt;030 -->
<g id="edge17" class="edge"><title>07&#45;&gt;030</title>
<path fill="none" stroke="#b43f3f" stroke-dasharray="1,5" d="M887.45,-87.7233C884.076,-81.8607 880.302,-75.1704 877,-69 872.833,-61.2133 868.469,-52.6446 864.575,-44.8337"/>
<polygon fill="#b43f3f" stroke="#b43f3f" points="867.672,-43.1997 860.104,-35.7855 861.397,-46.3011 867.672,-43.1997"/>
<text text-anchor="middle" x="899" y="-57.8" font-family="Times,serif" font-size="14.00">1 (95.1)</text>
</g>
<!-- 037 -->
<g id="node21" class="node"><title>037</title>
<ellipse fill="#ff8a8a" stroke="#b43f3f" cx="943" cy="-18" rx="36.2938" ry="18"/>
<text text-anchor="middle" x="943" y="-14.3" font-family="Times,serif" font-size="14.00">037 (a)</text>
</g>
<!-- 07&#45;&gt;037 -->
<g id="edge18" class="edge"><title>07&#45;&gt;037</title>
<path fill="none" stroke="#b43f3f" stroke-dasharray="1,5" d="M908.884,-88.0215C912.972,-82.187 917.417,-75.4381 921,-69 925.15,-61.5417 929.102,-53.1477 932.481,-45.3977"/>
<polygon fill="#b43f3f" stroke="#b43f3f" points="935.764,-46.6185 936.427,-36.0444 929.315,-43.8974 935.764,-46.6185"/>
<text text-anchor="middle" x="951" y="-57.8" font-family="Times,serif" font-size="14.00">1 (97.5)</text>
</g>
<!-- 034 -->
<g id="node22" class="node"><title>034</title>
<ellipse fill="#ff8a8a" stroke="#b43f3f" cx="1034" cy="-18" rx="36.2938" ry="18"/>
<text text-anchor="middle" x="1034" y="-14.3" font-family="Times,serif" font-size="14.00">034 (a)</text>
</g>
<!-- 07&#45;&gt;034 -->
<g id="edge19" class="edge"><title>07&#45;&gt;034</title>
<path fill="none" stroke="#b43f3f" stroke-dasharray="1,5" d="M921.8,-93.6025C943.395,-84.4748 972.01,-72.1718 977,-69 989.097,-61.3104 1001.22,-51.1161 1011.15,-41.9391"/>
<polygon fill="#b43f3f" stroke="#b43f3f" points="1013.76,-44.2869 1018.6,-34.8648 1008.94,-39.2089 1013.76,-44.2869"/>
<text text-anchor="middle" x="1020" y="-57.8" font-family="Times,serif" font-size="14.00">1 (95.1)</text>
</g>
<!-- 038 -->
<g id="node26" class="node"><title>038</title>
<ellipse fill="#ff8a8a" stroke="#b43f3f" cx="1125" cy="-18" rx="36.2938" ry="18"/>
<text text-anchor="middle" x="1125" y="-14.3" font-family="Times,serif" font-size="14.00">038 (a)</text>
</g>
<!-- 045&#45;&gt;038 -->
<g id="edge22" class="edge"><title>045&#45;&gt;038</title>
<path fill="none" stroke="#b43f3f" stroke-dasharray="1,5" d="M1006.82,-91.187C1018.68,-84.6971 1033.2,-76.5999 1046,-69 1062.41,-59.2573 1080.42,-47.9151 1095.09,-38.4986"/>
<polygon fill="#b43f3f" stroke="#b43f3f" points="1097.24,-41.2762 1103.75,-32.9158 1093.44,-35.393 1097.24,-41.2762"/>
<text text-anchor="middle" x="1093" y="-57.8" font-family="Times,serif" font-size="14.00">1 (92.7)</text>
</g>
<!-- 091 -->
<g id="node23" class="node"><title>091</title>
<ellipse fill="#ff8a8a" stroke="#b43f3f" cx="1040" cy="-279" rx="36.2938" ry="18"/>
<text text-anchor="middle" x="1040" y="-275.3" font-family="Times,serif" font-size="14.00">091 (a)</text>
</g>
<!-- 0211 -->
<g id="node24" class="node"><title>0211</title>
<ellipse fill="#ff8a8a" stroke="#b43f3f" cx="1040" cy="-192" rx="40.0939" ry="18"/>
<text text-anchor="middle" x="1040" y="-188.3" font-family="Times,serif" font-size="14.00">0211 (a)</text>
</g>
<!-- 091&#45;&gt;0211 -->
<g id="edge20" class="edge"><title>091&#45;&gt;0211</title>
<path fill="none" stroke="#b43f3f" stroke-dasharray="1,5" d="M1040,-260.799C1040,-249.163 1040,-233.548 1040,-220.237"/>
<polygon fill="#b43f3f" stroke="#b43f3f" points="1043.5,-220.175 1040,-210.175 1036.5,-220.175 1043.5,-220.175"/>
<text text-anchor="middle" x="1062" y="-231.8" font-family="Times,serif" font-size="14.00">1 (83.3)</text>
</g>
<!-- 019 -->
<g id="node25" class="node"><title>019</title>
<ellipse fill="#ff8a8a" stroke="#b43f3f" cx="945" cy="-279" rx="36.2938" ry="18"/>
<text text-anchor="middle" x="945" y="-275.3" font-family="Times,serif" font-size="14.00">019 (a)</text>
</g>
<!-- 019&#45;&gt;063 -->
<g id="edge21" class="edge"><title>019&#45;&gt;063</title>
<path fill="none" stroke="#b43f3f" stroke-dasharray="1,5" d="M945,-260.799C945,-249.163 945,-233.548 945,-220.237"/>
<polygon fill="#b43f3f" stroke="#b43f3f" points="948.5,-220.175 945,-210.175 941.5,-220.175 948.5,-220.175"/>
<text text-anchor="middle" x="967" y="-231.8" font-family="Times,serif" font-size="14.00">1 (85.7)</text>
</g>
<!-- P75 -->
<g id="node29" class="node"><title>P75</title>
<ellipse fill="#ff8a8a" stroke="#b43f3f" cx="1131" cy="-279" rx="36.2938" ry="18"/>
<text text-anchor="middle" x="1131" y="-275.3" font-family="Times,serif" font-size="14.00">P75 (a)</text>
</g>
<!-- 01 -->
<g id="node30" class="node"><title>01</title>
<ellipse fill="#cea8f4" stroke="#835da9" cx="1218" cy="-279" rx="32.4942" ry="18"/>
<text text-anchor="middle" x="1218" y="-275.3" font-family="Times,serif" font-size="14.00">01 (b)</text>
</g>
<!-- 05 -->
<g id="node31" class="node"><title>05</title>
<ellipse fill="#72fe95" stroke="#27b34a" cx="1300" cy="-279" rx="31.6951" ry="18"/>
<text text-anchor="middle" x="1300" y="-275.3" font-family="Times,serif" font-size="14.00">05 (c)</text>
</g>
</g>
</svg>
