<?xml version="1.0" encoding="UTF-8" standalone="no"?>
<!DOCTYPE svg PUBLIC "-//W3C//DTD SVG 1.1//EN"
 "http://www.w3.org/Graphics/SVG/1.1/DTD/svg11.dtd">
<!-- Generated by graphviz version 2.38.0 (20140413.2041)
 -->
<!-- Title: %3 Pages: 1 -->
<svg width="1851pt" height="234pt"
 viewBox="0.00 0.00 1850.85 234.00" xmlns="http://www.w3.org/2000/svg" xmlns:xlink="http://www.w3.org/1999/xlink">
<g id="graph0" class="graph" transform="scale(1 1) rotate(0) translate(4 230)">
<title>%3</title>
<polygon fill="white" stroke="none" points="-4,4 -4,-230 1846.85,-230 1846.85,4 -4,4"/>
<g id="clust1" class="cluster"><title>cluster_legend</title>
<path fill="none" stroke="black" d="M20,-90C20,-90 210,-90 210,-90 216,-90 222,-96 222,-102 222,-102 222,-206 222,-206 222,-212 216,-218 210,-218 210,-218 20,-218 20,-218 14,-218 8,-212 8,-206 8,-206 8,-102 8,-102 8,-96 14,-90 20,-90"/>
</g>
<!-- leg_s -->
<g id="node1" class="node"><title>leg_s</title>
<text text-anchor="middle" x="115" y="-188.3" font-family="Times,serif" font-size="14.00">Textual flow strength</text>
</g>
<!-- leg_e1 -->
<!-- leg_s&#45;&gt;leg_e1 -->
<g id="edge1" class="edge"><title>leg_s&#45;&gt;leg_e1</title>
<path fill="none" stroke="black" stroke-dasharray="1,5" d="M96.6657,-173.686C91.1324,-168.194 85.1607,-161.989 80,-156 70.1708,-144.593 60.0722,-130.779 52.9137,-120.563"/>
<polygon fill="black" stroke="black" points="55.6142,-118.314 47.056,-112.068 49.8514,-122.288 55.6142,-118.314"/>
<text text-anchor="middle" x="95.5" y="-144.8" font-family="Times,serif" font-size="14.00">&lt;=5 &#160;</text>
</g>
<!-- leg_e2 -->
<!-- leg_s&#45;&gt;leg_e2 -->
<g id="edge2" class="edge"><title>leg_s&#45;&gt;leg_e2</title>
<path fill="none" stroke="black" stroke-dasharray="5,2" d="M115,-173.799C115,-158.794 115,-137.174 115,-122.409"/>
<polygon fill="black" stroke="black" points="118.5,-122.293 115,-112.293 111.5,-122.293 118.5,-122.293"/>
<text text-anchor="middle" x="134" y="-144.8" font-family="Times,serif" font-size="14.00"> &#160;&lt;=25</text>
</g>
<!-- leg_e3 -->
<!-- leg_s&#45;&gt;leg_e3 -->
<g id="edge3" class="edge"><title>leg_s&#45;&gt;leg_e3</title>
<path fill="none" stroke="black" d="M138.503,-173.76C144.906,-168.462 151.567,-162.344 157,-156 166.087,-145.39 174.095,-131.689 179.546,-121.313"/>
<polygon fill="black" stroke="black" points="182.722,-122.789 184.091,-112.283 176.469,-119.642 182.722,-122.789"/>
<text text-anchor="middle" x="179" y="-144.8" font-family="Times,serif" font-size="14.00">&gt;25</text>
</g>
<!-- 07 -->
<g id="node5" class="node"><title>07</title>
<ellipse fill="#ff8a8a" stroke="#b43f3f" cx="406" cy="-192" rx="31.6951" ry="18"/>
<text text-anchor="middle" x="406" y="-188.3" font-family="Times,serif" font-size="14.00">07 (a)</text>
</g>
<!-- 034 -->
<g id="node6" class="node"><title>034</title>
<ellipse fill="#ff8a8a" stroke="#b43f3f" cx="268" cy="-105" rx="36.2938" ry="18"/>
<text text-anchor="middle" x="268" y="-101.3" font-family="Times,serif" font-size="14.00">034 (a)</text>
</g>
<!-- 07&#45;&gt;034 -->
<g id="edge4" class="edge"><title>07&#45;&gt;034</title>
<path fill="none" stroke="#b43f3f" stroke-dasharray="1,5" d="M380.956,-180.809C366.274,-174.434 347.605,-165.622 332,-156 318.479,-147.664 304.464,-136.981 293.009,-127.633"/>
<polygon fill="#b43f3f" stroke="#b43f3f" points="295.091,-124.813 285.163,-121.113 290.617,-130.196 295.091,-124.813"/>
<text text-anchor="middle" x="354" y="-144.8" font-family="Times,serif" font-size="14.00">1 (95.1)</text>
</g>
<!-- 030 -->
<g id="node7" class="node"><title>030</title>
<ellipse fill="#ff8a8a" stroke="#b43f3f" cx="359" cy="-105" rx="36.2938" ry="18"/>
<text text-anchor="middle" x="359" y="-101.3" font-family="Times,serif" font-size="14.00">030 (a)</text>
</g>
<!-- 07&#45;&gt;030 -->
<g id="edge5" class="edge"><title>07&#45;&gt;030</title>
<path fill="none" stroke="#b43f3f" stroke-dasharray="1,5" d="M396.938,-174.611C390.219,-162.46 380.93,-145.66 373.225,-131.725"/>
<polygon fill="#b43f3f" stroke="#b43f3f" points="376.097,-129.686 368.195,-122.629 369.971,-133.073 376.097,-129.686"/>
<text text-anchor="middle" x="408" y="-144.8" font-family="Times,serif" font-size="14.00">1 (95.1)</text>
</g>
<!-- 0211 -->
<g id="node8" class="node"><title>0211</title>
<ellipse fill="#ff8a8a" stroke="#b43f3f" cx="454" cy="-105" rx="40.0939" ry="18"/>
<text text-anchor="middle" x="454" y="-101.3" font-family="Times,serif" font-size="14.00">0211 (a)</text>
</g>
<!-- 07&#45;&gt;0211 -->
<g id="edge6" class="edge"><title>07&#45;&gt;0211</title>
<path fill="none" stroke="#b43f3f" stroke-dasharray="1,5" d="M418.693,-175.487C423.203,-169.587 428.119,-162.674 432,-156 436.291,-148.622 440.284,-140.251 443.658,-132.498"/>
<polygon fill="#b43f3f" stroke="#b43f3f" points="446.947,-133.706 447.577,-123.13 440.489,-131.004 446.947,-133.706"/>
<text text-anchor="middle" x="462" y="-144.8" font-family="Times,serif" font-size="14.00">2 (82.9)</text>
</g>
<!-- 037 -->
<g id="node9" class="node"><title>037</title>
<ellipse fill="#ff8a8a" stroke="#b43f3f" cx="549" cy="-105" rx="36.2938" ry="18"/>
<text text-anchor="middle" x="549" y="-101.3" font-family="Times,serif" font-size="14.00">037 (a)</text>
</g>
<!-- 07&#45;&gt;037 -->
<g id="edge7" class="edge"><title>07&#45;&gt;037</title>
<path fill="none" stroke="#b43f3f" stroke-dasharray="1,5" d="M432.407,-181.916C448.951,-175.703 470.396,-166.673 488,-156 501.063,-148.08 514.326,-137.567 525.133,-128.226"/>
<polygon fill="#b43f3f" stroke="#b43f3f" points="527.706,-130.622 532.874,-121.373 523.066,-125.38 527.706,-130.622"/>
<text text-anchor="middle" x="532" y="-144.8" font-family="Times,serif" font-size="14.00">1 (97.5)</text>
</g>
<!-- 0141 -->
<g id="node10" class="node"><title>0141</title>
<ellipse fill="#ff8a8a" stroke="#b43f3f" cx="635" cy="-192" rx="40.0939" ry="18"/>
<text text-anchor="middle" x="635" y="-188.3" font-family="Times,serif" font-size="14.00">0141 (a)</text>
</g>
<!-- 02 -->
<g id="node11" class="node"><title>02</title>
<ellipse fill="#ff8a8a" stroke="#b43f3f" cx="635" cy="-105" rx="31.6951" ry="18"/>
<text text-anchor="middle" x="635" y="-101.3" font-family="Times,serif" font-size="14.00">02 (a)</text>
</g>
<!-- 0141&#45;&gt;02 -->
<g id="edge8" class="edge"><title>0141&#45;&gt;02</title>
<path fill="none" stroke="#b43f3f" stroke-dasharray="1,5" d="M635,-173.799C635,-162.163 635,-146.548 635,-133.237"/>
<polygon fill="#b43f3f" stroke="#b43f3f" points="638.5,-133.175 635,-123.175 631.5,-133.175 638.5,-133.175"/>
<text text-anchor="middle" x="657" y="-144.8" font-family="Times,serif" font-size="14.00">1 (86.5)</text>
</g>
<!-- 031 -->
<g id="node12" class="node"><title>031</title>
<ellipse fill="#ff8a8a" stroke="#b43f3f" cx="771" cy="-192" rx="36.2938" ry="18"/>
<text text-anchor="middle" x="771" y="-188.3" font-family="Times,serif" font-size="14.00">031 (a)</text>
</g>
<!-- 017 -->
<g id="node13" class="node"><title>017</title>
<ellipse fill="#ff8a8a" stroke="#b43f3f" cx="746" cy="-105" rx="36.2938" ry="18"/>
<text text-anchor="middle" x="746" y="-101.3" font-family="Times,serif" font-size="14.00">017 (a)</text>
</g>
<!-- 031&#45;&gt;017 -->
<g id="edge9" class="edge"><title>031&#45;&gt;017</title>
<path fill="none" stroke="#b43f3f" stroke-dasharray="1,5" d="M765.941,-173.799C762.462,-161.97 757.774,-146.03 753.817,-132.578"/>
<polygon fill="#b43f3f" stroke="#b43f3f" points="757.146,-131.491 750.966,-122.885 750.43,-133.467 757.146,-131.491"/>
<text text-anchor="middle" x="782" y="-144.8" font-family="Times,serif" font-size="14.00">1 (94.3)</text>
</g>
<!-- 013 -->
<g id="node14" class="node"><title>013</title>
<ellipse fill="#ff8a8a" stroke="#b43f3f" cx="837" cy="-105" rx="36.2938" ry="18"/>
<text text-anchor="middle" x="837" y="-101.3" font-family="Times,serif" font-size="14.00">013 (a)</text>
</g>
<!-- 031&#45;&gt;013 -->
<g id="edge10" class="edge"><title>031&#45;&gt;013</title>
<path fill="none" stroke="#b43f3f" stroke-dasharray="1,5" d="M788.984,-175.92C795.393,-170.066 802.404,-163.073 808,-156 813.818,-148.647 819.252,-140.001 823.808,-131.985"/>
<polygon fill="#b43f3f" stroke="#b43f3f" points="827.004,-133.434 828.723,-122.979 820.86,-130.08 827.004,-133.434"/>
<text text-anchor="middle" x="840" y="-144.8" font-family="Times,serif" font-size="14.00">1 (97.1)</text>
</g>
<!-- 045 -->
<g id="node15" class="node"><title>045</title>
<ellipse fill="#ff8a8a" stroke="#b43f3f" cx="928" cy="-192" rx="36.2938" ry="18"/>
<text text-anchor="middle" x="928" y="-188.3" font-family="Times,serif" font-size="14.00">045 (a)</text>
</g>
<!-- 038 -->
<g id="node16" class="node"><title>038</title>
<ellipse fill="#ff8a8a" stroke="#b43f3f" cx="928" cy="-105" rx="36.2938" ry="18"/>
<text text-anchor="middle" x="928" y="-101.3" font-family="Times,serif" font-size="14.00">038 (a)</text>
</g>
<!-- 045&#45;&gt;038 -->
<g id="edge11" class="edge"><title>045&#45;&gt;038</title>
<path fill="none" stroke="#b43f3f" stroke-dasharray="1,5" d="M928,-173.799C928,-162.163 928,-146.548 928,-133.237"/>
<polygon fill="#b43f3f" stroke="#b43f3f" points="931.5,-133.175 928,-123.175 924.5,-133.175 931.5,-133.175"/>
<text text-anchor="middle" x="950" y="-144.8" font-family="Times,serif" font-size="14.00">1 (92.7)</text>
</g>
<!-- 021 -->
<g id="node17" class="node"><title>021</title>
<ellipse fill="#ff8a8a" stroke="#b43f3f" cx="1064" cy="-192" rx="36.2938" ry="18"/>
<text text-anchor="middle" x="1064" y="-188.3" font-family="Times,serif" font-size="14.00">021 (a)</text>
</g>
<!-- 036 -->
<g id="node18" class="node"><title>036</title>
<ellipse fill="#ff8a8a" stroke="#b43f3f" cx="1041" cy="-105" rx="36.2938" ry="18"/>
<text text-anchor="middle" x="1041" y="-101.3" font-family="Times,serif" font-size="14.00">036 (a)</text>
</g>
<!-- 021&#45;&gt;036 -->
<g id="edge12" class="edge"><title>021&#45;&gt;036</title>
<path fill="none" stroke="#b43f3f" stroke-dasharray="1,5" d="M1059.35,-173.799C1056.14,-161.97 1051.83,-146.03 1048.19,-132.578"/>
<polygon fill="#b43f3f" stroke="#b43f3f" points="1051.56,-131.624 1045.57,-122.885 1044.8,-133.452 1051.56,-131.624"/>
<text text-anchor="middle" x="1076" y="-144.8" font-family="Times,serif" font-size="14.00">1 (97.6)</text>
</g>
<!-- 047 -->
<g id="node19" class="node"><title>047</title>
<ellipse fill="#ff8a8a" stroke="#b43f3f" cx="1132" cy="-105" rx="36.2938" ry="18"/>
<text text-anchor="middle" x="1132" y="-101.3" font-family="Times,serif" font-size="14.00">047 (a)</text>
</g>
<!-- 021&#45;&gt;047 -->
<g id="edge13" class="edge"><title>021&#45;&gt;047</title>
<path fill="none" stroke="#b43f3f" stroke-dasharray="1,5" d="M1082.05,-176.285C1088.73,-170.365 1096.11,-163.233 1102,-156 1108.13,-148.472 1113.88,-139.567 1118.67,-131.373"/>
<polygon fill="#b43f3f" stroke="#b43f3f" points="1121.79,-132.967 1123.64,-122.536 1115.69,-129.534 1121.79,-132.967"/>
<text text-anchor="middle" x="1135" y="-144.8" font-family="Times,serif" font-size="14.00">1 (95.1)</text>
</g>
<!-- 03 -->
<g id="node20" class="node"><title>03</title>
<ellipse fill="#cea8f4" stroke="#835da9" cx="1280" cy="-192" rx="32.4942" ry="18"/>
<text text-anchor="middle" x="1280" y="-188.3" font-family="Times,serif" font-size="14.00">03 (b)</text>
</g>
<!-- 044 -->
<g id="node21" class="node"><title>044</title>
<ellipse fill="#cea8f4" stroke="#835da9" cx="1223" cy="-105" rx="36.2938" ry="18"/>
<text text-anchor="middle" x="1223" y="-101.3" font-family="Times,serif" font-size="14.00">044 (b)</text>
</g>
<!-- 03&#45;&gt;044 -->
<g id="edge14" class="edge"><title>03&#45;&gt;044</title>
<path fill="none" stroke="#835da9" stroke-dasharray="1,5" d="M1263.54,-176.321C1257.53,-170.405 1250.98,-163.266 1246,-156 1241.01,-148.717 1236.62,-140.175 1233.05,-132.234"/>
<polygon fill="#835da9" stroke="#835da9" points="1236.25,-130.809 1229.13,-122.969 1229.81,-133.542 1236.25,-130.809"/>
<text text-anchor="middle" x="1268" y="-144.8" font-family="Times,serif" font-size="14.00">1 (89.2)</text>
</g>
<!-- 032 -->
<g id="node22" class="node"><title>032</title>
<ellipse fill="#cea8f4" stroke="#835da9" cx="1314" cy="-105" rx="36.2938" ry="18"/>
<text text-anchor="middle" x="1314" y="-101.3" font-family="Times,serif" font-size="14.00">032 (b)</text>
</g>
<!-- 03&#45;&gt;032 -->
<g id="edge15" class="edge"><title>03&#45;&gt;032</title>
<path fill="none" stroke="#835da9" stroke-dasharray="1,5" d="M1286.72,-174.207C1291.51,-162.216 1298.06,-145.851 1303.54,-132.157"/>
<polygon fill="#835da9" stroke="#835da9" points="1306.83,-133.343 1307.3,-122.758 1300.33,-130.743 1306.83,-133.343"/>
<text text-anchor="middle" x="1321" y="-144.8" font-family="Times,serif" font-size="14.00">1 (91.7)</text>
</g>
<!-- 022 -->
<g id="node23" class="node"><title>022</title>
<ellipse fill="#cea8f4" stroke="#835da9" cx="1223" cy="-18" rx="36.2938" ry="18"/>
<text text-anchor="middle" x="1223" y="-14.3" font-family="Times,serif" font-size="14.00">022 (b)</text>
</g>
<!-- 044&#45;&gt;022 -->
<g id="edge16" class="edge"><title>044&#45;&gt;022</title>
<path fill="none" stroke="#835da9" stroke-dasharray="1,5" d="M1223,-86.799C1223,-75.1626 1223,-59.5479 1223,-46.2368"/>
<polygon fill="#835da9" stroke="#835da9" points="1226.5,-46.1754 1223,-36.1754 1219.5,-46.1755 1226.5,-46.1754"/>
<text text-anchor="middle" x="1245" y="-57.8" font-family="Times,serif" font-size="14.00">1 (91.7)</text>
</g>
<!-- 011 -->
<g id="node24" class="node"><title>011</title>
<ellipse fill="#ff8a8a" stroke="#b43f3f" cx="1367" cy="-192" rx="36.2938" ry="18"/>
<text text-anchor="middle" x="1367" y="-188.3" font-family="Times,serif" font-size="14.00">011 (a)</text>
</g>
<!-- 028 -->
<g id="node25" class="node"><title>028</title>
<ellipse fill="#ff8a8a" stroke="#b43f3f" cx="1458" cy="-192" rx="36.2938" ry="18"/>
<text text-anchor="middle" x="1458" y="-188.3" font-family="Times,serif" font-size="14.00">028 (a)</text>
</g>
<!-- 019 -->
<g id="node26" class="node"><title>019</title>
<ellipse fill="#cea8f4" stroke="#835da9" cx="1549" cy="-192" rx="36.2938" ry="18"/>
<text text-anchor="middle" x="1549" y="-188.3" font-family="Times,serif" font-size="14.00">019 (b)</text>
</g>
<!-- 05 -->
<g id="node27" class="node"><title>05</title>
<ellipse fill="#cea8f4" stroke="#835da9" cx="1636" cy="-192" rx="32.4942" ry="18"/>
<text text-anchor="middle" x="1636" y="-188.3" font-family="Times,serif" font-size="14.00">05 (b)</text>
</g>
<!-- P75 -->
<g id="node28" class="node"><title>P75</title>
<ellipse fill="#cea8f4" stroke="#835da9" cx="1724" cy="-192" rx="37.0935" ry="18"/>
<text text-anchor="middle" x="1724" y="-188.3" font-family="Times,serif" font-size="14.00">P75 (b)</text>
</g>
<!-- 01 -->
<g id="node29" class="node"><title>01</title>
<ellipse fill="#72fe95" stroke="#27b34a" cx="1811" cy="-192" rx="31.6951" ry="18"/>
<text text-anchor="middle" x="1811" y="-188.3" font-family="Times,serif" font-size="14.00">01 (c)</text>
</g>
</g>
</svg>
