<?xml version="1.0" encoding="UTF-8" standalone="no"?>
<!DOCTYPE svg PUBLIC "-//W3C//DTD SVG 1.1//EN"
 "http://www.w3.org/Graphics/SVG/1.1/DTD/svg11.dtd">
<!-- Generated by graphviz version 2.38.0 (20140413.2041)
 -->
<!-- Title: %3 Pages: 1 -->
<svg width="1152pt" height="163pt"
 viewBox="0.00 0.00 1152.00 163.00" xmlns="http://www.w3.org/2000/svg" xmlns:xlink="http://www.w3.org/1999/xlink">
<g id="graph0" class="graph" transform="scale(1 1) rotate(0) translate(4 159)">
<title>%3</title>
<polygon fill="white" stroke="none" points="-4,4 -4,-159 1148,-159 1148,4 -4,4"/>
<g id="clust1" class="cluster"><title>cluster_reading</title>
<polygon fill="none" stroke="black" points="8,-8 8,-147 914,-147 914,-8 8,-8"/>
</g>
<g id="clust2" class="cluster"><title>cluster_legend</title>
<path fill="none" stroke="black" d="M934,-19C934,-19 1124,-19 1124,-19 1130,-19 1136,-25 1136,-31 1136,-31 1136,-135 1136,-135 1136,-141 1130,-147 1124,-147 1124,-147 934,-147 934,-147 928,-147 922,-141 922,-135 922,-135 922,-31 922,-31 922,-25 928,-19 934,-19"/>
</g>
<!-- 031 -->
<g id="node1" class="node"><title>031</title>
<ellipse fill="#ff8a8a" stroke="#b43f3f" cx="816" cy="-121" rx="36.2938" ry="18"/>
<text text-anchor="middle" x="816" y="-117.3" font-family="Times,serif" font-size="14.00">031 (a)</text>
</g>
<!-- 013 -->
<g id="node2" class="node"><title>013</title>
<ellipse fill="#ff8a8a" stroke="#b43f3f" cx="779" cy="-34" rx="36.2938" ry="18"/>
<text text-anchor="middle" x="779" y="-30.3" font-family="Times,serif" font-size="14.00">013 (a)</text>
</g>
<!-- 031&#45;&gt;013 -->
<g id="edge1" class="edge"><title>031&#45;&gt;013</title>
<path fill="none" stroke="#b43f3f" stroke-dasharray="1,5" d="M803.281,-103.968C799.214,-98.2388 794.995,-91.5699 792,-85 788.726,-77.8182 786.167,-69.6657 784.218,-62.0584"/>
<polygon fill="#b43f3f" stroke="#b43f3f" points="787.593,-61.1187 781.928,-52.1653 780.773,-62.6969 787.593,-61.1187"/>
<text text-anchor="middle" x="814" y="-73.8" font-family="Times,serif" font-size="14.00">1 (97.1)</text>
</g>
<!-- 017 -->
<g id="node3" class="node"><title>017</title>
<ellipse fill="#ff8a8a" stroke="#b43f3f" cx="870" cy="-34" rx="36.2938" ry="18"/>
<text text-anchor="middle" x="870" y="-30.3" font-family="Times,serif" font-size="14.00">017 (a)</text>
</g>
<!-- 031&#45;&gt;017 -->
<g id="edge2" class="edge"><title>031&#45;&gt;017</title>
<path fill="none" stroke="#b43f3f" stroke-dasharray="1,5" d="M826.412,-103.611C834.256,-91.2642 845.149,-74.1167 854.084,-60.0534"/>
<polygon fill="#b43f3f" stroke="#b43f3f" points="857.212,-61.6561 859.62,-51.3385 851.304,-57.9024 857.212,-61.6561"/>
<text text-anchor="middle" x="869" y="-73.8" font-family="Times,serif" font-size="14.00">1 (94.3)</text>
</g>
<!-- 07 -->
<g id="node4" class="node"><title>07</title>
<ellipse fill="#ff8a8a" stroke="#b43f3f" cx="548" cy="-121" rx="31.6951" ry="18"/>
<text text-anchor="middle" x="548" y="-117.3" font-family="Times,serif" font-size="14.00">07 (a)</text>
</g>
<!-- 0211 -->
<g id="node5" class="node"><title>0211</title>
<ellipse fill="#ff8a8a" stroke="#b43f3f" cx="411" cy="-34" rx="40.0939" ry="18"/>
<text text-anchor="middle" x="411" y="-30.3" font-family="Times,serif" font-size="14.00">0211 (a)</text>
</g>
<!-- 07&#45;&gt;0211 -->
<g id="edge3" class="edge"><title>07&#45;&gt;0211</title>
<path fill="none" stroke="#b43f3f" stroke-dasharray="1,5" d="M521.024,-111.088C504.459,-104.997 483.195,-96.0363 466,-85 454.174,-77.4099 442.458,-67.2304 432.897,-58.0377"/>
<polygon fill="#b43f3f" stroke="#b43f3f" points="435.301,-55.492 425.731,-50.9451 430.377,-60.4673 435.301,-55.492"/>
<text text-anchor="middle" x="488" y="-73.8" font-family="Times,serif" font-size="14.00">2 (82.9)</text>
</g>
<!-- 037 -->
<g id="node6" class="node"><title>037</title>
<ellipse fill="#ff8a8a" stroke="#b43f3f" cx="506" cy="-34" rx="36.2938" ry="18"/>
<text text-anchor="middle" x="506" y="-30.3" font-family="Times,serif" font-size="14.00">037 (a)</text>
</g>
<!-- 07&#45;&gt;037 -->
<g id="edge4" class="edge"><title>07&#45;&gt;037</title>
<path fill="none" stroke="#b43f3f" stroke-dasharray="1,5" d="M533.125,-105.02C528.017,-99.1764 522.668,-92.1647 519,-85 515.403,-77.9743 512.743,-69.8705 510.801,-62.2601"/>
<polygon fill="#b43f3f" stroke="#b43f3f" points="514.179,-61.3279 508.576,-52.3355 507.348,-62.859 514.179,-61.3279"/>
<text text-anchor="middle" x="541" y="-73.8" font-family="Times,serif" font-size="14.00">1 (97.5)</text>
</g>
<!-- 034 -->
<g id="node7" class="node"><title>034</title>
<ellipse fill="#ff8a8a" stroke="#b43f3f" cx="597" cy="-34" rx="36.2938" ry="18"/>
<text text-anchor="middle" x="597" y="-30.3" font-family="Times,serif" font-size="14.00">034 (a)</text>
</g>
<!-- 07&#45;&gt;034 -->
<g id="edge5" class="edge"><title>07&#45;&gt;034</title>
<path fill="none" stroke="#b43f3f" stroke-dasharray="1,5" d="M557.448,-103.611C564.52,-91.3433 574.324,-74.3364 582.401,-60.3242"/>
<polygon fill="#b43f3f" stroke="#b43f3f" points="585.452,-62.0401 587.414,-51.6286 579.388,-58.5441 585.452,-62.0401"/>
<text text-anchor="middle" x="598" y="-73.8" font-family="Times,serif" font-size="14.00">1 (95.1)</text>
</g>
<!-- 030 -->
<g id="node8" class="node"><title>030</title>
<ellipse fill="#ff8a8a" stroke="#b43f3f" cx="688" cy="-34" rx="36.2938" ry="18"/>
<text text-anchor="middle" x="688" y="-30.3" font-family="Times,serif" font-size="14.00">030 (a)</text>
</g>
<!-- 07&#45;&gt;030 -->
<g id="edge6" class="edge"><title>07&#45;&gt;030</title>
<path fill="none" stroke="#b43f3f" stroke-dasharray="1,5" d="M573.391,-110.053C588.529,-103.701 607.875,-94.8285 624,-85 637.564,-76.7328 651.583,-66.059 663.031,-56.6977"/>
<polygon fill="#b43f3f" stroke="#b43f3f" points="665.428,-59.2569 670.869,-50.1663 660.946,-53.8792 665.428,-59.2569"/>
<text text-anchor="middle" x="667" y="-73.8" font-family="Times,serif" font-size="14.00">1 (95.1)</text>
</g>
<!-- 045 -->
<g id="node9" class="node"><title>045</title>
<ellipse fill="#ff8a8a" stroke="#b43f3f" cx="424" cy="-121" rx="36.2938" ry="18"/>
<text text-anchor="middle" x="424" y="-117.3" font-family="Times,serif" font-size="14.00">045 (a)</text>
</g>
<!-- 038 -->
<g id="node10" class="node"><title>038</title>
<ellipse fill="#ff8a8a" stroke="#b43f3f" cx="316" cy="-34" rx="36.2938" ry="18"/>
<text text-anchor="middle" x="316" y="-30.3" font-family="Times,serif" font-size="14.00">038 (a)</text>
</g>
<!-- 045&#45;&gt;038 -->
<g id="edge7" class="edge"><title>045&#45;&gt;038</title>
<path fill="none" stroke="#b43f3f" stroke-dasharray="1,5" d="M398.733,-108.04C387.018,-101.931 373.234,-93.9093 362,-85 352.377,-77.3685 342.972,-67.6732 335.2,-58.8556"/>
<polygon fill="#b43f3f" stroke="#b43f3f" points="337.719,-56.4165 328.561,-51.0888 332.398,-60.9646 337.719,-56.4165"/>
<text text-anchor="middle" x="384" y="-73.8" font-family="Times,serif" font-size="14.00">1 (92.7)</text>
</g>
<!-- 021 -->
<g id="node11" class="node"><title>021</title>
<ellipse fill="#ff8a8a" stroke="#b43f3f" cx="333" cy="-121" rx="36.2938" ry="18"/>
<text text-anchor="middle" x="333" y="-117.3" font-family="Times,serif" font-size="14.00">021 (a)</text>
</g>
<!-- 036 -->
<g id="node12" class="node"><title>036</title>
<ellipse fill="#ff8a8a" stroke="#b43f3f" cx="134" cy="-34" rx="36.2938" ry="18"/>
<text text-anchor="middle" x="134" y="-30.3" font-family="Times,serif" font-size="14.00">036 (a)</text>
</g>
<!-- 021&#45;&gt;036 -->
<g id="edge8" class="edge"><title>021&#45;&gt;036</title>
<path fill="none" stroke="#b43f3f" stroke-dasharray="1,5" d="M304.893,-109.251C299.008,-107.102 292.822,-104.918 287,-103 259.748,-94.021 251.512,-95.9749 225,-85 204.201,-76.39 182.041,-64.2827 164.796,-54.1387"/>
<polygon fill="#b43f3f" stroke="#b43f3f" points="166.141,-50.865 155.761,-48.7398 162.55,-56.8739 166.141,-50.865"/>
<text text-anchor="middle" x="247" y="-73.8" font-family="Times,serif" font-size="14.00">1 (97.6)</text>
</g>
<!-- 047 -->
<g id="node13" class="node"><title>047</title>
<ellipse fill="#ff8a8a" stroke="#b43f3f" cx="225" cy="-34" rx="36.2938" ry="18"/>
<text text-anchor="middle" x="225" y="-30.3" font-family="Times,serif" font-size="14.00">047 (a)</text>
</g>
<!-- 021&#45;&gt;047 -->
<g id="edge9" class="edge"><title>021&#45;&gt;047</title>
<path fill="none" stroke="#b43f3f" stroke-dasharray="1,5" d="M314.188,-105.194C296.843,-91.5431 270.919,-71.1403 251.485,-55.8443"/>
<polygon fill="#b43f3f" stroke="#b43f3f" points="253.619,-53.0705 243.597,-49.6362 249.29,-58.5712 253.619,-53.0705"/>
<text text-anchor="middle" x="308" y="-73.8" font-family="Times,serif" font-size="14.00">1 (95.1)</text>
</g>
<!-- 0141 -->
<g id="node14" class="node"><title>0141</title>
<ellipse fill="#ff8a8a" stroke="#b43f3f" cx="238" cy="-121" rx="40.0939" ry="18"/>
<text text-anchor="middle" x="238" y="-117.3" font-family="Times,serif" font-size="14.00">0141 (a)</text>
</g>
<!-- 02 -->
<g id="node15" class="node"><title>02</title>
<ellipse fill="#ff8a8a" stroke="#b43f3f" cx="48" cy="-34" rx="31.6951" ry="18"/>
<text text-anchor="middle" x="48" y="-30.3" font-family="Times,serif" font-size="14.00">02 (a)</text>
</g>
<!-- 0141&#45;&gt;02 -->
<g id="edge10" class="edge"><title>0141&#45;&gt;02</title>
<path fill="none" stroke="#b43f3f" stroke-dasharray="1,5" d="M207.806,-108.953C201.324,-106.802 194.476,-104.692 188,-103 145.578,-91.9139 129.008,-106.863 91,-85 80.3623,-78.881 71.0943,-69.1205 63.9139,-59.8407"/>
<polygon fill="#b43f3f" stroke="#b43f3f" points="66.6265,-57.6191 57.9271,-51.5717 60.9566,-61.7242 66.6265,-57.6191"/>
<text text-anchor="middle" x="113" y="-73.8" font-family="Times,serif" font-size="14.00">1 (86.5)</text>
</g>
<!-- 011 -->
<g id="node16" class="node"><title>011</title>
<ellipse fill="#ff8a8a" stroke="#b43f3f" cx="143" cy="-121" rx="36.2938" ry="18"/>
<text text-anchor="middle" x="143" y="-117.3" font-family="Times,serif" font-size="14.00">011 (a)</text>
</g>
<!-- 028 -->
<g id="node17" class="node"><title>028</title>
<ellipse fill="#ff8a8a" stroke="#b43f3f" cx="52" cy="-121" rx="36.2938" ry="18"/>
<text text-anchor="middle" x="52" y="-117.3" font-family="Times,serif" font-size="14.00">028 (a)</text>
</g>
<!-- leg_s -->
<g id="node18" class="node"><title>leg_s</title>
<text text-anchor="middle" x="1029" y="-117.3" font-family="Times,serif" font-size="14.00">Textual flow strength</text>
</g>
<!-- leg_e1 -->
<!-- leg_s&#45;&gt;leg_e1 -->
<g id="edge11" class="edge"><title>leg_s&#45;&gt;leg_e1</title>
<path fill="none" stroke="black" stroke-dasharray="1,5" d="M1010.67,-102.686C1005.13,-97.1938 999.161,-90.9891 994,-85 984.171,-73.593 974.072,-59.7786 966.914,-49.5634"/>
<polygon fill="black" stroke="black" points="969.614,-47.3142 961.056,-41.0685 963.851,-51.2879 969.614,-47.3142"/>
<text text-anchor="middle" x="1009.5" y="-73.8" font-family="Times,serif" font-size="14.00">&lt;=5 &#160;</text>
</g>
<!-- leg_e2 -->
<!-- leg_s&#45;&gt;leg_e2 -->
<g id="edge12" class="edge"><title>leg_s&#45;&gt;leg_e2</title>
<path fill="none" stroke="black" stroke-dasharray="5,2" d="M1029,-102.799C1029,-87.7942 1029,-66.1745 1029,-51.4086"/>
<polygon fill="black" stroke="black" points="1032.5,-51.2934 1029,-41.2934 1025.5,-51.2934 1032.5,-51.2934"/>
<text text-anchor="middle" x="1048" y="-73.8" font-family="Times,serif" font-size="14.00"> &#160;&lt;=25</text>
</g>
<!-- leg_e3 -->
<!-- leg_s&#45;&gt;leg_e3 -->
<g id="edge13" class="edge"><title>leg_s&#45;&gt;leg_e3</title>
<path fill="none" stroke="black" d="M1052.5,-102.76C1058.91,-97.4621 1065.57,-91.3439 1071,-85 1080.09,-74.3897 1088.1,-60.6892 1093.55,-50.3134"/>
<polygon fill="black" stroke="black" points="1096.72,-51.7893 1098.09,-41.2833 1090.47,-48.6425 1096.72,-51.7893"/>
<text text-anchor="middle" x="1092" y="-73.8" font-family="Times,serif" font-size="14.00">&gt;25</text>
</g>
</g>
</svg>
