<?xml version="1.0" encoding="UTF-8" standalone="no"?>
<!DOCTYPE svg PUBLIC "-//W3C//DTD SVG 1.1//EN"
 "http://www.w3.org/Graphics/SVG/1.1/DTD/svg11.dtd">
<!-- Generated by graphviz version 2.38.0 (20140413.2041)
 -->
<!-- Title: %3 Pages: 1 -->
<svg width="1153pt" height="337pt"
 viewBox="0.00 0.00 1153.00 337.00" xmlns="http://www.w3.org/2000/svg" xmlns:xlink="http://www.w3.org/1999/xlink">
<g id="graph0" class="graph" transform="scale(1 1) rotate(0) translate(4 333)">
<title>%3</title>
<polygon fill="white" stroke="none" points="-4,4 -4,-333 1149,-333 1149,4 -4,4"/>
<g id="clust1" class="cluster"><title>cluster_reading</title>
<polygon fill="none" stroke="black" points="8,-8 8,-234 915,-234 915,-8 8,-8"/>
</g>
<g id="clust2" class="cluster"><title>cluster_legend</title>
<path fill="none" stroke="black" d="M935,-193C935,-193 1125,-193 1125,-193 1131,-193 1137,-199 1137,-205 1137,-205 1137,-309 1137,-309 1137,-315 1131,-321 1125,-321 1125,-321 935,-321 935,-321 929,-321 923,-315 923,-309 923,-309 923,-205 923,-205 923,-199 929,-193 935,-193"/>
</g>
<!-- 021 -->
<g id="node1" class="node"><title>021</title>
<ellipse fill="#cea8f4" stroke="#835da9" cx="143" cy="-121" rx="36.2938" ry="18"/>
<text text-anchor="middle" x="143" y="-117.3" font-family="Times,serif" font-size="14.00">021 (b)</text>
</g>
<!-- 036 -->
<g id="node2" class="node"><title>036</title>
<ellipse fill="#cea8f4" stroke="#835da9" cx="143" cy="-34" rx="36.2938" ry="18"/>
<text text-anchor="middle" x="143" y="-30.3" font-family="Times,serif" font-size="14.00">036 (b)</text>
</g>
<!-- 021&#45;&gt;036 -->
<g id="edge1" class="edge"><title>021&#45;&gt;036</title>
<path fill="none" stroke="#835da9" stroke-dasharray="1,5" d="M143,-102.799C143,-91.1626 143,-75.5479 143,-62.2368"/>
<polygon fill="#835da9" stroke="#835da9" points="146.5,-62.1754 143,-52.1754 139.5,-62.1755 146.5,-62.1754"/>
<text text-anchor="middle" x="165" y="-73.8" font-family="Times,serif" font-size="14.00">1 (97.6)</text>
</g>
<!-- 047 -->
<g id="node3" class="node"><title>047</title>
<ellipse fill="#cea8f4" stroke="#835da9" cx="52" cy="-34" rx="36.2938" ry="18"/>
<text text-anchor="middle" x="52" y="-30.3" font-family="Times,serif" font-size="14.00">047 (b)</text>
</g>
<!-- 021&#45;&gt;047 -->
<g id="edge2" class="edge"><title>021&#45;&gt;047</title>
<path fill="none" stroke="#835da9" stroke-dasharray="1,5" d="M121.628,-106.006C113.008,-99.9634 103.186,-92.5539 95,-85 86.4559,-77.1154 77.9243,-67.6186 70.7396,-59.0293"/>
<polygon fill="#835da9" stroke="#835da9" points="73.3442,-56.6853 64.3075,-51.1545 67.9228,-61.1135 73.3442,-56.6853"/>
<text text-anchor="middle" x="117" y="-73.8" font-family="Times,serif" font-size="14.00">1 (95.1)</text>
</g>
<!-- 063 -->
<g id="node4" class="node"><title>063</title>
<ellipse fill="#cea8f4" stroke="#835da9" cx="466" cy="-208" rx="36.2938" ry="18"/>
<text text-anchor="middle" x="466" y="-204.3" font-family="Times,serif" font-size="14.00">063 (b)</text>
</g>
<!-- 063&#45;&gt;021 -->
<g id="edge3" class="edge"><title>063&#45;&gt;021</title>
<path fill="none" stroke="#835da9" stroke-dasharray="1,5" d="M434.736,-198.773C376.126,-183.349 249.756,-150.094 184.252,-132.856"/>
<polygon fill="#835da9" stroke="#835da9" points="184.843,-129.392 174.281,-130.232 183.061,-136.162 184.843,-129.392"/>
<text text-anchor="middle" x="346" y="-160.8" font-family="Times,serif" font-size="14.00">1 (93.1)</text>
</g>
<!-- 011 -->
<g id="node5" class="node"><title>011</title>
<ellipse fill="#cea8f4" stroke="#835da9" cx="379" cy="-121" rx="36.2938" ry="18"/>
<text text-anchor="middle" x="379" y="-117.3" font-family="Times,serif" font-size="14.00">011 (b)</text>
</g>
<!-- 063&#45;&gt;011 -->
<g id="edge4" class="edge"><title>063&#45;&gt;011</title>
<path fill="none" stroke="#835da9" stroke-dasharray="1,5" d="M444.445,-193.2C435.796,-187.187 426.003,-179.748 418,-172 410.051,-164.304 402.333,-154.945 395.889,-146.414"/>
<polygon fill="#835da9" stroke="#835da9" points="398.642,-144.25 389.909,-138.252 392.996,-148.388 398.642,-144.25"/>
<text text-anchor="middle" x="440" y="-160.8" font-family="Times,serif" font-size="14.00">1 (93.1)</text>
</g>
<!-- 07 -->
<g id="node6" class="node"><title>07</title>
<ellipse fill="#cea8f4" stroke="#835da9" cx="466" cy="-121" rx="32.4942" ry="18"/>
<text text-anchor="middle" x="466" y="-117.3" font-family="Times,serif" font-size="14.00">07 (b)</text>
</g>
<!-- 063&#45;&gt;07 -->
<g id="edge5" class="edge"><title>063&#45;&gt;07</title>
<path fill="none" stroke="#835da9" stroke-dasharray="1,5" d="M466,-189.799C466,-178.163 466,-162.548 466,-149.237"/>
<polygon fill="#835da9" stroke="#835da9" points="469.5,-149.175 466,-139.175 462.5,-149.175 469.5,-149.175"/>
<text text-anchor="middle" x="488" y="-160.8" font-family="Times,serif" font-size="14.00">1 (96.6)</text>
</g>
<!-- 045 -->
<g id="node7" class="node"><title>045</title>
<ellipse fill="#cea8f4" stroke="#835da9" cx="553" cy="-121" rx="36.2938" ry="18"/>
<text text-anchor="middle" x="553" y="-117.3" font-family="Times,serif" font-size="14.00">045 (b)</text>
</g>
<!-- 063&#45;&gt;045 -->
<g id="edge6" class="edge"><title>063&#45;&gt;045</title>
<path fill="none" stroke="#835da9" stroke-dasharray="1,5" d="M487.555,-193.2C496.204,-187.187 505.997,-179.748 514,-172 521.949,-164.304 529.667,-154.945 536.111,-146.414"/>
<polygon fill="#835da9" stroke="#835da9" points="539.004,-148.388 542.091,-138.252 533.358,-144.25 539.004,-148.388"/>
<text text-anchor="middle" x="549" y="-160.8" font-family="Times,serif" font-size="14.00">1 (93.1)</text>
</g>
<!-- 028 -->
<g id="node8" class="node"><title>028</title>
<ellipse fill="#cea8f4" stroke="#835da9" cx="644" cy="-121" rx="36.2938" ry="18"/>
<text text-anchor="middle" x="644" y="-117.3" font-family="Times,serif" font-size="14.00">028 (b)</text>
</g>
<!-- 063&#45;&gt;028 -->
<g id="edge7" class="edge"><title>063&#45;&gt;028</title>
<path fill="none" stroke="#835da9" stroke-dasharray="1,5" d="M498.531,-199.447C520.77,-193.597 550.532,-184.394 575,-172 590.333,-164.233 605.961,-153.217 618.458,-143.501"/>
<polygon fill="#835da9" stroke="#835da9" points="620.929,-146.007 626.568,-137.038 616.566,-140.533 620.929,-146.007"/>
<text text-anchor="middle" x="622" y="-160.8" font-family="Times,serif" font-size="14.00">1 (96.6)</text>
</g>
<!-- 030 -->
<g id="node9" class="node"><title>030</title>
<ellipse fill="#cea8f4" stroke="#835da9" cx="515" cy="-34" rx="36.2938" ry="18"/>
<text text-anchor="middle" x="515" y="-30.3" font-family="Times,serif" font-size="14.00">030 (b)</text>
</g>
<!-- 07&#45;&gt;030 -->
<g id="edge8" class="edge"><title>07&#45;&gt;030</title>
<path fill="none" stroke="#835da9" stroke-dasharray="1,5" d="M475.448,-103.611C482.52,-91.3433 492.324,-74.3364 500.401,-60.3242"/>
<polygon fill="#835da9" stroke="#835da9" points="503.452,-62.0401 505.414,-51.6286 497.388,-58.5441 503.452,-62.0401"/>
<text text-anchor="middle" x="516" y="-73.8" font-family="Times,serif" font-size="14.00">1 (95.1)</text>
</g>
<!-- 017 -->
<g id="node10" class="node"><title>017</title>
<ellipse fill="#cea8f4" stroke="#835da9" cx="606" cy="-34" rx="36.2938" ry="18"/>
<text text-anchor="middle" x="606" y="-30.3" font-family="Times,serif" font-size="14.00">017 (b)</text>
</g>
<!-- 07&#45;&gt;017 -->
<g id="edge9" class="edge"><title>07&#45;&gt;017</title>
<path fill="none" stroke="#835da9" stroke-dasharray="1,5" d="M491.741,-109.906C506.826,-103.564 525.999,-94.7529 542,-85 555.564,-76.7328 569.583,-66.059 581.031,-56.6977"/>
<polygon fill="#835da9" stroke="#835da9" points="583.428,-59.2569 588.869,-50.1663 578.946,-53.8792 583.428,-59.2569"/>
<text text-anchor="middle" x="585" y="-73.8" font-family="Times,serif" font-size="14.00">2 (92.7)</text>
</g>
<!-- 013 -->
<g id="node11" class="node"><title>013</title>
<ellipse fill="#cea8f4" stroke="#835da9" cx="697" cy="-34" rx="36.2938" ry="18"/>
<text text-anchor="middle" x="697" y="-30.3" font-family="Times,serif" font-size="14.00">013 (b)</text>
</g>
<!-- 07&#45;&gt;013 -->
<g id="edge10" class="edge"><title>07&#45;&gt;013</title>
<path fill="none" stroke="#835da9" stroke-dasharray="1,5" d="M490.568,-109.046C496.216,-106.812 502.252,-104.645 508,-103 552.677,-90.2106 567.343,-100.927 611,-85 631.397,-77.5586 652.501,-65.3675 668.699,-54.8865"/>
<polygon fill="#835da9" stroke="#835da9" points="670.755,-57.7226 677.157,-49.2806 666.888,-51.8878 670.755,-57.7226"/>
<text text-anchor="middle" x="666" y="-73.8" font-family="Times,serif" font-size="14.00">2 (95.1)</text>
</g>
<!-- 034 -->
<g id="node12" class="node"><title>034</title>
<ellipse fill="#cea8f4" stroke="#835da9" cx="234" cy="-34" rx="36.2938" ry="18"/>
<text text-anchor="middle" x="234" y="-30.3" font-family="Times,serif" font-size="14.00">034 (b)</text>
</g>
<!-- 07&#45;&gt;034 -->
<g id="edge11" class="edge"><title>07&#45;&gt;034</title>
<path fill="none" stroke="#835da9" stroke-dasharray="1,5" d="M441.445,-108.999C435.797,-106.768 429.756,-104.614 424,-103 376.301,-89.624 360.357,-102.47 314,-85 295.039,-77.8542 275.72,-65.9374 260.818,-55.53"/>
<polygon fill="#835da9" stroke="#835da9" points="262.755,-52.6121 252.59,-49.6241 258.673,-58.2988 262.755,-52.6121"/>
<text text-anchor="middle" x="336" y="-73.8" font-family="Times,serif" font-size="14.00">1 (95.1)</text>
</g>
<!-- 037 -->
<g id="node13" class="node"><title>037</title>
<ellipse fill="#cea8f4" stroke="#835da9" cx="325" cy="-34" rx="36.2938" ry="18"/>
<text text-anchor="middle" x="325" y="-30.3" font-family="Times,serif" font-size="14.00">037 (b)</text>
</g>
<!-- 07&#45;&gt;037 -->
<g id="edge12" class="edge"><title>07&#45;&gt;037</title>
<path fill="none" stroke="#835da9" stroke-dasharray="1,5" d="M440.589,-109.656C416.044,-99.6459 382.369,-85.8579 381,-85 368.799,-77.3553 356.7,-66.9978 346.888,-57.6923"/>
<polygon fill="#835da9" stroke="#835da9" points="349.15,-55.0093 339.55,-50.527 344.259,-60.0176 349.15,-55.0093"/>
<text text-anchor="middle" x="403" y="-73.8" font-family="Times,serif" font-size="14.00">1 (97.5)</text>
</g>
<!-- 0211 -->
<g id="node14" class="node"><title>0211</title>
<ellipse fill="#cea8f4" stroke="#835da9" cx="420" cy="-34" rx="40.8928" ry="18"/>
<text text-anchor="middle" x="420" y="-30.3" font-family="Times,serif" font-size="14.00">0211 (b)</text>
</g>
<!-- 07&#45;&gt;0211 -->
<g id="edge13" class="edge"><title>07&#45;&gt;0211</title>
<path fill="none" stroke="#835da9" stroke-dasharray="1,5" d="M450.216,-105.094C444.768,-99.2589 439.029,-92.2333 435,-85 431.075,-77.9533 428.067,-69.7631 425.811,-62.076"/>
<polygon fill="#835da9" stroke="#835da9" points="429.195,-61.1802 423.267,-52.3991 422.425,-62.9604 429.195,-61.1802"/>
<text text-anchor="middle" x="457" y="-73.8" font-family="Times,serif" font-size="14.00">2 (82.9)</text>
</g>
<!-- 038 -->
<g id="node19" class="node"><title>038</title>
<ellipse fill="#cea8f4" stroke="#835da9" cx="788" cy="-34" rx="36.2938" ry="18"/>
<text text-anchor="middle" x="788" y="-30.3" font-family="Times,serif" font-size="14.00">038 (b)</text>
</g>
<!-- 045&#45;&gt;038 -->
<g id="edge17" class="edge"><title>045&#45;&gt;038</title>
<path fill="none" stroke="#835da9" stroke-dasharray="1,5" d="M580.491,-109.012C586.529,-106.832 592.932,-104.696 599,-103 639.546,-91.6654 652.249,-98.8683 692,-85 714.92,-77.0037 739.152,-64.3465 757.537,-53.768"/>
<polygon fill="#835da9" stroke="#835da9" points="759.464,-56.695 766.32,-48.6168 755.923,-50.6569 759.464,-56.695"/>
<text text-anchor="middle" x="747" y="-73.8" font-family="Times,serif" font-size="14.00">1 (92.7)</text>
</g>
<!-- 044 -->
<g id="node15" class="node"><title>044</title>
<ellipse fill="#cea8f4" stroke="#835da9" cx="777" cy="-208" rx="36.2938" ry="18"/>
<text text-anchor="middle" x="777" y="-204.3" font-family="Times,serif" font-size="14.00">044 (b)</text>
</g>
<!-- 0141 -->
<g id="node16" class="node"><title>0141</title>
<ellipse fill="#cea8f4" stroke="#835da9" cx="863" cy="-121" rx="40.8928" ry="18"/>
<text text-anchor="middle" x="863" y="-117.3" font-family="Times,serif" font-size="14.00">0141 (b)</text>
</g>
<!-- 044&#45;&gt;0141 -->
<g id="edge14" class="edge"><title>044&#45;&gt;0141</title>
<path fill="none" stroke="#835da9" stroke-dasharray="1,5" d="M797.055,-192.912C805.14,-186.855 814.345,-179.46 822,-172 829.959,-164.243 837.894,-155.009 844.633,-146.599"/>
<polygon fill="#835da9" stroke="#835da9" points="847.525,-148.582 850.93,-138.549 842.012,-144.269 847.525,-148.582"/>
<text text-anchor="middle" x="858" y="-160.8" font-family="Times,serif" font-size="14.00">1 (89.2)</text>
</g>
<!-- 022 -->
<g id="node17" class="node"><title>022</title>
<ellipse fill="#cea8f4" stroke="#835da9" cx="768" cy="-121" rx="36.2938" ry="18"/>
<text text-anchor="middle" x="768" y="-117.3" font-family="Times,serif" font-size="14.00">022 (b)</text>
</g>
<!-- 044&#45;&gt;022 -->
<g id="edge15" class="edge"><title>044&#45;&gt;022</title>
<path fill="none" stroke="#835da9" stroke-dasharray="1,5" d="M775.179,-189.799C773.947,-178.163 772.293,-162.548 770.884,-149.237"/>
<polygon fill="#835da9" stroke="#835da9" points="774.352,-148.751 769.819,-139.175 767.391,-149.488 774.352,-148.751"/>
<text text-anchor="middle" x="796" y="-160.8" font-family="Times,serif" font-size="14.00">1 (91.7)</text>
</g>
<!-- 02 -->
<g id="node18" class="node"><title>02</title>
<ellipse fill="#cea8f4" stroke="#835da9" cx="875" cy="-34" rx="32.4942" ry="18"/>
<text text-anchor="middle" x="875" y="-30.3" font-family="Times,serif" font-size="14.00">02 (b)</text>
</g>
<!-- 0141&#45;&gt;02 -->
<g id="edge16" class="edge"><title>0141&#45;&gt;02</title>
<path fill="none" stroke="#835da9" stroke-dasharray="1,5" d="M865.428,-102.799C867.071,-91.1626 869.276,-75.5479 871.155,-62.2368"/>
<polygon fill="#835da9" stroke="#835da9" points="874.643,-62.5665 872.575,-52.1754 867.712,-61.588 874.643,-62.5665"/>
<text text-anchor="middle" x="892" y="-73.8" font-family="Times,serif" font-size="14.00">1 (86.5)</text>
</g>
<!-- 032 -->
<g id="node20" class="node"><title>032</title>
<ellipse fill="#cea8f4" stroke="#835da9" cx="868" cy="-208" rx="36.2938" ry="18"/>
<text text-anchor="middle" x="868" y="-204.3" font-family="Times,serif" font-size="14.00">032 (b)</text>
</g>
<!-- leg_s -->
<g id="node21" class="node"><title>leg_s</title>
<text text-anchor="middle" x="1030" y="-291.3" font-family="Times,serif" font-size="14.00">Textual flow strength</text>
</g>
<!-- leg_e1 -->
<!-- leg_s&#45;&gt;leg_e1 -->
<g id="edge18" class="edge"><title>leg_s&#45;&gt;leg_e1</title>
<path fill="none" stroke="black" stroke-dasharray="1,5" d="M1011.67,-276.686C1006.13,-271.194 1000.16,-264.989 995,-259 985.171,-247.593 975.072,-233.779 967.914,-223.563"/>
<polygon fill="black" stroke="black" points="970.614,-221.314 962.056,-215.068 964.851,-225.288 970.614,-221.314"/>
<text text-anchor="middle" x="1010.5" y="-247.8" font-family="Times,serif" font-size="14.00">&lt;=5 &#160;</text>
</g>
<!-- leg_e2 -->
<!-- leg_s&#45;&gt;leg_e2 -->
<g id="edge19" class="edge"><title>leg_s&#45;&gt;leg_e2</title>
<path fill="none" stroke="black" stroke-dasharray="5,2" d="M1030,-276.799C1030,-261.794 1030,-240.174 1030,-225.409"/>
<polygon fill="black" stroke="black" points="1033.5,-225.293 1030,-215.293 1026.5,-225.293 1033.5,-225.293"/>
<text text-anchor="middle" x="1049" y="-247.8" font-family="Times,serif" font-size="14.00"> &#160;&lt;=25</text>
</g>
<!-- leg_e3 -->
<!-- leg_s&#45;&gt;leg_e3 -->
<g id="edge20" class="edge"><title>leg_s&#45;&gt;leg_e3</title>
<path fill="none" stroke="black" d="M1053.5,-276.76C1059.91,-271.462 1066.57,-265.344 1072,-259 1081.09,-248.39 1089.1,-234.689 1094.55,-224.313"/>
<polygon fill="black" stroke="black" points="1097.72,-225.789 1099.09,-215.283 1091.47,-222.642 1097.72,-225.789"/>
<text text-anchor="middle" x="1093" y="-247.8" font-family="Times,serif" font-size="14.00">&gt;25</text>
</g>
<!-- 019 -->
<g id="node25" class="node"><title>019</title>
<ellipse fill="#ff8a8a" stroke="#b43f3f" cx="466" cy="-295" rx="36.2938" ry="18"/>
<text text-anchor="middle" x="466" y="-291.3" font-family="Times,serif" font-size="14.00">019 (a)</text>
</g>
<!-- 019&#45;&gt;063 -->
<g id="edge21" class="edge"><title>019&#45;&gt;063</title>
<path fill="none" stroke="#835da9" stroke-dasharray="1,5" d="M466,-276.799C466,-265.163 466,-249.548 466,-236.237"/>
<polygon fill="#835da9" stroke="#835da9" points="469.5,-236.175 466,-226.175 462.5,-236.175 469.5,-236.175"/>
<text text-anchor="middle" x="488" y="-247.8" font-family="Times,serif" font-size="14.00">1 (85.7)</text>
</g>
<!-- 03 -->
<g id="node26" class="node"><title>03</title>
<ellipse fill="#ff8a8a" stroke="#b43f3f" cx="816" cy="-295" rx="31.6951" ry="18"/>
<text text-anchor="middle" x="816" y="-291.3" font-family="Times,serif" font-size="14.00">03 (a)</text>
</g>
<!-- 03&#45;&gt;044 -->
<g id="edge22" class="edge"><title>03&#45;&gt;044</title>
<path fill="none" stroke="#835da9" stroke-dasharray="1,5" d="M805.895,-277.548C802.546,-271.785 798.928,-265.202 796,-259 792.471,-251.527 789.1,-243.206 786.202,-235.531"/>
<polygon fill="#835da9" stroke="#835da9" points="789.416,-234.128 782.694,-225.939 782.842,-236.533 789.416,-234.128"/>
<text text-anchor="middle" x="818" y="-247.8" font-family="Times,serif" font-size="14.00">1 (89.2)</text>
</g>
<!-- 03&#45;&gt;032 -->
<g id="edge23" class="edge"><title>03&#45;&gt;032</title>
<path fill="none" stroke="#835da9" stroke-dasharray="1,5" d="M827.544,-277.822C831.6,-271.969 836.113,-265.259 840,-259 844.829,-251.225 849.804,-242.58 854.195,-234.696"/>
<polygon fill="#835da9" stroke="#835da9" points="857.288,-236.336 859.039,-225.887 851.154,-232.963 857.288,-236.336"/>
<text text-anchor="middle" x="871" y="-247.8" font-family="Times,serif" font-size="14.00">1 (91.7)</text>
</g>
</g>
</svg>
