<?xml version="1.0" encoding="UTF-8" standalone="no"?>
<!DOCTYPE svg PUBLIC "-//W3C//DTD SVG 1.1//EN"
 "http://www.w3.org/Graphics/SVG/1.1/DTD/svg11.dtd">
<!-- Generated by graphviz version 2.38.0 (20140413.2041)
 -->
<!-- Title: %3 Pages: 1 -->
<svg width="599pt" height="337pt"
 viewBox="0.00 0.00 599.00 337.00" xmlns="http://www.w3.org/2000/svg" xmlns:xlink="http://www.w3.org/1999/xlink">
<g id="graph0" class="graph" transform="scale(1 1) rotate(0) translate(4 333)">
<title>%3</title>
<polygon fill="white" stroke="none" points="-4,4 -4,-333 595,-333 595,4 -4,4"/>
<g id="clust1" class="cluster"><title>cluster_reading</title>
<polygon fill="none" stroke="black" points="8,-8 8,-321 361,-321 361,-8 8,-8"/>
</g>
<g id="clust2" class="cluster"><title>cluster_legend</title>
<path fill="none" stroke="black" d="M381,-193C381,-193 571,-193 571,-193 577,-193 583,-199 583,-205 583,-205 583,-309 583,-309 583,-315 577,-321 571,-321 571,-321 381,-321 381,-321 375,-321 369,-315 369,-309 369,-309 369,-205 369,-205 369,-199 375,-193 381,-193"/>
</g>
<!-- A -->
<g id="node1" class="node"><title>A</title>
<ellipse fill="#cea8f4" stroke="#835da9" cx="163" cy="-295" rx="29.795" ry="18"/>
<text text-anchor="middle" x="163" y="-291.3" font-family="Times,serif" font-size="14.00">A (b)</text>
</g>
<!-- P75 -->
<g id="node2" class="node"><title>P75</title>
<ellipse fill="#cea8f4" stroke="#835da9" cx="75" cy="-208" rx="37.0935" ry="18"/>
<text text-anchor="middle" x="75" y="-204.3" font-family="Times,serif" font-size="14.00">P75 (b)</text>
</g>
<!-- A&#45;&gt;P75 -->
<g id="edge1" class="edge"><title>A&#45;&gt;P75</title>
<path fill="none" stroke="#835da9" stroke-dasharray="1,5" d="M142.922,-281.141C133.945,-274.955 123.497,-267.126 115,-259 106.926,-251.279 99.0261,-241.914 92.4086,-233.386"/>
<polygon fill="#835da9" stroke="#835da9" points="95.074,-231.107 86.2595,-225.229 89.4843,-235.321 95.074,-231.107"/>
<text text-anchor="middle" x="137" y="-247.8" font-family="Times,serif" font-size="14.00">1 (93.3)</text>
</g>
<!-- 03 -->
<g id="node3" class="node"><title>03</title>
<ellipse fill="#cea8f4" stroke="#835da9" cx="163" cy="-208" rx="32.4942" ry="18"/>
<text text-anchor="middle" x="163" y="-204.3" font-family="Times,serif" font-size="14.00">03 (b)</text>
</g>
<!-- A&#45;&gt;03 -->
<g id="edge2" class="edge"><title>A&#45;&gt;03</title>
<path fill="none" stroke="#835da9" stroke-dasharray="1,5" d="M163,-276.799C163,-265.163 163,-249.548 163,-236.237"/>
<polygon fill="#835da9" stroke="#835da9" points="166.5,-236.175 163,-226.175 159.5,-236.175 166.5,-236.175"/>
<text text-anchor="middle" x="185" y="-247.8" font-family="Times,serif" font-size="14.00">1 (93.3)</text>
</g>
<!-- 019 -->
<g id="node4" class="node"><title>019</title>
<ellipse fill="#cea8f4" stroke="#835da9" cx="261" cy="-208" rx="36.2938" ry="18"/>
<text text-anchor="middle" x="261" y="-204.3" font-family="Times,serif" font-size="14.00">019 (b)</text>
</g>
<!-- A&#45;&gt;019 -->
<g id="edge3" class="edge"><title>A&#45;&gt;019</title>
<path fill="none" stroke="#835da9" stroke-dasharray="1,5" d="M182.209,-281.024C191.202,-274.693 201.909,-266.778 211,-259 220.668,-250.729 230.702,-240.96 239.223,-232.261"/>
<polygon fill="#835da9" stroke="#835da9" points="241.846,-234.583 246.273,-224.957 236.81,-229.721 241.846,-234.583"/>
<text text-anchor="middle" x="249" y="-247.8" font-family="Times,serif" font-size="14.00">1 (93.3)</text>
</g>
<!-- 044 -->
<g id="node5" class="node"><title>044</title>
<ellipse fill="#cea8f4" stroke="#835da9" cx="52" cy="-121" rx="36.2938" ry="18"/>
<text text-anchor="middle" x="52" y="-117.3" font-family="Times,serif" font-size="14.00">044 (b)</text>
</g>
<!-- 03&#45;&gt;044 -->
<g id="edge5" class="edge"><title>03&#45;&gt;044</title>
<path fill="none" stroke="#835da9" stroke-dasharray="1,5" d="M139.496,-195.4C127.766,-189.151 113.636,-180.904 102,-172 91.7449,-164.153 81.4757,-154.313 72.9354,-145.442"/>
<polygon fill="#835da9" stroke="#835da9" points="75.3162,-142.865 65.9191,-137.971 70.2136,-147.657 75.3162,-142.865"/>
<text text-anchor="middle" x="124" y="-160.8" font-family="Times,serif" font-size="14.00">1 (89.2)</text>
</g>
<!-- 02 -->
<g id="node7" class="node"><title>02</title>
<ellipse fill="#cea8f4" stroke="#835da9" cx="139" cy="-121" rx="32.4942" ry="18"/>
<text text-anchor="middle" x="139" y="-117.3" font-family="Times,serif" font-size="14.00">02 (b)</text>
</g>
<!-- 03&#45;&gt;02 -->
<g id="edge6" class="edge"><title>03&#45;&gt;02</title>
<path fill="none" stroke="#835da9" stroke-dasharray="1,5" d="M158.143,-189.799C154.803,-177.97 150.303,-162.03 146.504,-148.578"/>
<polygon fill="#835da9" stroke="#835da9" points="149.853,-147.558 143.768,-138.885 143.117,-149.46 149.853,-147.558"/>
<text text-anchor="middle" x="175" y="-160.8" font-family="Times,serif" font-size="14.00">1 (86.5)</text>
</g>
<!-- 032 -->
<g id="node8" class="node"><title>032</title>
<ellipse fill="#cea8f4" stroke="#835da9" cx="226" cy="-121" rx="36.2938" ry="18"/>
<text text-anchor="middle" x="226" y="-117.3" font-family="Times,serif" font-size="14.00">032 (b)</text>
</g>
<!-- 03&#45;&gt;032 -->
<g id="edge7" class="edge"><title>03&#45;&gt;032</title>
<path fill="none" stroke="#835da9" stroke-dasharray="1,5" d="M180.221,-192.284C186.567,-186.364 193.533,-179.232 199,-172 204.559,-164.647 209.657,-156 213.89,-147.984"/>
<polygon fill="#835da9" stroke="#835da9" points="217.054,-149.483 218.437,-138.979 210.805,-146.328 217.054,-149.483"/>
<text text-anchor="middle" x="231" y="-160.8" font-family="Times,serif" font-size="14.00">1 (91.7)</text>
</g>
<!-- 063 -->
<g id="node9" class="node"><title>063</title>
<ellipse fill="#cea8f4" stroke="#835da9" cx="317" cy="-121" rx="36.2938" ry="18"/>
<text text-anchor="middle" x="317" y="-117.3" font-family="Times,serif" font-size="14.00">063 (b)</text>
</g>
<!-- 019&#45;&gt;063 -->
<g id="edge8" class="edge"><title>019&#45;&gt;063</title>
<path fill="none" stroke="#835da9" stroke-dasharray="1,5" d="M271.797,-190.611C279.932,-178.264 291.229,-161.117 300.494,-147.053"/>
<polygon fill="#835da9" stroke="#835da9" points="303.657,-148.615 306.236,-138.339 297.811,-144.764 303.657,-148.615"/>
<text text-anchor="middle" x="315" y="-160.8" font-family="Times,serif" font-size="14.00">1 (85.7)</text>
</g>
<!-- 022 -->
<g id="node6" class="node"><title>022</title>
<ellipse fill="#cea8f4" stroke="#835da9" cx="52" cy="-34" rx="36.2938" ry="18"/>
<text text-anchor="middle" x="52" y="-30.3" font-family="Times,serif" font-size="14.00">022 (b)</text>
</g>
<!-- 044&#45;&gt;022 -->
<g id="edge4" class="edge"><title>044&#45;&gt;022</title>
<path fill="none" stroke="#835da9" stroke-dasharray="1,5" d="M52,-102.799C52,-91.1626 52,-75.5479 52,-62.2368"/>
<polygon fill="#835da9" stroke="#835da9" points="55.5001,-62.1754 52,-52.1754 48.5001,-62.1755 55.5001,-62.1754"/>
<text text-anchor="middle" x="74" y="-73.8" font-family="Times,serif" font-size="14.00">1 (91.7)</text>
</g>
<!-- leg_s -->
<g id="node10" class="node"><title>leg_s</title>
<text text-anchor="middle" x="476" y="-291.3" font-family="Times,serif" font-size="14.00">Textual flow strength</text>
</g>
<!-- leg_e1 -->
<!-- leg_s&#45;&gt;leg_e1 -->
<g id="edge9" class="edge"><title>leg_s&#45;&gt;leg_e1</title>
<path fill="none" stroke="black" stroke-dasharray="1,5" d="M457.666,-276.686C452.132,-271.194 446.161,-264.989 441,-259 431.171,-247.593 421.072,-233.779 413.914,-223.563"/>
<polygon fill="black" stroke="black" points="416.614,-221.314 408.056,-215.068 410.851,-225.288 416.614,-221.314"/>
<text text-anchor="middle" x="456.5" y="-247.8" font-family="Times,serif" font-size="14.00">&lt;=5 &#160;</text>
</g>
<!-- leg_e2 -->
<!-- leg_s&#45;&gt;leg_e2 -->
<g id="edge10" class="edge"><title>leg_s&#45;&gt;leg_e2</title>
<path fill="none" stroke="black" stroke-dasharray="5,2" d="M476,-276.799C476,-261.794 476,-240.174 476,-225.409"/>
<polygon fill="black" stroke="black" points="479.5,-225.293 476,-215.293 472.5,-225.293 479.5,-225.293"/>
<text text-anchor="middle" x="495" y="-247.8" font-family="Times,serif" font-size="14.00"> &#160;&lt;=25</text>
</g>
<!-- leg_e3 -->
<!-- leg_s&#45;&gt;leg_e3 -->
<g id="edge11" class="edge"><title>leg_s&#45;&gt;leg_e3</title>
<path fill="none" stroke="black" d="M499.503,-276.76C505.906,-271.462 512.567,-265.344 518,-259 527.087,-248.39 535.095,-234.689 540.546,-224.313"/>
<polygon fill="black" stroke="black" points="543.722,-225.789 545.091,-215.283 537.469,-222.642 543.722,-225.789"/>
<text text-anchor="middle" x="539" y="-247.8" font-family="Times,serif" font-size="14.00">&gt;25</text>
</g>
</g>
</svg>
