<?xml version="1.0" encoding="UTF-8" standalone="no"?>
<!DOCTYPE svg PUBLIC "-//W3C//DTD SVG 1.1//EN"
 "http://www.w3.org/Graphics/SVG/1.1/DTD/svg11.dtd">
<!-- Generated by graphviz version 2.38.0 (20140413.2041)
 -->
<!-- Title: %3 Pages: 1 -->
<svg width="599pt" height="337pt"
 viewBox="0.00 0.00 599.00 337.00" xmlns="http://www.w3.org/2000/svg" xmlns:xlink="http://www.w3.org/1999/xlink">
<g id="graph0" class="graph" transform="scale(1 1) rotate(0) translate(4 333)">
<title>%3</title>
<polygon fill="white" stroke="none" points="-4,4 -4,-333 595,-333 595,4 -4,4"/>
<g id="clust1" class="cluster"><title>cluster_reading</title>
<polygon fill="none" stroke="black" points="8,-8 8,-321 361,-321 361,-8 8,-8"/>
</g>
<g id="clust2" class="cluster"><title>cluster_legend</title>
<path fill="none" stroke="black" d="M381,-193C381,-193 571,-193 571,-193 577,-193 583,-199 583,-205 583,-205 583,-309 583,-309 583,-315 577,-321 571,-321 571,-321 381,-321 381,-321 375,-321 369,-315 369,-309 369,-309 369,-205 369,-205 369,-199 375,-193 381,-193"/>
</g>
<!-- 044 -->
<g id="node1" class="node"><title>044</title>
<ellipse fill="#cea8f4" stroke="#835da9" cx="143" cy="-121" rx="36.2938" ry="18"/>
<text text-anchor="middle" x="143" y="-117.3" font-family="Times,serif" font-size="14.00">044 (b)</text>
</g>
<!-- 022 -->
<g id="node2" class="node"><title>022</title>
<ellipse fill="#cea8f4" stroke="#835da9" cx="143" cy="-34" rx="36.2938" ry="18"/>
<text text-anchor="middle" x="143" y="-30.3" font-family="Times,serif" font-size="14.00">022 (b)</text>
</g>
<!-- 044&#45;&gt;022 -->
<g id="edge1" class="edge"><title>044&#45;&gt;022</title>
<path fill="none" stroke="#835da9" stroke-dasharray="1,5" d="M143,-102.799C143,-91.1626 143,-75.5479 143,-62.2368"/>
<polygon fill="#835da9" stroke="#835da9" points="146.5,-62.1754 143,-52.1754 139.5,-62.1755 146.5,-62.1754"/>
<text text-anchor="middle" x="165" y="-73.8" font-family="Times,serif" font-size="14.00">1 (91.7)</text>
</g>
<!-- A -->
<g id="node3" class="node"><title>A</title>
<ellipse fill="#cea8f4" stroke="#835da9" cx="144" cy="-295" rx="29.795" ry="18"/>
<text text-anchor="middle" x="144" y="-291.3" font-family="Times,serif" font-size="14.00">A (b)</text>
</g>
<!-- P75 -->
<g id="node4" class="node"><title>P75</title>
<ellipse fill="#cea8f4" stroke="#835da9" cx="53" cy="-208" rx="37.0935" ry="18"/>
<text text-anchor="middle" x="53" y="-204.3" font-family="Times,serif" font-size="14.00">P75 (b)</text>
</g>
<!-- A&#45;&gt;P75 -->
<g id="edge2" class="edge"><title>A&#45;&gt;P75</title>
<path fill="none" stroke="#835da9" stroke-dasharray="1,5" d="M124.523,-281.326C115.472,-275.06 104.792,-267.113 96,-259 87.4559,-251.115 78.9243,-241.619 71.7396,-233.029"/>
<polygon fill="#835da9" stroke="#835da9" points="74.3442,-230.685 65.3075,-225.155 68.9228,-235.113 74.3442,-230.685"/>
<text text-anchor="middle" x="118" y="-247.8" font-family="Times,serif" font-size="14.00">1 (93.3)</text>
</g>
<!-- 019 -->
<g id="node5" class="node"><title>019</title>
<ellipse fill="#cea8f4" stroke="#835da9" cx="144" cy="-208" rx="36.2938" ry="18"/>
<text text-anchor="middle" x="144" y="-204.3" font-family="Times,serif" font-size="14.00">019 (b)</text>
</g>
<!-- A&#45;&gt;019 -->
<g id="edge3" class="edge"><title>A&#45;&gt;019</title>
<path fill="none" stroke="#835da9" stroke-dasharray="1,5" d="M144,-276.799C144,-265.163 144,-249.548 144,-236.237"/>
<polygon fill="#835da9" stroke="#835da9" points="147.5,-236.175 144,-226.175 140.5,-236.175 147.5,-236.175"/>
<text text-anchor="middle" x="166" y="-247.8" font-family="Times,serif" font-size="14.00">1 (93.3)</text>
</g>
<!-- 03 -->
<g id="node6" class="node"><title>03</title>
<ellipse fill="#cea8f4" stroke="#835da9" cx="231" cy="-208" rx="32.4942" ry="18"/>
<text text-anchor="middle" x="231" y="-204.3" font-family="Times,serif" font-size="14.00">03 (b)</text>
</g>
<!-- A&#45;&gt;03 -->
<g id="edge4" class="edge"><title>A&#45;&gt;03</title>
<path fill="none" stroke="#835da9" stroke-dasharray="1,5" d="M164.125,-281.189C173.11,-275.013 183.553,-267.178 192,-259 199.949,-251.304 207.667,-241.945 214.111,-233.414"/>
<polygon fill="#835da9" stroke="#835da9" points="217.004,-235.388 220.091,-225.252 211.358,-231.25 217.004,-235.388"/>
<text text-anchor="middle" x="227" y="-247.8" font-family="Times,serif" font-size="14.00">1 (93.3)</text>
</g>
<!-- 063 -->
<g id="node7" class="node"><title>063</title>
<ellipse fill="#cea8f4" stroke="#835da9" cx="52" cy="-121" rx="36.2938" ry="18"/>
<text text-anchor="middle" x="52" y="-117.3" font-family="Times,serif" font-size="14.00">063 (b)</text>
</g>
<!-- 019&#45;&gt;063 -->
<g id="edge5" class="edge"><title>019&#45;&gt;063</title>
<path fill="none" stroke="#835da9" stroke-dasharray="1,5" d="M127.552,-191.804C113.25,-178.59 92.3386,-159.269 76.1396,-144.303"/>
<polygon fill="#835da9" stroke="#835da9" points="78.3357,-141.567 68.6155,-137.351 73.5854,-146.708 78.3357,-141.567"/>
<text text-anchor="middle" x="126" y="-160.8" font-family="Times,serif" font-size="14.00">1 (85.7)</text>
</g>
<!-- 03&#45;&gt;044 -->
<g id="edge6" class="edge"><title>03&#45;&gt;044</title>
<path fill="none" stroke="#835da9" stroke-dasharray="1,5" d="M210.448,-193.814C201.579,-187.68 191.348,-179.983 183,-172 174.926,-164.279 167.026,-154.914 160.409,-146.386"/>
<polygon fill="#835da9" stroke="#835da9" points="163.074,-144.107 154.26,-138.229 157.484,-148.321 163.074,-144.107"/>
<text text-anchor="middle" x="205" y="-160.8" font-family="Times,serif" font-size="14.00">1 (89.2)</text>
</g>
<!-- 02 -->
<g id="node8" class="node"><title>02</title>
<ellipse fill="#cea8f4" stroke="#835da9" cx="230" cy="-121" rx="32.4942" ry="18"/>
<text text-anchor="middle" x="230" y="-117.3" font-family="Times,serif" font-size="14.00">02 (b)</text>
</g>
<!-- 03&#45;&gt;02 -->
<g id="edge7" class="edge"><title>03&#45;&gt;02</title>
<path fill="none" stroke="#835da9" stroke-dasharray="1,5" d="M230.798,-189.799C230.661,-178.163 230.477,-162.548 230.32,-149.237"/>
<polygon fill="#835da9" stroke="#835da9" points="233.82,-149.134 230.202,-139.175 226.82,-149.216 233.82,-149.134"/>
<text text-anchor="middle" x="253" y="-160.8" font-family="Times,serif" font-size="14.00">1 (86.5)</text>
</g>
<!-- 032 -->
<g id="node9" class="node"><title>032</title>
<ellipse fill="#cea8f4" stroke="#835da9" cx="317" cy="-121" rx="36.2938" ry="18"/>
<text text-anchor="middle" x="317" y="-117.3" font-family="Times,serif" font-size="14.00">032 (b)</text>
</g>
<!-- 03&#45;&gt;032 -->
<g id="edge8" class="edge"><title>03&#45;&gt;032</title>
<path fill="none" stroke="#835da9" stroke-dasharray="1,5" d="M251.647,-193.912C260.533,-187.796 270.752,-180.086 279,-172 286.825,-164.329 294.362,-154.975 300.632,-146.442"/>
<polygon fill="#835da9" stroke="#835da9" points="303.497,-148.452 306.443,-138.275 297.794,-144.394 303.497,-148.452"/>
<text text-anchor="middle" x="314" y="-160.8" font-family="Times,serif" font-size="14.00">1 (91.7)</text>
</g>
<!-- leg_s -->
<g id="node10" class="node"><title>leg_s</title>
<text text-anchor="middle" x="476" y="-291.3" font-family="Times,serif" font-size="14.00">Textual flow strength</text>
</g>
<!-- leg_e1 -->
<!-- leg_s&#45;&gt;leg_e1 -->
<g id="edge9" class="edge"><title>leg_s&#45;&gt;leg_e1</title>
<path fill="none" stroke="black" stroke-dasharray="1,5" d="M457.666,-276.686C452.132,-271.194 446.161,-264.989 441,-259 431.171,-247.593 421.072,-233.779 413.914,-223.563"/>
<polygon fill="black" stroke="black" points="416.614,-221.314 408.056,-215.068 410.851,-225.288 416.614,-221.314"/>
<text text-anchor="middle" x="456.5" y="-247.8" font-family="Times,serif" font-size="14.00">&lt;=5 &#160;</text>
</g>
<!-- leg_e2 -->
<!-- leg_s&#45;&gt;leg_e2 -->
<g id="edge10" class="edge"><title>leg_s&#45;&gt;leg_e2</title>
<path fill="none" stroke="black" stroke-dasharray="5,2" d="M476,-276.799C476,-261.794 476,-240.174 476,-225.409"/>
<polygon fill="black" stroke="black" points="479.5,-225.293 476,-215.293 472.5,-225.293 479.5,-225.293"/>
<text text-anchor="middle" x="495" y="-247.8" font-family="Times,serif" font-size="14.00"> &#160;&lt;=25</text>
</g>
<!-- leg_e3 -->
<!-- leg_s&#45;&gt;leg_e3 -->
<g id="edge11" class="edge"><title>leg_s&#45;&gt;leg_e3</title>
<path fill="none" stroke="black" d="M499.503,-276.76C505.906,-271.462 512.567,-265.344 518,-259 527.087,-248.39 535.095,-234.689 540.546,-224.313"/>
<polygon fill="black" stroke="black" points="543.722,-225.789 545.091,-215.283 537.469,-222.642 543.722,-225.789"/>
<text text-anchor="middle" x="539" y="-247.8" font-family="Times,serif" font-size="14.00">&gt;25</text>
</g>
</g>
</svg>
