<?xml version="1.0" encoding="UTF-8" standalone="no"?>
<!DOCTYPE svg PUBLIC "-//W3C//DTD SVG 1.1//EN"
 "http://www.w3.org/Graphics/SVG/1.1/DTD/svg11.dtd">
<!-- Generated by graphviz version 2.38.0 (20140413.2041)
 -->
<!-- Title: %3 Pages: 1 -->
<svg width="971pt" height="408pt"
 viewBox="0.00 0.00 971.34 408.00" xmlns="http://www.w3.org/2000/svg" xmlns:xlink="http://www.w3.org/1999/xlink">
<g id="graph0" class="graph" transform="scale(1 1) rotate(0) translate(4 404)">
<title>%3</title>
<polygon fill="white" stroke="none" points="-4,4 -4,-404 967.344,-404 967.344,4 -4,4"/>
<g id="clust1" class="cluster"><title>cluster_legend</title>
<path fill="none" stroke="black" d="M332.847,-264C332.847,-264 522.847,-264 522.847,-264 528.847,-264 534.847,-270 534.847,-276 534.847,-276 534.847,-380 534.847,-380 534.847,-386 528.847,-392 522.847,-392 522.847,-392 332.847,-392 332.847,-392 326.847,-392 320.847,-386 320.847,-380 320.847,-380 320.847,-276 320.847,-276 320.847,-270 326.847,-264 332.847,-264"/>
</g>
<!-- leg_s -->
<g id="node1" class="node"><title>leg_s</title>
<text text-anchor="middle" x="427.847" y="-362.3" font-family="Times,serif" font-size="14.00">Textual flow strength</text>
</g>
<!-- leg_e1 -->
<!-- leg_s&#45;&gt;leg_e1 -->
<g id="edge1" class="edge"><title>leg_s&#45;&gt;leg_e1</title>
<path fill="none" stroke="black" stroke-dasharray="1,5" d="M409.513,-347.686C403.98,-342.194 398.008,-335.989 392.847,-330 383.018,-318.593 372.919,-304.779 365.761,-294.563"/>
<polygon fill="black" stroke="black" points="368.461,-292.314 359.903,-286.068 362.699,-296.288 368.461,-292.314"/>
<text text-anchor="middle" x="408.347" y="-318.8" font-family="Times,serif" font-size="14.00">&lt;=5 &#160;</text>
</g>
<!-- leg_e2 -->
<!-- leg_s&#45;&gt;leg_e2 -->
<g id="edge2" class="edge"><title>leg_s&#45;&gt;leg_e2</title>
<path fill="none" stroke="black" stroke-dasharray="5,2" d="M427.847,-347.799C427.847,-332.794 427.847,-311.174 427.847,-296.409"/>
<polygon fill="black" stroke="black" points="431.347,-296.293 427.847,-286.293 424.347,-296.293 431.347,-296.293"/>
<text text-anchor="middle" x="446.847" y="-318.8" font-family="Times,serif" font-size="14.00"> &#160;&lt;=25</text>
</g>
<!-- leg_e3 -->
<!-- leg_s&#45;&gt;leg_e3 -->
<g id="edge3" class="edge"><title>leg_s&#45;&gt;leg_e3</title>
<path fill="none" stroke="black" d="M451.351,-347.76C457.753,-342.462 464.414,-336.344 469.847,-330 478.935,-319.39 486.942,-305.689 492.394,-295.313"/>
<polygon fill="black" stroke="black" points="495.569,-296.789 496.938,-286.283 489.316,-293.642 495.569,-296.789"/>
<text text-anchor="middle" x="491.847" y="-318.8" font-family="Times,serif" font-size="14.00">&gt;25</text>
</g>
<!-- 031 -->
<g id="node5" class="node"><title>031</title>
<ellipse fill="#ff8a8a" stroke="#b43f3f" cx="117.847" cy="-105" rx="36.2938" ry="18"/>
<text text-anchor="middle" x="117.847" y="-101.3" font-family="Times,serif" font-size="14.00">031 (a)</text>
</g>
<!-- 01 -->
<g id="node6" class="node"><title>01</title>
<ellipse fill="#ff8a8a" stroke="#b43f3f" cx="31.8472" cy="-18" rx="31.6951" ry="18"/>
<text text-anchor="middle" x="31.8472" y="-14.3" font-family="Times,serif" font-size="14.00">01 (a)</text>
</g>
<!-- 031&#45;&gt;01 -->
<g id="edge4" class="edge"><title>031&#45;&gt;01</title>
<path fill="none" stroke="#b43f3f" stroke-dasharray="1,5" d="M96.2432,-90.2504C87.5868,-84.2452 77.801,-76.7976 69.8472,-69 62.0226,-61.3291 54.485,-51.9752 48.2151,-43.4419"/>
<polygon fill="#b43f3f" stroke="#b43f3f" points="51.0533,-41.3937 42.404,-35.2749 45.3498,-45.452 51.0533,-41.3937"/>
<text text-anchor="middle" x="91.8472" y="-57.8" font-family="Times,serif" font-size="14.00">2 (48.5)</text>
</g>
<!-- 013 -->
<g id="node7" class="node"><title>013</title>
<ellipse fill="#ff8a8a" stroke="#b43f3f" cx="117.847" cy="-18" rx="36.2938" ry="18"/>
<text text-anchor="middle" x="117.847" y="-14.3" font-family="Times,serif" font-size="14.00">013 (a)</text>
</g>
<!-- 031&#45;&gt;013 -->
<g id="edge5" class="edge"><title>031&#45;&gt;013</title>
<path fill="none" stroke="#b43f3f" stroke-dasharray="1,5" d="M117.847,-86.799C117.847,-75.1626 117.847,-59.5479 117.847,-46.2368"/>
<polygon fill="#b43f3f" stroke="#b43f3f" points="121.347,-46.1754 117.847,-36.1754 114.347,-46.1755 121.347,-46.1754"/>
<text text-anchor="middle" x="139.847" y="-57.8" font-family="Times,serif" font-size="14.00">1 (97.1)</text>
</g>
<!-- 017 -->
<g id="node8" class="node"><title>017</title>
<ellipse fill="#ff8a8a" stroke="#b43f3f" cx="208.847" cy="-18" rx="36.2938" ry="18"/>
<text text-anchor="middle" x="208.847" y="-14.3" font-family="Times,serif" font-size="14.00">017 (a)</text>
</g>
<!-- 031&#45;&gt;017 -->
<g id="edge6" class="edge"><title>031&#45;&gt;017</title>
<path fill="none" stroke="#b43f3f" stroke-dasharray="1,5" d="M139.219,-90.006C147.84,-83.9634 157.662,-76.5539 165.847,-69 174.391,-61.1154 182.923,-51.6186 190.108,-43.0293"/>
<polygon fill="#b43f3f" stroke="#b43f3f" points="192.924,-45.1135 196.54,-35.1545 187.503,-40.6853 192.924,-45.1135"/>
<text text-anchor="middle" x="201.847" y="-57.8" font-family="Times,serif" font-size="14.00">1 (94.3)</text>
</g>
<!-- 044 -->
<g id="node9" class="node"><title>044</title>
<ellipse fill="#ff8a8a" stroke="#b43f3f" cx="580.847" cy="-279" rx="36.2938" ry="18"/>
<text text-anchor="middle" x="580.847" y="-275.3" font-family="Times,serif" font-size="14.00">044 (a)</text>
</g>
<!-- 022 -->
<g id="node10" class="node"><title>022</title>
<ellipse fill="#ff8a8a" stroke="#b43f3f" cx="177.847" cy="-192" rx="36.2938" ry="18"/>
<text text-anchor="middle" x="177.847" y="-188.3" font-family="Times,serif" font-size="14.00">022 (a)</text>
</g>
<!-- 044&#45;&gt;022 -->
<g id="edge7" class="edge"><title>044&#45;&gt;022</title>
<path fill="none" stroke="#b43f3f" stroke-dasharray="1,5" d="M554.986,-266.328C549.728,-264.299 544.174,-262.396 538.847,-261 478.161,-245.1 460.621,-253.934 398.847,-243 335.779,-231.837 263.539,-214.648 219.305,-203.614"/>
<polygon fill="#b43f3f" stroke="#b43f3f" points="220.047,-200.192 209.496,-201.153 218.344,-206.981 220.047,-200.192"/>
<text text-anchor="middle" x="420.847" y="-231.8" font-family="Times,serif" font-size="14.00">1 (91.7)</text>
</g>
<!-- 07 -->
<g id="node11" class="node"><title>07</title>
<ellipse fill="#ff8a8a" stroke="#b43f3f" cx="398.847" cy="-192" rx="31.6951" ry="18"/>
<text text-anchor="middle" x="398.847" y="-188.3" font-family="Times,serif" font-size="14.00">07 (a)</text>
</g>
<!-- 044&#45;&gt;07 -->
<g id="edge8" class="edge"><title>044&#45;&gt;07</title>
<path fill="none" stroke="#b43f3f" stroke-dasharray="1,5" d="M553.917,-266.535C548.946,-264.58 543.77,-262.651 538.847,-261 509.613,-251.197 499.855,-255.896 471.847,-243 455.021,-235.253 437.85,-223.71 424.391,-213.667"/>
<polygon fill="#b43f3f" stroke="#b43f3f" points="426.192,-210.638 416.124,-207.338 421.937,-216.196 426.192,-210.638"/>
<text text-anchor="middle" x="493.847" y="-231.8" font-family="Times,serif" font-size="14.00">2 (83.8)</text>
</g>
<!-- 011 -->
<g id="node12" class="node"><title>011</title>
<ellipse fill="#ff8a8a" stroke="#b43f3f" cx="489.847" cy="-192" rx="36.2938" ry="18"/>
<text text-anchor="middle" x="489.847" y="-188.3" font-family="Times,serif" font-size="14.00">011 (a)</text>
</g>
<!-- 044&#45;&gt;011 -->
<g id="edge9" class="edge"><title>044&#45;&gt;011</title>
<path fill="none" stroke="#b43f3f" stroke-dasharray="1,5" d="M559.476,-264.006C550.855,-257.963 541.033,-250.554 532.847,-243 524.303,-235.115 515.771,-225.619 508.587,-217.029"/>
<polygon fill="#b43f3f" stroke="#b43f3f" points="511.191,-214.685 502.155,-209.155 505.77,-219.113 511.191,-214.685"/>
<text text-anchor="middle" x="554.847" y="-231.8" font-family="Times,serif" font-size="14.00">2 (86.5)</text>
</g>
<!-- 045 -->
<g id="node13" class="node"><title>045</title>
<ellipse fill="#ff8a8a" stroke="#b43f3f" cx="580.847" cy="-192" rx="36.2938" ry="18"/>
<text text-anchor="middle" x="580.847" y="-188.3" font-family="Times,serif" font-size="14.00">045 (a)</text>
</g>
<!-- 044&#45;&gt;045 -->
<g id="edge10" class="edge"><title>044&#45;&gt;045</title>
<path fill="none" stroke="#b43f3f" stroke-dasharray="1,5" d="M580.847,-260.799C580.847,-249.163 580.847,-233.548 580.847,-220.237"/>
<polygon fill="#b43f3f" stroke="#b43f3f" points="584.347,-220.175 580.847,-210.175 577.347,-220.175 584.347,-220.175"/>
<text text-anchor="middle" x="602.847" y="-231.8" font-family="Times,serif" font-size="14.00">2 (81.1)</text>
</g>
<!-- 021 -->
<g id="node14" class="node"><title>021</title>
<ellipse fill="#ff8a8a" stroke="#b43f3f" cx="671.847" cy="-192" rx="36.2938" ry="18"/>
<text text-anchor="middle" x="671.847" y="-188.3" font-family="Times,serif" font-size="14.00">021 (a)</text>
</g>
<!-- 044&#45;&gt;021 -->
<g id="edge11" class="edge"><title>044&#45;&gt;021</title>
<path fill="none" stroke="#b43f3f" stroke-dasharray="1,5" d="M602.219,-264.006C610.84,-257.963 620.662,-250.554 628.847,-243 637.391,-235.115 645.923,-225.619 653.108,-217.029"/>
<polygon fill="#b43f3f" stroke="#b43f3f" points="655.924,-219.113 659.54,-209.155 650.503,-214.685 655.924,-219.113"/>
<text text-anchor="middle" x="664.847" y="-231.8" font-family="Times,serif" font-size="14.00">2 (83.8)</text>
</g>
<!-- 028 -->
<g id="node15" class="node"><title>028</title>
<ellipse fill="#ff8a8a" stroke="#b43f3f" cx="762.847" cy="-192" rx="36.2938" ry="18"/>
<text text-anchor="middle" x="762.847" y="-188.3" font-family="Times,serif" font-size="14.00">028 (a)</text>
</g>
<!-- 044&#45;&gt;028 -->
<g id="edge12" class="edge"><title>044&#45;&gt;028</title>
<path fill="none" stroke="#b43f3f" stroke-dasharray="1,5" d="M608.312,-267.171C614.071,-265.028 620.131,-262.867 625.847,-261 654.342,-251.694 663.708,-255.729 690.847,-243 707.236,-235.313 723.938,-223.975 737.125,-214.039"/>
<polygon fill="#b43f3f" stroke="#b43f3f" points="739.473,-216.648 745.245,-207.764 735.192,-211.109 739.473,-216.648"/>
<text text-anchor="middle" x="738.847" y="-231.8" font-family="Times,serif" font-size="14.00">2 (81.1)</text>
</g>
<!-- 0141 -->
<g id="node16" class="node"><title>0141</title>
<ellipse fill="#ff8a8a" stroke="#b43f3f" cx="857.847" cy="-192" rx="40.0939" ry="18"/>
<text text-anchor="middle" x="857.847" y="-188.3" font-family="Times,serif" font-size="14.00">0141 (a)</text>
</g>
<!-- 044&#45;&gt;0141 -->
<g id="edge13" class="edge"><title>044&#45;&gt;0141</title>
<path fill="none" stroke="#b43f3f" stroke-dasharray="1,5" d="M607.65,-266.713C613.562,-264.552 619.852,-262.499 625.847,-261 686.281,-245.891 705.543,-262.065 764.847,-243 786.99,-235.881 810.03,-223.537 827.637,-212.895"/>
<polygon fill="#b43f3f" stroke="#b43f3f" points="829.656,-215.762 836.316,-207.522 825.971,-209.81 829.656,-215.762"/>
<text text-anchor="middle" x="821.847" y="-231.8" font-family="Times,serif" font-size="14.00">1 (89.2)</text>
</g>
<!-- 022&#45;&gt;031 -->
<g id="edge14" class="edge"><title>022&#45;&gt;031</title>
<path fill="none" stroke="#b43f3f" stroke-dasharray="1,5" d="M162.95,-175.529C157.599,-169.633 151.693,-162.713 146.847,-156 141.359,-148.397 136.014,-139.684 131.439,-131.683"/>
<polygon fill="#b43f3f" stroke="#b43f3f" points="134.377,-129.765 126.458,-122.727 128.26,-133.167 134.377,-129.765"/>
<text text-anchor="middle" x="168.847" y="-144.8" font-family="Times,serif" font-size="14.00">2 (86.7)</text>
</g>
<!-- 0211 -->
<g id="node20" class="node"><title>0211</title>
<ellipse fill="#ff8a8a" stroke="#b43f3f" cx="212.847" cy="-105" rx="40.0939" ry="18"/>
<text text-anchor="middle" x="212.847" y="-101.3" font-family="Times,serif" font-size="14.00">0211 (a)</text>
</g>
<!-- 07&#45;&gt;0211 -->
<g id="edge18" class="edge"><title>07&#45;&gt;0211</title>
<path fill="none" stroke="#b43f3f" stroke-dasharray="1,5" d="M369.824,-183.938C347.392,-177.948 315.881,-168.361 289.847,-156 272.796,-147.904 255.044,-136.599 240.887,-126.786"/>
<polygon fill="#b43f3f" stroke="#b43f3f" points="242.762,-123.825 232.575,-120.911 238.721,-129.541 242.762,-123.825"/>
<text text-anchor="middle" x="311.847" y="-144.8" font-family="Times,serif" font-size="14.00">2 (82.9)</text>
</g>
<!-- 037 -->
<g id="node21" class="node"><title>037</title>
<ellipse fill="#ff8a8a" stroke="#b43f3f" cx="307.847" cy="-105" rx="36.2938" ry="18"/>
<text text-anchor="middle" x="307.847" y="-101.3" font-family="Times,serif" font-size="14.00">037 (a)</text>
</g>
<!-- 07&#45;&gt;037 -->
<g id="edge19" class="edge"><title>07&#45;&gt;037</title>
<path fill="none" stroke="#b43f3f" stroke-dasharray="1,5" d="M378.428,-177.672C369.585,-171.512 359.336,-163.834 350.847,-156 342.303,-148.115 333.771,-138.619 326.587,-130.029"/>
<polygon fill="#b43f3f" stroke="#b43f3f" points="329.191,-127.685 320.155,-122.155 323.77,-132.113 329.191,-127.685"/>
<text text-anchor="middle" x="372.847" y="-144.8" font-family="Times,serif" font-size="14.00">1 (97.5)</text>
</g>
<!-- 034 -->
<g id="node22" class="node"><title>034</title>
<ellipse fill="#ff8a8a" stroke="#b43f3f" cx="398.847" cy="-105" rx="36.2938" ry="18"/>
<text text-anchor="middle" x="398.847" y="-101.3" font-family="Times,serif" font-size="14.00">034 (a)</text>
</g>
<!-- 07&#45;&gt;034 -->
<g id="edge20" class="edge"><title>07&#45;&gt;034</title>
<path fill="none" stroke="#b43f3f" stroke-dasharray="1,5" d="M398.847,-173.799C398.847,-162.163 398.847,-146.548 398.847,-133.237"/>
<polygon fill="#b43f3f" stroke="#b43f3f" points="402.347,-133.175 398.847,-123.175 395.347,-133.175 402.347,-133.175"/>
<text text-anchor="middle" x="420.847" y="-144.8" font-family="Times,serif" font-size="14.00">1 (95.1)</text>
</g>
<!-- 030 -->
<g id="node23" class="node"><title>030</title>
<ellipse fill="#ff8a8a" stroke="#b43f3f" cx="489.847" cy="-105" rx="36.2938" ry="18"/>
<text text-anchor="middle" x="489.847" y="-101.3" font-family="Times,serif" font-size="14.00">030 (a)</text>
</g>
<!-- 07&#45;&gt;030 -->
<g id="edge21" class="edge"><title>07&#45;&gt;030</title>
<path fill="none" stroke="#b43f3f" stroke-dasharray="1,5" d="M419.266,-177.672C428.11,-171.512 438.358,-163.834 446.847,-156 455.391,-148.115 463.923,-138.619 471.108,-130.029"/>
<polygon fill="#b43f3f" stroke="#b43f3f" points="473.924,-132.113 477.54,-122.155 468.503,-127.685 473.924,-132.113"/>
<text text-anchor="middle" x="482.847" y="-144.8" font-family="Times,serif" font-size="14.00">1 (95.1)</text>
</g>
<!-- 038 -->
<g id="node24" class="node"><title>038</title>
<ellipse fill="#ff8a8a" stroke="#b43f3f" cx="580.847" cy="-105" rx="36.2938" ry="18"/>
<text text-anchor="middle" x="580.847" y="-101.3" font-family="Times,serif" font-size="14.00">038 (a)</text>
</g>
<!-- 045&#45;&gt;038 -->
<g id="edge22" class="edge"><title>045&#45;&gt;038</title>
<path fill="none" stroke="#b43f3f" stroke-dasharray="1,5" d="M580.847,-173.799C580.847,-162.163 580.847,-146.548 580.847,-133.237"/>
<polygon fill="#b43f3f" stroke="#b43f3f" points="584.347,-133.175 580.847,-123.175 577.347,-133.175 584.347,-133.175"/>
<text text-anchor="middle" x="602.847" y="-144.8" font-family="Times,serif" font-size="14.00">1 (92.7)</text>
</g>
<!-- 036 -->
<g id="node25" class="node"><title>036</title>
<ellipse fill="#ff8a8a" stroke="#b43f3f" cx="671.847" cy="-105" rx="36.2938" ry="18"/>
<text text-anchor="middle" x="671.847" y="-101.3" font-family="Times,serif" font-size="14.00">036 (a)</text>
</g>
<!-- 021&#45;&gt;036 -->
<g id="edge23" class="edge"><title>021&#45;&gt;036</title>
<path fill="none" stroke="#b43f3f" stroke-dasharray="1,5" d="M671.847,-173.799C671.847,-162.163 671.847,-146.548 671.847,-133.237"/>
<polygon fill="#b43f3f" stroke="#b43f3f" points="675.347,-133.175 671.847,-123.175 668.347,-133.175 675.347,-133.175"/>
<text text-anchor="middle" x="693.847" y="-144.8" font-family="Times,serif" font-size="14.00">1 (97.6)</text>
</g>
<!-- 047 -->
<g id="node26" class="node"><title>047</title>
<ellipse fill="#ff8a8a" stroke="#b43f3f" cx="762.847" cy="-105" rx="36.2938" ry="18"/>
<text text-anchor="middle" x="762.847" y="-101.3" font-family="Times,serif" font-size="14.00">047 (a)</text>
</g>
<!-- 021&#45;&gt;047 -->
<g id="edge24" class="edge"><title>021&#45;&gt;047</title>
<path fill="none" stroke="#b43f3f" stroke-dasharray="1,5" d="M693.219,-177.006C701.84,-170.963 711.662,-163.554 719.847,-156 728.391,-148.115 736.923,-138.619 744.108,-130.029"/>
<polygon fill="#b43f3f" stroke="#b43f3f" points="746.924,-132.113 750.54,-122.155 741.503,-127.685 746.924,-132.113"/>
<text text-anchor="middle" x="755.847" y="-144.8" font-family="Times,serif" font-size="14.00">1 (95.1)</text>
</g>
<!-- 03 -->
<g id="node17" class="node"><title>03</title>
<ellipse fill="#ff8a8a" stroke="#b43f3f" cx="666.847" cy="-366" rx="31.6951" ry="18"/>
<text text-anchor="middle" x="666.847" y="-362.3" font-family="Times,serif" font-size="14.00">03 (a)</text>
</g>
<!-- 03&#45;&gt;044 -->
<g id="edge15" class="edge"><title>03&#45;&gt;044</title>
<path fill="none" stroke="#b43f3f" stroke-dasharray="1,5" d="M646.2,-351.912C637.314,-345.796 627.096,-338.086 618.847,-330 611.023,-322.329 603.485,-312.975 597.215,-304.442"/>
<polygon fill="#b43f3f" stroke="#b43f3f" points="600.053,-302.394 591.404,-296.275 594.35,-306.452 600.053,-302.394"/>
<text text-anchor="middle" x="640.847" y="-318.8" font-family="Times,serif" font-size="14.00">1 (89.2)</text>
</g>
<!-- 02 -->
<g id="node18" class="node"><title>02</title>
<ellipse fill="#ff8a8a" stroke="#b43f3f" cx="666.847" cy="-279" rx="31.6951" ry="18"/>
<text text-anchor="middle" x="666.847" y="-275.3" font-family="Times,serif" font-size="14.00">02 (a)</text>
</g>
<!-- 03&#45;&gt;02 -->
<g id="edge16" class="edge"><title>03&#45;&gt;02</title>
<path fill="none" stroke="#b43f3f" stroke-dasharray="1,5" d="M666.847,-347.799C666.847,-336.163 666.847,-320.548 666.847,-307.237"/>
<polygon fill="#b43f3f" stroke="#b43f3f" points="670.347,-307.175 666.847,-297.175 663.347,-307.175 670.347,-307.175"/>
<text text-anchor="middle" x="688.847" y="-318.8" font-family="Times,serif" font-size="14.00">1 (86.5)</text>
</g>
<!-- 032 -->
<g id="node19" class="node"><title>032</title>
<ellipse fill="#ff8a8a" stroke="#b43f3f" cx="752.847" cy="-279" rx="36.2938" ry="18"/>
<text text-anchor="middle" x="752.847" y="-275.3" font-family="Times,serif" font-size="14.00">032 (a)</text>
</g>
<!-- 03&#45;&gt;032 -->
<g id="edge17" class="edge"><title>03&#45;&gt;032</title>
<path fill="none" stroke="#b43f3f" stroke-dasharray="1,5" d="M687.494,-351.912C696.38,-345.796 706.599,-338.086 714.847,-330 722.672,-322.329 730.209,-312.975 736.479,-304.442"/>
<polygon fill="#b43f3f" stroke="#b43f3f" points="739.345,-306.452 742.29,-296.275 733.641,-302.394 739.345,-306.452"/>
<text text-anchor="middle" x="749.847" y="-318.8" font-family="Times,serif" font-size="14.00">1 (91.7)</text>
</g>
<!-- P75 -->
<g id="node27" class="node"><title>P75</title>
<ellipse fill="#ff8a8a" stroke="#b43f3f" cx="752.847" cy="-366" rx="36.2938" ry="18"/>
<text text-anchor="middle" x="752.847" y="-362.3" font-family="Times,serif" font-size="14.00">P75 (a)</text>
</g>
<!-- 019 -->
<g id="node28" class="node"><title>019</title>
<ellipse fill="#ff8a8a" stroke="#b43f3f" cx="843.847" cy="-366" rx="36.2938" ry="18"/>
<text text-anchor="middle" x="843.847" y="-362.3" font-family="Times,serif" font-size="14.00">019 (a)</text>
</g>
<!-- 05 -->
<g id="node29" class="node"><title>05</title>
<ellipse fill="#cea8f4" stroke="#835da9" cx="930.847" cy="-366" rx="32.4942" ry="18"/>
<text text-anchor="middle" x="930.847" y="-362.3" font-family="Times,serif" font-size="14.00">05 (b)</text>
</g>
</g>
</svg>
