<?xml version="1.0" encoding="UTF-8" standalone="no"?>
<!DOCTYPE svg PUBLIC "-//W3C//DTD SVG 1.1//EN"
 "http://www.w3.org/Graphics/SVG/1.1/DTD/svg11.dtd">
<!-- Generated by graphviz version 2.38.0 (20140413.2041)
 -->
<!-- Title: G Pages: 1 -->
<svg width="1382pt" height="188pt"
 viewBox="0.00 0.00 1382.24 188.00" xmlns="http://www.w3.org/2000/svg" xmlns:xlink="http://www.w3.org/1999/xlink">
<g id="graph0" class="graph" transform="scale(1 1) rotate(0) translate(4 184)">
<title>G</title>
<polygon fill="white" stroke="none" points="-4,4 -4,-184 1378.24,-184 1378.24,4 -4,4"/>
<!-- 038 (a) -->
<g id="node1" class="node"><title>038 (a)</title>
<ellipse fill="#ff8a8a" stroke="#b43f3f" cx="699.397" cy="-18" rx="36.2938" ry="18"/>
<text text-anchor="middle" x="699.397" y="-14.3" font-family="Times,serif" font-size="14.00">038 (a)</text>
</g>
<!-- 037 (a) -->
<g id="node2" class="node"><title>037 (a)</title>
<ellipse fill="#ff8a8a" stroke="#b43f3f" cx="313.397" cy="-18" rx="36.2938" ry="18"/>
<text text-anchor="middle" x="313.397" y="-14.3" font-family="Times,serif" font-size="14.00">037 (a)</text>
</g>
<!-- 011/2 (b) -->
<g id="node3" class="node"><title>011/2 (b)</title>
<ellipse fill="#cea8f4" stroke="#835da9" cx="979.397" cy="-18" rx="43.5923" ry="18"/>
<text text-anchor="middle" x="979.397" y="-14.3" font-family="Times,serif" font-size="14.00">011/2 (b)</text>
</g>
<!-- 019 (b) -->
<g id="node4" class="node"><title>019 (b)</title>
<ellipse fill="#cea8f4" stroke="#835da9" cx="1164.4" cy="-162" rx="36.2938" ry="18"/>
<text text-anchor="middle" x="1164.4" y="-158.3" font-family="Times,serif" font-size="14.00">019 (b)</text>
</g>
<!-- 032 (b) -->
<g id="node5" class="node"><title>032 (b)</title>
<ellipse fill="#cea8f4" stroke="#835da9" cx="986.397" cy="-90" rx="36.2938" ry="18"/>
<text text-anchor="middle" x="986.397" y="-86.3" font-family="Times,serif" font-size="14.00">032 (b)</text>
</g>
<!-- 063 (a) -->
<g id="node6" class="node"><title>063 (a)</title>
<ellipse fill="#ff8a8a" stroke="#b43f3f" cx="455.397" cy="-162" rx="36.2938" ry="18"/>
<text text-anchor="middle" x="455.397" y="-158.3" font-family="Times,serif" font-size="14.00">063 (a)</text>
</g>
<!-- 028 (a) -->
<g id="node7" class="node"><title>028 (a)</title>
<ellipse fill="#ff8a8a" stroke="#b43f3f" cx="129.397" cy="-90" rx="36.2938" ry="18"/>
<text text-anchor="middle" x="129.397" y="-86.3" font-family="Times,serif" font-size="14.00">028 (a)</text>
</g>
<!-- 063 (a)&#45;&gt;028 (a) -->
<g id="edge1" class="edge"><title>063 (a)&#45;&gt;028 (a)</title>
<path fill="none" stroke="black" d="M420.485,-156.307C367.081,-148.7 262.165,-132.064 175.397,-108 172.456,-107.184 169.437,-106.264 166.419,-105.284"/>
<polygon fill="black" stroke="black" points="167.477,-101.947 156.882,-102.007 165.202,-108.567 167.477,-101.947"/>
</g>
<!-- 031 (a) -->
<g id="node9" class="node"><title>031 (a)</title>
<ellipse fill="#ff8a8a" stroke="#b43f3f" cx="220.397" cy="-90" rx="36.2938" ry="18"/>
<text text-anchor="middle" x="220.397" y="-86.3" font-family="Times,serif" font-size="14.00">031 (a)</text>
</g>
<!-- 063 (a)&#45;&gt;031 (a) -->
<g id="edge4" class="edge"><title>063 (a)&#45;&gt;031 (a)</title>
<path fill="none" stroke="black" d="M424.675,-151.849C382.6,-139.316 306.984,-116.792 260.493,-102.944"/>
<polygon fill="black" stroke="black" points="261.337,-99.5431 250.754,-100.043 259.339,-106.252 261.337,-99.5431"/>
</g>
<!-- 07 (a) -->
<g id="node20" class="node"><title>07 (a)</title>
<ellipse fill="#ff8a8a" stroke="#b43f3f" cx="455.397" cy="-90" rx="31.6951" ry="18"/>
<text text-anchor="middle" x="455.397" y="-86.3" font-family="Times,serif" font-size="14.00">07 (a)</text>
</g>
<!-- 063 (a)&#45;&gt;07 (a) -->
<g id="edge2" class="edge"><title>063 (a)&#45;&gt;07 (a)</title>
<path fill="none" stroke="black" d="M455.397,-143.697C455.397,-135.983 455.397,-126.712 455.397,-118.112"/>
<polygon fill="black" stroke="black" points="458.897,-118.104 455.397,-108.104 451.897,-118.104 458.897,-118.104"/>
</g>
<!-- 045 (a) -->
<g id="node23" class="node"><title>045 (a)</title>
<ellipse fill="#ff8a8a" stroke="#b43f3f" cx="595.397" cy="-90" rx="36.2938" ry="18"/>
<text text-anchor="middle" x="595.397" y="-86.3" font-family="Times,serif" font-size="14.00">045 (a)</text>
</g>
<!-- 063 (a)&#45;&gt;045 (a) -->
<g id="edge3" class="edge"><title>063 (a)&#45;&gt;045 (a)</title>
<path fill="none" stroke="black" d="M480.104,-148.647C502.656,-137.37 536.201,-120.598 561.3,-108.048"/>
<polygon fill="black" stroke="black" points="563.087,-111.068 570.466,-103.465 559.956,-104.807 563.087,-111.068"/>
</g>
<!-- 021 (a) -->
<g id="node26" class="node"><title>021 (a)</title>
<ellipse fill="#ff8a8a" stroke="#b43f3f" cx="790.397" cy="-90" rx="36.2938" ry="18"/>
<text text-anchor="middle" x="790.397" y="-86.3" font-family="Times,serif" font-size="14.00">021 (a)</text>
</g>
<!-- 063 (a)&#45;&gt;021 (a) -->
<g id="edge5" class="edge"><title>063 (a)&#45;&gt;021 (a)</title>
<path fill="none" stroke="black" d="M488.435,-154.097C549.511,-141.334 680.011,-114.066 747.697,-99.9224"/>
<polygon fill="black" stroke="black" points="748.534,-103.323 757.606,-97.8517 747.102,-96.4712 748.534,-103.323"/>
</g>
<!-- 022 (b) -->
<g id="node8" class="node"><title>022 (b)</title>
<ellipse fill="#cea8f4" stroke="#835da9" cx="1077.4" cy="-18" rx="36.2938" ry="18"/>
<text text-anchor="middle" x="1077.4" y="-14.3" font-family="Times,serif" font-size="14.00">022 (b)</text>
</g>
<!-- 017 (a) -->
<g id="node16" class="node"><title>017 (a)</title>
<ellipse fill="#ff8a8a" stroke="#b43f3f" cx="36.3968" cy="-18" rx="36.2938" ry="18"/>
<text text-anchor="middle" x="36.3968" y="-14.3" font-family="Times,serif" font-size="14.00">017 (a)</text>
</g>
<!-- 031 (a)&#45;&gt;017 (a) -->
<g id="edge7" class="edge"><title>031 (a)&#45;&gt;017 (a)</title>
<path fill="none" stroke="black" d="M192.451,-78.3685C160.748,-66.3074 108.897,-46.5817 73.7447,-33.2085"/>
<polygon fill="black" stroke="black" points="74.8944,-29.9012 64.3034,-29.6166 72.4053,-36.4437 74.8944,-29.9012"/>
</g>
<!-- 013 (a) -->
<g id="node22" class="node"><title>013 (a)</title>
<ellipse fill="#ff8a8a" stroke="#b43f3f" cx="127.397" cy="-18" rx="36.2938" ry="18"/>
<text text-anchor="middle" x="127.397" y="-14.3" font-family="Times,serif" font-size="14.00">013 (a)</text>
</g>
<!-- 031 (a)&#45;&gt;013 (a) -->
<g id="edge8" class="edge"><title>031 (a)&#45;&gt;013 (a)</title>
<path fill="none" stroke="black" d="M201.127,-74.496C187.785,-64.4532 169.824,-50.9344 154.97,-39.7541"/>
<polygon fill="black" stroke="black" points="156.736,-36.7028 146.642,-33.4855 152.527,-42.2956 156.736,-36.7028"/>
</g>
<!-- 01/2 (a) -->
<g id="node24" class="node"><title>01/2 (a)</title>
<ellipse fill="#ff8a8a" stroke="#b43f3f" cx="220.397" cy="-18" rx="38.1938" ry="18"/>
<text text-anchor="middle" x="220.397" y="-14.3" font-family="Times,serif" font-size="14.00">01/2 (a)</text>
</g>
<!-- 031 (a)&#45;&gt;01/2 (a) -->
<g id="edge6" class="edge"><title>031 (a)&#45;&gt;01/2 (a)</title>
<path fill="none" stroke="black" d="M220.397,-71.6966C220.397,-63.9827 220.397,-54.7125 220.397,-46.1124"/>
<polygon fill="black" stroke="black" points="223.897,-46.1043 220.397,-36.1043 216.897,-46.1044 223.897,-46.1043"/>
</g>
<!-- 0141 (b) -->
<g id="node10" class="node"><title>0141 (b)</title>
<ellipse fill="#cea8f4" stroke="#835da9" cx="1172.4" cy="-18" rx="40.8928" ry="18"/>
<text text-anchor="middle" x="1172.4" y="-14.3" font-family="Times,serif" font-size="14.00">0141 (b)</text>
</g>
<!-- 03 (b) -->
<g id="node11" class="node"><title>03 (b)</title>
<ellipse fill="#cea8f4" stroke="#835da9" cx="1077.4" cy="-162" rx="32.4942" ry="18"/>
<text text-anchor="middle" x="1077.4" y="-158.3" font-family="Times,serif" font-size="14.00">03 (b)</text>
</g>
<!-- 03 (b)&#45;&gt;032 (b) -->
<g id="edge11" class="edge"><title>03 (b)&#45;&gt;032 (b)</title>
<path fill="none" stroke="black" d="M1058.98,-146.834C1045.96,-136.816 1028.28,-123.216 1013.63,-111.947"/>
<polygon fill="black" stroke="black" points="1015.47,-108.949 1005.41,-105.626 1011.2,-114.498 1015.47,-108.949"/>
</g>
<!-- 044 (b) -->
<g id="node17" class="node"><title>044 (b)</title>
<ellipse fill="#cea8f4" stroke="#835da9" cx="1077.4" cy="-90" rx="36.2938" ry="18"/>
<text text-anchor="middle" x="1077.4" y="-86.3" font-family="Times,serif" font-size="14.00">044 (b)</text>
</g>
<!-- 03 (b)&#45;&gt;044 (b) -->
<g id="edge9" class="edge"><title>03 (b)&#45;&gt;044 (b)</title>
<path fill="none" stroke="black" d="M1077.4,-143.697C1077.4,-135.983 1077.4,-126.712 1077.4,-118.112"/>
<polygon fill="black" stroke="black" points="1080.9,-118.104 1077.4,-108.104 1073.9,-118.104 1080.9,-118.104"/>
</g>
<!-- 02 (b) -->
<g id="node18" class="node"><title>02 (b)</title>
<ellipse fill="#cea8f4" stroke="#835da9" cx="1164.4" cy="-90" rx="32.4942" ry="18"/>
<text text-anchor="middle" x="1164.4" y="-86.3" font-family="Times,serif" font-size="14.00">02 (b)</text>
</g>
<!-- 03 (b)&#45;&gt;02 (b) -->
<g id="edge10" class="edge"><title>03 (b)&#45;&gt;02 (b)</title>
<path fill="none" stroke="black" d="M1095,-146.834C1107.62,-136.682 1124.81,-122.853 1138.92,-111.498"/>
<polygon fill="black" stroke="black" points="1141.22,-114.14 1146.82,-105.144 1136.83,-108.686 1141.22,-114.14"/>
</g>
<!-- P75 (b) -->
<g id="node12" class="node"><title>P75 (b)</title>
<ellipse fill="#cea8f4" stroke="#835da9" cx="1255.4" cy="-162" rx="37.0935" ry="18"/>
<text text-anchor="middle" x="1255.4" y="-158.3" font-family="Times,serif" font-size="14.00">P75 (b)</text>
</g>
<!-- 05 (c) -->
<g id="node13" class="node"><title>05 (c)</title>
<ellipse fill="#72fe95" stroke="#27b34a" cx="1342.4" cy="-162" rx="31.6951" ry="18"/>
<text text-anchor="middle" x="1342.4" y="-158.3" font-family="Times,serif" font-size="14.00">05 (c)</text>
</g>
<!-- 034 (a) -->
<g id="node14" class="node"><title>034 (a)</title>
<ellipse fill="#ff8a8a" stroke="#b43f3f" cx="404.397" cy="-18" rx="36.2938" ry="18"/>
<text text-anchor="middle" x="404.397" y="-14.3" font-family="Times,serif" font-size="14.00">034 (a)</text>
</g>
<!-- 036 (a) -->
<g id="node15" class="node"><title>036 (a)</title>
<ellipse fill="#ff8a8a" stroke="#b43f3f" cx="790.397" cy="-18" rx="36.2938" ry="18"/>
<text text-anchor="middle" x="790.397" y="-14.3" font-family="Times,serif" font-size="14.00">036 (a)</text>
</g>
<!-- 044 (b)&#45;&gt;011/2 (b) -->
<g id="edge12" class="edge"><title>044 (b)&#45;&gt;011/2 (b)</title>
<path fill="none" stroke="black" d="M1057.57,-74.8345C1043.5,-64.7896 1024.4,-51.1451 1008.6,-39.8589"/>
<polygon fill="black" stroke="black" points="1010.39,-36.8336 1000.21,-33.8693 1006.32,-42.5298 1010.39,-36.8336"/>
</g>
<!-- 044 (b)&#45;&gt;022 (b) -->
<g id="edge13" class="edge"><title>044 (b)&#45;&gt;022 (b)</title>
<path fill="none" stroke="black" d="M1077.4,-71.6966C1077.4,-63.9827 1077.4,-54.7125 1077.4,-46.1124"/>
<polygon fill="black" stroke="black" points="1080.9,-46.1043 1077.4,-36.1043 1073.9,-46.1044 1080.9,-46.1043"/>
</g>
<!-- 044 (b)&#45;&gt;0141 (b) -->
<g id="edge14" class="edge"><title>044 (b)&#45;&gt;0141 (b)</title>
<path fill="none" stroke="black" d="M1097.08,-74.496C1110.75,-64.4269 1129.15,-50.8636 1144.35,-39.6664"/>
<polygon fill="black" stroke="black" points="1146.44,-42.476 1152.41,-33.7263 1142.28,-36.8406 1146.44,-42.476"/>
</g>
<!-- 047 (a) -->
<g id="node19" class="node"><title>047 (a)</title>
<ellipse fill="#ff8a8a" stroke="#b43f3f" cx="881.397" cy="-18" rx="36.2938" ry="18"/>
<text text-anchor="middle" x="881.397" y="-14.3" font-family="Times,serif" font-size="14.00">047 (a)</text>
</g>
<!-- 07 (a)&#45;&gt;037 (a) -->
<g id="edge16" class="edge"><title>07 (a)&#45;&gt;037 (a)</title>
<path fill="none" stroke="black" d="M432.266,-77.5975C409.308,-66.2803 373.852,-48.8018 347.633,-35.8769"/>
<polygon fill="black" stroke="black" points="348.948,-32.6232 338.431,-31.3409 345.853,-38.9018 348.948,-32.6232"/>
</g>
<!-- 07 (a)&#45;&gt;034 (a) -->
<g id="edge18" class="edge"><title>07 (a)&#45;&gt;034 (a)</title>
<path fill="none" stroke="black" d="M443.824,-73.1159C437.46,-64.3803 429.425,-53.3528 422.272,-43.5352"/>
<polygon fill="black" stroke="black" points="424.995,-41.3284 416.278,-35.307 419.337,-45.4504 424.995,-41.3284"/>
</g>
<!-- 0211/2 (a) -->
<g id="node21" class="node"><title>0211/2 (a)</title>
<ellipse fill="#ff8a8a" stroke="#b43f3f" cx="506.397" cy="-18" rx="47.3916" ry="18"/>
<text text-anchor="middle" x="506.397" y="-14.3" font-family="Times,serif" font-size="14.00">0211/2 (a)</text>
</g>
<!-- 07 (a)&#45;&gt;0211/2 (a) -->
<g id="edge15" class="edge"><title>07 (a)&#45;&gt;0211/2 (a)</title>
<path fill="none" stroke="black" d="M466.969,-73.1159C473.243,-64.5051 481.139,-53.6674 488.214,-43.9567"/>
<polygon fill="black" stroke="black" points="491.099,-45.9408 494.159,-35.7973 485.441,-41.8187 491.099,-45.9408"/>
</g>
<!-- 030 (a) -->
<g id="node25" class="node"><title>030 (a)</title>
<ellipse fill="#ff8a8a" stroke="#b43f3f" cx="608.397" cy="-18" rx="36.2938" ry="18"/>
<text text-anchor="middle" x="608.397" y="-14.3" font-family="Times,serif" font-size="14.00">030 (a)</text>
</g>
<!-- 07 (a)&#45;&gt;030 (a) -->
<g id="edge17" class="edge"><title>07 (a)&#45;&gt;030 (a)</title>
<path fill="none" stroke="black" d="M479.303,-78.0625C504.523,-66.5239 544.525,-48.2225 573.318,-35.0491"/>
<polygon fill="black" stroke="black" points="574.978,-38.1386 582.615,-30.7954 572.066,-31.7731 574.978,-38.1386"/>
</g>
<!-- 045 (a)&#45;&gt;038 (a) -->
<g id="edge19" class="edge"><title>045 (a)&#45;&gt;038 (a)</title>
<path fill="none" stroke="black" d="M616.443,-74.8345C631.909,-64.4245 653.119,-50.1483 670.221,-38.6377"/>
<polygon fill="black" stroke="black" points="672.395,-41.393 678.737,-32.9056 668.487,-35.5858 672.395,-41.393"/>
</g>
<!-- 021 (a)&#45;&gt;036 (a) -->
<g id="edge20" class="edge"><title>021 (a)&#45;&gt;036 (a)</title>
<path fill="none" stroke="black" d="M790.397,-71.6966C790.397,-63.9827 790.397,-54.7125 790.397,-46.1124"/>
<polygon fill="black" stroke="black" points="793.897,-46.1043 790.397,-36.1043 786.897,-46.1044 793.897,-46.1043"/>
</g>
<!-- 021 (a)&#45;&gt;047 (a) -->
<g id="edge21" class="edge"><title>021 (a)&#45;&gt;047 (a)</title>
<path fill="none" stroke="black" d="M809.252,-74.496C822.308,-64.4532 839.882,-50.9344 854.416,-39.7541"/>
<polygon fill="black" stroke="black" points="856.773,-42.3568 862.566,-33.4855 852.505,-36.8084 856.773,-42.3568"/>
</g>
</g>
</svg>
