<?xml version="1.0" encoding="UTF-8" standalone="no"?>
<!DOCTYPE svg PUBLIC "-//W3C//DTD SVG 1.1//EN"
 "http://www.w3.org/Graphics/SVG/1.1/DTD/svg11.dtd">
<!-- Generated by graphviz version 2.38.0 (20140413.2041)
 -->
<!-- Title: G Pages: 1 -->
<svg width="1022pt" height="305pt"
 viewBox="0.00 0.00 1021.79 305.00" xmlns="http://www.w3.org/2000/svg" xmlns:xlink="http://www.w3.org/1999/xlink">
<g id="graph0" class="graph" transform="scale(1 1) rotate(0) translate(4 301)">
<title>G</title>
<polygon fill="white" stroke="none" points="-4,4 -4,-301 1017.79,-301 1017.79,4 -4,4"/>
<!-- 013 (a) -->
<g id="node1" class="node"><title>013 (a)</title>
<ellipse fill="#ff8a8a" stroke="#b43f3f" cx="681.397" cy="-18" rx="36.2938" ry="18"/>
<text text-anchor="middle" x="681.397" y="-14.3" font-family="Times,serif" font-size="14.00">013 (a)</text>
</g>
<!-- 05 (b) -->
<g id="node2" class="node"><title>05 (b)</title>
<ellipse fill="#cea8f4" stroke="#835da9" cx="624.397" cy="-279" rx="32.4942" ry="18"/>
<text text-anchor="middle" x="624.397" y="-275.3" font-family="Times,serif" font-size="14.00">05 (b)</text>
</g>
<!-- 017 (a) -->
<g id="node3" class="node"><title>017 (a)</title>
<ellipse fill="#ff8a8a" stroke="#b43f3f" cx="772.397" cy="-18" rx="36.2938" ry="18"/>
<text text-anchor="middle" x="772.397" y="-14.3" font-family="Times,serif" font-size="14.00">017 (a)</text>
</g>
<!-- 021 (a) -->
<g id="node4" class="node"><title>021 (a)</title>
<ellipse fill="#ff8a8a" stroke="#b43f3f" cx="127.397" cy="-105" rx="36.2938" ry="18"/>
<text text-anchor="middle" x="127.397" y="-101.3" font-family="Times,serif" font-size="14.00">021 (a)</text>
</g>
<!-- 036 (a) -->
<g id="node7" class="node"><title>036 (a)</title>
<ellipse fill="#ff8a8a" stroke="#b43f3f" cx="36.3968" cy="-18" rx="36.2938" ry="18"/>
<text text-anchor="middle" x="36.3968" y="-14.3" font-family="Times,serif" font-size="14.00">036 (a)</text>
</g>
<!-- 021 (a)&#45;&gt;036 (a) -->
<g id="edge1" class="edge"><title>021 (a)&#45;&gt;036 (a)</title>
<path fill="none" stroke="#b43f3f" d="M106.025,-90.006C97.4044,-83.9634 87.5824,-76.5539 79.3968,-69 70.8527,-61.1154 62.3211,-51.6186 55.1364,-43.0293"/>
<polygon fill="#b43f3f" stroke="#b43f3f" points="57.741,-40.6853 48.7043,-35.1545 52.3196,-45.1135 57.741,-40.6853"/>
<text text-anchor="middle" x="101.397" y="-57.8" font-family="Times,serif" font-size="14.00">1 (97.6)</text>
</g>
<!-- 047 (a) -->
<g id="node25" class="node"><title>047 (a)</title>
<ellipse fill="#ff8a8a" stroke="#b43f3f" cx="127.397" cy="-18" rx="36.2938" ry="18"/>
<text text-anchor="middle" x="127.397" y="-14.3" font-family="Times,serif" font-size="14.00">047 (a)</text>
</g>
<!-- 021 (a)&#45;&gt;047 (a) -->
<g id="edge2" class="edge"><title>021 (a)&#45;&gt;047 (a)</title>
<path fill="none" stroke="#b43f3f" d="M127.397,-86.799C127.397,-75.1626 127.397,-59.5479 127.397,-46.2368"/>
<polygon fill="#b43f3f" stroke="#b43f3f" points="130.897,-46.1754 127.397,-36.1754 123.897,-46.1755 130.897,-46.1754"/>
<text text-anchor="middle" x="149.397" y="-57.8" font-family="Times,serif" font-size="14.00">1 (95.1)</text>
</g>
<!-- 037 (a) -->
<g id="node5" class="node"><title>037 (a)</title>
<ellipse fill="#ff8a8a" stroke="#b43f3f" cx="218.397" cy="-18" rx="36.2938" ry="18"/>
<text text-anchor="middle" x="218.397" y="-14.3" font-family="Times,serif" font-size="14.00">037 (a)</text>
</g>
<!-- 02 (a) -->
<g id="node6" class="node"><title>02 (a)</title>
<ellipse fill="#ff8a8a" stroke="#b43f3f" cx="619.397" cy="-192" rx="31.6951" ry="18"/>
<text text-anchor="middle" x="619.397" y="-188.3" font-family="Times,serif" font-size="14.00">02 (a)</text>
</g>
<!-- 07 (a) -->
<g id="node8" class="node"><title>07 (a)</title>
<ellipse fill="#ff8a8a" stroke="#b43f3f" cx="404.397" cy="-105" rx="31.6951" ry="18"/>
<text text-anchor="middle" x="404.397" y="-101.3" font-family="Times,serif" font-size="14.00">07 (a)</text>
</g>
<!-- 07 (a)&#45;&gt;037 (a) -->
<g id="edge6" class="edge"><title>07 (a)&#45;&gt;037 (a)</title>
<path fill="none" stroke="#b43f3f" d="M375.263,-97.2264C352.365,-91.3366 320.003,-81.7448 293.397,-69 276.45,-60.882 258.9,-49.3789 245.041,-39.4524"/>
<polygon fill="#b43f3f" stroke="#b43f3f" points="247.066,-36.597 236.928,-33.5199 242.934,-42.2476 247.066,-36.597"/>
<text text-anchor="middle" x="315.397" y="-57.8" font-family="Times,serif" font-size="14.00">1 (97.5)</text>
</g>
<!-- 034 (a) -->
<g id="node12" class="node"><title>034 (a)</title>
<ellipse fill="#ff8a8a" stroke="#b43f3f" cx="309.397" cy="-18" rx="36.2938" ry="18"/>
<text text-anchor="middle" x="309.397" y="-14.3" font-family="Times,serif" font-size="14.00">034 (a)</text>
</g>
<!-- 07 (a)&#45;&gt;034 (a) -->
<g id="edge4" class="edge"><title>07 (a)&#45;&gt;034 (a)</title>
<path fill="none" stroke="#b43f3f" d="M384.611,-90.8221C375.694,-84.5722 365.211,-76.7806 356.397,-69 347.233,-60.9115 337.866,-51.2757 329.93,-42.6319"/>
<polygon fill="#b43f3f" stroke="#b43f3f" points="332.386,-40.1295 323.091,-35.0454 327.187,-44.8165 332.386,-40.1295"/>
<text text-anchor="middle" x="378.397" y="-57.8" font-family="Times,serif" font-size="14.00">1 (95.1)</text>
</g>
<!-- 0211 (a) -->
<g id="node15" class="node"><title>0211 (a)</title>
<ellipse fill="#ff8a8a" stroke="#b43f3f" cx="404.397" cy="-18" rx="40.0939" ry="18"/>
<text text-anchor="middle" x="404.397" y="-14.3" font-family="Times,serif" font-size="14.00">0211 (a)</text>
</g>
<!-- 07 (a)&#45;&gt;0211 (a) -->
<g id="edge5" class="edge"><title>07 (a)&#45;&gt;0211 (a)</title>
<path fill="none" stroke="#b43f3f" d="M404.397,-86.799C404.397,-75.1626 404.397,-59.5479 404.397,-46.2368"/>
<polygon fill="#b43f3f" stroke="#b43f3f" points="407.897,-46.1754 404.397,-36.1754 400.897,-46.1755 407.897,-46.1754"/>
<text text-anchor="middle" x="426.397" y="-57.8" font-family="Times,serif" font-size="14.00">2 (82.9)</text>
</g>
<!-- 030 (a) -->
<g id="node22" class="node"><title>030 (a)</title>
<ellipse fill="#ff8a8a" stroke="#b43f3f" cx="499.397" cy="-18" rx="36.2938" ry="18"/>
<text text-anchor="middle" x="499.397" y="-14.3" font-family="Times,serif" font-size="14.00">030 (a)</text>
</g>
<!-- 07 (a)&#45;&gt;030 (a) -->
<g id="edge3" class="edge"><title>07 (a)&#45;&gt;030 (a)</title>
<path fill="none" stroke="#b43f3f" d="M424.182,-90.8221C433.1,-84.5722 443.582,-76.7806 452.397,-69 461.56,-60.9115 470.927,-51.2757 478.863,-42.6319"/>
<polygon fill="#b43f3f" stroke="#b43f3f" points="481.606,-44.8165 485.702,-35.0454 476.407,-40.1295 481.606,-44.8165"/>
<text text-anchor="middle" x="490.397" y="-57.8" font-family="Times,serif" font-size="14.00">1 (95.1)</text>
</g>
<!-- 03 (a) -->
<g id="node9" class="node"><title>03 (a)</title>
<ellipse fill="#ff8a8a" stroke="#b43f3f" cx="709.397" cy="-279" rx="31.6951" ry="18"/>
<text text-anchor="middle" x="709.397" y="-275.3" font-family="Times,serif" font-size="14.00">03 (a)</text>
</g>
<!-- 03 (a)&#45;&gt;02 (a) -->
<g id="edge9" class="edge"><title>03 (a)&#45;&gt;02 (a)</title>
<path fill="none" stroke="#b43f3f" d="M688.935,-264.718C680.083,-258.567 669.84,-250.883 661.397,-243 652.982,-235.144 644.635,-225.653 637.625,-217.06"/>
<polygon fill="#b43f3f" stroke="#b43f3f" points="640.32,-214.827 631.356,-209.18 634.842,-219.185 640.32,-214.827"/>
<text text-anchor="middle" x="683.397" y="-231.8" font-family="Times,serif" font-size="14.00">1 (86.5)</text>
</g>
<!-- 0141 (a) -->
<g id="node14" class="node"><title>0141 (a)</title>
<ellipse fill="#ff8a8a" stroke="#b43f3f" cx="709.397" cy="-192" rx="40.0939" ry="18"/>
<text text-anchor="middle" x="709.397" y="-188.3" font-family="Times,serif" font-size="14.00">0141 (a)</text>
</g>
<!-- 03 (a)&#45;&gt;0141 (a) -->
<g id="edge8" class="edge"><title>03 (a)&#45;&gt;0141 (a)</title>
<path fill="none" stroke="#b43f3f" d="M709.397,-260.799C709.397,-249.163 709.397,-233.548 709.397,-220.237"/>
<polygon fill="#b43f3f" stroke="#b43f3f" points="712.897,-220.175 709.397,-210.175 705.897,-220.175 712.897,-220.175"/>
<text text-anchor="middle" x="731.397" y="-231.8" font-family="Times,serif" font-size="14.00">2 (86.5)</text>
</g>
<!-- 022 (a) -->
<g id="node24" class="node"><title>022 (a)</title>
<ellipse fill="#ff8a8a" stroke="#b43f3f" cx="804.397" cy="-192" rx="36.2938" ry="18"/>
<text text-anchor="middle" x="804.397" y="-188.3" font-family="Times,serif" font-size="14.00">022 (a)</text>
</g>
<!-- 03 (a)&#45;&gt;022 (a) -->
<g id="edge7" class="edge"><title>03 (a)&#45;&gt;022 (a)</title>
<path fill="none" stroke="#b43f3f" d="M729.182,-264.822C738.1,-258.572 748.582,-250.781 757.397,-243 766.56,-234.911 775.927,-225.276 783.863,-216.632"/>
<polygon fill="#b43f3f" stroke="#b43f3f" points="786.606,-218.816 790.702,-209.045 781.407,-214.129 786.606,-218.816"/>
<text text-anchor="middle" x="795.397" y="-231.8" font-family="Times,serif" font-size="14.00">1 (91.7)</text>
</g>
<!-- P75 (a) -->
<g id="node10" class="node"><title>P75 (a)</title>
<ellipse fill="#ff8a8a" stroke="#b43f3f" cx="795.397" cy="-279" rx="36.2938" ry="18"/>
<text text-anchor="middle" x="795.397" y="-275.3" font-family="Times,serif" font-size="14.00">P75 (a)</text>
</g>
<!-- 038 (a) -->
<g id="node11" class="node"><title>038 (a)</title>
<ellipse fill="#ff8a8a" stroke="#b43f3f" cx="590.397" cy="-18" rx="36.2938" ry="18"/>
<text text-anchor="middle" x="590.397" y="-14.3" font-family="Times,serif" font-size="14.00">038 (a)</text>
</g>
<!-- 019 (a) -->
<g id="node13" class="node"><title>019 (a)</title>
<ellipse fill="#ff8a8a" stroke="#b43f3f" cx="533.397" cy="-279" rx="36.2938" ry="18"/>
<text text-anchor="middle" x="533.397" y="-275.3" font-family="Times,serif" font-size="14.00">019 (a)</text>
</g>
<!-- 063 (a) -->
<g id="node21" class="node"><title>063 (a)</title>
<ellipse fill="#ff8a8a" stroke="#b43f3f" cx="533.397" cy="-192" rx="36.2938" ry="18"/>
<text text-anchor="middle" x="533.397" y="-188.3" font-family="Times,serif" font-size="14.00">063 (a)</text>
</g>
<!-- 019 (a)&#45;&gt;063 (a) -->
<g id="edge10" class="edge"><title>019 (a)&#45;&gt;063 (a)</title>
<path fill="none" stroke="#b43f3f" d="M533.397,-260.799C533.397,-249.163 533.397,-233.548 533.397,-220.237"/>
<polygon fill="#b43f3f" stroke="#b43f3f" points="536.897,-220.175 533.397,-210.175 529.897,-220.175 536.897,-220.175"/>
<text text-anchor="middle" x="555.397" y="-231.8" font-family="Times,serif" font-size="14.00">1 (85.7)</text>
</g>
<!-- 01 (a) -->
<g id="node16" class="node"><title>01 (a)</title>
<ellipse fill="#ff8a8a" stroke="#b43f3f" cx="858.397" cy="-18" rx="31.6951" ry="18"/>
<text text-anchor="middle" x="858.397" y="-14.3" font-family="Times,serif" font-size="14.00">01 (a)</text>
</g>
<!-- 032 (b) -->
<g id="node17" class="node"><title>032 (b)</title>
<ellipse fill="#cea8f4" stroke="#835da9" cx="886.397" cy="-279" rx="36.2938" ry="18"/>
<text text-anchor="middle" x="886.397" y="-275.3" font-family="Times,serif" font-size="14.00">032 (b)</text>
</g>
<!-- 044 (b) -->
<g id="node18" class="node"><title>044 (b)</title>
<ellipse fill="#cea8f4" stroke="#835da9" cx="977.397" cy="-279" rx="36.2938" ry="18"/>
<text text-anchor="middle" x="977.397" y="-275.3" font-family="Times,serif" font-size="14.00">044 (b)</text>
</g>
<!-- 011 (a) -->
<g id="node19" class="node"><title>011 (a)</title>
<ellipse fill="#ff8a8a" stroke="#b43f3f" cx="494.397" cy="-105" rx="36.2938" ry="18"/>
<text text-anchor="middle" x="494.397" y="-101.3" font-family="Times,serif" font-size="14.00">011 (a)</text>
</g>
<!-- 045 (a) -->
<g id="node20" class="node"><title>045 (a)</title>
<ellipse fill="#ff8a8a" stroke="#b43f3f" cx="585.397" cy="-105" rx="36.2938" ry="18"/>
<text text-anchor="middle" x="585.397" y="-101.3" font-family="Times,serif" font-size="14.00">045 (a)</text>
</g>
<!-- 045 (a)&#45;&gt;038 (a) -->
<g id="edge11" class="edge"><title>045 (a)&#45;&gt;038 (a)</title>
<path fill="none" stroke="#b43f3f" d="M586.409,-86.799C587.093,-75.1626 588.012,-59.5479 588.795,-46.2368"/>
<polygon fill="#b43f3f" stroke="#b43f3f" points="592.293,-46.3637 589.386,-36.1754 585.305,-45.9526 592.293,-46.3637"/>
<text text-anchor="middle" x="610.397" y="-57.8" font-family="Times,serif" font-size="14.00">1 (92.7)</text>
</g>
<!-- 063 (a)&#45;&gt;021 (a) -->
<g id="edge16" class="edge"><title>063 (a)&#45;&gt;021 (a)</title>
<path fill="none" stroke="#b43f3f" d="M500.516,-184.116C427.468,-168.823 251.717,-132.028 170.224,-114.966"/>
<polygon fill="#b43f3f" stroke="#b43f3f" points="170.806,-111.512 160.301,-112.889 169.371,-118.364 170.806,-111.512"/>
<text text-anchor="middle" x="377.397" y="-144.8" font-family="Times,serif" font-size="14.00">1 (93.1)</text>
</g>
<!-- 063 (a)&#45;&gt;07 (a) -->
<g id="edge15" class="edge"><title>063 (a)&#45;&gt;07 (a)</title>
<path fill="none" stroke="#b43f3f" d="M504.281,-181.072C488.75,-175.062 469.736,-166.522 454.397,-156 443.324,-148.405 432.586,-138.173 423.918,-128.943"/>
<polygon fill="#b43f3f" stroke="#b43f3f" points="426.476,-126.555 417.161,-121.506 421.295,-131.262 426.476,-126.555"/>
<text text-anchor="middle" x="476.397" y="-144.8" font-family="Times,serif" font-size="14.00">1 (96.6)</text>
</g>
<!-- 063 (a)&#45;&gt;011 (a) -->
<g id="edge14" class="edge"><title>063 (a)&#45;&gt;011 (a)</title>
<path fill="none" stroke="#b43f3f" d="M519.572,-175.106C515.162,-169.388 510.601,-162.69 507.397,-156 503.988,-148.881 501.386,-140.749 499.44,-133.14"/>
<polygon fill="#b43f3f" stroke="#b43f3f" points="502.816,-132.204 497.178,-123.234 495.992,-133.763 502.816,-132.204"/>
<text text-anchor="middle" x="529.397" y="-144.8" font-family="Times,serif" font-size="14.00">1 (93.1)</text>
</g>
<!-- 063 (a)&#45;&gt;045 (a) -->
<g id="edge12" class="edge"><title>063 (a)&#45;&gt;045 (a)</title>
<path fill="none" stroke="#b43f3f" d="M543.423,-174.611C550.976,-162.264 561.467,-145.117 570.07,-131.053"/>
<polygon fill="#b43f3f" stroke="#b43f3f" points="573.168,-132.695 575.401,-122.339 567.197,-129.042 573.168,-132.695"/>
<text text-anchor="middle" x="585.397" y="-144.8" font-family="Times,serif" font-size="14.00">1 (93.1)</text>
</g>
<!-- 028 (a) -->
<g id="node23" class="node"><title>028 (a)</title>
<ellipse fill="#ff8a8a" stroke="#b43f3f" cx="676.397" cy="-105" rx="36.2938" ry="18"/>
<text text-anchor="middle" x="676.397" y="-101.3" font-family="Times,serif" font-size="14.00">028 (a)</text>
</g>
<!-- 063 (a)&#45;&gt;028 (a) -->
<g id="edge13" class="edge"><title>063 (a)&#45;&gt;028 (a)</title>
<path fill="none" stroke="#b43f3f" d="M561.257,-180.363C576.502,-174.087 595.472,-165.519 611.397,-156 625.262,-147.712 639.605,-136.949 651.279,-127.533"/>
<polygon fill="#b43f3f" stroke="#b43f3f" points="653.761,-130.024 659.262,-120.969 649.315,-124.617 653.761,-130.024"/>
<text text-anchor="middle" x="654.397" y="-144.8" font-family="Times,serif" font-size="14.00">1 (96.6)</text>
</g>
<!-- 031 (a) -->
<g id="node26" class="node"><title>031 (a)</title>
<ellipse fill="#ff8a8a" stroke="#b43f3f" cx="769.397" cy="-105" rx="36.2938" ry="18"/>
<text text-anchor="middle" x="769.397" y="-101.3" font-family="Times,serif" font-size="14.00">031 (a)</text>
</g>
<!-- 063 (a)&#45;&gt;031 (a) -->
<g id="edge17" class="edge"><title>063 (a)&#45;&gt;031 (a)</title>
<path fill="none" stroke="#b43f3f" d="M560.734,-179.745C566.502,-177.633 572.598,-175.592 578.397,-174 622.788,-161.813 637.049,-171.493 680.397,-156 701.519,-148.451 723.509,-136.145 740.346,-125.631"/>
<polygon fill="#b43f3f" stroke="#b43f3f" points="742.591,-128.351 749.132,-120.016 738.821,-122.452 742.591,-128.351"/>
<text text-anchor="middle" x="736.397" y="-144.8" font-family="Times,serif" font-size="14.00">1 (95.8)</text>
</g>
<!-- 031 (a)&#45;&gt;013 (a) -->
<g id="edge18" class="edge"><title>031 (a)&#45;&gt;013 (a)</title>
<path fill="none" stroke="#b43f3f" d="M748.917,-89.9283C740.656,-83.8738 731.243,-76.4764 723.397,-69 715.063,-61.0584 706.732,-51.5499 699.713,-42.9672"/>
<polygon fill="#b43f3f" stroke="#b43f3f" points="702.405,-40.7301 693.428,-35.1034 696.937,-45.1003 702.405,-40.7301"/>
<text text-anchor="middle" x="745.397" y="-57.8" font-family="Times,serif" font-size="14.00">1 (97.1)</text>
</g>
<!-- 031 (a)&#45;&gt;017 (a) -->
<g id="edge19" class="edge"><title>031 (a)&#45;&gt;017 (a)</title>
<path fill="none" stroke="#b43f3f" d="M770.004,-86.799C770.415,-75.1626 770.966,-59.5479 771.435,-46.2368"/>
<polygon fill="#b43f3f" stroke="#b43f3f" points="774.936,-46.2927 771.791,-36.1754 767.94,-46.0457 774.936,-46.2927"/>
<text text-anchor="middle" x="793.397" y="-57.8" font-family="Times,serif" font-size="14.00">1 (94.3)</text>
</g>
<!-- 031 (a)&#45;&gt;01 (a) -->
<g id="edge20" class="edge"><title>031 (a)&#45;&gt;01 (a)</title>
<path fill="none" stroke="#b43f3f" d="M791.888,-90.333C800.903,-84.3405 811.098,-76.88 819.397,-69 827.42,-61.3814 835.154,-52.0387 841.59,-43.4998"/>
<polygon fill="#b43f3f" stroke="#b43f3f" points="844.489,-45.4639 847.555,-35.3224 838.834,-41.3384 844.489,-45.4639"/>
<text text-anchor="middle" x="855.397" y="-57.8" font-family="Times,serif" font-size="14.00">2 (48.5)</text>
</g>
</g>
</svg>
