<?xml version="1.0" encoding="UTF-8" standalone="no"?>
<!DOCTYPE svg PUBLIC "-//W3C//DTD SVG 1.1//EN"
 "http://www.w3.org/Graphics/SVG/1.1/DTD/svg11.dtd">
<!-- Generated by graphviz version 2.38.0 (20140413.2041)
 -->
<!-- Title: %3 Pages: 1 -->
<svg width="1693pt" height="234pt"
 viewBox="0.00 0.00 1693.00 234.00" xmlns="http://www.w3.org/2000/svg" xmlns:xlink="http://www.w3.org/1999/xlink">
<g id="graph0" class="graph" transform="scale(1 1) rotate(0) translate(4 230)">
<title>%3</title>
<polygon fill="white" stroke="none" points="-4,4 -4,-230 1689,-230 1689,4 -4,4"/>
<g id="clust1" class="cluster"><title>cluster_legend</title>
<path fill="none" stroke="black" d="M20,-90C20,-90 210,-90 210,-90 216,-90 222,-96 222,-102 222,-102 222,-206 222,-206 222,-212 216,-218 210,-218 210,-218 20,-218 20,-218 14,-218 8,-212 8,-206 8,-206 8,-102 8,-102 8,-96 14,-90 20,-90"/>
</g>
<!-- leg_s -->
<g id="node1" class="node"><title>leg_s</title>
<text text-anchor="middle" x="115" y="-188.3" font-family="Times,serif" font-size="14.00">Textual flow strength</text>
</g>
<!-- leg_e1 -->
<!-- leg_s&#45;&gt;leg_e1 -->
<g id="edge1" class="edge"><title>leg_s&#45;&gt;leg_e1</title>
<path fill="none" stroke="black" stroke-dasharray="1,5" d="M96.6657,-173.686C91.1324,-168.194 85.1607,-161.989 80,-156 70.1708,-144.593 60.0722,-130.779 52.9137,-120.563"/>
<polygon fill="black" stroke="black" points="55.6142,-118.314 47.056,-112.068 49.8514,-122.288 55.6142,-118.314"/>
<text text-anchor="middle" x="95.5" y="-144.8" font-family="Times,serif" font-size="14.00">&lt;=5 &#160;</text>
</g>
<!-- leg_e2 -->
<!-- leg_s&#45;&gt;leg_e2 -->
<g id="edge2" class="edge"><title>leg_s&#45;&gt;leg_e2</title>
<path fill="none" stroke="black" stroke-dasharray="5,2" d="M115,-173.799C115,-158.794 115,-137.174 115,-122.409"/>
<polygon fill="black" stroke="black" points="118.5,-122.293 115,-112.293 111.5,-122.293 118.5,-122.293"/>
<text text-anchor="middle" x="134" y="-144.8" font-family="Times,serif" font-size="14.00"> &#160;&lt;=25</text>
</g>
<!-- leg_e3 -->
<!-- leg_s&#45;&gt;leg_e3 -->
<g id="edge3" class="edge"><title>leg_s&#45;&gt;leg_e3</title>
<path fill="none" stroke="black" d="M138.503,-173.76C144.906,-168.462 151.567,-162.344 157,-156 166.087,-145.39 174.095,-131.689 179.546,-121.313"/>
<polygon fill="black" stroke="black" points="182.722,-122.789 184.091,-112.283 176.469,-119.642 182.722,-122.789"/>
<text text-anchor="middle" x="179" y="-144.8" font-family="Times,serif" font-size="14.00">&gt;25</text>
</g>
<!-- 063 -->
<g id="node5" class="node"><title>063</title>
<ellipse fill="#ff8a8a" stroke="#b43f3f" cx="602" cy="-192" rx="36.2938" ry="18"/>
<text text-anchor="middle" x="602" y="-188.3" font-family="Times,serif" font-size="14.00">063 (a)</text>
</g>
<!-- 045 -->
<g id="node6" class="node"><title>045</title>
<ellipse fill="#ff8a8a" stroke="#b43f3f" cx="268" cy="-105" rx="36.2938" ry="18"/>
<text text-anchor="middle" x="268" y="-101.3" font-family="Times,serif" font-size="14.00">045 (a)</text>
</g>
<!-- 063&#45;&gt;045 -->
<g id="edge4" class="edge"><title>063&#45;&gt;045</title>
<path fill="none" stroke="#b43f3f" stroke-dasharray="1,5" d="M570.277,-182.927C509.562,-167.475 376.969,-133.732 309.387,-116.533"/>
<polygon fill="#b43f3f" stroke="#b43f3f" points="310.066,-113.094 299.511,-114.019 308.339,-119.878 310.066,-113.094"/>
<text text-anchor="middle" x="477" y="-144.8" font-family="Times,serif" font-size="14.00">1 (93.1)</text>
</g>
<!-- 07 -->
<g id="node7" class="node"><title>07</title>
<ellipse fill="#ff8a8a" stroke="#b43f3f" cx="471" cy="-105" rx="31.6951" ry="18"/>
<text text-anchor="middle" x="471" y="-101.3" font-family="Times,serif" font-size="14.00">07 (a)</text>
</g>
<!-- 063&#45;&gt;07 -->
<g id="edge5" class="edge"><title>063&#45;&gt;07</title>
<path fill="none" stroke="#b43f3f" stroke-dasharray="1,5" d="M580.661,-177.154C558.578,-162.825 523.959,-140.362 499.535,-124.515"/>
<polygon fill="#b43f3f" stroke="#b43f3f" points="501.334,-121.51 491.04,-119.003 497.524,-127.382 501.334,-121.51"/>
<text text-anchor="middle" x="567" y="-144.8" font-family="Times,serif" font-size="14.00">1 (96.6)</text>
</g>
<!-- 031 -->
<g id="node8" class="node"><title>031</title>
<ellipse fill="#ff8a8a" stroke="#b43f3f" cx="602" cy="-105" rx="36.2938" ry="18"/>
<text text-anchor="middle" x="602" y="-101.3" font-family="Times,serif" font-size="14.00">031 (a)</text>
</g>
<!-- 063&#45;&gt;031 -->
<g id="edge6" class="edge"><title>063&#45;&gt;031</title>
<path fill="none" stroke="#b43f3f" stroke-dasharray="1,5" d="M602,-173.799C602,-162.163 602,-146.548 602,-133.237"/>
<polygon fill="#b43f3f" stroke="#b43f3f" points="605.5,-133.175 602,-123.175 598.5,-133.175 605.5,-133.175"/>
<text text-anchor="middle" x="624" y="-144.8" font-family="Times,serif" font-size="14.00">1 (95.8)</text>
</g>
<!-- 011 -->
<g id="node9" class="node"><title>011</title>
<ellipse fill="#ff8a8a" stroke="#b43f3f" cx="693" cy="-105" rx="36.2938" ry="18"/>
<text text-anchor="middle" x="693" y="-101.3" font-family="Times,serif" font-size="14.00">011 (a)</text>
</g>
<!-- 063&#45;&gt;011 -->
<g id="edge7" class="edge"><title>063&#45;&gt;011</title>
<path fill="none" stroke="#b43f3f" stroke-dasharray="1,5" d="M623.372,-177.006C631.992,-170.963 641.814,-163.554 650,-156 658.544,-148.115 667.076,-138.619 674.26,-130.029"/>
<polygon fill="#b43f3f" stroke="#b43f3f" points="677.077,-132.113 680.692,-122.155 671.656,-127.685 677.077,-132.113"/>
<text text-anchor="middle" x="686" y="-144.8" font-family="Times,serif" font-size="14.00">1 (93.1)</text>
</g>
<!-- 028 -->
<g id="node10" class="node"><title>028</title>
<ellipse fill="#ff8a8a" stroke="#b43f3f" cx="784" cy="-105" rx="36.2938" ry="18"/>
<text text-anchor="middle" x="784" y="-101.3" font-family="Times,serif" font-size="14.00">028 (a)</text>
</g>
<!-- 063&#45;&gt;028 -->
<g id="edge8" class="edge"><title>063&#45;&gt;028</title>
<path fill="none" stroke="#b43f3f" stroke-dasharray="1,5" d="M634.267,-183.461C656.727,-177.566 687.009,-168.305 712,-156 728.128,-148.059 744.702,-136.801 757.877,-126.977"/>
<polygon fill="#b43f3f" stroke="#b43f3f" points="760.176,-129.626 766.004,-120.778 755.931,-124.06 760.176,-129.626"/>
<text text-anchor="middle" x="758" y="-144.8" font-family="Times,serif" font-size="14.00">1 (96.6)</text>
</g>
<!-- 038 -->
<g id="node11" class="node"><title>038</title>
<ellipse fill="#ff8a8a" stroke="#b43f3f" cx="190" cy="-18" rx="36.2938" ry="18"/>
<text text-anchor="middle" x="190" y="-14.3" font-family="Times,serif" font-size="14.00">038 (a)</text>
</g>
<!-- 045&#45;&gt;038 -->
<g id="edge9" class="edge"><title>045&#45;&gt;038</title>
<path fill="none" stroke="#b43f3f" stroke-dasharray="1,5" d="M243.531,-91.5279C233.766,-85.6731 222.974,-77.9931 215,-69 208.891,-62.1105 203.877,-53.4601 199.984,-45.3003"/>
<polygon fill="#b43f3f" stroke="#b43f3f" points="203.16,-43.8279 195.932,-36.0817 196.752,-46.6448 203.16,-43.8279"/>
<text text-anchor="middle" x="237" y="-57.8" font-family="Times,serif" font-size="14.00">1 (92.7)</text>
</g>
<!-- 034 -->
<g id="node12" class="node"><title>034</title>
<ellipse fill="#ff8a8a" stroke="#b43f3f" cx="281" cy="-18" rx="36.2938" ry="18"/>
<text text-anchor="middle" x="281" y="-14.3" font-family="Times,serif" font-size="14.00">034 (a)</text>
</g>
<!-- 07&#45;&gt;034 -->
<g id="edge10" class="edge"><title>07&#45;&gt;034</title>
<path fill="none" stroke="#b43f3f" stroke-dasharray="1,5" d="M441.949,-97.051C419.096,-91.0645 386.755,-81.4282 360,-69 342.324,-60.789 323.849,-49.2802 309.213,-39.3738"/>
<polygon fill="#b43f3f" stroke="#b43f3f" points="310.857,-36.2555 300.638,-33.4566 306.881,-42.0169 310.857,-36.2555"/>
<text text-anchor="middle" x="382" y="-57.8" font-family="Times,serif" font-size="14.00">1 (95.1)</text>
</g>
<!-- 0211 -->
<g id="node13" class="node"><title>0211</title>
<ellipse fill="#ff8a8a" stroke="#b43f3f" cx="376" cy="-18" rx="40.0939" ry="18"/>
<text text-anchor="middle" x="376" y="-14.3" font-family="Times,serif" font-size="14.00">0211 (a)</text>
</g>
<!-- 07&#45;&gt;0211 -->
<g id="edge11" class="edge"><title>07&#45;&gt;0211</title>
<path fill="none" stroke="#b43f3f" stroke-dasharray="1,5" d="M451.214,-90.8221C442.297,-84.5722 431.815,-76.7806 423,-69 413.837,-60.9115 404.469,-51.2757 396.533,-42.6319"/>
<polygon fill="#b43f3f" stroke="#b43f3f" points="398.99,-40.1295 389.694,-35.0454 393.79,-44.8165 398.99,-40.1295"/>
<text text-anchor="middle" x="445" y="-57.8" font-family="Times,serif" font-size="14.00">2 (82.9)</text>
</g>
<!-- 037 -->
<g id="node14" class="node"><title>037</title>
<ellipse fill="#ff8a8a" stroke="#b43f3f" cx="471" cy="-18" rx="36.2938" ry="18"/>
<text text-anchor="middle" x="471" y="-14.3" font-family="Times,serif" font-size="14.00">037 (a)</text>
</g>
<!-- 07&#45;&gt;037 -->
<g id="edge12" class="edge"><title>07&#45;&gt;037</title>
<path fill="none" stroke="#b43f3f" stroke-dasharray="1,5" d="M471,-86.799C471,-75.1626 471,-59.5479 471,-46.2368"/>
<polygon fill="#b43f3f" stroke="#b43f3f" points="474.5,-46.1754 471,-36.1754 467.5,-46.1755 474.5,-46.1754"/>
<text text-anchor="middle" x="493" y="-57.8" font-family="Times,serif" font-size="14.00">1 (97.5)</text>
</g>
<!-- 030 -->
<g id="node15" class="node"><title>030</title>
<ellipse fill="#ff8a8a" stroke="#b43f3f" cx="562" cy="-18" rx="36.2938" ry="18"/>
<text text-anchor="middle" x="562" y="-14.3" font-family="Times,serif" font-size="14.00">030 (a)</text>
</g>
<!-- 07&#45;&gt;030 -->
<g id="edge13" class="edge"><title>07&#45;&gt;030</title>
<path fill="none" stroke="#b43f3f" stroke-dasharray="1,5" d="M491.419,-90.6717C500.263,-84.5121 510.511,-76.8337 519,-69 527.544,-61.1154 536.076,-51.6186 543.26,-43.0293"/>
<polygon fill="#b43f3f" stroke="#b43f3f" points="546.077,-45.1135 549.692,-35.1545 540.656,-40.6853 546.077,-45.1135"/>
<text text-anchor="middle" x="555" y="-57.8" font-family="Times,serif" font-size="14.00">1 (95.1)</text>
</g>
<!-- 013 -->
<g id="node16" class="node"><title>013</title>
<ellipse fill="#ff8a8a" stroke="#b43f3f" cx="653" cy="-18" rx="36.2938" ry="18"/>
<text text-anchor="middle" x="653" y="-14.3" font-family="Times,serif" font-size="14.00">013 (a)</text>
</g>
<!-- 031&#45;&gt;013 -->
<g id="edge14" class="edge"><title>031&#45;&gt;013</title>
<path fill="none" stroke="#b43f3f" stroke-dasharray="1,5" d="M611.833,-87.6111C619.242,-75.2642 629.53,-58.1167 637.968,-44.0534"/>
<polygon fill="#b43f3f" stroke="#b43f3f" points="641.053,-45.7142 643.197,-35.3385 635.051,-42.1127 641.053,-45.7142"/>
<text text-anchor="middle" x="653" y="-57.8" font-family="Times,serif" font-size="14.00">1 (97.1)</text>
</g>
<!-- 02 -->
<g id="node17" class="node"><title>02</title>
<ellipse fill="#ff8a8a" stroke="#b43f3f" cx="739" cy="-18" rx="31.6951" ry="18"/>
<text text-anchor="middle" x="739" y="-14.3" font-family="Times,serif" font-size="14.00">02 (a)</text>
</g>
<!-- 011&#45;&gt;02 -->
<g id="edge15" class="edge"><title>011&#45;&gt;02</title>
<path fill="none" stroke="#b43f3f" stroke-dasharray="1,5" d="M702.088,-87.2067C708.683,-75.0205 717.722,-58.3176 725.205,-44.491"/>
<polygon fill="#b43f3f" stroke="#b43f3f" points="728.406,-45.9297 730.087,-35.4692 722.25,-42.598 728.406,-45.9297"/>
<text text-anchor="middle" x="740" y="-57.8" font-family="Times,serif" font-size="14.00">1 (86.5)</text>
</g>
<!-- 03 -->
<g id="node18" class="node"><title>03</title>
<ellipse fill="#72fe95" stroke="#27b34a" cx="875" cy="-192" rx="31.6951" ry="18"/>
<text text-anchor="middle" x="875" y="-188.3" font-family="Times,serif" font-size="14.00">03 (c)</text>
</g>
<!-- 032 -->
<g id="node19" class="node"><title>032</title>
<ellipse fill="#72fe95" stroke="#27b34a" cx="875" cy="-105" rx="36.2938" ry="18"/>
<text text-anchor="middle" x="875" y="-101.3" font-family="Times,serif" font-size="14.00">032 (c)</text>
</g>
<!-- 03&#45;&gt;032 -->
<g id="edge16" class="edge"><title>03&#45;&gt;032</title>
<path fill="none" stroke="#27b34a" stroke-dasharray="1,5" d="M875,-173.799C875,-162.163 875,-146.548 875,-133.237"/>
<polygon fill="#27b34a" stroke="#27b34a" points="878.5,-133.175 875,-123.175 871.5,-133.175 878.5,-133.175"/>
<text text-anchor="middle" x="897" y="-144.8" font-family="Times,serif" font-size="14.00">1 (91.7)</text>
</g>
<!-- 021 -->
<g id="node20" class="node"><title>021</title>
<ellipse fill="#ff86c2" stroke="#b43b77" cx="1011" cy="-192" rx="36.2938" ry="18"/>
<text text-anchor="middle" x="1011" y="-188.3" font-family="Times,serif" font-size="14.00">021 (d)</text>
</g>
<!-- 036 -->
<g id="node21" class="node"><title>036</title>
<ellipse fill="#ff86c2" stroke="#b43b77" cx="966" cy="-105" rx="36.2938" ry="18"/>
<text text-anchor="middle" x="966" y="-101.3" font-family="Times,serif" font-size="14.00">036 (d)</text>
</g>
<!-- 021&#45;&gt;036 -->
<g id="edge17" class="edge"><title>021&#45;&gt;036</title>
<path fill="none" stroke="#b43b77" stroke-dasharray="1,5" d="M1001.25,-174.371C997.926,-168.593 994.236,-162.047 991,-156 986.833,-148.213 982.469,-139.645 978.575,-131.834"/>
<polygon fill="#b43b77" stroke="#b43b77" points="981.672,-130.2 974.104,-122.785 975.397,-133.301 981.672,-130.2"/>
<text text-anchor="middle" x="1013" y="-144.8" font-family="Times,serif" font-size="14.00">1 (97.6)</text>
</g>
<!-- 047 -->
<g id="node22" class="node"><title>047</title>
<ellipse fill="#ff86c2" stroke="#b43b77" cx="1057" cy="-105" rx="36.2938" ry="18"/>
<text text-anchor="middle" x="1057" y="-101.3" font-family="Times,serif" font-size="14.00">047 (d)</text>
</g>
<!-- 021&#45;&gt;047 -->
<g id="edge18" class="edge"><title>021&#45;&gt;047</title>
<path fill="none" stroke="#b43b77" stroke-dasharray="1,5" d="M1023.13,-174.67C1027.15,-168.917 1031.49,-162.309 1035,-156 1039.15,-148.542 1043.1,-140.148 1046.48,-132.398"/>
<polygon fill="#b43b77" stroke="#b43b77" points="1049.76,-133.619 1050.43,-123.044 1043.31,-130.897 1049.76,-133.619"/>
<text text-anchor="middle" x="1064" y="-144.8" font-family="Times,serif" font-size="14.00">1 (95.1)</text>
</g>
<!-- P75 -->
<g id="node23" class="node"><title>P75</title>
<ellipse fill="#cea8f4" stroke="#835da9" cx="1102" cy="-192" rx="37.0935" ry="18"/>
<text text-anchor="middle" x="1102" y="-188.3" font-family="Times,serif" font-size="14.00">P75 (b)</text>
</g>
<!-- 091 -->
<g id="node24" class="node"><title>091</title>
<ellipse fill="#ff86c2" stroke="#b43b77" cx="1193" cy="-192" rx="36.2938" ry="18"/>
<text text-anchor="middle" x="1193" y="-188.3" font-family="Times,serif" font-size="14.00">091 (d)</text>
</g>
<!-- 022 -->
<g id="node25" class="node"><title>022</title>
<ellipse fill="#a9c5eb" stroke="#5e7aa0" cx="1284" cy="-192" rx="36.2938" ry="18"/>
<text text-anchor="middle" x="1284" y="-188.3" font-family="Times,serif" font-size="14.00">022 (e)</text>
</g>
<!-- 017 -->
<g id="node26" class="node"><title>017</title>
<ellipse fill="#80b584" stroke="#356a39" cx="1373" cy="-192" rx="35.194" ry="18"/>
<text text-anchor="middle" x="1373" y="-188.3" font-family="Times,serif" font-size="14.00">017 (f)</text>
</g>
<!-- 044 -->
<g id="node27" class="node"><title>044</title>
<ellipse fill="#ea8dfe" stroke="#9f42b3" cx="1462" cy="-192" rx="36.2938" ry="18"/>
<text text-anchor="middle" x="1462" y="-188.3" font-family="Times,serif" font-size="14.00">044 (g)</text>
</g>
<!-- 019 -->
<g id="node28" class="node"><title>019</title>
<ellipse fill="#8c8cff" stroke="#4141b4" cx="1553" cy="-192" rx="36.2938" ry="18"/>
<text text-anchor="middle" x="1553" y="-188.3" font-family="Times,serif" font-size="14.00">019 (h)</text>
</g>
<!-- 0141 -->
<g id="node29" class="node"><title>0141</title>
<ellipse fill="#36f200" stroke="#00a700" cx="1646" cy="-192" rx="38.9931" ry="18"/>
<text text-anchor="middle" x="1646" y="-188.3" font-family="Times,serif" font-size="14.00">0141 (i)</text>
</g>
</g>
</svg>
