<?xml version="1.0" encoding="UTF-8" standalone="no"?>
<!DOCTYPE svg PUBLIC "-//W3C//DTD SVG 1.1//EN"
 "http://www.w3.org/Graphics/SVG/1.1/DTD/svg11.dtd">
<!-- Generated by graphviz version 2.38.0 (20140413.2041)
 -->
<!-- Title: G Pages: 1 -->
<svg width="1087pt" height="188pt"
 viewBox="0.00 0.00 1087.44 188.00" xmlns="http://www.w3.org/2000/svg" xmlns:xlink="http://www.w3.org/1999/xlink">
<g id="graph0" class="graph" transform="scale(1 1) rotate(0) translate(4 184)">
<title>G</title>
<polygon fill="white" stroke="none" points="-4,4 -4,-184 1083.44,-184 1083.44,4 -4,4"/>
<!-- 07/&#45;1 (a) -->
<g id="node1" class="node"><title>07/&#45;1 (a)</title>
<ellipse fill="#ff8a8a" stroke="#b43f3f" cx="229.397" cy="-90" rx="41.6928" ry="18"/>
<text text-anchor="middle" x="229.397" y="-86.3" font-family="Times,serif" font-size="14.00">07/&#45;1 (a)</text>
</g>
<!-- 034 (a) -->
<g id="node6" class="node"><title>034 (a)</title>
<ellipse fill="#ff8a8a" stroke="#b43f3f" cx="36.3968" cy="-18" rx="36.2938" ry="18"/>
<text text-anchor="middle" x="36.3968" y="-14.3" font-family="Times,serif" font-size="14.00">034 (a)</text>
</g>
<!-- 07/&#45;1 (a)&#45;&gt;034 (a) -->
<g id="edge4" class="edge"><title>07/&#45;1 (a)&#45;&gt;034 (a)</title>
<path fill="none" stroke="black" d="M198.399,-77.9046C168.631,-67.2305 122.407,-50.6055 82.3968,-36 79.6975,-35.0146 76.9105,-33.9936 74.1057,-32.9635"/>
<polygon fill="black" stroke="black" points="75.1966,-29.6355 64.6031,-29.4644 72.7777,-36.2043 75.1966,-29.6355"/>
</g>
<!-- 037 (a) -->
<g id="node12" class="node"><title>037 (a)</title>
<ellipse fill="#ff8a8a" stroke="#b43f3f" cx="127.397" cy="-18" rx="36.2938" ry="18"/>
<text text-anchor="middle" x="127.397" y="-14.3" font-family="Times,serif" font-size="14.00">037 (a)</text>
</g>
<!-- 07/&#45;1 (a)&#45;&gt;037 (a) -->
<g id="edge2" class="edge"><title>07/&#45;1 (a)&#45;&gt;037 (a)</title>
<path fill="none" stroke="black" d="M208.262,-74.496C193.156,-64.1291 172.653,-50.0582 156.072,-38.6791"/>
<polygon fill="black" stroke="black" points="158.034,-35.7805 147.808,-33.0078 154.073,-41.5521 158.034,-35.7805"/>
</g>
<!-- 0211/2 (a) -->
<g id="node14" class="node"><title>0211/2 (a)</title>
<ellipse fill="#ff8a8a" stroke="#b43f3f" cx="229.397" cy="-18" rx="47.3916" ry="18"/>
<text text-anchor="middle" x="229.397" y="-14.3" font-family="Times,serif" font-size="14.00">0211/2 (a)</text>
</g>
<!-- 07/&#45;1 (a)&#45;&gt;0211/2 (a) -->
<g id="edge1" class="edge"><title>07/&#45;1 (a)&#45;&gt;0211/2 (a)</title>
<path fill="none" stroke="black" d="M229.397,-71.6966C229.397,-63.9827 229.397,-54.7125 229.397,-46.1124"/>
<polygon fill="black" stroke="black" points="232.897,-46.1043 229.397,-36.1043 225.897,-46.1044 232.897,-46.1043"/>
</g>
<!-- 030 (a) -->
<g id="node19" class="node"><title>030 (a)</title>
<ellipse fill="#ff8a8a" stroke="#b43f3f" cx="331.397" cy="-18" rx="36.2938" ry="18"/>
<text text-anchor="middle" x="331.397" y="-14.3" font-family="Times,serif" font-size="14.00">030 (a)</text>
</g>
<!-- 07/&#45;1 (a)&#45;&gt;030 (a) -->
<g id="edge3" class="edge"><title>07/&#45;1 (a)&#45;&gt;030 (a)</title>
<path fill="none" stroke="black" d="M250.531,-74.496C265.637,-64.1291 286.141,-50.0582 302.722,-38.6791"/>
<polygon fill="black" stroke="black" points="304.721,-41.5521 310.985,-33.0078 300.76,-35.7805 304.721,-41.5521"/>
</g>
<!-- 038 (a) -->
<g id="node2" class="node"><title>038 (a)</title>
<ellipse fill="#ff8a8a" stroke="#b43f3f" cx="604.397" cy="-18" rx="36.2938" ry="18"/>
<text text-anchor="middle" x="604.397" y="-14.3" font-family="Times,serif" font-size="14.00">038 (a)</text>
</g>
<!-- 021/&#45;1 (a) -->
<g id="node3" class="node"><title>021/&#45;1 (a)</title>
<ellipse fill="#ff8a8a" stroke="#b43f3f" cx="475.397" cy="-90" rx="46.2923" ry="18"/>
<text text-anchor="middle" x="475.397" y="-86.3" font-family="Times,serif" font-size="14.00">021/&#45;1 (a)</text>
</g>
<!-- 036 (a) -->
<g id="node7" class="node"><title>036 (a)</title>
<ellipse fill="#ff8a8a" stroke="#b43f3f" cx="422.397" cy="-18" rx="36.2938" ry="18"/>
<text text-anchor="middle" x="422.397" y="-14.3" font-family="Times,serif" font-size="14.00">036 (a)</text>
</g>
<!-- 021/&#45;1 (a)&#45;&gt;036 (a) -->
<g id="edge5" class="edge"><title>021/&#45;1 (a)&#45;&gt;036 (a)</title>
<path fill="none" stroke="black" d="M462.837,-72.411C456.207,-63.6554 447.951,-52.751 440.63,-43.082"/>
<polygon fill="black" stroke="black" points="443.329,-40.848 434.502,-34.9881 437.748,-45.0735 443.329,-40.848"/>
</g>
<!-- 047 (a) -->
<g id="node11" class="node"><title>047 (a)</title>
<ellipse fill="#ff8a8a" stroke="#b43f3f" cx="513.397" cy="-18" rx="36.2938" ry="18"/>
<text text-anchor="middle" x="513.397" y="-14.3" font-family="Times,serif" font-size="14.00">047 (a)</text>
</g>
<!-- 021/&#45;1 (a)&#45;&gt;047 (a) -->
<g id="edge6" class="edge"><title>021/&#45;1 (a)&#45;&gt;047 (a)</title>
<path fill="none" stroke="black" d="M484.596,-72.055C489.03,-63.8866 494.445,-53.9116 499.378,-44.8244"/>
<polygon fill="black" stroke="black" points="502.588,-46.2474 504.283,-35.789 496.436,-42.9077 502.588,-46.2474"/>
</g>
<!-- 045/&#45;1 (a) -->
<g id="node4" class="node"><title>045/&#45;1 (a)</title>
<ellipse fill="#ff8a8a" stroke="#b43f3f" cx="585.397" cy="-90" rx="46.2923" ry="18"/>
<text text-anchor="middle" x="585.397" y="-86.3" font-family="Times,serif" font-size="14.00">045/&#45;1 (a)</text>
</g>
<!-- 045/&#45;1 (a)&#45;&gt;038 (a) -->
<g id="edge7" class="edge"><title>045/&#45;1 (a)&#45;&gt;038 (a)</title>
<path fill="none" stroke="black" d="M589.996,-72.055C592.112,-64.2609 594.674,-54.8219 597.047,-46.0789"/>
<polygon fill="black" stroke="black" points="600.466,-46.843 599.708,-36.2753 593.71,-45.0093 600.466,-46.843"/>
</g>
<!-- 05 (c) -->
<g id="node5" class="node"><title>05 (c)</title>
<ellipse fill="#72fe95" stroke="#27b34a" cx="806.397" cy="-162" rx="31.6951" ry="18"/>
<text text-anchor="middle" x="806.397" y="-158.3" font-family="Times,serif" font-size="14.00">05 (c)</text>
</g>
<!-- 017 (a) -->
<g id="node8" class="node"><title>017 (a)</title>
<ellipse fill="#ff8a8a" stroke="#b43f3f" cx="714.397" cy="-18" rx="36.2938" ry="18"/>
<text text-anchor="middle" x="714.397" y="-14.3" font-family="Times,serif" font-size="14.00">017 (a)</text>
</g>
<!-- 011/&#45;1 (a) -->
<g id="node9" class="node"><title>011/&#45;1 (a)</title>
<ellipse fill="#ff8a8a" stroke="#b43f3f" cx="695.397" cy="-90" rx="46.2923" ry="18"/>
<text text-anchor="middle" x="695.397" y="-86.3" font-family="Times,serif" font-size="14.00">011/&#45;1 (a)</text>
</g>
<!-- OL_PARENT -->
<g id="node10" class="node"><title>OL_PARENT</title>
<ellipse fill="none" stroke="black" cx="695.397" cy="-162" rx="61.1893" ry="18"/>
<text text-anchor="middle" x="695.397" y="-158.3" font-family="Times,serif" font-size="14.00">OL_PARENT</text>
</g>
<!-- OL_PARENT&#45;&gt;07/&#45;1 (a) -->
<g id="edge8" class="edge"><title>OL_PARENT&#45;&gt;07/&#45;1 (a)</title>
<path fill="none" stroke="black" d="M642.394,-153.038C551.296,-139.354 366.338,-111.571 278.211,-98.3326"/>
<polygon fill="black" stroke="black" points="278.619,-94.8547 268.21,-96.8303 277.579,-101.777 278.619,-94.8547"/>
</g>
<!-- OL_PARENT&#45;&gt;021/&#45;1 (a) -->
<g id="edge11" class="edge"><title>OL_PARENT&#45;&gt;021/&#45;1 (a)</title>
<path fill="none" stroke="black" d="M655.556,-148.324C617.202,-136.12 559.316,-117.702 519.569,-105.055"/>
<polygon fill="black" stroke="black" points="520.468,-101.668 509.878,-101.971 518.346,-108.339 520.468,-101.668"/>
</g>
<!-- OL_PARENT&#45;&gt;045/&#45;1 (a) -->
<g id="edge12" class="edge"><title>OL_PARENT&#45;&gt;045/&#45;1 (a)</title>
<path fill="none" stroke="black" d="M670.984,-145.465C655.138,-135.381 634.324,-122.136 617.19,-111.232"/>
<polygon fill="black" stroke="black" points="618.927,-108.189 608.612,-105.773 615.169,-114.095 618.927,-108.189"/>
</g>
<!-- OL_PARENT&#45;&gt;011/&#45;1 (a) -->
<g id="edge9" class="edge"><title>OL_PARENT&#45;&gt;011/&#45;1 (a)</title>
<path fill="none" stroke="black" d="M695.397,-143.697C695.397,-135.983 695.397,-126.712 695.397,-118.112"/>
<polygon fill="black" stroke="black" points="698.897,-118.104 695.397,-108.104 691.897,-118.104 698.897,-118.104"/>
</g>
<!-- 031/&#45;1 (a) -->
<g id="node13" class="node"><title>031/&#45;1 (a)</title>
<ellipse fill="#ff8a8a" stroke="#b43f3f" cx="805.397" cy="-90" rx="46.2923" ry="18"/>
<text text-anchor="middle" x="805.397" y="-86.3" font-family="Times,serif" font-size="14.00">031/&#45;1 (a)</text>
</g>
<!-- OL_PARENT&#45;&gt;031/&#45;1 (a) -->
<g id="edge10" class="edge"><title>OL_PARENT&#45;&gt;031/&#45;1 (a)</title>
<path fill="none" stroke="black" d="M719.809,-145.465C735.656,-135.381 756.469,-122.136 773.603,-111.232"/>
<polygon fill="black" stroke="black" points="775.624,-114.095 782.182,-105.773 771.866,-108.189 775.624,-114.095"/>
</g>
<!-- 028/&#45;1 (a) -->
<g id="node15" class="node"><title>028/&#45;1 (a)</title>
<ellipse fill="#ff8a8a" stroke="#b43f3f" cx="915.397" cy="-90" rx="46.2923" ry="18"/>
<text text-anchor="middle" x="915.397" y="-86.3" font-family="Times,serif" font-size="14.00">028/&#45;1 (a)</text>
</g>
<!-- OL_PARENT&#45;&gt;028/&#45;1 (a) -->
<g id="edge13" class="edge"><title>OL_PARENT&#45;&gt;028/&#45;1 (a)</title>
<path fill="none" stroke="black" d="M735.237,-148.324C773.592,-136.12 831.477,-117.702 871.224,-105.055"/>
<polygon fill="black" stroke="black" points="872.448,-108.339 880.916,-101.971 870.325,-101.668 872.448,-108.339"/>
</g>
<!-- 0141/&#45;1 (a) -->
<g id="node16" class="node"><title>0141/&#45;1 (a)</title>
<ellipse fill="#ff8a8a" stroke="#b43f3f" cx="1029.4" cy="-90" rx="50.0912" ry="18"/>
<text text-anchor="middle" x="1029.4" y="-86.3" font-family="Times,serif" font-size="14.00">0141/&#45;1 (a)</text>
</g>
<!-- OL_PARENT&#45;&gt;0141/&#45;1 (a) -->
<g id="edge14" class="edge"><title>OL_PARENT&#45;&gt;0141/&#45;1 (a)</title>
<path fill="none" stroke="black" d="M740.111,-149.687C748.492,-147.696 757.195,-145.714 765.397,-144 855.945,-125.075 880.268,-128.836 970.397,-108 974.428,-107.068 978.593,-106.028 982.758,-104.934"/>
<polygon fill="black" stroke="black" points="983.684,-108.309 992.416,-102.309 981.848,-101.554 983.684,-108.309"/>
</g>
<!-- 031/&#45;1 (a)&#45;&gt;017 (a) -->
<g id="edge16" class="edge"><title>031/&#45;1 (a)&#45;&gt;017 (a)</title>
<path fill="none" stroke="black" d="M785.201,-73.4647C772.366,-63.5915 755.591,-50.6881 741.592,-39.9192"/>
<polygon fill="black" stroke="black" points="743.354,-36.8589 733.293,-33.5359 739.086,-42.4073 743.354,-36.8589"/>
</g>
<!-- 013 (a) -->
<g id="node17" class="node"><title>013 (a)</title>
<ellipse fill="#ff8a8a" stroke="#b43f3f" cx="805.397" cy="-18" rx="36.2938" ry="18"/>
<text text-anchor="middle" x="805.397" y="-14.3" font-family="Times,serif" font-size="14.00">013 (a)</text>
</g>
<!-- 031/&#45;1 (a)&#45;&gt;013 (a) -->
<g id="edge15" class="edge"><title>031/&#45;1 (a)&#45;&gt;013 (a)</title>
<path fill="none" stroke="black" d="M805.397,-71.6966C805.397,-63.9827 805.397,-54.7125 805.397,-46.1124"/>
<polygon fill="black" stroke="black" points="808.897,-46.1043 805.397,-36.1043 801.897,-46.1044 808.897,-46.1043"/>
</g>
<!-- 01/2 (b) -->
<g id="node18" class="node"><title>01/2 (b)</title>
<ellipse fill="#cea8f4" stroke="#835da9" cx="898.397" cy="-18" rx="38.9931" ry="18"/>
<text text-anchor="middle" x="898.397" y="-14.3" font-family="Times,serif" font-size="14.00">01/2 (b)</text>
</g>
<!-- 031/&#45;1 (a)&#45;&gt;01/2 (b) -->
<g id="edge17" class="edge"><title>031/&#45;1 (a)&#45;&gt;01/2 (b)</title>
<path fill="none" stroke="black" d="M825.576,-73.811C838.795,-63.8616 856.245,-50.7273 870.749,-39.8103"/>
<polygon fill="black" stroke="black" points="873.009,-42.4898 878.894,-33.6796 868.799,-36.897 873.009,-42.4898"/>
</g>
</g>
</svg>
