<?xml version="1.0" encoding="UTF-8" standalone="no"?>
<!DOCTYPE svg PUBLIC "-//W3C//DTD SVG 1.1//EN"
 "http://www.w3.org/Graphics/SVG/1.1/DTD/svg11.dtd">
<!-- Generated by graphviz version 2.38.0 (20140413.2041)
 -->
<!-- Title: %3 Pages: 1 -->
<svg width="1668pt" height="234pt"
 viewBox="0.00 0.00 1668.00 234.00" xmlns="http://www.w3.org/2000/svg" xmlns:xlink="http://www.w3.org/1999/xlink">
<g id="graph0" class="graph" transform="scale(1 1) rotate(0) translate(4 230)">
<title>%3</title>
<polygon fill="white" stroke="none" points="-4,4 -4,-230 1664,-230 1664,4 -4,4"/>
<g id="clust1" class="cluster"><title>cluster_legend</title>
<path fill="none" stroke="black" d="M20,-90C20,-90 210,-90 210,-90 216,-90 222,-96 222,-102 222,-102 222,-206 222,-206 222,-212 216,-218 210,-218 210,-218 20,-218 20,-218 14,-218 8,-212 8,-206 8,-206 8,-102 8,-102 8,-96 14,-90 20,-90"/>
</g>
<!-- leg_s -->
<g id="node1" class="node"><title>leg_s</title>
<text text-anchor="middle" x="115" y="-188.3" font-family="Times,serif" font-size="14.00">Textual flow strength</text>
</g>
<!-- leg_e1 -->
<!-- leg_s&#45;&gt;leg_e1 -->
<g id="edge1" class="edge"><title>leg_s&#45;&gt;leg_e1</title>
<path fill="none" stroke="black" stroke-dasharray="1,5" d="M96.6657,-173.686C91.1324,-168.194 85.1607,-161.989 80,-156 70.1708,-144.593 60.0722,-130.779 52.9137,-120.563"/>
<polygon fill="black" stroke="black" points="55.6142,-118.314 47.056,-112.068 49.8514,-122.288 55.6142,-118.314"/>
<text text-anchor="middle" x="95.5" y="-144.8" font-family="Times,serif" font-size="14.00">&lt;=5 &#160;</text>
</g>
<!-- leg_e2 -->
<!-- leg_s&#45;&gt;leg_e2 -->
<g id="edge2" class="edge"><title>leg_s&#45;&gt;leg_e2</title>
<path fill="none" stroke="black" stroke-dasharray="5,2" d="M115,-173.799C115,-158.794 115,-137.174 115,-122.409"/>
<polygon fill="black" stroke="black" points="118.5,-122.293 115,-112.293 111.5,-122.293 118.5,-122.293"/>
<text text-anchor="middle" x="134" y="-144.8" font-family="Times,serif" font-size="14.00"> &#160;&lt;=25</text>
</g>
<!-- leg_e3 -->
<!-- leg_s&#45;&gt;leg_e3 -->
<g id="edge3" class="edge"><title>leg_s&#45;&gt;leg_e3</title>
<path fill="none" stroke="black" d="M138.503,-173.76C144.906,-168.462 151.567,-162.344 157,-156 166.087,-145.39 174.095,-131.689 179.546,-121.313"/>
<polygon fill="black" stroke="black" points="182.722,-122.789 184.091,-112.283 176.469,-119.642 182.722,-122.789"/>
<text text-anchor="middle" x="179" y="-144.8" font-family="Times,serif" font-size="14.00">&gt;25</text>
</g>
<!-- 063 -->
<g id="node5" class="node"><title>063</title>
<ellipse fill="#ff8a8a" stroke="#b43f3f" cx="577" cy="-192" rx="36.2938" ry="18"/>
<text text-anchor="middle" x="577" y="-188.3" font-family="Times,serif" font-size="14.00">063 (a)</text>
</g>
<!-- 045 -->
<g id="node6" class="node"><title>045</title>
<ellipse fill="#ff8a8a" stroke="#b43f3f" cx="268" cy="-105" rx="36.2938" ry="18"/>
<text text-anchor="middle" x="268" y="-101.3" font-family="Times,serif" font-size="14.00">045 (a)</text>
</g>
<!-- 063&#45;&gt;045 -->
<g id="edge4" class="edge"><title>063&#45;&gt;045</title>
<path fill="none" stroke="#b43f3f" stroke-dasharray="1,5" d="M545.957,-182.461C489.853,-167.027 371.594,-134.497 308.947,-117.264"/>
<polygon fill="#b43f3f" stroke="#b43f3f" points="309.592,-113.811 299.022,-114.534 307.736,-120.561 309.592,-113.811"/>
<text text-anchor="middle" x="464" y="-144.8" font-family="Times,serif" font-size="14.00">1 (93.1)</text>
</g>
<!-- 07 -->
<g id="node7" class="node"><title>07</title>
<ellipse fill="#ff8a8a" stroke="#b43f3f" cx="491" cy="-105" rx="31.6951" ry="18"/>
<text text-anchor="middle" x="491" y="-101.3" font-family="Times,serif" font-size="14.00">07 (a)</text>
</g>
<!-- 063&#45;&gt;07 -->
<g id="edge5" class="edge"><title>063&#45;&gt;07</title>
<path fill="none" stroke="#b43f3f" stroke-dasharray="1,5" d="M555.396,-177.25C546.74,-171.245 536.954,-163.798 529,-156 521.175,-148.329 513.638,-138.975 507.368,-130.442"/>
<polygon fill="#b43f3f" stroke="#b43f3f" points="510.206,-128.394 501.557,-122.275 504.503,-132.452 510.206,-128.394"/>
<text text-anchor="middle" x="551" y="-144.8" font-family="Times,serif" font-size="14.00">1 (96.6)</text>
</g>
<!-- 028 -->
<g id="node8" class="node"><title>028</title>
<ellipse fill="#ff8a8a" stroke="#b43f3f" cx="577" cy="-105" rx="36.2938" ry="18"/>
<text text-anchor="middle" x="577" y="-101.3" font-family="Times,serif" font-size="14.00">028 (a)</text>
</g>
<!-- 063&#45;&gt;028 -->
<g id="edge6" class="edge"><title>063&#45;&gt;028</title>
<path fill="none" stroke="#b43f3f" stroke-dasharray="1,5" d="M577,-173.799C577,-162.163 577,-146.548 577,-133.237"/>
<polygon fill="#b43f3f" stroke="#b43f3f" points="580.5,-133.175 577,-123.175 573.5,-133.175 580.5,-133.175"/>
<text text-anchor="middle" x="599" y="-144.8" font-family="Times,serif" font-size="14.00">1 (96.6)</text>
</g>
<!-- 011 -->
<g id="node9" class="node"><title>011</title>
<ellipse fill="#ff8a8a" stroke="#b43f3f" cx="668" cy="-105" rx="36.2938" ry="18"/>
<text text-anchor="middle" x="668" y="-101.3" font-family="Times,serif" font-size="14.00">011 (a)</text>
</g>
<!-- 063&#45;&gt;011 -->
<g id="edge7" class="edge"><title>063&#45;&gt;011</title>
<path fill="none" stroke="#b43f3f" stroke-dasharray="1,5" d="M598.372,-177.006C606.992,-170.963 616.814,-163.554 625,-156 633.544,-148.115 642.076,-138.619 649.26,-130.029"/>
<polygon fill="#b43f3f" stroke="#b43f3f" points="652.077,-132.113 655.692,-122.155 646.656,-127.685 652.077,-132.113"/>
<text text-anchor="middle" x="661" y="-144.8" font-family="Times,serif" font-size="14.00">1 (93.1)</text>
</g>
<!-- 031 -->
<g id="node10" class="node"><title>031</title>
<ellipse fill="#ff8a8a" stroke="#b43f3f" cx="759" cy="-105" rx="36.2938" ry="18"/>
<text text-anchor="middle" x="759" y="-101.3" font-family="Times,serif" font-size="14.00">031 (a)</text>
</g>
<!-- 063&#45;&gt;031 -->
<g id="edge8" class="edge"><title>063&#45;&gt;031</title>
<path fill="none" stroke="#b43f3f" stroke-dasharray="1,5" d="M609.267,-183.461C631.727,-177.566 662.009,-168.305 687,-156 703.128,-148.059 719.702,-136.801 732.877,-126.977"/>
<polygon fill="#b43f3f" stroke="#b43f3f" points="735.176,-129.626 741.004,-120.778 730.931,-124.06 735.176,-129.626"/>
<text text-anchor="middle" x="734" y="-144.8" font-family="Times,serif" font-size="14.00">1 (95.8)</text>
</g>
<!-- 038 -->
<g id="node11" class="node"><title>038</title>
<ellipse fill="#ff8a8a" stroke="#b43f3f" cx="213" cy="-18" rx="36.2938" ry="18"/>
<text text-anchor="middle" x="213" y="-14.3" font-family="Times,serif" font-size="14.00">038 (a)</text>
</g>
<!-- 045&#45;&gt;038 -->
<g id="edge9" class="edge"><title>045&#45;&gt;038</title>
<path fill="none" stroke="#b43f3f" stroke-dasharray="1,5" d="M253.088,-88.2768C247.973,-82.4663 242.427,-75.6672 238,-69 233.038,-61.5275 228.401,-52.9336 224.5,-45.002"/>
<polygon fill="#b43f3f" stroke="#b43f3f" points="227.576,-43.3181 220.135,-35.7755 221.248,-46.3117 227.576,-43.3181"/>
<text text-anchor="middle" x="260" y="-57.8" font-family="Times,serif" font-size="14.00">1 (92.7)</text>
</g>
<!-- 034 -->
<g id="node12" class="node"><title>034</title>
<ellipse fill="#ff8a8a" stroke="#b43f3f" cx="304" cy="-18" rx="36.2938" ry="18"/>
<text text-anchor="middle" x="304" y="-14.3" font-family="Times,serif" font-size="14.00">034 (a)</text>
</g>
<!-- 07&#45;&gt;034 -->
<g id="edge10" class="edge"><title>07&#45;&gt;034</title>
<path fill="none" stroke="#b43f3f" stroke-dasharray="1,5" d="M462.286,-96.8146C440.084,-90.7588 408.872,-81.1429 383,-69 365.356,-60.7189 346.883,-49.2057 332.241,-39.3145"/>
<polygon fill="#b43f3f" stroke="#b43f3f" points="333.882,-36.1954 323.661,-33.4088 329.914,-41.9616 333.882,-36.1954"/>
<text text-anchor="middle" x="405" y="-57.8" font-family="Times,serif" font-size="14.00">1 (95.1)</text>
</g>
<!-- 0211 -->
<g id="node13" class="node"><title>0211</title>
<ellipse fill="#ff8a8a" stroke="#b43f3f" cx="399" cy="-18" rx="40.0939" ry="18"/>
<text text-anchor="middle" x="399" y="-14.3" font-family="Times,serif" font-size="14.00">0211 (a)</text>
</g>
<!-- 07&#45;&gt;0211 -->
<g id="edge11" class="edge"><title>07&#45;&gt;0211</title>
<path fill="none" stroke="#b43f3f" stroke-dasharray="1,5" d="M471.597,-90.4194C463.153,-84.2131 453.309,-76.5679 445,-69 436.053,-60.8516 426.89,-51.204 419.12,-42.5674"/>
<polygon fill="#b43f3f" stroke="#b43f3f" points="421.668,-40.1656 412.422,-34.9922 416.424,-44.8023 421.668,-40.1656"/>
<text text-anchor="middle" x="467" y="-57.8" font-family="Times,serif" font-size="14.00">2 (82.9)</text>
</g>
<!-- 030 -->
<g id="node14" class="node"><title>030</title>
<ellipse fill="#ff8a8a" stroke="#b43f3f" cx="494" cy="-18" rx="36.2938" ry="18"/>
<text text-anchor="middle" x="494" y="-14.3" font-family="Times,serif" font-size="14.00">030 (a)</text>
</g>
<!-- 07&#45;&gt;030 -->
<g id="edge12" class="edge"><title>07&#45;&gt;030</title>
<path fill="none" stroke="#b43f3f" stroke-dasharray="1,5" d="M491.607,-86.799C492.018,-75.1626 492.569,-59.5479 493.039,-46.2368"/>
<polygon fill="#b43f3f" stroke="#b43f3f" points="496.539,-46.2927 493.394,-36.1754 489.543,-46.0457 496.539,-46.2927"/>
<text text-anchor="middle" x="515" y="-57.8" font-family="Times,serif" font-size="14.00">1 (95.1)</text>
</g>
<!-- 037 -->
<g id="node15" class="node"><title>037</title>
<ellipse fill="#ff8a8a" stroke="#b43f3f" cx="585" cy="-18" rx="36.2938" ry="18"/>
<text text-anchor="middle" x="585" y="-14.3" font-family="Times,serif" font-size="14.00">037 (a)</text>
</g>
<!-- 07&#45;&gt;037 -->
<g id="edge13" class="edge"><title>07&#45;&gt;037</title>
<path fill="none" stroke="#b43f3f" stroke-dasharray="1,5" d="M511.776,-91.0752C521.098,-84.8764 531.998,-77.0548 541,-69 549.75,-61.1702 558.482,-51.6848 565.833,-43.0893"/>
<polygon fill="#b43f3f" stroke="#b43f3f" points="568.693,-45.1242 572.413,-35.2039 563.319,-40.6393 568.693,-45.1242"/>
<text text-anchor="middle" x="578" y="-57.8" font-family="Times,serif" font-size="14.00">1 (97.5)</text>
</g>
<!-- 02 -->
<g id="node16" class="node"><title>02</title>
<ellipse fill="#ff8a8a" stroke="#b43f3f" cx="671" cy="-18" rx="31.6951" ry="18"/>
<text text-anchor="middle" x="671" y="-14.3" font-family="Times,serif" font-size="14.00">02 (a)</text>
</g>
<!-- 011&#45;&gt;02 -->
<g id="edge14" class="edge"><title>011&#45;&gt;02</title>
<path fill="none" stroke="#b43f3f" stroke-dasharray="1,5" d="M668.607,-86.799C669.018,-75.1626 669.569,-59.5479 670.039,-46.2368"/>
<polygon fill="#b43f3f" stroke="#b43f3f" points="673.539,-46.2927 670.394,-36.1754 666.543,-46.0457 673.539,-46.2927"/>
<text text-anchor="middle" x="692" y="-57.8" font-family="Times,serif" font-size="14.00">1 (86.5)</text>
</g>
<!-- 013 -->
<g id="node17" class="node"><title>013</title>
<ellipse fill="#ff8a8a" stroke="#b43f3f" cx="759" cy="-18" rx="36.2938" ry="18"/>
<text text-anchor="middle" x="759" y="-14.3" font-family="Times,serif" font-size="14.00">013 (a)</text>
</g>
<!-- 031&#45;&gt;013 -->
<g id="edge15" class="edge"><title>031&#45;&gt;013</title>
<path fill="none" stroke="#b43f3f" stroke-dasharray="1,5" d="M759,-86.799C759,-75.1626 759,-59.5479 759,-46.2368"/>
<polygon fill="#b43f3f" stroke="#b43f3f" points="762.5,-46.1754 759,-36.1754 755.5,-46.1755 762.5,-46.1754"/>
<text text-anchor="middle" x="781" y="-57.8" font-family="Times,serif" font-size="14.00">1 (97.1)</text>
</g>
<!-- 03 -->
<g id="node18" class="node"><title>03</title>
<ellipse fill="#72fe95" stroke="#27b34a" cx="850" cy="-192" rx="31.6951" ry="18"/>
<text text-anchor="middle" x="850" y="-188.3" font-family="Times,serif" font-size="14.00">03 (c)</text>
</g>
<!-- 032 -->
<g id="node19" class="node"><title>032</title>
<ellipse fill="#72fe95" stroke="#27b34a" cx="850" cy="-105" rx="36.2938" ry="18"/>
<text text-anchor="middle" x="850" y="-101.3" font-family="Times,serif" font-size="14.00">032 (c)</text>
</g>
<!-- 03&#45;&gt;032 -->
<g id="edge16" class="edge"><title>03&#45;&gt;032</title>
<path fill="none" stroke="#27b34a" stroke-dasharray="1,5" d="M850,-173.799C850,-162.163 850,-146.548 850,-133.237"/>
<polygon fill="#27b34a" stroke="#27b34a" points="853.5,-133.175 850,-123.175 846.5,-133.175 853.5,-133.175"/>
<text text-anchor="middle" x="872" y="-144.8" font-family="Times,serif" font-size="14.00">1 (91.7)</text>
</g>
<!-- 021 -->
<g id="node20" class="node"><title>021</title>
<ellipse fill="#ff86c2" stroke="#b43b77" cx="986" cy="-192" rx="36.2938" ry="18"/>
<text text-anchor="middle" x="986" y="-188.3" font-family="Times,serif" font-size="14.00">021 (d)</text>
</g>
<!-- 036 -->
<g id="node21" class="node"><title>036</title>
<ellipse fill="#ff86c2" stroke="#b43b77" cx="941" cy="-105" rx="36.2938" ry="18"/>
<text text-anchor="middle" x="941" y="-101.3" font-family="Times,serif" font-size="14.00">036 (d)</text>
</g>
<!-- 021&#45;&gt;036 -->
<g id="edge17" class="edge"><title>021&#45;&gt;036</title>
<path fill="none" stroke="#b43b77" stroke-dasharray="1,5" d="M976.247,-174.371C972.926,-168.593 969.236,-162.047 966,-156 961.833,-148.213 957.469,-139.645 953.575,-131.834"/>
<polygon fill="#b43b77" stroke="#b43b77" points="956.672,-130.2 949.104,-122.785 950.397,-133.301 956.672,-130.2"/>
<text text-anchor="middle" x="988" y="-144.8" font-family="Times,serif" font-size="14.00">1 (97.6)</text>
</g>
<!-- 047 -->
<g id="node22" class="node"><title>047</title>
<ellipse fill="#ff86c2" stroke="#b43b77" cx="1032" cy="-105" rx="36.2938" ry="18"/>
<text text-anchor="middle" x="1032" y="-101.3" font-family="Times,serif" font-size="14.00">047 (d)</text>
</g>
<!-- 021&#45;&gt;047 -->
<g id="edge18" class="edge"><title>021&#45;&gt;047</title>
<path fill="none" stroke="#b43b77" stroke-dasharray="1,5" d="M998.129,-174.67C1002.15,-168.917 1006.49,-162.309 1010,-156 1014.15,-148.542 1018.1,-140.148 1021.48,-132.398"/>
<polygon fill="#b43b77" stroke="#b43b77" points="1024.76,-133.619 1025.43,-123.044 1018.31,-130.897 1024.76,-133.619"/>
<text text-anchor="middle" x="1039" y="-144.8" font-family="Times,serif" font-size="14.00">1 (95.1)</text>
</g>
<!-- P75 -->
<g id="node23" class="node"><title>P75</title>
<ellipse fill="#cea8f4" stroke="#835da9" cx="1077" cy="-192" rx="37.0935" ry="18"/>
<text text-anchor="middle" x="1077" y="-188.3" font-family="Times,serif" font-size="14.00">P75 (b)</text>
</g>
<!-- 091 -->
<g id="node24" class="node"><title>091</title>
<ellipse fill="#ff86c2" stroke="#b43b77" cx="1168" cy="-192" rx="36.2938" ry="18"/>
<text text-anchor="middle" x="1168" y="-188.3" font-family="Times,serif" font-size="14.00">091 (d)</text>
</g>
<!-- 022 -->
<g id="node25" class="node"><title>022</title>
<ellipse fill="#a9c5eb" stroke="#5e7aa0" cx="1259" cy="-192" rx="36.2938" ry="18"/>
<text text-anchor="middle" x="1259" y="-188.3" font-family="Times,serif" font-size="14.00">022 (e)</text>
</g>
<!-- 017 -->
<g id="node26" class="node"><title>017</title>
<ellipse fill="#80b584" stroke="#356a39" cx="1348" cy="-192" rx="35.194" ry="18"/>
<text text-anchor="middle" x="1348" y="-188.3" font-family="Times,serif" font-size="14.00">017 (f)</text>
</g>
<!-- 044 -->
<g id="node27" class="node"><title>044</title>
<ellipse fill="#ea8dfe" stroke="#9f42b3" cx="1437" cy="-192" rx="36.2938" ry="18"/>
<text text-anchor="middle" x="1437" y="-188.3" font-family="Times,serif" font-size="14.00">044 (g)</text>
</g>
<!-- 019 -->
<g id="node28" class="node"><title>019</title>
<ellipse fill="#8c8cff" stroke="#4141b4" cx="1528" cy="-192" rx="36.2938" ry="18"/>
<text text-anchor="middle" x="1528" y="-188.3" font-family="Times,serif" font-size="14.00">019 (h)</text>
</g>
<!-- 0141 -->
<g id="node29" class="node"><title>0141</title>
<ellipse fill="#36f200" stroke="#00a700" cx="1621" cy="-192" rx="38.9931" ry="18"/>
<text text-anchor="middle" x="1621" y="-188.3" font-family="Times,serif" font-size="14.00">0141 (i)</text>
</g>
</g>
</svg>
