<?xml version="1.0" encoding="UTF-8" standalone="no"?>
<!DOCTYPE svg PUBLIC "-//W3C//DTD SVG 1.1//EN"
 "http://www.w3.org/Graphics/SVG/1.1/DTD/svg11.dtd">
<!-- Generated by graphviz version 2.38.0 (20140413.2041)
 -->
<!-- Title: %3 Pages: 1 -->
<svg width="878pt" height="424pt"
 viewBox="0.00 0.00 878.00 424.00" xmlns="http://www.w3.org/2000/svg" xmlns:xlink="http://www.w3.org/1999/xlink">
<g id="graph0" class="graph" transform="scale(1 1) rotate(0) translate(4 420)">
<title>%3</title>
<polygon fill="white" stroke="none" points="-4,4 -4,-420 874,-420 874,4 -4,4"/>
<g id="clust1" class="cluster"><title>cluster_reading</title>
<polygon fill="none" stroke="black" points="8,-8 8,-408 640,-408 640,-8 8,-8"/>
</g>
<g id="clust2" class="cluster"><title>cluster_legend</title>
<path fill="none" stroke="black" d="M660,-280C660,-280 850,-280 850,-280 856,-280 862,-286 862,-292 862,-292 862,-396 862,-396 862,-402 856,-408 850,-408 850,-408 660,-408 660,-408 654,-408 648,-402 648,-396 648,-396 648,-292 648,-292 648,-286 654,-280 660,-280"/>
</g>
<!-- 021 -->
<g id="node1" class="node"><title>021</title>
<ellipse fill="#ff8a8a" stroke="#b43f3f" cx="52" cy="-121" rx="36.2938" ry="18"/>
<text text-anchor="middle" x="52" y="-117.3" font-family="Times,serif" font-size="14.00">021 (a)</text>
</g>
<!-- 036 -->
<g id="node2" class="node"><title>036</title>
<ellipse fill="#ff8a8a" stroke="#b43f3f" cx="52" cy="-34" rx="36.2938" ry="18"/>
<text text-anchor="middle" x="52" y="-30.3" font-family="Times,serif" font-size="14.00">036 (a)</text>
</g>
<!-- 021&#45;&gt;036 -->
<g id="edge1" class="edge"><title>021&#45;&gt;036</title>
<path fill="none" stroke="#b43f3f" stroke-dasharray="1,5" d="M52,-102.799C52,-91.1626 52,-75.5479 52,-62.2368"/>
<polygon fill="#b43f3f" stroke="#b43f3f" points="55.5001,-62.1754 52,-52.1754 48.5001,-62.1755 55.5001,-62.1754"/>
<text text-anchor="middle" x="74" y="-73.8" font-family="Times,serif" font-size="14.00">1 (97.6)</text>
</g>
<!-- 047 -->
<g id="node3" class="node"><title>047</title>
<ellipse fill="#ff8a8a" stroke="#b43f3f" cx="143" cy="-34" rx="36.2938" ry="18"/>
<text text-anchor="middle" x="143" y="-30.3" font-family="Times,serif" font-size="14.00">047 (a)</text>
</g>
<!-- 021&#45;&gt;047 -->
<g id="edge2" class="edge"><title>021&#45;&gt;047</title>
<path fill="none" stroke="#b43f3f" stroke-dasharray="1,5" d="M73.3716,-106.006C81.9923,-99.9634 91.8143,-92.5539 100,-85 108.544,-77.1154 117.076,-67.6186 124.26,-59.0293"/>
<polygon fill="#b43f3f" stroke="#b43f3f" points="127.077,-61.1135 130.692,-51.1545 121.656,-56.6853 127.077,-61.1135"/>
<text text-anchor="middle" x="136" y="-73.8" font-family="Times,serif" font-size="14.00">1 (95.1)</text>
</g>
<!-- A -->
<g id="node4" class="node"><title>A</title>
<ellipse fill="#ff8a8a" stroke="#b43f3f" cx="453" cy="-382" rx="29.4969" ry="18"/>
<text text-anchor="middle" x="453" y="-378.3" font-family="Times,serif" font-size="14.00">A (a)</text>
</g>
<!-- 03 -->
<g id="node5" class="node"><title>03</title>
<ellipse fill="#ff8a8a" stroke="#b43f3f" cx="327" cy="-295" rx="31.6951" ry="18"/>
<text text-anchor="middle" x="327" y="-291.3" font-family="Times,serif" font-size="14.00">03 (a)</text>
</g>
<!-- A&#45;&gt;03 -->
<g id="edge3" class="edge"><title>A&#45;&gt;03</title>
<path fill="none" stroke="#b43f3f" stroke-dasharray="1,5" d="M428.603,-371.817C413.634,-365.624 394.443,-356.651 379,-346 367.724,-338.223 356.591,-327.964 347.537,-318.764"/>
<polygon fill="#b43f3f" stroke="#b43f3f" points="349.903,-316.174 340.464,-311.363 344.843,-321.01 349.903,-316.174"/>
<text text-anchor="middle" x="401" y="-334.8" font-family="Times,serif" font-size="14.00">1 (93.3)</text>
</g>
<!-- 091 -->
<g id="node6" class="node"><title>091</title>
<ellipse fill="#ff8a8a" stroke="#b43f3f" cx="414" cy="-295" rx="36.2938" ry="18"/>
<text text-anchor="middle" x="414" y="-291.3" font-family="Times,serif" font-size="14.00">091 (a)</text>
</g>
<!-- A&#45;&gt;091 -->
<g id="edge4" class="edge"><title>A&#45;&gt;091</title>
<path fill="none" stroke="#b43f3f" stroke-dasharray="1,5" d="M443.1,-364.899C439.694,-359.053 435.988,-352.328 433,-346 429.471,-338.527 426.1,-330.206 423.202,-322.531"/>
<polygon fill="#b43f3f" stroke="#b43f3f" points="426.416,-321.128 419.694,-312.939 419.842,-323.533 426.416,-321.128"/>
<text text-anchor="middle" x="455" y="-334.8" font-family="Times,serif" font-size="14.00">1 (87.5)</text>
</g>
<!-- P75 -->
<g id="node7" class="node"><title>P75</title>
<ellipse fill="#ff8a8a" stroke="#b43f3f" cx="505" cy="-295" rx="36.2938" ry="18"/>
<text text-anchor="middle" x="505" y="-291.3" font-family="Times,serif" font-size="14.00">P75 (a)</text>
</g>
<!-- A&#45;&gt;P75 -->
<g id="edge5" class="edge"><title>A&#45;&gt;P75</title>
<path fill="none" stroke="#b43f3f" stroke-dasharray="1,5" d="M464.301,-365.172C468.42,-359.237 473.035,-352.384 477,-346 481.829,-338.225 486.804,-329.58 491.195,-321.696"/>
<polygon fill="#b43f3f" stroke="#b43f3f" points="494.288,-323.336 496.039,-312.887 488.154,-319.963 494.288,-323.336"/>
<text text-anchor="middle" x="508" y="-334.8" font-family="Times,serif" font-size="14.00">1 (93.3)</text>
</g>
<!-- 019 -->
<g id="node8" class="node"><title>019</title>
<ellipse fill="#ff8a8a" stroke="#b43f3f" cx="596" cy="-295" rx="36.2938" ry="18"/>
<text text-anchor="middle" x="596" y="-291.3" font-family="Times,serif" font-size="14.00">019 (a)</text>
</g>
<!-- A&#45;&gt;019 -->
<g id="edge6" class="edge"><title>A&#45;&gt;019</title>
<path fill="none" stroke="#b43f3f" stroke-dasharray="1,5" d="M477.952,-372.238C494.42,-365.975 516.166,-356.77 534,-346 547.335,-337.947 560.94,-327.299 571.996,-317.899"/>
<polygon fill="#b43f3f" stroke="#b43f3f" points="574.302,-320.532 579.554,-311.33 569.71,-315.248 574.302,-320.532"/>
<text text-anchor="middle" x="578" y="-334.8" font-family="Times,serif" font-size="14.00">1 (93.3)</text>
</g>
<!-- 044 -->
<g id="node9" class="node"><title>044</title>
<ellipse fill="#ff8a8a" stroke="#b43f3f" cx="232" cy="-208" rx="36.2938" ry="18"/>
<text text-anchor="middle" x="232" y="-204.3" font-family="Times,serif" font-size="14.00">044 (a)</text>
</g>
<!-- 03&#45;&gt;044 -->
<g id="edge7" class="edge"><title>03&#45;&gt;044</title>
<path fill="none" stroke="#b43f3f" stroke-dasharray="1,5" d="M305.352,-281.681C295.327,-275.494 283.55,-267.51 274,-259 265.405,-251.341 257.021,-241.891 250.032,-233.276"/>
<polygon fill="#b43f3f" stroke="#b43f3f" points="252.733,-231.049 243.797,-225.358 247.233,-235.38 252.733,-231.049"/>
<text text-anchor="middle" x="296" y="-247.8" font-family="Times,serif" font-size="14.00">1 (89.2)</text>
</g>
<!-- 02 -->
<g id="node10" class="node"><title>02</title>
<ellipse fill="#ff8a8a" stroke="#b43f3f" cx="318" cy="-208" rx="31.6951" ry="18"/>
<text text-anchor="middle" x="318" y="-204.3" font-family="Times,serif" font-size="14.00">02 (a)</text>
</g>
<!-- 03&#45;&gt;02 -->
<g id="edge8" class="edge"><title>03&#45;&gt;02</title>
<path fill="none" stroke="#b43f3f" stroke-dasharray="1,5" d="M325.179,-276.799C323.947,-265.163 322.293,-249.548 320.884,-236.237"/>
<polygon fill="#b43f3f" stroke="#b43f3f" points="324.352,-235.751 319.819,-226.175 317.391,-236.488 324.352,-235.751"/>
<text text-anchor="middle" x="346" y="-247.8" font-family="Times,serif" font-size="14.00">1 (86.5)</text>
</g>
<!-- 032 -->
<g id="node11" class="node"><title>032</title>
<ellipse fill="#ff8a8a" stroke="#b43f3f" cx="404" cy="-208" rx="36.2938" ry="18"/>
<text text-anchor="middle" x="404" y="-204.3" font-family="Times,serif" font-size="14.00">032 (a)</text>
</g>
<!-- 03&#45;&gt;032 -->
<g id="edge9" class="edge"><title>03&#45;&gt;032</title>
<path fill="none" stroke="#b43f3f" stroke-dasharray="1,5" d="M347.055,-280.681C355.323,-274.636 364.663,-267.043 372,-259 378.733,-251.619 384.955,-242.659 390.088,-234.373"/>
<polygon fill="#b43f3f" stroke="#b43f3f" points="393.109,-236.14 395.203,-225.754 387.09,-232.568 393.109,-236.14"/>
<text text-anchor="middle" x="406" y="-247.8" font-family="Times,serif" font-size="14.00">1 (91.7)</text>
</g>
<!-- 05 -->
<g id="node22" class="node"><title>05</title>
<ellipse fill="#ff8a8a" stroke="#b43f3f" cx="490" cy="-208" rx="31.6951" ry="18"/>
<text text-anchor="middle" x="490" y="-204.3" font-family="Times,serif" font-size="14.00">05 (a)</text>
</g>
<!-- 091&#45;&gt;05 -->
<g id="edge21" class="edge"><title>091&#45;&gt;05</title>
<path fill="none" stroke="#b43f3f" stroke-dasharray="1,5" d="M428.295,-278.012C439.905,-265.028 456.429,-246.546 469.457,-231.976"/>
<polygon fill="#b43f3f" stroke="#b43f3f" points="472.225,-234.131 476.281,-224.344 467.006,-229.465 472.225,-234.131"/>
<text text-anchor="middle" x="479" y="-247.8" font-family="Times,serif" font-size="14.00">1 (87.5)</text>
</g>
<!-- 0211 -->
<g id="node23" class="node"><title>0211</title>
<ellipse fill="#ff8a8a" stroke="#b43f3f" cx="580" cy="-208" rx="40.0939" ry="18"/>
<text text-anchor="middle" x="580" y="-204.3" font-family="Times,serif" font-size="14.00">0211 (a)</text>
</g>
<!-- 091&#45;&gt;0211 -->
<g id="edge22" class="edge"><title>091&#45;&gt;0211</title>
<path fill="none" stroke="#b43f3f" stroke-dasharray="1,5" d="M442.125,-283.54C466.628,-274.367 499.137,-262.034 505,-259 521.189,-250.621 538.174,-239.516 551.878,-229.899"/>
<polygon fill="#b43f3f" stroke="#b43f3f" points="554.263,-232.497 560.368,-223.838 550.196,-226.8 554.263,-232.497"/>
<text text-anchor="middle" x="553" y="-247.8" font-family="Times,serif" font-size="14.00">1 (83.3)</text>
</g>
<!-- 044&#45;&gt;021 -->
<g id="edge10" class="edge"><title>044&#45;&gt;021</title>
<path fill="none" stroke="#b43f3f" stroke-dasharray="1,5" d="M199.681,-199.565C177.198,-193.717 146.909,-184.47 122,-172 106.225,-164.103 90.104,-152.848 77.315,-143.015"/>
<polygon fill="#b43f3f" stroke="#b43f3f" points="79.452,-140.243 69.4291,-136.809 75.1227,-145.744 79.452,-140.243"/>
<text text-anchor="middle" x="144" y="-160.8" font-family="Times,serif" font-size="14.00">2 (83.8)</text>
</g>
<!-- 011 -->
<g id="node12" class="node"><title>011</title>
<ellipse fill="#ff8a8a" stroke="#b43f3f" cx="143" cy="-121" rx="36.2938" ry="18"/>
<text text-anchor="middle" x="143" y="-117.3" font-family="Times,serif" font-size="14.00">011 (a)</text>
</g>
<!-- 044&#45;&gt;011 -->
<g id="edge11" class="edge"><title>044&#45;&gt;011</title>
<path fill="none" stroke="#b43f3f" stroke-dasharray="1,5" d="M210.025,-193.216C201.2,-187.205 191.198,-179.763 183,-172 174.888,-164.318 166.98,-154.962 160.367,-146.43"/>
<polygon fill="#b43f3f" stroke="#b43f3f" points="163.034,-144.153 154.225,-138.265 157.44,-148.361 163.034,-144.153"/>
<text text-anchor="middle" x="205" y="-160.8" font-family="Times,serif" font-size="14.00">2 (86.5)</text>
</g>
<!-- 07 -->
<g id="node13" class="node"><title>07</title>
<ellipse fill="#ff8a8a" stroke="#b43f3f" cx="229" cy="-121" rx="31.6951" ry="18"/>
<text text-anchor="middle" x="229" y="-117.3" font-family="Times,serif" font-size="14.00">07 (a)</text>
</g>
<!-- 044&#45;&gt;07 -->
<g id="edge12" class="edge"><title>044&#45;&gt;07</title>
<path fill="none" stroke="#b43f3f" stroke-dasharray="1,5" d="M231.393,-189.799C230.982,-178.163 230.431,-162.548 229.961,-149.237"/>
<polygon fill="#b43f3f" stroke="#b43f3f" points="233.457,-149.046 229.606,-139.175 226.461,-149.293 233.457,-149.046"/>
<text text-anchor="middle" x="253" y="-160.8" font-family="Times,serif" font-size="14.00">2 (83.8)</text>
</g>
<!-- 0141 -->
<g id="node14" class="node"><title>0141</title>
<ellipse fill="#ff8a8a" stroke="#b43f3f" cx="319" cy="-121" rx="40.0939" ry="18"/>
<text text-anchor="middle" x="319" y="-117.3" font-family="Times,serif" font-size="14.00">0141 (a)</text>
</g>
<!-- 044&#45;&gt;0141 -->
<g id="edge13" class="edge"><title>044&#45;&gt;0141</title>
<path fill="none" stroke="#b43f3f" stroke-dasharray="1,5" d="M253.039,-193.086C261.497,-187.056 271.097,-179.634 279,-172 286.916,-164.354 294.691,-155.144 301.251,-146.723"/>
<polygon fill="#b43f3f" stroke="#b43f3f" points="304.116,-148.737 307.366,-138.653 298.537,-144.51 304.116,-148.737"/>
<text text-anchor="middle" x="315" y="-160.8" font-family="Times,serif" font-size="14.00">1 (89.2)</text>
</g>
<!-- 022 -->
<g id="node15" class="node"><title>022</title>
<ellipse fill="#ff8a8a" stroke="#b43f3f" cx="414" cy="-121" rx="36.2938" ry="18"/>
<text text-anchor="middle" x="414" y="-117.3" font-family="Times,serif" font-size="14.00">022 (a)</text>
</g>
<!-- 044&#45;&gt;022 -->
<g id="edge14" class="edge"><title>044&#45;&gt;022</title>
<path fill="none" stroke="#b43f3f" stroke-dasharray="1,5" d="M259.471,-196.189C265.229,-194.045 271.288,-191.878 277,-190 305.069,-180.77 314.233,-184.515 341,-172 357.552,-164.261 374.482,-152.92 387.866,-142.994"/>
<polygon fill="#b43f3f" stroke="#b43f3f" points="390.266,-145.566 396.109,-136.728 386.03,-139.993 390.266,-145.566"/>
<text text-anchor="middle" x="389" y="-160.8" font-family="Times,serif" font-size="14.00">1 (91.7)</text>
</g>
<!-- 028 -->
<g id="node16" class="node"><title>028</title>
<ellipse fill="#ff8a8a" stroke="#b43f3f" cx="505" cy="-121" rx="36.2938" ry="18"/>
<text text-anchor="middle" x="505" y="-117.3" font-family="Times,serif" font-size="14.00">028 (a)</text>
</g>
<!-- 044&#45;&gt;028 -->
<g id="edge15" class="edge"><title>044&#45;&gt;028</title>
<path fill="none" stroke="#b43f3f" stroke-dasharray="1,5" d="M258.804,-195.717C264.716,-193.556 271.005,-191.502 277,-190 336.999,-174.97 356.256,-191.363 415,-172 436.628,-164.871 459.02,-152.454 476.059,-141.777"/>
<polygon fill="#b43f3f" stroke="#b43f3f" points="478.417,-144.422 484.935,-136.07 474.631,-138.535 478.417,-144.422"/>
<text text-anchor="middle" x="471" y="-160.8" font-family="Times,serif" font-size="14.00">2 (81.1)</text>
</g>
<!-- 045 -->
<g id="node17" class="node"><title>045</title>
<ellipse fill="#ff8a8a" stroke="#b43f3f" cx="596" cy="-121" rx="36.2938" ry="18"/>
<text text-anchor="middle" x="596" y="-117.3" font-family="Times,serif" font-size="14.00">045 (a)</text>
</g>
<!-- 044&#45;&gt;045 -->
<g id="edge16" class="edge"><title>044&#45;&gt;045</title>
<path fill="none" stroke="#b43f3f" stroke-dasharray="1,5" d="M258.752,-195.498C264.667,-193.35 270.971,-191.357 277,-190 372.709,-168.455 402.573,-198.608 497,-172 521.369,-165.133 546.821,-152.131 565.816,-141.106"/>
<polygon fill="#b43f3f" stroke="#b43f3f" points="567.783,-144.008 574.588,-135.889 564.205,-137.992 567.783,-144.008"/>
<text text-anchor="middle" x="556" y="-160.8" font-family="Times,serif" font-size="14.00">2 (81.1)</text>
</g>
<!-- 030 -->
<g id="node18" class="node"><title>030</title>
<ellipse fill="#ff8a8a" stroke="#b43f3f" cx="234" cy="-34" rx="36.2938" ry="18"/>
<text text-anchor="middle" x="234" y="-30.3" font-family="Times,serif" font-size="14.00">030 (a)</text>
</g>
<!-- 07&#45;&gt;030 -->
<g id="edge17" class="edge"><title>07&#45;&gt;030</title>
<path fill="none" stroke="#b43f3f" stroke-dasharray="1,5" d="M230.012,-102.799C230.696,-91.1626 231.615,-75.5479 232.398,-62.2368"/>
<polygon fill="#b43f3f" stroke="#b43f3f" points="235.896,-62.3637 232.99,-52.1754 228.908,-61.9526 235.896,-62.3637"/>
<text text-anchor="middle" x="254" y="-73.8" font-family="Times,serif" font-size="14.00">1 (95.1)</text>
</g>
<!-- 017 -->
<g id="node19" class="node"><title>017</title>
<ellipse fill="#ff8a8a" stroke="#b43f3f" cx="325" cy="-34" rx="36.2938" ry="18"/>
<text text-anchor="middle" x="325" y="-30.3" font-family="Times,serif" font-size="14.00">017 (a)</text>
</g>
<!-- 07&#45;&gt;017 -->
<g id="edge18" class="edge"><title>07&#45;&gt;017</title>
<path fill="none" stroke="#b43f3f" stroke-dasharray="1,5" d="M250.17,-107.089C259.674,-100.893 270.794,-93.0696 280,-85 289.01,-77.1022 298.026,-67.5043 305.595,-58.8374"/>
<polygon fill="#b43f3f" stroke="#b43f3f" points="308.271,-61.0942 312.099,-51.2152 302.945,-56.5506 308.271,-61.0942"/>
<text text-anchor="middle" x="317" y="-73.8" font-family="Times,serif" font-size="14.00">2 (92.7)</text>
</g>
<!-- 034 -->
<g id="node20" class="node"><title>034</title>
<ellipse fill="#ff8a8a" stroke="#b43f3f" cx="416" cy="-34" rx="36.2938" ry="18"/>
<text text-anchor="middle" x="416" y="-30.3" font-family="Times,serif" font-size="14.00">034 (a)</text>
</g>
<!-- 07&#45;&gt;034 -->
<g id="edge19" class="edge"><title>07&#45;&gt;034</title>
<path fill="none" stroke="#b43f3f" stroke-dasharray="1,5" d="M253.489,-109.139C258.871,-106.951 264.583,-104.78 270,-103 301.747,-92.5707 312.504,-98.6608 343,-85 359.675,-77.5304 376.614,-66.208 389.972,-56.2255"/>
<polygon fill="#b43f3f" stroke="#b43f3f" points="392.393,-58.779 398.194,-49.9131 388.13,-53.2266 392.393,-58.779"/>
<text text-anchor="middle" x="391" y="-73.8" font-family="Times,serif" font-size="14.00">1 (95.1)</text>
</g>
<!-- 037 -->
<g id="node21" class="node"><title>037</title>
<ellipse fill="#ff8a8a" stroke="#b43f3f" cx="507" cy="-34" rx="36.2938" ry="18"/>
<text text-anchor="middle" x="507" y="-30.3" font-family="Times,serif" font-size="14.00">037 (a)</text>
</g>
<!-- 07&#45;&gt;037 -->
<g id="edge20" class="edge"><title>07&#45;&gt;037</title>
<path fill="none" stroke="#b43f3f" stroke-dasharray="1,5" d="M252.905,-108.817C258.422,-106.595 264.337,-104.491 270,-103 333.652,-86.2409 354.407,-105.359 417,-85 438.656,-77.956 461.048,-65.539 478.08,-54.8418"/>
<polygon fill="#b43f3f" stroke="#b43f3f" points="480.445,-57.4818 486.952,-49.1209 476.651,-51.5988 480.445,-57.4818"/>
<text text-anchor="middle" x="473" y="-73.8" font-family="Times,serif" font-size="14.00">1 (97.5)</text>
</g>
<!-- leg_s -->
<g id="node24" class="node"><title>leg_s</title>
<text text-anchor="middle" x="755" y="-378.3" font-family="Times,serif" font-size="14.00">Textual flow strength</text>
</g>
<!-- leg_e1 -->
<!-- leg_s&#45;&gt;leg_e1 -->
<g id="edge23" class="edge"><title>leg_s&#45;&gt;leg_e1</title>
<path fill="none" stroke="black" stroke-dasharray="1,5" d="M736.666,-363.686C731.132,-358.194 725.161,-351.989 720,-346 710.171,-334.593 700.072,-320.779 692.914,-310.563"/>
<polygon fill="black" stroke="black" points="695.614,-308.314 687.056,-302.068 689.851,-312.288 695.614,-308.314"/>
<text text-anchor="middle" x="735.5" y="-334.8" font-family="Times,serif" font-size="14.00">&lt;=5 &#160;</text>
</g>
<!-- leg_e2 -->
<!-- leg_s&#45;&gt;leg_e2 -->
<g id="edge24" class="edge"><title>leg_s&#45;&gt;leg_e2</title>
<path fill="none" stroke="black" stroke-dasharray="5,2" d="M755,-363.799C755,-348.794 755,-327.174 755,-312.409"/>
<polygon fill="black" stroke="black" points="758.5,-312.293 755,-302.293 751.5,-312.293 758.5,-312.293"/>
<text text-anchor="middle" x="774" y="-334.8" font-family="Times,serif" font-size="14.00"> &#160;&lt;=25</text>
</g>
<!-- leg_e3 -->
<!-- leg_s&#45;&gt;leg_e3 -->
<g id="edge25" class="edge"><title>leg_s&#45;&gt;leg_e3</title>
<path fill="none" stroke="black" d="M778.503,-363.76C784.906,-358.462 791.567,-352.344 797,-346 806.087,-335.39 814.095,-321.689 819.546,-311.313"/>
<polygon fill="black" stroke="black" points="822.722,-312.789 824.091,-302.283 816.469,-309.642 822.722,-312.789"/>
<text text-anchor="middle" x="818" y="-334.8" font-family="Times,serif" font-size="14.00">&gt;25</text>
</g>
</g>
</svg>
