<?xml version="1.0" encoding="UTF-8" standalone="no"?>
<!DOCTYPE svg PUBLIC "-//W3C//DTD SVG 1.1//EN"
 "http://www.w3.org/Graphics/SVG/1.1/DTD/svg11.dtd">
<!-- Generated by graphviz version 2.38.0 (20140413.2041)
 -->
<!-- Title: G Pages: 1 -->
<svg width="1012pt" height="305pt"
 viewBox="0.00 0.00 1011.89 305.00" xmlns="http://www.w3.org/2000/svg" xmlns:xlink="http://www.w3.org/1999/xlink">
<g id="graph0" class="graph" transform="scale(1 1) rotate(0) translate(4 301)">
<title>G</title>
<polygon fill="white" stroke="none" points="-4,4 -4,-301 1007.89,-301 1007.89,4 -4,4"/>
<!-- 013 (a) -->
<g id="node1" class="node"><title>013 (a)</title>
<ellipse fill="#ff8a8a" stroke="#b43f3f" cx="701.397" cy="-18" rx="36.2938" ry="18"/>
<text text-anchor="middle" x="701.397" y="-14.3" font-family="Times,serif" font-size="14.00">013 (a)</text>
</g>
<!-- 017 (a) -->
<g id="node2" class="node"><title>017 (a)</title>
<ellipse fill="#ff8a8a" stroke="#b43f3f" cx="792.397" cy="-18" rx="36.2938" ry="18"/>
<text text-anchor="middle" x="792.397" y="-14.3" font-family="Times,serif" font-size="14.00">017 (a)</text>
</g>
<!-- 032 (a) -->
<g id="node3" class="node"><title>032 (a)</title>
<ellipse fill="#ff8a8a" stroke="#b43f3f" cx="712.397" cy="-192" rx="36.2938" ry="18"/>
<text text-anchor="middle" x="712.397" y="-188.3" font-family="Times,serif" font-size="14.00">032 (a)</text>
</g>
<!-- 021 (a) -->
<g id="node4" class="node"><title>021 (a)</title>
<ellipse fill="#ff8a8a" stroke="#b43f3f" cx="127.397" cy="-105" rx="36.2938" ry="18"/>
<text text-anchor="middle" x="127.397" y="-101.3" font-family="Times,serif" font-size="14.00">021 (a)</text>
</g>
<!-- 036 (a) -->
<g id="node7" class="node"><title>036 (a)</title>
<ellipse fill="#ff8a8a" stroke="#b43f3f" cx="36.3968" cy="-18" rx="36.2938" ry="18"/>
<text text-anchor="middle" x="36.3968" y="-14.3" font-family="Times,serif" font-size="14.00">036 (a)</text>
</g>
<!-- 021 (a)&#45;&gt;036 (a) -->
<g id="edge1" class="edge"><title>021 (a)&#45;&gt;036 (a)</title>
<path fill="none" stroke="#b43f3f" d="M106.025,-90.006C97.4044,-83.9634 87.5824,-76.5539 79.3968,-69 70.8527,-61.1154 62.3211,-51.6186 55.1364,-43.0293"/>
<polygon fill="#b43f3f" stroke="#b43f3f" points="57.741,-40.6853 48.7043,-35.1545 52.3196,-45.1135 57.741,-40.6853"/>
<text text-anchor="middle" x="101.397" y="-57.8" font-family="Times,serif" font-size="14.00">1 (97.6)</text>
</g>
<!-- 047 (a) -->
<g id="node23" class="node"><title>047 (a)</title>
<ellipse fill="#ff8a8a" stroke="#b43f3f" cx="127.397" cy="-18" rx="36.2938" ry="18"/>
<text text-anchor="middle" x="127.397" y="-14.3" font-family="Times,serif" font-size="14.00">047 (a)</text>
</g>
<!-- 021 (a)&#45;&gt;047 (a) -->
<g id="edge2" class="edge"><title>021 (a)&#45;&gt;047 (a)</title>
<path fill="none" stroke="#b43f3f" d="M127.397,-86.799C127.397,-75.1626 127.397,-59.5479 127.397,-46.2368"/>
<polygon fill="#b43f3f" stroke="#b43f3f" points="130.897,-46.1754 127.397,-36.1754 123.897,-46.1755 130.897,-46.1754"/>
<text text-anchor="middle" x="149.397" y="-57.8" font-family="Times,serif" font-size="14.00">1 (95.1)</text>
</g>
<!-- 037 (a) -->
<g id="node5" class="node"><title>037 (a)</title>
<ellipse fill="#ff8a8a" stroke="#b43f3f" cx="218.397" cy="-18" rx="36.2938" ry="18"/>
<text text-anchor="middle" x="218.397" y="-14.3" font-family="Times,serif" font-size="14.00">037 (a)</text>
</g>
<!-- 02 (a) -->
<g id="node6" class="node"><title>02 (a)</title>
<ellipse fill="#ff8a8a" stroke="#b43f3f" cx="798.397" cy="-192" rx="31.6951" ry="18"/>
<text text-anchor="middle" x="798.397" y="-188.3" font-family="Times,serif" font-size="14.00">02 (a)</text>
</g>
<!-- 07 (a) -->
<g id="node8" class="node"><title>07 (a)</title>
<ellipse fill="#ff8a8a" stroke="#b43f3f" cx="383.397" cy="-105" rx="31.6951" ry="18"/>
<text text-anchor="middle" x="383.397" y="-101.3" font-family="Times,serif" font-size="14.00">07 (a)</text>
</g>
<!-- 07 (a)&#45;&gt;037 (a) -->
<g id="edge6" class="edge"><title>07 (a)&#45;&gt;037 (a)</title>
<path fill="none" stroke="#b43f3f" d="M355.318,-96.2217C335.447,-90.1606 308.51,-80.7993 286.397,-69 271.376,-60.9851 255.983,-49.9461 243.649,-40.279"/>
<polygon fill="#b43f3f" stroke="#b43f3f" points="245.633,-37.3836 235.641,-33.8596 241.255,-42.8453 245.633,-37.3836"/>
<text text-anchor="middle" x="308.397" y="-57.8" font-family="Times,serif" font-size="14.00">1 (97.5)</text>
</g>
<!-- 034 (a) -->
<g id="node12" class="node"><title>034 (a)</title>
<ellipse fill="#ff8a8a" stroke="#b43f3f" cx="309.397" cy="-18" rx="36.2938" ry="18"/>
<text text-anchor="middle" x="309.397" y="-14.3" font-family="Times,serif" font-size="14.00">034 (a)</text>
</g>
<!-- 07 (a)&#45;&gt;034 (a) -->
<g id="edge4" class="edge"><title>07 (a)&#45;&gt;034 (a)</title>
<path fill="none" stroke="#b43f3f" d="M366.423,-89.7002C359.589,-83.6108 351.822,-76.2489 345.397,-69 338.446,-61.158 331.543,-51.9956 325.669,-43.6717"/>
<polygon fill="#b43f3f" stroke="#b43f3f" points="328.518,-41.6387 319.961,-35.3915 322.755,-45.6115 328.518,-41.6387"/>
<text text-anchor="middle" x="367.397" y="-57.8" font-family="Times,serif" font-size="14.00">1 (95.1)</text>
</g>
<!-- 0211 (a) -->
<g id="node15" class="node"><title>0211 (a)</title>
<ellipse fill="#ff8a8a" stroke="#b43f3f" cx="404.397" cy="-18" rx="40.0939" ry="18"/>
<text text-anchor="middle" x="404.397" y="-14.3" font-family="Times,serif" font-size="14.00">0211 (a)</text>
</g>
<!-- 07 (a)&#45;&gt;0211 (a) -->
<g id="edge5" class="edge"><title>07 (a)&#45;&gt;0211 (a)</title>
<path fill="none" stroke="#b43f3f" d="M387.646,-86.799C390.521,-75.1626 394.379,-59.5479 397.668,-46.2368"/>
<polygon fill="#b43f3f" stroke="#b43f3f" points="401.153,-46.723 400.153,-36.1754 394.357,-45.0441 401.153,-46.723"/>
<text text-anchor="middle" x="417.397" y="-57.8" font-family="Times,serif" font-size="14.00">2 (82.9)</text>
</g>
<!-- 030 (a) -->
<g id="node20" class="node"><title>030 (a)</title>
<ellipse fill="#ff8a8a" stroke="#b43f3f" cx="499.397" cy="-18" rx="36.2938" ry="18"/>
<text text-anchor="middle" x="499.397" y="-14.3" font-family="Times,serif" font-size="14.00">030 (a)</text>
</g>
<!-- 07 (a)&#45;&gt;030 (a) -->
<g id="edge3" class="edge"><title>07 (a)&#45;&gt;030 (a)</title>
<path fill="none" stroke="#b43f3f" d="M406.008,-92.2228C417.543,-85.8669 431.593,-77.5786 443.397,-69 454.877,-60.6563 466.723,-50.3643 476.546,-41.2911"/>
<polygon fill="#b43f3f" stroke="#b43f3f" points="479.056,-43.7357 483.945,-34.3364 474.262,-38.6352 479.056,-43.7357"/>
<text text-anchor="middle" x="483.397" y="-57.8" font-family="Times,serif" font-size="14.00">1 (95.1)</text>
</g>
<!-- 03 (a) -->
<g id="node9" class="node"><title>03 (a)</title>
<ellipse fill="#ff8a8a" stroke="#b43f3f" cx="798.397" cy="-279" rx="31.6951" ry="18"/>
<text text-anchor="middle" x="798.397" y="-275.3" font-family="Times,serif" font-size="14.00">03 (a)</text>
</g>
<!-- 03 (a)&#45;&gt;032 (a) -->
<g id="edge8" class="edge"><title>03 (a)&#45;&gt;032 (a)</title>
<path fill="none" stroke="#b43f3f" d="M777.75,-264.912C768.864,-258.796 758.645,-251.086 750.397,-243 742.572,-235.329 735.035,-225.975 728.765,-217.442"/>
<polygon fill="#b43f3f" stroke="#b43f3f" points="731.603,-215.394 722.954,-209.275 725.899,-219.452 731.603,-215.394"/>
<text text-anchor="middle" x="772.397" y="-231.8" font-family="Times,serif" font-size="14.00">1 (91.7)</text>
</g>
<!-- 03 (a)&#45;&gt;02 (a) -->
<g id="edge9" class="edge"><title>03 (a)&#45;&gt;02 (a)</title>
<path fill="none" stroke="#b43f3f" d="M798.397,-260.799C798.397,-249.163 798.397,-233.548 798.397,-220.237"/>
<polygon fill="#b43f3f" stroke="#b43f3f" points="801.897,-220.175 798.397,-210.175 794.897,-220.175 801.897,-220.175"/>
<text text-anchor="middle" x="820.397" y="-231.8" font-family="Times,serif" font-size="14.00">1 (86.5)</text>
</g>
<!-- 044 (a) -->
<g id="node24" class="node"><title>044 (a)</title>
<ellipse fill="#ff8a8a" stroke="#b43f3f" cx="884.397" cy="-192" rx="36.2938" ry="18"/>
<text text-anchor="middle" x="884.397" y="-188.3" font-family="Times,serif" font-size="14.00">044 (a)</text>
</g>
<!-- 03 (a)&#45;&gt;044 (a) -->
<g id="edge7" class="edge"><title>03 (a)&#45;&gt;044 (a)</title>
<path fill="none" stroke="#b43f3f" d="M819.044,-264.912C827.93,-258.796 838.148,-251.086 846.397,-243 854.221,-235.329 861.759,-225.975 868.029,-217.442"/>
<polygon fill="#b43f3f" stroke="#b43f3f" points="870.894,-219.452 873.84,-209.275 865.191,-215.394 870.894,-219.452"/>
<text text-anchor="middle" x="881.397" y="-231.8" font-family="Times,serif" font-size="14.00">1 (89.2)</text>
</g>
<!-- P75 (a) -->
<g id="node10" class="node"><title>P75 (a)</title>
<ellipse fill="#ff8a8a" stroke="#b43f3f" cx="884.397" cy="-279" rx="36.2938" ry="18"/>
<text text-anchor="middle" x="884.397" y="-275.3" font-family="Times,serif" font-size="14.00">P75 (a)</text>
</g>
<!-- 038 (a) -->
<g id="node11" class="node"><title>038 (a)</title>
<ellipse fill="#ff8a8a" stroke="#b43f3f" cx="590.397" cy="-18" rx="36.2938" ry="18"/>
<text text-anchor="middle" x="590.397" y="-14.3" font-family="Times,serif" font-size="14.00">038 (a)</text>
</g>
<!-- 019 (a) -->
<g id="node13" class="node"><title>019 (a)</title>
<ellipse fill="#ff8a8a" stroke="#b43f3f" cx="503.397" cy="-279" rx="36.2938" ry="18"/>
<text text-anchor="middle" x="503.397" y="-275.3" font-family="Times,serif" font-size="14.00">019 (a)</text>
</g>
<!-- 063 (a) -->
<g id="node19" class="node"><title>063 (a)</title>
<ellipse fill="#ff8a8a" stroke="#b43f3f" cx="503.397" cy="-192" rx="36.2938" ry="18"/>
<text text-anchor="middle" x="503.397" y="-188.3" font-family="Times,serif" font-size="14.00">063 (a)</text>
</g>
<!-- 019 (a)&#45;&gt;063 (a) -->
<g id="edge10" class="edge"><title>019 (a)&#45;&gt;063 (a)</title>
<path fill="none" stroke="#b43f3f" d="M503.397,-260.799C503.397,-249.163 503.397,-233.548 503.397,-220.237"/>
<polygon fill="#b43f3f" stroke="#b43f3f" points="506.897,-220.175 503.397,-210.175 499.897,-220.175 506.897,-220.175"/>
<text text-anchor="middle" x="525.397" y="-231.8" font-family="Times,serif" font-size="14.00">1 (85.7)</text>
</g>
<!-- 0141 (a) -->
<g id="node14" class="node"><title>0141 (a)</title>
<ellipse fill="#ff8a8a" stroke="#b43f3f" cx="837.397" cy="-105" rx="40.0939" ry="18"/>
<text text-anchor="middle" x="837.397" y="-101.3" font-family="Times,serif" font-size="14.00">0141 (a)</text>
</g>
<!-- 011 (a) -->
<g id="node16" class="node"><title>011 (a)</title>
<ellipse fill="#ff8a8a" stroke="#b43f3f" cx="469.397" cy="-105" rx="36.2938" ry="18"/>
<text text-anchor="middle" x="469.397" y="-101.3" font-family="Times,serif" font-size="14.00">011 (a)</text>
</g>
<!-- 045 (a) -->
<g id="node17" class="node"><title>045 (a)</title>
<ellipse fill="#ff8a8a" stroke="#b43f3f" cx="560.397" cy="-105" rx="36.2938" ry="18"/>
<text text-anchor="middle" x="560.397" y="-101.3" font-family="Times,serif" font-size="14.00">045 (a)</text>
</g>
<!-- 045 (a)&#45;&gt;038 (a) -->
<g id="edge11" class="edge"><title>045 (a)&#45;&gt;038 (a)</title>
<path fill="none" stroke="#b43f3f" d="M566.324,-87.2067C570.488,-75.4091 576.146,-59.3781 580.93,-45.8221"/>
<polygon fill="#b43f3f" stroke="#b43f3f" points="584.352,-46.6441 584.379,-36.0493 577.751,-44.3143 584.352,-46.6441"/>
<text text-anchor="middle" x="599.397" y="-57.8" font-family="Times,serif" font-size="14.00">1 (92.7)</text>
</g>
<!-- 01 (b) -->
<g id="node18" class="node"><title>01 (b)</title>
<ellipse fill="#cea8f4" stroke="#835da9" cx="971.397" cy="-279" rx="32.4942" ry="18"/>
<text text-anchor="middle" x="971.397" y="-275.3" font-family="Times,serif" font-size="14.00">01 (b)</text>
</g>
<!-- 063 (a)&#45;&gt;021 (a) -->
<g id="edge16" class="edge"><title>063 (a)&#45;&gt;021 (a)</title>
<path fill="none" stroke="#b43f3f" d="M471.014,-183.679C403.132,-168.334 245.945,-132.799 169.995,-115.63"/>
<polygon fill="#b43f3f" stroke="#b43f3f" points="170.361,-112.124 159.835,-113.333 168.817,-118.952 170.361,-112.124"/>
<text text-anchor="middle" x="360.397" y="-144.8" font-family="Times,serif" font-size="14.00">1 (93.1)</text>
</g>
<!-- 063 (a)&#45;&gt;07 (a) -->
<g id="edge15" class="edge"><title>063 (a)&#45;&gt;07 (a)</title>
<path fill="none" stroke="#b43f3f" d="M474.919,-180.569C460.536,-174.569 443.247,-166.192 429.397,-156 419.359,-148.613 409.772,-138.807 401.972,-129.837"/>
<polygon fill="#b43f3f" stroke="#b43f3f" points="404.453,-127.348 395.351,-121.927 399.086,-131.841 404.453,-127.348"/>
<text text-anchor="middle" x="451.397" y="-144.8" font-family="Times,serif" font-size="14.00">1 (96.6)</text>
</g>
<!-- 063 (a)&#45;&gt;011 (a) -->
<g id="edge14" class="edge"><title>063 (a)&#45;&gt;011 (a)</title>
<path fill="none" stroke="#b43f3f" d="M492.344,-174.778C488.792,-169.033 485.084,-162.403 482.397,-156 479.342,-148.722 476.851,-140.54 474.898,-132.934"/>
<polygon fill="#b43f3f" stroke="#b43f3f" points="478.271,-131.988 472.564,-123.061 471.458,-133.598 478.271,-131.988"/>
<text text-anchor="middle" x="504.397" y="-144.8" font-family="Times,serif" font-size="14.00">1 (93.1)</text>
</g>
<!-- 063 (a)&#45;&gt;045 (a) -->
<g id="edge12" class="edge"><title>063 (a)&#45;&gt;045 (a)</title>
<path fill="none" stroke="#b43f3f" d="M514.387,-174.611C522.746,-162.147 534.385,-144.79 543.865,-130.652"/>
<polygon fill="#b43f3f" stroke="#b43f3f" points="546.778,-132.593 549.44,-122.339 540.964,-128.695 546.778,-132.593"/>
<text text-anchor="middle" x="557.397" y="-144.8" font-family="Times,serif" font-size="14.00">1 (93.1)</text>
</g>
<!-- 028 (a) -->
<g id="node21" class="node"><title>028 (a)</title>
<ellipse fill="#ff8a8a" stroke="#b43f3f" cx="651.397" cy="-105" rx="36.2938" ry="18"/>
<text text-anchor="middle" x="651.397" y="-101.3" font-family="Times,serif" font-size="14.00">028 (a)</text>
</g>
<!-- 063 (a)&#45;&gt;028 (a) -->
<g id="edge13" class="edge"><title>063 (a)&#45;&gt;028 (a)</title>
<path fill="none" stroke="#b43f3f" d="M531.534,-180.474C547.212,-174.172 566.851,-165.544 583.397,-156 598.041,-147.552 613.298,-136.563 625.64,-127.04"/>
<polygon fill="#b43f3f" stroke="#b43f3f" points="627.972,-129.658 633.675,-120.729 623.649,-124.153 627.972,-129.658"/>
<text text-anchor="middle" x="627.397" y="-144.8" font-family="Times,serif" font-size="14.00">1 (96.6)</text>
</g>
<!-- 031 (a) -->
<g id="node25" class="node"><title>031 (a)</title>
<ellipse fill="#ff8a8a" stroke="#b43f3f" cx="742.397" cy="-105" rx="36.2938" ry="18"/>
<text text-anchor="middle" x="742.397" y="-101.3" font-family="Times,serif" font-size="14.00">031 (a)</text>
</g>
<!-- 063 (a)&#45;&gt;031 (a) -->
<g id="edge17" class="edge"><title>063 (a)&#45;&gt;031 (a)</title>
<path fill="none" stroke="#b43f3f" d="M537.88,-185.809C568.828,-180.487 615.135,-170.864 653.397,-156 674.165,-147.932 696,-135.729 712.844,-125.399"/>
<polygon fill="#b43f3f" stroke="#b43f3f" points="715.028,-128.162 721.65,-119.891 711.316,-122.227 715.028,-128.162"/>
<text text-anchor="middle" x="706.397" y="-144.8" font-family="Times,serif" font-size="14.00">1 (95.8)</text>
</g>
<!-- 022 (a) -->
<g id="node22" class="node"><title>022 (a)</title>
<ellipse fill="#ff8a8a" stroke="#b43f3f" cx="932.397" cy="-105" rx="36.2938" ry="18"/>
<text text-anchor="middle" x="932.397" y="-101.3" font-family="Times,serif" font-size="14.00">022 (a)</text>
</g>
<!-- 044 (a)&#45;&gt;0141 (a) -->
<g id="edge19" class="edge"><title>044 (a)&#45;&gt;0141 (a)</title>
<path fill="none" stroke="#b43f3f" d="M875.111,-174.207C868.416,-162.099 859.256,-145.533 851.64,-131.759"/>
<polygon fill="#b43f3f" stroke="#b43f3f" points="854.565,-129.816 846.663,-122.758 848.439,-133.203 854.565,-129.816"/>
<text text-anchor="middle" x="886.397" y="-144.8" font-family="Times,serif" font-size="14.00">1 (89.2)</text>
</g>
<!-- 044 (a)&#45;&gt;022 (a) -->
<g id="edge18" class="edge"><title>044 (a)&#45;&gt;022 (a)</title>
<path fill="none" stroke="#b43f3f" d="M897.355,-175.139C901.792,-169.316 906.592,-162.544 910.397,-156 914.687,-148.622 918.68,-140.251 922.055,-132.498"/>
<polygon fill="#b43f3f" stroke="#b43f3f" points="925.343,-133.706 925.973,-123.13 918.886,-131.004 925.343,-133.706"/>
<text text-anchor="middle" x="940.397" y="-144.8" font-family="Times,serif" font-size="14.00">1 (91.7)</text>
</g>
<!-- 031 (a)&#45;&gt;013 (a) -->
<g id="edge20" class="edge"><title>031 (a)&#45;&gt;013 (a)</title>
<path fill="none" stroke="#b43f3f" d="M734.296,-87.2067C728.513,-75.2156 720.619,-58.8511 714.014,-45.1571"/>
<polygon fill="#b43f3f" stroke="#b43f3f" points="716.977,-43.2447 709.48,-35.7584 710.672,-46.2859 716.977,-43.2447"/>
<text text-anchor="middle" x="746.397" y="-57.8" font-family="Times,serif" font-size="14.00">1 (97.1)</text>
</g>
<!-- 031 (a)&#45;&gt;017 (a) -->
<g id="edge21" class="edge"><title>031 (a)&#45;&gt;017 (a)</title>
<path fill="none" stroke="#b43f3f" d="M756.426,-88.264C761.211,-82.4523 766.365,-75.6558 770.397,-69 774.888,-61.5855 778.977,-53.0913 782.378,-45.2338"/>
<polygon fill="#b43f3f" stroke="#b43f3f" points="785.712,-46.3292 786.297,-35.7505 779.243,-43.6558 785.712,-46.3292"/>
<text text-anchor="middle" x="800.397" y="-57.8" font-family="Times,serif" font-size="14.00">1 (94.3)</text>
</g>
</g>
</svg>
