<?xml version="1.0" encoding="UTF-8" standalone="no"?>
<!DOCTYPE svg PUBLIC "-//W3C//DTD SVG 1.1//EN"
 "http://www.w3.org/Graphics/SVG/1.1/DTD/svg11.dtd">
<!-- Generated by graphviz version 2.38.0 (20140413.2041)
 -->
<!-- Title: G Pages: 1 -->
<svg width="821pt" height="332pt"
 viewBox="0.00 0.00 820.89 332.00" xmlns="http://www.w3.org/2000/svg" xmlns:xlink="http://www.w3.org/1999/xlink">
<g id="graph0" class="graph" transform="scale(1 1) rotate(0) translate(4 328)">
<title>G</title>
<polygon fill="white" stroke="none" points="-4,4 -4,-328 816.894,-328 816.894,4 -4,4"/>
<!-- 038 (a) -->
<g id="node1" class="node"><title>038 (a)</title>
<ellipse fill="#ff8a8a" stroke="#b43f3f" cx="732.397" cy="-90" rx="36.2938" ry="18"/>
<text text-anchor="middle" x="732.397" y="-86.3" font-family="Times,serif" font-size="14.00">038 (a)</text>
</g>
<!-- 032 (a) -->
<g id="node2" class="node"><title>032 (a)</title>
<ellipse fill="#ff8a8a" stroke="#b43f3f" cx="343.397" cy="-234" rx="36.2938" ry="18"/>
<text text-anchor="middle" x="343.397" y="-230.3" font-family="Times,serif" font-size="14.00">032 (a)</text>
</g>
<!-- 011/2 (a) -->
<g id="node3" class="node"><title>011/2 (a)</title>
<ellipse fill="#ff8a8a" stroke="#b43f3f" cx="137.397" cy="-162" rx="42.7926" ry="18"/>
<text text-anchor="middle" x="137.397" y="-158.3" font-family="Times,serif" font-size="14.00">011/2 (a)</text>
</g>
<!-- 05 (a) -->
<g id="node4" class="node"><title>05 (a)</title>
<ellipse fill="#ff8a8a" stroke="#b43f3f" cx="516.397" cy="-306" rx="31.6951" ry="18"/>
<text text-anchor="middle" x="516.397" y="-302.3" font-family="Times,serif" font-size="14.00">05 (a)</text>
</g>
<!-- 013 (a) -->
<g id="node5" class="node"><title>013 (a)</title>
<ellipse fill="#ff8a8a" stroke="#b43f3f" cx="590.397" cy="-18" rx="36.2938" ry="18"/>
<text text-anchor="middle" x="590.397" y="-14.3" font-family="Times,serif" font-size="14.00">013 (a)</text>
</g>
<!-- 07/2 (a) -->
<g id="node6" class="node"><title>07/2 (a)</title>
<ellipse fill="#ff8a8a" stroke="#b43f3f" cx="236.397" cy="-162" rx="38.1938" ry="18"/>
<text text-anchor="middle" x="236.397" y="-158.3" font-family="Times,serif" font-size="14.00">07/2 (a)</text>
</g>
<!-- 034 (a) -->
<g id="node17" class="node"><title>034 (a)</title>
<ellipse fill="#ff8a8a" stroke="#b43f3f" cx="36.3968" cy="-90" rx="36.2938" ry="18"/>
<text text-anchor="middle" x="36.3968" y="-86.3" font-family="Times,serif" font-size="14.00">034 (a)</text>
</g>
<!-- 07/2 (a)&#45;&gt;034 (a) -->
<g id="edge4" class="edge"><title>07/2 (a)&#45;&gt;034 (a)</title>
<path fill="none" stroke="black" d="M207.099,-150.288C201.244,-148.18 195.131,-146.002 189.397,-144 142.024,-127.466 129.712,-124.698 82.3968,-108 79.6871,-107.044 76.8924,-106.044 74.0821,-105.029"/>
<polygon fill="black" stroke="black" points="75.1626,-101.698 64.5686,-101.56 72.7647,-108.274 75.1626,-101.698"/>
</g>
<!-- 0211/2 (a) -->
<g id="node22" class="node"><title>0211/2 (a)</title>
<ellipse fill="#ff8a8a" stroke="#b43f3f" cx="138.397" cy="-90" rx="47.3916" ry="18"/>
<text text-anchor="middle" x="138.397" y="-86.3" font-family="Times,serif" font-size="14.00">0211/2 (a)</text>
</g>
<!-- 07/2 (a)&#45;&gt;0211/2 (a) -->
<g id="edge1" class="edge"><title>07/2 (a)&#45;&gt;0211/2 (a)</title>
<path fill="none" stroke="black" d="M216.091,-146.496C202.184,-136.562 183.515,-123.227 167.963,-112.119"/>
<polygon fill="black" stroke="black" points="169.865,-109.176 159.693,-106.212 165.796,-114.872 169.865,-109.176"/>
</g>
<!-- 037 (a) -->
<g id="node24" class="node"><title>037 (a)</title>
<ellipse fill="#ff8a8a" stroke="#b43f3f" cx="240.397" cy="-90" rx="36.2938" ry="18"/>
<text text-anchor="middle" x="240.397" y="-86.3" font-family="Times,serif" font-size="14.00">037 (a)</text>
</g>
<!-- 07/2 (a)&#45;&gt;037 (a) -->
<g id="edge2" class="edge"><title>07/2 (a)&#45;&gt;037 (a)</title>
<path fill="none" stroke="black" d="M237.386,-143.697C237.826,-135.983 238.356,-126.712 238.847,-118.112"/>
<polygon fill="black" stroke="black" points="242.343,-118.288 239.419,-108.104 235.354,-117.888 242.343,-118.288"/>
</g>
<!-- 030 (a) -->
<g id="node25" class="node"><title>030 (a)</title>
<ellipse fill="#ff8a8a" stroke="#b43f3f" cx="331.397" cy="-90" rx="36.2938" ry="18"/>
<text text-anchor="middle" x="331.397" y="-86.3" font-family="Times,serif" font-size="14.00">030 (a)</text>
</g>
<!-- 07/2 (a)&#45;&gt;030 (a) -->
<g id="edge3" class="edge"><title>07/2 (a)&#45;&gt;030 (a)</title>
<path fill="none" stroke="black" d="M256.081,-146.496C269.838,-136.359 288.401,-122.681 303.655,-111.441"/>
<polygon fill="black" stroke="black" points="305.764,-114.235 311.738,-105.485 301.611,-108.6 305.764,-114.235"/>
</g>
<!-- 03 (a) -->
<g id="node7" class="node"><title>03 (a)</title>
<ellipse fill="#ff8a8a" stroke="#b43f3f" cx="434.397" cy="-306" rx="31.6951" ry="18"/>
<text text-anchor="middle" x="434.397" y="-302.3" font-family="Times,serif" font-size="14.00">03 (a)</text>
</g>
<!-- 03 (a)&#45;&gt;032 (a) -->
<g id="edge5" class="edge"><title>03 (a)&#45;&gt;032 (a)</title>
<path fill="none" stroke="black" d="M415.982,-290.834C402.957,-280.816 385.278,-267.216 370.628,-255.947"/>
<polygon fill="black" stroke="black" points="372.471,-252.949 362.411,-249.626 368.203,-258.498 372.471,-252.949"/>
</g>
<!-- 044 (a) -->
<g id="node8" class="node"><title>044 (a)</title>
<ellipse fill="#ff8a8a" stroke="#b43f3f" cx="434.397" cy="-234" rx="36.2938" ry="18"/>
<text text-anchor="middle" x="434.397" y="-230.3" font-family="Times,serif" font-size="14.00">044 (a)</text>
</g>
<!-- 03 (a)&#45;&gt;044 (a) -->
<g id="edge6" class="edge"><title>03 (a)&#45;&gt;044 (a)</title>
<path fill="none" stroke="black" d="M434.397,-287.697C434.397,-279.983 434.397,-270.712 434.397,-262.112"/>
<polygon fill="black" stroke="black" points="437.897,-262.104 434.397,-252.104 430.897,-262.104 437.897,-262.104"/>
</g>
<!-- 02 (a) -->
<g id="node10" class="node"><title>02 (a)</title>
<ellipse fill="#ff8a8a" stroke="#b43f3f" cx="520.397" cy="-234" rx="31.6951" ry="18"/>
<text text-anchor="middle" x="520.397" y="-230.3" font-family="Times,serif" font-size="14.00">02 (a)</text>
</g>
<!-- 03 (a)&#45;&gt;02 (a) -->
<g id="edge7" class="edge"><title>03 (a)&#45;&gt;02 (a)</title>
<path fill="none" stroke="black" d="M451.8,-290.834C464.273,-280.682 481.263,-266.853 495.214,-255.498"/>
<polygon fill="black" stroke="black" points="497.473,-258.172 503.019,-249.144 493.054,-252.743 497.473,-258.172"/>
</g>
<!-- 044 (a)&#45;&gt;011/2 (a) -->
<g id="edge12" class="edge"><title>044 (a)&#45;&gt;011/2 (a)</title>
<path fill="none" stroke="black" d="M406.922,-221.956C400.883,-219.78 394.475,-217.659 388.397,-216 301.689,-192.331 276.539,-202.016 189.397,-180 186.026,-179.148 182.555,-178.192 179.083,-177.18"/>
<polygon fill="black" stroke="black" points="179.959,-173.788 169.373,-174.214 177.914,-180.483 179.959,-173.788"/>
</g>
<!-- 044 (a)&#45;&gt;07/2 (a) -->
<g id="edge8" class="edge"><title>044 (a)&#45;&gt;07/2 (a)</title>
<path fill="none" stroke="black" d="M406.211,-222.478C400.332,-220.313 394.169,-218.065 388.397,-216 342.343,-199.521 330.562,-196.165 284.397,-180 281.527,-178.995 278.563,-177.954 275.58,-176.903"/>
<polygon fill="black" stroke="black" points="276.682,-173.581 266.087,-173.553 274.352,-180.181 276.682,-173.581"/>
</g>
<!-- 0141 (a) -->
<g id="node9" class="node"><title>0141 (a)</title>
<ellipse fill="#ff8a8a" stroke="#b43f3f" cx="333.397" cy="-162" rx="40.0939" ry="18"/>
<text text-anchor="middle" x="333.397" y="-158.3" font-family="Times,serif" font-size="14.00">0141 (a)</text>
</g>
<!-- 044 (a)&#45;&gt;0141 (a) -->
<g id="edge11" class="edge"><title>044 (a)&#45;&gt;0141 (a)</title>
<path fill="none" stroke="black" d="M413.958,-218.834C399.367,-208.722 379.513,-194.962 363.166,-183.632"/>
<polygon fill="black" stroke="black" points="364.713,-180.446 354.5,-177.626 360.726,-186.199 364.713,-180.446"/>
</g>
<!-- 021/2 (a) -->
<g id="node13" class="node"><title>021/2 (a)</title>
<ellipse fill="#ff8a8a" stroke="#b43f3f" cx="434.397" cy="-162" rx="42.7926" ry="18"/>
<text text-anchor="middle" x="434.397" y="-158.3" font-family="Times,serif" font-size="14.00">021/2 (a)</text>
</g>
<!-- 044 (a)&#45;&gt;021/2 (a) -->
<g id="edge9" class="edge"><title>044 (a)&#45;&gt;021/2 (a)</title>
<path fill="none" stroke="black" d="M434.397,-215.697C434.397,-207.983 434.397,-198.712 434.397,-190.112"/>
<polygon fill="black" stroke="black" points="437.897,-190.104 434.397,-180.104 430.897,-190.104 437.897,-190.104"/>
</g>
<!-- 028/2 (a) -->
<g id="node16" class="node"><title>028/2 (a)</title>
<ellipse fill="#ff8a8a" stroke="#b43f3f" cx="538.397" cy="-162" rx="42.7926" ry="18"/>
<text text-anchor="middle" x="538.397" y="-158.3" font-family="Times,serif" font-size="14.00">028/2 (a)</text>
</g>
<!-- 044 (a)&#45;&gt;028/2 (a) -->
<g id="edge10" class="edge"><title>044 (a)&#45;&gt;028/2 (a)</title>
<path fill="none" stroke="black" d="M455.443,-218.834C470.606,-208.629 491.29,-194.707 508.21,-183.318"/>
<polygon fill="black" stroke="black" points="510.325,-186.114 516.666,-177.626 506.416,-180.307 510.325,-186.114"/>
</g>
<!-- 022 (a) -->
<g id="node21" class="node"><title>022 (a)</title>
<ellipse fill="#ff8a8a" stroke="#b43f3f" cx="635.397" cy="-162" rx="36.2938" ry="18"/>
<text text-anchor="middle" x="635.397" y="-158.3" font-family="Times,serif" font-size="14.00">022 (a)</text>
</g>
<!-- 044 (a)&#45;&gt;022 (a) -->
<g id="edge14" class="edge"><title>044 (a)&#45;&gt;022 (a)</title>
<path fill="none" stroke="black" d="M462.407,-222.183C468.016,-220.083 473.88,-217.935 479.397,-216 528.336,-198.831 541.458,-197.169 590.397,-180 592.81,-179.153 595.29,-178.266 597.786,-177.36"/>
<polygon fill="black" stroke="black" points="599.217,-180.563 607.387,-173.817 596.793,-173.995 599.217,-180.563"/>
</g>
<!-- 045/2 (a) -->
<g id="node23" class="node"><title>045/2 (a)</title>
<ellipse fill="#ff8a8a" stroke="#b43f3f" cx="732.397" cy="-162" rx="42.7926" ry="18"/>
<text text-anchor="middle" x="732.397" y="-158.3" font-family="Times,serif" font-size="14.00">045/2 (a)</text>
</g>
<!-- 044 (a)&#45;&gt;045/2 (a) -->
<g id="edge13" class="edge"><title>044 (a)&#45;&gt;045/2 (a)</title>
<path fill="none" stroke="black" d="M461.737,-221.756C467.505,-219.644 473.6,-217.599 479.397,-216 566.883,-191.862 592.387,-202.154 680.397,-180 683.816,-179.139 687.337,-178.171 690.859,-177.144"/>
<polygon fill="black" stroke="black" points="692.161,-180.406 700.701,-174.135 690.114,-173.711 692.161,-180.406"/>
</g>
<!-- 019 (a) -->
<g id="node11" class="node"><title>019 (a)</title>
<ellipse fill="#ff8a8a" stroke="#b43f3f" cx="602.397" cy="-306" rx="36.2938" ry="18"/>
<text text-anchor="middle" x="602.397" y="-302.3" font-family="Times,serif" font-size="14.00">019 (a)</text>
</g>
<!-- P75 (a) -->
<g id="node12" class="node"><title>P75 (a)</title>
<ellipse fill="#ff8a8a" stroke="#b43f3f" cx="693.397" cy="-306" rx="36.2938" ry="18"/>
<text text-anchor="middle" x="693.397" y="-302.3" font-family="Times,serif" font-size="14.00">P75 (a)</text>
</g>
<!-- 036 (a) -->
<g id="node18" class="node"><title>036 (a)</title>
<ellipse fill="#ff8a8a" stroke="#b43f3f" cx="426.397" cy="-90" rx="36.2938" ry="18"/>
<text text-anchor="middle" x="426.397" y="-86.3" font-family="Times,serif" font-size="14.00">036 (a)</text>
</g>
<!-- 021/2 (a)&#45;&gt;036 (a) -->
<g id="edge15" class="edge"><title>021/2 (a)&#45;&gt;036 (a)</title>
<path fill="none" stroke="black" d="M432.419,-143.697C431.538,-135.983 430.478,-126.712 429.495,-118.112"/>
<polygon fill="black" stroke="black" points="432.964,-117.642 428.352,-108.104 426.01,-118.437 432.964,-117.642"/>
</g>
<!-- 047 (a) -->
<g id="node20" class="node"><title>047 (a)</title>
<ellipse fill="#ff8a8a" stroke="#b43f3f" cx="517.397" cy="-90" rx="36.2938" ry="18"/>
<text text-anchor="middle" x="517.397" y="-86.3" font-family="Times,serif" font-size="14.00">047 (a)</text>
</g>
<!-- 021/2 (a)&#45;&gt;047 (a) -->
<g id="edge16" class="edge"><title>021/2 (a)&#45;&gt;047 (a)</title>
<path fill="none" stroke="black" d="M452.817,-145.465C464.257,-135.817 479.127,-123.275 491.715,-112.66"/>
<polygon fill="black" stroke="black" points="494.21,-115.134 499.598,-106.011 489.697,-109.783 494.21,-115.134"/>
</g>
<!-- 031/2 (a) -->
<g id="node14" class="node"><title>031/2 (a)</title>
<ellipse fill="#ff8a8a" stroke="#b43f3f" cx="635.397" cy="-90" rx="42.7926" ry="18"/>
<text text-anchor="middle" x="635.397" y="-86.3" font-family="Times,serif" font-size="14.00">031/2 (a)</text>
</g>
<!-- 031/2 (a)&#45;&gt;013 (a) -->
<g id="edge18" class="edge"><title>031/2 (a)&#45;&gt;013 (a)</title>
<path fill="none" stroke="black" d="M624.732,-72.411C619.296,-63.9549 612.572,-53.4944 606.519,-44.0783"/>
<polygon fill="black" stroke="black" points="609.336,-41.9891 600.985,-35.4699 603.448,-45.7744 609.336,-41.9891"/>
</g>
<!-- 017 (a) -->
<g id="node19" class="node"><title>017 (a)</title>
<ellipse fill="#ff8a8a" stroke="#b43f3f" cx="681.397" cy="-18" rx="36.2938" ry="18"/>
<text text-anchor="middle" x="681.397" y="-14.3" font-family="Times,serif" font-size="14.00">017 (a)</text>
</g>
<!-- 031/2 (a)&#45;&gt;017 (a) -->
<g id="edge17" class="edge"><title>031/2 (a)&#45;&gt;017 (a)</title>
<path fill="none" stroke="black" d="M646.298,-72.411C651.855,-63.9549 658.729,-53.4944 664.917,-44.0783"/>
<polygon fill="black" stroke="black" points="668.007,-45.7492 670.574,-35.4699 662.157,-41.9049 668.007,-45.7492"/>
</g>
<!-- 01 (b) -->
<g id="node15" class="node"><title>01 (b)</title>
<ellipse fill="#cea8f4" stroke="#835da9" cx="780.397" cy="-306" rx="32.4942" ry="18"/>
<text text-anchor="middle" x="780.397" y="-302.3" font-family="Times,serif" font-size="14.00">01 (b)</text>
</g>
<!-- 022 (a)&#45;&gt;031/2 (a) -->
<g id="edge19" class="edge"><title>022 (a)&#45;&gt;031/2 (a)</title>
<path fill="none" stroke="black" d="M635.397,-143.697C635.397,-135.983 635.397,-126.712 635.397,-118.112"/>
<polygon fill="black" stroke="black" points="638.897,-118.104 635.397,-108.104 631.897,-118.104 638.897,-118.104"/>
</g>
<!-- 045/2 (a)&#45;&gt;038 (a) -->
<g id="edge20" class="edge"><title>045/2 (a)&#45;&gt;038 (a)</title>
<path fill="none" stroke="black" d="M732.397,-143.697C732.397,-135.983 732.397,-126.712 732.397,-118.112"/>
<polygon fill="black" stroke="black" points="735.897,-118.104 732.397,-108.104 728.897,-118.104 735.897,-118.104"/>
</g>
</g>
</svg>
