<?xml version="1.0" encoding="UTF-8" standalone="no"?>
<!DOCTYPE svg PUBLIC "-//W3C//DTD SVG 1.1//EN"
 "http://www.w3.org/Graphics/SVG/1.1/DTD/svg11.dtd">
<!-- Generated by graphviz version 2.38.0 (20140413.2041)
 -->
<!-- Title: %3 Pages: 1 -->
<svg width="408pt" height="141pt"
 viewBox="0.00 0.00 408.00 141.00" xmlns="http://www.w3.org/2000/svg" xmlns:xlink="http://www.w3.org/1999/xlink">
<g id="graph0" class="graph" transform="scale(1 1) rotate(0) translate(4 137)">
<title>%3</title>
<polygon fill="white" stroke="none" points="-4,4 -4,-137 404,-137 404,4 -4,4"/>
<g id="clust1" class="cluster"><title>cluster_reading</title>
<polygon fill="none" stroke="black" points="8,-73 8,-125 170,-125 170,-73 8,-73"/>
</g>
<g id="clust2" class="cluster"><title>cluster_legend</title>
<path fill="none" stroke="black" d="M190,-8C190,-8 380,-8 380,-8 386,-8 392,-14 392,-20 392,-20 392,-113 392,-113 392,-119 386,-125 380,-125 380,-125 190,-125 190,-125 184,-125 178,-119 178,-113 178,-113 178,-20 178,-20 178,-14 184,-8 190,-8"/>
</g>
<!-- 05 -->
<g id="node1" class="node"><title>05</title>
<ellipse fill="#72fe95" stroke="#27b34a" cx="130" cy="-99" rx="31.6951" ry="18"/>
<text text-anchor="middle" x="130" y="-95.3" font-family="Times,serif" font-size="14.00">05 (c)</text>
</g>
<!-- 01 -->
<g id="node2" class="node"><title>01</title>
<ellipse fill="#72fe95" stroke="#27b34a" cx="48" cy="-99" rx="31.6951" ry="18"/>
<text text-anchor="middle" x="48" y="-95.3" font-family="Times,serif" font-size="14.00">01 (c)</text>
</g>
<!-- leg_s -->
<g id="node3" class="node"><title>leg_s</title>
<text text-anchor="middle" x="285" y="-95.3" font-family="Times,serif" font-size="14.00">Textual flow strength</text>
</g>
<!-- leg_e1 -->
<!-- leg_s&#45;&gt;leg_e1 -->
<g id="edge1" class="edge"><title>leg_s&#45;&gt;leg_e1</title>
<path fill="none" stroke="black" stroke-dasharray="1,5" d="M267.82,-80.9995C262.117,-75.3088 255.756,-68.9096 250,-63 241.856,-54.6386 232.839,-45.1391 225.745,-37.609"/>
<polygon fill="black" stroke="black" points="227.866,-34.7543 218.469,-29.8601 222.763,-39.5459 227.866,-34.7543"/>
<text text-anchor="middle" x="265.5" y="-51.8" font-family="Times,serif" font-size="14.00">&lt;=5 &#160;</text>
</g>
<!-- leg_e2 -->
<!-- leg_s&#45;&gt;leg_e2 -->
<g id="edge2" class="edge"><title>leg_s&#45;&gt;leg_e2</title>
<path fill="none" stroke="black" stroke-dasharray="5,2" d="M285,-80.8369C285,-68.6686 285,-52.4362 285,-40.4345"/>
<polygon fill="black" stroke="black" points="288.5,-40.1502 285,-30.1503 281.5,-40.1503 288.5,-40.1502"/>
<text text-anchor="middle" x="304" y="-51.8" font-family="Times,serif" font-size="14.00"> &#160;&lt;=25</text>
</g>
<!-- leg_e3 -->
<!-- leg_s&#45;&gt;leg_e3 -->
<g id="edge3" class="edge"><title>leg_s&#45;&gt;leg_e3</title>
<path fill="none" stroke="black" d="M307.608,-80.7027C314.13,-75.311 321.079,-69.1572 327,-63 334.325,-55.3835 341.576,-46.0214 347.114,-38.3792"/>
<polygon fill="black" stroke="black" points="350.017,-40.3356 352.909,-30.1433 344.292,-36.3072 350.017,-40.3356"/>
<text text-anchor="middle" x="350" y="-51.8" font-family="Times,serif" font-size="14.00">&gt;25</text>
</g>
</g>
</svg>
