<?xml version="1.0" encoding="UTF-8" standalone="no"?>
<!DOCTYPE svg PUBLIC "-//W3C//DTD SVG 1.1//EN"
 "http://www.w3.org/Graphics/SVG/1.1/DTD/svg11.dtd">
<!-- Generated by graphviz version 2.38.0 (20140413.2041)
 -->
<!-- Title: %3 Pages: 1 -->
<svg width="1060pt" height="163pt"
 viewBox="0.00 0.00 1060.00 163.00" xmlns="http://www.w3.org/2000/svg" xmlns:xlink="http://www.w3.org/1999/xlink">
<g id="graph0" class="graph" transform="scale(1 1) rotate(0) translate(4 159)">
<title>%3</title>
<polygon fill="white" stroke="none" points="-4,4 -4,-159 1056,-159 1056,4 -4,4"/>
<g id="clust1" class="cluster"><title>cluster_legend</title>
<path fill="none" stroke="black" d="M20,-19C20,-19 210,-19 210,-19 216,-19 222,-25 222,-31 222,-31 222,-135 222,-135 222,-141 216,-147 210,-147 210,-147 20,-147 20,-147 14,-147 8,-141 8,-135 8,-135 8,-31 8,-31 8,-25 14,-19 20,-19"/>
</g>
<g id="clust2" class="cluster"><title>cluster_reading</title>
<polygon fill="none" stroke="black" points="230,-8 230,-147 1044,-147 1044,-8 230,-8"/>
</g>
<!-- leg_s -->
<g id="node1" class="node"><title>leg_s</title>
<text text-anchor="middle" x="115" y="-117.3" font-family="Times,serif" font-size="14.00">Textual flow strength</text>
</g>
<!-- leg_e1 -->
<!-- leg_s&#45;&gt;leg_e1 -->
<g id="edge1" class="edge"><title>leg_s&#45;&gt;leg_e1</title>
<path fill="none" stroke="black" stroke-dasharray="1,5" d="M96.6657,-102.686C91.1324,-97.1938 85.1607,-90.9891 80,-85 70.1708,-73.593 60.0722,-59.7786 52.9137,-49.5634"/>
<polygon fill="black" stroke="black" points="55.6142,-47.3142 47.056,-41.0685 49.8514,-51.2879 55.6142,-47.3142"/>
<text text-anchor="middle" x="95.5" y="-73.8" font-family="Times,serif" font-size="14.00">&lt;=5 &#160;</text>
</g>
<!-- leg_e2 -->
<!-- leg_s&#45;&gt;leg_e2 -->
<g id="edge2" class="edge"><title>leg_s&#45;&gt;leg_e2</title>
<path fill="none" stroke="black" stroke-dasharray="5,2" d="M115,-102.799C115,-87.7942 115,-66.1745 115,-51.4086"/>
<polygon fill="black" stroke="black" points="118.5,-51.2934 115,-41.2934 111.5,-51.2934 118.5,-51.2934"/>
<text text-anchor="middle" x="134" y="-73.8" font-family="Times,serif" font-size="14.00"> &#160;&lt;=25</text>
</g>
<!-- leg_e3 -->
<!-- leg_s&#45;&gt;leg_e3 -->
<g id="edge3" class="edge"><title>leg_s&#45;&gt;leg_e3</title>
<path fill="none" stroke="black" d="M138.503,-102.76C144.906,-97.4621 151.567,-91.3439 157,-85 166.087,-74.3897 174.095,-60.6892 179.546,-50.3134"/>
<polygon fill="black" stroke="black" points="182.722,-51.7893 184.091,-41.2833 176.469,-48.6425 182.722,-51.7893"/>
<text text-anchor="middle" x="179" y="-73.8" font-family="Times,serif" font-size="14.00">&gt;25</text>
</g>
<!-- 031 -->
<g id="node5" class="node"><title>031</title>
<ellipse fill="#ff8a8a" stroke="#b43f3f" cx="909" cy="-121" rx="36.2938" ry="18"/>
<text text-anchor="middle" x="909" y="-117.3" font-family="Times,serif" font-size="14.00">031 (a)</text>
</g>
<!-- 01 -->
<g id="node6" class="node"><title>01</title>
<ellipse fill="#ff8a8a" stroke="#b43f3f" cx="823" cy="-34" rx="31.6951" ry="18"/>
<text text-anchor="middle" x="823" y="-30.3" font-family="Times,serif" font-size="14.00">01 (a)</text>
</g>
<!-- 031&#45;&gt;01 -->
<g id="edge4" class="edge"><title>031&#45;&gt;01</title>
<path fill="none" stroke="#b43f3f" stroke-dasharray="1,5" d="M887.396,-106.25C878.74,-100.245 868.954,-92.7976 861,-85 853.175,-77.3291 845.638,-67.9752 839.368,-59.4419"/>
<polygon fill="#b43f3f" stroke="#b43f3f" points="842.206,-57.3937 833.557,-51.2749 836.503,-61.452 842.206,-57.3937"/>
<text text-anchor="middle" x="883" y="-73.8" font-family="Times,serif" font-size="14.00">2 (48.5)</text>
</g>
<!-- 013 -->
<g id="node7" class="node"><title>013</title>
<ellipse fill="#ff8a8a" stroke="#b43f3f" cx="909" cy="-34" rx="36.2938" ry="18"/>
<text text-anchor="middle" x="909" y="-30.3" font-family="Times,serif" font-size="14.00">013 (a)</text>
</g>
<!-- 031&#45;&gt;013 -->
<g id="edge5" class="edge"><title>031&#45;&gt;013</title>
<path fill="none" stroke="#b43f3f" stroke-dasharray="1,5" d="M909,-102.799C909,-91.1626 909,-75.5479 909,-62.2368"/>
<polygon fill="#b43f3f" stroke="#b43f3f" points="912.5,-62.1754 909,-52.1754 905.5,-62.1755 912.5,-62.1754"/>
<text text-anchor="middle" x="931" y="-73.8" font-family="Times,serif" font-size="14.00">1 (97.1)</text>
</g>
<!-- 017 -->
<g id="node8" class="node"><title>017</title>
<ellipse fill="#ff8a8a" stroke="#b43f3f" cx="1000" cy="-34" rx="36.2938" ry="18"/>
<text text-anchor="middle" x="1000" y="-30.3" font-family="Times,serif" font-size="14.00">017 (a)</text>
</g>
<!-- 031&#45;&gt;017 -->
<g id="edge6" class="edge"><title>031&#45;&gt;017</title>
<path fill="none" stroke="#b43f3f" stroke-dasharray="1,5" d="M930.372,-106.006C938.992,-99.9634 948.814,-92.5539 957,-85 965.544,-77.1154 974.076,-67.6186 981.26,-59.0293"/>
<polygon fill="#b43f3f" stroke="#b43f3f" points="984.077,-61.1135 987.692,-51.1545 978.656,-56.6853 984.077,-61.1135"/>
<text text-anchor="middle" x="992" y="-73.8" font-family="Times,serif" font-size="14.00">1 (94.3)</text>
</g>
<!-- 07 -->
<g id="node9" class="node"><title>07</title>
<ellipse fill="#ff8a8a" stroke="#b43f3f" cx="814" cy="-121" rx="31.6951" ry="18"/>
<text text-anchor="middle" x="814" y="-117.3" font-family="Times,serif" font-size="14.00">07 (a)</text>
</g>
<!-- 0211 -->
<g id="node10" class="node"><title>0211</title>
<ellipse fill="#ff8a8a" stroke="#b43f3f" cx="551" cy="-34" rx="40.0939" ry="18"/>
<text text-anchor="middle" x="551" y="-30.3" font-family="Times,serif" font-size="14.00">0211 (a)</text>
</g>
<!-- 07&#45;&gt;0211 -->
<g id="edge7" class="edge"><title>07&#45;&gt;0211</title>
<path fill="none" stroke="#b43f3f" stroke-dasharray="1,5" d="M790.083,-108.862C784.566,-106.638 778.655,-104.521 773,-103 714.547,-87.2747 695.322,-104.448 638,-85 617.399,-78.0107 596.195,-65.9429 579.878,-55.4143"/>
<polygon fill="#b43f3f" stroke="#b43f3f" points="581.621,-52.3702 571.351,-49.7654 577.755,-58.2059 581.621,-52.3702"/>
<text text-anchor="middle" x="660" y="-73.8" font-family="Times,serif" font-size="14.00">2 (82.9)</text>
</g>
<!-- 037 -->
<g id="node11" class="node"><title>037</title>
<ellipse fill="#ff8a8a" stroke="#b43f3f" cx="646" cy="-34" rx="36.2938" ry="18"/>
<text text-anchor="middle" x="646" y="-30.3" font-family="Times,serif" font-size="14.00">037 (a)</text>
</g>
<!-- 07&#45;&gt;037 -->
<g id="edge8" class="edge"><title>07&#45;&gt;037</title>
<path fill="none" stroke="#b43f3f" stroke-dasharray="1,5" d="M789.472,-109.255C784.092,-107.06 778.392,-104.856 773,-103 744.657,-93.2409 734.666,-98.6934 708,-85 693.845,-77.7313 679.889,-66.8948 668.812,-57.1666"/>
<polygon fill="#b43f3f" stroke="#b43f3f" points="671.052,-54.4728 661.294,-50.3456 666.348,-59.6571 671.052,-54.4728"/>
<text text-anchor="middle" x="730" y="-73.8" font-family="Times,serif" font-size="14.00">1 (97.5)</text>
</g>
<!-- 030 -->
<g id="node12" class="node"><title>030</title>
<ellipse fill="#ff8a8a" stroke="#b43f3f" cx="737" cy="-34" rx="36.2938" ry="18"/>
<text text-anchor="middle" x="737" y="-30.3" font-family="Times,serif" font-size="14.00">030 (a)</text>
</g>
<!-- 07&#45;&gt;030 -->
<g id="edge9" class="edge"><title>07&#45;&gt;030</title>
<path fill="none" stroke="#b43f3f" stroke-dasharray="1,5" d="M792.861,-107.383C783.884,-101.355 773.73,-93.5831 766,-85 759.559,-77.8487 753.874,-69.0381 749.283,-60.8152"/>
<polygon fill="#b43f3f" stroke="#b43f3f" points="752.342,-59.1132 744.581,-51.9007 746.15,-62.3787 752.342,-59.1132"/>
<text text-anchor="middle" x="788" y="-73.8" font-family="Times,serif" font-size="14.00">1 (95.1)</text>
</g>
<!-- 045 -->
<g id="node13" class="node"><title>045</title>
<ellipse fill="#ff8a8a" stroke="#b43f3f" cx="728" cy="-121" rx="36.2938" ry="18"/>
<text text-anchor="middle" x="728" y="-117.3" font-family="Times,serif" font-size="14.00">045 (a)</text>
</g>
<!-- 038 -->
<g id="node14" class="node"><title>038</title>
<ellipse fill="#ff8a8a" stroke="#b43f3f" cx="456" cy="-34" rx="36.2938" ry="18"/>
<text text-anchor="middle" x="456" y="-30.3" font-family="Times,serif" font-size="14.00">038 (a)</text>
</g>
<!-- 045&#45;&gt;038 -->
<g id="edge10" class="edge"><title>045&#45;&gt;038</title>
<path fill="none" stroke="#b43f3f" stroke-dasharray="1,5" d="M700.567,-108.795C694.526,-106.629 688.106,-104.553 682,-103 628.03,-89.2723 611.202,-101.455 558,-85 533.115,-77.303 506.756,-64.2385 487.069,-53.3941"/>
<polygon fill="#b43f3f" stroke="#b43f3f" points="488.682,-50.2859 478.249,-48.439 485.253,-56.3887 488.682,-50.2859"/>
<text text-anchor="middle" x="580" y="-73.8" font-family="Times,serif" font-size="14.00">1 (92.7)</text>
</g>
<!-- 021 -->
<g id="node15" class="node"><title>021</title>
<ellipse fill="#ff8a8a" stroke="#b43f3f" cx="637" cy="-121" rx="36.2938" ry="18"/>
<text text-anchor="middle" x="637" y="-117.3" font-family="Times,serif" font-size="14.00">021 (a)</text>
</g>
<!-- 036 -->
<g id="node16" class="node"><title>036</title>
<ellipse fill="#ff8a8a" stroke="#b43f3f" cx="274" cy="-34" rx="36.2938" ry="18"/>
<text text-anchor="middle" x="274" y="-30.3" font-family="Times,serif" font-size="14.00">036 (a)</text>
</g>
<!-- 021&#45;&gt;036 -->
<g id="edge11" class="edge"><title>021&#45;&gt;036</title>
<path fill="none" stroke="#b43f3f" stroke-dasharray="1,5" d="M610.119,-108.707C603.933,-106.491 597.314,-104.417 591,-103 501.759,-82.97 474.533,-107.958 386,-85 357.99,-77.7364 328.158,-64.0955 306.331,-52.8945"/>
<polygon fill="#b43f3f" stroke="#b43f3f" points="307.681,-49.6506 297.199,-48.1107 304.433,-55.8513 307.681,-49.6506"/>
<text text-anchor="middle" x="408" y="-73.8" font-family="Times,serif" font-size="14.00">1 (97.6)</text>
</g>
<!-- 047 -->
<g id="node17" class="node"><title>047</title>
<ellipse fill="#ff8a8a" stroke="#b43f3f" cx="365" cy="-34" rx="36.2938" ry="18"/>
<text text-anchor="middle" x="365" y="-30.3" font-family="Times,serif" font-size="14.00">047 (a)</text>
</g>
<!-- 021&#45;&gt;047 -->
<g id="edge12" class="edge"><title>021&#45;&gt;047</title>
<path fill="none" stroke="#b43f3f" stroke-dasharray="1,5" d="M609.559,-108.829C603.518,-106.66 597.1,-104.575 591,-103 539.634,-89.7369 523.798,-100.296 473,-85 446.578,-77.0441 418.333,-63.782 397.356,-52.915"/>
<polygon fill="#b43f3f" stroke="#b43f3f" points="398.74,-49.6881 388.263,-48.1182 395.474,-55.8796 398.74,-49.6881"/>
<text text-anchor="middle" x="495" y="-73.8" font-family="Times,serif" font-size="14.00">1 (95.1)</text>
</g>
<!-- 011 -->
<g id="node18" class="node"><title>011</title>
<ellipse fill="#ff8a8a" stroke="#b43f3f" cx="546" cy="-121" rx="36.2938" ry="18"/>
<text text-anchor="middle" x="546" y="-117.3" font-family="Times,serif" font-size="14.00">011 (a)</text>
</g>
<!-- 028 -->
<g id="node19" class="node"><title>028</title>
<ellipse fill="#ff8a8a" stroke="#b43f3f" cx="455" cy="-121" rx="36.2938" ry="18"/>
<text text-anchor="middle" x="455" y="-117.3" font-family="Times,serif" font-size="14.00">028 (a)</text>
</g>
<!-- 0141 -->
<g id="node20" class="node"><title>0141</title>
<ellipse fill="#ff8a8a" stroke="#b43f3f" cx="360" cy="-121" rx="40.0939" ry="18"/>
<text text-anchor="middle" x="360" y="-117.3" font-family="Times,serif" font-size="14.00">0141 (a)</text>
</g>
<!-- 05 -->
<g id="node21" class="node"><title>05</title>
<ellipse fill="#ff8a8a" stroke="#b43f3f" cx="270" cy="-121" rx="31.6951" ry="18"/>
<text text-anchor="middle" x="270" y="-117.3" font-family="Times,serif" font-size="14.00">05 (a)</text>
</g>
</g>
</svg>
