<?xml version="1.0" encoding="UTF-8" standalone="no"?>
<!DOCTYPE svg PUBLIC "-//W3C//DTD SVG 1.1//EN"
 "http://www.w3.org/Graphics/SVG/1.1/DTD/svg11.dtd">
<!-- Generated by graphviz version 2.38.0 (20140413.2041)
 -->
<!-- Title: %3 Pages: 1 -->
<svg width="1401pt" height="234pt"
 viewBox="0.00 0.00 1401.30 234.00" xmlns="http://www.w3.org/2000/svg" xmlns:xlink="http://www.w3.org/1999/xlink">
<g id="graph0" class="graph" transform="scale(1 1) rotate(0) translate(4 230)">
<title>%3</title>
<polygon fill="white" stroke="none" points="-4,4 -4,-230 1397.3,-230 1397.3,4 -4,4"/>
<g id="clust1" class="cluster"><title>cluster_legend</title>
<path fill="none" stroke="black" d="M20,-90C20,-90 210,-90 210,-90 216,-90 222,-96 222,-102 222,-102 222,-206 222,-206 222,-212 216,-218 210,-218 210,-218 20,-218 20,-218 14,-218 8,-212 8,-206 8,-206 8,-102 8,-102 8,-96 14,-90 20,-90"/>
</g>
<!-- leg_s -->
<g id="node1" class="node"><title>leg_s</title>
<text text-anchor="middle" x="115" y="-188.3" font-family="Times,serif" font-size="14.00">Textual flow strength</text>
</g>
<!-- leg_e1 -->
<!-- leg_s&#45;&gt;leg_e1 -->
<g id="edge1" class="edge"><title>leg_s&#45;&gt;leg_e1</title>
<path fill="none" stroke="black" stroke-dasharray="1,5" d="M96.6657,-173.686C91.1324,-168.194 85.1607,-161.989 80,-156 70.1708,-144.593 60.0722,-130.779 52.9137,-120.563"/>
<polygon fill="black" stroke="black" points="55.6142,-118.314 47.056,-112.068 49.8514,-122.288 55.6142,-118.314"/>
<text text-anchor="middle" x="95.5" y="-144.8" font-family="Times,serif" font-size="14.00">&lt;=5 &#160;</text>
</g>
<!-- leg_e2 -->
<!-- leg_s&#45;&gt;leg_e2 -->
<g id="edge2" class="edge"><title>leg_s&#45;&gt;leg_e2</title>
<path fill="none" stroke="black" stroke-dasharray="5,2" d="M115,-173.799C115,-158.794 115,-137.174 115,-122.409"/>
<polygon fill="black" stroke="black" points="118.5,-122.293 115,-112.293 111.5,-122.293 118.5,-122.293"/>
<text text-anchor="middle" x="134" y="-144.8" font-family="Times,serif" font-size="14.00"> &#160;&lt;=25</text>
</g>
<!-- leg_e3 -->
<!-- leg_s&#45;&gt;leg_e3 -->
<g id="edge3" class="edge"><title>leg_s&#45;&gt;leg_e3</title>
<path fill="none" stroke="black" d="M138.503,-173.76C144.906,-168.462 151.567,-162.344 157,-156 166.087,-145.39 174.095,-131.689 179.546,-121.313"/>
<polygon fill="black" stroke="black" points="182.722,-122.789 184.091,-112.283 176.469,-119.642 182.722,-122.789"/>
<text text-anchor="middle" x="179" y="-144.8" font-family="Times,serif" font-size="14.00">&gt;25</text>
</g>
<!-- 031 -->
<g id="node5" class="node"><title>031</title>
<ellipse fill="#ff8a8a" stroke="#b43f3f" cx="350" cy="-192" rx="36.2938" ry="18"/>
<text text-anchor="middle" x="350" y="-188.3" font-family="Times,serif" font-size="14.00">031 (a)</text>
</g>
<!-- 01 -->
<g id="node6" class="node"><title>01</title>
<ellipse fill="#ff8a8a" stroke="#b43f3f" cx="264" cy="-105" rx="31.6951" ry="18"/>
<text text-anchor="middle" x="264" y="-101.3" font-family="Times,serif" font-size="14.00">01 (a)</text>
</g>
<!-- 031&#45;&gt;01 -->
<g id="edge4" class="edge"><title>031&#45;&gt;01</title>
<path fill="none" stroke="#b43f3f" stroke-dasharray="1,5" d="M328.396,-177.25C319.74,-171.245 309.954,-163.798 302,-156 294.175,-148.329 286.638,-138.975 280.368,-130.442"/>
<polygon fill="#b43f3f" stroke="#b43f3f" points="283.206,-128.394 274.557,-122.275 277.503,-132.452 283.206,-128.394"/>
<text text-anchor="middle" x="324" y="-144.8" font-family="Times,serif" font-size="14.00">2 (48.5)</text>
</g>
<!-- 017 -->
<g id="node7" class="node"><title>017</title>
<ellipse fill="#ff8a8a" stroke="#b43f3f" cx="350" cy="-105" rx="36.2938" ry="18"/>
<text text-anchor="middle" x="350" y="-101.3" font-family="Times,serif" font-size="14.00">017 (a)</text>
</g>
<!-- 031&#45;&gt;017 -->
<g id="edge5" class="edge"><title>031&#45;&gt;017</title>
<path fill="none" stroke="#b43f3f" stroke-dasharray="1,5" d="M350,-173.799C350,-162.163 350,-146.548 350,-133.237"/>
<polygon fill="#b43f3f" stroke="#b43f3f" points="353.5,-133.175 350,-123.175 346.5,-133.175 353.5,-133.175"/>
<text text-anchor="middle" x="372" y="-144.8" font-family="Times,serif" font-size="14.00">1 (94.3)</text>
</g>
<!-- 013 -->
<g id="node8" class="node"><title>013</title>
<ellipse fill="#ff8a8a" stroke="#b43f3f" cx="441" cy="-105" rx="36.2938" ry="18"/>
<text text-anchor="middle" x="441" y="-101.3" font-family="Times,serif" font-size="14.00">013 (a)</text>
</g>
<!-- 031&#45;&gt;013 -->
<g id="edge6" class="edge"><title>031&#45;&gt;013</title>
<path fill="none" stroke="#b43f3f" stroke-dasharray="1,5" d="M371.372,-177.006C379.992,-170.963 389.814,-163.554 398,-156 406.544,-148.115 415.076,-138.619 422.26,-130.029"/>
<polygon fill="#b43f3f" stroke="#b43f3f" points="425.077,-132.113 428.692,-122.155 419.656,-127.685 425.077,-132.113"/>
<text text-anchor="middle" x="434" y="-144.8" font-family="Times,serif" font-size="14.00">1 (97.1)</text>
</g>
<!-- 07 -->
<g id="node9" class="node"><title>07</title>
<ellipse fill="#ff8a8a" stroke="#b43f3f" cx="676" cy="-192" rx="31.6951" ry="18"/>
<text text-anchor="middle" x="676" y="-188.3" font-family="Times,serif" font-size="14.00">07 (a)</text>
</g>
<!-- 0211 -->
<g id="node10" class="node"><title>0211</title>
<ellipse fill="#ff8a8a" stroke="#b43f3f" cx="536" cy="-105" rx="40.0939" ry="18"/>
<text text-anchor="middle" x="536" y="-101.3" font-family="Times,serif" font-size="14.00">0211 (a)</text>
</g>
<!-- 07&#45;&gt;0211 -->
<g id="edge7" class="edge"><title>07&#45;&gt;0211</title>
<path fill="none" stroke="#b43f3f" stroke-dasharray="1,5" d="M650.634,-180.813C635.76,-174.44 616.839,-165.628 601,-156 587.392,-147.729 573.267,-137.14 561.674,-127.838"/>
<polygon fill="#b43f3f" stroke="#b43f3f" points="563.683,-124.96 553.724,-121.344 559.254,-130.381 563.683,-124.96"/>
<text text-anchor="middle" x="623" y="-144.8" font-family="Times,serif" font-size="14.00">2 (82.9)</text>
</g>
<!-- 030 -->
<g id="node11" class="node"><title>030</title>
<ellipse fill="#ff8a8a" stroke="#b43f3f" cx="631" cy="-105" rx="36.2938" ry="18"/>
<text text-anchor="middle" x="631" y="-101.3" font-family="Times,serif" font-size="14.00">030 (a)</text>
</g>
<!-- 07&#45;&gt;030 -->
<g id="edge8" class="edge"><title>07&#45;&gt;030</title>
<path fill="none" stroke="#b43f3f" stroke-dasharray="1,5" d="M666.45,-174.723C663.076,-168.861 659.302,-162.17 656,-156 651.833,-148.213 647.469,-139.645 643.575,-131.834"/>
<polygon fill="#b43f3f" stroke="#b43f3f" points="646.672,-130.2 639.104,-122.785 640.397,-133.301 646.672,-130.2"/>
<text text-anchor="middle" x="678" y="-144.8" font-family="Times,serif" font-size="14.00">1 (95.1)</text>
</g>
<!-- 034 -->
<g id="node12" class="node"><title>034</title>
<ellipse fill="#ff8a8a" stroke="#b43f3f" cx="722" cy="-105" rx="36.2938" ry="18"/>
<text text-anchor="middle" x="722" y="-101.3" font-family="Times,serif" font-size="14.00">034 (a)</text>
</g>
<!-- 07&#45;&gt;034 -->
<g id="edge9" class="edge"><title>07&#45;&gt;034</title>
<path fill="none" stroke="#b43f3f" stroke-dasharray="1,5" d="M687.884,-175.022C691.972,-169.187 696.417,-162.438 700,-156 704.15,-148.542 708.102,-140.148 711.481,-132.398"/>
<polygon fill="#b43f3f" stroke="#b43f3f" points="714.764,-133.619 715.427,-123.044 708.315,-130.897 714.764,-133.619"/>
<text text-anchor="middle" x="730" y="-144.8" font-family="Times,serif" font-size="14.00">1 (95.1)</text>
</g>
<!-- 037 -->
<g id="node13" class="node"><title>037</title>
<ellipse fill="#cea8f4" stroke="#835da9" cx="813" cy="-105" rx="36.2938" ry="18"/>
<text text-anchor="middle" x="813" y="-101.3" font-family="Times,serif" font-size="14.00">037 (b)</text>
</g>
<!-- 07&#45;&gt;037 -->
<g id="edge10" class="edge"><title>07&#45;&gt;037</title>
<path fill="none" stroke="#835da9" stroke-dasharray="1,5" d="M702.606,-181.735C718.684,-175.569 739.24,-166.654 756,-156 768.097,-148.31 780.215,-138.116 790.149,-128.939"/>
<polygon fill="#835da9" stroke="#835da9" points="792.759,-131.287 797.605,-121.865 787.941,-126.209 792.759,-131.287"/>
<text text-anchor="middle" x="799" y="-144.8" font-family="Times,serif" font-size="14.00">1 (97.5)</text>
</g>
<!-- 047 -->
<g id="node18" class="node"><title>047</title>
<ellipse fill="#cea8f4" stroke="#835da9" cx="813" cy="-18" rx="36.2938" ry="18"/>
<text text-anchor="middle" x="813" y="-14.3" font-family="Times,serif" font-size="14.00">047 (b)</text>
</g>
<!-- 037&#45;&gt;047 -->
<g id="edge13" class="edge"><title>037&#45;&gt;047</title>
<path fill="none" stroke="#835da9" stroke-dasharray="1,5" d="M813,-86.799C813,-75.1626 813,-59.5479 813,-46.2368"/>
<polygon fill="#835da9" stroke="#835da9" points="816.5,-46.1754 813,-36.1754 809.5,-46.1755 816.5,-46.1754"/>
<text text-anchor="middle" x="835" y="-57.8" font-family="Times,serif" font-size="14.00">2 (95.0)</text>
</g>
<!-- 045 -->
<g id="node14" class="node"><title>045</title>
<ellipse fill="#ff8a8a" stroke="#b43f3f" cx="904" cy="-192" rx="36.2938" ry="18"/>
<text text-anchor="middle" x="904" y="-188.3" font-family="Times,serif" font-size="14.00">045 (a)</text>
</g>
<!-- 038 -->
<g id="node15" class="node"><title>038</title>
<ellipse fill="#ff8a8a" stroke="#b43f3f" cx="904" cy="-105" rx="36.2938" ry="18"/>
<text text-anchor="middle" x="904" y="-101.3" font-family="Times,serif" font-size="14.00">038 (a)</text>
</g>
<!-- 045&#45;&gt;038 -->
<g id="edge11" class="edge"><title>045&#45;&gt;038</title>
<path fill="none" stroke="#b43f3f" stroke-dasharray="1,5" d="M904,-173.799C904,-162.163 904,-146.548 904,-133.237"/>
<polygon fill="#b43f3f" stroke="#b43f3f" points="907.5,-133.175 904,-123.175 900.5,-133.175 907.5,-133.175"/>
<text text-anchor="middle" x="926" y="-144.8" font-family="Times,serif" font-size="14.00">1 (92.7)</text>
</g>
<!-- 021 -->
<g id="node16" class="node"><title>021</title>
<ellipse fill="#ff8a8a" stroke="#b43f3f" cx="995" cy="-192" rx="36.2938" ry="18"/>
<text text-anchor="middle" x="995" y="-188.3" font-family="Times,serif" font-size="14.00">021 (a)</text>
</g>
<!-- 036 -->
<g id="node17" class="node"><title>036</title>
<ellipse fill="#ff8a8a" stroke="#b43f3f" cx="995" cy="-105" rx="36.2938" ry="18"/>
<text text-anchor="middle" x="995" y="-101.3" font-family="Times,serif" font-size="14.00">036 (a)</text>
</g>
<!-- 021&#45;&gt;036 -->
<g id="edge12" class="edge"><title>021&#45;&gt;036</title>
<path fill="none" stroke="#b43f3f" stroke-dasharray="1,5" d="M995,-173.799C995,-162.163 995,-146.548 995,-133.237"/>
<polygon fill="#b43f3f" stroke="#b43f3f" points="998.5,-133.175 995,-123.175 991.5,-133.175 998.5,-133.175"/>
<text text-anchor="middle" x="1017" y="-144.8" font-family="Times,serif" font-size="14.00">1 (97.6)</text>
</g>
<!-- 05 -->
<g id="node19" class="node"><title>05</title>
<ellipse fill="#ff8a8a" stroke="#b43f3f" cx="1081" cy="-192" rx="31.6951" ry="18"/>
<text text-anchor="middle" x="1081" y="-188.3" font-family="Times,serif" font-size="14.00">05 (a)</text>
</g>
<!-- 028 -->
<g id="node20" class="node"><title>028</title>
<ellipse fill="#ff8a8a" stroke="#b43f3f" cx="1167" cy="-192" rx="36.2938" ry="18"/>
<text text-anchor="middle" x="1167" y="-188.3" font-family="Times,serif" font-size="14.00">028 (a)</text>
</g>
<!-- 011 -->
<g id="node21" class="node"><title>011</title>
<ellipse fill="#ff8a8a" stroke="#b43f3f" cx="1258" cy="-192" rx="36.2938" ry="18"/>
<text text-anchor="middle" x="1258" y="-188.3" font-family="Times,serif" font-size="14.00">011 (a)</text>
</g>
<!-- 0141 -->
<g id="node22" class="node"><title>0141</title>
<ellipse fill="#ff8a8a" stroke="#b43f3f" cx="1353" cy="-192" rx="40.0939" ry="18"/>
<text text-anchor="middle" x="1353" y="-188.3" font-family="Times,serif" font-size="14.00">0141 (a)</text>
</g>
</g>
</svg>
