<?xml version="1.0" encoding="UTF-8" standalone="no"?>
<!DOCTYPE svg PUBLIC "-//W3C//DTD SVG 1.1//EN"
 "http://www.w3.org/Graphics/SVG/1.1/DTD/svg11.dtd">
<!-- Generated by graphviz version 2.38.0 (20140413.2041)
 -->
<!-- Title: %3 Pages: 1 -->
<svg width="935pt" height="408pt"
 viewBox="0.00 0.00 935.44 408.00" xmlns="http://www.w3.org/2000/svg" xmlns:xlink="http://www.w3.org/1999/xlink">
<g id="graph0" class="graph" transform="scale(1 1) rotate(0) translate(4 404)">
<title>%3</title>
<polygon fill="white" stroke="none" points="-4,4 -4,-404 931.443,-404 931.443,4 -4,4"/>
<g id="clust1" class="cluster"><title>cluster_legend</title>
<path fill="none" stroke="black" d="M296.397,-264C296.397,-264 486.397,-264 486.397,-264 492.397,-264 498.397,-270 498.397,-276 498.397,-276 498.397,-380 498.397,-380 498.397,-386 492.397,-392 486.397,-392 486.397,-392 296.397,-392 296.397,-392 290.397,-392 284.397,-386 284.397,-380 284.397,-380 284.397,-276 284.397,-276 284.397,-270 290.397,-264 296.397,-264"/>
</g>
<!-- leg_s -->
<g id="node1" class="node"><title>leg_s</title>
<text text-anchor="middle" x="391.397" y="-362.3" font-family="Times,serif" font-size="14.00">Textual flow strength</text>
</g>
<!-- leg_e1 -->
<!-- leg_s&#45;&gt;leg_e1 -->
<g id="edge1" class="edge"><title>leg_s&#45;&gt;leg_e1</title>
<path fill="none" stroke="black" stroke-dasharray="1,5" d="M373.062,-347.686C367.529,-342.194 361.557,-335.989 356.397,-330 346.568,-318.593 336.469,-304.779 329.31,-294.563"/>
<polygon fill="black" stroke="black" points="332.011,-292.314 323.453,-286.068 326.248,-296.288 332.011,-292.314"/>
<text text-anchor="middle" x="371.897" y="-318.8" font-family="Times,serif" font-size="14.00">&lt;=5 &#160;</text>
</g>
<!-- leg_e2 -->
<!-- leg_s&#45;&gt;leg_e2 -->
<g id="edge2" class="edge"><title>leg_s&#45;&gt;leg_e2</title>
<path fill="none" stroke="black" stroke-dasharray="5,2" d="M391.397,-347.799C391.397,-332.794 391.397,-311.174 391.397,-296.409"/>
<polygon fill="black" stroke="black" points="394.897,-296.293 391.397,-286.293 387.897,-296.293 394.897,-296.293"/>
<text text-anchor="middle" x="410.397" y="-318.8" font-family="Times,serif" font-size="14.00"> &#160;&lt;=25</text>
</g>
<!-- leg_e3 -->
<!-- leg_s&#45;&gt;leg_e3 -->
<g id="edge3" class="edge"><title>leg_s&#45;&gt;leg_e3</title>
<path fill="none" stroke="black" d="M414.9,-347.76C421.303,-342.462 427.963,-336.344 433.397,-330 442.484,-319.39 450.492,-305.689 455.943,-295.313"/>
<polygon fill="black" stroke="black" points="459.119,-296.789 460.488,-286.283 452.866,-293.642 459.119,-296.789"/>
<text text-anchor="middle" x="455.397" y="-318.8" font-family="Times,serif" font-size="14.00">&gt;25</text>
</g>
<!-- 044 -->
<g id="node5" class="node"><title>044</title>
<ellipse fill="#ff8a8a" stroke="#b43f3f" cx="544.397" cy="-279" rx="36.2938" ry="18"/>
<text text-anchor="middle" x="544.397" y="-275.3" font-family="Times,serif" font-size="14.00">044 (a)</text>
</g>
<!-- 022 -->
<g id="node6" class="node"><title>022</title>
<ellipse fill="#ff8a8a" stroke="#b43f3f" cx="141.397" cy="-192" rx="36.2938" ry="18"/>
<text text-anchor="middle" x="141.397" y="-188.3" font-family="Times,serif" font-size="14.00">022 (a)</text>
</g>
<!-- 044&#45;&gt;022 -->
<g id="edge4" class="edge"><title>044&#45;&gt;022</title>
<path fill="none" stroke="#b43f3f" stroke-dasharray="1,5" d="M518.536,-266.328C513.277,-264.299 507.723,-262.396 502.397,-261 441.711,-245.1 424.171,-253.934 362.397,-243 299.328,-231.837 227.089,-214.648 182.855,-203.614"/>
<polygon fill="#b43f3f" stroke="#b43f3f" points="183.596,-200.192 173.045,-201.153 181.893,-206.981 183.596,-200.192"/>
<text text-anchor="middle" x="384.397" y="-231.8" font-family="Times,serif" font-size="14.00">1 (91.7)</text>
</g>
<!-- 07 -->
<g id="node7" class="node"><title>07</title>
<ellipse fill="#ff8a8a" stroke="#b43f3f" cx="362.397" cy="-192" rx="31.6951" ry="18"/>
<text text-anchor="middle" x="362.397" y="-188.3" font-family="Times,serif" font-size="14.00">07 (a)</text>
</g>
<!-- 044&#45;&gt;07 -->
<g id="edge5" class="edge"><title>044&#45;&gt;07</title>
<path fill="none" stroke="#b43f3f" stroke-dasharray="1,5" d="M517.467,-266.535C512.495,-264.58 507.319,-262.651 502.397,-261 473.163,-251.197 463.404,-255.896 435.397,-243 418.571,-235.253 401.399,-223.71 387.941,-213.667"/>
<polygon fill="#b43f3f" stroke="#b43f3f" points="389.742,-210.638 379.674,-207.338 385.487,-216.196 389.742,-210.638"/>
<text text-anchor="middle" x="457.397" y="-231.8" font-family="Times,serif" font-size="14.00">2 (83.8)</text>
</g>
<!-- 011 -->
<g id="node8" class="node"><title>011</title>
<ellipse fill="#ff8a8a" stroke="#b43f3f" cx="453.397" cy="-192" rx="36.2938" ry="18"/>
<text text-anchor="middle" x="453.397" y="-188.3" font-family="Times,serif" font-size="14.00">011 (a)</text>
</g>
<!-- 044&#45;&gt;011 -->
<g id="edge6" class="edge"><title>044&#45;&gt;011</title>
<path fill="none" stroke="#b43f3f" stroke-dasharray="1,5" d="M523.025,-264.006C514.404,-257.963 504.582,-250.554 496.397,-243 487.853,-235.115 479.321,-225.619 472.136,-217.029"/>
<polygon fill="#b43f3f" stroke="#b43f3f" points="474.741,-214.685 465.704,-209.155 469.32,-219.113 474.741,-214.685"/>
<text text-anchor="middle" x="518.397" y="-231.8" font-family="Times,serif" font-size="14.00">2 (86.5)</text>
</g>
<!-- 045 -->
<g id="node9" class="node"><title>045</title>
<ellipse fill="#ff8a8a" stroke="#b43f3f" cx="544.397" cy="-192" rx="36.2938" ry="18"/>
<text text-anchor="middle" x="544.397" y="-188.3" font-family="Times,serif" font-size="14.00">045 (a)</text>
</g>
<!-- 044&#45;&gt;045 -->
<g id="edge7" class="edge"><title>044&#45;&gt;045</title>
<path fill="none" stroke="#b43f3f" stroke-dasharray="1,5" d="M544.397,-260.799C544.397,-249.163 544.397,-233.548 544.397,-220.237"/>
<polygon fill="#b43f3f" stroke="#b43f3f" points="547.897,-220.175 544.397,-210.175 540.897,-220.175 547.897,-220.175"/>
<text text-anchor="middle" x="566.397" y="-231.8" font-family="Times,serif" font-size="14.00">2 (81.1)</text>
</g>
<!-- 021 -->
<g id="node10" class="node"><title>021</title>
<ellipse fill="#ff8a8a" stroke="#b43f3f" cx="635.397" cy="-192" rx="36.2938" ry="18"/>
<text text-anchor="middle" x="635.397" y="-188.3" font-family="Times,serif" font-size="14.00">021 (a)</text>
</g>
<!-- 044&#45;&gt;021 -->
<g id="edge8" class="edge"><title>044&#45;&gt;021</title>
<path fill="none" stroke="#b43f3f" stroke-dasharray="1,5" d="M565.768,-264.006C574.389,-257.963 584.211,-250.554 592.397,-243 600.941,-235.115 609.472,-225.619 616.657,-217.029"/>
<polygon fill="#b43f3f" stroke="#b43f3f" points="619.474,-219.113 623.089,-209.155 614.053,-214.685 619.474,-219.113"/>
<text text-anchor="middle" x="628.397" y="-231.8" font-family="Times,serif" font-size="14.00">2 (83.8)</text>
</g>
<!-- 028 -->
<g id="node11" class="node"><title>028</title>
<ellipse fill="#ff8a8a" stroke="#b43f3f" cx="726.397" cy="-192" rx="36.2938" ry="18"/>
<text text-anchor="middle" x="726.397" y="-188.3" font-family="Times,serif" font-size="14.00">028 (a)</text>
</g>
<!-- 044&#45;&gt;028 -->
<g id="edge9" class="edge"><title>044&#45;&gt;028</title>
<path fill="none" stroke="#b43f3f" stroke-dasharray="1,5" d="M571.862,-267.171C577.621,-265.028 583.681,-262.867 589.397,-261 617.892,-251.694 627.258,-255.729 654.397,-243 670.785,-235.313 687.488,-223.975 700.675,-214.039"/>
<polygon fill="#b43f3f" stroke="#b43f3f" points="703.022,-216.648 708.794,-207.764 698.742,-211.109 703.022,-216.648"/>
<text text-anchor="middle" x="702.397" y="-231.8" font-family="Times,serif" font-size="14.00">2 (81.1)</text>
</g>
<!-- 0141 -->
<g id="node12" class="node"><title>0141</title>
<ellipse fill="#ff8a8a" stroke="#b43f3f" cx="821.397" cy="-192" rx="40.0939" ry="18"/>
<text text-anchor="middle" x="821.397" y="-188.3" font-family="Times,serif" font-size="14.00">0141 (a)</text>
</g>
<!-- 044&#45;&gt;0141 -->
<g id="edge10" class="edge"><title>044&#45;&gt;0141</title>
<path fill="none" stroke="#b43f3f" stroke-dasharray="1,5" d="M571.199,-266.713C577.112,-264.552 583.401,-262.499 589.397,-261 649.83,-245.891 669.092,-262.065 728.397,-243 750.54,-235.881 773.579,-223.537 791.187,-212.895"/>
<polygon fill="#b43f3f" stroke="#b43f3f" points="793.205,-215.762 799.866,-207.522 789.521,-209.81 793.205,-215.762"/>
<text text-anchor="middle" x="785.397" y="-231.8" font-family="Times,serif" font-size="14.00">1 (89.2)</text>
</g>
<!-- 031 -->
<g id="node13" class="node"><title>031</title>
<ellipse fill="#ff8a8a" stroke="#b43f3f" cx="81.3968" cy="-105" rx="36.2938" ry="18"/>
<text text-anchor="middle" x="81.3968" y="-101.3" font-family="Times,serif" font-size="14.00">031 (a)</text>
</g>
<!-- 022&#45;&gt;031 -->
<g id="edge11" class="edge"><title>022&#45;&gt;031</title>
<path fill="none" stroke="#b43f3f" stroke-dasharray="1,5" d="M126.5,-175.529C121.148,-169.633 115.243,-162.713 110.397,-156 104.909,-148.397 99.5638,-139.684 94.9883,-131.683"/>
<polygon fill="#b43f3f" stroke="#b43f3f" points="97.927,-129.765 90.0081,-122.727 91.8093,-133.167 97.927,-129.765"/>
<text text-anchor="middle" x="132.397" y="-144.8" font-family="Times,serif" font-size="14.00">2 (86.7)</text>
</g>
<!-- 0211 -->
<g id="node19" class="node"><title>0211</title>
<ellipse fill="#ff8a8a" stroke="#b43f3f" cx="176.397" cy="-105" rx="40.0939" ry="18"/>
<text text-anchor="middle" x="176.397" y="-101.3" font-family="Times,serif" font-size="14.00">0211 (a)</text>
</g>
<!-- 07&#45;&gt;0211 -->
<g id="edge17" class="edge"><title>07&#45;&gt;0211</title>
<path fill="none" stroke="#b43f3f" stroke-dasharray="1,5" d="M333.373,-183.938C310.942,-177.948 279.43,-168.361 253.397,-156 236.346,-147.904 218.593,-136.599 204.436,-126.786"/>
<polygon fill="#b43f3f" stroke="#b43f3f" points="206.311,-123.825 196.125,-120.911 202.271,-129.541 206.311,-123.825"/>
<text text-anchor="middle" x="275.397" y="-144.8" font-family="Times,serif" font-size="14.00">2 (82.9)</text>
</g>
<!-- 037 -->
<g id="node20" class="node"><title>037</title>
<ellipse fill="#ff8a8a" stroke="#b43f3f" cx="271.397" cy="-105" rx="36.2938" ry="18"/>
<text text-anchor="middle" x="271.397" y="-101.3" font-family="Times,serif" font-size="14.00">037 (a)</text>
</g>
<!-- 07&#45;&gt;037 -->
<g id="edge18" class="edge"><title>07&#45;&gt;037</title>
<path fill="none" stroke="#b43f3f" stroke-dasharray="1,5" d="M341.978,-177.672C333.134,-171.512 322.886,-163.834 314.397,-156 305.853,-148.115 297.321,-138.619 290.136,-130.029"/>
<polygon fill="#b43f3f" stroke="#b43f3f" points="292.741,-127.685 283.704,-122.155 287.32,-132.113 292.741,-127.685"/>
<text text-anchor="middle" x="336.397" y="-144.8" font-family="Times,serif" font-size="14.00">1 (97.5)</text>
</g>
<!-- 034 -->
<g id="node21" class="node"><title>034</title>
<ellipse fill="#ff8a8a" stroke="#b43f3f" cx="362.397" cy="-105" rx="36.2938" ry="18"/>
<text text-anchor="middle" x="362.397" y="-101.3" font-family="Times,serif" font-size="14.00">034 (a)</text>
</g>
<!-- 07&#45;&gt;034 -->
<g id="edge19" class="edge"><title>07&#45;&gt;034</title>
<path fill="none" stroke="#b43f3f" stroke-dasharray="1,5" d="M362.397,-173.799C362.397,-162.163 362.397,-146.548 362.397,-133.237"/>
<polygon fill="#b43f3f" stroke="#b43f3f" points="365.897,-133.175 362.397,-123.175 358.897,-133.175 365.897,-133.175"/>
<text text-anchor="middle" x="384.397" y="-144.8" font-family="Times,serif" font-size="14.00">1 (95.1)</text>
</g>
<!-- 030 -->
<g id="node22" class="node"><title>030</title>
<ellipse fill="#ff8a8a" stroke="#b43f3f" cx="453.397" cy="-105" rx="36.2938" ry="18"/>
<text text-anchor="middle" x="453.397" y="-101.3" font-family="Times,serif" font-size="14.00">030 (a)</text>
</g>
<!-- 07&#45;&gt;030 -->
<g id="edge20" class="edge"><title>07&#45;&gt;030</title>
<path fill="none" stroke="#b43f3f" stroke-dasharray="1,5" d="M382.816,-177.672C391.659,-171.512 401.908,-163.834 410.397,-156 418.941,-148.115 427.472,-138.619 434.657,-130.029"/>
<polygon fill="#b43f3f" stroke="#b43f3f" points="437.474,-132.113 441.089,-122.155 432.053,-127.685 437.474,-132.113"/>
<text text-anchor="middle" x="446.397" y="-144.8" font-family="Times,serif" font-size="14.00">1 (95.1)</text>
</g>
<!-- 038 -->
<g id="node23" class="node"><title>038</title>
<ellipse fill="#ff8a8a" stroke="#b43f3f" cx="544.397" cy="-105" rx="36.2938" ry="18"/>
<text text-anchor="middle" x="544.397" y="-101.3" font-family="Times,serif" font-size="14.00">038 (a)</text>
</g>
<!-- 045&#45;&gt;038 -->
<g id="edge21" class="edge"><title>045&#45;&gt;038</title>
<path fill="none" stroke="#b43f3f" stroke-dasharray="1,5" d="M544.397,-173.799C544.397,-162.163 544.397,-146.548 544.397,-133.237"/>
<polygon fill="#b43f3f" stroke="#b43f3f" points="547.897,-133.175 544.397,-123.175 540.897,-133.175 547.897,-133.175"/>
<text text-anchor="middle" x="566.397" y="-144.8" font-family="Times,serif" font-size="14.00">1 (92.7)</text>
</g>
<!-- 036 -->
<g id="node24" class="node"><title>036</title>
<ellipse fill="#ff8a8a" stroke="#b43f3f" cx="635.397" cy="-105" rx="36.2938" ry="18"/>
<text text-anchor="middle" x="635.397" y="-101.3" font-family="Times,serif" font-size="14.00">036 (a)</text>
</g>
<!-- 021&#45;&gt;036 -->
<g id="edge22" class="edge"><title>021&#45;&gt;036</title>
<path fill="none" stroke="#b43f3f" stroke-dasharray="1,5" d="M635.397,-173.799C635.397,-162.163 635.397,-146.548 635.397,-133.237"/>
<polygon fill="#b43f3f" stroke="#b43f3f" points="638.897,-133.175 635.397,-123.175 631.897,-133.175 638.897,-133.175"/>
<text text-anchor="middle" x="657.397" y="-144.8" font-family="Times,serif" font-size="14.00">1 (97.6)</text>
</g>
<!-- 047 -->
<g id="node25" class="node"><title>047</title>
<ellipse fill="#ff8a8a" stroke="#b43f3f" cx="726.397" cy="-105" rx="36.2938" ry="18"/>
<text text-anchor="middle" x="726.397" y="-101.3" font-family="Times,serif" font-size="14.00">047 (a)</text>
</g>
<!-- 021&#45;&gt;047 -->
<g id="edge23" class="edge"><title>021&#45;&gt;047</title>
<path fill="none" stroke="#b43f3f" stroke-dasharray="1,5" d="M656.768,-177.006C665.389,-170.963 675.211,-163.554 683.397,-156 691.941,-148.115 700.472,-138.619 707.657,-130.029"/>
<polygon fill="#b43f3f" stroke="#b43f3f" points="710.474,-132.113 714.089,-122.155 705.053,-127.685 710.474,-132.113"/>
<text text-anchor="middle" x="719.397" y="-144.8" font-family="Times,serif" font-size="14.00">1 (95.1)</text>
</g>
<!-- 013 -->
<g id="node14" class="node"><title>013</title>
<ellipse fill="#ff8a8a" stroke="#b43f3f" cx="36.3968" cy="-18" rx="36.2938" ry="18"/>
<text text-anchor="middle" x="36.3968" y="-14.3" font-family="Times,serif" font-size="14.00">013 (a)</text>
</g>
<!-- 031&#45;&gt;013 -->
<g id="edge12" class="edge"><title>031&#45;&gt;013</title>
<path fill="none" stroke="#b43f3f" stroke-dasharray="1,5" d="M71.6438,-87.3706C68.3224,-81.5933 64.633,-75.047 61.3968,-69 57.2295,-61.2133 52.8659,-52.6446 48.9722,-44.8337"/>
<polygon fill="#b43f3f" stroke="#b43f3f" points="52.0688,-43.1997 44.5005,-35.7855 45.7934,-46.3011 52.0688,-43.1997"/>
<text text-anchor="middle" x="83.3968" y="-57.8" font-family="Times,serif" font-size="14.00">1 (97.1)</text>
</g>
<!-- 017 -->
<g id="node15" class="node"><title>017</title>
<ellipse fill="#ff8a8a" stroke="#b43f3f" cx="127.397" cy="-18" rx="36.2938" ry="18"/>
<text text-anchor="middle" x="127.397" y="-14.3" font-family="Times,serif" font-size="14.00">017 (a)</text>
</g>
<!-- 031&#45;&gt;017 -->
<g id="edge13" class="edge"><title>031&#45;&gt;017</title>
<path fill="none" stroke="#b43f3f" stroke-dasharray="1,5" d="M93.5262,-87.6704C97.5459,-81.9172 101.886,-75.3093 105.397,-69 109.547,-61.5417 113.498,-53.1477 116.877,-45.3977"/>
<polygon fill="#b43f3f" stroke="#b43f3f" points="120.161,-46.6185 120.824,-36.0444 113.712,-43.8974 120.161,-46.6185"/>
<text text-anchor="middle" x="135.397" y="-57.8" font-family="Times,serif" font-size="14.00">1 (94.3)</text>
</g>
<!-- 03 -->
<g id="node16" class="node"><title>03</title>
<ellipse fill="#ff8a8a" stroke="#b43f3f" cx="630.397" cy="-366" rx="31.6951" ry="18"/>
<text text-anchor="middle" x="630.397" y="-362.3" font-family="Times,serif" font-size="14.00">03 (a)</text>
</g>
<!-- 03&#45;&gt;044 -->
<g id="edge14" class="edge"><title>03&#45;&gt;044</title>
<path fill="none" stroke="#b43f3f" stroke-dasharray="1,5" d="M609.75,-351.912C600.864,-345.796 590.645,-338.086 582.397,-330 574.572,-322.329 567.035,-312.975 560.765,-304.442"/>
<polygon fill="#b43f3f" stroke="#b43f3f" points="563.603,-302.394 554.954,-296.275 557.899,-306.452 563.603,-302.394"/>
<text text-anchor="middle" x="604.397" y="-318.8" font-family="Times,serif" font-size="14.00">1 (89.2)</text>
</g>
<!-- 02 -->
<g id="node17" class="node"><title>02</title>
<ellipse fill="#ff8a8a" stroke="#b43f3f" cx="630.397" cy="-279" rx="31.6951" ry="18"/>
<text text-anchor="middle" x="630.397" y="-275.3" font-family="Times,serif" font-size="14.00">02 (a)</text>
</g>
<!-- 03&#45;&gt;02 -->
<g id="edge15" class="edge"><title>03&#45;&gt;02</title>
<path fill="none" stroke="#b43f3f" stroke-dasharray="1,5" d="M630.397,-347.799C630.397,-336.163 630.397,-320.548 630.397,-307.237"/>
<polygon fill="#b43f3f" stroke="#b43f3f" points="633.897,-307.175 630.397,-297.175 626.897,-307.175 633.897,-307.175"/>
<text text-anchor="middle" x="652.397" y="-318.8" font-family="Times,serif" font-size="14.00">1 (86.5)</text>
</g>
<!-- 032 -->
<g id="node18" class="node"><title>032</title>
<ellipse fill="#ff8a8a" stroke="#b43f3f" cx="716.397" cy="-279" rx="36.2938" ry="18"/>
<text text-anchor="middle" x="716.397" y="-275.3" font-family="Times,serif" font-size="14.00">032 (a)</text>
</g>
<!-- 03&#45;&gt;032 -->
<g id="edge16" class="edge"><title>03&#45;&gt;032</title>
<path fill="none" stroke="#b43f3f" stroke-dasharray="1,5" d="M651.044,-351.912C659.93,-345.796 670.148,-338.086 678.397,-330 686.221,-322.329 693.759,-312.975 700.029,-304.442"/>
<polygon fill="#b43f3f" stroke="#b43f3f" points="702.894,-306.452 705.84,-296.275 697.191,-302.394 702.894,-306.452"/>
<text text-anchor="middle" x="713.397" y="-318.8" font-family="Times,serif" font-size="14.00">1 (91.7)</text>
</g>
<!-- 01 -->
<g id="node26" class="node"><title>01</title>
<ellipse fill="#cea8f4" stroke="#835da9" cx="712.397" cy="-366" rx="32.4942" ry="18"/>
<text text-anchor="middle" x="712.397" y="-362.3" font-family="Times,serif" font-size="14.00">01 (b)</text>
</g>
<!-- 019 -->
<g id="node27" class="node"><title>019</title>
<ellipse fill="#cea8f4" stroke="#835da9" cx="799.397" cy="-366" rx="36.2938" ry="18"/>
<text text-anchor="middle" x="799.397" y="-362.3" font-family="Times,serif" font-size="14.00">019 (b)</text>
</g>
<!-- P75 -->
<g id="node28" class="node"><title>P75</title>
<ellipse fill="#cea8f4" stroke="#835da9" cx="890.397" cy="-366" rx="37.0935" ry="18"/>
<text text-anchor="middle" x="890.397" y="-362.3" font-family="Times,serif" font-size="14.00">P75 (b)</text>
</g>
</g>
</svg>
