<?xml version="1.0" encoding="UTF-8" standalone="no"?>
<!DOCTYPE svg PUBLIC "-//W3C//DTD SVG 1.1//EN"
 "http://www.w3.org/Graphics/SVG/1.1/DTD/svg11.dtd">
<!-- Generated by graphviz version 2.38.0 (20140413.2041)
 -->
<!-- Title: %3 Pages: 1 -->
<svg width="971pt" height="424pt"
 viewBox="0.00 0.00 971.00 424.00" xmlns="http://www.w3.org/2000/svg" xmlns:xlink="http://www.w3.org/1999/xlink">
<g id="graph0" class="graph" transform="scale(1 1) rotate(0) translate(4 420)">
<title>%3</title>
<polygon fill="white" stroke="none" points="-4,4 -4,-420 967,-420 967,4 -4,4"/>
<g id="clust1" class="cluster"><title>cluster_legend</title>
<path fill="none" stroke="black" d="M20,-280C20,-280 210,-280 210,-280 216,-280 222,-286 222,-292 222,-292 222,-396 222,-396 222,-402 216,-408 210,-408 210,-408 20,-408 20,-408 14,-408 8,-402 8,-396 8,-396 8,-292 8,-292 8,-286 14,-280 20,-280"/>
</g>
<g id="clust2" class="cluster"><title>cluster_reading</title>
<polygon fill="none" stroke="black" points="230,-8 230,-408 955,-408 955,-8 230,-8"/>
</g>
<!-- leg_s -->
<g id="node1" class="node"><title>leg_s</title>
<text text-anchor="middle" x="115" y="-378.3" font-family="Times,serif" font-size="14.00">Textual flow strength</text>
</g>
<!-- leg_e1 -->
<!-- leg_s&#45;&gt;leg_e1 -->
<g id="edge1" class="edge"><title>leg_s&#45;&gt;leg_e1</title>
<path fill="none" stroke="black" stroke-dasharray="1,5" d="M96.6657,-363.686C91.1324,-358.194 85.1607,-351.989 80,-346 70.1708,-334.593 60.0722,-320.779 52.9137,-310.563"/>
<polygon fill="black" stroke="black" points="55.6142,-308.314 47.056,-302.068 49.8514,-312.288 55.6142,-308.314"/>
<text text-anchor="middle" x="95.5" y="-334.8" font-family="Times,serif" font-size="14.00">&lt;=5 &#160;</text>
</g>
<!-- leg_e2 -->
<!-- leg_s&#45;&gt;leg_e2 -->
<g id="edge2" class="edge"><title>leg_s&#45;&gt;leg_e2</title>
<path fill="none" stroke="black" stroke-dasharray="5,2" d="M115,-363.799C115,-348.794 115,-327.174 115,-312.409"/>
<polygon fill="black" stroke="black" points="118.5,-312.293 115,-302.293 111.5,-312.293 118.5,-312.293"/>
<text text-anchor="middle" x="134" y="-334.8" font-family="Times,serif" font-size="14.00"> &#160;&lt;=25</text>
</g>
<!-- leg_e3 -->
<!-- leg_s&#45;&gt;leg_e3 -->
<g id="edge3" class="edge"><title>leg_s&#45;&gt;leg_e3</title>
<path fill="none" stroke="black" d="M138.503,-363.76C144.906,-358.462 151.567,-352.344 157,-346 166.087,-335.39 174.095,-321.689 179.546,-311.313"/>
<polygon fill="black" stroke="black" points="182.722,-312.789 184.091,-302.283 176.469,-309.642 182.722,-312.789"/>
<text text-anchor="middle" x="179" y="-334.8" font-family="Times,serif" font-size="14.00">&gt;25</text>
</g>
<!-- 021 -->
<g id="node5" class="node"><title>021</title>
<ellipse fill="#ff8a8a" stroke="#b43f3f" cx="405" cy="-121" rx="36.2938" ry="18"/>
<text text-anchor="middle" x="405" y="-117.3" font-family="Times,serif" font-size="14.00">021 (a)</text>
</g>
<!-- 036 -->
<g id="node6" class="node"><title>036</title>
<ellipse fill="#ff8a8a" stroke="#b43f3f" cx="274" cy="-34" rx="36.2938" ry="18"/>
<text text-anchor="middle" x="274" y="-30.3" font-family="Times,serif" font-size="14.00">036 (a)</text>
</g>
<!-- 021&#45;&gt;036 -->
<g id="edge4" class="edge"><title>021&#45;&gt;036</title>
<path fill="none" stroke="#b43f3f" stroke-dasharray="1,5" d="M378.641,-108.527C365.188,-102.251 348.796,-93.9428 335,-85 322.273,-76.7497 309.139,-66.2783 298.334,-57.0524"/>
<polygon fill="#b43f3f" stroke="#b43f3f" points="300.411,-54.2209 290.57,-50.2975 295.817,-59.5019 300.411,-54.2209"/>
<text text-anchor="middle" x="357" y="-73.8" font-family="Times,serif" font-size="14.00">1 (97.6)</text>
</g>
<!-- 047 -->
<g id="node7" class="node"><title>047</title>
<ellipse fill="#ff8a8a" stroke="#b43f3f" cx="365" cy="-34" rx="36.2938" ry="18"/>
<text text-anchor="middle" x="365" y="-30.3" font-family="Times,serif" font-size="14.00">047 (a)</text>
</g>
<!-- 021&#45;&gt;047 -->
<g id="edge5" class="edge"><title>021&#45;&gt;047</title>
<path fill="none" stroke="#b43f3f" stroke-dasharray="1,5" d="M397.097,-103.207C391.454,-91.2156 383.753,-74.8511 377.309,-61.1571"/>
<polygon fill="#b43f3f" stroke="#b43f3f" points="380.311,-59.3163 372.886,-51.7584 373.977,-62.2969 380.311,-59.3163"/>
<text text-anchor="middle" x="410" y="-73.8" font-family="Times,serif" font-size="14.00">1 (95.1)</text>
</g>
<!-- A -->
<g id="node8" class="node"><title>A</title>
<ellipse fill="#ff8a8a" stroke="#b43f3f" cx="575" cy="-382" rx="29.4969" ry="18"/>
<text text-anchor="middle" x="575" y="-378.3" font-family="Times,serif" font-size="14.00">A (a)</text>
</g>
<!-- 01 -->
<g id="node9" class="node"><title>01</title>
<ellipse fill="#ff8a8a" stroke="#b43f3f" cx="407" cy="-295" rx="31.6951" ry="18"/>
<text text-anchor="middle" x="407" y="-291.3" font-family="Times,serif" font-size="14.00">01 (a)</text>
</g>
<!-- A&#45;&gt;01 -->
<g id="edge6" class="edge"><title>A&#45;&gt;01</title>
<path fill="none" stroke="#b43f3f" stroke-dasharray="5,2" d="M547.647,-375.202C525.083,-369.714 492.715,-360.184 467,-346 453.565,-338.589 440.284,-327.961 429.646,-318.407"/>
<polygon fill="#b43f3f" stroke="#b43f3f" points="431.781,-315.614 422.068,-311.382 427.022,-320.747 431.781,-315.614"/>
<text text-anchor="middle" x="489" y="-334.8" font-family="Times,serif" font-size="14.00">1 (57.1)</text>
</g>
<!-- 03 -->
<g id="node10" class="node"><title>03</title>
<ellipse fill="#ff8a8a" stroke="#b43f3f" cx="489" cy="-295" rx="31.6951" ry="18"/>
<text text-anchor="middle" x="489" y="-291.3" font-family="Times,serif" font-size="14.00">03 (a)</text>
</g>
<!-- A&#45;&gt;03 -->
<g id="edge7" class="edge"><title>A&#45;&gt;03</title>
<path fill="none" stroke="#b43f3f" stroke-dasharray="1,5" d="M555.3,-368.561C546.199,-362.347 535.543,-354.375 527,-346 519.175,-338.329 511.638,-328.975 505.368,-320.442"/>
<polygon fill="#b43f3f" stroke="#b43f3f" points="508.206,-318.394 499.557,-312.275 502.503,-322.452 508.206,-318.394"/>
<text text-anchor="middle" x="549" y="-334.8" font-family="Times,serif" font-size="14.00">1 (93.3)</text>
</g>
<!-- 019 -->
<g id="node11" class="node"><title>019</title>
<ellipse fill="#ff8a8a" stroke="#b43f3f" cx="575" cy="-295" rx="36.2938" ry="18"/>
<text text-anchor="middle" x="575" y="-291.3" font-family="Times,serif" font-size="14.00">019 (a)</text>
</g>
<!-- A&#45;&gt;019 -->
<g id="edge8" class="edge"><title>A&#45;&gt;019</title>
<path fill="none" stroke="#b43f3f" stroke-dasharray="1,5" d="M575,-363.799C575,-352.163 575,-336.548 575,-323.237"/>
<polygon fill="#b43f3f" stroke="#b43f3f" points="578.5,-323.175 575,-313.175 571.5,-323.175 578.5,-323.175"/>
<text text-anchor="middle" x="597" y="-334.8" font-family="Times,serif" font-size="14.00">1 (93.3)</text>
</g>
<!-- 091 -->
<g id="node12" class="node"><title>091</title>
<ellipse fill="#ff8a8a" stroke="#b43f3f" cx="666" cy="-295" rx="36.2938" ry="18"/>
<text text-anchor="middle" x="666" y="-291.3" font-family="Times,serif" font-size="14.00">091 (a)</text>
</g>
<!-- A&#45;&gt;091 -->
<g id="edge9" class="edge"><title>A&#45;&gt;091</title>
<path fill="none" stroke="#b43f3f" stroke-dasharray="1,5" d="M594.477,-368.326C603.528,-362.06 614.208,-354.113 623,-346 631.544,-338.115 640.076,-328.619 647.26,-320.029"/>
<polygon fill="#b43f3f" stroke="#b43f3f" points="650.077,-322.113 653.692,-312.155 644.656,-317.685 650.077,-322.113"/>
<text text-anchor="middle" x="659" y="-334.8" font-family="Times,serif" font-size="14.00">1 (87.5)</text>
</g>
<!-- P75 -->
<g id="node13" class="node"><title>P75</title>
<ellipse fill="#ff8a8a" stroke="#b43f3f" cx="757" cy="-295" rx="36.2938" ry="18"/>
<text text-anchor="middle" x="757" y="-291.3" font-family="Times,serif" font-size="14.00">P75 (a)</text>
</g>
<!-- A&#45;&gt;P75 -->
<g id="edge10" class="edge"><title>A&#45;&gt;P75</title>
<path fill="none" stroke="#b43f3f" stroke-dasharray="1,5" d="M602.089,-374.797C624.901,-369.013 658.031,-359.279 685,-346 701.128,-338.059 717.702,-326.801 730.877,-316.977"/>
<polygon fill="#b43f3f" stroke="#b43f3f" points="733.176,-319.626 739.004,-310.778 728.931,-314.06 733.176,-319.626"/>
<text text-anchor="middle" x="732" y="-334.8" font-family="Times,serif" font-size="14.00">1 (93.3)</text>
</g>
<!-- 044 -->
<g id="node14" class="node"><title>044</title>
<ellipse fill="#ff8a8a" stroke="#b43f3f" cx="313" cy="-208" rx="36.2938" ry="18"/>
<text text-anchor="middle" x="313" y="-204.3" font-family="Times,serif" font-size="14.00">044 (a)</text>
</g>
<!-- 03&#45;&gt;044 -->
<g id="edge11" class="edge"><title>03&#45;&gt;044</title>
<path fill="none" stroke="#b43f3f" stroke-dasharray="1,5" d="M464.483,-283.224C459.102,-281.031 453.399,-278.836 448,-277 418.808,-267.074 408.788,-272.363 381,-259 365.549,-251.57 350.018,-240.487 337.707,-230.643"/>
<polygon fill="#b43f3f" stroke="#b43f3f" points="339.684,-227.738 329.739,-224.086 335.236,-233.143 339.684,-227.738"/>
<text text-anchor="middle" x="403" y="-247.8" font-family="Times,serif" font-size="14.00">1 (89.2)</text>
</g>
<!-- 02 -->
<g id="node15" class="node"><title>02</title>
<ellipse fill="#ff8a8a" stroke="#b43f3f" cx="403" cy="-208" rx="31.6951" ry="18"/>
<text text-anchor="middle" x="403" y="-204.3" font-family="Times,serif" font-size="14.00">02 (a)</text>
</g>
<!-- 03&#45;&gt;02 -->
<g id="edge12" class="edge"><title>03&#45;&gt;02</title>
<path fill="none" stroke="#b43f3f" stroke-dasharray="1,5" d="M468.353,-280.912C459.467,-274.796 449.248,-267.086 441,-259 433.175,-251.329 425.638,-241.975 419.368,-233.442"/>
<polygon fill="#b43f3f" stroke="#b43f3f" points="422.206,-231.394 413.557,-225.275 416.503,-235.452 422.206,-231.394"/>
<text text-anchor="middle" x="463" y="-247.8" font-family="Times,serif" font-size="14.00">1 (86.5)</text>
</g>
<!-- 032 -->
<g id="node16" class="node"><title>032</title>
<ellipse fill="#ff8a8a" stroke="#b43f3f" cx="489" cy="-208" rx="36.2938" ry="18"/>
<text text-anchor="middle" x="489" y="-204.3" font-family="Times,serif" font-size="14.00">032 (a)</text>
</g>
<!-- 03&#45;&gt;032 -->
<g id="edge13" class="edge"><title>03&#45;&gt;032</title>
<path fill="none" stroke="#b43f3f" stroke-dasharray="1,5" d="M489,-276.799C489,-265.163 489,-249.548 489,-236.237"/>
<polygon fill="#b43f3f" stroke="#b43f3f" points="492.5,-236.175 489,-226.175 485.5,-236.175 492.5,-236.175"/>
<text text-anchor="middle" x="511" y="-247.8" font-family="Times,serif" font-size="14.00">1 (91.7)</text>
</g>
<!-- 063 -->
<g id="node17" class="node"><title>063</title>
<ellipse fill="#ff8a8a" stroke="#b43f3f" cx="580" cy="-208" rx="36.2938" ry="18"/>
<text text-anchor="middle" x="580" y="-204.3" font-family="Times,serif" font-size="14.00">063 (a)</text>
</g>
<!-- 019&#45;&gt;063 -->
<g id="edge19" class="edge"><title>019&#45;&gt;063</title>
<path fill="none" stroke="#b43f3f" stroke-dasharray="1,5" d="M576.012,-276.799C576.696,-265.163 577.615,-249.548 578.398,-236.237"/>
<polygon fill="#b43f3f" stroke="#b43f3f" points="581.896,-236.364 578.99,-226.175 574.908,-235.953 581.896,-236.364"/>
<text text-anchor="middle" x="600" y="-247.8" font-family="Times,serif" font-size="14.00">1 (85.7)</text>
</g>
<!-- 05 -->
<g id="node27" class="node"><title>05</title>
<ellipse fill="#ff8a8a" stroke="#b43f3f" cx="666" cy="-208" rx="31.6951" ry="18"/>
<text text-anchor="middle" x="666" y="-204.3" font-family="Times,serif" font-size="14.00">05 (a)</text>
</g>
<!-- 091&#45;&gt;05 -->
<g id="edge25" class="edge"><title>091&#45;&gt;05</title>
<path fill="none" stroke="#b43f3f" stroke-dasharray="1,5" d="M666,-276.799C666,-265.163 666,-249.548 666,-236.237"/>
<polygon fill="#b43f3f" stroke="#b43f3f" points="669.5,-236.175 666,-226.175 662.5,-236.175 669.5,-236.175"/>
<text text-anchor="middle" x="688" y="-247.8" font-family="Times,serif" font-size="14.00">1 (87.5)</text>
</g>
<!-- 0211 -->
<g id="node28" class="node"><title>0211</title>
<ellipse fill="#ff8a8a" stroke="#b43f3f" cx="756" cy="-208" rx="40.0939" ry="18"/>
<text text-anchor="middle" x="756" y="-204.3" font-family="Times,serif" font-size="14.00">0211 (a)</text>
</g>
<!-- 091&#45;&gt;0211 -->
<g id="edge26" class="edge"><title>091&#45;&gt;0211</title>
<path fill="none" stroke="#b43f3f" stroke-dasharray="1,5" d="M687.416,-280.054C696.043,-274.018 705.858,-266.601 714,-259 722.204,-251.341 730.343,-242.128 737.242,-233.709"/>
<polygon fill="#b43f3f" stroke="#b43f3f" points="740.179,-235.639 743.683,-225.641 734.709,-231.272 740.179,-235.639"/>
<text text-anchor="middle" x="749" y="-247.8" font-family="Times,serif" font-size="14.00">1 (83.3)</text>
</g>
<!-- 0141 -->
<g id="node29" class="node"><title>0141</title>
<ellipse fill="#ff8a8a" stroke="#b43f3f" cx="310" cy="-121" rx="40.0939" ry="18"/>
<text text-anchor="middle" x="310" y="-117.3" font-family="Times,serif" font-size="14.00">0141 (a)</text>
</g>
<!-- 044&#45;&gt;0141 -->
<g id="edge27" class="edge"><title>044&#45;&gt;0141</title>
<path fill="none" stroke="#b43f3f" stroke-dasharray="1,5" d="M312.393,-189.799C311.982,-178.163 311.431,-162.548 310.961,-149.237"/>
<polygon fill="#b43f3f" stroke="#b43f3f" points="314.457,-149.046 310.606,-139.175 307.461,-149.293 314.457,-149.046"/>
<text text-anchor="middle" x="334" y="-160.8" font-family="Times,serif" font-size="14.00">1 (89.2)</text>
</g>
<!-- 063&#45;&gt;021 -->
<g id="edge14" class="edge"><title>063&#45;&gt;021</title>
<path fill="none" stroke="#b43f3f" stroke-dasharray="1,5" d="M551.857,-196.356C545.975,-194.2 539.799,-191.986 534,-190 508.866,-181.393 500.847,-183.709 477,-172 460.863,-164.077 444.289,-152.82 431.116,-142.993"/>
<polygon fill="#b43f3f" stroke="#b43f3f" points="433.062,-140.075 422.99,-136.791 428.816,-145.64 433.062,-140.075"/>
<text text-anchor="middle" x="499" y="-160.8" font-family="Times,serif" font-size="14.00">1 (93.1)</text>
</g>
<!-- 011 -->
<g id="node18" class="node"><title>011</title>
<ellipse fill="#ff8a8a" stroke="#b43f3f" cx="501" cy="-121" rx="36.2938" ry="18"/>
<text text-anchor="middle" x="501" y="-117.3" font-family="Times,serif" font-size="14.00">011 (a)</text>
</g>
<!-- 063&#45;&gt;011 -->
<g id="edge15" class="edge"><title>063&#45;&gt;011</title>
<path fill="none" stroke="#b43f3f" stroke-dasharray="1,5" d="M559.685,-192.795C551.851,-186.833 543.089,-179.537 536,-172 528.963,-164.518 522.236,-155.533 516.595,-147.256"/>
<polygon fill="#b43f3f" stroke="#b43f3f" points="519.357,-145.086 510.935,-138.657 513.509,-148.935 519.357,-145.086"/>
<text text-anchor="middle" x="558" y="-160.8" font-family="Times,serif" font-size="14.00">1 (93.1)</text>
</g>
<!-- 07 -->
<g id="node19" class="node"><title>07</title>
<ellipse fill="#ff8a8a" stroke="#b43f3f" cx="587" cy="-121" rx="31.6951" ry="18"/>
<text text-anchor="middle" x="587" y="-117.3" font-family="Times,serif" font-size="14.00">07 (a)</text>
</g>
<!-- 063&#45;&gt;07 -->
<g id="edge16" class="edge"><title>063&#45;&gt;07</title>
<path fill="none" stroke="#b43f3f" stroke-dasharray="1,5" d="M581.417,-189.799C582.375,-178.163 583.661,-162.548 584.757,-149.237"/>
<polygon fill="#b43f3f" stroke="#b43f3f" points="588.253,-149.429 585.586,-139.175 581.277,-148.854 588.253,-149.429"/>
<text text-anchor="middle" x="606" y="-160.8" font-family="Times,serif" font-size="14.00">1 (96.6)</text>
</g>
<!-- 045 -->
<g id="node20" class="node"><title>045</title>
<ellipse fill="#ff8a8a" stroke="#b43f3f" cx="673" cy="-121" rx="36.2938" ry="18"/>
<text text-anchor="middle" x="673" y="-117.3" font-family="Times,serif" font-size="14.00">045 (a)</text>
</g>
<!-- 063&#45;&gt;045 -->
<g id="edge17" class="edge"><title>063&#45;&gt;045</title>
<path fill="none" stroke="#b43f3f" stroke-dasharray="1,5" d="M602.55,-193.858C612.102,-187.789 623.065,-180.129 632,-172 640.345,-164.408 648.457,-155.071 655.232,-146.529"/>
<polygon fill="#b43f3f" stroke="#b43f3f" points="658.202,-148.408 661.521,-138.346 652.652,-144.142 658.202,-148.408"/>
<text text-anchor="middle" x="668" y="-160.8" font-family="Times,serif" font-size="14.00">1 (93.1)</text>
</g>
<!-- 028 -->
<g id="node21" class="node"><title>028</title>
<ellipse fill="#ff8a8a" stroke="#b43f3f" cx="764" cy="-121" rx="36.2938" ry="18"/>
<text text-anchor="middle" x="764" y="-117.3" font-family="Times,serif" font-size="14.00">028 (a)</text>
</g>
<!-- 063&#45;&gt;028 -->
<g id="edge18" class="edge"><title>063&#45;&gt;028</title>
<path fill="none" stroke="#b43f3f" stroke-dasharray="1,5" d="M607.444,-196.105C613.204,-193.967 619.27,-191.824 625,-190 655.2,-180.386 665.295,-185.434 694,-172 709.978,-164.522 726.115,-153.3 738.862,-143.38"/>
<polygon fill="#b43f3f" stroke="#b43f3f" points="741.089,-146.081 746.713,-137.103 736.717,-140.614 741.089,-146.081"/>
<text text-anchor="middle" x="741" y="-160.8" font-family="Times,serif" font-size="14.00">1 (96.6)</text>
</g>
<!-- 030 -->
<g id="node22" class="node"><title>030</title>
<ellipse fill="#ff8a8a" stroke="#b43f3f" cx="456" cy="-34" rx="36.2938" ry="18"/>
<text text-anchor="middle" x="456" y="-30.3" font-family="Times,serif" font-size="14.00">030 (a)</text>
</g>
<!-- 07&#45;&gt;030 -->
<g id="edge20" class="edge"><title>07&#45;&gt;030</title>
<path fill="none" stroke="#b43f3f" stroke-dasharray="1,5" d="M562.209,-109.364C543.921,-101.345 520.758,-90.7724 512,-85 500.15,-77.1898 488.249,-66.9774 478.484,-57.8196"/>
<polygon fill="#b43f3f" stroke="#b43f3f" points="480.787,-55.1776 471.153,-50.7673 475.934,-60.2224 480.787,-55.1776"/>
<text text-anchor="middle" x="534" y="-73.8" font-family="Times,serif" font-size="14.00">1 (95.1)</text>
</g>
<!-- 017 -->
<g id="node23" class="node"><title>017</title>
<ellipse fill="#ff8a8a" stroke="#b43f3f" cx="547" cy="-34" rx="36.2938" ry="18"/>
<text text-anchor="middle" x="547" y="-30.3" font-family="Times,serif" font-size="14.00">017 (a)</text>
</g>
<!-- 07&#45;&gt;017 -->
<g id="edge21" class="edge"><title>07&#45;&gt;017</title>
<path fill="none" stroke="#b43f3f" stroke-dasharray="1,5" d="M576.556,-103.952C572.975,-98.1104 569.094,-91.3753 566,-85 562.392,-77.5645 558.996,-69.2558 556.101,-61.5796"/>
<polygon fill="#b43f3f" stroke="#b43f3f" points="559.316,-60.1802 552.608,-51.9797 552.738,-62.5737 559.316,-60.1802"/>
<text text-anchor="middle" x="588" y="-73.8" font-family="Times,serif" font-size="14.00">2 (92.7)</text>
</g>
<!-- 013 -->
<g id="node24" class="node"><title>013</title>
<ellipse fill="#ff8a8a" stroke="#b43f3f" cx="638" cy="-34" rx="36.2938" ry="18"/>
<text text-anchor="middle" x="638" y="-30.3" font-family="Times,serif" font-size="14.00">013 (a)</text>
</g>
<!-- 07&#45;&gt;013 -->
<g id="edge22" class="edge"><title>07&#45;&gt;013</title>
<path fill="none" stroke="#b43f3f" stroke-dasharray="1,5" d="M598.008,-103.772C601.889,-97.914 606.225,-91.2141 610,-85 614.752,-77.1774 619.705,-68.5198 624.101,-60.6376"/>
<polygon fill="#b43f3f" stroke="#b43f3f" points="627.19,-62.2834 628.959,-51.8373 621.062,-58.9002 627.19,-62.2834"/>
<text text-anchor="middle" x="641" y="-73.8" font-family="Times,serif" font-size="14.00">2 (95.1)</text>
</g>
<!-- 034 -->
<g id="node25" class="node"><title>034</title>
<ellipse fill="#ff8a8a" stroke="#b43f3f" cx="729" cy="-34" rx="36.2938" ry="18"/>
<text text-anchor="middle" x="729" y="-30.3" font-family="Times,serif" font-size="14.00">034 (a)</text>
</g>
<!-- 07&#45;&gt;034 -->
<g id="edge23" class="edge"><title>07&#45;&gt;034</title>
<path fill="none" stroke="#b43f3f" stroke-dasharray="1,5" d="M611.771,-109.555C633.344,-100.394 661.946,-88.0678 667,-85 680.317,-76.9169 693.92,-66.2651 704.978,-56.8708"/>
<polygon fill="#b43f3f" stroke="#b43f3f" points="707.283,-59.5054 712.54,-50.3073 702.694,-54.219 707.283,-59.5054"/>
<text text-anchor="middle" x="711" y="-73.8" font-family="Times,serif" font-size="14.00">1 (95.1)</text>
</g>
<!-- 037 -->
<g id="node26" class="node"><title>037</title>
<ellipse fill="#ff8a8a" stroke="#b43f3f" cx="820" cy="-34" rx="36.2938" ry="18"/>
<text text-anchor="middle" x="820" y="-30.3" font-family="Times,serif" font-size="14.00">037 (a)</text>
</g>
<!-- 07&#45;&gt;037 -->
<g id="edge24" class="edge"><title>07&#45;&gt;037</title>
<path fill="none" stroke="#b43f3f" stroke-dasharray="1,5" d="M610.953,-108.992C616.468,-106.761 622.369,-104.609 628,-103 675.211,-89.5082 690.926,-101.971 737,-85 756.662,-77.7577 776.839,-65.7266 792.376,-55.2811"/>
<polygon fill="#b43f3f" stroke="#b43f3f" points="794.708,-57.9242 800.948,-49.3623 790.73,-52.1638 794.708,-57.9242"/>
<text text-anchor="middle" x="790" y="-73.8" font-family="Times,serif" font-size="14.00">1 (97.5)</text>
</g>
<!-- 038 -->
<g id="node30" class="node"><title>038</title>
<ellipse fill="#ff8a8a" stroke="#b43f3f" cx="911" cy="-34" rx="36.2938" ry="18"/>
<text text-anchor="middle" x="911" y="-30.3" font-family="Times,serif" font-size="14.00">038 (a)</text>
</g>
<!-- 045&#45;&gt;038 -->
<g id="edge28" class="edge"><title>045&#45;&gt;038</title>
<path fill="none" stroke="#b43f3f" stroke-dasharray="1,5" d="M700.481,-108.977C706.52,-106.799 712.926,-104.673 719,-103 761.273,-91.3579 774.576,-99.3733 816,-85 838.642,-77.1439 862.506,-64.5652 880.652,-53.9901"/>
<polygon fill="#b43f3f" stroke="#b43f3f" points="882.778,-56.7982 889.584,-48.6783 879.2,-50.7818 882.778,-56.7982"/>
<text text-anchor="middle" x="870" y="-73.8" font-family="Times,serif" font-size="14.00">1 (92.7)</text>
</g>
</g>
</svg>
