<?xml version="1.0" encoding="UTF-8" standalone="no"?>
<!DOCTYPE svg PUBLIC "-//W3C//DTD SVG 1.1//EN"
 "http://www.w3.org/Graphics/SVG/1.1/DTD/svg11.dtd">
<!-- Generated by graphviz version 2.38.0 (20140413.2041)
 -->
<!-- Title: %3 Pages: 1 -->
<svg width="1061pt" height="337pt"
 viewBox="0.00 0.00 1061.00 337.00" xmlns="http://www.w3.org/2000/svg" xmlns:xlink="http://www.w3.org/1999/xlink">
<g id="graph0" class="graph" transform="scale(1 1) rotate(0) translate(4 333)">
<title>%3</title>
<polygon fill="white" stroke="none" points="-4,4 -4,-333 1057,-333 1057,4 -4,4"/>
<g id="clust1" class="cluster"><title>cluster_reading</title>
<polygon fill="none" stroke="black" points="8,-8 8,-321 823,-321 823,-8 8,-8"/>
</g>
<g id="clust2" class="cluster"><title>cluster_legend</title>
<path fill="none" stroke="black" d="M843,-193C843,-193 1033,-193 1033,-193 1039,-193 1045,-199 1045,-205 1045,-205 1045,-309 1045,-309 1045,-315 1039,-321 1033,-321 1033,-321 843,-321 843,-321 837,-321 831,-315 831,-309 831,-309 831,-205 831,-205 831,-199 837,-193 843,-193"/>
</g>
<!-- 031 -->
<g id="node1" class="node"><title>031</title>
<ellipse fill="#ff8a8a" stroke="#b43f3f" cx="172" cy="-121" rx="36.2938" ry="18"/>
<text text-anchor="middle" x="172" y="-117.3" font-family="Times,serif" font-size="14.00">031 (a)</text>
</g>
<!-- 01 -->
<g id="node2" class="node"><title>01</title>
<ellipse fill="#ff8a8a" stroke="#b43f3f" cx="48" cy="-34" rx="31.6951" ry="18"/>
<text text-anchor="middle" x="48" y="-30.3" font-family="Times,serif" font-size="14.00">01 (a)</text>
</g>
<!-- 031&#45;&gt;01 -->
<g id="edge1" class="edge"><title>031&#45;&gt;01</title>
<path fill="none" stroke="#b43f3f" stroke-dasharray="1,5" d="M142.709,-110.117C127.396,-104.17 108.811,-95.673 94,-85 83.8891,-77.7141 74.2886,-67.9254 66.4995,-58.9409"/>
<polygon fill="#b43f3f" stroke="#b43f3f" points="68.9827,-56.4535 59.8927,-51.0107 63.6045,-60.9341 68.9827,-56.4535"/>
<text text-anchor="middle" x="116" y="-73.8" font-family="Times,serif" font-size="14.00">2 (48.5)</text>
</g>
<!-- 013 -->
<g id="node3" class="node"><title>013</title>
<ellipse fill="#ff8a8a" stroke="#b43f3f" cx="134" cy="-34" rx="36.2938" ry="18"/>
<text text-anchor="middle" x="134" y="-30.3" font-family="Times,serif" font-size="14.00">013 (a)</text>
</g>
<!-- 031&#45;&gt;013 -->
<g id="edge2" class="edge"><title>031&#45;&gt;013</title>
<path fill="none" stroke="#b43f3f" stroke-dasharray="1,5" d="M158.728,-104.036C154.489,-98.3121 150.099,-91.6293 147,-85 143.657,-77.8499 141.077,-69.7073 139.129,-62.0994"/>
<polygon fill="#b43f3f" stroke="#b43f3f" points="142.505,-61.1616 136.853,-52.1999 135.683,-62.7298 142.505,-61.1616"/>
<text text-anchor="middle" x="169" y="-73.8" font-family="Times,serif" font-size="14.00">1 (97.1)</text>
</g>
<!-- 017 -->
<g id="node4" class="node"><title>017</title>
<ellipse fill="#ff8a8a" stroke="#b43f3f" cx="225" cy="-34" rx="36.2938" ry="18"/>
<text text-anchor="middle" x="225" y="-30.3" font-family="Times,serif" font-size="14.00">017 (a)</text>
</g>
<!-- 031&#45;&gt;017 -->
<g id="edge3" class="edge"><title>031&#45;&gt;017</title>
<path fill="none" stroke="#b43f3f" stroke-dasharray="1,5" d="M182.219,-103.611C189.918,-91.2642 200.61,-74.1167 209.378,-60.0534"/>
<polygon fill="#b43f3f" stroke="#b43f3f" points="212.491,-61.676 214.812,-51.3385 206.551,-57.9723 212.491,-61.676"/>
<text text-anchor="middle" x="224" y="-73.8" font-family="Times,serif" font-size="14.00">1 (94.3)</text>
</g>
<!-- 044 -->
<g id="node5" class="node"><title>044</title>
<ellipse fill="#ff8a8a" stroke="#b43f3f" cx="607" cy="-208" rx="36.2938" ry="18"/>
<text text-anchor="middle" x="607" y="-204.3" font-family="Times,serif" font-size="14.00">044 (a)</text>
</g>
<!-- 022 -->
<g id="node6" class="node"><title>022</title>
<ellipse fill="#ff8a8a" stroke="#b43f3f" cx="680" cy="-121" rx="36.2938" ry="18"/>
<text text-anchor="middle" x="680" y="-117.3" font-family="Times,serif" font-size="14.00">022 (a)</text>
</g>
<!-- 044&#45;&gt;022 -->
<g id="edge4" class="edge"><title>044&#45;&gt;022</title>
<path fill="none" stroke="#b43f3f" stroke-dasharray="1,5" d="M620.731,-191.012C631.743,-178.19 647.358,-160.007 659.797,-145.524"/>
<polygon fill="#b43f3f" stroke="#b43f3f" points="662.471,-147.783 666.331,-137.916 657.16,-143.222 662.471,-147.783"/>
<text text-anchor="middle" x="670" y="-160.8" font-family="Times,serif" font-size="14.00">1 (91.7)</text>
</g>
<!-- 0141 -->
<g id="node7" class="node"><title>0141</title>
<ellipse fill="#ff8a8a" stroke="#b43f3f" cx="775" cy="-121" rx="40.0939" ry="18"/>
<text text-anchor="middle" x="775" y="-117.3" font-family="Times,serif" font-size="14.00">0141 (a)</text>
</g>
<!-- 044&#45;&gt;0141 -->
<g id="edge5" class="edge"><title>044&#45;&gt;0141</title>
<path fill="none" stroke="#b43f3f" stroke-dasharray="1,5" d="M634.949,-196.314C658.846,-187.127 690.262,-174.911 696,-172 713.022,-163.365 731.075,-152.112 745.62,-142.47"/>
<polygon fill="#b43f3f" stroke="#b43f3f" points="747.838,-145.196 754.183,-136.711 743.932,-139.387 747.838,-145.196"/>
<text text-anchor="middle" x="743" y="-160.8" font-family="Times,serif" font-size="14.00">1 (89.2)</text>
</g>
<!-- 03 -->
<g id="node8" class="node"><title>03</title>
<ellipse fill="#ff8a8a" stroke="#b43f3f" cx="693" cy="-295" rx="31.6951" ry="18"/>
<text text-anchor="middle" x="693" y="-291.3" font-family="Times,serif" font-size="14.00">03 (a)</text>
</g>
<!-- 03&#45;&gt;044 -->
<g id="edge6" class="edge"><title>03&#45;&gt;044</title>
<path fill="none" stroke="#b43f3f" stroke-dasharray="1,5" d="M672.353,-280.912C663.467,-274.796 653.248,-267.086 645,-259 637.175,-251.329 629.638,-241.975 623.368,-233.442"/>
<polygon fill="#b43f3f" stroke="#b43f3f" points="626.206,-231.394 617.557,-225.275 620.503,-235.452 626.206,-231.394"/>
<text text-anchor="middle" x="667" y="-247.8" font-family="Times,serif" font-size="14.00">1 (89.2)</text>
</g>
<!-- 02 -->
<g id="node9" class="node"><title>02</title>
<ellipse fill="#ff8a8a" stroke="#b43f3f" cx="693" cy="-208" rx="31.6951" ry="18"/>
<text text-anchor="middle" x="693" y="-204.3" font-family="Times,serif" font-size="14.00">02 (a)</text>
</g>
<!-- 03&#45;&gt;02 -->
<g id="edge7" class="edge"><title>03&#45;&gt;02</title>
<path fill="none" stroke="#b43f3f" stroke-dasharray="1,5" d="M693,-276.799C693,-265.163 693,-249.548 693,-236.237"/>
<polygon fill="#b43f3f" stroke="#b43f3f" points="696.5,-236.175 693,-226.175 689.5,-236.175 696.5,-236.175"/>
<text text-anchor="middle" x="715" y="-247.8" font-family="Times,serif" font-size="14.00">1 (86.5)</text>
</g>
<!-- 032 -->
<g id="node10" class="node"><title>032</title>
<ellipse fill="#ff8a8a" stroke="#b43f3f" cx="779" cy="-208" rx="36.2938" ry="18"/>
<text text-anchor="middle" x="779" y="-204.3" font-family="Times,serif" font-size="14.00">032 (a)</text>
</g>
<!-- 03&#45;&gt;032 -->
<g id="edge8" class="edge"><title>03&#45;&gt;032</title>
<path fill="none" stroke="#b43f3f" stroke-dasharray="1,5" d="M713.647,-280.912C722.533,-274.796 732.752,-267.086 741,-259 748.825,-251.329 756.362,-241.975 762.632,-233.442"/>
<polygon fill="#b43f3f" stroke="#b43f3f" points="765.497,-235.452 768.443,-225.275 759.794,-231.394 765.497,-235.452"/>
<text text-anchor="middle" x="776" y="-247.8" font-family="Times,serif" font-size="14.00">1 (91.7)</text>
</g>
<!-- 063 -->
<g id="node11" class="node"><title>063</title>
<ellipse fill="#ff8a8a" stroke="#b43f3f" cx="407" cy="-208" rx="36.2938" ry="18"/>
<text text-anchor="middle" x="407" y="-204.3" font-family="Times,serif" font-size="14.00">063 (a)</text>
</g>
<!-- 063&#45;&gt;031 -->
<g id="edge9" class="edge"><title>063&#45;&gt;031</title>
<path fill="none" stroke="#b43f3f" stroke-dasharray="1,5" d="M376.571,-197.69C354.84,-190.907 324.975,-181.312 299,-172 268.281,-160.987 233.859,-147.353 208.608,-137.105"/>
<polygon fill="#b43f3f" stroke="#b43f3f" points="209.649,-133.75 199.068,-133.217 207.007,-140.232 209.649,-133.75"/>
<text text-anchor="middle" x="321" y="-160.8" font-family="Times,serif" font-size="14.00">1 (95.8)</text>
</g>
<!-- 07 -->
<g id="node12" class="node"><title>07</title>
<ellipse fill="#ff8a8a" stroke="#b43f3f" cx="321" cy="-121" rx="31.6951" ry="18"/>
<text text-anchor="middle" x="321" y="-117.3" font-family="Times,serif" font-size="14.00">07 (a)</text>
</g>
<!-- 063&#45;&gt;07 -->
<g id="edge10" class="edge"><title>063&#45;&gt;07</title>
<path fill="none" stroke="#b43f3f" stroke-dasharray="1,5" d="M385.396,-193.25C376.74,-187.245 366.954,-179.798 359,-172 351.175,-164.329 343.638,-154.975 337.368,-146.442"/>
<polygon fill="#b43f3f" stroke="#b43f3f" points="340.206,-144.394 331.557,-138.275 334.503,-148.452 340.206,-144.394"/>
<text text-anchor="middle" x="381" y="-160.8" font-family="Times,serif" font-size="14.00">1 (96.6)</text>
</g>
<!-- 011 -->
<g id="node13" class="node"><title>011</title>
<ellipse fill="#ff8a8a" stroke="#b43f3f" cx="407" cy="-121" rx="36.2938" ry="18"/>
<text text-anchor="middle" x="407" y="-117.3" font-family="Times,serif" font-size="14.00">011 (a)</text>
</g>
<!-- 063&#45;&gt;011 -->
<g id="edge11" class="edge"><title>063&#45;&gt;011</title>
<path fill="none" stroke="#b43f3f" stroke-dasharray="1,5" d="M407,-189.799C407,-178.163 407,-162.548 407,-149.237"/>
<polygon fill="#b43f3f" stroke="#b43f3f" points="410.5,-149.175 407,-139.175 403.5,-149.175 410.5,-149.175"/>
<text text-anchor="middle" x="429" y="-160.8" font-family="Times,serif" font-size="14.00">1 (93.1)</text>
</g>
<!-- 021 -->
<g id="node14" class="node"><title>021</title>
<ellipse fill="#ff8a8a" stroke="#b43f3f" cx="498" cy="-121" rx="36.2938" ry="18"/>
<text text-anchor="middle" x="498" y="-117.3" font-family="Times,serif" font-size="14.00">021 (a)</text>
</g>
<!-- 063&#45;&gt;021 -->
<g id="edge12" class="edge"><title>063&#45;&gt;021</title>
<path fill="none" stroke="#b43f3f" stroke-dasharray="1,5" d="M428.372,-193.006C436.992,-186.963 446.814,-179.554 455,-172 463.544,-164.115 472.076,-154.619 479.26,-146.029"/>
<polygon fill="#b43f3f" stroke="#b43f3f" points="482.077,-148.113 485.692,-138.155 476.656,-143.685 482.077,-148.113"/>
<text text-anchor="middle" x="491" y="-160.8" font-family="Times,serif" font-size="14.00">1 (93.1)</text>
</g>
<!-- 028 -->
<g id="node15" class="node"><title>028</title>
<ellipse fill="#ff8a8a" stroke="#b43f3f" cx="589" cy="-121" rx="36.2938" ry="18"/>
<text text-anchor="middle" x="589" y="-117.3" font-family="Times,serif" font-size="14.00">028 (a)</text>
</g>
<!-- 063&#45;&gt;028 -->
<g id="edge13" class="edge"><title>063&#45;&gt;028</title>
<path fill="none" stroke="#b43f3f" stroke-dasharray="1,5" d="M439.267,-199.461C461.727,-193.566 492.009,-184.305 517,-172 533.128,-164.059 549.702,-152.801 562.877,-142.977"/>
<polygon fill="#b43f3f" stroke="#b43f3f" points="565.176,-145.626 571.004,-136.778 560.931,-140.06 565.176,-145.626"/>
<text text-anchor="middle" x="564" y="-160.8" font-family="Times,serif" font-size="14.00">1 (96.6)</text>
</g>
<!-- 0211 -->
<g id="node17" class="node"><title>0211</title>
<ellipse fill="#ff8a8a" stroke="#b43f3f" cx="320" cy="-34" rx="40.0939" ry="18"/>
<text text-anchor="middle" x="320" y="-30.3" font-family="Times,serif" font-size="14.00">0211 (a)</text>
</g>
<!-- 07&#45;&gt;0211 -->
<g id="edge15" class="edge"><title>07&#45;&gt;0211</title>
<path fill="none" stroke="#b43f3f" stroke-dasharray="1,5" d="M320.798,-102.799C320.661,-91.1626 320.477,-75.5479 320.32,-62.2368"/>
<polygon fill="#b43f3f" stroke="#b43f3f" points="323.82,-62.1335 320.202,-52.1754 316.82,-62.216 323.82,-62.1335"/>
<text text-anchor="middle" x="343" y="-73.8" font-family="Times,serif" font-size="14.00">2 (82.9)</text>
</g>
<!-- 037 -->
<g id="node18" class="node"><title>037</title>
<ellipse fill="#ff8a8a" stroke="#b43f3f" cx="415" cy="-34" rx="36.2938" ry="18"/>
<text text-anchor="middle" x="415" y="-30.3" font-family="Times,serif" font-size="14.00">037 (a)</text>
</g>
<!-- 07&#45;&gt;037 -->
<g id="edge16" class="edge"><title>07&#45;&gt;037</title>
<path fill="none" stroke="#b43f3f" stroke-dasharray="1,5" d="M340.824,-106.866C349.749,-100.625 360.227,-92.8278 369,-85 378.029,-76.9432 387.209,-67.3138 394.969,-58.6661"/>
<polygon fill="#b43f3f" stroke="#b43f3f" points="397.672,-60.8929 401.651,-51.0737 392.417,-56.2682 397.672,-60.8929"/>
<text text-anchor="middle" x="406" y="-73.8" font-family="Times,serif" font-size="14.00">1 (97.5)</text>
</g>
<!-- 034 -->
<g id="node19" class="node"><title>034</title>
<ellipse fill="#ff8a8a" stroke="#b43f3f" cx="506" cy="-34" rx="36.2938" ry="18"/>
<text text-anchor="middle" x="506" y="-30.3" font-family="Times,serif" font-size="14.00">034 (a)</text>
</g>
<!-- 07&#45;&gt;034 -->
<g id="edge17" class="edge"><title>07&#45;&gt;034</title>
<path fill="none" stroke="#b43f3f" stroke-dasharray="1,5" d="M345.502,-109.179C350.884,-106.989 356.592,-104.807 362,-103 392.468,-92.8227 402.707,-98.1851 432,-85 448.817,-77.4302 465.982,-66.1007 479.541,-56.1394"/>
<polygon fill="#b43f3f" stroke="#b43f3f" points="482.013,-58.6591 487.891,-49.8442 477.799,-53.0697 482.013,-58.6591"/>
<text text-anchor="middle" x="480" y="-73.8" font-family="Times,serif" font-size="14.00">1 (95.1)</text>
</g>
<!-- 030 -->
<g id="node20" class="node"><title>030</title>
<ellipse fill="#ff8a8a" stroke="#b43f3f" cx="597" cy="-34" rx="36.2938" ry="18"/>
<text text-anchor="middle" x="597" y="-30.3" font-family="Times,serif" font-size="14.00">030 (a)</text>
</g>
<!-- 07&#45;&gt;030 -->
<g id="edge18" class="edge"><title>07&#45;&gt;030</title>
<path fill="none" stroke="#b43f3f" stroke-dasharray="1,5" d="M344.908,-108.827C350.425,-106.605 356.339,-104.498 362,-103 424.352,-86.4994 444.643,-104.884 506,-85 528.05,-77.8542 550.908,-65.2722 568.199,-54.5179"/>
<polygon fill="#b43f3f" stroke="#b43f3f" points="570.149,-57.4258 576.7,-49.0992 566.386,-51.523 570.149,-57.4258"/>
<text text-anchor="middle" x="563" y="-73.8" font-family="Times,serif" font-size="14.00">1 (95.1)</text>
</g>
<!-- 036 -->
<g id="node21" class="node"><title>036</title>
<ellipse fill="#ff8a8a" stroke="#b43f3f" cx="688" cy="-34" rx="36.2938" ry="18"/>
<text text-anchor="middle" x="688" y="-30.3" font-family="Times,serif" font-size="14.00">036 (a)</text>
</g>
<!-- 021&#45;&gt;036 -->
<g id="edge19" class="edge"><title>021&#45;&gt;036</title>
<path fill="none" stroke="#b43f3f" stroke-dasharray="1,5" d="M525.534,-109.163C531.57,-106.974 537.961,-104.796 544,-103 578.517,-92.7367 590.417,-100.334 623,-85 638.072,-77.907 652.944,-66.8536 664.651,-56.9414"/>
<polygon fill="#b43f3f" stroke="#b43f3f" points="666.993,-59.5432 672.214,-50.3241 662.383,-54.2751 666.993,-59.5432"/>
<text text-anchor="middle" x="669" y="-73.8" font-family="Times,serif" font-size="14.00">1 (97.6)</text>
</g>
<!-- 047 -->
<g id="node22" class="node"><title>047</title>
<ellipse fill="#ff8a8a" stroke="#b43f3f" cx="779" cy="-34" rx="36.2938" ry="18"/>
<text text-anchor="middle" x="779" y="-30.3" font-family="Times,serif" font-size="14.00">047 (a)</text>
</g>
<!-- 021&#45;&gt;047 -->
<g id="edge20" class="edge"><title>021&#45;&gt;047</title>
<path fill="none" stroke="#b43f3f" stroke-dasharray="1,5" d="M524.914,-108.852C531.099,-106.629 537.709,-104.515 544,-103 609.708,-87.1762 631.012,-106.759 695,-85 715.336,-78.0849 736.095,-65.7865 751.889,-55.1177"/>
<polygon fill="#b43f3f" stroke="#b43f3f" points="753.901,-57.9817 760.118,-49.4028 749.908,-52.2321 753.901,-57.9817"/>
<text text-anchor="middle" x="749" y="-73.8" font-family="Times,serif" font-size="14.00">1 (95.1)</text>
</g>
<!-- 019 -->
<g id="node16" class="node"><title>019</title>
<ellipse fill="#ff8a8a" stroke="#b43f3f" cx="407" cy="-295" rx="36.2938" ry="18"/>
<text text-anchor="middle" x="407" y="-291.3" font-family="Times,serif" font-size="14.00">019 (a)</text>
</g>
<!-- 019&#45;&gt;063 -->
<g id="edge14" class="edge"><title>019&#45;&gt;063</title>
<path fill="none" stroke="#b43f3f" stroke-dasharray="1,5" d="M407,-276.799C407,-265.163 407,-249.548 407,-236.237"/>
<polygon fill="#b43f3f" stroke="#b43f3f" points="410.5,-236.175 407,-226.175 403.5,-236.175 410.5,-236.175"/>
<text text-anchor="middle" x="429" y="-247.8" font-family="Times,serif" font-size="14.00">1 (85.7)</text>
</g>
<!-- P75 -->
<g id="node23" class="node"><title>P75</title>
<ellipse fill="#ff8a8a" stroke="#b43f3f" cx="271" cy="-295" rx="36.2938" ry="18"/>
<text text-anchor="middle" x="271" y="-291.3" font-family="Times,serif" font-size="14.00">P75 (a)</text>
</g>
<!-- 05 -->
<g id="node24" class="node"><title>05</title>
<ellipse fill="#ff8a8a" stroke="#b43f3f" cx="94" cy="-295" rx="31.6951" ry="18"/>
<text text-anchor="middle" x="94" y="-291.3" font-family="Times,serif" font-size="14.00">05 (a)</text>
</g>
<!-- leg_s -->
<g id="node25" class="node"><title>leg_s</title>
<text text-anchor="middle" x="938" y="-291.3" font-family="Times,serif" font-size="14.00">Textual flow strength</text>
</g>
<!-- leg_e1 -->
<!-- leg_s&#45;&gt;leg_e1 -->
<g id="edge21" class="edge"><title>leg_s&#45;&gt;leg_e1</title>
<path fill="none" stroke="black" stroke-dasharray="1,5" d="M919.666,-276.686C914.132,-271.194 908.161,-264.989 903,-259 893.171,-247.593 883.072,-233.779 875.914,-223.563"/>
<polygon fill="black" stroke="black" points="878.614,-221.314 870.056,-215.068 872.851,-225.288 878.614,-221.314"/>
<text text-anchor="middle" x="918.5" y="-247.8" font-family="Times,serif" font-size="14.00">&lt;=5 &#160;</text>
</g>
<!-- leg_e2 -->
<!-- leg_s&#45;&gt;leg_e2 -->
<g id="edge22" class="edge"><title>leg_s&#45;&gt;leg_e2</title>
<path fill="none" stroke="black" stroke-dasharray="5,2" d="M938,-276.799C938,-261.794 938,-240.174 938,-225.409"/>
<polygon fill="black" stroke="black" points="941.5,-225.293 938,-215.293 934.5,-225.293 941.5,-225.293"/>
<text text-anchor="middle" x="957" y="-247.8" font-family="Times,serif" font-size="14.00"> &#160;&lt;=25</text>
</g>
<!-- leg_e3 -->
<!-- leg_s&#45;&gt;leg_e3 -->
<g id="edge23" class="edge"><title>leg_s&#45;&gt;leg_e3</title>
<path fill="none" stroke="black" d="M961.503,-276.76C967.906,-271.462 974.567,-265.344 980,-259 989.087,-248.39 997.095,-234.689 1002.55,-224.313"/>
<polygon fill="black" stroke="black" points="1005.72,-225.789 1007.09,-215.283 999.469,-222.642 1005.72,-225.789"/>
<text text-anchor="middle" x="1001" y="-247.8" font-family="Times,serif" font-size="14.00">&gt;25</text>
</g>
</g>
</svg>
