<?xml version="1.0" encoding="UTF-8" standalone="no"?>
<!DOCTYPE svg PUBLIC "-//W3C//DTD SVG 1.1//EN"
 "http://www.w3.org/Graphics/SVG/1.1/DTD/svg11.dtd">
<!-- Generated by graphviz version 2.38.0 (20140413.2041)
 -->
<!-- Title: %3 Pages: 1 -->
<svg width="996pt" height="321pt"
 viewBox="0.00 0.00 996.40 321.00" xmlns="http://www.w3.org/2000/svg" xmlns:xlink="http://www.w3.org/1999/xlink">
<g id="graph0" class="graph" transform="scale(1 1) rotate(0) translate(4 317)">
<title>%3</title>
<polygon fill="white" stroke="none" points="-4,4 -4,-317 992.397,-317 992.397,4 -4,4"/>
<g id="clust1" class="cluster"><title>cluster_legend</title>
<path fill="none" stroke="black" d="M20,-177C20,-177 210,-177 210,-177 216,-177 222,-183 222,-189 222,-189 222,-293 222,-293 222,-299 216,-305 210,-305 210,-305 20,-305 20,-305 14,-305 8,-299 8,-293 8,-293 8,-189 8,-189 8,-183 14,-177 20,-177"/>
</g>
<!-- leg_s -->
<g id="node1" class="node"><title>leg_s</title>
<text text-anchor="middle" x="115" y="-275.3" font-family="Times,serif" font-size="14.00">Textual flow strength</text>
</g>
<!-- leg_e1 -->
<!-- leg_s&#45;&gt;leg_e1 -->
<g id="edge1" class="edge"><title>leg_s&#45;&gt;leg_e1</title>
<path fill="none" stroke="black" stroke-dasharray="1,5" d="M96.6657,-260.686C91.1324,-255.194 85.1607,-248.989 80,-243 70.1708,-231.593 60.0722,-217.779 52.9137,-207.563"/>
<polygon fill="black" stroke="black" points="55.6142,-205.314 47.056,-199.068 49.8514,-209.288 55.6142,-205.314"/>
<text text-anchor="middle" x="95.5" y="-231.8" font-family="Times,serif" font-size="14.00">&lt;=5 &#160;</text>
</g>
<!-- leg_e2 -->
<!-- leg_s&#45;&gt;leg_e2 -->
<g id="edge2" class="edge"><title>leg_s&#45;&gt;leg_e2</title>
<path fill="none" stroke="black" stroke-dasharray="5,2" d="M115,-260.799C115,-245.794 115,-224.174 115,-209.409"/>
<polygon fill="black" stroke="black" points="118.5,-209.293 115,-199.293 111.5,-209.293 118.5,-209.293"/>
<text text-anchor="middle" x="134" y="-231.8" font-family="Times,serif" font-size="14.00"> &#160;&lt;=25</text>
</g>
<!-- leg_e3 -->
<!-- leg_s&#45;&gt;leg_e3 -->
<g id="edge3" class="edge"><title>leg_s&#45;&gt;leg_e3</title>
<path fill="none" stroke="black" d="M138.503,-260.76C144.906,-255.462 151.567,-249.344 157,-243 166.087,-232.39 174.095,-218.689 179.546,-208.313"/>
<polygon fill="black" stroke="black" points="182.722,-209.789 184.091,-199.283 176.469,-206.642 182.722,-209.789"/>
<text text-anchor="middle" x="179" y="-231.8" font-family="Times,serif" font-size="14.00">&gt;25</text>
</g>
<!-- 03 -->
<g id="node5" class="node"><title>03</title>
<ellipse fill="#ff8a8a" stroke="#b43f3f" cx="354" cy="-279" rx="31.6951" ry="18"/>
<text text-anchor="middle" x="354" y="-275.3" font-family="Times,serif" font-size="14.00">03 (a)</text>
</g>
<!-- 044 -->
<g id="node6" class="node"><title>044</title>
<ellipse fill="#ff8a8a" stroke="#b43f3f" cx="268" cy="-192" rx="36.2938" ry="18"/>
<text text-anchor="middle" x="268" y="-188.3" font-family="Times,serif" font-size="14.00">044 (a)</text>
</g>
<!-- 03&#45;&gt;044 -->
<g id="edge4" class="edge"><title>03&#45;&gt;044</title>
<path fill="none" stroke="#b43f3f" stroke-dasharray="1,5" d="M333.353,-264.912C324.467,-258.796 314.248,-251.086 306,-243 298.175,-235.329 290.638,-225.975 284.368,-217.442"/>
<polygon fill="#b43f3f" stroke="#b43f3f" points="287.206,-215.394 278.557,-209.275 281.503,-219.452 287.206,-215.394"/>
<text text-anchor="middle" x="328" y="-231.8" font-family="Times,serif" font-size="14.00">1 (89.2)</text>
</g>
<!-- 02 -->
<g id="node7" class="node"><title>02</title>
<ellipse fill="#ff8a8a" stroke="#b43f3f" cx="354" cy="-192" rx="31.6951" ry="18"/>
<text text-anchor="middle" x="354" y="-188.3" font-family="Times,serif" font-size="14.00">02 (a)</text>
</g>
<!-- 03&#45;&gt;02 -->
<g id="edge5" class="edge"><title>03&#45;&gt;02</title>
<path fill="none" stroke="#b43f3f" stroke-dasharray="1,5" d="M354,-260.799C354,-249.163 354,-233.548 354,-220.237"/>
<polygon fill="#b43f3f" stroke="#b43f3f" points="357.5,-220.175 354,-210.175 350.5,-220.175 357.5,-220.175"/>
<text text-anchor="middle" x="376" y="-231.8" font-family="Times,serif" font-size="14.00">1 (86.5)</text>
</g>
<!-- 032 -->
<g id="node8" class="node"><title>032</title>
<ellipse fill="#ff8a8a" stroke="#b43f3f" cx="440" cy="-192" rx="36.2938" ry="18"/>
<text text-anchor="middle" x="440" y="-188.3" font-family="Times,serif" font-size="14.00">032 (a)</text>
</g>
<!-- 03&#45;&gt;032 -->
<g id="edge6" class="edge"><title>03&#45;&gt;032</title>
<path fill="none" stroke="#b43f3f" stroke-dasharray="1,5" d="M374.647,-264.912C383.533,-258.796 393.752,-251.086 402,-243 409.825,-235.329 417.362,-225.975 423.632,-217.442"/>
<polygon fill="#b43f3f" stroke="#b43f3f" points="426.497,-219.452 429.443,-209.275 420.794,-215.394 426.497,-219.452"/>
<text text-anchor="middle" x="437" y="-231.8" font-family="Times,serif" font-size="14.00">1 (91.7)</text>
</g>
<!-- 0141 -->
<g id="node9" class="node"><title>0141</title>
<ellipse fill="#ff8a8a" stroke="#b43f3f" cx="221" cy="-105" rx="40.0939" ry="18"/>
<text text-anchor="middle" x="221" y="-101.3" font-family="Times,serif" font-size="14.00">0141 (a)</text>
</g>
<!-- 044&#45;&gt;0141 -->
<g id="edge7" class="edge"><title>044&#45;&gt;0141</title>
<path fill="none" stroke="#b43f3f" stroke-dasharray="1,5" d="M258.714,-174.207C252.02,-162.099 242.859,-145.533 235.243,-131.759"/>
<polygon fill="#b43f3f" stroke="#b43f3f" points="238.168,-129.816 230.266,-122.758 232.042,-133.203 238.168,-129.816"/>
<text text-anchor="middle" x="270" y="-144.8" font-family="Times,serif" font-size="14.00">1 (89.2)</text>
</g>
<!-- 022 -->
<g id="node10" class="node"><title>022</title>
<ellipse fill="#ff8a8a" stroke="#b43f3f" cx="316" cy="-105" rx="36.2938" ry="18"/>
<text text-anchor="middle" x="316" y="-101.3" font-family="Times,serif" font-size="14.00">022 (a)</text>
</g>
<!-- 044&#45;&gt;022 -->
<g id="edge8" class="edge"><title>044&#45;&gt;022</title>
<path fill="none" stroke="#b43f3f" stroke-dasharray="1,5" d="M280.959,-175.139C285.395,-169.316 290.195,-162.544 294,-156 298.291,-148.622 302.284,-140.251 305.658,-132.498"/>
<polygon fill="#b43f3f" stroke="#b43f3f" points="308.947,-133.706 309.577,-123.13 302.489,-131.004 308.947,-133.706"/>
<text text-anchor="middle" x="324" y="-144.8" font-family="Times,serif" font-size="14.00">1 (91.7)</text>
</g>
<!-- 063 -->
<g id="node11" class="node"><title>063</title>
<ellipse fill="#ff8a8a" stroke="#b43f3f" cx="637" cy="-192" rx="36.2938" ry="18"/>
<text text-anchor="middle" x="637" y="-188.3" font-family="Times,serif" font-size="14.00">063 (a)</text>
</g>
<!-- 045 -->
<g id="node12" class="node"><title>045</title>
<ellipse fill="#ff8a8a" stroke="#b43f3f" cx="407" cy="-105" rx="36.2938" ry="18"/>
<text text-anchor="middle" x="407" y="-101.3" font-family="Times,serif" font-size="14.00">045 (a)</text>
</g>
<!-- 063&#45;&gt;045 -->
<g id="edge9" class="edge"><title>063&#45;&gt;045</title>
<path fill="none" stroke="#b43f3f" stroke-dasharray="1,5" d="M602.345,-186.237C571.283,-181.199 524.904,-171.754 487,-156 468.415,-148.275 449.239,-136.446 434.322,-126.232"/>
<polygon fill="#b43f3f" stroke="#b43f3f" points="436.266,-123.321 426.068,-120.449 432.249,-129.054 436.266,-123.321"/>
<text text-anchor="middle" x="509" y="-144.8" font-family="Times,serif" font-size="14.00">1 (93.1)</text>
</g>
<!-- 031 -->
<g id="node13" class="node"><title>031</title>
<ellipse fill="#ff8a8a" stroke="#b43f3f" cx="503" cy="-105" rx="36.2938" ry="18"/>
<text text-anchor="middle" x="503" y="-101.3" font-family="Times,serif" font-size="14.00">031 (a)</text>
</g>
<!-- 063&#45;&gt;031 -->
<g id="edge10" class="edge"><title>063&#45;&gt;031</title>
<path fill="none" stroke="#b43f3f" stroke-dasharray="1,5" d="M606.805,-181.924C589.858,-176.03 568.807,-167.328 552,-156 541.243,-148.75 530.938,-138.854 522.578,-129.778"/>
<polygon fill="#b43f3f" stroke="#b43f3f" points="525.023,-127.261 515.77,-122.101 519.786,-131.905 525.023,-127.261"/>
<text text-anchor="middle" x="574" y="-144.8" font-family="Times,serif" font-size="14.00">1 (95.8)</text>
</g>
<!-- 011 -->
<g id="node14" class="node"><title>011</title>
<ellipse fill="#ff8a8a" stroke="#b43f3f" cx="594" cy="-105" rx="36.2938" ry="18"/>
<text text-anchor="middle" x="594" y="-101.3" font-family="Times,serif" font-size="14.00">011 (a)</text>
</g>
<!-- 063&#45;&gt;011 -->
<g id="edge11" class="edge"><title>063&#45;&gt;011</title>
<path fill="none" stroke="#b43f3f" stroke-dasharray="1,5" d="M620.058,-175.991C614.504,-170.247 608.792,-163.308 605,-156 601.398,-149.057 598.972,-140.979 597.34,-133.367"/>
<polygon fill="#b43f3f" stroke="#b43f3f" points="600.769,-132.658 595.57,-123.426 593.877,-133.885 600.769,-132.658"/>
<text text-anchor="middle" x="627" y="-144.8" font-family="Times,serif" font-size="14.00">1 (93.1)</text>
</g>
<!-- 07 -->
<g id="node15" class="node"><title>07</title>
<ellipse fill="#ff8a8a" stroke="#b43f3f" cx="680" cy="-105" rx="31.6951" ry="18"/>
<text text-anchor="middle" x="680" y="-101.3" font-family="Times,serif" font-size="14.00">07 (a)</text>
</g>
<!-- 063&#45;&gt;07 -->
<g id="edge12" class="edge"><title>063&#45;&gt;07</title>
<path fill="none" stroke="#b43f3f" stroke-dasharray="1,5" d="M645.495,-174.207C651.66,-162.021 660.11,-145.318 667.105,-131.491"/>
<polygon fill="#b43f3f" stroke="#b43f3f" points="670.278,-132.972 671.669,-122.469 664.031,-129.812 670.278,-132.972"/>
<text text-anchor="middle" x="684" y="-144.8" font-family="Times,serif" font-size="14.00">1 (96.6)</text>
</g>
<!-- 028 -->
<g id="node16" class="node"><title>028</title>
<ellipse fill="#ff8a8a" stroke="#b43f3f" cx="766" cy="-105" rx="36.2938" ry="18"/>
<text text-anchor="middle" x="766" y="-101.3" font-family="Times,serif" font-size="14.00">028 (a)</text>
</g>
<!-- 063&#45;&gt;028 -->
<g id="edge13" class="edge"><title>063&#45;&gt;028</title>
<path fill="none" stroke="#b43f3f" stroke-dasharray="1,5" d="M664.337,-180.088C678.484,-173.906 695.732,-165.511 710,-156 721.809,-148.128 733.704,-137.906 743.475,-128.758"/>
<polygon fill="#b43f3f" stroke="#b43f3f" points="746.021,-131.166 750.814,-121.717 741.175,-126.115 746.021,-131.166"/>
<text text-anchor="middle" x="752" y="-144.8" font-family="Times,serif" font-size="14.00">1 (96.6)</text>
</g>
<!-- 021 -->
<g id="node17" class="node"><title>021</title>
<ellipse fill="#ff8a8a" stroke="#b43f3f" cx="859" cy="-105" rx="36.2938" ry="18"/>
<text text-anchor="middle" x="859" y="-101.3" font-family="Times,serif" font-size="14.00">021 (a)</text>
</g>
<!-- 063&#45;&gt;021 -->
<g id="edge14" class="edge"><title>063&#45;&gt;021</title>
<path fill="none" stroke="#b43f3f" stroke-dasharray="1,5" d="M668.821,-183.022C680.23,-180.168 693.19,-176.932 705,-174 737.431,-165.948 747.188,-168.933 778,-156 796.725,-148.141 816.137,-136.306 831.262,-126.123"/>
<polygon fill="#b43f3f" stroke="#b43f3f" points="833.381,-128.914 839.634,-120.361 829.412,-123.147 833.381,-128.914"/>
<text text-anchor="middle" x="828" y="-144.8" font-family="Times,serif" font-size="14.00">1 (93.1)</text>
</g>
<!-- 038 -->
<g id="node18" class="node"><title>038</title>
<ellipse fill="#ff8a8a" stroke="#b43f3f" cx="404" cy="-18" rx="36.2938" ry="18"/>
<text text-anchor="middle" x="404" y="-14.3" font-family="Times,serif" font-size="14.00">038 (a)</text>
</g>
<!-- 045&#45;&gt;038 -->
<g id="edge15" class="edge"><title>045&#45;&gt;038</title>
<path fill="none" stroke="#b43f3f" stroke-dasharray="1,5" d="M406.393,-86.799C405.982,-75.1626 405.431,-59.5479 404.961,-46.2368"/>
<polygon fill="#b43f3f" stroke="#b43f3f" points="408.457,-46.0457 404.606,-36.1754 401.461,-46.2927 408.457,-46.0457"/>
<text text-anchor="middle" x="428" y="-57.8" font-family="Times,serif" font-size="14.00">1 (92.7)</text>
</g>
<!-- 017 -->
<g id="node19" class="node"><title>017</title>
<ellipse fill="#ff8a8a" stroke="#b43f3f" cx="495" cy="-18" rx="36.2938" ry="18"/>
<text text-anchor="middle" x="495" y="-14.3" font-family="Times,serif" font-size="14.00">017 (a)</text>
</g>
<!-- 031&#45;&gt;017 -->
<g id="edge16" class="edge"><title>031&#45;&gt;017</title>
<path fill="none" stroke="#b43f3f" stroke-dasharray="1,5" d="M501.381,-86.799C500.286,-75.1626 498.816,-59.5479 497.563,-46.2368"/>
<polygon fill="#b43f3f" stroke="#b43f3f" points="501.038,-45.8034 496.617,-36.1754 494.069,-46.4594 501.038,-45.8034"/>
<text text-anchor="middle" x="522" y="-57.8" font-family="Times,serif" font-size="14.00">1 (94.3)</text>
</g>
<!-- 013 -->
<g id="node20" class="node"><title>013</title>
<ellipse fill="#cea8f4" stroke="#835da9" cx="586" cy="-18" rx="36.2938" ry="18"/>
<text text-anchor="middle" x="586" y="-14.3" font-family="Times,serif" font-size="14.00">013 (b)</text>
</g>
<!-- 031&#45;&gt;013 -->
<g id="edge17" class="edge"><title>031&#45;&gt;013</title>
<path fill="none" stroke="#835da9" stroke-dasharray="1,5" d="M523.646,-89.716C531.64,-83.7425 540.623,-76.4597 548,-69 555.511,-61.4049 562.838,-52.3004 569.022,-43.954"/>
<polygon fill="#835da9" stroke="#835da9" points="572.015,-45.7875 575.013,-35.6257 566.332,-41.6998 572.015,-45.7875"/>
<text text-anchor="middle" x="583" y="-57.8" font-family="Times,serif" font-size="14.00">1 (97.1)</text>
</g>
<!-- 034 -->
<g id="node21" class="node"><title>034</title>
<ellipse fill="#ff8a8a" stroke="#b43f3f" cx="677" cy="-18" rx="36.2938" ry="18"/>
<text text-anchor="middle" x="677" y="-14.3" font-family="Times,serif" font-size="14.00">034 (a)</text>
</g>
<!-- 07&#45;&gt;034 -->
<g id="edge18" class="edge"><title>07&#45;&gt;034</title>
<path fill="none" stroke="#b43f3f" stroke-dasharray="1,5" d="M679.393,-86.799C678.982,-75.1626 678.431,-59.5479 677.961,-46.2368"/>
<polygon fill="#b43f3f" stroke="#b43f3f" points="681.457,-46.0457 677.606,-36.1754 674.461,-46.2927 681.457,-46.0457"/>
<text text-anchor="middle" x="701" y="-57.8" font-family="Times,serif" font-size="14.00">1 (95.1)</text>
</g>
<!-- 037 -->
<g id="node22" class="node"><title>037</title>
<ellipse fill="#ff8a8a" stroke="#b43f3f" cx="768" cy="-18" rx="36.2938" ry="18"/>
<text text-anchor="middle" x="768" y="-14.3" font-family="Times,serif" font-size="14.00">037 (a)</text>
</g>
<!-- 07&#45;&gt;037 -->
<g id="edge19" class="edge"><title>07&#45;&gt;037</title>
<path fill="none" stroke="#b43f3f" stroke-dasharray="1,5" d="M700.059,-90.7031C708.73,-84.5493 718.757,-76.8667 727,-69 735.162,-61.211 743.234,-51.8317 750.029,-43.3112"/>
<polygon fill="#b43f3f" stroke="#b43f3f" points="752.985,-45.2121 756.355,-35.1676 747.456,-40.918 752.985,-45.2121"/>
<text text-anchor="middle" x="763" y="-57.8" font-family="Times,serif" font-size="14.00">1 (97.5)</text>
</g>
<!-- 036 -->
<g id="node23" class="node"><title>036</title>
<ellipse fill="#ff8a8a" stroke="#b43f3f" cx="859" cy="-18" rx="36.2938" ry="18"/>
<text text-anchor="middle" x="859" y="-14.3" font-family="Times,serif" font-size="14.00">036 (a)</text>
</g>
<!-- 021&#45;&gt;036 -->
<g id="edge20" class="edge"><title>021&#45;&gt;036</title>
<path fill="none" stroke="#b43f3f" stroke-dasharray="1,5" d="M859,-86.799C859,-75.1626 859,-59.5479 859,-46.2368"/>
<polygon fill="#b43f3f" stroke="#b43f3f" points="862.5,-46.1754 859,-36.1754 855.5,-46.1755 862.5,-46.1754"/>
<text text-anchor="middle" x="881" y="-57.8" font-family="Times,serif" font-size="14.00">1 (97.6)</text>
</g>
<!-- 047 -->
<g id="node24" class="node"><title>047</title>
<ellipse fill="#ff8a8a" stroke="#b43f3f" cx="950" cy="-18" rx="36.2938" ry="18"/>
<text text-anchor="middle" x="950" y="-14.3" font-family="Times,serif" font-size="14.00">047 (a)</text>
</g>
<!-- 021&#45;&gt;047 -->
<g id="edge21" class="edge"><title>021&#45;&gt;047</title>
<path fill="none" stroke="#b43f3f" stroke-dasharray="1,5" d="M880.372,-90.006C888.992,-83.9634 898.814,-76.5539 907,-69 915.544,-61.1154 924.076,-51.6186 931.26,-43.0293"/>
<polygon fill="#b43f3f" stroke="#b43f3f" points="934.077,-45.1135 937.692,-35.1545 928.656,-40.6853 934.077,-45.1135"/>
<text text-anchor="middle" x="942" y="-57.8" font-family="Times,serif" font-size="14.00">1 (95.1)</text>
</g>
<!-- 019 -->
<g id="node25" class="node"><title>019</title>
<ellipse fill="#ff8a8a" stroke="#b43f3f" cx="637" cy="-279" rx="36.2938" ry="18"/>
<text text-anchor="middle" x="637" y="-275.3" font-family="Times,serif" font-size="14.00">019 (a)</text>
</g>
<!-- 019&#45;&gt;063 -->
<g id="edge22" class="edge"><title>019&#45;&gt;063</title>
<path fill="none" stroke="#b43f3f" stroke-dasharray="1,5" d="M637,-260.799C637,-249.163 637,-233.548 637,-220.237"/>
<polygon fill="#b43f3f" stroke="#b43f3f" points="640.5,-220.175 637,-210.175 633.5,-220.175 640.5,-220.175"/>
<text text-anchor="middle" x="659" y="-231.8" font-family="Times,serif" font-size="14.00">1 (85.7)</text>
</g>
<!-- 091 -->
<g id="node26" class="node"><title>091</title>
<ellipse fill="#ff8a8a" stroke="#b43f3f" cx="770" cy="-279" rx="36.2938" ry="18"/>
<text text-anchor="middle" x="770" y="-275.3" font-family="Times,serif" font-size="14.00">091 (a)</text>
</g>
<!-- 05 -->
<g id="node27" class="node"><title>05</title>
<ellipse fill="#ff8a8a" stroke="#b43f3f" cx="746" cy="-192" rx="31.6951" ry="18"/>
<text text-anchor="middle" x="746" y="-188.3" font-family="Times,serif" font-size="14.00">05 (a)</text>
</g>
<!-- 091&#45;&gt;05 -->
<g id="edge23" class="edge"><title>091&#45;&gt;05</title>
<path fill="none" stroke="#b43f3f" stroke-dasharray="1,5" d="M765.143,-260.799C761.803,-248.97 757.303,-233.03 753.504,-219.578"/>
<polygon fill="#b43f3f" stroke="#b43f3f" points="756.853,-218.558 750.768,-209.885 750.117,-220.46 756.853,-218.558"/>
<text text-anchor="middle" x="782" y="-231.8" font-family="Times,serif" font-size="14.00">1 (87.5)</text>
</g>
<!-- 0211 -->
<g id="node28" class="node"><title>0211</title>
<ellipse fill="#ff8a8a" stroke="#b43f3f" cx="836" cy="-192" rx="40.0939" ry="18"/>
<text text-anchor="middle" x="836" y="-188.3" font-family="Times,serif" font-size="14.00">0211 (a)</text>
</g>
<!-- 091&#45;&gt;0211 -->
<g id="edge24" class="edge"><title>091&#45;&gt;0211</title>
<path fill="none" stroke="#b43f3f" stroke-dasharray="1,5" d="M788.167,-263.378C794.863,-257.469 802.219,-250.32 808,-243 813.762,-235.705 819.048,-227.074 823.437,-219.054"/>
<polygon fill="#b43f3f" stroke="#b43f3f" points="826.62,-220.521 828.154,-210.038 820.417,-217.276 826.62,-220.521"/>
<text text-anchor="middle" x="840" y="-231.8" font-family="Times,serif" font-size="14.00">1 (83.3)</text>
</g>
<!-- P75 -->
<g id="node29" class="node"><title>P75</title>
<ellipse fill="#ff8a8a" stroke="#b43f3f" cx="861" cy="-279" rx="36.2938" ry="18"/>
<text text-anchor="middle" x="861" y="-275.3" font-family="Times,serif" font-size="14.00">P75 (a)</text>
</g>
<!-- 030 -->
<g id="node30" class="node"><title>030</title>
<ellipse fill="#72fe95" stroke="#27b34a" cx="952" cy="-279" rx="36.2938" ry="18"/>
<text text-anchor="middle" x="952" y="-275.3" font-family="Times,serif" font-size="14.00">030 (c)</text>
</g>
</g>
</svg>
