<?xml version="1.0" encoding="UTF-8" standalone="no"?>
<!DOCTYPE svg PUBLIC "-//W3C//DTD SVG 1.1//EN"
 "http://www.w3.org/Graphics/SVG/1.1/DTD/svg11.dtd">
<!-- Generated by graphviz version 2.38.0 (20140413.2041)
 -->
<!-- Title: G Pages: 1 -->
<svg width="1007pt" height="116pt"
 viewBox="0.00 0.00 1006.79 116.00" xmlns="http://www.w3.org/2000/svg" xmlns:xlink="http://www.w3.org/1999/xlink">
<g id="graph0" class="graph" transform="scale(1 1) rotate(0) translate(4 112)">
<title>G</title>
<polygon fill="white" stroke="none" points="-4,4 -4,-112 1002.79,-112 1002.79,4 -4,4"/>
<!-- 038 (a) -->
<g id="node1" class="node"><title>038 (a)</title>
<ellipse fill="#ff8a8a" stroke="#b43f3f" cx="36.3968" cy="-18" rx="36.2938" ry="18"/>
<text text-anchor="middle" x="36.3968" y="-14.3" font-family="Times,serif" font-size="14.00">038 (a)</text>
</g>
<!-- 034 (b) -->
<g id="node2" class="node"><title>034 (b)</title>
<ellipse fill="#cea8f4" stroke="#835da9" cx="127.397" cy="-90" rx="36.2938" ry="18"/>
<text text-anchor="middle" x="127.397" y="-86.3" font-family="Times,serif" font-size="14.00">034 (b)</text>
</g>
<!-- 036 (a) -->
<g id="node3" class="node"><title>036 (a)</title>
<ellipse fill="#ff8a8a" stroke="#b43f3f" cx="172.397" cy="-18" rx="36.2938" ry="18"/>
<text text-anchor="middle" x="172.397" y="-14.3" font-family="Times,serif" font-size="14.00">036 (a)</text>
</g>
<!-- 05 (a) -->
<g id="node4" class="node"><title>05 (a)</title>
<ellipse fill="#ff8a8a" stroke="#b43f3f" cx="304.397" cy="-90" rx="31.6951" ry="18"/>
<text text-anchor="middle" x="304.397" y="-86.3" font-family="Times,serif" font-size="14.00">05 (a)</text>
</g>
<!-- 011 (a) -->
<g id="node5" class="node"><title>011 (a)</title>
<ellipse fill="#ff8a8a" stroke="#b43f3f" cx="390.397" cy="-90" rx="36.2938" ry="18"/>
<text text-anchor="middle" x="390.397" y="-86.3" font-family="Times,serif" font-size="14.00">011 (a)</text>
</g>
<!-- 045 (a) -->
<g id="node6" class="node"><title>045 (a)</title>
<ellipse fill="#ff8a8a" stroke="#b43f3f" cx="36.3968" cy="-90" rx="36.2938" ry="18"/>
<text text-anchor="middle" x="36.3968" y="-86.3" font-family="Times,serif" font-size="14.00">045 (a)</text>
</g>
<!-- 045 (a)&#45;&gt;038 (a) -->
<g id="edge1" class="edge"><title>045 (a)&#45;&gt;038 (a)</title>
<path fill="none" stroke="black" d="M36.3968,-71.6966C36.3968,-63.9827 36.3968,-54.7125 36.3968,-46.1124"/>
<polygon fill="black" stroke="black" points="39.8969,-46.1043 36.3968,-36.1043 32.8969,-46.1044 39.8969,-46.1043"/>
</g>
<!-- 028 (a) -->
<g id="node7" class="node"><title>028 (a)</title>
<ellipse fill="#ff8a8a" stroke="#b43f3f" cx="481.397" cy="-90" rx="36.2938" ry="18"/>
<text text-anchor="middle" x="481.397" y="-86.3" font-family="Times,serif" font-size="14.00">028 (a)</text>
</g>
<!-- 017 (a) -->
<g id="node8" class="node"><title>017 (a)</title>
<ellipse fill="#ff8a8a" stroke="#b43f3f" cx="481.397" cy="-18" rx="36.2938" ry="18"/>
<text text-anchor="middle" x="481.397" y="-14.3" font-family="Times,serif" font-size="14.00">017 (a)</text>
</g>
<!-- 047 (a) -->
<g id="node9" class="node"><title>047 (a)</title>
<ellipse fill="#ff8a8a" stroke="#b43f3f" cx="263.397" cy="-18" rx="36.2938" ry="18"/>
<text text-anchor="middle" x="263.397" y="-14.3" font-family="Times,serif" font-size="14.00">047 (a)</text>
</g>
<!-- 037 (a) -->
<g id="node10" class="node"><title>037 (a)</title>
<ellipse fill="#ff8a8a" stroke="#b43f3f" cx="758.397" cy="-18" rx="36.2938" ry="18"/>
<text text-anchor="middle" x="758.397" y="-14.3" font-family="Times,serif" font-size="14.00">037 (a)</text>
</g>
<!-- 013 (a) -->
<g id="node11" class="node"><title>013 (a)</title>
<ellipse fill="#ff8a8a" stroke="#b43f3f" cx="572.397" cy="-18" rx="36.2938" ry="18"/>
<text text-anchor="middle" x="572.397" y="-14.3" font-family="Times,serif" font-size="14.00">013 (a)</text>
</g>
<!-- 07 (a) -->
<g id="node12" class="node"><title>07 (a)</title>
<ellipse fill="#ff8a8a" stroke="#b43f3f" cx="860.397" cy="-90" rx="31.6951" ry="18"/>
<text text-anchor="middle" x="860.397" y="-86.3" font-family="Times,serif" font-size="14.00">07 (a)</text>
</g>
<!-- 07 (a)&#45;&gt;037 (a) -->
<g id="edge3" class="edge"><title>07 (a)&#45;&gt;037 (a)</title>
<path fill="none" stroke="black" d="M840.73,-75.5033C825.645,-65.1508 804.589,-50.7004 787.547,-39.0047"/>
<polygon fill="black" stroke="black" points="789.279,-35.9487 779.053,-33.1761 785.318,-41.7204 789.279,-35.9487"/>
</g>
<!-- 0211/2 (a) -->
<g id="node13" class="node"><title>0211/2 (a)</title>
<ellipse fill="#ff8a8a" stroke="#b43f3f" cx="860.397" cy="-18" rx="47.3916" ry="18"/>
<text text-anchor="middle" x="860.397" y="-14.3" font-family="Times,serif" font-size="14.00">0211/2 (a)</text>
</g>
<!-- 07 (a)&#45;&gt;0211/2 (a) -->
<g id="edge2" class="edge"><title>07 (a)&#45;&gt;0211/2 (a)</title>
<path fill="none" stroke="black" d="M860.397,-71.6966C860.397,-63.9827 860.397,-54.7125 860.397,-46.1124"/>
<polygon fill="black" stroke="black" points="863.897,-46.1043 860.397,-36.1043 856.897,-46.1044 863.897,-46.1043"/>
</g>
<!-- 030 (a) -->
<g id="node17" class="node"><title>030 (a)</title>
<ellipse fill="#ff8a8a" stroke="#b43f3f" cx="962.397" cy="-18" rx="36.2938" ry="18"/>
<text text-anchor="middle" x="962.397" y="-14.3" font-family="Times,serif" font-size="14.00">030 (a)</text>
</g>
<!-- 07 (a)&#45;&gt;030 (a) -->
<g id="edge4" class="edge"><title>07 (a)&#45;&gt;030 (a)</title>
<path fill="none" stroke="black" d="M880.063,-75.5033C895.148,-65.1508 916.205,-50.7004 933.247,-39.0047"/>
<polygon fill="black" stroke="black" points="935.476,-41.7204 941.74,-33.1761 931.515,-35.9487 935.476,-41.7204"/>
</g>
<!-- 0141 (a) -->
<g id="node14" class="node"><title>0141 (a)</title>
<ellipse fill="#ff8a8a" stroke="#b43f3f" cx="950.397" cy="-90" rx="40.0939" ry="18"/>
<text text-anchor="middle" x="950.397" y="-86.3" font-family="Times,serif" font-size="14.00">0141 (a)</text>
</g>
<!-- 031 (a) -->
<g id="node15" class="node"><title>031 (a)</title>
<ellipse fill="#ff8a8a" stroke="#b43f3f" cx="572.397" cy="-90" rx="36.2938" ry="18"/>
<text text-anchor="middle" x="572.397" y="-86.3" font-family="Times,serif" font-size="14.00">031 (a)</text>
</g>
<!-- 031 (a)&#45;&gt;017 (a) -->
<g id="edge6" class="edge"><title>031 (a)&#45;&gt;017 (a)</title>
<path fill="none" stroke="black" d="M553.542,-74.496C540.486,-64.4532 522.912,-50.9344 508.377,-39.7541"/>
<polygon fill="black" stroke="black" points="510.288,-36.8084 500.228,-33.4855 506.02,-42.3568 510.288,-36.8084"/>
</g>
<!-- 031 (a)&#45;&gt;013 (a) -->
<g id="edge5" class="edge"><title>031 (a)&#45;&gt;013 (a)</title>
<path fill="none" stroke="black" d="M572.397,-71.6966C572.397,-63.9827 572.397,-54.7125 572.397,-46.1124"/>
<polygon fill="black" stroke="black" points="575.897,-46.1043 572.397,-36.1043 568.897,-46.1044 575.897,-46.1043"/>
</g>
<!-- 01/2 (a) -->
<g id="node16" class="node"><title>01/2 (a)</title>
<ellipse fill="#ff8a8a" stroke="#b43f3f" cx="665.397" cy="-18" rx="38.1938" ry="18"/>
<text text-anchor="middle" x="665.397" y="-14.3" font-family="Times,serif" font-size="14.00">01/2 (a)</text>
</g>
<!-- 031 (a)&#45;&gt;01/2 (a) -->
<g id="edge7" class="edge"><title>031 (a)&#45;&gt;01/2 (a)</title>
<path fill="none" stroke="black" d="M591.666,-74.496C604.92,-64.5202 622.73,-51.1145 637.526,-39.978"/>
<polygon fill="black" stroke="black" points="639.947,-42.5365 645.832,-33.7263 635.737,-36.9437 639.947,-42.5365"/>
</g>
<!-- 021 (a) -->
<g id="node18" class="node"><title>021 (a)</title>
<ellipse fill="#ff8a8a" stroke="#b43f3f" cx="218.397" cy="-90" rx="36.2938" ry="18"/>
<text text-anchor="middle" x="218.397" y="-86.3" font-family="Times,serif" font-size="14.00">021 (a)</text>
</g>
<!-- 021 (a)&#45;&gt;036 (a) -->
<g id="edge8" class="edge"><title>021 (a)&#45;&gt;036 (a)</title>
<path fill="none" stroke="black" d="M207.728,-72.7646C202.119,-64.2301 195.122,-53.5822 188.838,-44.0191"/>
<polygon fill="black" stroke="black" points="191.744,-42.0683 183.327,-35.6334 185.894,-45.9126 191.744,-42.0683"/>
</g>
<!-- 021 (a)&#45;&gt;047 (a) -->
<g id="edge9" class="edge"><title>021 (a)&#45;&gt;047 (a)</title>
<path fill="none" stroke="black" d="M229.061,-72.411C234.497,-63.9549 241.222,-53.4944 247.275,-44.0783"/>
<polygon fill="black" stroke="black" points="250.345,-45.7744 252.809,-35.4699 244.457,-41.9891 250.345,-45.7744"/>
</g>
</g>
</svg>
