<?xml version="1.0" encoding="UTF-8" standalone="no"?>
<!DOCTYPE svg PUBLIC "-//W3C//DTD SVG 1.1//EN"
 "http://www.w3.org/Graphics/SVG/1.1/DTD/svg11.dtd">
<!-- Generated by graphviz version 2.38.0 (20140413.2041)
 -->
<!-- Title: %3 Pages: 1 -->
<svg width="868pt" height="408pt"
 viewBox="0.00 0.00 868.40 408.00" xmlns="http://www.w3.org/2000/svg" xmlns:xlink="http://www.w3.org/1999/xlink">
<g id="graph0" class="graph" transform="scale(1 1) rotate(0) translate(4 404)">
<title>%3</title>
<polygon fill="white" stroke="none" points="-4,4 -4,-404 864.397,-404 864.397,4 -4,4"/>
<g id="clust1" class="cluster"><title>cluster_legend</title>
<path fill="none" stroke="black" d="M20,-264C20,-264 210,-264 210,-264 216,-264 222,-270 222,-276 222,-276 222,-380 222,-380 222,-386 216,-392 210,-392 210,-392 20,-392 20,-392 14,-392 8,-386 8,-380 8,-380 8,-276 8,-276 8,-270 14,-264 20,-264"/>
</g>
<!-- leg_s -->
<g id="node1" class="node"><title>leg_s</title>
<text text-anchor="middle" x="115" y="-362.3" font-family="Times,serif" font-size="14.00">Textual flow strength</text>
</g>
<!-- leg_e1 -->
<!-- leg_s&#45;&gt;leg_e1 -->
<g id="edge1" class="edge"><title>leg_s&#45;&gt;leg_e1</title>
<path fill="none" stroke="black" stroke-dasharray="1,5" d="M96.6657,-347.686C91.1324,-342.194 85.1607,-335.989 80,-330 70.1708,-318.593 60.0722,-304.779 52.9137,-294.563"/>
<polygon fill="black" stroke="black" points="55.6142,-292.314 47.056,-286.068 49.8514,-296.288 55.6142,-292.314"/>
<text text-anchor="middle" x="95.5" y="-318.8" font-family="Times,serif" font-size="14.00">&lt;=5 &#160;</text>
</g>
<!-- leg_e2 -->
<!-- leg_s&#45;&gt;leg_e2 -->
<g id="edge2" class="edge"><title>leg_s&#45;&gt;leg_e2</title>
<path fill="none" stroke="black" stroke-dasharray="5,2" d="M115,-347.799C115,-332.794 115,-311.174 115,-296.409"/>
<polygon fill="black" stroke="black" points="118.5,-296.293 115,-286.293 111.5,-296.293 118.5,-296.293"/>
<text text-anchor="middle" x="134" y="-318.8" font-family="Times,serif" font-size="14.00"> &#160;&lt;=25</text>
</g>
<!-- leg_e3 -->
<!-- leg_s&#45;&gt;leg_e3 -->
<g id="edge3" class="edge"><title>leg_s&#45;&gt;leg_e3</title>
<path fill="none" stroke="black" d="M138.503,-347.76C144.906,-342.462 151.567,-336.344 157,-330 166.087,-319.39 174.095,-305.689 179.546,-295.313"/>
<polygon fill="black" stroke="black" points="182.722,-296.789 184.091,-286.283 176.469,-293.642 182.722,-296.789"/>
<text text-anchor="middle" x="179" y="-318.8" font-family="Times,serif" font-size="14.00">&gt;25</text>
</g>
<!-- 021 -->
<g id="node5" class="node"><title>021</title>
<ellipse fill="#ff8a8a" stroke="#b43f3f" cx="286" cy="-105" rx="36.2938" ry="18"/>
<text text-anchor="middle" x="286" y="-101.3" font-family="Times,serif" font-size="14.00">021 (a)</text>
</g>
<!-- 036 -->
<g id="node6" class="node"><title>036</title>
<ellipse fill="#ff8a8a" stroke="#b43f3f" cx="129" cy="-18" rx="36.2938" ry="18"/>
<text text-anchor="middle" x="129" y="-14.3" font-family="Times,serif" font-size="14.00">036 (a)</text>
</g>
<!-- 021&#45;&gt;036 -->
<g id="edge4" class="edge"><title>021&#45;&gt;036</title>
<path fill="none" stroke="#b43f3f" stroke-dasharray="1,5" d="M257.814,-93.4785C251.936,-91.3135 245.772,-89.0652 240,-87 216.973,-78.7606 209.247,-81.1123 188,-69 174.987,-61.5816 162.111,-51.1332 151.724,-41.7046"/>
<polygon fill="#b43f3f" stroke="#b43f3f" points="153.998,-39.0388 144.305,-34.7604 149.214,-44.1493 153.998,-39.0388"/>
<text text-anchor="middle" x="210" y="-57.8" font-family="Times,serif" font-size="14.00">1 (97.6)</text>
</g>
<!-- 047 -->
<g id="node7" class="node"><title>047</title>
<ellipse fill="#ff8a8a" stroke="#b43f3f" cx="220" cy="-18" rx="36.2938" ry="18"/>
<text text-anchor="middle" x="220" y="-14.3" font-family="Times,serif" font-size="14.00">047 (a)</text>
</g>
<!-- 021&#45;&gt;047 -->
<g id="edge5" class="edge"><title>021&#45;&gt;047</title>
<path fill="none" stroke="#b43f3f" stroke-dasharray="1,5" d="M266.145,-89.7433C258.889,-83.8795 250.998,-76.6658 245,-69 239.326,-61.7481 234.424,-53.004 230.501,-44.8697"/>
<polygon fill="#b43f3f" stroke="#b43f3f" points="233.673,-43.3906 226.358,-35.7269 227.298,-46.28 233.673,-43.3906"/>
<text text-anchor="middle" x="267" y="-57.8" font-family="Times,serif" font-size="14.00">1 (95.1)</text>
</g>
<!-- 03 -->
<g id="node8" class="node"><title>03</title>
<ellipse fill="#ff8a8a" stroke="#b43f3f" cx="264" cy="-279" rx="31.6951" ry="18"/>
<text text-anchor="middle" x="264" y="-275.3" font-family="Times,serif" font-size="14.00">03 (a)</text>
</g>
<!-- 032 -->
<g id="node9" class="node"><title>032</title>
<ellipse fill="#ff8a8a" stroke="#b43f3f" cx="100" cy="-192" rx="36.2938" ry="18"/>
<text text-anchor="middle" x="100" y="-188.3" font-family="Times,serif" font-size="14.00">032 (a)</text>
</g>
<!-- 03&#45;&gt;032 -->
<g id="edge6" class="edge"><title>03&#45;&gt;032</title>
<path fill="none" stroke="#b43f3f" stroke-dasharray="1,5" d="M240.078,-266.716C235.452,-264.7 230.61,-262.703 226,-261 199.484,-251.207 190.185,-255.835 165,-243 150.403,-235.561 135.796,-224.708 124.137,-215.012"/>
<polygon fill="#b43f3f" stroke="#b43f3f" points="126.082,-212.07 116.21,-208.222 121.528,-217.386 126.082,-212.07"/>
<text text-anchor="middle" x="187" y="-231.8" font-family="Times,serif" font-size="14.00">1 (91.7)</text>
</g>
<!-- 044 -->
<g id="node10" class="node"><title>044</title>
<ellipse fill="#ff8a8a" stroke="#b43f3f" cx="191" cy="-192" rx="36.2938" ry="18"/>
<text text-anchor="middle" x="191" y="-188.3" font-family="Times,serif" font-size="14.00">044 (a)</text>
</g>
<!-- 03&#45;&gt;044 -->
<g id="edge7" class="edge"><title>03&#45;&gt;044</title>
<path fill="none" stroke="#b43f3f" stroke-dasharray="1,5" d="M245.392,-264.073C237.975,-258.041 229.64,-250.621 223,-243 216.437,-235.468 210.256,-226.471 205.109,-218.198"/>
<polygon fill="#b43f3f" stroke="#b43f3f" points="208.103,-216.387 199.96,-209.609 202.1,-219.986 208.103,-216.387"/>
<text text-anchor="middle" x="245" y="-231.8" font-family="Times,serif" font-size="14.00">1 (89.2)</text>
</g>
<!-- 02 -->
<g id="node11" class="node"><title>02</title>
<ellipse fill="#cea8f4" stroke="#835da9" cx="278" cy="-192" rx="32.4942" ry="18"/>
<text text-anchor="middle" x="278" y="-188.3" font-family="Times,serif" font-size="14.00">02 (b)</text>
</g>
<!-- 03&#45;&gt;02 -->
<g id="edge8" class="edge"><title>03&#45;&gt;02</title>
<path fill="none" stroke="#835da9" stroke-dasharray="1,5" d="M266.833,-260.799C268.75,-249.163 271.322,-233.548 273.514,-220.237"/>
<polygon fill="#835da9" stroke="#835da9" points="276.999,-220.611 275.171,-210.175 270.092,-219.474 276.999,-220.611"/>
<text text-anchor="middle" x="294" y="-231.8" font-family="Times,serif" font-size="14.00">1 (86.5)</text>
</g>
<!-- 022 -->
<g id="node31" class="node"><title>022</title>
<ellipse fill="#ff8a8a" stroke="#b43f3f" cx="96" cy="-105" rx="36.2938" ry="18"/>
<text text-anchor="middle" x="96" y="-101.3" font-family="Times,serif" font-size="14.00">022 (a)</text>
</g>
<!-- 044&#45;&gt;022 -->
<g id="edge29" class="edge"><title>044&#45;&gt;022</title>
<path fill="none" stroke="#b43f3f" stroke-dasharray="1,5" d="M170.27,-177.159C161.564,-171.025 151.505,-163.508 143,-156 133.837,-147.911 124.469,-138.276 116.533,-129.632"/>
<polygon fill="#b43f3f" stroke="#b43f3f" points="118.99,-127.129 109.694,-122.045 113.79,-131.816 118.99,-127.129"/>
<text text-anchor="middle" x="165" y="-144.8" font-family="Times,serif" font-size="14.00">1 (91.7)</text>
</g>
<!-- 0141 -->
<g id="node32" class="node"><title>0141</title>
<ellipse fill="#ff8a8a" stroke="#b43f3f" cx="191" cy="-105" rx="40.0939" ry="18"/>
<text text-anchor="middle" x="191" y="-101.3" font-family="Times,serif" font-size="14.00">0141 (a)</text>
</g>
<!-- 044&#45;&gt;0141 -->
<g id="edge30" class="edge"><title>044&#45;&gt;0141</title>
<path fill="none" stroke="#b43f3f" stroke-dasharray="1,5" d="M191,-173.799C191,-162.163 191,-146.548 191,-133.237"/>
<polygon fill="#b43f3f" stroke="#b43f3f" points="194.5,-133.175 191,-123.175 187.5,-133.175 194.5,-133.175"/>
<text text-anchor="middle" x="213" y="-144.8" font-family="Times,serif" font-size="14.00">1 (89.2)</text>
</g>
<!-- 07 -->
<g id="node12" class="node"><title>07</title>
<ellipse fill="#ff8a8a" stroke="#b43f3f" cx="435" cy="-105" rx="31.6951" ry="18"/>
<text text-anchor="middle" x="435" y="-101.3" font-family="Times,serif" font-size="14.00">07 (a)</text>
</g>
<!-- 034 -->
<g id="node13" class="node"><title>034</title>
<ellipse fill="#ff8a8a" stroke="#b43f3f" cx="311" cy="-18" rx="36.2938" ry="18"/>
<text text-anchor="middle" x="311" y="-14.3" font-family="Times,serif" font-size="14.00">034 (a)</text>
</g>
<!-- 07&#45;&gt;034 -->
<g id="edge9" class="edge"><title>07&#45;&gt;034</title>
<path fill="none" stroke="#b43f3f" stroke-dasharray="1,5" d="M411.044,-92.9179C398.178,-86.5699 382.278,-78.0746 369,-69 357.048,-60.8316 344.77,-50.5658 334.606,-41.4648"/>
<polygon fill="#b43f3f" stroke="#b43f3f" points="336.699,-38.6362 326.954,-34.478 331.979,-43.8055 336.699,-38.6362"/>
<text text-anchor="middle" x="391" y="-57.8" font-family="Times,serif" font-size="14.00">1 (95.1)</text>
</g>
<!-- 037 -->
<g id="node14" class="node"><title>037</title>
<ellipse fill="#ff8a8a" stroke="#b43f3f" cx="402" cy="-18" rx="36.2938" ry="18"/>
<text text-anchor="middle" x="402" y="-14.3" font-family="Times,serif" font-size="14.00">037 (a)</text>
</g>
<!-- 07&#45;&gt;037 -->
<g id="edge10" class="edge"><title>07&#45;&gt;037</title>
<path fill="none" stroke="#b43f3f" stroke-dasharray="1,5" d="M428.48,-87.2067C423.825,-75.2156 417.472,-58.8511 412.155,-45.1571"/>
<polygon fill="#b43f3f" stroke="#b43f3f" points="415.388,-43.8138 408.506,-35.7584 408.863,-46.3472 415.388,-43.8138"/>
<text text-anchor="middle" x="443" y="-57.8" font-family="Times,serif" font-size="14.00">1 (97.5)</text>
</g>
<!-- 030 -->
<g id="node15" class="node"><title>030</title>
<ellipse fill="#ff8a8a" stroke="#b43f3f" cx="493" cy="-18" rx="36.2938" ry="18"/>
<text text-anchor="middle" x="493" y="-14.3" font-family="Times,serif" font-size="14.00">030 (a)</text>
</g>
<!-- 07&#45;&gt;030 -->
<g id="edge11" class="edge"><title>07&#45;&gt;030</title>
<path fill="none" stroke="#b43f3f" stroke-dasharray="1,5" d="M451.393,-89.2774C457.402,-83.3564 463.959,-76.2253 469,-69 474.092,-61.7019 478.636,-53.1564 482.363,-45.2156"/>
<polygon fill="#b43f3f" stroke="#b43f3f" points="485.617,-46.5128 486.487,-35.9537 479.222,-43.6656 485.617,-46.5128"/>
<text text-anchor="middle" x="500" y="-57.8" font-family="Times,serif" font-size="14.00">1 (95.1)</text>
</g>
<!-- 031 -->
<g id="node16" class="node"><title>031</title>
<ellipse fill="#ff8a8a" stroke="#b43f3f" cx="551" cy="-105" rx="36.2938" ry="18"/>
<text text-anchor="middle" x="551" y="-101.3" font-family="Times,serif" font-size="14.00">031 (a)</text>
</g>
<!-- 013 -->
<g id="node17" class="node"><title>013</title>
<ellipse fill="#ff8a8a" stroke="#b43f3f" cx="584" cy="-18" rx="36.2938" ry="18"/>
<text text-anchor="middle" x="584" y="-14.3" font-family="Times,serif" font-size="14.00">013 (a)</text>
</g>
<!-- 031&#45;&gt;013 -->
<g id="edge12" class="edge"><title>031&#45;&gt;013</title>
<path fill="none" stroke="#b43f3f" stroke-dasharray="1,5" d="M557.52,-87.2067C562.175,-75.2156 568.528,-58.8511 573.845,-45.1571"/>
<polygon fill="#b43f3f" stroke="#b43f3f" points="577.137,-46.3472 577.494,-35.7584 570.612,-43.8138 577.137,-46.3472"/>
<text text-anchor="middle" x="592" y="-57.8" font-family="Times,serif" font-size="14.00">1 (97.1)</text>
</g>
<!-- 017 -->
<g id="node18" class="node"><title>017</title>
<ellipse fill="#ff8a8a" stroke="#b43f3f" cx="675" cy="-18" rx="36.2938" ry="18"/>
<text text-anchor="middle" x="675" y="-14.3" font-family="Times,serif" font-size="14.00">017 (a)</text>
</g>
<!-- 031&#45;&gt;017 -->
<g id="edge13" class="edge"><title>031&#45;&gt;017</title>
<path fill="none" stroke="#b43f3f" stroke-dasharray="1,5" d="M576.959,-92.2416C589.734,-86.0109 605.117,-77.8274 618,-69 629.824,-60.8978 641.902,-50.6419 651.879,-41.5304"/>
<polygon fill="#b43f3f" stroke="#b43f3f" points="654.458,-43.9112 659.385,-34.5315 649.684,-38.7917 654.458,-43.9112"/>
<text text-anchor="middle" x="659" y="-57.8" font-family="Times,serif" font-size="14.00">1 (94.3)</text>
</g>
<!-- 063 -->
<g id="node19" class="node"><title>063</title>
<ellipse fill="#ff8a8a" stroke="#b43f3f" cx="551" cy="-192" rx="36.2938" ry="18"/>
<text text-anchor="middle" x="551" y="-188.3" font-family="Times,serif" font-size="14.00">063 (a)</text>
</g>
<!-- 063&#45;&gt;021 -->
<g id="edge14" class="edge"><title>063&#45;&gt;021</title>
<path fill="none" stroke="#b43f3f" stroke-dasharray="1,5" d="M522.69,-180.582C516.247,-178.32 509.412,-176.007 503,-174 473.983,-164.919 466.109,-164.782 437,-156 398.52,-144.391 354.986,-129.82 324.583,-119.408"/>
<polygon fill="#b43f3f" stroke="#b43f3f" points="325.396,-115.987 314.802,-116.047 323.121,-122.607 325.396,-115.987"/>
<text text-anchor="middle" x="459" y="-144.8" font-family="Times,serif" font-size="14.00">1 (93.1)</text>
</g>
<!-- 063&#45;&gt;07 -->
<g id="edge15" class="edge"><title>063&#45;&gt;07</title>
<path fill="none" stroke="#b43f3f" stroke-dasharray="1,5" d="M531.37,-176.713C522.672,-170.376 512.32,-162.824 503,-156 489.455,-146.082 474.416,-135.028 461.931,-125.84"/>
<polygon fill="#b43f3f" stroke="#b43f3f" points="463.874,-122.925 453.746,-119.815 459.724,-128.562 463.874,-122.925"/>
<text text-anchor="middle" x="525" y="-144.8" font-family="Times,serif" font-size="14.00">1 (96.6)</text>
</g>
<!-- 063&#45;&gt;031 -->
<g id="edge16" class="edge"><title>063&#45;&gt;031</title>
<path fill="none" stroke="#b43f3f" stroke-dasharray="1,5" d="M551,-173.799C551,-162.163 551,-146.548 551,-133.237"/>
<polygon fill="#b43f3f" stroke="#b43f3f" points="554.5,-133.175 551,-123.175 547.5,-133.175 554.5,-133.175"/>
<text text-anchor="middle" x="573" y="-144.8" font-family="Times,serif" font-size="14.00">1 (95.8)</text>
</g>
<!-- 045 -->
<g id="node20" class="node"><title>045</title>
<ellipse fill="#ff8a8a" stroke="#b43f3f" cx="642" cy="-105" rx="36.2938" ry="18"/>
<text text-anchor="middle" x="642" y="-101.3" font-family="Times,serif" font-size="14.00">045 (a)</text>
</g>
<!-- 063&#45;&gt;045 -->
<g id="edge17" class="edge"><title>063&#45;&gt;045</title>
<path fill="none" stroke="#b43f3f" stroke-dasharray="1,5" d="M572.372,-177.006C580.992,-170.963 590.814,-163.554 599,-156 607.544,-148.115 616.076,-138.619 623.26,-130.029"/>
<polygon fill="#b43f3f" stroke="#b43f3f" points="626.077,-132.113 629.692,-122.155 620.656,-127.685 626.077,-132.113"/>
<text text-anchor="middle" x="635" y="-144.8" font-family="Times,serif" font-size="14.00">1 (93.1)</text>
</g>
<!-- 011 -->
<g id="node21" class="node"><title>011</title>
<ellipse fill="#ff8a8a" stroke="#b43f3f" cx="733" cy="-105" rx="36.2938" ry="18"/>
<text text-anchor="middle" x="733" y="-101.3" font-family="Times,serif" font-size="14.00">011 (a)</text>
</g>
<!-- 063&#45;&gt;011 -->
<g id="edge18" class="edge"><title>063&#45;&gt;011</title>
<path fill="none" stroke="#b43f3f" stroke-dasharray="1,5" d="M583.267,-183.461C605.727,-177.566 636.009,-168.305 661,-156 677.128,-148.059 693.702,-136.801 706.877,-126.977"/>
<polygon fill="#b43f3f" stroke="#b43f3f" points="709.176,-129.626 715.004,-120.778 704.931,-124.06 709.176,-129.626"/>
<text text-anchor="middle" x="708" y="-144.8" font-family="Times,serif" font-size="14.00">1 (93.1)</text>
</g>
<!-- 028 -->
<g id="node22" class="node"><title>028</title>
<ellipse fill="#ff8a8a" stroke="#b43f3f" cx="824" cy="-105" rx="36.2938" ry="18"/>
<text text-anchor="middle" x="824" y="-101.3" font-family="Times,serif" font-size="14.00">028 (a)</text>
</g>
<!-- 063&#45;&gt;028 -->
<g id="edge19" class="edge"><title>063&#45;&gt;028</title>
<path fill="none" stroke="#b43f3f" stroke-dasharray="1,5" d="M586.629,-187.578C624.17,-183.197 684.588,-173.927 734,-156 755.266,-148.285 777.502,-135.977 794.552,-125.504"/>
<polygon fill="#b43f3f" stroke="#b43f3f" points="796.844,-128.197 803.451,-119.915 793.121,-122.269 796.844,-128.197"/>
<text text-anchor="middle" x="787" y="-144.8" font-family="Times,serif" font-size="14.00">1 (96.6)</text>
</g>
<!-- 038 -->
<g id="node23" class="node"><title>038</title>
<ellipse fill="#ff8a8a" stroke="#b43f3f" cx="766" cy="-18" rx="36.2938" ry="18"/>
<text text-anchor="middle" x="766" y="-14.3" font-family="Times,serif" font-size="14.00">038 (a)</text>
</g>
<!-- 045&#45;&gt;038 -->
<g id="edge20" class="edge"><title>045&#45;&gt;038</title>
<path fill="none" stroke="#b43f3f" stroke-dasharray="1,5" d="M662.476,-89.964C682.849,-75.9989 714.291,-54.4454 737.181,-38.7552"/>
<polygon fill="#b43f3f" stroke="#b43f3f" points="739.224,-41.5978 745.494,-33.0569 735.266,-35.824 739.224,-41.5978"/>
<text text-anchor="middle" x="734" y="-57.8" font-family="Times,serif" font-size="14.00">1 (92.7)</text>
</g>
<!-- 091 -->
<g id="node24" class="node"><title>091</title>
<ellipse fill="#ff8a8a" stroke="#b43f3f" cx="381" cy="-279" rx="36.2938" ry="18"/>
<text text-anchor="middle" x="381" y="-275.3" font-family="Times,serif" font-size="14.00">091 (a)</text>
</g>
<!-- 05 -->
<g id="node25" class="node"><title>05</title>
<ellipse fill="#ff8a8a" stroke="#b43f3f" cx="364" cy="-192" rx="31.6951" ry="18"/>
<text text-anchor="middle" x="364" y="-188.3" font-family="Times,serif" font-size="14.00">05 (a)</text>
</g>
<!-- 091&#45;&gt;05 -->
<g id="edge21" class="edge"><title>091&#45;&gt;05</title>
<path fill="none" stroke="#b43f3f" stroke-dasharray="1,5" d="M377.56,-260.799C375.233,-249.163 372.11,-233.548 369.447,-220.237"/>
<polygon fill="#b43f3f" stroke="#b43f3f" points="372.828,-219.295 367.435,-210.175 365.964,-220.668 372.828,-219.295"/>
<text text-anchor="middle" x="396" y="-231.8" font-family="Times,serif" font-size="14.00">1 (87.5)</text>
</g>
<!-- 0211 -->
<g id="node26" class="node"><title>0211</title>
<ellipse fill="#ff8a8a" stroke="#b43f3f" cx="454" cy="-192" rx="40.0939" ry="18"/>
<text text-anchor="middle" x="454" y="-188.3" font-family="Times,serif" font-size="14.00">0211 (a)</text>
</g>
<!-- 091&#45;&gt;0211 -->
<g id="edge22" class="edge"><title>091&#45;&gt;0211</title>
<path fill="none" stroke="#b43f3f" stroke-dasharray="1,5" d="M400.436,-263.397C407.64,-257.491 415.606,-250.338 422,-243 428.563,-235.468 434.744,-226.471 439.891,-218.198"/>
<polygon fill="#b43f3f" stroke="#b43f3f" points="442.9,-219.986 445.04,-209.609 436.897,-216.387 442.9,-219.986"/>
<text text-anchor="middle" x="455" y="-231.8" font-family="Times,serif" font-size="14.00">1 (83.3)</text>
</g>
<!-- A -->
<g id="node27" class="node"><title>A</title>
<ellipse fill="#ff8a8a" stroke="#b43f3f" cx="472" cy="-366" rx="29.4969" ry="18"/>
<text text-anchor="middle" x="472" y="-362.3" font-family="Times,serif" font-size="14.00">A (a)</text>
</g>
<!-- A&#45;&gt;03 -->
<g id="edge23" class="edge"><title>A&#45;&gt;03</title>
<path fill="none" stroke="#b43f3f" stroke-dasharray="1,5" d="M445.6,-357.786C423.265,-351.384 390.583,-341.312 363,-330 339.576,-320.394 314.098,-307.465 294.855,-297.161"/>
<polygon fill="#b43f3f" stroke="#b43f3f" points="296.406,-294.021 285.945,-292.34 293.074,-300.178 296.406,-294.021"/>
<text text-anchor="middle" x="385" y="-318.8" font-family="Times,serif" font-size="14.00">1 (93.3)</text>
</g>
<!-- A&#45;&gt;091 -->
<g id="edge24" class="edge"><title>A&#45;&gt;091</title>
<path fill="none" stroke="#b43f3f" stroke-dasharray="1,5" d="M452.523,-352.326C443.472,-346.06 432.792,-338.113 424,-330 415.456,-322.115 406.924,-312.619 399.74,-304.029"/>
<polygon fill="#b43f3f" stroke="#b43f3f" points="402.344,-301.685 393.308,-296.155 396.923,-306.113 402.344,-301.685"/>
<text text-anchor="middle" x="446" y="-318.8" font-family="Times,serif" font-size="14.00">1 (87.5)</text>
</g>
<!-- 019 -->
<g id="node28" class="node"><title>019</title>
<ellipse fill="#ff8a8a" stroke="#b43f3f" cx="472" cy="-279" rx="36.2938" ry="18"/>
<text text-anchor="middle" x="472" y="-275.3" font-family="Times,serif" font-size="14.00">019 (a)</text>
</g>
<!-- A&#45;&gt;019 -->
<g id="edge25" class="edge"><title>A&#45;&gt;019</title>
<path fill="none" stroke="#b43f3f" stroke-dasharray="1,5" d="M472,-347.799C472,-336.163 472,-320.548 472,-307.237"/>
<polygon fill="#b43f3f" stroke="#b43f3f" points="475.5,-307.175 472,-297.175 468.5,-307.175 475.5,-307.175"/>
<text text-anchor="middle" x="494" y="-318.8" font-family="Times,serif" font-size="14.00">1 (93.3)</text>
</g>
<!-- 01 -->
<g id="node29" class="node"><title>01</title>
<ellipse fill="#ff8a8a" stroke="#b43f3f" cx="558" cy="-279" rx="31.6951" ry="18"/>
<text text-anchor="middle" x="558" y="-275.3" font-family="Times,serif" font-size="14.00">01 (a)</text>
</g>
<!-- A&#45;&gt;01 -->
<g id="edge26" class="edge"><title>A&#45;&gt;01</title>
<path fill="none" stroke="#b43f3f" stroke-dasharray="5,2" d="M491.7,-352.561C500.801,-346.347 511.457,-338.375 520,-330 527.825,-322.329 535.362,-312.975 541.632,-304.442"/>
<polygon fill="#b43f3f" stroke="#b43f3f" points="544.497,-306.452 547.443,-296.275 538.794,-302.394 544.497,-306.452"/>
<text text-anchor="middle" x="555" y="-318.8" font-family="Times,serif" font-size="14.00">1 (57.1)</text>
</g>
<!-- P75 -->
<g id="node30" class="node"><title>P75</title>
<ellipse fill="#ff8a8a" stroke="#b43f3f" cx="644" cy="-279" rx="36.2938" ry="18"/>
<text text-anchor="middle" x="644" y="-275.3" font-family="Times,serif" font-size="14.00">P75 (a)</text>
</g>
<!-- A&#45;&gt;P75 -->
<g id="edge27" class="edge"><title>A&#45;&gt;P75</title>
<path fill="none" stroke="#b43f3f" stroke-dasharray="1,5" d="M499.52,-359.083C522.242,-353.524 554.881,-343.958 581,-330 595.072,-322.48 609.134,-311.712 620.39,-302.093"/>
<polygon fill="#b43f3f" stroke="#b43f3f" points="622.854,-304.588 628.051,-295.355 618.231,-299.331 622.854,-304.588"/>
<text text-anchor="middle" x="626" y="-318.8" font-family="Times,serif" font-size="14.00">1 (93.3)</text>
</g>
<!-- 019&#45;&gt;063 -->
<g id="edge28" class="edge"><title>019&#45;&gt;063</title>
<path fill="none" stroke="#b43f3f" stroke-dasharray="1,5" d="M486.49,-262.41C498.442,-249.55 515.583,-231.107 529.192,-216.464"/>
<polygon fill="#b43f3f" stroke="#b43f3f" points="532.09,-218.487 536.335,-208.779 526.963,-213.721 532.09,-218.487"/>
<text text-anchor="middle" x="539" y="-231.8" font-family="Times,serif" font-size="14.00">1 (85.7)</text>
</g>
</g>
</svg>
