<?xml version="1.0" encoding="UTF-8" standalone="no"?>
<!DOCTYPE svg PUBLIC "-//W3C//DTD SVG 1.1//EN"
 "http://www.w3.org/Graphics/SVG/1.1/DTD/svg11.dtd">
<!-- Generated by graphviz version 2.38.0 (20140413.2041)
 -->
<!-- Title: %3 Pages: 1 -->
<svg width="1395pt" height="321pt"
 viewBox="0.00 0.00 1395.05 321.00" xmlns="http://www.w3.org/2000/svg" xmlns:xlink="http://www.w3.org/1999/xlink">
<g id="graph0" class="graph" transform="scale(1 1) rotate(0) translate(4 317)">
<title>%3</title>
<polygon fill="white" stroke="none" points="-4,4 -4,-317 1391.05,-317 1391.05,4 -4,4"/>
<g id="clust1" class="cluster"><title>cluster_legend</title>
<path fill="none" stroke="black" d="M20,-177C20,-177 210,-177 210,-177 216,-177 222,-183 222,-189 222,-189 222,-293 222,-293 222,-299 216,-305 210,-305 210,-305 20,-305 20,-305 14,-305 8,-299 8,-293 8,-293 8,-189 8,-189 8,-183 14,-177 20,-177"/>
</g>
<!-- leg_s -->
<g id="node1" class="node"><title>leg_s</title>
<text text-anchor="middle" x="115" y="-275.3" font-family="Times,serif" font-size="14.00">Textual flow strength</text>
</g>
<!-- leg_e1 -->
<!-- leg_s&#45;&gt;leg_e1 -->
<g id="edge1" class="edge"><title>leg_s&#45;&gt;leg_e1</title>
<path fill="none" stroke="black" stroke-dasharray="1,5" d="M96.6657,-260.686C91.1324,-255.194 85.1607,-248.989 80,-243 70.1708,-231.593 60.0722,-217.779 52.9137,-207.563"/>
<polygon fill="black" stroke="black" points="55.6142,-205.314 47.056,-199.068 49.8514,-209.288 55.6142,-205.314"/>
<text text-anchor="middle" x="95.5" y="-231.8" font-family="Times,serif" font-size="14.00">&lt;=5 &#160;</text>
</g>
<!-- leg_e2 -->
<!-- leg_s&#45;&gt;leg_e2 -->
<g id="edge2" class="edge"><title>leg_s&#45;&gt;leg_e2</title>
<path fill="none" stroke="black" stroke-dasharray="5,2" d="M115,-260.799C115,-245.794 115,-224.174 115,-209.409"/>
<polygon fill="black" stroke="black" points="118.5,-209.293 115,-199.293 111.5,-209.293 118.5,-209.293"/>
<text text-anchor="middle" x="134" y="-231.8" font-family="Times,serif" font-size="14.00"> &#160;&lt;=25</text>
</g>
<!-- leg_e3 -->
<!-- leg_s&#45;&gt;leg_e3 -->
<g id="edge3" class="edge"><title>leg_s&#45;&gt;leg_e3</title>
<path fill="none" stroke="black" d="M138.503,-260.76C144.906,-255.462 151.567,-249.344 157,-243 166.087,-232.39 174.095,-218.689 179.546,-208.313"/>
<polygon fill="black" stroke="black" points="182.722,-209.789 184.091,-199.283 176.469,-206.642 182.722,-209.789"/>
<text text-anchor="middle" x="179" y="-231.8" font-family="Times,serif" font-size="14.00">&gt;25</text>
</g>
<!-- 021 -->
<g id="node5" class="node"><title>021</title>
<ellipse fill="#ff8a8a" stroke="#b43f3f" cx="268" cy="-192" rx="36.2938" ry="18"/>
<text text-anchor="middle" x="268" y="-188.3" font-family="Times,serif" font-size="14.00">021 (a)</text>
</g>
<!-- 036 -->
<g id="node6" class="node"><title>036</title>
<ellipse fill="#ff8a8a" stroke="#b43f3f" cx="177" cy="-105" rx="36.2938" ry="18"/>
<text text-anchor="middle" x="177" y="-101.3" font-family="Times,serif" font-size="14.00">036 (a)</text>
</g>
<!-- 021&#45;&gt;036 -->
<g id="edge4" class="edge"><title>021&#45;&gt;036</title>
<path fill="none" stroke="#b43f3f" stroke-dasharray="1,5" d="M246.628,-177.006C238.008,-170.963 228.186,-163.554 220,-156 211.456,-148.115 202.924,-138.619 195.74,-130.029"/>
<polygon fill="#b43f3f" stroke="#b43f3f" points="198.344,-127.685 189.308,-122.155 192.923,-132.113 198.344,-127.685"/>
<text text-anchor="middle" x="242" y="-144.8" font-family="Times,serif" font-size="14.00">1 (97.6)</text>
</g>
<!-- 047 -->
<g id="node7" class="node"><title>047</title>
<ellipse fill="#ff8a8a" stroke="#b43f3f" cx="268" cy="-105" rx="36.2938" ry="18"/>
<text text-anchor="middle" x="268" y="-101.3" font-family="Times,serif" font-size="14.00">047 (a)</text>
</g>
<!-- 021&#45;&gt;047 -->
<g id="edge5" class="edge"><title>021&#45;&gt;047</title>
<path fill="none" stroke="#b43f3f" stroke-dasharray="1,5" d="M268,-173.799C268,-162.163 268,-146.548 268,-133.237"/>
<polygon fill="#b43f3f" stroke="#b43f3f" points="271.5,-133.175 268,-123.175 264.5,-133.175 271.5,-133.175"/>
<text text-anchor="middle" x="290" y="-144.8" font-family="Times,serif" font-size="14.00">1 (95.1)</text>
</g>
<!-- 063 -->
<g id="node8" class="node"><title>063</title>
<ellipse fill="#ff8a8a" stroke="#b43f3f" cx="476" cy="-279" rx="36.2938" ry="18"/>
<text text-anchor="middle" x="476" y="-275.3" font-family="Times,serif" font-size="14.00">063 (a)</text>
</g>
<!-- 063&#45;&gt;021 -->
<g id="edge6" class="edge"><title>063&#45;&gt;021</title>
<path fill="none" stroke="#b43f3f" stroke-dasharray="1,5" d="M444.575,-269.793C421.83,-263.466 390.551,-253.961 364,-243 341.86,-233.86 317.967,-221.426 299.557,-211.244"/>
<polygon fill="#b43f3f" stroke="#b43f3f" points="301.165,-208.133 290.729,-206.303 297.746,-214.242 301.165,-208.133"/>
<text text-anchor="middle" x="386" y="-231.8" font-family="Times,serif" font-size="14.00">1 (93.1)</text>
</g>
<!-- 045 -->
<g id="node9" class="node"><title>045</title>
<ellipse fill="#ff8a8a" stroke="#b43f3f" cx="374" cy="-192" rx="36.2938" ry="18"/>
<text text-anchor="middle" x="374" y="-188.3" font-family="Times,serif" font-size="14.00">045 (a)</text>
</g>
<!-- 063&#45;&gt;045 -->
<g id="edge7" class="edge"><title>063&#45;&gt;045</title>
<path fill="none" stroke="#b43f3f" stroke-dasharray="1,5" d="M455.519,-263.866C446.855,-257.684 436.76,-250.208 428,-243 417.517,-234.375 406.434,-224.296 397.055,-215.457"/>
<polygon fill="#b43f3f" stroke="#b43f3f" points="399.282,-212.745 389.627,-208.382 394.454,-217.813 399.282,-212.745"/>
<text text-anchor="middle" x="450" y="-231.8" font-family="Times,serif" font-size="14.00">1 (93.1)</text>
</g>
<!-- 07 -->
<g id="node10" class="node"><title>07</title>
<ellipse fill="#ff8a8a" stroke="#b43f3f" cx="476" cy="-192" rx="31.6951" ry="18"/>
<text text-anchor="middle" x="476" y="-188.3" font-family="Times,serif" font-size="14.00">07 (a)</text>
</g>
<!-- 063&#45;&gt;07 -->
<g id="edge8" class="edge"><title>063&#45;&gt;07</title>
<path fill="none" stroke="#b43f3f" stroke-dasharray="1,5" d="M476,-260.799C476,-249.163 476,-233.548 476,-220.237"/>
<polygon fill="#b43f3f" stroke="#b43f3f" points="479.5,-220.175 476,-210.175 472.5,-220.175 479.5,-220.175"/>
<text text-anchor="middle" x="498" y="-231.8" font-family="Times,serif" font-size="14.00">1 (96.6)</text>
</g>
<!-- 011 -->
<g id="node11" class="node"><title>011</title>
<ellipse fill="#ff8a8a" stroke="#b43f3f" cx="562" cy="-192" rx="36.2938" ry="18"/>
<text text-anchor="middle" x="562" y="-188.3" font-family="Times,serif" font-size="14.00">011 (a)</text>
</g>
<!-- 063&#45;&gt;011 -->
<g id="edge9" class="edge"><title>063&#45;&gt;011</title>
<path fill="none" stroke="#b43f3f" stroke-dasharray="1,5" d="M497.604,-264.25C506.26,-258.245 516.046,-250.798 524,-243 531.825,-235.329 539.362,-225.975 545.632,-217.442"/>
<polygon fill="#b43f3f" stroke="#b43f3f" points="548.497,-219.452 551.443,-209.275 542.794,-215.394 548.497,-219.452"/>
<text text-anchor="middle" x="559" y="-231.8" font-family="Times,serif" font-size="14.00">1 (93.1)</text>
</g>
<!-- 028 -->
<g id="node12" class="node"><title>028</title>
<ellipse fill="#ff8a8a" stroke="#b43f3f" cx="653" cy="-192" rx="36.2938" ry="18"/>
<text text-anchor="middle" x="653" y="-188.3" font-family="Times,serif" font-size="14.00">028 (a)</text>
</g>
<!-- 063&#45;&gt;028 -->
<g id="edge10" class="edge"><title>063&#45;&gt;028</title>
<path fill="none" stroke="#b43f3f" stroke-dasharray="1,5" d="M508.558,-270.501C530.81,-264.675 560.576,-255.479 585,-243 600.161,-235.254 615.567,-224.239 627.873,-214.519"/>
<polygon fill="#b43f3f" stroke="#b43f3f" points="630.289,-217.067 635.856,-208.053 625.883,-211.627 630.289,-217.067"/>
<text text-anchor="middle" x="631" y="-231.8" font-family="Times,serif" font-size="14.00">1 (96.6)</text>
</g>
<!-- 038 -->
<g id="node13" class="node"><title>038</title>
<ellipse fill="#ff8a8a" stroke="#b43f3f" cx="359" cy="-105" rx="36.2938" ry="18"/>
<text text-anchor="middle" x="359" y="-101.3" font-family="Times,serif" font-size="14.00">038 (a)</text>
</g>
<!-- 045&#45;&gt;038 -->
<g id="edge11" class="edge"><title>045&#45;&gt;038</title>
<path fill="none" stroke="#b43f3f" stroke-dasharray="1,5" d="M370.965,-173.799C368.911,-162.163 366.156,-146.548 363.806,-133.237"/>
<polygon fill="#b43f3f" stroke="#b43f3f" points="367.216,-132.415 362.031,-123.175 360.322,-133.632 367.216,-132.415"/>
<text text-anchor="middle" x="390" y="-144.8" font-family="Times,serif" font-size="14.00">1 (92.7)</text>
</g>
<!-- 034 -->
<g id="node14" class="node"><title>034</title>
<ellipse fill="#ff8a8a" stroke="#b43f3f" cx="450" cy="-105" rx="36.2938" ry="18"/>
<text text-anchor="middle" x="450" y="-101.3" font-family="Times,serif" font-size="14.00">034 (a)</text>
</g>
<!-- 07&#45;&gt;034 -->
<g id="edge12" class="edge"><title>07&#45;&gt;034</title>
<path fill="none" stroke="#b43f3f" stroke-dasharray="1,5" d="M470.863,-174.207C467.255,-162.409 462.351,-146.378 458.204,-132.822"/>
<polygon fill="#b43f3f" stroke="#b43f3f" points="461.487,-131.588 455.215,-123.049 454.793,-133.636 461.487,-131.588"/>
<text text-anchor="middle" x="487" y="-144.8" font-family="Times,serif" font-size="14.00">1 (95.1)</text>
</g>
<!-- 013 -->
<g id="node15" class="node"><title>013</title>
<ellipse fill="#ff8a8a" stroke="#b43f3f" cx="541" cy="-105" rx="36.2938" ry="18"/>
<text text-anchor="middle" x="541" y="-101.3" font-family="Times,serif" font-size="14.00">013 (a)</text>
</g>
<!-- 07&#45;&gt;013 -->
<g id="edge13" class="edge"><title>07&#45;&gt;013</title>
<path fill="none" stroke="#b43f3f" stroke-dasharray="1,5" d="M493.29,-176.648C499.906,-170.665 507.24,-163.394 513,-156 518.713,-148.667 523.986,-140.026 528.378,-132.008"/>
<polygon fill="#b43f3f" stroke="#b43f3f" points="531.559,-133.481 533.105,-122.999 525.36,-130.229 531.559,-133.481"/>
<text text-anchor="middle" x="545" y="-144.8" font-family="Times,serif" font-size="14.00">2 (95.1)</text>
</g>
<!-- 037 -->
<g id="node16" class="node"><title>037</title>
<ellipse fill="#ff8a8a" stroke="#b43f3f" cx="632" cy="-105" rx="36.2938" ry="18"/>
<text text-anchor="middle" x="632" y="-101.3" font-family="Times,serif" font-size="14.00">037 (a)</text>
</g>
<!-- 07&#45;&gt;037 -->
<g id="edge14" class="edge"><title>07&#45;&gt;037</title>
<path fill="none" stroke="#b43f3f" stroke-dasharray="1,5" d="M500.603,-180.465C505.979,-178.257 511.658,-175.995 517,-174 540.7,-165.15 548.85,-168.221 571,-156 584.7,-148.441 598.323,-137.669 609.208,-128.057"/>
<polygon fill="#b43f3f" stroke="#b43f3f" points="611.567,-130.643 616.612,-121.326 606.858,-125.463 611.567,-130.643"/>
<text text-anchor="middle" x="615" y="-144.8" font-family="Times,serif" font-size="14.00">1 (97.5)</text>
</g>
<!-- 030 -->
<g id="node17" class="node"><title>030</title>
<ellipse fill="#ff8a8a" stroke="#b43f3f" cx="723" cy="-105" rx="36.2938" ry="18"/>
<text text-anchor="middle" x="723" y="-101.3" font-family="Times,serif" font-size="14.00">030 (a)</text>
</g>
<!-- 07&#45;&gt;030 -->
<g id="edge15" class="edge"><title>07&#45;&gt;030</title>
<path fill="none" stroke="#b43f3f" stroke-dasharray="1,5" d="M499.931,-179.91C505.446,-177.684 511.354,-175.554 517,-174 570.692,-159.221 588.609,-174.879 641,-156 660.538,-148.96 680.476,-136.934 695.798,-126.441"/>
<polygon fill="#b43f3f" stroke="#b43f3f" points="698.089,-129.109 704.249,-120.489 694.058,-123.386 698.089,-129.109"/>
<text text-anchor="middle" x="694" y="-144.8" font-family="Times,serif" font-size="14.00">1 (95.1)</text>
</g>
<!-- 03 -->
<g id="node18" class="node"><title>03</title>
<ellipse fill="#cea8f4" stroke="#835da9" cx="862" cy="-279" rx="32.4942" ry="18"/>
<text text-anchor="middle" x="862" y="-275.3" font-family="Times,serif" font-size="14.00">03 (b)</text>
</g>
<!-- 032 -->
<g id="node19" class="node"><title>032</title>
<ellipse fill="#cea8f4" stroke="#835da9" cx="771" cy="-192" rx="36.2938" ry="18"/>
<text text-anchor="middle" x="771" y="-188.3" font-family="Times,serif" font-size="14.00">032 (b)</text>
</g>
<!-- 03&#45;&gt;032 -->
<g id="edge16" class="edge"><title>03&#45;&gt;032</title>
<path fill="none" stroke="#835da9" stroke-dasharray="1,5" d="M841.581,-264.672C832.737,-258.512 822.489,-250.834 814,-243 805.456,-235.115 796.924,-225.619 789.74,-217.029"/>
<polygon fill="#835da9" stroke="#835da9" points="792.344,-214.685 783.308,-209.155 786.923,-219.113 792.344,-214.685"/>
<text text-anchor="middle" x="836" y="-231.8" font-family="Times,serif" font-size="14.00">1 (91.7)</text>
</g>
<!-- 044 -->
<g id="node20" class="node"><title>044</title>
<ellipse fill="#cea8f4" stroke="#835da9" cx="862" cy="-192" rx="36.2938" ry="18"/>
<text text-anchor="middle" x="862" y="-188.3" font-family="Times,serif" font-size="14.00">044 (b)</text>
</g>
<!-- 03&#45;&gt;044 -->
<g id="edge17" class="edge"><title>03&#45;&gt;044</title>
<path fill="none" stroke="#835da9" stroke-dasharray="1,5" d="M862,-260.799C862,-249.163 862,-233.548 862,-220.237"/>
<polygon fill="#835da9" stroke="#835da9" points="865.5,-220.175 862,-210.175 858.5,-220.175 865.5,-220.175"/>
<text text-anchor="middle" x="884" y="-231.8" font-family="Times,serif" font-size="14.00">1 (89.2)</text>
</g>
<!-- 02 -->
<g id="node21" class="node"><title>02</title>
<ellipse fill="#cea8f4" stroke="#835da9" cx="949" cy="-192" rx="32.4942" ry="18"/>
<text text-anchor="middle" x="949" y="-188.3" font-family="Times,serif" font-size="14.00">02 (b)</text>
</g>
<!-- 03&#45;&gt;02 -->
<g id="edge18" class="edge"><title>03&#45;&gt;02</title>
<path fill="none" stroke="#835da9" stroke-dasharray="1,5" d="M882.599,-264.862C891.476,-258.738 901.701,-251.034 910,-243 917.949,-235.304 925.667,-225.945 932.111,-217.414"/>
<polygon fill="#835da9" stroke="#835da9" points="935.004,-219.388 938.091,-209.252 929.358,-215.25 935.004,-219.388"/>
<text text-anchor="middle" x="945" y="-231.8" font-family="Times,serif" font-size="14.00">1 (86.5)</text>
</g>
<!-- 022 -->
<g id="node22" class="node"><title>022</title>
<ellipse fill="#cea8f4" stroke="#835da9" cx="814" cy="-105" rx="36.2938" ry="18"/>
<text text-anchor="middle" x="814" y="-101.3" font-family="Times,serif" font-size="14.00">022 (b)</text>
</g>
<!-- 044&#45;&gt;022 -->
<g id="edge19" class="edge"><title>044&#45;&gt;022</title>
<path fill="none" stroke="#835da9" stroke-dasharray="1,5" d="M848.443,-175.237C843.827,-169.423 838.862,-162.632 835,-156 830.736,-148.678 826.874,-140.324 823.659,-132.569"/>
<polygon fill="#835da9" stroke="#835da9" points="826.883,-131.202 819.951,-123.189 820.373,-133.776 826.883,-131.202"/>
<text text-anchor="middle" x="857" y="-144.8" font-family="Times,serif" font-size="14.00">1 (91.7)</text>
</g>
<!-- 0141 -->
<g id="node23" class="node"><title>0141</title>
<ellipse fill="#cea8f4" stroke="#835da9" cx="909" cy="-105" rx="40.8928" ry="18"/>
<text text-anchor="middle" x="909" y="-101.3" font-family="Times,serif" font-size="14.00">0141 (b)</text>
</g>
<!-- 044&#45;&gt;0141 -->
<g id="edge20" class="edge"><title>044&#45;&gt;0141</title>
<path fill="none" stroke="#835da9" stroke-dasharray="1,5" d="M871.286,-174.207C877.98,-162.099 887.141,-145.533 894.757,-131.759"/>
<polygon fill="#835da9" stroke="#835da9" points="897.958,-133.203 899.734,-122.758 891.832,-129.816 897.958,-133.203"/>
<text text-anchor="middle" x="911" y="-144.8" font-family="Times,serif" font-size="14.00">1 (89.2)</text>
</g>
<!-- 017 -->
<g id="node24" class="node"><title>017</title>
<ellipse fill="#cea8f4" stroke="#835da9" cx="909" cy="-18" rx="36.2938" ry="18"/>
<text text-anchor="middle" x="909" y="-14.3" font-family="Times,serif" font-size="14.00">017 (b)</text>
</g>
<!-- 0141&#45;&gt;017 -->
<g id="edge21" class="edge"><title>0141&#45;&gt;017</title>
<path fill="none" stroke="#835da9" stroke-dasharray="1,5" d="M909,-86.799C909,-75.1626 909,-59.5479 909,-46.2368"/>
<polygon fill="#835da9" stroke="#835da9" points="912.5,-46.1754 909,-36.1754 905.5,-46.1755 912.5,-46.1754"/>
<text text-anchor="middle" x="931" y="-57.8" font-family="Times,serif" font-size="14.00">2 (92.7)</text>
</g>
<!-- 091 -->
<g id="node25" class="node"><title>091</title>
<ellipse fill="#cea8f4" stroke="#835da9" cx="1085" cy="-279" rx="36.2938" ry="18"/>
<text text-anchor="middle" x="1085" y="-275.3" font-family="Times,serif" font-size="14.00">091 (b)</text>
</g>
<!-- 0211 -->
<g id="node26" class="node"><title>0211</title>
<ellipse fill="#cea8f4" stroke="#835da9" cx="1040" cy="-192" rx="40.8928" ry="18"/>
<text text-anchor="middle" x="1040" y="-188.3" font-family="Times,serif" font-size="14.00">0211 (b)</text>
</g>
<!-- 091&#45;&gt;0211 -->
<g id="edge22" class="edge"><title>091&#45;&gt;0211</title>
<path fill="none" stroke="#835da9" stroke-dasharray="1,5" d="M1075.25,-261.371C1071.93,-255.593 1068.24,-249.047 1065,-243 1060.83,-235.213 1056.47,-226.645 1052.58,-218.834"/>
<polygon fill="#835da9" stroke="#835da9" points="1055.67,-217.2 1048.1,-209.785 1049.4,-220.301 1055.67,-217.2"/>
<text text-anchor="middle" x="1087" y="-231.8" font-family="Times,serif" font-size="14.00">1 (83.3)</text>
</g>
<!-- 05 -->
<g id="node27" class="node"><title>05</title>
<ellipse fill="#cea8f4" stroke="#835da9" cx="1131" cy="-192" rx="32.4942" ry="18"/>
<text text-anchor="middle" x="1131" y="-188.3" font-family="Times,serif" font-size="14.00">05 (b)</text>
</g>
<!-- 091&#45;&gt;05 -->
<g id="edge23" class="edge"><title>091&#45;&gt;05</title>
<path fill="none" stroke="#835da9" stroke-dasharray="1,5" d="M1097.13,-261.67C1101.15,-255.917 1105.49,-249.309 1109,-243 1113.15,-235.542 1117.1,-227.148 1120.48,-219.398"/>
<polygon fill="#835da9" stroke="#835da9" points="1123.76,-220.619 1124.43,-210.044 1117.31,-217.897 1123.76,-220.619"/>
<text text-anchor="middle" x="1138" y="-231.8" font-family="Times,serif" font-size="14.00">1 (87.5)</text>
</g>
<!-- 01 -->
<g id="node28" class="node"><title>01</title>
<ellipse fill="#cea8f4" stroke="#835da9" cx="1172" cy="-279" rx="32.4942" ry="18"/>
<text text-anchor="middle" x="1172" y="-275.3" font-family="Times,serif" font-size="14.00">01 (b)</text>
</g>
<!-- 019 -->
<g id="node29" class="node"><title>019</title>
<ellipse fill="#cea8f4" stroke="#835da9" cx="1259" cy="-279" rx="36.2938" ry="18"/>
<text text-anchor="middle" x="1259" y="-275.3" font-family="Times,serif" font-size="14.00">019 (b)</text>
</g>
<!-- P75 -->
<g id="node30" class="node"><title>P75</title>
<ellipse fill="#cea8f4" stroke="#835da9" cx="1350" cy="-279" rx="37.0935" ry="18"/>
<text text-anchor="middle" x="1350" y="-275.3" font-family="Times,serif" font-size="14.00">P75 (b)</text>
</g>
</g>
</svg>
