<?xml version="1.0" encoding="UTF-8" standalone="no"?>
<!DOCTYPE svg PUBLIC "-//W3C//DTD SVG 1.1//EN"
 "http://www.w3.org/Graphics/SVG/1.1/DTD/svg11.dtd">
<!-- Generated by graphviz version 2.38.0 (20140413.2041)
 -->
<!-- Title: %3 Pages: 1 -->
<svg width="971pt" height="337pt"
 viewBox="0.00 0.00 971.00 337.00" xmlns="http://www.w3.org/2000/svg" xmlns:xlink="http://www.w3.org/1999/xlink">
<g id="graph0" class="graph" transform="scale(1 1) rotate(0) translate(4 333)">
<title>%3</title>
<polygon fill="white" stroke="none" points="-4,4 -4,-333 967,-333 967,4 -4,4"/>
<g id="clust1" class="cluster"><title>cluster_reading</title>
<polygon fill="none" stroke="black" points="8,-8 8,-321 733,-321 733,-8 8,-8"/>
</g>
<g id="clust2" class="cluster"><title>cluster_legend</title>
<path fill="none" stroke="black" d="M753,-193C753,-193 943,-193 943,-193 949,-193 955,-199 955,-205 955,-205 955,-309 955,-309 955,-315 949,-321 943,-321 943,-321 753,-321 753,-321 747,-321 741,-315 741,-309 741,-309 741,-205 741,-205 741,-199 747,-193 753,-193"/>
</g>
<!-- 021 -->
<g id="node1" class="node"><title>021</title>
<ellipse fill="#ff8a8a" stroke="#b43f3f" cx="242" cy="-121" rx="36.2938" ry="18"/>
<text text-anchor="middle" x="242" y="-117.3" font-family="Times,serif" font-size="14.00">021 (a)</text>
</g>
<!-- 036 -->
<g id="node2" class="node"><title>036</title>
<ellipse fill="#ff8a8a" stroke="#b43f3f" cx="52" cy="-34" rx="36.2938" ry="18"/>
<text text-anchor="middle" x="52" y="-30.3" font-family="Times,serif" font-size="14.00">036 (a)</text>
</g>
<!-- 021&#45;&gt;036 -->
<g id="edge1" class="edge"><title>021&#45;&gt;036</title>
<path fill="none" stroke="#b43f3f" stroke-dasharray="1,5" d="M213.932,-109.127C208.045,-106.987 201.848,-104.838 196,-103 165.766,-93.4952 155.918,-97.9692 127,-85 109.854,-77.3104 92.2921,-65.8339 78.4766,-55.8148"/>
<polygon fill="#b43f3f" stroke="#b43f3f" points="80.5103,-52.9655 70.3958,-49.8117 76.3359,-58.5847 80.5103,-52.9655"/>
<text text-anchor="middle" x="149" y="-73.8" font-family="Times,serif" font-size="14.00">1 (97.6)</text>
</g>
<!-- 047 -->
<g id="node3" class="node"><title>047</title>
<ellipse fill="#ff8a8a" stroke="#b43f3f" cx="143" cy="-34" rx="36.2938" ry="18"/>
<text text-anchor="middle" x="143" y="-30.3" font-family="Times,serif" font-size="14.00">047 (a)</text>
</g>
<!-- 021&#45;&gt;047 -->
<g id="edge2" class="edge"><title>021&#45;&gt;047</title>
<path fill="none" stroke="#b43f3f" stroke-dasharray="1,5" d="M219.483,-106.836C209.723,-100.706 198.403,-93.0063 189,-85 179.786,-77.1548 170.569,-67.5674 162.832,-58.8941"/>
<polygon fill="#b43f3f" stroke="#b43f3f" points="165.392,-56.504 156.185,-51.262 160.113,-61.1015 165.392,-56.504"/>
<text text-anchor="middle" x="211" y="-73.8" font-family="Times,serif" font-size="14.00">1 (95.1)</text>
</g>
<!-- 063 -->
<g id="node4" class="node"><title>063</title>
<ellipse fill="#ff8a8a" stroke="#b43f3f" cx="462" cy="-208" rx="36.2938" ry="18"/>
<text text-anchor="middle" x="462" y="-204.3" font-family="Times,serif" font-size="14.00">063 (a)</text>
</g>
<!-- 063&#45;&gt;021 -->
<g id="edge3" class="edge"><title>063&#45;&gt;021</title>
<path fill="none" stroke="#b43f3f" stroke-dasharray="1,5" d="M427.708,-201.805C398.3,-196.594 355.225,-187.137 320,-172 302.132,-164.322 283.743,-152.744 269.311,-142.662"/>
<polygon fill="#b43f3f" stroke="#b43f3f" points="271.046,-139.599 260.877,-136.626 266.972,-145.292 271.046,-139.599"/>
<text text-anchor="middle" x="342" y="-160.8" font-family="Times,serif" font-size="14.00">1 (93.1)</text>
</g>
<!-- 011 -->
<g id="node5" class="node"><title>011</title>
<ellipse fill="#ff8a8a" stroke="#b43f3f" cx="333" cy="-121" rx="36.2938" ry="18"/>
<text text-anchor="middle" x="333" y="-117.3" font-family="Times,serif" font-size="14.00">011 (a)</text>
</g>
<!-- 063&#45;&gt;011 -->
<g id="edge4" class="edge"><title>063&#45;&gt;011</title>
<path fill="none" stroke="#b43f3f" stroke-dasharray="1,5" d="M433.765,-196.572C418.931,-190.469 400.808,-181.999 386,-172 374.697,-164.368 363.515,-154.296 354.356,-145.193"/>
<polygon fill="#b43f3f" stroke="#b43f3f" points="356.672,-142.556 347.18,-137.85 351.665,-147.448 356.672,-142.556"/>
<text text-anchor="middle" x="408" y="-160.8" font-family="Times,serif" font-size="14.00">1 (93.1)</text>
</g>
<!-- 031 -->
<g id="node6" class="node"><title>031</title>
<ellipse fill="#ff8a8a" stroke="#b43f3f" cx="424" cy="-121" rx="36.2938" ry="18"/>
<text text-anchor="middle" x="424" y="-117.3" font-family="Times,serif" font-size="14.00">031 (a)</text>
</g>
<!-- 063&#45;&gt;031 -->
<g id="edge5" class="edge"><title>063&#45;&gt;031</title>
<path fill="none" stroke="#b43f3f" stroke-dasharray="1,5" d="M449.973,-190.84C446.088,-185.1 442.012,-178.458 439,-172 435.629,-164.772 432.803,-156.605 430.546,-148.999"/>
<polygon fill="#b43f3f" stroke="#b43f3f" points="433.853,-147.826 427.822,-139.115 427.105,-149.686 433.853,-147.826"/>
<text text-anchor="middle" x="461" y="-160.8" font-family="Times,serif" font-size="14.00">1 (95.8)</text>
</g>
<!-- 07 -->
<g id="node7" class="node"><title>07</title>
<ellipse fill="#ff8a8a" stroke="#b43f3f" cx="510" cy="-121" rx="31.6951" ry="18"/>
<text text-anchor="middle" x="510" y="-117.3" font-family="Times,serif" font-size="14.00">07 (a)</text>
</g>
<!-- 063&#45;&gt;07 -->
<g id="edge6" class="edge"><title>063&#45;&gt;07</title>
<path fill="none" stroke="#b43f3f" stroke-dasharray="1,5" d="M472.196,-190.356C475.68,-184.578 479.563,-178.034 483,-172 487.443,-164.199 492.139,-155.627 496.347,-147.816"/>
<polygon fill="#b43f3f" stroke="#b43f3f" points="499.555,-149.239 501.188,-138.771 493.383,-145.936 499.555,-149.239"/>
<text text-anchor="middle" x="513" y="-160.8" font-family="Times,serif" font-size="14.00">1 (96.6)</text>
</g>
<!-- 045 -->
<g id="node8" class="node"><title>045</title>
<ellipse fill="#ff8a8a" stroke="#b43f3f" cx="596" cy="-121" rx="36.2938" ry="18"/>
<text text-anchor="middle" x="596" y="-117.3" font-family="Times,serif" font-size="14.00">045 (a)</text>
</g>
<!-- 063&#45;&gt;045 -->
<g id="edge7" class="edge"><title>063&#45;&gt;045</title>
<path fill="none" stroke="#b43f3f" stroke-dasharray="1,5" d="M490.103,-196.558C505.16,-190.397 523.703,-181.877 539,-172 551.042,-164.225 563.152,-154.017 573.094,-144.854"/>
<polygon fill="#b43f3f" stroke="#b43f3f" points="575.698,-147.209 580.56,-137.795 570.889,-142.122 575.698,-147.209"/>
<text text-anchor="middle" x="582" y="-160.8" font-family="Times,serif" font-size="14.00">1 (93.1)</text>
</g>
<!-- 028 -->
<g id="node9" class="node"><title>028</title>
<ellipse fill="#ff8a8a" stroke="#b43f3f" cx="687" cy="-121" rx="36.2938" ry="18"/>
<text text-anchor="middle" x="687" y="-117.3" font-family="Times,serif" font-size="14.00">028 (a)</text>
</g>
<!-- 063&#45;&gt;028 -->
<g id="edge8" class="edge"><title>063&#45;&gt;028</title>
<path fill="none" stroke="#b43f3f" stroke-dasharray="1,5" d="M496.64,-201.999C526.877,-196.868 571.505,-187.42 608,-172 626.201,-164.309 644.956,-152.627 659.622,-142.488"/>
<polygon fill="#b43f3f" stroke="#b43f3f" points="662.046,-145.06 668.184,-136.424 658,-139.347 662.046,-145.06"/>
<text text-anchor="middle" x="658" y="-160.8" font-family="Times,serif" font-size="14.00">1 (96.6)</text>
</g>
<!-- 017 -->
<g id="node11" class="node"><title>017</title>
<ellipse fill="#ff8a8a" stroke="#b43f3f" cx="234" cy="-34" rx="36.2938" ry="18"/>
<text text-anchor="middle" x="234" y="-30.3" font-family="Times,serif" font-size="14.00">017 (a)</text>
</g>
<!-- 031&#45;&gt;017 -->
<g id="edge10" class="edge"><title>031&#45;&gt;017</title>
<path fill="none" stroke="#b43f3f" stroke-dasharray="1,5" d="M395.857,-109.356C389.975,-107.2 383.799,-104.986 378,-103 352.866,-94.3929 345.325,-95.6809 321,-85 301.216,-76.3129 280.18,-64.3067 263.75,-54.2367"/>
<polygon fill="#b43f3f" stroke="#b43f3f" points="265.473,-51.1864 255.133,-48.8749 261.774,-57.1297 265.473,-51.1864"/>
<text text-anchor="middle" x="343" y="-73.8" font-family="Times,serif" font-size="14.00">1 (94.3)</text>
</g>
<!-- 013 -->
<g id="node12" class="node"><title>013</title>
<ellipse fill="#ff8a8a" stroke="#b43f3f" cx="325" cy="-34" rx="36.2938" ry="18"/>
<text text-anchor="middle" x="325" y="-30.3" font-family="Times,serif" font-size="14.00">013 (a)</text>
</g>
<!-- 031&#45;&gt;013 -->
<g id="edge11" class="edge"><title>031&#45;&gt;013</title>
<path fill="none" stroke="#b43f3f" stroke-dasharray="1,5" d="M406.301,-104.804C390.674,-91.3869 367.715,-71.6744 350.177,-56.6164"/>
<polygon fill="#b43f3f" stroke="#b43f3f" points="352.413,-53.9235 342.546,-50.0647 347.853,-59.2345 352.413,-53.9235"/>
<text text-anchor="middle" x="403" y="-73.8" font-family="Times,serif" font-size="14.00">1 (97.1)</text>
</g>
<!-- 030 -->
<g id="node13" class="node"><title>030</title>
<ellipse fill="#ff8a8a" stroke="#b43f3f" cx="416" cy="-34" rx="36.2938" ry="18"/>
<text text-anchor="middle" x="416" y="-30.3" font-family="Times,serif" font-size="14.00">030 (a)</text>
</g>
<!-- 07&#45;&gt;030 -->
<g id="edge12" class="edge"><title>07&#45;&gt;030</title>
<path fill="none" stroke="#b43f3f" stroke-dasharray="1,5" d="M489.7,-106.969C480.577,-100.749 469.888,-92.9398 461,-85 452.065,-77.0179 443.064,-67.4032 435.485,-58.7465"/>
<polygon fill="#b43f3f" stroke="#b43f3f" points="438.132,-56.4564 428.968,-51.1401 432.816,-61.0111 438.132,-56.4564"/>
<text text-anchor="middle" x="483" y="-73.8" font-family="Times,serif" font-size="14.00">1 (95.1)</text>
</g>
<!-- 034 -->
<g id="node14" class="node"><title>034</title>
<ellipse fill="#ff8a8a" stroke="#b43f3f" cx="507" cy="-34" rx="36.2938" ry="18"/>
<text text-anchor="middle" x="507" y="-30.3" font-family="Times,serif" font-size="14.00">034 (a)</text>
</g>
<!-- 07&#45;&gt;034 -->
<g id="edge13" class="edge"><title>07&#45;&gt;034</title>
<path fill="none" stroke="#b43f3f" stroke-dasharray="1,5" d="M509.393,-102.799C508.982,-91.1626 508.431,-75.5479 507.961,-62.2368"/>
<polygon fill="#b43f3f" stroke="#b43f3f" points="511.457,-62.0457 507.606,-52.1754 504.461,-62.2927 511.457,-62.0457"/>
<text text-anchor="middle" x="531" y="-73.8" font-family="Times,serif" font-size="14.00">1 (95.1)</text>
</g>
<!-- 037 -->
<g id="node15" class="node"><title>037</title>
<ellipse fill="#ff8a8a" stroke="#b43f3f" cx="598" cy="-34" rx="36.2938" ry="18"/>
<text text-anchor="middle" x="598" y="-30.3" font-family="Times,serif" font-size="14.00">037 (a)</text>
</g>
<!-- 07&#45;&gt;037 -->
<g id="edge14" class="edge"><title>07&#45;&gt;037</title>
<path fill="none" stroke="#b43f3f" stroke-dasharray="1,5" d="M530.059,-106.703C538.73,-100.549 548.757,-92.8667 557,-85 565.162,-77.211 573.234,-67.8317 580.029,-59.3112"/>
<polygon fill="#b43f3f" stroke="#b43f3f" points="582.985,-61.2121 586.355,-51.1676 577.456,-56.918 582.985,-61.2121"/>
<text text-anchor="middle" x="593" y="-73.8" font-family="Times,serif" font-size="14.00">1 (97.5)</text>
</g>
<!-- 038 -->
<g id="node21" class="node"><title>038</title>
<ellipse fill="#ff8a8a" stroke="#b43f3f" cx="689" cy="-34" rx="36.2938" ry="18"/>
<text text-anchor="middle" x="689" y="-30.3" font-family="Times,serif" font-size="14.00">038 (a)</text>
</g>
<!-- 045&#45;&gt;038 -->
<g id="edge19" class="edge"><title>045&#45;&gt;038</title>
<path fill="none" stroke="#b43f3f" stroke-dasharray="1,5" d="M612.627,-104.804C627.174,-91.5078 648.486,-72.0291 664.903,-57.0245"/>
<polygon fill="#b43f3f" stroke="#b43f3f" points="667.497,-59.3947 672.517,-50.0647 662.775,-54.2277 667.497,-59.3947"/>
<text text-anchor="middle" x="671" y="-73.8" font-family="Times,serif" font-size="14.00">1 (92.7)</text>
</g>
<!-- 019 -->
<g id="node10" class="node"><title>019</title>
<ellipse fill="#ff8a8a" stroke="#b43f3f" cx="462" cy="-295" rx="36.2938" ry="18"/>
<text text-anchor="middle" x="462" y="-291.3" font-family="Times,serif" font-size="14.00">019 (a)</text>
</g>
<!-- 019&#45;&gt;063 -->
<g id="edge9" class="edge"><title>019&#45;&gt;063</title>
<path fill="none" stroke="#b43f3f" stroke-dasharray="1,5" d="M462,-276.799C462,-265.163 462,-249.548 462,-236.237"/>
<polygon fill="#b43f3f" stroke="#b43f3f" points="465.5,-236.175 462,-226.175 458.5,-236.175 465.5,-236.175"/>
<text text-anchor="middle" x="484" y="-247.8" font-family="Times,serif" font-size="14.00">1 (85.7)</text>
</g>
<!-- 03 -->
<g id="node16" class="node"><title>03</title>
<ellipse fill="#ff8a8a" stroke="#b43f3f" cx="276" cy="-295" rx="31.6951" ry="18"/>
<text text-anchor="middle" x="276" y="-291.3" font-family="Times,serif" font-size="14.00">03 (a)</text>
</g>
<!-- 044 -->
<g id="node17" class="node"><title>044</title>
<ellipse fill="#ff8a8a" stroke="#b43f3f" cx="235" cy="-208" rx="36.2938" ry="18"/>
<text text-anchor="middle" x="235" y="-204.3" font-family="Times,serif" font-size="14.00">044 (a)</text>
</g>
<!-- 03&#45;&gt;044 -->
<g id="edge15" class="edge"><title>03&#45;&gt;044</title>
<path fill="none" stroke="#b43f3f" stroke-dasharray="1,5" d="M260.447,-279.172C255.145,-273.345 249.643,-266.305 246,-259 242.51,-252 240.119,-243.905 238.485,-236.294"/>
<polygon fill="#b43f3f" stroke="#b43f3f" points="241.913,-235.583 236.692,-226.364 235.024,-236.827 241.913,-235.583"/>
<text text-anchor="middle" x="268" y="-247.8" font-family="Times,serif" font-size="14.00">1 (89.2)</text>
</g>
<!-- 02 -->
<g id="node18" class="node"><title>02</title>
<ellipse fill="#ff8a8a" stroke="#b43f3f" cx="321" cy="-208" rx="31.6951" ry="18"/>
<text text-anchor="middle" x="321" y="-204.3" font-family="Times,serif" font-size="14.00">02 (a)</text>
</g>
<!-- 03&#45;&gt;02 -->
<g id="edge16" class="edge"><title>03&#45;&gt;02</title>
<path fill="none" stroke="#b43f3f" stroke-dasharray="1,5" d="M284.676,-277.611C291.151,-265.382 300.118,-248.443 307.523,-234.456"/>
<polygon fill="#b43f3f" stroke="#b43f3f" points="310.765,-235.814 312.35,-225.339 304.578,-232.539 310.765,-235.814"/>
<text text-anchor="middle" x="324" y="-247.8" font-family="Times,serif" font-size="14.00">1 (86.5)</text>
</g>
<!-- 0141 -->
<g id="node19" class="node"><title>0141</title>
<ellipse fill="#ff8a8a" stroke="#b43f3f" cx="56" cy="-121" rx="40.0939" ry="18"/>
<text text-anchor="middle" x="56" y="-117.3" font-family="Times,serif" font-size="14.00">0141 (a)</text>
</g>
<!-- 044&#45;&gt;0141 -->
<g id="edge17" class="edge"><title>044&#45;&gt;0141</title>
<path fill="none" stroke="#b43f3f" stroke-dasharray="1,5" d="M206.841,-196.403C200.96,-194.243 194.789,-192.016 189,-190 164.711,-181.541 157.236,-183.029 134,-172 116.792,-163.832 98.8133,-152.522 84.4594,-142.724"/>
<polygon fill="#b43f3f" stroke="#b43f3f" points="86.2378,-139.697 76.0298,-136.86 82.2406,-145.444 86.2378,-139.697"/>
<text text-anchor="middle" x="156" y="-160.8" font-family="Times,serif" font-size="14.00">1 (89.2)</text>
</g>
<!-- 022 -->
<g id="node20" class="node"><title>022</title>
<ellipse fill="#ff8a8a" stroke="#b43f3f" cx="151" cy="-121" rx="36.2938" ry="18"/>
<text text-anchor="middle" x="151" y="-117.3" font-family="Times,serif" font-size="14.00">022 (a)</text>
</g>
<!-- 044&#45;&gt;022 -->
<g id="edge18" class="edge"><title>044&#45;&gt;022</title>
<path fill="none" stroke="#b43f3f" stroke-dasharray="1,5" d="M217.028,-192.146C209.974,-186.094 201.926,-178.907 195,-172 186.81,-163.833 178.302,-154.414 170.975,-145.969"/>
<polygon fill="#b43f3f" stroke="#b43f3f" points="173.524,-143.563 164.362,-138.243 168.206,-148.116 173.524,-143.563"/>
<text text-anchor="middle" x="217" y="-160.8" font-family="Times,serif" font-size="14.00">1 (91.7)</text>
</g>
<!-- 091 -->
<g id="node22" class="node"><title>091</title>
<ellipse fill="#ff8a8a" stroke="#b43f3f" cx="143" cy="-295" rx="36.2938" ry="18"/>
<text text-anchor="middle" x="143" y="-291.3" font-family="Times,serif" font-size="14.00">091 (a)</text>
</g>
<!-- 05 -->
<g id="node23" class="node"><title>05</title>
<ellipse fill="#ff8a8a" stroke="#b43f3f" cx="50" cy="-208" rx="31.6951" ry="18"/>
<text text-anchor="middle" x="50" y="-204.3" font-family="Times,serif" font-size="14.00">05 (a)</text>
</g>
<!-- 091&#45;&gt;05 -->
<g id="edge20" class="edge"><title>091&#45;&gt;05</title>
<path fill="none" stroke="#b43f3f" stroke-dasharray="1,5" d="M121.692,-280.355C112.78,-274.255 102.533,-266.709 94,-259 85.157,-251.011 76.3028,-241.351 68.8797,-232.66"/>
<polygon fill="#b43f3f" stroke="#b43f3f" points="71.3416,-230.147 62.2482,-224.71 65.9663,-234.631 71.3416,-230.147"/>
<text text-anchor="middle" x="116" y="-247.8" font-family="Times,serif" font-size="14.00">1 (87.5)</text>
</g>
<!-- 0211 -->
<g id="node24" class="node"><title>0211</title>
<ellipse fill="#ff8a8a" stroke="#b43f3f" cx="140" cy="-208" rx="40.0939" ry="18"/>
<text text-anchor="middle" x="140" y="-204.3" font-family="Times,serif" font-size="14.00">0211 (a)</text>
</g>
<!-- 091&#45;&gt;0211 -->
<g id="edge21" class="edge"><title>091&#45;&gt;0211</title>
<path fill="none" stroke="#b43f3f" stroke-dasharray="1,5" d="M142.393,-276.799C141.982,-265.163 141.431,-249.548 140.961,-236.237"/>
<polygon fill="#b43f3f" stroke="#b43f3f" points="144.457,-236.046 140.606,-226.175 137.461,-236.293 144.457,-236.046"/>
<text text-anchor="middle" x="164" y="-247.8" font-family="Times,serif" font-size="14.00">1 (83.3)</text>
</g>
<!-- P75 -->
<g id="node25" class="node"><title>P75</title>
<ellipse fill="#ff8a8a" stroke="#b43f3f" cx="52" cy="-295" rx="36.2938" ry="18"/>
<text text-anchor="middle" x="52" y="-291.3" font-family="Times,serif" font-size="14.00">P75 (a)</text>
</g>
<!-- leg_s -->
<g id="node26" class="node"><title>leg_s</title>
<text text-anchor="middle" x="848" y="-291.3" font-family="Times,serif" font-size="14.00">Textual flow strength</text>
</g>
<!-- leg_e1 -->
<!-- leg_s&#45;&gt;leg_e1 -->
<g id="edge22" class="edge"><title>leg_s&#45;&gt;leg_e1</title>
<path fill="none" stroke="black" stroke-dasharray="1,5" d="M829.666,-276.686C824.132,-271.194 818.161,-264.989 813,-259 803.171,-247.593 793.072,-233.779 785.914,-223.563"/>
<polygon fill="black" stroke="black" points="788.614,-221.314 780.056,-215.068 782.851,-225.288 788.614,-221.314"/>
<text text-anchor="middle" x="828.5" y="-247.8" font-family="Times,serif" font-size="14.00">&lt;=5 &#160;</text>
</g>
<!-- leg_e2 -->
<!-- leg_s&#45;&gt;leg_e2 -->
<g id="edge23" class="edge"><title>leg_s&#45;&gt;leg_e2</title>
<path fill="none" stroke="black" stroke-dasharray="5,2" d="M848,-276.799C848,-261.794 848,-240.174 848,-225.409"/>
<polygon fill="black" stroke="black" points="851.5,-225.293 848,-215.293 844.5,-225.293 851.5,-225.293"/>
<text text-anchor="middle" x="867" y="-247.8" font-family="Times,serif" font-size="14.00"> &#160;&lt;=25</text>
</g>
<!-- leg_e3 -->
<!-- leg_s&#45;&gt;leg_e3 -->
<g id="edge24" class="edge"><title>leg_s&#45;&gt;leg_e3</title>
<path fill="none" stroke="black" d="M871.503,-276.76C877.906,-271.462 884.567,-265.344 890,-259 899.087,-248.39 907.095,-234.689 912.546,-224.313"/>
<polygon fill="black" stroke="black" points="915.722,-225.789 917.091,-215.283 909.469,-222.642 915.722,-225.789"/>
<text text-anchor="middle" x="911" y="-247.8" font-family="Times,serif" font-size="14.00">&gt;25</text>
</g>
</g>
</svg>
