<?xml version="1.0" encoding="UTF-8" standalone="no"?>
<!DOCTYPE svg PUBLIC "-//W3C//DTD SVG 1.1//EN"
 "http://www.w3.org/Graphics/SVG/1.1/DTD/svg11.dtd">
<!-- Generated by graphviz version 2.38.0 (20140413.2041)
 -->
<!-- Title: %3 Pages: 1 -->
<svg width="979pt" height="424pt"
 viewBox="0.00 0.00 979.00 424.00" xmlns="http://www.w3.org/2000/svg" xmlns:xlink="http://www.w3.org/1999/xlink">
<g id="graph0" class="graph" transform="scale(1 1) rotate(0) translate(4 420)">
<title>%3</title>
<polygon fill="white" stroke="none" points="-4,4 -4,-420 975,-420 975,4 -4,4"/>
<g id="clust1" class="cluster"><title>cluster_reading</title>
<polygon fill="none" stroke="black" points="8,-8 8,-408 741,-408 741,-8 8,-8"/>
</g>
<g id="clust2" class="cluster"><title>cluster_legend</title>
<path fill="none" stroke="black" d="M761,-280C761,-280 951,-280 951,-280 957,-280 963,-286 963,-292 963,-292 963,-396 963,-396 963,-402 957,-408 951,-408 951,-408 761,-408 761,-408 755,-408 749,-402 749,-396 749,-396 749,-292 749,-292 749,-286 755,-280 761,-280"/>
</g>
<!-- 021 -->
<g id="node1" class="node"><title>021</title>
<ellipse fill="#ff8a8a" stroke="#b43f3f" cx="143" cy="-208" rx="36.2938" ry="18"/>
<text text-anchor="middle" x="143" y="-204.3" font-family="Times,serif" font-size="14.00">021 (a)</text>
</g>
<!-- 036 -->
<g id="node2" class="node"><title>036</title>
<ellipse fill="#ff8a8a" stroke="#b43f3f" cx="52" cy="-121" rx="36.2938" ry="18"/>
<text text-anchor="middle" x="52" y="-117.3" font-family="Times,serif" font-size="14.00">036 (a)</text>
</g>
<!-- 021&#45;&gt;036 -->
<g id="edge1" class="edge"><title>021&#45;&gt;036</title>
<path fill="none" stroke="#b43f3f" stroke-dasharray="1,5" d="M121.628,-193.006C113.008,-186.963 103.186,-179.554 95,-172 86.4559,-164.115 77.9243,-154.619 70.7396,-146.029"/>
<polygon fill="#b43f3f" stroke="#b43f3f" points="73.3442,-143.685 64.3075,-138.155 67.9228,-148.113 73.3442,-143.685"/>
<text text-anchor="middle" x="117" y="-160.8" font-family="Times,serif" font-size="14.00">1 (97.6)</text>
</g>
<!-- 047 -->
<g id="node3" class="node"><title>047</title>
<ellipse fill="#ff8a8a" stroke="#b43f3f" cx="143" cy="-121" rx="36.2938" ry="18"/>
<text text-anchor="middle" x="143" y="-117.3" font-family="Times,serif" font-size="14.00">047 (a)</text>
</g>
<!-- 021&#45;&gt;047 -->
<g id="edge2" class="edge"><title>021&#45;&gt;047</title>
<path fill="none" stroke="#b43f3f" stroke-dasharray="1,5" d="M143,-189.799C143,-178.163 143,-162.548 143,-149.237"/>
<polygon fill="#b43f3f" stroke="#b43f3f" points="146.5,-149.175 143,-139.175 139.5,-149.175 146.5,-149.175"/>
<text text-anchor="middle" x="165" y="-160.8" font-family="Times,serif" font-size="14.00">1 (95.1)</text>
</g>
<!-- 044 -->
<g id="node4" class="node"><title>044</title>
<ellipse fill="#ff8a8a" stroke="#b43f3f" cx="368" cy="-295" rx="36.2938" ry="18"/>
<text text-anchor="middle" x="368" y="-291.3" font-family="Times,serif" font-size="14.00">044 (a)</text>
</g>
<!-- 044&#45;&gt;021 -->
<g id="edge3" class="edge"><title>044&#45;&gt;021</title>
<path fill="none" stroke="#b43f3f" stroke-dasharray="1,5" d="M333.813,-288.557C304.47,-283.19 261.433,-273.645 226,-259 206.896,-251.104 187.008,-239.268 171.49,-229.093"/>
<polygon fill="#b43f3f" stroke="#b43f3f" points="173.154,-225.995 162.898,-223.337 169.258,-231.811 173.154,-225.995"/>
<text text-anchor="middle" x="248" y="-247.8" font-family="Times,serif" font-size="14.00">2 (83.8)</text>
</g>
<!-- 011 -->
<g id="node5" class="node"><title>011</title>
<ellipse fill="#ff8a8a" stroke="#b43f3f" cx="239" cy="-208" rx="36.2938" ry="18"/>
<text text-anchor="middle" x="239" y="-204.3" font-family="Times,serif" font-size="14.00">011 (a)</text>
</g>
<!-- 044&#45;&gt;011 -->
<g id="edge4" class="edge"><title>044&#45;&gt;011</title>
<path fill="none" stroke="#b43f3f" stroke-dasharray="1,5" d="M339.765,-283.572C324.931,-277.469 306.808,-268.999 292,-259 280.697,-251.368 269.515,-241.296 260.356,-232.193"/>
<polygon fill="#b43f3f" stroke="#b43f3f" points="262.672,-229.556 253.18,-224.85 257.665,-234.448 262.672,-229.556"/>
<text text-anchor="middle" x="314" y="-247.8" font-family="Times,serif" font-size="14.00">2 (86.5)</text>
</g>
<!-- 022 -->
<g id="node6" class="node"><title>022</title>
<ellipse fill="#ff8a8a" stroke="#b43f3f" cx="330" cy="-208" rx="36.2938" ry="18"/>
<text text-anchor="middle" x="330" y="-204.3" font-family="Times,serif" font-size="14.00">022 (a)</text>
</g>
<!-- 044&#45;&gt;022 -->
<g id="edge5" class="edge"><title>044&#45;&gt;022</title>
<path fill="none" stroke="#b43f3f" stroke-dasharray="1,5" d="M355.973,-277.84C352.088,-272.1 348.012,-265.458 345,-259 341.629,-251.772 338.803,-243.605 336.546,-235.999"/>
<polygon fill="#b43f3f" stroke="#b43f3f" points="339.853,-234.826 333.822,-226.115 333.105,-236.686 339.853,-234.826"/>
<text text-anchor="middle" x="367" y="-247.8" font-family="Times,serif" font-size="14.00">1 (91.7)</text>
</g>
<!-- 07 -->
<g id="node7" class="node"><title>07</title>
<ellipse fill="#ff8a8a" stroke="#b43f3f" cx="416" cy="-208" rx="31.6951" ry="18"/>
<text text-anchor="middle" x="416" y="-204.3" font-family="Times,serif" font-size="14.00">07 (a)</text>
</g>
<!-- 044&#45;&gt;07 -->
<g id="edge6" class="edge"><title>044&#45;&gt;07</title>
<path fill="none" stroke="#b43f3f" stroke-dasharray="1,5" d="M378.196,-277.356C381.68,-271.578 385.563,-265.034 389,-259 393.443,-251.199 398.139,-242.627 402.347,-234.816"/>
<polygon fill="#b43f3f" stroke="#b43f3f" points="405.555,-236.239 407.188,-225.771 399.383,-232.936 405.555,-236.239"/>
<text text-anchor="middle" x="419" y="-247.8" font-family="Times,serif" font-size="14.00">2 (83.8)</text>
</g>
<!-- 0141 -->
<g id="node8" class="node"><title>0141</title>
<ellipse fill="#ff8a8a" stroke="#b43f3f" cx="506" cy="-208" rx="40.0939" ry="18"/>
<text text-anchor="middle" x="506" y="-204.3" font-family="Times,serif" font-size="14.00">0141 (a)</text>
</g>
<!-- 044&#45;&gt;0141 -->
<g id="edge7" class="edge"><title>044&#45;&gt;0141</title>
<path fill="none" stroke="#b43f3f" stroke-dasharray="1,5" d="M395.973,-283.353C410.991,-277.132 429.54,-268.62 445,-259 457.878,-250.987 471.032,-240.547 481.812,-231.281"/>
<polygon fill="#b43f3f" stroke="#b43f3f" points="484.346,-233.713 489.549,-224.484 479.726,-228.455 484.346,-233.713"/>
<text text-anchor="middle" x="489" y="-247.8" font-family="Times,serif" font-size="14.00">1 (89.2)</text>
</g>
<!-- 045 -->
<g id="node9" class="node"><title>045</title>
<ellipse fill="#ff8a8a" stroke="#b43f3f" cx="635" cy="-208" rx="36.2938" ry="18"/>
<text text-anchor="middle" x="635" y="-204.3" font-family="Times,serif" font-size="14.00">045 (a)</text>
</g>
<!-- 044&#45;&gt;045 -->
<g id="edge8" class="edge"><title>044&#45;&gt;045</title>
<path fill="none" stroke="#b43f3f" stroke-dasharray="1,5" d="M395.337,-282.745C401.105,-280.633 407.202,-278.592 413,-277 457.391,-264.813 470.82,-271.931 515,-259 544.699,-250.308 577.007,-236.584 600.611,-225.711"/>
<polygon fill="#b43f3f" stroke="#b43f3f" points="602.262,-228.803 609.842,-221.4 599.3,-222.461 602.262,-228.803"/>
<text text-anchor="middle" x="578" y="-247.8" font-family="Times,serif" font-size="14.00">2 (81.1)</text>
</g>
<!-- 031 -->
<g id="node10" class="node"><title>031</title>
<ellipse fill="#ff8a8a" stroke="#b43f3f" cx="234" cy="-121" rx="36.2938" ry="18"/>
<text text-anchor="middle" x="234" y="-117.3" font-family="Times,serif" font-size="14.00">031 (a)</text>
</g>
<!-- 022&#45;&gt;031 -->
<g id="edge9" class="edge"><title>022&#45;&gt;031</title>
<path fill="none" stroke="#b43f3f" stroke-dasharray="1,5" d="M312.837,-191.804C297.821,-178.508 275.821,-159.029 258.875,-144.025"/>
<polygon fill="#b43f3f" stroke="#b43f3f" points="260.821,-141.073 251.014,-137.065 256.181,-146.314 260.821,-141.073"/>
<text text-anchor="middle" x="310" y="-160.8" font-family="Times,serif" font-size="14.00">2 (86.7)</text>
</g>
<!-- 030 -->
<g id="node13" class="node"><title>030</title>
<ellipse fill="#ff8a8a" stroke="#b43f3f" cx="325" cy="-121" rx="36.2938" ry="18"/>
<text text-anchor="middle" x="325" y="-117.3" font-family="Times,serif" font-size="14.00">030 (a)</text>
</g>
<!-- 07&#45;&gt;030 -->
<g id="edge12" class="edge"><title>07&#45;&gt;030</title>
<path fill="none" stroke="#b43f3f" stroke-dasharray="1,5" d="M395.581,-193.672C386.737,-187.512 376.489,-179.834 368,-172 359.456,-164.115 350.924,-154.619 343.74,-146.029"/>
<polygon fill="#b43f3f" stroke="#b43f3f" points="346.344,-143.685 337.308,-138.155 340.923,-148.113 346.344,-143.685"/>
<text text-anchor="middle" x="390" y="-160.8" font-family="Times,serif" font-size="14.00">1 (95.1)</text>
</g>
<!-- 034 -->
<g id="node14" class="node"><title>034</title>
<ellipse fill="#ff8a8a" stroke="#b43f3f" cx="416" cy="-121" rx="36.2938" ry="18"/>
<text text-anchor="middle" x="416" y="-117.3" font-family="Times,serif" font-size="14.00">034 (a)</text>
</g>
<!-- 07&#45;&gt;034 -->
<g id="edge13" class="edge"><title>07&#45;&gt;034</title>
<path fill="none" stroke="#b43f3f" stroke-dasharray="1,5" d="M416,-189.799C416,-178.163 416,-162.548 416,-149.237"/>
<polygon fill="#b43f3f" stroke="#b43f3f" points="419.5,-149.175 416,-139.175 412.5,-149.175 419.5,-149.175"/>
<text text-anchor="middle" x="438" y="-160.8" font-family="Times,serif" font-size="14.00">1 (95.1)</text>
</g>
<!-- 037 -->
<g id="node15" class="node"><title>037</title>
<ellipse fill="#ff8a8a" stroke="#b43f3f" cx="507" cy="-121" rx="36.2938" ry="18"/>
<text text-anchor="middle" x="507" y="-117.3" font-family="Times,serif" font-size="14.00">037 (a)</text>
</g>
<!-- 07&#45;&gt;037 -->
<g id="edge14" class="edge"><title>07&#45;&gt;037</title>
<path fill="none" stroke="#b43f3f" stroke-dasharray="1,5" d="M436.419,-193.672C445.263,-187.512 455.511,-179.834 464,-172 472.544,-164.115 481.076,-154.619 488.26,-146.029"/>
<polygon fill="#b43f3f" stroke="#b43f3f" points="491.077,-148.113 494.692,-138.155 485.656,-143.685 491.077,-148.113"/>
<text text-anchor="middle" x="500" y="-160.8" font-family="Times,serif" font-size="14.00">1 (97.5)</text>
</g>
<!-- 0211 -->
<g id="node16" class="node"><title>0211</title>
<ellipse fill="#ff8a8a" stroke="#b43f3f" cx="602" cy="-121" rx="40.0939" ry="18"/>
<text text-anchor="middle" x="602" y="-117.3" font-family="Times,serif" font-size="14.00">0211 (a)</text>
</g>
<!-- 07&#45;&gt;0211 -->
<g id="edge15" class="edge"><title>07&#45;&gt;0211</title>
<path fill="none" stroke="#b43f3f" stroke-dasharray="1,5" d="M440.507,-196.194C445.889,-194.003 451.595,-191.816 457,-190 487.043,-179.907 497.043,-184.881 526,-172 543.208,-164.345 560.876,-152.973 574.841,-143.007"/>
<polygon fill="#b43f3f" stroke="#b43f3f" points="577.011,-145.755 583.02,-137.029 572.881,-140.104 577.011,-145.755"/>
<text text-anchor="middle" x="575" y="-160.8" font-family="Times,serif" font-size="14.00">2 (82.9)</text>
</g>
<!-- 038 -->
<g id="node20" class="node"><title>038</title>
<ellipse fill="#ff8a8a" stroke="#b43f3f" cx="697" cy="-121" rx="36.2938" ry="18"/>
<text text-anchor="middle" x="697" y="-117.3" font-family="Times,serif" font-size="14.00">038 (a)</text>
</g>
<!-- 045&#45;&gt;038 -->
<g id="edge19" class="edge"><title>045&#45;&gt;038</title>
<path fill="none" stroke="#b43f3f" stroke-dasharray="1,5" d="M646.954,-190.611C656.104,-178.067 668.869,-160.567 679.216,-146.381"/>
<polygon fill="#b43f3f" stroke="#b43f3f" points="682.227,-148.192 685.293,-138.05 676.572,-144.067 682.227,-148.192"/>
<text text-anchor="middle" x="692" y="-160.8" font-family="Times,serif" font-size="14.00">1 (92.7)</text>
</g>
<!-- 017 -->
<g id="node11" class="node"><title>017</title>
<ellipse fill="#ff8a8a" stroke="#b43f3f" cx="194" cy="-34" rx="36.2938" ry="18"/>
<text text-anchor="middle" x="194" y="-30.3" font-family="Times,serif" font-size="14.00">017 (a)</text>
</g>
<!-- 031&#45;&gt;017 -->
<g id="edge10" class="edge"><title>031&#45;&gt;017</title>
<path fill="none" stroke="#b43f3f" stroke-dasharray="1,5" d="M219.623,-104.178C215.043,-98.4652 210.31,-91.7533 207,-85 203.526,-77.9127 200.905,-69.7897 198.96,-62.1805"/>
<polygon fill="#b43f3f" stroke="#b43f3f" points="202.337,-61.2459 196.71,-52.2684 195.51,-62.795 202.337,-61.2459"/>
<text text-anchor="middle" x="229" y="-73.8" font-family="Times,serif" font-size="14.00">1 (94.3)</text>
</g>
<!-- 013 -->
<g id="node12" class="node"><title>013</title>
<ellipse fill="#ff8a8a" stroke="#b43f3f" cx="285" cy="-34" rx="36.2938" ry="18"/>
<text text-anchor="middle" x="285" y="-30.3" font-family="Times,serif" font-size="14.00">013 (a)</text>
</g>
<!-- 031&#45;&gt;013 -->
<g id="edge11" class="edge"><title>031&#45;&gt;013</title>
<path fill="none" stroke="#b43f3f" stroke-dasharray="1,5" d="M243.833,-103.611C251.242,-91.2642 261.53,-74.1167 269.968,-60.0534"/>
<polygon fill="#b43f3f" stroke="#b43f3f" points="273.053,-61.7142 275.197,-51.3385 267.051,-58.1127 273.053,-61.7142"/>
<text text-anchor="middle" x="285" y="-73.8" font-family="Times,serif" font-size="14.00">1 (97.1)</text>
</g>
<!-- 03 -->
<g id="node17" class="node"><title>03</title>
<ellipse fill="#ff8a8a" stroke="#b43f3f" cx="454" cy="-382" rx="31.6951" ry="18"/>
<text text-anchor="middle" x="454" y="-378.3" font-family="Times,serif" font-size="14.00">03 (a)</text>
</g>
<!-- 03&#45;&gt;044 -->
<g id="edge16" class="edge"><title>03&#45;&gt;044</title>
<path fill="none" stroke="#b43f3f" stroke-dasharray="1,5" d="M433.353,-367.912C424.467,-361.796 414.248,-354.086 406,-346 398.175,-338.329 390.638,-328.975 384.368,-320.442"/>
<polygon fill="#b43f3f" stroke="#b43f3f" points="387.206,-318.394 378.557,-312.275 381.503,-322.452 387.206,-318.394"/>
<text text-anchor="middle" x="428" y="-334.8" font-family="Times,serif" font-size="14.00">1 (89.2)</text>
</g>
<!-- 02 -->
<g id="node18" class="node"><title>02</title>
<ellipse fill="#ff8a8a" stroke="#b43f3f" cx="454" cy="-295" rx="31.6951" ry="18"/>
<text text-anchor="middle" x="454" y="-291.3" font-family="Times,serif" font-size="14.00">02 (a)</text>
</g>
<!-- 03&#45;&gt;02 -->
<g id="edge17" class="edge"><title>03&#45;&gt;02</title>
<path fill="none" stroke="#b43f3f" stroke-dasharray="1,5" d="M454,-363.799C454,-352.163 454,-336.548 454,-323.237"/>
<polygon fill="#b43f3f" stroke="#b43f3f" points="457.5,-323.175 454,-313.175 450.5,-323.175 457.5,-323.175"/>
<text text-anchor="middle" x="476" y="-334.8" font-family="Times,serif" font-size="14.00">1 (86.5)</text>
</g>
<!-- 032 -->
<g id="node19" class="node"><title>032</title>
<ellipse fill="#ff8a8a" stroke="#b43f3f" cx="540" cy="-295" rx="36.2938" ry="18"/>
<text text-anchor="middle" x="540" y="-291.3" font-family="Times,serif" font-size="14.00">032 (a)</text>
</g>
<!-- 03&#45;&gt;032 -->
<g id="edge18" class="edge"><title>03&#45;&gt;032</title>
<path fill="none" stroke="#b43f3f" stroke-dasharray="1,5" d="M474.647,-367.912C483.533,-361.796 493.752,-354.086 502,-346 509.825,-338.329 517.362,-328.975 523.632,-320.442"/>
<polygon fill="#b43f3f" stroke="#b43f3f" points="526.497,-322.452 529.443,-312.275 520.794,-318.394 526.497,-322.452"/>
<text text-anchor="middle" x="537" y="-334.8" font-family="Times,serif" font-size="14.00">1 (91.7)</text>
</g>
<!-- P75 -->
<g id="node21" class="node"><title>P75</title>
<ellipse fill="#ff8a8a" stroke="#b43f3f" cx="321" cy="-382" rx="36.2938" ry="18"/>
<text text-anchor="middle" x="321" y="-378.3" font-family="Times,serif" font-size="14.00">P75 (a)</text>
</g>
<!-- 019 -->
<g id="node22" class="node"><title>019</title>
<ellipse fill="#ff8a8a" stroke="#b43f3f" cx="137" cy="-382" rx="36.2938" ry="18"/>
<text text-anchor="middle" x="137" y="-378.3" font-family="Times,serif" font-size="14.00">019 (a)</text>
</g>
<!-- leg_s -->
<g id="node23" class="node"><title>leg_s</title>
<text text-anchor="middle" x="856" y="-378.3" font-family="Times,serif" font-size="14.00">Textual flow strength</text>
</g>
<!-- leg_e1 -->
<!-- leg_s&#45;&gt;leg_e1 -->
<g id="edge20" class="edge"><title>leg_s&#45;&gt;leg_e1</title>
<path fill="none" stroke="black" stroke-dasharray="1,5" d="M837.666,-363.686C832.132,-358.194 826.161,-351.989 821,-346 811.171,-334.593 801.072,-320.779 793.914,-310.563"/>
<polygon fill="black" stroke="black" points="796.614,-308.314 788.056,-302.068 790.851,-312.288 796.614,-308.314"/>
<text text-anchor="middle" x="836.5" y="-334.8" font-family="Times,serif" font-size="14.00">&lt;=5 &#160;</text>
</g>
<!-- leg_e2 -->
<!-- leg_s&#45;&gt;leg_e2 -->
<g id="edge21" class="edge"><title>leg_s&#45;&gt;leg_e2</title>
<path fill="none" stroke="black" stroke-dasharray="5,2" d="M856,-363.799C856,-348.794 856,-327.174 856,-312.409"/>
<polygon fill="black" stroke="black" points="859.5,-312.293 856,-302.293 852.5,-312.293 859.5,-312.293"/>
<text text-anchor="middle" x="875" y="-334.8" font-family="Times,serif" font-size="14.00"> &#160;&lt;=25</text>
</g>
<!-- leg_e3 -->
<!-- leg_s&#45;&gt;leg_e3 -->
<g id="edge22" class="edge"><title>leg_s&#45;&gt;leg_e3</title>
<path fill="none" stroke="black" d="M879.503,-363.76C885.906,-358.462 892.567,-352.344 898,-346 907.087,-335.39 915.095,-321.689 920.546,-311.313"/>
<polygon fill="black" stroke="black" points="923.722,-312.789 925.091,-302.283 917.469,-309.642 923.722,-312.789"/>
<text text-anchor="middle" x="919" y="-334.8" font-family="Times,serif" font-size="14.00">&gt;25</text>
</g>
</g>
</svg>
