<?xml version="1.0" encoding="UTF-8" standalone="no"?>
<!DOCTYPE svg PUBLIC "-//W3C//DTD SVG 1.1//EN"
 "http://www.w3.org/Graphics/SVG/1.1/DTD/svg11.dtd">
<!-- Generated by graphviz version 2.38.0 (20140413.2041)
 -->
<!-- Title: %3 Pages: 1 -->
<svg width="979pt" height="424pt"
 viewBox="0.00 0.00 979.00 424.00" xmlns="http://www.w3.org/2000/svg" xmlns:xlink="http://www.w3.org/1999/xlink">
<g id="graph0" class="graph" transform="scale(1 1) rotate(0) translate(4 420)">
<title>%3</title>
<polygon fill="white" stroke="none" points="-4,4 -4,-420 975,-420 975,4 -4,4"/>
<g id="clust1" class="cluster"><title>cluster_reading</title>
<polygon fill="none" stroke="black" points="8,-8 8,-408 741,-408 741,-8 8,-8"/>
</g>
<g id="clust2" class="cluster"><title>cluster_legend</title>
<path fill="none" stroke="black" d="M761,-280C761,-280 951,-280 951,-280 957,-280 963,-286 963,-292 963,-292 963,-396 963,-396 963,-402 957,-408 951,-408 951,-408 761,-408 761,-408 755,-408 749,-402 749,-396 749,-396 749,-292 749,-292 749,-286 755,-280 761,-280"/>
</g>
<!-- 044 -->
<g id="node1" class="node"><title>044</title>
<ellipse fill="#ff8a8a" stroke="#b43f3f" cx="455" cy="-295" rx="36.2938" ry="18"/>
<text text-anchor="middle" x="455" y="-291.3" font-family="Times,serif" font-size="14.00">044 (a)</text>
</g>
<!-- 022 -->
<g id="node2" class="node"><title>022</title>
<ellipse fill="#ff8a8a" stroke="#b43f3f" cx="148" cy="-208" rx="36.2938" ry="18"/>
<text text-anchor="middle" x="148" y="-204.3" font-family="Times,serif" font-size="14.00">022 (a)</text>
</g>
<!-- 044&#45;&gt;022 -->
<g id="edge1" class="edge"><title>044&#45;&gt;022</title>
<path fill="none" stroke="#b43f3f" stroke-dasharray="1,5" d="M422.919,-286.423C394.472,-279.599 351.843,-269.115 315,-259 271.36,-247.019 221.723,-231.975 187.985,-221.534"/>
<polygon fill="#b43f3f" stroke="#b43f3f" points="188.637,-218.072 178.049,-218.45 186.562,-224.758 188.637,-218.072"/>
<text text-anchor="middle" x="337" y="-247.8" font-family="Times,serif" font-size="14.00">1 (91.7)</text>
</g>
<!-- 07 -->
<g id="node3" class="node"><title>07</title>
<ellipse fill="#ff8a8a" stroke="#b43f3f" cx="330" cy="-208" rx="31.6951" ry="18"/>
<text text-anchor="middle" x="330" y="-204.3" font-family="Times,serif" font-size="14.00">07 (a)</text>
</g>
<!-- 044&#45;&gt;07 -->
<g id="edge2" class="edge"><title>044&#45;&gt;07</title>
<path fill="none" stroke="#b43f3f" stroke-dasharray="1,5" d="M427.093,-283.419C412.698,-277.327 395.225,-268.913 381,-259 370.032,-251.357 359.257,-241.283 350.458,-232.182"/>
<polygon fill="#b43f3f" stroke="#b43f3f" points="352.964,-229.738 343.57,-224.84 347.859,-234.528 352.964,-229.738"/>
<text text-anchor="middle" x="403" y="-247.8" font-family="Times,serif" font-size="14.00">2 (83.8)</text>
</g>
<!-- 011 -->
<g id="node4" class="node"><title>011</title>
<ellipse fill="#ff8a8a" stroke="#b43f3f" cx="416" cy="-208" rx="36.2938" ry="18"/>
<text text-anchor="middle" x="416" y="-204.3" font-family="Times,serif" font-size="14.00">011 (a)</text>
</g>
<!-- 044&#45;&gt;011 -->
<g id="edge3" class="edge"><title>044&#45;&gt;011</title>
<path fill="none" stroke="#b43f3f" stroke-dasharray="1,5" d="M444.895,-277.548C441.546,-271.785 437.928,-265.202 435,-259 431.471,-251.527 428.1,-243.206 425.202,-235.531"/>
<polygon fill="#b43f3f" stroke="#b43f3f" points="428.416,-234.128 421.694,-225.939 421.842,-236.533 428.416,-234.128"/>
<text text-anchor="middle" x="457" y="-247.8" font-family="Times,serif" font-size="14.00">2 (86.5)</text>
</g>
<!-- 045 -->
<g id="node5" class="node"><title>045</title>
<ellipse fill="#ff8a8a" stroke="#b43f3f" cx="507" cy="-208" rx="36.2938" ry="18"/>
<text text-anchor="middle" x="507" y="-204.3" font-family="Times,serif" font-size="14.00">045 (a)</text>
</g>
<!-- 044&#45;&gt;045 -->
<g id="edge4" class="edge"><title>044&#45;&gt;045</title>
<path fill="none" stroke="#b43f3f" stroke-dasharray="1,5" d="M466.544,-277.822C470.6,-271.969 475.113,-265.259 479,-259 483.829,-251.225 488.804,-242.58 493.195,-234.696"/>
<polygon fill="#b43f3f" stroke="#b43f3f" points="496.288,-236.336 498.039,-225.887 490.154,-232.963 496.288,-236.336"/>
<text text-anchor="middle" x="510" y="-247.8" font-family="Times,serif" font-size="14.00">2 (81.1)</text>
</g>
<!-- 021 -->
<g id="node6" class="node"><title>021</title>
<ellipse fill="#ff8a8a" stroke="#b43f3f" cx="598" cy="-208" rx="36.2938" ry="18"/>
<text text-anchor="middle" x="598" y="-204.3" font-family="Times,serif" font-size="14.00">021 (a)</text>
</g>
<!-- 044&#45;&gt;021 -->
<g id="edge5" class="edge"><title>044&#45;&gt;021</title>
<path fill="none" stroke="#b43f3f" stroke-dasharray="1,5" d="M482.524,-283.038C502.11,-275.063 526.558,-264.702 536,-259 549.335,-250.947 562.94,-240.299 573.996,-230.899"/>
<polygon fill="#b43f3f" stroke="#b43f3f" points="576.302,-233.532 581.554,-224.33 571.71,-228.248 576.302,-233.532"/>
<text text-anchor="middle" x="580" y="-247.8" font-family="Times,serif" font-size="14.00">2 (83.8)</text>
</g>
<!-- 0141 -->
<g id="node7" class="node"><title>0141</title>
<ellipse fill="#ff8a8a" stroke="#b43f3f" cx="693" cy="-208" rx="40.0939" ry="18"/>
<text text-anchor="middle" x="693" y="-204.3" font-family="Times,serif" font-size="14.00">0141 (a)</text>
</g>
<!-- 044&#45;&gt;0141 -->
<g id="edge6" class="edge"><title>044&#45;&gt;0141</title>
<path fill="none" stroke="#b43f3f" stroke-dasharray="1,5" d="M482.329,-282.716C488.098,-280.606 494.196,-278.573 500,-277 546.121,-264.498 561.029,-275.157 606,-259 626.473,-251.645 647.674,-239.568 664.021,-229.126"/>
<polygon fill="#b43f3f" stroke="#b43f3f" points="666.116,-231.938 672.568,-223.534 662.284,-226.08 666.116,-231.938"/>
<text text-anchor="middle" x="661" y="-247.8" font-family="Times,serif" font-size="14.00">1 (89.2)</text>
</g>
<!-- 031 -->
<g id="node8" class="node"><title>031</title>
<ellipse fill="#ff8a8a" stroke="#b43f3f" cx="52" cy="-121" rx="36.2938" ry="18"/>
<text text-anchor="middle" x="52" y="-117.3" font-family="Times,serif" font-size="14.00">031 (a)</text>
</g>
<!-- 022&#45;&gt;031 -->
<g id="edge7" class="edge"><title>022&#45;&gt;031</title>
<path fill="none" stroke="#b43f3f" stroke-dasharray="1,5" d="M127.308,-193.115C118.609,-186.974 108.545,-179.463 100,-172 90.7018,-163.879 81.1472,-154.237 73.035,-145.597"/>
<polygon fill="#b43f3f" stroke="#b43f3f" points="75.3933,-142.992 66.0392,-138.017 70.2492,-147.739 75.3933,-142.992"/>
<text text-anchor="middle" x="122" y="-160.8" font-family="Times,serif" font-size="14.00">2 (86.7)</text>
</g>
<!-- 0211 -->
<g id="node14" class="node"><title>0211</title>
<ellipse fill="#ff8a8a" stroke="#b43f3f" cx="147" cy="-121" rx="40.0939" ry="18"/>
<text text-anchor="middle" x="147" y="-117.3" font-family="Times,serif" font-size="14.00">0211 (a)</text>
</g>
<!-- 07&#45;&gt;0211 -->
<g id="edge13" class="edge"><title>07&#45;&gt;0211</title>
<path fill="none" stroke="#b43f3f" stroke-dasharray="1,5" d="M301.495,-199.904C279.467,-193.897 248.531,-184.302 223,-172 206.151,-163.881 188.627,-152.574 174.658,-142.766"/>
<polygon fill="#b43f3f" stroke="#b43f3f" points="176.626,-139.871 166.458,-136.895 172.551,-145.562 176.626,-139.871"/>
<text text-anchor="middle" x="245" y="-160.8" font-family="Times,serif" font-size="14.00">2 (82.9)</text>
</g>
<!-- 037 -->
<g id="node15" class="node"><title>037</title>
<ellipse fill="#ff8a8a" stroke="#b43f3f" cx="242" cy="-121" rx="36.2938" ry="18"/>
<text text-anchor="middle" x="242" y="-117.3" font-family="Times,serif" font-size="14.00">037 (a)</text>
</g>
<!-- 07&#45;&gt;037 -->
<g id="edge14" class="edge"><title>07&#45;&gt;037</title>
<path fill="none" stroke="#b43f3f" stroke-dasharray="1,5" d="M310.433,-193.595C301.958,-187.422 292.137,-179.753 284,-172 275.666,-164.058 267.335,-154.55 260.316,-145.967"/>
<polygon fill="#b43f3f" stroke="#b43f3f" points="263.009,-143.73 254.031,-138.103 257.54,-148.1 263.009,-143.73"/>
<text text-anchor="middle" x="306" y="-160.8" font-family="Times,serif" font-size="14.00">1 (97.5)</text>
</g>
<!-- 034 -->
<g id="node16" class="node"><title>034</title>
<ellipse fill="#ff8a8a" stroke="#b43f3f" cx="333" cy="-121" rx="36.2938" ry="18"/>
<text text-anchor="middle" x="333" y="-117.3" font-family="Times,serif" font-size="14.00">034 (a)</text>
</g>
<!-- 07&#45;&gt;034 -->
<g id="edge15" class="edge"><title>07&#45;&gt;034</title>
<path fill="none" stroke="#b43f3f" stroke-dasharray="1,5" d="M330.607,-189.799C331.018,-178.163 331.569,-162.548 332.039,-149.237"/>
<polygon fill="#b43f3f" stroke="#b43f3f" points="335.539,-149.293 332.394,-139.175 328.543,-149.046 335.539,-149.293"/>
<text text-anchor="middle" x="354" y="-160.8" font-family="Times,serif" font-size="14.00">1 (95.1)</text>
</g>
<!-- 030 -->
<g id="node17" class="node"><title>030</title>
<ellipse fill="#ff8a8a" stroke="#b43f3f" cx="424" cy="-121" rx="36.2938" ry="18"/>
<text text-anchor="middle" x="424" y="-117.3" font-family="Times,serif" font-size="14.00">030 (a)</text>
</g>
<!-- 07&#45;&gt;030 -->
<g id="edge16" class="edge"><title>07&#45;&gt;030</title>
<path fill="none" stroke="#b43f3f" stroke-dasharray="1,5" d="M350.776,-194.075C360.098,-187.876 370.998,-180.055 380,-172 388.75,-164.17 397.482,-154.685 404.833,-146.089"/>
<polygon fill="#b43f3f" stroke="#b43f3f" points="407.693,-148.124 411.413,-138.204 402.319,-143.639 407.693,-148.124"/>
<text text-anchor="middle" x="417" y="-160.8" font-family="Times,serif" font-size="14.00">1 (95.1)</text>
</g>
<!-- 038 -->
<g id="node18" class="node"><title>038</title>
<ellipse fill="#ff8a8a" stroke="#b43f3f" cx="515" cy="-121" rx="36.2938" ry="18"/>
<text text-anchor="middle" x="515" y="-117.3" font-family="Times,serif" font-size="14.00">038 (a)</text>
</g>
<!-- 045&#45;&gt;038 -->
<g id="edge17" class="edge"><title>045&#45;&gt;038</title>
<path fill="none" stroke="#b43f3f" stroke-dasharray="1,5" d="M508.619,-189.799C509.714,-178.163 511.184,-162.548 512.437,-149.237"/>
<polygon fill="#b43f3f" stroke="#b43f3f" points="515.931,-149.459 513.383,-139.175 508.962,-148.803 515.931,-149.459"/>
<text text-anchor="middle" x="534" y="-160.8" font-family="Times,serif" font-size="14.00">1 (92.7)</text>
</g>
<!-- 036 -->
<g id="node19" class="node"><title>036</title>
<ellipse fill="#ff8a8a" stroke="#b43f3f" cx="606" cy="-121" rx="36.2938" ry="18"/>
<text text-anchor="middle" x="606" y="-117.3" font-family="Times,serif" font-size="14.00">036 (a)</text>
</g>
<!-- 021&#45;&gt;036 -->
<g id="edge18" class="edge"><title>021&#45;&gt;036</title>
<path fill="none" stroke="#b43f3f" stroke-dasharray="1,5" d="M599.619,-189.799C600.714,-178.163 602.184,-162.548 603.437,-149.237"/>
<polygon fill="#b43f3f" stroke="#b43f3f" points="606.931,-149.459 604.383,-139.175 599.962,-148.803 606.931,-149.459"/>
<text text-anchor="middle" x="625" y="-160.8" font-family="Times,serif" font-size="14.00">1 (97.6)</text>
</g>
<!-- 047 -->
<g id="node20" class="node"><title>047</title>
<ellipse fill="#ff8a8a" stroke="#b43f3f" cx="697" cy="-121" rx="36.2938" ry="18"/>
<text text-anchor="middle" x="697" y="-117.3" font-family="Times,serif" font-size="14.00">047 (a)</text>
</g>
<!-- 021&#45;&gt;047 -->
<g id="edge19" class="edge"><title>021&#45;&gt;047</title>
<path fill="none" stroke="#b43f3f" stroke-dasharray="1,5" d="M620.517,-193.836C630.277,-187.706 641.597,-180.006 651,-172 660.214,-164.155 669.431,-154.567 677.168,-145.894"/>
<polygon fill="#b43f3f" stroke="#b43f3f" points="679.887,-148.102 683.815,-138.262 674.608,-143.504 679.887,-148.102"/>
<text text-anchor="middle" x="688" y="-160.8" font-family="Times,serif" font-size="14.00">1 (95.1)</text>
</g>
<!-- 013 -->
<g id="node9" class="node"><title>013</title>
<ellipse fill="#ff8a8a" stroke="#b43f3f" cx="52" cy="-34" rx="36.2938" ry="18"/>
<text text-anchor="middle" x="52" y="-30.3" font-family="Times,serif" font-size="14.00">013 (a)</text>
</g>
<!-- 031&#45;&gt;013 -->
<g id="edge8" class="edge"><title>031&#45;&gt;013</title>
<path fill="none" stroke="#b43f3f" stroke-dasharray="1,5" d="M52,-102.799C52,-91.1626 52,-75.5479 52,-62.2368"/>
<polygon fill="#b43f3f" stroke="#b43f3f" points="55.5001,-62.1754 52,-52.1754 48.5001,-62.1755 55.5001,-62.1754"/>
<text text-anchor="middle" x="74" y="-73.8" font-family="Times,serif" font-size="14.00">1 (97.1)</text>
</g>
<!-- 017 -->
<g id="node10" class="node"><title>017</title>
<ellipse fill="#ff8a8a" stroke="#b43f3f" cx="143" cy="-34" rx="36.2938" ry="18"/>
<text text-anchor="middle" x="143" y="-30.3" font-family="Times,serif" font-size="14.00">017 (a)</text>
</g>
<!-- 031&#45;&gt;017 -->
<g id="edge9" class="edge"><title>031&#45;&gt;017</title>
<path fill="none" stroke="#b43f3f" stroke-dasharray="1,5" d="M73.3716,-106.006C81.9923,-99.9634 91.8143,-92.5539 100,-85 108.544,-77.1154 117.076,-67.6186 124.26,-59.0293"/>
<polygon fill="#b43f3f" stroke="#b43f3f" points="127.077,-61.1135 130.692,-51.1545 121.656,-56.6853 127.077,-61.1135"/>
<text text-anchor="middle" x="136" y="-73.8" font-family="Times,serif" font-size="14.00">1 (94.3)</text>
</g>
<!-- 03 -->
<g id="node11" class="node"><title>03</title>
<ellipse fill="#ff8a8a" stroke="#b43f3f" cx="541" cy="-382" rx="31.6951" ry="18"/>
<text text-anchor="middle" x="541" y="-378.3" font-family="Times,serif" font-size="14.00">03 (a)</text>
</g>
<!-- 03&#45;&gt;044 -->
<g id="edge10" class="edge"><title>03&#45;&gt;044</title>
<path fill="none" stroke="#b43f3f" stroke-dasharray="1,5" d="M520.353,-367.912C511.467,-361.796 501.248,-354.086 493,-346 485.175,-338.329 477.638,-328.975 471.368,-320.442"/>
<polygon fill="#b43f3f" stroke="#b43f3f" points="474.206,-318.394 465.557,-312.275 468.503,-322.452 474.206,-318.394"/>
<text text-anchor="middle" x="515" y="-334.8" font-family="Times,serif" font-size="14.00">1 (89.2)</text>
</g>
<!-- 02 -->
<g id="node12" class="node"><title>02</title>
<ellipse fill="#ff8a8a" stroke="#b43f3f" cx="541" cy="-295" rx="31.6951" ry="18"/>
<text text-anchor="middle" x="541" y="-291.3" font-family="Times,serif" font-size="14.00">02 (a)</text>
</g>
<!-- 03&#45;&gt;02 -->
<g id="edge11" class="edge"><title>03&#45;&gt;02</title>
<path fill="none" stroke="#b43f3f" stroke-dasharray="1,5" d="M541,-363.799C541,-352.163 541,-336.548 541,-323.237"/>
<polygon fill="#b43f3f" stroke="#b43f3f" points="544.5,-323.175 541,-313.175 537.5,-323.175 544.5,-323.175"/>
<text text-anchor="middle" x="563" y="-334.8" font-family="Times,serif" font-size="14.00">1 (86.5)</text>
</g>
<!-- 032 -->
<g id="node13" class="node"><title>032</title>
<ellipse fill="#ff8a8a" stroke="#b43f3f" cx="627" cy="-295" rx="36.2938" ry="18"/>
<text text-anchor="middle" x="627" y="-291.3" font-family="Times,serif" font-size="14.00">032 (a)</text>
</g>
<!-- 03&#45;&gt;032 -->
<g id="edge12" class="edge"><title>03&#45;&gt;032</title>
<path fill="none" stroke="#b43f3f" stroke-dasharray="1,5" d="M561.647,-367.912C570.533,-361.796 580.752,-354.086 589,-346 596.825,-338.329 604.362,-328.975 610.632,-320.442"/>
<polygon fill="#b43f3f" stroke="#b43f3f" points="613.497,-322.452 616.443,-312.275 607.794,-318.394 613.497,-322.452"/>
<text text-anchor="middle" x="624" y="-334.8" font-family="Times,serif" font-size="14.00">1 (91.7)</text>
</g>
<!-- P75 -->
<g id="node21" class="node"><title>P75</title>
<ellipse fill="#ff8a8a" stroke="#b43f3f" cx="387" cy="-382" rx="36.2938" ry="18"/>
<text text-anchor="middle" x="387" y="-378.3" font-family="Times,serif" font-size="14.00">P75 (a)</text>
</g>
<!-- 019 -->
<g id="node22" class="node"><title>019</title>
<ellipse fill="#ff8a8a" stroke="#b43f3f" cx="160" cy="-382" rx="36.2938" ry="18"/>
<text text-anchor="middle" x="160" y="-378.3" font-family="Times,serif" font-size="14.00">019 (a)</text>
</g>
<!-- leg_s -->
<g id="node23" class="node"><title>leg_s</title>
<text text-anchor="middle" x="856" y="-378.3" font-family="Times,serif" font-size="14.00">Textual flow strength</text>
</g>
<!-- leg_e1 -->
<!-- leg_s&#45;&gt;leg_e1 -->
<g id="edge20" class="edge"><title>leg_s&#45;&gt;leg_e1</title>
<path fill="none" stroke="black" stroke-dasharray="1,5" d="M837.666,-363.686C832.132,-358.194 826.161,-351.989 821,-346 811.171,-334.593 801.072,-320.779 793.914,-310.563"/>
<polygon fill="black" stroke="black" points="796.614,-308.314 788.056,-302.068 790.851,-312.288 796.614,-308.314"/>
<text text-anchor="middle" x="836.5" y="-334.8" font-family="Times,serif" font-size="14.00">&lt;=5 &#160;</text>
</g>
<!-- leg_e2 -->
<!-- leg_s&#45;&gt;leg_e2 -->
<g id="edge21" class="edge"><title>leg_s&#45;&gt;leg_e2</title>
<path fill="none" stroke="black" stroke-dasharray="5,2" d="M856,-363.799C856,-348.794 856,-327.174 856,-312.409"/>
<polygon fill="black" stroke="black" points="859.5,-312.293 856,-302.293 852.5,-312.293 859.5,-312.293"/>
<text text-anchor="middle" x="875" y="-334.8" font-family="Times,serif" font-size="14.00"> &#160;&lt;=25</text>
</g>
<!-- leg_e3 -->
<!-- leg_s&#45;&gt;leg_e3 -->
<g id="edge22" class="edge"><title>leg_s&#45;&gt;leg_e3</title>
<path fill="none" stroke="black" d="M879.503,-363.76C885.906,-358.462 892.567,-352.344 898,-346 907.087,-335.39 915.095,-321.689 920.546,-311.313"/>
<polygon fill="black" stroke="black" points="923.722,-312.789 925.091,-302.283 917.469,-309.642 923.722,-312.789"/>
<text text-anchor="middle" x="919" y="-334.8" font-family="Times,serif" font-size="14.00">&gt;25</text>
</g>
</g>
</svg>
