<?xml version="1.0" encoding="UTF-8" standalone="no"?>
<!DOCTYPE svg PUBLIC "-//W3C//DTD SVG 1.1//EN"
 "http://www.w3.org/Graphics/SVG/1.1/DTD/svg11.dtd">
<!-- Generated by graphviz version 2.38.0 (20140413.2041)
 -->
<!-- Title: %3 Pages: 1 -->
<svg width="903pt" height="408pt"
 viewBox="0.00 0.00 902.69 408.00" xmlns="http://www.w3.org/2000/svg" xmlns:xlink="http://www.w3.org/1999/xlink">
<g id="graph0" class="graph" transform="scale(1 1) rotate(0) translate(4 404)">
<title>%3</title>
<polygon fill="white" stroke="none" points="-4,4 -4,-404 898.693,-404 898.693,4 -4,4"/>
<g id="clust1" class="cluster"><title>cluster_legend</title>
<path fill="none" stroke="black" d="M25.2964,-264C25.2964,-264 215.296,-264 215.296,-264 221.296,-264 227.296,-270 227.296,-276 227.296,-276 227.296,-380 227.296,-380 227.296,-386 221.296,-392 215.296,-392 215.296,-392 25.2964,-392 25.2964,-392 19.2964,-392 13.2964,-386 13.2964,-380 13.2964,-380 13.2964,-276 13.2964,-276 13.2964,-270 19.2964,-264 25.2964,-264"/>
</g>
<!-- leg_s -->
<g id="node1" class="node"><title>leg_s</title>
<text text-anchor="middle" x="120.296" y="-362.3" font-family="Times,serif" font-size="14.00">Textual flow strength</text>
</g>
<!-- leg_e1 -->
<!-- leg_s&#45;&gt;leg_e1 -->
<g id="edge1" class="edge"><title>leg_s&#45;&gt;leg_e1</title>
<path fill="none" stroke="black" stroke-dasharray="1,5" d="M101.962,-347.686C96.4288,-342.194 90.4571,-335.989 85.2964,-330 75.4673,-318.593 65.3686,-304.779 58.2101,-294.563"/>
<polygon fill="black" stroke="black" points="60.9106,-292.314 52.3525,-286.068 55.1478,-296.288 60.9106,-292.314"/>
<text text-anchor="middle" x="100.796" y="-318.8" font-family="Times,serif" font-size="14.00">&lt;=5 &#160;</text>
</g>
<!-- leg_e2 -->
<!-- leg_s&#45;&gt;leg_e2 -->
<g id="edge2" class="edge"><title>leg_s&#45;&gt;leg_e2</title>
<path fill="none" stroke="black" stroke-dasharray="5,2" d="M120.296,-347.799C120.296,-332.794 120.296,-311.174 120.296,-296.409"/>
<polygon fill="black" stroke="black" points="123.797,-296.293 120.296,-286.293 116.797,-296.293 123.797,-296.293"/>
<text text-anchor="middle" x="139.296" y="-318.8" font-family="Times,serif" font-size="14.00"> &#160;&lt;=25</text>
</g>
<!-- leg_e3 -->
<!-- leg_s&#45;&gt;leg_e3 -->
<g id="edge3" class="edge"><title>leg_s&#45;&gt;leg_e3</title>
<path fill="none" stroke="black" d="M143.8,-347.76C150.202,-342.462 156.863,-336.344 162.296,-330 171.384,-319.39 179.392,-305.689 184.843,-295.313"/>
<polygon fill="black" stroke="black" points="188.018,-296.789 189.387,-286.283 181.766,-293.642 188.018,-296.789"/>
<text text-anchor="middle" x="184.296" y="-318.8" font-family="Times,serif" font-size="14.00">&gt;25</text>
</g>
<!-- A -->
<g id="node5" class="node"><title>A</title>
<ellipse fill="#ff8a8a" stroke="#b43f3f" cx="497.296" cy="-366" rx="29.4969" ry="18"/>
<text text-anchor="middle" x="497.296" y="-362.3" font-family="Times,serif" font-size="14.00">A (a)</text>
</g>
<!-- 03 -->
<g id="node6" class="node"><title>03</title>
<ellipse fill="#ff8a8a" stroke="#b43f3f" cx="269.296" cy="-279" rx="31.6951" ry="18"/>
<text text-anchor="middle" x="269.296" y="-275.3" font-family="Times,serif" font-size="14.00">03 (a)</text>
</g>
<!-- A&#45;&gt;03 -->
<g id="edge4" class="edge"><title>A&#45;&gt;03</title>
<path fill="none" stroke="#b43f3f" stroke-dasharray="1,5" d="M471.534,-357.42C449.31,-350.717 416.445,-340.41 388.296,-330 359.109,-319.206 326.571,-305.409 302.906,-295.044"/>
<polygon fill="#b43f3f" stroke="#b43f3f" points="304.224,-291.801 293.662,-290.972 301.403,-298.207 304.224,-291.801"/>
<text text-anchor="middle" x="410.296" y="-318.8" font-family="Times,serif" font-size="14.00">1 (93.3)</text>
</g>
<!-- 019 -->
<g id="node7" class="node"><title>019</title>
<ellipse fill="#ff8a8a" stroke="#b43f3f" cx="406.296" cy="-279" rx="36.2938" ry="18"/>
<text text-anchor="middle" x="406.296" y="-275.3" font-family="Times,serif" font-size="14.00">019 (a)</text>
</g>
<!-- A&#45;&gt;019 -->
<g id="edge5" class="edge"><title>A&#45;&gt;019</title>
<path fill="none" stroke="#b43f3f" stroke-dasharray="1,5" d="M477.82,-352.326C468.768,-346.06 458.088,-338.113 449.296,-330 440.752,-322.115 432.221,-312.619 425.036,-304.029"/>
<polygon fill="#b43f3f" stroke="#b43f3f" points="427.641,-301.685 418.604,-296.155 422.219,-306.113 427.641,-301.685"/>
<text text-anchor="middle" x="471.296" y="-318.8" font-family="Times,serif" font-size="14.00">1 (93.3)</text>
</g>
<!-- 091 -->
<g id="node8" class="node"><title>091</title>
<ellipse fill="#ff8a8a" stroke="#b43f3f" cx="497.296" cy="-279" rx="36.2938" ry="18"/>
<text text-anchor="middle" x="497.296" y="-275.3" font-family="Times,serif" font-size="14.00">091 (a)</text>
</g>
<!-- A&#45;&gt;091 -->
<g id="edge6" class="edge"><title>A&#45;&gt;091</title>
<path fill="none" stroke="#b43f3f" stroke-dasharray="1,5" d="M497.296,-347.799C497.296,-336.163 497.296,-320.548 497.296,-307.237"/>
<polygon fill="#b43f3f" stroke="#b43f3f" points="500.797,-307.175 497.296,-297.175 493.797,-307.175 500.797,-307.175"/>
<text text-anchor="middle" x="519.296" y="-318.8" font-family="Times,serif" font-size="14.00">1 (87.5)</text>
</g>
<!-- P75 -->
<g id="node9" class="node"><title>P75</title>
<ellipse fill="#ff8a8a" stroke="#b43f3f" cx="588.296" cy="-279" rx="36.2938" ry="18"/>
<text text-anchor="middle" x="588.296" y="-275.3" font-family="Times,serif" font-size="14.00">P75 (a)</text>
</g>
<!-- A&#45;&gt;P75 -->
<g id="edge7" class="edge"><title>A&#45;&gt;P75</title>
<path fill="none" stroke="#b43f3f" stroke-dasharray="1,5" d="M516.773,-352.326C525.825,-346.06 536.504,-338.113 545.296,-330 553.841,-322.115 562.372,-312.619 569.557,-304.029"/>
<polygon fill="#b43f3f" stroke="#b43f3f" points="572.374,-306.113 575.989,-296.155 566.952,-301.685 572.374,-306.113"/>
<text text-anchor="middle" x="581.296" y="-318.8" font-family="Times,serif" font-size="14.00">1 (93.3)</text>
</g>
<!-- 01 -->
<g id="node10" class="node"><title>01</title>
<ellipse fill="#ff8a8a" stroke="#b43f3f" cx="674.296" cy="-279" rx="31.6951" ry="18"/>
<text text-anchor="middle" x="674.296" y="-275.3" font-family="Times,serif" font-size="14.00">01 (a)</text>
</g>
<!-- A&#45;&gt;01 -->
<g id="edge8" class="edge"><title>A&#45;&gt;01</title>
<path fill="none" stroke="#b43f3f" stroke-dasharray="5,2" d="M524.503,-359.033C547.388,-353.392 580.558,-343.737 607.296,-330 622.506,-322.186 637.906,-310.975 650.101,-301.148"/>
<polygon fill="#b43f3f" stroke="#b43f3f" points="652.513,-303.695 657.989,-294.625 648.052,-298.3 652.513,-303.695"/>
<text text-anchor="middle" x="653.296" y="-318.8" font-family="Times,serif" font-size="14.00">1 (57.1)</text>
</g>
<!-- 044 -->
<g id="node11" class="node"><title>044</title>
<ellipse fill="#ff8a8a" stroke="#b43f3f" cx="135.296" cy="-192" rx="36.2938" ry="18"/>
<text text-anchor="middle" x="135.296" y="-188.3" font-family="Times,serif" font-size="14.00">044 (a)</text>
</g>
<!-- 03&#45;&gt;044 -->
<g id="edge9" class="edge"><title>03&#45;&gt;044</title>
<path fill="none" stroke="#b43f3f" stroke-dasharray="1,5" d="M245.037,-267.074C222.929,-257.101 193.522,-243.792 192.296,-243 180.255,-235.225 168.144,-225.017 158.202,-215.854"/>
<polygon fill="#b43f3f" stroke="#b43f3f" points="160.407,-213.122 150.736,-208.795 155.598,-218.209 160.407,-213.122"/>
<text text-anchor="middle" x="214.296" y="-231.8" font-family="Times,serif" font-size="14.00">1 (89.2)</text>
</g>
<!-- 02 -->
<g id="node12" class="node"><title>02</title>
<ellipse fill="#ff8a8a" stroke="#b43f3f" cx="226.296" cy="-192" rx="31.6951" ry="18"/>
<text text-anchor="middle" x="226.296" y="-188.3" font-family="Times,serif" font-size="14.00">02 (a)</text>
</g>
<!-- 03&#45;&gt;02 -->
<g id="edge10" class="edge"><title>03&#45;&gt;02</title>
<path fill="none" stroke="#b43f3f" stroke-dasharray="1,5" d="M257.83,-262.03C253.905,-256.197 249.66,-249.446 246.296,-243 242.404,-235.54 238.776,-227.146 235.709,-219.396"/>
<polygon fill="#b43f3f" stroke="#b43f3f" points="238.976,-218.141 232.144,-210.043 232.435,-220.634 238.976,-218.141"/>
<text text-anchor="middle" x="268.296" y="-231.8" font-family="Times,serif" font-size="14.00">1 (86.5)</text>
</g>
<!-- 032 -->
<g id="node13" class="node"><title>032</title>
<ellipse fill="#ff8a8a" stroke="#b43f3f" cx="312.296" cy="-192" rx="36.2938" ry="18"/>
<text text-anchor="middle" x="312.296" y="-188.3" font-family="Times,serif" font-size="14.00">032 (a)</text>
</g>
<!-- 03&#45;&gt;032 -->
<g id="edge11" class="edge"><title>03&#45;&gt;032</title>
<path fill="none" stroke="#b43f3f" stroke-dasharray="1,5" d="M279.559,-261.861C283.123,-256.011 287.04,-249.294 290.296,-243 294.219,-235.419 298.102,-226.989 301.489,-219.243"/>
<polygon fill="#b43f3f" stroke="#b43f3f" points="304.765,-220.485 305.48,-209.914 298.329,-217.732 304.765,-220.485"/>
<text text-anchor="middle" x="320.296" y="-231.8" font-family="Times,serif" font-size="14.00">1 (91.7)</text>
</g>
<!-- 063 -->
<g id="node16" class="node"><title>063</title>
<ellipse fill="#ff8a8a" stroke="#b43f3f" cx="408.296" cy="-192" rx="36.2938" ry="18"/>
<text text-anchor="middle" x="408.296" y="-188.3" font-family="Times,serif" font-size="14.00">063 (a)</text>
</g>
<!-- 019&#45;&gt;063 -->
<g id="edge28" class="edge"><title>019&#45;&gt;063</title>
<path fill="none" stroke="#b43f3f" stroke-dasharray="1,5" d="M406.701,-260.799C406.975,-249.163 407.342,-233.548 407.656,-220.237"/>
<polygon fill="#b43f3f" stroke="#b43f3f" points="411.156,-220.255 407.892,-210.175 404.158,-220.09 411.156,-220.255"/>
<text text-anchor="middle" x="430.296" y="-231.8" font-family="Times,serif" font-size="14.00">1 (85.7)</text>
</g>
<!-- 05 -->
<g id="node31" class="node"><title>05</title>
<ellipse fill="#ff8a8a" stroke="#b43f3f" cx="495.296" cy="-192" rx="31.6951" ry="18"/>
<text text-anchor="middle" x="495.296" y="-188.3" font-family="Times,serif" font-size="14.00">05 (a)</text>
</g>
<!-- 091&#45;&gt;05 -->
<g id="edge29" class="edge"><title>091&#45;&gt;05</title>
<path fill="none" stroke="#b43f3f" stroke-dasharray="1,5" d="M496.892,-260.799C496.618,-249.163 496.25,-233.548 495.937,-220.237"/>
<polygon fill="#b43f3f" stroke="#b43f3f" points="499.435,-220.09 495.701,-210.175 492.437,-220.255 499.435,-220.09"/>
<text text-anchor="middle" x="519.296" y="-231.8" font-family="Times,serif" font-size="14.00">1 (87.5)</text>
</g>
<!-- 0211 -->
<g id="node32" class="node"><title>0211</title>
<ellipse fill="#ff8a8a" stroke="#b43f3f" cx="585.296" cy="-192" rx="40.0939" ry="18"/>
<text text-anchor="middle" x="585.296" y="-188.3" font-family="Times,serif" font-size="14.00">0211 (a)</text>
</g>
<!-- 091&#45;&gt;0211 -->
<g id="edge30" class="edge"><title>091&#45;&gt;0211</title>
<path fill="none" stroke="#b43f3f" stroke-dasharray="1,5" d="M518.804,-264.151C527.445,-258.13 537.246,-250.698 545.296,-243 553.25,-235.394 561.035,-226.193 567.591,-217.768"/>
<polygon fill="#b43f3f" stroke="#b43f3f" points="570.459,-219.778 573.698,-209.69 564.875,-215.556 570.459,-219.778"/>
<text text-anchor="middle" x="581.296" y="-231.8" font-family="Times,serif" font-size="14.00">1 (83.3)</text>
</g>
<!-- 0141 -->
<g id="node14" class="node"><title>0141</title>
<ellipse fill="#ff8a8a" stroke="#b43f3f" cx="40.2964" cy="-105" rx="40.0939" ry="18"/>
<text text-anchor="middle" x="40.2964" y="-101.3" font-family="Times,serif" font-size="14.00">0141 (a)</text>
</g>
<!-- 044&#45;&gt;0141 -->
<g id="edge12" class="edge"><title>044&#45;&gt;0141</title>
<path fill="none" stroke="#b43f3f" stroke-dasharray="1,5" d="M114.566,-177.159C105.86,-171.025 95.8017,-163.508 87.2964,-156 78.1331,-147.911 68.7658,-138.276 60.8297,-129.632"/>
<polygon fill="#b43f3f" stroke="#b43f3f" points="63.2861,-127.129 53.9907,-122.045 58.0868,-131.816 63.2861,-127.129"/>
<text text-anchor="middle" x="109.296" y="-144.8" font-family="Times,serif" font-size="14.00">1 (89.2)</text>
</g>
<!-- 022 -->
<g id="node15" class="node"><title>022</title>
<ellipse fill="#ff8a8a" stroke="#b43f3f" cx="135.296" cy="-105" rx="36.2938" ry="18"/>
<text text-anchor="middle" x="135.296" y="-101.3" font-family="Times,serif" font-size="14.00">022 (a)</text>
</g>
<!-- 044&#45;&gt;022 -->
<g id="edge13" class="edge"><title>044&#45;&gt;022</title>
<path fill="none" stroke="#b43f3f" stroke-dasharray="1,5" d="M135.296,-173.799C135.296,-162.163 135.296,-146.548 135.296,-133.237"/>
<polygon fill="#b43f3f" stroke="#b43f3f" points="138.797,-133.175 135.296,-123.175 131.797,-133.175 138.797,-133.175"/>
<text text-anchor="middle" x="157.296" y="-144.8" font-family="Times,serif" font-size="14.00">1 (91.7)</text>
</g>
<!-- 045 -->
<g id="node17" class="node"><title>045</title>
<ellipse fill="#ff8a8a" stroke="#b43f3f" cx="226.296" cy="-105" rx="36.2938" ry="18"/>
<text text-anchor="middle" x="226.296" y="-101.3" font-family="Times,serif" font-size="14.00">045 (a)</text>
</g>
<!-- 063&#45;&gt;045 -->
<g id="edge14" class="edge"><title>063&#45;&gt;045</title>
<path fill="none" stroke="#b43f3f" stroke-dasharray="1,5" d="M378.935,-181.097C371.859,-178.742 364.315,-176.259 357.296,-174 331.603,-165.732 323.591,-167.758 299.296,-156 282.963,-148.095 266.16,-136.84 252.799,-127.009"/>
<polygon fill="#b43f3f" stroke="#b43f3f" points="254.649,-124.021 244.555,-120.804 250.44,-129.614 254.649,-124.021"/>
<text text-anchor="middle" x="321.296" y="-144.8" font-family="Times,serif" font-size="14.00">1 (93.1)</text>
</g>
<!-- 031 -->
<g id="node18" class="node"><title>031</title>
<ellipse fill="#ff8a8a" stroke="#b43f3f" cx="317.296" cy="-105" rx="36.2938" ry="18"/>
<text text-anchor="middle" x="317.296" y="-101.3" font-family="Times,serif" font-size="14.00">031 (a)</text>
</g>
<!-- 063&#45;&gt;031 -->
<g id="edge15" class="edge"><title>063&#45;&gt;031</title>
<path fill="none" stroke="#b43f3f" stroke-dasharray="1,5" d="M386.925,-177.006C378.304,-170.963 368.482,-163.554 360.296,-156 351.752,-148.115 343.221,-138.619 336.036,-130.029"/>
<polygon fill="#b43f3f" stroke="#b43f3f" points="338.641,-127.685 329.604,-122.155 333.219,-132.113 338.641,-127.685"/>
<text text-anchor="middle" x="382.296" y="-144.8" font-family="Times,serif" font-size="14.00">1 (95.8)</text>
</g>
<!-- 011 -->
<g id="node19" class="node"><title>011</title>
<ellipse fill="#ff8a8a" stroke="#b43f3f" cx="408.296" cy="-105" rx="36.2938" ry="18"/>
<text text-anchor="middle" x="408.296" y="-101.3" font-family="Times,serif" font-size="14.00">011 (a)</text>
</g>
<!-- 063&#45;&gt;011 -->
<g id="edge16" class="edge"><title>063&#45;&gt;011</title>
<path fill="none" stroke="#b43f3f" stroke-dasharray="1,5" d="M408.296,-173.799C408.296,-162.163 408.296,-146.548 408.296,-133.237"/>
<polygon fill="#b43f3f" stroke="#b43f3f" points="411.797,-133.175 408.296,-123.175 404.797,-133.175 411.797,-133.175"/>
<text text-anchor="middle" x="430.296" y="-144.8" font-family="Times,serif" font-size="14.00">1 (93.1)</text>
</g>
<!-- 028 -->
<g id="node20" class="node"><title>028</title>
<ellipse fill="#ff8a8a" stroke="#b43f3f" cx="499.296" cy="-105" rx="36.2938" ry="18"/>
<text text-anchor="middle" x="499.296" y="-101.3" font-family="Times,serif" font-size="14.00">028 (a)</text>
</g>
<!-- 063&#45;&gt;028 -->
<g id="edge17" class="edge"><title>063&#45;&gt;028</title>
<path fill="none" stroke="#b43f3f" stroke-dasharray="1,5" d="M429.668,-177.006C438.289,-170.963 448.111,-163.554 456.296,-156 464.841,-148.115 473.372,-138.619 480.557,-130.029"/>
<polygon fill="#b43f3f" stroke="#b43f3f" points="483.374,-132.113 486.989,-122.155 477.952,-127.685 483.374,-132.113"/>
<text text-anchor="middle" x="492.296" y="-144.8" font-family="Times,serif" font-size="14.00">1 (96.6)</text>
</g>
<!-- 07 -->
<g id="node21" class="node"><title>07</title>
<ellipse fill="#ff8a8a" stroke="#b43f3f" cx="585.296" cy="-105" rx="31.6951" ry="18"/>
<text text-anchor="middle" x="585.296" y="-101.3" font-family="Times,serif" font-size="14.00">07 (a)</text>
</g>
<!-- 063&#45;&gt;07 -->
<g id="edge18" class="edge"><title>063&#45;&gt;07</title>
<path fill="none" stroke="#b43f3f" stroke-dasharray="1,5" d="M436.391,-180.213C442.277,-178.067 448.466,-175.894 454.296,-174 482.399,-164.871 491.789,-169.055 518.296,-156 533.636,-148.445 549.047,-137.254 561.214,-127.374"/>
<polygon fill="#b43f3f" stroke="#b43f3f" points="563.649,-129.902 569.079,-120.804 559.161,-124.529 563.649,-129.902"/>
<text text-anchor="middle" x="564.296" y="-144.8" font-family="Times,serif" font-size="14.00">1 (96.6)</text>
</g>
<!-- 021 -->
<g id="node22" class="node"><title>021</title>
<ellipse fill="#ff8a8a" stroke="#b43f3f" cx="767.296" cy="-105" rx="36.2938" ry="18"/>
<text text-anchor="middle" x="767.296" y="-101.3" font-family="Times,serif" font-size="14.00">021 (a)</text>
</g>
<!-- 063&#45;&gt;021 -->
<g id="edge19" class="edge"><title>063&#45;&gt;021</title>
<path fill="none" stroke="#b43f3f" stroke-dasharray="1,5" d="M435.715,-179.737C441.757,-177.574 448.181,-175.515 454.296,-174 513.48,-159.342 530.582,-168.319 590.296,-156 638.257,-146.105 692.277,-130.122 727.883,-118.896"/>
<polygon fill="#b43f3f" stroke="#b43f3f" points="729.397,-122.087 737.866,-115.721 727.276,-115.416 729.397,-122.087"/>
<text text-anchor="middle" x="671.296" y="-144.8" font-family="Times,serif" font-size="14.00">1 (93.1)</text>
</g>
<!-- 038 -->
<g id="node23" class="node"><title>038</title>
<ellipse fill="#ff8a8a" stroke="#b43f3f" cx="221.296" cy="-18" rx="36.2938" ry="18"/>
<text text-anchor="middle" x="221.296" y="-14.3" font-family="Times,serif" font-size="14.00">038 (a)</text>
</g>
<!-- 045&#45;&gt;038 -->
<g id="edge20" class="edge"><title>045&#45;&gt;038</title>
<path fill="none" stroke="#b43f3f" stroke-dasharray="1,5" d="M225.285,-86.799C224.6,-75.1626 223.682,-59.5479 222.899,-46.2368"/>
<polygon fill="#b43f3f" stroke="#b43f3f" points="226.388,-45.9526 222.307,-36.1754 219.4,-46.3637 226.388,-45.9526"/>
<text text-anchor="middle" x="246.296" y="-57.8" font-family="Times,serif" font-size="14.00">1 (92.7)</text>
</g>
<!-- 017 -->
<g id="node24" class="node"><title>017</title>
<ellipse fill="#ff8a8a" stroke="#b43f3f" cx="312.296" cy="-18" rx="36.2938" ry="18"/>
<text text-anchor="middle" x="312.296" y="-14.3" font-family="Times,serif" font-size="14.00">017 (a)</text>
</g>
<!-- 031&#45;&gt;017 -->
<g id="edge21" class="edge"><title>031&#45;&gt;017</title>
<path fill="none" stroke="#b43f3f" stroke-dasharray="1,5" d="M316.285,-86.799C315.6,-75.1626 314.682,-59.5479 313.899,-46.2368"/>
<polygon fill="#b43f3f" stroke="#b43f3f" points="317.388,-45.9526 313.307,-36.1754 310.4,-46.3637 317.388,-45.9526"/>
<text text-anchor="middle" x="337.296" y="-57.8" font-family="Times,serif" font-size="14.00">1 (94.3)</text>
</g>
<!-- 013 -->
<g id="node25" class="node"><title>013</title>
<ellipse fill="#ff8a8a" stroke="#b43f3f" cx="403.296" cy="-18" rx="36.2938" ry="18"/>
<text text-anchor="middle" x="403.296" y="-14.3" font-family="Times,serif" font-size="14.00">013 (a)</text>
</g>
<!-- 031&#45;&gt;013 -->
<g id="edge22" class="edge"><title>031&#45;&gt;013</title>
<path fill="none" stroke="#b43f3f" stroke-dasharray="1,5" d="M337.866,-90.0218C346.141,-83.9817 355.54,-76.5697 363.296,-69 371.292,-61.1968 379.174,-51.8144 385.8,-43.2954"/>
<polygon fill="#b43f3f" stroke="#b43f3f" points="388.718,-45.2397 391.965,-35.1546 383.138,-41.0138 388.718,-45.2397"/>
<text text-anchor="middle" x="399.296" y="-57.8" font-family="Times,serif" font-size="14.00">1 (97.1)</text>
</g>
<!-- 030 -->
<g id="node26" class="node"><title>030</title>
<ellipse fill="#ff8a8a" stroke="#b43f3f" cx="494.296" cy="-18" rx="36.2938" ry="18"/>
<text text-anchor="middle" x="494.296" y="-14.3" font-family="Times,serif" font-size="14.00">030 (a)</text>
</g>
<!-- 07&#45;&gt;030 -->
<g id="edge23" class="edge"><title>07&#45;&gt;030</title>
<path fill="none" stroke="#b43f3f" stroke-dasharray="1,5" d="M564.878,-90.6717C556.034,-84.5121 545.785,-76.8337 537.296,-69 528.752,-61.1154 520.221,-51.6186 513.036,-43.0293"/>
<polygon fill="#b43f3f" stroke="#b43f3f" points="515.641,-40.6853 506.604,-35.1545 510.219,-45.1135 515.641,-40.6853"/>
<text text-anchor="middle" x="559.296" y="-57.8" font-family="Times,serif" font-size="14.00">1 (95.1)</text>
</g>
<!-- 037 -->
<g id="node27" class="node"><title>037</title>
<ellipse fill="#ff8a8a" stroke="#b43f3f" cx="585.296" cy="-18" rx="36.2938" ry="18"/>
<text text-anchor="middle" x="585.296" y="-14.3" font-family="Times,serif" font-size="14.00">037 (a)</text>
</g>
<!-- 07&#45;&gt;037 -->
<g id="edge24" class="edge"><title>07&#45;&gt;037</title>
<path fill="none" stroke="#b43f3f" stroke-dasharray="1,5" d="M585.296,-86.799C585.296,-75.1626 585.296,-59.5479 585.296,-46.2368"/>
<polygon fill="#b43f3f" stroke="#b43f3f" points="588.797,-46.1754 585.296,-36.1754 581.797,-46.1755 588.797,-46.1754"/>
<text text-anchor="middle" x="607.296" y="-57.8" font-family="Times,serif" font-size="14.00">1 (97.5)</text>
</g>
<!-- 034 -->
<g id="node28" class="node"><title>034</title>
<ellipse fill="#cea8f4" stroke="#835da9" cx="676.296" cy="-18" rx="36.2938" ry="18"/>
<text text-anchor="middle" x="676.296" y="-14.3" font-family="Times,serif" font-size="14.00">034 (b)</text>
</g>
<!-- 07&#45;&gt;034 -->
<g id="edge25" class="edge"><title>07&#45;&gt;034</title>
<path fill="none" stroke="#835da9" stroke-dasharray="1,5" d="M605.715,-90.6717C614.559,-84.5121 624.808,-76.8337 633.296,-69 641.841,-61.1154 650.372,-51.6186 657.557,-43.0293"/>
<polygon fill="#835da9" stroke="#835da9" points="660.374,-45.1135 663.989,-35.1545 654.952,-40.6853 660.374,-45.1135"/>
<text text-anchor="middle" x="669.296" y="-57.8" font-family="Times,serif" font-size="14.00">1 (95.1)</text>
</g>
<!-- 036 -->
<g id="node29" class="node"><title>036</title>
<ellipse fill="#ff8a8a" stroke="#b43f3f" cx="767.296" cy="-18" rx="36.2938" ry="18"/>
<text text-anchor="middle" x="767.296" y="-14.3" font-family="Times,serif" font-size="14.00">036 (a)</text>
</g>
<!-- 021&#45;&gt;036 -->
<g id="edge26" class="edge"><title>021&#45;&gt;036</title>
<path fill="none" stroke="#b43f3f" stroke-dasharray="1,5" d="M767.296,-86.799C767.296,-75.1626 767.296,-59.5479 767.296,-46.2368"/>
<polygon fill="#b43f3f" stroke="#b43f3f" points="770.797,-46.1754 767.296,-36.1754 763.797,-46.1755 770.797,-46.1754"/>
<text text-anchor="middle" x="789.296" y="-57.8" font-family="Times,serif" font-size="14.00">1 (97.6)</text>
</g>
<!-- 047 -->
<g id="node30" class="node"><title>047</title>
<ellipse fill="#ff8a8a" stroke="#b43f3f" cx="858.296" cy="-18" rx="36.2938" ry="18"/>
<text text-anchor="middle" x="858.296" y="-14.3" font-family="Times,serif" font-size="14.00">047 (a)</text>
</g>
<!-- 021&#45;&gt;047 -->
<g id="edge27" class="edge"><title>021&#45;&gt;047</title>
<path fill="none" stroke="#b43f3f" stroke-dasharray="1,5" d="M788.668,-90.006C797.289,-83.9634 807.111,-76.5539 815.296,-69 823.841,-61.1154 832.372,-51.6186 839.557,-43.0293"/>
<polygon fill="#b43f3f" stroke="#b43f3f" points="842.374,-45.1135 845.989,-35.1545 836.952,-40.6853 842.374,-45.1135"/>
<text text-anchor="middle" x="851.296" y="-57.8" font-family="Times,serif" font-size="14.00">1 (95.1)</text>
</g>
</g>
</svg>
