<?xml version="1.0" encoding="UTF-8" standalone="no"?>
<!DOCTYPE svg PUBLIC "-//W3C//DTD SVG 1.1//EN"
 "http://www.w3.org/Graphics/SVG/1.1/DTD/svg11.dtd">
<!-- Generated by graphviz version 2.38.0 (20140413.2041)
 -->
<!-- Title: %3 Pages: 1 -->
<svg width="893pt" height="408pt"
 viewBox="0.00 0.00 893.40 408.00" xmlns="http://www.w3.org/2000/svg" xmlns:xlink="http://www.w3.org/1999/xlink">
<g id="graph0" class="graph" transform="scale(1 1) rotate(0) translate(4 404)">
<title>%3</title>
<polygon fill="white" stroke="none" points="-4,4 -4,-404 889.397,-404 889.397,4 -4,4"/>
<g id="clust1" class="cluster"><title>cluster_legend</title>
<path fill="none" stroke="black" d="M20,-264C20,-264 210,-264 210,-264 216,-264 222,-270 222,-276 222,-276 222,-380 222,-380 222,-386 216,-392 210,-392 210,-392 20,-392 20,-392 14,-392 8,-386 8,-380 8,-380 8,-276 8,-276 8,-270 14,-264 20,-264"/>
</g>
<!-- leg_s -->
<g id="node1" class="node"><title>leg_s</title>
<text text-anchor="middle" x="115" y="-362.3" font-family="Times,serif" font-size="14.00">Textual flow strength</text>
</g>
<!-- leg_e1 -->
<!-- leg_s&#45;&gt;leg_e1 -->
<g id="edge1" class="edge"><title>leg_s&#45;&gt;leg_e1</title>
<path fill="none" stroke="black" stroke-dasharray="1,5" d="M96.6657,-347.686C91.1324,-342.194 85.1607,-335.989 80,-330 70.1708,-318.593 60.0722,-304.779 52.9137,-294.563"/>
<polygon fill="black" stroke="black" points="55.6142,-292.314 47.056,-286.068 49.8514,-296.288 55.6142,-292.314"/>
<text text-anchor="middle" x="95.5" y="-318.8" font-family="Times,serif" font-size="14.00">&lt;=5 &#160;</text>
</g>
<!-- leg_e2 -->
<!-- leg_s&#45;&gt;leg_e2 -->
<g id="edge2" class="edge"><title>leg_s&#45;&gt;leg_e2</title>
<path fill="none" stroke="black" stroke-dasharray="5,2" d="M115,-347.799C115,-332.794 115,-311.174 115,-296.409"/>
<polygon fill="black" stroke="black" points="118.5,-296.293 115,-286.293 111.5,-296.293 118.5,-296.293"/>
<text text-anchor="middle" x="134" y="-318.8" font-family="Times,serif" font-size="14.00"> &#160;&lt;=25</text>
</g>
<!-- leg_e3 -->
<!-- leg_s&#45;&gt;leg_e3 -->
<g id="edge3" class="edge"><title>leg_s&#45;&gt;leg_e3</title>
<path fill="none" stroke="black" d="M138.503,-347.76C144.906,-342.462 151.567,-336.344 157,-330 166.087,-319.39 174.095,-305.689 179.546,-295.313"/>
<polygon fill="black" stroke="black" points="182.722,-296.789 184.091,-286.283 176.469,-293.642 182.722,-296.789"/>
<text text-anchor="middle" x="179" y="-318.8" font-family="Times,serif" font-size="14.00">&gt;25</text>
</g>
<!-- A -->
<g id="node5" class="node"><title>A</title>
<ellipse fill="#ff8a8a" stroke="#b43f3f" cx="436" cy="-366" rx="29.4969" ry="18"/>
<text text-anchor="middle" x="436" y="-362.3" font-family="Times,serif" font-size="14.00">A (a)</text>
</g>
<!-- 05 -->
<g id="node6" class="node"><title>05</title>
<ellipse fill="#ff8a8a" stroke="#b43f3f" cx="264" cy="-279" rx="31.6951" ry="18"/>
<text text-anchor="middle" x="264" y="-275.3" font-family="Times,serif" font-size="14.00">05 (a)</text>
</g>
<!-- A&#45;&gt;05 -->
<g id="edge4" class="edge"><title>A&#45;&gt;05</title>
<path fill="none" stroke="#b43f3f" stroke-dasharray="1,5" d="M408.763,-358.989C386.267,-353.373 353.936,-343.777 328,-330 313.571,-322.335 299.092,-311.365 287.564,-301.652"/>
<polygon fill="#b43f3f" stroke="#b43f3f" points="289.584,-298.772 279.735,-294.867 285,-304.062 289.584,-298.772"/>
<text text-anchor="middle" x="350" y="-318.8" font-family="Times,serif" font-size="14.00">2 (76.9)</text>
</g>
<!-- P75 -->
<g id="node7" class="node"><title>P75</title>
<ellipse fill="#ff8a8a" stroke="#b43f3f" cx="350" cy="-279" rx="36.2938" ry="18"/>
<text text-anchor="middle" x="350" y="-275.3" font-family="Times,serif" font-size="14.00">P75 (a)</text>
</g>
<!-- A&#45;&gt;P75 -->
<g id="edge5" class="edge"><title>A&#45;&gt;P75</title>
<path fill="none" stroke="#b43f3f" stroke-dasharray="1,5" d="M416.3,-352.561C407.199,-346.347 396.543,-338.375 388,-330 380.175,-322.329 372.638,-312.975 366.368,-304.442"/>
<polygon fill="#b43f3f" stroke="#b43f3f" points="369.206,-302.394 360.557,-296.275 363.503,-306.452 369.206,-302.394"/>
<text text-anchor="middle" x="410" y="-318.8" font-family="Times,serif" font-size="14.00">1 (93.3)</text>
</g>
<!-- 03 -->
<g id="node8" class="node"><title>03</title>
<ellipse fill="#ff8a8a" stroke="#b43f3f" cx="436" cy="-279" rx="31.6951" ry="18"/>
<text text-anchor="middle" x="436" y="-275.3" font-family="Times,serif" font-size="14.00">03 (a)</text>
</g>
<!-- A&#45;&gt;03 -->
<g id="edge6" class="edge"><title>A&#45;&gt;03</title>
<path fill="none" stroke="#b43f3f" stroke-dasharray="1,5" d="M436,-347.799C436,-336.163 436,-320.548 436,-307.237"/>
<polygon fill="#b43f3f" stroke="#b43f3f" points="439.5,-307.175 436,-297.175 432.5,-307.175 439.5,-307.175"/>
<text text-anchor="middle" x="458" y="-318.8" font-family="Times,serif" font-size="14.00">1 (93.3)</text>
</g>
<!-- 019 -->
<g id="node9" class="node"><title>019</title>
<ellipse fill="#ff8a8a" stroke="#b43f3f" cx="522" cy="-279" rx="36.2938" ry="18"/>
<text text-anchor="middle" x="522" y="-275.3" font-family="Times,serif" font-size="14.00">019 (a)</text>
</g>
<!-- A&#45;&gt;019 -->
<g id="edge7" class="edge"><title>A&#45;&gt;019</title>
<path fill="none" stroke="#b43f3f" stroke-dasharray="1,5" d="M455.7,-352.561C464.801,-346.347 475.457,-338.375 484,-330 491.825,-322.329 499.362,-312.975 505.632,-304.442"/>
<polygon fill="#b43f3f" stroke="#b43f3f" points="508.497,-306.452 511.443,-296.275 502.794,-302.394 508.497,-306.452"/>
<text text-anchor="middle" x="519" y="-318.8" font-family="Times,serif" font-size="14.00">1 (93.3)</text>
</g>
<!-- 01 -->
<g id="node10" class="node"><title>01</title>
<ellipse fill="#ff8a8a" stroke="#b43f3f" cx="608" cy="-279" rx="31.6951" ry="18"/>
<text text-anchor="middle" x="608" y="-275.3" font-family="Times,serif" font-size="14.00">01 (a)</text>
</g>
<!-- A&#45;&gt;01 -->
<g id="edge8" class="edge"><title>A&#45;&gt;01</title>
<path fill="none" stroke="#b43f3f" stroke-dasharray="5,2" d="M463.52,-359.083C486.242,-353.524 518.881,-343.958 545,-330 559.27,-322.374 573.53,-311.408 584.864,-301.687"/>
<polygon fill="#b43f3f" stroke="#b43f3f" points="587.378,-304.137 592.559,-294.895 582.745,-298.889 587.378,-304.137"/>
<text text-anchor="middle" x="590" y="-318.8" font-family="Times,serif" font-size="14.00">1 (57.1)</text>
</g>
<!-- 044 -->
<g id="node24" class="node"><title>044</title>
<ellipse fill="#ff8a8a" stroke="#b43f3f" cx="253" cy="-192" rx="36.2938" ry="18"/>
<text text-anchor="middle" x="253" y="-188.3" font-family="Times,serif" font-size="14.00">044 (a)</text>
</g>
<!-- 03&#45;&gt;044 -->
<g id="edge21" class="edge"><title>03&#45;&gt;044</title>
<path fill="none" stroke="#b43f3f" stroke-dasharray="1,5" d="M412.076,-266.888C380.415,-252.182 324.364,-226.147 287.957,-209.237"/>
<polygon fill="#b43f3f" stroke="#b43f3f" points="289.242,-205.975 278.698,-204.936 286.293,-212.323 289.242,-205.975"/>
<text text-anchor="middle" x="378" y="-231.8" font-family="Times,serif" font-size="14.00">1 (89.2)</text>
</g>
<!-- 032 -->
<g id="node25" class="node"><title>032</title>
<ellipse fill="#ff8a8a" stroke="#b43f3f" cx="398" cy="-192" rx="36.2938" ry="18"/>
<text text-anchor="middle" x="398" y="-188.3" font-family="Times,serif" font-size="14.00">032 (a)</text>
</g>
<!-- 03&#45;&gt;032 -->
<g id="edge22" class="edge"><title>03&#45;&gt;032</title>
<path fill="none" stroke="#b43f3f" stroke-dasharray="1,5" d="M427.068,-261.423C424.067,-255.65 420.778,-249.093 418,-243 414.509,-235.344 411.001,-226.891 407.919,-219.148"/>
<polygon fill="#b43f3f" stroke="#b43f3f" points="411.178,-217.872 404.277,-209.833 404.659,-220.421 411.178,-217.872"/>
<text text-anchor="middle" x="440" y="-231.8" font-family="Times,serif" font-size="14.00">1 (91.7)</text>
</g>
<!-- 02 -->
<g id="node26" class="node"><title>02</title>
<ellipse fill="#ff8a8a" stroke="#b43f3f" cx="484" cy="-192" rx="31.6951" ry="18"/>
<text text-anchor="middle" x="484" y="-188.3" font-family="Times,serif" font-size="14.00">02 (a)</text>
</g>
<!-- 03&#45;&gt;02 -->
<g id="edge23" class="edge"><title>03&#45;&gt;02</title>
<path fill="none" stroke="#b43f3f" stroke-dasharray="1,5" d="M448.693,-262.487C453.203,-256.587 458.119,-249.674 462,-243 466.358,-235.506 470.408,-226.989 473.815,-219.135"/>
<polygon fill="#b43f3f" stroke="#b43f3f" points="477.145,-220.245 477.762,-209.669 470.684,-217.552 477.145,-220.245"/>
<text text-anchor="middle" x="492" y="-231.8" font-family="Times,serif" font-size="14.00">1 (86.5)</text>
</g>
<!-- 063 -->
<g id="node11" class="node"><title>063</title>
<ellipse fill="#ff8a8a" stroke="#b43f3f" cx="576" cy="-192" rx="36.2938" ry="18"/>
<text text-anchor="middle" x="576" y="-188.3" font-family="Times,serif" font-size="14.00">063 (a)</text>
</g>
<!-- 019&#45;&gt;063 -->
<g id="edge26" class="edge"><title>019&#45;&gt;063</title>
<path fill="none" stroke="#b43f3f" stroke-dasharray="1,5" d="M532.412,-261.611C540.256,-249.264 551.149,-232.117 560.084,-218.053"/>
<polygon fill="#b43f3f" stroke="#b43f3f" points="563.212,-219.656 565.62,-209.339 557.304,-215.902 563.212,-219.656"/>
<text text-anchor="middle" x="575" y="-231.8" font-family="Times,serif" font-size="14.00">1 (85.7)</text>
</g>
<!-- 07 -->
<g id="node12" class="node"><title>07</title>
<ellipse fill="#ff8a8a" stroke="#b43f3f" cx="343" cy="-105" rx="31.6951" ry="18"/>
<text text-anchor="middle" x="343" y="-101.3" font-family="Times,serif" font-size="14.00">07 (a)</text>
</g>
<!-- 063&#45;&gt;07 -->
<g id="edge9" class="edge"><title>063&#45;&gt;07</title>
<path fill="none" stroke="#b43f3f" stroke-dasharray="1,5" d="M546.638,-181.097C539.562,-178.742 532.019,-176.259 525,-174 499.307,-165.732 492.427,-165.054 467,-156 436.113,-145.001 401.56,-130.918 376.79,-120.502"/>
<polygon fill="#b43f3f" stroke="#b43f3f" points="378.048,-117.234 367.474,-116.564 375.322,-123.682 378.048,-117.234"/>
<text text-anchor="middle" x="489" y="-144.8" font-family="Times,serif" font-size="14.00">1 (96.6)</text>
</g>
<!-- 028 -->
<g id="node13" class="node"><title>028</title>
<ellipse fill="#ff8a8a" stroke="#b43f3f" cx="485" cy="-105" rx="36.2938" ry="18"/>
<text text-anchor="middle" x="485" y="-101.3" font-family="Times,serif" font-size="14.00">028 (a)</text>
</g>
<!-- 063&#45;&gt;028 -->
<g id="edge10" class="edge"><title>063&#45;&gt;028</title>
<path fill="none" stroke="#b43f3f" stroke-dasharray="1,5" d="M554.628,-177.006C546.008,-170.963 536.186,-163.554 528,-156 519.456,-148.115 510.924,-138.619 503.74,-130.029"/>
<polygon fill="#b43f3f" stroke="#b43f3f" points="506.344,-127.685 497.308,-122.155 500.923,-132.113 506.344,-127.685"/>
<text text-anchor="middle" x="550" y="-144.8" font-family="Times,serif" font-size="14.00">1 (96.6)</text>
</g>
<!-- 021 -->
<g id="node14" class="node"><title>021</title>
<ellipse fill="#ff8a8a" stroke="#b43f3f" cx="576" cy="-105" rx="36.2938" ry="18"/>
<text text-anchor="middle" x="576" y="-101.3" font-family="Times,serif" font-size="14.00">021 (a)</text>
</g>
<!-- 063&#45;&gt;021 -->
<g id="edge11" class="edge"><title>063&#45;&gt;021</title>
<path fill="none" stroke="#b43f3f" stroke-dasharray="1,5" d="M576,-173.799C576,-162.163 576,-146.548 576,-133.237"/>
<polygon fill="#b43f3f" stroke="#b43f3f" points="579.5,-133.175 576,-123.175 572.5,-133.175 579.5,-133.175"/>
<text text-anchor="middle" x="598" y="-144.8" font-family="Times,serif" font-size="14.00">1 (93.1)</text>
</g>
<!-- 045 -->
<g id="node15" class="node"><title>045</title>
<ellipse fill="#ff8a8a" stroke="#b43f3f" cx="667" cy="-105" rx="36.2938" ry="18"/>
<text text-anchor="middle" x="667" y="-101.3" font-family="Times,serif" font-size="14.00">045 (a)</text>
</g>
<!-- 063&#45;&gt;045 -->
<g id="edge12" class="edge"><title>063&#45;&gt;045</title>
<path fill="none" stroke="#b43f3f" stroke-dasharray="1,5" d="M597.372,-177.006C605.992,-170.963 615.814,-163.554 624,-156 632.544,-148.115 641.076,-138.619 648.26,-130.029"/>
<polygon fill="#b43f3f" stroke="#b43f3f" points="651.077,-132.113 654.692,-122.155 645.656,-127.685 651.077,-132.113"/>
<text text-anchor="middle" x="660" y="-144.8" font-family="Times,serif" font-size="14.00">1 (93.1)</text>
</g>
<!-- 031 -->
<g id="node16" class="node"><title>031</title>
<ellipse fill="#ff8a8a" stroke="#b43f3f" cx="758" cy="-105" rx="36.2938" ry="18"/>
<text text-anchor="middle" x="758" y="-101.3" font-family="Times,serif" font-size="14.00">031 (a)</text>
</g>
<!-- 063&#45;&gt;031 -->
<g id="edge13" class="edge"><title>063&#45;&gt;031</title>
<path fill="none" stroke="#b43f3f" stroke-dasharray="1,5" d="M608.267,-183.461C630.727,-177.566 661.009,-168.305 686,-156 702.128,-148.059 718.702,-136.801 731.877,-126.977"/>
<polygon fill="#b43f3f" stroke="#b43f3f" points="734.176,-129.626 740.004,-120.778 729.931,-124.06 734.176,-129.626"/>
<text text-anchor="middle" x="733" y="-144.8" font-family="Times,serif" font-size="14.00">1 (95.8)</text>
</g>
<!-- 011 -->
<g id="node17" class="node"><title>011</title>
<ellipse fill="#ff8a8a" stroke="#b43f3f" cx="849" cy="-105" rx="36.2938" ry="18"/>
<text text-anchor="middle" x="849" y="-101.3" font-family="Times,serif" font-size="14.00">011 (a)</text>
</g>
<!-- 063&#45;&gt;011 -->
<g id="edge14" class="edge"><title>063&#45;&gt;011</title>
<path fill="none" stroke="#b43f3f" stroke-dasharray="1,5" d="M611.629,-187.578C649.17,-183.197 709.588,-173.927 759,-156 780.266,-148.285 802.502,-135.977 819.552,-125.504"/>
<polygon fill="#b43f3f" stroke="#b43f3f" points="821.844,-128.197 828.451,-119.915 818.121,-122.269 821.844,-128.197"/>
<text text-anchor="middle" x="812" y="-144.8" font-family="Times,serif" font-size="14.00">1 (93.1)</text>
</g>
<!-- 037 -->
<g id="node18" class="node"><title>037</title>
<ellipse fill="#ff8a8a" stroke="#b43f3f" cx="113" cy="-18" rx="36.2938" ry="18"/>
<text text-anchor="middle" x="113" y="-14.3" font-family="Times,serif" font-size="14.00">037 (a)</text>
</g>
<!-- 07&#45;&gt;037 -->
<g id="edge15" class="edge"><title>07&#45;&gt;037</title>
<path fill="none" stroke="#b43f3f" stroke-dasharray="1,5" d="M319.047,-92.9919C313.532,-90.7612 307.631,-88.6092 302,-87 254.789,-73.5082 238.933,-86.3488 193,-69 174.044,-61.8404 154.725,-49.9231 139.822,-39.5189"/>
<polygon fill="#b43f3f" stroke="#b43f3f" points="141.759,-36.6009 131.593,-33.6153 137.678,-42.2885 141.759,-36.6009"/>
<text text-anchor="middle" x="215" y="-57.8" font-family="Times,serif" font-size="14.00">1 (97.5)</text>
</g>
<!-- 030 -->
<g id="node19" class="node"><title>030</title>
<ellipse fill="#ff8a8a" stroke="#b43f3f" cx="204" cy="-18" rx="36.2938" ry="18"/>
<text text-anchor="middle" x="204" y="-14.3" font-family="Times,serif" font-size="14.00">030 (a)</text>
</g>
<!-- 07&#45;&gt;030 -->
<g id="edge16" class="edge"><title>07&#45;&gt;030</title>
<path fill="none" stroke="#b43f3f" stroke-dasharray="1,5" d="M318.16,-93.6214C294.996,-83.9086 263.62,-70.649 261,-69 248.693,-61.2542 236.394,-50.8829 226.387,-41.5943"/>
<polygon fill="#b43f3f" stroke="#b43f3f" points="228.548,-38.8189 218.897,-34.4481 223.716,-43.8835 228.548,-38.8189"/>
<text text-anchor="middle" x="283" y="-57.8" font-family="Times,serif" font-size="14.00">1 (95.1)</text>
</g>
<!-- 034 -->
<g id="node20" class="node"><title>034</title>
<ellipse fill="#ff8a8a" stroke="#b43f3f" cx="295" cy="-18" rx="36.2938" ry="18"/>
<text text-anchor="middle" x="295" y="-14.3" font-family="Times,serif" font-size="14.00">034 (a)</text>
</g>
<!-- 07&#45;&gt;034 -->
<g id="edge17" class="edge"><title>07&#45;&gt;034</title>
<path fill="none" stroke="#b43f3f" stroke-dasharray="1,5" d="M329.72,-88.5849C325.026,-82.6947 319.939,-75.7643 316,-69 311.736,-61.6776 307.874,-53.324 304.659,-45.5692"/>
<polygon fill="#b43f3f" stroke="#b43f3f" points="307.883,-44.2024 300.951,-36.1894 301.373,-46.7759 307.883,-44.2024"/>
<text text-anchor="middle" x="338" y="-57.8" font-family="Times,serif" font-size="14.00">1 (95.1)</text>
</g>
<!-- 0211 -->
<g id="node21" class="node"><title>0211</title>
<ellipse fill="#cea8f4" stroke="#835da9" cx="390" cy="-18" rx="40.8928" ry="18"/>
<text text-anchor="middle" x="390" y="-14.3" font-family="Times,serif" font-size="14.00">0211 (b)</text>
</g>
<!-- 07&#45;&gt;0211 -->
<g id="edge18" class="edge"><title>07&#45;&gt;0211</title>
<path fill="none" stroke="#835da9" stroke-dasharray="1,5" d="M352.062,-87.6111C358.781,-75.4601 368.07,-58.6599 375.775,-44.7254"/>
<polygon fill="#835da9" stroke="#835da9" points="379.029,-46.0735 380.805,-35.6286 372.903,-42.6862 379.029,-46.0735"/>
<text text-anchor="middle" x="392" y="-57.8" font-family="Times,serif" font-size="14.00">2 (82.9)</text>
</g>
<!-- 036 -->
<g id="node22" class="node"><title>036</title>
<ellipse fill="#ff8a8a" stroke="#b43f3f" cx="485" cy="-18" rx="36.2938" ry="18"/>
<text text-anchor="middle" x="485" y="-14.3" font-family="Times,serif" font-size="14.00">036 (a)</text>
</g>
<!-- 021&#45;&gt;036 -->
<g id="edge19" class="edge"><title>021&#45;&gt;036</title>
<path fill="none" stroke="#b43f3f" stroke-dasharray="1,5" d="M554.628,-90.006C546.008,-83.9634 536.186,-76.5539 528,-69 519.456,-61.1154 510.924,-51.6186 503.74,-43.0293"/>
<polygon fill="#b43f3f" stroke="#b43f3f" points="506.344,-40.6853 497.308,-35.1545 500.923,-45.1135 506.344,-40.6853"/>
<text text-anchor="middle" x="550" y="-57.8" font-family="Times,serif" font-size="14.00">1 (97.6)</text>
</g>
<!-- 047 -->
<g id="node23" class="node"><title>047</title>
<ellipse fill="#ff8a8a" stroke="#b43f3f" cx="576" cy="-18" rx="36.2938" ry="18"/>
<text text-anchor="middle" x="576" y="-14.3" font-family="Times,serif" font-size="14.00">047 (a)</text>
</g>
<!-- 021&#45;&gt;047 -->
<g id="edge20" class="edge"><title>021&#45;&gt;047</title>
<path fill="none" stroke="#b43f3f" stroke-dasharray="1,5" d="M576,-86.799C576,-75.1626 576,-59.5479 576,-46.2368"/>
<polygon fill="#b43f3f" stroke="#b43f3f" points="579.5,-46.1754 576,-36.1754 572.5,-46.1755 579.5,-46.1754"/>
<text text-anchor="middle" x="598" y="-57.8" font-family="Times,serif" font-size="14.00">1 (95.1)</text>
</g>
<!-- 038 -->
<g id="node29" class="node"><title>038</title>
<ellipse fill="#ff8a8a" stroke="#b43f3f" cx="667" cy="-18" rx="36.2938" ry="18"/>
<text text-anchor="middle" x="667" y="-14.3" font-family="Times,serif" font-size="14.00">038 (a)</text>
</g>
<!-- 045&#45;&gt;038 -->
<g id="edge27" class="edge"><title>045&#45;&gt;038</title>
<path fill="none" stroke="#b43f3f" stroke-dasharray="1,5" d="M667,-86.799C667,-75.1626 667,-59.5479 667,-46.2368"/>
<polygon fill="#b43f3f" stroke="#b43f3f" points="670.5,-46.1754 667,-36.1754 663.5,-46.1755 670.5,-46.1754"/>
<text text-anchor="middle" x="689" y="-57.8" font-family="Times,serif" font-size="14.00">1 (92.7)</text>
</g>
<!-- 017 -->
<g id="node30" class="node"><title>017</title>
<ellipse fill="#ff8a8a" stroke="#b43f3f" cx="758" cy="-18" rx="36.2938" ry="18"/>
<text text-anchor="middle" x="758" y="-14.3" font-family="Times,serif" font-size="14.00">017 (a)</text>
</g>
<!-- 031&#45;&gt;017 -->
<g id="edge28" class="edge"><title>031&#45;&gt;017</title>
<path fill="none" stroke="#b43f3f" stroke-dasharray="1,5" d="M758,-86.799C758,-75.1626 758,-59.5479 758,-46.2368"/>
<polygon fill="#b43f3f" stroke="#b43f3f" points="761.5,-46.1754 758,-36.1754 754.5,-46.1755 761.5,-46.1754"/>
<text text-anchor="middle" x="780" y="-57.8" font-family="Times,serif" font-size="14.00">1 (94.3)</text>
</g>
<!-- 013 -->
<g id="node31" class="node"><title>013</title>
<ellipse fill="#ff8a8a" stroke="#b43f3f" cx="849" cy="-18" rx="36.2938" ry="18"/>
<text text-anchor="middle" x="849" y="-14.3" font-family="Times,serif" font-size="14.00">013 (a)</text>
</g>
<!-- 031&#45;&gt;013 -->
<g id="edge29" class="edge"><title>031&#45;&gt;013</title>
<path fill="none" stroke="#b43f3f" stroke-dasharray="1,5" d="M779.372,-90.006C787.992,-83.9634 797.814,-76.5539 806,-69 814.544,-61.1154 823.076,-51.6186 830.26,-43.0293"/>
<polygon fill="#b43f3f" stroke="#b43f3f" points="833.077,-45.1135 836.692,-35.1545 827.656,-40.6853 833.077,-45.1135"/>
<text text-anchor="middle" x="842" y="-57.8" font-family="Times,serif" font-size="14.00">1 (97.1)</text>
</g>
<!-- 022 -->
<g id="node27" class="node"><title>022</title>
<ellipse fill="#ff8a8a" stroke="#b43f3f" cx="158" cy="-105" rx="36.2938" ry="18"/>
<text text-anchor="middle" x="158" y="-101.3" font-family="Times,serif" font-size="14.00">022 (a)</text>
</g>
<!-- 044&#45;&gt;022 -->
<g id="edge24" class="edge"><title>044&#45;&gt;022</title>
<path fill="none" stroke="#b43f3f" stroke-dasharray="1,5" d="M232.27,-177.159C223.564,-171.025 213.505,-163.508 205,-156 195.837,-147.911 186.469,-138.276 178.533,-129.632"/>
<polygon fill="#b43f3f" stroke="#b43f3f" points="180.99,-127.129 171.694,-122.045 175.79,-131.816 180.99,-127.129"/>
<text text-anchor="middle" x="227" y="-144.8" font-family="Times,serif" font-size="14.00">1 (91.7)</text>
</g>
<!-- 0141 -->
<g id="node28" class="node"><title>0141</title>
<ellipse fill="#ff8a8a" stroke="#b43f3f" cx="253" cy="-105" rx="40.0939" ry="18"/>
<text text-anchor="middle" x="253" y="-101.3" font-family="Times,serif" font-size="14.00">0141 (a)</text>
</g>
<!-- 044&#45;&gt;0141 -->
<g id="edge25" class="edge"><title>044&#45;&gt;0141</title>
<path fill="none" stroke="#b43f3f" stroke-dasharray="1,5" d="M253,-173.799C253,-162.163 253,-146.548 253,-133.237"/>
<polygon fill="#b43f3f" stroke="#b43f3f" points="256.5,-133.175 253,-123.175 249.5,-133.175 256.5,-133.175"/>
<text text-anchor="middle" x="275" y="-144.8" font-family="Times,serif" font-size="14.00">1 (89.2)</text>
</g>
</g>
</svg>
