<?xml version="1.0" encoding="UTF-8" standalone="no"?>
<!DOCTYPE svg PUBLIC "-//W3C//DTD SVG 1.1//EN"
 "http://www.w3.org/Graphics/SVG/1.1/DTD/svg11.dtd">
<!-- Generated by graphviz version 2.38.0 (20140413.2041)
 -->
<!-- Title: %3 Pages: 1 -->
<svg width="1562pt" height="321pt"
 viewBox="0.00 0.00 1562.50 321.00" xmlns="http://www.w3.org/2000/svg" xmlns:xlink="http://www.w3.org/1999/xlink">
<g id="graph0" class="graph" transform="scale(1 1) rotate(0) translate(4 317)">
<title>%3</title>
<polygon fill="white" stroke="none" points="-4,4 -4,-317 1558.5,-317 1558.5,4 -4,4"/>
<g id="clust1" class="cluster"><title>cluster_legend</title>
<path fill="none" stroke="black" d="M20,-177C20,-177 210,-177 210,-177 216,-177 222,-183 222,-189 222,-189 222,-293 222,-293 222,-299 216,-305 210,-305 210,-305 20,-305 20,-305 14,-305 8,-299 8,-293 8,-293 8,-189 8,-189 8,-183 14,-177 20,-177"/>
</g>
<!-- leg_s -->
<g id="node1" class="node"><title>leg_s</title>
<text text-anchor="middle" x="115" y="-275.3" font-family="Times,serif" font-size="14.00">Textual flow strength</text>
</g>
<!-- leg_e1 -->
<!-- leg_s&#45;&gt;leg_e1 -->
<g id="edge1" class="edge"><title>leg_s&#45;&gt;leg_e1</title>
<path fill="none" stroke="black" stroke-dasharray="1,5" d="M96.6657,-260.686C91.1324,-255.194 85.1607,-248.989 80,-243 70.1708,-231.593 60.0722,-217.779 52.9137,-207.563"/>
<polygon fill="black" stroke="black" points="55.6142,-205.314 47.056,-199.068 49.8514,-209.288 55.6142,-205.314"/>
<text text-anchor="middle" x="95.5" y="-231.8" font-family="Times,serif" font-size="14.00">&lt;=5 &#160;</text>
</g>
<!-- leg_e2 -->
<!-- leg_s&#45;&gt;leg_e2 -->
<g id="edge2" class="edge"><title>leg_s&#45;&gt;leg_e2</title>
<path fill="none" stroke="black" stroke-dasharray="5,2" d="M115,-260.799C115,-245.794 115,-224.174 115,-209.409"/>
<polygon fill="black" stroke="black" points="118.5,-209.293 115,-199.293 111.5,-209.293 118.5,-209.293"/>
<text text-anchor="middle" x="134" y="-231.8" font-family="Times,serif" font-size="14.00"> &#160;&lt;=25</text>
</g>
<!-- leg_e3 -->
<!-- leg_s&#45;&gt;leg_e3 -->
<g id="edge3" class="edge"><title>leg_s&#45;&gt;leg_e3</title>
<path fill="none" stroke="black" d="M138.503,-260.76C144.906,-255.462 151.567,-249.344 157,-243 166.087,-232.39 174.095,-218.689 179.546,-208.313"/>
<polygon fill="black" stroke="black" points="182.722,-209.789 184.091,-199.283 176.469,-206.642 182.722,-209.789"/>
<text text-anchor="middle" x="179" y="-231.8" font-family="Times,serif" font-size="14.00">&gt;25</text>
</g>
<!-- 063 -->
<g id="node5" class="node"><title>063</title>
<ellipse fill="#ff8a8a" stroke="#b43f3f" cx="493" cy="-279" rx="36.2938" ry="18"/>
<text text-anchor="middle" x="493" y="-275.3" font-family="Times,serif" font-size="14.00">063 (a)</text>
</g>
<!-- 045 -->
<g id="node6" class="node"><title>045</title>
<ellipse fill="#ff8a8a" stroke="#b43f3f" cx="268" cy="-192" rx="36.2938" ry="18"/>
<text text-anchor="middle" x="268" y="-188.3" font-family="Times,serif" font-size="14.00">045 (a)</text>
</g>
<!-- 063&#45;&gt;045 -->
<g id="edge4" class="edge"><title>063&#45;&gt;045</title>
<path fill="none" stroke="#b43f3f" stroke-dasharray="1,5" d="M462.487,-268.919C440.716,-262.245 410.838,-252.685 385,-243 357.128,-232.553 326.182,-219.25 303.119,-208.993"/>
<polygon fill="#b43f3f" stroke="#b43f3f" points="304.308,-205.691 293.75,-204.801 301.449,-212.08 304.308,-205.691"/>
<text text-anchor="middle" x="407" y="-231.8" font-family="Times,serif" font-size="14.00">1 (93.1)</text>
</g>
<!-- 011 -->
<g id="node7" class="node"><title>011</title>
<ellipse fill="#ff8a8a" stroke="#b43f3f" cx="407" cy="-192" rx="36.2938" ry="18"/>
<text text-anchor="middle" x="407" y="-188.3" font-family="Times,serif" font-size="14.00">011 (a)</text>
</g>
<!-- 063&#45;&gt;011 -->
<g id="edge5" class="edge"><title>063&#45;&gt;011</title>
<path fill="none" stroke="#b43f3f" stroke-dasharray="1,5" d="M471.396,-264.25C462.74,-258.245 452.954,-250.798 445,-243 437.175,-235.329 429.638,-225.975 423.368,-217.442"/>
<polygon fill="#b43f3f" stroke="#b43f3f" points="426.206,-215.394 417.557,-209.275 420.503,-219.452 426.206,-215.394"/>
<text text-anchor="middle" x="467" y="-231.8" font-family="Times,serif" font-size="14.00">1 (93.1)</text>
</g>
<!-- 07 -->
<g id="node8" class="node"><title>07</title>
<ellipse fill="#ff8a8a" stroke="#b43f3f" cx="493" cy="-192" rx="31.6951" ry="18"/>
<text text-anchor="middle" x="493" y="-188.3" font-family="Times,serif" font-size="14.00">07 (a)</text>
</g>
<!-- 063&#45;&gt;07 -->
<g id="edge6" class="edge"><title>063&#45;&gt;07</title>
<path fill="none" stroke="#b43f3f" stroke-dasharray="1,5" d="M493,-260.799C493,-249.163 493,-233.548 493,-220.237"/>
<polygon fill="#b43f3f" stroke="#b43f3f" points="496.5,-220.175 493,-210.175 489.5,-220.175 496.5,-220.175"/>
<text text-anchor="middle" x="515" y="-231.8" font-family="Times,serif" font-size="14.00">1 (96.6)</text>
</g>
<!-- 028 -->
<g id="node9" class="node"><title>028</title>
<ellipse fill="#ff8a8a" stroke="#b43f3f" cx="579" cy="-192" rx="36.2938" ry="18"/>
<text text-anchor="middle" x="579" y="-188.3" font-family="Times,serif" font-size="14.00">028 (a)</text>
</g>
<!-- 063&#45;&gt;028 -->
<g id="edge7" class="edge"><title>063&#45;&gt;028</title>
<path fill="none" stroke="#b43f3f" stroke-dasharray="1,5" d="M514.604,-264.25C523.26,-258.245 533.046,-250.798 541,-243 548.825,-235.329 556.362,-225.975 562.632,-217.442"/>
<polygon fill="#b43f3f" stroke="#b43f3f" points="565.497,-219.452 568.443,-209.275 559.794,-215.394 565.497,-219.452"/>
<text text-anchor="middle" x="576" y="-231.8" font-family="Times,serif" font-size="14.00">1 (96.6)</text>
</g>
<!-- 021 -->
<g id="node10" class="node"><title>021</title>
<ellipse fill="#ff8a8a" stroke="#b43f3f" cx="699" cy="-192" rx="36.2938" ry="18"/>
<text text-anchor="middle" x="699" y="-188.3" font-family="Times,serif" font-size="14.00">021 (a)</text>
</g>
<!-- 063&#45;&gt;021 -->
<g id="edge8" class="edge"><title>063&#45;&gt;021</title>
<path fill="none" stroke="#b43f3f" stroke-dasharray="1,5" d="M524.028,-269.523C546.11,-263.132 576.299,-253.664 602,-243 624.305,-233.745 648.446,-221.31 667.065,-211.157"/>
<polygon fill="#b43f3f" stroke="#b43f3f" points="668.927,-214.127 675.994,-206.233 665.547,-207.997 668.927,-214.127"/>
<text text-anchor="middle" x="657" y="-231.8" font-family="Times,serif" font-size="14.00">1 (93.1)</text>
</g>
<!-- 038 -->
<g id="node11" class="node"><title>038</title>
<ellipse fill="#ff8a8a" stroke="#b43f3f" cx="244" cy="-105" rx="36.2938" ry="18"/>
<text text-anchor="middle" x="244" y="-101.3" font-family="Times,serif" font-size="14.00">038 (a)</text>
</g>
<!-- 045&#45;&gt;038 -->
<g id="edge9" class="edge"><title>045&#45;&gt;038</title>
<path fill="none" stroke="#b43f3f" stroke-dasharray="1,5" d="M263.143,-173.799C259.803,-161.97 255.303,-146.03 251.504,-132.578"/>
<polygon fill="#b43f3f" stroke="#b43f3f" points="254.853,-131.558 248.768,-122.885 248.117,-133.46 254.853,-131.558"/>
<text text-anchor="middle" x="280" y="-144.8" font-family="Times,serif" font-size="14.00">1 (92.7)</text>
</g>
<!-- 034 -->
<g id="node12" class="node"><title>034</title>
<ellipse fill="#ff8a8a" stroke="#b43f3f" cx="335" cy="-105" rx="36.2938" ry="18"/>
<text text-anchor="middle" x="335" y="-101.3" font-family="Times,serif" font-size="14.00">034 (a)</text>
</g>
<!-- 07&#45;&gt;034 -->
<g id="edge10" class="edge"><title>07&#45;&gt;034</title>
<path fill="none" stroke="#b43f3f" stroke-dasharray="1,5" d="M468.397,-180.465C463.021,-178.257 457.342,-175.995 452,-174 428.3,-165.15 420.246,-168.046 398,-156 383.97,-148.402 369.913,-137.626 358.648,-128.022"/>
<polygon fill="#b43f3f" stroke="#b43f3f" points="360.806,-125.259 350.98,-121.298 356.191,-130.522 360.806,-125.259"/>
<text text-anchor="middle" x="420" y="-144.8" font-family="Times,serif" font-size="14.00">1 (95.1)</text>
</g>
<!-- 013 -->
<g id="node13" class="node"><title>013</title>
<ellipse fill="#ff8a8a" stroke="#b43f3f" cx="426" cy="-105" rx="36.2938" ry="18"/>
<text text-anchor="middle" x="426" y="-101.3" font-family="Times,serif" font-size="14.00">013 (a)</text>
</g>
<!-- 07&#45;&gt;013 -->
<g id="edge11" class="edge"><title>07&#45;&gt;013</title>
<path fill="none" stroke="#b43f3f" stroke-dasharray="1,5" d="M475.823,-176.559C469.223,-170.563 461.87,-163.307 456,-156 450.012,-148.546 444.358,-139.786 439.608,-131.698"/>
<polygon fill="#b43f3f" stroke="#b43f3f" points="442.632,-129.935 434.659,-122.958 436.541,-133.384 442.632,-129.935"/>
<text text-anchor="middle" x="478" y="-144.8" font-family="Times,serif" font-size="14.00">2 (95.1)</text>
</g>
<!-- 037 -->
<g id="node14" class="node"><title>037</title>
<ellipse fill="#ff8a8a" stroke="#b43f3f" cx="517" cy="-105" rx="36.2938" ry="18"/>
<text text-anchor="middle" x="517" y="-101.3" font-family="Times,serif" font-size="14.00">037 (a)</text>
</g>
<!-- 07&#45;&gt;037 -->
<g id="edge12" class="edge"><title>07&#45;&gt;037</title>
<path fill="none" stroke="#b43f3f" stroke-dasharray="1,5" d="M497.857,-173.799C501.197,-161.97 505.697,-146.03 509.496,-132.578"/>
<polygon fill="#b43f3f" stroke="#b43f3f" points="512.883,-133.46 512.232,-122.885 506.147,-131.558 512.883,-133.46"/>
<text text-anchor="middle" x="529" y="-144.8" font-family="Times,serif" font-size="14.00">1 (97.5)</text>
</g>
<!-- 030 -->
<g id="node15" class="node"><title>030</title>
<ellipse fill="#ff8a8a" stroke="#b43f3f" cx="608" cy="-105" rx="36.2938" ry="18"/>
<text text-anchor="middle" x="608" y="-101.3" font-family="Times,serif" font-size="14.00">030 (a)</text>
</g>
<!-- 07&#45;&gt;030 -->
<g id="edge13" class="edge"><title>07&#45;&gt;030</title>
<path fill="none" stroke="#b43f3f" stroke-dasharray="1,5" d="M516.2,-179.624C528.211,-173.315 542.86,-164.946 555,-156 565.82,-148.026 576.788,-138.059 585.917,-129.126"/>
<polygon fill="#b43f3f" stroke="#b43f3f" points="588.515,-131.478 593.11,-121.932 583.565,-126.529 588.515,-131.478"/>
<text text-anchor="middle" x="595" y="-144.8" font-family="Times,serif" font-size="14.00">1 (95.1)</text>
</g>
<!-- 036 -->
<g id="node16" class="node"><title>036</title>
<ellipse fill="#ff8a8a" stroke="#b43f3f" cx="699" cy="-105" rx="36.2938" ry="18"/>
<text text-anchor="middle" x="699" y="-101.3" font-family="Times,serif" font-size="14.00">036 (a)</text>
</g>
<!-- 021&#45;&gt;036 -->
<g id="edge14" class="edge"><title>021&#45;&gt;036</title>
<path fill="none" stroke="#b43f3f" stroke-dasharray="1,5" d="M699,-173.799C699,-162.163 699,-146.548 699,-133.237"/>
<polygon fill="#b43f3f" stroke="#b43f3f" points="702.5,-133.175 699,-123.175 695.5,-133.175 702.5,-133.175"/>
<text text-anchor="middle" x="721" y="-144.8" font-family="Times,serif" font-size="14.00">1 (97.6)</text>
</g>
<!-- 047 -->
<g id="node17" class="node"><title>047</title>
<ellipse fill="#ff8a8a" stroke="#b43f3f" cx="790" cy="-105" rx="36.2938" ry="18"/>
<text text-anchor="middle" x="790" y="-101.3" font-family="Times,serif" font-size="14.00">047 (a)</text>
</g>
<!-- 021&#45;&gt;047 -->
<g id="edge15" class="edge"><title>021&#45;&gt;047</title>
<path fill="none" stroke="#b43f3f" stroke-dasharray="1,5" d="M720.372,-177.006C728.992,-170.963 738.814,-163.554 747,-156 755.544,-148.115 764.076,-138.619 771.26,-130.029"/>
<polygon fill="#b43f3f" stroke="#b43f3f" points="774.077,-132.113 777.692,-122.155 768.656,-127.685 774.077,-132.113"/>
<text text-anchor="middle" x="783" y="-144.8" font-family="Times,serif" font-size="14.00">1 (95.1)</text>
</g>
<!-- 03 -->
<g id="node18" class="node"><title>03</title>
<ellipse fill="#cea8f4" stroke="#835da9" cx="1033" cy="-279" rx="32.4942" ry="18"/>
<text text-anchor="middle" x="1033" y="-275.3" font-family="Times,serif" font-size="14.00">03 (b)</text>
</g>
<!-- 044 -->
<g id="node19" class="node"><title>044</title>
<ellipse fill="#cea8f4" stroke="#835da9" cx="946" cy="-192" rx="36.2938" ry="18"/>
<text text-anchor="middle" x="946" y="-188.3" font-family="Times,serif" font-size="14.00">044 (b)</text>
</g>
<!-- 03&#45;&gt;044 -->
<g id="edge16" class="edge"><title>03&#45;&gt;044</title>
<path fill="none" stroke="#835da9" stroke-dasharray="1,5" d="M1012.4,-264.862C1003.52,-258.738 993.299,-251.034 985,-243 977.051,-235.304 969.333,-225.945 962.889,-217.414"/>
<polygon fill="#835da9" stroke="#835da9" points="965.642,-215.25 956.909,-209.252 959.996,-219.388 965.642,-215.25"/>
<text text-anchor="middle" x="1007" y="-231.8" font-family="Times,serif" font-size="14.00">1 (89.2)</text>
</g>
<!-- 02 -->
<g id="node20" class="node"><title>02</title>
<ellipse fill="#cea8f4" stroke="#835da9" cx="1033" cy="-192" rx="32.4942" ry="18"/>
<text text-anchor="middle" x="1033" y="-188.3" font-family="Times,serif" font-size="14.00">02 (b)</text>
</g>
<!-- 03&#45;&gt;02 -->
<g id="edge17" class="edge"><title>03&#45;&gt;02</title>
<path fill="none" stroke="#835da9" stroke-dasharray="1,5" d="M1033,-260.799C1033,-249.163 1033,-233.548 1033,-220.237"/>
<polygon fill="#835da9" stroke="#835da9" points="1036.5,-220.175 1033,-210.175 1029.5,-220.175 1036.5,-220.175"/>
<text text-anchor="middle" x="1055" y="-231.8" font-family="Times,serif" font-size="14.00">1 (86.5)</text>
</g>
<!-- 032 -->
<g id="node21" class="node"><title>032</title>
<ellipse fill="#cea8f4" stroke="#835da9" cx="1120" cy="-192" rx="36.2938" ry="18"/>
<text text-anchor="middle" x="1120" y="-188.3" font-family="Times,serif" font-size="14.00">032 (b)</text>
</g>
<!-- 03&#45;&gt;032 -->
<g id="edge18" class="edge"><title>03&#45;&gt;032</title>
<path fill="none" stroke="#835da9" stroke-dasharray="1,5" d="M1053.6,-264.862C1062.48,-258.738 1072.7,-251.034 1081,-243 1088.95,-235.304 1096.67,-225.945 1103.11,-217.414"/>
<polygon fill="#835da9" stroke="#835da9" points="1106,-219.388 1109.09,-209.252 1100.36,-215.25 1106,-219.388"/>
<text text-anchor="middle" x="1115" y="-231.8" font-family="Times,serif" font-size="14.00">1 (91.7)</text>
</g>
<!-- 0141 -->
<g id="node22" class="node"><title>0141</title>
<ellipse fill="#cea8f4" stroke="#835da9" cx="885" cy="-105" rx="40.8928" ry="18"/>
<text text-anchor="middle" x="885" y="-101.3" font-family="Times,serif" font-size="14.00">0141 (b)</text>
</g>
<!-- 044&#45;&gt;0141 -->
<g id="edge19" class="edge"><title>044&#45;&gt;0141</title>
<path fill="none" stroke="#835da9" stroke-dasharray="1,5" d="M929.441,-175.805C923.548,-169.938 917.112,-162.967 912,-156 906.547,-148.568 901.478,-139.9 897.238,-131.889"/>
<polygon fill="#835da9" stroke="#835da9" points="900.321,-130.229 892.67,-122.9 894.08,-133.4 900.321,-130.229"/>
<text text-anchor="middle" x="934" y="-144.8" font-family="Times,serif" font-size="14.00">1 (89.2)</text>
</g>
<!-- 022 -->
<g id="node23" class="node"><title>022</title>
<ellipse fill="#cea8f4" stroke="#835da9" cx="980" cy="-105" rx="36.2938" ry="18"/>
<text text-anchor="middle" x="980" y="-101.3" font-family="Times,serif" font-size="14.00">022 (b)</text>
</g>
<!-- 044&#45;&gt;022 -->
<g id="edge20" class="edge"><title>044&#45;&gt;022</title>
<path fill="none" stroke="#835da9" stroke-dasharray="1,5" d="M952.717,-174.207C957.514,-162.216 964.06,-145.851 969.537,-132.157"/>
<polygon fill="#835da9" stroke="#835da9" points="972.832,-133.343 973.297,-122.758 966.333,-130.743 972.832,-133.343"/>
<text text-anchor="middle" x="987" y="-144.8" font-family="Times,serif" font-size="14.00">1 (91.7)</text>
</g>
<!-- 017 -->
<g id="node27" class="node"><title>017</title>
<ellipse fill="#cea8f4" stroke="#835da9" cx="885" cy="-18" rx="36.2938" ry="18"/>
<text text-anchor="middle" x="885" y="-14.3" font-family="Times,serif" font-size="14.00">017 (b)</text>
</g>
<!-- 0141&#45;&gt;017 -->
<g id="edge23" class="edge"><title>0141&#45;&gt;017</title>
<path fill="none" stroke="#835da9" stroke-dasharray="1,5" d="M885,-86.799C885,-75.1626 885,-59.5479 885,-46.2368"/>
<polygon fill="#835da9" stroke="#835da9" points="888.5,-46.1754 885,-36.1754 881.5,-46.1755 888.5,-46.1754"/>
<text text-anchor="middle" x="907" y="-57.8" font-family="Times,serif" font-size="14.00">2 (92.7)</text>
</g>
<!-- 091 -->
<g id="node24" class="node"><title>091</title>
<ellipse fill="#cea8f4" stroke="#835da9" cx="1252" cy="-279" rx="36.2938" ry="18"/>
<text text-anchor="middle" x="1252" y="-275.3" font-family="Times,serif" font-size="14.00">091 (b)</text>
</g>
<!-- 05 -->
<g id="node25" class="node"><title>05</title>
<ellipse fill="#cea8f4" stroke="#835da9" cx="1207" cy="-192" rx="32.4942" ry="18"/>
<text text-anchor="middle" x="1207" y="-188.3" font-family="Times,serif" font-size="14.00">05 (b)</text>
</g>
<!-- 091&#45;&gt;05 -->
<g id="edge21" class="edge"><title>091&#45;&gt;05</title>
<path fill="none" stroke="#835da9" stroke-dasharray="1,5" d="M1242.25,-261.371C1238.93,-255.593 1235.24,-249.047 1232,-243 1227.83,-235.213 1223.47,-226.645 1219.58,-218.834"/>
<polygon fill="#835da9" stroke="#835da9" points="1222.67,-217.2 1215.1,-209.785 1216.4,-220.301 1222.67,-217.2"/>
<text text-anchor="middle" x="1254" y="-231.8" font-family="Times,serif" font-size="14.00">1 (87.5)</text>
</g>
<!-- 0211 -->
<g id="node26" class="node"><title>0211</title>
<ellipse fill="#cea8f4" stroke="#835da9" cx="1298" cy="-192" rx="40.8928" ry="18"/>
<text text-anchor="middle" x="1298" y="-188.3" font-family="Times,serif" font-size="14.00">0211 (b)</text>
</g>
<!-- 091&#45;&gt;0211 -->
<g id="edge22" class="edge"><title>091&#45;&gt;0211</title>
<path fill="none" stroke="#835da9" stroke-dasharray="1,5" d="M1264.13,-261.67C1268.15,-255.917 1272.49,-249.309 1276,-243 1280.15,-235.542 1284.1,-227.148 1287.48,-219.398"/>
<polygon fill="#835da9" stroke="#835da9" points="1290.76,-220.619 1291.43,-210.044 1284.31,-217.897 1290.76,-220.619"/>
<text text-anchor="middle" x="1305" y="-231.8" font-family="Times,serif" font-size="14.00">1 (83.3)</text>
</g>
<!-- 019 -->
<g id="node28" class="node"><title>019</title>
<ellipse fill="#cea8f4" stroke="#835da9" cx="1343" cy="-279" rx="36.2938" ry="18"/>
<text text-anchor="middle" x="1343" y="-275.3" font-family="Times,serif" font-size="14.00">019 (b)</text>
</g>
<!-- P75 -->
<g id="node29" class="node"><title>P75</title>
<ellipse fill="#cea8f4" stroke="#835da9" cx="1434" cy="-279" rx="37.0935" ry="18"/>
<text text-anchor="middle" x="1434" y="-275.3" font-family="Times,serif" font-size="14.00">P75 (b)</text>
</g>
<!-- 01 -->
<g id="node30" class="node"><title>01</title>
<ellipse fill="#cea8f4" stroke="#835da9" cx="1522" cy="-279" rx="32.4942" ry="18"/>
<text text-anchor="middle" x="1522" y="-275.3" font-family="Times,serif" font-size="14.00">01 (b)</text>
</g>
</g>
</svg>
