<?xml version="1.0" encoding="UTF-8" standalone="no"?>
<!DOCTYPE svg PUBLIC "-//W3C//DTD SVG 1.1//EN"
 "http://www.w3.org/Graphics/SVG/1.1/DTD/svg11.dtd">
<!-- Generated by graphviz version 2.38.0 (20140413.2041)
 -->
<!-- Title: %3 Pages: 1 -->
<svg width="1060pt" height="163pt"
 viewBox="0.00 0.00 1060.00 163.00" xmlns="http://www.w3.org/2000/svg" xmlns:xlink="http://www.w3.org/1999/xlink">
<g id="graph0" class="graph" transform="scale(1 1) rotate(0) translate(4 159)">
<title>%3</title>
<polygon fill="white" stroke="none" points="-4,4 -4,-159 1056,-159 1056,4 -4,4"/>
<g id="clust1" class="cluster"><title>cluster_reading</title>
<polygon fill="none" stroke="black" points="8,-8 8,-147 822,-147 822,-8 8,-8"/>
</g>
<g id="clust2" class="cluster"><title>cluster_legend</title>
<path fill="none" stroke="black" d="M842,-19C842,-19 1032,-19 1032,-19 1038,-19 1044,-25 1044,-31 1044,-31 1044,-135 1044,-135 1044,-141 1038,-147 1032,-147 1032,-147 842,-147 842,-147 836,-147 830,-141 830,-135 830,-135 830,-31 830,-31 830,-25 836,-19 842,-19"/>
</g>
<!-- 021 -->
<g id="node1" class="node"><title>021</title>
<ellipse fill="#ff8a8a" stroke="#b43f3f" cx="729" cy="-121" rx="36.2938" ry="18"/>
<text text-anchor="middle" x="729" y="-117.3" font-family="Times,serif" font-size="14.00">021 (a)</text>
</g>
<!-- 036 -->
<g id="node2" class="node"><title>036</title>
<ellipse fill="#ff8a8a" stroke="#b43f3f" cx="687" cy="-34" rx="36.2938" ry="18"/>
<text text-anchor="middle" x="687" y="-30.3" font-family="Times,serif" font-size="14.00">036 (a)</text>
</g>
<!-- 021&#45;&gt;036 -->
<g id="edge1" class="edge"><title>021&#45;&gt;036</title>
<path fill="none" stroke="#b43f3f" stroke-dasharray="1,5" d="M713.523,-104.327C708.6,-98.6263 703.524,-91.8838 700,-85 696.403,-77.9743 693.743,-69.8705 691.801,-62.2601"/>
<polygon fill="#b43f3f" stroke="#b43f3f" points="695.179,-61.3279 689.576,-52.3355 688.348,-62.859 695.179,-61.3279"/>
<text text-anchor="middle" x="722" y="-73.8" font-family="Times,serif" font-size="14.00">1 (97.6)</text>
</g>
<!-- 047 -->
<g id="node3" class="node"><title>047</title>
<ellipse fill="#ff8a8a" stroke="#b43f3f" cx="778" cy="-34" rx="36.2938" ry="18"/>
<text text-anchor="middle" x="778" y="-30.3" font-family="Times,serif" font-size="14.00">047 (a)</text>
</g>
<!-- 021&#45;&gt;047 -->
<g id="edge2" class="edge"><title>021&#45;&gt;047</title>
<path fill="none" stroke="#b43f3f" stroke-dasharray="1,5" d="M738.448,-103.611C745.52,-91.3433 755.324,-74.3364 763.401,-60.3242"/>
<polygon fill="#b43f3f" stroke="#b43f3f" points="766.452,-62.0401 768.414,-51.6286 760.388,-58.5441 766.452,-62.0401"/>
<text text-anchor="middle" x="779" y="-73.8" font-family="Times,serif" font-size="14.00">1 (95.1)</text>
</g>
<!-- 031 -->
<g id="node4" class="node"><title>031</title>
<ellipse fill="#ff8a8a" stroke="#b43f3f" cx="586" cy="-121" rx="36.2938" ry="18"/>
<text text-anchor="middle" x="586" y="-117.3" font-family="Times,serif" font-size="14.00">031 (a)</text>
</g>
<!-- 01 -->
<g id="node5" class="node"><title>01</title>
<ellipse fill="#ff8a8a" stroke="#b43f3f" cx="419" cy="-34" rx="31.6951" ry="18"/>
<text text-anchor="middle" x="419" y="-30.3" font-family="Times,serif" font-size="14.00">01 (a)</text>
</g>
<!-- 031&#45;&gt;01 -->
<g id="edge3" class="edge"><title>031&#45;&gt;01</title>
<path fill="none" stroke="#b43f3f" stroke-dasharray="1,5" d="M558.009,-109.127C552.398,-107.032 546.529,-104.9 541,-103 515.475,-94.2268 506.915,-97.513 483,-85 468.524,-77.4254 454.04,-66.4639 442.522,-56.7335"/>
<polygon fill="#b43f3f" stroke="#b43f3f" points="444.543,-53.8533 434.701,-49.9318 439.95,-59.1352 444.543,-53.8533"/>
<text text-anchor="middle" x="505" y="-73.8" font-family="Times,serif" font-size="14.00">2 (48.5)</text>
</g>
<!-- 017 -->
<g id="node6" class="node"><title>017</title>
<ellipse fill="#ff8a8a" stroke="#b43f3f" cx="505" cy="-34" rx="36.2938" ry="18"/>
<text text-anchor="middle" x="505" y="-30.3" font-family="Times,serif" font-size="14.00">017 (a)</text>
</g>
<!-- 031&#45;&gt;017 -->
<g id="edge4" class="edge"><title>031&#45;&gt;017</title>
<path fill="none" stroke="#b43f3f" stroke-dasharray="1,5" d="M566.318,-105.586C558.685,-99.5951 550.094,-92.3339 543,-85 535.574,-77.3222 528.266,-68.1983 522.074,-59.8595"/>
<polygon fill="#b43f3f" stroke="#b43f3f" points="524.761,-57.6021 516.067,-51.5473 519.088,-61.7023 524.761,-57.6021"/>
<text text-anchor="middle" x="565" y="-73.8" font-family="Times,serif" font-size="14.00">1 (94.3)</text>
</g>
<!-- 013 -->
<g id="node7" class="node"><title>013</title>
<ellipse fill="#ff8a8a" stroke="#b43f3f" cx="596" cy="-34" rx="36.2938" ry="18"/>
<text text-anchor="middle" x="596" y="-30.3" font-family="Times,serif" font-size="14.00">013 (a)</text>
</g>
<!-- 031&#45;&gt;013 -->
<g id="edge5" class="edge"><title>031&#45;&gt;013</title>
<path fill="none" stroke="#b43f3f" stroke-dasharray="1,5" d="M588.024,-102.799C589.393,-91.1626 591.23,-75.5479 592.796,-62.2368"/>
<polygon fill="#b43f3f" stroke="#b43f3f" points="596.287,-62.5159 593.979,-52.1754 589.335,-61.698 596.287,-62.5159"/>
<text text-anchor="middle" x="614" y="-73.8" font-family="Times,serif" font-size="14.00">1 (97.1)</text>
</g>
<!-- 07 -->
<g id="node8" class="node"><title>07</title>
<ellipse fill="#ff8a8a" stroke="#b43f3f" cx="500" cy="-121" rx="31.6951" ry="18"/>
<text text-anchor="middle" x="500" y="-117.3" font-family="Times,serif" font-size="14.00">07 (a)</text>
</g>
<!-- 030 -->
<g id="node9" class="node"><title>030</title>
<ellipse fill="#ff8a8a" stroke="#b43f3f" cx="143" cy="-34" rx="36.2938" ry="18"/>
<text text-anchor="middle" x="143" y="-30.3" font-family="Times,serif" font-size="14.00">030 (a)</text>
</g>
<!-- 07&#45;&gt;030 -->
<g id="edge6" class="edge"><title>07&#45;&gt;030</title>
<path fill="none" stroke="#b43f3f" stroke-dasharray="1,5" d="M476.132,-108.671C470.613,-106.457 464.688,-104.393 459,-103 369.732,-81.1445 341.888,-108.351 253,-85 225.429,-77.7572 196.134,-64.115 174.713,-52.9082"/>
<polygon fill="#b43f3f" stroke="#b43f3f" points="176.222,-49.746 165.752,-48.1216 172.924,-55.9204 176.222,-49.746"/>
<text text-anchor="middle" x="275" y="-73.8" font-family="Times,serif" font-size="14.00">1 (95.1)</text>
</g>
<!-- 037 -->
<g id="node10" class="node"><title>037</title>
<ellipse fill="#ff8a8a" stroke="#b43f3f" cx="234" cy="-34" rx="36.2938" ry="18"/>
<text text-anchor="middle" x="234" y="-30.3" font-family="Times,serif" font-size="14.00">037 (a)</text>
</g>
<!-- 07&#45;&gt;037 -->
<g id="edge7" class="edge"><title>07&#45;&gt;037</title>
<path fill="none" stroke="#b43f3f" stroke-dasharray="1,5" d="M476.064,-108.93C470.548,-106.703 464.643,-104.568 459,-103 407.038,-88.5646 390.574,-100.765 339,-85 313.214,-77.1179 285.757,-63.8526 265.39,-52.9656"/>
<polygon fill="#b43f3f" stroke="#b43f3f" points="267.019,-49.8672 256.562,-48.1587 263.671,-56.0149 267.019,-49.8672"/>
<text text-anchor="middle" x="361" y="-73.8" font-family="Times,serif" font-size="14.00">1 (97.5)</text>
</g>
<!-- 0211 -->
<g id="node11" class="node"><title>0211</title>
<ellipse fill="#ff8a8a" stroke="#b43f3f" cx="329" cy="-34" rx="40.0939" ry="18"/>
<text text-anchor="middle" x="329" y="-30.3" font-family="Times,serif" font-size="14.00">0211 (a)</text>
</g>
<!-- 07&#45;&gt;0211 -->
<g id="edge8" class="edge"><title>07&#45;&gt;0211</title>
<path fill="none" stroke="#b43f3f" stroke-dasharray="1,5" d="M474.881,-109.491C469.641,-107.325 464.146,-105.073 459,-103 438.637,-94.7952 432.721,-94.6469 413,-85 394.776,-76.0854 375.256,-64.594 359.624,-54.8761"/>
<polygon fill="#b43f3f" stroke="#b43f3f" points="361.236,-51.7554 350.908,-49.3922 357.508,-57.6802 361.236,-51.7554"/>
<text text-anchor="middle" x="435" y="-73.8" font-family="Times,serif" font-size="14.00">2 (82.9)</text>
</g>
<!-- 045 -->
<g id="node12" class="node"><title>045</title>
<ellipse fill="#ff8a8a" stroke="#b43f3f" cx="414" cy="-121" rx="36.2938" ry="18"/>
<text text-anchor="middle" x="414" y="-117.3" font-family="Times,serif" font-size="14.00">045 (a)</text>
</g>
<!-- 038 -->
<g id="node13" class="node"><title>038</title>
<ellipse fill="#ff8a8a" stroke="#b43f3f" cx="52" cy="-34" rx="36.2938" ry="18"/>
<text text-anchor="middle" x="52" y="-30.3" font-family="Times,serif" font-size="14.00">038 (a)</text>
</g>
<!-- 045&#45;&gt;038 -->
<g id="edge9" class="edge"><title>045&#45;&gt;038</title>
<path fill="none" stroke="#b43f3f" stroke-dasharray="1,5" d="M387.119,-108.711C380.932,-106.495 374.313,-104.42 368,-103 279.631,-83.1259 252.704,-107.629 165,-85 136.646,-77.6841 106.402,-63.9546 84.3451,-52.731"/>
<polygon fill="#b43f3f" stroke="#b43f3f" points="85.9109,-49.6004 75.4228,-48.1003 82.6863,-55.8135 85.9109,-49.6004"/>
<text text-anchor="middle" x="187" y="-73.8" font-family="Times,serif" font-size="14.00">1 (92.7)</text>
</g>
<!-- 011 -->
<g id="node14" class="node"><title>011</title>
<ellipse fill="#ff8a8a" stroke="#b43f3f" cx="323" cy="-121" rx="36.2938" ry="18"/>
<text text-anchor="middle" x="323" y="-117.3" font-family="Times,serif" font-size="14.00">011 (a)</text>
</g>
<!-- 0141 -->
<g id="node15" class="node"><title>0141</title>
<ellipse fill="#ff8a8a" stroke="#b43f3f" cx="228" cy="-121" rx="40.0939" ry="18"/>
<text text-anchor="middle" x="228" y="-117.3" font-family="Times,serif" font-size="14.00">0141 (a)</text>
</g>
<!-- 05 -->
<g id="node16" class="node"><title>05</title>
<ellipse fill="#ff8a8a" stroke="#b43f3f" cx="138" cy="-121" rx="31.6951" ry="18"/>
<text text-anchor="middle" x="138" y="-117.3" font-family="Times,serif" font-size="14.00">05 (a)</text>
</g>
<!-- 028 -->
<g id="node17" class="node"><title>028</title>
<ellipse fill="#ff8a8a" stroke="#b43f3f" cx="52" cy="-121" rx="36.2938" ry="18"/>
<text text-anchor="middle" x="52" y="-117.3" font-family="Times,serif" font-size="14.00">028 (a)</text>
</g>
<!-- leg_s -->
<g id="node18" class="node"><title>leg_s</title>
<text text-anchor="middle" x="937" y="-117.3" font-family="Times,serif" font-size="14.00">Textual flow strength</text>
</g>
<!-- leg_e1 -->
<!-- leg_s&#45;&gt;leg_e1 -->
<g id="edge10" class="edge"><title>leg_s&#45;&gt;leg_e1</title>
<path fill="none" stroke="black" stroke-dasharray="1,5" d="M918.666,-102.686C913.132,-97.1938 907.161,-90.9891 902,-85 892.171,-73.593 882.072,-59.7786 874.914,-49.5634"/>
<polygon fill="black" stroke="black" points="877.614,-47.3142 869.056,-41.0685 871.851,-51.2879 877.614,-47.3142"/>
<text text-anchor="middle" x="917.5" y="-73.8" font-family="Times,serif" font-size="14.00">&lt;=5 &#160;</text>
</g>
<!-- leg_e2 -->
<!-- leg_s&#45;&gt;leg_e2 -->
<g id="edge11" class="edge"><title>leg_s&#45;&gt;leg_e2</title>
<path fill="none" stroke="black" stroke-dasharray="5,2" d="M937,-102.799C937,-87.7942 937,-66.1745 937,-51.4086"/>
<polygon fill="black" stroke="black" points="940.5,-51.2934 937,-41.2934 933.5,-51.2934 940.5,-51.2934"/>
<text text-anchor="middle" x="956" y="-73.8" font-family="Times,serif" font-size="14.00"> &#160;&lt;=25</text>
</g>
<!-- leg_e3 -->
<!-- leg_s&#45;&gt;leg_e3 -->
<g id="edge12" class="edge"><title>leg_s&#45;&gt;leg_e3</title>
<path fill="none" stroke="black" d="M960.503,-102.76C966.906,-97.4621 973.567,-91.3439 979,-85 988.087,-74.3897 996.095,-60.6892 1001.55,-50.3134"/>
<polygon fill="black" stroke="black" points="1004.72,-51.7893 1006.09,-41.2833 998.469,-48.6425 1004.72,-51.7893"/>
<text text-anchor="middle" x="1000" y="-73.8" font-family="Times,serif" font-size="14.00">&gt;25</text>
</g>
</g>
</svg>
