<?xml version="1.0" encoding="UTF-8" standalone="no"?>
<!DOCTYPE svg PUBLIC "-//W3C//DTD SVG 1.1//EN"
 "http://www.w3.org/Graphics/SVG/1.1/DTD/svg11.dtd">
<!-- Generated by graphviz version 2.38.0 (20140413.2041)
 -->
<!-- Title: %3 Pages: 1 -->
<svg width="1117pt" height="408pt"
 viewBox="0.00 0.00 1117.24 408.00" xmlns="http://www.w3.org/2000/svg" xmlns:xlink="http://www.w3.org/1999/xlink">
<g id="graph0" class="graph" transform="scale(1 1) rotate(0) translate(4 404)">
<title>%3</title>
<polygon fill="white" stroke="none" points="-4,4 -4,-404 1113.24,-404 1113.24,4 -4,4"/>
<g id="clust1" class="cluster"><title>cluster_legend</title>
<path fill="none" stroke="black" d="M384.397,-264C384.397,-264 574.397,-264 574.397,-264 580.397,-264 586.397,-270 586.397,-276 586.397,-276 586.397,-380 586.397,-380 586.397,-386 580.397,-392 574.397,-392 574.397,-392 384.397,-392 384.397,-392 378.397,-392 372.397,-386 372.397,-380 372.397,-380 372.397,-276 372.397,-276 372.397,-270 378.397,-264 384.397,-264"/>
</g>
<!-- leg_s -->
<g id="node1" class="node"><title>leg_s</title>
<text text-anchor="middle" x="479.397" y="-362.3" font-family="Times,serif" font-size="14.00">Textual flow strength</text>
</g>
<!-- leg_e1 -->
<!-- leg_s&#45;&gt;leg_e1 -->
<g id="edge1" class="edge"><title>leg_s&#45;&gt;leg_e1</title>
<path fill="none" stroke="black" stroke-dasharray="1,5" d="M461.062,-347.686C455.529,-342.194 449.557,-335.989 444.397,-330 434.568,-318.593 424.469,-304.779 417.31,-294.563"/>
<polygon fill="black" stroke="black" points="420.011,-292.314 411.453,-286.068 414.248,-296.288 420.011,-292.314"/>
<text text-anchor="middle" x="459.897" y="-318.8" font-family="Times,serif" font-size="14.00">&lt;=5 &#160;</text>
</g>
<!-- leg_e2 -->
<!-- leg_s&#45;&gt;leg_e2 -->
<g id="edge2" class="edge"><title>leg_s&#45;&gt;leg_e2</title>
<path fill="none" stroke="black" stroke-dasharray="5,2" d="M479.397,-347.799C479.397,-332.794 479.397,-311.174 479.397,-296.409"/>
<polygon fill="black" stroke="black" points="482.897,-296.293 479.397,-286.293 475.897,-296.293 482.897,-296.293"/>
<text text-anchor="middle" x="498.397" y="-318.8" font-family="Times,serif" font-size="14.00"> &#160;&lt;=25</text>
</g>
<!-- leg_e3 -->
<!-- leg_s&#45;&gt;leg_e3 -->
<g id="edge3" class="edge"><title>leg_s&#45;&gt;leg_e3</title>
<path fill="none" stroke="black" d="M502.9,-347.76C509.303,-342.462 515.963,-336.344 521.397,-330 530.484,-319.39 538.492,-305.689 543.943,-295.313"/>
<polygon fill="black" stroke="black" points="547.119,-296.789 548.488,-286.283 540.866,-293.642 547.119,-296.789"/>
<text text-anchor="middle" x="543.397" y="-318.8" font-family="Times,serif" font-size="14.00">&gt;25</text>
</g>
<!-- 044 -->
<g id="node5" class="node"><title>044</title>
<ellipse fill="#ff8a8a" stroke="#b43f3f" cx="632.397" cy="-279" rx="36.2938" ry="18"/>
<text text-anchor="middle" x="632.397" y="-275.3" font-family="Times,serif" font-size="14.00">044 (a)</text>
</g>
<!-- 07 -->
<g id="node6" class="node"><title>07</title>
<ellipse fill="#ff8a8a" stroke="#b43f3f" cx="222.397" cy="-192" rx="31.6951" ry="18"/>
<text text-anchor="middle" x="222.397" y="-188.3" font-family="Times,serif" font-size="14.00">07 (a)</text>
</g>
<!-- 044&#45;&gt;07 -->
<g id="edge4" class="edge"><title>044&#45;&gt;07</title>
<path fill="none" stroke="#b43f3f" stroke-dasharray="1,5" d="M606.039,-266.323C600.918,-264.343 595.543,-262.46 590.397,-261 544.425,-247.959 531.424,-251.479 484.397,-243 405.522,-228.778 313.543,-210.933 262.231,-200.863"/>
<polygon fill="#b43f3f" stroke="#b43f3f" points="262.709,-197.391 252.222,-198.897 261.36,-204.259 262.709,-197.391"/>
<text text-anchor="middle" x="506.397" y="-231.8" font-family="Times,serif" font-size="14.00">2 (83.8)</text>
</g>
<!-- 021 -->
<g id="node7" class="node"><title>021</title>
<ellipse fill="#ff8a8a" stroke="#b43f3f" cx="499.397" cy="-192" rx="36.2938" ry="18"/>
<text text-anchor="middle" x="499.397" y="-188.3" font-family="Times,serif" font-size="14.00">021 (a)</text>
</g>
<!-- 044&#45;&gt;021 -->
<g id="edge5" class="edge"><title>044&#45;&gt;021</title>
<path fill="none" stroke="#b43f3f" stroke-dasharray="1,5" d="M605.214,-266.983C583.278,-257.996 555.286,-246.27 550.397,-243 539.285,-235.568 528.487,-225.528 519.709,-216.395"/>
<polygon fill="#b43f3f" stroke="#b43f3f" points="522.22,-213.955 512.849,-209.013 517.093,-218.721 522.22,-213.955"/>
<text text-anchor="middle" x="572.397" y="-231.8" font-family="Times,serif" font-size="14.00">2 (83.8)</text>
</g>
<!-- 045 -->
<g id="node8" class="node"><title>045</title>
<ellipse fill="#ff8a8a" stroke="#b43f3f" cx="590.397" cy="-192" rx="36.2938" ry="18"/>
<text text-anchor="middle" x="590.397" y="-188.3" font-family="Times,serif" font-size="14.00">045 (a)</text>
</g>
<!-- 044&#45;&gt;045 -->
<g id="edge6" class="edge"><title>044&#45;&gt;045</title>
<path fill="none" stroke="#b43f3f" stroke-dasharray="1,5" d="M616.92,-262.327C611.997,-256.626 606.921,-249.884 603.397,-243 599.8,-235.974 597.14,-227.871 595.198,-220.26"/>
<polygon fill="#b43f3f" stroke="#b43f3f" points="598.576,-219.328 592.973,-210.336 591.745,-220.859 598.576,-219.328"/>
<text text-anchor="middle" x="625.397" y="-231.8" font-family="Times,serif" font-size="14.00">2 (81.1)</text>
</g>
<!-- 022 -->
<g id="node9" class="node"><title>022</title>
<ellipse fill="#ff8a8a" stroke="#b43f3f" cx="681.397" cy="-192" rx="36.2938" ry="18"/>
<text text-anchor="middle" x="681.397" y="-188.3" font-family="Times,serif" font-size="14.00">022 (a)</text>
</g>
<!-- 044&#45;&gt;022 -->
<g id="edge7" class="edge"><title>044&#45;&gt;022</title>
<path fill="none" stroke="#b43f3f" stroke-dasharray="1,5" d="M641.844,-261.611C648.917,-249.343 658.721,-232.336 666.798,-218.324"/>
<polygon fill="#b43f3f" stroke="#b43f3f" points="669.849,-220.04 671.811,-209.629 663.784,-216.544 669.849,-220.04"/>
<text text-anchor="middle" x="682.397" y="-231.8" font-family="Times,serif" font-size="14.00">1 (91.7)</text>
</g>
<!-- 011 -->
<g id="node10" class="node"><title>011</title>
<ellipse fill="#ff8a8a" stroke="#b43f3f" cx="772.397" cy="-192" rx="36.2938" ry="18"/>
<text text-anchor="middle" x="772.397" y="-188.3" font-family="Times,serif" font-size="14.00">011 (a)</text>
</g>
<!-- 044&#45;&gt;011 -->
<g id="edge8" class="edge"><title>044&#45;&gt;011</title>
<path fill="none" stroke="#b43f3f" stroke-dasharray="1,5" d="M659.91,-267.157C674.704,-260.88 693.016,-252.375 708.397,-243 721.96,-234.733 735.98,-224.059 747.428,-214.698"/>
<polygon fill="#b43f3f" stroke="#b43f3f" points="749.824,-217.257 755.266,-208.166 745.343,-211.879 749.824,-217.257"/>
<text text-anchor="middle" x="751.397" y="-231.8" font-family="Times,serif" font-size="14.00">2 (86.5)</text>
</g>
<!-- 0141 -->
<g id="node11" class="node"><title>0141</title>
<ellipse fill="#ff8a8a" stroke="#b43f3f" cx="867.397" cy="-192" rx="40.0939" ry="18"/>
<text text-anchor="middle" x="867.397" y="-188.3" font-family="Times,serif" font-size="14.00">0141 (a)</text>
</g>
<!-- 044&#45;&gt;0141 -->
<g id="edge9" class="edge"><title>044&#45;&gt;0141</title>
<path fill="none" stroke="#b43f3f" stroke-dasharray="1,5" d="M659.873,-266.96C665.912,-264.783 672.32,-262.662 678.397,-261 721.534,-249.204 735.288,-258.06 777.397,-243 798.414,-235.483 820.342,-223.403 837.291,-212.999"/>
<polygon fill="#b43f3f" stroke="#b43f3f" points="839.55,-215.714 846.158,-207.432 835.827,-209.785 839.55,-215.714"/>
<text text-anchor="middle" x="833.397" y="-231.8" font-family="Times,serif" font-size="14.00">1 (89.2)</text>
</g>
<!-- 037 -->
<g id="node12" class="node"><title>037</title>
<ellipse fill="#ff8a8a" stroke="#b43f3f" cx="36.3968" cy="-105" rx="36.2938" ry="18"/>
<text text-anchor="middle" x="36.3968" y="-101.3" font-family="Times,serif" font-size="14.00">037 (a)</text>
</g>
<!-- 07&#45;&gt;037 -->
<g id="edge10" class="edge"><title>07&#45;&gt;037</title>
<path fill="none" stroke="#b43f3f" stroke-dasharray="1,5" d="M193.263,-184.226C170.365,-178.337 138.003,-168.745 111.397,-156 94.4497,-147.882 76.8999,-136.379 63.0413,-126.452"/>
<polygon fill="#b43f3f" stroke="#b43f3f" points="65.066,-123.597 54.9278,-120.52 60.9343,-129.248 65.066,-123.597"/>
<text text-anchor="middle" x="133.397" y="-144.8" font-family="Times,serif" font-size="14.00">1 (97.5)</text>
</g>
<!-- 030 -->
<g id="node13" class="node"><title>030</title>
<ellipse fill="#ff8a8a" stroke="#b43f3f" cx="127.397" cy="-105" rx="36.2938" ry="18"/>
<text text-anchor="middle" x="127.397" y="-101.3" font-family="Times,serif" font-size="14.00">030 (a)</text>
</g>
<!-- 07&#45;&gt;030 -->
<g id="edge11" class="edge"><title>07&#45;&gt;030</title>
<path fill="none" stroke="#b43f3f" stroke-dasharray="1,5" d="M202.611,-177.822C193.694,-171.572 183.211,-163.781 174.397,-156 165.233,-147.911 155.866,-138.276 147.93,-129.632"/>
<polygon fill="#b43f3f" stroke="#b43f3f" points="150.386,-127.129 141.091,-122.045 145.187,-131.816 150.386,-127.129"/>
<text text-anchor="middle" x="196.397" y="-144.8" font-family="Times,serif" font-size="14.00">1 (95.1)</text>
</g>
<!-- 0211 -->
<g id="node14" class="node"><title>0211</title>
<ellipse fill="#ff8a8a" stroke="#b43f3f" cx="222.397" cy="-105" rx="40.0939" ry="18"/>
<text text-anchor="middle" x="222.397" y="-101.3" font-family="Times,serif" font-size="14.00">0211 (a)</text>
</g>
<!-- 07&#45;&gt;0211 -->
<g id="edge12" class="edge"><title>07&#45;&gt;0211</title>
<path fill="none" stroke="#b43f3f" stroke-dasharray="1,5" d="M222.397,-173.799C222.397,-162.163 222.397,-146.548 222.397,-133.237"/>
<polygon fill="#b43f3f" stroke="#b43f3f" points="225.897,-133.175 222.397,-123.175 218.897,-133.175 225.897,-133.175"/>
<text text-anchor="middle" x="244.397" y="-144.8" font-family="Times,serif" font-size="14.00">2 (82.9)</text>
</g>
<!-- 034 -->
<g id="node15" class="node"><title>034</title>
<ellipse fill="#ff8a8a" stroke="#b43f3f" cx="317.397" cy="-105" rx="36.2938" ry="18"/>
<text text-anchor="middle" x="317.397" y="-101.3" font-family="Times,serif" font-size="14.00">034 (a)</text>
</g>
<!-- 07&#45;&gt;034 -->
<g id="edge13" class="edge"><title>07&#45;&gt;034</title>
<path fill="none" stroke="#b43f3f" stroke-dasharray="1,5" d="M242.182,-177.822C251.1,-171.572 261.582,-163.781 270.397,-156 279.56,-147.911 288.927,-138.276 296.863,-129.632"/>
<polygon fill="#b43f3f" stroke="#b43f3f" points="299.606,-131.816 303.702,-122.045 294.407,-127.129 299.606,-131.816"/>
<text text-anchor="middle" x="308.397" y="-144.8" font-family="Times,serif" font-size="14.00">1 (95.1)</text>
</g>
<!-- 036 -->
<g id="node16" class="node"><title>036</title>
<ellipse fill="#ff8a8a" stroke="#b43f3f" cx="408.397" cy="-105" rx="36.2938" ry="18"/>
<text text-anchor="middle" x="408.397" y="-101.3" font-family="Times,serif" font-size="14.00">036 (a)</text>
</g>
<!-- 021&#45;&gt;036 -->
<g id="edge14" class="edge"><title>021&#45;&gt;036</title>
<path fill="none" stroke="#b43f3f" stroke-dasharray="1,5" d="M478.025,-177.006C469.404,-170.963 459.582,-163.554 451.397,-156 442.853,-148.115 434.321,-138.619 427.136,-130.029"/>
<polygon fill="#b43f3f" stroke="#b43f3f" points="429.741,-127.685 420.704,-122.155 424.32,-132.113 429.741,-127.685"/>
<text text-anchor="middle" x="473.397" y="-144.8" font-family="Times,serif" font-size="14.00">1 (97.6)</text>
</g>
<!-- 047 -->
<g id="node17" class="node"><title>047</title>
<ellipse fill="#ff8a8a" stroke="#b43f3f" cx="499.397" cy="-105" rx="36.2938" ry="18"/>
<text text-anchor="middle" x="499.397" y="-101.3" font-family="Times,serif" font-size="14.00">047 (a)</text>
</g>
<!-- 021&#45;&gt;047 -->
<g id="edge15" class="edge"><title>021&#45;&gt;047</title>
<path fill="none" stroke="#b43f3f" stroke-dasharray="1,5" d="M499.397,-173.799C499.397,-162.163 499.397,-146.548 499.397,-133.237"/>
<polygon fill="#b43f3f" stroke="#b43f3f" points="502.897,-133.175 499.397,-123.175 495.897,-133.175 502.897,-133.175"/>
<text text-anchor="middle" x="521.397" y="-144.8" font-family="Times,serif" font-size="14.00">1 (95.1)</text>
</g>
<!-- 038 -->
<g id="node21" class="node"><title>038</title>
<ellipse fill="#ff8a8a" stroke="#b43f3f" cx="590.397" cy="-105" rx="36.2938" ry="18"/>
<text text-anchor="middle" x="590.397" y="-101.3" font-family="Times,serif" font-size="14.00">038 (a)</text>
</g>
<!-- 045&#45;&gt;038 -->
<g id="edge19" class="edge"><title>045&#45;&gt;038</title>
<path fill="none" stroke="#b43f3f" stroke-dasharray="1,5" d="M590.397,-173.799C590.397,-162.163 590.397,-146.548 590.397,-133.237"/>
<polygon fill="#b43f3f" stroke="#b43f3f" points="593.897,-133.175 590.397,-123.175 586.897,-133.175 593.897,-133.175"/>
<text text-anchor="middle" x="612.397" y="-144.8" font-family="Times,serif" font-size="14.00">1 (92.7)</text>
</g>
<!-- 031 -->
<g id="node22" class="node"><title>031</title>
<ellipse fill="#ff8a8a" stroke="#b43f3f" cx="681.397" cy="-105" rx="36.2938" ry="18"/>
<text text-anchor="middle" x="681.397" y="-101.3" font-family="Times,serif" font-size="14.00">031 (a)</text>
</g>
<!-- 022&#45;&gt;031 -->
<g id="edge22" class="edge"><title>022&#45;&gt;031</title>
<path fill="none" stroke="#b43f3f" stroke-dasharray="1,5" d="M681.397,-173.799C681.397,-162.163 681.397,-146.548 681.397,-133.237"/>
<polygon fill="#b43f3f" stroke="#b43f3f" points="684.897,-133.175 681.397,-123.175 677.897,-133.175 684.897,-133.175"/>
<text text-anchor="middle" x="703.397" y="-144.8" font-family="Times,serif" font-size="14.00">2 (86.7)</text>
</g>
<!-- 03 -->
<g id="node18" class="node"><title>03</title>
<ellipse fill="#ff8a8a" stroke="#b43f3f" cx="723.397" cy="-366" rx="31.6951" ry="18"/>
<text text-anchor="middle" x="723.397" y="-362.3" font-family="Times,serif" font-size="14.00">03 (a)</text>
</g>
<!-- 03&#45;&gt;044 -->
<g id="edge16" class="edge"><title>03&#45;&gt;044</title>
<path fill="none" stroke="#b43f3f" stroke-dasharray="1,5" d="M702.978,-351.672C694.134,-345.512 683.886,-337.834 675.397,-330 666.853,-322.115 658.321,-312.619 651.136,-304.029"/>
<polygon fill="#b43f3f" stroke="#b43f3f" points="653.741,-301.685 644.704,-296.155 648.32,-306.113 653.741,-301.685"/>
<text text-anchor="middle" x="697.397" y="-318.8" font-family="Times,serif" font-size="14.00">1 (89.2)</text>
</g>
<!-- 032 -->
<g id="node19" class="node"><title>032</title>
<ellipse fill="#ff8a8a" stroke="#b43f3f" cx="723.397" cy="-279" rx="36.2938" ry="18"/>
<text text-anchor="middle" x="723.397" y="-275.3" font-family="Times,serif" font-size="14.00">032 (a)</text>
</g>
<!-- 03&#45;&gt;032 -->
<g id="edge17" class="edge"><title>03&#45;&gt;032</title>
<path fill="none" stroke="#b43f3f" stroke-dasharray="1,5" d="M723.397,-347.799C723.397,-336.163 723.397,-320.548 723.397,-307.237"/>
<polygon fill="#b43f3f" stroke="#b43f3f" points="726.897,-307.175 723.397,-297.175 719.897,-307.175 726.897,-307.175"/>
<text text-anchor="middle" x="745.397" y="-318.8" font-family="Times,serif" font-size="14.00">1 (91.7)</text>
</g>
<!-- 02 -->
<g id="node20" class="node"><title>02</title>
<ellipse fill="#ff8a8a" stroke="#b43f3f" cx="809.397" cy="-279" rx="31.6951" ry="18"/>
<text text-anchor="middle" x="809.397" y="-275.3" font-family="Times,serif" font-size="14.00">02 (a)</text>
</g>
<!-- 03&#45;&gt;02 -->
<g id="edge18" class="edge"><title>03&#45;&gt;02</title>
<path fill="none" stroke="#b43f3f" stroke-dasharray="1,5" d="M744.044,-351.912C752.93,-345.796 763.148,-338.086 771.397,-330 779.221,-322.329 786.759,-312.975 793.029,-304.442"/>
<polygon fill="#b43f3f" stroke="#b43f3f" points="795.894,-306.452 798.84,-296.275 790.191,-302.394 795.894,-306.452"/>
<text text-anchor="middle" x="806.397" y="-318.8" font-family="Times,serif" font-size="14.00">1 (86.5)</text>
</g>
<!-- 017 -->
<g id="node23" class="node"><title>017</title>
<ellipse fill="#ff8a8a" stroke="#b43f3f" cx="636.397" cy="-18" rx="36.2938" ry="18"/>
<text text-anchor="middle" x="636.397" y="-14.3" font-family="Times,serif" font-size="14.00">017 (a)</text>
</g>
<!-- 031&#45;&gt;017 -->
<g id="edge20" class="edge"><title>031&#45;&gt;017</title>
<path fill="none" stroke="#b43f3f" stroke-dasharray="1,5" d="M671.644,-87.3706C668.322,-81.5933 664.633,-75.047 661.397,-69 657.229,-61.2133 652.866,-52.6446 648.972,-44.8337"/>
<polygon fill="#b43f3f" stroke="#b43f3f" points="652.069,-43.1997 644.5,-35.7855 645.793,-46.3011 652.069,-43.1997"/>
<text text-anchor="middle" x="683.397" y="-57.8" font-family="Times,serif" font-size="14.00">1 (94.3)</text>
</g>
<!-- 013 -->
<g id="node24" class="node"><title>013</title>
<ellipse fill="#ff8a8a" stroke="#b43f3f" cx="727.397" cy="-18" rx="36.2938" ry="18"/>
<text text-anchor="middle" x="727.397" y="-14.3" font-family="Times,serif" font-size="14.00">013 (a)</text>
</g>
<!-- 031&#45;&gt;013 -->
<g id="edge21" class="edge"><title>031&#45;&gt;013</title>
<path fill="none" stroke="#b43f3f" stroke-dasharray="1,5" d="M693.526,-87.6704C697.546,-81.9172 701.886,-75.3093 705.397,-69 709.547,-61.5417 713.498,-53.1477 716.877,-45.3977"/>
<polygon fill="#b43f3f" stroke="#b43f3f" points="720.161,-46.6185 720.824,-36.0444 713.712,-43.8974 720.161,-46.6185"/>
<text text-anchor="middle" x="735.397" y="-57.8" font-family="Times,serif" font-size="14.00">1 (97.1)</text>
</g>
<!-- P75 -->
<g id="node25" class="node"><title>P75</title>
<ellipse fill="#ff8a8a" stroke="#b43f3f" cx="809.397" cy="-366" rx="36.2938" ry="18"/>
<text text-anchor="middle" x="809.397" y="-362.3" font-family="Times,serif" font-size="14.00">P75 (a)</text>
</g>
<!-- 019 -->
<g id="node26" class="node"><title>019</title>
<ellipse fill="#ff8a8a" stroke="#b43f3f" cx="900.397" cy="-366" rx="36.2938" ry="18"/>
<text text-anchor="middle" x="900.397" y="-362.3" font-family="Times,serif" font-size="14.00">019 (a)</text>
</g>
<!-- 028 -->
<g id="node27" class="node"><title>028</title>
<ellipse fill="#72fe95" stroke="#27b34a" cx="991.397" cy="-366" rx="36.2938" ry="18"/>
<text text-anchor="middle" x="991.397" y="-362.3" font-family="Times,serif" font-size="14.00">028 (c)</text>
</g>
<!-- 01 -->
<g id="node28" class="node"><title>01</title>
<ellipse fill="#72fe95" stroke="#27b34a" cx="1077.4" cy="-366" rx="31.6951" ry="18"/>
<text text-anchor="middle" x="1077.4" y="-362.3" font-family="Times,serif" font-size="14.00">01 (c)</text>
</g>
</g>
</svg>
