<?xml version="1.0" encoding="UTF-8" standalone="no"?>
<!DOCTYPE svg PUBLIC "-//W3C//DTD SVG 1.1//EN"
 "http://www.w3.org/Graphics/SVG/1.1/DTD/svg11.dtd">
<!-- Generated by graphviz version 2.38.0 (20140413.2041)
 -->
<!-- Title: %3 Pages: 1 -->
<svg width="969pt" height="424pt"
 viewBox="0.00 0.00 969.00 424.00" xmlns="http://www.w3.org/2000/svg" xmlns:xlink="http://www.w3.org/1999/xlink">
<g id="graph0" class="graph" transform="scale(1 1) rotate(0) translate(4 420)">
<title>%3</title>
<polygon fill="white" stroke="none" points="-4,4 -4,-420 965,-420 965,4 -4,4"/>
<g id="clust1" class="cluster"><title>cluster_reading</title>
<polygon fill="none" stroke="black" points="8,-8 8,-408 731,-408 731,-8 8,-8"/>
</g>
<g id="clust2" class="cluster"><title>cluster_legend</title>
<path fill="none" stroke="black" d="M751,-280C751,-280 941,-280 941,-280 947,-280 953,-286 953,-292 953,-292 953,-396 953,-396 953,-402 947,-408 941,-408 941,-408 751,-408 751,-408 745,-408 739,-402 739,-396 739,-396 739,-292 739,-292 739,-286 745,-280 751,-280"/>
</g>
<!-- 021 -->
<g id="node1" class="node"><title>021</title>
<ellipse fill="#ff8a8a" stroke="#b43f3f" cx="242" cy="-121" rx="36.2938" ry="18"/>
<text text-anchor="middle" x="242" y="-117.3" font-family="Times,serif" font-size="14.00">021 (a)</text>
</g>
<!-- 036 -->
<g id="node2" class="node"><title>036</title>
<ellipse fill="#ff8a8a" stroke="#b43f3f" cx="141" cy="-34" rx="36.2938" ry="18"/>
<text text-anchor="middle" x="141" y="-30.3" font-family="Times,serif" font-size="14.00">036 (a)</text>
</g>
<!-- 021&#45;&gt;036 -->
<g id="edge1" class="edge"><title>021&#45;&gt;036</title>
<path fill="none" stroke="#b43f3f" stroke-dasharray="1,5" d="M219.563,-106.74C209.818,-100.594 198.488,-92.906 189,-85 179.276,-76.8971 169.439,-67.0115 161.224,-58.1762"/>
<polygon fill="#b43f3f" stroke="#b43f3f" points="163.786,-55.7913 154.466,-50.7535 158.61,-60.504 163.786,-55.7913"/>
<text text-anchor="middle" x="211" y="-73.8" font-family="Times,serif" font-size="14.00">1 (97.6)</text>
</g>
<!-- 047 -->
<g id="node3" class="node"><title>047</title>
<ellipse fill="#ff8a8a" stroke="#b43f3f" cx="232" cy="-34" rx="36.2938" ry="18"/>
<text text-anchor="middle" x="232" y="-30.3" font-family="Times,serif" font-size="14.00">047 (a)</text>
</g>
<!-- 021&#45;&gt;047 -->
<g id="edge2" class="edge"><title>021&#45;&gt;047</title>
<path fill="none" stroke="#b43f3f" stroke-dasharray="1,5" d="M239.976,-102.799C238.607,-91.1626 236.77,-75.5479 235.204,-62.2368"/>
<polygon fill="#b43f3f" stroke="#b43f3f" points="238.665,-61.698 234.021,-52.1754 231.713,-62.5159 238.665,-61.698"/>
<text text-anchor="middle" x="260" y="-73.8" font-family="Times,serif" font-size="14.00">1 (95.1)</text>
</g>
<!-- A -->
<g id="node4" class="node"><title>A</title>
<ellipse fill="#ff8a8a" stroke="#b43f3f" cx="419" cy="-382" rx="29.4969" ry="18"/>
<text text-anchor="middle" x="419" y="-378.3" font-family="Times,serif" font-size="14.00">A (a)</text>
</g>
<!-- 01 -->
<g id="node5" class="node"><title>01</title>
<ellipse fill="#ff8a8a" stroke="#b43f3f" cx="251" cy="-295" rx="31.6951" ry="18"/>
<text text-anchor="middle" x="251" y="-291.3" font-family="Times,serif" font-size="14.00">01 (a)</text>
</g>
<!-- A&#45;&gt;01 -->
<g id="edge3" class="edge"><title>A&#45;&gt;01</title>
<path fill="none" stroke="#b43f3f" stroke-dasharray="5,2" d="M391.647,-375.202C369.083,-369.714 336.715,-360.184 311,-346 297.565,-338.589 284.284,-327.961 273.646,-318.407"/>
<polygon fill="#b43f3f" stroke="#b43f3f" points="275.781,-315.614 266.068,-311.382 271.022,-320.747 275.781,-315.614"/>
<text text-anchor="middle" x="333" y="-334.8" font-family="Times,serif" font-size="14.00">1 (57.1)</text>
</g>
<!-- 03 -->
<g id="node6" class="node"><title>03</title>
<ellipse fill="#ff8a8a" stroke="#b43f3f" cx="333" cy="-295" rx="31.6951" ry="18"/>
<text text-anchor="middle" x="333" y="-291.3" font-family="Times,serif" font-size="14.00">03 (a)</text>
</g>
<!-- A&#45;&gt;03 -->
<g id="edge4" class="edge"><title>A&#45;&gt;03</title>
<path fill="none" stroke="#b43f3f" stroke-dasharray="1,5" d="M399.3,-368.561C390.199,-362.347 379.543,-354.375 371,-346 363.175,-338.329 355.638,-328.975 349.368,-320.442"/>
<polygon fill="#b43f3f" stroke="#b43f3f" points="352.206,-318.394 343.557,-312.275 346.503,-322.452 352.206,-318.394"/>
<text text-anchor="middle" x="393" y="-334.8" font-family="Times,serif" font-size="14.00">1 (93.3)</text>
</g>
<!-- 019 -->
<g id="node7" class="node"><title>019</title>
<ellipse fill="#ff8a8a" stroke="#b43f3f" cx="419" cy="-295" rx="36.2938" ry="18"/>
<text text-anchor="middle" x="419" y="-291.3" font-family="Times,serif" font-size="14.00">019 (a)</text>
</g>
<!-- A&#45;&gt;019 -->
<g id="edge5" class="edge"><title>A&#45;&gt;019</title>
<path fill="none" stroke="#b43f3f" stroke-dasharray="1,5" d="M419,-363.799C419,-352.163 419,-336.548 419,-323.237"/>
<polygon fill="#b43f3f" stroke="#b43f3f" points="422.5,-323.175 419,-313.175 415.5,-323.175 422.5,-323.175"/>
<text text-anchor="middle" x="441" y="-334.8" font-family="Times,serif" font-size="14.00">1 (93.3)</text>
</g>
<!-- 091 -->
<g id="node8" class="node"><title>091</title>
<ellipse fill="#ff8a8a" stroke="#b43f3f" cx="510" cy="-295" rx="36.2938" ry="18"/>
<text text-anchor="middle" x="510" y="-291.3" font-family="Times,serif" font-size="14.00">091 (a)</text>
</g>
<!-- A&#45;&gt;091 -->
<g id="edge6" class="edge"><title>A&#45;&gt;091</title>
<path fill="none" stroke="#b43f3f" stroke-dasharray="1,5" d="M438.477,-368.326C447.528,-362.06 458.208,-354.113 467,-346 475.544,-338.115 484.076,-328.619 491.26,-320.029"/>
<polygon fill="#b43f3f" stroke="#b43f3f" points="494.077,-322.113 497.692,-312.155 488.656,-317.685 494.077,-322.113"/>
<text text-anchor="middle" x="503" y="-334.8" font-family="Times,serif" font-size="14.00">1 (87.5)</text>
</g>
<!-- P75 -->
<g id="node9" class="node"><title>P75</title>
<ellipse fill="#ff8a8a" stroke="#b43f3f" cx="601" cy="-295" rx="36.2938" ry="18"/>
<text text-anchor="middle" x="601" y="-291.3" font-family="Times,serif" font-size="14.00">P75 (a)</text>
</g>
<!-- A&#45;&gt;P75 -->
<g id="edge7" class="edge"><title>A&#45;&gt;P75</title>
<path fill="none" stroke="#b43f3f" stroke-dasharray="1,5" d="M446.089,-374.797C468.901,-369.013 502.031,-359.279 529,-346 545.128,-338.059 561.702,-326.801 574.877,-316.977"/>
<polygon fill="#b43f3f" stroke="#b43f3f" points="577.176,-319.626 583.004,-310.778 572.931,-314.06 577.176,-319.626"/>
<text text-anchor="middle" x="576" y="-334.8" font-family="Times,serif" font-size="14.00">1 (93.3)</text>
</g>
<!-- 044 -->
<g id="node10" class="node"><title>044</title>
<ellipse fill="#ff8a8a" stroke="#b43f3f" cx="151" cy="-208" rx="36.2938" ry="18"/>
<text text-anchor="middle" x="151" y="-204.3" font-family="Times,serif" font-size="14.00">044 (a)</text>
</g>
<!-- 03&#45;&gt;044 -->
<g id="edge8" class="edge"><title>03&#45;&gt;044</title>
<path fill="none" stroke="#b43f3f" stroke-dasharray="1,5" d="M308.483,-283.224C303.102,-281.031 297.399,-278.836 292,-277 262.808,-267.074 253.048,-271.807 225,-259 208.224,-251.34 191.062,-240.004 177.494,-230.062"/>
<polygon fill="#b43f3f" stroke="#b43f3f" points="179.235,-226.991 169.138,-223.782 175.029,-232.588 179.235,-226.991"/>
<text text-anchor="middle" x="247" y="-247.8" font-family="Times,serif" font-size="14.00">1 (89.2)</text>
</g>
<!-- 02 -->
<g id="node11" class="node"><title>02</title>
<ellipse fill="#ff8a8a" stroke="#b43f3f" cx="247" cy="-208" rx="31.6951" ry="18"/>
<text text-anchor="middle" x="247" y="-204.3" font-family="Times,serif" font-size="14.00">02 (a)</text>
</g>
<!-- 03&#45;&gt;02 -->
<g id="edge9" class="edge"><title>03&#45;&gt;02</title>
<path fill="none" stroke="#b43f3f" stroke-dasharray="1,5" d="M312.353,-280.912C303.467,-274.796 293.248,-267.086 285,-259 277.175,-251.329 269.638,-241.975 263.368,-233.442"/>
<polygon fill="#b43f3f" stroke="#b43f3f" points="266.206,-231.394 257.557,-225.275 260.503,-235.452 266.206,-231.394"/>
<text text-anchor="middle" x="307" y="-247.8" font-family="Times,serif" font-size="14.00">1 (86.5)</text>
</g>
<!-- 032 -->
<g id="node12" class="node"><title>032</title>
<ellipse fill="#ff8a8a" stroke="#b43f3f" cx="333" cy="-208" rx="36.2938" ry="18"/>
<text text-anchor="middle" x="333" y="-204.3" font-family="Times,serif" font-size="14.00">032 (a)</text>
</g>
<!-- 03&#45;&gt;032 -->
<g id="edge10" class="edge"><title>03&#45;&gt;032</title>
<path fill="none" stroke="#b43f3f" stroke-dasharray="1,5" d="M333,-276.799C333,-265.163 333,-249.548 333,-236.237"/>
<polygon fill="#b43f3f" stroke="#b43f3f" points="336.5,-236.175 333,-226.175 329.5,-236.175 336.5,-236.175"/>
<text text-anchor="middle" x="355" y="-247.8" font-family="Times,serif" font-size="14.00">1 (91.7)</text>
</g>
<!-- 063 -->
<g id="node13" class="node"><title>063</title>
<ellipse fill="#ff8a8a" stroke="#b43f3f" cx="424" cy="-208" rx="36.2938" ry="18"/>
<text text-anchor="middle" x="424" y="-204.3" font-family="Times,serif" font-size="14.00">063 (a)</text>
</g>
<!-- 019&#45;&gt;063 -->
<g id="edge17" class="edge"><title>019&#45;&gt;063</title>
<path fill="none" stroke="#b43f3f" stroke-dasharray="1,5" d="M420.012,-276.799C420.696,-265.163 421.615,-249.548 422.398,-236.237"/>
<polygon fill="#b43f3f" stroke="#b43f3f" points="425.896,-236.364 422.99,-226.175 418.908,-235.953 425.896,-236.364"/>
<text text-anchor="middle" x="444" y="-247.8" font-family="Times,serif" font-size="14.00">1 (85.7)</text>
</g>
<!-- 05 -->
<g id="node23" class="node"><title>05</title>
<ellipse fill="#ff8a8a" stroke="#b43f3f" cx="510" cy="-208" rx="31.6951" ry="18"/>
<text text-anchor="middle" x="510" y="-204.3" font-family="Times,serif" font-size="14.00">05 (a)</text>
</g>
<!-- 091&#45;&gt;05 -->
<g id="edge22" class="edge"><title>091&#45;&gt;05</title>
<path fill="none" stroke="#b43f3f" stroke-dasharray="1,5" d="M510,-276.799C510,-265.163 510,-249.548 510,-236.237"/>
<polygon fill="#b43f3f" stroke="#b43f3f" points="513.5,-236.175 510,-226.175 506.5,-236.175 513.5,-236.175"/>
<text text-anchor="middle" x="532" y="-247.8" font-family="Times,serif" font-size="14.00">1 (87.5)</text>
</g>
<!-- 0211 -->
<g id="node24" class="node"><title>0211</title>
<ellipse fill="#ff8a8a" stroke="#b43f3f" cx="600" cy="-208" rx="40.0939" ry="18"/>
<text text-anchor="middle" x="600" y="-204.3" font-family="Times,serif" font-size="14.00">0211 (a)</text>
</g>
<!-- 091&#45;&gt;0211 -->
<g id="edge23" class="edge"><title>091&#45;&gt;0211</title>
<path fill="none" stroke="#b43f3f" stroke-dasharray="1,5" d="M531.416,-280.054C540.043,-274.018 549.858,-266.601 558,-259 566.204,-251.341 574.343,-242.128 581.242,-233.709"/>
<polygon fill="#b43f3f" stroke="#b43f3f" points="584.179,-235.639 587.683,-225.641 578.709,-231.272 584.179,-235.639"/>
<text text-anchor="middle" x="594" y="-247.8" font-family="Times,serif" font-size="14.00">1 (83.3)</text>
</g>
<!-- 0141 -->
<g id="node25" class="node"><title>0141</title>
<ellipse fill="#ff8a8a" stroke="#b43f3f" cx="56" cy="-121" rx="40.0939" ry="18"/>
<text text-anchor="middle" x="56" y="-117.3" font-family="Times,serif" font-size="14.00">0141 (a)</text>
</g>
<!-- 044&#45;&gt;0141 -->
<g id="edge24" class="edge"><title>044&#45;&gt;0141</title>
<path fill="none" stroke="#b43f3f" stroke-dasharray="1,5" d="M130.27,-193.159C121.564,-187.025 111.505,-179.508 103,-172 93.8366,-163.911 84.4693,-154.276 76.5333,-145.632"/>
<polygon fill="#b43f3f" stroke="#b43f3f" points="78.9897,-143.129 69.6943,-138.045 73.7904,-147.816 78.9897,-143.129"/>
<text text-anchor="middle" x="125" y="-160.8" font-family="Times,serif" font-size="14.00">1 (89.2)</text>
</g>
<!-- 022 -->
<g id="node26" class="node"><title>022</title>
<ellipse fill="#ff8a8a" stroke="#b43f3f" cx="151" cy="-121" rx="36.2938" ry="18"/>
<text text-anchor="middle" x="151" y="-117.3" font-family="Times,serif" font-size="14.00">022 (a)</text>
</g>
<!-- 044&#45;&gt;022 -->
<g id="edge25" class="edge"><title>044&#45;&gt;022</title>
<path fill="none" stroke="#b43f3f" stroke-dasharray="1,5" d="M151,-189.799C151,-178.163 151,-162.548 151,-149.237"/>
<polygon fill="#b43f3f" stroke="#b43f3f" points="154.5,-149.175 151,-139.175 147.5,-149.175 154.5,-149.175"/>
<text text-anchor="middle" x="173" y="-160.8" font-family="Times,serif" font-size="14.00">1 (91.7)</text>
</g>
<!-- 063&#45;&gt;021 -->
<g id="edge11" class="edge"><title>063&#45;&gt;021</title>
<path fill="none" stroke="#b43f3f" stroke-dasharray="1,5" d="M395.899,-196.232C390.014,-194.084 383.826,-191.906 378,-190 350.323,-180.946 341.354,-184.388 315,-172 298.464,-164.227 281.535,-152.883 268.148,-142.965"/>
<polygon fill="#b43f3f" stroke="#b43f3f" points="269.983,-139.963 259.902,-136.704 265.75,-145.539 269.983,-139.963"/>
<text text-anchor="middle" x="337" y="-160.8" font-family="Times,serif" font-size="14.00">1 (93.1)</text>
</g>
<!-- 011 -->
<g id="node14" class="node"><title>011</title>
<ellipse fill="#ff8a8a" stroke="#b43f3f" cx="333" cy="-121" rx="36.2938" ry="18"/>
<text text-anchor="middle" x="333" y="-117.3" font-family="Times,serif" font-size="14.00">011 (a)</text>
</g>
<!-- 063&#45;&gt;011 -->
<g id="edge12" class="edge"><title>063&#45;&gt;011</title>
<path fill="none" stroke="#b43f3f" stroke-dasharray="1,5" d="M402.628,-193.006C394.008,-186.963 384.186,-179.554 376,-172 367.456,-164.115 358.924,-154.619 351.74,-146.029"/>
<polygon fill="#b43f3f" stroke="#b43f3f" points="354.344,-143.685 345.308,-138.155 348.923,-148.113 354.344,-143.685"/>
<text text-anchor="middle" x="398" y="-160.8" font-family="Times,serif" font-size="14.00">1 (93.1)</text>
</g>
<!-- 031 -->
<g id="node15" class="node"><title>031</title>
<ellipse fill="#ff8a8a" stroke="#b43f3f" cx="424" cy="-121" rx="36.2938" ry="18"/>
<text text-anchor="middle" x="424" y="-117.3" font-family="Times,serif" font-size="14.00">031 (a)</text>
</g>
<!-- 063&#45;&gt;031 -->
<g id="edge13" class="edge"><title>063&#45;&gt;031</title>
<path fill="none" stroke="#b43f3f" stroke-dasharray="1,5" d="M424,-189.799C424,-178.163 424,-162.548 424,-149.237"/>
<polygon fill="#b43f3f" stroke="#b43f3f" points="427.5,-149.175 424,-139.175 420.5,-149.175 427.5,-149.175"/>
<text text-anchor="middle" x="446" y="-160.8" font-family="Times,serif" font-size="14.00">1 (95.8)</text>
</g>
<!-- 07 -->
<g id="node16" class="node"><title>07</title>
<ellipse fill="#ff8a8a" stroke="#b43f3f" cx="510" cy="-121" rx="31.6951" ry="18"/>
<text text-anchor="middle" x="510" y="-117.3" font-family="Times,serif" font-size="14.00">07 (a)</text>
</g>
<!-- 063&#45;&gt;07 -->
<g id="edge14" class="edge"><title>063&#45;&gt;07</title>
<path fill="none" stroke="#b43f3f" stroke-dasharray="1,5" d="M445.604,-193.25C454.26,-187.245 464.046,-179.798 472,-172 479.825,-164.329 487.362,-154.975 493.632,-146.442"/>
<polygon fill="#b43f3f" stroke="#b43f3f" points="496.497,-148.452 499.443,-138.275 490.794,-144.394 496.497,-148.452"/>
<text text-anchor="middle" x="507" y="-160.8" font-family="Times,serif" font-size="14.00">1 (96.6)</text>
</g>
<!-- 045 -->
<g id="node17" class="node"><title>045</title>
<ellipse fill="#ff8a8a" stroke="#b43f3f" cx="596" cy="-121" rx="36.2938" ry="18"/>
<text text-anchor="middle" x="596" y="-117.3" font-family="Times,serif" font-size="14.00">045 (a)</text>
</g>
<!-- 063&#45;&gt;045 -->
<g id="edge15" class="edge"><title>063&#45;&gt;045</title>
<path fill="none" stroke="#b43f3f" stroke-dasharray="1,5" d="M451.471,-196.189C457.229,-194.045 463.288,-191.878 469,-190 497.069,-180.77 506.69,-185.448 533,-172 547.307,-164.687 561.481,-153.846 572.751,-144.126"/>
<polygon fill="#b43f3f" stroke="#b43f3f" points="575.262,-146.577 580.404,-137.314 570.608,-141.348 575.262,-146.577"/>
<text text-anchor="middle" x="578" y="-160.8" font-family="Times,serif" font-size="14.00">1 (93.1)</text>
</g>
<!-- 028 -->
<g id="node18" class="node"><title>028</title>
<ellipse fill="#ff8a8a" stroke="#b43f3f" cx="687" cy="-121" rx="36.2938" ry="18"/>
<text text-anchor="middle" x="687" y="-117.3" font-family="Times,serif" font-size="14.00">028 (a)</text>
</g>
<!-- 063&#45;&gt;028 -->
<g id="edge16" class="edge"><title>063&#45;&gt;028</title>
<path fill="none" stroke="#b43f3f" stroke-dasharray="1,5" d="M450.807,-195.73C456.719,-193.568 463.007,-191.51 469,-190 527.696,-175.208 546.881,-192.036 604,-172 623.772,-165.064 643.952,-153.042 659.463,-142.524"/>
<polygon fill="#b43f3f" stroke="#b43f3f" points="661.819,-145.147 668.017,-136.555 657.814,-139.407 661.819,-145.147"/>
<text text-anchor="middle" x="658" y="-160.8" font-family="Times,serif" font-size="14.00">1 (96.6)</text>
</g>
<!-- 017 -->
<g id="node19" class="node"><title>017</title>
<ellipse fill="#ff8a8a" stroke="#b43f3f" cx="323" cy="-34" rx="36.2938" ry="18"/>
<text text-anchor="middle" x="323" y="-30.3" font-family="Times,serif" font-size="14.00">017 (a)</text>
</g>
<!-- 031&#45;&gt;017 -->
<g id="edge18" class="edge"><title>031&#45;&gt;017</title>
<path fill="none" stroke="#b43f3f" stroke-dasharray="1,5" d="M401.563,-106.74C391.818,-100.594 380.488,-92.906 371,-85 361.276,-76.8971 351.439,-67.0115 343.224,-58.1762"/>
<polygon fill="#b43f3f" stroke="#b43f3f" points="345.786,-55.7913 336.466,-50.7535 340.61,-60.504 345.786,-55.7913"/>
<text text-anchor="middle" x="393" y="-73.8" font-family="Times,serif" font-size="14.00">1 (94.3)</text>
</g>
<!-- 013 -->
<g id="node20" class="node"><title>013</title>
<ellipse fill="#ff8a8a" stroke="#b43f3f" cx="414" cy="-34" rx="36.2938" ry="18"/>
<text text-anchor="middle" x="414" y="-30.3" font-family="Times,serif" font-size="14.00">013 (a)</text>
</g>
<!-- 031&#45;&gt;013 -->
<g id="edge19" class="edge"><title>031&#45;&gt;013</title>
<path fill="none" stroke="#b43f3f" stroke-dasharray="1,5" d="M421.976,-102.799C420.607,-91.1626 418.77,-75.5479 417.204,-62.2368"/>
<polygon fill="#b43f3f" stroke="#b43f3f" points="420.665,-61.698 416.021,-52.1754 413.713,-62.5159 420.665,-61.698"/>
<text text-anchor="middle" x="442" y="-73.8" font-family="Times,serif" font-size="14.00">1 (97.1)</text>
</g>
<!-- 030 -->
<g id="node21" class="node"><title>030</title>
<ellipse fill="#ff8a8a" stroke="#b43f3f" cx="505" cy="-34" rx="36.2938" ry="18"/>
<text text-anchor="middle" x="505" y="-30.3" font-family="Times,serif" font-size="14.00">030 (a)</text>
</g>
<!-- 07&#45;&gt;030 -->
<g id="edge20" class="edge"><title>07&#45;&gt;030</title>
<path fill="none" stroke="#b43f3f" stroke-dasharray="1,5" d="M508.988,-102.799C508.304,-91.1626 507.385,-75.5479 506.602,-62.2368"/>
<polygon fill="#b43f3f" stroke="#b43f3f" points="510.092,-61.9526 506.01,-52.1754 503.104,-62.3637 510.092,-61.9526"/>
<text text-anchor="middle" x="530" y="-73.8" font-family="Times,serif" font-size="14.00">1 (95.1)</text>
</g>
<!-- 037 -->
<g id="node22" class="node"><title>037</title>
<ellipse fill="#ff8a8a" stroke="#b43f3f" cx="596" cy="-34" rx="36.2938" ry="18"/>
<text text-anchor="middle" x="596" y="-30.3" font-family="Times,serif" font-size="14.00">037 (a)</text>
</g>
<!-- 07&#45;&gt;037 -->
<g id="edge21" class="edge"><title>07&#45;&gt;037</title>
<path fill="none" stroke="#b43f3f" stroke-dasharray="1,5" d="M529.655,-106.687C538.147,-100.531 547.957,-92.8501 556,-85 563.995,-77.1968 571.878,-67.8144 578.504,-59.2954"/>
<polygon fill="#b43f3f" stroke="#b43f3f" points="581.422,-61.2397 584.669,-51.1546 575.841,-57.0138 581.422,-61.2397"/>
<text text-anchor="middle" x="592" y="-73.8" font-family="Times,serif" font-size="14.00">1 (97.5)</text>
</g>
<!-- 038 -->
<g id="node27" class="node"><title>038</title>
<ellipse fill="#ff8a8a" stroke="#b43f3f" cx="687" cy="-34" rx="36.2938" ry="18"/>
<text text-anchor="middle" x="687" y="-30.3" font-family="Times,serif" font-size="14.00">038 (a)</text>
</g>
<!-- 045&#45;&gt;038 -->
<g id="edge26" class="edge"><title>045&#45;&gt;038</title>
<path fill="none" stroke="#b43f3f" stroke-dasharray="1,5" d="M612.269,-104.804C626.416,-91.5898 647.1,-72.2693 663.123,-57.3029"/>
<polygon fill="#b43f3f" stroke="#b43f3f" points="665.646,-59.7352 670.565,-50.3513 660.868,-54.6196 665.646,-59.7352"/>
<text text-anchor="middle" x="669" y="-73.8" font-family="Times,serif" font-size="14.00">1 (92.7)</text>
</g>
<!-- leg_s -->
<g id="node28" class="node"><title>leg_s</title>
<text text-anchor="middle" x="846" y="-378.3" font-family="Times,serif" font-size="14.00">Textual flow strength</text>
</g>
<!-- leg_e1 -->
<!-- leg_s&#45;&gt;leg_e1 -->
<g id="edge27" class="edge"><title>leg_s&#45;&gt;leg_e1</title>
<path fill="none" stroke="black" stroke-dasharray="1,5" d="M827.666,-363.686C822.132,-358.194 816.161,-351.989 811,-346 801.171,-334.593 791.072,-320.779 783.914,-310.563"/>
<polygon fill="black" stroke="black" points="786.614,-308.314 778.056,-302.068 780.851,-312.288 786.614,-308.314"/>
<text text-anchor="middle" x="826.5" y="-334.8" font-family="Times,serif" font-size="14.00">&lt;=5 &#160;</text>
</g>
<!-- leg_e2 -->
<!-- leg_s&#45;&gt;leg_e2 -->
<g id="edge28" class="edge"><title>leg_s&#45;&gt;leg_e2</title>
<path fill="none" stroke="black" stroke-dasharray="5,2" d="M846,-363.799C846,-348.794 846,-327.174 846,-312.409"/>
<polygon fill="black" stroke="black" points="849.5,-312.293 846,-302.293 842.5,-312.293 849.5,-312.293"/>
<text text-anchor="middle" x="865" y="-334.8" font-family="Times,serif" font-size="14.00"> &#160;&lt;=25</text>
</g>
<!-- leg_e3 -->
<!-- leg_s&#45;&gt;leg_e3 -->
<g id="edge29" class="edge"><title>leg_s&#45;&gt;leg_e3</title>
<path fill="none" stroke="black" d="M869.503,-363.76C875.906,-358.462 882.567,-352.344 888,-346 897.087,-335.39 905.095,-321.689 910.546,-311.313"/>
<polygon fill="black" stroke="black" points="913.722,-312.789 915.091,-302.283 907.469,-309.642 913.722,-312.789"/>
<text text-anchor="middle" x="909" y="-334.8" font-family="Times,serif" font-size="14.00">&gt;25</text>
</g>
</g>
</svg>
