<?xml version="1.0" encoding="UTF-8" standalone="no"?>
<!DOCTYPE svg PUBLIC "-//W3C//DTD SVG 1.1//EN"
 "http://www.w3.org/Graphics/SVG/1.1/DTD/svg11.dtd">
<!-- Generated by graphviz version 2.38.0 (20140413.2041)
 -->
<!-- Title: %3 Pages: 1 -->
<svg width="1389pt" height="234pt"
 viewBox="0.00 0.00 1388.95 234.00" xmlns="http://www.w3.org/2000/svg" xmlns:xlink="http://www.w3.org/1999/xlink">
<g id="graph0" class="graph" transform="scale(1 1) rotate(0) translate(4 230)">
<title>%3</title>
<polygon fill="white" stroke="none" points="-4,4 -4,-230 1384.95,-230 1384.95,4 -4,4"/>
<g id="clust1" class="cluster"><title>cluster_legend</title>
<path fill="none" stroke="black" d="M20,-90C20,-90 210,-90 210,-90 216,-90 222,-96 222,-102 222,-102 222,-206 222,-206 222,-212 216,-218 210,-218 210,-218 20,-218 20,-218 14,-218 8,-212 8,-206 8,-206 8,-102 8,-102 8,-96 14,-90 20,-90"/>
</g>
<!-- leg_s -->
<g id="node1" class="node"><title>leg_s</title>
<text text-anchor="middle" x="115" y="-188.3" font-family="Times,serif" font-size="14.00">Textual flow strength</text>
</g>
<!-- leg_e1 -->
<!-- leg_s&#45;&gt;leg_e1 -->
<g id="edge1" class="edge"><title>leg_s&#45;&gt;leg_e1</title>
<path fill="none" stroke="black" stroke-dasharray="1,5" d="M96.6657,-173.686C91.1324,-168.194 85.1607,-161.989 80,-156 70.1708,-144.593 60.0722,-130.779 52.9137,-120.563"/>
<polygon fill="black" stroke="black" points="55.6142,-118.314 47.056,-112.068 49.8514,-122.288 55.6142,-118.314"/>
<text text-anchor="middle" x="95.5" y="-144.8" font-family="Times,serif" font-size="14.00">&lt;=5 &#160;</text>
</g>
<!-- leg_e2 -->
<!-- leg_s&#45;&gt;leg_e2 -->
<g id="edge2" class="edge"><title>leg_s&#45;&gt;leg_e2</title>
<path fill="none" stroke="black" stroke-dasharray="5,2" d="M115,-173.799C115,-158.794 115,-137.174 115,-122.409"/>
<polygon fill="black" stroke="black" points="118.5,-122.293 115,-112.293 111.5,-122.293 118.5,-122.293"/>
<text text-anchor="middle" x="134" y="-144.8" font-family="Times,serif" font-size="14.00"> &#160;&lt;=25</text>
</g>
<!-- leg_e3 -->
<!-- leg_s&#45;&gt;leg_e3 -->
<g id="edge3" class="edge"><title>leg_s&#45;&gt;leg_e3</title>
<path fill="none" stroke="black" d="M138.503,-173.76C144.906,-168.462 151.567,-162.344 157,-156 166.087,-145.39 174.095,-131.689 179.546,-121.313"/>
<polygon fill="black" stroke="black" points="182.722,-122.789 184.091,-112.283 176.469,-119.642 182.722,-122.789"/>
<text text-anchor="middle" x="179" y="-144.8" font-family="Times,serif" font-size="14.00">&gt;25</text>
</g>
<!-- 063 -->
<g id="node5" class="node"><title>063</title>
<ellipse fill="#ff8a8a" stroke="#b43f3f" cx="486" cy="-192" rx="36.2938" ry="18"/>
<text text-anchor="middle" x="486" y="-188.3" font-family="Times,serif" font-size="14.00">063 (a)</text>
</g>
<!-- 045 -->
<g id="node6" class="node"><title>045</title>
<ellipse fill="#ff8a8a" stroke="#b43f3f" cx="268" cy="-105" rx="36.2938" ry="18"/>
<text text-anchor="middle" x="268" y="-101.3" font-family="Times,serif" font-size="14.00">045 (a)</text>
</g>
<!-- 063&#45;&gt;045 -->
<g id="edge4" class="edge"><title>063&#45;&gt;045</title>
<path fill="none" stroke="#b43f3f" stroke-dasharray="1,5" d="M451.046,-186.919C419.785,-182.335 373.283,-173.172 336,-156 320.428,-148.828 304.886,-137.767 292.599,-127.871"/>
<polygon fill="#b43f3f" stroke="#b43f3f" points="294.581,-124.967 284.653,-121.268 290.107,-130.351 294.581,-124.967"/>
<text text-anchor="middle" x="358" y="-144.8" font-family="Times,serif" font-size="14.00">1 (93.1)</text>
</g>
<!-- 07 -->
<g id="node7" class="node"><title>07</title>
<ellipse fill="#ff8a8a" stroke="#b43f3f" cx="354" cy="-105" rx="31.6951" ry="18"/>
<text text-anchor="middle" x="354" y="-101.3" font-family="Times,serif" font-size="14.00">07 (a)</text>
</g>
<!-- 063&#45;&gt;07 -->
<g id="edge5" class="edge"><title>063&#45;&gt;07</title>
<path fill="none" stroke="#b43f3f" stroke-dasharray="1,5" d="M455.307,-182.187C438.114,-176.379 416.818,-167.674 400,-156 389.762,-148.894 380.139,-139.136 372.368,-130.127"/>
<polygon fill="#b43f3f" stroke="#b43f3f" points="374.854,-127.641 365.787,-122.16 369.458,-132.099 374.854,-127.641"/>
<text text-anchor="middle" x="422" y="-144.8" font-family="Times,serif" font-size="14.00">1 (96.6)</text>
</g>
<!-- 028 -->
<g id="node8" class="node"><title>028</title>
<ellipse fill="#ff8a8a" stroke="#b43f3f" cx="441" cy="-105" rx="36.2938" ry="18"/>
<text text-anchor="middle" x="441" y="-101.3" font-family="Times,serif" font-size="14.00">028 (a)</text>
</g>
<!-- 063&#45;&gt;028 -->
<g id="edge6" class="edge"><title>063&#45;&gt;028</title>
<path fill="none" stroke="#b43f3f" stroke-dasharray="1,5" d="M469.211,-175.909C463.672,-170.158 457.929,-163.235 454,-156 450.131,-148.876 447.373,-140.549 445.425,-132.757"/>
<polygon fill="#b43f3f" stroke="#b43f3f" points="448.842,-132 443.304,-122.968 442.001,-133.482 448.842,-132"/>
<text text-anchor="middle" x="476" y="-144.8" font-family="Times,serif" font-size="14.00">1 (96.6)</text>
</g>
<!-- 021 -->
<g id="node9" class="node"><title>021</title>
<ellipse fill="#ff8a8a" stroke="#b43f3f" cx="532" cy="-105" rx="36.2938" ry="18"/>
<text text-anchor="middle" x="532" y="-101.3" font-family="Times,serif" font-size="14.00">021 (a)</text>
</g>
<!-- 063&#45;&gt;021 -->
<g id="edge7" class="edge"><title>063&#45;&gt;021</title>
<path fill="none" stroke="#b43f3f" stroke-dasharray="1,5" d="M495.088,-174.207C501.683,-162.021 510.722,-145.318 518.205,-131.491"/>
<polygon fill="#b43f3f" stroke="#b43f3f" points="521.406,-132.93 523.087,-122.469 515.25,-129.598 521.406,-132.93"/>
<text text-anchor="middle" x="534" y="-144.8" font-family="Times,serif" font-size="14.00">1 (93.1)</text>
</g>
<!-- 031 -->
<g id="node10" class="node"><title>031</title>
<ellipse fill="#ff8a8a" stroke="#b43f3f" cx="625" cy="-105" rx="36.2938" ry="18"/>
<text text-anchor="middle" x="625" y="-101.3" font-family="Times,serif" font-size="14.00">031 (a)</text>
</g>
<!-- 063&#45;&gt;031 -->
<g id="edge8" class="edge"><title>063&#45;&gt;031</title>
<path fill="none" stroke="#b43f3f" stroke-dasharray="1,5" d="M513.09,-179.858C527.421,-173.554 545.086,-165.118 560,-156 573.782,-147.574 588.115,-136.795 599.804,-127.405"/>
<polygon fill="#b43f3f" stroke="#b43f3f" points="602.276,-129.905 607.803,-120.865 597.845,-124.485 602.276,-129.905"/>
<text text-anchor="middle" x="603" y="-144.8" font-family="Times,serif" font-size="14.00">1 (95.8)</text>
</g>
<!-- 011 -->
<g id="node11" class="node"><title>011</title>
<ellipse fill="#ff8a8a" stroke="#b43f3f" cx="716" cy="-105" rx="36.2938" ry="18"/>
<text text-anchor="middle" x="716" y="-101.3" font-family="Times,serif" font-size="14.00">011 (a)</text>
</g>
<!-- 063&#45;&gt;011 -->
<g id="edge9" class="edge"><title>063&#45;&gt;011</title>
<path fill="none" stroke="#b43f3f" stroke-dasharray="1,5" d="M520.061,-185.46C549.57,-180.008 593.052,-170.393 629,-156 649.196,-147.914 670.39,-135.82 686.803,-125.551"/>
<polygon fill="#b43f3f" stroke="#b43f3f" points="688.844,-128.4 695.393,-120.071 685.08,-122.499 688.844,-128.4"/>
<text text-anchor="middle" x="681" y="-144.8" font-family="Times,serif" font-size="14.00">1 (93.1)</text>
</g>
<!-- 034 -->
<g id="node12" class="node"><title>034</title>
<ellipse fill="#ff8a8a" stroke="#b43f3f" cx="262" cy="-18" rx="36.2938" ry="18"/>
<text text-anchor="middle" x="262" y="-14.3" font-family="Times,serif" font-size="14.00">034 (a)</text>
</g>
<!-- 07&#45;&gt;034 -->
<g id="edge10" class="edge"><title>07&#45;&gt;034</title>
<path fill="none" stroke="#b43f3f" stroke-dasharray="1,5" d="M333.623,-90.6257C324.787,-84.4576 314.533,-76.7852 306,-69 297.326,-61.0861 288.61,-51.5834 281.25,-42.9974"/>
<polygon fill="#b43f3f" stroke="#b43f3f" points="283.761,-40.5445 274.655,-35.1283 278.396,-45.0408 283.761,-40.5445"/>
<text text-anchor="middle" x="328" y="-57.8" font-family="Times,serif" font-size="14.00">1 (95.1)</text>
</g>
<!-- 030 -->
<g id="node13" class="node"><title>030</title>
<ellipse fill="#ff8a8a" stroke="#b43f3f" cx="353" cy="-18" rx="36.2938" ry="18"/>
<text text-anchor="middle" x="353" y="-14.3" font-family="Times,serif" font-size="14.00">030 (a)</text>
</g>
<!-- 07&#45;&gt;030 -->
<g id="edge11" class="edge"><title>07&#45;&gt;030</title>
<path fill="none" stroke="#b43f3f" stroke-dasharray="1,5" d="M353.798,-86.799C353.661,-75.1626 353.477,-59.5479 353.32,-46.2368"/>
<polygon fill="#b43f3f" stroke="#b43f3f" points="356.82,-46.1335 353.202,-36.1754 349.82,-46.216 356.82,-46.1335"/>
<text text-anchor="middle" x="376" y="-57.8" font-family="Times,serif" font-size="14.00">1 (95.1)</text>
</g>
<!-- 036 -->
<g id="node14" class="node"><title>036</title>
<ellipse fill="#ff8a8a" stroke="#b43f3f" cx="444" cy="-18" rx="36.2938" ry="18"/>
<text text-anchor="middle" x="444" y="-14.3" font-family="Times,serif" font-size="14.00">036 (a)</text>
</g>
<!-- 021&#45;&gt;036 -->
<g id="edge12" class="edge"><title>021&#45;&gt;036</title>
<path fill="none" stroke="#b43f3f" stroke-dasharray="1,5" d="M511.52,-89.9283C503.259,-83.8738 493.846,-76.4764 486,-69 477.666,-61.0584 469.335,-51.5499 462.316,-42.9672"/>
<polygon fill="#b43f3f" stroke="#b43f3f" points="465.009,-40.7301 456.031,-35.1034 459.54,-45.1003 465.009,-40.7301"/>
<text text-anchor="middle" x="508" y="-57.8" font-family="Times,serif" font-size="14.00">1 (97.6)</text>
</g>
<!-- 047 -->
<g id="node15" class="node"><title>047</title>
<ellipse fill="#ff8a8a" stroke="#b43f3f" cx="535" cy="-18" rx="36.2938" ry="18"/>
<text text-anchor="middle" x="535" y="-14.3" font-family="Times,serif" font-size="14.00">047 (a)</text>
</g>
<!-- 021&#45;&gt;047 -->
<g id="edge13" class="edge"><title>021&#45;&gt;047</title>
<path fill="none" stroke="#b43f3f" stroke-dasharray="1,5" d="M532.607,-86.799C533.018,-75.1626 533.569,-59.5479 534.039,-46.2368"/>
<polygon fill="#b43f3f" stroke="#b43f3f" points="537.539,-46.2927 534.394,-36.1754 530.543,-46.0457 537.539,-46.2927"/>
<text text-anchor="middle" x="556" y="-57.8" font-family="Times,serif" font-size="14.00">1 (95.1)</text>
</g>
<!-- 017 -->
<g id="node18" class="node"><title>017</title>
<ellipse fill="#ff8a8a" stroke="#b43f3f" cx="626" cy="-18" rx="36.2938" ry="18"/>
<text text-anchor="middle" x="626" y="-14.3" font-family="Times,serif" font-size="14.00">017 (a)</text>
</g>
<!-- 031&#45;&gt;017 -->
<g id="edge15" class="edge"><title>031&#45;&gt;017</title>
<path fill="none" stroke="#b43f3f" stroke-dasharray="1,5" d="M625.202,-86.799C625.339,-75.1626 625.523,-59.5479 625.68,-46.2368"/>
<polygon fill="#b43f3f" stroke="#b43f3f" points="629.18,-46.216 625.798,-36.1754 622.18,-46.1335 629.18,-46.216"/>
<text text-anchor="middle" x="648" y="-57.8" font-family="Times,serif" font-size="14.00">1 (94.3)</text>
</g>
<!-- 013 -->
<g id="node19" class="node"><title>013</title>
<ellipse fill="#ff8a8a" stroke="#b43f3f" cx="717" cy="-18" rx="36.2938" ry="18"/>
<text text-anchor="middle" x="717" y="-14.3" font-family="Times,serif" font-size="14.00">013 (a)</text>
</g>
<!-- 031&#45;&gt;013 -->
<g id="edge16" class="edge"><title>031&#45;&gt;013</title>
<path fill="none" stroke="#b43f3f" stroke-dasharray="1,5" d="M646.35,-90.4023C655.27,-84.3103 665.511,-76.7574 674,-69 682.583,-61.1573 691.122,-51.6692 698.302,-43.0751"/>
<polygon fill="#b43f3f" stroke="#b43f3f" points="701.122,-45.155 704.727,-35.1922 695.696,-40.7326 701.122,-45.155"/>
<text text-anchor="middle" x="711" y="-57.8" font-family="Times,serif" font-size="14.00">1 (97.1)</text>
</g>
<!-- 044 -->
<g id="node16" class="node"><title>044</title>
<ellipse fill="#ff8a8a" stroke="#b43f3f" cx="811" cy="-192" rx="36.2938" ry="18"/>
<text text-anchor="middle" x="811" y="-188.3" font-family="Times,serif" font-size="14.00">044 (a)</text>
</g>
<!-- 0141 -->
<g id="node17" class="node"><title>0141</title>
<ellipse fill="#ff8a8a" stroke="#b43f3f" cx="811" cy="-105" rx="40.0939" ry="18"/>
<text text-anchor="middle" x="811" y="-101.3" font-family="Times,serif" font-size="14.00">0141 (a)</text>
</g>
<!-- 044&#45;&gt;0141 -->
<g id="edge14" class="edge"><title>044&#45;&gt;0141</title>
<path fill="none" stroke="#b43f3f" stroke-dasharray="1,5" d="M811,-173.799C811,-162.163 811,-146.548 811,-133.237"/>
<polygon fill="#b43f3f" stroke="#b43f3f" points="814.5,-133.175 811,-123.175 807.5,-133.175 814.5,-133.175"/>
<text text-anchor="middle" x="833" y="-144.8" font-family="Times,serif" font-size="14.00">1 (89.2)</text>
</g>
<!-- 03 -->
<g id="node20" class="node"><title>03</title>
<ellipse fill="#cea8f4" stroke="#835da9" cx="902" cy="-192" rx="32.4942" ry="18"/>
<text text-anchor="middle" x="902" y="-188.3" font-family="Times,serif" font-size="14.00">03 (b)</text>
</g>
<!-- 02 -->
<g id="node21" class="node"><title>02</title>
<ellipse fill="#cea8f4" stroke="#835da9" cx="902" cy="-105" rx="32.4942" ry="18"/>
<text text-anchor="middle" x="902" y="-101.3" font-family="Times,serif" font-size="14.00">02 (b)</text>
</g>
<!-- 03&#45;&gt;02 -->
<g id="edge17" class="edge"><title>03&#45;&gt;02</title>
<path fill="none" stroke="#835da9" stroke-dasharray="1,5" d="M902,-173.799C902,-162.163 902,-146.548 902,-133.237"/>
<polygon fill="#835da9" stroke="#835da9" points="905.5,-133.175 902,-123.175 898.5,-133.175 905.5,-133.175"/>
<text text-anchor="middle" x="924" y="-144.8" font-family="Times,serif" font-size="14.00">1 (86.5)</text>
</g>
<!-- 038 -->
<g id="node22" class="node"><title>038</title>
<ellipse fill="#cea8f4" stroke="#835da9" cx="989" cy="-192" rx="36.2938" ry="18"/>
<text text-anchor="middle" x="989" y="-188.3" font-family="Times,serif" font-size="14.00">038 (b)</text>
</g>
<!-- P75 -->
<g id="node23" class="node"><title>P75</title>
<ellipse fill="#cea8f4" stroke="#835da9" cx="1080" cy="-192" rx="37.0935" ry="18"/>
<text text-anchor="middle" x="1080" y="-188.3" font-family="Times,serif" font-size="14.00">P75 (b)</text>
</g>
<!-- 05 -->
<g id="node24" class="node"><title>05</title>
<ellipse fill="#72fe95" stroke="#27b34a" cx="1167" cy="-192" rx="31.6951" ry="18"/>
<text text-anchor="middle" x="1167" y="-188.3" font-family="Times,serif" font-size="14.00">05 (c)</text>
</g>
<!-- 01 -->
<g id="node25" class="node"><title>01</title>
<ellipse fill="#72fe95" stroke="#27b34a" cx="1249" cy="-192" rx="31.6951" ry="18"/>
<text text-anchor="middle" x="1249" y="-188.3" font-family="Times,serif" font-size="14.00">01 (c)</text>
</g>
<!-- 0211 -->
<g id="node26" class="node"><title>0211</title>
<ellipse fill="#ff86c2" stroke="#b43b77" cx="1340" cy="-192" rx="40.8928" ry="18"/>
<text text-anchor="middle" x="1340" y="-188.3" font-family="Times,serif" font-size="14.00">0211 (d)</text>
</g>
</g>
</svg>
