<?xml version="1.0" encoding="UTF-8" standalone="no"?>
<!DOCTYPE svg PUBLIC "-//W3C//DTD SVG 1.1//EN"
 "http://www.w3.org/Graphics/SVG/1.1/DTD/svg11.dtd">
<!-- Generated by graphviz version 2.38.0 (20140413.2041)
 -->
<!-- Title: %3 Pages: 1 -->
<svg width="880pt" height="424pt"
 viewBox="0.00 0.00 880.00 424.00" xmlns="http://www.w3.org/2000/svg" xmlns:xlink="http://www.w3.org/1999/xlink">
<g id="graph0" class="graph" transform="scale(1 1) rotate(0) translate(4 420)">
<title>%3</title>
<polygon fill="white" stroke="none" points="-4,4 -4,-420 876,-420 876,4 -4,4"/>
<g id="clust1" class="cluster"><title>cluster_legend</title>
<path fill="none" stroke="black" d="M20,-280C20,-280 210,-280 210,-280 216,-280 222,-286 222,-292 222,-292 222,-396 222,-396 222,-402 216,-408 210,-408 210,-408 20,-408 20,-408 14,-408 8,-402 8,-396 8,-396 8,-292 8,-292 8,-286 14,-280 20,-280"/>
</g>
<g id="clust2" class="cluster"><title>cluster_reading</title>
<polygon fill="none" stroke="black" points="230,-8 230,-408 864,-408 864,-8 230,-8"/>
</g>
<!-- leg_s -->
<g id="node1" class="node"><title>leg_s</title>
<text text-anchor="middle" x="115" y="-378.3" font-family="Times,serif" font-size="14.00">Textual flow strength</text>
</g>
<!-- leg_e1 -->
<!-- leg_s&#45;&gt;leg_e1 -->
<g id="edge1" class="edge"><title>leg_s&#45;&gt;leg_e1</title>
<path fill="none" stroke="black" stroke-dasharray="1,5" d="M96.6657,-363.686C91.1324,-358.194 85.1607,-351.989 80,-346 70.1708,-334.593 60.0722,-320.779 52.9137,-310.563"/>
<polygon fill="black" stroke="black" points="55.6142,-308.314 47.056,-302.068 49.8514,-312.288 55.6142,-308.314"/>
<text text-anchor="middle" x="95.5" y="-334.8" font-family="Times,serif" font-size="14.00">&lt;=5 &#160;</text>
</g>
<!-- leg_e2 -->
<!-- leg_s&#45;&gt;leg_e2 -->
<g id="edge2" class="edge"><title>leg_s&#45;&gt;leg_e2</title>
<path fill="none" stroke="black" stroke-dasharray="5,2" d="M115,-363.799C115,-348.794 115,-327.174 115,-312.409"/>
<polygon fill="black" stroke="black" points="118.5,-312.293 115,-302.293 111.5,-312.293 118.5,-312.293"/>
<text text-anchor="middle" x="134" y="-334.8" font-family="Times,serif" font-size="14.00"> &#160;&lt;=25</text>
</g>
<!-- leg_e3 -->
<!-- leg_s&#45;&gt;leg_e3 -->
<g id="edge3" class="edge"><title>leg_s&#45;&gt;leg_e3</title>
<path fill="none" stroke="black" d="M138.503,-363.76C144.906,-358.462 151.567,-352.344 157,-346 166.087,-335.39 174.095,-321.689 179.546,-311.313"/>
<polygon fill="black" stroke="black" points="182.722,-312.789 184.091,-302.283 176.469,-309.642 182.722,-312.789"/>
<text text-anchor="middle" x="179" y="-334.8" font-family="Times,serif" font-size="14.00">&gt;25</text>
</g>
<!-- 031 -->
<g id="node5" class="node"><title>031</title>
<ellipse fill="#ff8a8a" stroke="#b43f3f" cx="274" cy="-121" rx="36.2938" ry="18"/>
<text text-anchor="middle" x="274" y="-117.3" font-family="Times,serif" font-size="14.00">031 (a)</text>
</g>
<!-- 01 -->
<g id="node6" class="node"><title>01</title>
<ellipse fill="#ff8a8a" stroke="#b43f3f" cx="270" cy="-34" rx="31.6951" ry="18"/>
<text text-anchor="middle" x="270" y="-30.3" font-family="Times,serif" font-size="14.00">01 (a)</text>
</g>
<!-- 031&#45;&gt;01 -->
<g id="edge4" class="edge"><title>031&#45;&gt;01</title>
<path fill="none" stroke="#b43f3f" stroke-dasharray="1,5" d="M273.191,-102.799C272.643,-91.1626 271.908,-75.5479 271.282,-62.2368"/>
<polygon fill="#b43f3f" stroke="#b43f3f" points="274.775,-61.9998 270.808,-52.1754 267.782,-62.3289 274.775,-61.9998"/>
<text text-anchor="middle" x="295" y="-73.8" font-family="Times,serif" font-size="14.00">2 (48.5)</text>
</g>
<!-- 013 -->
<g id="node7" class="node"><title>013</title>
<ellipse fill="#ff8a8a" stroke="#b43f3f" cx="356" cy="-34" rx="36.2938" ry="18"/>
<text text-anchor="middle" x="356" y="-30.3" font-family="Times,serif" font-size="14.00">013 (a)</text>
</g>
<!-- 031&#45;&gt;013 -->
<g id="edge5" class="edge"><title>031&#45;&gt;013</title>
<path fill="none" stroke="#b43f3f" stroke-dasharray="1,5" d="M295.288,-106.336C303.785,-100.344 313.346,-92.8826 321,-85 328.156,-77.6311 334.911,-68.6736 340.542,-60.3872"/>
<polygon fill="#b43f3f" stroke="#b43f3f" points="343.636,-62.0512 346.178,-51.7659 337.777,-58.2209 343.636,-62.0512"/>
<text text-anchor="middle" x="355" y="-73.8" font-family="Times,serif" font-size="14.00">1 (97.1)</text>
</g>
<!-- 017 -->
<g id="node8" class="node"><title>017</title>
<ellipse fill="#ff8a8a" stroke="#b43f3f" cx="447" cy="-34" rx="36.2938" ry="18"/>
<text text-anchor="middle" x="447" y="-30.3" font-family="Times,serif" font-size="14.00">017 (a)</text>
</g>
<!-- 031&#45;&gt;017 -->
<g id="edge6" class="edge"><title>031&#45;&gt;017</title>
<path fill="none" stroke="#b43f3f" stroke-dasharray="1,5" d="M302.114,-109.271C307.998,-107.121 314.182,-104.931 320,-103 346.828,-94.0956 355.768,-97.742 381,-85 395.909,-77.4711 410.88,-66.4769 422.786,-56.7139"/>
<polygon fill="#b43f3f" stroke="#b43f3f" points="425.111,-59.3313 430.5,-50.2092 420.599,-53.9798 425.111,-59.3313"/>
<text text-anchor="middle" x="427" y="-73.8" font-family="Times,serif" font-size="14.00">1 (94.3)</text>
</g>
<!-- 044 -->
<g id="node9" class="node"><title>044</title>
<ellipse fill="#ff8a8a" stroke="#b43f3f" cx="539" cy="-295" rx="36.2938" ry="18"/>
<text text-anchor="middle" x="539" y="-291.3" font-family="Times,serif" font-size="14.00">044 (a)</text>
</g>
<!-- 022 -->
<g id="node10" class="node"><title>022</title>
<ellipse fill="#ff8a8a" stroke="#b43f3f" cx="275" cy="-208" rx="36.2938" ry="18"/>
<text text-anchor="middle" x="275" y="-204.3" font-family="Times,serif" font-size="14.00">022 (a)</text>
</g>
<!-- 044&#45;&gt;022 -->
<g id="edge7" class="edge"><title>044&#45;&gt;022</title>
<path fill="none" stroke="#b43f3f" stroke-dasharray="1,5" d="M503.599,-290.546C466.98,-286.172 408.596,-276.937 361,-259 340.682,-251.343 319.58,-239.148 303.363,-228.719"/>
<polygon fill="#b43f3f" stroke="#b43f3f" points="305.171,-225.719 294.893,-223.147 301.323,-231.567 305.171,-225.719"/>
<text text-anchor="middle" x="383" y="-247.8" font-family="Times,serif" font-size="14.00">1 (91.7)</text>
</g>
<!-- 011 -->
<g id="node11" class="node"><title>011</title>
<ellipse fill="#ff8a8a" stroke="#b43f3f" cx="367" cy="-208" rx="36.2938" ry="18"/>
<text text-anchor="middle" x="367" y="-204.3" font-family="Times,serif" font-size="14.00">011 (a)</text>
</g>
<!-- 044&#45;&gt;011 -->
<g id="edge8" class="edge"><title>044&#45;&gt;011</title>
<path fill="none" stroke="#b43f3f" stroke-dasharray="1,5" d="M506.626,-286.68C484.528,-280.934 455.021,-271.76 431,-259 416.771,-251.442 402.494,-240.669 391.046,-231.058"/>
<polygon fill="#b43f3f" stroke="#b43f3f" points="393.108,-228.214 383.252,-224.327 388.533,-233.512 393.108,-228.214"/>
<text text-anchor="middle" x="453" y="-247.8" font-family="Times,serif" font-size="14.00">2 (86.5)</text>
</g>
<!-- 07 -->
<g id="node12" class="node"><title>07</title>
<ellipse fill="#ff8a8a" stroke="#b43f3f" cx="453" cy="-208" rx="31.6951" ry="18"/>
<text text-anchor="middle" x="453" y="-204.3" font-family="Times,serif" font-size="14.00">07 (a)</text>
</g>
<!-- 044&#45;&gt;07 -->
<g id="edge9" class="edge"><title>044&#45;&gt;07</title>
<path fill="none" stroke="#b43f3f" stroke-dasharray="1,5" d="M517.396,-280.25C508.74,-274.245 498.954,-266.798 491,-259 483.175,-251.329 475.638,-241.975 469.368,-233.442"/>
<polygon fill="#b43f3f" stroke="#b43f3f" points="472.206,-231.394 463.557,-225.275 466.503,-235.452 472.206,-231.394"/>
<text text-anchor="middle" x="513" y="-247.8" font-family="Times,serif" font-size="14.00">2 (83.8)</text>
</g>
<!-- 045 -->
<g id="node13" class="node"><title>045</title>
<ellipse fill="#ff8a8a" stroke="#b43f3f" cx="539" cy="-208" rx="36.2938" ry="18"/>
<text text-anchor="middle" x="539" y="-204.3" font-family="Times,serif" font-size="14.00">045 (a)</text>
</g>
<!-- 044&#45;&gt;045 -->
<g id="edge10" class="edge"><title>044&#45;&gt;045</title>
<path fill="none" stroke="#b43f3f" stroke-dasharray="1,5" d="M539,-276.799C539,-265.163 539,-249.548 539,-236.237"/>
<polygon fill="#b43f3f" stroke="#b43f3f" points="542.5,-236.175 539,-226.175 535.5,-236.175 542.5,-236.175"/>
<text text-anchor="middle" x="561" y="-247.8" font-family="Times,serif" font-size="14.00">2 (81.1)</text>
</g>
<!-- 021 -->
<g id="node14" class="node"><title>021</title>
<ellipse fill="#ff8a8a" stroke="#b43f3f" cx="630" cy="-208" rx="36.2938" ry="18"/>
<text text-anchor="middle" x="630" y="-204.3" font-family="Times,serif" font-size="14.00">021 (a)</text>
</g>
<!-- 044&#45;&gt;021 -->
<g id="edge11" class="edge"><title>044&#45;&gt;021</title>
<path fill="none" stroke="#b43f3f" stroke-dasharray="1,5" d="M560.372,-280.006C568.992,-273.963 578.814,-266.554 587,-259 595.544,-251.115 604.076,-241.619 611.26,-233.029"/>
<polygon fill="#b43f3f" stroke="#b43f3f" points="614.077,-235.113 617.692,-225.155 608.656,-230.685 614.077,-235.113"/>
<text text-anchor="middle" x="623" y="-247.8" font-family="Times,serif" font-size="14.00">2 (83.8)</text>
</g>
<!-- 028 -->
<g id="node15" class="node"><title>028</title>
<ellipse fill="#ff8a8a" stroke="#b43f3f" cx="721" cy="-208" rx="36.2938" ry="18"/>
<text text-anchor="middle" x="721" y="-204.3" font-family="Times,serif" font-size="14.00">028 (a)</text>
</g>
<!-- 044&#45;&gt;028 -->
<g id="edge12" class="edge"><title>044&#45;&gt;028</title>
<path fill="none" stroke="#b43f3f" stroke-dasharray="1,5" d="M566.465,-283.171C572.224,-281.028 578.284,-278.867 584,-277 612.495,-267.694 621.861,-271.729 649,-259 665.389,-251.313 682.091,-239.975 695.278,-230.039"/>
<polygon fill="#b43f3f" stroke="#b43f3f" points="697.626,-232.648 703.398,-223.764 693.345,-227.109 697.626,-232.648"/>
<text text-anchor="middle" x="696" y="-247.8" font-family="Times,serif" font-size="14.00">2 (81.1)</text>
</g>
<!-- 0141 -->
<g id="node16" class="node"><title>0141</title>
<ellipse fill="#ff8a8a" stroke="#b43f3f" cx="816" cy="-208" rx="40.0939" ry="18"/>
<text text-anchor="middle" x="816" y="-204.3" font-family="Times,serif" font-size="14.00">0141 (a)</text>
</g>
<!-- 044&#45;&gt;0141 -->
<g id="edge13" class="edge"><title>044&#45;&gt;0141</title>
<path fill="none" stroke="#b43f3f" stroke-dasharray="1,5" d="M565.804,-282.717C571.716,-280.556 578.005,-278.502 584,-277 643.999,-261.97 663.082,-277.826 722,-259 744.491,-251.813 767.94,-239.35 785.792,-228.666"/>
<polygon fill="#b43f3f" stroke="#b43f3f" points="787.885,-231.487 794.582,-223.278 784.227,-225.519 787.885,-231.487"/>
<text text-anchor="middle" x="779" y="-247.8" font-family="Times,serif" font-size="14.00">1 (89.2)</text>
</g>
<!-- 022&#45;&gt;031 -->
<g id="edge14" class="edge"><title>022&#45;&gt;031</title>
<path fill="none" stroke="#b43f3f" stroke-dasharray="1,5" d="M274.798,-189.799C274.661,-178.163 274.477,-162.548 274.32,-149.237"/>
<polygon fill="#b43f3f" stroke="#b43f3f" points="277.82,-149.134 274.202,-139.175 270.82,-149.216 277.82,-149.134"/>
<text text-anchor="middle" x="297" y="-160.8" font-family="Times,serif" font-size="14.00">2 (86.7)</text>
</g>
<!-- 037 -->
<g id="node20" class="node"><title>037</title>
<ellipse fill="#ff8a8a" stroke="#b43f3f" cx="365" cy="-121" rx="36.2938" ry="18"/>
<text text-anchor="middle" x="365" y="-117.3" font-family="Times,serif" font-size="14.00">037 (a)</text>
</g>
<!-- 07&#45;&gt;037 -->
<g id="edge18" class="edge"><title>07&#45;&gt;037</title>
<path fill="none" stroke="#b43f3f" stroke-dasharray="1,5" d="M433.433,-193.595C424.958,-187.422 415.137,-179.753 407,-172 398.666,-164.058 390.335,-154.55 383.316,-145.967"/>
<polygon fill="#b43f3f" stroke="#b43f3f" points="386.009,-143.73 377.031,-138.103 380.54,-148.1 386.009,-143.73"/>
<text text-anchor="middle" x="429" y="-160.8" font-family="Times,serif" font-size="14.00">1 (97.5)</text>
</g>
<!-- 034 -->
<g id="node21" class="node"><title>034</title>
<ellipse fill="#ff8a8a" stroke="#b43f3f" cx="456" cy="-121" rx="36.2938" ry="18"/>
<text text-anchor="middle" x="456" y="-117.3" font-family="Times,serif" font-size="14.00">034 (a)</text>
</g>
<!-- 07&#45;&gt;034 -->
<g id="edge19" class="edge"><title>07&#45;&gt;034</title>
<path fill="none" stroke="#b43f3f" stroke-dasharray="1,5" d="M453.607,-189.799C454.018,-178.163 454.569,-162.548 455.039,-149.237"/>
<polygon fill="#b43f3f" stroke="#b43f3f" points="458.539,-149.293 455.394,-139.175 451.543,-149.046 458.539,-149.293"/>
<text text-anchor="middle" x="477" y="-160.8" font-family="Times,serif" font-size="14.00">1 (95.1)</text>
</g>
<!-- 030 -->
<g id="node22" class="node"><title>030</title>
<ellipse fill="#ff8a8a" stroke="#b43f3f" cx="547" cy="-121" rx="36.2938" ry="18"/>
<text text-anchor="middle" x="547" y="-117.3" font-family="Times,serif" font-size="14.00">030 (a)</text>
</g>
<!-- 07&#45;&gt;030 -->
<g id="edge20" class="edge"><title>07&#45;&gt;030</title>
<path fill="none" stroke="#b43f3f" stroke-dasharray="1,5" d="M473.776,-194.075C483.098,-187.876 493.998,-180.055 503,-172 511.75,-164.17 520.482,-154.685 527.833,-146.089"/>
<polygon fill="#b43f3f" stroke="#b43f3f" points="530.693,-148.124 534.413,-138.204 525.319,-143.639 530.693,-148.124"/>
<text text-anchor="middle" x="540" y="-160.8" font-family="Times,serif" font-size="14.00">1 (95.1)</text>
</g>
<!-- 038 -->
<g id="node23" class="node"><title>038</title>
<ellipse fill="#ff8a8a" stroke="#b43f3f" cx="638" cy="-121" rx="36.2938" ry="18"/>
<text text-anchor="middle" x="638" y="-117.3" font-family="Times,serif" font-size="14.00">038 (a)</text>
</g>
<!-- 045&#45;&gt;038 -->
<g id="edge21" class="edge"><title>045&#45;&gt;038</title>
<path fill="none" stroke="#b43f3f" stroke-dasharray="1,5" d="M556.699,-191.804C572.326,-178.387 595.285,-158.674 612.823,-143.616"/>
<polygon fill="#b43f3f" stroke="#b43f3f" points="615.147,-146.235 620.454,-137.065 610.587,-140.923 615.147,-146.235"/>
<text text-anchor="middle" x="617" y="-160.8" font-family="Times,serif" font-size="14.00">1 (92.7)</text>
</g>
<!-- 036 -->
<g id="node24" class="node"><title>036</title>
<ellipse fill="#ff8a8a" stroke="#b43f3f" cx="729" cy="-121" rx="36.2938" ry="18"/>
<text text-anchor="middle" x="729" y="-117.3" font-family="Times,serif" font-size="14.00">036 (a)</text>
</g>
<!-- 021&#45;&gt;036 -->
<g id="edge22" class="edge"><title>021&#45;&gt;036</title>
<path fill="none" stroke="#b43f3f" stroke-dasharray="1,5" d="M647.699,-191.804C663.326,-178.387 686.285,-158.674 703.823,-143.616"/>
<polygon fill="#b43f3f" stroke="#b43f3f" points="706.147,-146.235 711.454,-137.065 701.587,-140.923 706.147,-146.235"/>
<text text-anchor="middle" x="707" y="-160.8" font-family="Times,serif" font-size="14.00">1 (97.6)</text>
</g>
<!-- 047 -->
<g id="node25" class="node"><title>047</title>
<ellipse fill="#ff8a8a" stroke="#b43f3f" cx="820" cy="-121" rx="36.2938" ry="18"/>
<text text-anchor="middle" x="820" y="-117.3" font-family="Times,serif" font-size="14.00">047 (a)</text>
</g>
<!-- 021&#45;&gt;047 -->
<g id="edge23" class="edge"><title>021&#45;&gt;047</title>
<path fill="none" stroke="#b43f3f" stroke-dasharray="1,5" d="M658.143,-196.356C664.025,-194.2 670.201,-191.986 676,-190 701.134,-181.393 708.675,-182.681 733,-172 752.784,-163.313 773.82,-151.307 790.25,-141.237"/>
<polygon fill="#b43f3f" stroke="#b43f3f" points="792.226,-144.13 798.867,-135.875 788.527,-138.186 792.226,-144.13"/>
<text text-anchor="middle" x="784" y="-160.8" font-family="Times,serif" font-size="14.00">1 (95.1)</text>
</g>
<!-- 03 -->
<g id="node17" class="node"><title>03</title>
<ellipse fill="#ff8a8a" stroke="#b43f3f" cx="625" cy="-382" rx="31.6951" ry="18"/>
<text text-anchor="middle" x="625" y="-378.3" font-family="Times,serif" font-size="14.00">03 (a)</text>
</g>
<!-- 03&#45;&gt;044 -->
<g id="edge15" class="edge"><title>03&#45;&gt;044</title>
<path fill="none" stroke="#b43f3f" stroke-dasharray="1,5" d="M604.353,-367.912C595.467,-361.796 585.248,-354.086 577,-346 569.175,-338.329 561.638,-328.975 555.368,-320.442"/>
<polygon fill="#b43f3f" stroke="#b43f3f" points="558.206,-318.394 549.557,-312.275 552.503,-322.452 558.206,-318.394"/>
<text text-anchor="middle" x="599" y="-334.8" font-family="Times,serif" font-size="14.00">1 (89.2)</text>
</g>
<!-- 02 -->
<g id="node18" class="node"><title>02</title>
<ellipse fill="#ff8a8a" stroke="#b43f3f" cx="625" cy="-295" rx="31.6951" ry="18"/>
<text text-anchor="middle" x="625" y="-291.3" font-family="Times,serif" font-size="14.00">02 (a)</text>
</g>
<!-- 03&#45;&gt;02 -->
<g id="edge16" class="edge"><title>03&#45;&gt;02</title>
<path fill="none" stroke="#b43f3f" stroke-dasharray="1,5" d="M625,-363.799C625,-352.163 625,-336.548 625,-323.237"/>
<polygon fill="#b43f3f" stroke="#b43f3f" points="628.5,-323.175 625,-313.175 621.5,-323.175 628.5,-323.175"/>
<text text-anchor="middle" x="647" y="-334.8" font-family="Times,serif" font-size="14.00">1 (86.5)</text>
</g>
<!-- 032 -->
<g id="node19" class="node"><title>032</title>
<ellipse fill="#ff8a8a" stroke="#b43f3f" cx="711" cy="-295" rx="36.2938" ry="18"/>
<text text-anchor="middle" x="711" y="-291.3" font-family="Times,serif" font-size="14.00">032 (a)</text>
</g>
<!-- 03&#45;&gt;032 -->
<g id="edge17" class="edge"><title>03&#45;&gt;032</title>
<path fill="none" stroke="#b43f3f" stroke-dasharray="1,5" d="M645.647,-367.912C654.533,-361.796 664.752,-354.086 673,-346 680.825,-338.329 688.362,-328.975 694.632,-320.442"/>
<polygon fill="#b43f3f" stroke="#b43f3f" points="697.497,-322.452 700.443,-312.275 691.794,-318.394 697.497,-322.452"/>
<text text-anchor="middle" x="707" y="-334.8" font-family="Times,serif" font-size="14.00">1 (91.7)</text>
</g>
<!-- P75 -->
<g id="node26" class="node"><title>P75</title>
<ellipse fill="#ff8a8a" stroke="#b43f3f" cx="496" cy="-382" rx="36.2938" ry="18"/>
<text text-anchor="middle" x="496" y="-378.3" font-family="Times,serif" font-size="14.00">P75 (a)</text>
</g>
<!-- 019 -->
<g id="node27" class="node"><title>019</title>
<ellipse fill="#ff8a8a" stroke="#b43f3f" cx="318" cy="-382" rx="36.2938" ry="18"/>
<text text-anchor="middle" x="318" y="-378.3" font-family="Times,serif" font-size="14.00">019 (a)</text>
</g>
</g>
</svg>
