<?xml version="1.0" encoding="UTF-8" standalone="no"?>
<!DOCTYPE svg PUBLIC "-//W3C//DTD SVG 1.1//EN"
 "http://www.w3.org/Graphics/SVG/1.1/DTD/svg11.dtd">
<!-- Generated by graphviz version 2.38.0 (20140413.2041)
 -->
<!-- Title: %3 Pages: 1 -->
<svg width="1295pt" height="321pt"
 viewBox="0.00 0.00 1295.24 321.00" xmlns="http://www.w3.org/2000/svg" xmlns:xlink="http://www.w3.org/1999/xlink">
<g id="graph0" class="graph" transform="scale(1 1) rotate(0) translate(4 317)">
<title>%3</title>
<polygon fill="white" stroke="none" points="-4,4 -4,-317 1291.24,-317 1291.24,4 -4,4"/>
<g id="clust1" class="cluster"><title>cluster_legend</title>
<path fill="none" stroke="black" d="M375.847,-177C375.847,-177 565.847,-177 565.847,-177 571.847,-177 577.847,-183 577.847,-189 577.847,-189 577.847,-293 577.847,-293 577.847,-299 571.847,-305 565.847,-305 565.847,-305 375.847,-305 375.847,-305 369.847,-305 363.847,-299 363.847,-293 363.847,-293 363.847,-189 363.847,-189 363.847,-183 369.847,-177 375.847,-177"/>
</g>
<!-- leg_s -->
<g id="node1" class="node"><title>leg_s</title>
<text text-anchor="middle" x="470.847" y="-275.3" font-family="Times,serif" font-size="14.00">Textual flow strength</text>
</g>
<!-- leg_e1 -->
<!-- leg_s&#45;&gt;leg_e1 -->
<g id="edge1" class="edge"><title>leg_s&#45;&gt;leg_e1</title>
<path fill="none" stroke="black" stroke-dasharray="1,5" d="M452.513,-260.686C446.98,-255.194 441.008,-248.989 435.847,-243 426.018,-231.593 415.919,-217.779 408.761,-207.563"/>
<polygon fill="black" stroke="black" points="411.461,-205.314 402.903,-199.068 405.699,-209.288 411.461,-205.314"/>
<text text-anchor="middle" x="451.347" y="-231.8" font-family="Times,serif" font-size="14.00">&lt;=5 &#160;</text>
</g>
<!-- leg_e2 -->
<!-- leg_s&#45;&gt;leg_e2 -->
<g id="edge2" class="edge"><title>leg_s&#45;&gt;leg_e2</title>
<path fill="none" stroke="black" stroke-dasharray="5,2" d="M470.847,-260.799C470.847,-245.794 470.847,-224.174 470.847,-209.409"/>
<polygon fill="black" stroke="black" points="474.347,-209.293 470.847,-199.293 467.347,-209.293 474.347,-209.293"/>
<text text-anchor="middle" x="489.847" y="-231.8" font-family="Times,serif" font-size="14.00"> &#160;&lt;=25</text>
</g>
<!-- leg_e3 -->
<!-- leg_s&#45;&gt;leg_e3 -->
<g id="edge3" class="edge"><title>leg_s&#45;&gt;leg_e3</title>
<path fill="none" stroke="black" d="M494.351,-260.76C500.753,-255.462 507.414,-249.344 512.847,-243 521.935,-232.39 529.942,-218.689 535.394,-208.313"/>
<polygon fill="black" stroke="black" points="538.569,-209.789 539.938,-199.283 532.316,-206.642 538.569,-209.789"/>
<text text-anchor="middle" x="534.847" y="-231.8" font-family="Times,serif" font-size="14.00">&gt;25</text>
</g>
<!-- 031 -->
<g id="node5" class="node"><title>031</title>
<ellipse fill="#ff8a8a" stroke="#b43f3f" cx="161.847" cy="-105" rx="36.2938" ry="18"/>
<text text-anchor="middle" x="161.847" y="-101.3" font-family="Times,serif" font-size="14.00">031 (a)</text>
</g>
<!-- 01 -->
<g id="node6" class="node"><title>01</title>
<ellipse fill="#ff8a8a" stroke="#b43f3f" cx="31.8472" cy="-18" rx="31.6951" ry="18"/>
<text text-anchor="middle" x="31.8472" y="-14.3" font-family="Times,serif" font-size="14.00">01 (a)</text>
</g>
<!-- 031&#45;&gt;01 -->
<g id="edge4" class="edge"><title>031&#45;&gt;01</title>
<path fill="none" stroke="#b43f3f" stroke-dasharray="1,5" d="M134.127,-93.1439C119.783,-86.9768 102.299,-78.5789 87.8472,-69 75.846,-61.0455 63.7746,-50.6457 53.9283,-41.392"/>
<polygon fill="#b43f3f" stroke="#b43f3f" points="56.1823,-38.7035 46.5527,-34.2852 51.3252,-43.7442 56.1823,-38.7035"/>
<text text-anchor="middle" x="109.847" y="-57.8" font-family="Times,serif" font-size="14.00">2 (48.5)</text>
</g>
<!-- 017 -->
<g id="node7" class="node"><title>017</title>
<ellipse fill="#ff8a8a" stroke="#b43f3f" cx="117.847" cy="-18" rx="36.2938" ry="18"/>
<text text-anchor="middle" x="117.847" y="-14.3" font-family="Times,serif" font-size="14.00">017 (a)</text>
</g>
<!-- 031&#45;&gt;017 -->
<g id="edge5" class="edge"><title>031&#45;&gt;017</title>
<path fill="none" stroke="#b43f3f" stroke-dasharray="1,5" d="M152.647,-87.3266C149.497,-81.5458 145.979,-75.0085 142.847,-69 138.765,-61.1684 134.426,-52.5866 130.529,-44.7776"/>
<polygon fill="#b43f3f" stroke="#b43f3f" points="133.623,-43.1385 126.041,-35.738 127.353,-46.2513 133.623,-43.1385"/>
<text text-anchor="middle" x="164.847" y="-57.8" font-family="Times,serif" font-size="14.00">1 (94.3)</text>
</g>
<!-- 013 -->
<g id="node8" class="node"><title>013</title>
<ellipse fill="#ff8a8a" stroke="#b43f3f" cx="208.847" cy="-18" rx="36.2938" ry="18"/>
<text text-anchor="middle" x="208.847" y="-14.3" font-family="Times,serif" font-size="14.00">013 (a)</text>
</g>
<!-- 031&#45;&gt;013 -->
<g id="edge6" class="edge"><title>031&#45;&gt;013</title>
<path fill="none" stroke="#b43f3f" stroke-dasharray="1,5" d="M174.269,-88.0793C178.531,-82.2502 183.154,-75.49 186.847,-69 191.069,-61.5818 195.041,-53.1997 198.418,-45.4483"/>
<polygon fill="#b43f3f" stroke="#b43f3f" points="201.704,-46.6624 202.35,-36.0873 195.25,-43.9513 201.704,-46.6624"/>
<text text-anchor="middle" x="216.847" y="-57.8" font-family="Times,serif" font-size="14.00">1 (97.1)</text>
</g>
<!-- 021 -->
<g id="node9" class="node"><title>021</title>
<ellipse fill="#ff8a8a" stroke="#b43f3f" cx="390.847" cy="-105" rx="36.2938" ry="18"/>
<text text-anchor="middle" x="390.847" y="-101.3" font-family="Times,serif" font-size="14.00">021 (a)</text>
</g>
<!-- 047 -->
<g id="node10" class="node"><title>047</title>
<ellipse fill="#ff8a8a" stroke="#b43f3f" cx="299.847" cy="-18" rx="36.2938" ry="18"/>
<text text-anchor="middle" x="299.847" y="-14.3" font-family="Times,serif" font-size="14.00">047 (a)</text>
</g>
<!-- 021&#45;&gt;047 -->
<g id="edge7" class="edge"><title>021&#45;&gt;047</title>
<path fill="none" stroke="#b43f3f" stroke-dasharray="1,5" d="M369.476,-90.006C360.855,-83.9634 351.033,-76.5539 342.847,-69 334.303,-61.1154 325.771,-51.6186 318.587,-43.0293"/>
<polygon fill="#b43f3f" stroke="#b43f3f" points="321.191,-40.6853 312.155,-35.1545 315.77,-45.1135 321.191,-40.6853"/>
<text text-anchor="middle" x="364.847" y="-57.8" font-family="Times,serif" font-size="14.00">1 (95.1)</text>
</g>
<!-- 036 -->
<g id="node11" class="node"><title>036</title>
<ellipse fill="#ff8a8a" stroke="#b43f3f" cx="390.847" cy="-18" rx="36.2938" ry="18"/>
<text text-anchor="middle" x="390.847" y="-14.3" font-family="Times,serif" font-size="14.00">036 (a)</text>
</g>
<!-- 021&#45;&gt;036 -->
<g id="edge8" class="edge"><title>021&#45;&gt;036</title>
<path fill="none" stroke="#b43f3f" stroke-dasharray="1,5" d="M390.847,-86.799C390.847,-75.1626 390.847,-59.5479 390.847,-46.2368"/>
<polygon fill="#b43f3f" stroke="#b43f3f" points="394.347,-46.1754 390.847,-36.1754 387.347,-46.1755 394.347,-46.1754"/>
<text text-anchor="middle" x="412.847" y="-57.8" font-family="Times,serif" font-size="14.00">1 (97.6)</text>
</g>
<!-- 063 -->
<g id="node12" class="node"><title>063</title>
<ellipse fill="#ff8a8a" stroke="#b43f3f" cx="623.847" cy="-192" rx="36.2938" ry="18"/>
<text text-anchor="middle" x="623.847" y="-188.3" font-family="Times,serif" font-size="14.00">063 (a)</text>
</g>
<!-- 063&#45;&gt;031 -->
<g id="edge9" class="edge"><title>063&#45;&gt;031</title>
<path fill="none" stroke="#b43f3f" stroke-dasharray="1,5" d="M597.531,-179.17C592.407,-177.205 587.019,-175.365 581.847,-174 522.895,-158.438 506.107,-165.288 445.847,-156 360.372,-142.826 260.934,-124.664 205.298,-114.244"/>
<polygon fill="#b43f3f" stroke="#b43f3f" points="205.907,-110.798 195.433,-112.392 204.615,-117.677 205.907,-110.798"/>
<text text-anchor="middle" x="467.847" y="-144.8" font-family="Times,serif" font-size="14.00">1 (95.8)</text>
</g>
<!-- 063&#45;&gt;021 -->
<g id="edge10" class="edge"><title>063&#45;&gt;021</title>
<path fill="none" stroke="#b43f3f" stroke-dasharray="1,5" d="M596.802,-179.856C591.842,-177.869 586.7,-175.845 581.847,-174 529.598,-154.135 468.671,-132.748 429.941,-119.372"/>
<polygon fill="#b43f3f" stroke="#b43f3f" points="430.706,-115.934 420.111,-115.985 428.425,-122.552 430.706,-115.934"/>
<text text-anchor="middle" x="551.847" y="-144.8" font-family="Times,serif" font-size="14.00">1 (93.1)</text>
</g>
<!-- 07 -->
<g id="node13" class="node"><title>07</title>
<ellipse fill="#ff8a8a" stroke="#b43f3f" cx="580.847" cy="-105" rx="31.6951" ry="18"/>
<text text-anchor="middle" x="580.847" y="-101.3" font-family="Times,serif" font-size="14.00">07 (a)</text>
</g>
<!-- 063&#45;&gt;07 -->
<g id="edge11" class="edge"><title>063&#45;&gt;07</title>
<path fill="none" stroke="#b43f3f" stroke-dasharray="1,5" d="M609.064,-175.178C604.323,-169.465 599.39,-162.753 595.847,-156 592.142,-148.937 589.212,-140.822 586.962,-133.213"/>
<polygon fill="#b43f3f" stroke="#b43f3f" points="590.274,-132.049 584.306,-123.295 583.512,-133.86 590.274,-132.049"/>
<text text-anchor="middle" x="617.847" y="-144.8" font-family="Times,serif" font-size="14.00">1 (96.6)</text>
</g>
<!-- 045 -->
<g id="node14" class="node"><title>045</title>
<ellipse fill="#ff8a8a" stroke="#b43f3f" cx="666.847" cy="-105" rx="36.2938" ry="18"/>
<text text-anchor="middle" x="666.847" y="-101.3" font-family="Times,serif" font-size="14.00">045 (a)</text>
</g>
<!-- 063&#45;&gt;045 -->
<g id="edge12" class="edge"><title>063&#45;&gt;045</title>
<path fill="none" stroke="#b43f3f" stroke-dasharray="1,5" d="M632.343,-174.207C638.468,-162.099 646.848,-145.533 653.816,-131.759"/>
<polygon fill="#b43f3f" stroke="#b43f3f" points="656.978,-133.262 658.369,-122.758 650.732,-130.102 656.978,-133.262"/>
<text text-anchor="middle" x="670.847" y="-144.8" font-family="Times,serif" font-size="14.00">1 (93.1)</text>
</g>
<!-- 028 -->
<g id="node15" class="node"><title>028</title>
<ellipse fill="#ff8a8a" stroke="#b43f3f" cx="757.847" cy="-105" rx="36.2938" ry="18"/>
<text text-anchor="middle" x="757.847" y="-101.3" font-family="Times,serif" font-size="14.00">028 (a)</text>
</g>
<!-- 063&#45;&gt;028 -->
<g id="edge13" class="edge"><title>063&#45;&gt;028</title>
<path fill="none" stroke="#b43f3f" stroke-dasharray="1,5" d="M651.022,-179.839C665.125,-173.588 682.382,-165.208 696.847,-156 709.734,-147.797 722.974,-137.248 733.812,-127.955"/>
<polygon fill="#b43f3f" stroke="#b43f3f" points="736.364,-130.373 741.585,-121.154 731.755,-125.105 736.364,-130.373"/>
<text text-anchor="middle" x="738.847" y="-144.8" font-family="Times,serif" font-size="14.00">1 (96.6)</text>
</g>
<!-- 011 -->
<g id="node16" class="node"><title>011</title>
<ellipse fill="#ff8a8a" stroke="#b43f3f" cx="848.847" cy="-105" rx="36.2938" ry="18"/>
<text text-anchor="middle" x="848.847" y="-101.3" font-family="Times,serif" font-size="14.00">011 (a)</text>
</g>
<!-- 063&#45;&gt;011 -->
<g id="edge14" class="edge"><title>063&#45;&gt;011</title>
<path fill="none" stroke="#b43f3f" stroke-dasharray="1,5" d="M657.773,-185.476C686.897,-180.058 729.623,-170.483 764.847,-156 784.135,-148.069 804.261,-136.232 819.976,-126.065"/>
<polygon fill="#b43f3f" stroke="#b43f3f" points="822.265,-128.747 828.679,-120.315 818.406,-122.907 822.265,-128.747"/>
<text text-anchor="middle" x="815.847" y="-144.8" font-family="Times,serif" font-size="14.00">1 (93.1)</text>
</g>
<!-- 0211 -->
<g id="node17" class="node"><title>0211</title>
<ellipse fill="#ff8a8a" stroke="#b43f3f" cx="485.847" cy="-18" rx="40.0939" ry="18"/>
<text text-anchor="middle" x="485.847" y="-14.3" font-family="Times,serif" font-size="14.00">0211 (a)</text>
</g>
<!-- 07&#45;&gt;0211 -->
<g id="edge15" class="edge"><title>07&#45;&gt;0211</title>
<path fill="none" stroke="#b43f3f" stroke-dasharray="1,5" d="M561.062,-90.8221C552.144,-84.5722 541.662,-76.7806 532.847,-69 523.684,-60.9115 514.317,-51.2757 506.38,-42.6319"/>
<polygon fill="#b43f3f" stroke="#b43f3f" points="508.837,-40.1295 499.541,-35.0454 503.638,-44.8165 508.837,-40.1295"/>
<text text-anchor="middle" x="554.847" y="-57.8" font-family="Times,serif" font-size="14.00">2 (82.9)</text>
</g>
<!-- 030 -->
<g id="node18" class="node"><title>030</title>
<ellipse fill="#ff8a8a" stroke="#b43f3f" cx="580.847" cy="-18" rx="36.2938" ry="18"/>
<text text-anchor="middle" x="580.847" y="-14.3" font-family="Times,serif" font-size="14.00">030 (a)</text>
</g>
<!-- 07&#45;&gt;030 -->
<g id="edge16" class="edge"><title>07&#45;&gt;030</title>
<path fill="none" stroke="#b43f3f" stroke-dasharray="1,5" d="M580.847,-86.799C580.847,-75.1626 580.847,-59.5479 580.847,-46.2368"/>
<polygon fill="#b43f3f" stroke="#b43f3f" points="584.347,-46.1754 580.847,-36.1754 577.347,-46.1755 584.347,-46.1754"/>
<text text-anchor="middle" x="602.847" y="-57.8" font-family="Times,serif" font-size="14.00">1 (95.1)</text>
</g>
<!-- 037 -->
<g id="node19" class="node"><title>037</title>
<ellipse fill="#ff8a8a" stroke="#b43f3f" cx="671.847" cy="-18" rx="36.2938" ry="18"/>
<text text-anchor="middle" x="671.847" y="-14.3" font-family="Times,serif" font-size="14.00">037 (a)</text>
</g>
<!-- 07&#45;&gt;037 -->
<g id="edge17" class="edge"><title>07&#45;&gt;037</title>
<path fill="none" stroke="#b43f3f" stroke-dasharray="1,5" d="M601.266,-90.6717C610.11,-84.5121 620.358,-76.8337 628.847,-69 637.391,-61.1154 645.923,-51.6186 653.108,-43.0293"/>
<polygon fill="#b43f3f" stroke="#b43f3f" points="655.924,-45.1135 659.54,-35.1545 650.503,-40.6853 655.924,-45.1135"/>
<text text-anchor="middle" x="664.847" y="-57.8" font-family="Times,serif" font-size="14.00">1 (97.5)</text>
</g>
<!-- 034 -->
<g id="node20" class="node"><title>034</title>
<ellipse fill="#ff8a8a" stroke="#b43f3f" cx="762.847" cy="-18" rx="36.2938" ry="18"/>
<text text-anchor="middle" x="762.847" y="-14.3" font-family="Times,serif" font-size="14.00">034 (a)</text>
</g>
<!-- 07&#45;&gt;034 -->
<g id="edge18" class="edge"><title>07&#45;&gt;034</title>
<path fill="none" stroke="#b43f3f" stroke-dasharray="1,5" d="M605.354,-93.1938C610.736,-91.0026 616.442,-88.816 621.847,-87 651.89,-76.9066 662.054,-82.2431 690.847,-69 707.293,-61.4361 724,-50.107 737.175,-40.1444"/>
<polygon fill="#b43f3f" stroke="#b43f3f" points="739.532,-42.7454 745.284,-33.8482 735.239,-37.2162 739.532,-42.7454"/>
<text text-anchor="middle" x="738.847" y="-57.8" font-family="Times,serif" font-size="14.00">1 (95.1)</text>
</g>
<!-- 038 -->
<g id="node26" class="node"><title>038</title>
<ellipse fill="#ff8a8a" stroke="#b43f3f" cx="853.847" cy="-18" rx="36.2938" ry="18"/>
<text text-anchor="middle" x="853.847" y="-14.3" font-family="Times,serif" font-size="14.00">038 (a)</text>
</g>
<!-- 045&#45;&gt;038 -->
<g id="edge23" class="edge"><title>045&#45;&gt;038</title>
<path fill="none" stroke="#b43f3f" stroke-dasharray="1,5" d="M695.033,-93.4785C700.912,-91.3135 707.075,-89.0652 712.847,-87 735.874,-78.7606 742.542,-79.0293 764.847,-69 784.896,-59.9855 806.409,-47.9692 823.261,-37.9757"/>
<polygon fill="#b43f3f" stroke="#b43f3f" points="825.335,-40.8131 832.106,-32.6639 821.731,-34.8123 825.335,-40.8131"/>
<text text-anchor="middle" x="817.847" y="-57.8" font-family="Times,serif" font-size="14.00">1 (92.7)</text>
</g>
<!-- 019 -->
<g id="node21" class="node"><title>019</title>
<ellipse fill="#ff8a8a" stroke="#b43f3f" cx="623.847" cy="-279" rx="36.2938" ry="18"/>
<text text-anchor="middle" x="623.847" y="-275.3" font-family="Times,serif" font-size="14.00">019 (a)</text>
</g>
<!-- 019&#45;&gt;063 -->
<g id="edge19" class="edge"><title>019&#45;&gt;063</title>
<path fill="none" stroke="#b43f3f" stroke-dasharray="1,5" d="M623.847,-260.799C623.847,-249.163 623.847,-233.548 623.847,-220.237"/>
<polygon fill="#b43f3f" stroke="#b43f3f" points="627.347,-220.175 623.847,-210.175 620.347,-220.175 627.347,-220.175"/>
<text text-anchor="middle" x="645.847" y="-231.8" font-family="Times,serif" font-size="14.00">1 (85.7)</text>
</g>
<!-- 03 -->
<g id="node22" class="node"><title>03</title>
<ellipse fill="#ff8a8a" stroke="#b43f3f" cx="990.847" cy="-279" rx="31.6951" ry="18"/>
<text text-anchor="middle" x="990.847" y="-275.3" font-family="Times,serif" font-size="14.00">03 (a)</text>
</g>
<!-- 032 -->
<g id="node23" class="node"><title>032</title>
<ellipse fill="#ff8a8a" stroke="#b43f3f" cx="899.847" cy="-192" rx="36.2938" ry="18"/>
<text text-anchor="middle" x="899.847" y="-188.3" font-family="Times,serif" font-size="14.00">032 (a)</text>
</g>
<!-- 03&#45;&gt;032 -->
<g id="edge20" class="edge"><title>03&#45;&gt;032</title>
<path fill="none" stroke="#b43f3f" stroke-dasharray="1,5" d="M970.428,-264.672C961.585,-258.512 951.336,-250.834 942.847,-243 934.303,-235.115 925.771,-225.619 918.587,-217.029"/>
<polygon fill="#b43f3f" stroke="#b43f3f" points="921.191,-214.685 912.155,-209.155 915.77,-219.113 921.191,-214.685"/>
<text text-anchor="middle" x="964.847" y="-231.8" font-family="Times,serif" font-size="14.00">1 (91.7)</text>
</g>
<!-- 044 -->
<g id="node24" class="node"><title>044</title>
<ellipse fill="#ff8a8a" stroke="#b43f3f" cx="990.847" cy="-192" rx="36.2938" ry="18"/>
<text text-anchor="middle" x="990.847" y="-188.3" font-family="Times,serif" font-size="14.00">044 (a)</text>
</g>
<!-- 03&#45;&gt;044 -->
<g id="edge21" class="edge"><title>03&#45;&gt;044</title>
<path fill="none" stroke="#b43f3f" stroke-dasharray="1,5" d="M990.847,-260.799C990.847,-249.163 990.847,-233.548 990.847,-220.237"/>
<polygon fill="#b43f3f" stroke="#b43f3f" points="994.347,-220.175 990.847,-210.175 987.347,-220.175 994.347,-220.175"/>
<text text-anchor="middle" x="1012.85" y="-231.8" font-family="Times,serif" font-size="14.00">1 (89.2)</text>
</g>
<!-- 02 -->
<g id="node25" class="node"><title>02</title>
<ellipse fill="#cea8f4" stroke="#835da9" cx="1077.85" cy="-192" rx="32.4942" ry="18"/>
<text text-anchor="middle" x="1077.85" y="-188.3" font-family="Times,serif" font-size="14.00">02 (b)</text>
</g>
<!-- 03&#45;&gt;02 -->
<g id="edge22" class="edge"><title>03&#45;&gt;02</title>
<path fill="none" stroke="#835da9" stroke-dasharray="1,5" d="M1011.45,-264.862C1020.32,-258.738 1030.55,-251.034 1038.85,-243 1046.8,-235.304 1054.51,-225.945 1060.96,-217.414"/>
<polygon fill="#835da9" stroke="#835da9" points="1063.85,-219.388 1066.94,-209.252 1058.21,-215.25 1063.85,-219.388"/>
<text text-anchor="middle" x="1073.85" y="-231.8" font-family="Times,serif" font-size="14.00">1 (86.5)</text>
</g>
<!-- 0141 -->
<g id="node27" class="node"><title>0141</title>
<ellipse fill="#ff8a8a" stroke="#b43f3f" cx="943.847" cy="-105" rx="40.0939" ry="18"/>
<text text-anchor="middle" x="943.847" y="-101.3" font-family="Times,serif" font-size="14.00">0141 (a)</text>
</g>
<!-- 044&#45;&gt;0141 -->
<g id="edge24" class="edge"><title>044&#45;&gt;0141</title>
<path fill="none" stroke="#b43f3f" stroke-dasharray="1,5" d="M981.561,-174.207C974.867,-162.099 965.707,-145.533 958.09,-131.759"/>
<polygon fill="#b43f3f" stroke="#b43f3f" points="961.016,-129.816 953.114,-122.758 954.89,-133.203 961.016,-129.816"/>
<text text-anchor="middle" x="992.847" y="-144.8" font-family="Times,serif" font-size="14.00">1 (89.2)</text>
</g>
<!-- 022 -->
<g id="node28" class="node"><title>022</title>
<ellipse fill="#ff8a8a" stroke="#b43f3f" cx="1038.85" cy="-105" rx="36.2938" ry="18"/>
<text text-anchor="middle" x="1038.85" y="-101.3" font-family="Times,serif" font-size="14.00">022 (a)</text>
</g>
<!-- 044&#45;&gt;022 -->
<g id="edge25" class="edge"><title>044&#45;&gt;022</title>
<path fill="none" stroke="#b43f3f" stroke-dasharray="1,5" d="M1003.81,-175.139C1008.24,-169.316 1013.04,-162.544 1016.85,-156 1021.14,-148.622 1025.13,-140.251 1028.5,-132.498"/>
<polygon fill="#b43f3f" stroke="#b43f3f" points="1031.79,-133.706 1032.42,-123.13 1025.34,-131.004 1031.79,-133.706"/>
<text text-anchor="middle" x="1046.85" y="-144.8" font-family="Times,serif" font-size="14.00">1 (91.7)</text>
</g>
<!-- 091 -->
<g id="node29" class="node"><title>091</title>
<ellipse fill="#72fe95" stroke="#27b34a" cx="1159.85" cy="-279" rx="36.2938" ry="18"/>
<text text-anchor="middle" x="1159.85" y="-275.3" font-family="Times,serif" font-size="14.00">091 (c)</text>
</g>
<!-- 05 -->
<g id="node30" class="node"><title>05</title>
<ellipse fill="#72fe95" stroke="#27b34a" cx="1159.85" cy="-192" rx="31.6951" ry="18"/>
<text text-anchor="middle" x="1159.85" y="-188.3" font-family="Times,serif" font-size="14.00">05 (c)</text>
</g>
<!-- 091&#45;&gt;05 -->
<g id="edge26" class="edge"><title>091&#45;&gt;05</title>
<path fill="none" stroke="#27b34a" stroke-dasharray="1,5" d="M1159.85,-260.799C1159.85,-249.163 1159.85,-233.548 1159.85,-220.237"/>
<polygon fill="#27b34a" stroke="#27b34a" points="1163.35,-220.175 1159.85,-210.175 1156.35,-220.175 1163.35,-220.175"/>
<text text-anchor="middle" x="1181.85" y="-231.8" font-family="Times,serif" font-size="14.00">1 (87.5)</text>
</g>
<!-- P75 -->
<g id="node31" class="node"><title>P75</title>
<ellipse fill="#ff8a8a" stroke="#b43f3f" cx="1250.85" cy="-279" rx="36.2938" ry="18"/>
<text text-anchor="middle" x="1250.85" y="-275.3" font-family="Times,serif" font-size="14.00">P75 (a)</text>
</g>
</g>
</svg>
