<?xml version="1.0" encoding="UTF-8" standalone="no"?>
<!DOCTYPE svg PUBLIC "-//W3C//DTD SVG 1.1//EN"
 "http://www.w3.org/Graphics/SVG/1.1/DTD/svg11.dtd">
<!-- Generated by graphviz version 2.38.0 (20140413.2041)
 -->
<!-- Title: G Pages: 1 -->
<svg width="1001pt" height="305pt"
 viewBox="0.00 0.00 1001.40 305.00" xmlns="http://www.w3.org/2000/svg" xmlns:xlink="http://www.w3.org/1999/xlink">
<g id="graph0" class="graph" transform="scale(1 1) rotate(0) translate(4 301)">
<title>G</title>
<polygon fill="white" stroke="none" points="-4,4 -4,-301 997.397,-301 997.397,4 -4,4"/>
<!-- 013 (a) -->
<g id="node1" class="node"><title>013 (a)</title>
<ellipse fill="#ff8a8a" stroke="#b43f3f" cx="590.397" cy="-18" rx="36.2938" ry="18"/>
<text text-anchor="middle" x="590.397" y="-14.3" font-family="Times,serif" font-size="14.00">013 (a)</text>
</g>
<!-- 017 (a) -->
<g id="node2" class="node"><title>017 (a)</title>
<ellipse fill="#ff8a8a" stroke="#b43f3f" cx="681.397" cy="-18" rx="36.2938" ry="18"/>
<text text-anchor="middle" x="681.397" y="-14.3" font-family="Times,serif" font-size="14.00">017 (a)</text>
</g>
<!-- 032 (a) -->
<g id="node3" class="node"><title>032 (a)</title>
<ellipse fill="#ff8a8a" stroke="#b43f3f" cx="604.397" cy="-192" rx="36.2938" ry="18"/>
<text text-anchor="middle" x="604.397" y="-188.3" font-family="Times,serif" font-size="14.00">032 (a)</text>
</g>
<!-- 021 (a) -->
<g id="node4" class="node"><title>021 (a)</title>
<ellipse fill="#ff8a8a" stroke="#b43f3f" cx="127.397" cy="-105" rx="36.2938" ry="18"/>
<text text-anchor="middle" x="127.397" y="-101.3" font-family="Times,serif" font-size="14.00">021 (a)</text>
</g>
<!-- 036 (a) -->
<g id="node8" class="node"><title>036 (a)</title>
<ellipse fill="#ff8a8a" stroke="#b43f3f" cx="36.3968" cy="-18" rx="36.2938" ry="18"/>
<text text-anchor="middle" x="36.3968" y="-14.3" font-family="Times,serif" font-size="14.00">036 (a)</text>
</g>
<!-- 021 (a)&#45;&gt;036 (a) -->
<g id="edge1" class="edge"><title>021 (a)&#45;&gt;036 (a)</title>
<path fill="none" stroke="#b43f3f" d="M106.025,-90.006C97.4044,-83.9634 87.5824,-76.5539 79.3968,-69 70.8527,-61.1154 62.3211,-51.6186 55.1364,-43.0293"/>
<polygon fill="#b43f3f" stroke="#b43f3f" points="57.741,-40.6853 48.7043,-35.1545 52.3196,-45.1135 57.741,-40.6853"/>
<text text-anchor="middle" x="101.397" y="-57.8" font-family="Times,serif" font-size="14.00">1 (97.6)</text>
</g>
<!-- 047 (a) -->
<g id="node22" class="node"><title>047 (a)</title>
<ellipse fill="#ff8a8a" stroke="#b43f3f" cx="127.397" cy="-18" rx="36.2938" ry="18"/>
<text text-anchor="middle" x="127.397" y="-14.3" font-family="Times,serif" font-size="14.00">047 (a)</text>
</g>
<!-- 021 (a)&#45;&gt;047 (a) -->
<g id="edge2" class="edge"><title>021 (a)&#45;&gt;047 (a)</title>
<path fill="none" stroke="#b43f3f" d="M127.397,-86.799C127.397,-75.1626 127.397,-59.5479 127.397,-46.2368"/>
<polygon fill="#b43f3f" stroke="#b43f3f" points="130.897,-46.1754 127.397,-36.1754 123.897,-46.1755 130.897,-46.1754"/>
<text text-anchor="middle" x="149.397" y="-57.8" font-family="Times,serif" font-size="14.00">1 (95.1)</text>
</g>
<!-- 037 (a) -->
<g id="node5" class="node"><title>037 (a)</title>
<ellipse fill="#ff8a8a" stroke="#b43f3f" cx="218.397" cy="-18" rx="36.2938" ry="18"/>
<text text-anchor="middle" x="218.397" y="-14.3" font-family="Times,serif" font-size="14.00">037 (a)</text>
</g>
<!-- 05 (a) -->
<g id="node6" class="node"><title>05 (a)</title>
<ellipse fill="#ff8a8a" stroke="#b43f3f" cx="772.397" cy="-279" rx="31.6951" ry="18"/>
<text text-anchor="middle" x="772.397" y="-275.3" font-family="Times,serif" font-size="14.00">05 (a)</text>
</g>
<!-- 02 (a) -->
<g id="node7" class="node"><title>02 (a)</title>
<ellipse fill="#ff8a8a" stroke="#b43f3f" cx="690.397" cy="-192" rx="31.6951" ry="18"/>
<text text-anchor="middle" x="690.397" y="-188.3" font-family="Times,serif" font-size="14.00">02 (a)</text>
</g>
<!-- 07 (a) -->
<g id="node9" class="node"><title>07 (a)</title>
<ellipse fill="#ff8a8a" stroke="#b43f3f" cx="360.397" cy="-105" rx="31.6951" ry="18"/>
<text text-anchor="middle" x="360.397" y="-101.3" font-family="Times,serif" font-size="14.00">07 (a)</text>
</g>
<!-- 07 (a)&#45;&gt;037 (a) -->
<g id="edge6" class="edge"><title>07 (a)&#45;&gt;037 (a)</title>
<path fill="none" stroke="#b43f3f" d="M333.239,-95.1697C316.25,-89.0545 294.276,-80.0387 276.397,-69 263.777,-61.2082 251.141,-50.7118 240.9,-41.348"/>
<polygon fill="#b43f3f" stroke="#b43f3f" points="243.262,-38.7645 233.575,-34.4717 238.471,-43.868 243.262,-38.7645"/>
<text text-anchor="middle" x="298.397" y="-57.8" font-family="Times,serif" font-size="14.00">1 (97.5)</text>
</g>
<!-- 034 (a) -->
<g id="node12" class="node"><title>034 (a)</title>
<ellipse fill="#ff8a8a" stroke="#b43f3f" cx="309.397" cy="-18" rx="36.2938" ry="18"/>
<text text-anchor="middle" x="309.397" y="-14.3" font-family="Times,serif" font-size="14.00">034 (a)</text>
</g>
<!-- 07 (a)&#45;&gt;034 (a) -->
<g id="edge4" class="edge"><title>07 (a)&#45;&gt;034 (a)</title>
<path fill="none" stroke="#b43f3f" d="M346.715,-88.5741C341.857,-82.6828 336.565,-75.7544 332.397,-69 327.759,-61.4851 323.472,-52.8794 319.887,-44.95"/>
<polygon fill="#b43f3f" stroke="#b43f3f" points="323.078,-43.5118 315.886,-35.7321 316.657,-46.2989 323.078,-43.5118"/>
<text text-anchor="middle" x="354.397" y="-57.8" font-family="Times,serif" font-size="14.00">1 (95.1)</text>
</g>
<!-- 0211 (a) -->
<g id="node15" class="node"><title>0211 (a)</title>
<ellipse fill="#ff8a8a" stroke="#b43f3f" cx="404.397" cy="-18" rx="40.0939" ry="18"/>
<text text-anchor="middle" x="404.397" y="-14.3" font-family="Times,serif" font-size="14.00">0211 (a)</text>
</g>
<!-- 07 (a)&#45;&gt;0211 (a) -->
<g id="edge5" class="edge"><title>07 (a)&#45;&gt;0211 (a)</title>
<path fill="none" stroke="#b43f3f" d="M368.88,-87.6111C375.17,-75.4601 383.867,-58.6599 391.08,-44.7254"/>
<polygon fill="#b43f3f" stroke="#b43f3f" points="394.3,-46.1183 395.789,-35.6286 388.084,-42.9003 394.3,-46.1183"/>
<text text-anchor="middle" x="407.397" y="-57.8" font-family="Times,serif" font-size="14.00">2 (82.9)</text>
</g>
<!-- 030 (a) -->
<g id="node18" class="node"><title>030 (a)</title>
<ellipse fill="#ff8a8a" stroke="#b43f3f" cx="499.397" cy="-18" rx="36.2938" ry="18"/>
<text text-anchor="middle" x="499.397" y="-14.3" font-family="Times,serif" font-size="14.00">030 (a)</text>
</g>
<!-- 07 (a)&#45;&gt;030 (a) -->
<g id="edge3" class="edge"><title>07 (a)&#45;&gt;030 (a)</title>
<path fill="none" stroke="#b43f3f" d="M385.378,-93.5261C399.788,-87.1181 418.038,-78.3681 433.397,-69 447.321,-60.5068 461.867,-49.7205 473.749,-40.342"/>
<polygon fill="#b43f3f" stroke="#b43f3f" points="476.274,-42.8034 481.883,-33.8148 471.893,-37.3439 476.274,-42.8034"/>
<text text-anchor="middle" x="476.397" y="-57.8" font-family="Times,serif" font-size="14.00">1 (95.1)</text>
</g>
<!-- 03 (a) -->
<g id="node10" class="node"><title>03 (a)</title>
<ellipse fill="#ff8a8a" stroke="#b43f3f" cx="690.397" cy="-279" rx="31.6951" ry="18"/>
<text text-anchor="middle" x="690.397" y="-275.3" font-family="Times,serif" font-size="14.00">03 (a)</text>
</g>
<!-- 03 (a)&#45;&gt;032 (a) -->
<g id="edge8" class="edge"><title>03 (a)&#45;&gt;032 (a)</title>
<path fill="none" stroke="#b43f3f" d="M669.75,-264.912C660.864,-258.796 650.645,-251.086 642.397,-243 634.572,-235.329 627.035,-225.975 620.765,-217.442"/>
<polygon fill="#b43f3f" stroke="#b43f3f" points="623.603,-215.394 614.954,-209.275 617.899,-219.452 623.603,-215.394"/>
<text text-anchor="middle" x="664.397" y="-231.8" font-family="Times,serif" font-size="14.00">1 (91.7)</text>
</g>
<!-- 03 (a)&#45;&gt;02 (a) -->
<g id="edge9" class="edge"><title>03 (a)&#45;&gt;02 (a)</title>
<path fill="none" stroke="#b43f3f" d="M690.397,-260.799C690.397,-249.163 690.397,-233.548 690.397,-220.237"/>
<polygon fill="#b43f3f" stroke="#b43f3f" points="693.897,-220.175 690.397,-210.175 686.897,-220.175 693.897,-220.175"/>
<text text-anchor="middle" x="712.397" y="-231.8" font-family="Times,serif" font-size="14.00">1 (86.5)</text>
</g>
<!-- 044 (a) -->
<g id="node24" class="node"><title>044 (a)</title>
<ellipse fill="#ff8a8a" stroke="#b43f3f" cx="776.397" cy="-192" rx="36.2938" ry="18"/>
<text text-anchor="middle" x="776.397" y="-188.3" font-family="Times,serif" font-size="14.00">044 (a)</text>
</g>
<!-- 03 (a)&#45;&gt;044 (a) -->
<g id="edge7" class="edge"><title>03 (a)&#45;&gt;044 (a)</title>
<path fill="none" stroke="#b43f3f" d="M711.044,-264.912C719.93,-258.796 730.148,-251.086 738.397,-243 746.221,-235.329 753.759,-225.975 760.029,-217.442"/>
<polygon fill="#b43f3f" stroke="#b43f3f" points="762.894,-219.452 765.84,-209.275 757.191,-215.394 762.894,-219.452"/>
<text text-anchor="middle" x="773.397" y="-231.8" font-family="Times,serif" font-size="14.00">1 (89.2)</text>
</g>
<!-- P75 (a) -->
<g id="node11" class="node"><title>P75 (a)</title>
<ellipse fill="#ff8a8a" stroke="#b43f3f" cx="858.397" cy="-279" rx="36.2938" ry="18"/>
<text text-anchor="middle" x="858.397" y="-275.3" font-family="Times,serif" font-size="14.00">P75 (a)</text>
</g>
<!-- 019 (a) -->
<g id="node13" class="node"><title>019 (a)</title>
<ellipse fill="#ff8a8a" stroke="#b43f3f" cx="446.397" cy="-279" rx="36.2938" ry="18"/>
<text text-anchor="middle" x="446.397" y="-275.3" font-family="Times,serif" font-size="14.00">019 (a)</text>
</g>
<!-- 063 (a) -->
<g id="node25" class="node"><title>063 (a)</title>
<ellipse fill="#ff8a8a" stroke="#b43f3f" cx="446.397" cy="-192" rx="36.2938" ry="18"/>
<text text-anchor="middle" x="446.397" y="-188.3" font-family="Times,serif" font-size="14.00">063 (a)</text>
</g>
<!-- 019 (a)&#45;&gt;063 (a) -->
<g id="edge10" class="edge"><title>019 (a)&#45;&gt;063 (a)</title>
<path fill="none" stroke="#b43f3f" d="M446.397,-260.799C446.397,-249.163 446.397,-233.548 446.397,-220.237"/>
<polygon fill="#b43f3f" stroke="#b43f3f" points="449.897,-220.175 446.397,-210.175 442.897,-220.175 449.897,-220.175"/>
<text text-anchor="middle" x="468.397" y="-231.8" font-family="Times,serif" font-size="14.00">1 (85.7)</text>
</g>
<!-- 0141 (a) -->
<g id="node14" class="node"><title>0141 (a)</title>
<ellipse fill="#ff8a8a" stroke="#b43f3f" cx="729.397" cy="-105" rx="40.0939" ry="18"/>
<text text-anchor="middle" x="729.397" y="-101.3" font-family="Times,serif" font-size="14.00">0141 (a)</text>
</g>
<!-- 01 (a) -->
<g id="node16" class="node"><title>01 (a)</title>
<ellipse fill="#ff8a8a" stroke="#b43f3f" cx="767.397" cy="-18" rx="31.6951" ry="18"/>
<text text-anchor="middle" x="767.397" y="-14.3" font-family="Times,serif" font-size="14.00">01 (a)</text>
</g>
<!-- 011 (a) -->
<g id="node17" class="node"><title>011 (a)</title>
<ellipse fill="#ff8a8a" stroke="#b43f3f" cx="446.397" cy="-105" rx="36.2938" ry="18"/>
<text text-anchor="middle" x="446.397" y="-101.3" font-family="Times,serif" font-size="14.00">011 (a)</text>
</g>
<!-- 028 (a) -->
<g id="node19" class="node"><title>028 (a)</title>
<ellipse fill="#ff8a8a" stroke="#b43f3f" cx="537.397" cy="-105" rx="36.2938" ry="18"/>
<text text-anchor="middle" x="537.397" y="-101.3" font-family="Times,serif" font-size="14.00">028 (a)</text>
</g>
<!-- 022 (a) -->
<g id="node20" class="node"><title>022 (a)</title>
<ellipse fill="#ff8a8a" stroke="#b43f3f" cx="824.397" cy="-105" rx="36.2938" ry="18"/>
<text text-anchor="middle" x="824.397" y="-101.3" font-family="Times,serif" font-size="14.00">022 (a)</text>
</g>
<!-- 038 (b) -->
<g id="node21" class="node"><title>038 (b)</title>
<ellipse fill="#cea8f4" stroke="#835da9" cx="949.397" cy="-192" rx="36.2938" ry="18"/>
<text text-anchor="middle" x="949.397" y="-188.3" font-family="Times,serif" font-size="14.00">038 (b)</text>
</g>
<!-- 031 (a) -->
<g id="node23" class="node"><title>031 (a)</title>
<ellipse fill="#ff8a8a" stroke="#b43f3f" cx="634.397" cy="-105" rx="36.2938" ry="18"/>
<text text-anchor="middle" x="634.397" y="-101.3" font-family="Times,serif" font-size="14.00">031 (a)</text>
</g>
<!-- 031 (a)&#45;&gt;013 (a) -->
<g id="edge11" class="edge"><title>031 (a)&#45;&gt;013 (a)</title>
<path fill="none" stroke="#b43f3f" d="M625.197,-87.3266C622.047,-81.5458 618.529,-75.0085 615.397,-69 611.315,-61.1684 606.976,-52.5866 603.078,-44.7776"/>
<polygon fill="#b43f3f" stroke="#b43f3f" points="606.172,-43.1385 598.59,-35.738 599.902,-46.2513 606.172,-43.1385"/>
<text text-anchor="middle" x="637.397" y="-57.8" font-family="Times,serif" font-size="14.00">1 (97.1)</text>
</g>
<!-- 031 (a)&#45;&gt;017 (a) -->
<g id="edge12" class="edge"><title>031 (a)&#45;&gt;017 (a)</title>
<path fill="none" stroke="#b43f3f" d="M646.818,-88.0793C651.081,-82.2502 655.703,-75.49 659.397,-69 663.618,-61.5818 667.591,-53.1997 670.967,-45.4483"/>
<polygon fill="#b43f3f" stroke="#b43f3f" points="674.254,-46.6624 674.9,-36.0873 667.8,-43.9513 674.254,-46.6624"/>
<text text-anchor="middle" x="689.397" y="-57.8" font-family="Times,serif" font-size="14.00">1 (94.3)</text>
</g>
<!-- 031 (a)&#45;&gt;01 (a) -->
<g id="edge13" class="edge"><title>031 (a)&#45;&gt;01 (a)</title>
<path fill="none" stroke="#b43f3f" d="M662.069,-93.2712C681.731,-85.4183 706.212,-75.1075 715.397,-69 726.803,-61.415 737.955,-51.1843 746.988,-41.9533"/>
<polygon fill="#b43f3f" stroke="#b43f3f" points="749.699,-44.1808 754.036,-34.5143 744.617,-39.3664 749.699,-44.1808"/>
<text text-anchor="middle" x="756.397" y="-57.8" font-family="Times,serif" font-size="14.00">2 (48.5)</text>
</g>
<!-- 044 (a)&#45;&gt;0141 (a) -->
<g id="edge15" class="edge"><title>044 (a)&#45;&gt;0141 (a)</title>
<path fill="none" stroke="#b43f3f" d="M767.111,-174.207C760.416,-162.099 751.256,-145.533 743.64,-131.759"/>
<polygon fill="#b43f3f" stroke="#b43f3f" points="746.565,-129.816 738.663,-122.758 740.439,-133.203 746.565,-129.816"/>
<text text-anchor="middle" x="778.397" y="-144.8" font-family="Times,serif" font-size="14.00">1 (89.2)</text>
</g>
<!-- 044 (a)&#45;&gt;022 (a) -->
<g id="edge14" class="edge"><title>044 (a)&#45;&gt;022 (a)</title>
<path fill="none" stroke="#b43f3f" d="M789.355,-175.139C793.792,-169.316 798.592,-162.544 802.397,-156 806.687,-148.622 810.68,-140.251 814.055,-132.498"/>
<polygon fill="#b43f3f" stroke="#b43f3f" points="817.343,-133.706 817.973,-123.13 810.886,-131.004 817.343,-133.706"/>
<text text-anchor="middle" x="832.397" y="-144.8" font-family="Times,serif" font-size="14.00">1 (91.7)</text>
</g>
<!-- 063 (a)&#45;&gt;021 (a) -->
<g id="edge19" class="edge"><title>063 (a)&#45;&gt;021 (a)</title>
<path fill="none" stroke="#b43f3f" d="M415.229,-182.695C357.34,-167.27 233.245,-134.204 168.546,-116.964"/>
<polygon fill="#b43f3f" stroke="#b43f3f" points="169.255,-113.531 158.691,-114.339 167.453,-120.295 169.255,-113.531"/>
<text text-anchor="middle" x="328.397" y="-144.8" font-family="Times,serif" font-size="14.00">1 (93.1)</text>
</g>
<!-- 063 (a)&#45;&gt;07 (a) -->
<g id="edge16" class="edge"><title>063 (a)&#45;&gt;07 (a)</title>
<path fill="none" stroke="#b43f3f" d="M424.793,-177.25C416.136,-171.245 406.351,-163.798 398.397,-156 390.572,-148.329 383.035,-138.975 376.765,-130.442"/>
<polygon fill="#b43f3f" stroke="#b43f3f" points="379.603,-128.394 370.954,-122.275 373.899,-132.452 379.603,-128.394"/>
<text text-anchor="middle" x="420.397" y="-144.8" font-family="Times,serif" font-size="14.00">1 (96.6)</text>
</g>
<!-- 063 (a)&#45;&gt;011 (a) -->
<g id="edge18" class="edge"><title>063 (a)&#45;&gt;011 (a)</title>
<path fill="none" stroke="#b43f3f" d="M446.397,-173.799C446.397,-162.163 446.397,-146.548 446.397,-133.237"/>
<polygon fill="#b43f3f" stroke="#b43f3f" points="449.897,-133.175 446.397,-123.175 442.897,-133.175 449.897,-133.175"/>
<text text-anchor="middle" x="468.397" y="-144.8" font-family="Times,serif" font-size="14.00">1 (93.1)</text>
</g>
<!-- 063 (a)&#45;&gt;028 (a) -->
<g id="edge17" class="edge"><title>063 (a)&#45;&gt;028 (a)</title>
<path fill="none" stroke="#b43f3f" d="M467.768,-177.006C476.389,-170.963 486.211,-163.554 494.397,-156 502.941,-148.115 511.472,-138.619 518.657,-130.029"/>
<polygon fill="#b43f3f" stroke="#b43f3f" points="521.474,-132.113 525.089,-122.155 516.053,-127.685 521.474,-132.113"/>
<text text-anchor="middle" x="530.397" y="-144.8" font-family="Times,serif" font-size="14.00">1 (96.6)</text>
</g>
<!-- 063 (a)&#45;&gt;031 (a) -->
<g id="edge20" class="edge"><title>063 (a)&#45;&gt;031 (a)</title>
<path fill="none" stroke="#b43f3f" d="M478.524,-183.17C500.92,-177.142 531.182,-167.841 556.397,-156 573.88,-147.79 592.123,-136.281 606.566,-126.374"/>
<polygon fill="#b43f3f" stroke="#b43f3f" points="608.839,-129.056 615.028,-120.457 604.827,-123.32 608.839,-129.056"/>
<text text-anchor="middle" x="605.397" y="-144.8" font-family="Times,serif" font-size="14.00">1 (95.8)</text>
</g>
<!-- 045 (b) -->
<g id="node26" class="node"><title>045 (b)</title>
<ellipse fill="#cea8f4" stroke="#835da9" cx="949.397" cy="-279" rx="36.2938" ry="18"/>
<text text-anchor="middle" x="949.397" y="-275.3" font-family="Times,serif" font-size="14.00">045 (b)</text>
</g>
<!-- 045 (b)&#45;&gt;038 (b) -->
<g id="edge21" class="edge"><title>045 (b)&#45;&gt;038 (b)</title>
<path fill="none" stroke="#835da9" d="M949.397,-260.799C949.397,-249.163 949.397,-233.548 949.397,-220.237"/>
<polygon fill="#835da9" stroke="#835da9" points="952.897,-220.175 949.397,-210.175 945.897,-220.175 952.897,-220.175"/>
<text text-anchor="middle" x="971.397" y="-231.8" font-family="Times,serif" font-size="14.00">1 (92.7)</text>
</g>
</g>
</svg>
