<?xml version="1.0" encoding="UTF-8" standalone="no"?>
<!DOCTYPE svg PUBLIC "-//W3C//DTD SVG 1.1//EN"
 "http://www.w3.org/Graphics/SVG/1.1/DTD/svg11.dtd">
<!-- Generated by graphviz version 2.38.0 (20140413.2041)
 -->
<!-- Title: %3 Pages: 1 -->
<svg width="888pt" height="408pt"
 viewBox="0.00 0.00 888.24 408.00" xmlns="http://www.w3.org/2000/svg" xmlns:xlink="http://www.w3.org/1999/xlink">
<g id="graph0" class="graph" transform="scale(1 1) rotate(0) translate(4 404)">
<title>%3</title>
<polygon fill="white" stroke="none" points="-4,4 -4,-404 884.244,-404 884.244,4 -4,4"/>
<g id="clust1" class="cluster"><title>cluster_legend</title>
<path fill="none" stroke="black" d="M238.397,-264C238.397,-264 428.397,-264 428.397,-264 434.397,-264 440.397,-270 440.397,-276 440.397,-276 440.397,-380 440.397,-380 440.397,-386 434.397,-392 428.397,-392 428.397,-392 238.397,-392 238.397,-392 232.397,-392 226.397,-386 226.397,-380 226.397,-380 226.397,-276 226.397,-276 226.397,-270 232.397,-264 238.397,-264"/>
</g>
<!-- leg_s -->
<g id="node1" class="node"><title>leg_s</title>
<text text-anchor="middle" x="333.397" y="-362.3" font-family="Times,serif" font-size="14.00">Textual flow strength</text>
</g>
<!-- leg_e1 -->
<!-- leg_s&#45;&gt;leg_e1 -->
<g id="edge1" class="edge"><title>leg_s&#45;&gt;leg_e1</title>
<path fill="none" stroke="black" stroke-dasharray="1,5" d="M315.062,-347.686C309.529,-342.194 303.557,-335.989 298.397,-330 288.568,-318.593 278.469,-304.779 271.31,-294.563"/>
<polygon fill="black" stroke="black" points="274.011,-292.314 265.453,-286.068 268.248,-296.288 274.011,-292.314"/>
<text text-anchor="middle" x="313.897" y="-318.8" font-family="Times,serif" font-size="14.00">&lt;=5 &#160;</text>
</g>
<!-- leg_e2 -->
<!-- leg_s&#45;&gt;leg_e2 -->
<g id="edge2" class="edge"><title>leg_s&#45;&gt;leg_e2</title>
<path fill="none" stroke="black" stroke-dasharray="5,2" d="M333.397,-347.799C333.397,-332.794 333.397,-311.174 333.397,-296.409"/>
<polygon fill="black" stroke="black" points="336.897,-296.293 333.397,-286.293 329.897,-296.293 336.897,-296.293"/>
<text text-anchor="middle" x="352.397" y="-318.8" font-family="Times,serif" font-size="14.00"> &#160;&lt;=25</text>
</g>
<!-- leg_e3 -->
<!-- leg_s&#45;&gt;leg_e3 -->
<g id="edge3" class="edge"><title>leg_s&#45;&gt;leg_e3</title>
<path fill="none" stroke="black" d="M356.9,-347.76C363.303,-342.462 369.963,-336.344 375.397,-330 384.484,-319.39 392.492,-305.689 397.943,-295.313"/>
<polygon fill="black" stroke="black" points="401.119,-296.789 402.488,-286.283 394.866,-293.642 401.119,-296.789"/>
<text text-anchor="middle" x="397.397" y="-318.8" font-family="Times,serif" font-size="14.00">&gt;25</text>
</g>
<!-- 044 -->
<g id="node5" class="node"><title>044</title>
<ellipse fill="#ff8a8a" stroke="#b43f3f" cx="491.397" cy="-192" rx="36.2938" ry="18"/>
<text text-anchor="middle" x="491.397" y="-188.3" font-family="Times,serif" font-size="14.00">044 (a)</text>
</g>
<!-- 022 -->
<g id="node6" class="node"><title>022</title>
<ellipse fill="#ff8a8a" stroke="#b43f3f" cx="223.397" cy="-105" rx="36.2938" ry="18"/>
<text text-anchor="middle" x="223.397" y="-101.3" font-family="Times,serif" font-size="14.00">022 (a)</text>
</g>
<!-- 044&#45;&gt;022 -->
<g id="edge4" class="edge"><title>044&#45;&gt;022</title>
<path fill="none" stroke="#b43f3f" stroke-dasharray="1,5" d="M455.892,-187.742C418.497,-183.497 358.362,-174.336 309.397,-156 289.063,-148.386 267.96,-136.192 251.748,-125.752"/>
<polygon fill="#b43f3f" stroke="#b43f3f" points="253.556,-122.752 243.28,-120.173 249.705,-128.598 253.556,-122.752"/>
<text text-anchor="middle" x="331.397" y="-144.8" font-family="Times,serif" font-size="14.00">1 (91.7)</text>
</g>
<!-- 07 -->
<g id="node7" class="node"><title>07</title>
<ellipse fill="#ff8a8a" stroke="#b43f3f" cx="309.397" cy="-105" rx="31.6951" ry="18"/>
<text text-anchor="middle" x="309.397" y="-101.3" font-family="Times,serif" font-size="14.00">07 (a)</text>
</g>
<!-- 044&#45;&gt;07 -->
<g id="edge5" class="edge"><title>044&#45;&gt;07</title>
<path fill="none" stroke="#b43f3f" stroke-dasharray="1,5" d="M459.451,-183.368C437.208,-177.43 407.205,-168.156 382.397,-156 365.876,-147.905 348.836,-136.44 335.378,-126.531"/>
<polygon fill="#b43f3f" stroke="#b43f3f" points="337.187,-123.513 327.093,-120.295 332.978,-129.105 337.187,-123.513"/>
<text text-anchor="middle" x="404.397" y="-144.8" font-family="Times,serif" font-size="14.00">2 (83.8)</text>
</g>
<!-- 011 -->
<g id="node8" class="node"><title>011</title>
<ellipse fill="#ff8a8a" stroke="#b43f3f" cx="400.397" cy="-105" rx="36.2938" ry="18"/>
<text text-anchor="middle" x="400.397" y="-101.3" font-family="Times,serif" font-size="14.00">011 (a)</text>
</g>
<!-- 044&#45;&gt;011 -->
<g id="edge6" class="edge"><title>044&#45;&gt;011</title>
<path fill="none" stroke="#b43f3f" stroke-dasharray="1,5" d="M470.025,-177.006C461.404,-170.963 451.582,-163.554 443.397,-156 434.853,-148.115 426.321,-138.619 419.136,-130.029"/>
<polygon fill="#b43f3f" stroke="#b43f3f" points="421.741,-127.685 412.704,-122.155 416.32,-132.113 421.741,-127.685"/>
<text text-anchor="middle" x="465.397" y="-144.8" font-family="Times,serif" font-size="14.00">2 (86.5)</text>
</g>
<!-- 045 -->
<g id="node9" class="node"><title>045</title>
<ellipse fill="#ff8a8a" stroke="#b43f3f" cx="491.397" cy="-105" rx="36.2938" ry="18"/>
<text text-anchor="middle" x="491.397" y="-101.3" font-family="Times,serif" font-size="14.00">045 (a)</text>
</g>
<!-- 044&#45;&gt;045 -->
<g id="edge7" class="edge"><title>044&#45;&gt;045</title>
<path fill="none" stroke="#b43f3f" stroke-dasharray="1,5" d="M491.397,-173.799C491.397,-162.163 491.397,-146.548 491.397,-133.237"/>
<polygon fill="#b43f3f" stroke="#b43f3f" points="494.897,-133.175 491.397,-123.175 487.897,-133.175 494.897,-133.175"/>
<text text-anchor="middle" x="513.397" y="-144.8" font-family="Times,serif" font-size="14.00">2 (81.1)</text>
</g>
<!-- 021 -->
<g id="node10" class="node"><title>021</title>
<ellipse fill="#ff8a8a" stroke="#b43f3f" cx="582.397" cy="-105" rx="36.2938" ry="18"/>
<text text-anchor="middle" x="582.397" y="-101.3" font-family="Times,serif" font-size="14.00">021 (a)</text>
</g>
<!-- 044&#45;&gt;021 -->
<g id="edge8" class="edge"><title>044&#45;&gt;021</title>
<path fill="none" stroke="#b43f3f" stroke-dasharray="1,5" d="M512.768,-177.006C521.389,-170.963 531.211,-163.554 539.397,-156 547.941,-148.115 556.472,-138.619 563.657,-130.029"/>
<polygon fill="#b43f3f" stroke="#b43f3f" points="566.474,-132.113 570.089,-122.155 561.053,-127.685 566.474,-132.113"/>
<text text-anchor="middle" x="575.397" y="-144.8" font-family="Times,serif" font-size="14.00">2 (83.8)</text>
</g>
<!-- 028 -->
<g id="node11" class="node"><title>028</title>
<ellipse fill="#ff8a8a" stroke="#b43f3f" cx="673.397" cy="-105" rx="36.2938" ry="18"/>
<text text-anchor="middle" x="673.397" y="-101.3" font-family="Times,serif" font-size="14.00">028 (a)</text>
</g>
<!-- 044&#45;&gt;028 -->
<g id="edge9" class="edge"><title>044&#45;&gt;028</title>
<path fill="none" stroke="#b43f3f" stroke-dasharray="1,5" d="M518.862,-180.171C524.621,-178.028 530.681,-175.867 536.397,-174 564.892,-164.694 574.258,-168.729 601.397,-156 617.785,-148.313 634.488,-136.975 647.675,-127.039"/>
<polygon fill="#b43f3f" stroke="#b43f3f" points="650.022,-129.648 655.794,-120.764 645.742,-124.109 650.022,-129.648"/>
<text text-anchor="middle" x="649.397" y="-144.8" font-family="Times,serif" font-size="14.00">2 (81.1)</text>
</g>
<!-- 0141 -->
<g id="node12" class="node"><title>0141</title>
<ellipse fill="#ff8a8a" stroke="#b43f3f" cx="768.397" cy="-105" rx="40.0939" ry="18"/>
<text text-anchor="middle" x="768.397" y="-101.3" font-family="Times,serif" font-size="14.00">0141 (a)</text>
</g>
<!-- 044&#45;&gt;0141 -->
<g id="edge10" class="edge"><title>044&#45;&gt;0141</title>
<path fill="none" stroke="#b43f3f" stroke-dasharray="1,5" d="M518.199,-179.713C524.112,-177.552 530.401,-175.499 536.397,-174 596.83,-158.891 616.092,-175.065 675.397,-156 697.54,-148.881 720.579,-136.537 738.187,-125.895"/>
<polygon fill="#b43f3f" stroke="#b43f3f" points="740.205,-128.762 746.866,-120.522 736.521,-122.81 740.205,-128.762"/>
<text text-anchor="middle" x="732.397" y="-144.8" font-family="Times,serif" font-size="14.00">1 (89.2)</text>
</g>
<!-- 017 -->
<g id="node23" class="node"><title>017</title>
<ellipse fill="#ff8a8a" stroke="#b43f3f" cx="36.3968" cy="-18" rx="36.2938" ry="18"/>
<text text-anchor="middle" x="36.3968" y="-14.3" font-family="Times,serif" font-size="14.00">017 (a)</text>
</g>
<!-- 07&#45;&gt;017 -->
<g id="edge21" class="edge"><title>07&#45;&gt;017</title>
<path fill="none" stroke="#b43f3f" stroke-dasharray="1,5" d="M285.486,-92.8383C279.969,-90.6156 274.056,-88.5056 268.397,-87 207.345,-70.7579 187.469,-88.5545 127.397,-69 105.356,-61.8253 82.4979,-49.2435 65.2046,-38.4965"/>
<polygon fill="#b43f3f" stroke="#b43f3f" points="67.0173,-35.5014 56.7023,-33.0821 63.2572,-41.4059 67.0173,-35.5014"/>
<text text-anchor="middle" x="149.397" y="-57.8" font-family="Times,serif" font-size="14.00">2 (92.7)</text>
</g>
<!-- 037 -->
<g id="node24" class="node"><title>037</title>
<ellipse fill="#ff8a8a" stroke="#b43f3f" cx="127.397" cy="-18" rx="36.2938" ry="18"/>
<text text-anchor="middle" x="127.397" y="-14.3" font-family="Times,serif" font-size="14.00">037 (a)</text>
</g>
<!-- 07&#45;&gt;037 -->
<g id="edge22" class="edge"><title>07&#45;&gt;037</title>
<path fill="none" stroke="#b43f3f" stroke-dasharray="1,5" d="M284.885,-93.2085C279.504,-91.0164 273.799,-88.8257 268.397,-87 238.779,-76.9903 228.818,-82.0229 200.397,-69 183.786,-61.3888 166.851,-50.0563 153.48,-40.1037"/>
<polygon fill="#b43f3f" stroke="#b43f3f" points="155.319,-37.1039 145.247,-33.8157 151.07,-42.667 155.319,-37.1039"/>
<text text-anchor="middle" x="222.397" y="-57.8" font-family="Times,serif" font-size="14.00">1 (97.5)</text>
</g>
<!-- 034 -->
<g id="node25" class="node"><title>034</title>
<ellipse fill="#ff8a8a" stroke="#b43f3f" cx="218.397" cy="-18" rx="36.2938" ry="18"/>
<text text-anchor="middle" x="218.397" y="-14.3" font-family="Times,serif" font-size="14.00">034 (a)</text>
</g>
<!-- 07&#45;&gt;034 -->
<g id="edge23" class="edge"><title>07&#45;&gt;034</title>
<path fill="none" stroke="#b43f3f" stroke-dasharray="1,5" d="M288.978,-90.6717C280.134,-84.5121 269.886,-76.8337 261.397,-69 252.853,-61.1154 244.321,-51.6186 237.136,-43.0293"/>
<polygon fill="#b43f3f" stroke="#b43f3f" points="239.741,-40.6853 230.704,-35.1545 234.32,-45.1135 239.741,-40.6853"/>
<text text-anchor="middle" x="283.397" y="-57.8" font-family="Times,serif" font-size="14.00">1 (95.1)</text>
</g>
<!-- 030 -->
<g id="node26" class="node"><title>030</title>
<ellipse fill="#ff8a8a" stroke="#b43f3f" cx="309.397" cy="-18" rx="36.2938" ry="18"/>
<text text-anchor="middle" x="309.397" y="-14.3" font-family="Times,serif" font-size="14.00">030 (a)</text>
</g>
<!-- 07&#45;&gt;030 -->
<g id="edge24" class="edge"><title>07&#45;&gt;030</title>
<path fill="none" stroke="#b43f3f" stroke-dasharray="1,5" d="M309.397,-86.799C309.397,-75.1626 309.397,-59.5479 309.397,-46.2368"/>
<polygon fill="#b43f3f" stroke="#b43f3f" points="312.897,-46.1754 309.397,-36.1754 305.897,-46.1755 312.897,-46.1754"/>
<text text-anchor="middle" x="331.397" y="-57.8" font-family="Times,serif" font-size="14.00">1 (95.1)</text>
</g>
<!-- 013 -->
<g id="node27" class="node"><title>013</title>
<ellipse fill="#72fe95" stroke="#27b34a" cx="400.397" cy="-18" rx="36.2938" ry="18"/>
<text text-anchor="middle" x="400.397" y="-14.3" font-family="Times,serif" font-size="14.00">013 (c)</text>
</g>
<!-- 07&#45;&gt;013 -->
<g id="edge25" class="edge"><title>07&#45;&gt;013</title>
<path fill="none" stroke="#27b34a" stroke-dasharray="1,5" d="M329.816,-90.6717C338.659,-84.5121 348.908,-76.8337 357.397,-69 365.941,-61.1154 374.472,-51.6186 381.657,-43.0293"/>
<polygon fill="#27b34a" stroke="#27b34a" points="384.474,-45.1135 388.089,-35.1545 379.053,-40.6853 384.474,-45.1135"/>
<text text-anchor="middle" x="393.397" y="-57.8" font-family="Times,serif" font-size="14.00">2 (95.1)</text>
</g>
<!-- 038 -->
<g id="node28" class="node"><title>038</title>
<ellipse fill="#cea8f4" stroke="#835da9" cx="491.397" cy="-18" rx="36.2938" ry="18"/>
<text text-anchor="middle" x="491.397" y="-14.3" font-family="Times,serif" font-size="14.00">038 (b)</text>
</g>
<!-- 045&#45;&gt;038 -->
<g id="edge26" class="edge"><title>045&#45;&gt;038</title>
<path fill="none" stroke="#835da9" stroke-dasharray="1,5" d="M491.397,-86.799C491.397,-75.1626 491.397,-59.5479 491.397,-46.2368"/>
<polygon fill="#835da9" stroke="#835da9" points="494.897,-46.1754 491.397,-36.1754 487.897,-46.1755 494.897,-46.1754"/>
<text text-anchor="middle" x="513.397" y="-57.8" font-family="Times,serif" font-size="14.00">1 (92.7)</text>
</g>
<!-- 036 -->
<g id="node29" class="node"><title>036</title>
<ellipse fill="#ff8a8a" stroke="#b43f3f" cx="582.397" cy="-18" rx="36.2938" ry="18"/>
<text text-anchor="middle" x="582.397" y="-14.3" font-family="Times,serif" font-size="14.00">036 (a)</text>
</g>
<!-- 021&#45;&gt;036 -->
<g id="edge27" class="edge"><title>021&#45;&gt;036</title>
<path fill="none" stroke="#b43f3f" stroke-dasharray="1,5" d="M582.397,-86.799C582.397,-75.1626 582.397,-59.5479 582.397,-46.2368"/>
<polygon fill="#b43f3f" stroke="#b43f3f" points="585.897,-46.1754 582.397,-36.1754 578.897,-46.1755 585.897,-46.1754"/>
<text text-anchor="middle" x="604.397" y="-57.8" font-family="Times,serif" font-size="14.00">1 (97.6)</text>
</g>
<!-- 047 -->
<g id="node30" class="node"><title>047</title>
<ellipse fill="#ff8a8a" stroke="#b43f3f" cx="673.397" cy="-18" rx="36.2938" ry="18"/>
<text text-anchor="middle" x="673.397" y="-14.3" font-family="Times,serif" font-size="14.00">047 (a)</text>
</g>
<!-- 021&#45;&gt;047 -->
<g id="edge28" class="edge"><title>021&#45;&gt;047</title>
<path fill="none" stroke="#b43f3f" stroke-dasharray="1,5" d="M603.768,-90.006C612.389,-83.9634 622.211,-76.5539 630.397,-69 638.941,-61.1154 647.472,-51.6186 654.657,-43.0293"/>
<polygon fill="#b43f3f" stroke="#b43f3f" points="657.474,-45.1135 661.089,-35.1545 652.053,-40.6853 657.474,-45.1135"/>
<text text-anchor="middle" x="666.397" y="-57.8" font-family="Times,serif" font-size="14.00">1 (95.1)</text>
</g>
<!-- A -->
<g id="node13" class="node"><title>A</title>
<ellipse fill="#ff8a8a" stroke="#b43f3f" cx="663.397" cy="-366" rx="29.4969" ry="18"/>
<text text-anchor="middle" x="663.397" y="-362.3" font-family="Times,serif" font-size="14.00">A (a)</text>
</g>
<!-- P75 -->
<g id="node14" class="node"><title>P75</title>
<ellipse fill="#ff8a8a" stroke="#b43f3f" cx="486.397" cy="-279" rx="36.2938" ry="18"/>
<text text-anchor="middle" x="486.397" y="-275.3" font-family="Times,serif" font-size="14.00">P75 (a)</text>
</g>
<!-- A&#45;&gt;P75 -->
<g id="edge11" class="edge"><title>A&#45;&gt;P75</title>
<path fill="none" stroke="#b43f3f" stroke-dasharray="1,5" d="M636.288,-358.742C613.868,-352.98 581.577,-343.306 555.397,-330 540.074,-322.212 524.447,-311.194 511.948,-301.482"/>
<polygon fill="#b43f3f" stroke="#b43f3f" points="513.84,-298.514 503.837,-295.023 509.479,-303.99 513.84,-298.514"/>
<text text-anchor="middle" x="577.397" y="-318.8" font-family="Times,serif" font-size="14.00">1 (93.3)</text>
</g>
<!-- 019 -->
<g id="node15" class="node"><title>019</title>
<ellipse fill="#ff8a8a" stroke="#b43f3f" cx="577.397" cy="-279" rx="36.2938" ry="18"/>
<text text-anchor="middle" x="577.397" y="-275.3" font-family="Times,serif" font-size="14.00">019 (a)</text>
</g>
<!-- A&#45;&gt;019 -->
<g id="edge12" class="edge"><title>A&#45;&gt;019</title>
<path fill="none" stroke="#b43f3f" stroke-dasharray="1,5" d="M643.697,-352.561C634.596,-346.347 623.94,-338.375 615.397,-330 607.572,-322.329 600.035,-312.975 593.765,-304.442"/>
<polygon fill="#b43f3f" stroke="#b43f3f" points="596.603,-302.394 587.954,-296.275 590.899,-306.452 596.603,-302.394"/>
<text text-anchor="middle" x="637.397" y="-318.8" font-family="Times,serif" font-size="14.00">1 (93.3)</text>
</g>
<!-- 03 -->
<g id="node16" class="node"><title>03</title>
<ellipse fill="#ff8a8a" stroke="#b43f3f" cx="663.397" cy="-279" rx="31.6951" ry="18"/>
<text text-anchor="middle" x="663.397" y="-275.3" font-family="Times,serif" font-size="14.00">03 (a)</text>
</g>
<!-- A&#45;&gt;03 -->
<g id="edge13" class="edge"><title>A&#45;&gt;03</title>
<path fill="none" stroke="#b43f3f" stroke-dasharray="1,5" d="M663.397,-347.799C663.397,-336.163 663.397,-320.548 663.397,-307.237"/>
<polygon fill="#b43f3f" stroke="#b43f3f" points="666.897,-307.175 663.397,-297.175 659.897,-307.175 666.897,-307.175"/>
<text text-anchor="middle" x="685.397" y="-318.8" font-family="Times,serif" font-size="14.00">1 (93.3)</text>
</g>
<!-- 091 -->
<g id="node17" class="node"><title>091</title>
<ellipse fill="#ff8a8a" stroke="#b43f3f" cx="753.397" cy="-279" rx="36.2938" ry="18"/>
<text text-anchor="middle" x="753.397" y="-275.3" font-family="Times,serif" font-size="14.00">091 (a)</text>
</g>
<!-- A&#45;&gt;091 -->
<g id="edge14" class="edge"><title>A&#45;&gt;091</title>
<path fill="none" stroke="#b43f3f" stroke-dasharray="1,5" d="M682.916,-352.371C691.977,-346.116 702.652,-338.164 711.397,-330 719.811,-322.144 728.159,-312.653 735.169,-304.06"/>
<polygon fill="#b43f3f" stroke="#b43f3f" points="737.951,-306.185 741.438,-296.18 732.473,-301.827 737.951,-306.185"/>
<text text-anchor="middle" x="747.397" y="-318.8" font-family="Times,serif" font-size="14.00">1 (87.5)</text>
</g>
<!-- 01 -->
<g id="node18" class="node"><title>01</title>
<ellipse fill="#cea8f4" stroke="#835da9" cx="840.397" cy="-279" rx="32.4942" ry="18"/>
<text text-anchor="middle" x="840.397" y="-275.3" font-family="Times,serif" font-size="14.00">01 (b)</text>
</g>
<!-- A&#45;&gt;01 -->
<g id="edge15" class="edge"><title>A&#45;&gt;01</title>
<path fill="none" stroke="#835da9" stroke-dasharray="5,2" d="M690.604,-359.033C713.488,-353.392 746.658,-343.737 773.397,-330 788.606,-322.186 804.007,-310.975 816.201,-301.148"/>
<polygon fill="#835da9" stroke="#835da9" points="818.613,-303.695 824.089,-294.625 814.152,-298.3 818.613,-303.695"/>
<text text-anchor="middle" x="819.397" y="-318.8" font-family="Times,serif" font-size="14.00">1 (57.1)</text>
</g>
<!-- 03&#45;&gt;044 -->
<g id="edge16" class="edge"><title>03&#45;&gt;044</title>
<path fill="none" stroke="#b43f3f" stroke-dasharray="1,5" d="M638.88,-267.224C633.499,-265.031 627.795,-262.836 622.397,-261 593.204,-251.074 582.987,-256.767 555.397,-243 540.879,-235.756 526.482,-224.922 515.03,-215.189"/>
<polygon fill="#b43f3f" stroke="#b43f3f" points="517.077,-212.329 507.252,-208.364 512.46,-217.59 517.077,-212.329"/>
<text text-anchor="middle" x="577.397" y="-231.8" font-family="Times,serif" font-size="14.00">1 (89.2)</text>
</g>
<!-- 02 -->
<g id="node19" class="node"><title>02</title>
<ellipse fill="#ff8a8a" stroke="#b43f3f" cx="577.397" cy="-192" rx="31.6951" ry="18"/>
<text text-anchor="middle" x="577.397" y="-188.3" font-family="Times,serif" font-size="14.00">02 (a)</text>
</g>
<!-- 03&#45;&gt;02 -->
<g id="edge17" class="edge"><title>03&#45;&gt;02</title>
<path fill="none" stroke="#b43f3f" stroke-dasharray="1,5" d="M642.75,-264.912C633.864,-258.796 623.645,-251.086 615.397,-243 607.572,-235.329 600.035,-225.975 593.765,-217.442"/>
<polygon fill="#b43f3f" stroke="#b43f3f" points="596.603,-215.394 587.954,-209.275 590.899,-219.452 596.603,-215.394"/>
<text text-anchor="middle" x="637.397" y="-231.8" font-family="Times,serif" font-size="14.00">1 (86.5)</text>
</g>
<!-- 032 -->
<g id="node20" class="node"><title>032</title>
<ellipse fill="#ff8a8a" stroke="#b43f3f" cx="663.397" cy="-192" rx="36.2938" ry="18"/>
<text text-anchor="middle" x="663.397" y="-188.3" font-family="Times,serif" font-size="14.00">032 (a)</text>
</g>
<!-- 03&#45;&gt;032 -->
<g id="edge18" class="edge"><title>03&#45;&gt;032</title>
<path fill="none" stroke="#b43f3f" stroke-dasharray="1,5" d="M663.397,-260.799C663.397,-249.163 663.397,-233.548 663.397,-220.237"/>
<polygon fill="#b43f3f" stroke="#b43f3f" points="666.897,-220.175 663.397,-210.175 659.897,-220.175 666.897,-220.175"/>
<text text-anchor="middle" x="685.397" y="-231.8" font-family="Times,serif" font-size="14.00">1 (91.7)</text>
</g>
<!-- 0211 -->
<g id="node21" class="node"><title>0211</title>
<ellipse fill="#ff8a8a" stroke="#b43f3f" cx="758.397" cy="-192" rx="40.0939" ry="18"/>
<text text-anchor="middle" x="758.397" y="-188.3" font-family="Times,serif" font-size="14.00">0211 (a)</text>
</g>
<!-- 091&#45;&gt;0211 -->
<g id="edge19" class="edge"><title>091&#45;&gt;0211</title>
<path fill="none" stroke="#b43f3f" stroke-dasharray="1,5" d="M754.409,-260.799C755.093,-249.163 756.012,-233.548 756.795,-220.237"/>
<polygon fill="#b43f3f" stroke="#b43f3f" points="760.293,-220.364 757.386,-210.175 753.305,-219.953 760.293,-220.364"/>
<text text-anchor="middle" x="778.397" y="-231.8" font-family="Times,serif" font-size="14.00">1 (83.3)</text>
</g>
<!-- 05 -->
<g id="node22" class="node"><title>05</title>
<ellipse fill="#ff8a8a" stroke="#b43f3f" cx="848.397" cy="-192" rx="31.6951" ry="18"/>
<text text-anchor="middle" x="848.397" y="-188.3" font-family="Times,serif" font-size="14.00">05 (a)</text>
</g>
<!-- 091&#45;&gt;05 -->
<g id="edge20" class="edge"><title>091&#45;&gt;05</title>
<path fill="none" stroke="#b43f3f" stroke-dasharray="1,5" d="M775.362,-264.644C784.704,-258.537 795.477,-250.907 804.397,-243 813.406,-235.013 822.366,-225.252 829.826,-216.48"/>
<polygon fill="#b43f3f" stroke="#b43f3f" points="832.521,-218.713 836.214,-208.783 827.134,-214.243 832.521,-218.713"/>
<text text-anchor="middle" x="841.397" y="-231.8" font-family="Times,serif" font-size="14.00">1 (87.5)</text>
</g>
</g>
</svg>
