<?xml version="1.0" encoding="UTF-8" standalone="no"?>
<!DOCTYPE svg PUBLIC "-//W3C//DTD SVG 1.1//EN"
 "http://www.w3.org/Graphics/SVG/1.1/DTD/svg11.dtd">
<!-- Generated by graphviz version 2.38.0 (20140413.2041)
 -->
<!-- Title: G Pages: 1 -->
<svg width="1140pt" height="131pt"
 viewBox="0.00 0.00 1139.69 131.00" xmlns="http://www.w3.org/2000/svg" xmlns:xlink="http://www.w3.org/1999/xlink">
<g id="graph0" class="graph" transform="scale(1 1) rotate(0) translate(4 127)">
<title>G</title>
<polygon fill="white" stroke="none" points="-4,4 -4,-127 1135.69,-127 1135.69,4 -4,4"/>
<!-- 013 (a) -->
<g id="node1" class="node"><title>013 (a)</title>
<ellipse fill="#ff8a8a" stroke="#b43f3f" cx="36.3968" cy="-18" rx="36.2938" ry="18"/>
<text text-anchor="middle" x="36.3968" y="-14.3" font-family="Times,serif" font-size="14.00">013 (a)</text>
</g>
<!-- 05 (b) -->
<g id="node2" class="node"><title>05 (b)</title>
<ellipse fill="#cea8f4" stroke="#835da9" cx="295.397" cy="-18" rx="32.4942" ry="18"/>
<text text-anchor="middle" x="295.397" y="-14.3" font-family="Times,serif" font-size="14.00">05 (b)</text>
</g>
<!-- 011 (a) -->
<g id="node3" class="node"><title>011 (a)</title>
<ellipse fill="#ff8a8a" stroke="#b43f3f" cx="455.397" cy="-105" rx="36.2938" ry="18"/>
<text text-anchor="middle" x="455.397" y="-101.3" font-family="Times,serif" font-size="14.00">011 (a)</text>
</g>
<!-- 017 (a) -->
<g id="node4" class="node"><title>017 (a)</title>
<ellipse fill="#ff8a8a" stroke="#b43f3f" cx="127.397" cy="-18" rx="36.2938" ry="18"/>
<text text-anchor="middle" x="127.397" y="-14.3" font-family="Times,serif" font-size="14.00">017 (a)</text>
</g>
<!-- 045 (a) -->
<g id="node5" class="node"><title>045 (a)</title>
<ellipse fill="#ff8a8a" stroke="#b43f3f" cx="546.397" cy="-105" rx="36.2938" ry="18"/>
<text text-anchor="middle" x="546.397" y="-101.3" font-family="Times,serif" font-size="14.00">045 (a)</text>
</g>
<!-- 038 (a) -->
<g id="node13" class="node"><title>038 (a)</title>
<ellipse fill="#ff8a8a" stroke="#b43f3f" cx="546.397" cy="-18" rx="36.2938" ry="18"/>
<text text-anchor="middle" x="546.397" y="-14.3" font-family="Times,serif" font-size="14.00">038 (a)</text>
</g>
<!-- 045 (a)&#45;&gt;038 (a) -->
<g id="edge1" class="edge"><title>045 (a)&#45;&gt;038 (a)</title>
<path fill="none" stroke="#b43f3f" d="M546.397,-86.799C546.397,-75.1626 546.397,-59.5479 546.397,-46.2368"/>
<polygon fill="#b43f3f" stroke="#b43f3f" points="549.897,-46.1754 546.397,-36.1754 542.897,-46.1755 549.897,-46.1754"/>
<text text-anchor="middle" x="568.397" y="-57.8" font-family="Times,serif" font-size="14.00">1 (92.7)</text>
</g>
<!-- 021 (a) -->
<g id="node6" class="node"><title>021 (a)</title>
<ellipse fill="#ff8a8a" stroke="#b43f3f" cx="637.397" cy="-105" rx="36.2938" ry="18"/>
<text text-anchor="middle" x="637.397" y="-101.3" font-family="Times,serif" font-size="14.00">021 (a)</text>
</g>
<!-- 036 (a) -->
<g id="node10" class="node"><title>036 (a)</title>
<ellipse fill="#ff8a8a" stroke="#b43f3f" cx="637.397" cy="-18" rx="36.2938" ry="18"/>
<text text-anchor="middle" x="637.397" y="-14.3" font-family="Times,serif" font-size="14.00">036 (a)</text>
</g>
<!-- 021 (a)&#45;&gt;036 (a) -->
<g id="edge2" class="edge"><title>021 (a)&#45;&gt;036 (a)</title>
<path fill="none" stroke="#b43f3f" d="M637.397,-86.799C637.397,-75.1626 637.397,-59.5479 637.397,-46.2368"/>
<polygon fill="#b43f3f" stroke="#b43f3f" points="640.897,-46.1754 637.397,-36.1754 633.897,-46.1755 640.897,-46.1754"/>
<text text-anchor="middle" x="659.397" y="-57.8" font-family="Times,serif" font-size="14.00">1 (97.6)</text>
</g>
<!-- 047 (a) -->
<g id="node16" class="node"><title>047 (a)</title>
<ellipse fill="#ff8a8a" stroke="#b43f3f" cx="728.397" cy="-18" rx="36.2938" ry="18"/>
<text text-anchor="middle" x="728.397" y="-14.3" font-family="Times,serif" font-size="14.00">047 (a)</text>
</g>
<!-- 021 (a)&#45;&gt;047 (a) -->
<g id="edge3" class="edge"><title>021 (a)&#45;&gt;047 (a)</title>
<path fill="none" stroke="#b43f3f" d="M658.768,-90.006C667.389,-83.9634 677.211,-76.5539 685.397,-69 693.941,-61.1154 702.472,-51.6186 709.657,-43.0293"/>
<polygon fill="#b43f3f" stroke="#b43f3f" points="712.474,-45.1135 716.089,-35.1545 707.053,-40.6853 712.474,-45.1135"/>
<text text-anchor="middle" x="721.397" y="-57.8" font-family="Times,serif" font-size="14.00">1 (95.1)</text>
</g>
<!-- 030 (a) -->
<g id="node7" class="node"><title>030 (a)</title>
<ellipse fill="#ff8a8a" stroke="#b43f3f" cx="819.397" cy="-18" rx="36.2938" ry="18"/>
<text text-anchor="middle" x="819.397" y="-14.3" font-family="Times,serif" font-size="14.00">030 (a)</text>
</g>
<!-- 028 (a) -->
<g id="node8" class="node"><title>028 (a)</title>
<ellipse fill="#ff8a8a" stroke="#b43f3f" cx="996.397" cy="-105" rx="36.2938" ry="18"/>
<text text-anchor="middle" x="996.397" y="-101.3" font-family="Times,serif" font-size="14.00">028 (a)</text>
</g>
<!-- 037 (a) -->
<g id="node9" class="node"><title>037 (a)</title>
<ellipse fill="#ff8a8a" stroke="#b43f3f" cx="910.397" cy="-18" rx="36.2938" ry="18"/>
<text text-anchor="middle" x="910.397" y="-14.3" font-family="Times,serif" font-size="14.00">037 (a)</text>
</g>
<!-- 07 (a) -->
<g id="node11" class="node"><title>07 (a)</title>
<ellipse fill="#ff8a8a" stroke="#b43f3f" cx="910.397" cy="-105" rx="31.6951" ry="18"/>
<text text-anchor="middle" x="910.397" y="-101.3" font-family="Times,serif" font-size="14.00">07 (a)</text>
</g>
<!-- 07 (a)&#45;&gt;030 (a) -->
<g id="edge5" class="edge"><title>07 (a)&#45;&gt;030 (a)</title>
<path fill="none" stroke="#b43f3f" d="M889.978,-90.6717C881.134,-84.5121 870.886,-76.8337 862.397,-69 853.853,-61.1154 845.321,-51.6186 838.136,-43.0293"/>
<polygon fill="#b43f3f" stroke="#b43f3f" points="840.741,-40.6853 831.704,-35.1545 835.32,-45.1135 840.741,-40.6853"/>
<text text-anchor="middle" x="884.397" y="-57.8" font-family="Times,serif" font-size="14.00">1 (95.1)</text>
</g>
<!-- 07 (a)&#45;&gt;037 (a) -->
<g id="edge6" class="edge"><title>07 (a)&#45;&gt;037 (a)</title>
<path fill="none" stroke="#b43f3f" d="M910.397,-86.799C910.397,-75.1626 910.397,-59.5479 910.397,-46.2368"/>
<polygon fill="#b43f3f" stroke="#b43f3f" points="913.897,-46.1754 910.397,-36.1754 906.897,-46.1755 913.897,-46.1754"/>
<text text-anchor="middle" x="932.397" y="-57.8" font-family="Times,serif" font-size="14.00">1 (97.5)</text>
</g>
<!-- 034 (a) -->
<g id="node15" class="node"><title>034 (a)</title>
<ellipse fill="#ff8a8a" stroke="#b43f3f" cx="1001.4" cy="-18" rx="36.2938" ry="18"/>
<text text-anchor="middle" x="1001.4" y="-14.3" font-family="Times,serif" font-size="14.00">034 (a)</text>
</g>
<!-- 07 (a)&#45;&gt;034 (a) -->
<g id="edge4" class="edge"><title>07 (a)&#45;&gt;034 (a)</title>
<path fill="none" stroke="#b43f3f" d="M930.816,-90.6717C939.659,-84.5121 949.908,-76.8337 958.397,-69 966.941,-61.1154 975.472,-51.6186 982.657,-43.0293"/>
<polygon fill="#b43f3f" stroke="#b43f3f" points="985.474,-45.1135 989.089,-35.1545 980.053,-40.6853 985.474,-45.1135"/>
<text text-anchor="middle" x="994.397" y="-57.8" font-family="Times,serif" font-size="14.00">1 (95.1)</text>
</g>
<!-- 0211 (b) -->
<g id="node12" class="node"><title>0211 (b)</title>
<ellipse fill="#cea8f4" stroke="#835da9" cx="386.397" cy="-18" rx="40.8928" ry="18"/>
<text text-anchor="middle" x="386.397" y="-14.3" font-family="Times,serif" font-size="14.00">0211 (b)</text>
</g>
<!-- OL_PARENT -->
<g id="node14" class="node"><title>OL_PARENT</title>
<ellipse fill="none" stroke="black" cx="340.397" cy="-105" rx="61.1893" ry="18"/>
<text text-anchor="middle" x="340.397" y="-101.3" font-family="Times,serif" font-size="14.00">OL_PARENT</text>
</g>
<!-- OL_PARENT&#45;&gt;05 (b) -->
<g id="edge7" class="edge"><title>OL_PARENT&#45;&gt;05 (b)</title>
<path fill="none" stroke="#835da9" d="M322.93,-87.3853C317.979,-81.9219 312.97,-75.5574 309.397,-69 305.498,-61.8451 302.607,-53.5093 300.498,-45.7185"/>
<polygon fill="#835da9" stroke="#835da9" points="303.889,-44.8469 298.158,-35.9358 297.081,-46.4758 303.889,-44.8469"/>
<text text-anchor="middle" x="336.897" y="-57.8" font-family="Times,serif" font-size="14.00">&#45;1 (100.0)</text>
</g>
<!-- OL_PARENT&#45;&gt;0211 (b) -->
<g id="edge8" class="edge"><title>OL_PARENT&#45;&gt;0211 (b)</title>
<path fill="none" stroke="#835da9" d="M352.773,-87.3171C356.723,-81.6476 360.958,-75.1806 364.397,-69 368.547,-61.5417 372.498,-53.1477 375.877,-45.3977"/>
<polygon fill="#835da9" stroke="#835da9" points="379.161,-46.6185 379.824,-36.0444 372.712,-43.8974 379.161,-46.6185"/>
<text text-anchor="middle" x="399.897" y="-57.8" font-family="Times,serif" font-size="14.00">&#45;1 (100.0)</text>
</g>
<!-- 0141 (a) -->
<g id="node17" class="node"><title>0141 (a)</title>
<ellipse fill="#ff8a8a" stroke="#b43f3f" cx="1091.4" cy="-105" rx="40.0939" ry="18"/>
<text text-anchor="middle" x="1091.4" y="-101.3" font-family="Times,serif" font-size="14.00">0141 (a)</text>
</g>
<!-- 01 (a) -->
<g id="node18" class="node"><title>01 (a)</title>
<ellipse fill="#ff8a8a" stroke="#b43f3f" cx="213.397" cy="-18" rx="31.6951" ry="18"/>
<text text-anchor="middle" x="213.397" y="-14.3" font-family="Times,serif" font-size="14.00">01 (a)</text>
</g>
<!-- 031 (a) -->
<g id="node19" class="node"><title>031 (a)</title>
<ellipse fill="#ff8a8a" stroke="#b43f3f" cx="127.397" cy="-105" rx="36.2938" ry="18"/>
<text text-anchor="middle" x="127.397" y="-101.3" font-family="Times,serif" font-size="14.00">031 (a)</text>
</g>
<!-- 031 (a)&#45;&gt;013 (a) -->
<g id="edge11" class="edge"><title>031 (a)&#45;&gt;013 (a)</title>
<path fill="none" stroke="#b43f3f" d="M106.025,-90.006C97.4044,-83.9634 87.5824,-76.5539 79.3968,-69 70.8527,-61.1154 62.3211,-51.6186 55.1364,-43.0293"/>
<polygon fill="#b43f3f" stroke="#b43f3f" points="57.741,-40.6853 48.7043,-35.1545 52.3196,-45.1135 57.741,-40.6853"/>
<text text-anchor="middle" x="101.397" y="-57.8" font-family="Times,serif" font-size="14.00">1 (97.1)</text>
</g>
<!-- 031 (a)&#45;&gt;017 (a) -->
<g id="edge10" class="edge"><title>031 (a)&#45;&gt;017 (a)</title>
<path fill="none" stroke="#b43f3f" d="M127.397,-86.799C127.397,-75.1626 127.397,-59.5479 127.397,-46.2368"/>
<polygon fill="#b43f3f" stroke="#b43f3f" points="130.897,-46.1754 127.397,-36.1754 123.897,-46.1755 130.897,-46.1754"/>
<text text-anchor="middle" x="149.397" y="-57.8" font-family="Times,serif" font-size="14.00">1 (94.3)</text>
</g>
<!-- 031 (a)&#45;&gt;01 (a) -->
<g id="edge9" class="edge"><title>031 (a)&#45;&gt;01 (a)</title>
<path fill="none" stroke="#b43f3f" d="M149.001,-90.2504C157.657,-84.2452 167.443,-76.7976 175.397,-69 183.221,-61.3291 190.759,-51.9752 197.029,-43.4419"/>
<polygon fill="#b43f3f" stroke="#b43f3f" points="199.894,-45.452 202.84,-35.2749 194.191,-41.3937 199.894,-45.452"/>
<text text-anchor="middle" x="210.397" y="-57.8" font-family="Times,serif" font-size="14.00">2 (48.5)</text>
</g>
</g>
</svg>
