<?xml version="1.0" encoding="UTF-8" standalone="no"?>
<!DOCTYPE svg PUBLIC "-//W3C//DTD SVG 1.1//EN"
 "http://www.w3.org/Graphics/SVG/1.1/DTD/svg11.dtd">
<!-- Generated by graphviz version 2.38.0 (20140413.2041)
 -->
<!-- Title: %3 Pages: 1 -->
<svg width="1005pt" height="408pt"
 viewBox="0.00 0.00 1004.85 408.00" xmlns="http://www.w3.org/2000/svg" xmlns:xlink="http://www.w3.org/1999/xlink">
<g id="graph0" class="graph" transform="scale(1 1) rotate(0) translate(4 404)">
<title>%3</title>
<polygon fill="white" stroke="none" points="-4,4 -4,-404 1000.85,-404 1000.85,4 -4,4"/>
<g id="clust1" class="cluster"><title>cluster_legend</title>
<path fill="none" stroke="black" d="M20,-264C20,-264 210,-264 210,-264 216,-264 222,-270 222,-276 222,-276 222,-380 222,-380 222,-386 216,-392 210,-392 210,-392 20,-392 20,-392 14,-392 8,-386 8,-380 8,-380 8,-276 8,-276 8,-270 14,-264 20,-264"/>
</g>
<!-- leg_s -->
<g id="node1" class="node"><title>leg_s</title>
<text text-anchor="middle" x="115" y="-362.3" font-family="Times,serif" font-size="14.00">Textual flow strength</text>
</g>
<!-- leg_e1 -->
<!-- leg_s&#45;&gt;leg_e1 -->
<g id="edge1" class="edge"><title>leg_s&#45;&gt;leg_e1</title>
<path fill="none" stroke="black" stroke-dasharray="1,5" d="M96.6657,-347.686C91.1324,-342.194 85.1607,-335.989 80,-330 70.1708,-318.593 60.0722,-304.779 52.9137,-294.563"/>
<polygon fill="black" stroke="black" points="55.6142,-292.314 47.056,-286.068 49.8514,-296.288 55.6142,-292.314"/>
<text text-anchor="middle" x="95.5" y="-318.8" font-family="Times,serif" font-size="14.00">&lt;=5 &#160;</text>
</g>
<!-- leg_e2 -->
<!-- leg_s&#45;&gt;leg_e2 -->
<g id="edge2" class="edge"><title>leg_s&#45;&gt;leg_e2</title>
<path fill="none" stroke="black" stroke-dasharray="5,2" d="M115,-347.799C115,-332.794 115,-311.174 115,-296.409"/>
<polygon fill="black" stroke="black" points="118.5,-296.293 115,-286.293 111.5,-296.293 118.5,-296.293"/>
<text text-anchor="middle" x="134" y="-318.8" font-family="Times,serif" font-size="14.00"> &#160;&lt;=25</text>
</g>
<!-- leg_e3 -->
<!-- leg_s&#45;&gt;leg_e3 -->
<g id="edge3" class="edge"><title>leg_s&#45;&gt;leg_e3</title>
<path fill="none" stroke="black" d="M138.503,-347.76C144.906,-342.462 151.567,-336.344 157,-330 166.087,-319.39 174.095,-305.689 179.546,-295.313"/>
<polygon fill="black" stroke="black" points="182.722,-296.789 184.091,-286.283 176.469,-293.642 182.722,-296.789"/>
<text text-anchor="middle" x="179" y="-318.8" font-family="Times,serif" font-size="14.00">&gt;25</text>
</g>
<!-- A -->
<g id="node5" class="node"><title>A</title>
<ellipse fill="#cea8f4" stroke="#835da9" cx="400" cy="-366" rx="29.795" ry="18"/>
<text text-anchor="middle" x="400" y="-362.3" font-family="Times,serif" font-size="14.00">A (b)</text>
</g>
<!-- 05 -->
<g id="node6" class="node"><title>05</title>
<ellipse fill="#ff8a8a" stroke="#b43f3f" cx="264" cy="-279" rx="31.6951" ry="18"/>
<text text-anchor="middle" x="264" y="-275.3" font-family="Times,serif" font-size="14.00">05 (a)</text>
</g>
<!-- A&#45;&gt;05 -->
<g id="edge4" class="edge"><title>A&#45;&gt;05</title>
<path fill="none" stroke="#b43f3f" stroke-dasharray="1,5" d="M373.145,-357.619C354.927,-351.846 330.826,-342.665 312,-330 301.189,-322.727 290.936,-312.662 282.703,-303.467"/>
<polygon fill="#b43f3f" stroke="#b43f3f" points="285.199,-301.002 276.025,-295.703 279.892,-305.566 285.199,-301.002"/>
<text text-anchor="middle" x="334" y="-318.8" font-family="Times,serif" font-size="14.00">2 (76.9)</text>
</g>
<!-- 03 -->
<g id="node7" class="node"><title>03</title>
<ellipse fill="#cea8f4" stroke="#835da9" cx="346" cy="-279" rx="32.4942" ry="18"/>
<text text-anchor="middle" x="346" y="-275.3" font-family="Times,serif" font-size="14.00">03 (b)</text>
</g>
<!-- A&#45;&gt;03 -->
<g id="edge5" class="edge"><title>A&#45;&gt;03</title>
<path fill="none" stroke="#835da9" stroke-dasharray="1,5" d="M384.26,-350.675C378.315,-344.696 371.828,-337.42 367,-330 362.307,-322.786 358.288,-314.35 355.06,-306.483"/>
<polygon fill="#835da9" stroke="#835da9" points="358.255,-305.039 351.403,-296.958 351.72,-307.548 358.255,-305.039"/>
<text text-anchor="middle" x="389" y="-318.8" font-family="Times,serif" font-size="14.00">1 (93.3)</text>
</g>
<!-- P75 -->
<g id="node8" class="node"><title>P75</title>
<ellipse fill="#cea8f4" stroke="#835da9" cx="434" cy="-279" rx="37.0935" ry="18"/>
<text text-anchor="middle" x="434" y="-275.3" font-family="Times,serif" font-size="14.00">P75 (b)</text>
</g>
<!-- A&#45;&gt;P75 -->
<g id="edge6" class="edge"><title>A&#45;&gt;P75</title>
<path fill="none" stroke="#835da9" stroke-dasharray="1,5" d="M406.717,-348.207C411.514,-336.216 418.06,-319.851 423.537,-306.157"/>
<polygon fill="#835da9" stroke="#835da9" points="426.832,-307.343 427.297,-296.758 420.333,-304.743 426.832,-307.343"/>
<text text-anchor="middle" x="442" y="-318.8" font-family="Times,serif" font-size="14.00">1 (93.3)</text>
</g>
<!-- 019 -->
<g id="node9" class="node"><title>019</title>
<ellipse fill="#cea8f4" stroke="#835da9" cx="571" cy="-279" rx="36.2938" ry="18"/>
<text text-anchor="middle" x="571" y="-275.3" font-family="Times,serif" font-size="14.00">019 (b)</text>
</g>
<!-- A&#45;&gt;019 -->
<g id="edge7" class="edge"><title>A&#45;&gt;019</title>
<path fill="none" stroke="#835da9" stroke-dasharray="1,5" d="M422.355,-353.888C451.566,-339.368 502.995,-313.804 537.036,-296.883"/>
<polygon fill="#835da9" stroke="#835da9" points="538.747,-299.941 546.144,-292.355 535.631,-293.673 538.747,-299.941"/>
<text text-anchor="middle" x="518" y="-318.8" font-family="Times,serif" font-size="14.00">1 (93.3)</text>
</g>
<!-- 044 -->
<g id="node27" class="node"><title>044</title>
<ellipse fill="#cea8f4" stroke="#835da9" cx="246" cy="-192" rx="36.2938" ry="18"/>
<text text-anchor="middle" x="246" y="-188.3" font-family="Times,serif" font-size="14.00">044 (b)</text>
</g>
<!-- 03&#45;&gt;044 -->
<g id="edge26" class="edge"><title>03&#45;&gt;044</title>
<path fill="none" stroke="#835da9" stroke-dasharray="1,5" d="M325.925,-264.709C316.847,-258.436 306.132,-250.658 297,-243 287.007,-234.619 276.615,-224.684 267.84,-215.887"/>
<polygon fill="#835da9" stroke="#835da9" points="270.101,-213.194 260.595,-208.516 265.109,-218.101 270.101,-213.194"/>
<text text-anchor="middle" x="319" y="-231.8" font-family="Times,serif" font-size="14.00">1 (89.2)</text>
</g>
<!-- 032 -->
<g id="node30" class="node"><title>032</title>
<ellipse fill="#cea8f4" stroke="#835da9" cx="343" cy="-192" rx="36.2938" ry="18"/>
<text text-anchor="middle" x="343" y="-188.3" font-family="Times,serif" font-size="14.00">032 (b)</text>
</g>
<!-- 03&#45;&gt;032 -->
<g id="edge27" class="edge"><title>03&#45;&gt;032</title>
<path fill="none" stroke="#835da9" stroke-dasharray="1,5" d="M345.393,-260.799C344.982,-249.163 344.431,-233.548 343.961,-220.237"/>
<polygon fill="#835da9" stroke="#835da9" points="347.457,-220.046 343.606,-210.175 340.461,-220.293 347.457,-220.046"/>
<text text-anchor="middle" x="367" y="-231.8" font-family="Times,serif" font-size="14.00">1 (91.7)</text>
</g>
<!-- 02 -->
<g id="node31" class="node"><title>02</title>
<ellipse fill="#cea8f4" stroke="#835da9" cx="430" cy="-192" rx="32.4942" ry="18"/>
<text text-anchor="middle" x="430" y="-188.3" font-family="Times,serif" font-size="14.00">02 (b)</text>
</g>
<!-- 03&#45;&gt;02 -->
<g id="edge28" class="edge"><title>03&#45;&gt;02</title>
<path fill="none" stroke="#835da9" stroke-dasharray="1,5" d="M366.247,-264.895C374.953,-258.777 384.955,-251.069 393,-243 400.583,-235.394 407.858,-226.152 413.92,-217.692"/>
<polygon fill="#835da9" stroke="#835da9" points="416.943,-219.475 419.761,-209.261 411.189,-215.489 416.943,-219.475"/>
<text text-anchor="middle" x="428" y="-231.8" font-family="Times,serif" font-size="14.00">1 (86.5)</text>
</g>
<!-- 063 -->
<g id="node10" class="node"><title>063</title>
<ellipse fill="#cea8f4" stroke="#835da9" cx="606" cy="-192" rx="36.2938" ry="18"/>
<text text-anchor="middle" x="606" y="-188.3" font-family="Times,serif" font-size="14.00">063 (b)</text>
</g>
<!-- 019&#45;&gt;063 -->
<g id="edge29" class="edge"><title>019&#45;&gt;063</title>
<path fill="none" stroke="#835da9" stroke-dasharray="1,5" d="M577.915,-261.207C582.852,-249.216 589.591,-232.851 595.229,-219.157"/>
<polygon fill="#835da9" stroke="#835da9" points="598.528,-220.338 599.099,-209.758 592.056,-217.673 598.528,-220.338"/>
<text text-anchor="middle" x="613" y="-231.8" font-family="Times,serif" font-size="14.00">1 (85.7)</text>
</g>
<!-- 07 -->
<g id="node11" class="node"><title>07</title>
<ellipse fill="#ff8a8a" stroke="#b43f3f" cx="332" cy="-105" rx="31.6951" ry="18"/>
<text text-anchor="middle" x="332" y="-101.3" font-family="Times,serif" font-size="14.00">07 (a)</text>
</g>
<!-- 063&#45;&gt;07 -->
<g id="edge8" class="edge"><title>063&#45;&gt;07</title>
<path fill="none" stroke="#b43f3f" stroke-dasharray="1,5" d="M575.893,-181.66C525.376,-165.989 423.713,-134.451 368.949,-117.462"/>
<polygon fill="#b43f3f" stroke="#b43f3f" points="369.881,-114.087 359.293,-114.467 367.807,-120.773 369.881,-114.087"/>
<text text-anchor="middle" x="508" y="-144.8" font-family="Times,serif" font-size="14.00">1 (96.6)</text>
</g>
<!-- 028 -->
<g id="node12" class="node"><title>028</title>
<ellipse fill="#ff8a8a" stroke="#b43f3f" cx="515" cy="-105" rx="36.2938" ry="18"/>
<text text-anchor="middle" x="515" y="-101.3" font-family="Times,serif" font-size="14.00">028 (a)</text>
</g>
<!-- 063&#45;&gt;028 -->
<g id="edge9" class="edge"><title>063&#45;&gt;028</title>
<path fill="none" stroke="#b43f3f" stroke-dasharray="1,5" d="M584.628,-177.006C576.008,-170.963 566.186,-163.554 558,-156 549.456,-148.115 540.924,-138.619 533.74,-130.029"/>
<polygon fill="#b43f3f" stroke="#b43f3f" points="536.344,-127.685 527.308,-122.155 530.923,-132.113 536.344,-127.685"/>
<text text-anchor="middle" x="580" y="-144.8" font-family="Times,serif" font-size="14.00">1 (96.6)</text>
</g>
<!-- 021 -->
<g id="node13" class="node"><title>021</title>
<ellipse fill="#ff8a8a" stroke="#b43f3f" cx="606" cy="-105" rx="36.2938" ry="18"/>
<text text-anchor="middle" x="606" y="-101.3" font-family="Times,serif" font-size="14.00">021 (a)</text>
</g>
<!-- 063&#45;&gt;021 -->
<g id="edge10" class="edge"><title>063&#45;&gt;021</title>
<path fill="none" stroke="#b43f3f" stroke-dasharray="1,5" d="M606,-173.799C606,-162.163 606,-146.548 606,-133.237"/>
<polygon fill="#b43f3f" stroke="#b43f3f" points="609.5,-133.175 606,-123.175 602.5,-133.175 609.5,-133.175"/>
<text text-anchor="middle" x="628" y="-144.8" font-family="Times,serif" font-size="14.00">1 (93.1)</text>
</g>
<!-- 045 -->
<g id="node14" class="node"><title>045</title>
<ellipse fill="#ff8a8a" stroke="#b43f3f" cx="697" cy="-105" rx="36.2938" ry="18"/>
<text text-anchor="middle" x="697" y="-101.3" font-family="Times,serif" font-size="14.00">045 (a)</text>
</g>
<!-- 063&#45;&gt;045 -->
<g id="edge11" class="edge"><title>063&#45;&gt;045</title>
<path fill="none" stroke="#b43f3f" stroke-dasharray="1,5" d="M627.372,-177.006C635.992,-170.963 645.814,-163.554 654,-156 662.544,-148.115 671.076,-138.619 678.26,-130.029"/>
<polygon fill="#b43f3f" stroke="#b43f3f" points="681.077,-132.113 684.692,-122.155 675.656,-127.685 681.077,-132.113"/>
<text text-anchor="middle" x="690" y="-144.8" font-family="Times,serif" font-size="14.00">1 (93.1)</text>
</g>
<!-- 031 -->
<g id="node15" class="node"><title>031</title>
<ellipse fill="#ff8a8a" stroke="#b43f3f" cx="788" cy="-105" rx="36.2938" ry="18"/>
<text text-anchor="middle" x="788" y="-101.3" font-family="Times,serif" font-size="14.00">031 (a)</text>
</g>
<!-- 063&#45;&gt;031 -->
<g id="edge12" class="edge"><title>063&#45;&gt;031</title>
<path fill="none" stroke="#b43f3f" stroke-dasharray="1,5" d="M638.267,-183.461C660.727,-177.566 691.009,-168.305 716,-156 732.128,-148.059 748.702,-136.801 761.877,-126.977"/>
<polygon fill="#b43f3f" stroke="#b43f3f" points="764.176,-129.626 770.004,-120.778 759.931,-124.06 764.176,-129.626"/>
<text text-anchor="middle" x="763" y="-144.8" font-family="Times,serif" font-size="14.00">1 (95.8)</text>
</g>
<!-- 011 -->
<g id="node16" class="node"><title>011</title>
<ellipse fill="#ff8a8a" stroke="#b43f3f" cx="879" cy="-105" rx="36.2938" ry="18"/>
<text text-anchor="middle" x="879" y="-101.3" font-family="Times,serif" font-size="14.00">011 (a)</text>
</g>
<!-- 063&#45;&gt;011 -->
<g id="edge13" class="edge"><title>063&#45;&gt;011</title>
<path fill="none" stroke="#b43f3f" stroke-dasharray="1,5" d="M641.629,-187.578C679.17,-183.197 739.588,-173.927 789,-156 810.266,-148.285 832.502,-135.977 849.552,-125.504"/>
<polygon fill="#b43f3f" stroke="#b43f3f" points="851.844,-128.197 858.451,-119.915 848.121,-122.269 851.844,-128.197"/>
<text text-anchor="middle" x="842" y="-144.8" font-family="Times,serif" font-size="14.00">1 (93.1)</text>
</g>
<!-- 037 -->
<g id="node17" class="node"><title>037</title>
<ellipse fill="#ff8a8a" stroke="#b43f3f" cx="143" cy="-18" rx="36.2938" ry="18"/>
<text text-anchor="middle" x="143" y="-14.3" font-family="Times,serif" font-size="14.00">037 (a)</text>
</g>
<!-- 07&#45;&gt;037 -->
<g id="edge14" class="edge"><title>07&#45;&gt;037</title>
<path fill="none" stroke="#b43f3f" stroke-dasharray="1,5" d="M307.502,-93.1655C302.12,-90.9761 296.412,-88.7974 291,-87 260.106,-76.7388 249.828,-82.0391 220,-69 202.342,-61.281 184.188,-49.7004 169.945,-39.6274"/>
<polygon fill="#b43f3f" stroke="#b43f3f" points="171.774,-36.6302 161.622,-33.5985 167.667,-42.2993 171.774,-36.6302"/>
<text text-anchor="middle" x="242" y="-57.8" font-family="Times,serif" font-size="14.00">1 (97.5)</text>
</g>
<!-- 030 -->
<g id="node18" class="node"><title>030</title>
<ellipse fill="#ff8a8a" stroke="#b43f3f" cx="234" cy="-18" rx="36.2938" ry="18"/>
<text text-anchor="middle" x="234" y="-14.3" font-family="Times,serif" font-size="14.00">030 (a)</text>
</g>
<!-- 07&#45;&gt;030 -->
<g id="edge15" class="edge"><title>07&#45;&gt;030</title>
<path fill="none" stroke="#b43f3f" stroke-dasharray="1,5" d="M311.854,-90.7931C302.762,-84.5374 292.055,-76.7492 283,-69 273.43,-60.8095 263.577,-51.0558 255.24,-42.347"/>
<polygon fill="#b43f3f" stroke="#b43f3f" points="257.752,-39.909 248.348,-35.0283 252.656,-44.708 257.752,-39.909"/>
<text text-anchor="middle" x="305" y="-57.8" font-family="Times,serif" font-size="14.00">1 (95.1)</text>
</g>
<!-- 0211 -->
<g id="node19" class="node"><title>0211</title>
<ellipse fill="#ff8a8a" stroke="#b43f3f" cx="329" cy="-18" rx="40.0939" ry="18"/>
<text text-anchor="middle" x="329" y="-14.3" font-family="Times,serif" font-size="14.00">0211 (a)</text>
</g>
<!-- 07&#45;&gt;0211 -->
<g id="edge16" class="edge"><title>07&#45;&gt;0211</title>
<path fill="none" stroke="#b43f3f" stroke-dasharray="1,5" d="M331.393,-86.799C330.982,-75.1626 330.431,-59.5479 329.961,-46.2368"/>
<polygon fill="#b43f3f" stroke="#b43f3f" points="333.457,-46.0457 329.606,-36.1754 326.461,-46.2927 333.457,-46.0457"/>
<text text-anchor="middle" x="353" y="-57.8" font-family="Times,serif" font-size="14.00">2 (82.9)</text>
</g>
<!-- 034 -->
<g id="node20" class="node"><title>034</title>
<ellipse fill="#ff8a8a" stroke="#b43f3f" cx="424" cy="-18" rx="36.2938" ry="18"/>
<text text-anchor="middle" x="424" y="-14.3" font-family="Times,serif" font-size="14.00">034 (a)</text>
</g>
<!-- 07&#45;&gt;034 -->
<g id="edge17" class="edge"><title>07&#45;&gt;034</title>
<path fill="none" stroke="#b43f3f" stroke-dasharray="1,5" d="M351.889,-90.5211C360.529,-84.3337 370.578,-76.6751 379,-69 387.856,-60.9296 396.841,-51.2975 404.429,-42.6515"/>
<polygon fill="#b43f3f" stroke="#b43f3f" points="407.091,-44.9241 410.962,-35.0616 401.785,-40.3577 407.091,-44.9241"/>
<text text-anchor="middle" x="416" y="-57.8" font-family="Times,serif" font-size="14.00">1 (95.1)</text>
</g>
<!-- 036 -->
<g id="node21" class="node"><title>036</title>
<ellipse fill="#ff8a8a" stroke="#b43f3f" cx="515" cy="-18" rx="36.2938" ry="18"/>
<text text-anchor="middle" x="515" y="-14.3" font-family="Times,serif" font-size="14.00">036 (a)</text>
</g>
<!-- 021&#45;&gt;036 -->
<g id="edge18" class="edge"><title>021&#45;&gt;036</title>
<path fill="none" stroke="#b43f3f" stroke-dasharray="1,5" d="M584.628,-90.006C576.008,-83.9634 566.186,-76.5539 558,-69 549.456,-61.1154 540.924,-51.6186 533.74,-43.0293"/>
<polygon fill="#b43f3f" stroke="#b43f3f" points="536.344,-40.6853 527.308,-35.1545 530.923,-45.1135 536.344,-40.6853"/>
<text text-anchor="middle" x="580" y="-57.8" font-family="Times,serif" font-size="14.00">1 (97.6)</text>
</g>
<!-- 047 -->
<g id="node22" class="node"><title>047</title>
<ellipse fill="#ff8a8a" stroke="#b43f3f" cx="606" cy="-18" rx="36.2938" ry="18"/>
<text text-anchor="middle" x="606" y="-14.3" font-family="Times,serif" font-size="14.00">047 (a)</text>
</g>
<!-- 021&#45;&gt;047 -->
<g id="edge19" class="edge"><title>021&#45;&gt;047</title>
<path fill="none" stroke="#b43f3f" stroke-dasharray="1,5" d="M606,-86.799C606,-75.1626 606,-59.5479 606,-46.2368"/>
<polygon fill="#b43f3f" stroke="#b43f3f" points="609.5,-46.1754 606,-36.1754 602.5,-46.1755 609.5,-46.1754"/>
<text text-anchor="middle" x="628" y="-57.8" font-family="Times,serif" font-size="14.00">1 (95.1)</text>
</g>
<!-- 038 -->
<g id="node23" class="node"><title>038</title>
<ellipse fill="#ff8a8a" stroke="#b43f3f" cx="697" cy="-18" rx="36.2938" ry="18"/>
<text text-anchor="middle" x="697" y="-14.3" font-family="Times,serif" font-size="14.00">038 (a)</text>
</g>
<!-- 045&#45;&gt;038 -->
<g id="edge20" class="edge"><title>045&#45;&gt;038</title>
<path fill="none" stroke="#b43f3f" stroke-dasharray="1,5" d="M697,-86.799C697,-75.1626 697,-59.5479 697,-46.2368"/>
<polygon fill="#b43f3f" stroke="#b43f3f" points="700.5,-46.1754 697,-36.1754 693.5,-46.1755 700.5,-46.1754"/>
<text text-anchor="middle" x="719" y="-57.8" font-family="Times,serif" font-size="14.00">1 (92.7)</text>
</g>
<!-- 017 -->
<g id="node24" class="node"><title>017</title>
<ellipse fill="#ff8a8a" stroke="#b43f3f" cx="788" cy="-18" rx="36.2938" ry="18"/>
<text text-anchor="middle" x="788" y="-14.3" font-family="Times,serif" font-size="14.00">017 (a)</text>
</g>
<!-- 031&#45;&gt;017 -->
<g id="edge21" class="edge"><title>031&#45;&gt;017</title>
<path fill="none" stroke="#b43f3f" stroke-dasharray="1,5" d="M788,-86.799C788,-75.1626 788,-59.5479 788,-46.2368"/>
<polygon fill="#b43f3f" stroke="#b43f3f" points="791.5,-46.1754 788,-36.1754 784.5,-46.1755 791.5,-46.1754"/>
<text text-anchor="middle" x="810" y="-57.8" font-family="Times,serif" font-size="14.00">1 (94.3)</text>
</g>
<!-- 013 -->
<g id="node25" class="node"><title>013</title>
<ellipse fill="#ff8a8a" stroke="#b43f3f" cx="879" cy="-18" rx="36.2938" ry="18"/>
<text text-anchor="middle" x="879" y="-14.3" font-family="Times,serif" font-size="14.00">013 (a)</text>
</g>
<!-- 031&#45;&gt;013 -->
<g id="edge22" class="edge"><title>031&#45;&gt;013</title>
<path fill="none" stroke="#b43f3f" stroke-dasharray="1,5" d="M809.372,-90.006C817.992,-83.9634 827.814,-76.5539 836,-69 844.544,-61.1154 853.076,-51.6186 860.26,-43.0293"/>
<polygon fill="#b43f3f" stroke="#b43f3f" points="863.077,-45.1135 866.692,-35.1545 857.656,-40.6853 863.077,-45.1135"/>
<text text-anchor="middle" x="872" y="-57.8" font-family="Times,serif" font-size="14.00">1 (97.1)</text>
</g>
<!-- 01 -->
<g id="node26" class="node"><title>01</title>
<ellipse fill="#ff8a8a" stroke="#b43f3f" cx="965" cy="-18" rx="31.6951" ry="18"/>
<text text-anchor="middle" x="965" y="-14.3" font-family="Times,serif" font-size="14.00">01 (a)</text>
</g>
<!-- 031&#45;&gt;01 -->
<g id="edge23" class="edge"><title>031&#45;&gt;01</title>
<path fill="none" stroke="#b43f3f" stroke-dasharray="1,5" d="M816.095,-93.2129C821.98,-91.0671 828.17,-88.8939 834,-87 862.103,-77.8713 871.492,-82.0552 898,-69 913.34,-61.445 928.75,-50.2543 940.918,-40.3743"/>
<polygon fill="#b43f3f" stroke="#b43f3f" points="943.352,-42.9015 948.783,-33.8044 938.864,-37.5293 943.352,-42.9015"/>
<text text-anchor="middle" x="944" y="-57.8" font-family="Times,serif" font-size="14.00">2 (48.5)</text>
</g>
<!-- 0141 -->
<g id="node28" class="node"><title>0141</title>
<ellipse fill="#ff8a8a" stroke="#b43f3f" cx="151" cy="-105" rx="40.0939" ry="18"/>
<text text-anchor="middle" x="151" y="-101.3" font-family="Times,serif" font-size="14.00">0141 (a)</text>
</g>
<!-- 044&#45;&gt;0141 -->
<g id="edge24" class="edge"><title>044&#45;&gt;0141</title>
<path fill="none" stroke="#b43f3f" stroke-dasharray="1,5" d="M225.27,-177.159C216.564,-171.025 206.505,-163.508 198,-156 188.837,-147.911 179.469,-138.276 171.533,-129.632"/>
<polygon fill="#b43f3f" stroke="#b43f3f" points="173.99,-127.129 164.694,-122.045 168.79,-131.816 173.99,-127.129"/>
<text text-anchor="middle" x="220" y="-144.8" font-family="Times,serif" font-size="14.00">1 (89.2)</text>
</g>
<!-- 022 -->
<g id="node29" class="node"><title>022</title>
<ellipse fill="#cea8f4" stroke="#835da9" cx="246" cy="-105" rx="36.2938" ry="18"/>
<text text-anchor="middle" x="246" y="-101.3" font-family="Times,serif" font-size="14.00">022 (b)</text>
</g>
<!-- 044&#45;&gt;022 -->
<g id="edge25" class="edge"><title>044&#45;&gt;022</title>
<path fill="none" stroke="#835da9" stroke-dasharray="1,5" d="M246,-173.799C246,-162.163 246,-146.548 246,-133.237"/>
<polygon fill="#835da9" stroke="#835da9" points="249.5,-133.175 246,-123.175 242.5,-133.175 249.5,-133.175"/>
<text text-anchor="middle" x="268" y="-144.8" font-family="Times,serif" font-size="14.00">1 (91.7)</text>
</g>
</g>
</svg>
