<?xml version="1.0" encoding="UTF-8" standalone="no"?>
<!DOCTYPE svg PUBLIC "-//W3C//DTD SVG 1.1//EN"
 "http://www.w3.org/Graphics/SVG/1.1/DTD/svg11.dtd">
<!-- Generated by graphviz version 2.38.0 (20140413.2041)
 -->
<!-- Title: %3 Pages: 1 -->
<svg width="830pt" height="408pt"
 viewBox="0.00 0.00 830.40 408.00" xmlns="http://www.w3.org/2000/svg" xmlns:xlink="http://www.w3.org/1999/xlink">
<g id="graph0" class="graph" transform="scale(1 1) rotate(0) translate(4 404)">
<title>%3</title>
<polygon fill="white" stroke="none" points="-4,4 -4,-404 826.397,-404 826.397,4 -4,4"/>
<g id="clust1" class="cluster"><title>cluster_legend</title>
<path fill="none" stroke="black" d="M20,-264C20,-264 210,-264 210,-264 216,-264 222,-270 222,-276 222,-276 222,-380 222,-380 222,-386 216,-392 210,-392 210,-392 20,-392 20,-392 14,-392 8,-386 8,-380 8,-380 8,-276 8,-276 8,-270 14,-264 20,-264"/>
</g>
<!-- leg_s -->
<g id="node1" class="node"><title>leg_s</title>
<text text-anchor="middle" x="115" y="-362.3" font-family="Times,serif" font-size="14.00">Textual flow strength</text>
</g>
<!-- leg_e1 -->
<!-- leg_s&#45;&gt;leg_e1 -->
<g id="edge1" class="edge"><title>leg_s&#45;&gt;leg_e1</title>
<path fill="none" stroke="black" stroke-dasharray="1,5" d="M96.6657,-347.686C91.1324,-342.194 85.1607,-335.989 80,-330 70.1708,-318.593 60.0722,-304.779 52.9137,-294.563"/>
<polygon fill="black" stroke="black" points="55.6142,-292.314 47.056,-286.068 49.8514,-296.288 55.6142,-292.314"/>
<text text-anchor="middle" x="95.5" y="-318.8" font-family="Times,serif" font-size="14.00">&lt;=5 &#160;</text>
</g>
<!-- leg_e2 -->
<!-- leg_s&#45;&gt;leg_e2 -->
<g id="edge2" class="edge"><title>leg_s&#45;&gt;leg_e2</title>
<path fill="none" stroke="black" stroke-dasharray="5,2" d="M115,-347.799C115,-332.794 115,-311.174 115,-296.409"/>
<polygon fill="black" stroke="black" points="118.5,-296.293 115,-286.293 111.5,-296.293 118.5,-296.293"/>
<text text-anchor="middle" x="134" y="-318.8" font-family="Times,serif" font-size="14.00"> &#160;&lt;=25</text>
</g>
<!-- leg_e3 -->
<!-- leg_s&#45;&gt;leg_e3 -->
<g id="edge3" class="edge"><title>leg_s&#45;&gt;leg_e3</title>
<path fill="none" stroke="black" d="M138.503,-347.76C144.906,-342.462 151.567,-336.344 157,-330 166.087,-319.39 174.095,-305.689 179.546,-295.313"/>
<polygon fill="black" stroke="black" points="182.722,-296.789 184.091,-286.283 176.469,-293.642 182.722,-296.789"/>
<text text-anchor="middle" x="179" y="-318.8" font-family="Times,serif" font-size="14.00">&gt;25</text>
</g>
<!-- A -->
<g id="node5" class="node"><title>A</title>
<ellipse fill="#ff8a8a" stroke="#b43f3f" cx="465" cy="-366" rx="29.4969" ry="18"/>
<text text-anchor="middle" x="465" y="-362.3" font-family="Times,serif" font-size="14.00">A (a)</text>
</g>
<!-- 03 -->
<g id="node6" class="node"><title>03</title>
<ellipse fill="#ff8a8a" stroke="#b43f3f" cx="264" cy="-279" rx="31.6951" ry="18"/>
<text text-anchor="middle" x="264" y="-275.3" font-family="Times,serif" font-size="14.00">03 (a)</text>
</g>
<!-- A&#45;&gt;03 -->
<g id="edge4" class="edge"><title>A&#45;&gt;03</title>
<path fill="none" stroke="#b43f3f" stroke-dasharray="1,5" d="M438.51,-357.999C416.121,-351.727 383.41,-341.727 356,-330 334.509,-320.806 311.396,-308.233 293.713,-297.996"/>
<polygon fill="#b43f3f" stroke="#b43f3f" points="295.395,-294.924 284.998,-292.885 291.854,-300.963 295.395,-294.924"/>
<text text-anchor="middle" x="378" y="-318.8" font-family="Times,serif" font-size="14.00">1 (93.3)</text>
</g>
<!-- 019 -->
<g id="node7" class="node"><title>019</title>
<ellipse fill="#ff8a8a" stroke="#b43f3f" cx="374" cy="-279" rx="36.2938" ry="18"/>
<text text-anchor="middle" x="374" y="-275.3" font-family="Times,serif" font-size="14.00">019 (a)</text>
</g>
<!-- A&#45;&gt;019 -->
<g id="edge5" class="edge"><title>A&#45;&gt;019</title>
<path fill="none" stroke="#b43f3f" stroke-dasharray="1,5" d="M445.523,-352.326C436.472,-346.06 425.792,-338.113 417,-330 408.456,-322.115 399.924,-312.619 392.74,-304.029"/>
<polygon fill="#b43f3f" stroke="#b43f3f" points="395.344,-301.685 386.308,-296.155 389.923,-306.113 395.344,-301.685"/>
<text text-anchor="middle" x="439" y="-318.8" font-family="Times,serif" font-size="14.00">1 (93.3)</text>
</g>
<!-- P75 -->
<g id="node8" class="node"><title>P75</title>
<ellipse fill="#ff8a8a" stroke="#b43f3f" cx="465" cy="-279" rx="36.2938" ry="18"/>
<text text-anchor="middle" x="465" y="-275.3" font-family="Times,serif" font-size="14.00">P75 (a)</text>
</g>
<!-- A&#45;&gt;P75 -->
<g id="edge6" class="edge"><title>A&#45;&gt;P75</title>
<path fill="none" stroke="#b43f3f" stroke-dasharray="1,5" d="M465,-347.799C465,-336.163 465,-320.548 465,-307.237"/>
<polygon fill="#b43f3f" stroke="#b43f3f" points="468.5,-307.175 465,-297.175 461.5,-307.175 468.5,-307.175"/>
<text text-anchor="middle" x="487" y="-318.8" font-family="Times,serif" font-size="14.00">1 (93.3)</text>
</g>
<!-- 01 -->
<g id="node9" class="node"><title>01</title>
<ellipse fill="#ff8a8a" stroke="#b43f3f" cx="551" cy="-279" rx="31.6951" ry="18"/>
<text text-anchor="middle" x="551" y="-275.3" font-family="Times,serif" font-size="14.00">01 (a)</text>
</g>
<!-- A&#45;&gt;01 -->
<g id="edge7" class="edge"><title>A&#45;&gt;01</title>
<path fill="none" stroke="#b43f3f" stroke-dasharray="5,2" d="M484.7,-352.561C493.801,-346.347 504.457,-338.375 513,-330 520.825,-322.329 528.362,-312.975 534.632,-304.442"/>
<polygon fill="#b43f3f" stroke="#b43f3f" points="537.497,-306.452 540.443,-296.275 531.794,-302.394 537.497,-306.452"/>
<text text-anchor="middle" x="548" y="-318.8" font-family="Times,serif" font-size="14.00">1 (57.1)</text>
</g>
<!-- 091 -->
<g id="node10" class="node"><title>091</title>
<ellipse fill="#ff8a8a" stroke="#b43f3f" cx="637" cy="-279" rx="36.2938" ry="18"/>
<text text-anchor="middle" x="637" y="-275.3" font-family="Times,serif" font-size="14.00">091 (a)</text>
</g>
<!-- A&#45;&gt;091 -->
<g id="edge8" class="edge"><title>A&#45;&gt;091</title>
<path fill="none" stroke="#b43f3f" stroke-dasharray="1,5" d="M492.52,-359.083C515.242,-353.524 547.881,-343.958 574,-330 588.072,-322.48 602.134,-311.712 613.39,-302.093"/>
<polygon fill="#b43f3f" stroke="#b43f3f" points="615.854,-304.588 621.051,-295.355 611.231,-299.331 615.854,-304.588"/>
<text text-anchor="middle" x="619" y="-318.8" font-family="Times,serif" font-size="14.00">1 (87.5)</text>
</g>
<!-- 044 -->
<g id="node11" class="node"><title>044</title>
<ellipse fill="#ff8a8a" stroke="#b43f3f" cx="149" cy="-192" rx="36.2938" ry="18"/>
<text text-anchor="middle" x="149" y="-188.3" font-family="Times,serif" font-size="14.00">044 (a)</text>
</g>
<!-- 03&#45;&gt;044 -->
<g id="edge9" class="edge"><title>03&#45;&gt;044</title>
<path fill="none" stroke="#b43f3f" stroke-dasharray="1,5" d="M240.931,-266.366C229.182,-260.048 214.903,-251.751 203,-243 192.062,-234.959 180.902,-224.98 171.588,-216.057"/>
<polygon fill="#b43f3f" stroke="#b43f3f" points="173.84,-213.364 164.243,-208.875 168.946,-218.369 173.84,-213.364"/>
<text text-anchor="middle" x="225" y="-231.8" font-family="Times,serif" font-size="14.00">1 (89.2)</text>
</g>
<!-- 02 -->
<g id="node12" class="node"><title>02</title>
<ellipse fill="#ff8a8a" stroke="#b43f3f" cx="240" cy="-192" rx="31.6951" ry="18"/>
<text text-anchor="middle" x="240" y="-188.3" font-family="Times,serif" font-size="14.00">02 (a)</text>
</g>
<!-- 03&#45;&gt;02 -->
<g id="edge10" class="edge"><title>03&#45;&gt;02</title>
<path fill="none" stroke="#b43f3f" stroke-dasharray="1,5" d="M259.143,-260.799C255.803,-248.97 251.303,-233.03 247.504,-219.578"/>
<polygon fill="#b43f3f" stroke="#b43f3f" points="250.853,-218.558 244.768,-209.885 244.117,-220.46 250.853,-218.558"/>
<text text-anchor="middle" x="276" y="-231.8" font-family="Times,serif" font-size="14.00">1 (86.5)</text>
</g>
<!-- 032 -->
<g id="node13" class="node"><title>032</title>
<ellipse fill="#ff8a8a" stroke="#b43f3f" cx="326" cy="-192" rx="36.2938" ry="18"/>
<text text-anchor="middle" x="326" y="-188.3" font-family="Times,serif" font-size="14.00">032 (a)</text>
</g>
<!-- 03&#45;&gt;032 -->
<g id="edge11" class="edge"><title>03&#45;&gt;032</title>
<path fill="none" stroke="#b43f3f" stroke-dasharray="1,5" d="M282.026,-263.905C288.858,-257.957 296.345,-250.643 302,-243 307.293,-235.846 311.892,-227.341 315.609,-219.392"/>
<polygon fill="#b43f3f" stroke="#b43f3f" points="318.873,-220.664 319.692,-210.101 312.464,-217.848 318.873,-220.664"/>
<text text-anchor="middle" x="333" y="-231.8" font-family="Times,serif" font-size="14.00">1 (91.7)</text>
</g>
<!-- 063 -->
<g id="node16" class="node"><title>063</title>
<ellipse fill="#ff8a8a" stroke="#b43f3f" cx="422" cy="-192" rx="36.2938" ry="18"/>
<text text-anchor="middle" x="422" y="-188.3" font-family="Times,serif" font-size="14.00">063 (a)</text>
</g>
<!-- 019&#45;&gt;063 -->
<g id="edge28" class="edge"><title>019&#45;&gt;063</title>
<path fill="none" stroke="#b43f3f" stroke-dasharray="1,5" d="M383.483,-261.207C390.365,-249.021 399.797,-232.318 407.605,-218.491"/>
<polygon fill="#b43f3f" stroke="#b43f3f" points="410.83,-219.898 412.7,-209.469 404.735,-216.456 410.83,-219.898"/>
<text text-anchor="middle" x="423" y="-231.8" font-family="Times,serif" font-size="14.00">1 (85.7)</text>
</g>
<!-- 0211 -->
<g id="node31" class="node"><title>0211</title>
<ellipse fill="#ff8a8a" stroke="#b43f3f" cx="553" cy="-192" rx="40.0939" ry="18"/>
<text text-anchor="middle" x="553" y="-188.3" font-family="Times,serif" font-size="14.00">0211 (a)</text>
</g>
<!-- 091&#45;&gt;0211 -->
<g id="edge29" class="edge"><title>091&#45;&gt;0211</title>
<path fill="none" stroke="#b43f3f" stroke-dasharray="1,5" d="M616.93,-263.558C609.129,-257.562 600.326,-250.306 593,-243 585.207,-235.229 577.46,-225.991 570.888,-217.582"/>
<polygon fill="#b43f3f" stroke="#b43f3f" points="573.597,-215.364 564.749,-209.535 568.032,-219.609 573.597,-215.364"/>
<text text-anchor="middle" x="615" y="-231.8" font-family="Times,serif" font-size="14.00">1 (83.3)</text>
</g>
<!-- 05 -->
<g id="node32" class="node"><title>05</title>
<ellipse fill="#cea8f4" stroke="#835da9" cx="644" cy="-192" rx="32.4942" ry="18"/>
<text text-anchor="middle" x="644" y="-188.3" font-family="Times,serif" font-size="14.00">05 (b)</text>
</g>
<!-- 091&#45;&gt;05 -->
<g id="edge30" class="edge"><title>091&#45;&gt;05</title>
<path fill="none" stroke="#835da9" stroke-dasharray="1,5" d="M638.417,-260.799C639.375,-249.163 640.661,-233.548 641.757,-220.237"/>
<polygon fill="#835da9" stroke="#835da9" points="645.253,-220.429 642.586,-210.175 638.277,-219.854 645.253,-220.429"/>
<text text-anchor="middle" x="663" y="-231.8" font-family="Times,serif" font-size="14.00">1 (87.5)</text>
</g>
<!-- 0141 -->
<g id="node14" class="node"><title>0141</title>
<ellipse fill="#ff8a8a" stroke="#b43f3f" cx="54" cy="-105" rx="40.0939" ry="18"/>
<text text-anchor="middle" x="54" y="-101.3" font-family="Times,serif" font-size="14.00">0141 (a)</text>
</g>
<!-- 044&#45;&gt;0141 -->
<g id="edge12" class="edge"><title>044&#45;&gt;0141</title>
<path fill="none" stroke="#b43f3f" stroke-dasharray="1,5" d="M128.27,-177.159C119.564,-171.025 109.505,-163.508 101,-156 91.8366,-147.911 82.4693,-138.276 74.5333,-129.632"/>
<polygon fill="#b43f3f" stroke="#b43f3f" points="76.9897,-127.129 67.6943,-122.045 71.7904,-131.816 76.9897,-127.129"/>
<text text-anchor="middle" x="123" y="-144.8" font-family="Times,serif" font-size="14.00">1 (89.2)</text>
</g>
<!-- 022 -->
<g id="node15" class="node"><title>022</title>
<ellipse fill="#ff8a8a" stroke="#b43f3f" cx="149" cy="-105" rx="36.2938" ry="18"/>
<text text-anchor="middle" x="149" y="-101.3" font-family="Times,serif" font-size="14.00">022 (a)</text>
</g>
<!-- 044&#45;&gt;022 -->
<g id="edge13" class="edge"><title>044&#45;&gt;022</title>
<path fill="none" stroke="#b43f3f" stroke-dasharray="1,5" d="M149,-173.799C149,-162.163 149,-146.548 149,-133.237"/>
<polygon fill="#b43f3f" stroke="#b43f3f" points="152.5,-133.175 149,-123.175 145.5,-133.175 152.5,-133.175"/>
<text text-anchor="middle" x="171" y="-144.8" font-family="Times,serif" font-size="14.00">1 (91.7)</text>
</g>
<!-- 045 -->
<g id="node17" class="node"><title>045</title>
<ellipse fill="#ff8a8a" stroke="#b43f3f" cx="240" cy="-105" rx="36.2938" ry="18"/>
<text text-anchor="middle" x="240" y="-101.3" font-family="Times,serif" font-size="14.00">045 (a)</text>
</g>
<!-- 063&#45;&gt;045 -->
<g id="edge14" class="edge"><title>063&#45;&gt;045</title>
<path fill="none" stroke="#b43f3f" stroke-dasharray="1,5" d="M392.638,-181.097C385.562,-178.742 378.019,-176.259 371,-174 345.307,-165.732 337.295,-167.758 313,-156 296.667,-148.095 279.864,-136.84 266.502,-127.009"/>
<polygon fill="#b43f3f" stroke="#b43f3f" points="268.353,-124.021 258.258,-120.804 264.143,-129.614 268.353,-124.021"/>
<text text-anchor="middle" x="335" y="-144.8" font-family="Times,serif" font-size="14.00">1 (93.1)</text>
</g>
<!-- 031 -->
<g id="node18" class="node"><title>031</title>
<ellipse fill="#ff8a8a" stroke="#b43f3f" cx="331" cy="-105" rx="36.2938" ry="18"/>
<text text-anchor="middle" x="331" y="-101.3" font-family="Times,serif" font-size="14.00">031 (a)</text>
</g>
<!-- 063&#45;&gt;031 -->
<g id="edge15" class="edge"><title>063&#45;&gt;031</title>
<path fill="none" stroke="#b43f3f" stroke-dasharray="1,5" d="M400.628,-177.006C392.008,-170.963 382.186,-163.554 374,-156 365.456,-148.115 356.924,-138.619 349.74,-130.029"/>
<polygon fill="#b43f3f" stroke="#b43f3f" points="352.344,-127.685 343.308,-122.155 346.923,-132.113 352.344,-127.685"/>
<text text-anchor="middle" x="396" y="-144.8" font-family="Times,serif" font-size="14.00">1 (95.8)</text>
</g>
<!-- 011 -->
<g id="node19" class="node"><title>011</title>
<ellipse fill="#ff8a8a" stroke="#b43f3f" cx="422" cy="-105" rx="36.2938" ry="18"/>
<text text-anchor="middle" x="422" y="-101.3" font-family="Times,serif" font-size="14.00">011 (a)</text>
</g>
<!-- 063&#45;&gt;011 -->
<g id="edge16" class="edge"><title>063&#45;&gt;011</title>
<path fill="none" stroke="#b43f3f" stroke-dasharray="1,5" d="M422,-173.799C422,-162.163 422,-146.548 422,-133.237"/>
<polygon fill="#b43f3f" stroke="#b43f3f" points="425.5,-133.175 422,-123.175 418.5,-133.175 425.5,-133.175"/>
<text text-anchor="middle" x="444" y="-144.8" font-family="Times,serif" font-size="14.00">1 (93.1)</text>
</g>
<!-- 07 -->
<g id="node20" class="node"><title>07</title>
<ellipse fill="#ff8a8a" stroke="#b43f3f" cx="508" cy="-105" rx="31.6951" ry="18"/>
<text text-anchor="middle" x="508" y="-101.3" font-family="Times,serif" font-size="14.00">07 (a)</text>
</g>
<!-- 063&#45;&gt;07 -->
<g id="edge17" class="edge"><title>063&#45;&gt;07</title>
<path fill="none" stroke="#b43f3f" stroke-dasharray="1,5" d="M443.604,-177.25C452.26,-171.245 462.046,-163.798 470,-156 477.825,-148.329 485.362,-138.975 491.632,-130.442"/>
<polygon fill="#b43f3f" stroke="#b43f3f" points="494.497,-132.452 497.443,-122.275 488.794,-128.394 494.497,-132.452"/>
<text text-anchor="middle" x="505" y="-144.8" font-family="Times,serif" font-size="14.00">1 (96.6)</text>
</g>
<!-- 028 -->
<g id="node21" class="node"><title>028</title>
<ellipse fill="#ff8a8a" stroke="#b43f3f" cx="594" cy="-105" rx="36.2938" ry="18"/>
<text text-anchor="middle" x="594" y="-101.3" font-family="Times,serif" font-size="14.00">028 (a)</text>
</g>
<!-- 063&#45;&gt;028 -->
<g id="edge18" class="edge"><title>063&#45;&gt;028</title>
<path fill="none" stroke="#b43f3f" stroke-dasharray="1,5" d="M454.708,-183.786C477.025,-178.088 506.81,-168.927 531,-156 545.072,-148.48 559.134,-137.712 570.39,-128.093"/>
<polygon fill="#b43f3f" stroke="#b43f3f" points="572.854,-130.588 578.051,-121.355 568.231,-125.331 572.854,-130.588"/>
<text text-anchor="middle" x="576" y="-144.8" font-family="Times,serif" font-size="14.00">1 (96.6)</text>
</g>
<!-- 021 -->
<g id="node22" class="node"><title>021</title>
<ellipse fill="#ff8a8a" stroke="#b43f3f" cx="695" cy="-105" rx="36.2938" ry="18"/>
<text text-anchor="middle" x="695" y="-101.3" font-family="Times,serif" font-size="14.00">021 (a)</text>
</g>
<!-- 063&#45;&gt;021 -->
<g id="edge19" class="edge"><title>063&#45;&gt;021</title>
<path fill="none" stroke="#b43f3f" stroke-dasharray="1,5" d="M454.685,-184.046C469.694,-180.899 487.734,-177.18 504,-174 547.462,-165.505 560.214,-170.663 602,-156 624.095,-148.247 647.294,-135.783 664.995,-125.239"/>
<polygon fill="#b43f3f" stroke="#b43f3f" points="666.99,-128.122 673.715,-119.935 663.353,-122.141 666.99,-128.122"/>
<text text-anchor="middle" x="656" y="-144.8" font-family="Times,serif" font-size="14.00">1 (93.1)</text>
</g>
<!-- 038 -->
<g id="node23" class="node"><title>038</title>
<ellipse fill="#ff8a8a" stroke="#b43f3f" cx="149" cy="-18" rx="36.2938" ry="18"/>
<text text-anchor="middle" x="149" y="-14.3" font-family="Times,serif" font-size="14.00">038 (a)</text>
</g>
<!-- 045&#45;&gt;038 -->
<g id="edge20" class="edge"><title>045&#45;&gt;038</title>
<path fill="none" stroke="#b43f3f" stroke-dasharray="1,5" d="M211.473,-93.5557C198.797,-87.819 184.42,-79.6722 174,-69 167.47,-62.3118 162.315,-53.579 158.425,-45.2867"/>
<polygon fill="#b43f3f" stroke="#b43f3f" points="161.568,-43.7346 154.432,-35.9034 155.127,-46.4755 161.568,-43.7346"/>
<text text-anchor="middle" x="196" y="-57.8" font-family="Times,serif" font-size="14.00">1 (92.7)</text>
</g>
<!-- 017 -->
<g id="node24" class="node"><title>017</title>
<ellipse fill="#ff8a8a" stroke="#b43f3f" cx="240" cy="-18" rx="36.2938" ry="18"/>
<text text-anchor="middle" x="240" y="-14.3" font-family="Times,serif" font-size="14.00">017 (a)</text>
</g>
<!-- 031&#45;&gt;017 -->
<g id="edge21" class="edge"><title>031&#45;&gt;017</title>
<path fill="none" stroke="#b43f3f" stroke-dasharray="1,5" d="M309.628,-90.006C301.008,-83.9634 291.186,-76.5539 283,-69 274.456,-61.1154 265.924,-51.6186 258.74,-43.0293"/>
<polygon fill="#b43f3f" stroke="#b43f3f" points="261.344,-40.6853 252.308,-35.1545 255.923,-45.1135 261.344,-40.6853"/>
<text text-anchor="middle" x="305" y="-57.8" font-family="Times,serif" font-size="14.00">1 (94.3)</text>
</g>
<!-- 013 -->
<g id="node25" class="node"><title>013</title>
<ellipse fill="#ff8a8a" stroke="#b43f3f" cx="331" cy="-18" rx="36.2938" ry="18"/>
<text text-anchor="middle" x="331" y="-14.3" font-family="Times,serif" font-size="14.00">013 (a)</text>
</g>
<!-- 031&#45;&gt;013 -->
<g id="edge22" class="edge"><title>031&#45;&gt;013</title>
<path fill="none" stroke="#b43f3f" stroke-dasharray="1,5" d="M331,-86.799C331,-75.1626 331,-59.5479 331,-46.2368"/>
<polygon fill="#b43f3f" stroke="#b43f3f" points="334.5,-46.1754 331,-36.1754 327.5,-46.1755 334.5,-46.1754"/>
<text text-anchor="middle" x="353" y="-57.8" font-family="Times,serif" font-size="14.00">1 (97.1)</text>
</g>
<!-- 034 -->
<g id="node26" class="node"><title>034</title>
<ellipse fill="#ff8a8a" stroke="#b43f3f" cx="422" cy="-18" rx="36.2938" ry="18"/>
<text text-anchor="middle" x="422" y="-14.3" font-family="Times,serif" font-size="14.00">034 (a)</text>
</g>
<!-- 07&#45;&gt;034 -->
<g id="edge23" class="edge"><title>07&#45;&gt;034</title>
<path fill="none" stroke="#b43f3f" stroke-dasharray="1,5" d="M488.839,-90.5796C480.544,-84.4029 470.939,-76.7366 463,-69 454.92,-61.1259 446.866,-51.7284 440.062,-43.217"/>
<polygon fill="#b43f3f" stroke="#b43f3f" points="442.631,-40.8207 433.72,-35.0903 437.113,-45.1272 442.631,-40.8207"/>
<text text-anchor="middle" x="485" y="-57.8" font-family="Times,serif" font-size="14.00">1 (95.1)</text>
</g>
<!-- 030 -->
<g id="node27" class="node"><title>030</title>
<ellipse fill="#ff8a8a" stroke="#b43f3f" cx="513" cy="-18" rx="36.2938" ry="18"/>
<text text-anchor="middle" x="513" y="-14.3" font-family="Times,serif" font-size="14.00">030 (a)</text>
</g>
<!-- 07&#45;&gt;030 -->
<g id="edge24" class="edge"><title>07&#45;&gt;030</title>
<path fill="none" stroke="#b43f3f" stroke-dasharray="1,5" d="M509.012,-86.799C509.696,-75.1626 510.615,-59.5479 511.398,-46.2368"/>
<polygon fill="#b43f3f" stroke="#b43f3f" points="514.896,-46.3637 511.99,-36.1754 507.908,-45.9526 514.896,-46.3637"/>
<text text-anchor="middle" x="533" y="-57.8" font-family="Times,serif" font-size="14.00">1 (95.1)</text>
</g>
<!-- 037 -->
<g id="node28" class="node"><title>037</title>
<ellipse fill="#ff8a8a" stroke="#b43f3f" cx="604" cy="-18" rx="36.2938" ry="18"/>
<text text-anchor="middle" x="604" y="-14.3" font-family="Times,serif" font-size="14.00">037 (a)</text>
</g>
<!-- 07&#45;&gt;037 -->
<g id="edge25" class="edge"><title>07&#45;&gt;037</title>
<path fill="none" stroke="#b43f3f" stroke-dasharray="1,5" d="M529.17,-91.0889C538.674,-84.8929 549.794,-77.0696 559,-69 568.01,-61.1022 577.026,-51.5043 584.595,-42.8374"/>
<polygon fill="#b43f3f" stroke="#b43f3f" points="587.271,-45.0942 591.099,-35.2152 581.945,-40.5506 587.271,-45.0942"/>
<text text-anchor="middle" x="596" y="-57.8" font-family="Times,serif" font-size="14.00">1 (97.5)</text>
</g>
<!-- 036 -->
<g id="node29" class="node"><title>036</title>
<ellipse fill="#ff8a8a" stroke="#b43f3f" cx="695" cy="-18" rx="36.2938" ry="18"/>
<text text-anchor="middle" x="695" y="-14.3" font-family="Times,serif" font-size="14.00">036 (a)</text>
</g>
<!-- 021&#45;&gt;036 -->
<g id="edge26" class="edge"><title>021&#45;&gt;036</title>
<path fill="none" stroke="#b43f3f" stroke-dasharray="1,5" d="M695,-86.799C695,-75.1626 695,-59.5479 695,-46.2368"/>
<polygon fill="#b43f3f" stroke="#b43f3f" points="698.5,-46.1754 695,-36.1754 691.5,-46.1755 698.5,-46.1754"/>
<text text-anchor="middle" x="717" y="-57.8" font-family="Times,serif" font-size="14.00">1 (97.6)</text>
</g>
<!-- 047 -->
<g id="node30" class="node"><title>047</title>
<ellipse fill="#cea8f4" stroke="#835da9" cx="786" cy="-18" rx="36.2938" ry="18"/>
<text text-anchor="middle" x="786" y="-14.3" font-family="Times,serif" font-size="14.00">047 (b)</text>
</g>
<!-- 021&#45;&gt;047 -->
<g id="edge27" class="edge"><title>021&#45;&gt;047</title>
<path fill="none" stroke="#835da9" stroke-dasharray="1,5" d="M716.372,-90.006C724.992,-83.9634 734.814,-76.5539 743,-69 751.544,-61.1154 760.076,-51.6186 767.26,-43.0293"/>
<polygon fill="#835da9" stroke="#835da9" points="770.077,-45.1135 773.692,-35.1545 764.656,-40.6853 770.077,-45.1135"/>
<text text-anchor="middle" x="779" y="-57.8" font-family="Times,serif" font-size="14.00">1 (95.1)</text>
</g>
</g>
</svg>
