<?xml version="1.0" encoding="UTF-8" standalone="no"?>
<!DOCTYPE svg PUBLIC "-//W3C//DTD SVG 1.1//EN"
 "http://www.w3.org/Graphics/SVG/1.1/DTD/svg11.dtd">
<!-- Generated by graphviz version 2.38.0 (20140413.2041)
 -->
<!-- Title: %3 Pages: 1 -->
<svg width="1804pt" height="234pt"
 viewBox="0.00 0.00 1803.85 234.00" xmlns="http://www.w3.org/2000/svg" xmlns:xlink="http://www.w3.org/1999/xlink">
<g id="graph0" class="graph" transform="scale(1 1) rotate(0) translate(4 230)">
<title>%3</title>
<polygon fill="white" stroke="none" points="-4,4 -4,-230 1799.85,-230 1799.85,4 -4,4"/>
<g id="clust1" class="cluster"><title>cluster_legend</title>
<path fill="none" stroke="black" d="M20,-90C20,-90 210,-90 210,-90 216,-90 222,-96 222,-102 222,-102 222,-206 222,-206 222,-212 216,-218 210,-218 210,-218 20,-218 20,-218 14,-218 8,-212 8,-206 8,-206 8,-102 8,-102 8,-96 14,-90 20,-90"/>
</g>
<!-- leg_s -->
<g id="node1" class="node"><title>leg_s</title>
<text text-anchor="middle" x="115" y="-188.3" font-family="Times,serif" font-size="14.00">Textual flow strength</text>
</g>
<!-- leg_e1 -->
<!-- leg_s&#45;&gt;leg_e1 -->
<g id="edge1" class="edge"><title>leg_s&#45;&gt;leg_e1</title>
<path fill="none" stroke="black" stroke-dasharray="1,5" d="M96.6657,-173.686C91.1324,-168.194 85.1607,-161.989 80,-156 70.1708,-144.593 60.0722,-130.779 52.9137,-120.563"/>
<polygon fill="black" stroke="black" points="55.6142,-118.314 47.056,-112.068 49.8514,-122.288 55.6142,-118.314"/>
<text text-anchor="middle" x="95.5" y="-144.8" font-family="Times,serif" font-size="14.00">&lt;=5 &#160;</text>
</g>
<!-- leg_e2 -->
<!-- leg_s&#45;&gt;leg_e2 -->
<g id="edge2" class="edge"><title>leg_s&#45;&gt;leg_e2</title>
<path fill="none" stroke="black" stroke-dasharray="5,2" d="M115,-173.799C115,-158.794 115,-137.174 115,-122.409"/>
<polygon fill="black" stroke="black" points="118.5,-122.293 115,-112.293 111.5,-122.293 118.5,-122.293"/>
<text text-anchor="middle" x="134" y="-144.8" font-family="Times,serif" font-size="14.00"> &#160;&lt;=25</text>
</g>
<!-- leg_e3 -->
<!-- leg_s&#45;&gt;leg_e3 -->
<g id="edge3" class="edge"><title>leg_s&#45;&gt;leg_e3</title>
<path fill="none" stroke="black" d="M138.503,-173.76C144.906,-168.462 151.567,-162.344 157,-156 166.087,-145.39 174.095,-131.689 179.546,-121.313"/>
<polygon fill="black" stroke="black" points="182.722,-122.789 184.091,-112.283 176.469,-119.642 182.722,-122.789"/>
<text text-anchor="middle" x="179" y="-144.8" font-family="Times,serif" font-size="14.00">&gt;25</text>
</g>
<!-- 021 -->
<g id="node5" class="node"><title>021</title>
<ellipse fill="#ff8a8a" stroke="#b43f3f" cx="314" cy="-192" rx="36.2938" ry="18"/>
<text text-anchor="middle" x="314" y="-188.3" font-family="Times,serif" font-size="14.00">021 (a)</text>
</g>
<!-- 036 -->
<g id="node6" class="node"><title>036</title>
<ellipse fill="#ff8a8a" stroke="#b43f3f" cx="268" cy="-105" rx="36.2938" ry="18"/>
<text text-anchor="middle" x="268" y="-101.3" font-family="Times,serif" font-size="14.00">036 (a)</text>
</g>
<!-- 021&#45;&gt;036 -->
<g id="edge4" class="edge"><title>021&#45;&gt;036</title>
<path fill="none" stroke="#b43f3f" stroke-dasharray="1,5" d="M299.713,-175.414C294.903,-169.617 289.8,-162.791 286,-156 281.99,-148.834 278.593,-140.608 275.867,-132.924"/>
<polygon fill="#b43f3f" stroke="#b43f3f" points="279.138,-131.666 272.675,-123.271 272.492,-133.864 279.138,-131.666"/>
<text text-anchor="middle" x="308" y="-144.8" font-family="Times,serif" font-size="14.00">1 (97.6)</text>
</g>
<!-- 047 -->
<g id="node7" class="node"><title>047</title>
<ellipse fill="#ff8a8a" stroke="#b43f3f" cx="359" cy="-105" rx="36.2938" ry="18"/>
<text text-anchor="middle" x="359" y="-101.3" font-family="Times,serif" font-size="14.00">047 (a)</text>
</g>
<!-- 021&#45;&gt;047 -->
<g id="edge5" class="edge"><title>021&#45;&gt;047</title>
<path fill="none" stroke="#b43f3f" stroke-dasharray="1,5" d="M322.891,-174.207C329.3,-162.099 338.071,-145.533 345.363,-131.759"/>
<polygon fill="#b43f3f" stroke="#b43f3f" points="348.542,-133.234 350.128,-122.758 342.356,-129.959 348.542,-133.234"/>
<text text-anchor="middle" x="362" y="-144.8" font-family="Times,serif" font-size="14.00">1 (95.1)</text>
</g>
<!-- 045 -->
<g id="node8" class="node"><title>045</title>
<ellipse fill="#ff8a8a" stroke="#b43f3f" cx="450" cy="-192" rx="36.2938" ry="18"/>
<text text-anchor="middle" x="450" y="-188.3" font-family="Times,serif" font-size="14.00">045 (a)</text>
</g>
<!-- 038 -->
<g id="node9" class="node"><title>038</title>
<ellipse fill="#ff8a8a" stroke="#b43f3f" cx="450" cy="-105" rx="36.2938" ry="18"/>
<text text-anchor="middle" x="450" y="-101.3" font-family="Times,serif" font-size="14.00">038 (a)</text>
</g>
<!-- 045&#45;&gt;038 -->
<g id="edge6" class="edge"><title>045&#45;&gt;038</title>
<path fill="none" stroke="#b43f3f" stroke-dasharray="1,5" d="M450,-173.799C450,-162.163 450,-146.548 450,-133.237"/>
<polygon fill="#b43f3f" stroke="#b43f3f" points="453.5,-133.175 450,-123.175 446.5,-133.175 453.5,-133.175"/>
<text text-anchor="middle" x="472" y="-144.8" font-family="Times,serif" font-size="14.00">1 (92.7)</text>
</g>
<!-- 031 -->
<g id="node10" class="node"><title>031</title>
<ellipse fill="#ff8a8a" stroke="#b43f3f" cx="586" cy="-192" rx="36.2938" ry="18"/>
<text text-anchor="middle" x="586" y="-188.3" font-family="Times,serif" font-size="14.00">031 (a)</text>
</g>
<!-- 017 -->
<g id="node11" class="node"><title>017</title>
<ellipse fill="#ff8a8a" stroke="#b43f3f" cx="563" cy="-105" rx="36.2938" ry="18"/>
<text text-anchor="middle" x="563" y="-101.3" font-family="Times,serif" font-size="14.00">017 (a)</text>
</g>
<!-- 031&#45;&gt;017 -->
<g id="edge7" class="edge"><title>031&#45;&gt;017</title>
<path fill="none" stroke="#b43f3f" stroke-dasharray="1,5" d="M581.346,-173.799C578.145,-161.97 573.832,-146.03 570.192,-132.578"/>
<polygon fill="#b43f3f" stroke="#b43f3f" points="573.56,-131.624 567.569,-122.885 566.803,-133.452 573.56,-131.624"/>
<text text-anchor="middle" x="598" y="-144.8" font-family="Times,serif" font-size="14.00">1 (94.3)</text>
</g>
<!-- 013 -->
<g id="node12" class="node"><title>013</title>
<ellipse fill="#ff8a8a" stroke="#b43f3f" cx="654" cy="-105" rx="36.2938" ry="18"/>
<text text-anchor="middle" x="654" y="-101.3" font-family="Times,serif" font-size="14.00">013 (a)</text>
</g>
<!-- 031&#45;&gt;013 -->
<g id="edge8" class="edge"><title>031&#45;&gt;013</title>
<path fill="none" stroke="#b43f3f" stroke-dasharray="1,5" d="M604.051,-176.285C610.734,-170.365 618.11,-163.233 624,-156 630.131,-148.472 635.878,-139.567 640.67,-131.373"/>
<polygon fill="#b43f3f" stroke="#b43f3f" points="643.789,-132.967 645.642,-122.536 637.688,-129.534 643.789,-132.967"/>
<text text-anchor="middle" x="657" y="-144.8" font-family="Times,serif" font-size="14.00">1 (97.1)</text>
</g>
<!-- 07 -->
<g id="node13" class="node"><title>07</title>
<ellipse fill="#ff8a8a" stroke="#b43f3f" cx="883" cy="-192" rx="31.6951" ry="18"/>
<text text-anchor="middle" x="883" y="-188.3" font-family="Times,serif" font-size="14.00">07 (a)</text>
</g>
<!-- 037 -->
<g id="node14" class="node"><title>037</title>
<ellipse fill="#ff8a8a" stroke="#b43f3f" cx="745" cy="-105" rx="36.2938" ry="18"/>
<text text-anchor="middle" x="745" y="-101.3" font-family="Times,serif" font-size="14.00">037 (a)</text>
</g>
<!-- 07&#45;&gt;037 -->
<g id="edge9" class="edge"><title>07&#45;&gt;037</title>
<path fill="none" stroke="#b43f3f" stroke-dasharray="1,5" d="M857.956,-180.809C843.274,-174.434 824.605,-165.622 809,-156 795.479,-147.664 781.464,-136.981 770.009,-127.633"/>
<polygon fill="#b43f3f" stroke="#b43f3f" points="772.091,-124.813 762.163,-121.113 767.617,-130.196 772.091,-124.813"/>
<text text-anchor="middle" x="831" y="-144.8" font-family="Times,serif" font-size="14.00">1 (97.5)</text>
</g>
<!-- 030 -->
<g id="node15" class="node"><title>030</title>
<ellipse fill="#ff8a8a" stroke="#b43f3f" cx="836" cy="-105" rx="36.2938" ry="18"/>
<text text-anchor="middle" x="836" y="-101.3" font-family="Times,serif" font-size="14.00">030 (a)</text>
</g>
<!-- 07&#45;&gt;030 -->
<g id="edge10" class="edge"><title>07&#45;&gt;030</title>
<path fill="none" stroke="#b43f3f" stroke-dasharray="1,5" d="M873.938,-174.611C867.219,-162.46 857.93,-145.66 850.225,-131.725"/>
<polygon fill="#b43f3f" stroke="#b43f3f" points="853.097,-129.686 845.195,-122.629 846.971,-133.073 853.097,-129.686"/>
<text text-anchor="middle" x="885" y="-144.8" font-family="Times,serif" font-size="14.00">1 (95.1)</text>
</g>
<!-- 0211 -->
<g id="node16" class="node"><title>0211</title>
<ellipse fill="#ff8a8a" stroke="#b43f3f" cx="931" cy="-105" rx="40.0939" ry="18"/>
<text text-anchor="middle" x="931" y="-101.3" font-family="Times,serif" font-size="14.00">0211 (a)</text>
</g>
<!-- 07&#45;&gt;0211 -->
<g id="edge11" class="edge"><title>07&#45;&gt;0211</title>
<path fill="none" stroke="#b43f3f" stroke-dasharray="1,5" d="M895.693,-175.487C900.203,-169.587 905.119,-162.674 909,-156 913.291,-148.622 917.284,-140.251 920.658,-132.498"/>
<polygon fill="#b43f3f" stroke="#b43f3f" points="923.947,-133.706 924.577,-123.13 917.489,-131.004 923.947,-133.706"/>
<text text-anchor="middle" x="939" y="-144.8" font-family="Times,serif" font-size="14.00">2 (82.9)</text>
</g>
<!-- 034 -->
<g id="node17" class="node"><title>034</title>
<ellipse fill="#ff8a8a" stroke="#b43f3f" cx="1026" cy="-105" rx="36.2938" ry="18"/>
<text text-anchor="middle" x="1026" y="-101.3" font-family="Times,serif" font-size="14.00">034 (a)</text>
</g>
<!-- 07&#45;&gt;034 -->
<g id="edge12" class="edge"><title>07&#45;&gt;034</title>
<path fill="none" stroke="#b43f3f" stroke-dasharray="1,5" d="M909.407,-181.916C925.951,-175.703 947.396,-166.673 965,-156 978.063,-148.08 991.326,-137.567 1002.13,-128.226"/>
<polygon fill="#b43f3f" stroke="#b43f3f" points="1004.71,-130.622 1009.87,-121.373 1000.07,-125.38 1004.71,-130.622"/>
<text text-anchor="middle" x="1009" y="-144.8" font-family="Times,serif" font-size="14.00">1 (95.1)</text>
</g>
<!-- 0141 -->
<g id="node18" class="node"><title>0141</title>
<ellipse fill="#ff8a8a" stroke="#b43f3f" cx="1112" cy="-192" rx="40.0939" ry="18"/>
<text text-anchor="middle" x="1112" y="-188.3" font-family="Times,serif" font-size="14.00">0141 (a)</text>
</g>
<!-- 02 -->
<g id="node19" class="node"><title>02</title>
<ellipse fill="#ff8a8a" stroke="#b43f3f" cx="1112" cy="-105" rx="31.6951" ry="18"/>
<text text-anchor="middle" x="1112" y="-101.3" font-family="Times,serif" font-size="14.00">02 (a)</text>
</g>
<!-- 0141&#45;&gt;02 -->
<g id="edge13" class="edge"><title>0141&#45;&gt;02</title>
<path fill="none" stroke="#b43f3f" stroke-dasharray="1,5" d="M1112,-173.799C1112,-162.163 1112,-146.548 1112,-133.237"/>
<polygon fill="#b43f3f" stroke="#b43f3f" points="1115.5,-133.175 1112,-123.175 1108.5,-133.175 1115.5,-133.175"/>
<text text-anchor="middle" x="1134" y="-144.8" font-family="Times,serif" font-size="14.00">1 (86.5)</text>
</g>
<!-- 03 -->
<g id="node20" class="node"><title>03</title>
<ellipse fill="#cea8f4" stroke="#835da9" cx="1234" cy="-192" rx="32.4942" ry="18"/>
<text text-anchor="middle" x="1234" y="-188.3" font-family="Times,serif" font-size="14.00">03 (b)</text>
</g>
<!-- 032 -->
<g id="node21" class="node"><title>032</title>
<ellipse fill="#cea8f4" stroke="#835da9" cx="1216" cy="-105" rx="36.2938" ry="18"/>
<text text-anchor="middle" x="1216" y="-101.3" font-family="Times,serif" font-size="14.00">032 (b)</text>
</g>
<!-- 03&#45;&gt;032 -->
<g id="edge14" class="edge"><title>03&#45;&gt;032</title>
<path fill="none" stroke="#835da9" stroke-dasharray="1,5" d="M1230.36,-173.799C1227.89,-162.163 1224.59,-146.548 1221.77,-133.237"/>
<polygon fill="#835da9" stroke="#835da9" points="1225.13,-132.233 1219.64,-123.175 1218.28,-133.684 1225.13,-132.233"/>
<text text-anchor="middle" x="1249" y="-144.8" font-family="Times,serif" font-size="14.00">1 (91.7)</text>
</g>
<!-- 044 -->
<g id="node22" class="node"><title>044</title>
<ellipse fill="#cea8f4" stroke="#835da9" cx="1307" cy="-105" rx="36.2938" ry="18"/>
<text text-anchor="middle" x="1307" y="-101.3" font-family="Times,serif" font-size="14.00">044 (b)</text>
</g>
<!-- 03&#45;&gt;044 -->
<g id="edge15" class="edge"><title>03&#45;&gt;044</title>
<path fill="none" stroke="#835da9" stroke-dasharray="1,5" d="M1251.55,-176.85C1258.58,-170.783 1266.53,-163.398 1273,-156 1279.7,-148.338 1286.2,-139.31 1291.69,-131.048"/>
<polygon fill="#835da9" stroke="#835da9" points="1294.73,-132.785 1297.22,-122.485 1288.85,-128.99 1294.73,-132.785"/>
<text text-anchor="middle" x="1306" y="-144.8" font-family="Times,serif" font-size="14.00">1 (89.2)</text>
</g>
<!-- 022 -->
<g id="node23" class="node"><title>022</title>
<ellipse fill="#cea8f4" stroke="#835da9" cx="1307" cy="-18" rx="36.2938" ry="18"/>
<text text-anchor="middle" x="1307" y="-14.3" font-family="Times,serif" font-size="14.00">022 (b)</text>
</g>
<!-- 044&#45;&gt;022 -->
<g id="edge16" class="edge"><title>044&#45;&gt;022</title>
<path fill="none" stroke="#835da9" stroke-dasharray="1,5" d="M1307,-86.799C1307,-75.1626 1307,-59.5479 1307,-46.2368"/>
<polygon fill="#835da9" stroke="#835da9" points="1310.5,-46.1754 1307,-36.1754 1303.5,-46.1755 1310.5,-46.1754"/>
<text text-anchor="middle" x="1329" y="-57.8" font-family="Times,serif" font-size="14.00">1 (91.7)</text>
</g>
<!-- 028 -->
<g id="node24" class="node"><title>028</title>
<ellipse fill="#ff8a8a" stroke="#b43f3f" cx="1321" cy="-192" rx="36.2938" ry="18"/>
<text text-anchor="middle" x="1321" y="-188.3" font-family="Times,serif" font-size="14.00">028 (a)</text>
</g>
<!-- 011 -->
<g id="node25" class="node"><title>011</title>
<ellipse fill="#ff8a8a" stroke="#b43f3f" cx="1412" cy="-192" rx="36.2938" ry="18"/>
<text text-anchor="middle" x="1412" y="-188.3" font-family="Times,serif" font-size="14.00">011 (a)</text>
</g>
<!-- 05 -->
<g id="node26" class="node"><title>05</title>
<ellipse fill="#cea8f4" stroke="#835da9" cx="1499" cy="-192" rx="32.4942" ry="18"/>
<text text-anchor="middle" x="1499" y="-188.3" font-family="Times,serif" font-size="14.00">05 (b)</text>
</g>
<!-- P75 -->
<g id="node27" class="node"><title>P75</title>
<ellipse fill="#cea8f4" stroke="#835da9" cx="1587" cy="-192" rx="37.0935" ry="18"/>
<text text-anchor="middle" x="1587" y="-188.3" font-family="Times,serif" font-size="14.00">P75 (b)</text>
</g>
<!-- 019 -->
<g id="node28" class="node"><title>019</title>
<ellipse fill="#cea8f4" stroke="#835da9" cx="1678" cy="-192" rx="36.2938" ry="18"/>
<text text-anchor="middle" x="1678" y="-188.3" font-family="Times,serif" font-size="14.00">019 (b)</text>
</g>
<!-- 01 -->
<g id="node29" class="node"><title>01</title>
<ellipse fill="#72fe95" stroke="#27b34a" cx="1764" cy="-192" rx="31.6951" ry="18"/>
<text text-anchor="middle" x="1764" y="-188.3" font-family="Times,serif" font-size="14.00">01 (c)</text>
</g>
</g>
</svg>
