<?xml version="1.0" encoding="UTF-8" standalone="no"?>
<!DOCTYPE svg PUBLIC "-//W3C//DTD SVG 1.1//EN"
 "http://www.w3.org/Graphics/SVG/1.1/DTD/svg11.dtd">
<!-- Generated by graphviz version 2.38.0 (20140413.2041)
 -->
<!-- Title: %3 Pages: 1 -->
<svg width="1070pt" height="337pt"
 viewBox="0.00 0.00 1070.00 337.00" xmlns="http://www.w3.org/2000/svg" xmlns:xlink="http://www.w3.org/1999/xlink">
<g id="graph0" class="graph" transform="scale(1 1) rotate(0) translate(4 333)">
<title>%3</title>
<polygon fill="white" stroke="none" points="-4,4 -4,-333 1066,-333 1066,4 -4,4"/>
<g id="clust1" class="cluster"><title>cluster_legend</title>
<path fill="none" stroke="black" d="M20,-193C20,-193 210,-193 210,-193 216,-193 222,-199 222,-205 222,-205 222,-309 222,-309 222,-315 216,-321 210,-321 210,-321 20,-321 20,-321 14,-321 8,-315 8,-309 8,-309 8,-205 8,-205 8,-199 14,-193 20,-193"/>
</g>
<g id="clust2" class="cluster"><title>cluster_reading</title>
<polygon fill="none" stroke="black" points="230,-8 230,-321 1054,-321 1054,-8 230,-8"/>
</g>
<!-- leg_s -->
<g id="node1" class="node"><title>leg_s</title>
<text text-anchor="middle" x="115" y="-291.3" font-family="Times,serif" font-size="14.00">Textual flow strength</text>
</g>
<!-- leg_e1 -->
<!-- leg_s&#45;&gt;leg_e1 -->
<g id="edge1" class="edge"><title>leg_s&#45;&gt;leg_e1</title>
<path fill="none" stroke="black" stroke-dasharray="1,5" d="M96.6657,-276.686C91.1324,-271.194 85.1607,-264.989 80,-259 70.1708,-247.593 60.0722,-233.779 52.9137,-223.563"/>
<polygon fill="black" stroke="black" points="55.6142,-221.314 47.056,-215.068 49.8514,-225.288 55.6142,-221.314"/>
<text text-anchor="middle" x="95.5" y="-247.8" font-family="Times,serif" font-size="14.00">&lt;=5 &#160;</text>
</g>
<!-- leg_e2 -->
<!-- leg_s&#45;&gt;leg_e2 -->
<g id="edge2" class="edge"><title>leg_s&#45;&gt;leg_e2</title>
<path fill="none" stroke="black" stroke-dasharray="5,2" d="M115,-276.799C115,-261.794 115,-240.174 115,-225.409"/>
<polygon fill="black" stroke="black" points="118.5,-225.293 115,-215.293 111.5,-225.293 118.5,-225.293"/>
<text text-anchor="middle" x="134" y="-247.8" font-family="Times,serif" font-size="14.00"> &#160;&lt;=25</text>
</g>
<!-- leg_e3 -->
<!-- leg_s&#45;&gt;leg_e3 -->
<g id="edge3" class="edge"><title>leg_s&#45;&gt;leg_e3</title>
<path fill="none" stroke="black" d="M138.503,-276.76C144.906,-271.462 151.567,-265.344 157,-259 166.087,-248.39 174.095,-234.689 179.546,-224.313"/>
<polygon fill="black" stroke="black" points="182.722,-225.789 184.091,-215.283 176.469,-222.642 182.722,-225.789"/>
<text text-anchor="middle" x="179" y="-247.8" font-family="Times,serif" font-size="14.00">&gt;25</text>
</g>
<!-- 021 -->
<g id="node5" class="node"><title>021</title>
<ellipse fill="#ff8a8a" stroke="#b43f3f" cx="464" cy="-121" rx="36.2938" ry="18"/>
<text text-anchor="middle" x="464" y="-117.3" font-family="Times,serif" font-size="14.00">021 (a)</text>
</g>
<!-- 036 -->
<g id="node6" class="node"><title>036</title>
<ellipse fill="#ff8a8a" stroke="#b43f3f" cx="274" cy="-34" rx="36.2938" ry="18"/>
<text text-anchor="middle" x="274" y="-30.3" font-family="Times,serif" font-size="14.00">036 (a)</text>
</g>
<!-- 021&#45;&gt;036 -->
<g id="edge4" class="edge"><title>021&#45;&gt;036</title>
<path fill="none" stroke="#b43f3f" stroke-dasharray="1,5" d="M435.932,-109.127C430.045,-106.987 423.848,-104.838 418,-103 387.766,-93.4952 377.918,-97.9692 349,-85 331.854,-77.3104 314.292,-65.8339 300.477,-55.8148"/>
<polygon fill="#b43f3f" stroke="#b43f3f" points="302.51,-52.9655 292.396,-49.8117 298.336,-58.5847 302.51,-52.9655"/>
<text text-anchor="middle" x="371" y="-73.8" font-family="Times,serif" font-size="14.00">1 (97.6)</text>
</g>
<!-- 047 -->
<g id="node7" class="node"><title>047</title>
<ellipse fill="#ff8a8a" stroke="#b43f3f" cx="365" cy="-34" rx="36.2938" ry="18"/>
<text text-anchor="middle" x="365" y="-30.3" font-family="Times,serif" font-size="14.00">047 (a)</text>
</g>
<!-- 021&#45;&gt;047 -->
<g id="edge5" class="edge"><title>021&#45;&gt;047</title>
<path fill="none" stroke="#b43f3f" stroke-dasharray="1,5" d="M441.483,-106.836C431.723,-100.706 420.403,-93.0063 411,-85 401.786,-77.1548 392.569,-67.5674 384.832,-58.8941"/>
<polygon fill="#b43f3f" stroke="#b43f3f" points="387.392,-56.504 378.185,-51.262 382.113,-61.1015 387.392,-56.504"/>
<text text-anchor="middle" x="433" y="-73.8" font-family="Times,serif" font-size="14.00">1 (95.1)</text>
</g>
<!-- 063 -->
<g id="node8" class="node"><title>063</title>
<ellipse fill="#ff8a8a" stroke="#b43f3f" cx="684" cy="-208" rx="36.2938" ry="18"/>
<text text-anchor="middle" x="684" y="-204.3" font-family="Times,serif" font-size="14.00">063 (a)</text>
</g>
<!-- 063&#45;&gt;021 -->
<g id="edge6" class="edge"><title>063&#45;&gt;021</title>
<path fill="none" stroke="#b43f3f" stroke-dasharray="1,5" d="M649.708,-201.805C620.3,-196.594 577.225,-187.137 542,-172 524.132,-164.322 505.743,-152.744 491.311,-142.662"/>
<polygon fill="#b43f3f" stroke="#b43f3f" points="493.046,-139.599 482.877,-136.626 488.972,-145.292 493.046,-139.599"/>
<text text-anchor="middle" x="564" y="-160.8" font-family="Times,serif" font-size="14.00">1 (93.1)</text>
</g>
<!-- 011 -->
<g id="node9" class="node"><title>011</title>
<ellipse fill="#ff8a8a" stroke="#b43f3f" cx="555" cy="-121" rx="36.2938" ry="18"/>
<text text-anchor="middle" x="555" y="-117.3" font-family="Times,serif" font-size="14.00">011 (a)</text>
</g>
<!-- 063&#45;&gt;011 -->
<g id="edge7" class="edge"><title>063&#45;&gt;011</title>
<path fill="none" stroke="#b43f3f" stroke-dasharray="1,5" d="M655.765,-196.572C640.931,-190.469 622.808,-181.999 608,-172 596.697,-164.368 585.515,-154.296 576.356,-145.193"/>
<polygon fill="#b43f3f" stroke="#b43f3f" points="578.672,-142.556 569.18,-137.85 573.665,-147.448 578.672,-142.556"/>
<text text-anchor="middle" x="630" y="-160.8" font-family="Times,serif" font-size="14.00">1 (93.1)</text>
</g>
<!-- 031 -->
<g id="node10" class="node"><title>031</title>
<ellipse fill="#ff8a8a" stroke="#b43f3f" cx="646" cy="-121" rx="36.2938" ry="18"/>
<text text-anchor="middle" x="646" y="-117.3" font-family="Times,serif" font-size="14.00">031 (a)</text>
</g>
<!-- 063&#45;&gt;031 -->
<g id="edge8" class="edge"><title>063&#45;&gt;031</title>
<path fill="none" stroke="#b43f3f" stroke-dasharray="1,5" d="M671.973,-190.84C668.088,-185.1 664.012,-178.458 661,-172 657.629,-164.772 654.803,-156.605 652.546,-148.999"/>
<polygon fill="#b43f3f" stroke="#b43f3f" points="655.853,-147.826 649.822,-139.115 649.105,-149.686 655.853,-147.826"/>
<text text-anchor="middle" x="683" y="-160.8" font-family="Times,serif" font-size="14.00">1 (95.8)</text>
</g>
<!-- 07 -->
<g id="node11" class="node"><title>07</title>
<ellipse fill="#ff8a8a" stroke="#b43f3f" cx="732" cy="-121" rx="31.6951" ry="18"/>
<text text-anchor="middle" x="732" y="-117.3" font-family="Times,serif" font-size="14.00">07 (a)</text>
</g>
<!-- 063&#45;&gt;07 -->
<g id="edge9" class="edge"><title>063&#45;&gt;07</title>
<path fill="none" stroke="#b43f3f" stroke-dasharray="1,5" d="M694.196,-190.356C697.68,-184.578 701.563,-178.034 705,-172 709.443,-164.199 714.139,-155.627 718.347,-147.816"/>
<polygon fill="#b43f3f" stroke="#b43f3f" points="721.555,-149.239 723.188,-138.771 715.383,-145.936 721.555,-149.239"/>
<text text-anchor="middle" x="735" y="-160.8" font-family="Times,serif" font-size="14.00">1 (96.6)</text>
</g>
<!-- 045 -->
<g id="node12" class="node"><title>045</title>
<ellipse fill="#ff8a8a" stroke="#b43f3f" cx="818" cy="-121" rx="36.2938" ry="18"/>
<text text-anchor="middle" x="818" y="-117.3" font-family="Times,serif" font-size="14.00">045 (a)</text>
</g>
<!-- 063&#45;&gt;045 -->
<g id="edge10" class="edge"><title>063&#45;&gt;045</title>
<path fill="none" stroke="#b43f3f" stroke-dasharray="1,5" d="M712.103,-196.558C727.16,-190.397 745.703,-181.877 761,-172 773.042,-164.225 785.152,-154.017 795.094,-144.854"/>
<polygon fill="#b43f3f" stroke="#b43f3f" points="797.698,-147.209 802.56,-137.795 792.889,-142.122 797.698,-147.209"/>
<text text-anchor="middle" x="804" y="-160.8" font-family="Times,serif" font-size="14.00">1 (93.1)</text>
</g>
<!-- 028 -->
<g id="node13" class="node"><title>028</title>
<ellipse fill="#ff8a8a" stroke="#b43f3f" cx="909" cy="-121" rx="36.2938" ry="18"/>
<text text-anchor="middle" x="909" y="-117.3" font-family="Times,serif" font-size="14.00">028 (a)</text>
</g>
<!-- 063&#45;&gt;028 -->
<g id="edge11" class="edge"><title>063&#45;&gt;028</title>
<path fill="none" stroke="#b43f3f" stroke-dasharray="1,5" d="M718.64,-201.999C748.877,-196.868 793.505,-187.42 830,-172 848.201,-164.309 866.956,-152.627 881.622,-142.488"/>
<polygon fill="#b43f3f" stroke="#b43f3f" points="884.046,-145.06 890.184,-136.424 880,-139.347 884.046,-145.06"/>
<text text-anchor="middle" x="879" y="-160.8" font-family="Times,serif" font-size="14.00">1 (96.6)</text>
</g>
<!-- 017 -->
<g id="node15" class="node"><title>017</title>
<ellipse fill="#ff8a8a" stroke="#b43f3f" cx="456" cy="-34" rx="36.2938" ry="18"/>
<text text-anchor="middle" x="456" y="-30.3" font-family="Times,serif" font-size="14.00">017 (a)</text>
</g>
<!-- 031&#45;&gt;017 -->
<g id="edge13" class="edge"><title>031&#45;&gt;017</title>
<path fill="none" stroke="#b43f3f" stroke-dasharray="1,5" d="M617.857,-109.356C611.975,-107.2 605.799,-104.986 600,-103 574.866,-94.3929 567.325,-95.6809 543,-85 523.216,-76.3129 502.18,-64.3067 485.75,-54.2367"/>
<polygon fill="#b43f3f" stroke="#b43f3f" points="487.473,-51.1864 477.133,-48.8749 483.774,-57.1297 487.473,-51.1864"/>
<text text-anchor="middle" x="565" y="-73.8" font-family="Times,serif" font-size="14.00">1 (94.3)</text>
</g>
<!-- 013 -->
<g id="node16" class="node"><title>013</title>
<ellipse fill="#ff8a8a" stroke="#b43f3f" cx="547" cy="-34" rx="36.2938" ry="18"/>
<text text-anchor="middle" x="547" y="-30.3" font-family="Times,serif" font-size="14.00">013 (a)</text>
</g>
<!-- 031&#45;&gt;013 -->
<g id="edge14" class="edge"><title>031&#45;&gt;013</title>
<path fill="none" stroke="#b43f3f" stroke-dasharray="1,5" d="M628.301,-104.804C612.674,-91.3869 589.715,-71.6744 572.177,-56.6164"/>
<polygon fill="#b43f3f" stroke="#b43f3f" points="574.413,-53.9235 564.546,-50.0647 569.853,-59.2345 574.413,-53.9235"/>
<text text-anchor="middle" x="625" y="-73.8" font-family="Times,serif" font-size="14.00">1 (97.1)</text>
</g>
<!-- 030 -->
<g id="node17" class="node"><title>030</title>
<ellipse fill="#ff8a8a" stroke="#b43f3f" cx="638" cy="-34" rx="36.2938" ry="18"/>
<text text-anchor="middle" x="638" y="-30.3" font-family="Times,serif" font-size="14.00">030 (a)</text>
</g>
<!-- 07&#45;&gt;030 -->
<g id="edge15" class="edge"><title>07&#45;&gt;030</title>
<path fill="none" stroke="#b43f3f" stroke-dasharray="1,5" d="M711.7,-106.969C702.577,-100.749 691.888,-92.9398 683,-85 674.065,-77.0179 665.064,-67.4032 657.485,-58.7465"/>
<polygon fill="#b43f3f" stroke="#b43f3f" points="660.132,-56.4564 650.968,-51.1401 654.816,-61.0111 660.132,-56.4564"/>
<text text-anchor="middle" x="705" y="-73.8" font-family="Times,serif" font-size="14.00">1 (95.1)</text>
</g>
<!-- 034 -->
<g id="node18" class="node"><title>034</title>
<ellipse fill="#ff8a8a" stroke="#b43f3f" cx="729" cy="-34" rx="36.2938" ry="18"/>
<text text-anchor="middle" x="729" y="-30.3" font-family="Times,serif" font-size="14.00">034 (a)</text>
</g>
<!-- 07&#45;&gt;034 -->
<g id="edge16" class="edge"><title>07&#45;&gt;034</title>
<path fill="none" stroke="#b43f3f" stroke-dasharray="1,5" d="M731.393,-102.799C730.982,-91.1626 730.431,-75.5479 729.961,-62.2368"/>
<polygon fill="#b43f3f" stroke="#b43f3f" points="733.457,-62.0457 729.606,-52.1754 726.461,-62.2927 733.457,-62.0457"/>
<text text-anchor="middle" x="753" y="-73.8" font-family="Times,serif" font-size="14.00">1 (95.1)</text>
</g>
<!-- 037 -->
<g id="node19" class="node"><title>037</title>
<ellipse fill="#ff8a8a" stroke="#b43f3f" cx="820" cy="-34" rx="36.2938" ry="18"/>
<text text-anchor="middle" x="820" y="-30.3" font-family="Times,serif" font-size="14.00">037 (a)</text>
</g>
<!-- 07&#45;&gt;037 -->
<g id="edge17" class="edge"><title>07&#45;&gt;037</title>
<path fill="none" stroke="#b43f3f" stroke-dasharray="1,5" d="M752.059,-106.703C760.73,-100.549 770.757,-92.8667 779,-85 787.162,-77.211 795.234,-67.8317 802.029,-59.3112"/>
<polygon fill="#b43f3f" stroke="#b43f3f" points="804.985,-61.2121 808.355,-51.1676 799.456,-56.918 804.985,-61.2121"/>
<text text-anchor="middle" x="814" y="-73.8" font-family="Times,serif" font-size="14.00">1 (97.5)</text>
</g>
<!-- 0211 -->
<g id="node20" class="node"><title>0211</title>
<ellipse fill="#ff8a8a" stroke="#b43f3f" cx="915" cy="-34" rx="40.0939" ry="18"/>
<text text-anchor="middle" x="915" y="-30.3" font-family="Times,serif" font-size="14.00">0211 (a)</text>
</g>
<!-- 07&#45;&gt;0211 -->
<g id="edge18" class="edge"><title>07&#45;&gt;0211</title>
<path fill="none" stroke="#b43f3f" stroke-dasharray="1,5" d="M756.517,-109.224C761.898,-107.031 767.601,-104.836 773,-103 802.192,-93.074 811.912,-97.7199 840,-85 857,-77.3015 874.436,-65.9258 888.213,-55.9693"/>
<polygon fill="#b43f3f" stroke="#b43f3f" points="890.325,-58.7605 896.282,-49.9988 886.162,-53.1334 890.325,-58.7605"/>
<text text-anchor="middle" x="888" y="-73.8" font-family="Times,serif" font-size="14.00">2 (82.9)</text>
</g>
<!-- 038 -->
<g id="node27" class="node"><title>038</title>
<ellipse fill="#ff8a8a" stroke="#b43f3f" cx="1010" cy="-34" rx="36.2938" ry="18"/>
<text text-anchor="middle" x="1010" y="-30.3" font-family="Times,serif" font-size="14.00">038 (a)</text>
</g>
<!-- 045&#45;&gt;038 -->
<g id="edge24" class="edge"><title>045&#45;&gt;038</title>
<path fill="none" stroke="#b43f3f" stroke-dasharray="1,5" d="M846.206,-109.533C852.083,-107.364 858.241,-105.101 864,-103 886.188,-94.9063 892.366,-94.4765 914,-85 935.94,-75.3893 959.832,-62.9534 978.292,-52.8883"/>
<polygon fill="#b43f3f" stroke="#b43f3f" points="980.074,-55.9025 987.148,-48.0149 976.699,-49.7698 980.074,-55.9025"/>
<text text-anchor="middle" x="965" y="-73.8" font-family="Times,serif" font-size="14.00">1 (92.7)</text>
</g>
<!-- 019 -->
<g id="node14" class="node"><title>019</title>
<ellipse fill="#ff8a8a" stroke="#b43f3f" cx="684" cy="-295" rx="36.2938" ry="18"/>
<text text-anchor="middle" x="684" y="-291.3" font-family="Times,serif" font-size="14.00">019 (a)</text>
</g>
<!-- 019&#45;&gt;063 -->
<g id="edge12" class="edge"><title>019&#45;&gt;063</title>
<path fill="none" stroke="#b43f3f" stroke-dasharray="1,5" d="M684,-276.799C684,-265.163 684,-249.548 684,-236.237"/>
<polygon fill="#b43f3f" stroke="#b43f3f" points="687.5,-236.175 684,-226.175 680.5,-236.175 687.5,-236.175"/>
<text text-anchor="middle" x="706" y="-247.8" font-family="Times,serif" font-size="14.00">1 (85.7)</text>
</g>
<!-- 03 -->
<g id="node21" class="node"><title>03</title>
<ellipse fill="#ff8a8a" stroke="#b43f3f" cx="418" cy="-295" rx="31.6951" ry="18"/>
<text text-anchor="middle" x="418" y="-291.3" font-family="Times,serif" font-size="14.00">03 (a)</text>
</g>
<!-- 044 -->
<g id="node22" class="node"><title>044</title>
<ellipse fill="#ff8a8a" stroke="#b43f3f" cx="332" cy="-208" rx="36.2938" ry="18"/>
<text text-anchor="middle" x="332" y="-204.3" font-family="Times,serif" font-size="14.00">044 (a)</text>
</g>
<!-- 03&#45;&gt;044 -->
<g id="edge19" class="edge"><title>03&#45;&gt;044</title>
<path fill="none" stroke="#b43f3f" stroke-dasharray="1,5" d="M397.353,-280.912C388.467,-274.796 378.248,-267.086 370,-259 362.175,-251.329 354.638,-241.975 348.368,-233.442"/>
<polygon fill="#b43f3f" stroke="#b43f3f" points="351.206,-231.394 342.557,-225.275 345.503,-235.452 351.206,-231.394"/>
<text text-anchor="middle" x="392" y="-247.8" font-family="Times,serif" font-size="14.00">1 (89.2)</text>
</g>
<!-- 02 -->
<g id="node23" class="node"><title>02</title>
<ellipse fill="#ff8a8a" stroke="#b43f3f" cx="418" cy="-208" rx="31.6951" ry="18"/>
<text text-anchor="middle" x="418" y="-204.3" font-family="Times,serif" font-size="14.00">02 (a)</text>
</g>
<!-- 03&#45;&gt;02 -->
<g id="edge20" class="edge"><title>03&#45;&gt;02</title>
<path fill="none" stroke="#b43f3f" stroke-dasharray="1,5" d="M418,-276.799C418,-265.163 418,-249.548 418,-236.237"/>
<polygon fill="#b43f3f" stroke="#b43f3f" points="421.5,-236.175 418,-226.175 414.5,-236.175 421.5,-236.175"/>
<text text-anchor="middle" x="440" y="-247.8" font-family="Times,serif" font-size="14.00">1 (86.5)</text>
</g>
<!-- 032 -->
<g id="node24" class="node"><title>032</title>
<ellipse fill="#ff8a8a" stroke="#b43f3f" cx="504" cy="-208" rx="36.2938" ry="18"/>
<text text-anchor="middle" x="504" y="-204.3" font-family="Times,serif" font-size="14.00">032 (a)</text>
</g>
<!-- 03&#45;&gt;032 -->
<g id="edge21" class="edge"><title>03&#45;&gt;032</title>
<path fill="none" stroke="#b43f3f" stroke-dasharray="1,5" d="M438.647,-280.912C447.533,-274.796 457.752,-267.086 466,-259 473.825,-251.329 481.362,-241.975 487.632,-233.442"/>
<polygon fill="#b43f3f" stroke="#b43f3f" points="490.497,-235.452 493.443,-225.275 484.794,-231.394 490.497,-235.452"/>
<text text-anchor="middle" x="501" y="-247.8" font-family="Times,serif" font-size="14.00">1 (91.7)</text>
</g>
<!-- 0141 -->
<g id="node25" class="node"><title>0141</title>
<ellipse fill="#ff8a8a" stroke="#b43f3f" cx="278" cy="-121" rx="40.0939" ry="18"/>
<text text-anchor="middle" x="278" y="-117.3" font-family="Times,serif" font-size="14.00">0141 (a)</text>
</g>
<!-- 044&#45;&gt;0141 -->
<g id="edge22" class="edge"><title>044&#45;&gt;0141</title>
<path fill="none" stroke="#b43f3f" stroke-dasharray="1,5" d="M317.619,-191.213C312.678,-185.397 307.31,-178.61 303,-172 298.101,-164.486 293.481,-155.881 289.577,-147.952"/>
<polygon fill="#b43f3f" stroke="#b43f3f" points="292.651,-146.265 285.199,-138.733 286.327,-149.268 292.651,-146.265"/>
<text text-anchor="middle" x="325" y="-160.8" font-family="Times,serif" font-size="14.00">1 (89.2)</text>
</g>
<!-- 022 -->
<g id="node26" class="node"><title>022</title>
<ellipse fill="#ff8a8a" stroke="#b43f3f" cx="373" cy="-121" rx="36.2938" ry="18"/>
<text text-anchor="middle" x="373" y="-117.3" font-family="Times,serif" font-size="14.00">022 (a)</text>
</g>
<!-- 044&#45;&gt;022 -->
<g id="edge23" class="edge"><title>044&#45;&gt;022</title>
<path fill="none" stroke="#b43f3f" stroke-dasharray="1,5" d="M340.1,-190.207C345.884,-178.216 353.778,-161.851 360.383,-148.157"/>
<polygon fill="#b43f3f" stroke="#b43f3f" points="363.724,-149.286 364.917,-138.758 357.42,-146.245 363.724,-149.286"/>
<text text-anchor="middle" x="377" y="-160.8" font-family="Times,serif" font-size="14.00">1 (91.7)</text>
</g>
<!-- P75 -->
<g id="node28" class="node"><title>P75</title>
<ellipse fill="#ff8a8a" stroke="#b43f3f" cx="330" cy="-295" rx="36.2938" ry="18"/>
<text text-anchor="middle" x="330" y="-291.3" font-family="Times,serif" font-size="14.00">P75 (a)</text>
</g>
</g>
</svg>
