<?xml version="1.0" encoding="UTF-8" standalone="no"?>
<!DOCTYPE svg PUBLIC "-//W3C//DTD SVG 1.1//EN"
 "http://www.w3.org/Graphics/SVG/1.1/DTD/svg11.dtd">
<!-- Generated by graphviz version 2.38.0 (20140413.2041)
 -->
<!-- Title: %3 Pages: 1 -->
<svg width="1119pt" height="321pt"
 viewBox="0.00 0.00 1119.50 321.00" xmlns="http://www.w3.org/2000/svg" xmlns:xlink="http://www.w3.org/1999/xlink">
<g id="graph0" class="graph" transform="scale(1 1) rotate(0) translate(4 317)">
<title>%3</title>
<polygon fill="white" stroke="none" points="-4,4 -4,-317 1115.5,-317 1115.5,4 -4,4"/>
<g id="clust1" class="cluster"><title>cluster_legend</title>
<path fill="none" stroke="black" d="M20,-177C20,-177 210,-177 210,-177 216,-177 222,-183 222,-189 222,-189 222,-293 222,-293 222,-299 216,-305 210,-305 210,-305 20,-305 20,-305 14,-305 8,-299 8,-293 8,-293 8,-189 8,-189 8,-183 14,-177 20,-177"/>
</g>
<!-- leg_s -->
<g id="node1" class="node"><title>leg_s</title>
<text text-anchor="middle" x="115" y="-275.3" font-family="Times,serif" font-size="14.00">Textual flow strength</text>
</g>
<!-- leg_e1 -->
<!-- leg_s&#45;&gt;leg_e1 -->
<g id="edge1" class="edge"><title>leg_s&#45;&gt;leg_e1</title>
<path fill="none" stroke="black" stroke-dasharray="1,5" d="M96.6657,-260.686C91.1324,-255.194 85.1607,-248.989 80,-243 70.1708,-231.593 60.0722,-217.779 52.9137,-207.563"/>
<polygon fill="black" stroke="black" points="55.6142,-205.314 47.056,-199.068 49.8514,-209.288 55.6142,-205.314"/>
<text text-anchor="middle" x="95.5" y="-231.8" font-family="Times,serif" font-size="14.00">&lt;=5 &#160;</text>
</g>
<!-- leg_e2 -->
<!-- leg_s&#45;&gt;leg_e2 -->
<g id="edge2" class="edge"><title>leg_s&#45;&gt;leg_e2</title>
<path fill="none" stroke="black" stroke-dasharray="5,2" d="M115,-260.799C115,-245.794 115,-224.174 115,-209.409"/>
<polygon fill="black" stroke="black" points="118.5,-209.293 115,-199.293 111.5,-209.293 118.5,-209.293"/>
<text text-anchor="middle" x="134" y="-231.8" font-family="Times,serif" font-size="14.00"> &#160;&lt;=25</text>
</g>
<!-- leg_e3 -->
<!-- leg_s&#45;&gt;leg_e3 -->
<g id="edge3" class="edge"><title>leg_s&#45;&gt;leg_e3</title>
<path fill="none" stroke="black" d="M138.503,-260.76C144.906,-255.462 151.567,-249.344 157,-243 166.087,-232.39 174.095,-218.689 179.546,-208.313"/>
<polygon fill="black" stroke="black" points="182.722,-209.789 184.091,-199.283 176.469,-206.642 182.722,-209.789"/>
<text text-anchor="middle" x="179" y="-231.8" font-family="Times,serif" font-size="14.00">&gt;25</text>
</g>
<!-- 091 -->
<g id="node5" class="node"><title>091</title>
<ellipse fill="#ff8a8a" stroke="#b43f3f" cx="310" cy="-279" rx="36.2938" ry="18"/>
<text text-anchor="middle" x="310" y="-275.3" font-family="Times,serif" font-size="14.00">091 (a)</text>
</g>
<!-- 05 -->
<g id="node6" class="node"><title>05</title>
<ellipse fill="#ff8a8a" stroke="#b43f3f" cx="264" cy="-192" rx="31.6951" ry="18"/>
<text text-anchor="middle" x="264" y="-188.3" font-family="Times,serif" font-size="14.00">05 (a)</text>
</g>
<!-- 091&#45;&gt;05 -->
<g id="edge4" class="edge"><title>091&#45;&gt;05</title>
<path fill="none" stroke="#b43f3f" stroke-dasharray="1,5" d="M295.713,-262.414C290.903,-256.617 285.8,-249.791 282,-243 277.99,-235.834 274.593,-227.608 271.867,-219.924"/>
<polygon fill="#b43f3f" stroke="#b43f3f" points="275.138,-218.666 268.675,-210.271 268.492,-220.864 275.138,-218.666"/>
<text text-anchor="middle" x="304" y="-231.8" font-family="Times,serif" font-size="14.00">1 (87.5)</text>
</g>
<!-- 0211 -->
<g id="node7" class="node"><title>0211</title>
<ellipse fill="#ff8a8a" stroke="#b43f3f" cx="354" cy="-192" rx="40.0939" ry="18"/>
<text text-anchor="middle" x="354" y="-188.3" font-family="Times,serif" font-size="14.00">0211 (a)</text>
</g>
<!-- 091&#45;&gt;0211 -->
<g id="edge5" class="edge"><title>091&#45;&gt;0211</title>
<path fill="none" stroke="#b43f3f" stroke-dasharray="1,5" d="M318.693,-261.207C324.96,-249.099 333.536,-232.533 340.666,-218.759"/>
<polygon fill="#b43f3f" stroke="#b43f3f" points="343.836,-220.248 345.325,-209.758 337.62,-217.03 343.836,-220.248"/>
<text text-anchor="middle" x="357" y="-231.8" font-family="Times,serif" font-size="14.00">1 (83.3)</text>
</g>
<!-- 063 -->
<g id="node8" class="node"><title>063</title>
<ellipse fill="#ff8a8a" stroke="#b43f3f" cx="449" cy="-192" rx="36.2938" ry="18"/>
<text text-anchor="middle" x="449" y="-188.3" font-family="Times,serif" font-size="14.00">063 (a)</text>
</g>
<!-- 07 -->
<g id="node9" class="node"><title>07</title>
<ellipse fill="#ff8a8a" stroke="#b43f3f" cx="160" cy="-105" rx="31.6951" ry="18"/>
<text text-anchor="middle" x="160" y="-101.3" font-family="Times,serif" font-size="14.00">07 (a)</text>
</g>
<!-- 063&#45;&gt;07 -->
<g id="edge6" class="edge"><title>063&#45;&gt;07</title>
<path fill="none" stroke="#b43f3f" stroke-dasharray="1,5" d="M421.528,-179.944C415.489,-177.768 409.08,-175.651 403,-174 358.998,-162.05 346.093,-167.61 302,-156 264.582,-146.148 222.952,-130.969 194.496,-119.919"/>
<polygon fill="#b43f3f" stroke="#b43f3f" points="195.596,-116.591 185.009,-116.199 193.04,-123.108 195.596,-116.591"/>
<text text-anchor="middle" x="324" y="-144.8" font-family="Times,serif" font-size="14.00">1 (96.6)</text>
</g>
<!-- 028 -->
<g id="node10" class="node"><title>028</title>
<ellipse fill="#ff8a8a" stroke="#b43f3f" cx="313" cy="-105" rx="36.2938" ry="18"/>
<text text-anchor="middle" x="313" y="-101.3" font-family="Times,serif" font-size="14.00">028 (a)</text>
</g>
<!-- 063&#45;&gt;028 -->
<g id="edge7" class="edge"><title>063&#45;&gt;028</title>
<path fill="none" stroke="#b43f3f" stroke-dasharray="1,5" d="M420.122,-180.926C404.395,-174.821 384.947,-166.236 369,-156 357.056,-148.334 345.141,-138.143 335.392,-128.962"/>
<polygon fill="#b43f3f" stroke="#b43f3f" points="337.697,-126.323 328.078,-121.884 332.829,-131.353 337.697,-126.323"/>
<text text-anchor="middle" x="391" y="-144.8" font-family="Times,serif" font-size="14.00">1 (96.6)</text>
</g>
<!-- 021 -->
<g id="node11" class="node"><title>021</title>
<ellipse fill="#ff8a8a" stroke="#b43f3f" cx="404" cy="-105" rx="36.2938" ry="18"/>
<text text-anchor="middle" x="404" y="-101.3" font-family="Times,serif" font-size="14.00">021 (a)</text>
</g>
<!-- 063&#45;&gt;021 -->
<g id="edge8" class="edge"><title>063&#45;&gt;021</title>
<path fill="none" stroke="#b43f3f" stroke-dasharray="1,5" d="M435.585,-174.896C431.208,-169.16 426.563,-162.506 423,-156 419.03,-148.751 415.524,-140.499 412.639,-132.818"/>
<polygon fill="#b43f3f" stroke="#b43f3f" points="415.862,-131.434 409.218,-123.181 409.265,-133.776 415.862,-131.434"/>
<text text-anchor="middle" x="445" y="-144.8" font-family="Times,serif" font-size="14.00">1 (93.1)</text>
</g>
<!-- 045 -->
<g id="node12" class="node"><title>045</title>
<ellipse fill="#ff8a8a" stroke="#b43f3f" cx="495" cy="-105" rx="36.2938" ry="18"/>
<text text-anchor="middle" x="495" y="-101.3" font-family="Times,serif" font-size="14.00">045 (a)</text>
</g>
<!-- 063&#45;&gt;045 -->
<g id="edge9" class="edge"><title>063&#45;&gt;045</title>
<path fill="none" stroke="#b43f3f" stroke-dasharray="1,5" d="M458.088,-174.207C464.683,-162.021 473.722,-145.318 481.205,-131.491"/>
<polygon fill="#b43f3f" stroke="#b43f3f" points="484.406,-132.93 486.087,-122.469 478.25,-129.598 484.406,-132.93"/>
<text text-anchor="middle" x="497" y="-144.8" font-family="Times,serif" font-size="14.00">1 (93.1)</text>
</g>
<!-- 031 -->
<g id="node13" class="node"><title>031</title>
<ellipse fill="#ff8a8a" stroke="#b43f3f" cx="586" cy="-105" rx="36.2938" ry="18"/>
<text text-anchor="middle" x="586" y="-101.3" font-family="Times,serif" font-size="14.00">031 (a)</text>
</g>
<!-- 063&#45;&gt;031 -->
<g id="edge10" class="edge"><title>063&#45;&gt;031</title>
<path fill="none" stroke="#b43f3f" stroke-dasharray="1,5" d="M476.147,-179.95C490.493,-173.671 508.156,-165.231 523,-156 536.359,-147.693 550.16,-137.014 561.428,-127.66"/>
<polygon fill="#b43f3f" stroke="#b43f3f" points="563.767,-130.266 569.142,-121.136 559.247,-124.921 563.767,-130.266"/>
<text text-anchor="middle" x="565" y="-144.8" font-family="Times,serif" font-size="14.00">1 (95.8)</text>
</g>
<!-- 011 -->
<g id="node14" class="node"><title>011</title>
<ellipse fill="#ff8a8a" stroke="#b43f3f" cx="677" cy="-105" rx="36.2938" ry="18"/>
<text text-anchor="middle" x="677" y="-101.3" font-family="Times,serif" font-size="14.00">011 (a)</text>
</g>
<!-- 063&#45;&gt;011 -->
<g id="edge11" class="edge"><title>063&#45;&gt;011</title>
<path fill="none" stroke="#b43f3f" stroke-dasharray="1,5" d="M483.13,-185.418C512.438,-179.964 555.454,-170.368 591,-156 610.995,-147.918 631.946,-135.823 648.163,-125.554"/>
<polygon fill="#b43f3f" stroke="#b43f3f" points="650.147,-128.439 656.649,-120.074 646.35,-122.558 650.147,-128.439"/>
<text text-anchor="middle" x="643" y="-144.8" font-family="Times,serif" font-size="14.00">1 (93.1)</text>
</g>
<!-- 037 -->
<g id="node15" class="node"><title>037</title>
<ellipse fill="#ff8a8a" stroke="#b43f3f" cx="40" cy="-18" rx="36.2938" ry="18"/>
<text text-anchor="middle" x="40" y="-14.3" font-family="Times,serif" font-size="14.00">037 (a)</text>
</g>
<!-- 07&#45;&gt;037 -->
<g id="edge12" class="edge"><title>07&#45;&gt;037</title>
<path fill="none" stroke="#b43f3f" stroke-dasharray="1,5" d="M136.431,-92.7488C123.997,-86.4134 108.726,-77.9827 96,-69 84.4052,-60.8157 72.5423,-50.5475 62.7372,-41.449"/>
<polygon fill="#b43f3f" stroke="#b43f3f" points="65.0278,-38.7979 55.3594,-34.4651 60.2156,-43.8815 65.0278,-38.7979"/>
<text text-anchor="middle" x="118" y="-57.8" font-family="Times,serif" font-size="14.00">1 (97.5)</text>
</g>
<!-- 030 -->
<g id="node16" class="node"><title>030</title>
<ellipse fill="#ff8a8a" stroke="#b43f3f" cx="131" cy="-18" rx="36.2938" ry="18"/>
<text text-anchor="middle" x="131" y="-14.3" font-family="Times,serif" font-size="14.00">030 (a)</text>
</g>
<!-- 07&#45;&gt;030 -->
<g id="edge13" class="edge"><title>07&#45;&gt;030</title>
<path fill="none" stroke="#b43f3f" stroke-dasharray="1,5" d="M154.271,-87.2067C150.245,-75.4091 144.776,-59.3781 140.151,-45.8221"/>
<polygon fill="#b43f3f" stroke="#b43f3f" points="143.358,-44.3835 136.817,-36.0493 136.733,-46.6438 143.358,-44.3835"/>
<text text-anchor="middle" x="170" y="-57.8" font-family="Times,serif" font-size="14.00">1 (95.1)</text>
</g>
<!-- 034 -->
<g id="node17" class="node"><title>034</title>
<ellipse fill="#ff8a8a" stroke="#b43f3f" cx="222" cy="-18" rx="36.2938" ry="18"/>
<text text-anchor="middle" x="222" y="-14.3" font-family="Times,serif" font-size="14.00">034 (a)</text>
</g>
<!-- 07&#45;&gt;034 -->
<g id="edge14" class="edge"><title>07&#45;&gt;034</title>
<path fill="none" stroke="#b43f3f" stroke-dasharray="1,5" d="M176.915,-89.669C183.366,-83.6891 190.486,-76.4141 196,-69 201.456,-61.6646 206.393,-53.0229 210.463,-45.0059"/>
<polygon fill="#b43f3f" stroke="#b43f3f" points="213.617,-46.5232 214.821,-35.9971 207.315,-43.4745 213.617,-46.5232"/>
<text text-anchor="middle" x="228" y="-57.8" font-family="Times,serif" font-size="14.00">1 (95.1)</text>
</g>
<!-- 036 -->
<g id="node18" class="node"><title>036</title>
<ellipse fill="#ff8a8a" stroke="#b43f3f" cx="313" cy="-18" rx="36.2938" ry="18"/>
<text text-anchor="middle" x="313" y="-14.3" font-family="Times,serif" font-size="14.00">036 (a)</text>
</g>
<!-- 021&#45;&gt;036 -->
<g id="edge15" class="edge"><title>021&#45;&gt;036</title>
<path fill="none" stroke="#b43f3f" stroke-dasharray="1,5" d="M382.628,-90.006C374.008,-83.9634 364.186,-76.5539 356,-69 347.456,-61.1154 338.924,-51.6186 331.74,-43.0293"/>
<polygon fill="#b43f3f" stroke="#b43f3f" points="334.344,-40.6853 325.308,-35.1545 328.923,-45.1135 334.344,-40.6853"/>
<text text-anchor="middle" x="378" y="-57.8" font-family="Times,serif" font-size="14.00">1 (97.6)</text>
</g>
<!-- 047 -->
<g id="node19" class="node"><title>047</title>
<ellipse fill="#ff8a8a" stroke="#b43f3f" cx="404" cy="-18" rx="36.2938" ry="18"/>
<text text-anchor="middle" x="404" y="-14.3" font-family="Times,serif" font-size="14.00">047 (a)</text>
</g>
<!-- 021&#45;&gt;047 -->
<g id="edge16" class="edge"><title>021&#45;&gt;047</title>
<path fill="none" stroke="#b43f3f" stroke-dasharray="1,5" d="M404,-86.799C404,-75.1626 404,-59.5479 404,-46.2368"/>
<polygon fill="#b43f3f" stroke="#b43f3f" points="407.5,-46.1754 404,-36.1754 400.5,-46.1755 407.5,-46.1754"/>
<text text-anchor="middle" x="426" y="-57.8" font-family="Times,serif" font-size="14.00">1 (95.1)</text>
</g>
<!-- 038 -->
<g id="node26" class="node"><title>038</title>
<ellipse fill="#ff8a8a" stroke="#b43f3f" cx="495" cy="-18" rx="36.2938" ry="18"/>
<text text-anchor="middle" x="495" y="-14.3" font-family="Times,serif" font-size="14.00">038 (a)</text>
</g>
<!-- 045&#45;&gt;038 -->
<g id="edge22" class="edge"><title>045&#45;&gt;038</title>
<path fill="none" stroke="#b43f3f" stroke-dasharray="1,5" d="M495,-86.799C495,-75.1626 495,-59.5479 495,-46.2368"/>
<polygon fill="#b43f3f" stroke="#b43f3f" points="498.5,-46.1754 495,-36.1754 491.5,-46.1755 498.5,-46.1754"/>
<text text-anchor="middle" x="517" y="-57.8" font-family="Times,serif" font-size="14.00">1 (92.7)</text>
</g>
<!-- 017 -->
<g id="node27" class="node"><title>017</title>
<ellipse fill="#ff8a8a" stroke="#b43f3f" cx="586" cy="-18" rx="36.2938" ry="18"/>
<text text-anchor="middle" x="586" y="-14.3" font-family="Times,serif" font-size="14.00">017 (a)</text>
</g>
<!-- 031&#45;&gt;017 -->
<g id="edge23" class="edge"><title>031&#45;&gt;017</title>
<path fill="none" stroke="#b43f3f" stroke-dasharray="1,5" d="M586,-86.799C586,-75.1626 586,-59.5479 586,-46.2368"/>
<polygon fill="#b43f3f" stroke="#b43f3f" points="589.5,-46.1754 586,-36.1754 582.5,-46.1755 589.5,-46.1754"/>
<text text-anchor="middle" x="608" y="-57.8" font-family="Times,serif" font-size="14.00">1 (94.3)</text>
</g>
<!-- 013 -->
<g id="node28" class="node"><title>013</title>
<ellipse fill="#ff8a8a" stroke="#b43f3f" cx="677" cy="-18" rx="36.2938" ry="18"/>
<text text-anchor="middle" x="677" y="-14.3" font-family="Times,serif" font-size="14.00">013 (a)</text>
</g>
<!-- 031&#45;&gt;013 -->
<g id="edge24" class="edge"><title>031&#45;&gt;013</title>
<path fill="none" stroke="#b43f3f" stroke-dasharray="1,5" d="M607.372,-90.006C615.992,-83.9634 625.814,-76.5539 634,-69 642.544,-61.1154 651.076,-51.6186 658.26,-43.0293"/>
<polygon fill="#b43f3f" stroke="#b43f3f" points="661.077,-45.1135 664.692,-35.1545 655.656,-40.6853 661.077,-45.1135"/>
<text text-anchor="middle" x="670" y="-57.8" font-family="Times,serif" font-size="14.00">1 (97.1)</text>
</g>
<!-- 03 -->
<g id="node20" class="node"><title>03</title>
<ellipse fill="#ff8a8a" stroke="#b43f3f" cx="906" cy="-279" rx="31.6951" ry="18"/>
<text text-anchor="middle" x="906" y="-275.3" font-family="Times,serif" font-size="14.00">03 (a)</text>
</g>
<!-- 044 -->
<g id="node21" class="node"><title>044</title>
<ellipse fill="#ff8a8a" stroke="#b43f3f" cx="815" cy="-192" rx="36.2938" ry="18"/>
<text text-anchor="middle" x="815" y="-188.3" font-family="Times,serif" font-size="14.00">044 (a)</text>
</g>
<!-- 03&#45;&gt;044 -->
<g id="edge17" class="edge"><title>03&#45;&gt;044</title>
<path fill="none" stroke="#b43f3f" stroke-dasharray="1,5" d="M885.581,-264.672C876.737,-258.512 866.489,-250.834 858,-243 849.456,-235.115 840.924,-225.619 833.74,-217.029"/>
<polygon fill="#b43f3f" stroke="#b43f3f" points="836.344,-214.685 827.308,-209.155 830.923,-219.113 836.344,-214.685"/>
<text text-anchor="middle" x="880" y="-231.8" font-family="Times,serif" font-size="14.00">1 (89.2)</text>
</g>
<!-- 032 -->
<g id="node22" class="node"><title>032</title>
<ellipse fill="#ff8a8a" stroke="#b43f3f" cx="906" cy="-192" rx="36.2938" ry="18"/>
<text text-anchor="middle" x="906" y="-188.3" font-family="Times,serif" font-size="14.00">032 (a)</text>
</g>
<!-- 03&#45;&gt;032 -->
<g id="edge18" class="edge"><title>03&#45;&gt;032</title>
<path fill="none" stroke="#b43f3f" stroke-dasharray="1,5" d="M906,-260.799C906,-249.163 906,-233.548 906,-220.237"/>
<polygon fill="#b43f3f" stroke="#b43f3f" points="909.5,-220.175 906,-210.175 902.5,-220.175 909.5,-220.175"/>
<text text-anchor="middle" x="928" y="-231.8" font-family="Times,serif" font-size="14.00">1 (91.7)</text>
</g>
<!-- 02 -->
<g id="node23" class="node"><title>02</title>
<ellipse fill="#ff8a8a" stroke="#b43f3f" cx="992" cy="-192" rx="31.6951" ry="18"/>
<text text-anchor="middle" x="992" y="-188.3" font-family="Times,serif" font-size="14.00">02 (a)</text>
</g>
<!-- 03&#45;&gt;02 -->
<g id="edge19" class="edge"><title>03&#45;&gt;02</title>
<path fill="none" stroke="#b43f3f" stroke-dasharray="1,5" d="M926.647,-264.912C935.533,-258.796 945.752,-251.086 954,-243 961.825,-235.329 969.362,-225.975 975.632,-217.442"/>
<polygon fill="#b43f3f" stroke="#b43f3f" points="978.497,-219.452 981.443,-209.275 972.794,-215.394 978.497,-219.452"/>
<text text-anchor="middle" x="988" y="-231.8" font-family="Times,serif" font-size="14.00">1 (86.5)</text>
</g>
<!-- 022 -->
<g id="node24" class="node"><title>022</title>
<ellipse fill="#ff8a8a" stroke="#b43f3f" cx="768" cy="-105" rx="36.2938" ry="18"/>
<text text-anchor="middle" x="768" y="-101.3" font-family="Times,serif" font-size="14.00">022 (a)</text>
</g>
<!-- 044&#45;&gt;022 -->
<g id="edge20" class="edge"><title>044&#45;&gt;022</title>
<path fill="none" stroke="#b43f3f" stroke-dasharray="1,5" d="M805.714,-174.207C798.976,-162.021 789.74,-145.318 782.095,-131.491"/>
<polygon fill="#b43f3f" stroke="#b43f3f" points="785.008,-129.527 777.106,-122.469 778.883,-132.914 785.008,-129.527"/>
<text text-anchor="middle" x="817" y="-144.8" font-family="Times,serif" font-size="14.00">1 (91.7)</text>
</g>
<!-- 0141 -->
<g id="node25" class="node"><title>0141</title>
<ellipse fill="#ff8a8a" stroke="#b43f3f" cx="863" cy="-105" rx="40.0939" ry="18"/>
<text text-anchor="middle" x="863" y="-101.3" font-family="Times,serif" font-size="14.00">0141 (a)</text>
</g>
<!-- 044&#45;&gt;0141 -->
<g id="edge21" class="edge"><title>044&#45;&gt;0141</title>
<path fill="none" stroke="#b43f3f" stroke-dasharray="1,5" d="M827.959,-175.139C832.395,-169.316 837.195,-162.544 841,-156 845.291,-148.622 849.284,-140.251 852.658,-132.498"/>
<polygon fill="#b43f3f" stroke="#b43f3f" points="855.947,-133.706 856.577,-123.13 849.489,-131.004 855.947,-133.706"/>
<text text-anchor="middle" x="871" y="-144.8" font-family="Times,serif" font-size="14.00">1 (89.2)</text>
</g>
<!-- 019 -->
<g id="node29" class="node"><title>019</title>
<ellipse fill="#ff8a8a" stroke="#b43f3f" cx="449" cy="-279" rx="36.2938" ry="18"/>
<text text-anchor="middle" x="449" y="-275.3" font-family="Times,serif" font-size="14.00">019 (a)</text>
</g>
<!-- 019&#45;&gt;063 -->
<g id="edge25" class="edge"><title>019&#45;&gt;063</title>
<path fill="none" stroke="#b43f3f" stroke-dasharray="1,5" d="M449,-260.799C449,-249.163 449,-233.548 449,-220.237"/>
<polygon fill="#b43f3f" stroke="#b43f3f" points="452.5,-220.175 449,-210.175 445.5,-220.175 452.5,-220.175"/>
<text text-anchor="middle" x="471" y="-231.8" font-family="Times,serif" font-size="14.00">1 (85.7)</text>
</g>
<!-- P75 -->
<g id="node30" class="node"><title>P75</title>
<ellipse fill="#ff8a8a" stroke="#b43f3f" cx="992" cy="-279" rx="36.2938" ry="18"/>
<text text-anchor="middle" x="992" y="-275.3" font-family="Times,serif" font-size="14.00">P75 (a)</text>
</g>
<!-- 01 -->
<g id="node31" class="node"><title>01</title>
<ellipse fill="#cea8f4" stroke="#835da9" cx="1079" cy="-279" rx="32.4942" ry="18"/>
<text text-anchor="middle" x="1079" y="-275.3" font-family="Times,serif" font-size="14.00">01 (b)</text>
</g>
</g>
</svg>
