<?xml version="1.0" encoding="UTF-8" standalone="no"?>
<!DOCTYPE svg PUBLIC "-//W3C//DTD SVG 1.1//EN"
 "http://www.w3.org/Graphics/SVG/1.1/DTD/svg11.dtd">
<!-- Generated by graphviz version 2.38.0 (20140413.2041)
 -->
<!-- Title: %3 Pages: 1 -->
<svg width="1070pt" height="337pt"
 viewBox="0.00 0.00 1070.00 337.00" xmlns="http://www.w3.org/2000/svg" xmlns:xlink="http://www.w3.org/1999/xlink">
<g id="graph0" class="graph" transform="scale(1 1) rotate(0) translate(4 333)">
<title>%3</title>
<polygon fill="white" stroke="none" points="-4,4 -4,-333 1066,-333 1066,4 -4,4"/>
<g id="clust1" class="cluster"><title>cluster_legend</title>
<path fill="none" stroke="black" d="M20,-193C20,-193 210,-193 210,-193 216,-193 222,-199 222,-205 222,-205 222,-309 222,-309 222,-315 216,-321 210,-321 210,-321 20,-321 20,-321 14,-321 8,-315 8,-309 8,-309 8,-205 8,-205 8,-199 14,-193 20,-193"/>
</g>
<g id="clust2" class="cluster"><title>cluster_reading</title>
<polygon fill="none" stroke="black" points="230,-8 230,-321 1054,-321 1054,-8 230,-8"/>
</g>
<!-- leg_s -->
<g id="node1" class="node"><title>leg_s</title>
<text text-anchor="middle" x="115" y="-291.3" font-family="Times,serif" font-size="14.00">Textual flow strength</text>
</g>
<!-- leg_e1 -->
<!-- leg_s&#45;&gt;leg_e1 -->
<g id="edge1" class="edge"><title>leg_s&#45;&gt;leg_e1</title>
<path fill="none" stroke="black" stroke-dasharray="1,5" d="M96.6657,-276.686C91.1324,-271.194 85.1607,-264.989 80,-259 70.1708,-247.593 60.0722,-233.779 52.9137,-223.563"/>
<polygon fill="black" stroke="black" points="55.6142,-221.314 47.056,-215.068 49.8514,-225.288 55.6142,-221.314"/>
<text text-anchor="middle" x="95.5" y="-247.8" font-family="Times,serif" font-size="14.00">&lt;=5 &#160;</text>
</g>
<!-- leg_e2 -->
<!-- leg_s&#45;&gt;leg_e2 -->
<g id="edge2" class="edge"><title>leg_s&#45;&gt;leg_e2</title>
<path fill="none" stroke="black" stroke-dasharray="5,2" d="M115,-276.799C115,-261.794 115,-240.174 115,-225.409"/>
<polygon fill="black" stroke="black" points="118.5,-225.293 115,-215.293 111.5,-225.293 118.5,-225.293"/>
<text text-anchor="middle" x="134" y="-247.8" font-family="Times,serif" font-size="14.00"> &#160;&lt;=25</text>
</g>
<!-- leg_e3 -->
<!-- leg_s&#45;&gt;leg_e3 -->
<g id="edge3" class="edge"><title>leg_s&#45;&gt;leg_e3</title>
<path fill="none" stroke="black" d="M138.503,-276.76C144.906,-271.462 151.567,-265.344 157,-259 166.087,-248.39 174.095,-234.689 179.546,-224.313"/>
<polygon fill="black" stroke="black" points="182.722,-225.789 184.091,-215.283 176.469,-222.642 182.722,-225.789"/>
<text text-anchor="middle" x="179" y="-247.8" font-family="Times,serif" font-size="14.00">&gt;25</text>
</g>
<!-- 044 -->
<g id="node5" class="node"><title>044</title>
<ellipse fill="#ff8a8a" stroke="#b43f3f" cx="838" cy="-208" rx="36.2938" ry="18"/>
<text text-anchor="middle" x="838" y="-204.3" font-family="Times,serif" font-size="14.00">044 (a)</text>
</g>
<!-- 022 -->
<g id="node6" class="node"><title>022</title>
<ellipse fill="#ff8a8a" stroke="#b43f3f" cx="911" cy="-121" rx="36.2938" ry="18"/>
<text text-anchor="middle" x="911" y="-117.3" font-family="Times,serif" font-size="14.00">022 (a)</text>
</g>
<!-- 044&#45;&gt;022 -->
<g id="edge4" class="edge"><title>044&#45;&gt;022</title>
<path fill="none" stroke="#b43f3f" stroke-dasharray="1,5" d="M851.731,-191.012C862.743,-178.19 878.358,-160.007 890.797,-145.524"/>
<polygon fill="#b43f3f" stroke="#b43f3f" points="893.471,-147.783 897.331,-137.916 888.16,-143.222 893.471,-147.783"/>
<text text-anchor="middle" x="900" y="-160.8" font-family="Times,serif" font-size="14.00">1 (91.7)</text>
</g>
<!-- 0141 -->
<g id="node7" class="node"><title>0141</title>
<ellipse fill="#ff8a8a" stroke="#b43f3f" cx="1006" cy="-121" rx="40.0939" ry="18"/>
<text text-anchor="middle" x="1006" y="-117.3" font-family="Times,serif" font-size="14.00">0141 (a)</text>
</g>
<!-- 044&#45;&gt;0141 -->
<g id="edge5" class="edge"><title>044&#45;&gt;0141</title>
<path fill="none" stroke="#b43f3f" stroke-dasharray="1,5" d="M866.411,-196.336C887.802,-188.188 915.218,-177.458 926,-172 943.305,-163.241 961.719,-151.886 976.512,-142.211"/>
<polygon fill="#b43f3f" stroke="#b43f3f" points="978.813,-144.886 985.214,-136.443 974.945,-139.051 978.813,-144.886"/>
<text text-anchor="middle" x="972" y="-160.8" font-family="Times,serif" font-size="14.00">1 (89.2)</text>
</g>
<!-- 031 -->
<g id="node8" class="node"><title>031</title>
<ellipse fill="#ff8a8a" stroke="#b43f3f" cx="365" cy="-121" rx="36.2938" ry="18"/>
<text text-anchor="middle" x="365" y="-117.3" font-family="Times,serif" font-size="14.00">031 (a)</text>
</g>
<!-- 013 -->
<g id="node9" class="node"><title>013</title>
<ellipse fill="#ff8a8a" stroke="#b43f3f" cx="274" cy="-34" rx="36.2938" ry="18"/>
<text text-anchor="middle" x="274" y="-30.3" font-family="Times,serif" font-size="14.00">013 (a)</text>
</g>
<!-- 031&#45;&gt;013 -->
<g id="edge6" class="edge"><title>031&#45;&gt;013</title>
<path fill="none" stroke="#b43f3f" stroke-dasharray="1,5" d="M343.628,-106.006C335.008,-99.9634 325.186,-92.5539 317,-85 308.456,-77.1154 299.924,-67.6186 292.74,-59.0293"/>
<polygon fill="#b43f3f" stroke="#b43f3f" points="295.344,-56.6853 286.308,-51.1545 289.923,-61.1135 295.344,-56.6853"/>
<text text-anchor="middle" x="339" y="-73.8" font-family="Times,serif" font-size="14.00">1 (97.1)</text>
</g>
<!-- 017 -->
<g id="node10" class="node"><title>017</title>
<ellipse fill="#ff8a8a" stroke="#b43f3f" cx="365" cy="-34" rx="36.2938" ry="18"/>
<text text-anchor="middle" x="365" y="-30.3" font-family="Times,serif" font-size="14.00">017 (a)</text>
</g>
<!-- 031&#45;&gt;017 -->
<g id="edge7" class="edge"><title>031&#45;&gt;017</title>
<path fill="none" stroke="#b43f3f" stroke-dasharray="1,5" d="M365,-102.799C365,-91.1626 365,-75.5479 365,-62.2368"/>
<polygon fill="#b43f3f" stroke="#b43f3f" points="368.5,-62.1754 365,-52.1754 361.5,-62.1755 368.5,-62.1754"/>
<text text-anchor="middle" x="387" y="-73.8" font-family="Times,serif" font-size="14.00">1 (94.3)</text>
</g>
<!-- 03 -->
<g id="node11" class="node"><title>03</title>
<ellipse fill="#ff8a8a" stroke="#b43f3f" cx="924" cy="-295" rx="31.6951" ry="18"/>
<text text-anchor="middle" x="924" y="-291.3" font-family="Times,serif" font-size="14.00">03 (a)</text>
</g>
<!-- 03&#45;&gt;044 -->
<g id="edge8" class="edge"><title>03&#45;&gt;044</title>
<path fill="none" stroke="#b43f3f" stroke-dasharray="1,5" d="M903.353,-280.912C894.467,-274.796 884.248,-267.086 876,-259 868.175,-251.329 860.638,-241.975 854.368,-233.442"/>
<polygon fill="#b43f3f" stroke="#b43f3f" points="857.206,-231.394 848.557,-225.275 851.503,-235.452 857.206,-231.394"/>
<text text-anchor="middle" x="898" y="-247.8" font-family="Times,serif" font-size="14.00">1 (89.2)</text>
</g>
<!-- 02 -->
<g id="node12" class="node"><title>02</title>
<ellipse fill="#ff8a8a" stroke="#b43f3f" cx="924" cy="-208" rx="31.6951" ry="18"/>
<text text-anchor="middle" x="924" y="-204.3" font-family="Times,serif" font-size="14.00">02 (a)</text>
</g>
<!-- 03&#45;&gt;02 -->
<g id="edge9" class="edge"><title>03&#45;&gt;02</title>
<path fill="none" stroke="#b43f3f" stroke-dasharray="1,5" d="M924,-276.799C924,-265.163 924,-249.548 924,-236.237"/>
<polygon fill="#b43f3f" stroke="#b43f3f" points="927.5,-236.175 924,-226.175 920.5,-236.175 927.5,-236.175"/>
<text text-anchor="middle" x="946" y="-247.8" font-family="Times,serif" font-size="14.00">1 (86.5)</text>
</g>
<!-- 032 -->
<g id="node13" class="node"><title>032</title>
<ellipse fill="#ff8a8a" stroke="#b43f3f" cx="1010" cy="-208" rx="36.2938" ry="18"/>
<text text-anchor="middle" x="1010" y="-204.3" font-family="Times,serif" font-size="14.00">032 (a)</text>
</g>
<!-- 03&#45;&gt;032 -->
<g id="edge10" class="edge"><title>03&#45;&gt;032</title>
<path fill="none" stroke="#b43f3f" stroke-dasharray="1,5" d="M944.647,-280.912C953.533,-274.796 963.752,-267.086 972,-259 979.825,-251.329 987.362,-241.975 993.632,-233.442"/>
<polygon fill="#b43f3f" stroke="#b43f3f" points="996.497,-235.452 999.443,-225.275 990.794,-231.394 996.497,-235.452"/>
<text text-anchor="middle" x="1006" y="-247.8" font-family="Times,serif" font-size="14.00">1 (91.7)</text>
</g>
<!-- 063 -->
<g id="node14" class="node"><title>063</title>
<ellipse fill="#ff8a8a" stroke="#b43f3f" cx="593" cy="-208" rx="36.2938" ry="18"/>
<text text-anchor="middle" x="593" y="-204.3" font-family="Times,serif" font-size="14.00">063 (a)</text>
</g>
<!-- 063&#45;&gt;031 -->
<g id="edge11" class="edge"><title>063&#45;&gt;031</title>
<path fill="none" stroke="#b43f3f" stroke-dasharray="1,5" d="M558.509,-202.118C527.863,-197.023 482.28,-187.56 445,-172 426.427,-164.248 407.251,-152.417 392.331,-142.21"/>
<polygon fill="#b43f3f" stroke="#b43f3f" points="394.275,-139.298 384.075,-136.431 390.26,-145.033 394.275,-139.298"/>
<text text-anchor="middle" x="467" y="-160.8" font-family="Times,serif" font-size="14.00">1 (95.8)</text>
</g>
<!-- 07 -->
<g id="node15" class="node"><title>07</title>
<ellipse fill="#ff8a8a" stroke="#b43f3f" cx="461" cy="-121" rx="31.6951" ry="18"/>
<text text-anchor="middle" x="461" y="-117.3" font-family="Times,serif" font-size="14.00">07 (a)</text>
</g>
<!-- 063&#45;&gt;07 -->
<g id="edge12" class="edge"><title>063&#45;&gt;07</title>
<path fill="none" stroke="#b43f3f" stroke-dasharray="1,5" d="M563.151,-197.397C546.956,-191.434 527.03,-182.835 511,-172 499.876,-164.481 489.13,-154.26 480.47,-145.018"/>
<polygon fill="#b43f3f" stroke="#b43f3f" points="483.03,-142.63 473.724,-137.566 477.841,-147.328 483.03,-142.63"/>
<text text-anchor="middle" x="533" y="-160.8" font-family="Times,serif" font-size="14.00">1 (96.6)</text>
</g>
<!-- 011 -->
<g id="node16" class="node"><title>011</title>
<ellipse fill="#ff8a8a" stroke="#b43f3f" cx="547" cy="-121" rx="36.2938" ry="18"/>
<text text-anchor="middle" x="547" y="-117.3" font-family="Times,serif" font-size="14.00">011 (a)</text>
</g>
<!-- 063&#45;&gt;011 -->
<g id="edge13" class="edge"><title>063&#45;&gt;011</title>
<path fill="none" stroke="#b43f3f" stroke-dasharray="1,5" d="M578.713,-191.414C573.903,-185.617 568.8,-178.791 565,-172 560.99,-164.834 557.593,-156.608 554.867,-148.924"/>
<polygon fill="#b43f3f" stroke="#b43f3f" points="558.138,-147.666 551.675,-139.271 551.492,-149.864 558.138,-147.666"/>
<text text-anchor="middle" x="587" y="-160.8" font-family="Times,serif" font-size="14.00">1 (93.1)</text>
</g>
<!-- 045 -->
<g id="node17" class="node"><title>045</title>
<ellipse fill="#ff8a8a" stroke="#b43f3f" cx="638" cy="-121" rx="36.2938" ry="18"/>
<text text-anchor="middle" x="638" y="-117.3" font-family="Times,serif" font-size="14.00">045 (a)</text>
</g>
<!-- 063&#45;&gt;045 -->
<g id="edge14" class="edge"><title>063&#45;&gt;045</title>
<path fill="none" stroke="#b43f3f" stroke-dasharray="1,5" d="M601.891,-190.207C608.3,-178.099 617.071,-161.533 624.363,-147.759"/>
<polygon fill="#b43f3f" stroke="#b43f3f" points="627.542,-149.234 629.128,-138.758 621.356,-145.959 627.542,-149.234"/>
<text text-anchor="middle" x="641" y="-160.8" font-family="Times,serif" font-size="14.00">1 (93.1)</text>
</g>
<!-- 021 -->
<g id="node18" class="node"><title>021</title>
<ellipse fill="#ff8a8a" stroke="#b43f3f" cx="729" cy="-121" rx="36.2938" ry="18"/>
<text text-anchor="middle" x="729" y="-117.3" font-family="Times,serif" font-size="14.00">021 (a)</text>
</g>
<!-- 063&#45;&gt;021 -->
<g id="edge15" class="edge"><title>063&#45;&gt;021</title>
<path fill="none" stroke="#b43f3f" stroke-dasharray="1,5" d="M620.176,-195.997C634.53,-189.731 652.192,-181.289 667,-172 680.197,-163.722 693.785,-153.047 704.865,-143.688"/>
<polygon fill="#b43f3f" stroke="#b43f3f" points="707.154,-146.335 712.448,-137.158 702.587,-141.031 707.154,-146.335"/>
<text text-anchor="middle" x="709" y="-160.8" font-family="Times,serif" font-size="14.00">1 (93.1)</text>
</g>
<!-- 028 -->
<g id="node19" class="node"><title>028</title>
<ellipse fill="#ff8a8a" stroke="#b43f3f" cx="820" cy="-121" rx="36.2938" ry="18"/>
<text text-anchor="middle" x="820" y="-117.3" font-family="Times,serif" font-size="14.00">028 (a)</text>
</g>
<!-- 063&#45;&gt;028 -->
<g id="edge16" class="edge"><title>063&#45;&gt;028</title>
<path fill="none" stroke="#b43f3f" stroke-dasharray="1,5" d="M627.148,-201.463C656.468,-196.038 699.491,-186.459 735,-172 754.801,-163.937 775.509,-151.843 791.529,-141.569"/>
<polygon fill="#b43f3f" stroke="#b43f3f" points="793.458,-144.49 799.91,-136.086 789.626,-138.632 793.458,-144.49"/>
<text text-anchor="middle" x="787" y="-160.8" font-family="Times,serif" font-size="14.00">1 (96.6)</text>
</g>
<!-- 0211 -->
<g id="node21" class="node"><title>0211</title>
<ellipse fill="#ff8a8a" stroke="#b43f3f" cx="460" cy="-34" rx="40.0939" ry="18"/>
<text text-anchor="middle" x="460" y="-30.3" font-family="Times,serif" font-size="14.00">0211 (a)</text>
</g>
<!-- 07&#45;&gt;0211 -->
<g id="edge18" class="edge"><title>07&#45;&gt;0211</title>
<path fill="none" stroke="#b43f3f" stroke-dasharray="1,5" d="M460.798,-102.799C460.661,-91.1626 460.477,-75.5479 460.32,-62.2368"/>
<polygon fill="#b43f3f" stroke="#b43f3f" points="463.82,-62.1335 460.202,-52.1754 456.82,-62.216 463.82,-62.1335"/>
<text text-anchor="middle" x="483" y="-73.8" font-family="Times,serif" font-size="14.00">2 (82.9)</text>
</g>
<!-- 037 -->
<g id="node22" class="node"><title>037</title>
<ellipse fill="#ff8a8a" stroke="#b43f3f" cx="555" cy="-34" rx="36.2938" ry="18"/>
<text text-anchor="middle" x="555" y="-30.3" font-family="Times,serif" font-size="14.00">037 (a)</text>
</g>
<!-- 07&#45;&gt;037 -->
<g id="edge19" class="edge"><title>07&#45;&gt;037</title>
<path fill="none" stroke="#b43f3f" stroke-dasharray="1,5" d="M480.824,-106.866C489.749,-100.625 500.227,-92.8278 509,-85 518.029,-76.9432 527.209,-67.3138 534.969,-58.6661"/>
<polygon fill="#b43f3f" stroke="#b43f3f" points="537.672,-60.8929 541.651,-51.0737 532.417,-56.2682 537.672,-60.8929"/>
<text text-anchor="middle" x="546" y="-73.8" font-family="Times,serif" font-size="14.00">1 (97.5)</text>
</g>
<!-- 034 -->
<g id="node23" class="node"><title>034</title>
<ellipse fill="#ff8a8a" stroke="#b43f3f" cx="646" cy="-34" rx="36.2938" ry="18"/>
<text text-anchor="middle" x="646" y="-30.3" font-family="Times,serif" font-size="14.00">034 (a)</text>
</g>
<!-- 07&#45;&gt;034 -->
<g id="edge20" class="edge"><title>07&#45;&gt;034</title>
<path fill="none" stroke="#b43f3f" stroke-dasharray="1,5" d="M485.502,-109.179C490.884,-106.989 496.592,-104.807 502,-103 532.468,-92.8227 542.707,-98.1851 572,-85 588.817,-77.4302 605.982,-66.1007 619.541,-56.1394"/>
<polygon fill="#b43f3f" stroke="#b43f3f" points="622.013,-58.6591 627.891,-49.8442 617.799,-53.0697 622.013,-58.6591"/>
<text text-anchor="middle" x="620" y="-73.8" font-family="Times,serif" font-size="14.00">1 (95.1)</text>
</g>
<!-- 030 -->
<g id="node24" class="node"><title>030</title>
<ellipse fill="#ff8a8a" stroke="#b43f3f" cx="737" cy="-34" rx="36.2938" ry="18"/>
<text text-anchor="middle" x="737" y="-30.3" font-family="Times,serif" font-size="14.00">030 (a)</text>
</g>
<!-- 07&#45;&gt;030 -->
<g id="edge21" class="edge"><title>07&#45;&gt;030</title>
<path fill="none" stroke="#b43f3f" stroke-dasharray="1,5" d="M484.908,-108.827C490.425,-106.605 496.339,-104.498 502,-103 564.352,-86.4994 584.643,-104.884 646,-85 668.05,-77.8542 690.908,-65.2722 708.199,-54.5179"/>
<polygon fill="#b43f3f" stroke="#b43f3f" points="710.149,-57.4258 716.7,-49.0992 706.386,-51.523 710.149,-57.4258"/>
<text text-anchor="middle" x="703" y="-73.8" font-family="Times,serif" font-size="14.00">1 (95.1)</text>
</g>
<!-- 038 -->
<g id="node25" class="node"><title>038</title>
<ellipse fill="#ff8a8a" stroke="#b43f3f" cx="828" cy="-34" rx="36.2938" ry="18"/>
<text text-anchor="middle" x="828" y="-30.3" font-family="Times,serif" font-size="14.00">038 (a)</text>
</g>
<!-- 045&#45;&gt;038 -->
<g id="edge22" class="edge"><title>045&#45;&gt;038</title>
<path fill="none" stroke="#b43f3f" stroke-dasharray="1,5" d="M665.534,-109.163C671.57,-106.974 677.961,-104.796 684,-103 718.517,-92.7367 730.417,-100.334 763,-85 778.072,-77.907 792.944,-66.8536 804.651,-56.9414"/>
<polygon fill="#b43f3f" stroke="#b43f3f" points="806.993,-59.5432 812.214,-50.3241 802.383,-54.2751 806.993,-59.5432"/>
<text text-anchor="middle" x="809" y="-73.8" font-family="Times,serif" font-size="14.00">1 (92.7)</text>
</g>
<!-- 036 -->
<g id="node26" class="node"><title>036</title>
<ellipse fill="#ff8a8a" stroke="#b43f3f" cx="919" cy="-34" rx="36.2938" ry="18"/>
<text text-anchor="middle" x="919" y="-30.3" font-family="Times,serif" font-size="14.00">036 (a)</text>
</g>
<!-- 021&#45;&gt;036 -->
<g id="edge23" class="edge"><title>021&#45;&gt;036</title>
<path fill="none" stroke="#b43f3f" stroke-dasharray="1,5" d="M757.121,-109.291C763.004,-107.139 769.186,-104.944 775,-103 801.404,-94.1702 809.513,-96.2043 835,-85 854.091,-76.6071 874.209,-64.7511 889.969,-54.6904"/>
<polygon fill="#b43f3f" stroke="#b43f3f" points="892.226,-57.3978 898.704,-49.014 888.412,-51.5283 892.226,-57.3978"/>
<text text-anchor="middle" x="885" y="-73.8" font-family="Times,serif" font-size="14.00">1 (97.6)</text>
</g>
<!-- 047 -->
<g id="node27" class="node"><title>047</title>
<ellipse fill="#ff8a8a" stroke="#b43f3f" cx="1010" cy="-34" rx="36.2938" ry="18"/>
<text text-anchor="middle" x="1010" y="-30.3" font-family="Times,serif" font-size="14.00">047 (a)</text>
</g>
<!-- 021&#45;&gt;047 -->
<g id="edge24" class="edge"><title>021&#45;&gt;047</title>
<path fill="none" stroke="#b43f3f" stroke-dasharray="1,5" d="M756.418,-108.737C762.461,-106.574 768.884,-104.515 775,-103 834.183,-88.3416 852.745,-102.997 911,-85 935.19,-77.527 960.647,-64.5406 979.689,-53.6757"/>
<polygon fill="#b43f3f" stroke="#b43f3f" points="981.611,-56.6062 988.487,-48.5458 978.085,-50.5589 981.611,-56.6062"/>
<text text-anchor="middle" x="969" y="-73.8" font-family="Times,serif" font-size="14.00">1 (95.1)</text>
</g>
<!-- 019 -->
<g id="node20" class="node"><title>019</title>
<ellipse fill="#ff8a8a" stroke="#b43f3f" cx="593" cy="-295" rx="36.2938" ry="18"/>
<text text-anchor="middle" x="593" y="-291.3" font-family="Times,serif" font-size="14.00">019 (a)</text>
</g>
<!-- 019&#45;&gt;063 -->
<g id="edge17" class="edge"><title>019&#45;&gt;063</title>
<path fill="none" stroke="#b43f3f" stroke-dasharray="1,5" d="M593,-276.799C593,-265.163 593,-249.548 593,-236.237"/>
<polygon fill="#b43f3f" stroke="#b43f3f" points="596.5,-236.175 593,-226.175 589.5,-236.175 596.5,-236.175"/>
<text text-anchor="middle" x="615" y="-247.8" font-family="Times,serif" font-size="14.00">1 (85.7)</text>
</g>
<!-- P75 -->
<g id="node28" class="node"><title>P75</title>
<ellipse fill="#ff8a8a" stroke="#b43f3f" cx="411" cy="-295" rx="36.2938" ry="18"/>
<text text-anchor="middle" x="411" y="-291.3" font-family="Times,serif" font-size="14.00">P75 (a)</text>
</g>
</g>
</svg>
