<?xml version="1.0" encoding="UTF-8" standalone="no"?>
<!DOCTYPE svg PUBLIC "-//W3C//DTD SVG 1.1//EN"
 "http://www.w3.org/Graphics/SVG/1.1/DTD/svg11.dtd">
<!-- Generated by graphviz version 2.38.0 (20140413.2041)
 -->
<!-- Title: %3 Pages: 1 -->
<svg width="1099pt" height="321pt"
 viewBox="0.00 0.00 1099.40 321.00" xmlns="http://www.w3.org/2000/svg" xmlns:xlink="http://www.w3.org/1999/xlink">
<g id="graph0" class="graph" transform="scale(1 1) rotate(0) translate(4 317)">
<title>%3</title>
<polygon fill="white" stroke="none" points="-4,4 -4,-317 1095.4,-317 1095.4,4 -4,4"/>
<g id="clust1" class="cluster"><title>cluster_legend</title>
<path fill="none" stroke="black" d="M20,-177C20,-177 210,-177 210,-177 216,-177 222,-183 222,-189 222,-189 222,-293 222,-293 222,-299 216,-305 210,-305 210,-305 20,-305 20,-305 14,-305 8,-299 8,-293 8,-293 8,-189 8,-189 8,-183 14,-177 20,-177"/>
</g>
<!-- leg_s -->
<g id="node1" class="node"><title>leg_s</title>
<text text-anchor="middle" x="115" y="-275.3" font-family="Times,serif" font-size="14.00">Textual flow strength</text>
</g>
<!-- leg_e1 -->
<!-- leg_s&#45;&gt;leg_e1 -->
<g id="edge1" class="edge"><title>leg_s&#45;&gt;leg_e1</title>
<path fill="none" stroke="black" stroke-dasharray="1,5" d="M96.6657,-260.686C91.1324,-255.194 85.1607,-248.989 80,-243 70.1708,-231.593 60.0722,-217.779 52.9137,-207.563"/>
<polygon fill="black" stroke="black" points="55.6142,-205.314 47.056,-199.068 49.8514,-209.288 55.6142,-205.314"/>
<text text-anchor="middle" x="95.5" y="-231.8" font-family="Times,serif" font-size="14.00">&lt;=5 &#160;</text>
</g>
<!-- leg_e2 -->
<!-- leg_s&#45;&gt;leg_e2 -->
<g id="edge2" class="edge"><title>leg_s&#45;&gt;leg_e2</title>
<path fill="none" stroke="black" stroke-dasharray="5,2" d="M115,-260.799C115,-245.794 115,-224.174 115,-209.409"/>
<polygon fill="black" stroke="black" points="118.5,-209.293 115,-199.293 111.5,-209.293 118.5,-209.293"/>
<text text-anchor="middle" x="134" y="-231.8" font-family="Times,serif" font-size="14.00"> &#160;&lt;=25</text>
</g>
<!-- leg_e3 -->
<!-- leg_s&#45;&gt;leg_e3 -->
<g id="edge3" class="edge"><title>leg_s&#45;&gt;leg_e3</title>
<path fill="none" stroke="black" d="M138.503,-260.76C144.906,-255.462 151.567,-249.344 157,-243 166.087,-232.39 174.095,-218.689 179.546,-208.313"/>
<polygon fill="black" stroke="black" points="182.722,-209.789 184.091,-199.283 176.469,-206.642 182.722,-209.789"/>
<text text-anchor="middle" x="179" y="-231.8" font-family="Times,serif" font-size="14.00">&gt;25</text>
</g>
<!-- 044 -->
<g id="node5" class="node"><title>044</title>
<ellipse fill="#ff8a8a" stroke="#b43f3f" cx="268" cy="-192" rx="36.2938" ry="18"/>
<text text-anchor="middle" x="268" y="-188.3" font-family="Times,serif" font-size="14.00">044 (a)</text>
</g>
<!-- 022 -->
<g id="node6" class="node"><title>022</title>
<ellipse fill="#ff8a8a" stroke="#b43f3f" cx="220" cy="-105" rx="36.2938" ry="18"/>
<text text-anchor="middle" x="220" y="-101.3" font-family="Times,serif" font-size="14.00">022 (a)</text>
</g>
<!-- 044&#45;&gt;022 -->
<g id="edge4" class="edge"><title>044&#45;&gt;022</title>
<path fill="none" stroke="#b43f3f" stroke-dasharray="1,5" d="M254.443,-175.237C249.827,-169.423 244.862,-162.632 241,-156 236.736,-148.678 232.874,-140.324 229.659,-132.569"/>
<polygon fill="#b43f3f" stroke="#b43f3f" points="232.883,-131.202 225.951,-123.189 226.373,-133.776 232.883,-131.202"/>
<text text-anchor="middle" x="263" y="-144.8" font-family="Times,serif" font-size="14.00">1 (91.7)</text>
</g>
<!-- 0141 -->
<g id="node7" class="node"><title>0141</title>
<ellipse fill="#ff8a8a" stroke="#b43f3f" cx="315" cy="-105" rx="40.0939" ry="18"/>
<text text-anchor="middle" x="315" y="-101.3" font-family="Times,serif" font-size="14.00">0141 (a)</text>
</g>
<!-- 044&#45;&gt;0141 -->
<g id="edge5" class="edge"><title>044&#45;&gt;0141</title>
<path fill="none" stroke="#b43f3f" stroke-dasharray="1,5" d="M277.286,-174.207C283.98,-162.099 293.141,-145.533 300.757,-131.759"/>
<polygon fill="#b43f3f" stroke="#b43f3f" points="303.958,-133.203 305.734,-122.758 297.832,-129.816 303.958,-133.203"/>
<text text-anchor="middle" x="317" y="-144.8" font-family="Times,serif" font-size="14.00">1 (89.2)</text>
</g>
<!-- 031 -->
<g id="node8" class="node"><title>031</title>
<ellipse fill="#ff8a8a" stroke="#b43f3f" cx="410" cy="-105" rx="36.2938" ry="18"/>
<text text-anchor="middle" x="410" y="-101.3" font-family="Times,serif" font-size="14.00">031 (a)</text>
</g>
<!-- 013 -->
<g id="node9" class="node"><title>013</title>
<ellipse fill="#ff8a8a" stroke="#b43f3f" cx="319" cy="-18" rx="36.2938" ry="18"/>
<text text-anchor="middle" x="319" y="-14.3" font-family="Times,serif" font-size="14.00">013 (a)</text>
</g>
<!-- 031&#45;&gt;013 -->
<g id="edge6" class="edge"><title>031&#45;&gt;013</title>
<path fill="none" stroke="#b43f3f" stroke-dasharray="1,5" d="M388.628,-90.006C380.008,-83.9634 370.186,-76.5539 362,-69 353.456,-61.1154 344.924,-51.6186 337.74,-43.0293"/>
<polygon fill="#b43f3f" stroke="#b43f3f" points="340.344,-40.6853 331.308,-35.1545 334.923,-45.1135 340.344,-40.6853"/>
<text text-anchor="middle" x="384" y="-57.8" font-family="Times,serif" font-size="14.00">1 (97.1)</text>
</g>
<!-- 017 -->
<g id="node10" class="node"><title>017</title>
<ellipse fill="#ff8a8a" stroke="#b43f3f" cx="410" cy="-18" rx="36.2938" ry="18"/>
<text text-anchor="middle" x="410" y="-14.3" font-family="Times,serif" font-size="14.00">017 (a)</text>
</g>
<!-- 031&#45;&gt;017 -->
<g id="edge7" class="edge"><title>031&#45;&gt;017</title>
<path fill="none" stroke="#b43f3f" stroke-dasharray="1,5" d="M410,-86.799C410,-75.1626 410,-59.5479 410,-46.2368"/>
<polygon fill="#b43f3f" stroke="#b43f3f" points="413.5,-46.1754 410,-36.1754 406.5,-46.1755 413.5,-46.1754"/>
<text text-anchor="middle" x="432" y="-57.8" font-family="Times,serif" font-size="14.00">1 (94.3)</text>
</g>
<!-- 03 -->
<g id="node11" class="node"><title>03</title>
<ellipse fill="#ff8a8a" stroke="#b43f3f" cx="354" cy="-279" rx="31.6951" ry="18"/>
<text text-anchor="middle" x="354" y="-275.3" font-family="Times,serif" font-size="14.00">03 (a)</text>
</g>
<!-- 03&#45;&gt;044 -->
<g id="edge8" class="edge"><title>03&#45;&gt;044</title>
<path fill="none" stroke="#b43f3f" stroke-dasharray="1,5" d="M333.353,-264.912C324.467,-258.796 314.248,-251.086 306,-243 298.175,-235.329 290.638,-225.975 284.368,-217.442"/>
<polygon fill="#b43f3f" stroke="#b43f3f" points="287.206,-215.394 278.557,-209.275 281.503,-219.452 287.206,-215.394"/>
<text text-anchor="middle" x="328" y="-231.8" font-family="Times,serif" font-size="14.00">1 (89.2)</text>
</g>
<!-- 02 -->
<g id="node12" class="node"><title>02</title>
<ellipse fill="#ff8a8a" stroke="#b43f3f" cx="354" cy="-192" rx="31.6951" ry="18"/>
<text text-anchor="middle" x="354" y="-188.3" font-family="Times,serif" font-size="14.00">02 (a)</text>
</g>
<!-- 03&#45;&gt;02 -->
<g id="edge9" class="edge"><title>03&#45;&gt;02</title>
<path fill="none" stroke="#b43f3f" stroke-dasharray="1,5" d="M354,-260.799C354,-249.163 354,-233.548 354,-220.237"/>
<polygon fill="#b43f3f" stroke="#b43f3f" points="357.5,-220.175 354,-210.175 350.5,-220.175 357.5,-220.175"/>
<text text-anchor="middle" x="376" y="-231.8" font-family="Times,serif" font-size="14.00">1 (86.5)</text>
</g>
<!-- 032 -->
<g id="node13" class="node"><title>032</title>
<ellipse fill="#ff8a8a" stroke="#b43f3f" cx="440" cy="-192" rx="36.2938" ry="18"/>
<text text-anchor="middle" x="440" y="-188.3" font-family="Times,serif" font-size="14.00">032 (a)</text>
</g>
<!-- 03&#45;&gt;032 -->
<g id="edge10" class="edge"><title>03&#45;&gt;032</title>
<path fill="none" stroke="#b43f3f" stroke-dasharray="1,5" d="M374.647,-264.912C383.533,-258.796 393.752,-251.086 402,-243 409.825,-235.329 417.362,-225.975 423.632,-217.442"/>
<polygon fill="#b43f3f" stroke="#b43f3f" points="426.497,-219.452 429.443,-209.275 420.794,-215.394 426.497,-219.452"/>
<text text-anchor="middle" x="437" y="-231.8" font-family="Times,serif" font-size="14.00">1 (91.7)</text>
</g>
<!-- 063 -->
<g id="node14" class="node"><title>063</title>
<ellipse fill="#ff8a8a" stroke="#b43f3f" cx="827" cy="-192" rx="36.2938" ry="18"/>
<text text-anchor="middle" x="827" y="-188.3" font-family="Times,serif" font-size="14.00">063 (a)</text>
</g>
<!-- 063&#45;&gt;031 -->
<g id="edge11" class="edge"><title>063&#45;&gt;031</title>
<path fill="none" stroke="#b43f3f" stroke-dasharray="1,5" d="M793.93,-184.259C719.037,-168.993 536.508,-131.787 452.992,-114.763"/>
<polygon fill="#b43f3f" stroke="#b43f3f" points="453.571,-111.309 443.073,-112.742 452.173,-118.168 453.571,-111.309"/>
<text text-anchor="middle" x="666" y="-144.8" font-family="Times,serif" font-size="14.00">1 (95.8)</text>
</g>
<!-- 07 -->
<g id="node15" class="node"><title>07</title>
<ellipse fill="#ff8a8a" stroke="#b43f3f" cx="691" cy="-105" rx="31.6951" ry="18"/>
<text text-anchor="middle" x="691" y="-101.3" font-family="Times,serif" font-size="14.00">07 (a)</text>
</g>
<!-- 063&#45;&gt;07 -->
<g id="edge12" class="edge"><title>063&#45;&gt;07</title>
<path fill="none" stroke="#b43f3f" stroke-dasharray="1,5" d="M796.49,-181.919C779.356,-176.023 758.057,-167.321 741,-156 729.813,-148.575 719.058,-138.368 710.408,-129.111"/>
<polygon fill="#b43f3f" stroke="#b43f3f" points="712.97,-126.725 703.674,-121.64 707.77,-131.412 712.97,-126.725"/>
<text text-anchor="middle" x="763" y="-144.8" font-family="Times,serif" font-size="14.00">1 (96.6)</text>
</g>
<!-- 011 -->
<g id="node16" class="node"><title>011</title>
<ellipse fill="#ff8a8a" stroke="#b43f3f" cx="782" cy="-105" rx="36.2938" ry="18"/>
<text text-anchor="middle" x="782" y="-101.3" font-family="Times,serif" font-size="14.00">011 (a)</text>
</g>
<!-- 063&#45;&gt;011 -->
<g id="edge13" class="edge"><title>063&#45;&gt;011</title>
<path fill="none" stroke="#b43f3f" stroke-dasharray="1,5" d="M810.211,-175.909C804.672,-170.158 798.929,-163.235 795,-156 791.131,-148.876 788.373,-140.549 786.425,-132.757"/>
<polygon fill="#b43f3f" stroke="#b43f3f" points="789.842,-132 784.304,-122.968 783.001,-133.482 789.842,-132"/>
<text text-anchor="middle" x="817" y="-144.8" font-family="Times,serif" font-size="14.00">1 (93.1)</text>
</g>
<!-- 045 -->
<g id="node17" class="node"><title>045</title>
<ellipse fill="#ff8a8a" stroke="#b43f3f" cx="873" cy="-105" rx="36.2938" ry="18"/>
<text text-anchor="middle" x="873" y="-101.3" font-family="Times,serif" font-size="14.00">045 (a)</text>
</g>
<!-- 063&#45;&gt;045 -->
<g id="edge14" class="edge"><title>063&#45;&gt;045</title>
<path fill="none" stroke="#b43f3f" stroke-dasharray="1,5" d="M836.088,-174.207C842.683,-162.021 851.722,-145.318 859.205,-131.491"/>
<polygon fill="#b43f3f" stroke="#b43f3f" points="862.406,-132.93 864.087,-122.469 856.25,-129.598 862.406,-132.93"/>
<text text-anchor="middle" x="875" y="-144.8" font-family="Times,serif" font-size="14.00">1 (93.1)</text>
</g>
<!-- 021 -->
<g id="node18" class="node"><title>021</title>
<ellipse fill="#ff8a8a" stroke="#b43f3f" cx="964" cy="-105" rx="36.2938" ry="18"/>
<text text-anchor="middle" x="964" y="-101.3" font-family="Times,serif" font-size="14.00">021 (a)</text>
</g>
<!-- 063&#45;&gt;021 -->
<g id="edge15" class="edge"><title>063&#45;&gt;021</title>
<path fill="none" stroke="#b43f3f" stroke-dasharray="1,5" d="M854.147,-179.95C868.493,-173.671 886.156,-165.231 901,-156 914.359,-147.693 928.16,-137.014 939.428,-127.66"/>
<polygon fill="#b43f3f" stroke="#b43f3f" points="941.767,-130.266 947.142,-121.136 937.247,-124.921 941.767,-130.266"/>
<text text-anchor="middle" x="943" y="-144.8" font-family="Times,serif" font-size="14.00">1 (93.1)</text>
</g>
<!-- 028 -->
<g id="node19" class="node"><title>028</title>
<ellipse fill="#ff8a8a" stroke="#b43f3f" cx="1055" cy="-105" rx="36.2938" ry="18"/>
<text text-anchor="middle" x="1055" y="-101.3" font-family="Times,serif" font-size="14.00">028 (a)</text>
</g>
<!-- 063&#45;&gt;028 -->
<g id="edge16" class="edge"><title>063&#45;&gt;028</title>
<path fill="none" stroke="#b43f3f" stroke-dasharray="1,5" d="M861.13,-185.418C890.438,-179.964 933.454,-170.368 969,-156 988.995,-147.918 1009.95,-135.823 1026.16,-125.554"/>
<polygon fill="#b43f3f" stroke="#b43f3f" points="1028.15,-128.439 1034.65,-120.074 1024.35,-122.558 1028.15,-128.439"/>
<text text-anchor="middle" x="1020" y="-144.8" font-family="Times,serif" font-size="14.00">1 (96.6)</text>
</g>
<!-- 0211 -->
<g id="node21" class="node"><title>0211</title>
<ellipse fill="#ff8a8a" stroke="#b43f3f" cx="505" cy="-18" rx="40.0939" ry="18"/>
<text text-anchor="middle" x="505" y="-14.3" font-family="Times,serif" font-size="14.00">0211 (a)</text>
</g>
<!-- 07&#45;&gt;0211 -->
<g id="edge18" class="edge"><title>07&#45;&gt;0211</title>
<path fill="none" stroke="#b43f3f" stroke-dasharray="1,5" d="M661.977,-96.9378C639.545,-90.9482 608.033,-81.3614 582,-69 564.949,-60.9037 547.196,-49.5986 533.04,-39.7859"/>
<polygon fill="#b43f3f" stroke="#b43f3f" points="534.915,-36.825 524.728,-33.911 530.874,-42.5412 534.915,-36.825"/>
<text text-anchor="middle" x="604" y="-57.8" font-family="Times,serif" font-size="14.00">2 (82.9)</text>
</g>
<!-- 037 -->
<g id="node22" class="node"><title>037</title>
<ellipse fill="#ff8a8a" stroke="#b43f3f" cx="600" cy="-18" rx="36.2938" ry="18"/>
<text text-anchor="middle" x="600" y="-14.3" font-family="Times,serif" font-size="14.00">037 (a)</text>
</g>
<!-- 07&#45;&gt;037 -->
<g id="edge19" class="edge"><title>07&#45;&gt;037</title>
<path fill="none" stroke="#b43f3f" stroke-dasharray="1,5" d="M670.581,-90.6717C661.737,-84.5121 651.489,-76.8337 643,-69 634.456,-61.1154 625.924,-51.6186 618.74,-43.0293"/>
<polygon fill="#b43f3f" stroke="#b43f3f" points="621.344,-40.6853 612.308,-35.1545 615.923,-45.1135 621.344,-40.6853"/>
<text text-anchor="middle" x="665" y="-57.8" font-family="Times,serif" font-size="14.00">1 (97.5)</text>
</g>
<!-- 034 -->
<g id="node23" class="node"><title>034</title>
<ellipse fill="#ff8a8a" stroke="#b43f3f" cx="691" cy="-18" rx="36.2938" ry="18"/>
<text text-anchor="middle" x="691" y="-14.3" font-family="Times,serif" font-size="14.00">034 (a)</text>
</g>
<!-- 07&#45;&gt;034 -->
<g id="edge20" class="edge"><title>07&#45;&gt;034</title>
<path fill="none" stroke="#b43f3f" stroke-dasharray="1,5" d="M691,-86.799C691,-75.1626 691,-59.5479 691,-46.2368"/>
<polygon fill="#b43f3f" stroke="#b43f3f" points="694.5,-46.1754 691,-36.1754 687.5,-46.1755 694.5,-46.1754"/>
<text text-anchor="middle" x="713" y="-57.8" font-family="Times,serif" font-size="14.00">1 (95.1)</text>
</g>
<!-- 030 -->
<g id="node24" class="node"><title>030</title>
<ellipse fill="#ff8a8a" stroke="#b43f3f" cx="782" cy="-18" rx="36.2938" ry="18"/>
<text text-anchor="middle" x="782" y="-14.3" font-family="Times,serif" font-size="14.00">030 (a)</text>
</g>
<!-- 07&#45;&gt;030 -->
<g id="edge21" class="edge"><title>07&#45;&gt;030</title>
<path fill="none" stroke="#b43f3f" stroke-dasharray="1,5" d="M711.419,-90.6717C720.263,-84.5121 730.511,-76.8337 739,-69 747.544,-61.1154 756.076,-51.6186 763.26,-43.0293"/>
<polygon fill="#b43f3f" stroke="#b43f3f" points="766.077,-45.1135 769.692,-35.1545 760.656,-40.6853 766.077,-45.1135"/>
<text text-anchor="middle" x="775" y="-57.8" font-family="Times,serif" font-size="14.00">1 (95.1)</text>
</g>
<!-- 038 -->
<g id="node25" class="node"><title>038</title>
<ellipse fill="#ff8a8a" stroke="#b43f3f" cx="873" cy="-18" rx="36.2938" ry="18"/>
<text text-anchor="middle" x="873" y="-14.3" font-family="Times,serif" font-size="14.00">038 (a)</text>
</g>
<!-- 045&#45;&gt;038 -->
<g id="edge22" class="edge"><title>045&#45;&gt;038</title>
<path fill="none" stroke="#b43f3f" stroke-dasharray="1,5" d="M873,-86.799C873,-75.1626 873,-59.5479 873,-46.2368"/>
<polygon fill="#b43f3f" stroke="#b43f3f" points="876.5,-46.1754 873,-36.1754 869.5,-46.1755 876.5,-46.1754"/>
<text text-anchor="middle" x="895" y="-57.8" font-family="Times,serif" font-size="14.00">1 (92.7)</text>
</g>
<!-- 036 -->
<g id="node26" class="node"><title>036</title>
<ellipse fill="#ff8a8a" stroke="#b43f3f" cx="964" cy="-18" rx="36.2938" ry="18"/>
<text text-anchor="middle" x="964" y="-14.3" font-family="Times,serif" font-size="14.00">036 (a)</text>
</g>
<!-- 021&#45;&gt;036 -->
<g id="edge23" class="edge"><title>021&#45;&gt;036</title>
<path fill="none" stroke="#b43f3f" stroke-dasharray="1,5" d="M964,-86.799C964,-75.1626 964,-59.5479 964,-46.2368"/>
<polygon fill="#b43f3f" stroke="#b43f3f" points="967.5,-46.1754 964,-36.1754 960.5,-46.1755 967.5,-46.1754"/>
<text text-anchor="middle" x="986" y="-57.8" font-family="Times,serif" font-size="14.00">1 (97.6)</text>
</g>
<!-- 047 -->
<g id="node27" class="node"><title>047</title>
<ellipse fill="#ff8a8a" stroke="#b43f3f" cx="1055" cy="-18" rx="36.2938" ry="18"/>
<text text-anchor="middle" x="1055" y="-14.3" font-family="Times,serif" font-size="14.00">047 (a)</text>
</g>
<!-- 021&#45;&gt;047 -->
<g id="edge24" class="edge"><title>021&#45;&gt;047</title>
<path fill="none" stroke="#b43f3f" stroke-dasharray="1,5" d="M985.372,-90.006C993.992,-83.9634 1003.81,-76.5539 1012,-69 1020.54,-61.1154 1029.08,-51.6186 1036.26,-43.0293"/>
<polygon fill="#b43f3f" stroke="#b43f3f" points="1039.08,-45.1135 1042.69,-35.1545 1033.66,-40.6853 1039.08,-45.1135"/>
<text text-anchor="middle" x="1047" y="-57.8" font-family="Times,serif" font-size="14.00">1 (95.1)</text>
</g>
<!-- 019 -->
<g id="node20" class="node"><title>019</title>
<ellipse fill="#ff8a8a" stroke="#b43f3f" cx="827" cy="-279" rx="36.2938" ry="18"/>
<text text-anchor="middle" x="827" y="-275.3" font-family="Times,serif" font-size="14.00">019 (a)</text>
</g>
<!-- 019&#45;&gt;063 -->
<g id="edge17" class="edge"><title>019&#45;&gt;063</title>
<path fill="none" stroke="#b43f3f" stroke-dasharray="1,5" d="M827,-260.799C827,-249.163 827,-233.548 827,-220.237"/>
<polygon fill="#b43f3f" stroke="#b43f3f" points="830.5,-220.175 827,-210.175 823.5,-220.175 830.5,-220.175"/>
<text text-anchor="middle" x="849" y="-231.8" font-family="Times,serif" font-size="14.00">1 (85.7)</text>
</g>
<!-- P75 -->
<g id="node28" class="node"><title>P75</title>
<ellipse fill="#ff8a8a" stroke="#b43f3f" cx="918" cy="-279" rx="36.2938" ry="18"/>
<text text-anchor="middle" x="918" y="-275.3" font-family="Times,serif" font-size="14.00">P75 (a)</text>
</g>
<!-- 01 -->
<g id="node29" class="node"><title>01</title>
<ellipse fill="#cea8f4" stroke="#835da9" cx="1005" cy="-279" rx="32.4942" ry="18"/>
<text text-anchor="middle" x="1005" y="-275.3" font-family="Times,serif" font-size="14.00">01 (b)</text>
</g>
</g>
</svg>
