<?xml version="1.0" encoding="UTF-8" standalone="no"?>
<!DOCTYPE svg PUBLIC "-//W3C//DTD SVG 1.1//EN"
 "http://www.w3.org/Graphics/SVG/1.1/DTD/svg11.dtd">
<!-- Generated by graphviz version 2.38.0 (20140413.2041)
 -->
<!-- Title: %3 Pages: 1 -->
<svg width="893pt" height="408pt"
 viewBox="0.00 0.00 893.40 408.00" xmlns="http://www.w3.org/2000/svg" xmlns:xlink="http://www.w3.org/1999/xlink">
<g id="graph0" class="graph" transform="scale(1 1) rotate(0) translate(4 404)">
<title>%3</title>
<polygon fill="white" stroke="none" points="-4,4 -4,-404 889.397,-404 889.397,4 -4,4"/>
<g id="clust1" class="cluster"><title>cluster_legend</title>
<path fill="none" stroke="black" d="M20,-264C20,-264 210,-264 210,-264 216,-264 222,-270 222,-276 222,-276 222,-380 222,-380 222,-386 216,-392 210,-392 210,-392 20,-392 20,-392 14,-392 8,-386 8,-380 8,-380 8,-276 8,-276 8,-270 14,-264 20,-264"/>
</g>
<!-- leg_s -->
<g id="node1" class="node"><title>leg_s</title>
<text text-anchor="middle" x="115" y="-362.3" font-family="Times,serif" font-size="14.00">Textual flow strength</text>
</g>
<!-- leg_e1 -->
<!-- leg_s&#45;&gt;leg_e1 -->
<g id="edge1" class="edge"><title>leg_s&#45;&gt;leg_e1</title>
<path fill="none" stroke="black" stroke-dasharray="1,5" d="M96.6657,-347.686C91.1324,-342.194 85.1607,-335.989 80,-330 70.1708,-318.593 60.0722,-304.779 52.9137,-294.563"/>
<polygon fill="black" stroke="black" points="55.6142,-292.314 47.056,-286.068 49.8514,-296.288 55.6142,-292.314"/>
<text text-anchor="middle" x="95.5" y="-318.8" font-family="Times,serif" font-size="14.00">&lt;=5 &#160;</text>
</g>
<!-- leg_e2 -->
<!-- leg_s&#45;&gt;leg_e2 -->
<g id="edge2" class="edge"><title>leg_s&#45;&gt;leg_e2</title>
<path fill="none" stroke="black" stroke-dasharray="5,2" d="M115,-347.799C115,-332.794 115,-311.174 115,-296.409"/>
<polygon fill="black" stroke="black" points="118.5,-296.293 115,-286.293 111.5,-296.293 118.5,-296.293"/>
<text text-anchor="middle" x="134" y="-318.8" font-family="Times,serif" font-size="14.00"> &#160;&lt;=25</text>
</g>
<!-- leg_e3 -->
<!-- leg_s&#45;&gt;leg_e3 -->
<g id="edge3" class="edge"><title>leg_s&#45;&gt;leg_e3</title>
<path fill="none" stroke="black" d="M138.503,-347.76C144.906,-342.462 151.567,-336.344 157,-330 166.087,-319.39 174.095,-305.689 179.546,-295.313"/>
<polygon fill="black" stroke="black" points="182.722,-296.789 184.091,-286.283 176.469,-293.642 182.722,-296.789"/>
<text text-anchor="middle" x="179" y="-318.8" font-family="Times,serif" font-size="14.00">&gt;25</text>
</g>
<!-- 021 -->
<g id="node5" class="node"><title>021</title>
<ellipse fill="#ff8a8a" stroke="#b43f3f" cx="311" cy="-105" rx="36.2938" ry="18"/>
<text text-anchor="middle" x="311" y="-101.3" font-family="Times,serif" font-size="14.00">021 (a)</text>
</g>
<!-- 036 -->
<g id="node6" class="node"><title>036</title>
<ellipse fill="#ff8a8a" stroke="#b43f3f" cx="154" cy="-18" rx="36.2938" ry="18"/>
<text text-anchor="middle" x="154" y="-14.3" font-family="Times,serif" font-size="14.00">036 (a)</text>
</g>
<!-- 021&#45;&gt;036 -->
<g id="edge4" class="edge"><title>021&#45;&gt;036</title>
<path fill="none" stroke="#b43f3f" stroke-dasharray="1,5" d="M282.814,-93.4785C276.936,-91.3135 270.772,-89.0652 265,-87 241.973,-78.7606 234.247,-81.1123 213,-69 199.987,-61.5816 187.111,-51.1332 176.724,-41.7046"/>
<polygon fill="#b43f3f" stroke="#b43f3f" points="178.998,-39.0388 169.305,-34.7604 174.214,-44.1493 178.998,-39.0388"/>
<text text-anchor="middle" x="235" y="-57.8" font-family="Times,serif" font-size="14.00">1 (97.6)</text>
</g>
<!-- 047 -->
<g id="node7" class="node"><title>047</title>
<ellipse fill="#cea8f4" stroke="#835da9" cx="245" cy="-18" rx="36.2938" ry="18"/>
<text text-anchor="middle" x="245" y="-14.3" font-family="Times,serif" font-size="14.00">047 (b)</text>
</g>
<!-- 021&#45;&gt;047 -->
<g id="edge5" class="edge"><title>021&#45;&gt;047</title>
<path fill="none" stroke="#835da9" stroke-dasharray="1,5" d="M291.145,-89.7433C283.889,-83.8795 275.998,-76.6658 270,-69 264.326,-61.7481 259.424,-53.004 255.501,-44.8697"/>
<polygon fill="#835da9" stroke="#835da9" points="258.673,-43.3906 251.358,-35.7269 252.298,-46.28 258.673,-43.3906"/>
<text text-anchor="middle" x="292" y="-57.8" font-family="Times,serif" font-size="14.00">1 (95.1)</text>
</g>
<!-- 03 -->
<g id="node8" class="node"><title>03</title>
<ellipse fill="#ff8a8a" stroke="#b43f3f" cx="264" cy="-279" rx="31.6951" ry="18"/>
<text text-anchor="middle" x="264" y="-275.3" font-family="Times,serif" font-size="14.00">03 (a)</text>
</g>
<!-- 032 -->
<g id="node9" class="node"><title>032</title>
<ellipse fill="#ff8a8a" stroke="#b43f3f" cx="125" cy="-192" rx="36.2938" ry="18"/>
<text text-anchor="middle" x="125" y="-188.3" font-family="Times,serif" font-size="14.00">032 (a)</text>
</g>
<!-- 03&#45;&gt;032 -->
<g id="edge6" class="edge"><title>03&#45;&gt;032</title>
<path fill="none" stroke="#b43f3f" stroke-dasharray="1,5" d="M239.964,-267.008C235.349,-264.965 230.54,-262.883 226,-261 205.339,-252.43 197.995,-254.813 179,-243 167.014,-235.546 155.318,-225.215 145.892,-215.878"/>
<polygon fill="#b43f3f" stroke="#b43f3f" points="148.349,-213.384 138.858,-208.676 143.342,-218.275 148.349,-213.384"/>
<text text-anchor="middle" x="201" y="-231.8" font-family="Times,serif" font-size="14.00">1 (91.7)</text>
</g>
<!-- 044 -->
<g id="node10" class="node"><title>044</title>
<ellipse fill="#ff8a8a" stroke="#b43f3f" cx="216" cy="-192" rx="36.2938" ry="18"/>
<text text-anchor="middle" x="216" y="-188.3" font-family="Times,serif" font-size="14.00">044 (a)</text>
</g>
<!-- 03&#45;&gt;044 -->
<g id="edge7" class="edge"><title>03&#45;&gt;044</title>
<path fill="none" stroke="#b43f3f" stroke-dasharray="1,5" d="M248.358,-263.013C242.925,-257.17 237.159,-250.159 233,-243 228.837,-235.834 225.494,-227.495 222.912,-219.705"/>
<polygon fill="#b43f3f" stroke="#b43f3f" points="226.198,-218.48 219.949,-209.924 219.498,-220.509 226.198,-218.48"/>
<text text-anchor="middle" x="255" y="-231.8" font-family="Times,serif" font-size="14.00">1 (89.2)</text>
</g>
<!-- 02 -->
<g id="node11" class="node"><title>02</title>
<ellipse fill="#ff8a8a" stroke="#b43f3f" cx="302" cy="-192" rx="31.6951" ry="18"/>
<text text-anchor="middle" x="302" y="-188.3" font-family="Times,serif" font-size="14.00">02 (a)</text>
</g>
<!-- 03&#45;&gt;02 -->
<g id="edge8" class="edge"><title>03&#45;&gt;02</title>
<path fill="none" stroke="#b43f3f" stroke-dasharray="1,5" d="M271.508,-261.207C276.868,-249.216 284.184,-232.851 290.306,-219.157"/>
<polygon fill="#b43f3f" stroke="#b43f3f" points="293.622,-220.316 294.508,-209.758 287.231,-217.459 293.622,-220.316"/>
<text text-anchor="middle" x="308" y="-231.8" font-family="Times,serif" font-size="14.00">1 (86.5)</text>
</g>
<!-- 022 -->
<g id="node31" class="node"><title>022</title>
<ellipse fill="#ff8a8a" stroke="#b43f3f" cx="121" cy="-105" rx="36.2938" ry="18"/>
<text text-anchor="middle" x="121" y="-101.3" font-family="Times,serif" font-size="14.00">022 (a)</text>
</g>
<!-- 044&#45;&gt;022 -->
<g id="edge29" class="edge"><title>044&#45;&gt;022</title>
<path fill="none" stroke="#b43f3f" stroke-dasharray="1,5" d="M195.27,-177.159C186.564,-171.025 176.505,-163.508 168,-156 158.837,-147.911 149.469,-138.276 141.533,-129.632"/>
<polygon fill="#b43f3f" stroke="#b43f3f" points="143.99,-127.129 134.694,-122.045 138.79,-131.816 143.99,-127.129"/>
<text text-anchor="middle" x="190" y="-144.8" font-family="Times,serif" font-size="14.00">1 (91.7)</text>
</g>
<!-- 0141 -->
<g id="node32" class="node"><title>0141</title>
<ellipse fill="#ff8a8a" stroke="#b43f3f" cx="216" cy="-105" rx="40.0939" ry="18"/>
<text text-anchor="middle" x="216" y="-101.3" font-family="Times,serif" font-size="14.00">0141 (a)</text>
</g>
<!-- 044&#45;&gt;0141 -->
<g id="edge30" class="edge"><title>044&#45;&gt;0141</title>
<path fill="none" stroke="#b43f3f" stroke-dasharray="1,5" d="M216,-173.799C216,-162.163 216,-146.548 216,-133.237"/>
<polygon fill="#b43f3f" stroke="#b43f3f" points="219.5,-133.175 216,-123.175 212.5,-133.175 219.5,-133.175"/>
<text text-anchor="middle" x="238" y="-144.8" font-family="Times,serif" font-size="14.00">1 (89.2)</text>
</g>
<!-- 07 -->
<g id="node12" class="node"><title>07</title>
<ellipse fill="#ff8a8a" stroke="#b43f3f" cx="460" cy="-105" rx="31.6951" ry="18"/>
<text text-anchor="middle" x="460" y="-101.3" font-family="Times,serif" font-size="14.00">07 (a)</text>
</g>
<!-- 034 -->
<g id="node13" class="node"><title>034</title>
<ellipse fill="#ff8a8a" stroke="#b43f3f" cx="336" cy="-18" rx="36.2938" ry="18"/>
<text text-anchor="middle" x="336" y="-14.3" font-family="Times,serif" font-size="14.00">034 (a)</text>
</g>
<!-- 07&#45;&gt;034 -->
<g id="edge9" class="edge"><title>07&#45;&gt;034</title>
<path fill="none" stroke="#b43f3f" stroke-dasharray="1,5" d="M436.044,-92.9179C423.178,-86.5699 407.278,-78.0746 394,-69 382.048,-60.8316 369.77,-50.5658 359.606,-41.4648"/>
<polygon fill="#b43f3f" stroke="#b43f3f" points="361.699,-38.6362 351.954,-34.478 356.979,-43.8055 361.699,-38.6362"/>
<text text-anchor="middle" x="416" y="-57.8" font-family="Times,serif" font-size="14.00">1 (95.1)</text>
</g>
<!-- 037 -->
<g id="node14" class="node"><title>037</title>
<ellipse fill="#ff8a8a" stroke="#b43f3f" cx="427" cy="-18" rx="36.2938" ry="18"/>
<text text-anchor="middle" x="427" y="-14.3" font-family="Times,serif" font-size="14.00">037 (a)</text>
</g>
<!-- 07&#45;&gt;037 -->
<g id="edge10" class="edge"><title>07&#45;&gt;037</title>
<path fill="none" stroke="#b43f3f" stroke-dasharray="1,5" d="M453.48,-87.2067C448.825,-75.2156 442.472,-58.8511 437.155,-45.1571"/>
<polygon fill="#b43f3f" stroke="#b43f3f" points="440.388,-43.8138 433.506,-35.7584 433.863,-46.3472 440.388,-43.8138"/>
<text text-anchor="middle" x="468" y="-57.8" font-family="Times,serif" font-size="14.00">1 (97.5)</text>
</g>
<!-- 030 -->
<g id="node15" class="node"><title>030</title>
<ellipse fill="#ff8a8a" stroke="#b43f3f" cx="518" cy="-18" rx="36.2938" ry="18"/>
<text text-anchor="middle" x="518" y="-14.3" font-family="Times,serif" font-size="14.00">030 (a)</text>
</g>
<!-- 07&#45;&gt;030 -->
<g id="edge11" class="edge"><title>07&#45;&gt;030</title>
<path fill="none" stroke="#b43f3f" stroke-dasharray="1,5" d="M476.393,-89.2774C482.402,-83.3564 488.959,-76.2253 494,-69 499.092,-61.7019 503.636,-53.1564 507.363,-45.2156"/>
<polygon fill="#b43f3f" stroke="#b43f3f" points="510.617,-46.5128 511.487,-35.9537 504.222,-43.6656 510.617,-46.5128"/>
<text text-anchor="middle" x="525" y="-57.8" font-family="Times,serif" font-size="14.00">1 (95.1)</text>
</g>
<!-- 031 -->
<g id="node16" class="node"><title>031</title>
<ellipse fill="#ff8a8a" stroke="#b43f3f" cx="576" cy="-105" rx="36.2938" ry="18"/>
<text text-anchor="middle" x="576" y="-101.3" font-family="Times,serif" font-size="14.00">031 (a)</text>
</g>
<!-- 013 -->
<g id="node17" class="node"><title>013</title>
<ellipse fill="#ff8a8a" stroke="#b43f3f" cx="609" cy="-18" rx="36.2938" ry="18"/>
<text text-anchor="middle" x="609" y="-14.3" font-family="Times,serif" font-size="14.00">013 (a)</text>
</g>
<!-- 031&#45;&gt;013 -->
<g id="edge12" class="edge"><title>031&#45;&gt;013</title>
<path fill="none" stroke="#b43f3f" stroke-dasharray="1,5" d="M582.52,-87.2067C587.175,-75.2156 593.528,-58.8511 598.845,-45.1571"/>
<polygon fill="#b43f3f" stroke="#b43f3f" points="602.137,-46.3472 602.494,-35.7584 595.612,-43.8138 602.137,-46.3472"/>
<text text-anchor="middle" x="617" y="-57.8" font-family="Times,serif" font-size="14.00">1 (97.1)</text>
</g>
<!-- 017 -->
<g id="node18" class="node"><title>017</title>
<ellipse fill="#ff8a8a" stroke="#b43f3f" cx="700" cy="-18" rx="36.2938" ry="18"/>
<text text-anchor="middle" x="700" y="-14.3" font-family="Times,serif" font-size="14.00">017 (a)</text>
</g>
<!-- 031&#45;&gt;017 -->
<g id="edge13" class="edge"><title>031&#45;&gt;017</title>
<path fill="none" stroke="#b43f3f" stroke-dasharray="1,5" d="M601.959,-92.2416C614.734,-86.0109 630.117,-77.8274 643,-69 654.824,-60.8978 666.902,-50.6419 676.879,-41.5304"/>
<polygon fill="#b43f3f" stroke="#b43f3f" points="679.458,-43.9112 684.385,-34.5315 674.684,-38.7917 679.458,-43.9112"/>
<text text-anchor="middle" x="684" y="-57.8" font-family="Times,serif" font-size="14.00">1 (94.3)</text>
</g>
<!-- 063 -->
<g id="node19" class="node"><title>063</title>
<ellipse fill="#ff8a8a" stroke="#b43f3f" cx="576" cy="-192" rx="36.2938" ry="18"/>
<text text-anchor="middle" x="576" y="-188.3" font-family="Times,serif" font-size="14.00">063 (a)</text>
</g>
<!-- 063&#45;&gt;021 -->
<g id="edge14" class="edge"><title>063&#45;&gt;021</title>
<path fill="none" stroke="#b43f3f" stroke-dasharray="1,5" d="M547.69,-180.582C541.247,-178.32 534.412,-176.007 528,-174 498.983,-164.919 491.109,-164.782 462,-156 423.52,-144.391 379.986,-129.82 349.583,-119.408"/>
<polygon fill="#b43f3f" stroke="#b43f3f" points="350.396,-115.987 339.802,-116.047 348.121,-122.607 350.396,-115.987"/>
<text text-anchor="middle" x="484" y="-144.8" font-family="Times,serif" font-size="14.00">1 (93.1)</text>
</g>
<!-- 063&#45;&gt;07 -->
<g id="edge15" class="edge"><title>063&#45;&gt;07</title>
<path fill="none" stroke="#b43f3f" stroke-dasharray="1,5" d="M556.37,-176.713C547.672,-170.376 537.32,-162.824 528,-156 514.455,-146.082 499.416,-135.028 486.931,-125.84"/>
<polygon fill="#b43f3f" stroke="#b43f3f" points="488.874,-122.925 478.746,-119.815 484.724,-128.562 488.874,-122.925"/>
<text text-anchor="middle" x="550" y="-144.8" font-family="Times,serif" font-size="14.00">1 (96.6)</text>
</g>
<!-- 063&#45;&gt;031 -->
<g id="edge16" class="edge"><title>063&#45;&gt;031</title>
<path fill="none" stroke="#b43f3f" stroke-dasharray="1,5" d="M576,-173.799C576,-162.163 576,-146.548 576,-133.237"/>
<polygon fill="#b43f3f" stroke="#b43f3f" points="579.5,-133.175 576,-123.175 572.5,-133.175 579.5,-133.175"/>
<text text-anchor="middle" x="598" y="-144.8" font-family="Times,serif" font-size="14.00">1 (95.8)</text>
</g>
<!-- 045 -->
<g id="node20" class="node"><title>045</title>
<ellipse fill="#ff8a8a" stroke="#b43f3f" cx="667" cy="-105" rx="36.2938" ry="18"/>
<text text-anchor="middle" x="667" y="-101.3" font-family="Times,serif" font-size="14.00">045 (a)</text>
</g>
<!-- 063&#45;&gt;045 -->
<g id="edge17" class="edge"><title>063&#45;&gt;045</title>
<path fill="none" stroke="#b43f3f" stroke-dasharray="1,5" d="M597.372,-177.006C605.992,-170.963 615.814,-163.554 624,-156 632.544,-148.115 641.076,-138.619 648.26,-130.029"/>
<polygon fill="#b43f3f" stroke="#b43f3f" points="651.077,-132.113 654.692,-122.155 645.656,-127.685 651.077,-132.113"/>
<text text-anchor="middle" x="660" y="-144.8" font-family="Times,serif" font-size="14.00">1 (93.1)</text>
</g>
<!-- 011 -->
<g id="node21" class="node"><title>011</title>
<ellipse fill="#ff8a8a" stroke="#b43f3f" cx="758" cy="-105" rx="36.2938" ry="18"/>
<text text-anchor="middle" x="758" y="-101.3" font-family="Times,serif" font-size="14.00">011 (a)</text>
</g>
<!-- 063&#45;&gt;011 -->
<g id="edge18" class="edge"><title>063&#45;&gt;011</title>
<path fill="none" stroke="#b43f3f" stroke-dasharray="1,5" d="M608.267,-183.461C630.727,-177.566 661.009,-168.305 686,-156 702.128,-148.059 718.702,-136.801 731.877,-126.977"/>
<polygon fill="#b43f3f" stroke="#b43f3f" points="734.176,-129.626 740.004,-120.778 729.931,-124.06 734.176,-129.626"/>
<text text-anchor="middle" x="733" y="-144.8" font-family="Times,serif" font-size="14.00">1 (93.1)</text>
</g>
<!-- 028 -->
<g id="node22" class="node"><title>028</title>
<ellipse fill="#ff8a8a" stroke="#b43f3f" cx="849" cy="-105" rx="36.2938" ry="18"/>
<text text-anchor="middle" x="849" y="-101.3" font-family="Times,serif" font-size="14.00">028 (a)</text>
</g>
<!-- 063&#45;&gt;028 -->
<g id="edge19" class="edge"><title>063&#45;&gt;028</title>
<path fill="none" stroke="#b43f3f" stroke-dasharray="1,5" d="M611.629,-187.578C649.17,-183.197 709.588,-173.927 759,-156 780.266,-148.285 802.502,-135.977 819.552,-125.504"/>
<polygon fill="#b43f3f" stroke="#b43f3f" points="821.844,-128.197 828.451,-119.915 818.121,-122.269 821.844,-128.197"/>
<text text-anchor="middle" x="812" y="-144.8" font-family="Times,serif" font-size="14.00">1 (96.6)</text>
</g>
<!-- 038 -->
<g id="node23" class="node"><title>038</title>
<ellipse fill="#ff8a8a" stroke="#b43f3f" cx="791" cy="-18" rx="36.2938" ry="18"/>
<text text-anchor="middle" x="791" y="-14.3" font-family="Times,serif" font-size="14.00">038 (a)</text>
</g>
<!-- 045&#45;&gt;038 -->
<g id="edge20" class="edge"><title>045&#45;&gt;038</title>
<path fill="none" stroke="#b43f3f" stroke-dasharray="1,5" d="M687.476,-89.964C707.849,-75.9989 739.291,-54.4454 762.181,-38.7552"/>
<polygon fill="#b43f3f" stroke="#b43f3f" points="764.224,-41.5978 770.494,-33.0569 760.266,-35.824 764.224,-41.5978"/>
<text text-anchor="middle" x="759" y="-57.8" font-family="Times,serif" font-size="14.00">1 (92.7)</text>
</g>
<!-- A -->
<g id="node24" class="node"><title>A</title>
<ellipse fill="#ff8a8a" stroke="#b43f3f" cx="520" cy="-366" rx="29.4969" ry="18"/>
<text text-anchor="middle" x="520" y="-362.3" font-family="Times,serif" font-size="14.00">A (a)</text>
</g>
<!-- A&#45;&gt;03 -->
<g id="edge21" class="edge"><title>A&#45;&gt;03</title>
<path fill="none" stroke="#b43f3f" stroke-dasharray="1,5" d="M494.412,-356.92C472.298,-349.905 439.495,-339.42 411,-330 373.058,-317.457 329.766,-302.674 300.043,-292.452"/>
<polygon fill="#b43f3f" stroke="#b43f3f" points="301.105,-289.116 290.51,-289.17 298.826,-295.735 301.105,-289.116"/>
<text text-anchor="middle" x="433" y="-318.8" font-family="Times,serif" font-size="14.00">1 (93.3)</text>
</g>
<!-- 091 -->
<g id="node25" class="node"><title>091</title>
<ellipse fill="#ff8a8a" stroke="#b43f3f" cx="429" cy="-279" rx="36.2938" ry="18"/>
<text text-anchor="middle" x="429" y="-275.3" font-family="Times,serif" font-size="14.00">091 (a)</text>
</g>
<!-- A&#45;&gt;091 -->
<g id="edge22" class="edge"><title>A&#45;&gt;091</title>
<path fill="none" stroke="#b43f3f" stroke-dasharray="1,5" d="M500.523,-352.326C491.472,-346.06 480.792,-338.113 472,-330 463.456,-322.115 454.924,-312.619 447.74,-304.029"/>
<polygon fill="#b43f3f" stroke="#b43f3f" points="450.344,-301.685 441.308,-296.155 444.923,-306.113 450.344,-301.685"/>
<text text-anchor="middle" x="494" y="-318.8" font-family="Times,serif" font-size="14.00">1 (87.5)</text>
</g>
<!-- 019 -->
<g id="node26" class="node"><title>019</title>
<ellipse fill="#ff8a8a" stroke="#b43f3f" cx="520" cy="-279" rx="36.2938" ry="18"/>
<text text-anchor="middle" x="520" y="-275.3" font-family="Times,serif" font-size="14.00">019 (a)</text>
</g>
<!-- A&#45;&gt;019 -->
<g id="edge23" class="edge"><title>A&#45;&gt;019</title>
<path fill="none" stroke="#b43f3f" stroke-dasharray="1,5" d="M520,-347.799C520,-336.163 520,-320.548 520,-307.237"/>
<polygon fill="#b43f3f" stroke="#b43f3f" points="523.5,-307.175 520,-297.175 516.5,-307.175 523.5,-307.175"/>
<text text-anchor="middle" x="542" y="-318.8" font-family="Times,serif" font-size="14.00">1 (93.3)</text>
</g>
<!-- 01 -->
<g id="node27" class="node"><title>01</title>
<ellipse fill="#ff8a8a" stroke="#b43f3f" cx="606" cy="-279" rx="31.6951" ry="18"/>
<text text-anchor="middle" x="606" y="-275.3" font-family="Times,serif" font-size="14.00">01 (a)</text>
</g>
<!-- A&#45;&gt;01 -->
<g id="edge24" class="edge"><title>A&#45;&gt;01</title>
<path fill="none" stroke="#b43f3f" stroke-dasharray="5,2" d="M539.7,-352.561C548.801,-346.347 559.457,-338.375 568,-330 575.825,-322.329 583.362,-312.975 589.632,-304.442"/>
<polygon fill="#b43f3f" stroke="#b43f3f" points="592.497,-306.452 595.443,-296.275 586.794,-302.394 592.497,-306.452"/>
<text text-anchor="middle" x="603" y="-318.8" font-family="Times,serif" font-size="14.00">1 (57.1)</text>
</g>
<!-- P75 -->
<g id="node28" class="node"><title>P75</title>
<ellipse fill="#ff8a8a" stroke="#b43f3f" cx="692" cy="-279" rx="36.2938" ry="18"/>
<text text-anchor="middle" x="692" y="-275.3" font-family="Times,serif" font-size="14.00">P75 (a)</text>
</g>
<!-- A&#45;&gt;P75 -->
<g id="edge25" class="edge"><title>A&#45;&gt;P75</title>
<path fill="none" stroke="#b43f3f" stroke-dasharray="1,5" d="M547.52,-359.083C570.242,-353.524 602.881,-343.958 629,-330 643.072,-322.48 657.134,-311.712 668.39,-302.093"/>
<polygon fill="#b43f3f" stroke="#b43f3f" points="670.854,-304.588 676.051,-295.355 666.231,-299.331 670.854,-304.588"/>
<text text-anchor="middle" x="674" y="-318.8" font-family="Times,serif" font-size="14.00">1 (93.3)</text>
</g>
<!-- 0211 -->
<g id="node29" class="node"><title>0211</title>
<ellipse fill="#ff8a8a" stroke="#b43f3f" cx="396" cy="-192" rx="40.0939" ry="18"/>
<text text-anchor="middle" x="396" y="-188.3" font-family="Times,serif" font-size="14.00">0211 (a)</text>
</g>
<!-- 091&#45;&gt;0211 -->
<g id="edge26" class="edge"><title>091&#45;&gt;0211</title>
<path fill="none" stroke="#b43f3f" stroke-dasharray="1,5" d="M422.48,-261.207C417.855,-249.293 411.554,-233.063 406.259,-219.424"/>
<polygon fill="#b43f3f" stroke="#b43f3f" points="409.501,-218.105 402.619,-210.049 402.976,-220.638 409.501,-218.105"/>
<text text-anchor="middle" x="437" y="-231.8" font-family="Times,serif" font-size="14.00">1 (83.3)</text>
</g>
<!-- 05 -->
<g id="node30" class="node"><title>05</title>
<ellipse fill="#cea8f4" stroke="#835da9" cx="487" cy="-192" rx="32.4942" ry="18"/>
<text text-anchor="middle" x="487" y="-188.3" font-family="Times,serif" font-size="14.00">05 (b)</text>
</g>
<!-- 091&#45;&gt;05 -->
<g id="edge27" class="edge"><title>091&#45;&gt;05</title>
<path fill="none" stroke="#835da9" stroke-dasharray="1,5" d="M445.741,-262.934C451.654,-257.082 458.056,-250.086 463,-243 468.092,-235.702 472.636,-227.156 476.363,-219.216"/>
<polygon fill="#835da9" stroke="#835da9" points="479.617,-220.513 480.487,-209.954 473.222,-217.666 479.617,-220.513"/>
<text text-anchor="middle" x="494" y="-231.8" font-family="Times,serif" font-size="14.00">1 (87.5)</text>
</g>
<!-- 019&#45;&gt;063 -->
<g id="edge28" class="edge"><title>019&#45;&gt;063</title>
<path fill="none" stroke="#b43f3f" stroke-dasharray="1,5" d="M530.797,-261.611C538.932,-249.264 550.229,-232.117 559.494,-218.053"/>
<polygon fill="#b43f3f" stroke="#b43f3f" points="562.657,-219.615 565.236,-209.339 556.811,-215.764 562.657,-219.615"/>
<text text-anchor="middle" x="574" y="-231.8" font-family="Times,serif" font-size="14.00">1 (85.7)</text>
</g>
</g>
</svg>
