<?xml version="1.0" encoding="UTF-8" standalone="no"?>
<!DOCTYPE svg PUBLIC "-//W3C//DTD SVG 1.1//EN"
 "http://www.w3.org/Graphics/SVG/1.1/DTD/svg11.dtd">
<!-- Generated by graphviz version 2.38.0 (20140413.2041)
 -->
<!-- Title: G Pages: 1 -->
<svg width="1028pt" height="260pt"
 viewBox="0.00 0.00 1027.69 260.00" xmlns="http://www.w3.org/2000/svg" xmlns:xlink="http://www.w3.org/1999/xlink">
<g id="graph0" class="graph" transform="scale(1 1) rotate(0) translate(4 256)">
<title>G</title>
<polygon fill="white" stroke="none" points="-4,4 -4,-256 1023.69,-256 1023.69,4 -4,4"/>
<!-- 038 (a) -->
<g id="node1" class="node"><title>038 (a)</title>
<ellipse fill="#ff8a8a" stroke="#b43f3f" cx="218.397" cy="-18" rx="36.2938" ry="18"/>
<text text-anchor="middle" x="218.397" y="-14.3" font-family="Times,serif" font-size="14.00">038 (a)</text>
</g>
<!-- 032 (a) -->
<g id="node2" class="node"><title>032 (a)</title>
<ellipse fill="#ff8a8a" stroke="#b43f3f" cx="552.397" cy="-162" rx="36.2938" ry="18"/>
<text text-anchor="middle" x="552.397" y="-158.3" font-family="Times,serif" font-size="14.00">032 (a)</text>
</g>
<!-- 034 (a) -->
<g id="node3" class="node"><title>034 (a)</title>
<ellipse fill="#ff8a8a" stroke="#b43f3f" cx="309.397" cy="-18" rx="36.2938" ry="18"/>
<text text-anchor="middle" x="309.397" y="-14.3" font-family="Times,serif" font-size="14.00">034 (a)</text>
</g>
<!-- 063 (a) -->
<g id="node4" class="node"><title>063 (a)</title>
<ellipse fill="#ff8a8a" stroke="#b43f3f" cx="263.397" cy="-162" rx="36.2938" ry="18"/>
<text text-anchor="middle" x="263.397" y="-158.3" font-family="Times,serif" font-size="14.00">063 (a)</text>
</g>
<!-- 028 (a) -->
<g id="node5" class="node"><title>028 (a)</title>
<ellipse fill="#ff8a8a" stroke="#b43f3f" cx="36.3968" cy="-90" rx="36.2938" ry="18"/>
<text text-anchor="middle" x="36.3968" y="-86.3" font-family="Times,serif" font-size="14.00">028 (a)</text>
</g>
<!-- 063 (a)&#45;&gt;028 (a) -->
<g id="edge1" class="edge"><title>063 (a)&#45;&gt;028 (a)</title>
<path fill="none" stroke="black" d="M232.127,-152.552C195.885,-142.597 134.467,-125.222 82.3968,-108 79.6686,-107.098 76.8603,-106.138 74.0404,-105.151"/>
<polygon fill="black" stroke="black" points="75.1022,-101.814 64.5076,-101.739 72.743,-108.404 75.1022,-101.814"/>
</g>
<!-- 031 (a) -->
<g id="node14" class="node"><title>031 (a)</title>
<ellipse fill="#ff8a8a" stroke="#b43f3f" cx="127.397" cy="-90" rx="36.2938" ry="18"/>
<text text-anchor="middle" x="127.397" y="-86.3" font-family="Times,serif" font-size="14.00">031 (a)</text>
</g>
<!-- 063 (a)&#45;&gt;031 (a) -->
<g id="edge2" class="edge"><title>063 (a)&#45;&gt;031 (a)</title>
<path fill="none" stroke="black" d="M239.083,-148.485C217.364,-137.307 185.334,-120.821 161.138,-108.367"/>
<polygon fill="black" stroke="black" points="162.452,-105.107 151.959,-103.642 159.248,-111.331 162.452,-105.107"/>
</g>
<!-- 011 (a) -->
<g id="node17" class="node"><title>011 (a)</title>
<ellipse fill="#ff8a8a" stroke="#b43f3f" cx="218.397" cy="-90" rx="36.2938" ry="18"/>
<text text-anchor="middle" x="218.397" y="-86.3" font-family="Times,serif" font-size="14.00">011 (a)</text>
</g>
<!-- 063 (a)&#45;&gt;011 (a) -->
<g id="edge5" class="edge"><title>063 (a)&#45;&gt;011 (a)</title>
<path fill="none" stroke="black" d="M252.732,-144.411C247.296,-135.955 240.572,-125.494 234.519,-116.078"/>
<polygon fill="black" stroke="black" points="237.336,-113.989 228.985,-107.47 231.448,-117.774 237.336,-113.989"/>
</g>
<!-- 045 (a) -->
<g id="node19" class="node"><title>045 (a)</title>
<ellipse fill="#ff8a8a" stroke="#b43f3f" cx="309.397" cy="-90" rx="36.2938" ry="18"/>
<text text-anchor="middle" x="309.397" y="-86.3" font-family="Times,serif" font-size="14.00">045 (a)</text>
</g>
<!-- 063 (a)&#45;&gt;045 (a) -->
<g id="edge6" class="edge"><title>063 (a)&#45;&gt;045 (a)</title>
<path fill="none" stroke="black" d="M274.066,-144.765C279.674,-136.23 286.671,-125.582 292.956,-116.019"/>
<polygon fill="black" stroke="black" points="295.899,-117.913 298.466,-107.633 290.049,-114.068 295.899,-117.913"/>
</g>
<!-- 07 (a) -->
<g id="node23" class="node"><title>07 (a)</title>
<ellipse fill="#ff8a8a" stroke="#b43f3f" cx="398.397" cy="-90" rx="31.6951" ry="18"/>
<text text-anchor="middle" x="398.397" y="-86.3" font-family="Times,serif" font-size="14.00">07 (a)</text>
</g>
<!-- 063 (a)&#45;&gt;07 (a) -->
<g id="edge3" class="edge"><title>063 (a)&#45;&gt;07 (a)</title>
<path fill="none" stroke="black" d="M287.532,-148.485C309.627,-137.029 342.471,-119.998 366.679,-107.446"/>
<polygon fill="black" stroke="black" points="368.551,-110.418 375.817,-102.708 365.329,-104.204 368.551,-110.418"/>
</g>
<!-- 021 (a) -->
<g id="node27" class="node"><title>021 (a)</title>
<ellipse fill="#ff8a8a" stroke="#b43f3f" cx="582.397" cy="-90" rx="36.2938" ry="18"/>
<text text-anchor="middle" x="582.397" y="-86.3" font-family="Times,serif" font-size="14.00">021 (a)</text>
</g>
<!-- 063 (a)&#45;&gt;021 (a) -->
<g id="edge4" class="edge"><title>063 (a)&#45;&gt;021 (a)</title>
<path fill="none" stroke="black" d="M296.036,-153.838C354.067,-141.104 475.148,-114.534 539.707,-100.368"/>
<polygon fill="black" stroke="black" points="540.548,-103.767 549.565,-98.2045 539.047,-96.9292 540.548,-103.767"/>
</g>
<!-- 02 (a) -->
<g id="node6" class="node"><title>02 (a)</title>
<ellipse fill="#ff8a8a" stroke="#b43f3f" cx="638.397" cy="-162" rx="31.6951" ry="18"/>
<text text-anchor="middle" x="638.397" y="-158.3" font-family="Times,serif" font-size="14.00">02 (a)</text>
</g>
<!-- 03 (a) -->
<g id="node7" class="node"><title>03 (a)</title>
<ellipse fill="#ff8a8a" stroke="#b43f3f" cx="638.397" cy="-234" rx="31.6951" ry="18"/>
<text text-anchor="middle" x="638.397" y="-230.3" font-family="Times,serif" font-size="14.00">03 (a)</text>
</g>
<!-- 03 (a)&#45;&gt;032 (a) -->
<g id="edge7" class="edge"><title>03 (a)&#45;&gt;032 (a)</title>
<path fill="none" stroke="black" d="M620.993,-218.834C608.881,-208.976 592.509,-195.649 578.797,-184.488"/>
<polygon fill="black" stroke="black" points="580.63,-181.468 570.665,-177.869 576.211,-186.897 580.63,-181.468"/>
</g>
<!-- 03 (a)&#45;&gt;02 (a) -->
<g id="edge9" class="edge"><title>03 (a)&#45;&gt;02 (a)</title>
<path fill="none" stroke="black" d="M638.397,-215.697C638.397,-207.983 638.397,-198.712 638.397,-190.112"/>
<polygon fill="black" stroke="black" points="641.897,-190.104 638.397,-180.104 634.897,-190.104 641.897,-190.104"/>
</g>
<!-- 044 (a) -->
<g id="node8" class="node"><title>044 (a)</title>
<ellipse fill="#ff8a8a" stroke="#b43f3f" cx="724.397" cy="-162" rx="36.2938" ry="18"/>
<text text-anchor="middle" x="724.397" y="-158.3" font-family="Times,serif" font-size="14.00">044 (a)</text>
</g>
<!-- 03 (a)&#45;&gt;044 (a) -->
<g id="edge8" class="edge"><title>03 (a)&#45;&gt;044 (a)</title>
<path fill="none" stroke="black" d="M655.8,-218.834C667.912,-208.976 684.285,-195.649 697.997,-184.488"/>
<polygon fill="black" stroke="black" points="700.583,-186.897 706.129,-177.869 696.164,-181.468 700.583,-186.897"/>
</g>
<!-- 0141 (a) -->
<g id="node9" class="node"><title>0141 (a)</title>
<ellipse fill="#ff8a8a" stroke="#b43f3f" cx="677.397" cy="-90" rx="40.0939" ry="18"/>
<text text-anchor="middle" x="677.397" y="-86.3" font-family="Times,serif" font-size="14.00">0141 (a)</text>
</g>
<!-- 044 (a)&#45;&gt;0141 (a) -->
<g id="edge11" class="edge"><title>044 (a)&#45;&gt;0141 (a)</title>
<path fill="none" stroke="black" d="M713.496,-144.765C707.766,-136.23 700.616,-125.582 694.195,-116.019"/>
<polygon fill="black" stroke="black" points="697.045,-113.985 688.565,-107.633 691.234,-117.887 697.045,-113.985"/>
</g>
<!-- 022 (a) -->
<g id="node20" class="node"><title>022 (a)</title>
<ellipse fill="#ff8a8a" stroke="#b43f3f" cx="772.397" cy="-90" rx="36.2938" ry="18"/>
<text text-anchor="middle" x="772.397" y="-86.3" font-family="Times,serif" font-size="14.00">022 (a)</text>
</g>
<!-- 044 (a)&#45;&gt;022 (a) -->
<g id="edge10" class="edge"><title>044 (a)&#45;&gt;022 (a)</title>
<path fill="none" stroke="black" d="M735.53,-144.765C741.467,-136.106 748.895,-125.273 755.525,-115.604"/>
<polygon fill="black" stroke="black" points="758.556,-117.374 761.324,-107.147 752.782,-113.415 758.556,-117.374"/>
</g>
<!-- 019 (a) -->
<g id="node10" class="node"><title>019 (a)</title>
<ellipse fill="#ff8a8a" stroke="#b43f3f" cx="263.397" cy="-234" rx="36.2938" ry="18"/>
<text text-anchor="middle" x="263.397" y="-230.3" font-family="Times,serif" font-size="14.00">019 (a)</text>
</g>
<!-- 019 (a)&#45;&gt;063 (a) -->
<g id="edge12" class="edge"><title>019 (a)&#45;&gt;063 (a)</title>
<path fill="none" stroke="black" d="M263.397,-215.697C263.397,-207.983 263.397,-198.712 263.397,-190.112"/>
<polygon fill="black" stroke="black" points="266.897,-190.104 263.397,-180.104 259.897,-190.104 266.897,-190.104"/>
</g>
<!-- P75 (a) -->
<g id="node11" class="node"><title>P75 (a)</title>
<ellipse fill="#ff8a8a" stroke="#b43f3f" cx="724.397" cy="-234" rx="36.2938" ry="18"/>
<text text-anchor="middle" x="724.397" y="-230.3" font-family="Times,serif" font-size="14.00">P75 (a)</text>
</g>
<!-- 01 (b) -->
<g id="node12" class="node"><title>01 (b)</title>
<ellipse fill="#cea8f4" stroke="#835da9" cx="811.397" cy="-234" rx="32.4942" ry="18"/>
<text text-anchor="middle" x="811.397" y="-230.3" font-family="Times,serif" font-size="14.00">01 (b)</text>
</g>
<!-- 05 (c) -->
<g id="node13" class="node"><title>05 (c)</title>
<ellipse fill="#72fe95" stroke="#27b34a" cx="893.397" cy="-234" rx="31.6951" ry="18"/>
<text text-anchor="middle" x="893.397" y="-230.3" font-family="Times,serif" font-size="14.00">05 (c)</text>
</g>
<!-- 017 (a) -->
<g id="node16" class="node"><title>017 (a)</title>
<ellipse fill="#ff8a8a" stroke="#b43f3f" cx="36.3968" cy="-18" rx="36.2938" ry="18"/>
<text text-anchor="middle" x="36.3968" y="-14.3" font-family="Times,serif" font-size="14.00">017 (a)</text>
</g>
<!-- 031 (a)&#45;&gt;017 (a) -->
<g id="edge13" class="edge"><title>031 (a)&#45;&gt;017 (a)</title>
<path fill="none" stroke="black" d="M108.542,-74.496C95.486,-64.4532 77.9115,-50.9344 63.3771,-39.7541"/>
<polygon fill="black" stroke="black" points="65.2881,-36.8084 55.2279,-33.4855 61.0201,-42.3568 65.2881,-36.8084"/>
</g>
<!-- 013 (a) -->
<g id="node21" class="node"><title>013 (a)</title>
<ellipse fill="#ff8a8a" stroke="#b43f3f" cx="127.397" cy="-18" rx="36.2938" ry="18"/>
<text text-anchor="middle" x="127.397" y="-14.3" font-family="Times,serif" font-size="14.00">013 (a)</text>
</g>
<!-- 031 (a)&#45;&gt;013 (a) -->
<g id="edge14" class="edge"><title>031 (a)&#45;&gt;013 (a)</title>
<path fill="none" stroke="black" d="M127.397,-71.6966C127.397,-63.9827 127.397,-54.7125 127.397,-46.1124"/>
<polygon fill="black" stroke="black" points="130.897,-46.1043 127.397,-36.1043 123.897,-46.1044 130.897,-46.1043"/>
</g>
<!-- 036 (a) -->
<g id="node15" class="node"><title>036 (a)</title>
<ellipse fill="#ff8a8a" stroke="#b43f3f" cx="582.397" cy="-18" rx="36.2938" ry="18"/>
<text text-anchor="middle" x="582.397" y="-14.3" font-family="Times,serif" font-size="14.00">036 (a)</text>
</g>
<!-- 047 (a) -->
<g id="node18" class="node"><title>047 (a)</title>
<ellipse fill="#ff8a8a" stroke="#b43f3f" cx="673.397" cy="-18" rx="36.2938" ry="18"/>
<text text-anchor="middle" x="673.397" y="-14.3" font-family="Times,serif" font-size="14.00">047 (a)</text>
</g>
<!-- 045 (a)&#45;&gt;038 (a) -->
<g id="edge15" class="edge"><title>045 (a)&#45;&gt;038 (a)</title>
<path fill="none" stroke="black" d="M290.542,-74.496C277.486,-64.4532 259.912,-50.9344 245.377,-39.7541"/>
<polygon fill="black" stroke="black" points="247.288,-36.8084 237.228,-33.4855 243.02,-42.3568 247.288,-36.8084"/>
</g>
<!-- 091 (a) -->
<g id="node22" class="node"><title>091 (a)</title>
<ellipse fill="#ff8a8a" stroke="#b43f3f" cx="979.397" cy="-234" rx="36.2938" ry="18"/>
<text text-anchor="middle" x="979.397" y="-230.3" font-family="Times,serif" font-size="14.00">091 (a)</text>
</g>
<!-- 0211 (a) -->
<g id="node24" class="node"><title>0211 (a)</title>
<ellipse fill="#ff8a8a" stroke="#b43f3f" cx="979.397" cy="-162" rx="40.0939" ry="18"/>
<text text-anchor="middle" x="979.397" y="-158.3" font-family="Times,serif" font-size="14.00">0211 (a)</text>
</g>
<!-- 091 (a)&#45;&gt;0211 (a) -->
<g id="edge16" class="edge"><title>091 (a)&#45;&gt;0211 (a)</title>
<path fill="none" stroke="black" d="M979.397,-215.697C979.397,-207.983 979.397,-198.712 979.397,-190.112"/>
<polygon fill="black" stroke="black" points="982.897,-190.104 979.397,-180.104 975.897,-190.104 982.897,-190.104"/>
</g>
<!-- 07 (a)&#45;&gt;034 (a) -->
<g id="edge19" class="edge"><title>07 (a)&#45;&gt;034 (a)</title>
<path fill="none" stroke="black" d="M380.386,-74.8345C367.648,-64.8158 350.357,-51.2163 336.03,-39.9473"/>
<polygon fill="black" stroke="black" points="338.017,-37.0574 327.993,-33.6263 333.69,-42.5595 338.017,-37.0574"/>
</g>
<!-- 037 (a) -->
<g id="node25" class="node"><title>037 (a)</title>
<ellipse fill="#ff8a8a" stroke="#b43f3f" cx="400.397" cy="-18" rx="36.2938" ry="18"/>
<text text-anchor="middle" x="400.397" y="-14.3" font-family="Times,serif" font-size="14.00">037 (a)</text>
</g>
<!-- 07 (a)&#45;&gt;037 (a) -->
<g id="edge17" class="edge"><title>07 (a)&#45;&gt;037 (a)</title>
<path fill="none" stroke="black" d="M398.891,-71.6966C399.112,-63.9827 399.376,-54.7125 399.622,-46.1124"/>
<polygon fill="black" stroke="black" points="403.121,-46.2002 399.908,-36.1043 396.124,-46.0003 403.121,-46.2002"/>
</g>
<!-- 030 (a) -->
<g id="node26" class="node"><title>030 (a)</title>
<ellipse fill="#ff8a8a" stroke="#b43f3f" cx="491.397" cy="-18" rx="36.2938" ry="18"/>
<text text-anchor="middle" x="491.397" y="-14.3" font-family="Times,serif" font-size="14.00">030 (a)</text>
</g>
<!-- 07 (a)&#45;&gt;030 (a) -->
<g id="edge18" class="edge"><title>07 (a)&#45;&gt;030 (a)</title>
<path fill="none" stroke="black" d="M416.771,-75.1703C430.259,-65.0175 448.806,-51.0578 464.035,-39.5952"/>
<polygon fill="black" stroke="black" points="466.216,-42.3341 472.101,-33.524 462.006,-36.7413 466.216,-42.3341"/>
</g>
<!-- 021 (a)&#45;&gt;036 (a) -->
<g id="edge20" class="edge"><title>021 (a)&#45;&gt;036 (a)</title>
<path fill="none" stroke="black" d="M582.397,-71.6966C582.397,-63.9827 582.397,-54.7125 582.397,-46.1124"/>
<polygon fill="black" stroke="black" points="585.897,-46.1043 582.397,-36.1043 578.897,-46.1044 585.897,-46.1043"/>
</g>
<!-- 021 (a)&#45;&gt;047 (a) -->
<g id="edge21" class="edge"><title>021 (a)&#45;&gt;047 (a)</title>
<path fill="none" stroke="black" d="M601.252,-74.496C614.308,-64.4532 631.882,-50.9344 646.416,-39.7541"/>
<polygon fill="black" stroke="black" points="648.773,-42.3568 654.566,-33.4855 644.505,-36.8084 648.773,-42.3568"/>
</g>
</g>
</svg>
