<?xml version="1.0" encoding="UTF-8" standalone="no"?>
<!DOCTYPE svg PUBLIC "-//W3C//DTD SVG 1.1//EN"
 "http://www.w3.org/Graphics/SVG/1.1/DTD/svg11.dtd">
<!-- Generated by graphviz version 2.38.0 (20140413.2041)
 -->
<!-- Title: %3 Pages: 1 -->
<svg width="1532pt" height="234pt"
 viewBox="0.00 0.00 1531.85 234.00" xmlns="http://www.w3.org/2000/svg" xmlns:xlink="http://www.w3.org/1999/xlink">
<g id="graph0" class="graph" transform="scale(1 1) rotate(0) translate(4 230)">
<title>%3</title>
<polygon fill="white" stroke="none" points="-4,4 -4,-230 1527.85,-230 1527.85,4 -4,4"/>
<g id="clust1" class="cluster"><title>cluster_legend</title>
<path fill="none" stroke="black" d="M20,-90C20,-90 210,-90 210,-90 216,-90 222,-96 222,-102 222,-102 222,-206 222,-206 222,-212 216,-218 210,-218 210,-218 20,-218 20,-218 14,-218 8,-212 8,-206 8,-206 8,-102 8,-102 8,-96 14,-90 20,-90"/>
</g>
<!-- leg_s -->
<g id="node1" class="node"><title>leg_s</title>
<text text-anchor="middle" x="115" y="-188.3" font-family="Times,serif" font-size="14.00">Textual flow strength</text>
</g>
<!-- leg_e1 -->
<!-- leg_s&#45;&gt;leg_e1 -->
<g id="edge1" class="edge"><title>leg_s&#45;&gt;leg_e1</title>
<path fill="none" stroke="black" stroke-dasharray="1,5" d="M96.6657,-173.686C91.1324,-168.194 85.1607,-161.989 80,-156 70.1708,-144.593 60.0722,-130.779 52.9137,-120.563"/>
<polygon fill="black" stroke="black" points="55.6142,-118.314 47.056,-112.068 49.8514,-122.288 55.6142,-118.314"/>
<text text-anchor="middle" x="95.5" y="-144.8" font-family="Times,serif" font-size="14.00">&lt;=5 &#160;</text>
</g>
<!-- leg_e2 -->
<!-- leg_s&#45;&gt;leg_e2 -->
<g id="edge2" class="edge"><title>leg_s&#45;&gt;leg_e2</title>
<path fill="none" stroke="black" stroke-dasharray="5,2" d="M115,-173.799C115,-158.794 115,-137.174 115,-122.409"/>
<polygon fill="black" stroke="black" points="118.5,-122.293 115,-112.293 111.5,-122.293 118.5,-122.293"/>
<text text-anchor="middle" x="134" y="-144.8" font-family="Times,serif" font-size="14.00"> &#160;&lt;=25</text>
</g>
<!-- leg_e3 -->
<!-- leg_s&#45;&gt;leg_e3 -->
<g id="edge3" class="edge"><title>leg_s&#45;&gt;leg_e3</title>
<path fill="none" stroke="black" d="M138.503,-173.76C144.906,-168.462 151.567,-162.344 157,-156 166.087,-145.39 174.095,-131.689 179.546,-121.313"/>
<polygon fill="black" stroke="black" points="182.722,-122.789 184.091,-112.283 176.469,-119.642 182.722,-122.789"/>
<text text-anchor="middle" x="179" y="-144.8" font-family="Times,serif" font-size="14.00">&gt;25</text>
</g>
<!-- 031 -->
<g id="node5" class="node"><title>031</title>
<ellipse fill="#ff8a8a" stroke="#b43f3f" cx="268" cy="-105" rx="36.2938" ry="18"/>
<text text-anchor="middle" x="268" y="-101.3" font-family="Times,serif" font-size="14.00">031 (a)</text>
</g>
<!-- 01 -->
<g id="node6" class="node"><title>01</title>
<ellipse fill="#ff8a8a" stroke="#b43f3f" cx="136" cy="-18" rx="31.6951" ry="18"/>
<text text-anchor="middle" x="136" y="-14.3" font-family="Times,serif" font-size="14.00">01 (a)</text>
</g>
<!-- 031&#45;&gt;01 -->
<g id="edge4" class="edge"><title>031&#45;&gt;01</title>
<path fill="none" stroke="#b43f3f" stroke-dasharray="1,5" d="M240.809,-92.9951C218.868,-84.0152 190.873,-72.294 186,-69 174.876,-61.4806 164.13,-51.2595 155.47,-42.0179"/>
<polygon fill="#b43f3f" stroke="#b43f3f" points="158.03,-39.6304 148.724,-34.5661 152.841,-44.3284 158.03,-39.6304"/>
<text text-anchor="middle" x="208" y="-57.8" font-family="Times,serif" font-size="14.00">2 (48.5)</text>
</g>
<!-- 013 -->
<g id="node7" class="node"><title>013</title>
<ellipse fill="#ff8a8a" stroke="#b43f3f" cx="222" cy="-18" rx="36.2938" ry="18"/>
<text text-anchor="middle" x="222" y="-14.3" font-family="Times,serif" font-size="14.00">013 (a)</text>
</g>
<!-- 031&#45;&gt;013 -->
<g id="edge5" class="edge"><title>031&#45;&gt;013</title>
<path fill="none" stroke="#b43f3f" stroke-dasharray="1,5" d="M253.713,-88.4144C248.903,-82.6168 243.8,-75.7908 240,-69 235.99,-61.8344 232.593,-53.6079 229.867,-45.9242"/>
<polygon fill="#b43f3f" stroke="#b43f3f" points="233.138,-44.6664 226.675,-36.2708 226.492,-46.8641 233.138,-44.6664"/>
<text text-anchor="middle" x="262" y="-57.8" font-family="Times,serif" font-size="14.00">1 (97.1)</text>
</g>
<!-- 017 -->
<g id="node8" class="node"><title>017</title>
<ellipse fill="#ff8a8a" stroke="#b43f3f" cx="313" cy="-18" rx="36.2938" ry="18"/>
<text text-anchor="middle" x="313" y="-14.3" font-family="Times,serif" font-size="14.00">017 (a)</text>
</g>
<!-- 031&#45;&gt;017 -->
<g id="edge6" class="edge"><title>031&#45;&gt;017</title>
<path fill="none" stroke="#b43f3f" stroke-dasharray="1,5" d="M276.891,-87.2067C283.3,-75.0991 292.071,-58.5329 299.363,-44.759"/>
<polygon fill="#b43f3f" stroke="#b43f3f" points="302.542,-46.2339 304.128,-35.7584 296.356,-42.9586 302.542,-46.2339"/>
<text text-anchor="middle" x="316" y="-57.8" font-family="Times,serif" font-size="14.00">1 (94.3)</text>
</g>
<!-- 045 -->
<g id="node9" class="node"><title>045</title>
<ellipse fill="#ff8a8a" stroke="#b43f3f" cx="404" cy="-105" rx="36.2938" ry="18"/>
<text text-anchor="middle" x="404" y="-101.3" font-family="Times,serif" font-size="14.00">045 (a)</text>
</g>
<!-- 038 -->
<g id="node10" class="node"><title>038</title>
<ellipse fill="#ff8a8a" stroke="#b43f3f" cx="404" cy="-18" rx="36.2938" ry="18"/>
<text text-anchor="middle" x="404" y="-14.3" font-family="Times,serif" font-size="14.00">038 (a)</text>
</g>
<!-- 045&#45;&gt;038 -->
<g id="edge7" class="edge"><title>045&#45;&gt;038</title>
<path fill="none" stroke="#b43f3f" stroke-dasharray="1,5" d="M404,-86.799C404,-75.1626 404,-59.5479 404,-46.2368"/>
<polygon fill="#b43f3f" stroke="#b43f3f" points="407.5,-46.1754 404,-36.1754 400.5,-46.1755 407.5,-46.1754"/>
<text text-anchor="middle" x="426" y="-57.8" font-family="Times,serif" font-size="14.00">1 (92.7)</text>
</g>
<!-- 063 -->
<g id="node11" class="node"><title>063</title>
<ellipse fill="#ff8a8a" stroke="#b43f3f" cx="495" cy="-192" rx="36.2938" ry="18"/>
<text text-anchor="middle" x="495" y="-188.3" font-family="Times,serif" font-size="14.00">063 (a)</text>
</g>
<!-- 063&#45;&gt;031 -->
<g id="edge8" class="edge"><title>063&#45;&gt;031</title>
<path fill="none" stroke="#b43f3f" stroke-dasharray="1,5" d="M464.208,-181.923C442.237,-175.25 412.083,-165.691 386,-156 357.896,-145.558 326.685,-132.255 303.424,-121.997"/>
<polygon fill="#b43f3f" stroke="#b43f3f" points="304.534,-118.66 293.974,-117.804 301.695,-125.059 304.534,-118.66"/>
<text text-anchor="middle" x="408" y="-144.8" font-family="Times,serif" font-size="14.00">1 (95.8)</text>
</g>
<!-- 063&#45;&gt;045 -->
<g id="edge9" class="edge"><title>063&#45;&gt;045</title>
<path fill="none" stroke="#b43f3f" stroke-dasharray="1,5" d="M473.628,-177.006C465.008,-170.963 455.186,-163.554 447,-156 438.456,-148.115 429.924,-138.619 422.74,-130.029"/>
<polygon fill="#b43f3f" stroke="#b43f3f" points="425.344,-127.685 416.308,-122.155 419.923,-132.113 425.344,-127.685"/>
<text text-anchor="middle" x="469" y="-144.8" font-family="Times,serif" font-size="14.00">1 (93.1)</text>
</g>
<!-- 021 -->
<g id="node12" class="node"><title>021</title>
<ellipse fill="#ff8a8a" stroke="#b43f3f" cx="495" cy="-105" rx="36.2938" ry="18"/>
<text text-anchor="middle" x="495" y="-101.3" font-family="Times,serif" font-size="14.00">021 (a)</text>
</g>
<!-- 063&#45;&gt;021 -->
<g id="edge10" class="edge"><title>063&#45;&gt;021</title>
<path fill="none" stroke="#b43f3f" stroke-dasharray="1,5" d="M495,-173.799C495,-162.163 495,-146.548 495,-133.237"/>
<polygon fill="#b43f3f" stroke="#b43f3f" points="498.5,-133.175 495,-123.175 491.5,-133.175 498.5,-133.175"/>
<text text-anchor="middle" x="517" y="-144.8" font-family="Times,serif" font-size="14.00">1 (93.1)</text>
</g>
<!-- 028 -->
<g id="node13" class="node"><title>028</title>
<ellipse fill="#ff8a8a" stroke="#b43f3f" cx="586" cy="-105" rx="36.2938" ry="18"/>
<text text-anchor="middle" x="586" y="-101.3" font-family="Times,serif" font-size="14.00">028 (a)</text>
</g>
<!-- 063&#45;&gt;028 -->
<g id="edge11" class="edge"><title>063&#45;&gt;028</title>
<path fill="none" stroke="#b43f3f" stroke-dasharray="1,5" d="M516.372,-177.006C524.992,-170.963 534.814,-163.554 543,-156 551.544,-148.115 560.076,-138.619 567.26,-130.029"/>
<polygon fill="#b43f3f" stroke="#b43f3f" points="570.077,-132.113 573.692,-122.155 564.656,-127.685 570.077,-132.113"/>
<text text-anchor="middle" x="579" y="-144.8" font-family="Times,serif" font-size="14.00">1 (96.6)</text>
</g>
<!-- 07 -->
<g id="node14" class="node"><title>07</title>
<ellipse fill="#ff8a8a" stroke="#b43f3f" cx="768" cy="-105" rx="31.6951" ry="18"/>
<text text-anchor="middle" x="768" y="-101.3" font-family="Times,serif" font-size="14.00">07 (a)</text>
</g>
<!-- 063&#45;&gt;07 -->
<g id="edge12" class="edge"><title>063&#45;&gt;07</title>
<path fill="none" stroke="#b43f3f" stroke-dasharray="1,5" d="M524.997,-181.66C575.329,-165.989 676.622,-134.451 731.185,-117.462"/>
<polygon fill="#b43f3f" stroke="#b43f3f" points="732.3,-120.781 740.807,-114.467 730.219,-114.098 732.3,-120.781"/>
<text text-anchor="middle" x="670" y="-144.8" font-family="Times,serif" font-size="14.00">1 (96.6)</text>
</g>
<!-- 036 -->
<g id="node15" class="node"><title>036</title>
<ellipse fill="#ff8a8a" stroke="#b43f3f" cx="495" cy="-18" rx="36.2938" ry="18"/>
<text text-anchor="middle" x="495" y="-14.3" font-family="Times,serif" font-size="14.00">036 (a)</text>
</g>
<!-- 021&#45;&gt;036 -->
<g id="edge13" class="edge"><title>021&#45;&gt;036</title>
<path fill="none" stroke="#b43f3f" stroke-dasharray="1,5" d="M495,-86.799C495,-75.1626 495,-59.5479 495,-46.2368"/>
<polygon fill="#b43f3f" stroke="#b43f3f" points="498.5,-46.1754 495,-36.1754 491.5,-46.1755 498.5,-46.1754"/>
<text text-anchor="middle" x="517" y="-57.8" font-family="Times,serif" font-size="14.00">1 (97.6)</text>
</g>
<!-- 047 -->
<g id="node16" class="node"><title>047</title>
<ellipse fill="#ff8a8a" stroke="#b43f3f" cx="586" cy="-18" rx="36.2938" ry="18"/>
<text text-anchor="middle" x="586" y="-14.3" font-family="Times,serif" font-size="14.00">047 (a)</text>
</g>
<!-- 021&#45;&gt;047 -->
<g id="edge14" class="edge"><title>021&#45;&gt;047</title>
<path fill="none" stroke="#b43f3f" stroke-dasharray="1,5" d="M516.372,-90.006C524.992,-83.9634 534.814,-76.5539 543,-69 551.544,-61.1154 560.076,-51.6186 567.26,-43.0293"/>
<polygon fill="#b43f3f" stroke="#b43f3f" points="570.077,-45.1135 573.692,-35.1545 564.656,-40.6853 570.077,-45.1135"/>
<text text-anchor="middle" x="579" y="-57.8" font-family="Times,serif" font-size="14.00">1 (95.1)</text>
</g>
<!-- 030 -->
<g id="node17" class="node"><title>030</title>
<ellipse fill="#ff8a8a" stroke="#b43f3f" cx="677" cy="-18" rx="36.2938" ry="18"/>
<text text-anchor="middle" x="677" y="-14.3" font-family="Times,serif" font-size="14.00">030 (a)</text>
</g>
<!-- 07&#45;&gt;030 -->
<g id="edge15" class="edge"><title>07&#45;&gt;030</title>
<path fill="none" stroke="#b43f3f" stroke-dasharray="1,5" d="M747.581,-90.6717C738.737,-84.5121 728.489,-76.8337 720,-69 711.456,-61.1154 702.924,-51.6186 695.74,-43.0293"/>
<polygon fill="#b43f3f" stroke="#b43f3f" points="698.344,-40.6853 689.308,-35.1545 692.923,-45.1135 698.344,-40.6853"/>
<text text-anchor="middle" x="742" y="-57.8" font-family="Times,serif" font-size="14.00">1 (95.1)</text>
</g>
<!-- 034 -->
<g id="node18" class="node"><title>034</title>
<ellipse fill="#ff8a8a" stroke="#b43f3f" cx="768" cy="-18" rx="36.2938" ry="18"/>
<text text-anchor="middle" x="768" y="-14.3" font-family="Times,serif" font-size="14.00">034 (a)</text>
</g>
<!-- 07&#45;&gt;034 -->
<g id="edge16" class="edge"><title>07&#45;&gt;034</title>
<path fill="none" stroke="#b43f3f" stroke-dasharray="1,5" d="M768,-86.799C768,-75.1626 768,-59.5479 768,-46.2368"/>
<polygon fill="#b43f3f" stroke="#b43f3f" points="771.5,-46.1754 768,-36.1754 764.5,-46.1755 771.5,-46.1754"/>
<text text-anchor="middle" x="790" y="-57.8" font-family="Times,serif" font-size="14.00">1 (95.1)</text>
</g>
<!-- 0211 -->
<g id="node19" class="node"><title>0211</title>
<ellipse fill="#ff8a8a" stroke="#b43f3f" cx="863" cy="-18" rx="40.0939" ry="18"/>
<text text-anchor="middle" x="863" y="-14.3" font-family="Times,serif" font-size="14.00">0211 (a)</text>
</g>
<!-- 07&#45;&gt;0211 -->
<g id="edge17" class="edge"><title>07&#45;&gt;0211</title>
<path fill="none" stroke="#b43f3f" stroke-dasharray="1,5" d="M787.786,-90.8221C796.703,-84.5722 807.185,-76.7806 816,-69 825.163,-60.9115 834.531,-51.2757 842.467,-42.6319"/>
<polygon fill="#b43f3f" stroke="#b43f3f" points="845.21,-44.8165 849.306,-35.0454 840.01,-40.1295 845.21,-44.8165"/>
<text text-anchor="middle" x="854" y="-57.8" font-family="Times,serif" font-size="14.00">2 (82.9)</text>
</g>
<!-- 037 -->
<g id="node20" class="node"><title>037</title>
<ellipse fill="#ff8a8a" stroke="#b43f3f" cx="958" cy="-18" rx="36.2938" ry="18"/>
<text text-anchor="middle" x="958" y="-14.3" font-family="Times,serif" font-size="14.00">037 (a)</text>
</g>
<!-- 07&#45;&gt;037 -->
<g id="edge18" class="edge"><title>07&#45;&gt;037</title>
<path fill="none" stroke="#b43f3f" stroke-dasharray="1,5" d="M796.863,-97.253C819.96,-91.3208 852.861,-81.6595 880,-69 897.504,-60.835 915.748,-49.329 930.187,-39.4127"/>
<polygon fill="#b43f3f" stroke="#b43f3f" points="932.463,-42.092 938.645,-33.4879 928.447,-36.3587 932.463,-42.092"/>
<text text-anchor="middle" x="929" y="-57.8" font-family="Times,serif" font-size="14.00">1 (97.5)</text>
</g>
<!-- 044 -->
<g id="node21" class="node"><title>044</title>
<ellipse fill="#cea8f4" stroke="#835da9" cx="1140" cy="-105" rx="36.2938" ry="18"/>
<text text-anchor="middle" x="1140" y="-101.3" font-family="Times,serif" font-size="14.00">044 (b)</text>
</g>
<!-- 022 -->
<g id="node22" class="node"><title>022</title>
<ellipse fill="#cea8f4" stroke="#835da9" cx="1049" cy="-18" rx="36.2938" ry="18"/>
<text text-anchor="middle" x="1049" y="-14.3" font-family="Times,serif" font-size="14.00">022 (b)</text>
</g>
<!-- 044&#45;&gt;022 -->
<g id="edge19" class="edge"><title>044&#45;&gt;022</title>
<path fill="none" stroke="#835da9" stroke-dasharray="1,5" d="M1118.63,-90.006C1110.01,-83.9634 1100.19,-76.5539 1092,-69 1083.46,-61.1154 1074.92,-51.6186 1067.74,-43.0293"/>
<polygon fill="#835da9" stroke="#835da9" points="1070.34,-40.6853 1061.31,-35.1545 1064.92,-45.1135 1070.34,-40.6853"/>
<text text-anchor="middle" x="1114" y="-57.8" font-family="Times,serif" font-size="14.00">1 (91.7)</text>
</g>
<!-- 011 -->
<g id="node23" class="node"><title>011</title>
<ellipse fill="#cea8f4" stroke="#835da9" cx="1140" cy="-18" rx="36.2938" ry="18"/>
<text text-anchor="middle" x="1140" y="-14.3" font-family="Times,serif" font-size="14.00">011 (b)</text>
</g>
<!-- 044&#45;&gt;011 -->
<g id="edge20" class="edge"><title>044&#45;&gt;011</title>
<path fill="none" stroke="#835da9" stroke-dasharray="1,5" d="M1140,-86.799C1140,-75.1626 1140,-59.5479 1140,-46.2368"/>
<polygon fill="#835da9" stroke="#835da9" points="1143.5,-46.1754 1140,-36.1754 1136.5,-46.1755 1143.5,-46.1754"/>
<text text-anchor="middle" x="1162" y="-57.8" font-family="Times,serif" font-size="14.00">2 (86.5)</text>
</g>
<!-- 0141 -->
<g id="node24" class="node"><title>0141</title>
<ellipse fill="#cea8f4" stroke="#835da9" cx="1235" cy="-18" rx="40.8928" ry="18"/>
<text text-anchor="middle" x="1235" y="-14.3" font-family="Times,serif" font-size="14.00">0141 (b)</text>
</g>
<!-- 044&#45;&gt;0141 -->
<g id="edge21" class="edge"><title>044&#45;&gt;0141</title>
<path fill="none" stroke="#835da9" stroke-dasharray="1,5" d="M1160.73,-90.1586C1169.44,-84.0255 1179.49,-76.5076 1188,-69 1197.16,-60.9115 1206.53,-51.2757 1214.47,-42.6319"/>
<polygon fill="#835da9" stroke="#835da9" points="1217.21,-44.8165 1221.31,-35.0454 1212.01,-40.1295 1217.21,-44.8165"/>
<text text-anchor="middle" x="1225" y="-57.8" font-family="Times,serif" font-size="14.00">1 (89.2)</text>
</g>
<!-- 03 -->
<g id="node25" class="node"><title>03</title>
<ellipse fill="#cea8f4" stroke="#835da9" cx="1227" cy="-192" rx="32.4942" ry="18"/>
<text text-anchor="middle" x="1227" y="-188.3" font-family="Times,serif" font-size="14.00">03 (b)</text>
</g>
<!-- 03&#45;&gt;044 -->
<g id="edge22" class="edge"><title>03&#45;&gt;044</title>
<path fill="none" stroke="#835da9" stroke-dasharray="1,5" d="M1206.4,-177.862C1197.52,-171.738 1187.3,-164.034 1179,-156 1171.05,-148.304 1163.33,-138.945 1156.89,-130.414"/>
<polygon fill="#835da9" stroke="#835da9" points="1159.64,-128.25 1150.91,-122.252 1154,-132.388 1159.64,-128.25"/>
<text text-anchor="middle" x="1201" y="-144.8" font-family="Times,serif" font-size="14.00">1 (89.2)</text>
</g>
<!-- 02 -->
<g id="node26" class="node"><title>02</title>
<ellipse fill="#cea8f4" stroke="#835da9" cx="1227" cy="-105" rx="32.4942" ry="18"/>
<text text-anchor="middle" x="1227" y="-101.3" font-family="Times,serif" font-size="14.00">02 (b)</text>
</g>
<!-- 03&#45;&gt;02 -->
<g id="edge23" class="edge"><title>03&#45;&gt;02</title>
<path fill="none" stroke="#835da9" stroke-dasharray="1,5" d="M1227,-173.799C1227,-162.163 1227,-146.548 1227,-133.237"/>
<polygon fill="#835da9" stroke="#835da9" points="1230.5,-133.175 1227,-123.175 1223.5,-133.175 1230.5,-133.175"/>
<text text-anchor="middle" x="1249" y="-144.8" font-family="Times,serif" font-size="14.00">1 (86.5)</text>
</g>
<!-- 032 -->
<g id="node27" class="node"><title>032</title>
<ellipse fill="#cea8f4" stroke="#835da9" cx="1314" cy="-105" rx="36.2938" ry="18"/>
<text text-anchor="middle" x="1314" y="-101.3" font-family="Times,serif" font-size="14.00">032 (b)</text>
</g>
<!-- 03&#45;&gt;032 -->
<g id="edge24" class="edge"><title>03&#45;&gt;032</title>
<path fill="none" stroke="#835da9" stroke-dasharray="1,5" d="M1247.6,-177.862C1256.48,-171.738 1266.7,-164.034 1275,-156 1282.95,-148.304 1290.67,-138.945 1297.11,-130.414"/>
<polygon fill="#835da9" stroke="#835da9" points="1300,-132.388 1303.09,-122.252 1294.36,-128.25 1300,-132.388"/>
<text text-anchor="middle" x="1309" y="-144.8" font-family="Times,serif" font-size="14.00">1 (91.7)</text>
</g>
<!-- P75 -->
<g id="node28" class="node"><title>P75</title>
<ellipse fill="#cea8f4" stroke="#835da9" cx="1315" cy="-192" rx="37.0935" ry="18"/>
<text text-anchor="middle" x="1315" y="-188.3" font-family="Times,serif" font-size="14.00">P75 (b)</text>
</g>
<!-- 019 -->
<g id="node29" class="node"><title>019</title>
<ellipse fill="#cea8f4" stroke="#835da9" cx="1406" cy="-192" rx="36.2938" ry="18"/>
<text text-anchor="middle" x="1406" y="-188.3" font-family="Times,serif" font-size="14.00">019 (b)</text>
</g>
<!-- 05 -->
<g id="node30" class="node"><title>05</title>
<ellipse fill="#72fe95" stroke="#27b34a" cx="1492" cy="-192" rx="31.6951" ry="18"/>
<text text-anchor="middle" x="1492" y="-188.3" font-family="Times,serif" font-size="14.00">05 (c)</text>
</g>
</g>
</svg>
