<?xml version="1.0" encoding="UTF-8" standalone="no"?>
<!DOCTYPE svg PUBLIC "-//W3C//DTD SVG 1.1//EN"
 "http://www.w3.org/Graphics/SVG/1.1/DTD/svg11.dtd">
<!-- Generated by graphviz version 2.38.0 (20140413.2041)
 -->
<!-- Title: G Pages: 1 -->
<svg width="1141pt" height="116pt"
 viewBox="0.00 0.00 1140.79 116.00" xmlns="http://www.w3.org/2000/svg" xmlns:xlink="http://www.w3.org/1999/xlink">
<g id="graph0" class="graph" transform="scale(1 1) rotate(0) translate(4 112)">
<title>G</title>
<polygon fill="white" stroke="none" points="-4,4 -4,-112 1136.79,-112 1136.79,4 -4,4"/>
<!-- 038 (a) -->
<g id="node1" class="node"><title>038 (a)</title>
<ellipse fill="#ff8a8a" stroke="#b43f3f" cx="36.3968" cy="-18" rx="36.2938" ry="18"/>
<text text-anchor="middle" x="36.3968" y="-14.3" font-family="Times,serif" font-size="14.00">038 (a)</text>
</g>
<!-- 05/&#45;1 (b) -->
<g id="node2" class="node"><title>05/&#45;1 (b)</title>
<ellipse fill="#cea8f4" stroke="#835da9" cx="152.397" cy="-18" rx="42.4939" ry="18"/>
<text text-anchor="middle" x="152.397" y="-14.3" font-family="Times,serif" font-size="14.00">05/&#45;1 (b)</text>
</g>
<!-- 0141 (a) -->
<g id="node3" class="node"><title>0141 (a)</title>
<ellipse fill="#ff8a8a" stroke="#b43f3f" cx="330.397" cy="-90" rx="40.0939" ry="18"/>
<text text-anchor="middle" x="330.397" y="-86.3" font-family="Times,serif" font-size="14.00">0141 (a)</text>
</g>
<!-- 034 (a) -->
<g id="node4" class="node"><title>034 (a)</title>
<ellipse fill="#ff8a8a" stroke="#b43f3f" cx="368.397" cy="-18" rx="36.2938" ry="18"/>
<text text-anchor="middle" x="368.397" y="-14.3" font-family="Times,serif" font-size="14.00">034 (a)</text>
</g>
<!-- 036 (a) -->
<g id="node5" class="node"><title>036 (a)</title>
<ellipse fill="#ff8a8a" stroke="#b43f3f" cx="641.397" cy="-18" rx="36.2938" ry="18"/>
<text text-anchor="middle" x="641.397" y="-14.3" font-family="Times,serif" font-size="14.00">036 (a)</text>
</g>
<!-- 017 (a) -->
<g id="node6" class="node"><title>017 (a)</title>
<ellipse fill="#ff8a8a" stroke="#b43f3f" cx="823.397" cy="-18" rx="36.2938" ry="18"/>
<text text-anchor="middle" x="823.397" y="-14.3" font-family="Times,serif" font-size="14.00">017 (a)</text>
</g>
<!-- 011 (a) -->
<g id="node7" class="node"><title>011 (a)</title>
<ellipse fill="#ff8a8a" stroke="#b43f3f" cx="1005.4" cy="-90" rx="36.2938" ry="18"/>
<text text-anchor="middle" x="1005.4" y="-86.3" font-family="Times,serif" font-size="14.00">011 (a)</text>
</g>
<!-- 045 (a) -->
<g id="node8" class="node"><title>045 (a)</title>
<ellipse fill="#ff8a8a" stroke="#b43f3f" cx="36.3968" cy="-90" rx="36.2938" ry="18"/>
<text text-anchor="middle" x="36.3968" y="-86.3" font-family="Times,serif" font-size="14.00">045 (a)</text>
</g>
<!-- 045 (a)&#45;&gt;038 (a) -->
<g id="edge1" class="edge"><title>045 (a)&#45;&gt;038 (a)</title>
<path fill="none" stroke="black" d="M36.3968,-71.6966C36.3968,-63.9827 36.3968,-54.7125 36.3968,-46.1124"/>
<polygon fill="black" stroke="black" points="39.8969,-46.1043 36.3968,-36.1043 32.8969,-46.1044 39.8969,-46.1043"/>
</g>
<!-- 028 (a) -->
<g id="node9" class="node"><title>028 (a)</title>
<ellipse fill="#ff8a8a" stroke="#b43f3f" cx="1096.4" cy="-90" rx="36.2938" ry="18"/>
<text text-anchor="middle" x="1096.4" y="-86.3" font-family="Times,serif" font-size="14.00">028 (a)</text>
</g>
<!-- OL_PARENT -->
<g id="node10" class="node"><title>OL_PARENT</title>
<ellipse fill="none" stroke="black" cx="171.397" cy="-90" rx="61.1893" ry="18"/>
<text text-anchor="middle" x="171.397" y="-86.3" font-family="Times,serif" font-size="14.00">OL_PARENT</text>
</g>
<!-- OL_PARENT&#45;&gt;05/&#45;1 (b) -->
<g id="edge2" class="edge"><title>OL_PARENT&#45;&gt;05/&#45;1 (b)</title>
<path fill="none" stroke="black" d="M166.7,-71.6966C164.583,-63.8979 162.035,-54.5085 159.679,-45.8292"/>
<polygon fill="black" stroke="black" points="163.037,-44.8383 157.039,-36.1043 156.281,-46.672 163.037,-44.8383"/>
</g>
<!-- 0211/&#45;1 (b) -->
<g id="node15" class="node"><title>0211/&#45;1 (b)</title>
<ellipse fill="#cea8f4" stroke="#835da9" cx="263.397" cy="-18" rx="50.8918" ry="18"/>
<text text-anchor="middle" x="263.397" y="-14.3" font-family="Times,serif" font-size="14.00">0211/&#45;1 (b)</text>
</g>
<!-- OL_PARENT&#45;&gt;0211/&#45;1 (b) -->
<g id="edge3" class="edge"><title>OL_PARENT&#45;&gt;0211/&#45;1 (b)</title>
<path fill="none" stroke="black" d="M192.735,-72.7646C205.219,-63.2659 221.144,-51.1491 234.714,-40.8238"/>
<polygon fill="black" stroke="black" points="236.968,-43.5064 242.807,-34.6658 232.73,-37.9356 236.968,-43.5064"/>
</g>
<!-- 047 (a) -->
<g id="node11" class="node"><title>047 (a)</title>
<ellipse fill="#ff8a8a" stroke="#b43f3f" cx="732.397" cy="-18" rx="36.2938" ry="18"/>
<text text-anchor="middle" x="732.397" y="-14.3" font-family="Times,serif" font-size="14.00">047 (a)</text>
</g>
<!-- 037 (a) -->
<g id="node12" class="node"><title>037 (a)</title>
<ellipse fill="#ff8a8a" stroke="#b43f3f" cx="459.397" cy="-18" rx="36.2938" ry="18"/>
<text text-anchor="middle" x="459.397" y="-14.3" font-family="Times,serif" font-size="14.00">037 (a)</text>
</g>
<!-- 013 (a) -->
<g id="node13" class="node"><title>013 (a)</title>
<ellipse fill="#ff8a8a" stroke="#b43f3f" cx="914.397" cy="-18" rx="36.2938" ry="18"/>
<text text-anchor="middle" x="914.397" y="-14.3" font-family="Times,serif" font-size="14.00">013 (a)</text>
</g>
<!-- 07 (a) -->
<g id="node14" class="node"><title>07 (a)</title>
<ellipse fill="#ff8a8a" stroke="#b43f3f" cx="459.397" cy="-90" rx="31.6951" ry="18"/>
<text text-anchor="middle" x="459.397" y="-86.3" font-family="Times,serif" font-size="14.00">07 (a)</text>
</g>
<!-- 07 (a)&#45;&gt;034 (a) -->
<g id="edge6" class="edge"><title>07 (a)&#45;&gt;034 (a)</title>
<path fill="none" stroke="black" d="M440.982,-74.8345C427.957,-64.8158 410.278,-51.2163 395.628,-39.9473"/>
<polygon fill="black" stroke="black" points="397.471,-36.9493 387.411,-33.6263 393.203,-42.4977 397.471,-36.9493"/>
</g>
<!-- 07 (a)&#45;&gt;037 (a) -->
<g id="edge4" class="edge"><title>07 (a)&#45;&gt;037 (a)</title>
<path fill="none" stroke="black" d="M459.397,-71.6966C459.397,-63.9827 459.397,-54.7125 459.397,-46.1124"/>
<polygon fill="black" stroke="black" points="462.897,-46.1043 459.397,-36.1043 455.897,-46.1044 462.897,-46.1043"/>
</g>
<!-- 030 (a) -->
<g id="node18" class="node"><title>030 (a)</title>
<ellipse fill="#ff8a8a" stroke="#b43f3f" cx="550.397" cy="-18" rx="36.2938" ry="18"/>
<text text-anchor="middle" x="550.397" y="-14.3" font-family="Times,serif" font-size="14.00">030 (a)</text>
</g>
<!-- 07 (a)&#45;&gt;030 (a) -->
<g id="edge5" class="edge"><title>07 (a)&#45;&gt;030 (a)</title>
<path fill="none" stroke="black" d="M477.812,-74.8345C490.836,-64.8158 508.516,-51.2163 523.165,-39.9473"/>
<polygon fill="black" stroke="black" points="525.59,-42.4977 531.383,-33.6263 521.322,-36.9493 525.59,-42.4977"/>
</g>
<!-- 031 (a) -->
<g id="node16" class="node"><title>031 (a)</title>
<ellipse fill="#ff8a8a" stroke="#b43f3f" cx="914.397" cy="-90" rx="36.2938" ry="18"/>
<text text-anchor="middle" x="914.397" y="-86.3" font-family="Times,serif" font-size="14.00">031 (a)</text>
</g>
<!-- 031 (a)&#45;&gt;017 (a) -->
<g id="edge8" class="edge"><title>031 (a)&#45;&gt;017 (a)</title>
<path fill="none" stroke="black" d="M895.542,-74.496C882.486,-64.4532 864.912,-50.9344 850.377,-39.7541"/>
<polygon fill="black" stroke="black" points="852.288,-36.8084 842.228,-33.4855 848.02,-42.3568 852.288,-36.8084"/>
</g>
<!-- 031 (a)&#45;&gt;013 (a) -->
<g id="edge7" class="edge"><title>031 (a)&#45;&gt;013 (a)</title>
<path fill="none" stroke="black" d="M914.397,-71.6966C914.397,-63.9827 914.397,-54.7125 914.397,-46.1124"/>
<polygon fill="black" stroke="black" points="917.897,-46.1043 914.397,-36.1043 910.897,-46.1044 917.897,-46.1043"/>
</g>
<!-- 01/2 (a) -->
<g id="node17" class="node"><title>01/2 (a)</title>
<ellipse fill="#ff8a8a" stroke="#b43f3f" cx="1007.4" cy="-18" rx="38.1938" ry="18"/>
<text text-anchor="middle" x="1007.4" y="-14.3" font-family="Times,serif" font-size="14.00">01/2 (a)</text>
</g>
<!-- 031 (a)&#45;&gt;01/2 (a) -->
<g id="edge9" class="edge"><title>031 (a)&#45;&gt;01/2 (a)</title>
<path fill="none" stroke="black" d="M933.666,-74.496C946.92,-64.5202 964.73,-51.1145 979.526,-39.978"/>
<polygon fill="black" stroke="black" points="981.947,-42.5365 987.832,-33.7263 977.737,-36.9437 981.947,-42.5365"/>
</g>
<!-- 021 (a) -->
<g id="node19" class="node"><title>021 (a)</title>
<ellipse fill="#ff8a8a" stroke="#b43f3f" cx="686.397" cy="-90" rx="36.2938" ry="18"/>
<text text-anchor="middle" x="686.397" y="-86.3" font-family="Times,serif" font-size="14.00">021 (a)</text>
</g>
<!-- 021 (a)&#45;&gt;036 (a) -->
<g id="edge10" class="edge"><title>021 (a)&#45;&gt;036 (a)</title>
<path fill="none" stroke="black" d="M675.732,-72.411C670.296,-63.9549 663.572,-53.4944 657.519,-44.0783"/>
<polygon fill="black" stroke="black" points="660.336,-41.9891 651.985,-35.4699 654.448,-45.7744 660.336,-41.9891"/>
</g>
<!-- 021 (a)&#45;&gt;047 (a) -->
<g id="edge11" class="edge"><title>021 (a)&#45;&gt;047 (a)</title>
<path fill="none" stroke="black" d="M697.066,-72.7646C702.674,-64.2301 709.671,-53.5822 715.956,-44.0191"/>
<polygon fill="black" stroke="black" points="718.899,-45.9126 721.466,-35.6334 713.049,-42.0683 718.899,-45.9126"/>
</g>
</g>
</svg>
