<?xml version="1.0" encoding="UTF-8" standalone="no"?>
<!DOCTYPE svg PUBLIC "-//W3C//DTD SVG 1.1//EN"
 "http://www.w3.org/Graphics/SVG/1.1/DTD/svg11.dtd">
<!-- Generated by graphviz version 2.38.0 (20140413.2041)
 -->
<!-- Title: %3 Pages: 1 -->
<svg width="1531pt" height="234pt"
 viewBox="0.00 0.00 1531.00 234.00" xmlns="http://www.w3.org/2000/svg" xmlns:xlink="http://www.w3.org/1999/xlink">
<g id="graph0" class="graph" transform="scale(1 1) rotate(0) translate(4 230)">
<title>%3</title>
<polygon fill="white" stroke="none" points="-4,4 -4,-230 1527,-230 1527,4 -4,4"/>
<g id="clust1" class="cluster"><title>cluster_legend</title>
<path fill="none" stroke="black" d="M20,-90C20,-90 210,-90 210,-90 216,-90 222,-96 222,-102 222,-102 222,-206 222,-206 222,-212 216,-218 210,-218 210,-218 20,-218 20,-218 14,-218 8,-212 8,-206 8,-206 8,-102 8,-102 8,-96 14,-90 20,-90"/>
</g>
<!-- leg_s -->
<g id="node1" class="node"><title>leg_s</title>
<text text-anchor="middle" x="115" y="-188.3" font-family="Times,serif" font-size="14.00">Textual flow strength</text>
</g>
<!-- leg_e1 -->
<!-- leg_s&#45;&gt;leg_e1 -->
<g id="edge1" class="edge"><title>leg_s&#45;&gt;leg_e1</title>
<path fill="none" stroke="black" stroke-dasharray="1,5" d="M96.6657,-173.686C91.1324,-168.194 85.1607,-161.989 80,-156 70.1708,-144.593 60.0722,-130.779 52.9137,-120.563"/>
<polygon fill="black" stroke="black" points="55.6142,-118.314 47.056,-112.068 49.8514,-122.288 55.6142,-118.314"/>
<text text-anchor="middle" x="95.5" y="-144.8" font-family="Times,serif" font-size="14.00">&lt;=5 &#160;</text>
</g>
<!-- leg_e2 -->
<!-- leg_s&#45;&gt;leg_e2 -->
<g id="edge2" class="edge"><title>leg_s&#45;&gt;leg_e2</title>
<path fill="none" stroke="black" stroke-dasharray="5,2" d="M115,-173.799C115,-158.794 115,-137.174 115,-122.409"/>
<polygon fill="black" stroke="black" points="118.5,-122.293 115,-112.293 111.5,-122.293 118.5,-122.293"/>
<text text-anchor="middle" x="134" y="-144.8" font-family="Times,serif" font-size="14.00"> &#160;&lt;=25</text>
</g>
<!-- leg_e3 -->
<!-- leg_s&#45;&gt;leg_e3 -->
<g id="edge3" class="edge"><title>leg_s&#45;&gt;leg_e3</title>
<path fill="none" stroke="black" d="M138.503,-173.76C144.906,-168.462 151.567,-162.344 157,-156 166.087,-145.39 174.095,-131.689 179.546,-121.313"/>
<polygon fill="black" stroke="black" points="182.722,-122.789 184.091,-112.283 176.469,-119.642 182.722,-122.789"/>
<text text-anchor="middle" x="179" y="-144.8" font-family="Times,serif" font-size="14.00">&gt;25</text>
</g>
<!-- 045 -->
<g id="node5" class="node"><title>045</title>
<ellipse fill="#ff8a8a" stroke="#b43f3f" cx="268" cy="-105" rx="36.2938" ry="18"/>
<text text-anchor="middle" x="268" y="-101.3" font-family="Times,serif" font-size="14.00">045 (a)</text>
</g>
<!-- 038 -->
<g id="node6" class="node"><title>038</title>
<ellipse fill="#ff8a8a" stroke="#b43f3f" cx="268" cy="-18" rx="36.2938" ry="18"/>
<text text-anchor="middle" x="268" y="-14.3" font-family="Times,serif" font-size="14.00">038 (a)</text>
</g>
<!-- 045&#45;&gt;038 -->
<g id="edge4" class="edge"><title>045&#45;&gt;038</title>
<path fill="none" stroke="#b43f3f" stroke-dasharray="1,5" d="M268,-86.799C268,-75.1626 268,-59.5479 268,-46.2368"/>
<polygon fill="#b43f3f" stroke="#b43f3f" points="271.5,-46.1754 268,-36.1754 264.5,-46.1755 271.5,-46.1754"/>
<text text-anchor="middle" x="290" y="-57.8" font-family="Times,serif" font-size="14.00">1 (92.7)</text>
</g>
<!-- 063 -->
<g id="node7" class="node"><title>063</title>
<ellipse fill="#ff8a8a" stroke="#b43f3f" cx="450" cy="-192" rx="36.2938" ry="18"/>
<text text-anchor="middle" x="450" y="-188.3" font-family="Times,serif" font-size="14.00">063 (a)</text>
</g>
<!-- 063&#45;&gt;045 -->
<g id="edge5" class="edge"><title>063&#45;&gt;045</title>
<path fill="none" stroke="#b43f3f" stroke-dasharray="1,5" d="M418.054,-183.368C395.811,-177.43 365.808,-168.156 341,-156 324.705,-148.016 307.906,-136.754 294.536,-126.939"/>
<polygon fill="#b43f3f" stroke="#b43f3f" points="296.385,-123.951 286.286,-120.748 292.183,-129.55 296.385,-123.951"/>
<text text-anchor="middle" x="363" y="-144.8" font-family="Times,serif" font-size="14.00">1 (93.1)</text>
</g>
<!-- 031 -->
<g id="node8" class="node"><title>031</title>
<ellipse fill="#ff8a8a" stroke="#b43f3f" cx="359" cy="-105" rx="36.2938" ry="18"/>
<text text-anchor="middle" x="359" y="-101.3" font-family="Times,serif" font-size="14.00">031 (a)</text>
</g>
<!-- 063&#45;&gt;031 -->
<g id="edge6" class="edge"><title>063&#45;&gt;031</title>
<path fill="none" stroke="#b43f3f" stroke-dasharray="1,5" d="M428.628,-177.006C420.008,-170.963 410.186,-163.554 402,-156 393.456,-148.115 384.924,-138.619 377.74,-130.029"/>
<polygon fill="#b43f3f" stroke="#b43f3f" points="380.344,-127.685 371.308,-122.155 374.923,-132.113 380.344,-127.685"/>
<text text-anchor="middle" x="424" y="-144.8" font-family="Times,serif" font-size="14.00">1 (95.8)</text>
</g>
<!-- 011 -->
<g id="node9" class="node"><title>011</title>
<ellipse fill="#ff8a8a" stroke="#b43f3f" cx="450" cy="-105" rx="36.2938" ry="18"/>
<text text-anchor="middle" x="450" y="-101.3" font-family="Times,serif" font-size="14.00">011 (a)</text>
</g>
<!-- 063&#45;&gt;011 -->
<g id="edge7" class="edge"><title>063&#45;&gt;011</title>
<path fill="none" stroke="#b43f3f" stroke-dasharray="1,5" d="M450,-173.799C450,-162.163 450,-146.548 450,-133.237"/>
<polygon fill="#b43f3f" stroke="#b43f3f" points="453.5,-133.175 450,-123.175 446.5,-133.175 453.5,-133.175"/>
<text text-anchor="middle" x="472" y="-144.8" font-family="Times,serif" font-size="14.00">1 (93.1)</text>
</g>
<!-- 028 -->
<g id="node10" class="node"><title>028</title>
<ellipse fill="#ff8a8a" stroke="#b43f3f" cx="541" cy="-105" rx="36.2938" ry="18"/>
<text text-anchor="middle" x="541" y="-101.3" font-family="Times,serif" font-size="14.00">028 (a)</text>
</g>
<!-- 063&#45;&gt;028 -->
<g id="edge8" class="edge"><title>063&#45;&gt;028</title>
<path fill="none" stroke="#b43f3f" stroke-dasharray="1,5" d="M471.372,-177.006C479.992,-170.963 489.814,-163.554 498,-156 506.544,-148.115 515.076,-138.619 522.26,-130.029"/>
<polygon fill="#b43f3f" stroke="#b43f3f" points="525.077,-132.113 528.692,-122.155 519.656,-127.685 525.077,-132.113"/>
<text text-anchor="middle" x="534" y="-144.8" font-family="Times,serif" font-size="14.00">1 (96.6)</text>
</g>
<!-- 07 -->
<g id="node11" class="node"><title>07</title>
<ellipse fill="#ff8a8a" stroke="#b43f3f" cx="627" cy="-105" rx="31.6951" ry="18"/>
<text text-anchor="middle" x="627" y="-101.3" font-family="Times,serif" font-size="14.00">07 (a)</text>
</g>
<!-- 063&#45;&gt;07 -->
<g id="edge9" class="edge"><title>063&#45;&gt;07</title>
<path fill="none" stroke="#b43f3f" stroke-dasharray="1,5" d="M482.401,-183.727C504.922,-177.954 535.222,-168.729 560,-156 575.209,-148.186 590.61,-136.975 602.804,-127.148"/>
<polygon fill="#b43f3f" stroke="#b43f3f" points="605.217,-129.695 610.693,-120.625 600.756,-124.3 605.217,-129.695"/>
<text text-anchor="middle" x="606" y="-144.8" font-family="Times,serif" font-size="14.00">1 (96.6)</text>
</g>
<!-- 013 -->
<g id="node12" class="node"><title>013</title>
<ellipse fill="#ff8a8a" stroke="#b43f3f" cx="359" cy="-18" rx="36.2938" ry="18"/>
<text text-anchor="middle" x="359" y="-14.3" font-family="Times,serif" font-size="14.00">013 (a)</text>
</g>
<!-- 031&#45;&gt;013 -->
<g id="edge10" class="edge"><title>031&#45;&gt;013</title>
<path fill="none" stroke="#b43f3f" stroke-dasharray="1,5" d="M359,-86.799C359,-75.1626 359,-59.5479 359,-46.2368"/>
<polygon fill="#b43f3f" stroke="#b43f3f" points="362.5,-46.1754 359,-36.1754 355.5,-46.1755 362.5,-46.1754"/>
<text text-anchor="middle" x="381" y="-57.8" font-family="Times,serif" font-size="14.00">1 (97.1)</text>
</g>
<!-- 02 -->
<g id="node13" class="node"><title>02</title>
<ellipse fill="#ff8a8a" stroke="#b43f3f" cx="450" cy="-18" rx="31.6951" ry="18"/>
<text text-anchor="middle" x="450" y="-14.3" font-family="Times,serif" font-size="14.00">02 (a)</text>
</g>
<!-- 011&#45;&gt;02 -->
<g id="edge11" class="edge"><title>011&#45;&gt;02</title>
<path fill="none" stroke="#b43f3f" stroke-dasharray="1,5" d="M450,-86.799C450,-75.1626 450,-59.5479 450,-46.2368"/>
<polygon fill="#b43f3f" stroke="#b43f3f" points="453.5,-46.1754 450,-36.1754 446.5,-46.1755 453.5,-46.1754"/>
<text text-anchor="middle" x="472" y="-57.8" font-family="Times,serif" font-size="14.00">1 (86.5)</text>
</g>
<!-- 030 -->
<g id="node14" class="node"><title>030</title>
<ellipse fill="#ff8a8a" stroke="#b43f3f" cx="536" cy="-18" rx="36.2938" ry="18"/>
<text text-anchor="middle" x="536" y="-14.3" font-family="Times,serif" font-size="14.00">030 (a)</text>
</g>
<!-- 07&#45;&gt;030 -->
<g id="edge12" class="edge"><title>07&#45;&gt;030</title>
<path fill="none" stroke="#b43f3f" stroke-dasharray="1,5" d="M606.581,-90.6717C597.737,-84.5121 587.489,-76.8337 579,-69 570.456,-61.1154 561.924,-51.6186 554.74,-43.0293"/>
<polygon fill="#b43f3f" stroke="#b43f3f" points="557.344,-40.6853 548.308,-35.1545 551.923,-45.1135 557.344,-40.6853"/>
<text text-anchor="middle" x="601" y="-57.8" font-family="Times,serif" font-size="14.00">1 (95.1)</text>
</g>
<!-- 034 -->
<g id="node15" class="node"><title>034</title>
<ellipse fill="#ff8a8a" stroke="#b43f3f" cx="627" cy="-18" rx="36.2938" ry="18"/>
<text text-anchor="middle" x="627" y="-14.3" font-family="Times,serif" font-size="14.00">034 (a)</text>
</g>
<!-- 07&#45;&gt;034 -->
<g id="edge13" class="edge"><title>07&#45;&gt;034</title>
<path fill="none" stroke="#b43f3f" stroke-dasharray="1,5" d="M627,-86.799C627,-75.1626 627,-59.5479 627,-46.2368"/>
<polygon fill="#b43f3f" stroke="#b43f3f" points="630.5,-46.1754 627,-36.1754 623.5,-46.1755 630.5,-46.1754"/>
<text text-anchor="middle" x="649" y="-57.8" font-family="Times,serif" font-size="14.00">1 (95.1)</text>
</g>
<!-- 0211 -->
<g id="node16" class="node"><title>0211</title>
<ellipse fill="#ff8a8a" stroke="#b43f3f" cx="722" cy="-18" rx="40.0939" ry="18"/>
<text text-anchor="middle" x="722" y="-14.3" font-family="Times,serif" font-size="14.00">0211 (a)</text>
</g>
<!-- 07&#45;&gt;0211 -->
<g id="edge14" class="edge"><title>07&#45;&gt;0211</title>
<path fill="none" stroke="#b43f3f" stroke-dasharray="1,5" d="M646.786,-90.8221C655.703,-84.5722 666.185,-76.7806 675,-69 684.163,-60.9115 693.531,-51.2757 701.467,-42.6319"/>
<polygon fill="#b43f3f" stroke="#b43f3f" points="704.21,-44.8165 708.306,-35.0454 699.01,-40.1295 704.21,-44.8165"/>
<text text-anchor="middle" x="713" y="-57.8" font-family="Times,serif" font-size="14.00">2 (82.9)</text>
</g>
<!-- 037 -->
<g id="node17" class="node"><title>037</title>
<ellipse fill="#ff8a8a" stroke="#b43f3f" cx="817" cy="-18" rx="36.2938" ry="18"/>
<text text-anchor="middle" x="817" y="-14.3" font-family="Times,serif" font-size="14.00">037 (a)</text>
</g>
<!-- 07&#45;&gt;037 -->
<g id="edge15" class="edge"><title>07&#45;&gt;037</title>
<path fill="none" stroke="#b43f3f" stroke-dasharray="1,5" d="M651.498,-93.1655C656.88,-90.9761 662.588,-88.7974 668,-87 698.894,-76.7388 709.133,-81.9513 739,-69 756.842,-61.2628 775.23,-49.6811 789.667,-39.6122"/>
<polygon fill="#b43f3f" stroke="#b43f3f" points="792.002,-42.2459 798.106,-33.5863 787.934,-36.5492 792.002,-42.2459"/>
<text text-anchor="middle" x="788" y="-57.8" font-family="Times,serif" font-size="14.00">1 (97.5)</text>
</g>
<!-- 03 -->
<g id="node18" class="node"><title>03</title>
<ellipse fill="#72fe95" stroke="#27b34a" cx="713" cy="-192" rx="31.6951" ry="18"/>
<text text-anchor="middle" x="713" y="-188.3" font-family="Times,serif" font-size="14.00">03 (c)</text>
</g>
<!-- 032 -->
<g id="node19" class="node"><title>032</title>
<ellipse fill="#72fe95" stroke="#27b34a" cx="713" cy="-105" rx="36.2938" ry="18"/>
<text text-anchor="middle" x="713" y="-101.3" font-family="Times,serif" font-size="14.00">032 (c)</text>
</g>
<!-- 03&#45;&gt;032 -->
<g id="edge16" class="edge"><title>03&#45;&gt;032</title>
<path fill="none" stroke="#27b34a" stroke-dasharray="1,5" d="M713,-173.799C713,-162.163 713,-146.548 713,-133.237"/>
<polygon fill="#27b34a" stroke="#27b34a" points="716.5,-133.175 713,-123.175 709.5,-133.175 716.5,-133.175"/>
<text text-anchor="middle" x="735" y="-144.8" font-family="Times,serif" font-size="14.00">1 (91.7)</text>
</g>
<!-- 021 -->
<g id="node20" class="node"><title>021</title>
<ellipse fill="#ff86c2" stroke="#b43b77" cx="849" cy="-192" rx="36.2938" ry="18"/>
<text text-anchor="middle" x="849" y="-188.3" font-family="Times,serif" font-size="14.00">021 (d)</text>
</g>
<!-- 036 -->
<g id="node21" class="node"><title>036</title>
<ellipse fill="#ff86c2" stroke="#b43b77" cx="804" cy="-105" rx="36.2938" ry="18"/>
<text text-anchor="middle" x="804" y="-101.3" font-family="Times,serif" font-size="14.00">036 (d)</text>
</g>
<!-- 021&#45;&gt;036 -->
<g id="edge17" class="edge"><title>021&#45;&gt;036</title>
<path fill="none" stroke="#b43b77" stroke-dasharray="1,5" d="M839.247,-174.371C835.926,-168.593 832.236,-162.047 829,-156 824.833,-148.213 820.469,-139.645 816.575,-131.834"/>
<polygon fill="#b43b77" stroke="#b43b77" points="819.672,-130.2 812.104,-122.785 813.397,-133.301 819.672,-130.2"/>
<text text-anchor="middle" x="851" y="-144.8" font-family="Times,serif" font-size="14.00">1 (97.6)</text>
</g>
<!-- 047 -->
<g id="node22" class="node"><title>047</title>
<ellipse fill="#ff86c2" stroke="#b43b77" cx="895" cy="-105" rx="36.2938" ry="18"/>
<text text-anchor="middle" x="895" y="-101.3" font-family="Times,serif" font-size="14.00">047 (d)</text>
</g>
<!-- 021&#45;&gt;047 -->
<g id="edge18" class="edge"><title>021&#45;&gt;047</title>
<path fill="none" stroke="#b43b77" stroke-dasharray="1,5" d="M861.129,-174.67C865.149,-168.917 869.489,-162.309 873,-156 877.15,-148.542 881.102,-140.148 884.481,-132.398"/>
<polygon fill="#b43b77" stroke="#b43b77" points="887.764,-133.619 888.427,-123.044 881.315,-130.897 887.764,-133.619"/>
<text text-anchor="middle" x="902" y="-144.8" font-family="Times,serif" font-size="14.00">1 (95.1)</text>
</g>
<!-- P75 -->
<g id="node23" class="node"><title>P75</title>
<ellipse fill="#cea8f4" stroke="#835da9" cx="940" cy="-192" rx="37.0935" ry="18"/>
<text text-anchor="middle" x="940" y="-188.3" font-family="Times,serif" font-size="14.00">P75 (b)</text>
</g>
<!-- 091 -->
<g id="node24" class="node"><title>091</title>
<ellipse fill="#ff86c2" stroke="#b43b77" cx="1031" cy="-192" rx="36.2938" ry="18"/>
<text text-anchor="middle" x="1031" y="-188.3" font-family="Times,serif" font-size="14.00">091 (d)</text>
</g>
<!-- 022 -->
<g id="node25" class="node"><title>022</title>
<ellipse fill="#a9c5eb" stroke="#5e7aa0" cx="1122" cy="-192" rx="36.2938" ry="18"/>
<text text-anchor="middle" x="1122" y="-188.3" font-family="Times,serif" font-size="14.00">022 (e)</text>
</g>
<!-- 017 -->
<g id="node26" class="node"><title>017</title>
<ellipse fill="#80b584" stroke="#356a39" cx="1211" cy="-192" rx="35.194" ry="18"/>
<text text-anchor="middle" x="1211" y="-188.3" font-family="Times,serif" font-size="14.00">017 (f)</text>
</g>
<!-- 044 -->
<g id="node27" class="node"><title>044</title>
<ellipse fill="#ea8dfe" stroke="#9f42b3" cx="1300" cy="-192" rx="36.2938" ry="18"/>
<text text-anchor="middle" x="1300" y="-188.3" font-family="Times,serif" font-size="14.00">044 (g)</text>
</g>
<!-- 019 -->
<g id="node28" class="node"><title>019</title>
<ellipse fill="#8c8cff" stroke="#4141b4" cx="1391" cy="-192" rx="36.2938" ry="18"/>
<text text-anchor="middle" x="1391" y="-188.3" font-family="Times,serif" font-size="14.00">019 (h)</text>
</g>
<!-- 0141 -->
<g id="node29" class="node"><title>0141</title>
<ellipse fill="#36f200" stroke="#00a700" cx="1484" cy="-192" rx="38.9931" ry="18"/>
<text text-anchor="middle" x="1484" y="-188.3" font-family="Times,serif" font-size="14.00">0141 (i)</text>
</g>
</g>
</svg>
