<?xml version="1.0" encoding="UTF-8" standalone="no"?>
<!DOCTYPE svg PUBLIC "-//W3C//DTD SVG 1.1//EN"
 "http://www.w3.org/Graphics/SVG/1.1/DTD/svg11.dtd">
<!-- Generated by graphviz version 2.38.0 (20140413.2041)
 -->
<!-- Title: %3 Pages: 1 -->
<svg width="1299pt" height="321pt"
 viewBox="0.00 0.00 1298.79 321.00" xmlns="http://www.w3.org/2000/svg" xmlns:xlink="http://www.w3.org/1999/xlink">
<g id="graph0" class="graph" transform="scale(1 1) rotate(0) translate(4 317)">
<title>%3</title>
<polygon fill="white" stroke="none" points="-4,4 -4,-317 1294.79,-317 1294.79,4 -4,4"/>
<g id="clust1" class="cluster"><title>cluster_legend</title>
<path fill="none" stroke="black" d="M342.397,-177C342.397,-177 532.397,-177 532.397,-177 538.397,-177 544.397,-183 544.397,-189 544.397,-189 544.397,-293 544.397,-293 544.397,-299 538.397,-305 532.397,-305 532.397,-305 342.397,-305 342.397,-305 336.397,-305 330.397,-299 330.397,-293 330.397,-293 330.397,-189 330.397,-189 330.397,-183 336.397,-177 342.397,-177"/>
</g>
<!-- leg_s -->
<g id="node1" class="node"><title>leg_s</title>
<text text-anchor="middle" x="437.397" y="-275.3" font-family="Times,serif" font-size="14.00">Textual flow strength</text>
</g>
<!-- leg_e1 -->
<!-- leg_s&#45;&gt;leg_e1 -->
<g id="edge1" class="edge"><title>leg_s&#45;&gt;leg_e1</title>
<path fill="none" stroke="black" stroke-dasharray="1,5" d="M419.062,-260.686C413.529,-255.194 407.557,-248.989 402.397,-243 392.568,-231.593 382.469,-217.779 375.31,-207.563"/>
<polygon fill="black" stroke="black" points="378.011,-205.314 369.453,-199.068 372.248,-209.288 378.011,-205.314"/>
<text text-anchor="middle" x="417.897" y="-231.8" font-family="Times,serif" font-size="14.00">&lt;=5 &#160;</text>
</g>
<!-- leg_e2 -->
<!-- leg_s&#45;&gt;leg_e2 -->
<g id="edge2" class="edge"><title>leg_s&#45;&gt;leg_e2</title>
<path fill="none" stroke="black" stroke-dasharray="5,2" d="M437.397,-260.799C437.397,-245.794 437.397,-224.174 437.397,-209.409"/>
<polygon fill="black" stroke="black" points="440.897,-209.293 437.397,-199.293 433.897,-209.293 440.897,-209.293"/>
<text text-anchor="middle" x="456.397" y="-231.8" font-family="Times,serif" font-size="14.00"> &#160;&lt;=25</text>
</g>
<!-- leg_e3 -->
<!-- leg_s&#45;&gt;leg_e3 -->
<g id="edge3" class="edge"><title>leg_s&#45;&gt;leg_e3</title>
<path fill="none" stroke="black" d="M460.9,-260.76C467.303,-255.462 473.963,-249.344 479.397,-243 488.484,-232.39 496.492,-218.689 501.943,-208.313"/>
<polygon fill="black" stroke="black" points="505.119,-209.789 506.488,-199.283 498.866,-206.642 505.119,-209.789"/>
<text text-anchor="middle" x="501.397" y="-231.8" font-family="Times,serif" font-size="14.00">&gt;25</text>
</g>
<!-- 021 -->
<g id="node5" class="node"><title>021</title>
<ellipse fill="#ff8a8a" stroke="#b43f3f" cx="127.397" cy="-105" rx="36.2938" ry="18"/>
<text text-anchor="middle" x="127.397" y="-101.3" font-family="Times,serif" font-size="14.00">021 (a)</text>
</g>
<!-- 036 -->
<g id="node6" class="node"><title>036</title>
<ellipse fill="#ff8a8a" stroke="#b43f3f" cx="36.3968" cy="-18" rx="36.2938" ry="18"/>
<text text-anchor="middle" x="36.3968" y="-14.3" font-family="Times,serif" font-size="14.00">036 (a)</text>
</g>
<!-- 021&#45;&gt;036 -->
<g id="edge4" class="edge"><title>021&#45;&gt;036</title>
<path fill="none" stroke="#b43f3f" stroke-dasharray="1,5" d="M106.025,-90.006C97.4044,-83.9634 87.5824,-76.5539 79.3968,-69 70.8527,-61.1154 62.3211,-51.6186 55.1364,-43.0293"/>
<polygon fill="#b43f3f" stroke="#b43f3f" points="57.741,-40.6853 48.7043,-35.1545 52.3196,-45.1135 57.741,-40.6853"/>
<text text-anchor="middle" x="101.397" y="-57.8" font-family="Times,serif" font-size="14.00">1 (97.6)</text>
</g>
<!-- 047 -->
<g id="node7" class="node"><title>047</title>
<ellipse fill="#ff8a8a" stroke="#b43f3f" cx="127.397" cy="-18" rx="36.2938" ry="18"/>
<text text-anchor="middle" x="127.397" y="-14.3" font-family="Times,serif" font-size="14.00">047 (a)</text>
</g>
<!-- 021&#45;&gt;047 -->
<g id="edge5" class="edge"><title>021&#45;&gt;047</title>
<path fill="none" stroke="#b43f3f" stroke-dasharray="1,5" d="M127.397,-86.799C127.397,-75.1626 127.397,-59.5479 127.397,-46.2368"/>
<polygon fill="#b43f3f" stroke="#b43f3f" points="130.897,-46.1754 127.397,-36.1754 123.897,-46.1755 130.897,-46.1754"/>
<text text-anchor="middle" x="149.397" y="-57.8" font-family="Times,serif" font-size="14.00">1 (95.1)</text>
</g>
<!-- 03 -->
<g id="node8" class="node"><title>03</title>
<ellipse fill="#ff8a8a" stroke="#b43f3f" cx="910.397" cy="-279" rx="31.6951" ry="18"/>
<text text-anchor="middle" x="910.397" y="-275.3" font-family="Times,serif" font-size="14.00">03 (a)</text>
</g>
<!-- 032 -->
<g id="node9" class="node"><title>032</title>
<ellipse fill="#ff8a8a" stroke="#b43f3f" cx="819.397" cy="-192" rx="36.2938" ry="18"/>
<text text-anchor="middle" x="819.397" y="-188.3" font-family="Times,serif" font-size="14.00">032 (a)</text>
</g>
<!-- 03&#45;&gt;032 -->
<g id="edge6" class="edge"><title>03&#45;&gt;032</title>
<path fill="none" stroke="#b43f3f" stroke-dasharray="1,5" d="M889.978,-264.672C881.134,-258.512 870.886,-250.834 862.397,-243 853.853,-235.115 845.321,-225.619 838.136,-217.029"/>
<polygon fill="#b43f3f" stroke="#b43f3f" points="840.741,-214.685 831.704,-209.155 835.32,-219.113 840.741,-214.685"/>
<text text-anchor="middle" x="884.397" y="-231.8" font-family="Times,serif" font-size="14.00">1 (91.7)</text>
</g>
<!-- 044 -->
<g id="node10" class="node"><title>044</title>
<ellipse fill="#ff8a8a" stroke="#b43f3f" cx="910.397" cy="-192" rx="36.2938" ry="18"/>
<text text-anchor="middle" x="910.397" y="-188.3" font-family="Times,serif" font-size="14.00">044 (a)</text>
</g>
<!-- 03&#45;&gt;044 -->
<g id="edge7" class="edge"><title>03&#45;&gt;044</title>
<path fill="none" stroke="#b43f3f" stroke-dasharray="1,5" d="M910.397,-260.799C910.397,-249.163 910.397,-233.548 910.397,-220.237"/>
<polygon fill="#b43f3f" stroke="#b43f3f" points="913.897,-220.175 910.397,-210.175 906.897,-220.175 913.897,-220.175"/>
<text text-anchor="middle" x="932.397" y="-231.8" font-family="Times,serif" font-size="14.00">1 (89.2)</text>
</g>
<!-- 02 -->
<g id="node11" class="node"><title>02</title>
<ellipse fill="#ff8a8a" stroke="#b43f3f" cx="996.397" cy="-192" rx="31.6951" ry="18"/>
<text text-anchor="middle" x="996.397" y="-188.3" font-family="Times,serif" font-size="14.00">02 (a)</text>
</g>
<!-- 03&#45;&gt;02 -->
<g id="edge8" class="edge"><title>03&#45;&gt;02</title>
<path fill="none" stroke="#b43f3f" stroke-dasharray="1,5" d="M931.044,-264.912C939.93,-258.796 950.148,-251.086 958.397,-243 966.221,-235.329 973.759,-225.975 980.029,-217.442"/>
<polygon fill="#b43f3f" stroke="#b43f3f" points="982.894,-219.452 985.84,-209.275 977.191,-215.394 982.894,-219.452"/>
<text text-anchor="middle" x="993.397" y="-231.8" font-family="Times,serif" font-size="14.00">1 (86.5)</text>
</g>
<!-- 022 -->
<g id="node24" class="node"><title>022</title>
<ellipse fill="#ff8a8a" stroke="#b43f3f" cx="863.397" cy="-105" rx="36.2938" ry="18"/>
<text text-anchor="middle" x="863.397" y="-101.3" font-family="Times,serif" font-size="14.00">022 (a)</text>
</g>
<!-- 044&#45;&gt;022 -->
<g id="edge21" class="edge"><title>044&#45;&gt;022</title>
<path fill="none" stroke="#b43f3f" stroke-dasharray="1,5" d="M901.111,-174.207C894.373,-162.021 885.137,-145.318 877.492,-131.491"/>
<polygon fill="#b43f3f" stroke="#b43f3f" points="880.405,-129.527 872.503,-122.469 874.279,-132.914 880.405,-129.527"/>
<text text-anchor="middle" x="912.397" y="-144.8" font-family="Times,serif" font-size="14.00">1 (91.7)</text>
</g>
<!-- 0141 -->
<g id="node25" class="node"><title>0141</title>
<ellipse fill="#ff8a8a" stroke="#b43f3f" cx="958.397" cy="-105" rx="40.0939" ry="18"/>
<text text-anchor="middle" x="958.397" y="-101.3" font-family="Times,serif" font-size="14.00">0141 (a)</text>
</g>
<!-- 044&#45;&gt;0141 -->
<g id="edge22" class="edge"><title>044&#45;&gt;0141</title>
<path fill="none" stroke="#b43f3f" stroke-dasharray="1,5" d="M923.355,-175.139C927.792,-169.316 932.592,-162.544 936.397,-156 940.687,-148.622 944.68,-140.251 948.055,-132.498"/>
<polygon fill="#b43f3f" stroke="#b43f3f" points="951.343,-133.706 951.973,-123.13 944.886,-131.004 951.343,-133.706"/>
<text text-anchor="middle" x="966.397" y="-144.8" font-family="Times,serif" font-size="14.00">1 (89.2)</text>
</g>
<!-- 07 -->
<g id="node12" class="node"><title>07</title>
<ellipse fill="#ff8a8a" stroke="#b43f3f" cx="404.397" cy="-105" rx="31.6951" ry="18"/>
<text text-anchor="middle" x="404.397" y="-101.3" font-family="Times,serif" font-size="14.00">07 (a)</text>
</g>
<!-- 034 -->
<g id="node13" class="node"><title>034</title>
<ellipse fill="#ff8a8a" stroke="#b43f3f" cx="218.397" cy="-18" rx="36.2938" ry="18"/>
<text text-anchor="middle" x="218.397" y="-14.3" font-family="Times,serif" font-size="14.00">034 (a)</text>
</g>
<!-- 07&#45;&gt;034 -->
<g id="edge9" class="edge"><title>07&#45;&gt;034</title>
<path fill="none" stroke="#b43f3f" stroke-dasharray="1,5" d="M375.263,-97.2264C352.365,-91.3366 320.003,-81.7448 293.397,-69 276.45,-60.882 258.9,-49.3789 245.041,-39.4524"/>
<polygon fill="#b43f3f" stroke="#b43f3f" points="247.066,-36.597 236.928,-33.5199 242.934,-42.2476 247.066,-36.597"/>
<text text-anchor="middle" x="315.397" y="-57.8" font-family="Times,serif" font-size="14.00">1 (95.1)</text>
</g>
<!-- 037 -->
<g id="node14" class="node"><title>037</title>
<ellipse fill="#ff8a8a" stroke="#b43f3f" cx="309.397" cy="-18" rx="36.2938" ry="18"/>
<text text-anchor="middle" x="309.397" y="-14.3" font-family="Times,serif" font-size="14.00">037 (a)</text>
</g>
<!-- 07&#45;&gt;037 -->
<g id="edge10" class="edge"><title>07&#45;&gt;037</title>
<path fill="none" stroke="#b43f3f" stroke-dasharray="1,5" d="M384.611,-90.8221C375.694,-84.5722 365.211,-76.7806 356.397,-69 347.233,-60.9115 337.866,-51.2757 329.93,-42.6319"/>
<polygon fill="#b43f3f" stroke="#b43f3f" points="332.386,-40.1295 323.091,-35.0454 327.187,-44.8165 332.386,-40.1295"/>
<text text-anchor="middle" x="378.397" y="-57.8" font-family="Times,serif" font-size="14.00">1 (97.5)</text>
</g>
<!-- 0211 -->
<g id="node15" class="node"><title>0211</title>
<ellipse fill="#ff8a8a" stroke="#b43f3f" cx="404.397" cy="-18" rx="40.0939" ry="18"/>
<text text-anchor="middle" x="404.397" y="-14.3" font-family="Times,serif" font-size="14.00">0211 (a)</text>
</g>
<!-- 07&#45;&gt;0211 -->
<g id="edge11" class="edge"><title>07&#45;&gt;0211</title>
<path fill="none" stroke="#b43f3f" stroke-dasharray="1,5" d="M404.397,-86.799C404.397,-75.1626 404.397,-59.5479 404.397,-46.2368"/>
<polygon fill="#b43f3f" stroke="#b43f3f" points="407.897,-46.1754 404.397,-36.1754 400.897,-46.1755 407.897,-46.1754"/>
<text text-anchor="middle" x="426.397" y="-57.8" font-family="Times,serif" font-size="14.00">2 (82.9)</text>
</g>
<!-- 030 -->
<g id="node16" class="node"><title>030</title>
<ellipse fill="#ff8a8a" stroke="#b43f3f" cx="499.397" cy="-18" rx="36.2938" ry="18"/>
<text text-anchor="middle" x="499.397" y="-14.3" font-family="Times,serif" font-size="14.00">030 (a)</text>
</g>
<!-- 07&#45;&gt;030 -->
<g id="edge12" class="edge"><title>07&#45;&gt;030</title>
<path fill="none" stroke="#b43f3f" stroke-dasharray="1,5" d="M424.182,-90.8221C433.1,-84.5722 443.582,-76.7806 452.397,-69 461.56,-60.9115 470.927,-51.2757 478.863,-42.6319"/>
<polygon fill="#b43f3f" stroke="#b43f3f" points="481.606,-44.8165 485.702,-35.0454 476.407,-40.1295 481.606,-44.8165"/>
<text text-anchor="middle" x="490.397" y="-57.8" font-family="Times,serif" font-size="14.00">1 (95.1)</text>
</g>
<!-- 031 -->
<g id="node17" class="node"><title>031</title>
<ellipse fill="#ff8a8a" stroke="#b43f3f" cx="590.397" cy="-105" rx="36.2938" ry="18"/>
<text text-anchor="middle" x="590.397" y="-101.3" font-family="Times,serif" font-size="14.00">031 (a)</text>
</g>
<!-- 013 -->
<g id="node18" class="node"><title>013</title>
<ellipse fill="#ff8a8a" stroke="#b43f3f" cx="590.397" cy="-18" rx="36.2938" ry="18"/>
<text text-anchor="middle" x="590.397" y="-14.3" font-family="Times,serif" font-size="14.00">013 (a)</text>
</g>
<!-- 031&#45;&gt;013 -->
<g id="edge13" class="edge"><title>031&#45;&gt;013</title>
<path fill="none" stroke="#b43f3f" stroke-dasharray="1,5" d="M590.397,-86.799C590.397,-75.1626 590.397,-59.5479 590.397,-46.2368"/>
<polygon fill="#b43f3f" stroke="#b43f3f" points="593.897,-46.1754 590.397,-36.1754 586.897,-46.1755 593.897,-46.1754"/>
<text text-anchor="middle" x="612.397" y="-57.8" font-family="Times,serif" font-size="14.00">1 (97.1)</text>
</g>
<!-- 01 -->
<g id="node19" class="node"><title>01</title>
<ellipse fill="#ff8a8a" stroke="#b43f3f" cx="676.397" cy="-18" rx="31.6951" ry="18"/>
<text text-anchor="middle" x="676.397" y="-14.3" font-family="Times,serif" font-size="14.00">01 (a)</text>
</g>
<!-- 031&#45;&gt;01 -->
<g id="edge14" class="edge"><title>031&#45;&gt;01</title>
<path fill="none" stroke="#b43f3f" stroke-dasharray="1,5" d="M612.001,-90.2504C620.657,-84.2452 630.443,-76.7976 638.397,-69 646.221,-61.3291 653.759,-51.9752 660.029,-43.4419"/>
<polygon fill="#b43f3f" stroke="#b43f3f" points="662.894,-45.452 665.84,-35.2749 657.191,-41.3937 662.894,-45.452"/>
<text text-anchor="middle" x="673.397" y="-57.8" font-family="Times,serif" font-size="14.00">2 (48.5)</text>
</g>
<!-- 017 -->
<g id="node20" class="node"><title>017</title>
<ellipse fill="#ff8a8a" stroke="#b43f3f" cx="762.397" cy="-18" rx="36.2938" ry="18"/>
<text text-anchor="middle" x="762.397" y="-14.3" font-family="Times,serif" font-size="14.00">017 (a)</text>
</g>
<!-- 031&#45;&gt;017 -->
<g id="edge15" class="edge"><title>031&#45;&gt;017</title>
<path fill="none" stroke="#b43f3f" stroke-dasharray="1,5" d="M618.498,-93.2315C624.383,-91.0845 630.57,-88.9059 636.397,-87 664.074,-77.9462 673.495,-82.307 699.397,-69 713.689,-61.6575 727.861,-50.8136 739.134,-41.0996"/>
<polygon fill="#b43f3f" stroke="#b43f3f" points="741.643,-43.5525 746.79,-34.2921 736.991,-38.3213 741.643,-43.5525"/>
<text text-anchor="middle" x="744.397" y="-57.8" font-family="Times,serif" font-size="14.00">1 (94.3)</text>
</g>
<!-- 063 -->
<g id="node21" class="node"><title>063</title>
<ellipse fill="#ff8a8a" stroke="#b43f3f" cx="590.397" cy="-192" rx="36.2938" ry="18"/>
<text text-anchor="middle" x="590.397" y="-188.3" font-family="Times,serif" font-size="14.00">063 (a)</text>
</g>
<!-- 063&#45;&gt;021 -->
<g id="edge16" class="edge"><title>063&#45;&gt;021</title>
<path fill="none" stroke="#b43f3f" stroke-dasharray="1,5" d="M564.048,-179.289C558.927,-177.313 553.549,-175.439 548.397,-174 546.119,-173.364 279.074,-130.391 171.527,-113.095"/>
<polygon fill="#b43f3f" stroke="#b43f3f" points="172.06,-109.636 161.631,-111.504 170.948,-116.547 172.06,-109.636"/>
<text text-anchor="middle" x="456.397" y="-144.8" font-family="Times,serif" font-size="14.00">1 (93.1)</text>
</g>
<!-- 063&#45;&gt;07 -->
<g id="edge17" class="edge"><title>063&#45;&gt;07</title>
<path fill="none" stroke="#b43f3f" stroke-dasharray="1,5" d="M564.534,-179.181C531.455,-164.064 474.112,-137.859 437.771,-121.252"/>
<polygon fill="#b43f3f" stroke="#b43f3f" points="439.114,-118.017 428.564,-117.044 436.205,-124.384 439.114,-118.017"/>
<text text-anchor="middle" x="531.397" y="-144.8" font-family="Times,serif" font-size="14.00">1 (96.6)</text>
</g>
<!-- 063&#45;&gt;031 -->
<g id="edge18" class="edge"><title>063&#45;&gt;031</title>
<path fill="none" stroke="#b43f3f" stroke-dasharray="1,5" d="M590.397,-173.799C590.397,-162.163 590.397,-146.548 590.397,-133.237"/>
<polygon fill="#b43f3f" stroke="#b43f3f" points="593.897,-133.175 590.397,-123.175 586.897,-133.175 593.897,-133.175"/>
<text text-anchor="middle" x="612.397" y="-144.8" font-family="Times,serif" font-size="14.00">1 (95.8)</text>
</g>
<!-- 011 -->
<g id="node22" class="node"><title>011</title>
<ellipse fill="#ff8a8a" stroke="#b43f3f" cx="681.397" cy="-105" rx="36.2938" ry="18"/>
<text text-anchor="middle" x="681.397" y="-101.3" font-family="Times,serif" font-size="14.00">011 (a)</text>
</g>
<!-- 063&#45;&gt;011 -->
<g id="edge19" class="edge"><title>063&#45;&gt;011</title>
<path fill="none" stroke="#b43f3f" stroke-dasharray="1,5" d="M611.768,-177.006C620.389,-170.963 630.211,-163.554 638.397,-156 646.941,-148.115 655.472,-138.619 662.657,-130.029"/>
<polygon fill="#b43f3f" stroke="#b43f3f" points="665.474,-132.113 669.089,-122.155 660.053,-127.685 665.474,-132.113"/>
<text text-anchor="middle" x="674.397" y="-144.8" font-family="Times,serif" font-size="14.00">1 (93.1)</text>
</g>
<!-- 028 -->
<g id="node23" class="node"><title>028</title>
<ellipse fill="#ff8a8a" stroke="#b43f3f" cx="772.397" cy="-105" rx="36.2938" ry="18"/>
<text text-anchor="middle" x="772.397" y="-101.3" font-family="Times,serif" font-size="14.00">028 (a)</text>
</g>
<!-- 063&#45;&gt;028 -->
<g id="edge20" class="edge"><title>063&#45;&gt;028</title>
<path fill="none" stroke="#b43f3f" stroke-dasharray="1,5" d="M622.664,-183.461C645.123,-177.566 675.405,-168.305 700.397,-156 716.525,-148.059 733.099,-136.801 746.273,-126.977"/>
<polygon fill="#b43f3f" stroke="#b43f3f" points="748.572,-129.626 754.401,-120.778 744.327,-124.06 748.572,-129.626"/>
<text text-anchor="middle" x="747.397" y="-144.8" font-family="Times,serif" font-size="14.00">1 (96.6)</text>
</g>
<!-- 019 -->
<g id="node26" class="node"><title>019</title>
<ellipse fill="#ff8a8a" stroke="#b43f3f" cx="590.397" cy="-279" rx="36.2938" ry="18"/>
<text text-anchor="middle" x="590.397" y="-275.3" font-family="Times,serif" font-size="14.00">019 (a)</text>
</g>
<!-- 019&#45;&gt;063 -->
<g id="edge23" class="edge"><title>019&#45;&gt;063</title>
<path fill="none" stroke="#b43f3f" stroke-dasharray="1,5" d="M590.397,-260.799C590.397,-249.163 590.397,-233.548 590.397,-220.237"/>
<polygon fill="#b43f3f" stroke="#b43f3f" points="593.897,-220.175 590.397,-210.175 586.897,-220.175 593.897,-220.175"/>
<text text-anchor="middle" x="612.397" y="-231.8" font-family="Times,serif" font-size="14.00">1 (85.7)</text>
</g>
<!-- 045 -->
<g id="node27" class="node"><title>045</title>
<ellipse fill="#cea8f4" stroke="#835da9" cx="1082.4" cy="-279" rx="36.2938" ry="18"/>
<text text-anchor="middle" x="1082.4" y="-275.3" font-family="Times,serif" font-size="14.00">045 (b)</text>
</g>
<!-- 038 -->
<g id="node28" class="node"><title>038</title>
<ellipse fill="#cea8f4" stroke="#835da9" cx="1082.4" cy="-192" rx="36.2938" ry="18"/>
<text text-anchor="middle" x="1082.4" y="-188.3" font-family="Times,serif" font-size="14.00">038 (b)</text>
</g>
<!-- 045&#45;&gt;038 -->
<g id="edge24" class="edge"><title>045&#45;&gt;038</title>
<path fill="none" stroke="#835da9" stroke-dasharray="1,5" d="M1082.4,-260.799C1082.4,-249.163 1082.4,-233.548 1082.4,-220.237"/>
<polygon fill="#835da9" stroke="#835da9" points="1085.9,-220.175 1082.4,-210.175 1078.9,-220.175 1085.9,-220.175"/>
<text text-anchor="middle" x="1104.4" y="-231.8" font-family="Times,serif" font-size="14.00">1 (92.7)</text>
</g>
<!-- 05 -->
<g id="node29" class="node"><title>05</title>
<ellipse fill="#ff8a8a" stroke="#b43f3f" cx="1168.4" cy="-279" rx="31.6951" ry="18"/>
<text text-anchor="middle" x="1168.4" y="-275.3" font-family="Times,serif" font-size="14.00">05 (a)</text>
</g>
<!-- P75 -->
<g id="node30" class="node"><title>P75</title>
<ellipse fill="#ff8a8a" stroke="#b43f3f" cx="1254.4" cy="-279" rx="36.2938" ry="18"/>
<text text-anchor="middle" x="1254.4" y="-275.3" font-family="Times,serif" font-size="14.00">P75 (a)</text>
</g>
</g>
</svg>
