<?xml version="1.0" encoding="UTF-8" standalone="no"?>
<!DOCTYPE svg PUBLIC "-//W3C//DTD SVG 1.1//EN"
 "http://www.w3.org/Graphics/SVG/1.1/DTD/svg11.dtd">
<!-- Generated by graphviz version 2.38.0 (20140413.2041)
 -->
<!-- Title: %3 Pages: 1 -->
<svg width="1165pt" height="408pt"
 viewBox="0.00 0.00 1165.24 408.00" xmlns="http://www.w3.org/2000/svg" xmlns:xlink="http://www.w3.org/1999/xlink">
<g id="graph0" class="graph" transform="scale(1 1) rotate(0) translate(4 404)">
<title>%3</title>
<polygon fill="white" stroke="none" points="-4,4 -4,-404 1161.24,-404 1161.24,4 -4,4"/>
<g id="clust1" class="cluster"><title>cluster_legend</title>
<path fill="none" stroke="black" d="M347.397,-264C347.397,-264 537.397,-264 537.397,-264 543.397,-264 549.397,-270 549.397,-276 549.397,-276 549.397,-380 549.397,-380 549.397,-386 543.397,-392 537.397,-392 537.397,-392 347.397,-392 347.397,-392 341.397,-392 335.397,-386 335.397,-380 335.397,-380 335.397,-276 335.397,-276 335.397,-270 341.397,-264 347.397,-264"/>
</g>
<!-- leg_s -->
<g id="node1" class="node"><title>leg_s</title>
<text text-anchor="middle" x="442.397" y="-362.3" font-family="Times,serif" font-size="14.00">Textual flow strength</text>
</g>
<!-- leg_e1 -->
<!-- leg_s&#45;&gt;leg_e1 -->
<g id="edge1" class="edge"><title>leg_s&#45;&gt;leg_e1</title>
<path fill="none" stroke="black" stroke-dasharray="1,5" d="M424.062,-347.686C418.529,-342.194 412.557,-335.989 407.397,-330 397.568,-318.593 387.469,-304.779 380.31,-294.563"/>
<polygon fill="black" stroke="black" points="383.011,-292.314 374.453,-286.068 377.248,-296.288 383.011,-292.314"/>
<text text-anchor="middle" x="422.897" y="-318.8" font-family="Times,serif" font-size="14.00">&lt;=5 &#160;</text>
</g>
<!-- leg_e2 -->
<!-- leg_s&#45;&gt;leg_e2 -->
<g id="edge2" class="edge"><title>leg_s&#45;&gt;leg_e2</title>
<path fill="none" stroke="black" stroke-dasharray="5,2" d="M442.397,-347.799C442.397,-332.794 442.397,-311.174 442.397,-296.409"/>
<polygon fill="black" stroke="black" points="445.897,-296.293 442.397,-286.293 438.897,-296.293 445.897,-296.293"/>
<text text-anchor="middle" x="461.397" y="-318.8" font-family="Times,serif" font-size="14.00"> &#160;&lt;=25</text>
</g>
<!-- leg_e3 -->
<!-- leg_s&#45;&gt;leg_e3 -->
<g id="edge3" class="edge"><title>leg_s&#45;&gt;leg_e3</title>
<path fill="none" stroke="black" d="M465.9,-347.76C472.303,-342.462 478.963,-336.344 484.397,-330 493.484,-319.39 501.492,-305.689 506.943,-295.313"/>
<polygon fill="black" stroke="black" points="510.119,-296.789 511.488,-286.283 503.866,-293.642 510.119,-296.789"/>
<text text-anchor="middle" x="506.397" y="-318.8" font-family="Times,serif" font-size="14.00">&gt;25</text>
</g>
<!-- A -->
<g id="node5" class="node"><title>A</title>
<ellipse fill="#ff8a8a" stroke="#b43f3f" cx="768.397" cy="-366" rx="29.4969" ry="18"/>
<text text-anchor="middle" x="768.397" y="-362.3" font-family="Times,serif" font-size="14.00">A (a)</text>
</g>
<!-- 01 -->
<g id="node6" class="node"><title>01</title>
<ellipse fill="#ff8a8a" stroke="#b43f3f" cx="591.397" cy="-279" rx="31.6951" ry="18"/>
<text text-anchor="middle" x="591.397" y="-275.3" font-family="Times,serif" font-size="14.00">01 (a)</text>
</g>
<!-- A&#45;&gt;01 -->
<g id="edge4" class="edge"><title>A&#45;&gt;01</title>
<path fill="none" stroke="#b43f3f" stroke-dasharray="5,2" d="M741.464,-358.944C718.804,-353.249 685.945,-343.565 659.397,-330 644.024,-322.145 628.398,-310.931 616.009,-301.112"/>
<polygon fill="#b43f3f" stroke="#b43f3f" points="617.959,-298.187 607.992,-294.596 613.545,-303.619 617.959,-298.187"/>
<text text-anchor="middle" x="681.397" y="-318.8" font-family="Times,serif" font-size="14.00">1 (57.1)</text>
</g>
<!-- P75 -->
<g id="node7" class="node"><title>P75</title>
<ellipse fill="#ff8a8a" stroke="#b43f3f" cx="677.397" cy="-279" rx="36.2938" ry="18"/>
<text text-anchor="middle" x="677.397" y="-275.3" font-family="Times,serif" font-size="14.00">P75 (a)</text>
</g>
<!-- A&#45;&gt;P75 -->
<g id="edge5" class="edge"><title>A&#45;&gt;P75</title>
<path fill="none" stroke="#b43f3f" stroke-dasharray="1,5" d="M748.92,-352.326C739.869,-346.06 729.189,-338.113 720.397,-330 711.853,-322.115 703.321,-312.619 696.136,-304.029"/>
<polygon fill="#b43f3f" stroke="#b43f3f" points="698.741,-301.685 689.704,-296.155 693.32,-306.113 698.741,-301.685"/>
<text text-anchor="middle" x="742.397" y="-318.8" font-family="Times,serif" font-size="14.00">1 (93.3)</text>
</g>
<!-- 019 -->
<g id="node8" class="node"><title>019</title>
<ellipse fill="#ff8a8a" stroke="#b43f3f" cx="768.397" cy="-279" rx="36.2938" ry="18"/>
<text text-anchor="middle" x="768.397" y="-275.3" font-family="Times,serif" font-size="14.00">019 (a)</text>
</g>
<!-- A&#45;&gt;019 -->
<g id="edge6" class="edge"><title>A&#45;&gt;019</title>
<path fill="none" stroke="#b43f3f" stroke-dasharray="1,5" d="M768.397,-347.799C768.397,-336.163 768.397,-320.548 768.397,-307.237"/>
<polygon fill="#b43f3f" stroke="#b43f3f" points="771.897,-307.175 768.397,-297.175 764.897,-307.175 771.897,-307.175"/>
<text text-anchor="middle" x="790.397" y="-318.8" font-family="Times,serif" font-size="14.00">1 (93.3)</text>
</g>
<!-- 03 -->
<g id="node9" class="node"><title>03</title>
<ellipse fill="#ff8a8a" stroke="#b43f3f" cx="854.397" cy="-279" rx="31.6951" ry="18"/>
<text text-anchor="middle" x="854.397" y="-275.3" font-family="Times,serif" font-size="14.00">03 (a)</text>
</g>
<!-- A&#45;&gt;03 -->
<g id="edge7" class="edge"><title>A&#45;&gt;03</title>
<path fill="none" stroke="#b43f3f" stroke-dasharray="1,5" d="M788.097,-352.561C797.197,-346.347 807.854,-338.375 816.397,-330 824.221,-322.329 831.759,-312.975 838.029,-304.442"/>
<polygon fill="#b43f3f" stroke="#b43f3f" points="840.894,-306.452 843.84,-296.275 835.191,-302.394 840.894,-306.452"/>
<text text-anchor="middle" x="851.397" y="-318.8" font-family="Times,serif" font-size="14.00">1 (93.3)</text>
</g>
<!-- 091 -->
<g id="node10" class="node"><title>091</title>
<ellipse fill="#ff8a8a" stroke="#b43f3f" cx="1035.4" cy="-279" rx="36.2938" ry="18"/>
<text text-anchor="middle" x="1035.4" y="-275.3" font-family="Times,serif" font-size="14.00">091 (a)</text>
</g>
<!-- A&#45;&gt;091 -->
<g id="edge8" class="edge"><title>A&#45;&gt;091</title>
<path fill="none" stroke="#b43f3f" stroke-dasharray="1,5" d="M793.998,-356.85C840.691,-341.985 939.981,-310.376 995.575,-292.677"/>
<polygon fill="#b43f3f" stroke="#b43f3f" points="996.958,-295.91 1005.42,-289.542 994.834,-289.24 996.958,-295.91"/>
<text text-anchor="middle" x="940.397" y="-318.8" font-family="Times,serif" font-size="14.00">1 (87.5)</text>
</g>
<!-- 063 -->
<g id="node17" class="node"><title>063</title>
<ellipse fill="#ff8a8a" stroke="#b43f3f" cx="534.397" cy="-192" rx="36.2938" ry="18"/>
<text text-anchor="middle" x="534.397" y="-188.3" font-family="Times,serif" font-size="14.00">063 (a)</text>
</g>
<!-- 019&#45;&gt;063 -->
<g id="edge14" class="edge"><title>019&#45;&gt;063</title>
<path fill="none" stroke="#b43f3f" stroke-dasharray="1,5" d="M740.189,-267.54C734.312,-265.371 728.154,-263.105 722.397,-261 670.629,-242.072 610.741,-220.46 572.729,-206.777"/>
<polygon fill="#b43f3f" stroke="#b43f3f" points="573.679,-203.399 563.085,-203.307 571.309,-209.986 573.679,-203.399"/>
<text text-anchor="middle" x="693.397" y="-231.8" font-family="Times,serif" font-size="14.00">1 (85.7)</text>
</g>
<!-- 044 -->
<g id="node18" class="node"><title>044</title>
<ellipse fill="#ff8a8a" stroke="#b43f3f" cx="768.397" cy="-192" rx="36.2938" ry="18"/>
<text text-anchor="middle" x="768.397" y="-188.3" font-family="Times,serif" font-size="14.00">044 (a)</text>
</g>
<!-- 03&#45;&gt;044 -->
<g id="edge15" class="edge"><title>03&#45;&gt;044</title>
<path fill="none" stroke="#b43f3f" stroke-dasharray="1,5" d="M833.75,-264.912C824.864,-258.796 814.645,-251.086 806.397,-243 798.572,-235.329 791.035,-225.975 784.765,-217.442"/>
<polygon fill="#b43f3f" stroke="#b43f3f" points="787.603,-215.394 778.954,-209.275 781.899,-219.452 787.603,-215.394"/>
<text text-anchor="middle" x="828.397" y="-231.8" font-family="Times,serif" font-size="14.00">1 (89.2)</text>
</g>
<!-- 02 -->
<g id="node19" class="node"><title>02</title>
<ellipse fill="#ff8a8a" stroke="#b43f3f" cx="854.397" cy="-192" rx="31.6951" ry="18"/>
<text text-anchor="middle" x="854.397" y="-188.3" font-family="Times,serif" font-size="14.00">02 (a)</text>
</g>
<!-- 03&#45;&gt;02 -->
<g id="edge16" class="edge"><title>03&#45;&gt;02</title>
<path fill="none" stroke="#b43f3f" stroke-dasharray="1,5" d="M854.397,-260.799C854.397,-249.163 854.397,-233.548 854.397,-220.237"/>
<polygon fill="#b43f3f" stroke="#b43f3f" points="857.897,-220.175 854.397,-210.175 850.897,-220.175 857.897,-220.175"/>
<text text-anchor="middle" x="876.397" y="-231.8" font-family="Times,serif" font-size="14.00">1 (86.5)</text>
</g>
<!-- 032 -->
<g id="node20" class="node"><title>032</title>
<ellipse fill="#ff8a8a" stroke="#b43f3f" cx="940.397" cy="-192" rx="36.2938" ry="18"/>
<text text-anchor="middle" x="940.397" y="-188.3" font-family="Times,serif" font-size="14.00">032 (a)</text>
</g>
<!-- 03&#45;&gt;032 -->
<g id="edge17" class="edge"><title>03&#45;&gt;032</title>
<path fill="none" stroke="#b43f3f" stroke-dasharray="1,5" d="M875.044,-264.912C883.93,-258.796 894.148,-251.086 902.397,-243 910.221,-235.329 917.759,-225.975 924.029,-217.442"/>
<polygon fill="#b43f3f" stroke="#b43f3f" points="926.894,-219.452 929.84,-209.275 921.191,-215.394 926.894,-219.452"/>
<text text-anchor="middle" x="937.397" y="-231.8" font-family="Times,serif" font-size="14.00">1 (91.7)</text>
</g>
<!-- 0211 -->
<g id="node27" class="node"><title>0211</title>
<ellipse fill="#ff8a8a" stroke="#b43f3f" cx="1035.4" cy="-192" rx="40.0939" ry="18"/>
<text text-anchor="middle" x="1035.4" y="-188.3" font-family="Times,serif" font-size="14.00">0211 (a)</text>
</g>
<!-- 091&#45;&gt;0211 -->
<g id="edge25" class="edge"><title>091&#45;&gt;0211</title>
<path fill="none" stroke="#b43f3f" stroke-dasharray="1,5" d="M1035.4,-260.799C1035.4,-249.163 1035.4,-233.548 1035.4,-220.237"/>
<polygon fill="#b43f3f" stroke="#b43f3f" points="1038.9,-220.175 1035.4,-210.175 1031.9,-220.175 1038.9,-220.175"/>
<text text-anchor="middle" x="1057.4" y="-231.8" font-family="Times,serif" font-size="14.00">1 (83.3)</text>
</g>
<!-- 05 -->
<g id="node28" class="node"><title>05</title>
<ellipse fill="#ff8a8a" stroke="#b43f3f" cx="1125.4" cy="-192" rx="31.6951" ry="18"/>
<text text-anchor="middle" x="1125.4" y="-188.3" font-family="Times,serif" font-size="14.00">05 (a)</text>
</g>
<!-- 091&#45;&gt;05 -->
<g id="edge26" class="edge"><title>091&#45;&gt;05</title>
<path fill="none" stroke="#b43f3f" stroke-dasharray="1,5" d="M1056.81,-264.054C1065.44,-258.018 1075.26,-250.601 1083.4,-243 1091.81,-235.144 1100.16,-225.653 1107.17,-217.06"/>
<polygon fill="#b43f3f" stroke="#b43f3f" points="1109.95,-219.185 1113.44,-209.18 1104.47,-214.827 1109.95,-219.185"/>
<text text-anchor="middle" x="1119.4" y="-231.8" font-family="Times,serif" font-size="14.00">1 (87.5)</text>
</g>
<!-- 07 -->
<g id="node11" class="node"><title>07</title>
<ellipse fill="#ff8a8a" stroke="#b43f3f" cx="264.397" cy="-105" rx="31.6951" ry="18"/>
<text text-anchor="middle" x="264.397" y="-101.3" font-family="Times,serif" font-size="14.00">07 (a)</text>
</g>
<!-- 013 -->
<g id="node12" class="node"><title>013</title>
<ellipse fill="#ff8a8a" stroke="#b43f3f" cx="36.3968" cy="-18" rx="36.2938" ry="18"/>
<text text-anchor="middle" x="36.3968" y="-14.3" font-family="Times,serif" font-size="14.00">013 (a)</text>
</g>
<!-- 07&#45;&gt;013 -->
<g id="edge9" class="edge"><title>07&#45;&gt;013</title>
<path fill="none" stroke="#b43f3f" stroke-dasharray="1,5" d="M233.79,-99.869C203,-95.0154 154.597,-85.458 115.397,-69 97.178,-61.351 78.4224,-49.6704 63.7602,-39.5221"/>
<polygon fill="#b43f3f" stroke="#b43f3f" points="65.3827,-36.3819 55.2013,-33.451 61.3328,-42.0914 65.3827,-36.3819"/>
<text text-anchor="middle" x="137.397" y="-57.8" font-family="Times,serif" font-size="14.00">2 (95.1)</text>
</g>
<!-- 017 -->
<g id="node13" class="node"><title>017</title>
<ellipse fill="#ff8a8a" stroke="#b43f3f" cx="127.397" cy="-18" rx="36.2938" ry="18"/>
<text text-anchor="middle" x="127.397" y="-14.3" font-family="Times,serif" font-size="14.00">017 (a)</text>
</g>
<!-- 07&#45;&gt;017 -->
<g id="edge10" class="edge"><title>07&#45;&gt;017</title>
<path fill="none" stroke="#b43f3f" stroke-dasharray="1,5" d="M237.421,-95.088C220.855,-88.9968 199.592,-80.0363 182.397,-69 170.571,-61.4099 158.855,-51.2304 149.294,-42.0377"/>
<polygon fill="#b43f3f" stroke="#b43f3f" points="151.698,-39.492 142.128,-34.9451 146.774,-44.4673 151.698,-39.492"/>
<text text-anchor="middle" x="204.397" y="-57.8" font-family="Times,serif" font-size="14.00">2 (92.7)</text>
</g>
<!-- 037 -->
<g id="node14" class="node"><title>037</title>
<ellipse fill="#ff8a8a" stroke="#b43f3f" cx="218.397" cy="-18" rx="36.2938" ry="18"/>
<text text-anchor="middle" x="218.397" y="-14.3" font-family="Times,serif" font-size="14.00">037 (a)</text>
</g>
<!-- 07&#45;&gt;037 -->
<g id="edge11" class="edge"><title>07&#45;&gt;037</title>
<path fill="none" stroke="#b43f3f" stroke-dasharray="1,5" d="M250.397,-88.761C245.505,-82.8899 240.273,-75.9266 236.397,-69 232.387,-61.8344 228.99,-53.6079 226.264,-45.9242"/>
<polygon fill="#b43f3f" stroke="#b43f3f" points="229.535,-44.6664 223.072,-36.2708 222.888,-46.8641 229.535,-44.6664"/>
<text text-anchor="middle" x="258.397" y="-57.8" font-family="Times,serif" font-size="14.00">1 (97.5)</text>
</g>
<!-- 034 -->
<g id="node15" class="node"><title>034</title>
<ellipse fill="#ff8a8a" stroke="#b43f3f" cx="309.397" cy="-18" rx="36.2938" ry="18"/>
<text text-anchor="middle" x="309.397" y="-14.3" font-family="Times,serif" font-size="14.00">034 (a)</text>
</g>
<!-- 07&#45;&gt;034 -->
<g id="edge12" class="edge"><title>07&#45;&gt;034</title>
<path fill="none" stroke="#b43f3f" stroke-dasharray="1,5" d="M273.073,-87.6111C279.506,-75.4601 288.4,-58.6599 295.777,-44.7254"/>
<polygon fill="#b43f3f" stroke="#b43f3f" points="299.008,-46.1041 300.593,-35.6286 292.821,-42.8288 299.008,-46.1041"/>
<text text-anchor="middle" x="312.397" y="-57.8" font-family="Times,serif" font-size="14.00">1 (95.1)</text>
</g>
<!-- 030 -->
<g id="node16" class="node"><title>030</title>
<ellipse fill="#ff8a8a" stroke="#b43f3f" cx="400.397" cy="-18" rx="36.2938" ry="18"/>
<text text-anchor="middle" x="400.397" y="-14.3" font-family="Times,serif" font-size="14.00">030 (a)</text>
</g>
<!-- 07&#45;&gt;030 -->
<g id="edge13" class="edge"><title>07&#45;&gt;030</title>
<path fill="none" stroke="#b43f3f" stroke-dasharray="1,5" d="M289.496,-93.8977C304.197,-87.553 322.866,-78.7419 338.397,-69 351.594,-60.7221 365.182,-50.047 376.262,-40.6876"/>
<polygon fill="#b43f3f" stroke="#b43f3f" points="378.551,-43.3355 383.845,-34.1582 373.983,-38.0309 378.551,-43.3355"/>
<text text-anchor="middle" x="380.397" y="-57.8" font-family="Times,serif" font-size="14.00">1 (95.1)</text>
</g>
<!-- 063&#45;&gt;07 -->
<g id="edge20" class="edge"><title>063&#45;&gt;07</title>
<path fill="none" stroke="#b43f3f" stroke-dasharray="1,5" d="M500.836,-184.728C470.358,-178.653 424.351,-168.533 385.397,-156 354.969,-146.21 321.459,-132.088 297.434,-121.348"/>
<polygon fill="#b43f3f" stroke="#b43f3f" points="298.631,-118.048 288.077,-117.121 295.749,-124.427 298.631,-118.048"/>
<text text-anchor="middle" x="407.397" y="-144.8" font-family="Times,serif" font-size="14.00">1 (96.6)</text>
</g>
<!-- 011 -->
<g id="node23" class="node"><title>011</title>
<ellipse fill="#ff8a8a" stroke="#b43f3f" cx="400.397" cy="-105" rx="36.2938" ry="18"/>
<text text-anchor="middle" x="400.397" y="-101.3" font-family="Times,serif" font-size="14.00">011 (a)</text>
</g>
<!-- 063&#45;&gt;011 -->
<g id="edge21" class="edge"><title>063&#45;&gt;011</title>
<path fill="none" stroke="#b43f3f" stroke-dasharray="1,5" d="M504.614,-181.536C488.163,-175.568 467.8,-166.918 451.397,-156 440.268,-148.593 429.468,-138.556 420.693,-129.419"/>
<polygon fill="#b43f3f" stroke="#b43f3f" points="423.204,-126.98 413.835,-122.033 418.074,-131.743 423.204,-126.98"/>
<text text-anchor="middle" x="473.397" y="-144.8" font-family="Times,serif" font-size="14.00">1 (93.1)</text>
</g>
<!-- 045 -->
<g id="node24" class="node"><title>045</title>
<ellipse fill="#ff8a8a" stroke="#b43f3f" cx="491.397" cy="-105" rx="36.2938" ry="18"/>
<text text-anchor="middle" x="491.397" y="-101.3" font-family="Times,serif" font-size="14.00">045 (a)</text>
</g>
<!-- 063&#45;&gt;045 -->
<g id="edge22" class="edge"><title>063&#45;&gt;045</title>
<path fill="none" stroke="#b43f3f" stroke-dasharray="1,5" d="M518.682,-175.751C513.491,-169.985 508.103,-163.093 504.397,-156 500.742,-149.005 498.063,-140.91 496.122,-133.299"/>
<polygon fill="#b43f3f" stroke="#b43f3f" points="499.5,-132.368 493.909,-123.369 492.668,-133.89 499.5,-132.368"/>
<text text-anchor="middle" x="526.397" y="-144.8" font-family="Times,serif" font-size="14.00">1 (93.1)</text>
</g>
<!-- 021 -->
<g id="node25" class="node"><title>021</title>
<ellipse fill="#ff8a8a" stroke="#b43f3f" cx="582.397" cy="-105" rx="36.2938" ry="18"/>
<text text-anchor="middle" x="582.397" y="-101.3" font-family="Times,serif" font-size="14.00">021 (a)</text>
</g>
<!-- 063&#45;&gt;021 -->
<g id="edge23" class="edge"><title>063&#45;&gt;021</title>
<path fill="none" stroke="#b43f3f" stroke-dasharray="1,5" d="M543.88,-174.207C550.762,-162.021 560.194,-145.318 568.002,-131.491"/>
<polygon fill="#b43f3f" stroke="#b43f3f" points="571.227,-132.898 573.097,-122.469 565.132,-129.456 571.227,-132.898"/>
<text text-anchor="middle" x="583.397" y="-144.8" font-family="Times,serif" font-size="14.00">1 (93.1)</text>
</g>
<!-- 028 -->
<g id="node26" class="node"><title>028</title>
<ellipse fill="#ff8a8a" stroke="#b43f3f" cx="673.397" cy="-105" rx="36.2938" ry="18"/>
<text text-anchor="middle" x="673.397" y="-101.3" font-family="Times,serif" font-size="14.00">028 (a)</text>
</g>
<!-- 063&#45;&gt;028 -->
<g id="edge24" class="edge"><title>063&#45;&gt;028</title>
<path fill="none" stroke="#b43f3f" stroke-dasharray="1,5" d="M561.892,-179.954C576.426,-173.677 594.329,-165.237 609.397,-156 622.939,-147.699 636.957,-137.021 648.408,-127.665"/>
<polygon fill="#b43f3f" stroke="#b43f3f" points="650.802,-130.227 656.25,-121.14 646.325,-124.846 650.802,-130.227"/>
<text text-anchor="middle" x="652.397" y="-144.8" font-family="Times,serif" font-size="14.00">1 (96.6)</text>
</g>
<!-- 0141 -->
<g id="node21" class="node"><title>0141</title>
<ellipse fill="#ff8a8a" stroke="#b43f3f" cx="768.397" cy="-105" rx="40.0939" ry="18"/>
<text text-anchor="middle" x="768.397" y="-101.3" font-family="Times,serif" font-size="14.00">0141 (a)</text>
</g>
<!-- 044&#45;&gt;0141 -->
<g id="edge18" class="edge"><title>044&#45;&gt;0141</title>
<path fill="none" stroke="#b43f3f" stroke-dasharray="1,5" d="M768.397,-173.799C768.397,-162.163 768.397,-146.548 768.397,-133.237"/>
<polygon fill="#b43f3f" stroke="#b43f3f" points="771.897,-133.175 768.397,-123.175 764.897,-133.175 771.897,-133.175"/>
<text text-anchor="middle" x="790.397" y="-144.8" font-family="Times,serif" font-size="14.00">1 (89.2)</text>
</g>
<!-- 022 -->
<g id="node22" class="node"><title>022</title>
<ellipse fill="#cea8f4" stroke="#835da9" cx="863.397" cy="-105" rx="36.2938" ry="18"/>
<text text-anchor="middle" x="863.397" y="-101.3" font-family="Times,serif" font-size="14.00">022 (b)</text>
</g>
<!-- 044&#45;&gt;022 -->
<g id="edge19" class="edge"><title>044&#45;&gt;022</title>
<path fill="none" stroke="#835da9" stroke-dasharray="1,5" d="M789.127,-177.159C797.833,-171.025 807.891,-163.508 816.397,-156 825.56,-147.911 834.927,-138.276 842.863,-129.632"/>
<polygon fill="#835da9" stroke="#835da9" points="845.606,-131.816 849.702,-122.045 840.407,-127.129 845.606,-131.816"/>
<text text-anchor="middle" x="854.397" y="-144.8" font-family="Times,serif" font-size="14.00">1 (91.7)</text>
</g>
<!-- 038 -->
<g id="node29" class="node"><title>038</title>
<ellipse fill="#ff8a8a" stroke="#b43f3f" cx="491.397" cy="-18" rx="36.2938" ry="18"/>
<text text-anchor="middle" x="491.397" y="-14.3" font-family="Times,serif" font-size="14.00">038 (a)</text>
</g>
<!-- 045&#45;&gt;038 -->
<g id="edge27" class="edge"><title>045&#45;&gt;038</title>
<path fill="none" stroke="#b43f3f" stroke-dasharray="1,5" d="M491.397,-86.799C491.397,-75.1626 491.397,-59.5479 491.397,-46.2368"/>
<polygon fill="#b43f3f" stroke="#b43f3f" points="494.897,-46.1754 491.397,-36.1754 487.897,-46.1755 494.897,-46.1754"/>
<text text-anchor="middle" x="513.397" y="-57.8" font-family="Times,serif" font-size="14.00">1 (92.7)</text>
</g>
<!-- 036 -->
<g id="node30" class="node"><title>036</title>
<ellipse fill="#ff8a8a" stroke="#b43f3f" cx="582.397" cy="-18" rx="36.2938" ry="18"/>
<text text-anchor="middle" x="582.397" y="-14.3" font-family="Times,serif" font-size="14.00">036 (a)</text>
</g>
<!-- 021&#45;&gt;036 -->
<g id="edge28" class="edge"><title>021&#45;&gt;036</title>
<path fill="none" stroke="#b43f3f" stroke-dasharray="1,5" d="M582.397,-86.799C582.397,-75.1626 582.397,-59.5479 582.397,-46.2368"/>
<polygon fill="#b43f3f" stroke="#b43f3f" points="585.897,-46.1754 582.397,-36.1754 578.897,-46.1755 585.897,-46.1754"/>
<text text-anchor="middle" x="604.397" y="-57.8" font-family="Times,serif" font-size="14.00">1 (97.6)</text>
</g>
<!-- 047 -->
<g id="node31" class="node"><title>047</title>
<ellipse fill="#ff8a8a" stroke="#b43f3f" cx="673.397" cy="-18" rx="36.2938" ry="18"/>
<text text-anchor="middle" x="673.397" y="-14.3" font-family="Times,serif" font-size="14.00">047 (a)</text>
</g>
<!-- 021&#45;&gt;047 -->
<g id="edge29" class="edge"><title>021&#45;&gt;047</title>
<path fill="none" stroke="#b43f3f" stroke-dasharray="1,5" d="M603.768,-90.006C612.389,-83.9634 622.211,-76.5539 630.397,-69 638.941,-61.1154 647.472,-51.6186 654.657,-43.0293"/>
<polygon fill="#b43f3f" stroke="#b43f3f" points="657.474,-45.1135 661.089,-35.1545 652.053,-40.6853 657.474,-45.1135"/>
<text text-anchor="middle" x="666.397" y="-57.8" font-family="Times,serif" font-size="14.00">1 (95.1)</text>
</g>
</g>
</svg>
