<?xml version="1.0" encoding="UTF-8" standalone="no"?>
<!DOCTYPE svg PUBLIC "-//W3C//DTD SVG 1.1//EN"
 "http://www.w3.org/Graphics/SVG/1.1/DTD/svg11.dtd">
<!-- Generated by graphviz version 2.38.0 (20140413.2041)
 -->
<!-- Title: G Pages: 1 -->
<svg width="908pt" height="332pt"
 viewBox="0.00 0.00 907.69 332.00" xmlns="http://www.w3.org/2000/svg" xmlns:xlink="http://www.w3.org/1999/xlink">
<g id="graph0" class="graph" transform="scale(1 1) rotate(0) translate(4 328)">
<title>G</title>
<polygon fill="white" stroke="none" points="-4,4 -4,-328 903.693,-328 903.693,4 -4,4"/>
<!-- 038 (a) -->
<g id="node1" class="node"><title>038 (a)</title>
<ellipse fill="#ff8a8a" stroke="#b43f3f" cx="408.296" cy="-18" rx="36.2938" ry="18"/>
<text text-anchor="middle" x="408.296" y="-14.3" font-family="Times,serif" font-size="14.00">038 (a)</text>
</g>
<!-- 032 (a) -->
<g id="node2" class="node"><title>032 (a)</title>
<ellipse fill="#ff8a8a" stroke="#b43f3f" cx="44.2964" cy="-162" rx="36.2938" ry="18"/>
<text text-anchor="middle" x="44.2964" y="-158.3" font-family="Times,serif" font-size="14.00">032 (a)</text>
</g>
<!-- 034 (a) -->
<g id="node3" class="node"><title>034 (a)</title>
<ellipse fill="#ff8a8a" stroke="#b43f3f" cx="499.296" cy="-18" rx="36.2938" ry="18"/>
<text text-anchor="middle" x="499.296" y="-14.3" font-family="Times,serif" font-size="14.00">034 (a)</text>
</g>
<!-- 063 (a) -->
<g id="node4" class="node"><title>063 (a)</title>
<ellipse fill="#ff8a8a" stroke="#b43f3f" cx="407.296" cy="-162" rx="36.2938" ry="18"/>
<text text-anchor="middle" x="407.296" y="-158.3" font-family="Times,serif" font-size="14.00">063 (a)</text>
</g>
<!-- 028 (a) -->
<g id="node6" class="node"><title>028 (a)</title>
<ellipse fill="#ff8a8a" stroke="#b43f3f" cx="226.296" cy="-90" rx="36.2938" ry="18"/>
<text text-anchor="middle" x="226.296" y="-86.3" font-family="Times,serif" font-size="14.00">028 (a)</text>
</g>
<!-- 063 (a)&#45;&gt;028 (a) -->
<g id="edge1" class="edge"><title>063 (a)&#45;&gt;028 (a)</title>
<path fill="none" stroke="black" d="M379.412,-150.216C348.454,-138.243 298.324,-118.856 263.911,-105.547"/>
<polygon fill="black" stroke="black" points="264.802,-102.139 254.213,-101.796 262.277,-108.668 264.802,-102.139"/>
</g>
<!-- 031 (a) -->
<g id="node14" class="node"><title>031 (a)</title>
<ellipse fill="#ff8a8a" stroke="#b43f3f" cx="317.296" cy="-90" rx="36.2938" ry="18"/>
<text text-anchor="middle" x="317.296" y="-86.3" font-family="Times,serif" font-size="14.00">031 (a)</text>
</g>
<!-- 063 (a)&#45;&gt;031 (a) -->
<g id="edge2" class="edge"><title>063 (a)&#45;&gt;031 (a)</title>
<path fill="none" stroke="black" d="M388.648,-146.496C375.736,-136.453 358.355,-122.934 343.98,-111.754"/>
<polygon fill="black" stroke="black" points="345.963,-108.862 335.921,-105.485 341.665,-114.388 345.963,-108.862"/>
</g>
<!-- 011 (a) -->
<g id="node17" class="node"><title>011 (a)</title>
<ellipse fill="#ff8a8a" stroke="#b43f3f" cx="408.296" cy="-90" rx="36.2938" ry="18"/>
<text text-anchor="middle" x="408.296" y="-86.3" font-family="Times,serif" font-size="14.00">011 (a)</text>
</g>
<!-- 063 (a)&#45;&gt;011 (a) -->
<g id="edge5" class="edge"><title>063 (a)&#45;&gt;011 (a)</title>
<path fill="none" stroke="black" d="M407.544,-143.697C407.654,-135.983 407.786,-126.712 407.909,-118.112"/>
<polygon fill="black" stroke="black" points="411.409,-118.153 408.052,-108.104 404.409,-118.053 411.409,-118.153"/>
</g>
<!-- 045 (a) -->
<g id="node20" class="node"><title>045 (a)</title>
<ellipse fill="#ff8a8a" stroke="#b43f3f" cx="499.296" cy="-90" rx="36.2938" ry="18"/>
<text text-anchor="middle" x="499.296" y="-86.3" font-family="Times,serif" font-size="14.00">045 (a)</text>
</g>
<!-- 063 (a)&#45;&gt;045 (a) -->
<g id="edge6" class="edge"><title>063 (a)&#45;&gt;045 (a)</title>
<path fill="none" stroke="black" d="M426.359,-146.496C439.558,-136.453 457.325,-122.934 472.02,-111.754"/>
<polygon fill="black" stroke="black" points="474.419,-114.326 480.258,-105.485 470.181,-108.755 474.419,-114.326"/>
</g>
<!-- 07 (a) -->
<g id="node25" class="node"><title>07 (a)</title>
<ellipse fill="#ff8a8a" stroke="#b43f3f" cx="588.296" cy="-90" rx="31.6951" ry="18"/>
<text text-anchor="middle" x="588.296" y="-86.3" font-family="Times,serif" font-size="14.00">07 (a)</text>
</g>
<!-- 063 (a)&#45;&gt;07 (a) -->
<g id="edge3" class="edge"><title>063 (a)&#45;&gt;07 (a)</title>
<path fill="none" stroke="black" d="M435.181,-150.216C466.86,-137.964 518.618,-117.948 553.064,-104.626"/>
<polygon fill="black" stroke="black" points="554.658,-107.762 562.723,-100.89 552.133,-101.233 554.658,-107.762"/>
</g>
<!-- 021 (a) -->
<g id="node28" class="node"><title>021 (a)</title>
<ellipse fill="#ff8a8a" stroke="#b43f3f" cx="772.296" cy="-90" rx="36.2938" ry="18"/>
<text text-anchor="middle" x="772.296" y="-86.3" font-family="Times,serif" font-size="14.00">021 (a)</text>
</g>
<!-- 063 (a)&#45;&gt;021 (a) -->
<g id="edge4" class="edge"><title>063 (a)&#45;&gt;021 (a)</title>
<path fill="none" stroke="black" d="M434.621,-149.698C440.39,-147.589 446.49,-145.561 452.296,-144 548.368,-118.168 664.237,-102.749 726.827,-95.6727"/>
<polygon fill="black" stroke="black" points="727.22,-99.1507 736.772,-94.5682 726.447,-92.1935 727.22,-99.1507"/>
</g>
<!-- 05 (a) -->
<g id="node5" class="node"><title>05 (a)</title>
<ellipse fill="#ff8a8a" stroke="#b43f3f" cx="493.296" cy="-162" rx="31.6951" ry="18"/>
<text text-anchor="middle" x="493.296" y="-158.3" font-family="Times,serif" font-size="14.00">05 (a)</text>
</g>
<!-- 01 (a) -->
<g id="node7" class="node"><title>01 (a)</title>
<ellipse fill="#ff8a8a" stroke="#b43f3f" cx="140.296" cy="-234" rx="31.6951" ry="18"/>
<text text-anchor="middle" x="140.296" y="-230.3" font-family="Times,serif" font-size="14.00">01 (a)</text>
</g>
<!-- 03 (a) -->
<g id="node8" class="node"><title>03 (a)</title>
<ellipse fill="#ff8a8a" stroke="#b43f3f" cx="222.296" cy="-234" rx="31.6951" ry="18"/>
<text text-anchor="middle" x="222.296" y="-230.3" font-family="Times,serif" font-size="14.00">03 (a)</text>
</g>
<!-- 03 (a)&#45;&gt;032 (a) -->
<g id="edge7" class="edge"><title>03 (a)&#45;&gt;032 (a)</title>
<path fill="none" stroke="black" d="M197.183,-222.476C191.943,-220.311 186.446,-218.064 181.296,-216 147.773,-202.568 109.417,-187.779 81.8328,-177.244"/>
<polygon fill="black" stroke="black" points="82.7771,-173.858 72.1863,-173.565 80.283,-180.399 82.7771,-173.858"/>
</g>
<!-- 044 (a) -->
<g id="node9" class="node"><title>044 (a)</title>
<ellipse fill="#ff8a8a" stroke="#b43f3f" cx="135.296" cy="-162" rx="36.2938" ry="18"/>
<text text-anchor="middle" x="135.296" y="-158.3" font-family="Times,serif" font-size="14.00">044 (a)</text>
</g>
<!-- 03 (a)&#45;&gt;044 (a) -->
<g id="edge8" class="edge"><title>03 (a)&#45;&gt;044 (a)</title>
<path fill="none" stroke="black" d="M204.691,-218.834C192.239,-208.816 175.337,-195.216 161.331,-183.947"/>
<polygon fill="black" stroke="black" points="163.46,-181.168 153.475,-177.626 159.072,-186.622 163.46,-181.168"/>
</g>
<!-- 02 (b) -->
<g id="node18" class="node"><title>02 (b)</title>
<ellipse fill="#cea8f4" stroke="#835da9" cx="222.296" cy="-162" rx="32.4942" ry="18"/>
<text text-anchor="middle" x="222.296" y="-158.3" font-family="Times,serif" font-size="14.00">02 (b)</text>
</g>
<!-- 03 (a)&#45;&gt;02 (b) -->
<g id="edge9" class="edge"><title>03 (a)&#45;&gt;02 (b)</title>
<path fill="none" stroke="black" d="M222.296,-215.697C222.296,-207.983 222.296,-198.712 222.296,-190.112"/>
<polygon fill="black" stroke="black" points="225.797,-190.104 222.296,-180.104 218.797,-190.104 225.797,-190.104"/>
</g>
<!-- 0141 (a) -->
<g id="node10" class="node"><title>0141 (a)</title>
<ellipse fill="#ff8a8a" stroke="#b43f3f" cx="40.2964" cy="-90" rx="40.0939" ry="18"/>
<text text-anchor="middle" x="40.2964" y="-86.3" font-family="Times,serif" font-size="14.00">0141 (a)</text>
</g>
<!-- 044 (a)&#45;&gt;0141 (a) -->
<g id="edge11" class="edge"><title>044 (a)&#45;&gt;0141 (a)</title>
<path fill="none" stroke="black" d="M115.612,-146.496C101.947,-136.427 83.5399,-122.864 68.3436,-111.666"/>
<polygon fill="black" stroke="black" points="70.4089,-108.841 60.2821,-105.726 66.2565,-114.476 70.4089,-108.841"/>
</g>
<!-- 022 (a) -->
<g id="node21" class="node"><title>022 (a)</title>
<ellipse fill="#ff8a8a" stroke="#b43f3f" cx="135.296" cy="-90" rx="36.2938" ry="18"/>
<text text-anchor="middle" x="135.296" y="-86.3" font-family="Times,serif" font-size="14.00">022 (a)</text>
</g>
<!-- 044 (a)&#45;&gt;022 (a) -->
<g id="edge10" class="edge"><title>044 (a)&#45;&gt;022 (a)</title>
<path fill="none" stroke="black" d="M135.296,-143.697C135.296,-135.983 135.296,-126.712 135.296,-118.112"/>
<polygon fill="black" stroke="black" points="138.797,-118.104 135.296,-108.104 131.797,-118.104 138.797,-118.104"/>
</g>
<!-- 019 (a) -->
<g id="node11" class="node"><title>019 (a)</title>
<ellipse fill="#ff8a8a" stroke="#b43f3f" cx="309.296" cy="-234" rx="36.2938" ry="18"/>
<text text-anchor="middle" x="309.296" y="-230.3" font-family="Times,serif" font-size="14.00">019 (a)</text>
</g>
<!-- 019 (a)&#45;&gt;063 (a) -->
<g id="edge12" class="edge"><title>019 (a)&#45;&gt;063 (a)</title>
<path fill="none" stroke="black" d="M329.128,-218.834C343.474,-208.587 363.065,-194.594 379.044,-183.18"/>
<polygon fill="black" stroke="black" points="381.391,-185.805 387.494,-177.144 377.322,-180.109 381.391,-185.805"/>
</g>
<!-- P75 (a) -->
<g id="node12" class="node"><title>P75 (a)</title>
<ellipse fill="#ff8a8a" stroke="#b43f3f" cx="400.296" cy="-234" rx="36.2938" ry="18"/>
<text text-anchor="middle" x="400.296" y="-230.3" font-family="Times,serif" font-size="14.00">P75 (a)</text>
</g>
<!-- 0211 (a) -->
<g id="node13" class="node"><title>0211 (a)</title>
<ellipse fill="#ff8a8a" stroke="#b43f3f" cx="583.296" cy="-162" rx="40.0939" ry="18"/>
<text text-anchor="middle" x="583.296" y="-158.3" font-family="Times,serif" font-size="14.00">0211 (a)</text>
</g>
<!-- 017 (a) -->
<g id="node16" class="node"><title>017 (a)</title>
<ellipse fill="#ff8a8a" stroke="#b43f3f" cx="226.296" cy="-18" rx="36.2938" ry="18"/>
<text text-anchor="middle" x="226.296" y="-14.3" font-family="Times,serif" font-size="14.00">017 (a)</text>
</g>
<!-- 031 (a)&#45;&gt;017 (a) -->
<g id="edge13" class="edge"><title>031 (a)&#45;&gt;017 (a)</title>
<path fill="none" stroke="black" d="M298.441,-74.496C285.386,-64.4532 267.811,-50.9344 253.277,-39.7541"/>
<polygon fill="black" stroke="black" points="255.188,-36.8084 245.128,-33.4855 250.92,-42.3568 255.188,-36.8084"/>
</g>
<!-- 013 (a) -->
<g id="node23" class="node"><title>013 (a)</title>
<ellipse fill="#ff8a8a" stroke="#b43f3f" cx="317.296" cy="-18" rx="36.2938" ry="18"/>
<text text-anchor="middle" x="317.296" y="-14.3" font-family="Times,serif" font-size="14.00">013 (a)</text>
</g>
<!-- 031 (a)&#45;&gt;013 (a) -->
<g id="edge14" class="edge"><title>031 (a)&#45;&gt;013 (a)</title>
<path fill="none" stroke="black" d="M317.296,-71.6966C317.296,-63.9827 317.296,-54.7125 317.296,-46.1124"/>
<polygon fill="black" stroke="black" points="320.797,-46.1043 317.296,-36.1043 313.797,-46.1044 320.797,-46.1043"/>
</g>
<!-- 036 (a) -->
<g id="node15" class="node"><title>036 (a)</title>
<ellipse fill="#ff8a8a" stroke="#b43f3f" cx="772.296" cy="-18" rx="36.2938" ry="18"/>
<text text-anchor="middle" x="772.296" y="-14.3" font-family="Times,serif" font-size="14.00">036 (a)</text>
</g>
<!-- 047 (a) -->
<g id="node19" class="node"><title>047 (a)</title>
<ellipse fill="#ff8a8a" stroke="#b43f3f" cx="863.296" cy="-18" rx="36.2938" ry="18"/>
<text text-anchor="middle" x="863.296" y="-14.3" font-family="Times,serif" font-size="14.00">047 (a)</text>
</g>
<!-- 045 (a)&#45;&gt;038 (a) -->
<g id="edge15" class="edge"><title>045 (a)&#45;&gt;038 (a)</title>
<path fill="none" stroke="black" d="M480.441,-74.496C467.386,-64.4532 449.811,-50.9344 435.277,-39.7541"/>
<polygon fill="black" stroke="black" points="437.188,-36.8084 427.128,-33.4855 432.92,-42.3568 437.188,-36.8084"/>
</g>
<!-- A (a) -->
<g id="node22" class="node"><title>A (a)</title>
<ellipse fill="#ff8a8a" stroke="#b43f3f" cx="309.296" cy="-306" rx="29.4969" ry="18"/>
<text text-anchor="middle" x="309.296" y="-302.3" font-family="Times,serif" font-size="14.00">A (a)</text>
</g>
<!-- A (a)&#45;&gt;01 (a) -->
<g id="edge18" class="edge"><title>A (a)&#45;&gt;01 (a)</title>
<path fill="none" stroke="black" d="M285.704,-295.235C260.019,-284.604 217.737,-267.099 181.296,-252 179.214,-251.137 177.073,-250.25 174.912,-249.354"/>
<polygon fill="black" stroke="black" points="176.026,-246.027 165.448,-245.431 173.345,-252.494 176.026,-246.027"/>
</g>
<!-- A (a)&#45;&gt;03 (a) -->
<g id="edge19" class="edge"><title>A (a)&#45;&gt;03 (a)</title>
<path fill="none" stroke="black" d="M292.108,-291.17C279.524,-281.045 262.233,-267.133 248.009,-255.688"/>
<polygon fill="black" stroke="black" points="250.032,-252.823 240.046,-249.282 245.644,-258.277 250.032,-252.823"/>
</g>
<!-- A (a)&#45;&gt;019 (a) -->
<g id="edge17" class="edge"><title>A (a)&#45;&gt;019 (a)</title>
<path fill="none" stroke="black" d="M309.296,-287.697C309.296,-279.983 309.296,-270.712 309.296,-262.112"/>
<polygon fill="black" stroke="black" points="312.797,-262.104 309.296,-252.104 305.797,-262.104 312.797,-262.104"/>
</g>
<!-- A (a)&#45;&gt;P75 (a) -->
<g id="edge16" class="edge"><title>A (a)&#45;&gt;P75 (a)</title>
<path fill="none" stroke="black" d="M326.842,-291.503C340.003,-281.38 358.257,-267.338 373.276,-255.785"/>
<polygon fill="black" stroke="black" points="375.441,-258.535 381.234,-249.664 371.173,-252.987 375.441,-258.535"/>
</g>
<!-- 091 (a) -->
<g id="node24" class="node"><title>091 (a)</title>
<ellipse fill="#ff8a8a" stroke="#b43f3f" cx="493.296" cy="-234" rx="36.2938" ry="18"/>
<text text-anchor="middle" x="493.296" y="-230.3" font-family="Times,serif" font-size="14.00">091 (a)</text>
</g>
<!-- A (a)&#45;&gt;091 (a) -->
<g id="edge20" class="edge"><title>A (a)&#45;&gt;091 (a)</title>
<path fill="none" stroke="black" d="M333.73,-295.705C364.915,-283.841 419.185,-263.195 455.666,-249.316"/>
<polygon fill="black" stroke="black" points="457.348,-252.421 465.45,-245.594 454.859,-245.878 457.348,-252.421"/>
</g>
<!-- 091 (a)&#45;&gt;05 (a) -->
<g id="edge21" class="edge"><title>091 (a)&#45;&gt;05 (a)</title>
<path fill="none" stroke="black" d="M493.296,-215.697C493.296,-207.983 493.296,-198.712 493.296,-190.112"/>
<polygon fill="black" stroke="black" points="496.797,-190.104 493.296,-180.104 489.797,-190.104 496.797,-190.104"/>
</g>
<!-- 091 (a)&#45;&gt;0211 (a) -->
<g id="edge22" class="edge"><title>091 (a)&#45;&gt;0211 (a)</title>
<path fill="none" stroke="black" d="M511.944,-218.496C524.684,-208.587 541.775,-195.294 556.036,-184.203"/>
<polygon fill="black" stroke="black" points="558.307,-186.871 564.051,-177.968 554.009,-181.345 558.307,-186.871"/>
</g>
<!-- 07 (a)&#45;&gt;034 (a) -->
<g id="edge25" class="edge"><title>07 (a)&#45;&gt;034 (a)</title>
<path fill="none" stroke="black" d="M570.286,-74.8345C557.548,-64.8158 540.257,-51.2163 525.929,-39.9473"/>
<polygon fill="black" stroke="black" points="527.917,-37.0574 517.893,-33.6263 523.589,-42.5595 527.917,-37.0574"/>
</g>
<!-- 037 (a) -->
<g id="node26" class="node"><title>037 (a)</title>
<ellipse fill="#ff8a8a" stroke="#b43f3f" cx="590.296" cy="-18" rx="36.2938" ry="18"/>
<text text-anchor="middle" x="590.296" y="-14.3" font-family="Times,serif" font-size="14.00">037 (a)</text>
</g>
<!-- 07 (a)&#45;&gt;037 (a) -->
<g id="edge23" class="edge"><title>07 (a)&#45;&gt;037 (a)</title>
<path fill="none" stroke="black" d="M588.791,-71.6966C589.011,-63.9827 589.276,-54.7125 589.522,-46.1124"/>
<polygon fill="black" stroke="black" points="593.021,-46.2002 589.808,-36.1043 586.023,-46.0003 593.021,-46.2002"/>
</g>
<!-- 030 (a) -->
<g id="node27" class="node"><title>030 (a)</title>
<ellipse fill="#ff8a8a" stroke="#b43f3f" cx="681.296" cy="-18" rx="36.2938" ry="18"/>
<text text-anchor="middle" x="681.296" y="-14.3" font-family="Times,serif" font-size="14.00">030 (a)</text>
</g>
<!-- 07 (a)&#45;&gt;030 (a) -->
<g id="edge24" class="edge"><title>07 (a)&#45;&gt;030 (a)</title>
<path fill="none" stroke="black" d="M606.67,-75.1703C620.159,-65.0175 638.705,-51.0578 653.934,-39.5952"/>
<polygon fill="black" stroke="black" points="656.115,-42.3341 662,-33.524 651.906,-36.7413 656.115,-42.3341"/>
</g>
<!-- 021 (a)&#45;&gt;036 (a) -->
<g id="edge26" class="edge"><title>021 (a)&#45;&gt;036 (a)</title>
<path fill="none" stroke="black" d="M772.296,-71.6966C772.296,-63.9827 772.296,-54.7125 772.296,-46.1124"/>
<polygon fill="black" stroke="black" points="775.797,-46.1043 772.296,-36.1043 768.797,-46.1044 775.797,-46.1043"/>
</g>
<!-- 021 (a)&#45;&gt;047 (a) -->
<g id="edge27" class="edge"><title>021 (a)&#45;&gt;047 (a)</title>
<path fill="none" stroke="black" d="M791.152,-74.496C804.207,-64.4532 821.782,-50.9344 836.316,-39.7541"/>
<polygon fill="black" stroke="black" points="838.673,-42.3568 844.465,-33.4855 834.405,-36.8084 838.673,-42.3568"/>
</g>
</g>
</svg>
