<?xml version="1.0" encoding="UTF-8" standalone="no"?>
<!DOCTYPE svg PUBLIC "-//W3C//DTD SVG 1.1//EN"
 "http://www.w3.org/Graphics/SVG/1.1/DTD/svg11.dtd">
<!-- Generated by graphviz version 2.38.0 (20140413.2041)
 -->
<!-- Title: %3 Pages: 1 -->
<svg width="991pt" height="408pt"
 viewBox="0.00 0.00 991.40 408.00" xmlns="http://www.w3.org/2000/svg" xmlns:xlink="http://www.w3.org/1999/xlink">
<g id="graph0" class="graph" transform="scale(1 1) rotate(0) translate(4 404)">
<title>%3</title>
<polygon fill="white" stroke="none" points="-4,4 -4,-404 987.397,-404 987.397,4 -4,4"/>
<g id="clust1" class="cluster"><title>cluster_legend</title>
<path fill="none" stroke="black" d="M20,-264C20,-264 210,-264 210,-264 216,-264 222,-270 222,-276 222,-276 222,-380 222,-380 222,-386 216,-392 210,-392 210,-392 20,-392 20,-392 14,-392 8,-386 8,-380 8,-380 8,-276 8,-276 8,-270 14,-264 20,-264"/>
</g>
<!-- leg_s -->
<g id="node1" class="node"><title>leg_s</title>
<text text-anchor="middle" x="115" y="-362.3" font-family="Times,serif" font-size="14.00">Textual flow strength</text>
</g>
<!-- leg_e1 -->
<!-- leg_s&#45;&gt;leg_e1 -->
<g id="edge1" class="edge"><title>leg_s&#45;&gt;leg_e1</title>
<path fill="none" stroke="black" stroke-dasharray="1,5" d="M96.6657,-347.686C91.1324,-342.194 85.1607,-335.989 80,-330 70.1708,-318.593 60.0722,-304.779 52.9137,-294.563"/>
<polygon fill="black" stroke="black" points="55.6142,-292.314 47.056,-286.068 49.8514,-296.288 55.6142,-292.314"/>
<text text-anchor="middle" x="95.5" y="-318.8" font-family="Times,serif" font-size="14.00">&lt;=5 &#160;</text>
</g>
<!-- leg_e2 -->
<!-- leg_s&#45;&gt;leg_e2 -->
<g id="edge2" class="edge"><title>leg_s&#45;&gt;leg_e2</title>
<path fill="none" stroke="black" stroke-dasharray="5,2" d="M115,-347.799C115,-332.794 115,-311.174 115,-296.409"/>
<polygon fill="black" stroke="black" points="118.5,-296.293 115,-286.293 111.5,-296.293 118.5,-296.293"/>
<text text-anchor="middle" x="134" y="-318.8" font-family="Times,serif" font-size="14.00"> &#160;&lt;=25</text>
</g>
<!-- leg_e3 -->
<!-- leg_s&#45;&gt;leg_e3 -->
<g id="edge3" class="edge"><title>leg_s&#45;&gt;leg_e3</title>
<path fill="none" stroke="black" d="M138.503,-347.76C144.906,-342.462 151.567,-336.344 157,-330 166.087,-319.39 174.095,-305.689 179.546,-295.313"/>
<polygon fill="black" stroke="black" points="182.722,-296.789 184.091,-286.283 176.469,-293.642 182.722,-296.789"/>
<text text-anchor="middle" x="179" y="-318.8" font-family="Times,serif" font-size="14.00">&gt;25</text>
</g>
<!-- 063 -->
<g id="node5" class="node"><title>063</title>
<ellipse fill="#cea8f4" stroke="#835da9" cx="489" cy="-192" rx="36.2938" ry="18"/>
<text text-anchor="middle" x="489" y="-188.3" font-family="Times,serif" font-size="14.00">063 (b)</text>
</g>
<!-- 045 -->
<g id="node6" class="node"><title>045</title>
<ellipse fill="#ff8a8a" stroke="#b43f3f" cx="307" cy="-105" rx="36.2938" ry="18"/>
<text text-anchor="middle" x="307" y="-101.3" font-family="Times,serif" font-size="14.00">045 (a)</text>
</g>
<!-- 063&#45;&gt;045 -->
<g id="edge4" class="edge"><title>063&#45;&gt;045</title>
<path fill="none" stroke="#b43f3f" stroke-dasharray="1,5" d="M459.968,-180.956C453.107,-178.63 445.806,-176.195 439,-174 412.908,-165.586 404.706,-167.883 380,-156 363.648,-148.135 346.843,-136.882 333.486,-127.043"/>
<polygon fill="#b43f3f" stroke="#b43f3f" points="335.337,-124.056 325.245,-120.831 331.124,-129.645 335.337,-124.056"/>
<text text-anchor="middle" x="402" y="-144.8" font-family="Times,serif" font-size="14.00">1 (93.1)</text>
</g>
<!-- 031 -->
<g id="node7" class="node"><title>031</title>
<ellipse fill="#ff8a8a" stroke="#b43f3f" cx="398" cy="-105" rx="36.2938" ry="18"/>
<text text-anchor="middle" x="398" y="-101.3" font-family="Times,serif" font-size="14.00">031 (a)</text>
</g>
<!-- 063&#45;&gt;031 -->
<g id="edge5" class="edge"><title>063&#45;&gt;031</title>
<path fill="none" stroke="#b43f3f" stroke-dasharray="1,5" d="M467.628,-177.006C459.008,-170.963 449.186,-163.554 441,-156 432.456,-148.115 423.924,-138.619 416.74,-130.029"/>
<polygon fill="#b43f3f" stroke="#b43f3f" points="419.344,-127.685 410.308,-122.155 413.923,-132.113 419.344,-127.685"/>
<text text-anchor="middle" x="463" y="-144.8" font-family="Times,serif" font-size="14.00">1 (95.8)</text>
</g>
<!-- 011 -->
<g id="node8" class="node"><title>011</title>
<ellipse fill="#ff8a8a" stroke="#b43f3f" cx="489" cy="-105" rx="36.2938" ry="18"/>
<text text-anchor="middle" x="489" y="-101.3" font-family="Times,serif" font-size="14.00">011 (a)</text>
</g>
<!-- 063&#45;&gt;011 -->
<g id="edge6" class="edge"><title>063&#45;&gt;011</title>
<path fill="none" stroke="#b43f3f" stroke-dasharray="1,5" d="M489,-173.799C489,-162.163 489,-146.548 489,-133.237"/>
<polygon fill="#b43f3f" stroke="#b43f3f" points="492.5,-133.175 489,-123.175 485.5,-133.175 492.5,-133.175"/>
<text text-anchor="middle" x="511" y="-144.8" font-family="Times,serif" font-size="14.00">1 (93.1)</text>
</g>
<!-- 07 -->
<g id="node9" class="node"><title>07</title>
<ellipse fill="#ff8a8a" stroke="#b43f3f" cx="575" cy="-105" rx="31.6951" ry="18"/>
<text text-anchor="middle" x="575" y="-101.3" font-family="Times,serif" font-size="14.00">07 (a)</text>
</g>
<!-- 063&#45;&gt;07 -->
<g id="edge7" class="edge"><title>063&#45;&gt;07</title>
<path fill="none" stroke="#b43f3f" stroke-dasharray="1,5" d="M510.604,-177.25C519.26,-171.245 529.046,-163.798 537,-156 544.825,-148.329 552.362,-138.975 558.632,-130.442"/>
<polygon fill="#b43f3f" stroke="#b43f3f" points="561.497,-132.452 564.443,-122.275 555.794,-128.394 561.497,-132.452"/>
<text text-anchor="middle" x="572" y="-144.8" font-family="Times,serif" font-size="14.00">1 (96.6)</text>
</g>
<!-- 028 -->
<g id="node10" class="node"><title>028</title>
<ellipse fill="#ff8a8a" stroke="#b43f3f" cx="661" cy="-105" rx="36.2938" ry="18"/>
<text text-anchor="middle" x="661" y="-101.3" font-family="Times,serif" font-size="14.00">028 (a)</text>
</g>
<!-- 063&#45;&gt;028 -->
<g id="edge8" class="edge"><title>063&#45;&gt;028</title>
<path fill="none" stroke="#b43f3f" stroke-dasharray="1,5" d="M521.708,-183.786C544.025,-178.088 573.81,-168.927 598,-156 612.072,-148.48 626.134,-137.712 637.39,-128.093"/>
<polygon fill="#b43f3f" stroke="#b43f3f" points="639.854,-130.588 645.051,-121.355 635.231,-125.331 639.854,-130.588"/>
<text text-anchor="middle" x="643" y="-144.8" font-family="Times,serif" font-size="14.00">1 (96.6)</text>
</g>
<!-- 021 -->
<g id="node11" class="node"><title>021</title>
<ellipse fill="#ff8a8a" stroke="#b43f3f" cx="856" cy="-105" rx="36.2938" ry="18"/>
<text text-anchor="middle" x="856" y="-101.3" font-family="Times,serif" font-size="14.00">021 (a)</text>
</g>
<!-- 063&#45;&gt;021 -->
<g id="edge9" class="edge"><title>063&#45;&gt;021</title>
<path fill="none" stroke="#b43f3f" stroke-dasharray="1,5" d="M522.987,-185.116C559.288,-178.662 618.436,-167.661 669,-156 719.735,-144.299 777.553,-128.448 815.298,-117.755"/>
<polygon fill="#b43f3f" stroke="#b43f3f" points="816.729,-120.987 825.389,-114.883 814.813,-114.254 816.729,-120.987"/>
<text text-anchor="middle" x="748" y="-144.8" font-family="Times,serif" font-size="14.00">1 (93.1)</text>
</g>
<!-- 038 -->
<g id="node12" class="node"><title>038</title>
<ellipse fill="#ff8a8a" stroke="#b43f3f" cx="130" cy="-18" rx="36.2938" ry="18"/>
<text text-anchor="middle" x="130" y="-14.3" font-family="Times,serif" font-size="14.00">038 (a)</text>
</g>
<!-- 045&#45;&gt;038 -->
<g id="edge10" class="edge"><title>045&#45;&gt;038</title>
<path fill="none" stroke="#b43f3f" stroke-dasharray="1,5" d="M279.538,-92.9063C273.498,-90.733 267.087,-88.6264 261,-87 214.834,-74.6644 193.395,-97.4482 155,-69 147.181,-63.2069 141.652,-54.2817 137.819,-45.5665"/>
<polygon fill="#b43f3f" stroke="#b43f3f" points="141.005,-44.0974 134.179,-35.9941 134.462,-46.5852 141.005,-44.0974"/>
<text text-anchor="middle" x="177" y="-57.8" font-family="Times,serif" font-size="14.00">1 (92.7)</text>
</g>
<!-- 017 -->
<g id="node13" class="node"><title>017</title>
<ellipse fill="#ff8a8a" stroke="#b43f3f" cx="221" cy="-18" rx="36.2938" ry="18"/>
<text text-anchor="middle" x="221" y="-14.3" font-family="Times,serif" font-size="14.00">017 (a)</text>
</g>
<!-- 031&#45;&gt;017 -->
<g id="edge11" class="edge"><title>031&#45;&gt;017</title>
<path fill="none" stroke="#b43f3f" stroke-dasharray="1,5" d="M369.893,-93.2507C364.008,-91.1023 357.822,-88.9183 352,-87 324.748,-78.021 315.776,-81.6048 290,-69 274.451,-61.3964 258.702,-50.2991 246.184,-40.4898"/>
<polygon fill="#b43f3f" stroke="#b43f3f" points="248.06,-37.5072 238.076,-33.9632 243.671,-42.9601 248.06,-37.5072"/>
<text text-anchor="middle" x="312" y="-57.8" font-family="Times,serif" font-size="14.00">1 (94.3)</text>
</g>
<!-- 013 -->
<g id="node14" class="node"><title>013</title>
<ellipse fill="#ff8a8a" stroke="#b43f3f" cx="312" cy="-18" rx="36.2938" ry="18"/>
<text text-anchor="middle" x="312" y="-14.3" font-family="Times,serif" font-size="14.00">013 (a)</text>
</g>
<!-- 031&#45;&gt;013 -->
<g id="edge12" class="edge"><title>031&#45;&gt;013</title>
<path fill="none" stroke="#b43f3f" stroke-dasharray="1,5" d="M376.396,-90.2504C367.74,-84.2452 357.954,-76.7976 350,-69 342.175,-61.3291 334.638,-51.9752 328.368,-43.4419"/>
<polygon fill="#b43f3f" stroke="#b43f3f" points="331.206,-41.3937 322.557,-35.2749 325.503,-45.452 331.206,-41.3937"/>
<text text-anchor="middle" x="372" y="-57.8" font-family="Times,serif" font-size="14.00">1 (97.1)</text>
</g>
<!-- 01 -->
<g id="node15" class="node"><title>01</title>
<ellipse fill="#ff8a8a" stroke="#b43f3f" cx="398" cy="-18" rx="31.6951" ry="18"/>
<text text-anchor="middle" x="398" y="-14.3" font-family="Times,serif" font-size="14.00">01 (a)</text>
</g>
<!-- 031&#45;&gt;01 -->
<g id="edge13" class="edge"><title>031&#45;&gt;01</title>
<path fill="none" stroke="#b43f3f" stroke-dasharray="1,5" d="M398,-86.799C398,-75.1626 398,-59.5479 398,-46.2368"/>
<polygon fill="#b43f3f" stroke="#b43f3f" points="401.5,-46.1754 398,-36.1754 394.5,-46.1755 401.5,-46.1754"/>
<text text-anchor="middle" x="420" y="-57.8" font-family="Times,serif" font-size="14.00">2 (48.5)</text>
</g>
<!-- 034 -->
<g id="node16" class="node"><title>034</title>
<ellipse fill="#ff8a8a" stroke="#b43f3f" cx="484" cy="-18" rx="36.2938" ry="18"/>
<text text-anchor="middle" x="484" y="-14.3" font-family="Times,serif" font-size="14.00">034 (a)</text>
</g>
<!-- 07&#45;&gt;034 -->
<g id="edge14" class="edge"><title>07&#45;&gt;034</title>
<path fill="none" stroke="#b43f3f" stroke-dasharray="1,5" d="M554.581,-90.6717C545.737,-84.5121 535.489,-76.8337 527,-69 518.456,-61.1154 509.924,-51.6186 502.74,-43.0293"/>
<polygon fill="#b43f3f" stroke="#b43f3f" points="505.344,-40.6853 496.308,-35.1545 499.923,-45.1135 505.344,-40.6853"/>
<text text-anchor="middle" x="549" y="-57.8" font-family="Times,serif" font-size="14.00">1 (95.1)</text>
</g>
<!-- 030 -->
<g id="node17" class="node"><title>030</title>
<ellipse fill="#ff8a8a" stroke="#b43f3f" cx="575" cy="-18" rx="36.2938" ry="18"/>
<text text-anchor="middle" x="575" y="-14.3" font-family="Times,serif" font-size="14.00">030 (a)</text>
</g>
<!-- 07&#45;&gt;030 -->
<g id="edge15" class="edge"><title>07&#45;&gt;030</title>
<path fill="none" stroke="#b43f3f" stroke-dasharray="1,5" d="M575,-86.799C575,-75.1626 575,-59.5479 575,-46.2368"/>
<polygon fill="#b43f3f" stroke="#b43f3f" points="578.5,-46.1754 575,-36.1754 571.5,-46.1755 578.5,-46.1754"/>
<text text-anchor="middle" x="597" y="-57.8" font-family="Times,serif" font-size="14.00">1 (95.1)</text>
</g>
<!-- 0211 -->
<g id="node18" class="node"><title>0211</title>
<ellipse fill="#ff8a8a" stroke="#b43f3f" cx="670" cy="-18" rx="40.0939" ry="18"/>
<text text-anchor="middle" x="670" y="-14.3" font-family="Times,serif" font-size="14.00">0211 (a)</text>
</g>
<!-- 07&#45;&gt;0211 -->
<g id="edge16" class="edge"><title>07&#45;&gt;0211</title>
<path fill="none" stroke="#b43f3f" stroke-dasharray="1,5" d="M594.786,-90.8221C603.703,-84.5722 614.185,-76.7806 623,-69 632.163,-60.9115 641.531,-51.2757 649.467,-42.6319"/>
<polygon fill="#b43f3f" stroke="#b43f3f" points="652.21,-44.8165 656.306,-35.0454 647.01,-40.1295 652.21,-44.8165"/>
<text text-anchor="middle" x="661" y="-57.8" font-family="Times,serif" font-size="14.00">2 (82.9)</text>
</g>
<!-- 037 -->
<g id="node19" class="node"><title>037</title>
<ellipse fill="#ff8a8a" stroke="#b43f3f" cx="765" cy="-18" rx="36.2938" ry="18"/>
<text text-anchor="middle" x="765" y="-14.3" font-family="Times,serif" font-size="14.00">037 (a)</text>
</g>
<!-- 07&#45;&gt;037 -->
<g id="edge17" class="edge"><title>07&#45;&gt;037</title>
<path fill="none" stroke="#b43f3f" stroke-dasharray="1,5" d="M599.498,-93.1655C604.88,-90.9761 610.588,-88.7974 616,-87 646.894,-76.7388 657.133,-81.9513 687,-69 704.842,-61.2628 723.23,-49.6811 737.667,-39.6122"/>
<polygon fill="#b43f3f" stroke="#b43f3f" points="740.002,-42.2459 746.106,-33.5863 735.934,-36.5492 740.002,-42.2459"/>
<text text-anchor="middle" x="737" y="-57.8" font-family="Times,serif" font-size="14.00">1 (97.5)</text>
</g>
<!-- 036 -->
<g id="node23" class="node"><title>036</title>
<ellipse fill="#ff8a8a" stroke="#b43f3f" cx="856" cy="-18" rx="36.2938" ry="18"/>
<text text-anchor="middle" x="856" y="-14.3" font-family="Times,serif" font-size="14.00">036 (a)</text>
</g>
<!-- 021&#45;&gt;036 -->
<g id="edge20" class="edge"><title>021&#45;&gt;036</title>
<path fill="none" stroke="#b43f3f" stroke-dasharray="1,5" d="M856,-86.799C856,-75.1626 856,-59.5479 856,-46.2368"/>
<polygon fill="#b43f3f" stroke="#b43f3f" points="859.5,-46.1754 856,-36.1754 852.5,-46.1755 859.5,-46.1754"/>
<text text-anchor="middle" x="878" y="-57.8" font-family="Times,serif" font-size="14.00">1 (97.6)</text>
</g>
<!-- 047 -->
<g id="node24" class="node"><title>047</title>
<ellipse fill="#ff8a8a" stroke="#b43f3f" cx="947" cy="-18" rx="36.2938" ry="18"/>
<text text-anchor="middle" x="947" y="-14.3" font-family="Times,serif" font-size="14.00">047 (a)</text>
</g>
<!-- 021&#45;&gt;047 -->
<g id="edge21" class="edge"><title>021&#45;&gt;047</title>
<path fill="none" stroke="#b43f3f" stroke-dasharray="1,5" d="M877.372,-90.006C885.992,-83.9634 895.814,-76.5539 904,-69 912.544,-61.1154 921.076,-51.6186 928.26,-43.0293"/>
<polygon fill="#b43f3f" stroke="#b43f3f" points="931.077,-45.1135 934.692,-35.1545 925.656,-40.6853 931.077,-45.1135"/>
<text text-anchor="middle" x="940" y="-57.8" font-family="Times,serif" font-size="14.00">1 (95.1)</text>
</g>
<!-- 044 -->
<g id="node20" class="node"><title>044</title>
<ellipse fill="#cea8f4" stroke="#835da9" cx="216" cy="-192" rx="36.2938" ry="18"/>
<text text-anchor="middle" x="216" y="-188.3" font-family="Times,serif" font-size="14.00">044 (b)</text>
</g>
<!-- 0141 -->
<g id="node21" class="node"><title>0141</title>
<ellipse fill="#ff8a8a" stroke="#b43f3f" cx="121" cy="-105" rx="40.0939" ry="18"/>
<text text-anchor="middle" x="121" y="-101.3" font-family="Times,serif" font-size="14.00">0141 (a)</text>
</g>
<!-- 044&#45;&gt;0141 -->
<g id="edge18" class="edge"><title>044&#45;&gt;0141</title>
<path fill="none" stroke="#b43f3f" stroke-dasharray="1,5" d="M195.27,-177.159C186.564,-171.025 176.505,-163.508 168,-156 158.837,-147.911 149.469,-138.276 141.533,-129.632"/>
<polygon fill="#b43f3f" stroke="#b43f3f" points="143.99,-127.129 134.694,-122.045 138.79,-131.816 143.99,-127.129"/>
<text text-anchor="middle" x="190" y="-144.8" font-family="Times,serif" font-size="14.00">1 (89.2)</text>
</g>
<!-- 022 -->
<g id="node22" class="node"><title>022</title>
<ellipse fill="#cea8f4" stroke="#835da9" cx="216" cy="-105" rx="36.2938" ry="18"/>
<text text-anchor="middle" x="216" y="-101.3" font-family="Times,serif" font-size="14.00">022 (b)</text>
</g>
<!-- 044&#45;&gt;022 -->
<g id="edge19" class="edge"><title>044&#45;&gt;022</title>
<path fill="none" stroke="#835da9" stroke-dasharray="1,5" d="M216,-173.799C216,-162.163 216,-146.548 216,-133.237"/>
<polygon fill="#835da9" stroke="#835da9" points="219.5,-133.175 216,-123.175 212.5,-133.175 219.5,-133.175"/>
<text text-anchor="middle" x="238" y="-144.8" font-family="Times,serif" font-size="14.00">1 (91.7)</text>
</g>
<!-- A -->
<g id="node25" class="node"><title>A</title>
<ellipse fill="#cea8f4" stroke="#835da9" cx="394" cy="-366" rx="29.795" ry="18"/>
<text text-anchor="middle" x="394" y="-362.3" font-family="Times,serif" font-size="14.00">A (b)</text>
</g>
<!-- 05 -->
<g id="node26" class="node"><title>05</title>
<ellipse fill="#ff8a8a" stroke="#b43f3f" cx="264" cy="-279" rx="31.6951" ry="18"/>
<text text-anchor="middle" x="264" y="-275.3" font-family="Times,serif" font-size="14.00">05 (a)</text>
</g>
<!-- A&#45;&gt;05 -->
<g id="edge22" class="edge"><title>A&#45;&gt;05</title>
<path fill="none" stroke="#b43f3f" stroke-dasharray="1,5" d="M367.557,-357.512C349.954,-351.74 326.867,-342.602 309,-330 298.917,-322.888 289.491,-313.13 281.899,-304.121"/>
<polygon fill="#b43f3f" stroke="#b43f3f" points="284.477,-301.742 275.474,-296.155 279.028,-306.137 284.477,-301.742"/>
<text text-anchor="middle" x="331" y="-318.8" font-family="Times,serif" font-size="14.00">2 (76.9)</text>
</g>
<!-- 03 -->
<g id="node27" class="node"><title>03</title>
<ellipse fill="#cea8f4" stroke="#835da9" cx="346" cy="-279" rx="32.4942" ry="18"/>
<text text-anchor="middle" x="346" y="-275.3" font-family="Times,serif" font-size="14.00">03 (b)</text>
</g>
<!-- A&#45;&gt;03 -->
<g id="edge23" class="edge"><title>A&#45;&gt;03</title>
<path fill="none" stroke="#835da9" stroke-dasharray="1,5" d="M379.259,-350.244C373.923,-344.319 368.187,-337.194 364,-330 359.805,-322.792 356.328,-314.441 353.586,-306.652"/>
<polygon fill="#835da9" stroke="#835da9" points="356.828,-305.306 350.405,-296.881 350.172,-307.473 356.828,-305.306"/>
<text text-anchor="middle" x="386" y="-318.8" font-family="Times,serif" font-size="14.00">1 (93.3)</text>
</g>
<!-- 019 -->
<g id="node28" class="node"><title>019</title>
<ellipse fill="#cea8f4" stroke="#835da9" cx="433" cy="-279" rx="36.2938" ry="18"/>
<text text-anchor="middle" x="433" y="-275.3" font-family="Times,serif" font-size="14.00">019 (b)</text>
</g>
<!-- A&#45;&gt;019 -->
<g id="edge24" class="edge"><title>A&#45;&gt;019</title>
<path fill="none" stroke="#835da9" stroke-dasharray="1,5" d="M401.705,-348.207C407.207,-336.216 414.715,-319.851 420.999,-306.157"/>
<polygon fill="#835da9" stroke="#835da9" points="424.322,-307.307 425.311,-296.758 417.959,-304.388 424.322,-307.307"/>
<text text-anchor="middle" x="438" y="-318.8" font-family="Times,serif" font-size="14.00">1 (93.3)</text>
</g>
<!-- P75 -->
<g id="node29" class="node"><title>P75</title>
<ellipse fill="#cea8f4" stroke="#835da9" cx="524" cy="-279" rx="37.0935" ry="18"/>
<text text-anchor="middle" x="524" y="-275.3" font-family="Times,serif" font-size="14.00">P75 (b)</text>
</g>
<!-- A&#45;&gt;P75 -->
<g id="edge25" class="edge"><title>A&#45;&gt;P75</title>
<path fill="none" stroke="#835da9" stroke-dasharray="1,5" d="M417.759,-354.788C431.671,-348.406 449.331,-339.594 464,-330 476.57,-321.779 489.495,-311.312 500.114,-302.081"/>
<polygon fill="#835da9" stroke="#835da9" points="502.58,-304.573 507.742,-295.321 497.937,-299.334 502.58,-304.573"/>
<text text-anchor="middle" x="506" y="-318.8" font-family="Times,serif" font-size="14.00">1 (93.3)</text>
</g>
<!-- 03&#45;&gt;044 -->
<g id="edge26" class="edge"><title>03&#45;&gt;044</title>
<path fill="none" stroke="#835da9" stroke-dasharray="1,5" d="M320.474,-267.537C306.3,-261.255 288.629,-252.626 274,-243 261.907,-235.043 249.607,-224.808 239.466,-215.674"/>
<polygon fill="#835da9" stroke="#835da9" points="241.566,-212.85 231.84,-208.649 236.823,-217.998 241.566,-212.85"/>
<text text-anchor="middle" x="296" y="-231.8" font-family="Times,serif" font-size="14.00">1 (89.2)</text>
</g>
<!-- 02 -->
<g id="node30" class="node"><title>02</title>
<ellipse fill="#cea8f4" stroke="#835da9" cx="307" cy="-192" rx="32.4942" ry="18"/>
<text text-anchor="middle" x="307" y="-188.3" font-family="Times,serif" font-size="14.00">02 (b)</text>
</g>
<!-- 03&#45;&gt;02 -->
<g id="edge27" class="edge"><title>03&#45;&gt;02</title>
<path fill="none" stroke="#835da9" stroke-dasharray="1,5" d="M337.128,-261.396C334.131,-255.62 330.83,-249.069 328,-243 324.419,-235.32 320.76,-226.861 317.521,-219.118"/>
<polygon fill="#835da9" stroke="#835da9" points="320.73,-217.718 313.68,-209.808 314.259,-220.387 320.73,-217.718"/>
<text text-anchor="middle" x="350" y="-231.8" font-family="Times,serif" font-size="14.00">1 (86.5)</text>
</g>
<!-- 032 -->
<g id="node31" class="node"><title>032</title>
<ellipse fill="#cea8f4" stroke="#835da9" cx="394" cy="-192" rx="36.2938" ry="18"/>
<text text-anchor="middle" x="394" y="-188.3" font-family="Times,serif" font-size="14.00">032 (b)</text>
</g>
<!-- 03&#45;&gt;032 -->
<g id="edge28" class="edge"><title>03&#45;&gt;032</title>
<path fill="none" stroke="#835da9" stroke-dasharray="1,5" d="M358.959,-262.139C363.395,-256.316 368.195,-249.544 372,-243 376.291,-235.622 380.284,-227.251 383.658,-219.498"/>
<polygon fill="#835da9" stroke="#835da9" points="386.947,-220.706 387.577,-210.13 380.489,-218.004 386.947,-220.706"/>
<text text-anchor="middle" x="402" y="-231.8" font-family="Times,serif" font-size="14.00">1 (91.7)</text>
</g>
<!-- 019&#45;&gt;063 -->
<g id="edge29" class="edge"><title>019&#45;&gt;063</title>
<path fill="none" stroke="#835da9" stroke-dasharray="1,5" d="M443.797,-261.611C451.932,-249.264 463.229,-232.117 472.494,-218.053"/>
<polygon fill="#835da9" stroke="#835da9" points="475.657,-219.615 478.236,-209.339 469.811,-215.764 475.657,-219.615"/>
<text text-anchor="middle" x="487" y="-231.8" font-family="Times,serif" font-size="14.00">1 (85.7)</text>
</g>
</g>
</svg>
