<?xml version="1.0" encoding="UTF-8" standalone="no"?>
<!DOCTYPE svg PUBLIC "-//W3C//DTD SVG 1.1//EN"
 "http://www.w3.org/Graphics/SVG/1.1/DTD/svg11.dtd">
<!-- Generated by graphviz version 2.38.0 (20140413.2041)
 -->
<!-- Title: G Pages: 1 -->
<svg width="958pt" height="332pt"
 viewBox="0.00 0.00 957.74 332.00" xmlns="http://www.w3.org/2000/svg" xmlns:xlink="http://www.w3.org/1999/xlink">
<g id="graph0" class="graph" transform="scale(1 1) rotate(0) translate(4 328)">
<title>G</title>
<polygon fill="white" stroke="none" points="-4,4 -4,-328 953.743,-328 953.743,4 -4,4"/>
<!-- 038 (a) -->
<g id="node1" class="node"><title>038 (a)</title>
<ellipse fill="#ff8a8a" stroke="#b43f3f" cx="313.397" cy="-18" rx="36.2938" ry="18"/>
<text text-anchor="middle" x="313.397" y="-14.3" font-family="Times,serif" font-size="14.00">038 (a)</text>
</g>
<!-- 037 (a) -->
<g id="node2" class="node"><title>037 (a)</title>
<ellipse fill="#ff8a8a" stroke="#b43f3f" cx="404.397" cy="-18" rx="36.2938" ry="18"/>
<text text-anchor="middle" x="404.397" y="-14.3" font-family="Times,serif" font-size="14.00">037 (a)</text>
</g>
<!-- 019 (b) -->
<g id="node3" class="node"><title>019 (b)</title>
<ellipse fill="#cea8f4" stroke="#835da9" cx="547.397" cy="-234" rx="36.2938" ry="18"/>
<text text-anchor="middle" x="547.397" y="-230.3" font-family="Times,serif" font-size="14.00">019 (b)</text>
</g>
<!-- 063 (b) -->
<g id="node8" class="node"><title>063 (b)</title>
<ellipse fill="#cea8f4" stroke="#835da9" cx="406.397" cy="-162" rx="36.2938" ry="18"/>
<text text-anchor="middle" x="406.397" y="-158.3" font-family="Times,serif" font-size="14.00">063 (b)</text>
</g>
<!-- 019 (b)&#45;&gt;063 (b) -->
<g id="edge1" class="edge"><title>019 (b)&#45;&gt;063 (b)</title>
<path fill="none" stroke="black" d="M522.513,-220.647C499.8,-209.37 466.016,-192.598 440.737,-180.048"/>
<polygon fill="black" stroke="black" points="442.019,-176.777 431.506,-175.465 438.906,-183.047 442.019,-176.777"/>
</g>
<!-- 032 (b) -->
<g id="node4" class="node"><title>032 (b)</title>
<ellipse fill="#cea8f4" stroke="#835da9" cx="685.397" cy="-162" rx="36.2938" ry="18"/>
<text text-anchor="middle" x="685.397" y="-158.3" font-family="Times,serif" font-size="14.00">032 (b)</text>
</g>
<!-- A (b) -->
<g id="node5" class="node"><title>A (b)</title>
<ellipse fill="#cea8f4" stroke="#835da9" cx="774.397" cy="-306" rx="29.795" ry="18"/>
<text text-anchor="middle" x="774.397" y="-302.3" font-family="Times,serif" font-size="14.00">A (b)</text>
</g>
<!-- A (b)&#45;&gt;019 (b) -->
<g id="edge3" class="edge"><title>A (b)&#45;&gt;019 (b)</title>
<path fill="none" stroke="black" d="M748.357,-296.97C708.865,-284.792 633.527,-261.56 587.153,-247.26"/>
<polygon fill="black" stroke="black" points="588.025,-243.866 577.438,-244.264 585.963,-250.555 588.025,-243.866"/>
</g>
<!-- 03 (b) -->
<g id="node11" class="node"><title>03 (b)</title>
<ellipse fill="#cea8f4" stroke="#835da9" cx="730.397" cy="-234" rx="32.4942" ry="18"/>
<text text-anchor="middle" x="730.397" y="-230.3" font-family="Times,serif" font-size="14.00">03 (b)</text>
</g>
<!-- A (b)&#45;&gt;03 (b) -->
<g id="edge5" class="edge"><title>A (b)&#45;&gt;03 (b)</title>
<path fill="none" stroke="black" d="M764.192,-288.765C758.805,-280.195 752.079,-269.494 746.048,-259.9"/>
<polygon fill="black" stroke="black" points="748.832,-257.751 740.547,-251.147 742.905,-261.476 748.832,-257.751"/>
</g>
<!-- P75 (b) -->
<g id="node12" class="node"><title>P75 (b)</title>
<ellipse fill="#cea8f4" stroke="#835da9" cx="818.397" cy="-234" rx="37.0935" ry="18"/>
<text text-anchor="middle" x="818.397" y="-230.3" font-family="Times,serif" font-size="14.00">P75 (b)</text>
</g>
<!-- A (b)&#45;&gt;P75 (b) -->
<g id="edge2" class="edge"><title>A (b)&#45;&gt;P75 (b)</title>
<path fill="none" stroke="black" d="M784.602,-288.765C789.912,-280.317 796.523,-269.799 802.486,-260.312"/>
<polygon fill="black" stroke="black" points="805.583,-261.962 807.941,-251.633 799.656,-258.237 805.583,-261.962"/>
</g>
<!-- 05/2 (a) -->
<g id="node13" class="node"><title>05/2 (a)</title>
<ellipse fill="#ff8a8a" stroke="#b43f3f" cx="911.397" cy="-234" rx="38.1938" ry="18"/>
<text text-anchor="middle" x="911.397" y="-230.3" font-family="Times,serif" font-size="14.00">05/2 (a)</text>
</g>
<!-- A (b)&#45;&gt;05/2 (a) -->
<g id="edge4" class="edge"><title>A (b)&#45;&gt;05/2 (a)</title>
<path fill="none" stroke="black" d="M796.408,-293.753C818.139,-282.65 851.688,-265.508 876.95,-252.601"/>
<polygon fill="black" stroke="black" points="878.872,-255.549 886.184,-247.882 875.687,-249.316 878.872,-255.549"/>
</g>
<!-- 028 (a) -->
<g id="node6" class="node"><title>028 (a)</title>
<ellipse fill="#ff8a8a" stroke="#b43f3f" cx="129.397" cy="-90" rx="36.2938" ry="18"/>
<text text-anchor="middle" x="129.397" y="-86.3" font-family="Times,serif" font-size="14.00">028 (a)</text>
</g>
<!-- 022 (b) -->
<g id="node7" class="node"><title>022 (b)</title>
<ellipse fill="#cea8f4" stroke="#835da9" cx="776.397" cy="-90" rx="36.2938" ry="18"/>
<text text-anchor="middle" x="776.397" y="-86.3" font-family="Times,serif" font-size="14.00">022 (b)</text>
</g>
<!-- 063 (b)&#45;&gt;028 (a) -->
<g id="edge6" class="edge"><title>063 (b)&#45;&gt;028 (a)</title>
<path fill="none" stroke="black" d="M372.766,-154.694C327.482,-145.885 244.598,-128.633 175.397,-108 172.472,-107.128 169.465,-106.167 166.455,-105.159"/>
<polygon fill="black" stroke="black" points="167.528,-101.826 156.933,-101.83 165.218,-108.434 167.528,-101.826"/>
</g>
<!-- 031 (a) -->
<g id="node10" class="node"><title>031 (a)</title>
<ellipse fill="#ff8a8a" stroke="#b43f3f" cx="220.397" cy="-90" rx="36.2938" ry="18"/>
<text text-anchor="middle" x="220.397" y="-86.3" font-family="Times,serif" font-size="14.00">031 (a)</text>
</g>
<!-- 063 (b)&#45;&gt;031 (a) -->
<g id="edge7" class="edge"><title>063 (b)&#45;&gt;031 (a)</title>
<path fill="none" stroke="black" d="M378.147,-150.369C346.099,-138.307 293.685,-118.582 258.151,-105.208"/>
<polygon fill="black" stroke="black" points="259.199,-101.863 248.607,-101.617 256.733,-108.415 259.199,-101.863"/>
</g>
<!-- 011 (a) -->
<g id="node17" class="node"><title>011 (a)</title>
<ellipse fill="#ff8a8a" stroke="#b43f3f" cx="315.397" cy="-90" rx="36.2938" ry="18"/>
<text text-anchor="middle" x="315.397" y="-86.3" font-family="Times,serif" font-size="14.00">011 (a)</text>
</g>
<!-- 063 (b)&#45;&gt;011 (a) -->
<g id="edge10" class="edge"><title>063 (b)&#45;&gt;011 (a)</title>
<path fill="none" stroke="black" d="M387.542,-146.496C374.486,-136.453 356.912,-122.934 342.377,-111.754"/>
<polygon fill="black" stroke="black" points="344.288,-108.808 334.228,-105.485 340.02,-114.357 344.288,-108.808"/>
</g>
<!-- 045 (a) -->
<g id="node21" class="node"><title>045 (a)</title>
<ellipse fill="#ff8a8a" stroke="#b43f3f" cx="406.397" cy="-90" rx="36.2938" ry="18"/>
<text text-anchor="middle" x="406.397" y="-86.3" font-family="Times,serif" font-size="14.00">045 (a)</text>
</g>
<!-- 063 (b)&#45;&gt;045 (a) -->
<g id="edge11" class="edge"><title>063 (b)&#45;&gt;045 (a)</title>
<path fill="none" stroke="black" d="M406.397,-143.697C406.397,-135.983 406.397,-126.712 406.397,-118.112"/>
<polygon fill="black" stroke="black" points="409.897,-118.104 406.397,-108.104 402.897,-118.104 409.897,-118.104"/>
</g>
<!-- 07 (a) -->
<g id="node24" class="node"><title>07 (a)</title>
<ellipse fill="#ff8a8a" stroke="#b43f3f" cx="495.397" cy="-90" rx="31.6951" ry="18"/>
<text text-anchor="middle" x="495.397" y="-86.3" font-family="Times,serif" font-size="14.00">07 (a)</text>
</g>
<!-- 063 (b)&#45;&gt;07 (a) -->
<g id="edge8" class="edge"><title>063 (b)&#45;&gt;07 (a)</title>
<path fill="none" stroke="black" d="M425.271,-146.155C438.153,-136.023 455.38,-122.474 469.536,-111.34"/>
<polygon fill="black" stroke="black" points="471.764,-114.041 477.46,-105.108 467.436,-108.539 471.764,-114.041"/>
</g>
<!-- 021 (a) -->
<g id="node27" class="node"><title>021 (a)</title>
<ellipse fill="#ff8a8a" stroke="#b43f3f" cx="685.397" cy="-90" rx="36.2938" ry="18"/>
<text text-anchor="middle" x="685.397" y="-86.3" font-family="Times,serif" font-size="14.00">021 (a)</text>
</g>
<!-- 063 (b)&#45;&gt;021 (a) -->
<g id="edge9" class="edge"><title>063 (b)&#45;&gt;021 (a)</title>
<path fill="none" stroke="black" d="M438.13,-153.038C488.685,-140.354 587.521,-115.557 643.718,-101.457"/>
<polygon fill="black" stroke="black" points="644.846,-104.783 653.693,-98.9543 643.142,-97.9931 644.846,-104.783"/>
</g>
<!-- 0141 (a) -->
<g id="node9" class="node"><title>0141 (a)</title>
<ellipse fill="#ff8a8a" stroke="#b43f3f" cx="871.397" cy="-90" rx="40.0939" ry="18"/>
<text text-anchor="middle" x="871.397" y="-86.3" font-family="Times,serif" font-size="14.00">0141 (a)</text>
</g>
<!-- 017 (a) -->
<g id="node16" class="node"><title>017 (a)</title>
<ellipse fill="#ff8a8a" stroke="#b43f3f" cx="36.3968" cy="-18" rx="36.2938" ry="18"/>
<text text-anchor="middle" x="36.3968" y="-14.3" font-family="Times,serif" font-size="14.00">017 (a)</text>
</g>
<!-- 031 (a)&#45;&gt;017 (a) -->
<g id="edge13" class="edge"><title>031 (a)&#45;&gt;017 (a)</title>
<path fill="none" stroke="black" d="M192.451,-78.3685C160.748,-66.3074 108.897,-46.5817 73.7447,-33.2085"/>
<polygon fill="black" stroke="black" points="74.8944,-29.9012 64.3034,-29.6166 72.4053,-36.4437 74.8944,-29.9012"/>
</g>
<!-- 013 (a) -->
<g id="node23" class="node"><title>013 (a)</title>
<ellipse fill="#ff8a8a" stroke="#b43f3f" cx="127.397" cy="-18" rx="36.2938" ry="18"/>
<text text-anchor="middle" x="127.397" y="-14.3" font-family="Times,serif" font-size="14.00">013 (a)</text>
</g>
<!-- 031 (a)&#45;&gt;013 (a) -->
<g id="edge14" class="edge"><title>031 (a)&#45;&gt;013 (a)</title>
<path fill="none" stroke="black" d="M201.127,-74.496C187.785,-64.4532 169.824,-50.9344 154.97,-39.7541"/>
<polygon fill="black" stroke="black" points="156.736,-36.7028 146.642,-33.4855 152.527,-42.2956 156.736,-36.7028"/>
</g>
<!-- 01/2 (a) -->
<g id="node25" class="node"><title>01/2 (a)</title>
<ellipse fill="#ff8a8a" stroke="#b43f3f" cx="220.397" cy="-18" rx="38.1938" ry="18"/>
<text text-anchor="middle" x="220.397" y="-14.3" font-family="Times,serif" font-size="14.00">01/2 (a)</text>
</g>
<!-- 031 (a)&#45;&gt;01/2 (a) -->
<g id="edge12" class="edge"><title>031 (a)&#45;&gt;01/2 (a)</title>
<path fill="none" stroke="black" d="M220.397,-71.6966C220.397,-63.9827 220.397,-54.7125 220.397,-46.1124"/>
<polygon fill="black" stroke="black" points="223.897,-46.1043 220.397,-36.1043 216.897,-46.1044 223.897,-46.1043"/>
</g>
<!-- 03 (b)&#45;&gt;032 (b) -->
<g id="edge17" class="edge"><title>03 (b)&#45;&gt;032 (b)</title>
<path fill="none" stroke="black" d="M719.96,-216.765C714.529,-208.317 707.768,-197.799 701.669,-188.312"/>
<polygon fill="black" stroke="black" points="704.441,-186.153 696.09,-179.633 698.553,-189.938 704.441,-186.153"/>
</g>
<!-- 044 (b) -->
<g id="node18" class="node"><title>044 (b)</title>
<ellipse fill="#cea8f4" stroke="#835da9" cx="776.397" cy="-162" rx="36.2938" ry="18"/>
<text text-anchor="middle" x="776.397" y="-158.3" font-family="Times,serif" font-size="14.00">044 (b)</text>
</g>
<!-- 03 (b)&#45;&gt;044 (b) -->
<g id="edge15" class="edge"><title>03 (b)&#45;&gt;044 (b)</title>
<path fill="none" stroke="black" d="M741.066,-216.765C746.674,-208.23 753.671,-197.582 759.956,-188.019"/>
<polygon fill="black" stroke="black" points="762.899,-189.913 765.466,-179.633 757.049,-186.068 762.899,-189.913"/>
</g>
<!-- 02 (b) -->
<g id="node19" class="node"><title>02 (b)</title>
<ellipse fill="#cea8f4" stroke="#835da9" cx="863.397" cy="-162" rx="32.4942" ry="18"/>
<text text-anchor="middle" x="863.397" y="-158.3" font-family="Times,serif" font-size="14.00">02 (b)</text>
</g>
<!-- 03 (b)&#45;&gt;02 (b) -->
<g id="edge16" class="edge"><title>03 (b)&#45;&gt;02 (b)</title>
<path fill="none" stroke="black" d="M753.26,-220.967C774.766,-209.648 807.174,-192.591 831.273,-179.907"/>
<polygon fill="black" stroke="black" points="833.167,-182.865 840.387,-175.111 829.907,-176.671 833.167,-182.865"/>
</g>
<!-- 034 (a) -->
<g id="node14" class="node"><title>034 (a)</title>
<ellipse fill="#ff8a8a" stroke="#b43f3f" cx="495.397" cy="-18" rx="36.2938" ry="18"/>
<text text-anchor="middle" x="495.397" y="-14.3" font-family="Times,serif" font-size="14.00">034 (a)</text>
</g>
<!-- 036 (a) -->
<g id="node15" class="node"><title>036 (a)</title>
<ellipse fill="#ff8a8a" stroke="#b43f3f" cx="790.397" cy="-18" rx="36.2938" ry="18"/>
<text text-anchor="middle" x="790.397" y="-14.3" font-family="Times,serif" font-size="14.00">036 (a)</text>
</g>
<!-- 044 (b)&#45;&gt;022 (b) -->
<g id="edge18" class="edge"><title>044 (b)&#45;&gt;022 (b)</title>
<path fill="none" stroke="black" d="M776.397,-143.697C776.397,-135.983 776.397,-126.712 776.397,-118.112"/>
<polygon fill="black" stroke="black" points="779.897,-118.104 776.397,-108.104 772.897,-118.104 779.897,-118.104"/>
</g>
<!-- 044 (b)&#45;&gt;0141 (a) -->
<g id="edge19" class="edge"><title>044 (b)&#45;&gt;0141 (a)</title>
<path fill="none" stroke="black" d="M796.081,-146.496C809.746,-136.427 828.153,-122.864 843.35,-111.666"/>
<polygon fill="black" stroke="black" points="845.437,-114.476 851.411,-105.726 841.284,-108.841 845.437,-114.476"/>
</g>
<!-- 047 (a) -->
<g id="node20" class="node"><title>047 (a)</title>
<ellipse fill="#ff8a8a" stroke="#b43f3f" cx="881.397" cy="-18" rx="36.2938" ry="18"/>
<text text-anchor="middle" x="881.397" y="-14.3" font-family="Times,serif" font-size="14.00">047 (a)</text>
</g>
<!-- 045 (a)&#45;&gt;038 (a) -->
<g id="edge20" class="edge"><title>045 (a)&#45;&gt;038 (a)</title>
<path fill="none" stroke="black" d="M387.127,-74.496C373.785,-64.4532 355.824,-50.9344 340.97,-39.7541"/>
<polygon fill="black" stroke="black" points="342.736,-36.7028 332.642,-33.4855 338.527,-42.2956 342.736,-36.7028"/>
</g>
<!-- 0211/2 (a) -->
<g id="node22" class="node"><title>0211/2 (a)</title>
<ellipse fill="#ff8a8a" stroke="#b43f3f" cx="597.397" cy="-18" rx="47.3916" ry="18"/>
<text text-anchor="middle" x="597.397" y="-14.3" font-family="Times,serif" font-size="14.00">0211/2 (a)</text>
</g>
<!-- 07 (a)&#45;&gt;037 (a) -->
<g id="edge22" class="edge"><title>07 (a)&#45;&gt;037 (a)</title>
<path fill="none" stroke="black" d="M476.982,-74.8345C463.957,-64.8158 446.278,-51.2163 431.628,-39.9473"/>
<polygon fill="black" stroke="black" points="433.471,-36.9493 423.411,-33.6263 429.203,-42.4977 433.471,-36.9493"/>
</g>
<!-- 07 (a)&#45;&gt;034 (a) -->
<g id="edge24" class="edge"><title>07 (a)&#45;&gt;034 (a)</title>
<path fill="none" stroke="black" d="M495.397,-71.6966C495.397,-63.9827 495.397,-54.7125 495.397,-46.1124"/>
<polygon fill="black" stroke="black" points="498.897,-46.1043 495.397,-36.1043 491.897,-46.1044 498.897,-46.1043"/>
</g>
<!-- 07 (a)&#45;&gt;0211/2 (a) -->
<g id="edge21" class="edge"><title>07 (a)&#45;&gt;0211/2 (a)</title>
<path fill="none" stroke="black" d="M515.063,-75.5033C529.754,-65.4215 550.108,-51.4532 566.902,-39.9276"/>
<polygon fill="black" stroke="black" points="569.047,-42.7009 575.311,-34.1566 565.086,-36.9293 569.047,-42.7009"/>
</g>
<!-- 030 (a) -->
<g id="node26" class="node"><title>030 (a)</title>
<ellipse fill="#ff8a8a" stroke="#b43f3f" cx="699.397" cy="-18" rx="36.2938" ry="18"/>
<text text-anchor="middle" x="699.397" y="-14.3" font-family="Times,serif" font-size="14.00">030 (a)</text>
</g>
<!-- 07 (a)&#45;&gt;030 (a) -->
<g id="edge23" class="edge"><title>07 (a)&#45;&gt;030 (a)</title>
<path fill="none" stroke="black" d="M522.32,-80.2446C553.834,-69.9323 607.553,-52.1558 653.397,-36 656.107,-35.0449 658.902,-34.0462 661.712,-33.0319"/>
<polygon fill="black" stroke="black" points="663.029,-36.2772 671.226,-29.5645 660.632,-29.7004 663.029,-36.2772"/>
</g>
<!-- 021 (a)&#45;&gt;036 (a) -->
<g id="edge25" class="edge"><title>021 (a)&#45;&gt;036 (a)</title>
<path fill="none" stroke="black" d="M706.141,-75.1703C721.715,-64.7878 743.261,-50.4241 760.665,-38.821"/>
<polygon fill="black" stroke="black" points="762.957,-41.4998 769.336,-33.0406 759.074,-35.6755 762.957,-41.4998"/>
</g>
<!-- 021 (a)&#45;&gt;047 (a) -->
<g id="edge26" class="edge"><title>021 (a)&#45;&gt;047 (a)</title>
<path fill="none" stroke="black" d="M713.582,-78.4785C719.461,-76.3135 725.625,-74.0652 731.397,-72 777.45,-55.5212 789.343,-52.4788 835.397,-36 838.102,-35.0319 840.894,-34.0236 843.702,-33.0026"/>
<polygon fill="black" stroke="black" points="845.024,-36.2459 853.211,-29.5215 842.617,-29.6725 845.024,-36.2459"/>
</g>
</g>
</svg>
