<?xml version="1.0" encoding="UTF-8" standalone="no"?>
<!DOCTYPE svg PUBLIC "-//W3C//DTD SVG 1.1//EN"
 "http://www.w3.org/Graphics/SVG/1.1/DTD/svg11.dtd">
<!-- Generated by graphviz version 2.38.0 (20140413.2041)
 -->
<!-- Title: G Pages: 1 -->
<svg width="1126pt" height="260pt"
 viewBox="0.00 0.00 1126.44 260.00" xmlns="http://www.w3.org/2000/svg" xmlns:xlink="http://www.w3.org/1999/xlink">
<g id="graph0" class="graph" transform="scale(1 1) rotate(0) translate(4 256)">
<title>G</title>
<polygon fill="white" stroke="none" points="-4,4 -4,-256 1122.44,-256 1122.44,4 -4,4"/>
<!-- 07/&#45;1 (a) -->
<g id="node1" class="node"><title>07/&#45;1 (a)</title>
<ellipse fill="#ff8a8a" stroke="#b43f3f" cx="240.397" cy="-162" rx="41.6928" ry="18"/>
<text text-anchor="middle" x="240.397" y="-158.3" font-family="Times,serif" font-size="14.00">07/&#45;1 (a)</text>
</g>
<!-- 034 (a) -->
<g id="node6" class="node"><title>034 (a)</title>
<ellipse fill="#ff8a8a" stroke="#b43f3f" cx="36.3968" cy="-90" rx="36.2938" ry="18"/>
<text text-anchor="middle" x="36.3968" y="-86.3" font-family="Times,serif" font-size="14.00">034 (a)</text>
</g>
<!-- 07/&#45;1 (a)&#45;&gt;034 (a) -->
<g id="edge4" class="edge"><title>07/&#45;1 (a)&#45;&gt;034 (a)</title>
<path fill="none" stroke="black" d="M208.222,-150.524C176.226,-140.032 125.784,-123.29 82.3968,-108 79.6867,-107.045 76.8916,-106.046 74.0811,-105.032"/>
<polygon fill="black" stroke="black" points="75.1612,-101.7 64.5672,-101.564 72.7641,-108.277 75.1612,-101.7"/>
</g>
<!-- 0211/2 (a) -->
<g id="node12" class="node"><title>0211/2 (a)</title>
<ellipse fill="#ff8a8a" stroke="#b43f3f" cx="138.397" cy="-90" rx="47.3916" ry="18"/>
<text text-anchor="middle" x="138.397" y="-86.3" font-family="Times,serif" font-size="14.00">0211/2 (a)</text>
</g>
<!-- 07/&#45;1 (a)&#45;&gt;0211/2 (a) -->
<g id="edge1" class="edge"><title>07/&#45;1 (a)&#45;&gt;0211/2 (a)</title>
<path fill="none" stroke="black" d="M219.262,-146.496C204.787,-136.562 185.356,-123.227 169.169,-112.119"/>
<polygon fill="black" stroke="black" points="170.788,-108.985 160.563,-106.212 166.827,-114.756 170.788,-108.985"/>
</g>
<!-- 037 (b) -->
<g id="node14" class="node"><title>037 (b)</title>
<ellipse fill="#cea8f4" stroke="#835da9" cx="240.397" cy="-90" rx="36.2938" ry="18"/>
<text text-anchor="middle" x="240.397" y="-86.3" font-family="Times,serif" font-size="14.00">037 (b)</text>
</g>
<!-- 07/&#45;1 (a)&#45;&gt;037 (b) -->
<g id="edge3" class="edge"><title>07/&#45;1 (a)&#45;&gt;037 (b)</title>
<path fill="none" stroke="black" d="M240.397,-143.697C240.397,-135.983 240.397,-126.712 240.397,-118.112"/>
<polygon fill="black" stroke="black" points="243.897,-118.104 240.397,-108.104 236.897,-118.104 243.897,-118.104"/>
</g>
<!-- 030 (a) -->
<g id="node19" class="node"><title>030 (a)</title>
<ellipse fill="#ff8a8a" stroke="#b43f3f" cx="331.397" cy="-90" rx="36.2938" ry="18"/>
<text text-anchor="middle" x="331.397" y="-86.3" font-family="Times,serif" font-size="14.00">030 (a)</text>
</g>
<!-- 07/&#45;1 (a)&#45;&gt;030 (a) -->
<g id="edge2" class="edge"><title>07/&#45;1 (a)&#45;&gt;030 (a)</title>
<path fill="none" stroke="black" d="M260.142,-145.811C273.164,-135.794 290.382,-122.55 304.631,-111.589"/>
<polygon fill="black" stroke="black" points="306.83,-114.313 312.623,-105.442 302.562,-108.765 306.83,-114.313"/>
</g>
<!-- 038 (a) -->
<g id="node2" class="node"><title>038 (a)</title>
<ellipse fill="#ff8a8a" stroke="#b43f3f" cx="522.397" cy="-90" rx="36.2938" ry="18"/>
<text text-anchor="middle" x="522.397" y="-86.3" font-family="Times,serif" font-size="14.00">038 (a)</text>
</g>
<!-- 047/2 (b) -->
<g id="node3" class="node"><title>047/2 (b)</title>
<ellipse fill="#cea8f4" stroke="#835da9" cx="240.397" cy="-18" rx="43.5923" ry="18"/>
<text text-anchor="middle" x="240.397" y="-14.3" font-family="Times,serif" font-size="14.00">047/2 (b)</text>
</g>
<!-- 021/&#45;1 (a) -->
<g id="node4" class="node"><title>021/&#45;1 (a)</title>
<ellipse fill="#ff8a8a" stroke="#b43f3f" cx="412.397" cy="-162" rx="46.2923" ry="18"/>
<text text-anchor="middle" x="412.397" y="-158.3" font-family="Times,serif" font-size="14.00">021/&#45;1 (a)</text>
</g>
<!-- 036 (a) -->
<g id="node7" class="node"><title>036 (a)</title>
<ellipse fill="#ff8a8a" stroke="#b43f3f" cx="422.397" cy="-90" rx="36.2938" ry="18"/>
<text text-anchor="middle" x="422.397" y="-86.3" font-family="Times,serif" font-size="14.00">036 (a)</text>
</g>
<!-- 021/&#45;1 (a)&#45;&gt;036 (a) -->
<g id="edge5" class="edge"><title>021/&#45;1 (a)&#45;&gt;036 (a)</title>
<path fill="none" stroke="black" d="M414.869,-143.697C415.971,-135.983 417.295,-126.712 418.524,-118.112"/>
<polygon fill="black" stroke="black" points="422.004,-118.499 419.953,-108.104 415.074,-117.509 422.004,-118.499"/>
</g>
<!-- 045/&#45;1 (a) -->
<g id="node5" class="node"><title>045/&#45;1 (a)</title>
<ellipse fill="#ff8a8a" stroke="#b43f3f" cx="522.397" cy="-162" rx="46.2923" ry="18"/>
<text text-anchor="middle" x="522.397" y="-158.3" font-family="Times,serif" font-size="14.00">045/&#45;1 (a)</text>
</g>
<!-- 045/&#45;1 (a)&#45;&gt;038 (a) -->
<g id="edge6" class="edge"><title>045/&#45;1 (a)&#45;&gt;038 (a)</title>
<path fill="none" stroke="black" d="M522.397,-143.697C522.397,-135.983 522.397,-126.712 522.397,-118.112"/>
<polygon fill="black" stroke="black" points="525.897,-118.104 522.397,-108.104 518.897,-118.104 525.897,-118.104"/>
</g>
<!-- 017 (a) -->
<g id="node8" class="node"><title>017 (a)</title>
<ellipse fill="#ff8a8a" stroke="#b43f3f" cx="651.397" cy="-90" rx="36.2938" ry="18"/>
<text text-anchor="middle" x="651.397" y="-86.3" font-family="Times,serif" font-size="14.00">017 (a)</text>
</g>
<!-- 011/&#45;1 (a) -->
<g id="node9" class="node"><title>011/&#45;1 (a)</title>
<ellipse fill="#ff8a8a" stroke="#b43f3f" cx="632.397" cy="-162" rx="46.2923" ry="18"/>
<text text-anchor="middle" x="632.397" y="-158.3" font-family="Times,serif" font-size="14.00">011/&#45;1 (a)</text>
</g>
<!-- OL_PARENT -->
<g id="node10" class="node"><title>OL_PARENT</title>
<ellipse fill="none" stroke="black" cx="687.397" cy="-234" rx="61.1893" ry="18"/>
<text text-anchor="middle" x="687.397" y="-230.3" font-family="Times,serif" font-size="14.00">OL_PARENT</text>
</g>
<!-- OL_PARENT&#45;&gt;07/&#45;1 (a) -->
<g id="edge7" class="edge"><title>OL_PARENT&#45;&gt;07/&#45;1 (a)</title>
<path fill="none" stroke="black" d="M634.806,-224.764C547.407,-211.078 373.52,-183.847 288.904,-170.596"/>
<polygon fill="black" stroke="black" points="289.215,-167.102 278.794,-169.013 288.132,-174.018 289.215,-167.102"/>
</g>
<!-- OL_PARENT&#45;&gt;021/&#45;1 (a) -->
<g id="edge10" class="edge"><title>OL_PARENT&#45;&gt;021/&#45;1 (a)</title>
<path fill="none" stroke="black" d="M639.968,-222.488C595.262,-212.364 526.495,-196.235 467.397,-180 463.864,-179.03 460.215,-177.988 456.556,-176.917"/>
<polygon fill="black" stroke="black" points="457.503,-173.547 446.919,-174.037 455.498,-180.254 457.503,-173.547"/>
</g>
<!-- OL_PARENT&#45;&gt;045/&#45;1 (a) -->
<g id="edge11" class="edge"><title>OL_PARENT&#45;&gt;045/&#45;1 (a)</title>
<path fill="none" stroke="black" d="M654.007,-218.834C627.388,-207.542 590.046,-191.7 561.934,-179.774"/>
<polygon fill="black" stroke="black" points="562.981,-176.416 552.409,-175.732 560.247,-182.86 562.981,-176.416"/>
</g>
<!-- OL_PARENT&#45;&gt;011/&#45;1 (a) -->
<g id="edge8" class="edge"><title>OL_PARENT&#45;&gt;011/&#45;1 (a)</title>
<path fill="none" stroke="black" d="M674.363,-216.411C667.581,-207.781 659.16,-197.062 651.645,-187.497"/>
<polygon fill="black" stroke="black" points="654.268,-185.171 645.337,-179.47 648.764,-189.496 654.268,-185.171"/>
</g>
<!-- 031/&#45;1 (a) -->
<g id="node11" class="node"><title>031/&#45;1 (a)</title>
<ellipse fill="#ff8a8a" stroke="#b43f3f" cx="742.397" cy="-162" rx="46.2923" ry="18"/>
<text text-anchor="middle" x="742.397" y="-158.3" font-family="Times,serif" font-size="14.00">031/&#45;1 (a)</text>
</g>
<!-- OL_PARENT&#45;&gt;031/&#45;1 (a) -->
<g id="edge9" class="edge"><title>OL_PARENT&#45;&gt;031/&#45;1 (a)</title>
<path fill="none" stroke="black" d="M700.431,-216.411C707.212,-207.781 715.634,-197.062 723.149,-187.497"/>
<polygon fill="black" stroke="black" points="726.03,-189.496 729.456,-179.47 720.526,-185.171 726.03,-189.496"/>
</g>
<!-- 05/&#45;1 (a) -->
<g id="node13" class="node"><title>05/&#45;1 (a)</title>
<ellipse fill="#ff8a8a" stroke="#b43f3f" cx="848.397" cy="-162" rx="41.6928" ry="18"/>
<text text-anchor="middle" x="848.397" y="-158.3" font-family="Times,serif" font-size="14.00">05/&#45;1 (a)</text>
</g>
<!-- OL_PARENT&#45;&gt;05/&#45;1 (a) -->
<g id="edge12" class="edge"><title>OL_PARENT&#45;&gt;05/&#45;1 (a)</title>
<path fill="none" stroke="black" d="M720.366,-218.666C746.618,-207.252 783.377,-191.27 810.776,-179.357"/>
<polygon fill="black" stroke="black" points="812.27,-182.524 820.045,-175.327 809.479,-176.104 812.27,-182.524"/>
</g>
<!-- 028/&#45;1 (a) -->
<g id="node15" class="node"><title>028/&#45;1 (a)</title>
<ellipse fill="#ff8a8a" stroke="#b43f3f" cx="954.397" cy="-162" rx="46.2923" ry="18"/>
<text text-anchor="middle" x="954.397" y="-158.3" font-family="Times,serif" font-size="14.00">028/&#45;1 (a)</text>
</g>
<!-- OL_PARENT&#45;&gt;028/&#45;1 (a) -->
<g id="edge13" class="edge"><title>OL_PARENT&#45;&gt;028/&#45;1 (a)</title>
<path fill="none" stroke="black" d="M733.908,-222.148C776.989,-211.912 842.76,-195.82 899.397,-180 902.925,-179.014 906.571,-177.963 910.228,-176.884"/>
<polygon fill="black" stroke="black" points="911.291,-180.219 919.862,-173.991 909.278,-173.515 911.291,-180.219"/>
</g>
<!-- 0141/&#45;1 (a) -->
<g id="node16" class="node"><title>0141/&#45;1 (a)</title>
<ellipse fill="#ff8a8a" stroke="#b43f3f" cx="1068.4" cy="-162" rx="50.0912" ry="18"/>
<text text-anchor="middle" x="1068.4" y="-158.3" font-family="Times,serif" font-size="14.00">0141/&#45;1 (a)</text>
</g>
<!-- OL_PARENT&#45;&gt;0141/&#45;1 (a) -->
<g id="edge14" class="edge"><title>OL_PARENT&#45;&gt;0141/&#45;1 (a)</title>
<path fill="none" stroke="black" d="M742.184,-225.98C806.564,-217.271 916.411,-200.973 1009.4,-180 1013.49,-179.077 1017.72,-178.035 1021.95,-176.933"/>
<polygon fill="black" stroke="black" points="1023.01,-180.273 1031.75,-174.282 1021.18,-173.516 1023.01,-180.273"/>
</g>
<!-- 031/&#45;1 (a)&#45;&gt;017 (a) -->
<g id="edge16" class="edge"><title>031/&#45;1 (a)&#45;&gt;017 (a)</title>
<path fill="none" stroke="black" d="M722.201,-145.465C709.366,-135.591 692.591,-122.688 678.592,-111.919"/>
<polygon fill="black" stroke="black" points="680.354,-108.859 670.293,-105.536 676.086,-114.407 680.354,-108.859"/>
</g>
<!-- 013 (a) -->
<g id="node17" class="node"><title>013 (a)</title>
<ellipse fill="#ff8a8a" stroke="#b43f3f" cx="742.397" cy="-90" rx="36.2938" ry="18"/>
<text text-anchor="middle" x="742.397" y="-86.3" font-family="Times,serif" font-size="14.00">013 (a)</text>
</g>
<!-- 031/&#45;1 (a)&#45;&gt;013 (a) -->
<g id="edge15" class="edge"><title>031/&#45;1 (a)&#45;&gt;013 (a)</title>
<path fill="none" stroke="black" d="M742.397,-143.697C742.397,-135.983 742.397,-126.712 742.397,-118.112"/>
<polygon fill="black" stroke="black" points="745.897,-118.104 742.397,-108.104 738.897,-118.104 745.897,-118.104"/>
</g>
<!-- 01/2 (a) -->
<g id="node18" class="node"><title>01/2 (a)</title>
<ellipse fill="#ff8a8a" stroke="#b43f3f" cx="835.397" cy="-90" rx="38.1938" ry="18"/>
<text text-anchor="middle" x="835.397" y="-86.3" font-family="Times,serif" font-size="14.00">01/2 (a)</text>
</g>
<!-- 031/&#45;1 (a)&#45;&gt;01/2 (a) -->
<g id="edge17" class="edge"><title>031/&#45;1 (a)&#45;&gt;01/2 (a)</title>
<path fill="none" stroke="black" d="M762.576,-145.811C775.795,-135.862 793.245,-122.727 807.749,-111.81"/>
<polygon fill="black" stroke="black" points="810.009,-114.49 815.894,-105.68 805.799,-108.897 810.009,-114.49"/>
</g>
<!-- 037 (b)&#45;&gt;047/2 (b) -->
<g id="edge18" class="edge"><title>037 (b)&#45;&gt;047/2 (b)</title>
<path fill="none" stroke="black" d="M240.397,-71.6966C240.397,-63.9827 240.397,-54.7125 240.397,-46.1124"/>
<polygon fill="black" stroke="black" points="243.897,-46.1043 240.397,-36.1043 236.897,-46.1044 243.897,-46.1043"/>
</g>
</g>
</svg>
