<?xml version="1.0" encoding="UTF-8" standalone="no"?>
<!DOCTYPE svg PUBLIC "-//W3C//DTD SVG 1.1//EN"
 "http://www.w3.org/Graphics/SVG/1.1/DTD/svg11.dtd">
<!-- Generated by graphviz version 2.38.0 (20140413.2041)
 -->
<!-- Title: %3 Pages: 1 -->
<svg width="880pt" height="337pt"
 viewBox="0.00 0.00 880.00 337.00" xmlns="http://www.w3.org/2000/svg" xmlns:xlink="http://www.w3.org/1999/xlink">
<g id="graph0" class="graph" transform="scale(1 1) rotate(0) translate(4 333)">
<title>%3</title>
<polygon fill="white" stroke="none" points="-4,4 -4,-333 876,-333 876,4 -4,4"/>
<g id="clust1" class="cluster"><title>cluster_reading</title>
<polygon fill="none" stroke="black" points="8,-8 8,-321 642,-321 642,-8 8,-8"/>
</g>
<g id="clust2" class="cluster"><title>cluster_legend</title>
<path fill="none" stroke="black" d="M662,-193C662,-193 852,-193 852,-193 858,-193 864,-199 864,-205 864,-205 864,-309 864,-309 864,-315 858,-321 852,-321 852,-321 662,-321 662,-321 656,-321 650,-315 650,-309 650,-309 650,-205 650,-205 650,-199 656,-193 662,-193"/>
</g>
<!-- 021 -->
<g id="node1" class="node"><title>021</title>
<ellipse fill="#ff8a8a" stroke="#b43f3f" cx="243" cy="-121" rx="36.2938" ry="18"/>
<text text-anchor="middle" x="243" y="-117.3" font-family="Times,serif" font-size="14.00">021 (a)</text>
</g>
<!-- 036 -->
<g id="node2" class="node"><title>036</title>
<ellipse fill="#ff8a8a" stroke="#b43f3f" cx="52" cy="-34" rx="36.2938" ry="18"/>
<text text-anchor="middle" x="52" y="-30.3" font-family="Times,serif" font-size="14.00">036 (a)</text>
</g>
<!-- 021&#45;&gt;036 -->
<g id="edge1" class="edge"><title>021&#45;&gt;036</title>
<path fill="none" stroke="#b43f3f" stroke-dasharray="1,5" d="M214.951,-109.066C209.063,-106.931 202.86,-104.799 197,-103 165.055,-93.1927 154.452,-98.759 124,-85 107.504,-77.5467 90.7936,-66.2254 77.6293,-56.2395"/>
<polygon fill="#b43f3f" stroke="#b43f3f" points="79.5669,-53.3122 69.5284,-49.9243 75.2631,-58.8328 79.5669,-53.3122"/>
<text text-anchor="middle" x="146" y="-73.8" font-family="Times,serif" font-size="14.00">1 (97.6)</text>
</g>
<!-- 047 -->
<g id="node3" class="node"><title>047</title>
<ellipse fill="#ff8a8a" stroke="#b43f3f" cx="143" cy="-34" rx="36.2938" ry="18"/>
<text text-anchor="middle" x="143" y="-30.3" font-family="Times,serif" font-size="14.00">047 (a)</text>
</g>
<!-- 021&#45;&gt;047 -->
<g id="edge2" class="edge"><title>021&#45;&gt;047</title>
<path fill="none" stroke="#b43f3f" stroke-dasharray="1,5" d="M218.864,-107.404C208.265,-101.326 195.989,-93.5096 186,-85 177.15,-77.4605 168.555,-68.0351 161.405,-59.4062"/>
<polygon fill="#b43f3f" stroke="#b43f3f" points="164.021,-57.0734 155.032,-51.4648 158.562,-61.4546 164.021,-57.0734"/>
<text text-anchor="middle" x="208" y="-73.8" font-family="Times,serif" font-size="14.00">1 (95.1)</text>
</g>
<!-- 063 -->
<g id="node4" class="node"><title>063</title>
<ellipse fill="#ff8a8a" stroke="#b43f3f" cx="496" cy="-208" rx="36.2938" ry="18"/>
<text text-anchor="middle" x="496" y="-204.3" font-family="Times,serif" font-size="14.00">063 (a)</text>
</g>
<!-- 063&#45;&gt;021 -->
<g id="edge3" class="edge"><title>063&#45;&gt;021</title>
<path fill="none" stroke="#b43f3f" stroke-dasharray="1,5" d="M468.569,-195.79C462.527,-193.624 456.107,-191.55 450,-190 395.596,-176.195 377.816,-190.998 325,-172 305.458,-164.971 285.52,-152.945 270.199,-142.449"/>
<polygon fill="#b43f3f" stroke="#b43f3f" points="271.939,-139.394 261.749,-136.496 267.907,-145.117 271.939,-139.394"/>
<text text-anchor="middle" x="347" y="-160.8" font-family="Times,serif" font-size="14.00">1 (93.1)</text>
</g>
<!-- 011 -->
<g id="node5" class="node"><title>011</title>
<ellipse fill="#ff8a8a" stroke="#b43f3f" cx="334" cy="-121" rx="36.2938" ry="18"/>
<text text-anchor="middle" x="334" y="-117.3" font-family="Times,serif" font-size="14.00">011 (a)</text>
</g>
<!-- 063&#45;&gt;011 -->
<g id="edge4" class="edge"><title>063&#45;&gt;011</title>
<path fill="none" stroke="#b43f3f" stroke-dasharray="1,5" d="M467.849,-196.379C461.968,-194.221 455.794,-192.001 450,-190 425.289,-181.467 416.907,-184.599 394,-172 380.556,-164.605 367.274,-153.979 356.638,-144.422"/>
<polygon fill="#b43f3f" stroke="#b43f3f" points="358.773,-141.629 349.061,-137.394 354.013,-146.761 358.773,-141.629"/>
<text text-anchor="middle" x="416" y="-160.8" font-family="Times,serif" font-size="14.00">1 (93.1)</text>
</g>
<!-- 07 -->
<g id="node6" class="node"><title>07</title>
<ellipse fill="#ff8a8a" stroke="#b43f3f" cx="420" cy="-121" rx="31.6951" ry="18"/>
<text text-anchor="middle" x="420" y="-117.3" font-family="Times,serif" font-size="14.00">07 (a)</text>
</g>
<!-- 063&#45;&gt;07 -->
<g id="edge5" class="edge"><title>063&#45;&gt;07</title>
<path fill="none" stroke="#b43f3f" stroke-dasharray="1,5" d="M476.063,-192.825C468.395,-186.867 459.846,-179.566 453,-172 446.235,-164.524 439.862,-155.541 434.554,-147.263"/>
<polygon fill="#b43f3f" stroke="#b43f3f" points="437.475,-145.333 429.243,-138.663 431.519,-149.011 437.475,-145.333"/>
<text text-anchor="middle" x="475" y="-160.8" font-family="Times,serif" font-size="14.00">1 (96.6)</text>
</g>
<!-- 028 -->
<g id="node7" class="node"><title>028</title>
<ellipse fill="#ff8a8a" stroke="#b43f3f" cx="506" cy="-121" rx="36.2938" ry="18"/>
<text text-anchor="middle" x="506" y="-117.3" font-family="Times,serif" font-size="14.00">028 (a)</text>
</g>
<!-- 063&#45;&gt;028 -->
<g id="edge6" class="edge"><title>063&#45;&gt;028</title>
<path fill="none" stroke="#b43f3f" stroke-dasharray="1,5" d="M498.024,-189.799C499.393,-178.163 501.23,-162.548 502.796,-149.237"/>
<polygon fill="#b43f3f" stroke="#b43f3f" points="506.287,-149.516 503.979,-139.175 499.335,-148.698 506.287,-149.516"/>
<text text-anchor="middle" x="524" y="-160.8" font-family="Times,serif" font-size="14.00">1 (96.6)</text>
</g>
<!-- 045 -->
<g id="node8" class="node"><title>045</title>
<ellipse fill="#ff8a8a" stroke="#b43f3f" cx="597" cy="-121" rx="36.2938" ry="18"/>
<text text-anchor="middle" x="597" y="-117.3" font-family="Times,serif" font-size="14.00">045 (a)</text>
</g>
<!-- 063&#45;&gt;045 -->
<g id="edge7" class="edge"><title>063&#45;&gt;045</title>
<path fill="none" stroke="#b43f3f" stroke-dasharray="1,5" d="M518.919,-193.848C528.859,-187.721 540.395,-180.02 550,-172 559.522,-164.049 569.074,-154.295 577.056,-145.519"/>
<polygon fill="#b43f3f" stroke="#b43f3f" points="579.875,-147.615 583.899,-137.814 574.641,-142.967 579.875,-147.615"/>
<text text-anchor="middle" x="588" y="-160.8" font-family="Times,serif" font-size="14.00">1 (93.1)</text>
</g>
<!-- 030 -->
<g id="node10" class="node"><title>030</title>
<ellipse fill="#ff8a8a" stroke="#b43f3f" cx="234" cy="-34" rx="36.2938" ry="18"/>
<text text-anchor="middle" x="234" y="-30.3" font-family="Times,serif" font-size="14.00">030 (a)</text>
</g>
<!-- 07&#45;&gt;030 -->
<g id="edge9" class="edge"><title>07&#45;&gt;030</title>
<path fill="none" stroke="#b43f3f" stroke-dasharray="1,5" d="M395.502,-109.166C390.12,-106.976 384.412,-104.797 379,-103 348.106,-92.7388 337.708,-98.3114 308,-85 291.17,-77.4588 274.004,-66.1313 260.448,-56.164"/>
<polygon fill="#b43f3f" stroke="#b43f3f" points="262.191,-53.0945 252.101,-49.8639 257.974,-58.6817 262.191,-53.0945"/>
<text text-anchor="middle" x="330" y="-73.8" font-family="Times,serif" font-size="14.00">1 (95.1)</text>
</g>
<!-- 017 -->
<g id="node11" class="node"><title>017</title>
<ellipse fill="#ff8a8a" stroke="#b43f3f" cx="325" cy="-34" rx="36.2938" ry="18"/>
<text text-anchor="middle" x="325" y="-30.3" font-family="Times,serif" font-size="14.00">017 (a)</text>
</g>
<!-- 07&#45;&gt;017 -->
<g id="edge10" class="edge"><title>07&#45;&gt;017</title>
<path fill="none" stroke="#b43f3f" stroke-dasharray="1,5" d="M399.265,-107.029C389.951,-100.821 379.047,-93.0044 370,-85 361.027,-77.0605 352.018,-67.4543 344.444,-58.7925"/>
<polygon fill="#b43f3f" stroke="#b43f3f" points="347.093,-56.5041 337.934,-51.1781 341.772,-61.0531 347.093,-56.5041"/>
<text text-anchor="middle" x="392" y="-73.8" font-family="Times,serif" font-size="14.00">2 (92.7)</text>
</g>
<!-- 013 -->
<g id="node12" class="node"><title>013</title>
<ellipse fill="#ff8a8a" stroke="#b43f3f" cx="416" cy="-34" rx="36.2938" ry="18"/>
<text text-anchor="middle" x="416" y="-30.3" font-family="Times,serif" font-size="14.00">013 (a)</text>
</g>
<!-- 07&#45;&gt;013 -->
<g id="edge11" class="edge"><title>07&#45;&gt;013</title>
<path fill="none" stroke="#b43f3f" stroke-dasharray="1,5" d="M419.191,-102.799C418.643,-91.1626 417.908,-75.5479 417.282,-62.2368"/>
<polygon fill="#b43f3f" stroke="#b43f3f" points="420.775,-61.9998 416.808,-52.1754 413.782,-62.3289 420.775,-61.9998"/>
<text text-anchor="middle" x="441" y="-73.8" font-family="Times,serif" font-size="14.00">2 (95.1)</text>
</g>
<!-- 034 -->
<g id="node13" class="node"><title>034</title>
<ellipse fill="#ff8a8a" stroke="#b43f3f" cx="507" cy="-34" rx="36.2938" ry="18"/>
<text text-anchor="middle" x="507" y="-30.3" font-family="Times,serif" font-size="14.00">034 (a)</text>
</g>
<!-- 07&#45;&gt;034 -->
<g id="edge12" class="edge"><title>07&#45;&gt;034</title>
<path fill="none" stroke="#b43f3f" stroke-dasharray="1,5" d="M440.104,-106.75C448.784,-100.605 458.804,-92.9163 467,-85 475.036,-77.2382 482.927,-67.8647 489.548,-59.3412"/>
<polygon fill="#b43f3f" stroke="#b43f3f" points="492.469,-61.2809 495.705,-51.1923 486.884,-57.0612 492.469,-61.2809"/>
<text text-anchor="middle" x="503" y="-73.8" font-family="Times,serif" font-size="14.00">1 (95.1)</text>
</g>
<!-- 037 -->
<g id="node14" class="node"><title>037</title>
<ellipse fill="#ff8a8a" stroke="#b43f3f" cx="598" cy="-34" rx="36.2938" ry="18"/>
<text text-anchor="middle" x="598" y="-30.3" font-family="Times,serif" font-size="14.00">037 (a)</text>
</g>
<!-- 07&#45;&gt;037 -->
<g id="edge13" class="edge"><title>07&#45;&gt;037</title>
<path fill="none" stroke="#b43f3f" stroke-dasharray="1,5" d="M444.512,-109.209C449.893,-107.016 455.598,-104.826 461,-103 490.617,-92.9903 500.754,-98.3988 529,-85 544.638,-77.5819 560.395,-66.5005 572.895,-56.6538"/>
<polygon fill="#b43f3f" stroke="#b43f3f" points="575.423,-59.1103 580.987,-50.0943 571.015,-53.6724 575.423,-59.1103"/>
<text text-anchor="middle" x="576" y="-73.8" font-family="Times,serif" font-size="14.00">1 (97.5)</text>
</g>
<!-- 019 -->
<g id="node9" class="node"><title>019</title>
<ellipse fill="#ff8a8a" stroke="#b43f3f" cx="496" cy="-295" rx="36.2938" ry="18"/>
<text text-anchor="middle" x="496" y="-291.3" font-family="Times,serif" font-size="14.00">019 (a)</text>
</g>
<!-- 019&#45;&gt;063 -->
<g id="edge8" class="edge"><title>019&#45;&gt;063</title>
<path fill="none" stroke="#b43f3f" stroke-dasharray="1,5" d="M496,-276.799C496,-265.163 496,-249.548 496,-236.237"/>
<polygon fill="#b43f3f" stroke="#b43f3f" points="499.5,-236.175 496,-226.175 492.5,-236.175 499.5,-236.175"/>
<text text-anchor="middle" x="518" y="-247.8" font-family="Times,serif" font-size="14.00">1 (85.7)</text>
</g>
<!-- 03 -->
<g id="node15" class="node"><title>03</title>
<ellipse fill="#ff8a8a" stroke="#b43f3f" cx="319" cy="-295" rx="31.6951" ry="18"/>
<text text-anchor="middle" x="319" y="-291.3" font-family="Times,serif" font-size="14.00">03 (a)</text>
</g>
<!-- 044 -->
<g id="node16" class="node"><title>044</title>
<ellipse fill="#ff8a8a" stroke="#b43f3f" cx="233" cy="-208" rx="36.2938" ry="18"/>
<text text-anchor="middle" x="233" y="-204.3" font-family="Times,serif" font-size="14.00">044 (a)</text>
</g>
<!-- 03&#45;&gt;044 -->
<g id="edge14" class="edge"><title>03&#45;&gt;044</title>
<path fill="none" stroke="#b43f3f" stroke-dasharray="1,5" d="M298.353,-280.912C289.467,-274.796 279.248,-267.086 271,-259 263.175,-251.329 255.638,-241.975 249.368,-233.442"/>
<polygon fill="#b43f3f" stroke="#b43f3f" points="252.206,-231.394 243.557,-225.275 246.503,-235.452 252.206,-231.394"/>
<text text-anchor="middle" x="293" y="-247.8" font-family="Times,serif" font-size="14.00">1 (89.2)</text>
</g>
<!-- 02 -->
<g id="node17" class="node"><title>02</title>
<ellipse fill="#ff8a8a" stroke="#b43f3f" cx="319" cy="-208" rx="31.6951" ry="18"/>
<text text-anchor="middle" x="319" y="-204.3" font-family="Times,serif" font-size="14.00">02 (a)</text>
</g>
<!-- 03&#45;&gt;02 -->
<g id="edge15" class="edge"><title>03&#45;&gt;02</title>
<path fill="none" stroke="#b43f3f" stroke-dasharray="1,5" d="M319,-276.799C319,-265.163 319,-249.548 319,-236.237"/>
<polygon fill="#b43f3f" stroke="#b43f3f" points="322.5,-236.175 319,-226.175 315.5,-236.175 322.5,-236.175"/>
<text text-anchor="middle" x="341" y="-247.8" font-family="Times,serif" font-size="14.00">1 (86.5)</text>
</g>
<!-- 032 -->
<g id="node18" class="node"><title>032</title>
<ellipse fill="#ff8a8a" stroke="#b43f3f" cx="405" cy="-208" rx="36.2938" ry="18"/>
<text text-anchor="middle" x="405" y="-204.3" font-family="Times,serif" font-size="14.00">032 (a)</text>
</g>
<!-- 03&#45;&gt;032 -->
<g id="edge16" class="edge"><title>03&#45;&gt;032</title>
<path fill="none" stroke="#b43f3f" stroke-dasharray="1,5" d="M339.647,-280.912C348.533,-274.796 358.752,-267.086 367,-259 374.825,-251.329 382.362,-241.975 388.632,-233.442"/>
<polygon fill="#b43f3f" stroke="#b43f3f" points="391.497,-235.452 394.443,-225.275 385.794,-231.394 391.497,-235.452"/>
<text text-anchor="middle" x="402" y="-247.8" font-family="Times,serif" font-size="14.00">1 (91.7)</text>
</g>
<!-- 0141 -->
<g id="node19" class="node"><title>0141</title>
<ellipse fill="#ff8a8a" stroke="#b43f3f" cx="57" cy="-121" rx="40.0939" ry="18"/>
<text text-anchor="middle" x="57" y="-117.3" font-family="Times,serif" font-size="14.00">0141 (a)</text>
</g>
<!-- 044&#45;&gt;0141 -->
<g id="edge17" class="edge"><title>044&#45;&gt;0141</title>
<path fill="none" stroke="#b43f3f" stroke-dasharray="1,5" d="M204.824,-196.452C198.944,-194.289 192.778,-192.048 187,-190 163.553,-181.687 156.382,-182.858 134,-172 117.017,-163.762 99.2696,-152.446 85.0988,-142.663"/>
<polygon fill="#b43f3f" stroke="#b43f3f" points="86.9698,-139.7 76.7764,-136.811 82.9433,-145.426 86.9698,-139.7"/>
<text text-anchor="middle" x="156" y="-160.8" font-family="Times,serif" font-size="14.00">1 (89.2)</text>
</g>
<!-- 022 -->
<g id="node20" class="node"><title>022</title>
<ellipse fill="#ff8a8a" stroke="#b43f3f" cx="152" cy="-121" rx="36.2938" ry="18"/>
<text text-anchor="middle" x="152" y="-117.3" font-family="Times,serif" font-size="14.00">022 (a)</text>
</g>
<!-- 044&#45;&gt;022 -->
<g id="edge18" class="edge"><title>044&#45;&gt;022</title>
<path fill="none" stroke="#b43f3f" stroke-dasharray="1,5" d="M215.955,-192.074C209.258,-186.012 201.607,-178.836 195,-172 187.041,-163.765 178.736,-154.331 171.572,-145.893"/>
<polygon fill="#b43f3f" stroke="#b43f3f" points="174.209,-143.591 165.1,-138.18 168.846,-148.09 174.209,-143.591"/>
<text text-anchor="middle" x="217" y="-160.8" font-family="Times,serif" font-size="14.00">1 (91.7)</text>
</g>
<!-- 091 -->
<g id="node21" class="node"><title>091</title>
<ellipse fill="#ff8a8a" stroke="#b43f3f" cx="143" cy="-295" rx="36.2938" ry="18"/>
<text text-anchor="middle" x="143" y="-291.3" font-family="Times,serif" font-size="14.00">091 (a)</text>
</g>
<!-- 05 -->
<g id="node22" class="node"><title>05</title>
<ellipse fill="#ff8a8a" stroke="#b43f3f" cx="48" cy="-208" rx="31.6951" ry="18"/>
<text text-anchor="middle" x="48" y="-204.3" font-family="Times,serif" font-size="14.00">05 (a)</text>
</g>
<!-- 091&#45;&gt;05 -->
<g id="edge19" class="edge"><title>091&#45;&gt;05</title>
<path fill="none" stroke="#b43f3f" stroke-dasharray="1,5" d="M121.279,-280.369C112.188,-274.272 101.729,-266.724 93,-259 83.8929,-250.942 74.7495,-241.167 67.1061,-232.405"/>
<polygon fill="#b43f3f" stroke="#b43f3f" points="69.7048,-230.059 60.5524,-224.722 64.379,-234.601 69.7048,-230.059"/>
<text text-anchor="middle" x="115" y="-247.8" font-family="Times,serif" font-size="14.00">1 (87.5)</text>
</g>
<!-- 0211 -->
<g id="node23" class="node"><title>0211</title>
<ellipse fill="#ff8a8a" stroke="#b43f3f" cx="138" cy="-208" rx="40.0939" ry="18"/>
<text text-anchor="middle" x="138" y="-204.3" font-family="Times,serif" font-size="14.00">0211 (a)</text>
</g>
<!-- 091&#45;&gt;0211 -->
<g id="edge20" class="edge"><title>091&#45;&gt;0211</title>
<path fill="none" stroke="#b43f3f" stroke-dasharray="1,5" d="M141.988,-276.799C141.304,-265.163 140.385,-249.548 139.602,-236.237"/>
<polygon fill="#b43f3f" stroke="#b43f3f" points="143.092,-235.953 139.01,-226.175 136.104,-236.364 143.092,-235.953"/>
<text text-anchor="middle" x="163" y="-247.8" font-family="Times,serif" font-size="14.00">1 (83.3)</text>
</g>
<!-- P75 -->
<g id="node24" class="node"><title>P75</title>
<ellipse fill="#ff8a8a" stroke="#b43f3f" cx="52" cy="-295" rx="36.2938" ry="18"/>
<text text-anchor="middle" x="52" y="-291.3" font-family="Times,serif" font-size="14.00">P75 (a)</text>
</g>
<!-- leg_s -->
<g id="node25" class="node"><title>leg_s</title>
<text text-anchor="middle" x="757" y="-291.3" font-family="Times,serif" font-size="14.00">Textual flow strength</text>
</g>
<!-- leg_e1 -->
<!-- leg_s&#45;&gt;leg_e1 -->
<g id="edge21" class="edge"><title>leg_s&#45;&gt;leg_e1</title>
<path fill="none" stroke="black" stroke-dasharray="1,5" d="M738.666,-276.686C733.132,-271.194 727.161,-264.989 722,-259 712.171,-247.593 702.072,-233.779 694.914,-223.563"/>
<polygon fill="black" stroke="black" points="697.614,-221.314 689.056,-215.068 691.851,-225.288 697.614,-221.314"/>
<text text-anchor="middle" x="737.5" y="-247.8" font-family="Times,serif" font-size="14.00">&lt;=5 &#160;</text>
</g>
<!-- leg_e2 -->
<!-- leg_s&#45;&gt;leg_e2 -->
<g id="edge22" class="edge"><title>leg_s&#45;&gt;leg_e2</title>
<path fill="none" stroke="black" stroke-dasharray="5,2" d="M757,-276.799C757,-261.794 757,-240.174 757,-225.409"/>
<polygon fill="black" stroke="black" points="760.5,-225.293 757,-215.293 753.5,-225.293 760.5,-225.293"/>
<text text-anchor="middle" x="776" y="-247.8" font-family="Times,serif" font-size="14.00"> &#160;&lt;=25</text>
</g>
<!-- leg_e3 -->
<!-- leg_s&#45;&gt;leg_e3 -->
<g id="edge23" class="edge"><title>leg_s&#45;&gt;leg_e3</title>
<path fill="none" stroke="black" d="M780.503,-276.76C786.906,-271.462 793.567,-265.344 799,-259 808.087,-248.39 816.095,-234.689 821.546,-224.313"/>
<polygon fill="black" stroke="black" points="824.722,-225.789 826.091,-215.283 818.469,-222.642 824.722,-225.789"/>
<text text-anchor="middle" x="820" y="-247.8" font-family="Times,serif" font-size="14.00">&gt;25</text>
</g>
</g>
</svg>
