<?xml version="1.0" encoding="UTF-8" standalone="no"?>
<!DOCTYPE svg PUBLIC "-//W3C//DTD SVG 1.1//EN"
 "http://www.w3.org/Graphics/SVG/1.1/DTD/svg11.dtd">
<!-- Generated by graphviz version 2.38.0 (20140413.2041)
 -->
<!-- Title: G Pages: 1 -->
<svg width="1076pt" height="305pt"
 viewBox="0.00 0.00 1075.89 305.00" xmlns="http://www.w3.org/2000/svg" xmlns:xlink="http://www.w3.org/1999/xlink">
<g id="graph0" class="graph" transform="scale(1 1) rotate(0) translate(4 301)">
<title>G</title>
<polygon fill="white" stroke="none" points="-4,4 -4,-301 1071.89,-301 1071.89,4 -4,4"/>
<!-- 013 (a) -->
<g id="node1" class="node"><title>013 (a)</title>
<ellipse fill="#ff8a8a" stroke="#b43f3f" cx="625.397" cy="-18" rx="36.2938" ry="18"/>
<text text-anchor="middle" x="625.397" y="-14.3" font-family="Times,serif" font-size="14.00">013 (a)</text>
</g>
<!-- 017 (a) -->
<g id="node2" class="node"><title>017 (a)</title>
<ellipse fill="#ff8a8a" stroke="#b43f3f" cx="716.397" cy="-18" rx="36.2938" ry="18"/>
<text text-anchor="middle" x="716.397" y="-14.3" font-family="Times,serif" font-size="14.00">017 (a)</text>
</g>
<!-- 021 (a) -->
<g id="node3" class="node"><title>021 (a)</title>
<ellipse fill="#ff8a8a" stroke="#b43f3f" cx="127.397" cy="-105" rx="36.2938" ry="18"/>
<text text-anchor="middle" x="127.397" y="-101.3" font-family="Times,serif" font-size="14.00">021 (a)</text>
</g>
<!-- 036 (a) -->
<g id="node7" class="node"><title>036 (a)</title>
<ellipse fill="#ff8a8a" stroke="#b43f3f" cx="36.3968" cy="-18" rx="36.2938" ry="18"/>
<text text-anchor="middle" x="36.3968" y="-14.3" font-family="Times,serif" font-size="14.00">036 (a)</text>
</g>
<!-- 021 (a)&#45;&gt;036 (a) -->
<g id="edge1" class="edge"><title>021 (a)&#45;&gt;036 (a)</title>
<path fill="none" stroke="#b43f3f" d="M106.025,-90.006C97.4044,-83.9634 87.5824,-76.5539 79.3968,-69 70.8527,-61.1154 62.3211,-51.6186 55.1364,-43.0293"/>
<polygon fill="#b43f3f" stroke="#b43f3f" points="57.741,-40.6853 48.7043,-35.1545 52.3196,-45.1135 57.741,-40.6853"/>
<text text-anchor="middle" x="101.397" y="-57.8" font-family="Times,serif" font-size="14.00">1 (97.6)</text>
</g>
<!-- 047 (a) -->
<g id="node24" class="node"><title>047 (a)</title>
<ellipse fill="#ff8a8a" stroke="#b43f3f" cx="127.397" cy="-18" rx="36.2938" ry="18"/>
<text text-anchor="middle" x="127.397" y="-14.3" font-family="Times,serif" font-size="14.00">047 (a)</text>
</g>
<!-- 021 (a)&#45;&gt;047 (a) -->
<g id="edge2" class="edge"><title>021 (a)&#45;&gt;047 (a)</title>
<path fill="none" stroke="#b43f3f" d="M127.397,-86.799C127.397,-75.1626 127.397,-59.5479 127.397,-46.2368"/>
<polygon fill="#b43f3f" stroke="#b43f3f" points="130.897,-46.1754 127.397,-36.1754 123.897,-46.1755 130.897,-46.1754"/>
<text text-anchor="middle" x="149.397" y="-57.8" font-family="Times,serif" font-size="14.00">1 (95.1)</text>
</g>
<!-- 037 (a) -->
<g id="node4" class="node"><title>037 (a)</title>
<ellipse fill="#ff8a8a" stroke="#b43f3f" cx="218.397" cy="-18" rx="36.2938" ry="18"/>
<text text-anchor="middle" x="218.397" y="-14.3" font-family="Times,serif" font-size="14.00">037 (a)</text>
</g>
<!-- 05 (a) -->
<g id="node5" class="node"><title>05 (a)</title>
<ellipse fill="#ff8a8a" stroke="#b43f3f" cx="549.397" cy="-192" rx="31.6951" ry="18"/>
<text text-anchor="middle" x="549.397" y="-188.3" font-family="Times,serif" font-size="14.00">05 (a)</text>
</g>
<!-- 02 (a) -->
<g id="node6" class="node"><title>02 (a)</title>
<ellipse fill="#ff8a8a" stroke="#b43f3f" cx="733.397" cy="-192" rx="31.6951" ry="18"/>
<text text-anchor="middle" x="733.397" y="-188.3" font-family="Times,serif" font-size="14.00">02 (a)</text>
</g>
<!-- 07 (a) -->
<g id="node8" class="node"><title>07 (a)</title>
<ellipse fill="#ff8a8a" stroke="#b43f3f" cx="309.397" cy="-105" rx="31.6951" ry="18"/>
<text text-anchor="middle" x="309.397" y="-101.3" font-family="Times,serif" font-size="14.00">07 (a)</text>
</g>
<!-- 07 (a)&#45;&gt;037 (a) -->
<g id="edge5" class="edge"><title>07 (a)&#45;&gt;037 (a)</title>
<path fill="none" stroke="#b43f3f" d="M288.978,-90.6717C280.134,-84.5121 269.886,-76.8337 261.397,-69 252.853,-61.1154 244.321,-51.6186 237.136,-43.0293"/>
<polygon fill="#b43f3f" stroke="#b43f3f" points="239.741,-40.6853 230.704,-35.1545 234.32,-45.1135 239.741,-40.6853"/>
<text text-anchor="middle" x="283.397" y="-57.8" font-family="Times,serif" font-size="14.00">1 (97.5)</text>
</g>
<!-- 034 (a) -->
<g id="node13" class="node"><title>034 (a)</title>
<ellipse fill="#ff8a8a" stroke="#b43f3f" cx="309.397" cy="-18" rx="36.2938" ry="18"/>
<text text-anchor="middle" x="309.397" y="-14.3" font-family="Times,serif" font-size="14.00">034 (a)</text>
</g>
<!-- 07 (a)&#45;&gt;034 (a) -->
<g id="edge4" class="edge"><title>07 (a)&#45;&gt;034 (a)</title>
<path fill="none" stroke="#b43f3f" d="M309.397,-86.799C309.397,-75.1626 309.397,-59.5479 309.397,-46.2368"/>
<polygon fill="#b43f3f" stroke="#b43f3f" points="312.897,-46.1754 309.397,-36.1754 305.897,-46.1755 312.897,-46.1754"/>
<text text-anchor="middle" x="331.397" y="-57.8" font-family="Times,serif" font-size="14.00">1 (95.1)</text>
</g>
<!-- 030 (a) -->
<g id="node20" class="node"><title>030 (a)</title>
<ellipse fill="#ff8a8a" stroke="#b43f3f" cx="400.397" cy="-18" rx="36.2938" ry="18"/>
<text text-anchor="middle" x="400.397" y="-14.3" font-family="Times,serif" font-size="14.00">030 (a)</text>
</g>
<!-- 07 (a)&#45;&gt;030 (a) -->
<g id="edge3" class="edge"><title>07 (a)&#45;&gt;030 (a)</title>
<path fill="none" stroke="#b43f3f" d="M329.816,-90.6717C338.659,-84.5121 348.908,-76.8337 357.397,-69 365.941,-61.1154 374.472,-51.6186 381.657,-43.0293"/>
<polygon fill="#b43f3f" stroke="#b43f3f" points="384.474,-45.1135 388.089,-35.1545 379.053,-40.6853 384.474,-45.1135"/>
<text text-anchor="middle" x="393.397" y="-57.8" font-family="Times,serif" font-size="14.00">1 (95.1)</text>
</g>
<!-- 038 (a) -->
<g id="node9" class="node"><title>038 (a)</title>
<ellipse fill="#ff8a8a" stroke="#b43f3f" cx="491.397" cy="-18" rx="36.2938" ry="18"/>
<text text-anchor="middle" x="491.397" y="-14.3" font-family="Times,serif" font-size="14.00">038 (a)</text>
</g>
<!-- 03 (a) -->
<g id="node10" class="node"><title>03 (a)</title>
<ellipse fill="#ff8a8a" stroke="#b43f3f" cx="771.397" cy="-279" rx="31.6951" ry="18"/>
<text text-anchor="middle" x="771.397" y="-275.3" font-family="Times,serif" font-size="14.00">03 (a)</text>
</g>
<!-- 03 (a)&#45;&gt;02 (a) -->
<g id="edge7" class="edge"><title>03 (a)&#45;&gt;02 (a)</title>
<path fill="none" stroke="#b43f3f" d="M756.538,-262.707C751.675,-256.937 746.684,-250.053 743.397,-243 740.106,-235.939 737.896,-227.824 736.413,-220.214"/>
<polygon fill="#b43f3f" stroke="#b43f3f" points="739.861,-219.609 734.807,-210.297 732.951,-220.728 739.861,-219.609"/>
<text text-anchor="middle" x="765.397" y="-231.8" font-family="Times,serif" font-size="14.00">1 (86.5)</text>
</g>
<!-- 044 (a) -->
<g id="node25" class="node"><title>044 (a)</title>
<ellipse fill="#ff8a8a" stroke="#b43f3f" cx="819.397" cy="-192" rx="36.2938" ry="18"/>
<text text-anchor="middle" x="819.397" y="-188.3" font-family="Times,serif" font-size="14.00">044 (a)</text>
</g>
<!-- 03 (a)&#45;&gt;044 (a) -->
<g id="edge6" class="edge"><title>03 (a)&#45;&gt;044 (a)</title>
<path fill="none" stroke="#b43f3f" d="M780.652,-261.611C787.513,-249.46 797.001,-232.66 804.87,-218.725"/>
<polygon fill="#b43f3f" stroke="#b43f3f" points="808.137,-220.057 810.007,-209.629 802.042,-216.615 808.137,-220.057"/>
<text text-anchor="middle" x="820.397" y="-231.8" font-family="Times,serif" font-size="14.00">1 (89.2)</text>
</g>
<!-- P75 (a) -->
<g id="node11" class="node"><title>P75 (a)</title>
<ellipse fill="#ff8a8a" stroke="#b43f3f" cx="857.397" cy="-279" rx="36.2938" ry="18"/>
<text text-anchor="middle" x="857.397" y="-275.3" font-family="Times,serif" font-size="14.00">P75 (a)</text>
</g>
<!-- 032 (c) -->
<g id="node12" class="node"><title>032 (c)</title>
<ellipse fill="#72fe95" stroke="#27b34a" cx="948.397" cy="-279" rx="36.2938" ry="18"/>
<text text-anchor="middle" x="948.397" y="-275.3" font-family="Times,serif" font-size="14.00">032 (c)</text>
</g>
<!-- 019 (a) -->
<g id="node14" class="node"><title>019 (a)</title>
<ellipse fill="#ff8a8a" stroke="#b43f3f" cx="455.397" cy="-279" rx="36.2938" ry="18"/>
<text text-anchor="middle" x="455.397" y="-275.3" font-family="Times,serif" font-size="14.00">019 (a)</text>
</g>
<!-- 063 (a) -->
<g id="node26" class="node"><title>063 (a)</title>
<ellipse fill="#ff8a8a" stroke="#b43f3f" cx="455.397" cy="-192" rx="36.2938" ry="18"/>
<text text-anchor="middle" x="455.397" y="-188.3" font-family="Times,serif" font-size="14.00">063 (a)</text>
</g>
<!-- 019 (a)&#45;&gt;063 (a) -->
<g id="edge8" class="edge"><title>019 (a)&#45;&gt;063 (a)</title>
<path fill="none" stroke="#b43f3f" d="M455.397,-260.799C455.397,-249.163 455.397,-233.548 455.397,-220.237"/>
<polygon fill="#b43f3f" stroke="#b43f3f" points="458.897,-220.175 455.397,-210.175 451.897,-220.175 458.897,-220.175"/>
<text text-anchor="middle" x="477.397" y="-231.8" font-family="Times,serif" font-size="14.00">1 (85.7)</text>
</g>
<!-- 0141 (a) -->
<g id="node15" class="node"><title>0141 (a)</title>
<ellipse fill="#ff8a8a" stroke="#b43f3f" cx="782.397" cy="-105" rx="40.0939" ry="18"/>
<text text-anchor="middle" x="782.397" y="-101.3" font-family="Times,serif" font-size="14.00">0141 (a)</text>
</g>
<!-- 0211 (a) -->
<g id="node16" class="node"><title>0211 (a)</title>
<ellipse fill="#ff8a8a" stroke="#b43f3f" cx="639.397" cy="-192" rx="40.0939" ry="18"/>
<text text-anchor="middle" x="639.397" y="-188.3" font-family="Times,serif" font-size="14.00">0211 (a)</text>
</g>
<!-- 011 (a) -->
<g id="node17" class="node"><title>011 (a)</title>
<ellipse fill="#ff8a8a" stroke="#b43f3f" cx="395.397" cy="-105" rx="36.2938" ry="18"/>
<text text-anchor="middle" x="395.397" y="-101.3" font-family="Times,serif" font-size="14.00">011 (a)</text>
</g>
<!-- 045 (a) -->
<g id="node18" class="node"><title>045 (a)</title>
<ellipse fill="#ff8a8a" stroke="#b43f3f" cx="486.397" cy="-105" rx="36.2938" ry="18"/>
<text text-anchor="middle" x="486.397" y="-101.3" font-family="Times,serif" font-size="14.00">045 (a)</text>
</g>
<!-- 045 (a)&#45;&gt;038 (a) -->
<g id="edge9" class="edge"><title>045 (a)&#45;&gt;038 (a)</title>
<path fill="none" stroke="#b43f3f" d="M487.409,-86.799C488.093,-75.1626 489.012,-59.5479 489.795,-46.2368"/>
<polygon fill="#b43f3f" stroke="#b43f3f" points="493.293,-46.3637 490.386,-36.1754 486.305,-45.9526 493.293,-46.3637"/>
<text text-anchor="middle" x="511.397" y="-57.8" font-family="Times,serif" font-size="14.00">1 (92.7)</text>
</g>
<!-- 01 (b) -->
<g id="node19" class="node"><title>01 (b)</title>
<ellipse fill="#cea8f4" stroke="#835da9" cx="1035.4" cy="-279" rx="32.4942" ry="18"/>
<text text-anchor="middle" x="1035.4" y="-275.3" font-family="Times,serif" font-size="14.00">01 (b)</text>
</g>
<!-- 028 (a) -->
<g id="node21" class="node"><title>028 (a)</title>
<ellipse fill="#ff8a8a" stroke="#b43f3f" cx="577.397" cy="-105" rx="36.2938" ry="18"/>
<text text-anchor="middle" x="577.397" y="-101.3" font-family="Times,serif" font-size="14.00">028 (a)</text>
</g>
<!-- 091 (a) -->
<g id="node22" class="node"><title>091 (a)</title>
<ellipse fill="#ff8a8a" stroke="#b43f3f" cx="594.397" cy="-279" rx="36.2938" ry="18"/>
<text text-anchor="middle" x="594.397" y="-275.3" font-family="Times,serif" font-size="14.00">091 (a)</text>
</g>
<!-- 091 (a)&#45;&gt;05 (a) -->
<g id="edge11" class="edge"><title>091 (a)&#45;&gt;05 (a)</title>
<path fill="none" stroke="#b43f3f" d="M580.042,-262.452C575.226,-256.658 570.136,-249.824 566.397,-243 562.476,-235.844 559.226,-227.62 556.656,-219.936"/>
<polygon fill="#b43f3f" stroke="#b43f3f" points="559.968,-218.799 553.667,-210.281 553.28,-220.869 559.968,-218.799"/>
<text text-anchor="middle" x="588.397" y="-231.8" font-family="Times,serif" font-size="14.00">1 (87.5)</text>
</g>
<!-- 091 (a)&#45;&gt;0211 (a) -->
<g id="edge10" class="edge"><title>091 (a)&#45;&gt;0211 (a)</title>
<path fill="none" stroke="#b43f3f" d="M603.287,-261.207C609.697,-249.099 618.468,-232.533 625.76,-218.759"/>
<polygon fill="#b43f3f" stroke="#b43f3f" points="628.939,-220.234 630.525,-209.758 622.752,-216.959 628.939,-220.234"/>
<text text-anchor="middle" x="642.397" y="-231.8" font-family="Times,serif" font-size="14.00">1 (83.3)</text>
</g>
<!-- 022 (a) -->
<g id="node23" class="node"><title>022 (a)</title>
<ellipse fill="#ff8a8a" stroke="#b43f3f" cx="877.397" cy="-105" rx="36.2938" ry="18"/>
<text text-anchor="middle" x="877.397" y="-101.3" font-family="Times,serif" font-size="14.00">022 (a)</text>
</g>
<!-- 044 (a)&#45;&gt;0141 (a) -->
<g id="edge13" class="edge"><title>044 (a)&#45;&gt;0141 (a)</title>
<path fill="none" stroke="#b43f3f" d="M812.087,-174.207C806.867,-162.216 799.744,-145.851 793.783,-132.157"/>
<polygon fill="#b43f3f" stroke="#b43f3f" points="796.892,-130.53 789.692,-122.758 790.474,-133.324 796.892,-130.53"/>
<text text-anchor="middle" x="825.397" y="-144.8" font-family="Times,serif" font-size="14.00">1 (89.2)</text>
</g>
<!-- 044 (a)&#45;&gt;022 (a) -->
<g id="edge12" class="edge"><title>044 (a)&#45;&gt;022 (a)</title>
<path fill="none" stroke="#b43f3f" d="M834.981,-175.714C840.528,-169.837 846.585,-162.883 851.397,-156 856.578,-148.589 861.406,-140.012 865.462,-132.077"/>
<polygon fill="#b43f3f" stroke="#b43f3f" points="868.733,-133.357 869.997,-122.838 862.449,-130.272 868.733,-133.357"/>
<text text-anchor="middle" x="882.397" y="-144.8" font-family="Times,serif" font-size="14.00">1 (91.7)</text>
</g>
<!-- 063 (a)&#45;&gt;021 (a) -->
<g id="edge18" class="edge"><title>063 (a)&#45;&gt;021 (a)</title>
<path fill="none" stroke="#b43f3f" d="M422.256,-184.344C390.178,-177.739 340.249,-167.035 297.397,-156 252.385,-144.409 201.29,-129.084 166.971,-118.47"/>
<polygon fill="#b43f3f" stroke="#b43f3f" points="167.908,-115.096 157.32,-115.472 165.832,-121.781 167.908,-115.096"/>
<text text-anchor="middle" x="319.397" y="-144.8" font-family="Times,serif" font-size="14.00">1 (93.1)</text>
</g>
<!-- 063 (a)&#45;&gt;07 (a) -->
<g id="edge17" class="edge"><title>063 (a)&#45;&gt;07 (a)</title>
<path fill="none" stroke="#b43f3f" d="M424.576,-182.303C406.302,-176.394 383.128,-167.548 364.397,-156 352.262,-148.519 340.359,-138.183 330.747,-128.851"/>
<polygon fill="#b43f3f" stroke="#b43f3f" points="333.109,-126.263 323.568,-121.654 328.153,-131.206 333.109,-126.263"/>
<text text-anchor="middle" x="386.397" y="-144.8" font-family="Times,serif" font-size="14.00">1 (96.6)</text>
</g>
<!-- 063 (a)&#45;&gt;011 (a) -->
<g id="edge16" class="edge"><title>063 (a)&#45;&gt;011 (a)</title>
<path fill="none" stroke="#b43f3f" d="M438.779,-175.848C432.879,-169.986 426.454,-163.006 421.397,-156 416.046,-148.587 411.138,-139.925 407.062,-131.912"/>
<polygon fill="#b43f3f" stroke="#b43f3f" points="410.207,-130.377 402.682,-122.919 403.914,-133.442 410.207,-130.377"/>
<text text-anchor="middle" x="443.397" y="-144.8" font-family="Times,serif" font-size="14.00">1 (93.1)</text>
</g>
<!-- 063 (a)&#45;&gt;045 (a) -->
<g id="edge14" class="edge"><title>063 (a)&#45;&gt;045 (a)</title>
<path fill="none" stroke="#b43f3f" d="M461.521,-174.207C465.895,-162.216 471.863,-145.851 476.857,-132.157"/>
<polygon fill="#b43f3f" stroke="#b43f3f" points="480.147,-133.352 480.285,-122.758 473.57,-130.954 480.147,-133.352"/>
<text text-anchor="middle" x="495.397" y="-144.8" font-family="Times,serif" font-size="14.00">1 (93.1)</text>
</g>
<!-- 063 (a)&#45;&gt;028 (a) -->
<g id="edge15" class="edge"><title>063 (a)&#45;&gt;028 (a)</title>
<path fill="none" stroke="#b43f3f" d="M481.307,-179.077C493.833,-172.865 508.837,-164.745 521.397,-156 533.044,-147.89 544.915,-137.633 554.711,-128.523"/>
<polygon fill="#b43f3f" stroke="#b43f3f" points="557.239,-130.95 562.08,-121.525 552.418,-125.874 557.239,-130.95"/>
<text text-anchor="middle" x="561.397" y="-144.8" font-family="Times,serif" font-size="14.00">1 (96.6)</text>
</g>
<!-- 031 (a) -->
<g id="node27" class="node"><title>031 (a)</title>
<ellipse fill="#ff8a8a" stroke="#b43f3f" cx="668.397" cy="-105" rx="36.2938" ry="18"/>
<text text-anchor="middle" x="668.397" y="-101.3" font-family="Times,serif" font-size="14.00">031 (a)</text>
</g>
<!-- 063 (a)&#45;&gt;031 (a) -->
<g id="edge19" class="edge"><title>063 (a)&#45;&gt;031 (a)</title>
<path fill="none" stroke="#b43f3f" d="M484.697,-181.104C492.37,-178.649 500.661,-176.118 508.397,-174 543.13,-164.492 554.07,-169.642 587.397,-156 606.191,-148.307 625.605,-136.479 640.714,-126.258"/>
<polygon fill="#b43f3f" stroke="#b43f3f" points="642.846,-129.039 649.076,-120.469 638.861,-123.284 642.846,-129.039"/>
<text text-anchor="middle" x="638.397" y="-144.8" font-family="Times,serif" font-size="14.00">1 (95.8)</text>
</g>
<!-- 031 (a)&#45;&gt;013 (a) -->
<g id="edge20" class="edge"><title>031 (a)&#45;&gt;013 (a)</title>
<path fill="none" stroke="#b43f3f" d="M659.752,-87.2851C656.773,-81.501 653.425,-74.9722 650.397,-69 646.402,-61.1233 642.089,-52.5285 638.188,-44.7215"/>
<polygon fill="#b43f3f" stroke="#b43f3f" points="641.278,-43.0767 633.683,-35.6905 635.015,-46.2013 641.278,-43.0767"/>
<text text-anchor="middle" x="672.397" y="-57.8" font-family="Times,serif" font-size="14.00">1 (97.1)</text>
</g>
<!-- 031 (a)&#45;&gt;017 (a) -->
<g id="edge21" class="edge"><title>031 (a)&#45;&gt;017 (a)</title>
<path fill="none" stroke="#b43f3f" d="M681.355,-88.1391C685.792,-82.3156 690.592,-75.5436 694.397,-69 698.687,-61.6215 702.68,-53.2512 706.055,-45.4984"/>
<polygon fill="#b43f3f" stroke="#b43f3f" points="709.343,-46.7057 709.973,-36.1296 702.886,-44.0044 709.343,-46.7057"/>
<text text-anchor="middle" x="724.397" y="-57.8" font-family="Times,serif" font-size="14.00">1 (94.3)</text>
</g>
</g>
</svg>
