<?xml version="1.0" encoding="UTF-8" standalone="no"?>
<!DOCTYPE svg PUBLIC "-//W3C//DTD SVG 1.1//EN"
 "http://www.w3.org/Graphics/SVG/1.1/DTD/svg11.dtd">
<!-- Generated by graphviz version 2.38.0 (20140413.2041)
 -->
<!-- Title: %3 Pages: 1 -->
<svg width="1052pt" height="163pt"
 viewBox="0.00 0.00 1052.00 163.00" xmlns="http://www.w3.org/2000/svg" xmlns:xlink="http://www.w3.org/1999/xlink">
<g id="graph0" class="graph" transform="scale(1 1) rotate(0) translate(4 159)">
<title>%3</title>
<polygon fill="white" stroke="none" points="-4,4 -4,-159 1048,-159 1048,4 -4,4"/>
<g id="clust1" class="cluster"><title>cluster_reading</title>
<polygon fill="none" stroke="black" points="8,-8 8,-147 814,-147 814,-8 8,-8"/>
</g>
<g id="clust2" class="cluster"><title>cluster_legend</title>
<path fill="none" stroke="black" d="M834,-19C834,-19 1024,-19 1024,-19 1030,-19 1036,-25 1036,-31 1036,-31 1036,-135 1036,-135 1036,-141 1030,-147 1024,-147 1024,-147 834,-147 834,-147 828,-147 822,-141 822,-135 822,-135 822,-31 822,-31 822,-25 828,-19 834,-19"/>
</g>
<!-- 021 -->
<g id="node1" class="node"><title>021</title>
<ellipse fill="#ff8a8a" stroke="#b43f3f" cx="721" cy="-121" rx="36.2938" ry="18"/>
<text text-anchor="middle" x="721" y="-117.3" font-family="Times,serif" font-size="14.00">021 (a)</text>
</g>
<!-- 036 -->
<g id="node2" class="node"><title>036</title>
<ellipse fill="#ff8a8a" stroke="#b43f3f" cx="679" cy="-34" rx="36.2938" ry="18"/>
<text text-anchor="middle" x="679" y="-30.3" font-family="Times,serif" font-size="14.00">036 (a)</text>
</g>
<!-- 021&#45;&gt;036 -->
<g id="edge1" class="edge"><title>021&#45;&gt;036</title>
<path fill="none" stroke="#b43f3f" stroke-dasharray="1,5" d="M705.523,-104.327C700.6,-98.6263 695.524,-91.8838 692,-85 688.403,-77.9743 685.743,-69.8705 683.801,-62.2601"/>
<polygon fill="#b43f3f" stroke="#b43f3f" points="687.179,-61.3279 681.576,-52.3355 680.348,-62.859 687.179,-61.3279"/>
<text text-anchor="middle" x="714" y="-73.8" font-family="Times,serif" font-size="14.00">1 (97.6)</text>
</g>
<!-- 047 -->
<g id="node3" class="node"><title>047</title>
<ellipse fill="#ff8a8a" stroke="#b43f3f" cx="770" cy="-34" rx="36.2938" ry="18"/>
<text text-anchor="middle" x="770" y="-30.3" font-family="Times,serif" font-size="14.00">047 (a)</text>
</g>
<!-- 021&#45;&gt;047 -->
<g id="edge2" class="edge"><title>021&#45;&gt;047</title>
<path fill="none" stroke="#b43f3f" stroke-dasharray="1,5" d="M730.448,-103.611C737.52,-91.3433 747.324,-74.3364 755.401,-60.3242"/>
<polygon fill="#b43f3f" stroke="#b43f3f" points="758.452,-62.0401 760.414,-51.6286 752.388,-58.5441 758.452,-62.0401"/>
<text text-anchor="middle" x="771" y="-73.8" font-family="Times,serif" font-size="14.00">1 (95.1)</text>
</g>
<!-- 031 -->
<g id="node4" class="node"><title>031</title>
<ellipse fill="#ff8a8a" stroke="#b43f3f" cx="505" cy="-121" rx="36.2938" ry="18"/>
<text text-anchor="middle" x="505" y="-117.3" font-family="Times,serif" font-size="14.00">031 (a)</text>
</g>
<!-- 01 -->
<g id="node5" class="node"><title>01</title>
<ellipse fill="#ff8a8a" stroke="#b43f3f" cx="411" cy="-34" rx="31.6951" ry="18"/>
<text text-anchor="middle" x="411" y="-30.3" font-family="Times,serif" font-size="14.00">01 (a)</text>
</g>
<!-- 031&#45;&gt;01 -->
<g id="edge3" class="edge"><title>031&#45;&gt;01</title>
<path fill="none" stroke="#b43f3f" stroke-dasharray="1,5" d="M482.496,-106.807C472.952,-100.729 461.983,-93.0758 453,-85 444.311,-77.1885 435.811,-67.5628 428.756,-58.8497"/>
<polygon fill="#b43f3f" stroke="#b43f3f" points="431.409,-56.561 422.476,-50.8645 425.907,-60.8885 431.409,-56.561"/>
<text text-anchor="middle" x="475" y="-73.8" font-family="Times,serif" font-size="14.00">2 (48.5)</text>
</g>
<!-- 017 -->
<g id="node6" class="node"><title>017</title>
<ellipse fill="#ff8a8a" stroke="#b43f3f" cx="497" cy="-34" rx="36.2938" ry="18"/>
<text text-anchor="middle" x="497" y="-30.3" font-family="Times,serif" font-size="14.00">017 (a)</text>
</g>
<!-- 031&#45;&gt;017 -->
<g id="edge4" class="edge"><title>031&#45;&gt;017</title>
<path fill="none" stroke="#b43f3f" stroke-dasharray="1,5" d="M503.381,-102.799C502.286,-91.1626 500.816,-75.5479 499.563,-62.2368"/>
<polygon fill="#b43f3f" stroke="#b43f3f" points="503.038,-61.8034 498.617,-52.1754 496.069,-62.4594 503.038,-61.8034"/>
<text text-anchor="middle" x="524" y="-73.8" font-family="Times,serif" font-size="14.00">1 (94.3)</text>
</g>
<!-- 013 -->
<g id="node7" class="node"><title>013</title>
<ellipse fill="#ff8a8a" stroke="#b43f3f" cx="588" cy="-34" rx="36.2938" ry="18"/>
<text text-anchor="middle" x="588" y="-30.3" font-family="Times,serif" font-size="14.00">013 (a)</text>
</g>
<!-- 031&#45;&gt;013 -->
<g id="edge5" class="edge"><title>031&#45;&gt;013</title>
<path fill="none" stroke="#b43f3f" stroke-dasharray="1,5" d="M525.646,-105.716C533.64,-99.7425 542.623,-92.4597 550,-85 557.511,-77.4049 564.838,-68.3004 571.022,-59.954"/>
<polygon fill="#b43f3f" stroke="#b43f3f" points="574.015,-61.7875 577.013,-51.6257 568.332,-57.6998 574.015,-61.7875"/>
<text text-anchor="middle" x="585" y="-73.8" font-family="Times,serif" font-size="14.00">1 (97.1)</text>
</g>
<!-- 07 -->
<g id="node8" class="node"><title>07</title>
<ellipse fill="#ff8a8a" stroke="#b43f3f" cx="419" cy="-121" rx="31.6951" ry="18"/>
<text text-anchor="middle" x="419" y="-117.3" font-family="Times,serif" font-size="14.00">07 (a)</text>
</g>
<!-- 030 -->
<g id="node9" class="node"><title>030</title>
<ellipse fill="#ff8a8a" stroke="#b43f3f" cx="143" cy="-34" rx="36.2938" ry="18"/>
<text text-anchor="middle" x="143" y="-30.3" font-family="Times,serif" font-size="14.00">030 (a)</text>
</g>
<!-- 07&#45;&gt;030 -->
<g id="edge6" class="edge"><title>07&#45;&gt;030</title>
<path fill="none" stroke="#b43f3f" stroke-dasharray="1,5" d="M395.084,-108.858C389.567,-106.634 383.656,-104.519 378,-103 319.114,-87.1886 300.255,-102.997 242,-85 217.81,-77.527 192.353,-64.5406 173.311,-53.6757"/>
<polygon fill="#b43f3f" stroke="#b43f3f" points="174.915,-50.5589 164.513,-48.5458 171.389,-56.6062 174.915,-50.5589"/>
<text text-anchor="middle" x="264" y="-73.8" font-family="Times,serif" font-size="14.00">1 (95.1)</text>
</g>
<!-- 034 -->
<g id="node10" class="node"><title>034</title>
<ellipse fill="#ff8a8a" stroke="#b43f3f" cx="234" cy="-34" rx="36.2938" ry="18"/>
<text text-anchor="middle" x="234" y="-30.3" font-family="Times,serif" font-size="14.00">034 (a)</text>
</g>
<!-- 07&#45;&gt;034 -->
<g id="edge7" class="edge"><title>07&#45;&gt;034</title>
<path fill="none" stroke="#b43f3f" stroke-dasharray="1,5" d="M394.435,-109.361C389.057,-107.159 383.367,-104.926 378,-103 352.196,-93.7389 344.1,-96.0265 319,-85 299.738,-76.5383 279.383,-64.6795 263.423,-54.6346"/>
<polygon fill="#b43f3f" stroke="#b43f3f" points="264.884,-51.414 254.575,-48.9692 261.109,-57.3091 264.884,-51.414"/>
<text text-anchor="middle" x="341" y="-73.8" font-family="Times,serif" font-size="14.00">1 (95.1)</text>
</g>
<!-- 037 -->
<g id="node11" class="node"><title>037</title>
<ellipse fill="#ff8a8a" stroke="#b43f3f" cx="325" cy="-34" rx="36.2938" ry="18"/>
<text text-anchor="middle" x="325" y="-30.3" font-family="Times,serif" font-size="14.00">037 (a)</text>
</g>
<!-- 07&#45;&gt;037 -->
<g id="edge8" class="edge"><title>07&#45;&gt;037</title>
<path fill="none" stroke="#b43f3f" stroke-dasharray="1,5" d="M402.626,-105.194C387.98,-91.9504 366.307,-72.3517 349.58,-57.2267"/>
<polygon fill="#b43f3f" stroke="#b43f3f" points="351.584,-54.3196 341.819,-50.2086 346.889,-59.5117 351.584,-54.3196"/>
<text text-anchor="middle" x="400" y="-73.8" font-family="Times,serif" font-size="14.00">1 (97.5)</text>
</g>
<!-- 045 -->
<g id="node12" class="node"><title>045</title>
<ellipse fill="#ff8a8a" stroke="#b43f3f" cx="333" cy="-121" rx="36.2938" ry="18"/>
<text text-anchor="middle" x="333" y="-117.3" font-family="Times,serif" font-size="14.00">045 (a)</text>
</g>
<!-- 038 -->
<g id="node13" class="node"><title>038</title>
<ellipse fill="#ff8a8a" stroke="#b43f3f" cx="52" cy="-34" rx="36.2938" ry="18"/>
<text text-anchor="middle" x="52" y="-30.3" font-family="Times,serif" font-size="14.00">038 (a)</text>
</g>
<!-- 045&#45;&gt;038 -->
<g id="edge9" class="edge"><title>045&#45;&gt;038</title>
<path fill="none" stroke="#b43f3f" stroke-dasharray="1,5" d="M305.574,-108.77C299.532,-106.605 293.11,-104.536 287,-103 230.858,-88.8847 213.477,-101.537 158,-85 131.959,-77.2377 104.241,-63.9672 83.6824,-53.0479"/>
<polygon fill="#b43f3f" stroke="#b43f3f" points="85.2324,-49.9071 74.772,-48.2245 81.9001,-56.063 85.2324,-49.9071"/>
<text text-anchor="middle" x="180" y="-73.8" font-family="Times,serif" font-size="14.00">1 (92.7)</text>
</g>
<!-- 011 -->
<g id="node14" class="node"><title>011</title>
<ellipse fill="#ff8a8a" stroke="#b43f3f" cx="242" cy="-121" rx="36.2938" ry="18"/>
<text text-anchor="middle" x="242" y="-117.3" font-family="Times,serif" font-size="14.00">011 (a)</text>
</g>
<!-- 0141 -->
<g id="node15" class="node"><title>0141</title>
<ellipse fill="#ff8a8a" stroke="#b43f3f" cx="147" cy="-121" rx="40.0939" ry="18"/>
<text text-anchor="middle" x="147" y="-117.3" font-family="Times,serif" font-size="14.00">0141 (a)</text>
</g>
<!-- 028 -->
<g id="node16" class="node"><title>028</title>
<ellipse fill="#ff8a8a" stroke="#b43f3f" cx="52" cy="-121" rx="36.2938" ry="18"/>
<text text-anchor="middle" x="52" y="-117.3" font-family="Times,serif" font-size="14.00">028 (a)</text>
</g>
<!-- leg_s -->
<g id="node17" class="node"><title>leg_s</title>
<text text-anchor="middle" x="929" y="-117.3" font-family="Times,serif" font-size="14.00">Textual flow strength</text>
</g>
<!-- leg_e1 -->
<!-- leg_s&#45;&gt;leg_e1 -->
<g id="edge10" class="edge"><title>leg_s&#45;&gt;leg_e1</title>
<path fill="none" stroke="black" stroke-dasharray="1,5" d="M910.666,-102.686C905.132,-97.1938 899.161,-90.9891 894,-85 884.171,-73.593 874.072,-59.7786 866.914,-49.5634"/>
<polygon fill="black" stroke="black" points="869.614,-47.3142 861.056,-41.0685 863.851,-51.2879 869.614,-47.3142"/>
<text text-anchor="middle" x="909.5" y="-73.8" font-family="Times,serif" font-size="14.00">&lt;=5 &#160;</text>
</g>
<!-- leg_e2 -->
<!-- leg_s&#45;&gt;leg_e2 -->
<g id="edge11" class="edge"><title>leg_s&#45;&gt;leg_e2</title>
<path fill="none" stroke="black" stroke-dasharray="5,2" d="M929,-102.799C929,-87.7942 929,-66.1745 929,-51.4086"/>
<polygon fill="black" stroke="black" points="932.5,-51.2934 929,-41.2934 925.5,-51.2934 932.5,-51.2934"/>
<text text-anchor="middle" x="948" y="-73.8" font-family="Times,serif" font-size="14.00"> &#160;&lt;=25</text>
</g>
<!-- leg_e3 -->
<!-- leg_s&#45;&gt;leg_e3 -->
<g id="edge12" class="edge"><title>leg_s&#45;&gt;leg_e3</title>
<path fill="none" stroke="black" d="M952.503,-102.76C958.906,-97.4621 965.567,-91.3439 971,-85 980.087,-74.3897 988.095,-60.6892 993.546,-50.3134"/>
<polygon fill="black" stroke="black" points="996.722,-51.7893 998.091,-41.2833 990.469,-48.6425 996.722,-51.7893"/>
<text text-anchor="middle" x="992" y="-73.8" font-family="Times,serif" font-size="14.00">&gt;25</text>
</g>
</g>
</svg>
