<?xml version="1.0" encoding="UTF-8" standalone="no"?>
<!DOCTYPE svg PUBLIC "-//W3C//DTD SVG 1.1//EN"
 "http://www.w3.org/Graphics/SVG/1.1/DTD/svg11.dtd">
<!-- Generated by graphviz version 2.38.0 (20140413.2041)
 -->
<!-- Title: %3 Pages: 1 -->
<svg width="971pt" height="424pt"
 viewBox="0.00 0.00 971.00 424.00" xmlns="http://www.w3.org/2000/svg" xmlns:xlink="http://www.w3.org/1999/xlink">
<g id="graph0" class="graph" transform="scale(1 1) rotate(0) translate(4 420)">
<title>%3</title>
<polygon fill="white" stroke="none" points="-4,4 -4,-420 967,-420 967,4 -4,4"/>
<g id="clust1" class="cluster"><title>cluster_reading</title>
<polygon fill="none" stroke="black" points="8,-8 8,-321 733,-321 733,-8 8,-8"/>
</g>
<g id="clust2" class="cluster"><title>cluster_legend</title>
<path fill="none" stroke="black" d="M753,-280C753,-280 943,-280 943,-280 949,-280 955,-286 955,-292 955,-292 955,-396 955,-396 955,-402 949,-408 943,-408 943,-408 753,-408 753,-408 747,-408 741,-402 741,-396 741,-396 741,-292 741,-292 741,-286 747,-280 753,-280"/>
</g>
<!-- 021 -->
<g id="node1" class="node"><title>021</title>
<ellipse fill="#ff8a8a" stroke="#b43f3f" cx="597" cy="-121" rx="36.2938" ry="18"/>
<text text-anchor="middle" x="597" y="-117.3" font-family="Times,serif" font-size="14.00">021 (a)</text>
</g>
<!-- 036 -->
<g id="node2" class="node"><title>036</title>
<ellipse fill="#ff8a8a" stroke="#b43f3f" cx="598" cy="-34" rx="36.2938" ry="18"/>
<text text-anchor="middle" x="598" y="-30.3" font-family="Times,serif" font-size="14.00">036 (a)</text>
</g>
<!-- 021&#45;&gt;036 -->
<g id="edge1" class="edge"><title>021&#45;&gt;036</title>
<path fill="none" stroke="#b43f3f" stroke-dasharray="1,5" d="M597.202,-102.799C597.339,-91.1626 597.523,-75.5479 597.68,-62.2368"/>
<polygon fill="#b43f3f" stroke="#b43f3f" points="601.18,-62.216 597.798,-52.1754 594.18,-62.1335 601.18,-62.216"/>
<text text-anchor="middle" x="620" y="-73.8" font-family="Times,serif" font-size="14.00">1 (97.6)</text>
</g>
<!-- 047 -->
<g id="node3" class="node"><title>047</title>
<ellipse fill="#ff8a8a" stroke="#b43f3f" cx="689" cy="-34" rx="36.2938" ry="18"/>
<text text-anchor="middle" x="689" y="-30.3" font-family="Times,serif" font-size="14.00">047 (a)</text>
</g>
<!-- 021&#45;&gt;047 -->
<g id="edge2" class="edge"><title>021&#45;&gt;047</title>
<path fill="none" stroke="#b43f3f" stroke-dasharray="1,5" d="M618.35,-106.402C627.27,-100.31 637.511,-92.7574 646,-85 654.583,-77.1573 663.122,-67.6692 670.302,-59.0751"/>
<polygon fill="#b43f3f" stroke="#b43f3f" points="673.122,-61.155 676.727,-51.1922 667.696,-56.7326 673.122,-61.155"/>
<text text-anchor="middle" x="683" y="-73.8" font-family="Times,serif" font-size="14.00">1 (95.1)</text>
</g>
<!-- 03 -->
<g id="node4" class="node"><title>03</title>
<ellipse fill="#ff8a8a" stroke="#b43f3f" cx="284" cy="-295" rx="31.6951" ry="18"/>
<text text-anchor="middle" x="284" y="-291.3" font-family="Times,serif" font-size="14.00">03 (a)</text>
</g>
<!-- 044 -->
<g id="node5" class="node"><title>044</title>
<ellipse fill="#ff8a8a" stroke="#b43f3f" cx="151" cy="-208" rx="36.2938" ry="18"/>
<text text-anchor="middle" x="151" y="-204.3" font-family="Times,serif" font-size="14.00">044 (a)</text>
</g>
<!-- 03&#45;&gt;044 -->
<g id="edge3" class="edge"><title>03&#45;&gt;044</title>
<path fill="none" stroke="#b43f3f" stroke-dasharray="1,5" d="M256.51,-285.683C239.392,-279.767 217.399,-270.78 200,-259 189.258,-251.727 178.955,-241.827 170.593,-232.755"/>
<polygon fill="#b43f3f" stroke="#b43f3f" points="173.038,-230.238 163.782,-225.083 167.804,-234.885 173.038,-230.238"/>
<text text-anchor="middle" x="222" y="-247.8" font-family="Times,serif" font-size="14.00">1 (89.2)</text>
</g>
<!-- 02 -->
<g id="node6" class="node"><title>02</title>
<ellipse fill="#ff8a8a" stroke="#b43f3f" cx="238" cy="-208" rx="31.6951" ry="18"/>
<text text-anchor="middle" x="238" y="-204.3" font-family="Times,serif" font-size="14.00">02 (a)</text>
</g>
<!-- 03&#45;&gt;02 -->
<g id="edge4" class="edge"><title>03&#45;&gt;02</title>
<path fill="none" stroke="#b43f3f" stroke-dasharray="1,5" d="M268.812,-278.979C263.55,-273.132 257.979,-266.128 254,-259 249.984,-251.807 246.81,-243.46 244.383,-235.67"/>
<polygon fill="#b43f3f" stroke="#b43f3f" points="247.707,-234.564 241.615,-225.896 240.972,-236.471 247.707,-234.564"/>
<text text-anchor="middle" x="276" y="-247.8" font-family="Times,serif" font-size="14.00">1 (86.5)</text>
</g>
<!-- 032 -->
<g id="node7" class="node"><title>032</title>
<ellipse fill="#ff8a8a" stroke="#b43f3f" cx="324" cy="-208" rx="36.2938" ry="18"/>
<text text-anchor="middle" x="324" y="-204.3" font-family="Times,serif" font-size="14.00">032 (a)</text>
</g>
<!-- 03&#45;&gt;032 -->
<g id="edge5" class="edge"><title>03&#45;&gt;032</title>
<path fill="none" stroke="#b43f3f" stroke-dasharray="1,5" d="M291.903,-277.207C297.546,-265.216 305.247,-248.851 311.691,-235.157"/>
<polygon fill="#b43f3f" stroke="#b43f3f" points="315.023,-236.297 316.114,-225.758 308.689,-233.316 315.023,-236.297"/>
<text text-anchor="middle" x="329" y="-247.8" font-family="Times,serif" font-size="14.00">1 (91.7)</text>
</g>
<!-- 0141 -->
<g id="node23" class="node"><title>0141</title>
<ellipse fill="#ff8a8a" stroke="#b43f3f" cx="56" cy="-121" rx="40.0939" ry="18"/>
<text text-anchor="middle" x="56" y="-117.3" font-family="Times,serif" font-size="14.00">0141 (a)</text>
</g>
<!-- 044&#45;&gt;0141 -->
<g id="edge20" class="edge"><title>044&#45;&gt;0141</title>
<path fill="none" stroke="#b43f3f" stroke-dasharray="1,5" d="M130.27,-193.159C121.564,-187.025 111.505,-179.508 103,-172 93.8366,-163.911 84.4693,-154.276 76.5333,-145.632"/>
<polygon fill="#b43f3f" stroke="#b43f3f" points="78.9897,-143.129 69.6943,-138.045 73.7904,-147.816 78.9897,-143.129"/>
<text text-anchor="middle" x="125" y="-160.8" font-family="Times,serif" font-size="14.00">1 (89.2)</text>
</g>
<!-- 022 -->
<g id="node24" class="node"><title>022</title>
<ellipse fill="#ff8a8a" stroke="#b43f3f" cx="151" cy="-121" rx="36.2938" ry="18"/>
<text text-anchor="middle" x="151" y="-117.3" font-family="Times,serif" font-size="14.00">022 (a)</text>
</g>
<!-- 044&#45;&gt;022 -->
<g id="edge21" class="edge"><title>044&#45;&gt;022</title>
<path fill="none" stroke="#b43f3f" stroke-dasharray="1,5" d="M151,-189.799C151,-178.163 151,-162.548 151,-149.237"/>
<polygon fill="#b43f3f" stroke="#b43f3f" points="154.5,-149.175 151,-139.175 147.5,-149.175 154.5,-149.175"/>
<text text-anchor="middle" x="173" y="-160.8" font-family="Times,serif" font-size="14.00">1 (91.7)</text>
</g>
<!-- 063 -->
<g id="node8" class="node"><title>063</title>
<ellipse fill="#ff8a8a" stroke="#b43f3f" cx="415" cy="-208" rx="36.2938" ry="18"/>
<text text-anchor="middle" x="415" y="-204.3" font-family="Times,serif" font-size="14.00">063 (a)</text>
</g>
<!-- 063&#45;&gt;021 -->
<g id="edge6" class="edge"><title>063&#45;&gt;021</title>
<path fill="none" stroke="#b43f3f" stroke-dasharray="1,5" d="M442.465,-196.171C448.224,-194.028 454.284,-191.867 460,-190 488.495,-180.694 497.861,-184.729 525,-172 541.389,-164.313 558.091,-152.975 571.278,-143.039"/>
<polygon fill="#b43f3f" stroke="#b43f3f" points="573.626,-145.648 579.398,-136.764 569.345,-140.109 573.626,-145.648"/>
<text text-anchor="middle" x="573" y="-160.8" font-family="Times,serif" font-size="14.00">1 (93.1)</text>
</g>
<!-- 011 -->
<g id="node9" class="node"><title>011</title>
<ellipse fill="#ff8a8a" stroke="#b43f3f" cx="688" cy="-121" rx="36.2938" ry="18"/>
<text text-anchor="middle" x="688" y="-117.3" font-family="Times,serif" font-size="14.00">011 (a)</text>
</g>
<!-- 063&#45;&gt;011 -->
<g id="edge7" class="edge"><title>063&#45;&gt;011</title>
<path fill="none" stroke="#b43f3f" stroke-dasharray="1,5" d="M441.803,-195.713C447.715,-193.552 454.005,-191.499 460,-190 520.433,-174.891 539.875,-191.614 599,-172 620.289,-164.937 642.282,-152.637 659.078,-142.005"/>
<polygon fill="#b43f3f" stroke="#b43f3f" points="661.359,-144.696 667.838,-136.313 657.545,-138.827 661.359,-144.696"/>
<text text-anchor="middle" x="655" y="-160.8" font-family="Times,serif" font-size="14.00">1 (93.1)</text>
</g>
<!-- 031 -->
<g id="node10" class="node"><title>031</title>
<ellipse fill="#ff8a8a" stroke="#b43f3f" cx="242" cy="-121" rx="36.2938" ry="18"/>
<text text-anchor="middle" x="242" y="-117.3" font-family="Times,serif" font-size="14.00">031 (a)</text>
</g>
<!-- 063&#45;&gt;031 -->
<g id="edge8" class="edge"><title>063&#45;&gt;031</title>
<path fill="none" stroke="#b43f3f" stroke-dasharray="1,5" d="M386.893,-196.251C381.008,-194.102 374.822,-191.918 369,-190 341.748,-181.021 332.593,-184.972 307,-172 292.387,-164.593 277.778,-153.743 266.122,-144.041"/>
<polygon fill="#b43f3f" stroke="#b43f3f" points="268.068,-141.099 258.199,-137.245 263.511,-146.412 268.068,-141.099"/>
<text text-anchor="middle" x="329" y="-160.8" font-family="Times,serif" font-size="14.00">1 (95.8)</text>
</g>
<!-- 07 -->
<g id="node11" class="node"><title>07</title>
<ellipse fill="#ff8a8a" stroke="#b43f3f" cx="329" cy="-121" rx="31.6951" ry="18"/>
<text text-anchor="middle" x="329" y="-117.3" font-family="Times,serif" font-size="14.00">07 (a)</text>
</g>
<!-- 063&#45;&gt;07 -->
<g id="edge9" class="edge"><title>063&#45;&gt;07</title>
<path fill="none" stroke="#b43f3f" stroke-dasharray="1,5" d="M393.396,-193.25C384.74,-187.245 374.954,-179.798 367,-172 359.175,-164.329 351.638,-154.975 345.368,-146.442"/>
<polygon fill="#b43f3f" stroke="#b43f3f" points="348.206,-144.394 339.557,-138.275 342.503,-148.452 348.206,-144.394"/>
<text text-anchor="middle" x="389" y="-160.8" font-family="Times,serif" font-size="14.00">1 (96.6)</text>
</g>
<!-- 045 -->
<g id="node12" class="node"><title>045</title>
<ellipse fill="#ff8a8a" stroke="#b43f3f" cx="415" cy="-121" rx="36.2938" ry="18"/>
<text text-anchor="middle" x="415" y="-117.3" font-family="Times,serif" font-size="14.00">045 (a)</text>
</g>
<!-- 063&#45;&gt;045 -->
<g id="edge10" class="edge"><title>063&#45;&gt;045</title>
<path fill="none" stroke="#b43f3f" stroke-dasharray="1,5" d="M415,-189.799C415,-178.163 415,-162.548 415,-149.237"/>
<polygon fill="#b43f3f" stroke="#b43f3f" points="418.5,-149.175 415,-139.175 411.5,-149.175 418.5,-149.175"/>
<text text-anchor="middle" x="437" y="-160.8" font-family="Times,serif" font-size="14.00">1 (93.1)</text>
</g>
<!-- 028 -->
<g id="node13" class="node"><title>028</title>
<ellipse fill="#ff8a8a" stroke="#b43f3f" cx="506" cy="-121" rx="36.2938" ry="18"/>
<text text-anchor="middle" x="506" y="-117.3" font-family="Times,serif" font-size="14.00">028 (a)</text>
</g>
<!-- 063&#45;&gt;028 -->
<g id="edge11" class="edge"><title>063&#45;&gt;028</title>
<path fill="none" stroke="#b43f3f" stroke-dasharray="1,5" d="M436.372,-193.006C444.992,-186.963 454.814,-179.554 463,-172 471.544,-164.115 480.076,-154.619 487.26,-146.029"/>
<polygon fill="#b43f3f" stroke="#b43f3f" points="490.077,-148.113 493.692,-138.155 484.656,-143.685 490.077,-148.113"/>
<text text-anchor="middle" x="499" y="-160.8" font-family="Times,serif" font-size="14.00">1 (96.6)</text>
</g>
<!-- 017 -->
<g id="node15" class="node"><title>017</title>
<ellipse fill="#ff8a8a" stroke="#b43f3f" cx="52" cy="-34" rx="36.2938" ry="18"/>
<text text-anchor="middle" x="52" y="-30.3" font-family="Times,serif" font-size="14.00">017 (a)</text>
</g>
<!-- 031&#45;&gt;017 -->
<g id="edge13" class="edge"><title>031&#45;&gt;017</title>
<path fill="none" stroke="#b43f3f" stroke-dasharray="1,5" d="M213.857,-109.356C207.975,-107.2 201.799,-104.986 196,-103 170.866,-94.3929 163.325,-95.6809 139,-85 119.216,-76.3129 98.1803,-64.3067 81.75,-54.2367"/>
<polygon fill="#b43f3f" stroke="#b43f3f" points="83.4726,-51.1864 73.133,-48.8749 79.7744,-57.1297 83.4726,-51.1864"/>
<text text-anchor="middle" x="161" y="-73.8" font-family="Times,serif" font-size="14.00">1 (94.3)</text>
</g>
<!-- 013 -->
<g id="node16" class="node"><title>013</title>
<ellipse fill="#ff8a8a" stroke="#b43f3f" cx="143" cy="-34" rx="36.2938" ry="18"/>
<text text-anchor="middle" x="143" y="-30.3" font-family="Times,serif" font-size="14.00">013 (a)</text>
</g>
<!-- 031&#45;&gt;013 -->
<g id="edge14" class="edge"><title>031&#45;&gt;013</title>
<path fill="none" stroke="#b43f3f" stroke-dasharray="1,5" d="M224.301,-104.804C208.674,-91.3869 185.715,-71.6744 168.177,-56.6164"/>
<polygon fill="#b43f3f" stroke="#b43f3f" points="170.413,-53.9235 160.546,-50.0647 165.853,-59.2345 170.413,-53.9235"/>
<text text-anchor="middle" x="221" y="-73.8" font-family="Times,serif" font-size="14.00">1 (97.1)</text>
</g>
<!-- 030 -->
<g id="node17" class="node"><title>030</title>
<ellipse fill="#ff8a8a" stroke="#b43f3f" cx="234" cy="-34" rx="36.2938" ry="18"/>
<text text-anchor="middle" x="234" y="-30.3" font-family="Times,serif" font-size="14.00">030 (a)</text>
</g>
<!-- 07&#45;&gt;030 -->
<g id="edge15" class="edge"><title>07&#45;&gt;030</title>
<path fill="none" stroke="#b43f3f" stroke-dasharray="1,5" d="M308.265,-107.029C298.951,-100.821 288.047,-93.0044 279,-85 270.027,-77.0605 261.018,-67.4543 253.444,-58.7925"/>
<polygon fill="#b43f3f" stroke="#b43f3f" points="256.093,-56.5041 246.934,-51.1781 250.772,-61.0531 256.093,-56.5041"/>
<text text-anchor="middle" x="301" y="-73.8" font-family="Times,serif" font-size="14.00">1 (95.1)</text>
</g>
<!-- 034 -->
<g id="node18" class="node"><title>034</title>
<ellipse fill="#ff8a8a" stroke="#b43f3f" cx="325" cy="-34" rx="36.2938" ry="18"/>
<text text-anchor="middle" x="325" y="-30.3" font-family="Times,serif" font-size="14.00">034 (a)</text>
</g>
<!-- 07&#45;&gt;034 -->
<g id="edge16" class="edge"><title>07&#45;&gt;034</title>
<path fill="none" stroke="#b43f3f" stroke-dasharray="1,5" d="M328.191,-102.799C327.643,-91.1626 326.908,-75.5479 326.282,-62.2368"/>
<polygon fill="#b43f3f" stroke="#b43f3f" points="329.775,-61.9998 325.808,-52.1754 322.782,-62.3289 329.775,-61.9998"/>
<text text-anchor="middle" x="350" y="-73.8" font-family="Times,serif" font-size="14.00">1 (95.1)</text>
</g>
<!-- 037 -->
<g id="node19" class="node"><title>037</title>
<ellipse fill="#ff8a8a" stroke="#b43f3f" cx="416" cy="-34" rx="36.2938" ry="18"/>
<text text-anchor="middle" x="416" y="-30.3" font-family="Times,serif" font-size="14.00">037 (a)</text>
</g>
<!-- 07&#45;&gt;037 -->
<g id="edge17" class="edge"><title>07&#45;&gt;037</title>
<path fill="none" stroke="#b43f3f" stroke-dasharray="1,5" d="M349.104,-106.75C357.784,-100.605 367.804,-92.9163 376,-85 384.036,-77.2382 391.927,-67.8647 398.548,-59.3412"/>
<polygon fill="#b43f3f" stroke="#b43f3f" points="401.469,-61.2809 404.705,-51.1923 395.884,-57.0612 401.469,-61.2809"/>
<text text-anchor="middle" x="412" y="-73.8" font-family="Times,serif" font-size="14.00">1 (97.5)</text>
</g>
<!-- 038 -->
<g id="node26" class="node"><title>038</title>
<ellipse fill="#ff8a8a" stroke="#b43f3f" cx="507" cy="-34" rx="36.2938" ry="18"/>
<text text-anchor="middle" x="507" y="-30.3" font-family="Times,serif" font-size="14.00">038 (a)</text>
</g>
<!-- 045&#45;&gt;038 -->
<g id="edge22" class="edge"><title>045&#45;&gt;038</title>
<path fill="none" stroke="#b43f3f" stroke-dasharray="1,5" d="M431.448,-104.804C445.75,-91.5898 466.661,-72.2693 482.86,-57.3029"/>
<polygon fill="#b43f3f" stroke="#b43f3f" points="485.415,-59.7082 490.384,-50.3513 480.664,-54.5667 485.415,-59.7082"/>
<text text-anchor="middle" x="489" y="-73.8" font-family="Times,serif" font-size="14.00">1 (92.7)</text>
</g>
<!-- 019 -->
<g id="node14" class="node"><title>019</title>
<ellipse fill="#ff8a8a" stroke="#b43f3f" cx="413" cy="-295" rx="36.2938" ry="18"/>
<text text-anchor="middle" x="413" y="-291.3" font-family="Times,serif" font-size="14.00">019 (a)</text>
</g>
<!-- 019&#45;&gt;063 -->
<g id="edge12" class="edge"><title>019&#45;&gt;063</title>
<path fill="none" stroke="#b43f3f" stroke-dasharray="1,5" d="M413.405,-276.799C413.679,-265.163 414.046,-249.548 414.359,-236.237"/>
<polygon fill="#b43f3f" stroke="#b43f3f" points="417.86,-236.255 414.596,-226.175 410.862,-236.09 417.86,-236.255"/>
<text text-anchor="middle" x="437" y="-247.8" font-family="Times,serif" font-size="14.00">1 (85.7)</text>
</g>
<!-- 091 -->
<g id="node20" class="node"><title>091</title>
<ellipse fill="#ff8a8a" stroke="#b43f3f" cx="504" cy="-295" rx="36.2938" ry="18"/>
<text text-anchor="middle" x="504" y="-291.3" font-family="Times,serif" font-size="14.00">091 (a)</text>
</g>
<!-- 05 -->
<g id="node21" class="node"><title>05</title>
<ellipse fill="#ff8a8a" stroke="#b43f3f" cx="501" cy="-208" rx="31.6951" ry="18"/>
<text text-anchor="middle" x="501" y="-204.3" font-family="Times,serif" font-size="14.00">05 (a)</text>
</g>
<!-- 091&#45;&gt;05 -->
<g id="edge18" class="edge"><title>091&#45;&gt;05</title>
<path fill="none" stroke="#b43f3f" stroke-dasharray="1,5" d="M503.393,-276.799C502.982,-265.163 502.431,-249.548 501.961,-236.237"/>
<polygon fill="#b43f3f" stroke="#b43f3f" points="505.457,-236.046 501.606,-226.175 498.461,-236.293 505.457,-236.046"/>
<text text-anchor="middle" x="525" y="-247.8" font-family="Times,serif" font-size="14.00">1 (87.5)</text>
</g>
<!-- 0211 -->
<g id="node22" class="node"><title>0211</title>
<ellipse fill="#ff8a8a" stroke="#b43f3f" cx="591" cy="-208" rx="40.0939" ry="18"/>
<text text-anchor="middle" x="591" y="-204.3" font-family="Times,serif" font-size="14.00">0211 (a)</text>
</g>
<!-- 091&#45;&gt;0211 -->
<g id="edge19" class="edge"><title>091&#45;&gt;0211</title>
<path fill="none" stroke="#b43f3f" stroke-dasharray="1,5" d="M525.039,-280.086C533.497,-274.056 543.097,-266.634 551,-259 558.916,-251.354 566.691,-242.144 573.251,-233.723"/>
<polygon fill="#b43f3f" stroke="#b43f3f" points="576.116,-235.737 579.366,-225.653 570.537,-231.51 576.116,-235.737"/>
<text text-anchor="middle" x="587" y="-247.8" font-family="Times,serif" font-size="14.00">1 (83.3)</text>
</g>
<!-- P75 -->
<g id="node25" class="node"><title>P75</title>
<ellipse fill="#ff8a8a" stroke="#b43f3f" cx="595" cy="-295" rx="36.2938" ry="18"/>
<text text-anchor="middle" x="595" y="-291.3" font-family="Times,serif" font-size="14.00">P75 (a)</text>
</g>
<!-- leg_s -->
<g id="node27" class="node"><title>leg_s</title>
<text text-anchor="middle" x="848" y="-378.3" font-family="Times,serif" font-size="14.00">Textual flow strength</text>
</g>
<!-- leg_e1 -->
<!-- leg_s&#45;&gt;leg_e1 -->
<g id="edge23" class="edge"><title>leg_s&#45;&gt;leg_e1</title>
<path fill="none" stroke="black" stroke-dasharray="1,5" d="M829.666,-363.686C824.132,-358.194 818.161,-351.989 813,-346 803.171,-334.593 793.072,-320.779 785.914,-310.563"/>
<polygon fill="black" stroke="black" points="788.614,-308.314 780.056,-302.068 782.851,-312.288 788.614,-308.314"/>
<text text-anchor="middle" x="828.5" y="-334.8" font-family="Times,serif" font-size="14.00">&lt;=5 &#160;</text>
</g>
<!-- leg_e2 -->
<!-- leg_s&#45;&gt;leg_e2 -->
<g id="edge24" class="edge"><title>leg_s&#45;&gt;leg_e2</title>
<path fill="none" stroke="black" stroke-dasharray="5,2" d="M848,-363.799C848,-348.794 848,-327.174 848,-312.409"/>
<polygon fill="black" stroke="black" points="851.5,-312.293 848,-302.293 844.5,-312.293 851.5,-312.293"/>
<text text-anchor="middle" x="867" y="-334.8" font-family="Times,serif" font-size="14.00"> &#160;&lt;=25</text>
</g>
<!-- leg_e3 -->
<!-- leg_s&#45;&gt;leg_e3 -->
<g id="edge25" class="edge"><title>leg_s&#45;&gt;leg_e3</title>
<path fill="none" stroke="black" d="M871.503,-363.76C877.906,-358.462 884.567,-352.344 890,-346 899.087,-335.39 907.095,-321.689 912.546,-311.313"/>
<polygon fill="black" stroke="black" points="915.722,-312.789 917.091,-302.283 909.469,-309.642 915.722,-312.789"/>
<text text-anchor="middle" x="911" y="-334.8" font-family="Times,serif" font-size="14.00">&gt;25</text>
</g>
<!-- A -->
<g id="node31" class="node"><title>A</title>
<ellipse fill="#cea8f4" stroke="#835da9" cx="458" cy="-382" rx="29.795" ry="18"/>
<text text-anchor="middle" x="458" y="-378.3" font-family="Times,serif" font-size="14.00">A (b)</text>
</g>
<!-- A&#45;&gt;03 -->
<g id="edge26" class="edge"><title>A&#45;&gt;03</title>
<path fill="none" stroke="#b43f3f" stroke-dasharray="1,5" d="M433.979,-371.058C417.977,-364.296 396.559,-354.98 378,-346 356.604,-335.648 332.987,-323.081 314.777,-313.135"/>
<polygon fill="#b43f3f" stroke="#b43f3f" points="316.238,-309.945 305.788,-308.199 312.869,-316.08 316.238,-309.945"/>
<text text-anchor="middle" x="400" y="-334.8" font-family="Times,serif" font-size="14.00">1 (93.3)</text>
</g>
<!-- A&#45;&gt;019 -->
<g id="edge27" class="edge"><title>A&#45;&gt;019</title>
<path fill="none" stroke="#b43f3f" stroke-dasharray="1,5" d="M445.12,-365.593C440.589,-359.704 435.709,-352.772 432,-346 428.03,-338.751 424.524,-330.499 421.639,-322.818"/>
<polygon fill="#b43f3f" stroke="#b43f3f" points="424.862,-321.434 418.218,-313.181 418.265,-323.776 424.862,-321.434"/>
<text text-anchor="middle" x="454" y="-334.8" font-family="Times,serif" font-size="14.00">1 (93.3)</text>
</g>
<!-- A&#45;&gt;091 -->
<g id="edge28" class="edge"><title>A&#45;&gt;091</title>
<path fill="none" stroke="#b43f3f" stroke-dasharray="1,5" d="M466.869,-364.611C473.445,-352.46 482.537,-335.66 490.078,-321.725"/>
<polygon fill="#b43f3f" stroke="#b43f3f" points="493.32,-323.089 495.001,-312.629 487.163,-319.757 493.32,-323.089"/>
<text text-anchor="middle" x="506" y="-334.8" font-family="Times,serif" font-size="14.00">1 (87.5)</text>
</g>
<!-- A&#45;&gt;P75 -->
<g id="edge29" class="edge"><title>A&#45;&gt;P75</title>
<path fill="none" stroke="#b43f3f" stroke-dasharray="1,5" d="M482.053,-371.293C496.893,-364.902 516.069,-355.906 532,-346 545.359,-337.693 559.16,-327.014 570.428,-317.66"/>
<polygon fill="#b43f3f" stroke="#b43f3f" points="572.767,-320.266 578.142,-311.136 568.247,-314.921 572.767,-320.266"/>
<text text-anchor="middle" x="574" y="-334.8" font-family="Times,serif" font-size="14.00">1 (93.3)</text>
</g>
</g>
</svg>
