<?xml version="1.0" encoding="UTF-8" standalone="no"?>
<!DOCTYPE svg PUBLIC "-//W3C//DTD SVG 1.1//EN"
 "http://www.w3.org/Graphics/SVG/1.1/DTD/svg11.dtd">
<!-- Generated by graphviz version 2.38.0 (20140413.2041)
 -->
<!-- Title: %3 Pages: 1 -->
<svg width="880pt" height="424pt"
 viewBox="0.00 0.00 880.00 424.00" xmlns="http://www.w3.org/2000/svg" xmlns:xlink="http://www.w3.org/1999/xlink">
<g id="graph0" class="graph" transform="scale(1 1) rotate(0) translate(4 420)">
<title>%3</title>
<polygon fill="white" stroke="none" points="-4,4 -4,-420 876,-420 876,4 -4,4"/>
<g id="clust1" class="cluster"><title>cluster_legend</title>
<path fill="none" stroke="black" d="M20,-280C20,-280 210,-280 210,-280 216,-280 222,-286 222,-292 222,-292 222,-396 222,-396 222,-402 216,-408 210,-408 210,-408 20,-408 20,-408 14,-408 8,-402 8,-396 8,-396 8,-292 8,-292 8,-286 14,-280 20,-280"/>
</g>
<g id="clust2" class="cluster"><title>cluster_reading</title>
<polygon fill="none" stroke="black" points="230,-8 230,-408 864,-408 864,-8 230,-8"/>
</g>
<!-- leg_s -->
<g id="node1" class="node"><title>leg_s</title>
<text text-anchor="middle" x="115" y="-378.3" font-family="Times,serif" font-size="14.00">Textual flow strength</text>
</g>
<!-- leg_e1 -->
<!-- leg_s&#45;&gt;leg_e1 -->
<g id="edge1" class="edge"><title>leg_s&#45;&gt;leg_e1</title>
<path fill="none" stroke="black" stroke-dasharray="1,5" d="M96.6657,-363.686C91.1324,-358.194 85.1607,-351.989 80,-346 70.1708,-334.593 60.0722,-320.779 52.9137,-310.563"/>
<polygon fill="black" stroke="black" points="55.6142,-308.314 47.056,-302.068 49.8514,-312.288 55.6142,-308.314"/>
<text text-anchor="middle" x="95.5" y="-334.8" font-family="Times,serif" font-size="14.00">&lt;=5 &#160;</text>
</g>
<!-- leg_e2 -->
<!-- leg_s&#45;&gt;leg_e2 -->
<g id="edge2" class="edge"><title>leg_s&#45;&gt;leg_e2</title>
<path fill="none" stroke="black" stroke-dasharray="5,2" d="M115,-363.799C115,-348.794 115,-327.174 115,-312.409"/>
<polygon fill="black" stroke="black" points="118.5,-312.293 115,-302.293 111.5,-312.293 118.5,-312.293"/>
<text text-anchor="middle" x="134" y="-334.8" font-family="Times,serif" font-size="14.00"> &#160;&lt;=25</text>
</g>
<!-- leg_e3 -->
<!-- leg_s&#45;&gt;leg_e3 -->
<g id="edge3" class="edge"><title>leg_s&#45;&gt;leg_e3</title>
<path fill="none" stroke="black" d="M138.503,-363.76C144.906,-358.462 151.567,-352.344 157,-346 166.087,-335.39 174.095,-321.689 179.546,-311.313"/>
<polygon fill="black" stroke="black" points="182.722,-312.789 184.091,-302.283 176.469,-309.642 182.722,-312.789"/>
<text text-anchor="middle" x="179" y="-334.8" font-family="Times,serif" font-size="14.00">&gt;25</text>
</g>
<!-- 021 -->
<g id="node5" class="node"><title>021</title>
<ellipse fill="#ff8a8a" stroke="#b43f3f" cx="276" cy="-208" rx="36.2938" ry="18"/>
<text text-anchor="middle" x="276" y="-204.3" font-family="Times,serif" font-size="14.00">021 (a)</text>
</g>
<!-- 036 -->
<g id="node6" class="node"><title>036</title>
<ellipse fill="#ff8a8a" stroke="#b43f3f" cx="274" cy="-121" rx="36.2938" ry="18"/>
<text text-anchor="middle" x="274" y="-117.3" font-family="Times,serif" font-size="14.00">036 (a)</text>
</g>
<!-- 021&#45;&gt;036 -->
<g id="edge4" class="edge"><title>021&#45;&gt;036</title>
<path fill="none" stroke="#b43f3f" stroke-dasharray="1,5" d="M275.595,-189.799C275.321,-178.163 274.954,-162.548 274.641,-149.237"/>
<polygon fill="#b43f3f" stroke="#b43f3f" points="278.138,-149.09 274.404,-139.175 271.14,-149.255 278.138,-149.09"/>
<text text-anchor="middle" x="298" y="-160.8" font-family="Times,serif" font-size="14.00">1 (97.6)</text>
</g>
<!-- 047 -->
<g id="node7" class="node"><title>047</title>
<ellipse fill="#ff8a8a" stroke="#b43f3f" cx="365" cy="-121" rx="36.2938" ry="18"/>
<text text-anchor="middle" x="365" y="-117.3" font-family="Times,serif" font-size="14.00">047 (a)</text>
</g>
<!-- 021&#45;&gt;047 -->
<g id="edge5" class="edge"><title>021&#45;&gt;047</title>
<path fill="none" stroke="#b43f3f" stroke-dasharray="1,5" d="M297.461,-193.102C306.095,-187.074 315.903,-179.649 324,-172 332.201,-164.252 340.281,-154.882 347.073,-146.357"/>
<polygon fill="#b43f3f" stroke="#b43f3f" points="350.031,-148.253 353.39,-138.205 344.498,-143.965 350.031,-148.253"/>
<text text-anchor="middle" x="360" y="-160.8" font-family="Times,serif" font-size="14.00">1 (95.1)</text>
</g>
<!-- 031 -->
<g id="node8" class="node"><title>031</title>
<ellipse fill="#ff8a8a" stroke="#b43f3f" cx="456" cy="-121" rx="36.2938" ry="18"/>
<text text-anchor="middle" x="456" y="-117.3" font-family="Times,serif" font-size="14.00">031 (a)</text>
</g>
<!-- 01 -->
<g id="node9" class="node"><title>01</title>
<ellipse fill="#ff8a8a" stroke="#b43f3f" cx="370" cy="-34" rx="31.6951" ry="18"/>
<text text-anchor="middle" x="370" y="-30.3" font-family="Times,serif" font-size="14.00">01 (a)</text>
</g>
<!-- 031&#45;&gt;01 -->
<g id="edge6" class="edge"><title>031&#45;&gt;01</title>
<path fill="none" stroke="#b43f3f" stroke-dasharray="1,5" d="M434.396,-106.25C425.74,-100.245 415.954,-92.7976 408,-85 400.175,-77.3291 392.638,-67.9752 386.368,-59.4419"/>
<polygon fill="#b43f3f" stroke="#b43f3f" points="389.206,-57.3937 380.557,-51.2749 383.503,-61.452 389.206,-57.3937"/>
<text text-anchor="middle" x="430" y="-73.8" font-family="Times,serif" font-size="14.00">2 (48.5)</text>
</g>
<!-- 017 -->
<g id="node10" class="node"><title>017</title>
<ellipse fill="#ff8a8a" stroke="#b43f3f" cx="456" cy="-34" rx="36.2938" ry="18"/>
<text text-anchor="middle" x="456" y="-30.3" font-family="Times,serif" font-size="14.00">017 (a)</text>
</g>
<!-- 031&#45;&gt;017 -->
<g id="edge7" class="edge"><title>031&#45;&gt;017</title>
<path fill="none" stroke="#b43f3f" stroke-dasharray="1,5" d="M456,-102.799C456,-91.1626 456,-75.5479 456,-62.2368"/>
<polygon fill="#b43f3f" stroke="#b43f3f" points="459.5,-62.1754 456,-52.1754 452.5,-62.1755 459.5,-62.1754"/>
<text text-anchor="middle" x="478" y="-73.8" font-family="Times,serif" font-size="14.00">1 (94.3)</text>
</g>
<!-- 013 -->
<g id="node11" class="node"><title>013</title>
<ellipse fill="#ff8a8a" stroke="#b43f3f" cx="547" cy="-34" rx="36.2938" ry="18"/>
<text text-anchor="middle" x="547" y="-30.3" font-family="Times,serif" font-size="14.00">013 (a)</text>
</g>
<!-- 031&#45;&gt;013 -->
<g id="edge8" class="edge"><title>031&#45;&gt;013</title>
<path fill="none" stroke="#b43f3f" stroke-dasharray="1,5" d="M477.372,-106.006C485.992,-99.9634 495.814,-92.5539 504,-85 512.544,-77.1154 521.076,-67.6186 528.26,-59.0293"/>
<polygon fill="#b43f3f" stroke="#b43f3f" points="531.077,-61.1135 534.692,-51.1545 525.656,-56.6853 531.077,-61.1135"/>
<text text-anchor="middle" x="540" y="-73.8" font-family="Times,serif" font-size="14.00">1 (97.1)</text>
</g>
<!-- 044 -->
<g id="node12" class="node"><title>044</title>
<ellipse fill="#ff8a8a" stroke="#b43f3f" cx="544" cy="-295" rx="36.2938" ry="18"/>
<text text-anchor="middle" x="544" y="-291.3" font-family="Times,serif" font-size="14.00">044 (a)</text>
</g>
<!-- 044&#45;&gt;021 -->
<g id="edge9" class="edge"><title>044&#45;&gt;021</title>
<path fill="none" stroke="#b43f3f" stroke-dasharray="1,5" d="M508.58,-290.547C471.602,-286.158 412.369,-276.896 364,-259 343.282,-251.334 321.69,-239.139 305.079,-228.712"/>
<polygon fill="#b43f3f" stroke="#b43f3f" points="306.706,-225.598 296.4,-223.141 302.925,-231.489 306.706,-225.598"/>
<text text-anchor="middle" x="386" y="-247.8" font-family="Times,serif" font-size="14.00">2 (83.8)</text>
</g>
<!-- 011 -->
<g id="node13" class="node"><title>011</title>
<ellipse fill="#ff8a8a" stroke="#b43f3f" cx="367" cy="-208" rx="36.2938" ry="18"/>
<text text-anchor="middle" x="367" y="-204.3" font-family="Times,serif" font-size="14.00">011 (a)</text>
</g>
<!-- 044&#45;&gt;011 -->
<g id="edge10" class="edge"><title>044&#45;&gt;011</title>
<path fill="none" stroke="#b43f3f" stroke-dasharray="1,5" d="M511.77,-286.402C489.737,-280.532 460.248,-271.324 436,-259 420.677,-251.212 405.05,-240.194 392.551,-230.482"/>
<polygon fill="#b43f3f" stroke="#b43f3f" points="394.443,-227.514 384.44,-224.023 390.082,-232.99 394.443,-227.514"/>
<text text-anchor="middle" x="458" y="-247.8" font-family="Times,serif" font-size="14.00">2 (86.5)</text>
</g>
<!-- 022 -->
<g id="node14" class="node"><title>022</title>
<ellipse fill="#ff8a8a" stroke="#b43f3f" cx="458" cy="-208" rx="36.2938" ry="18"/>
<text text-anchor="middle" x="458" y="-204.3" font-family="Times,serif" font-size="14.00">022 (a)</text>
</g>
<!-- 044&#45;&gt;022 -->
<g id="edge11" class="edge"><title>044&#45;&gt;022</title>
<path fill="none" stroke="#b43f3f" stroke-dasharray="1,5" d="M522.396,-280.25C513.74,-274.245 503.954,-266.798 496,-259 488.175,-251.329 480.638,-241.975 474.368,-233.442"/>
<polygon fill="#b43f3f" stroke="#b43f3f" points="477.206,-231.394 468.557,-225.275 471.503,-235.452 477.206,-231.394"/>
<text text-anchor="middle" x="518" y="-247.8" font-family="Times,serif" font-size="14.00">1 (91.7)</text>
</g>
<!-- 07 -->
<g id="node15" class="node"><title>07</title>
<ellipse fill="#ff8a8a" stroke="#b43f3f" cx="544" cy="-208" rx="31.6951" ry="18"/>
<text text-anchor="middle" x="544" y="-204.3" font-family="Times,serif" font-size="14.00">07 (a)</text>
</g>
<!-- 044&#45;&gt;07 -->
<g id="edge12" class="edge"><title>044&#45;&gt;07</title>
<path fill="none" stroke="#b43f3f" stroke-dasharray="1,5" d="M544,-276.799C544,-265.163 544,-249.548 544,-236.237"/>
<polygon fill="#b43f3f" stroke="#b43f3f" points="547.5,-236.175 544,-226.175 540.5,-236.175 547.5,-236.175"/>
<text text-anchor="middle" x="566" y="-247.8" font-family="Times,serif" font-size="14.00">2 (83.8)</text>
</g>
<!-- 0141 -->
<g id="node16" class="node"><title>0141</title>
<ellipse fill="#ff8a8a" stroke="#b43f3f" cx="634" cy="-208" rx="40.0939" ry="18"/>
<text text-anchor="middle" x="634" y="-204.3" font-family="Times,serif" font-size="14.00">0141 (a)</text>
</g>
<!-- 044&#45;&gt;0141 -->
<g id="edge13" class="edge"><title>044&#45;&gt;0141</title>
<path fill="none" stroke="#b43f3f" stroke-dasharray="1,5" d="M565.416,-280.054C574.043,-274.018 583.858,-266.601 592,-259 600.204,-251.341 608.343,-242.128 615.242,-233.709"/>
<polygon fill="#b43f3f" stroke="#b43f3f" points="618.179,-235.639 621.683,-225.641 612.709,-231.272 618.179,-235.639"/>
<text text-anchor="middle" x="628" y="-247.8" font-family="Times,serif" font-size="14.00">1 (89.2)</text>
</g>
<!-- 045 -->
<g id="node17" class="node"><title>045</title>
<ellipse fill="#ff8a8a" stroke="#b43f3f" cx="729" cy="-208" rx="36.2938" ry="18"/>
<text text-anchor="middle" x="729" y="-204.3" font-family="Times,serif" font-size="14.00">045 (a)</text>
</g>
<!-- 044&#45;&gt;045 -->
<g id="edge14" class="edge"><title>044&#45;&gt;045</title>
<path fill="none" stroke="#b43f3f" stroke-dasharray="1,5" d="M571.465,-283.171C577.224,-281.028 583.284,-278.867 589,-277 617.495,-267.694 626.741,-271.471 654,-259 671.088,-251.182 688.646,-239.698 702.474,-229.706"/>
<polygon fill="#b43f3f" stroke="#b43f3f" points="704.605,-232.484 710.565,-223.724 700.443,-226.855 704.605,-232.484"/>
<text text-anchor="middle" x="702" y="-247.8" font-family="Times,serif" font-size="14.00">2 (81.1)</text>
</g>
<!-- 028 -->
<g id="node18" class="node"><title>028</title>
<ellipse fill="#ff8a8a" stroke="#b43f3f" cx="820" cy="-208" rx="36.2938" ry="18"/>
<text text-anchor="middle" x="820" y="-204.3" font-family="Times,serif" font-size="14.00">028 (a)</text>
</g>
<!-- 044&#45;&gt;028 -->
<g id="edge15" class="edge"><title>044&#45;&gt;028</title>
<path fill="none" stroke="#b43f3f" stroke-dasharray="1,5" d="M570.803,-282.713C576.715,-280.552 583.005,-278.499 589,-277 649.433,-261.891 668.739,-278.199 728,-259 750.237,-251.796 773.347,-239.214 790.842,-228.475"/>
<polygon fill="#b43f3f" stroke="#b43f3f" points="792.842,-231.351 799.444,-223.065 789.116,-225.425 792.842,-231.351"/>
<text text-anchor="middle" x="784" y="-247.8" font-family="Times,serif" font-size="14.00">2 (81.1)</text>
</g>
<!-- 022&#45;&gt;031 -->
<g id="edge16" class="edge"><title>022&#45;&gt;031</title>
<path fill="none" stroke="#b43f3f" stroke-dasharray="1,5" d="M457.595,-189.799C457.321,-178.163 456.954,-162.548 456.641,-149.237"/>
<polygon fill="#b43f3f" stroke="#b43f3f" points="460.138,-149.09 456.404,-139.175 453.14,-149.255 460.138,-149.09"/>
<text text-anchor="middle" x="480" y="-160.8" font-family="Times,serif" font-size="14.00">2 (86.7)</text>
</g>
<!-- 030 -->
<g id="node19" class="node"><title>030</title>
<ellipse fill="#ff8a8a" stroke="#b43f3f" cx="547" cy="-121" rx="36.2938" ry="18"/>
<text text-anchor="middle" x="547" y="-117.3" font-family="Times,serif" font-size="14.00">030 (a)</text>
</g>
<!-- 07&#45;&gt;030 -->
<g id="edge17" class="edge"><title>07&#45;&gt;030</title>
<path fill="none" stroke="#b43f3f" stroke-dasharray="1,5" d="M544.607,-189.799C545.018,-178.163 545.569,-162.548 546.039,-149.237"/>
<polygon fill="#b43f3f" stroke="#b43f3f" points="549.539,-149.293 546.394,-139.175 542.543,-149.046 549.539,-149.293"/>
<text text-anchor="middle" x="568" y="-160.8" font-family="Times,serif" font-size="14.00">1 (95.1)</text>
</g>
<!-- 034 -->
<g id="node20" class="node"><title>034</title>
<ellipse fill="#ff8a8a" stroke="#b43f3f" cx="638" cy="-121" rx="36.2938" ry="18"/>
<text text-anchor="middle" x="638" y="-117.3" font-family="Times,serif" font-size="14.00">034 (a)</text>
</g>
<!-- 07&#45;&gt;034 -->
<g id="edge18" class="edge"><title>07&#45;&gt;034</title>
<path fill="none" stroke="#b43f3f" stroke-dasharray="1,5" d="M564.776,-194.075C574.098,-187.876 584.998,-180.055 594,-172 602.75,-164.17 611.482,-154.685 618.833,-146.089"/>
<polygon fill="#b43f3f" stroke="#b43f3f" points="621.693,-148.124 625.413,-138.204 616.319,-143.639 621.693,-148.124"/>
<text text-anchor="middle" x="631" y="-160.8" font-family="Times,serif" font-size="14.00">1 (95.1)</text>
</g>
<!-- 037 -->
<g id="node21" class="node"><title>037</title>
<ellipse fill="#ff8a8a" stroke="#b43f3f" cx="729" cy="-121" rx="36.2938" ry="18"/>
<text text-anchor="middle" x="729" y="-117.3" font-family="Times,serif" font-size="14.00">037 (a)</text>
</g>
<!-- 07&#45;&gt;037 -->
<g id="edge19" class="edge"><title>07&#45;&gt;037</title>
<path fill="none" stroke="#b43f3f" stroke-dasharray="1,5" d="M568.493,-196.152C573.875,-193.963 579.586,-191.788 585,-190 616.321,-179.655 626.963,-185.63 657,-172 673.484,-164.52 690.193,-153.197 703.36,-143.217"/>
<polygon fill="#b43f3f" stroke="#b43f3f" points="705.724,-145.812 711.463,-136.906 701.423,-140.289 705.724,-145.812"/>
<text text-anchor="middle" x="704" y="-160.8" font-family="Times,serif" font-size="14.00">1 (97.5)</text>
</g>
<!-- 038 -->
<g id="node25" class="node"><title>038</title>
<ellipse fill="#ff8a8a" stroke="#b43f3f" cx="820" cy="-121" rx="36.2938" ry="18"/>
<text text-anchor="middle" x="820" y="-117.3" font-family="Times,serif" font-size="14.00">038 (a)</text>
</g>
<!-- 045&#45;&gt;038 -->
<g id="edge23" class="edge"><title>045&#45;&gt;038</title>
<path fill="none" stroke="#b43f3f" stroke-dasharray="1,5" d="M745.269,-191.804C759.416,-178.59 780.1,-159.269 796.123,-144.303"/>
<polygon fill="#b43f3f" stroke="#b43f3f" points="798.646,-146.735 803.565,-137.351 793.868,-141.62 798.646,-146.735"/>
<text text-anchor="middle" x="801" y="-160.8" font-family="Times,serif" font-size="14.00">1 (92.7)</text>
</g>
<!-- 03 -->
<g id="node22" class="node"><title>03</title>
<ellipse fill="#ff8a8a" stroke="#b43f3f" cx="630" cy="-382" rx="31.6951" ry="18"/>
<text text-anchor="middle" x="630" y="-378.3" font-family="Times,serif" font-size="14.00">03 (a)</text>
</g>
<!-- 03&#45;&gt;044 -->
<g id="edge20" class="edge"><title>03&#45;&gt;044</title>
<path fill="none" stroke="#b43f3f" stroke-dasharray="1,5" d="M609.353,-367.912C600.467,-361.796 590.248,-354.086 582,-346 574.175,-338.329 566.638,-328.975 560.368,-320.442"/>
<polygon fill="#b43f3f" stroke="#b43f3f" points="563.206,-318.394 554.557,-312.275 557.503,-322.452 563.206,-318.394"/>
<text text-anchor="middle" x="604" y="-334.8" font-family="Times,serif" font-size="14.00">1 (89.2)</text>
</g>
<!-- 02 -->
<g id="node23" class="node"><title>02</title>
<ellipse fill="#ff8a8a" stroke="#b43f3f" cx="630" cy="-295" rx="31.6951" ry="18"/>
<text text-anchor="middle" x="630" y="-291.3" font-family="Times,serif" font-size="14.00">02 (a)</text>
</g>
<!-- 03&#45;&gt;02 -->
<g id="edge21" class="edge"><title>03&#45;&gt;02</title>
<path fill="none" stroke="#b43f3f" stroke-dasharray="1,5" d="M630,-363.799C630,-352.163 630,-336.548 630,-323.237"/>
<polygon fill="#b43f3f" stroke="#b43f3f" points="633.5,-323.175 630,-313.175 626.5,-323.175 633.5,-323.175"/>
<text text-anchor="middle" x="652" y="-334.8" font-family="Times,serif" font-size="14.00">1 (86.5)</text>
</g>
<!-- 032 -->
<g id="node24" class="node"><title>032</title>
<ellipse fill="#ff8a8a" stroke="#b43f3f" cx="716" cy="-295" rx="36.2938" ry="18"/>
<text text-anchor="middle" x="716" y="-291.3" font-family="Times,serif" font-size="14.00">032 (a)</text>
</g>
<!-- 03&#45;&gt;032 -->
<g id="edge22" class="edge"><title>03&#45;&gt;032</title>
<path fill="none" stroke="#b43f3f" stroke-dasharray="1,5" d="M650.647,-367.912C659.533,-361.796 669.752,-354.086 678,-346 685.825,-338.329 693.362,-328.975 699.632,-320.442"/>
<polygon fill="#b43f3f" stroke="#b43f3f" points="702.497,-322.452 705.443,-312.275 696.794,-318.394 702.497,-322.452"/>
<text text-anchor="middle" x="712" y="-334.8" font-family="Times,serif" font-size="14.00">1 (91.7)</text>
</g>
<!-- P75 -->
<g id="node26" class="node"><title>P75</title>
<ellipse fill="#ff8a8a" stroke="#b43f3f" cx="499" cy="-382" rx="36.2938" ry="18"/>
<text text-anchor="middle" x="499" y="-378.3" font-family="Times,serif" font-size="14.00">P75 (a)</text>
</g>
<!-- 019 -->
<g id="node27" class="node"><title>019</title>
<ellipse fill="#ff8a8a" stroke="#b43f3f" cx="319" cy="-382" rx="36.2938" ry="18"/>
<text text-anchor="middle" x="319" y="-378.3" font-family="Times,serif" font-size="14.00">019 (a)</text>
</g>
</g>
</svg>
