<?xml version="1.0" encoding="UTF-8" standalone="no"?>
<!DOCTYPE svg PUBLIC "-//W3C//DTD SVG 1.1//EN"
 "http://www.w3.org/Graphics/SVG/1.1/DTD/svg11.dtd">
<!-- Generated by graphviz version 2.38.0 (20140413.2041)
 -->
<!-- Title: G Pages: 1 -->
<svg width="908pt" height="392pt"
 viewBox="0.00 0.00 907.79 392.00" xmlns="http://www.w3.org/2000/svg" xmlns:xlink="http://www.w3.org/1999/xlink">
<g id="graph0" class="graph" transform="scale(1 1) rotate(0) translate(4 388)">
<title>G</title>
<polygon fill="white" stroke="none" points="-4,4 -4,-388 903.794,-388 903.794,4 -4,4"/>
<!-- 01 (b) -->
<g id="node1" class="node"><title>01 (b)</title>
<ellipse fill="#cea8f4" stroke="#835da9" cx="418.397" cy="-279" rx="32.4942" ry="18"/>
<text text-anchor="middle" x="418.397" y="-275.3" font-family="Times,serif" font-size="14.00">01 (b)</text>
</g>
<!-- 013 (c) -->
<g id="node2" class="node"><title>013 (c)</title>
<ellipse fill="#72fe95" stroke="#27b34a" cx="36.3968" cy="-18" rx="36.2938" ry="18"/>
<text text-anchor="middle" x="36.3968" y="-14.3" font-family="Times,serif" font-size="14.00">013 (c)</text>
</g>
<!-- 017 (a) -->
<g id="node3" class="node"><title>017 (a)</title>
<ellipse fill="#ff8a8a" stroke="#b43f3f" cx="127.397" cy="-18" rx="36.2938" ry="18"/>
<text text-anchor="middle" x="127.397" y="-14.3" font-family="Times,serif" font-size="14.00">017 (a)</text>
</g>
<!-- 07 (a) -->
<g id="node4" class="node"><title>07 (a)</title>
<ellipse fill="#ff8a8a" stroke="#b43f3f" cx="247.397" cy="-105" rx="31.6951" ry="18"/>
<text text-anchor="middle" x="247.397" y="-101.3" font-family="Times,serif" font-size="14.00">07 (a)</text>
</g>
<!-- 07 (a)&#45;&gt;013 (c) -->
<g id="edge3" class="edge"><title>07 (a)&#45;&gt;013 (c)</title>
<path fill="none" stroke="#27b34a" d="M217.653,-98.43C190.979,-92.8555 151.118,-83.0761 118.397,-69 99.5751,-60.9033 79.9289,-49.059 64.5866,-38.9306"/>
<polygon fill="#27b34a" stroke="#27b34a" points="66.3386,-35.8907 56.0893,-33.2067 62.4277,-41.6964 66.3386,-35.8907"/>
<text text-anchor="middle" x="140.397" y="-57.8" font-family="Times,serif" font-size="14.00">2 (95.1)</text>
</g>
<!-- 07 (a)&#45;&gt;017 (a) -->
<g id="edge1" class="edge"><title>07 (a)&#45;&gt;017 (a)</title>
<path fill="none" stroke="#b43f3f" d="M223.827,-92.7488C211.394,-86.4134 196.123,-77.9827 183.397,-69 171.802,-60.8157 159.939,-50.5475 150.134,-41.449"/>
<polygon fill="#b43f3f" stroke="#b43f3f" points="152.425,-38.7979 142.756,-34.4651 147.612,-43.8815 152.425,-38.7979"/>
<text text-anchor="middle" x="205.397" y="-57.8" font-family="Times,serif" font-size="14.00">2 (92.7)</text>
</g>
<!-- 037 (a) -->
<g id="node11" class="node"><title>037 (a)</title>
<ellipse fill="#ff8a8a" stroke="#b43f3f" cx="218.397" cy="-18" rx="36.2938" ry="18"/>
<text text-anchor="middle" x="218.397" y="-14.3" font-family="Times,serif" font-size="14.00">037 (a)</text>
</g>
<!-- 07 (a)&#45;&gt;037 (a) -->
<g id="edge4" class="edge"><title>07 (a)&#45;&gt;037 (a)</title>
<path fill="none" stroke="#b43f3f" d="M241.667,-87.2067C237.642,-75.4091 232.173,-59.3781 227.548,-45.8221"/>
<polygon fill="#b43f3f" stroke="#b43f3f" points="230.755,-44.3835 224.214,-36.0493 224.13,-46.6438 230.755,-44.3835"/>
<text text-anchor="middle" x="257.397" y="-57.8" font-family="Times,serif" font-size="14.00">1 (97.5)</text>
</g>
<!-- 034 (a) -->
<g id="node19" class="node"><title>034 (a)</title>
<ellipse fill="#ff8a8a" stroke="#b43f3f" cx="309.397" cy="-18" rx="36.2938" ry="18"/>
<text text-anchor="middle" x="309.397" y="-14.3" font-family="Times,serif" font-size="14.00">034 (a)</text>
</g>
<!-- 07 (a)&#45;&gt;034 (a) -->
<g id="edge2" class="edge"><title>07 (a)&#45;&gt;034 (a)</title>
<path fill="none" stroke="#b43f3f" d="M264.312,-89.669C270.763,-83.6891 277.882,-76.4141 283.397,-69 288.853,-61.6646 293.789,-53.0229 297.859,-45.0059"/>
<polygon fill="#b43f3f" stroke="#b43f3f" points="301.013,-46.5232 302.218,-35.9971 294.712,-43.4745 301.013,-46.5232"/>
<text text-anchor="middle" x="315.397" y="-57.8" font-family="Times,serif" font-size="14.00">1 (95.1)</text>
</g>
<!-- 030 (a) -->
<g id="node24" class="node"><title>030 (a)</title>
<ellipse fill="#ff8a8a" stroke="#b43f3f" cx="400.397" cy="-18" rx="36.2938" ry="18"/>
<text text-anchor="middle" x="400.397" y="-14.3" font-family="Times,serif" font-size="14.00">030 (a)</text>
</g>
<!-- 07 (a)&#45;&gt;030 (a) -->
<g id="edge5" class="edge"><title>07 (a)&#45;&gt;030 (a)</title>
<path fill="none" stroke="#b43f3f" d="M275.682,-96.2864C294.964,-90.3649 320.659,-81.143 341.397,-69 354.323,-61.4312 367.188,-50.9635 377.59,-41.561"/>
<polygon fill="#b43f3f" stroke="#b43f3f" points="380.087,-44.0181 385.025,-34.6441 375.319,-38.8931 380.087,-44.0181"/>
<text text-anchor="middle" x="384.397" y="-57.8" font-family="Times,serif" font-size="14.00">1 (95.1)</text>
</g>
<!-- 032 (a) -->
<g id="node5" class="node"><title>032 (a)</title>
<ellipse fill="#ff8a8a" stroke="#b43f3f" cx="414.397" cy="-192" rx="36.2938" ry="18"/>
<text text-anchor="middle" x="414.397" y="-188.3" font-family="Times,serif" font-size="14.00">032 (a)</text>
</g>
<!-- 022 (a) -->
<g id="node6" class="node"><title>022 (a)</title>
<ellipse fill="#ff8a8a" stroke="#b43f3f" cx="400.397" cy="-105" rx="36.2938" ry="18"/>
<text text-anchor="middle" x="400.397" y="-101.3" font-family="Times,serif" font-size="14.00">022 (a)</text>
</g>
<!-- A (a) -->
<g id="node7" class="node"><title>A (a)</title>
<ellipse fill="#ff8a8a" stroke="#b43f3f" cx="586.397" cy="-366" rx="29.4969" ry="18"/>
<text text-anchor="middle" x="586.397" y="-362.3" font-family="Times,serif" font-size="14.00">A (a)</text>
</g>
<!-- A (a)&#45;&gt;01 (b) -->
<g id="edge7" class="edge"><title>A (a)&#45;&gt;01 (b)</title>
<path fill="none" stroke="#835da9" d="M559.044,-359.202C536.479,-353.714 504.112,-344.184 478.397,-330 464.962,-322.589 451.681,-311.961 441.043,-302.407"/>
<polygon fill="#835da9" stroke="#835da9" points="443.178,-299.614 433.465,-295.382 438.419,-304.747 443.178,-299.614"/>
<text text-anchor="middle" x="500.397" y="-318.8" font-family="Times,serif" font-size="14.00">1 (57.1)</text>
</g>
<!-- 03 (a) -->
<g id="node17" class="node"><title>03 (a)</title>
<ellipse fill="#ff8a8a" stroke="#b43f3f" cx="500.397" cy="-279" rx="31.6951" ry="18"/>
<text text-anchor="middle" x="500.397" y="-275.3" font-family="Times,serif" font-size="14.00">03 (a)</text>
</g>
<!-- A (a)&#45;&gt;03 (a) -->
<g id="edge6" class="edge"><title>A (a)&#45;&gt;03 (a)</title>
<path fill="none" stroke="#b43f3f" d="M566.697,-352.561C557.596,-346.347 546.94,-338.375 538.397,-330 530.572,-322.329 523.035,-312.975 516.765,-304.442"/>
<polygon fill="#b43f3f" stroke="#b43f3f" points="519.603,-302.394 510.954,-296.275 513.899,-306.452 519.603,-302.394"/>
<text text-anchor="middle" x="560.397" y="-318.8" font-family="Times,serif" font-size="14.00">1 (93.3)</text>
</g>
<!-- P75 (a) -->
<g id="node18" class="node"><title>P75 (a)</title>
<ellipse fill="#ff8a8a" stroke="#b43f3f" cx="586.397" cy="-279" rx="36.2938" ry="18"/>
<text text-anchor="middle" x="586.397" y="-275.3" font-family="Times,serif" font-size="14.00">P75 (a)</text>
</g>
<!-- A (a)&#45;&gt;P75 (a) -->
<g id="edge8" class="edge"><title>A (a)&#45;&gt;P75 (a)</title>
<path fill="none" stroke="#b43f3f" d="M586.397,-347.799C586.397,-336.163 586.397,-320.548 586.397,-307.237"/>
<polygon fill="#b43f3f" stroke="#b43f3f" points="589.897,-307.175 586.397,-297.175 582.897,-307.175 589.897,-307.175"/>
<text text-anchor="middle" x="608.397" y="-318.8" font-family="Times,serif" font-size="14.00">1 (93.3)</text>
</g>
<!-- 019 (a) -->
<g id="node20" class="node"><title>019 (a)</title>
<ellipse fill="#ff8a8a" stroke="#b43f3f" cx="677.397" cy="-279" rx="36.2938" ry="18"/>
<text text-anchor="middle" x="677.397" y="-275.3" font-family="Times,serif" font-size="14.00">019 (a)</text>
</g>
<!-- A (a)&#45;&gt;019 (a) -->
<g id="edge9" class="edge"><title>A (a)&#45;&gt;019 (a)</title>
<path fill="none" stroke="#b43f3f" d="M605.874,-352.326C614.925,-346.06 625.605,-338.113 634.397,-330 642.941,-322.115 651.472,-312.619 658.657,-304.029"/>
<polygon fill="#b43f3f" stroke="#b43f3f" points="661.474,-306.113 665.089,-296.155 656.053,-301.685 661.474,-306.113"/>
<text text-anchor="middle" x="670.397" y="-318.8" font-family="Times,serif" font-size="14.00">1 (93.3)</text>
</g>
<!-- 091 (a) -->
<g id="node23" class="node"><title>091 (a)</title>
<ellipse fill="#ff8a8a" stroke="#b43f3f" cx="768.397" cy="-279" rx="36.2938" ry="18"/>
<text text-anchor="middle" x="768.397" y="-275.3" font-family="Times,serif" font-size="14.00">091 (a)</text>
</g>
<!-- A (a)&#45;&gt;091 (a) -->
<g id="edge10" class="edge"><title>A (a)&#45;&gt;091 (a)</title>
<path fill="none" stroke="#b43f3f" d="M613.485,-358.797C636.297,-353.013 669.428,-343.279 696.397,-330 712.525,-322.059 729.099,-310.801 742.273,-300.977"/>
<polygon fill="#b43f3f" stroke="#b43f3f" points="744.572,-303.626 750.401,-294.778 740.327,-298.06 744.572,-303.626"/>
<text text-anchor="middle" x="743.397" y="-318.8" font-family="Times,serif" font-size="14.00">1 (87.5)</text>
</g>
<!-- 021 (a) -->
<g id="node8" class="node"><title>021 (a)</title>
<ellipse fill="#ff8a8a" stroke="#b43f3f" cx="491.397" cy="-105" rx="36.2938" ry="18"/>
<text text-anchor="middle" x="491.397" y="-101.3" font-family="Times,serif" font-size="14.00">021 (a)</text>
</g>
<!-- 036 (a) -->
<g id="node14" class="node"><title>036 (a)</title>
<ellipse fill="#ff8a8a" stroke="#b43f3f" cx="491.397" cy="-18" rx="36.2938" ry="18"/>
<text text-anchor="middle" x="491.397" y="-14.3" font-family="Times,serif" font-size="14.00">036 (a)</text>
</g>
<!-- 021 (a)&#45;&gt;036 (a) -->
<g id="edge11" class="edge"><title>021 (a)&#45;&gt;036 (a)</title>
<path fill="none" stroke="#b43f3f" d="M491.397,-86.799C491.397,-75.1626 491.397,-59.5479 491.397,-46.2368"/>
<polygon fill="#b43f3f" stroke="#b43f3f" points="494.897,-46.1754 491.397,-36.1754 487.897,-46.1755 494.897,-46.1754"/>
<text text-anchor="middle" x="513.397" y="-57.8" font-family="Times,serif" font-size="14.00">1 (97.6)</text>
</g>
<!-- 047 (a) -->
<g id="node21" class="node"><title>047 (a)</title>
<ellipse fill="#ff8a8a" stroke="#b43f3f" cx="582.397" cy="-18" rx="36.2938" ry="18"/>
<text text-anchor="middle" x="582.397" y="-14.3" font-family="Times,serif" font-size="14.00">047 (a)</text>
</g>
<!-- 021 (a)&#45;&gt;047 (a) -->
<g id="edge12" class="edge"><title>021 (a)&#45;&gt;047 (a)</title>
<path fill="none" stroke="#b43f3f" d="M512.768,-90.006C521.389,-83.9634 531.211,-76.5539 539.397,-69 547.941,-61.1154 556.472,-51.6186 563.657,-43.0293"/>
<polygon fill="#b43f3f" stroke="#b43f3f" points="566.474,-45.1135 570.089,-35.1545 561.053,-40.6853 566.474,-45.1135"/>
<text text-anchor="middle" x="575.397" y="-57.8" font-family="Times,serif" font-size="14.00">1 (95.1)</text>
</g>
<!-- 0141 (a) -->
<g id="node9" class="node"><title>0141 (a)</title>
<ellipse fill="#ff8a8a" stroke="#b43f3f" cx="586.397" cy="-105" rx="40.0939" ry="18"/>
<text text-anchor="middle" x="586.397" y="-101.3" font-family="Times,serif" font-size="14.00">0141 (a)</text>
</g>
<!-- 028 (a) -->
<g id="node10" class="node"><title>028 (a)</title>
<ellipse fill="#ff8a8a" stroke="#b43f3f" cx="681.397" cy="-105" rx="36.2938" ry="18"/>
<text text-anchor="middle" x="681.397" y="-101.3" font-family="Times,serif" font-size="14.00">028 (a)</text>
</g>
<!-- 05 (a) -->
<g id="node12" class="node"><title>05 (a)</title>
<ellipse fill="#ff8a8a" stroke="#b43f3f" cx="723.397" cy="-192" rx="31.6951" ry="18"/>
<text text-anchor="middle" x="723.397" y="-188.3" font-family="Times,serif" font-size="14.00">05 (a)</text>
</g>
<!-- 02 (a) -->
<g id="node13" class="node"><title>02 (a)</title>
<ellipse fill="#ff8a8a" stroke="#b43f3f" cx="500.397" cy="-192" rx="31.6951" ry="18"/>
<text text-anchor="middle" x="500.397" y="-188.3" font-family="Times,serif" font-size="14.00">02 (a)</text>
</g>
<!-- 038 (b) -->
<g id="node15" class="node"><title>038 (b)</title>
<ellipse fill="#cea8f4" stroke="#835da9" cx="772.397" cy="-18" rx="36.2938" ry="18"/>
<text text-anchor="middle" x="772.397" y="-14.3" font-family="Times,serif" font-size="14.00">038 (b)</text>
</g>
<!-- 045 (a) -->
<g id="node16" class="node"><title>045 (a)</title>
<ellipse fill="#ff8a8a" stroke="#b43f3f" cx="772.397" cy="-105" rx="36.2938" ry="18"/>
<text text-anchor="middle" x="772.397" y="-101.3" font-family="Times,serif" font-size="14.00">045 (a)</text>
</g>
<!-- 045 (a)&#45;&gt;038 (b) -->
<g id="edge13" class="edge"><title>045 (a)&#45;&gt;038 (b)</title>
<path fill="none" stroke="#835da9" d="M772.397,-86.799C772.397,-75.1626 772.397,-59.5479 772.397,-46.2368"/>
<polygon fill="#835da9" stroke="#835da9" points="775.897,-46.1754 772.397,-36.1754 768.897,-46.1755 775.897,-46.1754"/>
<text text-anchor="middle" x="794.397" y="-57.8" font-family="Times,serif" font-size="14.00">1 (92.7)</text>
</g>
<!-- 03 (a)&#45;&gt;032 (a) -->
<g id="edge15" class="edge"><title>03 (a)&#45;&gt;032 (a)</title>
<path fill="none" stroke="#b43f3f" d="M479.75,-264.912C470.864,-258.796 460.645,-251.086 452.397,-243 444.572,-235.329 437.035,-225.975 430.765,-217.442"/>
<polygon fill="#b43f3f" stroke="#b43f3f" points="433.603,-215.394 424.954,-209.275 427.899,-219.452 433.603,-215.394"/>
<text text-anchor="middle" x="474.397" y="-231.8" font-family="Times,serif" font-size="14.00">1 (91.7)</text>
</g>
<!-- 03 (a)&#45;&gt;02 (a) -->
<g id="edge16" class="edge"><title>03 (a)&#45;&gt;02 (a)</title>
<path fill="none" stroke="#b43f3f" d="M500.397,-260.799C500.397,-249.163 500.397,-233.548 500.397,-220.237"/>
<polygon fill="#b43f3f" stroke="#b43f3f" points="503.897,-220.175 500.397,-210.175 496.897,-220.175 503.897,-220.175"/>
<text text-anchor="middle" x="522.397" y="-231.8" font-family="Times,serif" font-size="14.00">1 (86.5)</text>
</g>
<!-- 044 (a) -->
<g id="node22" class="node"><title>044 (a)</title>
<ellipse fill="#ff8a8a" stroke="#b43f3f" cx="586.397" cy="-192" rx="36.2938" ry="18"/>
<text text-anchor="middle" x="586.397" y="-188.3" font-family="Times,serif" font-size="14.00">044 (a)</text>
</g>
<!-- 03 (a)&#45;&gt;044 (a) -->
<g id="edge14" class="edge"><title>03 (a)&#45;&gt;044 (a)</title>
<path fill="none" stroke="#b43f3f" d="M521.044,-264.912C529.93,-258.796 540.148,-251.086 548.397,-243 556.221,-235.329 563.759,-225.975 570.029,-217.442"/>
<polygon fill="#b43f3f" stroke="#b43f3f" points="572.894,-219.452 575.84,-209.275 567.191,-215.394 572.894,-219.452"/>
<text text-anchor="middle" x="583.397" y="-231.8" font-family="Times,serif" font-size="14.00">1 (89.2)</text>
</g>
<!-- 044 (a)&#45;&gt;07 (a) -->
<g id="edge20" class="edge"><title>044 (a)&#45;&gt;07 (a)</title>
<path fill="none" stroke="#b43f3f" d="M559.595,-179.709C553.683,-177.548 547.393,-175.496 541.397,-174 480.529,-158.812 462.607,-169.746 401.397,-156 359.696,-146.635 313.206,-130.757 282.326,-119.406"/>
<polygon fill="#b43f3f" stroke="#b43f3f" points="283.467,-116.096 272.874,-115.893 281.029,-122.658 283.467,-116.096"/>
<text text-anchor="middle" x="423.397" y="-144.8" font-family="Times,serif" font-size="14.00">2 (83.8)</text>
</g>
<!-- 044 (a)&#45;&gt;022 (a) -->
<g id="edge21" class="edge"><title>044 (a)&#45;&gt;022 (a)</title>
<path fill="none" stroke="#b43f3f" d="M558.937,-180.154C553.178,-178.012 547.116,-175.856 541.397,-174 512.476,-164.617 503.07,-168.595 475.397,-156 458.294,-148.216 440.734,-136.733 426.91,-126.735"/>
<polygon fill="#b43f3f" stroke="#b43f3f" points="428.941,-123.884 418.822,-120.747 424.776,-129.51 428.941,-123.884"/>
<text text-anchor="middle" x="497.397" y="-144.8" font-family="Times,serif" font-size="14.00">1 (91.7)</text>
</g>
<!-- 044 (a)&#45;&gt;021 (a) -->
<g id="edge19" class="edge"><title>044 (a)&#45;&gt;021 (a)</title>
<path fill="none" stroke="#b43f3f" d="M565.667,-177.159C556.96,-171.025 546.902,-163.508 538.397,-156 529.233,-147.911 519.866,-138.276 511.93,-129.632"/>
<polygon fill="#b43f3f" stroke="#b43f3f" points="514.386,-127.129 505.091,-122.045 509.187,-131.816 514.386,-127.129"/>
<text text-anchor="middle" x="560.397" y="-144.8" font-family="Times,serif" font-size="14.00">2 (83.8)</text>
</g>
<!-- 044 (a)&#45;&gt;0141 (a) -->
<g id="edge18" class="edge"><title>044 (a)&#45;&gt;0141 (a)</title>
<path fill="none" stroke="#b43f3f" d="M586.397,-173.799C586.397,-162.163 586.397,-146.548 586.397,-133.237"/>
<polygon fill="#b43f3f" stroke="#b43f3f" points="589.897,-133.175 586.397,-123.175 582.897,-133.175 589.897,-133.175"/>
<text text-anchor="middle" x="608.397" y="-144.8" font-family="Times,serif" font-size="14.00">1 (89.2)</text>
</g>
<!-- 044 (a)&#45;&gt;028 (a) -->
<g id="edge23" class="edge"><title>044 (a)&#45;&gt;028 (a)</title>
<path fill="none" stroke="#b43f3f" d="M607.127,-177.159C615.833,-171.025 625.891,-163.508 634.397,-156 643.56,-147.911 652.927,-138.276 660.863,-129.632"/>
<polygon fill="#b43f3f" stroke="#b43f3f" points="663.606,-131.816 667.702,-122.045 658.407,-127.129 663.606,-131.816"/>
<text text-anchor="middle" x="672.397" y="-144.8" font-family="Times,serif" font-size="14.00">2 (81.1)</text>
</g>
<!-- 044 (a)&#45;&gt;045 (a) -->
<g id="edge17" class="edge"><title>044 (a)&#45;&gt;045 (a)</title>
<path fill="none" stroke="#b43f3f" d="M618.715,-183.572C641.611,-177.676 672.698,-168.368 698.397,-156 714.9,-148.057 731.929,-136.799 745.485,-126.976"/>
<polygon fill="#b43f3f" stroke="#b43f3f" points="747.899,-129.543 753.851,-120.777 743.732,-123.918 747.899,-129.543"/>
<text text-anchor="middle" x="746.397" y="-144.8" font-family="Times,serif" font-size="14.00">2 (81.1)</text>
</g>
<!-- 011 (a) -->
<g id="node25" class="node"><title>011 (a)</title>
<ellipse fill="#ff8a8a" stroke="#b43f3f" cx="863.397" cy="-105" rx="36.2938" ry="18"/>
<text text-anchor="middle" x="863.397" y="-101.3" font-family="Times,serif" font-size="14.00">011 (a)</text>
</g>
<!-- 044 (a)&#45;&gt;011 (a) -->
<g id="edge22" class="edge"><title>044 (a)&#45;&gt;011 (a)</title>
<path fill="none" stroke="#b43f3f" d="M620.15,-184.933C671.801,-175.608 765.263,-158.557 772.397,-156 794.072,-148.23 816.773,-135.766 834.079,-125.226"/>
<polygon fill="#b43f3f" stroke="#b43f3f" points="835.96,-128.178 842.604,-119.925 832.263,-122.234 835.96,-128.178"/>
<text text-anchor="middle" x="826.397" y="-144.8" font-family="Times,serif" font-size="14.00">2 (86.5)</text>
</g>
<!-- 091 (a)&#45;&gt;05 (a) -->
<g id="edge25" class="edge"><title>091 (a)&#45;&gt;05 (a)</title>
<path fill="none" stroke="#b43f3f" d="M754.042,-262.452C749.226,-256.658 744.136,-249.824 740.397,-243 736.476,-235.844 733.226,-227.62 730.656,-219.936"/>
<polygon fill="#b43f3f" stroke="#b43f3f" points="733.968,-218.799 727.667,-210.281 727.28,-220.869 733.968,-218.799"/>
<text text-anchor="middle" x="762.397" y="-231.8" font-family="Times,serif" font-size="14.00">1 (87.5)</text>
</g>
<!-- 0211 (a) -->
<g id="node26" class="node"><title>0211 (a)</title>
<ellipse fill="#ff8a8a" stroke="#b43f3f" cx="813.397" cy="-192" rx="40.0939" ry="18"/>
<text text-anchor="middle" x="813.397" y="-188.3" font-family="Times,serif" font-size="14.00">0211 (a)</text>
</g>
<!-- 091 (a)&#45;&gt;0211 (a) -->
<g id="edge24" class="edge"><title>091 (a)&#45;&gt;0211 (a)</title>
<path fill="none" stroke="#b43f3f" d="M777.287,-261.207C783.697,-249.099 792.468,-232.533 799.76,-218.759"/>
<polygon fill="#b43f3f" stroke="#b43f3f" points="802.939,-220.234 804.525,-209.758 796.752,-216.959 802.939,-220.234"/>
<text text-anchor="middle" x="816.397" y="-231.8" font-family="Times,serif" font-size="14.00">1 (83.3)</text>
</g>
</g>
</svg>
