<?xml version="1.0" encoding="UTF-8" standalone="no"?>
<!DOCTYPE svg PUBLIC "-//W3C//DTD SVG 1.1//EN"
 "http://www.w3.org/Graphics/SVG/1.1/DTD/svg11.dtd">
<!-- Generated by graphviz version 2.38.0 (20140413.2041)
 -->
<!-- Title: %3 Pages: 1 -->
<svg width="878pt" height="250pt"
 viewBox="0.00 0.00 878.00 250.00" xmlns="http://www.w3.org/2000/svg" xmlns:xlink="http://www.w3.org/1999/xlink">
<g id="graph0" class="graph" transform="scale(1 1) rotate(0) translate(4 246)">
<title>%3</title>
<polygon fill="white" stroke="none" points="-4,4 -4,-246 874,-246 874,4 -4,4"/>
<g id="clust1" class="cluster"><title>cluster_legend</title>
<path fill="none" stroke="black" d="M20,-106C20,-106 210,-106 210,-106 216,-106 222,-112 222,-118 222,-118 222,-222 222,-222 222,-228 216,-234 210,-234 210,-234 20,-234 20,-234 14,-234 8,-228 8,-222 8,-222 8,-118 8,-118 8,-112 14,-106 20,-106"/>
</g>
<g id="clust2" class="cluster"><title>cluster_reading</title>
<polygon fill="none" stroke="black" points="230,-8 230,-234 862,-234 862,-8 230,-8"/>
</g>
<!-- leg_s -->
<g id="node1" class="node"><title>leg_s</title>
<text text-anchor="middle" x="115" y="-204.3" font-family="Times,serif" font-size="14.00">Textual flow strength</text>
</g>
<!-- leg_e1 -->
<!-- leg_s&#45;&gt;leg_e1 -->
<g id="edge1" class="edge"><title>leg_s&#45;&gt;leg_e1</title>
<path fill="none" stroke="black" stroke-dasharray="1,5" d="M96.6657,-189.686C91.1324,-184.194 85.1607,-177.989 80,-172 70.1708,-160.593 60.0722,-146.779 52.9137,-136.563"/>
<polygon fill="black" stroke="black" points="55.6142,-134.314 47.056,-128.068 49.8514,-138.288 55.6142,-134.314"/>
<text text-anchor="middle" x="95.5" y="-160.8" font-family="Times,serif" font-size="14.00">&lt;=5 &#160;</text>
</g>
<!-- leg_e2 -->
<!-- leg_s&#45;&gt;leg_e2 -->
<g id="edge2" class="edge"><title>leg_s&#45;&gt;leg_e2</title>
<path fill="none" stroke="black" stroke-dasharray="5,2" d="M115,-189.799C115,-174.794 115,-153.174 115,-138.409"/>
<polygon fill="black" stroke="black" points="118.5,-138.293 115,-128.293 111.5,-138.293 118.5,-138.293"/>
<text text-anchor="middle" x="134" y="-160.8" font-family="Times,serif" font-size="14.00"> &#160;&lt;=25</text>
</g>
<!-- leg_e3 -->
<!-- leg_s&#45;&gt;leg_e3 -->
<g id="edge3" class="edge"><title>leg_s&#45;&gt;leg_e3</title>
<path fill="none" stroke="black" d="M138.503,-189.76C144.906,-184.462 151.567,-178.344 157,-172 166.087,-161.39 174.095,-147.689 179.546,-137.313"/>
<polygon fill="black" stroke="black" points="182.722,-138.789 184.091,-128.283 176.469,-135.642 182.722,-138.789"/>
<text text-anchor="middle" x="179" y="-160.8" font-family="Times,serif" font-size="14.00">&gt;25</text>
</g>
<!-- 045 -->
<g id="node5" class="node"><title>045</title>
<ellipse fill="#ff8a8a" stroke="#b43f3f" cx="274" cy="-121" rx="36.2938" ry="18"/>
<text text-anchor="middle" x="274" y="-117.3" font-family="Times,serif" font-size="14.00">045 (a)</text>
</g>
<!-- 038 -->
<g id="node6" class="node"><title>038</title>
<ellipse fill="#ff8a8a" stroke="#b43f3f" cx="274" cy="-34" rx="36.2938" ry="18"/>
<text text-anchor="middle" x="274" y="-30.3" font-family="Times,serif" font-size="14.00">038 (a)</text>
</g>
<!-- 045&#45;&gt;038 -->
<g id="edge4" class="edge"><title>045&#45;&gt;038</title>
<path fill="none" stroke="#b43f3f" stroke-dasharray="1,5" d="M274,-102.799C274,-91.1626 274,-75.5479 274,-62.2368"/>
<polygon fill="#b43f3f" stroke="#b43f3f" points="277.5,-62.1754 274,-52.1754 270.5,-62.1755 277.5,-62.1754"/>
<text text-anchor="middle" x="296" y="-73.8" font-family="Times,serif" font-size="14.00">1 (92.7)</text>
</g>
<!-- 063 -->
<g id="node7" class="node"><title>063</title>
<ellipse fill="#ff8a8a" stroke="#b43f3f" cx="456" cy="-208" rx="36.2938" ry="18"/>
<text text-anchor="middle" x="456" y="-204.3" font-family="Times,serif" font-size="14.00">063 (a)</text>
</g>
<!-- 063&#45;&gt;045 -->
<g id="edge5" class="edge"><title>063&#45;&gt;045</title>
<path fill="none" stroke="#b43f3f" stroke-dasharray="1,5" d="M424.054,-199.368C401.811,-193.43 371.808,-184.156 347,-172 330.705,-164.016 313.906,-152.754 300.536,-142.939"/>
<polygon fill="#b43f3f" stroke="#b43f3f" points="302.385,-139.951 292.286,-136.748 298.183,-145.55 302.385,-139.951"/>
<text text-anchor="middle" x="369" y="-160.8" font-family="Times,serif" font-size="14.00">1 (93.1)</text>
</g>
<!-- 031 -->
<g id="node8" class="node"><title>031</title>
<ellipse fill="#ff8a8a" stroke="#b43f3f" cx="365" cy="-121" rx="36.2938" ry="18"/>
<text text-anchor="middle" x="365" y="-117.3" font-family="Times,serif" font-size="14.00">031 (a)</text>
</g>
<!-- 063&#45;&gt;031 -->
<g id="edge6" class="edge"><title>063&#45;&gt;031</title>
<path fill="none" stroke="#b43f3f" stroke-dasharray="1,5" d="M434.628,-193.006C426.008,-186.963 416.186,-179.554 408,-172 399.456,-164.115 390.924,-154.619 383.74,-146.029"/>
<polygon fill="#b43f3f" stroke="#b43f3f" points="386.344,-143.685 377.308,-138.155 380.923,-148.113 386.344,-143.685"/>
<text text-anchor="middle" x="430" y="-160.8" font-family="Times,serif" font-size="14.00">1 (95.8)</text>
</g>
<!-- 011 -->
<g id="node9" class="node"><title>011</title>
<ellipse fill="#ff8a8a" stroke="#b43f3f" cx="456" cy="-121" rx="36.2938" ry="18"/>
<text text-anchor="middle" x="456" y="-117.3" font-family="Times,serif" font-size="14.00">011 (a)</text>
</g>
<!-- 063&#45;&gt;011 -->
<g id="edge7" class="edge"><title>063&#45;&gt;011</title>
<path fill="none" stroke="#b43f3f" stroke-dasharray="1,5" d="M456,-189.799C456,-178.163 456,-162.548 456,-149.237"/>
<polygon fill="#b43f3f" stroke="#b43f3f" points="459.5,-149.175 456,-139.175 452.5,-149.175 459.5,-149.175"/>
<text text-anchor="middle" x="478" y="-160.8" font-family="Times,serif" font-size="14.00">1 (93.1)</text>
</g>
<!-- 028 -->
<g id="node10" class="node"><title>028</title>
<ellipse fill="#ff8a8a" stroke="#b43f3f" cx="547" cy="-121" rx="36.2938" ry="18"/>
<text text-anchor="middle" x="547" y="-117.3" font-family="Times,serif" font-size="14.00">028 (a)</text>
</g>
<!-- 063&#45;&gt;028 -->
<g id="edge8" class="edge"><title>063&#45;&gt;028</title>
<path fill="none" stroke="#b43f3f" stroke-dasharray="1,5" d="M477.372,-193.006C485.992,-186.963 495.814,-179.554 504,-172 512.544,-164.115 521.076,-154.619 528.26,-146.029"/>
<polygon fill="#b43f3f" stroke="#b43f3f" points="531.077,-148.113 534.692,-138.155 525.656,-143.685 531.077,-148.113"/>
<text text-anchor="middle" x="540" y="-160.8" font-family="Times,serif" font-size="14.00">1 (96.6)</text>
</g>
<!-- 07 -->
<g id="node11" class="node"><title>07</title>
<ellipse fill="#ff8a8a" stroke="#b43f3f" cx="633" cy="-121" rx="31.6951" ry="18"/>
<text text-anchor="middle" x="633" y="-117.3" font-family="Times,serif" font-size="14.00">07 (a)</text>
</g>
<!-- 063&#45;&gt;07 -->
<g id="edge9" class="edge"><title>063&#45;&gt;07</title>
<path fill="none" stroke="#b43f3f" stroke-dasharray="1,5" d="M488.401,-199.727C510.922,-193.954 541.222,-184.729 566,-172 581.209,-164.186 596.61,-152.975 608.804,-143.148"/>
<polygon fill="#b43f3f" stroke="#b43f3f" points="611.217,-145.695 616.693,-136.625 606.756,-140.3 611.217,-145.695"/>
<text text-anchor="middle" x="612" y="-160.8" font-family="Times,serif" font-size="14.00">1 (96.6)</text>
</g>
<!-- 013 -->
<g id="node12" class="node"><title>013</title>
<ellipse fill="#ff8a8a" stroke="#b43f3f" cx="365" cy="-34" rx="36.2938" ry="18"/>
<text text-anchor="middle" x="365" y="-30.3" font-family="Times,serif" font-size="14.00">013 (a)</text>
</g>
<!-- 031&#45;&gt;013 -->
<g id="edge10" class="edge"><title>031&#45;&gt;013</title>
<path fill="none" stroke="#b43f3f" stroke-dasharray="1,5" d="M365,-102.799C365,-91.1626 365,-75.5479 365,-62.2368"/>
<polygon fill="#b43f3f" stroke="#b43f3f" points="368.5,-62.1754 365,-52.1754 361.5,-62.1755 368.5,-62.1754"/>
<text text-anchor="middle" x="387" y="-73.8" font-family="Times,serif" font-size="14.00">1 (97.1)</text>
</g>
<!-- 02 -->
<g id="node13" class="node"><title>02</title>
<ellipse fill="#ff8a8a" stroke="#b43f3f" cx="451" cy="-34" rx="31.6951" ry="18"/>
<text text-anchor="middle" x="451" y="-30.3" font-family="Times,serif" font-size="14.00">02 (a)</text>
</g>
<!-- 011&#45;&gt;02 -->
<g id="edge11" class="edge"><title>011&#45;&gt;02</title>
<path fill="none" stroke="#b43f3f" stroke-dasharray="1,5" d="M454.988,-102.799C454.304,-91.1626 453.385,-75.5479 452.602,-62.2368"/>
<polygon fill="#b43f3f" stroke="#b43f3f" points="456.092,-61.9526 452.01,-52.1754 449.104,-62.3637 456.092,-61.9526"/>
<text text-anchor="middle" x="476" y="-73.8" font-family="Times,serif" font-size="14.00">1 (86.5)</text>
</g>
<!-- 030 -->
<g id="node14" class="node"><title>030</title>
<ellipse fill="#ff8a8a" stroke="#b43f3f" cx="537" cy="-34" rx="36.2938" ry="18"/>
<text text-anchor="middle" x="537" y="-30.3" font-family="Times,serif" font-size="14.00">030 (a)</text>
</g>
<!-- 07&#45;&gt;030 -->
<g id="edge12" class="edge"><title>07&#45;&gt;030</title>
<path fill="none" stroke="#b43f3f" stroke-dasharray="1,5" d="M612.305,-106.983C603,-100.766 592.09,-92.9548 583,-85 573.893,-77.0308 564.698,-67.4187 556.947,-58.7604"/>
<polygon fill="#b43f3f" stroke="#b43f3f" points="559.503,-56.3659 550.28,-51.1516 554.238,-60.9793 559.503,-56.3659"/>
<text text-anchor="middle" x="605" y="-73.8" font-family="Times,serif" font-size="14.00">1 (95.1)</text>
</g>
<!-- 034 -->
<g id="node15" class="node"><title>034</title>
<ellipse fill="#ff8a8a" stroke="#b43f3f" cx="628" cy="-34" rx="36.2938" ry="18"/>
<text text-anchor="middle" x="628" y="-30.3" font-family="Times,serif" font-size="14.00">034 (a)</text>
</g>
<!-- 07&#45;&gt;034 -->
<g id="edge13" class="edge"><title>07&#45;&gt;034</title>
<path fill="none" stroke="#b43f3f" stroke-dasharray="1,5" d="M631.988,-102.799C631.304,-91.1626 630.385,-75.5479 629.602,-62.2368"/>
<polygon fill="#b43f3f" stroke="#b43f3f" points="633.092,-61.9526 629.01,-52.1754 626.104,-62.3637 633.092,-61.9526"/>
<text text-anchor="middle" x="653" y="-73.8" font-family="Times,serif" font-size="14.00">1 (95.1)</text>
</g>
<!-- 0211 -->
<g id="node16" class="node"><title>0211</title>
<ellipse fill="#ff8a8a" stroke="#b43f3f" cx="723" cy="-34" rx="40.0939" ry="18"/>
<text text-anchor="middle" x="723" y="-30.3" font-family="Times,serif" font-size="14.00">0211 (a)</text>
</g>
<!-- 07&#45;&gt;0211 -->
<g id="edge14" class="edge"><title>07&#45;&gt;0211</title>
<path fill="none" stroke="#b43f3f" stroke-dasharray="1,5" d="M652.482,-106.506C660.942,-100.316 670.775,-92.6592 679,-85 687.465,-77.1175 696.033,-67.761 703.33,-59.2859"/>
<polygon fill="#b43f3f" stroke="#b43f3f" points="706.12,-61.4074 709.893,-51.5073 700.77,-56.8934 706.12,-61.4074"/>
<text text-anchor="middle" x="715" y="-73.8" font-family="Times,serif" font-size="14.00">2 (82.9)</text>
</g>
<!-- 037 -->
<g id="node17" class="node"><title>037</title>
<ellipse fill="#ff8a8a" stroke="#b43f3f" cx="818" cy="-34" rx="36.2938" ry="18"/>
<text text-anchor="middle" x="818" y="-30.3" font-family="Times,serif" font-size="14.00">037 (a)</text>
</g>
<!-- 07&#45;&gt;037 -->
<g id="edge15" class="edge"><title>07&#45;&gt;037</title>
<path fill="none" stroke="#b43f3f" stroke-dasharray="1,5" d="M661.754,-112.899C683.978,-106.889 715.2,-97.2934 741,-85 758.278,-76.7672 776.289,-65.257 790.543,-55.3554"/>
<polygon fill="#b43f3f" stroke="#b43f3f" points="792.755,-58.0777 798.893,-49.4417 788.709,-52.3652 792.755,-58.0777"/>
<text text-anchor="middle" x="789" y="-73.8" font-family="Times,serif" font-size="14.00">1 (97.5)</text>
</g>
</g>
</svg>
