<?xml version="1.0" encoding="UTF-8" standalone="no"?>
<!DOCTYPE svg PUBLIC "-//W3C//DTD SVG 1.1//EN"
 "http://www.w3.org/Graphics/SVG/1.1/DTD/svg11.dtd">
<!-- Generated by graphviz version 2.38.0 (20140413.2041)
 -->
<!-- Title: %3 Pages: 1 -->
<svg width="1207pt" height="321pt"
 viewBox="0.00 0.00 1206.89 321.00" xmlns="http://www.w3.org/2000/svg" xmlns:xlink="http://www.w3.org/1999/xlink">
<g id="graph0" class="graph" transform="scale(1 1) rotate(0) translate(4 317)">
<title>%3</title>
<polygon fill="white" stroke="none" points="-4,4 -4,-317 1202.89,-317 1202.89,4 -4,4"/>
<g id="clust1" class="cluster"><title>cluster_legend</title>
<path fill="none" stroke="black" d="M288.397,-177C288.397,-177 478.397,-177 478.397,-177 484.397,-177 490.397,-183 490.397,-189 490.397,-189 490.397,-293 490.397,-293 490.397,-299 484.397,-305 478.397,-305 478.397,-305 288.397,-305 288.397,-305 282.397,-305 276.397,-299 276.397,-293 276.397,-293 276.397,-189 276.397,-189 276.397,-183 282.397,-177 288.397,-177"/>
</g>
<!-- leg_s -->
<g id="node1" class="node"><title>leg_s</title>
<text text-anchor="middle" x="383.397" y="-275.3" font-family="Times,serif" font-size="14.00">Textual flow strength</text>
</g>
<!-- leg_e1 -->
<!-- leg_s&#45;&gt;leg_e1 -->
<g id="edge1" class="edge"><title>leg_s&#45;&gt;leg_e1</title>
<path fill="none" stroke="black" stroke-dasharray="1,5" d="M365.062,-260.686C359.529,-255.194 353.557,-248.989 348.397,-243 338.568,-231.593 328.469,-217.779 321.31,-207.563"/>
<polygon fill="black" stroke="black" points="324.011,-205.314 315.453,-199.068 318.248,-209.288 324.011,-205.314"/>
<text text-anchor="middle" x="363.897" y="-231.8" font-family="Times,serif" font-size="14.00">&lt;=5 &#160;</text>
</g>
<!-- leg_e2 -->
<!-- leg_s&#45;&gt;leg_e2 -->
<g id="edge2" class="edge"><title>leg_s&#45;&gt;leg_e2</title>
<path fill="none" stroke="black" stroke-dasharray="5,2" d="M383.397,-260.799C383.397,-245.794 383.397,-224.174 383.397,-209.409"/>
<polygon fill="black" stroke="black" points="386.897,-209.293 383.397,-199.293 379.897,-209.293 386.897,-209.293"/>
<text text-anchor="middle" x="402.397" y="-231.8" font-family="Times,serif" font-size="14.00"> &#160;&lt;=25</text>
</g>
<!-- leg_e3 -->
<!-- leg_s&#45;&gt;leg_e3 -->
<g id="edge3" class="edge"><title>leg_s&#45;&gt;leg_e3</title>
<path fill="none" stroke="black" d="M406.9,-260.76C413.303,-255.462 419.963,-249.344 425.397,-243 434.484,-232.39 442.492,-218.689 447.943,-208.313"/>
<polygon fill="black" stroke="black" points="451.119,-209.789 452.488,-199.283 444.866,-206.642 451.119,-209.789"/>
<text text-anchor="middle" x="447.397" y="-231.8" font-family="Times,serif" font-size="14.00">&gt;25</text>
</g>
<!-- 021 -->
<g id="node5" class="node"><title>021</title>
<ellipse fill="#ff8a8a" stroke="#b43f3f" cx="127.397" cy="-105" rx="36.2938" ry="18"/>
<text text-anchor="middle" x="127.397" y="-101.3" font-family="Times,serif" font-size="14.00">021 (a)</text>
</g>
<!-- 036 -->
<g id="node6" class="node"><title>036</title>
<ellipse fill="#ff8a8a" stroke="#b43f3f" cx="36.3968" cy="-18" rx="36.2938" ry="18"/>
<text text-anchor="middle" x="36.3968" y="-14.3" font-family="Times,serif" font-size="14.00">036 (a)</text>
</g>
<!-- 021&#45;&gt;036 -->
<g id="edge4" class="edge"><title>021&#45;&gt;036</title>
<path fill="none" stroke="#b43f3f" stroke-dasharray="1,5" d="M106.025,-90.006C97.4044,-83.9634 87.5824,-76.5539 79.3968,-69 70.8527,-61.1154 62.3211,-51.6186 55.1364,-43.0293"/>
<polygon fill="#b43f3f" stroke="#b43f3f" points="57.741,-40.6853 48.7043,-35.1545 52.3196,-45.1135 57.741,-40.6853"/>
<text text-anchor="middle" x="101.397" y="-57.8" font-family="Times,serif" font-size="14.00">1 (97.6)</text>
</g>
<!-- 047 -->
<g id="node7" class="node"><title>047</title>
<ellipse fill="#ff8a8a" stroke="#b43f3f" cx="127.397" cy="-18" rx="36.2938" ry="18"/>
<text text-anchor="middle" x="127.397" y="-14.3" font-family="Times,serif" font-size="14.00">047 (a)</text>
</g>
<!-- 021&#45;&gt;047 -->
<g id="edge5" class="edge"><title>021&#45;&gt;047</title>
<path fill="none" stroke="#b43f3f" stroke-dasharray="1,5" d="M127.397,-86.799C127.397,-75.1626 127.397,-59.5479 127.397,-46.2368"/>
<polygon fill="#b43f3f" stroke="#b43f3f" points="130.897,-46.1754 127.397,-36.1754 123.897,-46.1755 130.897,-46.1754"/>
<text text-anchor="middle" x="149.397" y="-57.8" font-family="Times,serif" font-size="14.00">1 (95.1)</text>
</g>
<!-- 03 -->
<g id="node8" class="node"><title>03</title>
<ellipse fill="#ff8a8a" stroke="#b43f3f" cx="902.397" cy="-279" rx="31.6951" ry="18"/>
<text text-anchor="middle" x="902.397" y="-275.3" font-family="Times,serif" font-size="14.00">03 (a)</text>
</g>
<!-- 032 -->
<g id="node9" class="node"><title>032</title>
<ellipse fill="#ff8a8a" stroke="#b43f3f" cx="811.397" cy="-192" rx="36.2938" ry="18"/>
<text text-anchor="middle" x="811.397" y="-188.3" font-family="Times,serif" font-size="14.00">032 (a)</text>
</g>
<!-- 03&#45;&gt;032 -->
<g id="edge6" class="edge"><title>03&#45;&gt;032</title>
<path fill="none" stroke="#b43f3f" stroke-dasharray="1,5" d="M881.978,-264.672C873.134,-258.512 862.886,-250.834 854.397,-243 845.853,-235.115 837.321,-225.619 830.136,-217.029"/>
<polygon fill="#b43f3f" stroke="#b43f3f" points="832.741,-214.685 823.704,-209.155 827.32,-219.113 832.741,-214.685"/>
<text text-anchor="middle" x="876.397" y="-231.8" font-family="Times,serif" font-size="14.00">1 (91.7)</text>
</g>
<!-- 044 -->
<g id="node10" class="node"><title>044</title>
<ellipse fill="#ff8a8a" stroke="#b43f3f" cx="902.397" cy="-192" rx="36.2938" ry="18"/>
<text text-anchor="middle" x="902.397" y="-188.3" font-family="Times,serif" font-size="14.00">044 (a)</text>
</g>
<!-- 03&#45;&gt;044 -->
<g id="edge7" class="edge"><title>03&#45;&gt;044</title>
<path fill="none" stroke="#b43f3f" stroke-dasharray="1,5" d="M902.397,-260.799C902.397,-249.163 902.397,-233.548 902.397,-220.237"/>
<polygon fill="#b43f3f" stroke="#b43f3f" points="905.897,-220.175 902.397,-210.175 898.897,-220.175 905.897,-220.175"/>
<text text-anchor="middle" x="924.397" y="-231.8" font-family="Times,serif" font-size="14.00">1 (89.2)</text>
</g>
<!-- 02 -->
<g id="node11" class="node"><title>02</title>
<ellipse fill="#ff8a8a" stroke="#b43f3f" cx="988.397" cy="-192" rx="31.6951" ry="18"/>
<text text-anchor="middle" x="988.397" y="-188.3" font-family="Times,serif" font-size="14.00">02 (a)</text>
</g>
<!-- 03&#45;&gt;02 -->
<g id="edge8" class="edge"><title>03&#45;&gt;02</title>
<path fill="none" stroke="#b43f3f" stroke-dasharray="1,5" d="M923.044,-264.912C931.93,-258.796 942.148,-251.086 950.397,-243 958.221,-235.329 965.759,-225.975 972.029,-217.442"/>
<polygon fill="#b43f3f" stroke="#b43f3f" points="974.894,-219.452 977.84,-209.275 969.191,-215.394 974.894,-219.452"/>
<text text-anchor="middle" x="985.397" y="-231.8" font-family="Times,serif" font-size="14.00">1 (86.5)</text>
</g>
<!-- 022 -->
<g id="node24" class="node"><title>022</title>
<ellipse fill="#ff8a8a" stroke="#b43f3f" cx="855.397" cy="-105" rx="36.2938" ry="18"/>
<text text-anchor="middle" x="855.397" y="-101.3" font-family="Times,serif" font-size="14.00">022 (a)</text>
</g>
<!-- 044&#45;&gt;022 -->
<g id="edge21" class="edge"><title>044&#45;&gt;022</title>
<path fill="none" stroke="#b43f3f" stroke-dasharray="1,5" d="M893.111,-174.207C886.373,-162.021 877.137,-145.318 869.492,-131.491"/>
<polygon fill="#b43f3f" stroke="#b43f3f" points="872.405,-129.527 864.503,-122.469 866.279,-132.914 872.405,-129.527"/>
<text text-anchor="middle" x="904.397" y="-144.8" font-family="Times,serif" font-size="14.00">1 (91.7)</text>
</g>
<!-- 0141 -->
<g id="node25" class="node"><title>0141</title>
<ellipse fill="#ff8a8a" stroke="#b43f3f" cx="950.397" cy="-105" rx="40.0939" ry="18"/>
<text text-anchor="middle" x="950.397" y="-101.3" font-family="Times,serif" font-size="14.00">0141 (a)</text>
</g>
<!-- 044&#45;&gt;0141 -->
<g id="edge22" class="edge"><title>044&#45;&gt;0141</title>
<path fill="none" stroke="#b43f3f" stroke-dasharray="1,5" d="M915.355,-175.139C919.792,-169.316 924.592,-162.544 928.397,-156 932.687,-148.622 936.68,-140.251 940.055,-132.498"/>
<polygon fill="#b43f3f" stroke="#b43f3f" points="943.343,-133.706 943.973,-123.13 936.886,-131.004 943.343,-133.706"/>
<text text-anchor="middle" x="958.397" y="-144.8" font-family="Times,serif" font-size="14.00">1 (89.2)</text>
</g>
<!-- 07 -->
<g id="node12" class="node"><title>07</title>
<ellipse fill="#ff8a8a" stroke="#b43f3f" cx="338.397" cy="-105" rx="31.6951" ry="18"/>
<text text-anchor="middle" x="338.397" y="-101.3" font-family="Times,serif" font-size="14.00">07 (a)</text>
</g>
<!-- 034 -->
<g id="node13" class="node"><title>034</title>
<ellipse fill="#ff8a8a" stroke="#b43f3f" cx="218.397" cy="-18" rx="36.2938" ry="18"/>
<text text-anchor="middle" x="218.397" y="-14.3" font-family="Times,serif" font-size="14.00">034 (a)</text>
</g>
<!-- 07&#45;&gt;034 -->
<g id="edge9" class="edge"><title>07&#45;&gt;034</title>
<path fill="none" stroke="#b43f3f" stroke-dasharray="1,5" d="M314.827,-92.7488C302.394,-86.4134 287.123,-77.9827 274.397,-69 262.802,-60.8157 250.939,-50.5475 241.134,-41.449"/>
<polygon fill="#b43f3f" stroke="#b43f3f" points="243.425,-38.7979 233.756,-34.4651 238.612,-43.8815 243.425,-38.7979"/>
<text text-anchor="middle" x="296.397" y="-57.8" font-family="Times,serif" font-size="14.00">1 (95.1)</text>
</g>
<!-- 037 -->
<g id="node14" class="node"><title>037</title>
<ellipse fill="#ff8a8a" stroke="#b43f3f" cx="309.397" cy="-18" rx="36.2938" ry="18"/>
<text text-anchor="middle" x="309.397" y="-14.3" font-family="Times,serif" font-size="14.00">037 (a)</text>
</g>
<!-- 07&#45;&gt;037 -->
<g id="edge10" class="edge"><title>07&#45;&gt;037</title>
<path fill="none" stroke="#b43f3f" stroke-dasharray="1,5" d="M332.667,-87.2067C328.642,-75.4091 323.173,-59.3781 318.548,-45.8221"/>
<polygon fill="#b43f3f" stroke="#b43f3f" points="321.755,-44.3835 315.214,-36.0493 315.13,-46.6438 321.755,-44.3835"/>
<text text-anchor="middle" x="348.397" y="-57.8" font-family="Times,serif" font-size="14.00">1 (97.5)</text>
</g>
<!-- 030 -->
<g id="node15" class="node"><title>030</title>
<ellipse fill="#ff8a8a" stroke="#b43f3f" cx="400.397" cy="-18" rx="36.2938" ry="18"/>
<text text-anchor="middle" x="400.397" y="-14.3" font-family="Times,serif" font-size="14.00">030 (a)</text>
</g>
<!-- 07&#45;&gt;030 -->
<g id="edge11" class="edge"><title>07&#45;&gt;030</title>
<path fill="none" stroke="#b43f3f" stroke-dasharray="1,5" d="M355.312,-89.669C361.763,-83.6891 368.882,-76.4141 374.397,-69 379.853,-61.6646 384.789,-53.0229 388.859,-45.0059"/>
<polygon fill="#b43f3f" stroke="#b43f3f" points="392.013,-46.5232 393.218,-35.9971 385.712,-43.4745 392.013,-46.5232"/>
<text text-anchor="middle" x="406.397" y="-57.8" font-family="Times,serif" font-size="14.00">1 (95.1)</text>
</g>
<!-- 031 -->
<g id="node16" class="node"><title>031</title>
<ellipse fill="#ff8a8a" stroke="#b43f3f" cx="491.397" cy="-105" rx="36.2938" ry="18"/>
<text text-anchor="middle" x="491.397" y="-101.3" font-family="Times,serif" font-size="14.00">031 (a)</text>
</g>
<!-- 013 -->
<g id="node17" class="node"><title>013</title>
<ellipse fill="#ff8a8a" stroke="#b43f3f" cx="491.397" cy="-18" rx="36.2938" ry="18"/>
<text text-anchor="middle" x="491.397" y="-14.3" font-family="Times,serif" font-size="14.00">013 (a)</text>
</g>
<!-- 031&#45;&gt;013 -->
<g id="edge12" class="edge"><title>031&#45;&gt;013</title>
<path fill="none" stroke="#b43f3f" stroke-dasharray="1,5" d="M491.397,-86.799C491.397,-75.1626 491.397,-59.5479 491.397,-46.2368"/>
<polygon fill="#b43f3f" stroke="#b43f3f" points="494.897,-46.1754 491.397,-36.1754 487.897,-46.1755 494.897,-46.1754"/>
<text text-anchor="middle" x="513.397" y="-57.8" font-family="Times,serif" font-size="14.00">1 (97.1)</text>
</g>
<!-- 017 -->
<g id="node18" class="node"><title>017</title>
<ellipse fill="#ff8a8a" stroke="#b43f3f" cx="582.397" cy="-18" rx="36.2938" ry="18"/>
<text text-anchor="middle" x="582.397" y="-14.3" font-family="Times,serif" font-size="14.00">017 (a)</text>
</g>
<!-- 031&#45;&gt;017 -->
<g id="edge13" class="edge"><title>031&#45;&gt;017</title>
<path fill="none" stroke="#b43f3f" stroke-dasharray="1,5" d="M512.768,-90.006C521.389,-83.9634 531.211,-76.5539 539.397,-69 547.941,-61.1154 556.472,-51.6186 563.657,-43.0293"/>
<polygon fill="#b43f3f" stroke="#b43f3f" points="566.474,-45.1135 570.089,-35.1545 561.053,-40.6853 566.474,-45.1135"/>
<text text-anchor="middle" x="575.397" y="-57.8" font-family="Times,serif" font-size="14.00">1 (94.3)</text>
</g>
<!-- 063 -->
<g id="node19" class="node"><title>063</title>
<ellipse fill="#ff8a8a" stroke="#b43f3f" cx="536.397" cy="-192" rx="36.2938" ry="18"/>
<text text-anchor="middle" x="536.397" y="-188.3" font-family="Times,serif" font-size="14.00">063 (a)</text>
</g>
<!-- 063&#45;&gt;021 -->
<g id="edge14" class="edge"><title>063&#45;&gt;021</title>
<path fill="none" stroke="#b43f3f" stroke-dasharray="1,5" d="M510.055,-179.264C504.934,-177.29 499.553,-175.423 494.397,-174 444.104,-160.12 429.77,-165.098 378.397,-156 304.924,-142.988 219.837,-125.532 169.989,-115.061"/>
<polygon fill="#b43f3f" stroke="#b43f3f" points="170.71,-111.636 160.204,-113 169.268,-118.486 170.71,-111.636"/>
<text text-anchor="middle" x="400.397" y="-144.8" font-family="Times,serif" font-size="14.00">1 (93.1)</text>
</g>
<!-- 063&#45;&gt;07 -->
<g id="edge15" class="edge"><title>063&#45;&gt;07</title>
<path fill="none" stroke="#b43f3f" stroke-dasharray="1,5" d="M509.694,-179.537C474.175,-164.289 411.358,-137.322 372.463,-120.625"/>
<polygon fill="#b43f3f" stroke="#b43f3f" points="373.691,-117.343 363.122,-116.614 370.93,-123.775 373.691,-117.343"/>
<text text-anchor="middle" x="471.397" y="-144.8" font-family="Times,serif" font-size="14.00">1 (96.6)</text>
</g>
<!-- 063&#45;&gt;031 -->
<g id="edge16" class="edge"><title>063&#45;&gt;031</title>
<path fill="none" stroke="#b43f3f" stroke-dasharray="1,5" d="M522.982,-174.896C518.605,-169.16 513.96,-162.506 510.397,-156 506.427,-148.751 502.921,-140.499 500.036,-132.818"/>
<polygon fill="#b43f3f" stroke="#b43f3f" points="503.259,-131.434 496.615,-123.181 496.662,-133.776 503.259,-131.434"/>
<text text-anchor="middle" x="532.397" y="-144.8" font-family="Times,serif" font-size="14.00">1 (95.8)</text>
</g>
<!-- 045 -->
<g id="node20" class="node"><title>045</title>
<ellipse fill="#ff8a8a" stroke="#b43f3f" cx="582.397" cy="-105" rx="36.2938" ry="18"/>
<text text-anchor="middle" x="582.397" y="-101.3" font-family="Times,serif" font-size="14.00">045 (a)</text>
</g>
<!-- 063&#45;&gt;045 -->
<g id="edge17" class="edge"><title>063&#45;&gt;045</title>
<path fill="none" stroke="#b43f3f" stroke-dasharray="1,5" d="M545.485,-174.207C552.08,-162.021 561.119,-145.318 568.602,-131.491"/>
<polygon fill="#b43f3f" stroke="#b43f3f" points="571.803,-132.93 573.484,-122.469 565.646,-129.598 571.803,-132.93"/>
<text text-anchor="middle" x="584.397" y="-144.8" font-family="Times,serif" font-size="14.00">1 (93.1)</text>
</g>
<!-- 011 -->
<g id="node21" class="node"><title>011</title>
<ellipse fill="#ff8a8a" stroke="#b43f3f" cx="673.397" cy="-105" rx="36.2938" ry="18"/>
<text text-anchor="middle" x="673.397" y="-101.3" font-family="Times,serif" font-size="14.00">011 (a)</text>
</g>
<!-- 063&#45;&gt;011 -->
<g id="edge18" class="edge"><title>063&#45;&gt;011</title>
<path fill="none" stroke="#b43f3f" stroke-dasharray="1,5" d="M563.544,-179.95C577.89,-173.671 595.552,-165.231 610.397,-156 623.755,-147.693 637.557,-137.014 648.825,-127.66"/>
<polygon fill="#b43f3f" stroke="#b43f3f" points="651.164,-130.266 656.539,-121.136 646.644,-124.921 651.164,-130.266"/>
<text text-anchor="middle" x="652.397" y="-144.8" font-family="Times,serif" font-size="14.00">1 (93.1)</text>
</g>
<!-- 028 -->
<g id="node22" class="node"><title>028</title>
<ellipse fill="#ff8a8a" stroke="#b43f3f" cx="764.397" cy="-105" rx="36.2938" ry="18"/>
<text text-anchor="middle" x="764.397" y="-101.3" font-family="Times,serif" font-size="14.00">028 (a)</text>
</g>
<!-- 063&#45;&gt;028 -->
<g id="edge19" class="edge"><title>063&#45;&gt;028</title>
<path fill="none" stroke="#b43f3f" stroke-dasharray="1,5" d="M570.527,-185.418C599.834,-179.964 642.851,-170.368 678.397,-156 698.392,-147.918 719.343,-135.823 735.56,-125.554"/>
<polygon fill="#b43f3f" stroke="#b43f3f" points="737.544,-128.439 744.046,-120.074 733.747,-122.558 737.544,-128.439"/>
<text text-anchor="middle" x="730.397" y="-144.8" font-family="Times,serif" font-size="14.00">1 (96.6)</text>
</g>
<!-- 038 -->
<g id="node23" class="node"><title>038</title>
<ellipse fill="#ff8a8a" stroke="#b43f3f" cx="673.397" cy="-18" rx="36.2938" ry="18"/>
<text text-anchor="middle" x="673.397" y="-14.3" font-family="Times,serif" font-size="14.00">038 (a)</text>
</g>
<!-- 045&#45;&gt;038 -->
<g id="edge20" class="edge"><title>045&#45;&gt;038</title>
<path fill="none" stroke="#b43f3f" stroke-dasharray="1,5" d="M598.666,-88.8037C612.812,-75.5898 633.497,-56.2693 649.52,-41.3029"/>
<polygon fill="#b43f3f" stroke="#b43f3f" points="652.043,-43.7352 656.962,-34.3513 647.265,-38.6196 652.043,-43.7352"/>
<text text-anchor="middle" x="655.397" y="-57.8" font-family="Times,serif" font-size="14.00">1 (92.7)</text>
</g>
<!-- 019 -->
<g id="node26" class="node"><title>019</title>
<ellipse fill="#ff8a8a" stroke="#b43f3f" cx="536.397" cy="-279" rx="36.2938" ry="18"/>
<text text-anchor="middle" x="536.397" y="-275.3" font-family="Times,serif" font-size="14.00">019 (a)</text>
</g>
<!-- 019&#45;&gt;063 -->
<g id="edge23" class="edge"><title>019&#45;&gt;063</title>
<path fill="none" stroke="#b43f3f" stroke-dasharray="1,5" d="M536.397,-260.799C536.397,-249.163 536.397,-233.548 536.397,-220.237"/>
<polygon fill="#b43f3f" stroke="#b43f3f" points="539.897,-220.175 536.397,-210.175 532.897,-220.175 539.897,-220.175"/>
<text text-anchor="middle" x="558.397" y="-231.8" font-family="Times,serif" font-size="14.00">1 (85.7)</text>
</g>
<!-- 05 -->
<g id="node27" class="node"><title>05</title>
<ellipse fill="#ff8a8a" stroke="#b43f3f" cx="984.397" cy="-279" rx="31.6951" ry="18"/>
<text text-anchor="middle" x="984.397" y="-275.3" font-family="Times,serif" font-size="14.00">05 (a)</text>
</g>
<!-- 0211 -->
<g id="node28" class="node"><title>0211</title>
<ellipse fill="#cea8f4" stroke="#835da9" cx="1075.4" cy="-279" rx="40.8928" ry="18"/>
<text text-anchor="middle" x="1075.4" y="-275.3" font-family="Times,serif" font-size="14.00">0211 (b)</text>
</g>
<!-- 01 -->
<g id="node29" class="node"><title>01</title>
<ellipse fill="#cea8f4" stroke="#835da9" cx="1166.4" cy="-279" rx="32.4942" ry="18"/>
<text text-anchor="middle" x="1166.4" y="-275.3" font-family="Times,serif" font-size="14.00">01 (b)</text>
</g>
</g>
</svg>
