<?xml version="1.0" encoding="UTF-8" standalone="no"?>
<!DOCTYPE svg PUBLIC "-//W3C//DTD SVG 1.1//EN"
 "http://www.w3.org/Graphics/SVG/1.1/DTD/svg11.dtd">
<!-- Generated by graphviz version 2.38.0 (20140413.2041)
 -->
<!-- Title: %3 Pages: 1 -->
<svg width="1050pt" height="337pt"
 viewBox="0.00 0.00 1050.00 337.00" xmlns="http://www.w3.org/2000/svg" xmlns:xlink="http://www.w3.org/1999/xlink">
<g id="graph0" class="graph" transform="scale(1 1) rotate(0) translate(4 333)">
<title>%3</title>
<polygon fill="white" stroke="none" points="-4,4 -4,-333 1046,-333 1046,4 -4,4"/>
<g id="clust1" class="cluster"><title>cluster_legend</title>
<path fill="none" stroke="black" d="M20,-193C20,-193 210,-193 210,-193 216,-193 222,-199 222,-205 222,-205 222,-309 222,-309 222,-315 216,-321 210,-321 210,-321 20,-321 20,-321 14,-321 8,-315 8,-309 8,-309 8,-205 8,-205 8,-199 14,-193 20,-193"/>
</g>
<g id="clust2" class="cluster"><title>cluster_reading</title>
<polygon fill="none" stroke="black" points="230,-8 230,-321 1034,-321 1034,-8 230,-8"/>
</g>
<!-- leg_s -->
<g id="node1" class="node"><title>leg_s</title>
<text text-anchor="middle" x="115" y="-291.3" font-family="Times,serif" font-size="14.00">Textual flow strength</text>
</g>
<!-- leg_e1 -->
<!-- leg_s&#45;&gt;leg_e1 -->
<g id="edge1" class="edge"><title>leg_s&#45;&gt;leg_e1</title>
<path fill="none" stroke="black" stroke-dasharray="1,5" d="M96.6657,-276.686C91.1324,-271.194 85.1607,-264.989 80,-259 70.1708,-247.593 60.0722,-233.779 52.9137,-223.563"/>
<polygon fill="black" stroke="black" points="55.6142,-221.314 47.056,-215.068 49.8514,-225.288 55.6142,-221.314"/>
<text text-anchor="middle" x="95.5" y="-247.8" font-family="Times,serif" font-size="14.00">&lt;=5 &#160;</text>
</g>
<!-- leg_e2 -->
<!-- leg_s&#45;&gt;leg_e2 -->
<g id="edge2" class="edge"><title>leg_s&#45;&gt;leg_e2</title>
<path fill="none" stroke="black" stroke-dasharray="5,2" d="M115,-276.799C115,-261.794 115,-240.174 115,-225.409"/>
<polygon fill="black" stroke="black" points="118.5,-225.293 115,-215.293 111.5,-225.293 118.5,-225.293"/>
<text text-anchor="middle" x="134" y="-247.8" font-family="Times,serif" font-size="14.00"> &#160;&lt;=25</text>
</g>
<!-- leg_e3 -->
<!-- leg_s&#45;&gt;leg_e3 -->
<g id="edge3" class="edge"><title>leg_s&#45;&gt;leg_e3</title>
<path fill="none" stroke="black" d="M138.503,-276.76C144.906,-271.462 151.567,-265.344 157,-259 166.087,-248.39 174.095,-234.689 179.546,-224.313"/>
<polygon fill="black" stroke="black" points="182.722,-225.789 184.091,-215.283 176.469,-222.642 182.722,-225.789"/>
<text text-anchor="middle" x="179" y="-247.8" font-family="Times,serif" font-size="14.00">&gt;25</text>
</g>
<!-- 021 -->
<g id="node5" class="node"><title>021</title>
<ellipse fill="#ff8a8a" stroke="#b43f3f" cx="545" cy="-121" rx="36.2938" ry="18"/>
<text text-anchor="middle" x="545" y="-117.3" font-family="Times,serif" font-size="14.00">021 (a)</text>
</g>
<!-- 036 -->
<g id="node6" class="node"><title>036</title>
<ellipse fill="#ff8a8a" stroke="#b43f3f" cx="353" cy="-34" rx="36.2938" ry="18"/>
<text text-anchor="middle" x="353" y="-30.3" font-family="Times,serif" font-size="14.00">036 (a)</text>
</g>
<!-- 021&#45;&gt;036 -->
<g id="edge4" class="edge"><title>021&#45;&gt;036</title>
<path fill="none" stroke="#b43f3f" stroke-dasharray="1,5" d="M517.571,-109.059C511.809,-106.925 505.739,-104.795 500,-103 468.519,-93.1549 458.165,-98.3441 428,-85 410.697,-77.3455 393.008,-65.7684 379.158,-55.6813"/>
<polygon fill="#b43f3f" stroke="#b43f3f" points="381.176,-52.8195 371.069,-49.6416 376.988,-58.4287 381.176,-52.8195"/>
<text text-anchor="middle" x="450" y="-73.8" font-family="Times,serif" font-size="14.00">1 (97.6)</text>
</g>
<!-- 047 -->
<g id="node7" class="node"><title>047</title>
<ellipse fill="#ff8a8a" stroke="#b43f3f" cx="444" cy="-34" rx="36.2938" ry="18"/>
<text text-anchor="middle" x="444" y="-30.3" font-family="Times,serif" font-size="14.00">047 (a)</text>
</g>
<!-- 021&#45;&gt;047 -->
<g id="edge5" class="edge"><title>021&#45;&gt;047</title>
<path fill="none" stroke="#b43f3f" stroke-dasharray="1,5" d="M521.598,-106.959C511.463,-100.852 499.721,-93.136 490,-85 480.582,-77.1171 471.215,-67.3749 463.416,-58.5901"/>
<polygon fill="#b43f3f" stroke="#b43f3f" points="465.928,-56.1442 456.738,-50.8724 460.634,-60.7246 465.928,-56.1442"/>
<text text-anchor="middle" x="512" y="-73.8" font-family="Times,serif" font-size="14.00">1 (95.1)</text>
</g>
<!-- 063 -->
<g id="node8" class="node"><title>063</title>
<ellipse fill="#ff8a8a" stroke="#b43f3f" cx="765" cy="-208" rx="36.2938" ry="18"/>
<text text-anchor="middle" x="765" y="-204.3" font-family="Times,serif" font-size="14.00">063 (a)</text>
</g>
<!-- 063&#45;&gt;021 -->
<g id="edge6" class="edge"><title>063&#45;&gt;021</title>
<path fill="none" stroke="#b43f3f" stroke-dasharray="1,5" d="M730.708,-201.805C701.3,-196.594 658.225,-187.137 623,-172 605.132,-164.322 586.743,-152.744 572.311,-142.662"/>
<polygon fill="#b43f3f" stroke="#b43f3f" points="574.046,-139.599 563.877,-136.626 569.972,-145.292 574.046,-139.599"/>
<text text-anchor="middle" x="645" y="-160.8" font-family="Times,serif" font-size="14.00">1 (93.1)</text>
</g>
<!-- 011 -->
<g id="node9" class="node"><title>011</title>
<ellipse fill="#ff8a8a" stroke="#b43f3f" cx="636" cy="-121" rx="36.2938" ry="18"/>
<text text-anchor="middle" x="636" y="-117.3" font-family="Times,serif" font-size="14.00">011 (a)</text>
</g>
<!-- 063&#45;&gt;011 -->
<g id="edge7" class="edge"><title>063&#45;&gt;011</title>
<path fill="none" stroke="#b43f3f" stroke-dasharray="1,5" d="M736.765,-196.572C721.931,-190.469 703.808,-181.999 689,-172 677.697,-164.368 666.515,-154.296 657.356,-145.193"/>
<polygon fill="#b43f3f" stroke="#b43f3f" points="659.672,-142.556 650.18,-137.85 654.665,-147.448 659.672,-142.556"/>
<text text-anchor="middle" x="711" y="-160.8" font-family="Times,serif" font-size="14.00">1 (93.1)</text>
</g>
<!-- 031 -->
<g id="node10" class="node"><title>031</title>
<ellipse fill="#ff8a8a" stroke="#b43f3f" cx="727" cy="-121" rx="36.2938" ry="18"/>
<text text-anchor="middle" x="727" y="-117.3" font-family="Times,serif" font-size="14.00">031 (a)</text>
</g>
<!-- 063&#45;&gt;031 -->
<g id="edge8" class="edge"><title>063&#45;&gt;031</title>
<path fill="none" stroke="#b43f3f" stroke-dasharray="1,5" d="M752.973,-190.84C749.088,-185.1 745.012,-178.458 742,-172 738.629,-164.772 735.803,-156.605 733.546,-148.999"/>
<polygon fill="#b43f3f" stroke="#b43f3f" points="736.853,-147.826 730.822,-139.115 730.105,-149.686 736.853,-147.826"/>
<text text-anchor="middle" x="764" y="-160.8" font-family="Times,serif" font-size="14.00">1 (95.8)</text>
</g>
<!-- 07 -->
<g id="node11" class="node"><title>07</title>
<ellipse fill="#ff8a8a" stroke="#b43f3f" cx="813" cy="-121" rx="31.6951" ry="18"/>
<text text-anchor="middle" x="813" y="-117.3" font-family="Times,serif" font-size="14.00">07 (a)</text>
</g>
<!-- 063&#45;&gt;07 -->
<g id="edge9" class="edge"><title>063&#45;&gt;07</title>
<path fill="none" stroke="#b43f3f" stroke-dasharray="1,5" d="M775.196,-190.356C778.68,-184.578 782.563,-178.034 786,-172 790.443,-164.199 795.139,-155.627 799.347,-147.816"/>
<polygon fill="#b43f3f" stroke="#b43f3f" points="802.555,-149.239 804.188,-138.771 796.383,-145.936 802.555,-149.239"/>
<text text-anchor="middle" x="815" y="-160.8" font-family="Times,serif" font-size="14.00">1 (96.6)</text>
</g>
<!-- 045 -->
<g id="node12" class="node"><title>045</title>
<ellipse fill="#ff8a8a" stroke="#b43f3f" cx="899" cy="-121" rx="36.2938" ry="18"/>
<text text-anchor="middle" x="899" y="-117.3" font-family="Times,serif" font-size="14.00">045 (a)</text>
</g>
<!-- 063&#45;&gt;045 -->
<g id="edge10" class="edge"><title>063&#45;&gt;045</title>
<path fill="none" stroke="#b43f3f" stroke-dasharray="1,5" d="M793.057,-196.301C807.84,-190.122 825.972,-181.665 841,-172 853.176,-164.17 865.487,-153.954 875.616,-144.8"/>
<polygon fill="#b43f3f" stroke="#b43f3f" points="878.268,-147.114 883.227,-137.751 873.512,-141.978 878.268,-147.114"/>
<text text-anchor="middle" x="883" y="-160.8" font-family="Times,serif" font-size="14.00">1 (93.1)</text>
</g>
<!-- 028 -->
<g id="node13" class="node"><title>028</title>
<ellipse fill="#ff8a8a" stroke="#b43f3f" cx="990" cy="-121" rx="36.2938" ry="18"/>
<text text-anchor="middle" x="990" y="-117.3" font-family="Times,serif" font-size="14.00">028 (a)</text>
</g>
<!-- 063&#45;&gt;028 -->
<g id="edge11" class="edge"><title>063&#45;&gt;028</title>
<path fill="none" stroke="#b43f3f" stroke-dasharray="1,5" d="M799.416,-201.776C829.206,-196.525 873.035,-187.025 909,-172 927.738,-164.172 947.15,-152.338 962.272,-142.148"/>
<polygon fill="#b43f3f" stroke="#b43f3f" points="964.394,-144.937 970.642,-136.381 960.422,-139.173 964.394,-144.937"/>
<text text-anchor="middle" x="958" y="-160.8" font-family="Times,serif" font-size="14.00">1 (96.6)</text>
</g>
<!-- 017 -->
<g id="node15" class="node"><title>017</title>
<ellipse fill="#ff8a8a" stroke="#b43f3f" cx="535" cy="-34" rx="36.2938" ry="18"/>
<text text-anchor="middle" x="535" y="-30.3" font-family="Times,serif" font-size="14.00">017 (a)</text>
</g>
<!-- 031&#45;&gt;017 -->
<g id="edge13" class="edge"><title>031&#45;&gt;017</title>
<path fill="none" stroke="#b43f3f" stroke-dasharray="1,5" d="M698.865,-109.333C692.982,-107.179 686.804,-104.972 681,-103 655.444,-94.3188 647.766,-95.7292 623,-85 603.002,-76.3364 581.725,-64.3309 565.102,-54.2555"/>
<polygon fill="#b43f3f" stroke="#b43f3f" points="566.735,-51.1507 556.384,-48.8901 563.066,-57.1122 566.735,-51.1507"/>
<text text-anchor="middle" x="645" y="-73.8" font-family="Times,serif" font-size="14.00">1 (94.3)</text>
</g>
<!-- 013 -->
<g id="node16" class="node"><title>013</title>
<ellipse fill="#ff8a8a" stroke="#b43f3f" cx="626" cy="-34" rx="36.2938" ry="18"/>
<text text-anchor="middle" x="626" y="-30.3" font-family="Times,serif" font-size="14.00">013 (a)</text>
</g>
<!-- 031&#45;&gt;013 -->
<g id="edge14" class="edge"><title>031&#45;&gt;013</title>
<path fill="none" stroke="#b43f3f" stroke-dasharray="1,5" d="M709.407,-105.194C693.429,-91.7475 669.667,-71.7497 651.588,-56.5348"/>
<polygon fill="#b43f3f" stroke="#b43f3f" points="653.635,-53.6826 643.73,-49.9214 649.128,-59.0383 653.635,-53.6826"/>
<text text-anchor="middle" x="705" y="-73.8" font-family="Times,serif" font-size="14.00">1 (97.1)</text>
</g>
<!-- 030 -->
<g id="node17" class="node"><title>030</title>
<ellipse fill="#ff8a8a" stroke="#b43f3f" cx="717" cy="-34" rx="36.2938" ry="18"/>
<text text-anchor="middle" x="717" y="-30.3" font-family="Times,serif" font-size="14.00">030 (a)</text>
</g>
<!-- 07&#45;&gt;030 -->
<g id="edge15" class="edge"><title>07&#45;&gt;030</title>
<path fill="none" stroke="#b43f3f" stroke-dasharray="1,5" d="M791.83,-107.089C782.326,-100.893 771.206,-93.0696 762,-85 752.99,-77.1022 743.974,-67.5043 736.405,-58.8374"/>
<polygon fill="#b43f3f" stroke="#b43f3f" points="739.055,-56.5506 729.901,-51.2152 733.729,-61.0942 739.055,-56.5506"/>
<text text-anchor="middle" x="784" y="-73.8" font-family="Times,serif" font-size="14.00">1 (95.1)</text>
</g>
<!-- 034 -->
<g id="node18" class="node"><title>034</title>
<ellipse fill="#ff8a8a" stroke="#b43f3f" cx="808" cy="-34" rx="36.2938" ry="18"/>
<text text-anchor="middle" x="808" y="-30.3" font-family="Times,serif" font-size="14.00">034 (a)</text>
</g>
<!-- 07&#45;&gt;034 -->
<g id="edge16" class="edge"><title>07&#45;&gt;034</title>
<path fill="none" stroke="#b43f3f" stroke-dasharray="1,5" d="M811.988,-102.799C811.304,-91.1626 810.385,-75.5479 809.602,-62.2368"/>
<polygon fill="#b43f3f" stroke="#b43f3f" points="813.092,-61.9526 809.01,-52.1754 806.104,-62.3637 813.092,-61.9526"/>
<text text-anchor="middle" x="832" y="-73.8" font-family="Times,serif" font-size="14.00">1 (95.1)</text>
</g>
<!-- 037 -->
<g id="node19" class="node"><title>037</title>
<ellipse fill="#ff8a8a" stroke="#b43f3f" cx="899" cy="-34" rx="36.2938" ry="18"/>
<text text-anchor="middle" x="899" y="-30.3" font-family="Times,serif" font-size="14.00">037 (a)</text>
</g>
<!-- 07&#45;&gt;037 -->
<g id="edge17" class="edge"><title>07&#45;&gt;037</title>
<path fill="none" stroke="#b43f3f" stroke-dasharray="1,5" d="M832.161,-106.58C840.456,-100.403 850.061,-92.7366 858,-85 866.08,-77.1259 874.134,-67.7284 880.938,-59.217"/>
<polygon fill="#b43f3f" stroke="#b43f3f" points="883.887,-61.1272 887.28,-51.0903 878.369,-56.8207 883.887,-61.1272"/>
<text text-anchor="middle" x="893" y="-73.8" font-family="Times,serif" font-size="14.00">1 (97.5)</text>
</g>
<!-- 038 -->
<g id="node27" class="node"><title>038</title>
<ellipse fill="#ff8a8a" stroke="#b43f3f" cx="990" cy="-34" rx="36.2938" ry="18"/>
<text text-anchor="middle" x="990" y="-30.3" font-family="Times,serif" font-size="14.00">038 (a)</text>
</g>
<!-- 045&#45;&gt;038 -->
<g id="edge24" class="edge"><title>045&#45;&gt;038</title>
<path fill="none" stroke="#b43f3f" stroke-dasharray="1,5" d="M915.269,-104.804C929.416,-91.5898 950.1,-72.2693 966.123,-57.3029"/>
<polygon fill="#b43f3f" stroke="#b43f3f" points="968.646,-59.7352 973.565,-50.3513 963.868,-54.6196 968.646,-59.7352"/>
<text text-anchor="middle" x="971" y="-73.8" font-family="Times,serif" font-size="14.00">1 (92.7)</text>
</g>
<!-- 019 -->
<g id="node14" class="node"><title>019</title>
<ellipse fill="#ff8a8a" stroke="#b43f3f" cx="765" cy="-295" rx="36.2938" ry="18"/>
<text text-anchor="middle" x="765" y="-291.3" font-family="Times,serif" font-size="14.00">019 (a)</text>
</g>
<!-- 019&#45;&gt;063 -->
<g id="edge12" class="edge"><title>019&#45;&gt;063</title>
<path fill="none" stroke="#b43f3f" stroke-dasharray="1,5" d="M765,-276.799C765,-265.163 765,-249.548 765,-236.237"/>
<polygon fill="#b43f3f" stroke="#b43f3f" points="768.5,-236.175 765,-226.175 761.5,-236.175 768.5,-236.175"/>
<text text-anchor="middle" x="787" y="-247.8" font-family="Times,serif" font-size="14.00">1 (85.7)</text>
</g>
<!-- 03 -->
<g id="node20" class="node"><title>03</title>
<ellipse fill="#ff8a8a" stroke="#b43f3f" cx="459" cy="-295" rx="31.6951" ry="18"/>
<text text-anchor="middle" x="459" y="-291.3" font-family="Times,serif" font-size="14.00">03 (a)</text>
</g>
<!-- 044 -->
<g id="node21" class="node"><title>044</title>
<ellipse fill="#ff8a8a" stroke="#b43f3f" cx="373" cy="-208" rx="36.2938" ry="18"/>
<text text-anchor="middle" x="373" y="-204.3" font-family="Times,serif" font-size="14.00">044 (a)</text>
</g>
<!-- 03&#45;&gt;044 -->
<g id="edge18" class="edge"><title>03&#45;&gt;044</title>
<path fill="none" stroke="#b43f3f" stroke-dasharray="1,5" d="M438.353,-280.912C429.467,-274.796 419.248,-267.086 411,-259 403.175,-251.329 395.638,-241.975 389.368,-233.442"/>
<polygon fill="#b43f3f" stroke="#b43f3f" points="392.206,-231.394 383.557,-225.275 386.503,-235.452 392.206,-231.394"/>
<text text-anchor="middle" x="433" y="-247.8" font-family="Times,serif" font-size="14.00">1 (89.2)</text>
</g>
<!-- 02 -->
<g id="node22" class="node"><title>02</title>
<ellipse fill="#ff8a8a" stroke="#b43f3f" cx="459" cy="-208" rx="31.6951" ry="18"/>
<text text-anchor="middle" x="459" y="-204.3" font-family="Times,serif" font-size="14.00">02 (a)</text>
</g>
<!-- 03&#45;&gt;02 -->
<g id="edge19" class="edge"><title>03&#45;&gt;02</title>
<path fill="none" stroke="#b43f3f" stroke-dasharray="1,5" d="M459,-276.799C459,-265.163 459,-249.548 459,-236.237"/>
<polygon fill="#b43f3f" stroke="#b43f3f" points="462.5,-236.175 459,-226.175 455.5,-236.175 462.5,-236.175"/>
<text text-anchor="middle" x="481" y="-247.8" font-family="Times,serif" font-size="14.00">1 (86.5)</text>
</g>
<!-- 032 -->
<g id="node23" class="node"><title>032</title>
<ellipse fill="#ff8a8a" stroke="#b43f3f" cx="545" cy="-208" rx="36.2938" ry="18"/>
<text text-anchor="middle" x="545" y="-204.3" font-family="Times,serif" font-size="14.00">032 (a)</text>
</g>
<!-- 03&#45;&gt;032 -->
<g id="edge20" class="edge"><title>03&#45;&gt;032</title>
<path fill="none" stroke="#b43f3f" stroke-dasharray="1,5" d="M479.647,-280.912C488.533,-274.796 498.752,-267.086 507,-259 514.825,-251.329 522.362,-241.975 528.632,-233.442"/>
<polygon fill="#b43f3f" stroke="#b43f3f" points="531.497,-235.452 534.443,-225.275 525.794,-231.394 531.497,-235.452"/>
<text text-anchor="middle" x="542" y="-247.8" font-family="Times,serif" font-size="14.00">1 (91.7)</text>
</g>
<!-- 0141 -->
<g id="node24" class="node"><title>0141</title>
<ellipse fill="#ff8a8a" stroke="#b43f3f" cx="278" cy="-121" rx="40.0939" ry="18"/>
<text text-anchor="middle" x="278" y="-117.3" font-family="Times,serif" font-size="14.00">0141 (a)</text>
</g>
<!-- 044&#45;&gt;0141 -->
<g id="edge21" class="edge"><title>044&#45;&gt;0141</title>
<path fill="none" stroke="#b43f3f" stroke-dasharray="1,5" d="M352.27,-193.159C343.564,-187.025 333.505,-179.508 325,-172 315.837,-163.911 306.469,-154.276 298.533,-145.632"/>
<polygon fill="#b43f3f" stroke="#b43f3f" points="300.99,-143.129 291.694,-138.045 295.79,-147.816 300.99,-143.129"/>
<text text-anchor="middle" x="347" y="-160.8" font-family="Times,serif" font-size="14.00">1 (89.2)</text>
</g>
<!-- 022 -->
<g id="node25" class="node"><title>022</title>
<ellipse fill="#ff8a8a" stroke="#b43f3f" cx="373" cy="-121" rx="36.2938" ry="18"/>
<text text-anchor="middle" x="373" y="-117.3" font-family="Times,serif" font-size="14.00">022 (a)</text>
</g>
<!-- 044&#45;&gt;022 -->
<g id="edge22" class="edge"><title>044&#45;&gt;022</title>
<path fill="none" stroke="#b43f3f" stroke-dasharray="1,5" d="M373,-189.799C373,-178.163 373,-162.548 373,-149.237"/>
<polygon fill="#b43f3f" stroke="#b43f3f" points="376.5,-149.175 373,-139.175 369.5,-149.175 376.5,-149.175"/>
<text text-anchor="middle" x="395" y="-160.8" font-family="Times,serif" font-size="14.00">1 (91.7)</text>
</g>
<!-- 05 -->
<g id="node26" class="node"><title>05</title>
<ellipse fill="#ff8a8a" stroke="#b43f3f" cx="459" cy="-121" rx="31.6951" ry="18"/>
<text text-anchor="middle" x="459" y="-117.3" font-family="Times,serif" font-size="14.00">05 (a)</text>
</g>
<!-- 044&#45;&gt;05 -->
<g id="edge23" class="edge"><title>044&#45;&gt;05</title>
<path fill="none" stroke="#b43f3f" stroke-dasharray="1,5" d="M394.604,-193.25C403.26,-187.245 413.046,-179.798 421,-172 428.825,-164.329 436.362,-154.975 442.632,-146.442"/>
<polygon fill="#b43f3f" stroke="#b43f3f" points="445.497,-148.452 448.443,-138.275 439.794,-144.394 445.497,-148.452"/>
<text text-anchor="middle" x="456" y="-160.8" font-family="Times,serif" font-size="14.00">3 (76.7)</text>
</g>
</g>
</svg>
