<?xml version="1.0" encoding="UTF-8" standalone="no"?>
<!DOCTYPE svg PUBLIC "-//W3C//DTD SVG 1.1//EN"
 "http://www.w3.org/Graphics/SVG/1.1/DTD/svg11.dtd">
<!-- Generated by graphviz version 2.38.0 (20140413.2041)
 -->
<!-- Title: %3 Pages: 1 -->
<svg width="1266pt" height="321pt"
 viewBox="0.00 0.00 1266.40 321.00" xmlns="http://www.w3.org/2000/svg" xmlns:xlink="http://www.w3.org/1999/xlink">
<g id="graph0" class="graph" transform="scale(1 1) rotate(0) translate(4 317)">
<title>%3</title>
<polygon fill="white" stroke="none" points="-4,4 -4,-317 1262.4,-317 1262.4,4 -4,4"/>
<g id="clust1" class="cluster"><title>cluster_legend</title>
<path fill="none" stroke="black" d="M20,-177C20,-177 210,-177 210,-177 216,-177 222,-183 222,-189 222,-189 222,-293 222,-293 222,-299 216,-305 210,-305 210,-305 20,-305 20,-305 14,-305 8,-299 8,-293 8,-293 8,-189 8,-189 8,-183 14,-177 20,-177"/>
</g>
<!-- leg_s -->
<g id="node1" class="node"><title>leg_s</title>
<text text-anchor="middle" x="115" y="-275.3" font-family="Times,serif" font-size="14.00">Textual flow strength</text>
</g>
<!-- leg_e1 -->
<!-- leg_s&#45;&gt;leg_e1 -->
<g id="edge1" class="edge"><title>leg_s&#45;&gt;leg_e1</title>
<path fill="none" stroke="black" stroke-dasharray="1,5" d="M96.6657,-260.686C91.1324,-255.194 85.1607,-248.989 80,-243 70.1708,-231.593 60.0722,-217.779 52.9137,-207.563"/>
<polygon fill="black" stroke="black" points="55.6142,-205.314 47.056,-199.068 49.8514,-209.288 55.6142,-205.314"/>
<text text-anchor="middle" x="95.5" y="-231.8" font-family="Times,serif" font-size="14.00">&lt;=5 &#160;</text>
</g>
<!-- leg_e2 -->
<!-- leg_s&#45;&gt;leg_e2 -->
<g id="edge2" class="edge"><title>leg_s&#45;&gt;leg_e2</title>
<path fill="none" stroke="black" stroke-dasharray="5,2" d="M115,-260.799C115,-245.794 115,-224.174 115,-209.409"/>
<polygon fill="black" stroke="black" points="118.5,-209.293 115,-199.293 111.5,-209.293 118.5,-209.293"/>
<text text-anchor="middle" x="134" y="-231.8" font-family="Times,serif" font-size="14.00"> &#160;&lt;=25</text>
</g>
<!-- leg_e3 -->
<!-- leg_s&#45;&gt;leg_e3 -->
<g id="edge3" class="edge"><title>leg_s&#45;&gt;leg_e3</title>
<path fill="none" stroke="black" d="M138.503,-260.76C144.906,-255.462 151.567,-249.344 157,-243 166.087,-232.39 174.095,-218.689 179.546,-208.313"/>
<polygon fill="black" stroke="black" points="182.722,-209.789 184.091,-199.283 176.469,-206.642 182.722,-209.789"/>
<text text-anchor="middle" x="179" y="-231.8" font-family="Times,serif" font-size="14.00">&gt;25</text>
</g>
<!-- 03 -->
<g id="node5" class="node"><title>03</title>
<ellipse fill="#ff8a8a" stroke="#b43f3f" cx="350" cy="-279" rx="31.6951" ry="18"/>
<text text-anchor="middle" x="350" y="-275.3" font-family="Times,serif" font-size="14.00">03 (a)</text>
</g>
<!-- 02 -->
<g id="node6" class="node"><title>02</title>
<ellipse fill="#ff8a8a" stroke="#b43f3f" cx="264" cy="-192" rx="31.6951" ry="18"/>
<text text-anchor="middle" x="264" y="-188.3" font-family="Times,serif" font-size="14.00">02 (a)</text>
</g>
<!-- 03&#45;&gt;02 -->
<g id="edge4" class="edge"><title>03&#45;&gt;02</title>
<path fill="none" stroke="#b43f3f" stroke-dasharray="1,5" d="M329.353,-264.912C320.467,-258.796 310.248,-251.086 302,-243 294.175,-235.329 286.638,-225.975 280.368,-217.442"/>
<polygon fill="#b43f3f" stroke="#b43f3f" points="283.206,-215.394 274.557,-209.275 277.503,-219.452 283.206,-215.394"/>
<text text-anchor="middle" x="324" y="-231.8" font-family="Times,serif" font-size="14.00">1 (86.5)</text>
</g>
<!-- 032 -->
<g id="node7" class="node"><title>032</title>
<ellipse fill="#ff8a8a" stroke="#b43f3f" cx="350" cy="-192" rx="36.2938" ry="18"/>
<text text-anchor="middle" x="350" y="-188.3" font-family="Times,serif" font-size="14.00">032 (a)</text>
</g>
<!-- 03&#45;&gt;032 -->
<g id="edge5" class="edge"><title>03&#45;&gt;032</title>
<path fill="none" stroke="#b43f3f" stroke-dasharray="1,5" d="M350,-260.799C350,-249.163 350,-233.548 350,-220.237"/>
<polygon fill="#b43f3f" stroke="#b43f3f" points="353.5,-220.175 350,-210.175 346.5,-220.175 353.5,-220.175"/>
<text text-anchor="middle" x="372" y="-231.8" font-family="Times,serif" font-size="14.00">1 (91.7)</text>
</g>
<!-- 044 -->
<g id="node8" class="node"><title>044</title>
<ellipse fill="#ff8a8a" stroke="#b43f3f" cx="441" cy="-192" rx="36.2938" ry="18"/>
<text text-anchor="middle" x="441" y="-188.3" font-family="Times,serif" font-size="14.00">044 (a)</text>
</g>
<!-- 03&#45;&gt;044 -->
<g id="edge6" class="edge"><title>03&#45;&gt;044</title>
<path fill="none" stroke="#b43f3f" stroke-dasharray="1,5" d="M370.419,-264.672C379.263,-258.512 389.511,-250.834 398,-243 406.544,-235.115 415.076,-225.619 422.26,-217.029"/>
<polygon fill="#b43f3f" stroke="#b43f3f" points="425.077,-219.113 428.692,-209.155 419.656,-214.685 425.077,-219.113"/>
<text text-anchor="middle" x="434" y="-231.8" font-family="Times,serif" font-size="14.00">1 (89.2)</text>
</g>
<!-- 0141 -->
<g id="node27" class="node"><title>0141</title>
<ellipse fill="#ff8a8a" stroke="#b43f3f" cx="393" cy="-105" rx="40.0939" ry="18"/>
<text text-anchor="middle" x="393" y="-101.3" font-family="Times,serif" font-size="14.00">0141 (a)</text>
</g>
<!-- 044&#45;&gt;0141 -->
<g id="edge23" class="edge"><title>044&#45;&gt;0141</title>
<path fill="none" stroke="#b43f3f" stroke-dasharray="1,5" d="M427.443,-175.237C422.827,-169.423 417.862,-162.632 414,-156 409.736,-148.678 405.874,-140.324 402.659,-132.569"/>
<polygon fill="#b43f3f" stroke="#b43f3f" points="405.883,-131.202 398.951,-123.189 399.373,-133.776 405.883,-131.202"/>
<text text-anchor="middle" x="436" y="-144.8" font-family="Times,serif" font-size="14.00">1 (89.2)</text>
</g>
<!-- 022 -->
<g id="node28" class="node"><title>022</title>
<ellipse fill="#ff8a8a" stroke="#b43f3f" cx="488" cy="-105" rx="36.2938" ry="18"/>
<text text-anchor="middle" x="488" y="-101.3" font-family="Times,serif" font-size="14.00">022 (a)</text>
</g>
<!-- 044&#45;&gt;022 -->
<g id="edge24" class="edge"><title>044&#45;&gt;022</title>
<path fill="none" stroke="#b43f3f" stroke-dasharray="1,5" d="M450.286,-174.207C457.024,-162.021 466.26,-145.318 473.905,-131.491"/>
<polygon fill="#b43f3f" stroke="#b43f3f" points="477.117,-132.914 478.894,-122.469 470.992,-129.527 477.117,-132.914"/>
<text text-anchor="middle" x="490" y="-144.8" font-family="Times,serif" font-size="14.00">1 (91.7)</text>
</g>
<!-- 021 -->
<g id="node9" class="node"><title>021</title>
<ellipse fill="#ff8a8a" stroke="#b43f3f" cx="579" cy="-105" rx="36.2938" ry="18"/>
<text text-anchor="middle" x="579" y="-101.3" font-family="Times,serif" font-size="14.00">021 (a)</text>
</g>
<!-- 047 -->
<g id="node10" class="node"><title>047</title>
<ellipse fill="#ff8a8a" stroke="#b43f3f" cx="488" cy="-18" rx="36.2938" ry="18"/>
<text text-anchor="middle" x="488" y="-14.3" font-family="Times,serif" font-size="14.00">047 (a)</text>
</g>
<!-- 021&#45;&gt;047 -->
<g id="edge7" class="edge"><title>021&#45;&gt;047</title>
<path fill="none" stroke="#b43f3f" stroke-dasharray="1,5" d="M557.628,-90.006C549.008,-83.9634 539.186,-76.5539 531,-69 522.456,-61.1154 513.924,-51.6186 506.74,-43.0293"/>
<polygon fill="#b43f3f" stroke="#b43f3f" points="509.344,-40.6853 500.308,-35.1545 503.923,-45.1135 509.344,-40.6853"/>
<text text-anchor="middle" x="553" y="-57.8" font-family="Times,serif" font-size="14.00">1 (95.1)</text>
</g>
<!-- 036 -->
<g id="node11" class="node"><title>036</title>
<ellipse fill="#ff8a8a" stroke="#b43f3f" cx="579" cy="-18" rx="36.2938" ry="18"/>
<text text-anchor="middle" x="579" y="-14.3" font-family="Times,serif" font-size="14.00">036 (a)</text>
</g>
<!-- 021&#45;&gt;036 -->
<g id="edge8" class="edge"><title>021&#45;&gt;036</title>
<path fill="none" stroke="#b43f3f" stroke-dasharray="1,5" d="M579,-86.799C579,-75.1626 579,-59.5479 579,-46.2368"/>
<polygon fill="#b43f3f" stroke="#b43f3f" points="582.5,-46.1754 579,-36.1754 575.5,-46.1755 582.5,-46.1754"/>
<text text-anchor="middle" x="601" y="-57.8" font-family="Times,serif" font-size="14.00">1 (97.6)</text>
</g>
<!-- 063 -->
<g id="node12" class="node"><title>063</title>
<ellipse fill="#ff8a8a" stroke="#b43f3f" cx="900" cy="-192" rx="36.2938" ry="18"/>
<text text-anchor="middle" x="900" y="-188.3" font-family="Times,serif" font-size="14.00">063 (a)</text>
</g>
<!-- 063&#45;&gt;021 -->
<g id="edge9" class="edge"><title>063&#45;&gt;021</title>
<path fill="none" stroke="#b43f3f" stroke-dasharray="1,5" d="M867.242,-184.066C836.363,-177.385 788.857,-166.737 748,-156 703.29,-144.25 652.489,-128.954 618.36,-118.39"/>
<polygon fill="#b43f3f" stroke="#b43f3f" points="619.35,-115.032 608.762,-115.408 617.273,-121.717 619.35,-115.032"/>
<text text-anchor="middle" x="770" y="-144.8" font-family="Times,serif" font-size="14.00">1 (93.1)</text>
</g>
<!-- 031 -->
<g id="node13" class="node"><title>031</title>
<ellipse fill="#ff8a8a" stroke="#b43f3f" cx="761" cy="-105" rx="36.2938" ry="18"/>
<text text-anchor="middle" x="761" y="-101.3" font-family="Times,serif" font-size="14.00">031 (a)</text>
</g>
<!-- 063&#45;&gt;031 -->
<g id="edge10" class="edge"><title>063&#45;&gt;031</title>
<path fill="none" stroke="#b43f3f" stroke-dasharray="1,5" d="M870.011,-181.611C853.13,-175.616 832.077,-166.916 815,-156 803.394,-148.581 791.986,-138.543 782.668,-129.407"/>
<polygon fill="#b43f3f" stroke="#b43f3f" points="784.891,-126.678 775.373,-122.023 779.911,-131.597 784.891,-126.678"/>
<text text-anchor="middle" x="837" y="-144.8" font-family="Times,serif" font-size="14.00">1 (95.8)</text>
</g>
<!-- 07 -->
<g id="node14" class="node"><title>07</title>
<ellipse fill="#ff8a8a" stroke="#b43f3f" cx="852" cy="-105" rx="31.6951" ry="18"/>
<text text-anchor="middle" x="852" y="-101.3" font-family="Times,serif" font-size="14.00">07 (a)</text>
</g>
<!-- 063&#45;&gt;07 -->
<g id="edge11" class="edge"><title>063&#45;&gt;07</title>
<path fill="none" stroke="#b43f3f" stroke-dasharray="1,5" d="M884.038,-175.668C878.7,-169.895 873.078,-163.019 869,-156 864.837,-148.834 861.494,-140.495 858.912,-132.705"/>
<polygon fill="#b43f3f" stroke="#b43f3f" points="862.198,-131.48 855.949,-122.924 855.498,-133.509 862.198,-131.48"/>
<text text-anchor="middle" x="891" y="-144.8" font-family="Times,serif" font-size="14.00">1 (96.6)</text>
</g>
<!-- 045 -->
<g id="node15" class="node"><title>045</title>
<ellipse fill="#ff8a8a" stroke="#b43f3f" cx="938" cy="-105" rx="36.2938" ry="18"/>
<text text-anchor="middle" x="938" y="-101.3" font-family="Times,serif" font-size="14.00">045 (a)</text>
</g>
<!-- 063&#45;&gt;045 -->
<g id="edge12" class="edge"><title>063&#45;&gt;045</title>
<path fill="none" stroke="#b43f3f" stroke-dasharray="1,5" d="M907.508,-174.207C912.868,-162.216 920.184,-145.851 926.306,-132.157"/>
<polygon fill="#b43f3f" stroke="#b43f3f" points="929.622,-133.316 930.508,-122.758 923.231,-130.459 929.622,-133.316"/>
<text text-anchor="middle" x="944" y="-144.8" font-family="Times,serif" font-size="14.00">1 (93.1)</text>
</g>
<!-- 028 -->
<g id="node16" class="node"><title>028</title>
<ellipse fill="#ff8a8a" stroke="#b43f3f" cx="1029" cy="-105" rx="36.2938" ry="18"/>
<text text-anchor="middle" x="1029" y="-101.3" font-family="Times,serif" font-size="14.00">028 (a)</text>
</g>
<!-- 063&#45;&gt;028 -->
<g id="edge13" class="edge"><title>063&#45;&gt;028</title>
<path fill="none" stroke="#b43f3f" stroke-dasharray="1,5" d="M926.755,-179.465C940.16,-173.232 956.392,-164.981 970,-156 982.323,-147.867 994.946,-137.495 1005.34,-128.309"/>
<polygon fill="#b43f3f" stroke="#b43f3f" points="1007.73,-130.868 1012.81,-121.571 1003.04,-125.67 1007.73,-130.868"/>
<text text-anchor="middle" x="1011" y="-144.8" font-family="Times,serif" font-size="14.00">1 (96.6)</text>
</g>
<!-- 011 -->
<g id="node17" class="node"><title>011</title>
<ellipse fill="#ff8a8a" stroke="#b43f3f" cx="1120" cy="-105" rx="36.2938" ry="18"/>
<text text-anchor="middle" x="1120" y="-101.3" font-family="Times,serif" font-size="14.00">011 (a)</text>
</g>
<!-- 063&#45;&gt;011 -->
<g id="edge14" class="edge"><title>063&#45;&gt;011</title>
<path fill="none" stroke="#b43f3f" stroke-dasharray="1,5" d="M927.496,-180.031C933.534,-177.85 939.936,-175.709 946,-174 985.683,-162.819 998.543,-170.86 1037,-156 1056.41,-148.498 1076.45,-136.57 1091.97,-126.245"/>
<polygon fill="#b43f3f" stroke="#b43f3f" points="1094.26,-128.922 1100.55,-120.397 1090.31,-123.138 1094.26,-128.922"/>
<text text-anchor="middle" x="1087" y="-144.8" font-family="Times,serif" font-size="14.00">1 (93.1)</text>
</g>
<!-- 017 -->
<g id="node18" class="node"><title>017</title>
<ellipse fill="#ff8a8a" stroke="#b43f3f" cx="670" cy="-18" rx="36.2938" ry="18"/>
<text text-anchor="middle" x="670" y="-14.3" font-family="Times,serif" font-size="14.00">017 (a)</text>
</g>
<!-- 031&#45;&gt;017 -->
<g id="edge15" class="edge"><title>031&#45;&gt;017</title>
<path fill="none" stroke="#b43f3f" stroke-dasharray="1,5" d="M739.628,-90.006C731.008,-83.9634 721.186,-76.5539 713,-69 704.456,-61.1154 695.924,-51.6186 688.74,-43.0293"/>
<polygon fill="#b43f3f" stroke="#b43f3f" points="691.344,-40.6853 682.308,-35.1545 685.923,-45.1135 691.344,-40.6853"/>
<text text-anchor="middle" x="735" y="-57.8" font-family="Times,serif" font-size="14.00">1 (94.3)</text>
</g>
<!-- 013 -->
<g id="node19" class="node"><title>013</title>
<ellipse fill="#cea8f4" stroke="#835da9" cx="761" cy="-18" rx="36.2938" ry="18"/>
<text text-anchor="middle" x="761" y="-14.3" font-family="Times,serif" font-size="14.00">013 (b)</text>
</g>
<!-- 031&#45;&gt;013 -->
<g id="edge16" class="edge"><title>031&#45;&gt;013</title>
<path fill="none" stroke="#835da9" stroke-dasharray="1,5" d="M761,-86.799C761,-75.1626 761,-59.5479 761,-46.2368"/>
<polygon fill="#835da9" stroke="#835da9" points="764.5,-46.1754 761,-36.1754 757.5,-46.1755 764.5,-46.1754"/>
<text text-anchor="middle" x="783" y="-57.8" font-family="Times,serif" font-size="14.00">1 (97.1)</text>
</g>
<!-- 037 -->
<g id="node20" class="node"><title>037</title>
<ellipse fill="#ff8a8a" stroke="#b43f3f" cx="852" cy="-18" rx="36.2938" ry="18"/>
<text text-anchor="middle" x="852" y="-14.3" font-family="Times,serif" font-size="14.00">037 (a)</text>
</g>
<!-- 07&#45;&gt;037 -->
<g id="edge17" class="edge"><title>07&#45;&gt;037</title>
<path fill="none" stroke="#b43f3f" stroke-dasharray="1,5" d="M852,-86.799C852,-75.1626 852,-59.5479 852,-46.2368"/>
<polygon fill="#b43f3f" stroke="#b43f3f" points="855.5,-46.1754 852,-36.1754 848.5,-46.1755 855.5,-46.1754"/>
<text text-anchor="middle" x="874" y="-57.8" font-family="Times,serif" font-size="14.00">1 (97.5)</text>
</g>
<!-- 034 -->
<g id="node21" class="node"><title>034</title>
<ellipse fill="#ff8a8a" stroke="#b43f3f" cx="943" cy="-18" rx="36.2938" ry="18"/>
<text text-anchor="middle" x="943" y="-14.3" font-family="Times,serif" font-size="14.00">034 (a)</text>
</g>
<!-- 07&#45;&gt;034 -->
<g id="edge18" class="edge"><title>07&#45;&gt;034</title>
<path fill="none" stroke="#b43f3f" stroke-dasharray="1,5" d="M872.419,-90.6717C881.263,-84.5121 891.511,-76.8337 900,-69 908.544,-61.1154 917.076,-51.6186 924.26,-43.0293"/>
<polygon fill="#b43f3f" stroke="#b43f3f" points="927.077,-45.1135 930.692,-35.1545 921.656,-40.6853 927.077,-45.1135"/>
<text text-anchor="middle" x="936" y="-57.8" font-family="Times,serif" font-size="14.00">1 (95.1)</text>
</g>
<!-- 038 -->
<g id="node26" class="node"><title>038</title>
<ellipse fill="#ff8a8a" stroke="#b43f3f" cx="1034" cy="-18" rx="36.2938" ry="18"/>
<text text-anchor="middle" x="1034" y="-14.3" font-family="Times,serif" font-size="14.00">038 (a)</text>
</g>
<!-- 045&#45;&gt;038 -->
<g id="edge22" class="edge"><title>045&#45;&gt;038</title>
<path fill="none" stroke="#b43f3f" stroke-dasharray="1,5" d="M955.163,-88.8037C970.179,-75.5078 992.179,-56.0291 1009.13,-41.0245"/>
<polygon fill="#b43f3f" stroke="#b43f3f" points="1011.82,-43.3143 1016.99,-34.0647 1007.18,-38.0734 1011.82,-43.3143"/>
<text text-anchor="middle" x="1014" y="-57.8" font-family="Times,serif" font-size="14.00">1 (92.7)</text>
</g>
<!-- 091 -->
<g id="node22" class="node"><title>091</title>
<ellipse fill="#ff8a8a" stroke="#b43f3f" cx="1040" cy="-279" rx="36.2938" ry="18"/>
<text text-anchor="middle" x="1040" y="-275.3" font-family="Times,serif" font-size="14.00">091 (a)</text>
</g>
<!-- 0211 -->
<g id="node23" class="node"><title>0211</title>
<ellipse fill="#ff8a8a" stroke="#b43f3f" cx="995" cy="-192" rx="40.0939" ry="18"/>
<text text-anchor="middle" x="995" y="-188.3" font-family="Times,serif" font-size="14.00">0211 (a)</text>
</g>
<!-- 091&#45;&gt;0211 -->
<g id="edge19" class="edge"><title>091&#45;&gt;0211</title>
<path fill="none" stroke="#b43f3f" stroke-dasharray="1,5" d="M1029.64,-261.448C1026.14,-255.676 1022.29,-249.114 1019,-243 1014.85,-235.285 1010.61,-226.737 1006.88,-218.923"/>
<polygon fill="#b43f3f" stroke="#b43f3f" points="1010.04,-217.42 1002.62,-209.861 1003.71,-220.4 1010.04,-217.42"/>
<text text-anchor="middle" x="1041" y="-231.8" font-family="Times,serif" font-size="14.00">1 (83.3)</text>
</g>
<!-- 05 -->
<g id="node24" class="node"><title>05</title>
<ellipse fill="#ff8a8a" stroke="#b43f3f" cx="1085" cy="-192" rx="31.6951" ry="18"/>
<text text-anchor="middle" x="1085" y="-188.3" font-family="Times,serif" font-size="14.00">05 (a)</text>
</g>
<!-- 091&#45;&gt;05 -->
<g id="edge20" class="edge"><title>091&#45;&gt;05</title>
<path fill="none" stroke="#b43f3f" stroke-dasharray="1,5" d="M1051.58,-261.614C1055.43,-255.857 1059.6,-249.26 1063,-243 1067.08,-235.501 1071.01,-227.095 1074.39,-219.347"/>
<polygon fill="#b43f3f" stroke="#b43f3f" points="1077.67,-220.574 1078.35,-210.001 1071.22,-217.843 1077.67,-220.574"/>
<text text-anchor="middle" x="1092" y="-231.8" font-family="Times,serif" font-size="14.00">1 (87.5)</text>
</g>
<!-- 019 -->
<g id="node25" class="node"><title>019</title>
<ellipse fill="#ff8a8a" stroke="#b43f3f" cx="900" cy="-279" rx="36.2938" ry="18"/>
<text text-anchor="middle" x="900" y="-275.3" font-family="Times,serif" font-size="14.00">019 (a)</text>
</g>
<!-- 019&#45;&gt;063 -->
<g id="edge21" class="edge"><title>019&#45;&gt;063</title>
<path fill="none" stroke="#b43f3f" stroke-dasharray="1,5" d="M900,-260.799C900,-249.163 900,-233.548 900,-220.237"/>
<polygon fill="#b43f3f" stroke="#b43f3f" points="903.5,-220.175 900,-210.175 896.5,-220.175 903.5,-220.175"/>
<text text-anchor="middle" x="922" y="-231.8" font-family="Times,serif" font-size="14.00">1 (85.7)</text>
</g>
<!-- P75 -->
<g id="node29" class="node"><title>P75</title>
<ellipse fill="#ff8a8a" stroke="#b43f3f" cx="1131" cy="-279" rx="36.2938" ry="18"/>
<text text-anchor="middle" x="1131" y="-275.3" font-family="Times,serif" font-size="14.00">P75 (a)</text>
</g>
<!-- 030 -->
<g id="node30" class="node"><title>030</title>
<ellipse fill="#72fe95" stroke="#27b34a" cx="1222" cy="-279" rx="36.2938" ry="18"/>
<text text-anchor="middle" x="1222" y="-275.3" font-family="Times,serif" font-size="14.00">030 (c)</text>
</g>
</g>
</svg>
