<?xml version="1.0" encoding="UTF-8" standalone="no"?>
<!DOCTYPE svg PUBLIC "-//W3C//DTD SVG 1.1//EN"
 "http://www.w3.org/Graphics/SVG/1.1/DTD/svg11.dtd">
<!-- Generated by graphviz version 2.38.0 (20140413.2041)
 -->
<!-- Title: %3 Pages: 1 -->
<svg width="1167pt" height="408pt"
 viewBox="0.00 0.00 1167.24 408.00" xmlns="http://www.w3.org/2000/svg" xmlns:xlink="http://www.w3.org/1999/xlink">
<g id="graph0" class="graph" transform="scale(1 1) rotate(0) translate(4 404)">
<title>%3</title>
<polygon fill="white" stroke="none" points="-4,4 -4,-404 1163.24,-404 1163.24,4 -4,4"/>
<g id="clust1" class="cluster"><title>cluster_legend</title>
<path fill="none" stroke="black" d="M436.847,-264C436.847,-264 626.847,-264 626.847,-264 632.847,-264 638.847,-270 638.847,-276 638.847,-276 638.847,-380 638.847,-380 638.847,-386 632.847,-392 626.847,-392 626.847,-392 436.847,-392 436.847,-392 430.847,-392 424.847,-386 424.847,-380 424.847,-380 424.847,-276 424.847,-276 424.847,-270 430.847,-264 436.847,-264"/>
</g>
<!-- leg_s -->
<g id="node1" class="node"><title>leg_s</title>
<text text-anchor="middle" x="531.847" y="-362.3" font-family="Times,serif" font-size="14.00">Textual flow strength</text>
</g>
<!-- leg_e1 -->
<!-- leg_s&#45;&gt;leg_e1 -->
<g id="edge1" class="edge"><title>leg_s&#45;&gt;leg_e1</title>
<path fill="none" stroke="black" stroke-dasharray="1,5" d="M513.513,-347.686C507.98,-342.194 502.008,-335.989 496.847,-330 487.018,-318.593 476.919,-304.779 469.761,-294.563"/>
<polygon fill="black" stroke="black" points="472.461,-292.314 463.903,-286.068 466.699,-296.288 472.461,-292.314"/>
<text text-anchor="middle" x="512.347" y="-318.8" font-family="Times,serif" font-size="14.00">&lt;=5 &#160;</text>
</g>
<!-- leg_e2 -->
<!-- leg_s&#45;&gt;leg_e2 -->
<g id="edge2" class="edge"><title>leg_s&#45;&gt;leg_e2</title>
<path fill="none" stroke="black" stroke-dasharray="5,2" d="M531.847,-347.799C531.847,-332.794 531.847,-311.174 531.847,-296.409"/>
<polygon fill="black" stroke="black" points="535.347,-296.293 531.847,-286.293 528.347,-296.293 535.347,-296.293"/>
<text text-anchor="middle" x="550.847" y="-318.8" font-family="Times,serif" font-size="14.00"> &#160;&lt;=25</text>
</g>
<!-- leg_e3 -->
<!-- leg_s&#45;&gt;leg_e3 -->
<g id="edge3" class="edge"><title>leg_s&#45;&gt;leg_e3</title>
<path fill="none" stroke="black" d="M555.351,-347.76C561.753,-342.462 568.414,-336.344 573.847,-330 582.935,-319.39 590.942,-305.689 596.394,-295.313"/>
<polygon fill="black" stroke="black" points="599.569,-296.789 600.938,-286.283 593.316,-293.642 599.569,-296.789"/>
<text text-anchor="middle" x="595.847" y="-318.8" font-family="Times,serif" font-size="14.00">&gt;25</text>
</g>
<!-- 031 -->
<g id="node5" class="node"><title>031</title>
<ellipse fill="#ff8a8a" stroke="#b43f3f" cx="162.847" cy="-105" rx="36.2938" ry="18"/>
<text text-anchor="middle" x="162.847" y="-101.3" font-family="Times,serif" font-size="14.00">031 (a)</text>
</g>
<!-- 01 -->
<g id="node6" class="node"><title>01</title>
<ellipse fill="#ff8a8a" stroke="#b43f3f" cx="31.8472" cy="-18" rx="31.6951" ry="18"/>
<text text-anchor="middle" x="31.8472" y="-14.3" font-family="Times,serif" font-size="14.00">01 (a)</text>
</g>
<!-- 031&#45;&gt;01 -->
<g id="edge4" class="edge"><title>031&#45;&gt;01</title>
<path fill="none" stroke="#b43f3f" stroke-dasharray="1,5" d="M135.1,-93.3507C120.494,-87.1858 102.604,-78.7261 87.8472,-69 75.8254,-61.0766 63.7513,-50.6809 53.9084,-41.4221"/>
<polygon fill="#b43f3f" stroke="#b43f3f" points="56.1633,-38.7342 46.5367,-34.3094 51.3028,-43.7717 56.1633,-38.7342"/>
<text text-anchor="middle" x="109.847" y="-57.8" font-family="Times,serif" font-size="14.00">2 (48.5)</text>
</g>
<!-- 013 -->
<g id="node7" class="node"><title>013</title>
<ellipse fill="#ff8a8a" stroke="#b43f3f" cx="117.847" cy="-18" rx="36.2938" ry="18"/>
<text text-anchor="middle" x="117.847" y="-14.3" font-family="Times,serif" font-size="14.00">013 (a)</text>
</g>
<!-- 031&#45;&gt;013 -->
<g id="edge5" class="edge"><title>031&#45;&gt;013</title>
<path fill="none" stroke="#b43f3f" stroke-dasharray="1,5" d="M153.094,-87.3706C149.773,-81.5933 146.083,-75.047 142.847,-69 138.68,-61.2133 134.316,-52.6446 130.423,-44.8337"/>
<polygon fill="#b43f3f" stroke="#b43f3f" points="133.519,-43.1997 125.951,-35.7855 127.244,-46.3011 133.519,-43.1997"/>
<text text-anchor="middle" x="164.847" y="-57.8" font-family="Times,serif" font-size="14.00">1 (97.1)</text>
</g>
<!-- 017 -->
<g id="node8" class="node"><title>017</title>
<ellipse fill="#ff8a8a" stroke="#b43f3f" cx="208.847" cy="-18" rx="36.2938" ry="18"/>
<text text-anchor="middle" x="208.847" y="-14.3" font-family="Times,serif" font-size="14.00">017 (a)</text>
</g>
<!-- 031&#45;&gt;017 -->
<g id="edge6" class="edge"><title>031&#45;&gt;017</title>
<path fill="none" stroke="#b43f3f" stroke-dasharray="1,5" d="M174.977,-87.6704C178.996,-81.9172 183.336,-75.3093 186.847,-69 190.997,-61.5417 194.949,-53.1477 198.328,-45.3977"/>
<polygon fill="#b43f3f" stroke="#b43f3f" points="201.611,-46.6185 202.274,-36.0444 195.162,-43.8974 201.611,-46.6185"/>
<text text-anchor="middle" x="216.847" y="-57.8" font-family="Times,serif" font-size="14.00">1 (94.3)</text>
</g>
<!-- 063 -->
<g id="node9" class="node"><title>063</title>
<ellipse fill="#cea8f4" stroke="#835da9" cx="671.847" cy="-192" rx="36.2938" ry="18"/>
<text text-anchor="middle" x="671.847" y="-188.3" font-family="Times,serif" font-size="14.00">063 (b)</text>
</g>
<!-- 063&#45;&gt;031 -->
<g id="edge7" class="edge"><title>063&#45;&gt;031</title>
<path fill="none" stroke="#b43f3f" stroke-dasharray="1,5" d="M637.66,-185.291C548.103,-170.336 306.713,-130.025 206.934,-113.362"/>
<polygon fill="#b43f3f" stroke="#b43f3f" points="207.326,-109.879 196.886,-111.684 206.173,-116.784 207.326,-109.879"/>
<text text-anchor="middle" x="469.847" y="-144.8" font-family="Times,serif" font-size="14.00">1 (95.8)</text>
</g>
<!-- 07 -->
<g id="node10" class="node"><title>07</title>
<ellipse fill="#ff8a8a" stroke="#b43f3f" cx="489.847" cy="-105" rx="31.6951" ry="18"/>
<text text-anchor="middle" x="489.847" y="-101.3" font-family="Times,serif" font-size="14.00">07 (a)</text>
</g>
<!-- 063&#45;&gt;07 -->
<g id="edge8" class="edge"><title>063&#45;&gt;07</title>
<path fill="none" stroke="#b43f3f" stroke-dasharray="1,5" d="M639.901,-183.368C617.658,-177.43 587.656,-168.156 562.847,-156 546.326,-147.905 529.286,-136.44 515.828,-126.531"/>
<polygon fill="#b43f3f" stroke="#b43f3f" points="517.638,-123.513 507.543,-120.295 513.428,-129.105 517.638,-123.513"/>
<text text-anchor="middle" x="584.847" y="-144.8" font-family="Times,serif" font-size="14.00">1 (96.6)</text>
</g>
<!-- 011 -->
<g id="node11" class="node"><title>011</title>
<ellipse fill="#ff8a8a" stroke="#b43f3f" cx="580.847" cy="-105" rx="36.2938" ry="18"/>
<text text-anchor="middle" x="580.847" y="-101.3" font-family="Times,serif" font-size="14.00">011 (a)</text>
</g>
<!-- 063&#45;&gt;011 -->
<g id="edge9" class="edge"><title>063&#45;&gt;011</title>
<path fill="none" stroke="#b43f3f" stroke-dasharray="1,5" d="M650.476,-177.006C641.855,-170.963 632.033,-163.554 623.847,-156 615.303,-148.115 606.771,-138.619 599.587,-130.029"/>
<polygon fill="#b43f3f" stroke="#b43f3f" points="602.191,-127.685 593.155,-122.155 596.77,-132.113 602.191,-127.685"/>
<text text-anchor="middle" x="645.847" y="-144.8" font-family="Times,serif" font-size="14.00">1 (93.1)</text>
</g>
<!-- 045 -->
<g id="node12" class="node"><title>045</title>
<ellipse fill="#ff8a8a" stroke="#b43f3f" cx="671.847" cy="-105" rx="36.2938" ry="18"/>
<text text-anchor="middle" x="671.847" y="-101.3" font-family="Times,serif" font-size="14.00">045 (a)</text>
</g>
<!-- 063&#45;&gt;045 -->
<g id="edge10" class="edge"><title>063&#45;&gt;045</title>
<path fill="none" stroke="#b43f3f" stroke-dasharray="1,5" d="M671.847,-173.799C671.847,-162.163 671.847,-146.548 671.847,-133.237"/>
<polygon fill="#b43f3f" stroke="#b43f3f" points="675.347,-133.175 671.847,-123.175 668.347,-133.175 675.347,-133.175"/>
<text text-anchor="middle" x="693.847" y="-144.8" font-family="Times,serif" font-size="14.00">1 (93.1)</text>
</g>
<!-- 021 -->
<g id="node13" class="node"><title>021</title>
<ellipse fill="#ff8a8a" stroke="#b43f3f" cx="762.847" cy="-105" rx="36.2938" ry="18"/>
<text text-anchor="middle" x="762.847" y="-101.3" font-family="Times,serif" font-size="14.00">021 (a)</text>
</g>
<!-- 063&#45;&gt;021 -->
<g id="edge11" class="edge"><title>063&#45;&gt;021</title>
<path fill="none" stroke="#b43f3f" stroke-dasharray="1,5" d="M693.219,-177.006C701.84,-170.963 711.662,-163.554 719.847,-156 728.391,-148.115 736.923,-138.619 744.108,-130.029"/>
<polygon fill="#b43f3f" stroke="#b43f3f" points="746.924,-132.113 750.54,-122.155 741.503,-127.685 746.924,-132.113"/>
<text text-anchor="middle" x="755.847" y="-144.8" font-family="Times,serif" font-size="14.00">1 (93.1)</text>
</g>
<!-- 028 -->
<g id="node14" class="node"><title>028</title>
<ellipse fill="#ff8a8a" stroke="#b43f3f" cx="853.847" cy="-105" rx="36.2938" ry="18"/>
<text text-anchor="middle" x="853.847" y="-101.3" font-family="Times,serif" font-size="14.00">028 (a)</text>
</g>
<!-- 063&#45;&gt;028 -->
<g id="edge12" class="edge"><title>063&#45;&gt;028</title>
<path fill="none" stroke="#b43f3f" stroke-dasharray="1,5" d="M704.114,-183.461C726.574,-177.566 756.856,-168.305 781.847,-156 797.975,-148.059 814.549,-136.801 827.724,-126.977"/>
<polygon fill="#b43f3f" stroke="#b43f3f" points="830.023,-129.626 835.852,-120.778 825.778,-124.06 830.023,-129.626"/>
<text text-anchor="middle" x="828.847" y="-144.8" font-family="Times,serif" font-size="14.00">1 (96.6)</text>
</g>
<!-- 0211 -->
<g id="node15" class="node"><title>0211</title>
<ellipse fill="#ff8a8a" stroke="#b43f3f" cx="303.847" cy="-18" rx="40.0939" ry="18"/>
<text text-anchor="middle" x="303.847" y="-14.3" font-family="Times,serif" font-size="14.00">0211 (a)</text>
</g>
<!-- 07&#45;&gt;0211 -->
<g id="edge13" class="edge"><title>07&#45;&gt;0211</title>
<path fill="none" stroke="#b43f3f" stroke-dasharray="1,5" d="M460.824,-96.9378C438.392,-90.9482 406.881,-81.3614 380.847,-69 363.796,-60.9037 346.044,-49.5986 331.887,-39.7859"/>
<polygon fill="#b43f3f" stroke="#b43f3f" points="333.762,-36.825 323.575,-33.911 329.721,-42.5412 333.762,-36.825"/>
<text text-anchor="middle" x="402.847" y="-57.8" font-family="Times,serif" font-size="14.00">2 (82.9)</text>
</g>
<!-- 037 -->
<g id="node16" class="node"><title>037</title>
<ellipse fill="#ff8a8a" stroke="#b43f3f" cx="398.847" cy="-18" rx="36.2938" ry="18"/>
<text text-anchor="middle" x="398.847" y="-14.3" font-family="Times,serif" font-size="14.00">037 (a)</text>
</g>
<!-- 07&#45;&gt;037 -->
<g id="edge14" class="edge"><title>07&#45;&gt;037</title>
<path fill="none" stroke="#b43f3f" stroke-dasharray="1,5" d="M469.428,-90.6717C460.585,-84.5121 450.336,-76.8337 441.847,-69 433.303,-61.1154 424.771,-51.6186 417.587,-43.0293"/>
<polygon fill="#b43f3f" stroke="#b43f3f" points="420.191,-40.6853 411.155,-35.1545 414.77,-45.1135 420.191,-40.6853"/>
<text text-anchor="middle" x="463.847" y="-57.8" font-family="Times,serif" font-size="14.00">1 (97.5)</text>
</g>
<!-- 034 -->
<g id="node17" class="node"><title>034</title>
<ellipse fill="#ff8a8a" stroke="#b43f3f" cx="489.847" cy="-18" rx="36.2938" ry="18"/>
<text text-anchor="middle" x="489.847" y="-14.3" font-family="Times,serif" font-size="14.00">034 (a)</text>
</g>
<!-- 07&#45;&gt;034 -->
<g id="edge15" class="edge"><title>07&#45;&gt;034</title>
<path fill="none" stroke="#b43f3f" stroke-dasharray="1,5" d="M489.847,-86.799C489.847,-75.1626 489.847,-59.5479 489.847,-46.2368"/>
<polygon fill="#b43f3f" stroke="#b43f3f" points="493.347,-46.1754 489.847,-36.1754 486.347,-46.1755 493.347,-46.1754"/>
<text text-anchor="middle" x="511.847" y="-57.8" font-family="Times,serif" font-size="14.00">1 (95.1)</text>
</g>
<!-- 030 -->
<g id="node18" class="node"><title>030</title>
<ellipse fill="#ff8a8a" stroke="#b43f3f" cx="580.847" cy="-18" rx="36.2938" ry="18"/>
<text text-anchor="middle" x="580.847" y="-14.3" font-family="Times,serif" font-size="14.00">030 (a)</text>
</g>
<!-- 07&#45;&gt;030 -->
<g id="edge16" class="edge"><title>07&#45;&gt;030</title>
<path fill="none" stroke="#b43f3f" stroke-dasharray="1,5" d="M510.266,-90.6717C519.11,-84.5121 529.358,-76.8337 537.847,-69 546.391,-61.1154 554.923,-51.6186 562.108,-43.0293"/>
<polygon fill="#b43f3f" stroke="#b43f3f" points="564.924,-45.1135 568.54,-35.1545 559.503,-40.6853 564.924,-45.1135"/>
<text text-anchor="middle" x="573.847" y="-57.8" font-family="Times,serif" font-size="14.00">1 (95.1)</text>
</g>
<!-- 038 -->
<g id="node19" class="node"><title>038</title>
<ellipse fill="#ff8a8a" stroke="#b43f3f" cx="671.847" cy="-18" rx="36.2938" ry="18"/>
<text text-anchor="middle" x="671.847" y="-14.3" font-family="Times,serif" font-size="14.00">038 (a)</text>
</g>
<!-- 045&#45;&gt;038 -->
<g id="edge17" class="edge"><title>045&#45;&gt;038</title>
<path fill="none" stroke="#b43f3f" stroke-dasharray="1,5" d="M671.847,-86.799C671.847,-75.1626 671.847,-59.5479 671.847,-46.2368"/>
<polygon fill="#b43f3f" stroke="#b43f3f" points="675.347,-46.1754 671.847,-36.1754 668.347,-46.1755 675.347,-46.1754"/>
<text text-anchor="middle" x="693.847" y="-57.8" font-family="Times,serif" font-size="14.00">1 (92.7)</text>
</g>
<!-- 036 -->
<g id="node20" class="node"><title>036</title>
<ellipse fill="#ff8a8a" stroke="#b43f3f" cx="762.847" cy="-18" rx="36.2938" ry="18"/>
<text text-anchor="middle" x="762.847" y="-14.3" font-family="Times,serif" font-size="14.00">036 (a)</text>
</g>
<!-- 021&#45;&gt;036 -->
<g id="edge18" class="edge"><title>021&#45;&gt;036</title>
<path fill="none" stroke="#b43f3f" stroke-dasharray="1,5" d="M762.847,-86.799C762.847,-75.1626 762.847,-59.5479 762.847,-46.2368"/>
<polygon fill="#b43f3f" stroke="#b43f3f" points="766.347,-46.1754 762.847,-36.1754 759.347,-46.1755 766.347,-46.1754"/>
<text text-anchor="middle" x="784.847" y="-57.8" font-family="Times,serif" font-size="14.00">1 (97.6)</text>
</g>
<!-- 047 -->
<g id="node21" class="node"><title>047</title>
<ellipse fill="#ff8a8a" stroke="#b43f3f" cx="853.847" cy="-18" rx="36.2938" ry="18"/>
<text text-anchor="middle" x="853.847" y="-14.3" font-family="Times,serif" font-size="14.00">047 (a)</text>
</g>
<!-- 021&#45;&gt;047 -->
<g id="edge19" class="edge"><title>021&#45;&gt;047</title>
<path fill="none" stroke="#b43f3f" stroke-dasharray="1,5" d="M784.219,-90.006C792.84,-83.9634 802.662,-76.5539 810.847,-69 819.391,-61.1154 827.923,-51.6186 835.108,-43.0293"/>
<polygon fill="#b43f3f" stroke="#b43f3f" points="837.924,-45.1135 841.54,-35.1545 832.503,-40.6853 837.924,-45.1135"/>
<text text-anchor="middle" x="846.847" y="-57.8" font-family="Times,serif" font-size="14.00">1 (95.1)</text>
</g>
<!-- 044 -->
<g id="node22" class="node"><title>044</title>
<ellipse fill="#cea8f4" stroke="#835da9" cx="948.847" cy="-192" rx="36.2938" ry="18"/>
<text text-anchor="middle" x="948.847" y="-188.3" font-family="Times,serif" font-size="14.00">044 (b)</text>
</g>
<!-- 0141 -->
<g id="node23" class="node"><title>0141</title>
<ellipse fill="#ff8a8a" stroke="#b43f3f" cx="948.847" cy="-105" rx="40.0939" ry="18"/>
<text text-anchor="middle" x="948.847" y="-101.3" font-family="Times,serif" font-size="14.00">0141 (a)</text>
</g>
<!-- 044&#45;&gt;0141 -->
<g id="edge20" class="edge"><title>044&#45;&gt;0141</title>
<path fill="none" stroke="#b43f3f" stroke-dasharray="1,5" d="M948.847,-173.799C948.847,-162.163 948.847,-146.548 948.847,-133.237"/>
<polygon fill="#b43f3f" stroke="#b43f3f" points="952.347,-133.175 948.847,-123.175 945.347,-133.175 952.347,-133.175"/>
<text text-anchor="middle" x="970.847" y="-144.8" font-family="Times,serif" font-size="14.00">1 (89.2)</text>
</g>
<!-- 022 -->
<g id="node24" class="node"><title>022</title>
<ellipse fill="#cea8f4" stroke="#835da9" cx="1043.85" cy="-105" rx="36.2938" ry="18"/>
<text text-anchor="middle" x="1043.85" y="-101.3" font-family="Times,serif" font-size="14.00">022 (b)</text>
</g>
<!-- 044&#45;&gt;022 -->
<g id="edge21" class="edge"><title>044&#45;&gt;022</title>
<path fill="none" stroke="#835da9" stroke-dasharray="1,5" d="M969.577,-177.159C978.284,-171.025 988.342,-163.508 996.847,-156 1006.01,-147.911 1015.38,-138.276 1023.31,-129.632"/>
<polygon fill="#835da9" stroke="#835da9" points="1026.06,-131.816 1030.15,-122.045 1020.86,-127.129 1026.06,-131.816"/>
<text text-anchor="middle" x="1034.85" y="-144.8" font-family="Times,serif" font-size="14.00">1 (91.7)</text>
</g>
<!-- 05 -->
<g id="node25" class="node"><title>05</title>
<ellipse fill="#ff8a8a" stroke="#b43f3f" cx="948.847" cy="-18" rx="31.6951" ry="18"/>
<text text-anchor="middle" x="948.847" y="-14.3" font-family="Times,serif" font-size="14.00">05 (a)</text>
</g>
<!-- 0141&#45;&gt;05 -->
<g id="edge22" class="edge"><title>0141&#45;&gt;05</title>
<path fill="none" stroke="#b43f3f" stroke-dasharray="1,5" d="M948.847,-86.799C948.847,-75.1626 948.847,-59.5479 948.847,-46.2368"/>
<polygon fill="#b43f3f" stroke="#b43f3f" points="952.347,-46.1754 948.847,-36.1754 945.347,-46.1755 952.347,-46.1754"/>
<text text-anchor="middle" x="970.847" y="-57.8" font-family="Times,serif" font-size="14.00">9 (70.6)</text>
</g>
<!-- A -->
<g id="node26" class="node"><title>A</title>
<ellipse fill="#cea8f4" stroke="#835da9" cx="776.847" cy="-366" rx="29.795" ry="18"/>
<text text-anchor="middle" x="776.847" y="-362.3" font-family="Times,serif" font-size="14.00">A (b)</text>
</g>
<!-- P75 -->
<g id="node27" class="node"><title>P75</title>
<ellipse fill="#cea8f4" stroke="#835da9" cx="685.847" cy="-279" rx="37.0935" ry="18"/>
<text text-anchor="middle" x="685.847" y="-275.3" font-family="Times,serif" font-size="14.00">P75 (b)</text>
</g>
<!-- A&#45;&gt;P75 -->
<g id="edge23" class="edge"><title>A&#45;&gt;P75</title>
<path fill="none" stroke="#835da9" stroke-dasharray="1,5" d="M757.37,-352.326C748.319,-346.06 737.639,-338.113 728.847,-330 720.303,-322.115 711.771,-312.619 704.587,-304.029"/>
<polygon fill="#835da9" stroke="#835da9" points="707.191,-301.685 698.155,-296.155 701.77,-306.113 707.191,-301.685"/>
<text text-anchor="middle" x="750.847" y="-318.8" font-family="Times,serif" font-size="14.00">1 (93.3)</text>
</g>
<!-- 019 -->
<g id="node28" class="node"><title>019</title>
<ellipse fill="#cea8f4" stroke="#835da9" cx="776.847" cy="-279" rx="36.2938" ry="18"/>
<text text-anchor="middle" x="776.847" y="-275.3" font-family="Times,serif" font-size="14.00">019 (b)</text>
</g>
<!-- A&#45;&gt;019 -->
<g id="edge24" class="edge"><title>A&#45;&gt;019</title>
<path fill="none" stroke="#835da9" stroke-dasharray="1,5" d="M776.847,-347.799C776.847,-336.163 776.847,-320.548 776.847,-307.237"/>
<polygon fill="#835da9" stroke="#835da9" points="780.347,-307.175 776.847,-297.175 773.347,-307.175 780.347,-307.175"/>
<text text-anchor="middle" x="798.847" y="-318.8" font-family="Times,serif" font-size="14.00">1 (93.3)</text>
</g>
<!-- 03 -->
<g id="node29" class="node"><title>03</title>
<ellipse fill="#cea8f4" stroke="#835da9" cx="1001.85" cy="-279" rx="32.4942" ry="18"/>
<text text-anchor="middle" x="1001.85" y="-275.3" font-family="Times,serif" font-size="14.00">03 (b)</text>
</g>
<!-- A&#45;&gt;03 -->
<g id="edge25" class="edge"><title>A&#45;&gt;03</title>
<path fill="none" stroke="#835da9" stroke-dasharray="1,5" d="M801.786,-355.579C841.759,-340.478 920.33,-310.795 966.213,-293.462"/>
<polygon fill="#835da9" stroke="#835da9" points="967.639,-296.665 975.757,-289.856 965.165,-290.116 967.639,-296.665"/>
<text text-anchor="middle" x="924.847" y="-318.8" font-family="Times,serif" font-size="14.00">1 (93.3)</text>
</g>
<!-- 019&#45;&gt;063 -->
<g id="edge26" class="edge"><title>019&#45;&gt;063</title>
<path fill="none" stroke="#835da9" stroke-dasharray="1,5" d="M758.558,-263.194C741.77,-249.604 716.716,-229.322 697.85,-214.05"/>
<polygon fill="#835da9" stroke="#835da9" points="699.902,-211.208 689.927,-207.636 695.497,-216.649 699.902,-211.208"/>
<text text-anchor="middle" x="752.847" y="-231.8" font-family="Times,serif" font-size="14.00">1 (85.7)</text>
</g>
<!-- 03&#45;&gt;044 -->
<g id="edge27" class="edge"><title>03&#45;&gt;044</title>
<path fill="none" stroke="#835da9" stroke-dasharray="1,5" d="M985.366,-263.036C979.601,-257.194 973.431,-250.18 968.847,-243 964.248,-235.797 960.384,-227.364 957.315,-219.496"/>
<polygon fill="#835da9" stroke="#835da9" points="960.56,-218.176 953.859,-209.969 953.979,-220.564 960.56,-218.176"/>
<text text-anchor="middle" x="990.847" y="-231.8" font-family="Times,serif" font-size="14.00">1 (89.2)</text>
</g>
<!-- 02 -->
<g id="node30" class="node"><title>02</title>
<ellipse fill="#cea8f4" stroke="#835da9" cx="1035.85" cy="-192" rx="32.4942" ry="18"/>
<text text-anchor="middle" x="1035.85" y="-188.3" font-family="Times,serif" font-size="14.00">02 (b)</text>
</g>
<!-- 03&#45;&gt;02 -->
<g id="edge28" class="edge"><title>03&#45;&gt;02</title>
<path fill="none" stroke="#835da9" stroke-dasharray="1,5" d="M1008.56,-261.207C1013.36,-249.216 1019.91,-232.851 1025.38,-219.157"/>
<polygon fill="#835da9" stroke="#835da9" points="1028.68,-220.343 1029.14,-209.758 1022.18,-217.743 1028.68,-220.343"/>
<text text-anchor="middle" x="1043.85" y="-231.8" font-family="Times,serif" font-size="14.00">1 (86.5)</text>
</g>
<!-- 032 -->
<g id="node31" class="node"><title>032</title>
<ellipse fill="#cea8f4" stroke="#835da9" cx="1122.85" cy="-192" rx="36.2938" ry="18"/>
<text text-anchor="middle" x="1122.85" y="-188.3" font-family="Times,serif" font-size="14.00">032 (b)</text>
</g>
<!-- 03&#45;&gt;032 -->
<g id="edge29" class="edge"><title>03&#45;&gt;032</title>
<path fill="none" stroke="#835da9" stroke-dasharray="1,5" d="M1026.72,-267.265C1040.03,-261.019 1056.41,-252.51 1069.85,-243 1080.98,-235.122 1092.14,-225.012 1101.32,-215.946"/>
<polygon fill="#835da9" stroke="#835da9" points="1103.99,-218.223 1108.53,-208.649 1099.01,-213.304 1103.99,-218.223"/>
<text text-anchor="middle" x="1109.85" y="-231.8" font-family="Times,serif" font-size="14.00">1 (91.7)</text>
</g>
</g>
</svg>
