<?xml version="1.0" encoding="UTF-8" standalone="no"?>
<!DOCTYPE svg PUBLIC "-//W3C//DTD SVG 1.1//EN"
 "http://www.w3.org/Graphics/SVG/1.1/DTD/svg11.dtd">
<!-- Generated by graphviz version 2.38.0 (20140413.2041)
 -->
<!-- Title: %3 Pages: 1 -->
<svg width="1537pt" height="234pt"
 viewBox="0.00 0.00 1537.00 234.00" xmlns="http://www.w3.org/2000/svg" xmlns:xlink="http://www.w3.org/1999/xlink">
<g id="graph0" class="graph" transform="scale(1 1) rotate(0) translate(4 230)">
<title>%3</title>
<polygon fill="white" stroke="none" points="-4,4 -4,-230 1533,-230 1533,4 -4,4"/>
<g id="clust1" class="cluster"><title>cluster_legend</title>
<path fill="none" stroke="black" d="M20,-90C20,-90 210,-90 210,-90 216,-90 222,-96 222,-102 222,-102 222,-206 222,-206 222,-212 216,-218 210,-218 210,-218 20,-218 20,-218 14,-218 8,-212 8,-206 8,-206 8,-102 8,-102 8,-96 14,-90 20,-90"/>
</g>
<!-- leg_s -->
<g id="node1" class="node"><title>leg_s</title>
<text text-anchor="middle" x="115" y="-188.3" font-family="Times,serif" font-size="14.00">Textual flow strength</text>
</g>
<!-- leg_e1 -->
<!-- leg_s&#45;&gt;leg_e1 -->
<g id="edge1" class="edge"><title>leg_s&#45;&gt;leg_e1</title>
<path fill="none" stroke="black" stroke-dasharray="1,5" d="M96.6657,-173.686C91.1324,-168.194 85.1607,-161.989 80,-156 70.1708,-144.593 60.0722,-130.779 52.9137,-120.563"/>
<polygon fill="black" stroke="black" points="55.6142,-118.314 47.056,-112.068 49.8514,-122.288 55.6142,-118.314"/>
<text text-anchor="middle" x="95.5" y="-144.8" font-family="Times,serif" font-size="14.00">&lt;=5 &#160;</text>
</g>
<!-- leg_e2 -->
<!-- leg_s&#45;&gt;leg_e2 -->
<g id="edge2" class="edge"><title>leg_s&#45;&gt;leg_e2</title>
<path fill="none" stroke="black" stroke-dasharray="5,2" d="M115,-173.799C115,-158.794 115,-137.174 115,-122.409"/>
<polygon fill="black" stroke="black" points="118.5,-122.293 115,-112.293 111.5,-122.293 118.5,-122.293"/>
<text text-anchor="middle" x="134" y="-144.8" font-family="Times,serif" font-size="14.00"> &#160;&lt;=25</text>
</g>
<!-- leg_e3 -->
<!-- leg_s&#45;&gt;leg_e3 -->
<g id="edge3" class="edge"><title>leg_s&#45;&gt;leg_e3</title>
<path fill="none" stroke="black" d="M138.503,-173.76C144.906,-168.462 151.567,-162.344 157,-156 166.087,-145.39 174.095,-131.689 179.546,-121.313"/>
<polygon fill="black" stroke="black" points="182.722,-122.789 184.091,-112.283 176.469,-119.642 182.722,-122.789"/>
<text text-anchor="middle" x="179" y="-144.8" font-family="Times,serif" font-size="14.00">&gt;25</text>
</g>
<!-- 063 -->
<g id="node5" class="node"><title>063</title>
<ellipse fill="#ff8a8a" stroke="#b43f3f" cx="582" cy="-192" rx="36.2938" ry="18"/>
<text text-anchor="middle" x="582" y="-188.3" font-family="Times,serif" font-size="14.00">063 (a)</text>
</g>
<!-- 045 -->
<g id="node6" class="node"><title>045</title>
<ellipse fill="#ff8a8a" stroke="#b43f3f" cx="268" cy="-105" rx="36.2938" ry="18"/>
<text text-anchor="middle" x="268" y="-101.3" font-family="Times,serif" font-size="14.00">045 (a)</text>
</g>
<!-- 063&#45;&gt;045 -->
<g id="edge4" class="edge"><title>063&#45;&gt;045</title>
<path fill="none" stroke="#b43f3f" stroke-dasharray="1,5" d="M550.745,-182.539C493.613,-167.074 372.373,-134.254 308.816,-117.049"/>
<polygon fill="#b43f3f" stroke="#b43f3f" points="309.696,-113.661 299.129,-114.427 307.867,-120.418 309.696,-113.661"/>
<text text-anchor="middle" x="466" y="-144.8" font-family="Times,serif" font-size="14.00">1 (93.1)</text>
</g>
<!-- 07 -->
<g id="node7" class="node"><title>07</title>
<ellipse fill="#ff8a8a" stroke="#b43f3f" cx="451" cy="-105" rx="31.6951" ry="18"/>
<text text-anchor="middle" x="451" y="-101.3" font-family="Times,serif" font-size="14.00">07 (a)</text>
</g>
<!-- 063&#45;&gt;07 -->
<g id="edge5" class="edge"><title>063&#45;&gt;07</title>
<path fill="none" stroke="#b43f3f" stroke-dasharray="1,5" d="M560.661,-177.154C538.578,-162.825 503.959,-140.362 479.535,-124.515"/>
<polygon fill="#b43f3f" stroke="#b43f3f" points="481.334,-121.51 471.04,-119.003 477.524,-127.382 481.334,-121.51"/>
<text text-anchor="middle" x="547" y="-144.8" font-family="Times,serif" font-size="14.00">1 (96.6)</text>
</g>
<!-- 031 -->
<g id="node8" class="node"><title>031</title>
<ellipse fill="#ff8a8a" stroke="#b43f3f" cx="582" cy="-105" rx="36.2938" ry="18"/>
<text text-anchor="middle" x="582" y="-101.3" font-family="Times,serif" font-size="14.00">031 (a)</text>
</g>
<!-- 063&#45;&gt;031 -->
<g id="edge6" class="edge"><title>063&#45;&gt;031</title>
<path fill="none" stroke="#b43f3f" stroke-dasharray="1,5" d="M582,-173.799C582,-162.163 582,-146.548 582,-133.237"/>
<polygon fill="#b43f3f" stroke="#b43f3f" points="585.5,-133.175 582,-123.175 578.5,-133.175 585.5,-133.175"/>
<text text-anchor="middle" x="604" y="-144.8" font-family="Times,serif" font-size="14.00">1 (95.8)</text>
</g>
<!-- 011 -->
<g id="node9" class="node"><title>011</title>
<ellipse fill="#ff8a8a" stroke="#b43f3f" cx="673" cy="-105" rx="36.2938" ry="18"/>
<text text-anchor="middle" x="673" y="-101.3" font-family="Times,serif" font-size="14.00">011 (a)</text>
</g>
<!-- 063&#45;&gt;011 -->
<g id="edge7" class="edge"><title>063&#45;&gt;011</title>
<path fill="none" stroke="#b43f3f" stroke-dasharray="1,5" d="M603.372,-177.006C611.992,-170.963 621.814,-163.554 630,-156 638.544,-148.115 647.076,-138.619 654.26,-130.029"/>
<polygon fill="#b43f3f" stroke="#b43f3f" points="657.077,-132.113 660.692,-122.155 651.656,-127.685 657.077,-132.113"/>
<text text-anchor="middle" x="666" y="-144.8" font-family="Times,serif" font-size="14.00">1 (93.1)</text>
</g>
<!-- 028 -->
<g id="node10" class="node"><title>028</title>
<ellipse fill="#ff8a8a" stroke="#b43f3f" cx="764" cy="-105" rx="36.2938" ry="18"/>
<text text-anchor="middle" x="764" y="-101.3" font-family="Times,serif" font-size="14.00">028 (a)</text>
</g>
<!-- 063&#45;&gt;028 -->
<g id="edge8" class="edge"><title>063&#45;&gt;028</title>
<path fill="none" stroke="#b43f3f" stroke-dasharray="1,5" d="M614.267,-183.461C636.727,-177.566 667.009,-168.305 692,-156 708.128,-148.059 724.702,-136.801 737.877,-126.977"/>
<polygon fill="#b43f3f" stroke="#b43f3f" points="740.176,-129.626 746.004,-120.778 735.931,-124.06 740.176,-129.626"/>
<text text-anchor="middle" x="739" y="-144.8" font-family="Times,serif" font-size="14.00">1 (96.6)</text>
</g>
<!-- 038 -->
<g id="node11" class="node"><title>038</title>
<ellipse fill="#ff8a8a" stroke="#b43f3f" cx="170" cy="-18" rx="36.2938" ry="18"/>
<text text-anchor="middle" x="170" y="-14.3" font-family="Times,serif" font-size="14.00">038 (a)</text>
</g>
<!-- 045&#45;&gt;038 -->
<g id="edge9" class="edge"><title>045&#45;&gt;038</title>
<path fill="none" stroke="#b43f3f" stroke-dasharray="1,5" d="M240.557,-93.0426C222.887,-85.5796 201.964,-75.8497 195,-69 188.336,-62.4455 183.148,-53.7457 179.268,-45.4427"/>
<polygon fill="#b43f3f" stroke="#b43f3f" points="182.411,-43.8882 175.305,-36.0301 175.96,-46.6047 182.411,-43.8882"/>
<text text-anchor="middle" x="217" y="-57.8" font-family="Times,serif" font-size="14.00">1 (92.7)</text>
</g>
<!-- 034 -->
<g id="node12" class="node"><title>034</title>
<ellipse fill="#ff8a8a" stroke="#b43f3f" cx="261" cy="-18" rx="36.2938" ry="18"/>
<text text-anchor="middle" x="261" y="-14.3" font-family="Times,serif" font-size="14.00">034 (a)</text>
</g>
<!-- 07&#45;&gt;034 -->
<g id="edge10" class="edge"><title>07&#45;&gt;034</title>
<path fill="none" stroke="#b43f3f" stroke-dasharray="1,5" d="M421.949,-97.051C399.096,-91.0645 366.755,-81.4282 340,-69 322.324,-60.789 303.849,-49.2802 289.213,-39.3738"/>
<polygon fill="#b43f3f" stroke="#b43f3f" points="290.857,-36.2555 280.638,-33.4566 286.881,-42.0169 290.857,-36.2555"/>
<text text-anchor="middle" x="362" y="-57.8" font-family="Times,serif" font-size="14.00">1 (95.1)</text>
</g>
<!-- 0211 -->
<g id="node13" class="node"><title>0211</title>
<ellipse fill="#ff8a8a" stroke="#b43f3f" cx="356" cy="-18" rx="40.0939" ry="18"/>
<text text-anchor="middle" x="356" y="-14.3" font-family="Times,serif" font-size="14.00">0211 (a)</text>
</g>
<!-- 07&#45;&gt;0211 -->
<g id="edge11" class="edge"><title>07&#45;&gt;0211</title>
<path fill="none" stroke="#b43f3f" stroke-dasharray="1,5" d="M431.214,-90.8221C422.297,-84.5722 411.815,-76.7806 403,-69 393.837,-60.9115 384.469,-51.2757 376.533,-42.6319"/>
<polygon fill="#b43f3f" stroke="#b43f3f" points="378.99,-40.1295 369.694,-35.0454 373.79,-44.8165 378.99,-40.1295"/>
<text text-anchor="middle" x="425" y="-57.8" font-family="Times,serif" font-size="14.00">2 (82.9)</text>
</g>
<!-- 037 -->
<g id="node14" class="node"><title>037</title>
<ellipse fill="#ff8a8a" stroke="#b43f3f" cx="451" cy="-18" rx="36.2938" ry="18"/>
<text text-anchor="middle" x="451" y="-14.3" font-family="Times,serif" font-size="14.00">037 (a)</text>
</g>
<!-- 07&#45;&gt;037 -->
<g id="edge12" class="edge"><title>07&#45;&gt;037</title>
<path fill="none" stroke="#b43f3f" stroke-dasharray="1,5" d="M451,-86.799C451,-75.1626 451,-59.5479 451,-46.2368"/>
<polygon fill="#b43f3f" stroke="#b43f3f" points="454.5,-46.1754 451,-36.1754 447.5,-46.1755 454.5,-46.1754"/>
<text text-anchor="middle" x="473" y="-57.8" font-family="Times,serif" font-size="14.00">1 (97.5)</text>
</g>
<!-- 030 -->
<g id="node15" class="node"><title>030</title>
<ellipse fill="#ff8a8a" stroke="#b43f3f" cx="542" cy="-18" rx="36.2938" ry="18"/>
<text text-anchor="middle" x="542" y="-14.3" font-family="Times,serif" font-size="14.00">030 (a)</text>
</g>
<!-- 07&#45;&gt;030 -->
<g id="edge13" class="edge"><title>07&#45;&gt;030</title>
<path fill="none" stroke="#b43f3f" stroke-dasharray="1,5" d="M471.419,-90.6717C480.263,-84.5121 490.511,-76.8337 499,-69 507.544,-61.1154 516.076,-51.6186 523.26,-43.0293"/>
<polygon fill="#b43f3f" stroke="#b43f3f" points="526.077,-45.1135 529.692,-35.1545 520.656,-40.6853 526.077,-45.1135"/>
<text text-anchor="middle" x="535" y="-57.8" font-family="Times,serif" font-size="14.00">1 (95.1)</text>
</g>
<!-- 013 -->
<g id="node16" class="node"><title>013</title>
<ellipse fill="#ff8a8a" stroke="#b43f3f" cx="633" cy="-18" rx="36.2938" ry="18"/>
<text text-anchor="middle" x="633" y="-14.3" font-family="Times,serif" font-size="14.00">013 (a)</text>
</g>
<!-- 031&#45;&gt;013 -->
<g id="edge14" class="edge"><title>031&#45;&gt;013</title>
<path fill="none" stroke="#b43f3f" stroke-dasharray="1,5" d="M591.833,-87.6111C599.242,-75.2642 609.53,-58.1167 617.968,-44.0534"/>
<polygon fill="#b43f3f" stroke="#b43f3f" points="621.053,-45.7142 623.197,-35.3385 615.051,-42.1127 621.053,-45.7142"/>
<text text-anchor="middle" x="633" y="-57.8" font-family="Times,serif" font-size="14.00">1 (97.1)</text>
</g>
<!-- 02 -->
<g id="node17" class="node"><title>02</title>
<ellipse fill="#ff8a8a" stroke="#b43f3f" cx="719" cy="-18" rx="31.6951" ry="18"/>
<text text-anchor="middle" x="719" y="-14.3" font-family="Times,serif" font-size="14.00">02 (a)</text>
</g>
<!-- 011&#45;&gt;02 -->
<g id="edge15" class="edge"><title>011&#45;&gt;02</title>
<path fill="none" stroke="#b43f3f" stroke-dasharray="1,5" d="M682.088,-87.2067C688.683,-75.0205 697.722,-58.3176 705.205,-44.491"/>
<polygon fill="#b43f3f" stroke="#b43f3f" points="708.406,-45.9297 710.087,-35.4692 702.25,-42.598 708.406,-45.9297"/>
<text text-anchor="middle" x="721" y="-57.8" font-family="Times,serif" font-size="14.00">1 (86.5)</text>
</g>
<!-- 03 -->
<g id="node18" class="node"><title>03</title>
<ellipse fill="#72fe95" stroke="#27b34a" cx="855" cy="-192" rx="31.6951" ry="18"/>
<text text-anchor="middle" x="855" y="-188.3" font-family="Times,serif" font-size="14.00">03 (c)</text>
</g>
<!-- 032 -->
<g id="node19" class="node"><title>032</title>
<ellipse fill="#72fe95" stroke="#27b34a" cx="855" cy="-105" rx="36.2938" ry="18"/>
<text text-anchor="middle" x="855" y="-101.3" font-family="Times,serif" font-size="14.00">032 (c)</text>
</g>
<!-- 03&#45;&gt;032 -->
<g id="edge16" class="edge"><title>03&#45;&gt;032</title>
<path fill="none" stroke="#27b34a" stroke-dasharray="1,5" d="M855,-173.799C855,-162.163 855,-146.548 855,-133.237"/>
<polygon fill="#27b34a" stroke="#27b34a" points="858.5,-133.175 855,-123.175 851.5,-133.175 858.5,-133.175"/>
<text text-anchor="middle" x="877" y="-144.8" font-family="Times,serif" font-size="14.00">1 (91.7)</text>
</g>
<!-- 021 -->
<g id="node20" class="node"><title>021</title>
<ellipse fill="#ff86c2" stroke="#b43b77" cx="946" cy="-105" rx="36.2938" ry="18"/>
<text text-anchor="middle" x="946" y="-101.3" font-family="Times,serif" font-size="14.00">021 (d)</text>
</g>
<!-- 036 -->
<g id="node21" class="node"><title>036</title>
<ellipse fill="#ff86c2" stroke="#b43b77" cx="900" cy="-18" rx="36.2938" ry="18"/>
<text text-anchor="middle" x="900" y="-14.3" font-family="Times,serif" font-size="14.00">036 (d)</text>
</g>
<!-- 021&#45;&gt;036 -->
<g id="edge17" class="edge"><title>021&#45;&gt;036</title>
<path fill="none" stroke="#b43b77" stroke-dasharray="1,5" d="M931.108,-88.5223C926.119,-82.7349 920.851,-75.8877 917,-69 913.018,-61.8777 909.75,-53.6644 907.18,-45.9795"/>
<polygon fill="#b43b77" stroke="#b43b77" points="910.493,-44.8441 904.204,-36.3175 903.803,-46.9048 910.493,-44.8441"/>
<text text-anchor="middle" x="939" y="-57.8" font-family="Times,serif" font-size="14.00">1 (97.6)</text>
</g>
<!-- 047 -->
<g id="node22" class="node"><title>047</title>
<ellipse fill="#ff86c2" stroke="#b43b77" cx="991" cy="-18" rx="36.2938" ry="18"/>
<text text-anchor="middle" x="991" y="-14.3" font-family="Times,serif" font-size="14.00">047 (d)</text>
</g>
<!-- 021&#45;&gt;047 -->
<g id="edge18" class="edge"><title>021&#45;&gt;047</title>
<path fill="none" stroke="#b43b77" stroke-dasharray="1,5" d="M954.891,-87.2067C961.3,-75.0991 970.071,-58.5329 977.363,-44.759"/>
<polygon fill="#b43b77" stroke="#b43b77" points="980.542,-46.2339 982.128,-35.7584 974.356,-42.9586 980.542,-46.2339"/>
<text text-anchor="middle" x="993" y="-57.8" font-family="Times,serif" font-size="14.00">1 (95.1)</text>
</g>
<!-- 091 -->
<g id="node23" class="node"><title>091</title>
<ellipse fill="#ff86c2" stroke="#b43b77" cx="946" cy="-192" rx="36.2938" ry="18"/>
<text text-anchor="middle" x="946" y="-188.3" font-family="Times,serif" font-size="14.00">091 (d)</text>
</g>
<!-- 091&#45;&gt;021 -->
<g id="edge19" class="edge"><title>091&#45;&gt;021</title>
<path fill="none" stroke="#b43b77" stroke-dasharray="1,5" d="M946,-173.799C946,-162.163 946,-146.548 946,-133.237"/>
<polygon fill="#b43b77" stroke="#b43b77" points="949.5,-133.175 946,-123.175 942.5,-133.175 949.5,-133.175"/>
<text text-anchor="middle" x="968" y="-144.8" font-family="Times,serif" font-size="14.00">3 (83.3)</text>
</g>
<!-- P75 -->
<g id="node24" class="node"><title>P75</title>
<ellipse fill="#cea8f4" stroke="#835da9" cx="1037" cy="-192" rx="37.0935" ry="18"/>
<text text-anchor="middle" x="1037" y="-188.3" font-family="Times,serif" font-size="14.00">P75 (b)</text>
</g>
<!-- 022 -->
<g id="node25" class="node"><title>022</title>
<ellipse fill="#a9c5eb" stroke="#5e7aa0" cx="1128" cy="-192" rx="36.2938" ry="18"/>
<text text-anchor="middle" x="1128" y="-188.3" font-family="Times,serif" font-size="14.00">022 (e)</text>
</g>
<!-- 017 -->
<g id="node26" class="node"><title>017</title>
<ellipse fill="#80b584" stroke="#356a39" cx="1217" cy="-192" rx="35.194" ry="18"/>
<text text-anchor="middle" x="1217" y="-188.3" font-family="Times,serif" font-size="14.00">017 (f)</text>
</g>
<!-- 044 -->
<g id="node27" class="node"><title>044</title>
<ellipse fill="#ea8dfe" stroke="#9f42b3" cx="1306" cy="-192" rx="36.2938" ry="18"/>
<text text-anchor="middle" x="1306" y="-188.3" font-family="Times,serif" font-size="14.00">044 (g)</text>
</g>
<!-- 019 -->
<g id="node28" class="node"><title>019</title>
<ellipse fill="#8c8cff" stroke="#4141b4" cx="1397" cy="-192" rx="36.2938" ry="18"/>
<text text-anchor="middle" x="1397" y="-188.3" font-family="Times,serif" font-size="14.00">019 (h)</text>
</g>
<!-- 0141 -->
<g id="node29" class="node"><title>0141</title>
<ellipse fill="#36f200" stroke="#00a700" cx="1490" cy="-192" rx="38.9931" ry="18"/>
<text text-anchor="middle" x="1490" y="-188.3" font-family="Times,serif" font-size="14.00">0141 (i)</text>
</g>
</g>
</svg>
