<?xml version="1.0" encoding="UTF-8" standalone="no"?>
<!DOCTYPE svg PUBLIC "-//W3C//DTD SVG 1.1//EN"
 "http://www.w3.org/Graphics/SVG/1.1/DTD/svg11.dtd">
<!-- Generated by graphviz version 2.38.0 (20140413.2041)
 -->
<!-- Title: %3 Pages: 1 -->
<svg width="1215pt" height="321pt"
 viewBox="0.00 0.00 1214.89 321.00" xmlns="http://www.w3.org/2000/svg" xmlns:xlink="http://www.w3.org/1999/xlink">
<g id="graph0" class="graph" transform="scale(1 1) rotate(0) translate(4 317)">
<title>%3</title>
<polygon fill="white" stroke="none" points="-4,4 -4,-317 1210.89,-317 1210.89,4 -4,4"/>
<g id="clust1" class="cluster"><title>cluster_legend</title>
<path fill="none" stroke="black" d="M387.397,-177C387.397,-177 577.397,-177 577.397,-177 583.397,-177 589.397,-183 589.397,-189 589.397,-189 589.397,-293 589.397,-293 589.397,-299 583.397,-305 577.397,-305 577.397,-305 387.397,-305 387.397,-305 381.397,-305 375.397,-299 375.397,-293 375.397,-293 375.397,-189 375.397,-189 375.397,-183 381.397,-177 387.397,-177"/>
</g>
<!-- leg_s -->
<g id="node1" class="node"><title>leg_s</title>
<text text-anchor="middle" x="482.397" y="-275.3" font-family="Times,serif" font-size="14.00">Textual flow strength</text>
</g>
<!-- leg_e1 -->
<!-- leg_s&#45;&gt;leg_e1 -->
<g id="edge1" class="edge"><title>leg_s&#45;&gt;leg_e1</title>
<path fill="none" stroke="black" stroke-dasharray="1,5" d="M464.062,-260.686C458.529,-255.194 452.557,-248.989 447.397,-243 437.568,-231.593 427.469,-217.779 420.31,-207.563"/>
<polygon fill="black" stroke="black" points="423.011,-205.314 414.453,-199.068 417.248,-209.288 423.011,-205.314"/>
<text text-anchor="middle" x="462.897" y="-231.8" font-family="Times,serif" font-size="14.00">&lt;=5 &#160;</text>
</g>
<!-- leg_e2 -->
<!-- leg_s&#45;&gt;leg_e2 -->
<g id="edge2" class="edge"><title>leg_s&#45;&gt;leg_e2</title>
<path fill="none" stroke="black" stroke-dasharray="5,2" d="M482.397,-260.799C482.397,-245.794 482.397,-224.174 482.397,-209.409"/>
<polygon fill="black" stroke="black" points="485.897,-209.293 482.397,-199.293 478.897,-209.293 485.897,-209.293"/>
<text text-anchor="middle" x="501.397" y="-231.8" font-family="Times,serif" font-size="14.00"> &#160;&lt;=25</text>
</g>
<!-- leg_e3 -->
<!-- leg_s&#45;&gt;leg_e3 -->
<g id="edge3" class="edge"><title>leg_s&#45;&gt;leg_e3</title>
<path fill="none" stroke="black" d="M505.9,-260.76C512.303,-255.462 518.963,-249.344 524.397,-243 533.484,-232.39 541.492,-218.689 546.943,-208.313"/>
<polygon fill="black" stroke="black" points="550.119,-209.789 551.488,-199.283 543.866,-206.642 550.119,-209.789"/>
<text text-anchor="middle" x="546.397" y="-231.8" font-family="Times,serif" font-size="14.00">&gt;25</text>
</g>
<!-- 021 -->
<g id="node5" class="node"><title>021</title>
<ellipse fill="#ff8a8a" stroke="#b43f3f" cx="127.397" cy="-105" rx="36.2938" ry="18"/>
<text text-anchor="middle" x="127.397" y="-101.3" font-family="Times,serif" font-size="14.00">021 (a)</text>
</g>
<!-- 036 -->
<g id="node6" class="node"><title>036</title>
<ellipse fill="#ff8a8a" stroke="#b43f3f" cx="36.3968" cy="-18" rx="36.2938" ry="18"/>
<text text-anchor="middle" x="36.3968" y="-14.3" font-family="Times,serif" font-size="14.00">036 (a)</text>
</g>
<!-- 021&#45;&gt;036 -->
<g id="edge4" class="edge"><title>021&#45;&gt;036</title>
<path fill="none" stroke="#b43f3f" stroke-dasharray="1,5" d="M106.025,-90.006C97.4044,-83.9634 87.5824,-76.5539 79.3968,-69 70.8527,-61.1154 62.3211,-51.6186 55.1364,-43.0293"/>
<polygon fill="#b43f3f" stroke="#b43f3f" points="57.741,-40.6853 48.7043,-35.1545 52.3196,-45.1135 57.741,-40.6853"/>
<text text-anchor="middle" x="101.397" y="-57.8" font-family="Times,serif" font-size="14.00">1 (97.6)</text>
</g>
<!-- 047 -->
<g id="node7" class="node"><title>047</title>
<ellipse fill="#ff8a8a" stroke="#b43f3f" cx="127.397" cy="-18" rx="36.2938" ry="18"/>
<text text-anchor="middle" x="127.397" y="-14.3" font-family="Times,serif" font-size="14.00">047 (a)</text>
</g>
<!-- 021&#45;&gt;047 -->
<g id="edge5" class="edge"><title>021&#45;&gt;047</title>
<path fill="none" stroke="#b43f3f" stroke-dasharray="1,5" d="M127.397,-86.799C127.397,-75.1626 127.397,-59.5479 127.397,-46.2368"/>
<polygon fill="#b43f3f" stroke="#b43f3f" points="130.897,-46.1754 127.397,-36.1754 123.897,-46.1755 130.897,-46.1754"/>
<text text-anchor="middle" x="149.397" y="-57.8" font-family="Times,serif" font-size="14.00">1 (95.1)</text>
</g>
<!-- 03 -->
<g id="node8" class="node"><title>03</title>
<ellipse fill="#ff8a8a" stroke="#b43f3f" cx="1001.4" cy="-279" rx="31.6951" ry="18"/>
<text text-anchor="middle" x="1001.4" y="-275.3" font-family="Times,serif" font-size="14.00">03 (a)</text>
</g>
<!-- 032 -->
<g id="node9" class="node"><title>032</title>
<ellipse fill="#ff8a8a" stroke="#b43f3f" cx="910.397" cy="-192" rx="36.2938" ry="18"/>
<text text-anchor="middle" x="910.397" y="-188.3" font-family="Times,serif" font-size="14.00">032 (a)</text>
</g>
<!-- 03&#45;&gt;032 -->
<g id="edge6" class="edge"><title>03&#45;&gt;032</title>
<path fill="none" stroke="#b43f3f" stroke-dasharray="1,5" d="M980.978,-264.672C972.134,-258.512 961.886,-250.834 953.397,-243 944.853,-235.115 936.321,-225.619 929.136,-217.029"/>
<polygon fill="#b43f3f" stroke="#b43f3f" points="931.741,-214.685 922.704,-209.155 926.32,-219.113 931.741,-214.685"/>
<text text-anchor="middle" x="975.397" y="-231.8" font-family="Times,serif" font-size="14.00">1 (91.7)</text>
</g>
<!-- 044 -->
<g id="node10" class="node"><title>044</title>
<ellipse fill="#ff8a8a" stroke="#b43f3f" cx="1001.4" cy="-192" rx="36.2938" ry="18"/>
<text text-anchor="middle" x="1001.4" y="-188.3" font-family="Times,serif" font-size="14.00">044 (a)</text>
</g>
<!-- 03&#45;&gt;044 -->
<g id="edge7" class="edge"><title>03&#45;&gt;044</title>
<path fill="none" stroke="#b43f3f" stroke-dasharray="1,5" d="M1001.4,-260.799C1001.4,-249.163 1001.4,-233.548 1001.4,-220.237"/>
<polygon fill="#b43f3f" stroke="#b43f3f" points="1004.9,-220.175 1001.4,-210.175 997.897,-220.175 1004.9,-220.175"/>
<text text-anchor="middle" x="1023.4" y="-231.8" font-family="Times,serif" font-size="14.00">1 (89.2)</text>
</g>
<!-- 02 -->
<g id="node11" class="node"><title>02</title>
<ellipse fill="#ff8a8a" stroke="#b43f3f" cx="1087.4" cy="-192" rx="31.6951" ry="18"/>
<text text-anchor="middle" x="1087.4" y="-188.3" font-family="Times,serif" font-size="14.00">02 (a)</text>
</g>
<!-- 03&#45;&gt;02 -->
<g id="edge8" class="edge"><title>03&#45;&gt;02</title>
<path fill="none" stroke="#b43f3f" stroke-dasharray="1,5" d="M1022.04,-264.912C1030.93,-258.796 1041.15,-251.086 1049.4,-243 1057.22,-235.329 1064.76,-225.975 1071.03,-217.442"/>
<polygon fill="#b43f3f" stroke="#b43f3f" points="1073.89,-219.452 1076.84,-209.275 1068.19,-215.394 1073.89,-219.452"/>
<text text-anchor="middle" x="1084.4" y="-231.8" font-family="Times,serif" font-size="14.00">1 (86.5)</text>
</g>
<!-- 022 -->
<g id="node25" class="node"><title>022</title>
<ellipse fill="#ff8a8a" stroke="#b43f3f" cx="954.397" cy="-105" rx="36.2938" ry="18"/>
<text text-anchor="middle" x="954.397" y="-101.3" font-family="Times,serif" font-size="14.00">022 (a)</text>
</g>
<!-- 044&#45;&gt;022 -->
<g id="edge22" class="edge"><title>044&#45;&gt;022</title>
<path fill="none" stroke="#b43f3f" stroke-dasharray="1,5" d="M992.111,-174.207C985.373,-162.021 976.137,-145.318 968.492,-131.491"/>
<polygon fill="#b43f3f" stroke="#b43f3f" points="971.405,-129.527 963.503,-122.469 965.279,-132.914 971.405,-129.527"/>
<text text-anchor="middle" x="1003.4" y="-144.8" font-family="Times,serif" font-size="14.00">1 (91.7)</text>
</g>
<!-- 0141 -->
<g id="node26" class="node"><title>0141</title>
<ellipse fill="#ff8a8a" stroke="#b43f3f" cx="1049.4" cy="-105" rx="40.0939" ry="18"/>
<text text-anchor="middle" x="1049.4" y="-101.3" font-family="Times,serif" font-size="14.00">0141 (a)</text>
</g>
<!-- 044&#45;&gt;0141 -->
<g id="edge23" class="edge"><title>044&#45;&gt;0141</title>
<path fill="none" stroke="#b43f3f" stroke-dasharray="1,5" d="M1014.36,-175.139C1018.79,-169.316 1023.59,-162.544 1027.4,-156 1031.69,-148.622 1035.68,-140.251 1039.05,-132.498"/>
<polygon fill="#b43f3f" stroke="#b43f3f" points="1042.34,-133.706 1042.97,-123.13 1035.89,-131.004 1042.34,-133.706"/>
<text text-anchor="middle" x="1057.4" y="-144.8" font-family="Times,serif" font-size="14.00">1 (89.2)</text>
</g>
<!-- 07 -->
<g id="node12" class="node"><title>07</title>
<ellipse fill="#ff8a8a" stroke="#b43f3f" cx="404.397" cy="-105" rx="31.6951" ry="18"/>
<text text-anchor="middle" x="404.397" y="-101.3" font-family="Times,serif" font-size="14.00">07 (a)</text>
</g>
<!-- 034 -->
<g id="node13" class="node"><title>034</title>
<ellipse fill="#ff8a8a" stroke="#b43f3f" cx="218.397" cy="-18" rx="36.2938" ry="18"/>
<text text-anchor="middle" x="218.397" y="-14.3" font-family="Times,serif" font-size="14.00">034 (a)</text>
</g>
<!-- 07&#45;&gt;034 -->
<g id="edge9" class="edge"><title>07&#45;&gt;034</title>
<path fill="none" stroke="#b43f3f" stroke-dasharray="1,5" d="M375.263,-97.2264C352.365,-91.3366 320.003,-81.7448 293.397,-69 276.45,-60.882 258.9,-49.3789 245.041,-39.4524"/>
<polygon fill="#b43f3f" stroke="#b43f3f" points="247.066,-36.597 236.928,-33.5199 242.934,-42.2476 247.066,-36.597"/>
<text text-anchor="middle" x="315.397" y="-57.8" font-family="Times,serif" font-size="14.00">1 (95.1)</text>
</g>
<!-- 037 -->
<g id="node14" class="node"><title>037</title>
<ellipse fill="#ff8a8a" stroke="#b43f3f" cx="309.397" cy="-18" rx="36.2938" ry="18"/>
<text text-anchor="middle" x="309.397" y="-14.3" font-family="Times,serif" font-size="14.00">037 (a)</text>
</g>
<!-- 07&#45;&gt;037 -->
<g id="edge10" class="edge"><title>07&#45;&gt;037</title>
<path fill="none" stroke="#b43f3f" stroke-dasharray="1,5" d="M384.611,-90.8221C375.694,-84.5722 365.211,-76.7806 356.397,-69 347.233,-60.9115 337.866,-51.2757 329.93,-42.6319"/>
<polygon fill="#b43f3f" stroke="#b43f3f" points="332.386,-40.1295 323.091,-35.0454 327.187,-44.8165 332.386,-40.1295"/>
<text text-anchor="middle" x="378.397" y="-57.8" font-family="Times,serif" font-size="14.00">1 (97.5)</text>
</g>
<!-- 0211 -->
<g id="node15" class="node"><title>0211</title>
<ellipse fill="#ff8a8a" stroke="#b43f3f" cx="404.397" cy="-18" rx="40.0939" ry="18"/>
<text text-anchor="middle" x="404.397" y="-14.3" font-family="Times,serif" font-size="14.00">0211 (a)</text>
</g>
<!-- 07&#45;&gt;0211 -->
<g id="edge11" class="edge"><title>07&#45;&gt;0211</title>
<path fill="none" stroke="#b43f3f" stroke-dasharray="1,5" d="M404.397,-86.799C404.397,-75.1626 404.397,-59.5479 404.397,-46.2368"/>
<polygon fill="#b43f3f" stroke="#b43f3f" points="407.897,-46.1754 404.397,-36.1754 400.897,-46.1755 407.897,-46.1754"/>
<text text-anchor="middle" x="426.397" y="-57.8" font-family="Times,serif" font-size="14.00">2 (82.9)</text>
</g>
<!-- 030 -->
<g id="node16" class="node"><title>030</title>
<ellipse fill="#ff8a8a" stroke="#b43f3f" cx="499.397" cy="-18" rx="36.2938" ry="18"/>
<text text-anchor="middle" x="499.397" y="-14.3" font-family="Times,serif" font-size="14.00">030 (a)</text>
</g>
<!-- 07&#45;&gt;030 -->
<g id="edge12" class="edge"><title>07&#45;&gt;030</title>
<path fill="none" stroke="#b43f3f" stroke-dasharray="1,5" d="M424.182,-90.8221C433.1,-84.5722 443.582,-76.7806 452.397,-69 461.56,-60.9115 470.927,-51.2757 478.863,-42.6319"/>
<polygon fill="#b43f3f" stroke="#b43f3f" points="481.606,-44.8165 485.702,-35.0454 476.407,-40.1295 481.606,-44.8165"/>
<text text-anchor="middle" x="490.397" y="-57.8" font-family="Times,serif" font-size="14.00">1 (95.1)</text>
</g>
<!-- 031 -->
<g id="node17" class="node"><title>031</title>
<ellipse fill="#ff8a8a" stroke="#b43f3f" cx="590.397" cy="-105" rx="36.2938" ry="18"/>
<text text-anchor="middle" x="590.397" y="-101.3" font-family="Times,serif" font-size="14.00">031 (a)</text>
</g>
<!-- 013 -->
<g id="node18" class="node"><title>013</title>
<ellipse fill="#ff8a8a" stroke="#b43f3f" cx="590.397" cy="-18" rx="36.2938" ry="18"/>
<text text-anchor="middle" x="590.397" y="-14.3" font-family="Times,serif" font-size="14.00">013 (a)</text>
</g>
<!-- 031&#45;&gt;013 -->
<g id="edge13" class="edge"><title>031&#45;&gt;013</title>
<path fill="none" stroke="#b43f3f" stroke-dasharray="1,5" d="M590.397,-86.799C590.397,-75.1626 590.397,-59.5479 590.397,-46.2368"/>
<polygon fill="#b43f3f" stroke="#b43f3f" points="593.897,-46.1754 590.397,-36.1754 586.897,-46.1755 593.897,-46.1754"/>
<text text-anchor="middle" x="612.397" y="-57.8" font-family="Times,serif" font-size="14.00">1 (97.1)</text>
</g>
<!-- 017 -->
<g id="node19" class="node"><title>017</title>
<ellipse fill="#ff8a8a" stroke="#b43f3f" cx="681.397" cy="-18" rx="36.2938" ry="18"/>
<text text-anchor="middle" x="681.397" y="-14.3" font-family="Times,serif" font-size="14.00">017 (a)</text>
</g>
<!-- 031&#45;&gt;017 -->
<g id="edge14" class="edge"><title>031&#45;&gt;017</title>
<path fill="none" stroke="#b43f3f" stroke-dasharray="1,5" d="M611.768,-90.006C620.389,-83.9634 630.211,-76.5539 638.397,-69 646.941,-61.1154 655.472,-51.6186 662.657,-43.0293"/>
<polygon fill="#b43f3f" stroke="#b43f3f" points="665.474,-45.1135 669.089,-35.1545 660.053,-40.6853 665.474,-45.1135"/>
<text text-anchor="middle" x="674.397" y="-57.8" font-family="Times,serif" font-size="14.00">1 (94.3)</text>
</g>
<!-- 063 -->
<g id="node20" class="node"><title>063</title>
<ellipse fill="#ff8a8a" stroke="#b43f3f" cx="635.397" cy="-192" rx="36.2938" ry="18"/>
<text text-anchor="middle" x="635.397" y="-188.3" font-family="Times,serif" font-size="14.00">063 (a)</text>
</g>
<!-- 063&#45;&gt;021 -->
<g id="edge15" class="edge"><title>063&#45;&gt;021</title>
<path fill="none" stroke="#b43f3f" stroke-dasharray="1,5" d="M609.079,-179.174C603.955,-177.208 598.568,-175.368 593.397,-174 534.878,-158.522 518.325,-164.521 458.397,-156 355.656,-141.392 235.206,-122.837 171.734,-112.948"/>
<polygon fill="#b43f3f" stroke="#b43f3f" points="172.096,-109.462 161.676,-111.379 171.017,-116.378 172.096,-109.462"/>
<text text-anchor="middle" x="480.397" y="-144.8" font-family="Times,serif" font-size="14.00">1 (93.1)</text>
</g>
<!-- 063&#45;&gt;07 -->
<g id="edge16" class="edge"><title>063&#45;&gt;07</title>
<path fill="none" stroke="#b43f3f" stroke-dasharray="1,5" d="M608.347,-179.87C603.387,-177.881 598.247,-175.853 593.397,-174 540.469,-153.776 478.592,-131.832 440.446,-118.497"/>
<polygon fill="#b43f3f" stroke="#b43f3f" points="441.407,-115.125 430.812,-115.136 439.101,-121.735 441.407,-115.125"/>
<text text-anchor="middle" x="564.397" y="-144.8" font-family="Times,serif" font-size="14.00">1 (96.6)</text>
</g>
<!-- 063&#45;&gt;031 -->
<g id="edge17" class="edge"><title>063&#45;&gt;031</title>
<path fill="none" stroke="#b43f3f" stroke-dasharray="1,5" d="M621.982,-174.896C617.605,-169.16 612.96,-162.506 609.397,-156 605.427,-148.751 601.921,-140.499 599.036,-132.818"/>
<polygon fill="#b43f3f" stroke="#b43f3f" points="602.259,-131.434 595.615,-123.181 595.662,-133.776 602.259,-131.434"/>
<text text-anchor="middle" x="631.397" y="-144.8" font-family="Times,serif" font-size="14.00">1 (95.8)</text>
</g>
<!-- 045 -->
<g id="node21" class="node"><title>045</title>
<ellipse fill="#ff8a8a" stroke="#b43f3f" cx="681.397" cy="-105" rx="36.2938" ry="18"/>
<text text-anchor="middle" x="681.397" y="-101.3" font-family="Times,serif" font-size="14.00">045 (a)</text>
</g>
<!-- 063&#45;&gt;045 -->
<g id="edge18" class="edge"><title>063&#45;&gt;045</title>
<path fill="none" stroke="#b43f3f" stroke-dasharray="1,5" d="M644.485,-174.207C651.08,-162.021 660.119,-145.318 667.602,-131.491"/>
<polygon fill="#b43f3f" stroke="#b43f3f" points="670.803,-132.93 672.484,-122.469 664.646,-129.598 670.803,-132.93"/>
<text text-anchor="middle" x="683.397" y="-144.8" font-family="Times,serif" font-size="14.00">1 (93.1)</text>
</g>
<!-- 011 -->
<g id="node22" class="node"><title>011</title>
<ellipse fill="#ff8a8a" stroke="#b43f3f" cx="772.397" cy="-105" rx="36.2938" ry="18"/>
<text text-anchor="middle" x="772.397" y="-101.3" font-family="Times,serif" font-size="14.00">011 (a)</text>
</g>
<!-- 063&#45;&gt;011 -->
<g id="edge19" class="edge"><title>063&#45;&gt;011</title>
<path fill="none" stroke="#b43f3f" stroke-dasharray="1,5" d="M662.544,-179.95C676.89,-173.671 694.552,-165.231 709.397,-156 722.755,-147.693 736.557,-137.014 747.825,-127.66"/>
<polygon fill="#b43f3f" stroke="#b43f3f" points="750.164,-130.266 755.539,-121.136 745.644,-124.921 750.164,-130.266"/>
<text text-anchor="middle" x="751.397" y="-144.8" font-family="Times,serif" font-size="14.00">1 (93.1)</text>
</g>
<!-- 028 -->
<g id="node23" class="node"><title>028</title>
<ellipse fill="#ff8a8a" stroke="#b43f3f" cx="863.397" cy="-105" rx="36.2938" ry="18"/>
<text text-anchor="middle" x="863.397" y="-101.3" font-family="Times,serif" font-size="14.00">028 (a)</text>
</g>
<!-- 063&#45;&gt;028 -->
<g id="edge20" class="edge"><title>063&#45;&gt;028</title>
<path fill="none" stroke="#b43f3f" stroke-dasharray="1,5" d="M669.527,-185.418C698.834,-179.964 741.851,-170.368 777.397,-156 797.392,-147.918 818.343,-135.823 834.56,-125.554"/>
<polygon fill="#b43f3f" stroke="#b43f3f" points="836.544,-128.439 843.046,-120.074 832.747,-122.558 836.544,-128.439"/>
<text text-anchor="middle" x="829.397" y="-144.8" font-family="Times,serif" font-size="14.00">1 (96.6)</text>
</g>
<!-- 038 -->
<g id="node24" class="node"><title>038</title>
<ellipse fill="#ff8a8a" stroke="#b43f3f" cx="772.397" cy="-18" rx="36.2938" ry="18"/>
<text text-anchor="middle" x="772.397" y="-14.3" font-family="Times,serif" font-size="14.00">038 (a)</text>
</g>
<!-- 045&#45;&gt;038 -->
<g id="edge21" class="edge"><title>045&#45;&gt;038</title>
<path fill="none" stroke="#b43f3f" stroke-dasharray="1,5" d="M697.666,-88.8037C711.812,-75.5898 732.497,-56.2693 748.52,-41.3029"/>
<polygon fill="#b43f3f" stroke="#b43f3f" points="751.043,-43.7352 755.962,-34.3513 746.265,-38.6196 751.043,-43.7352"/>
<text text-anchor="middle" x="754.397" y="-57.8" font-family="Times,serif" font-size="14.00">1 (92.7)</text>
</g>
<!-- 019 -->
<g id="node27" class="node"><title>019</title>
<ellipse fill="#ff8a8a" stroke="#b43f3f" cx="635.397" cy="-279" rx="36.2938" ry="18"/>
<text text-anchor="middle" x="635.397" y="-275.3" font-family="Times,serif" font-size="14.00">019 (a)</text>
</g>
<!-- 019&#45;&gt;063 -->
<g id="edge24" class="edge"><title>019&#45;&gt;063</title>
<path fill="none" stroke="#b43f3f" stroke-dasharray="1,5" d="M635.397,-260.799C635.397,-249.163 635.397,-233.548 635.397,-220.237"/>
<polygon fill="#b43f3f" stroke="#b43f3f" points="638.897,-220.175 635.397,-210.175 631.897,-220.175 638.897,-220.175"/>
<text text-anchor="middle" x="657.397" y="-231.8" font-family="Times,serif" font-size="14.00">1 (85.7)</text>
</g>
<!-- P75 -->
<g id="node28" class="node"><title>P75</title>
<ellipse fill="#ff8a8a" stroke="#b43f3f" cx="1087.4" cy="-279" rx="36.2938" ry="18"/>
<text text-anchor="middle" x="1087.4" y="-275.3" font-family="Times,serif" font-size="14.00">P75 (a)</text>
</g>
<!-- 01 -->
<g id="node29" class="node"><title>01</title>
<ellipse fill="#cea8f4" stroke="#835da9" cx="1174.4" cy="-279" rx="32.4942" ry="18"/>
<text text-anchor="middle" x="1174.4" y="-275.3" font-family="Times,serif" font-size="14.00">01 (b)</text>
</g>
</g>
</svg>
