<?xml version="1.0" encoding="UTF-8" standalone="no"?>
<!DOCTYPE svg PUBLIC "-//W3C//DTD SVG 1.1//EN"
 "http://www.w3.org/Graphics/SVG/1.1/DTD/svg11.dtd">
<!-- Generated by graphviz version 2.38.0 (20140413.2041)
 -->
<!-- Title: %3 Pages: 1 -->
<svg width="1070pt" height="424pt"
 viewBox="0.00 0.00 1070.00 424.00" xmlns="http://www.w3.org/2000/svg" xmlns:xlink="http://www.w3.org/1999/xlink">
<g id="graph0" class="graph" transform="scale(1 1) rotate(0) translate(4 420)">
<title>%3</title>
<polygon fill="white" stroke="none" points="-4,4 -4,-420 1066,-420 1066,4 -4,4"/>
<g id="clust1" class="cluster"><title>cluster_reading</title>
<polygon fill="none" stroke="black" points="8,-8 8,-408 832,-408 832,-8 8,-8"/>
</g>
<g id="clust2" class="cluster"><title>cluster_legend</title>
<path fill="none" stroke="black" d="M852,-280C852,-280 1042,-280 1042,-280 1048,-280 1054,-286 1054,-292 1054,-292 1054,-396 1054,-396 1054,-402 1048,-408 1042,-408 1042,-408 852,-408 852,-408 846,-408 840,-402 840,-396 840,-396 840,-292 840,-292 840,-286 846,-280 852,-280"/>
</g>
<!-- 021 -->
<g id="node1" class="node"><title>021</title>
<ellipse fill="#ff8a8a" stroke="#b43f3f" cx="242" cy="-121" rx="36.2938" ry="18"/>
<text text-anchor="middle" x="242" y="-117.3" font-family="Times,serif" font-size="14.00">021 (a)</text>
</g>
<!-- 036 -->
<g id="node2" class="node"><title>036</title>
<ellipse fill="#ff8a8a" stroke="#b43f3f" cx="52" cy="-34" rx="36.2938" ry="18"/>
<text text-anchor="middle" x="52" y="-30.3" font-family="Times,serif" font-size="14.00">036 (a)</text>
</g>
<!-- 021&#45;&gt;036 -->
<g id="edge1" class="edge"><title>021&#45;&gt;036</title>
<path fill="none" stroke="#b43f3f" stroke-dasharray="1,5" d="M213.932,-109.127C208.045,-106.987 201.848,-104.838 196,-103 165.766,-93.4952 155.918,-97.9692 127,-85 109.854,-77.3104 92.2921,-65.8339 78.4766,-55.8148"/>
<polygon fill="#b43f3f" stroke="#b43f3f" points="80.5103,-52.9655 70.3958,-49.8117 76.3359,-58.5847 80.5103,-52.9655"/>
<text text-anchor="middle" x="149" y="-73.8" font-family="Times,serif" font-size="14.00">1 (97.6)</text>
</g>
<!-- 047 -->
<g id="node3" class="node"><title>047</title>
<ellipse fill="#ff8a8a" stroke="#b43f3f" cx="143" cy="-34" rx="36.2938" ry="18"/>
<text text-anchor="middle" x="143" y="-30.3" font-family="Times,serif" font-size="14.00">047 (a)</text>
</g>
<!-- 021&#45;&gt;047 -->
<g id="edge2" class="edge"><title>021&#45;&gt;047</title>
<path fill="none" stroke="#b43f3f" stroke-dasharray="1,5" d="M219.483,-106.836C209.723,-100.706 198.403,-93.0063 189,-85 179.786,-77.1548 170.569,-67.5674 162.832,-58.8941"/>
<polygon fill="#b43f3f" stroke="#b43f3f" points="165.392,-56.504 156.185,-51.262 160.113,-61.1015 165.392,-56.504"/>
<text text-anchor="middle" x="211" y="-73.8" font-family="Times,serif" font-size="14.00">1 (95.1)</text>
</g>
<!-- A -->
<g id="node4" class="node"><title>A</title>
<ellipse fill="#ff8a8a" stroke="#b43f3f" cx="408" cy="-382" rx="29.4969" ry="18"/>
<text text-anchor="middle" x="408" y="-378.3" font-family="Times,serif" font-size="14.00">A (a)</text>
</g>
<!-- 03 -->
<g id="node5" class="node"><title>03</title>
<ellipse fill="#ff8a8a" stroke="#b43f3f" cx="259" cy="-295" rx="31.6951" ry="18"/>
<text text-anchor="middle" x="259" y="-291.3" font-family="Times,serif" font-size="14.00">03 (a)</text>
</g>
<!-- A&#45;&gt;03 -->
<g id="edge3" class="edge"><title>A&#45;&gt;03</title>
<path fill="none" stroke="#b43f3f" stroke-dasharray="1,5" d="M384.56,-370.971C369.782,-364.391 350.451,-355.308 334,-346 317.645,-336.746 300.132,-325.173 286.146,-315.492"/>
<polygon fill="#b43f3f" stroke="#b43f3f" points="288.134,-312.612 277.935,-309.746 284.121,-318.347 288.134,-312.612"/>
<text text-anchor="middle" x="356" y="-334.8" font-family="Times,serif" font-size="14.00">1 (93.3)</text>
</g>
<!-- 019 -->
<g id="node6" class="node"><title>019</title>
<ellipse fill="#ff8a8a" stroke="#b43f3f" cx="369" cy="-295" rx="36.2938" ry="18"/>
<text text-anchor="middle" x="369" y="-291.3" font-family="Times,serif" font-size="14.00">019 (a)</text>
</g>
<!-- A&#45;&gt;019 -->
<g id="edge4" class="edge"><title>A&#45;&gt;019</title>
<path fill="none" stroke="#b43f3f" stroke-dasharray="1,5" d="M398.1,-364.899C394.694,-359.053 390.988,-352.328 388,-346 384.471,-338.527 381.1,-330.206 378.202,-322.531"/>
<polygon fill="#b43f3f" stroke="#b43f3f" points="381.416,-321.128 374.694,-312.939 374.842,-323.533 381.416,-321.128"/>
<text text-anchor="middle" x="410" y="-334.8" font-family="Times,serif" font-size="14.00">1 (93.3)</text>
</g>
<!-- P75 -->
<g id="node7" class="node"><title>P75</title>
<ellipse fill="#ff8a8a" stroke="#b43f3f" cx="460" cy="-295" rx="36.2938" ry="18"/>
<text text-anchor="middle" x="460" y="-291.3" font-family="Times,serif" font-size="14.00">P75 (a)</text>
</g>
<!-- A&#45;&gt;P75 -->
<g id="edge5" class="edge"><title>A&#45;&gt;P75</title>
<path fill="none" stroke="#b43f3f" stroke-dasharray="1,5" d="M419.301,-365.172C423.42,-359.237 428.035,-352.384 432,-346 436.829,-338.225 441.804,-329.58 446.195,-321.696"/>
<polygon fill="#b43f3f" stroke="#b43f3f" points="449.288,-323.336 451.039,-312.887 443.154,-319.963 449.288,-323.336"/>
<text text-anchor="middle" x="463" y="-334.8" font-family="Times,serif" font-size="14.00">1 (93.3)</text>
</g>
<!-- 05 -->
<g id="node8" class="node"><title>05</title>
<ellipse fill="#ff8a8a" stroke="#b43f3f" cx="546" cy="-295" rx="31.6951" ry="18"/>
<text text-anchor="middle" x="546" y="-291.3" font-family="Times,serif" font-size="14.00">05 (a)</text>
</g>
<!-- A&#45;&gt;05 -->
<g id="edge6" class="edge"><title>A&#45;&gt;05</title>
<path fill="none" stroke="#b43f3f" stroke-dasharray="1,5" d="M433.101,-372.48C449.632,-366.319 471.392,-357.137 489,-346 501.29,-338.227 513.587,-327.852 523.596,-318.568"/>
<polygon fill="#b43f3f" stroke="#b43f3f" points="526.265,-320.859 531.09,-311.427 521.436,-315.792 526.265,-320.859"/>
<text text-anchor="middle" x="532" y="-334.8" font-family="Times,serif" font-size="14.00">2 (76.9)</text>
</g>
<!-- 044 -->
<g id="node9" class="node"><title>044</title>
<ellipse fill="#ff8a8a" stroke="#b43f3f" cx="151" cy="-208" rx="36.2938" ry="18"/>
<text text-anchor="middle" x="151" y="-204.3" font-family="Times,serif" font-size="14.00">044 (a)</text>
</g>
<!-- 03&#45;&gt;044 -->
<g id="edge7" class="edge"><title>03&#45;&gt;044</title>
<path fill="none" stroke="#b43f3f" stroke-dasharray="1,5" d="M236.856,-281.966C225.973,-275.667 212.891,-267.506 202,-259 191.721,-250.972 181.279,-241.099 172.543,-232.254"/>
<polygon fill="#b43f3f" stroke="#b43f3f" points="174.819,-229.573 165.352,-224.817 169.787,-234.439 174.819,-229.573"/>
<text text-anchor="middle" x="224" y="-247.8" font-family="Times,serif" font-size="14.00">1 (89.2)</text>
</g>
<!-- 02 -->
<g id="node10" class="node"><title>02</title>
<ellipse fill="#ff8a8a" stroke="#b43f3f" cx="242" cy="-208" rx="31.6951" ry="18"/>
<text text-anchor="middle" x="242" y="-204.3" font-family="Times,serif" font-size="14.00">02 (a)</text>
</g>
<!-- 03&#45;&gt;02 -->
<g id="edge8" class="edge"><title>03&#45;&gt;02</title>
<path fill="none" stroke="#b43f3f" stroke-dasharray="1,5" d="M255.56,-276.799C253.233,-265.163 250.11,-249.548 247.447,-236.237"/>
<polygon fill="#b43f3f" stroke="#b43f3f" points="250.828,-235.295 245.435,-226.175 243.964,-236.668 250.828,-235.295"/>
<text text-anchor="middle" x="274" y="-247.8" font-family="Times,serif" font-size="14.00">1 (86.5)</text>
</g>
<!-- 032 -->
<g id="node11" class="node"><title>032</title>
<ellipse fill="#ff8a8a" stroke="#b43f3f" cx="328" cy="-208" rx="36.2938" ry="18"/>
<text text-anchor="middle" x="328" y="-204.3" font-family="Times,serif" font-size="14.00">032 (a)</text>
</g>
<!-- 03&#45;&gt;032 -->
<g id="edge9" class="edge"><title>03&#45;&gt;032</title>
<path fill="none" stroke="#b43f3f" stroke-dasharray="1,5" d="M277.835,-280.265C285.288,-274.263 293.587,-266.813 300,-259 305.989,-251.704 311.385,-242.949 315.804,-234.817"/>
<polygon fill="#b43f3f" stroke="#b43f3f" points="319.042,-236.175 320.521,-225.684 312.823,-232.963 319.042,-236.175"/>
<text text-anchor="middle" x="332" y="-247.8" font-family="Times,serif" font-size="14.00">1 (91.7)</text>
</g>
<!-- 063 -->
<g id="node12" class="node"><title>063</title>
<ellipse fill="#ff8a8a" stroke="#b43f3f" cx="424" cy="-208" rx="36.2938" ry="18"/>
<text text-anchor="middle" x="424" y="-204.3" font-family="Times,serif" font-size="14.00">063 (a)</text>
</g>
<!-- 019&#45;&gt;063 -->
<g id="edge16" class="edge"><title>019&#45;&gt;063</title>
<path fill="none" stroke="#b43f3f" stroke-dasharray="1,5" d="M379.605,-277.611C387.594,-265.264 398.689,-248.117 407.789,-234.053"/>
<polygon fill="#b43f3f" stroke="#b43f3f" points="410.934,-235.636 413.428,-225.339 405.057,-231.833 410.934,-235.636"/>
<text text-anchor="middle" x="422" y="-247.8" font-family="Times,serif" font-size="14.00">1 (85.7)</text>
</g>
<!-- 0141 -->
<g id="node24" class="node"><title>0141</title>
<ellipse fill="#ff8a8a" stroke="#b43f3f" cx="56" cy="-121" rx="40.0939" ry="18"/>
<text text-anchor="middle" x="56" y="-117.3" font-family="Times,serif" font-size="14.00">0141 (a)</text>
</g>
<!-- 044&#45;&gt;0141 -->
<g id="edge23" class="edge"><title>044&#45;&gt;0141</title>
<path fill="none" stroke="#b43f3f" stroke-dasharray="1,5" d="M130.27,-193.159C121.564,-187.025 111.505,-179.508 103,-172 93.8366,-163.911 84.4693,-154.276 76.5333,-145.632"/>
<polygon fill="#b43f3f" stroke="#b43f3f" points="78.9897,-143.129 69.6943,-138.045 73.7904,-147.816 78.9897,-143.129"/>
<text text-anchor="middle" x="125" y="-160.8" font-family="Times,serif" font-size="14.00">1 (89.2)</text>
</g>
<!-- 022 -->
<g id="node25" class="node"><title>022</title>
<ellipse fill="#ff8a8a" stroke="#b43f3f" cx="151" cy="-121" rx="36.2938" ry="18"/>
<text text-anchor="middle" x="151" y="-117.3" font-family="Times,serif" font-size="14.00">022 (a)</text>
</g>
<!-- 044&#45;&gt;022 -->
<g id="edge24" class="edge"><title>044&#45;&gt;022</title>
<path fill="none" stroke="#b43f3f" stroke-dasharray="1,5" d="M151,-189.799C151,-178.163 151,-162.548 151,-149.237"/>
<polygon fill="#b43f3f" stroke="#b43f3f" points="154.5,-149.175 151,-139.175 147.5,-149.175 154.5,-149.175"/>
<text text-anchor="middle" x="173" y="-160.8" font-family="Times,serif" font-size="14.00">1 (91.7)</text>
</g>
<!-- 063&#45;&gt;021 -->
<g id="edge10" class="edge"><title>063&#45;&gt;021</title>
<path fill="none" stroke="#b43f3f" stroke-dasharray="1,5" d="M394.638,-197.097C387.562,-194.742 380.019,-192.259 373,-190 347.307,-181.732 339.295,-183.758 315,-172 298.667,-164.095 281.864,-152.84 268.502,-143.009"/>
<polygon fill="#b43f3f" stroke="#b43f3f" points="270.353,-140.021 260.258,-136.804 266.143,-145.614 270.353,-140.021"/>
<text text-anchor="middle" x="337" y="-160.8" font-family="Times,serif" font-size="14.00">1 (93.1)</text>
</g>
<!-- 011 -->
<g id="node13" class="node"><title>011</title>
<ellipse fill="#ff8a8a" stroke="#b43f3f" cx="333" cy="-121" rx="36.2938" ry="18"/>
<text text-anchor="middle" x="333" y="-117.3" font-family="Times,serif" font-size="14.00">011 (a)</text>
</g>
<!-- 063&#45;&gt;011 -->
<g id="edge11" class="edge"><title>063&#45;&gt;011</title>
<path fill="none" stroke="#b43f3f" stroke-dasharray="1,5" d="M402.628,-193.006C394.008,-186.963 384.186,-179.554 376,-172 367.456,-164.115 358.924,-154.619 351.74,-146.029"/>
<polygon fill="#b43f3f" stroke="#b43f3f" points="354.344,-143.685 345.308,-138.155 348.923,-148.113 354.344,-143.685"/>
<text text-anchor="middle" x="398" y="-160.8" font-family="Times,serif" font-size="14.00">1 (93.1)</text>
</g>
<!-- 031 -->
<g id="node14" class="node"><title>031</title>
<ellipse fill="#ff8a8a" stroke="#b43f3f" cx="424" cy="-121" rx="36.2938" ry="18"/>
<text text-anchor="middle" x="424" y="-117.3" font-family="Times,serif" font-size="14.00">031 (a)</text>
</g>
<!-- 063&#45;&gt;031 -->
<g id="edge12" class="edge"><title>063&#45;&gt;031</title>
<path fill="none" stroke="#b43f3f" stroke-dasharray="1,5" d="M424,-189.799C424,-178.163 424,-162.548 424,-149.237"/>
<polygon fill="#b43f3f" stroke="#b43f3f" points="427.5,-149.175 424,-139.175 420.5,-149.175 427.5,-149.175"/>
<text text-anchor="middle" x="446" y="-160.8" font-family="Times,serif" font-size="14.00">1 (95.8)</text>
</g>
<!-- 07 -->
<g id="node15" class="node"><title>07</title>
<ellipse fill="#ff8a8a" stroke="#b43f3f" cx="510" cy="-121" rx="31.6951" ry="18"/>
<text text-anchor="middle" x="510" y="-117.3" font-family="Times,serif" font-size="14.00">07 (a)</text>
</g>
<!-- 063&#45;&gt;07 -->
<g id="edge13" class="edge"><title>063&#45;&gt;07</title>
<path fill="none" stroke="#b43f3f" stroke-dasharray="1,5" d="M445.604,-193.25C454.26,-187.245 464.046,-179.798 472,-172 479.825,-164.329 487.362,-154.975 493.632,-146.442"/>
<polygon fill="#b43f3f" stroke="#b43f3f" points="496.497,-148.452 499.443,-138.275 490.794,-144.394 496.497,-148.452"/>
<text text-anchor="middle" x="507" y="-160.8" font-family="Times,serif" font-size="14.00">1 (96.6)</text>
</g>
<!-- 045 -->
<g id="node16" class="node"><title>045</title>
<ellipse fill="#ff8a8a" stroke="#b43f3f" cx="596" cy="-121" rx="36.2938" ry="18"/>
<text text-anchor="middle" x="596" y="-117.3" font-family="Times,serif" font-size="14.00">045 (a)</text>
</g>
<!-- 063&#45;&gt;045 -->
<g id="edge14" class="edge"><title>063&#45;&gt;045</title>
<path fill="none" stroke="#b43f3f" stroke-dasharray="1,5" d="M456.708,-199.786C479.025,-194.088 508.81,-184.927 533,-172 547.072,-164.48 561.134,-153.712 572.39,-144.093"/>
<polygon fill="#b43f3f" stroke="#b43f3f" points="574.854,-146.588 580.051,-137.355 570.231,-141.331 574.854,-146.588"/>
<text text-anchor="middle" x="578" y="-160.8" font-family="Times,serif" font-size="14.00">1 (93.1)</text>
</g>
<!-- 028 -->
<g id="node17" class="node"><title>028</title>
<ellipse fill="#ff8a8a" stroke="#b43f3f" cx="687" cy="-121" rx="36.2938" ry="18"/>
<text text-anchor="middle" x="687" y="-117.3" font-family="Times,serif" font-size="14.00">028 (a)</text>
</g>
<!-- 063&#45;&gt;028 -->
<g id="edge15" class="edge"><title>063&#45;&gt;028</title>
<path fill="none" stroke="#b43f3f" stroke-dasharray="1,5" d="M459.514,-203.796C496.568,-199.61 555.863,-190.511 604,-172 623.426,-164.53 643.46,-152.602 658.979,-142.27"/>
<polygon fill="#b43f3f" stroke="#b43f3f" points="661.268,-144.945 667.555,-136.417 657.322,-139.163 661.268,-144.945"/>
<text text-anchor="middle" x="658" y="-160.8" font-family="Times,serif" font-size="14.00">1 (96.6)</text>
</g>
<!-- 017 -->
<g id="node18" class="node"><title>017</title>
<ellipse fill="#ff8a8a" stroke="#b43f3f" cx="234" cy="-34" rx="36.2938" ry="18"/>
<text text-anchor="middle" x="234" y="-30.3" font-family="Times,serif" font-size="14.00">017 (a)</text>
</g>
<!-- 031&#45;&gt;017 -->
<g id="edge17" class="edge"><title>031&#45;&gt;017</title>
<path fill="none" stroke="#b43f3f" stroke-dasharray="1,5" d="M395.857,-109.356C389.975,-107.2 383.799,-104.986 378,-103 352.866,-94.3929 345.325,-95.6809 321,-85 301.216,-76.3129 280.18,-64.3067 263.75,-54.2367"/>
<polygon fill="#b43f3f" stroke="#b43f3f" points="265.473,-51.1864 255.133,-48.8749 261.774,-57.1297 265.473,-51.1864"/>
<text text-anchor="middle" x="343" y="-73.8" font-family="Times,serif" font-size="14.00">1 (94.3)</text>
</g>
<!-- 013 -->
<g id="node19" class="node"><title>013</title>
<ellipse fill="#ff8a8a" stroke="#b43f3f" cx="325" cy="-34" rx="36.2938" ry="18"/>
<text text-anchor="middle" x="325" y="-30.3" font-family="Times,serif" font-size="14.00">013 (a)</text>
</g>
<!-- 031&#45;&gt;013 -->
<g id="edge18" class="edge"><title>031&#45;&gt;013</title>
<path fill="none" stroke="#b43f3f" stroke-dasharray="1,5" d="M406.301,-104.804C390.674,-91.3869 367.715,-71.6744 350.177,-56.6164"/>
<polygon fill="#b43f3f" stroke="#b43f3f" points="352.413,-53.9235 342.546,-50.0647 347.853,-59.2345 352.413,-53.9235"/>
<text text-anchor="middle" x="403" y="-73.8" font-family="Times,serif" font-size="14.00">1 (97.1)</text>
</g>
<!-- 030 -->
<g id="node20" class="node"><title>030</title>
<ellipse fill="#ff8a8a" stroke="#b43f3f" cx="416" cy="-34" rx="36.2938" ry="18"/>
<text text-anchor="middle" x="416" y="-30.3" font-family="Times,serif" font-size="14.00">030 (a)</text>
</g>
<!-- 07&#45;&gt;030 -->
<g id="edge19" class="edge"><title>07&#45;&gt;030</title>
<path fill="none" stroke="#b43f3f" stroke-dasharray="1,5" d="M489.7,-106.969C480.577,-100.749 469.888,-92.9398 461,-85 452.065,-77.0179 443.064,-67.4032 435.485,-58.7465"/>
<polygon fill="#b43f3f" stroke="#b43f3f" points="438.132,-56.4564 428.968,-51.1401 432.816,-61.0111 438.132,-56.4564"/>
<text text-anchor="middle" x="483" y="-73.8" font-family="Times,serif" font-size="14.00">1 (95.1)</text>
</g>
<!-- 034 -->
<g id="node21" class="node"><title>034</title>
<ellipse fill="#ff8a8a" stroke="#b43f3f" cx="507" cy="-34" rx="36.2938" ry="18"/>
<text text-anchor="middle" x="507" y="-30.3" font-family="Times,serif" font-size="14.00">034 (a)</text>
</g>
<!-- 07&#45;&gt;034 -->
<g id="edge20" class="edge"><title>07&#45;&gt;034</title>
<path fill="none" stroke="#b43f3f" stroke-dasharray="1,5" d="M509.393,-102.799C508.982,-91.1626 508.431,-75.5479 507.961,-62.2368"/>
<polygon fill="#b43f3f" stroke="#b43f3f" points="511.457,-62.0457 507.606,-52.1754 504.461,-62.2927 511.457,-62.0457"/>
<text text-anchor="middle" x="531" y="-73.8" font-family="Times,serif" font-size="14.00">1 (95.1)</text>
</g>
<!-- 037 -->
<g id="node22" class="node"><title>037</title>
<ellipse fill="#ff8a8a" stroke="#b43f3f" cx="598" cy="-34" rx="36.2938" ry="18"/>
<text text-anchor="middle" x="598" y="-30.3" font-family="Times,serif" font-size="14.00">037 (a)</text>
</g>
<!-- 07&#45;&gt;037 -->
<g id="edge21" class="edge"><title>07&#45;&gt;037</title>
<path fill="none" stroke="#b43f3f" stroke-dasharray="1,5" d="M530.059,-106.703C538.73,-100.549 548.757,-92.8667 557,-85 565.162,-77.211 573.234,-67.8317 580.029,-59.3112"/>
<polygon fill="#b43f3f" stroke="#b43f3f" points="582.985,-61.2121 586.355,-51.1676 577.456,-56.918 582.985,-61.2121"/>
<text text-anchor="middle" x="593" y="-73.8" font-family="Times,serif" font-size="14.00">1 (97.5)</text>
</g>
<!-- 0211 -->
<g id="node23" class="node"><title>0211</title>
<ellipse fill="#ff8a8a" stroke="#b43f3f" cx="693" cy="-34" rx="40.0939" ry="18"/>
<text text-anchor="middle" x="693" y="-30.3" font-family="Times,serif" font-size="14.00">0211 (a)</text>
</g>
<!-- 07&#45;&gt;0211 -->
<g id="edge22" class="edge"><title>07&#45;&gt;0211</title>
<path fill="none" stroke="#b43f3f" stroke-dasharray="1,5" d="M534.512,-109.209C539.893,-107.016 545.598,-104.826 551,-103 580.617,-92.9903 590.537,-97.9329 619,-85 635.675,-77.4234 652.717,-66.1932 666.237,-56.2942"/>
<polygon fill="#b43f3f" stroke="#b43f3f" points="668.679,-58.8371 674.574,-50.0333 664.476,-53.2398 668.679,-58.8371"/>
<text text-anchor="middle" x="667" y="-73.8" font-family="Times,serif" font-size="14.00">2 (82.9)</text>
</g>
<!-- 038 -->
<g id="node26" class="node"><title>038</title>
<ellipse fill="#ff8a8a" stroke="#b43f3f" cx="788" cy="-34" rx="36.2938" ry="18"/>
<text text-anchor="middle" x="788" y="-30.3" font-family="Times,serif" font-size="14.00">038 (a)</text>
</g>
<!-- 045&#45;&gt;038 -->
<g id="edge25" class="edge"><title>045&#45;&gt;038</title>
<path fill="none" stroke="#b43f3f" stroke-dasharray="1,5" d="M624.195,-109.505C630.073,-107.339 636.235,-105.083 642,-103 664.607,-94.8336 670.973,-94.6229 693,-85 714.525,-75.5962 737.881,-63.3331 756.048,-53.3053"/>
<polygon fill="#b43f3f" stroke="#b43f3f" points="758.009,-56.2193 765.039,-48.2921 754.6,-50.1056 758.009,-56.2193"/>
<text text-anchor="middle" x="745" y="-73.8" font-family="Times,serif" font-size="14.00">1 (92.7)</text>
</g>
<!-- leg_s -->
<g id="node27" class="node"><title>leg_s</title>
<text text-anchor="middle" x="947" y="-378.3" font-family="Times,serif" font-size="14.00">Textual flow strength</text>
</g>
<!-- leg_e1 -->
<!-- leg_s&#45;&gt;leg_e1 -->
<g id="edge26" class="edge"><title>leg_s&#45;&gt;leg_e1</title>
<path fill="none" stroke="black" stroke-dasharray="1,5" d="M928.666,-363.686C923.132,-358.194 917.161,-351.989 912,-346 902.171,-334.593 892.072,-320.779 884.914,-310.563"/>
<polygon fill="black" stroke="black" points="887.614,-308.314 879.056,-302.068 881.851,-312.288 887.614,-308.314"/>
<text text-anchor="middle" x="927.5" y="-334.8" font-family="Times,serif" font-size="14.00">&lt;=5 &#160;</text>
</g>
<!-- leg_e2 -->
<!-- leg_s&#45;&gt;leg_e2 -->
<g id="edge27" class="edge"><title>leg_s&#45;&gt;leg_e2</title>
<path fill="none" stroke="black" stroke-dasharray="5,2" d="M947,-363.799C947,-348.794 947,-327.174 947,-312.409"/>
<polygon fill="black" stroke="black" points="950.5,-312.293 947,-302.293 943.5,-312.293 950.5,-312.293"/>
<text text-anchor="middle" x="966" y="-334.8" font-family="Times,serif" font-size="14.00"> &#160;&lt;=25</text>
</g>
<!-- leg_e3 -->
<!-- leg_s&#45;&gt;leg_e3 -->
<g id="edge28" class="edge"><title>leg_s&#45;&gt;leg_e3</title>
<path fill="none" stroke="black" d="M970.503,-363.76C976.906,-358.462 983.567,-352.344 989,-346 998.087,-335.39 1006.1,-321.689 1011.55,-311.313"/>
<polygon fill="black" stroke="black" points="1014.72,-312.789 1016.09,-302.283 1008.47,-309.642 1014.72,-312.789"/>
<text text-anchor="middle" x="1010" y="-334.8" font-family="Times,serif" font-size="14.00">&gt;25</text>
</g>
</g>
</svg>
