<?xml version="1.0" encoding="UTF-8" standalone="no"?>
<!DOCTYPE svg PUBLIC "-//W3C//DTD SVG 1.1//EN"
 "http://www.w3.org/Graphics/SVG/1.1/DTD/svg11.dtd">
<!-- Generated by graphviz version 2.38.0 (20140413.2041)
 -->
<!-- Title: %3 Pages: 1 -->
<svg width="425pt" height="163pt"
 viewBox="0.00 0.00 425.00 163.00" xmlns="http://www.w3.org/2000/svg" xmlns:xlink="http://www.w3.org/1999/xlink">
<g id="graph0" class="graph" transform="scale(1 1) rotate(0) translate(4 159)">
<title>%3</title>
<polygon fill="white" stroke="none" points="-4,4 -4,-159 421,-159 421,4 -4,4"/>
<g id="clust1" class="cluster"><title>cluster_reading</title>
<polygon fill="none" stroke="black" points="8,-8 8,-147 187,-147 187,-8 8,-8"/>
</g>
<g id="clust2" class="cluster"><title>cluster_legend</title>
<path fill="none" stroke="black" d="M207,-19C207,-19 397,-19 397,-19 403,-19 409,-25 409,-31 409,-31 409,-135 409,-135 409,-141 403,-147 397,-147 397,-147 207,-147 207,-147 201,-147 195,-141 195,-135 195,-135 195,-31 195,-31 195,-25 201,-19 207,-19"/>
</g>
<!-- 044 -->
<g id="node1" class="node"><title>044</title>
<ellipse fill="#cea8f4" stroke="#835da9" cx="143" cy="-121" rx="36.2938" ry="18"/>
<text text-anchor="middle" x="143" y="-117.3" font-family="Times,serif" font-size="14.00">044 (b)</text>
</g>
<!-- 05 -->
<g id="node2" class="node"><title>05</title>
<ellipse fill="#cea8f4" stroke="#835da9" cx="135" cy="-34" rx="32.4942" ry="18"/>
<text text-anchor="middle" x="135" y="-30.3" font-family="Times,serif" font-size="14.00">05 (b)</text>
</g>
<!-- 044&#45;&gt;05 -->
<g id="edge1" class="edge"><title>044&#45;&gt;05</title>
<path fill="none" stroke="#835da9" stroke-dasharray="1,5" d="M141.381,-102.799C140.286,-91.1626 138.816,-75.5479 137.563,-62.2368"/>
<polygon fill="#835da9" stroke="#835da9" points="141.038,-61.8034 136.617,-52.1754 134.069,-62.4594 141.038,-61.8034"/>
<text text-anchor="middle" x="162" y="-73.8" font-family="Times,serif" font-size="14.00">3 (76.7)</text>
</g>
<!-- 032 -->
<g id="node3" class="node"><title>032</title>
<ellipse fill="#cea8f4" stroke="#835da9" cx="52" cy="-121" rx="36.2938" ry="18"/>
<text text-anchor="middle" x="52" y="-117.3" font-family="Times,serif" font-size="14.00">032 (b)</text>
</g>
<!-- leg_s -->
<g id="node4" class="node"><title>leg_s</title>
<text text-anchor="middle" x="302" y="-117.3" font-family="Times,serif" font-size="14.00">Textual flow strength</text>
</g>
<!-- leg_e1 -->
<!-- leg_s&#45;&gt;leg_e1 -->
<g id="edge2" class="edge"><title>leg_s&#45;&gt;leg_e1</title>
<path fill="none" stroke="black" stroke-dasharray="1,5" d="M283.666,-102.686C278.132,-97.1938 272.161,-90.9891 267,-85 257.171,-73.593 247.072,-59.7786 239.914,-49.5634"/>
<polygon fill="black" stroke="black" points="242.614,-47.3142 234.056,-41.0685 236.851,-51.2879 242.614,-47.3142"/>
<text text-anchor="middle" x="282.5" y="-73.8" font-family="Times,serif" font-size="14.00">&lt;=5 &#160;</text>
</g>
<!-- leg_e2 -->
<!-- leg_s&#45;&gt;leg_e2 -->
<g id="edge3" class="edge"><title>leg_s&#45;&gt;leg_e2</title>
<path fill="none" stroke="black" stroke-dasharray="5,2" d="M302,-102.799C302,-87.7942 302,-66.1745 302,-51.4086"/>
<polygon fill="black" stroke="black" points="305.5,-51.2934 302,-41.2934 298.5,-51.2934 305.5,-51.2934"/>
<text text-anchor="middle" x="321" y="-73.8" font-family="Times,serif" font-size="14.00"> &#160;&lt;=25</text>
</g>
<!-- leg_e3 -->
<!-- leg_s&#45;&gt;leg_e3 -->
<g id="edge4" class="edge"><title>leg_s&#45;&gt;leg_e3</title>
<path fill="none" stroke="black" d="M325.503,-102.76C331.906,-97.4621 338.567,-91.3439 344,-85 353.087,-74.3897 361.095,-60.6892 366.546,-50.3134"/>
<polygon fill="black" stroke="black" points="369.722,-51.7893 371.091,-41.2833 363.469,-48.6425 369.722,-51.7893"/>
<text text-anchor="middle" x="365" y="-73.8" font-family="Times,serif" font-size="14.00">&gt;25</text>
</g>
</g>
</svg>
