<?xml version="1.0" encoding="UTF-8" standalone="no"?>
<!DOCTYPE svg PUBLIC "-//W3C//DTD SVG 1.1//EN"
 "http://www.w3.org/Graphics/SVG/1.1/DTD/svg11.dtd">
<!-- Generated by graphviz version 2.38.0 (20140413.2041)
 -->
<!-- Title: %3 Pages: 1 -->
<svg width="979pt" height="424pt"
 viewBox="0.00 0.00 979.00 424.00" xmlns="http://www.w3.org/2000/svg" xmlns:xlink="http://www.w3.org/1999/xlink">
<g id="graph0" class="graph" transform="scale(1 1) rotate(0) translate(4 420)">
<title>%3</title>
<polygon fill="white" stroke="none" points="-4,4 -4,-420 975,-420 975,4 -4,4"/>
<g id="clust1" class="cluster"><title>cluster_legend</title>
<path fill="none" stroke="black" d="M20,-280C20,-280 210,-280 210,-280 216,-280 222,-286 222,-292 222,-292 222,-396 222,-396 222,-402 216,-408 210,-408 210,-408 20,-408 20,-408 14,-408 8,-402 8,-396 8,-396 8,-292 8,-292 8,-286 14,-280 20,-280"/>
</g>
<g id="clust2" class="cluster"><title>cluster_reading</title>
<polygon fill="none" stroke="black" points="230,-8 230,-408 963,-408 963,-8 230,-8"/>
</g>
<!-- leg_s -->
<g id="node1" class="node"><title>leg_s</title>
<text text-anchor="middle" x="115" y="-378.3" font-family="Times,serif" font-size="14.00">Textual flow strength</text>
</g>
<!-- leg_e1 -->
<!-- leg_s&#45;&gt;leg_e1 -->
<g id="edge1" class="edge"><title>leg_s&#45;&gt;leg_e1</title>
<path fill="none" stroke="black" stroke-dasharray="1,5" d="M96.6657,-363.686C91.1324,-358.194 85.1607,-351.989 80,-346 70.1708,-334.593 60.0722,-320.779 52.9137,-310.563"/>
<polygon fill="black" stroke="black" points="55.6142,-308.314 47.056,-302.068 49.8514,-312.288 55.6142,-308.314"/>
<text text-anchor="middle" x="95.5" y="-334.8" font-family="Times,serif" font-size="14.00">&lt;=5 &#160;</text>
</g>
<!-- leg_e2 -->
<!-- leg_s&#45;&gt;leg_e2 -->
<g id="edge2" class="edge"><title>leg_s&#45;&gt;leg_e2</title>
<path fill="none" stroke="black" stroke-dasharray="5,2" d="M115,-363.799C115,-348.794 115,-327.174 115,-312.409"/>
<polygon fill="black" stroke="black" points="118.5,-312.293 115,-302.293 111.5,-312.293 118.5,-312.293"/>
<text text-anchor="middle" x="134" y="-334.8" font-family="Times,serif" font-size="14.00"> &#160;&lt;=25</text>
</g>
<!-- leg_e3 -->
<!-- leg_s&#45;&gt;leg_e3 -->
<g id="edge3" class="edge"><title>leg_s&#45;&gt;leg_e3</title>
<path fill="none" stroke="black" d="M138.503,-363.76C144.906,-358.462 151.567,-352.344 157,-346 166.087,-335.39 174.095,-321.689 179.546,-311.313"/>
<polygon fill="black" stroke="black" points="182.722,-312.789 184.091,-302.283 176.469,-309.642 182.722,-312.789"/>
<text text-anchor="middle" x="179" y="-334.8" font-family="Times,serif" font-size="14.00">&gt;25</text>
</g>
<!-- 021 -->
<g id="node5" class="node"><title>021</title>
<ellipse fill="#ff8a8a" stroke="#b43f3f" cx="365" cy="-208" rx="36.2938" ry="18"/>
<text text-anchor="middle" x="365" y="-204.3" font-family="Times,serif" font-size="14.00">021 (a)</text>
</g>
<!-- 036 -->
<g id="node6" class="node"><title>036</title>
<ellipse fill="#ff8a8a" stroke="#b43f3f" cx="274" cy="-121" rx="36.2938" ry="18"/>
<text text-anchor="middle" x="274" y="-117.3" font-family="Times,serif" font-size="14.00">036 (a)</text>
</g>
<!-- 021&#45;&gt;036 -->
<g id="edge4" class="edge"><title>021&#45;&gt;036</title>
<path fill="none" stroke="#b43f3f" stroke-dasharray="1,5" d="M343.628,-193.006C335.008,-186.963 325.186,-179.554 317,-172 308.456,-164.115 299.924,-154.619 292.74,-146.029"/>
<polygon fill="#b43f3f" stroke="#b43f3f" points="295.344,-143.685 286.308,-138.155 289.923,-148.113 295.344,-143.685"/>
<text text-anchor="middle" x="339" y="-160.8" font-family="Times,serif" font-size="14.00">1 (97.6)</text>
</g>
<!-- 047 -->
<g id="node7" class="node"><title>047</title>
<ellipse fill="#ff8a8a" stroke="#b43f3f" cx="365" cy="-121" rx="36.2938" ry="18"/>
<text text-anchor="middle" x="365" y="-117.3" font-family="Times,serif" font-size="14.00">047 (a)</text>
</g>
<!-- 021&#45;&gt;047 -->
<g id="edge5" class="edge"><title>021&#45;&gt;047</title>
<path fill="none" stroke="#b43f3f" stroke-dasharray="1,5" d="M365,-189.799C365,-178.163 365,-162.548 365,-149.237"/>
<polygon fill="#b43f3f" stroke="#b43f3f" points="368.5,-149.175 365,-139.175 361.5,-149.175 368.5,-149.175"/>
<text text-anchor="middle" x="387" y="-160.8" font-family="Times,serif" font-size="14.00">1 (95.1)</text>
</g>
<!-- 031 -->
<g id="node8" class="node"><title>031</title>
<ellipse fill="#ff8a8a" stroke="#b43f3f" cx="456" cy="-121" rx="36.2938" ry="18"/>
<text text-anchor="middle" x="456" y="-117.3" font-family="Times,serif" font-size="14.00">031 (a)</text>
</g>
<!-- 01 -->
<g id="node9" class="node"><title>01</title>
<ellipse fill="#ff8a8a" stroke="#b43f3f" cx="370" cy="-34" rx="31.6951" ry="18"/>
<text text-anchor="middle" x="370" y="-30.3" font-family="Times,serif" font-size="14.00">01 (a)</text>
</g>
<!-- 031&#45;&gt;01 -->
<g id="edge6" class="edge"><title>031&#45;&gt;01</title>
<path fill="none" stroke="#b43f3f" stroke-dasharray="1,5" d="M434.396,-106.25C425.74,-100.245 415.954,-92.7976 408,-85 400.175,-77.3291 392.638,-67.9752 386.368,-59.4419"/>
<polygon fill="#b43f3f" stroke="#b43f3f" points="389.206,-57.3937 380.557,-51.2749 383.503,-61.452 389.206,-57.3937"/>
<text text-anchor="middle" x="430" y="-73.8" font-family="Times,serif" font-size="14.00">2 (48.5)</text>
</g>
<!-- 017 -->
<g id="node10" class="node"><title>017</title>
<ellipse fill="#ff8a8a" stroke="#b43f3f" cx="456" cy="-34" rx="36.2938" ry="18"/>
<text text-anchor="middle" x="456" y="-30.3" font-family="Times,serif" font-size="14.00">017 (a)</text>
</g>
<!-- 031&#45;&gt;017 -->
<g id="edge7" class="edge"><title>031&#45;&gt;017</title>
<path fill="none" stroke="#b43f3f" stroke-dasharray="1,5" d="M456,-102.799C456,-91.1626 456,-75.5479 456,-62.2368"/>
<polygon fill="#b43f3f" stroke="#b43f3f" points="459.5,-62.1754 456,-52.1754 452.5,-62.1755 459.5,-62.1754"/>
<text text-anchor="middle" x="478" y="-73.8" font-family="Times,serif" font-size="14.00">1 (94.3)</text>
</g>
<!-- 013 -->
<g id="node11" class="node"><title>013</title>
<ellipse fill="#ff8a8a" stroke="#b43f3f" cx="547" cy="-34" rx="36.2938" ry="18"/>
<text text-anchor="middle" x="547" y="-30.3" font-family="Times,serif" font-size="14.00">013 (a)</text>
</g>
<!-- 031&#45;&gt;013 -->
<g id="edge8" class="edge"><title>031&#45;&gt;013</title>
<path fill="none" stroke="#b43f3f" stroke-dasharray="1,5" d="M477.372,-106.006C485.992,-99.9634 495.814,-92.5539 504,-85 512.544,-77.1154 521.076,-67.6186 528.26,-59.0293"/>
<polygon fill="#b43f3f" stroke="#b43f3f" points="531.077,-61.1135 534.692,-51.1545 525.656,-56.6853 531.077,-61.1135"/>
<text text-anchor="middle" x="540" y="-73.8" font-family="Times,serif" font-size="14.00">1 (97.1)</text>
</g>
<!-- 044 -->
<g id="node12" class="node"><title>044</title>
<ellipse fill="#ff8a8a" stroke="#b43f3f" cx="638" cy="-295" rx="36.2938" ry="18"/>
<text text-anchor="middle" x="638" y="-291.3" font-family="Times,serif" font-size="14.00">044 (a)</text>
</g>
<!-- 044&#45;&gt;021 -->
<g id="edge9" class="edge"><title>044&#45;&gt;021</title>
<path fill="none" stroke="#b43f3f" stroke-dasharray="1,5" d="M602.663,-290.318C565.753,-285.742 506.575,-276.329 458,-259 435.946,-251.132 412.747,-238.668 395.035,-228.152"/>
<polygon fill="#b43f3f" stroke="#b43f3f" points="396.676,-225.054 386.309,-222.866 393.049,-231.041 396.676,-225.054"/>
<text text-anchor="middle" x="480" y="-247.8" font-family="Times,serif" font-size="14.00">2 (83.8)</text>
</g>
<!-- 011 -->
<g id="node13" class="node"><title>011</title>
<ellipse fill="#ff8a8a" stroke="#b43f3f" cx="461" cy="-208" rx="36.2938" ry="18"/>
<text text-anchor="middle" x="461" y="-204.3" font-family="Times,serif" font-size="14.00">011 (a)</text>
</g>
<!-- 044&#45;&gt;011 -->
<g id="edge10" class="edge"><title>044&#45;&gt;011</title>
<path fill="none" stroke="#b43f3f" stroke-dasharray="1,5" d="M605.77,-286.402C583.737,-280.532 554.248,-271.324 530,-259 514.677,-251.212 499.05,-240.194 486.551,-230.482"/>
<polygon fill="#b43f3f" stroke="#b43f3f" points="488.443,-227.514 478.44,-224.023 484.082,-232.99 488.443,-227.514"/>
<text text-anchor="middle" x="552" y="-247.8" font-family="Times,serif" font-size="14.00">2 (86.5)</text>
</g>
<!-- 022 -->
<g id="node14" class="node"><title>022</title>
<ellipse fill="#ff8a8a" stroke="#b43f3f" cx="552" cy="-208" rx="36.2938" ry="18"/>
<text text-anchor="middle" x="552" y="-204.3" font-family="Times,serif" font-size="14.00">022 (a)</text>
</g>
<!-- 044&#45;&gt;022 -->
<g id="edge11" class="edge"><title>044&#45;&gt;022</title>
<path fill="none" stroke="#b43f3f" stroke-dasharray="1,5" d="M616.396,-280.25C607.74,-274.245 597.954,-266.798 590,-259 582.175,-251.329 574.638,-241.975 568.368,-233.442"/>
<polygon fill="#b43f3f" stroke="#b43f3f" points="571.206,-231.394 562.557,-225.275 565.503,-235.452 571.206,-231.394"/>
<text text-anchor="middle" x="612" y="-247.8" font-family="Times,serif" font-size="14.00">1 (91.7)</text>
</g>
<!-- 07 -->
<g id="node15" class="node"><title>07</title>
<ellipse fill="#ff8a8a" stroke="#b43f3f" cx="638" cy="-208" rx="31.6951" ry="18"/>
<text text-anchor="middle" x="638" y="-204.3" font-family="Times,serif" font-size="14.00">07 (a)</text>
</g>
<!-- 044&#45;&gt;07 -->
<g id="edge12" class="edge"><title>044&#45;&gt;07</title>
<path fill="none" stroke="#b43f3f" stroke-dasharray="1,5" d="M638,-276.799C638,-265.163 638,-249.548 638,-236.237"/>
<polygon fill="#b43f3f" stroke="#b43f3f" points="641.5,-236.175 638,-226.175 634.5,-236.175 641.5,-236.175"/>
<text text-anchor="middle" x="660" y="-247.8" font-family="Times,serif" font-size="14.00">2 (83.8)</text>
</g>
<!-- 0141 -->
<g id="node16" class="node"><title>0141</title>
<ellipse fill="#ff8a8a" stroke="#b43f3f" cx="728" cy="-208" rx="40.0939" ry="18"/>
<text text-anchor="middle" x="728" y="-204.3" font-family="Times,serif" font-size="14.00">0141 (a)</text>
</g>
<!-- 044&#45;&gt;0141 -->
<g id="edge13" class="edge"><title>044&#45;&gt;0141</title>
<path fill="none" stroke="#b43f3f" stroke-dasharray="1,5" d="M659.416,-280.054C668.043,-274.018 677.858,-266.601 686,-259 694.204,-251.341 702.343,-242.128 709.242,-233.709"/>
<polygon fill="#b43f3f" stroke="#b43f3f" points="712.179,-235.639 715.683,-225.641 706.709,-231.272 712.179,-235.639"/>
<text text-anchor="middle" x="722" y="-247.8" font-family="Times,serif" font-size="14.00">1 (89.2)</text>
</g>
<!-- 045 -->
<g id="node17" class="node"><title>045</title>
<ellipse fill="#ff8a8a" stroke="#b43f3f" cx="823" cy="-208" rx="36.2938" ry="18"/>
<text text-anchor="middle" x="823" y="-204.3" font-family="Times,serif" font-size="14.00">045 (a)</text>
</g>
<!-- 044&#45;&gt;045 -->
<g id="edge14" class="edge"><title>044&#45;&gt;045</title>
<path fill="none" stroke="#b43f3f" stroke-dasharray="1,5" d="M665.465,-283.171C671.224,-281.028 677.284,-278.867 683,-277 711.495,-267.694 720.741,-271.471 748,-259 765.088,-251.182 782.646,-239.698 796.474,-229.706"/>
<polygon fill="#b43f3f" stroke="#b43f3f" points="798.605,-232.484 804.565,-223.724 794.443,-226.855 798.605,-232.484"/>
<text text-anchor="middle" x="796" y="-247.8" font-family="Times,serif" font-size="14.00">2 (81.1)</text>
</g>
<!-- 028 -->
<g id="node18" class="node"><title>028</title>
<ellipse fill="#ff8a8a" stroke="#b43f3f" cx="914" cy="-208" rx="36.2938" ry="18"/>
<text text-anchor="middle" x="914" y="-204.3" font-family="Times,serif" font-size="14.00">028 (a)</text>
</g>
<!-- 044&#45;&gt;028 -->
<g id="edge15" class="edge"><title>044&#45;&gt;028</title>
<path fill="none" stroke="#b43f3f" stroke-dasharray="1,5" d="M664.803,-282.713C670.715,-280.552 677.005,-278.499 683,-277 743.433,-261.891 762.739,-278.199 822,-259 844.237,-251.796 867.347,-239.214 884.842,-228.475"/>
<polygon fill="#b43f3f" stroke="#b43f3f" points="886.842,-231.351 893.444,-223.065 883.116,-225.425 886.842,-231.351"/>
<text text-anchor="middle" x="878" y="-247.8" font-family="Times,serif" font-size="14.00">2 (81.1)</text>
</g>
<!-- 022&#45;&gt;031 -->
<g id="edge16" class="edge"><title>022&#45;&gt;031</title>
<path fill="none" stroke="#b43f3f" stroke-dasharray="1,5" d="M534.837,-191.804C519.821,-178.508 497.821,-159.029 480.875,-144.025"/>
<polygon fill="#b43f3f" stroke="#b43f3f" points="482.821,-141.073 473.014,-137.065 478.181,-146.314 482.821,-141.073"/>
<text text-anchor="middle" x="532" y="-160.8" font-family="Times,serif" font-size="14.00">2 (86.7)</text>
</g>
<!-- 030 -->
<g id="node19" class="node"><title>030</title>
<ellipse fill="#ff8a8a" stroke="#b43f3f" cx="547" cy="-121" rx="36.2938" ry="18"/>
<text text-anchor="middle" x="547" y="-117.3" font-family="Times,serif" font-size="14.00">030 (a)</text>
</g>
<!-- 07&#45;&gt;030 -->
<g id="edge17" class="edge"><title>07&#45;&gt;030</title>
<path fill="none" stroke="#b43f3f" stroke-dasharray="1,5" d="M617.581,-193.672C608.737,-187.512 598.489,-179.834 590,-172 581.456,-164.115 572.924,-154.619 565.74,-146.029"/>
<polygon fill="#b43f3f" stroke="#b43f3f" points="568.344,-143.685 559.308,-138.155 562.923,-148.113 568.344,-143.685"/>
<text text-anchor="middle" x="612" y="-160.8" font-family="Times,serif" font-size="14.00">1 (95.1)</text>
</g>
<!-- 034 -->
<g id="node20" class="node"><title>034</title>
<ellipse fill="#ff8a8a" stroke="#b43f3f" cx="638" cy="-121" rx="36.2938" ry="18"/>
<text text-anchor="middle" x="638" y="-117.3" font-family="Times,serif" font-size="14.00">034 (a)</text>
</g>
<!-- 07&#45;&gt;034 -->
<g id="edge18" class="edge"><title>07&#45;&gt;034</title>
<path fill="none" stroke="#b43f3f" stroke-dasharray="1,5" d="M638,-189.799C638,-178.163 638,-162.548 638,-149.237"/>
<polygon fill="#b43f3f" stroke="#b43f3f" points="641.5,-149.175 638,-139.175 634.5,-149.175 641.5,-149.175"/>
<text text-anchor="middle" x="660" y="-160.8" font-family="Times,serif" font-size="14.00">1 (95.1)</text>
</g>
<!-- 037 -->
<g id="node21" class="node"><title>037</title>
<ellipse fill="#ff8a8a" stroke="#b43f3f" cx="729" cy="-121" rx="36.2938" ry="18"/>
<text text-anchor="middle" x="729" y="-117.3" font-family="Times,serif" font-size="14.00">037 (a)</text>
</g>
<!-- 07&#45;&gt;037 -->
<g id="edge19" class="edge"><title>07&#45;&gt;037</title>
<path fill="none" stroke="#b43f3f" stroke-dasharray="1,5" d="M658.419,-193.672C667.263,-187.512 677.511,-179.834 686,-172 694.544,-164.115 703.076,-154.619 710.26,-146.029"/>
<polygon fill="#b43f3f" stroke="#b43f3f" points="713.077,-148.113 716.692,-138.155 707.656,-143.685 713.077,-148.113"/>
<text text-anchor="middle" x="722" y="-160.8" font-family="Times,serif" font-size="14.00">1 (97.5)</text>
</g>
<!-- 0211 -->
<g id="node22" class="node"><title>0211</title>
<ellipse fill="#ff8a8a" stroke="#b43f3f" cx="824" cy="-121" rx="40.0939" ry="18"/>
<text text-anchor="middle" x="824" y="-117.3" font-family="Times,serif" font-size="14.00">0211 (a)</text>
</g>
<!-- 07&#45;&gt;0211 -->
<g id="edge20" class="edge"><title>07&#45;&gt;0211</title>
<path fill="none" stroke="#b43f3f" stroke-dasharray="1,5" d="M662.507,-196.194C667.889,-194.003 673.595,-191.816 679,-190 709.043,-179.907 719.043,-184.881 748,-172 765.208,-164.345 782.876,-152.973 796.841,-143.007"/>
<polygon fill="#b43f3f" stroke="#b43f3f" points="799.011,-145.755 805.02,-137.029 794.881,-140.104 799.011,-145.755"/>
<text text-anchor="middle" x="796" y="-160.8" font-family="Times,serif" font-size="14.00">2 (82.9)</text>
</g>
<!-- 038 -->
<g id="node26" class="node"><title>038</title>
<ellipse fill="#ff8a8a" stroke="#b43f3f" cx="919" cy="-121" rx="36.2938" ry="18"/>
<text text-anchor="middle" x="919" y="-117.3" font-family="Times,serif" font-size="14.00">038 (a)</text>
</g>
<!-- 045&#45;&gt;038 -->
<g id="edge24" class="edge"><title>045&#45;&gt;038</title>
<path fill="none" stroke="#b43f3f" stroke-dasharray="1,5" d="M840.163,-191.804C855.179,-178.508 877.179,-159.029 894.125,-144.025"/>
<polygon fill="#b43f3f" stroke="#b43f3f" points="896.819,-146.314 901.986,-137.065 892.179,-141.073 896.819,-146.314"/>
<text text-anchor="middle" x="898" y="-160.8" font-family="Times,serif" font-size="14.00">1 (92.7)</text>
</g>
<!-- 03 -->
<g id="node23" class="node"><title>03</title>
<ellipse fill="#ff8a8a" stroke="#b43f3f" cx="724" cy="-382" rx="31.6951" ry="18"/>
<text text-anchor="middle" x="724" y="-378.3" font-family="Times,serif" font-size="14.00">03 (a)</text>
</g>
<!-- 03&#45;&gt;044 -->
<g id="edge21" class="edge"><title>03&#45;&gt;044</title>
<path fill="none" stroke="#b43f3f" stroke-dasharray="1,5" d="M703.353,-367.912C694.467,-361.796 684.248,-354.086 676,-346 668.175,-338.329 660.638,-328.975 654.368,-320.442"/>
<polygon fill="#b43f3f" stroke="#b43f3f" points="657.206,-318.394 648.557,-312.275 651.503,-322.452 657.206,-318.394"/>
<text text-anchor="middle" x="698" y="-334.8" font-family="Times,serif" font-size="14.00">1 (89.2)</text>
</g>
<!-- 02 -->
<g id="node24" class="node"><title>02</title>
<ellipse fill="#ff8a8a" stroke="#b43f3f" cx="724" cy="-295" rx="31.6951" ry="18"/>
<text text-anchor="middle" x="724" y="-291.3" font-family="Times,serif" font-size="14.00">02 (a)</text>
</g>
<!-- 03&#45;&gt;02 -->
<g id="edge22" class="edge"><title>03&#45;&gt;02</title>
<path fill="none" stroke="#b43f3f" stroke-dasharray="1,5" d="M724,-363.799C724,-352.163 724,-336.548 724,-323.237"/>
<polygon fill="#b43f3f" stroke="#b43f3f" points="727.5,-323.175 724,-313.175 720.5,-323.175 727.5,-323.175"/>
<text text-anchor="middle" x="746" y="-334.8" font-family="Times,serif" font-size="14.00">1 (86.5)</text>
</g>
<!-- 032 -->
<g id="node25" class="node"><title>032</title>
<ellipse fill="#ff8a8a" stroke="#b43f3f" cx="810" cy="-295" rx="36.2938" ry="18"/>
<text text-anchor="middle" x="810" y="-291.3" font-family="Times,serif" font-size="14.00">032 (a)</text>
</g>
<!-- 03&#45;&gt;032 -->
<g id="edge23" class="edge"><title>03&#45;&gt;032</title>
<path fill="none" stroke="#b43f3f" stroke-dasharray="1,5" d="M744.647,-367.912C753.533,-361.796 763.752,-354.086 772,-346 779.825,-338.329 787.362,-328.975 793.632,-320.442"/>
<polygon fill="#b43f3f" stroke="#b43f3f" points="796.497,-322.452 799.443,-312.275 790.794,-318.394 796.497,-322.452"/>
<text text-anchor="middle" x="806" y="-334.8" font-family="Times,serif" font-size="14.00">1 (91.7)</text>
</g>
<!-- P75 -->
<g id="node27" class="node"><title>P75</title>
<ellipse fill="#ff8a8a" stroke="#b43f3f" cx="570" cy="-382" rx="36.2938" ry="18"/>
<text text-anchor="middle" x="570" y="-378.3" font-family="Times,serif" font-size="14.00">P75 (a)</text>
</g>
<!-- 019 -->
<g id="node28" class="node"><title>019</title>
<ellipse fill="#ff8a8a" stroke="#b43f3f" cx="343" cy="-382" rx="36.2938" ry="18"/>
<text text-anchor="middle" x="343" y="-378.3" font-family="Times,serif" font-size="14.00">019 (a)</text>
</g>
</g>
</svg>
