<?xml version="1.0" encoding="UTF-8" standalone="no"?>
<!DOCTYPE svg PUBLIC "-//W3C//DTD SVG 1.1//EN"
 "http://www.w3.org/Graphics/SVG/1.1/DTD/svg11.dtd">
<!-- Generated by graphviz version 2.38.0 (20140413.2041)
 -->
<!-- Title: %3 Pages: 1 -->
<svg width="902pt" height="408pt"
 viewBox="0.00 0.00 901.69 408.00" xmlns="http://www.w3.org/2000/svg" xmlns:xlink="http://www.w3.org/1999/xlink">
<g id="graph0" class="graph" transform="scale(1 1) rotate(0) translate(4 404)">
<title>%3</title>
<polygon fill="white" stroke="none" points="-4,4 -4,-404 897.693,-404 897.693,4 -4,4"/>
<g id="clust1" class="cluster"><title>cluster_legend</title>
<path fill="none" stroke="black" d="M198.397,-264C198.397,-264 388.397,-264 388.397,-264 394.397,-264 400.397,-270 400.397,-276 400.397,-276 400.397,-380 400.397,-380 400.397,-386 394.397,-392 388.397,-392 388.397,-392 198.397,-392 198.397,-392 192.397,-392 186.397,-386 186.397,-380 186.397,-380 186.397,-276 186.397,-276 186.397,-270 192.397,-264 198.397,-264"/>
</g>
<!-- leg_s -->
<g id="node1" class="node"><title>leg_s</title>
<text text-anchor="middle" x="293.397" y="-362.3" font-family="Times,serif" font-size="14.00">Textual flow strength</text>
</g>
<!-- leg_e1 -->
<!-- leg_s&#45;&gt;leg_e1 -->
<g id="edge1" class="edge"><title>leg_s&#45;&gt;leg_e1</title>
<path fill="none" stroke="black" stroke-dasharray="1,5" d="M275.062,-347.686C269.529,-342.194 263.557,-335.989 258.397,-330 248.568,-318.593 238.469,-304.779 231.31,-294.563"/>
<polygon fill="black" stroke="black" points="234.011,-292.314 225.453,-286.068 228.248,-296.288 234.011,-292.314"/>
<text text-anchor="middle" x="273.897" y="-318.8" font-family="Times,serif" font-size="14.00">&lt;=5 &#160;</text>
</g>
<!-- leg_e2 -->
<!-- leg_s&#45;&gt;leg_e2 -->
<g id="edge2" class="edge"><title>leg_s&#45;&gt;leg_e2</title>
<path fill="none" stroke="black" stroke-dasharray="5,2" d="M293.397,-347.799C293.397,-332.794 293.397,-311.174 293.397,-296.409"/>
<polygon fill="black" stroke="black" points="296.897,-296.293 293.397,-286.293 289.897,-296.293 296.897,-296.293"/>
<text text-anchor="middle" x="312.397" y="-318.8" font-family="Times,serif" font-size="14.00"> &#160;&lt;=25</text>
</g>
<!-- leg_e3 -->
<!-- leg_s&#45;&gt;leg_e3 -->
<g id="edge3" class="edge"><title>leg_s&#45;&gt;leg_e3</title>
<path fill="none" stroke="black" d="M316.9,-347.76C323.303,-342.462 329.963,-336.344 335.397,-330 344.484,-319.39 352.492,-305.689 357.943,-295.313"/>
<polygon fill="black" stroke="black" points="361.119,-296.789 362.488,-286.283 354.866,-293.642 361.119,-296.789"/>
<text text-anchor="middle" x="357.397" y="-318.8" font-family="Times,serif" font-size="14.00">&gt;25</text>
</g>
<!-- 03 -->
<g id="node5" class="node"><title>03</title>
<ellipse fill="#ff8a8a" stroke="#b43f3f" cx="528.397" cy="-366" rx="31.6951" ry="18"/>
<text text-anchor="middle" x="528.397" y="-362.3" font-family="Times,serif" font-size="14.00">03 (a)</text>
</g>
<!-- 02 -->
<g id="node6" class="node"><title>02</title>
<ellipse fill="#ff8a8a" stroke="#b43f3f" cx="442.397" cy="-279" rx="31.6951" ry="18"/>
<text text-anchor="middle" x="442.397" y="-275.3" font-family="Times,serif" font-size="14.00">02 (a)</text>
</g>
<!-- 03&#45;&gt;02 -->
<g id="edge4" class="edge"><title>03&#45;&gt;02</title>
<path fill="none" stroke="#b43f3f" stroke-dasharray="1,5" d="M507.75,-351.912C498.864,-345.796 488.645,-338.086 480.397,-330 472.572,-322.329 465.035,-312.975 458.765,-304.442"/>
<polygon fill="#b43f3f" stroke="#b43f3f" points="461.603,-302.394 452.954,-296.275 455.899,-306.452 461.603,-302.394"/>
<text text-anchor="middle" x="502.397" y="-318.8" font-family="Times,serif" font-size="14.00">1 (86.5)</text>
</g>
<!-- 044 -->
<g id="node7" class="node"><title>044</title>
<ellipse fill="#ff8a8a" stroke="#b43f3f" cx="528.397" cy="-279" rx="36.2938" ry="18"/>
<text text-anchor="middle" x="528.397" y="-275.3" font-family="Times,serif" font-size="14.00">044 (a)</text>
</g>
<!-- 03&#45;&gt;044 -->
<g id="edge5" class="edge"><title>03&#45;&gt;044</title>
<path fill="none" stroke="#b43f3f" stroke-dasharray="1,5" d="M528.397,-347.799C528.397,-336.163 528.397,-320.548 528.397,-307.237"/>
<polygon fill="#b43f3f" stroke="#b43f3f" points="531.897,-307.175 528.397,-297.175 524.897,-307.175 531.897,-307.175"/>
<text text-anchor="middle" x="550.397" y="-318.8" font-family="Times,serif" font-size="14.00">1 (89.2)</text>
</g>
<!-- 032 -->
<g id="node8" class="node"><title>032</title>
<ellipse fill="#ff8a8a" stroke="#b43f3f" cx="619.397" cy="-279" rx="36.2938" ry="18"/>
<text text-anchor="middle" x="619.397" y="-275.3" font-family="Times,serif" font-size="14.00">032 (a)</text>
</g>
<!-- 03&#45;&gt;032 -->
<g id="edge6" class="edge"><title>03&#45;&gt;032</title>
<path fill="none" stroke="#b43f3f" stroke-dasharray="1,5" d="M548.816,-351.672C557.659,-345.512 567.908,-337.834 576.397,-330 584.941,-322.115 593.472,-312.619 600.657,-304.029"/>
<polygon fill="#b43f3f" stroke="#b43f3f" points="603.474,-306.113 607.089,-296.155 598.053,-301.685 603.474,-306.113"/>
<text text-anchor="middle" x="612.397" y="-318.8" font-family="Times,serif" font-size="14.00">1 (91.7)</text>
</g>
<!-- 021 -->
<g id="node9" class="node"><title>021</title>
<ellipse fill="#ff8a8a" stroke="#b43f3f" cx="127.397" cy="-192" rx="36.2938" ry="18"/>
<text text-anchor="middle" x="127.397" y="-188.3" font-family="Times,serif" font-size="14.00">021 (a)</text>
</g>
<!-- 044&#45;&gt;021 -->
<g id="edge12" class="edge"><title>044&#45;&gt;021</title>
<path fill="none" stroke="#b43f3f" stroke-dasharray="1,5" d="M501.629,-266.571C495.714,-264.418 489.415,-262.405 483.397,-261 403.38,-242.319 380.083,-258.535 299.397,-243 252.705,-234.01 200.428,-217.922 165.896,-206.422"/>
<polygon fill="#b43f3f" stroke="#b43f3f" points="166.805,-203.035 156.211,-203.161 164.571,-209.669 166.805,-203.035"/>
<text text-anchor="middle" x="321.397" y="-231.8" font-family="Times,serif" font-size="14.00">2 (83.8)</text>
</g>
<!-- 022 -->
<g id="node12" class="node"><title>022</title>
<ellipse fill="#ff8a8a" stroke="#b43f3f" cx="270.397" cy="-192" rx="36.2938" ry="18"/>
<text text-anchor="middle" x="270.397" y="-188.3" font-family="Times,serif" font-size="14.00">022 (a)</text>
</g>
<!-- 044&#45;&gt;022 -->
<g id="edge13" class="edge"><title>044&#45;&gt;022</title>
<path fill="none" stroke="#b43f3f" stroke-dasharray="1,5" d="M501.051,-266.776C495.284,-264.662 489.19,-262.612 483.397,-261 440.734,-249.127 427.756,-255.913 385.397,-243 357.153,-234.39 326.559,-220.87 304.031,-210.058"/>
<polygon fill="#b43f3f" stroke="#b43f3f" points="305.424,-206.843 294.9,-205.612 302.359,-213.137 305.424,-206.843"/>
<text text-anchor="middle" x="407.397" y="-231.8" font-family="Times,serif" font-size="14.00">1 (91.7)</text>
</g>
<!-- 07 -->
<g id="node16" class="node"><title>07</title>
<ellipse fill="#ff8a8a" stroke="#b43f3f" cx="408.397" cy="-192" rx="31.6951" ry="18"/>
<text text-anchor="middle" x="408.397" y="-188.3" font-family="Times,serif" font-size="14.00">07 (a)</text>
</g>
<!-- 044&#45;&gt;07 -->
<g id="edge14" class="edge"><title>044&#45;&gt;07</title>
<path fill="none" stroke="#b43f3f" stroke-dasharray="1,5" d="M500.423,-267.418C480.952,-259.744 456.998,-249.596 448.397,-243 439.172,-235.925 430.809,-226.287 424.143,-217.36"/>
<polygon fill="#b43f3f" stroke="#b43f3f" points="426.941,-215.255 418.299,-209.126 421.232,-219.306 426.941,-215.255"/>
<text text-anchor="middle" x="470.397" y="-231.8" font-family="Times,serif" font-size="14.00">2 (83.8)</text>
</g>
<!-- 05 -->
<g id="node17" class="node"><title>05</title>
<ellipse fill="#ff8a8a" stroke="#b43f3f" cx="490.397" cy="-192" rx="31.6951" ry="18"/>
<text text-anchor="middle" x="490.397" y="-188.3" font-family="Times,serif" font-size="14.00">05 (a)</text>
</g>
<!-- 044&#45;&gt;05 -->
<g id="edge15" class="edge"><title>044&#45;&gt;05</title>
<path fill="none" stroke="#b43f3f" stroke-dasharray="1,5" d="M513.874,-262.248C509.281,-256.541 504.578,-249.815 501.397,-243 498.088,-235.913 495.754,-227.79 494.116,-220.181"/>
<polygon fill="#b43f3f" stroke="#b43f3f" points="497.543,-219.468 492.287,-210.269 490.66,-220.738 497.543,-219.468"/>
<text text-anchor="middle" x="523.397" y="-231.8" font-family="Times,serif" font-size="14.00">3 (76.7)</text>
</g>
<!-- 045 -->
<g id="node18" class="node"><title>045</title>
<ellipse fill="#ff8a8a" stroke="#b43f3f" cx="576.397" cy="-192" rx="36.2938" ry="18"/>
<text text-anchor="middle" x="576.397" y="-188.3" font-family="Times,serif" font-size="14.00">045 (a)</text>
</g>
<!-- 044&#45;&gt;045 -->
<g id="edge16" class="edge"><title>044&#45;&gt;045</title>
<path fill="none" stroke="#b43f3f" stroke-dasharray="1,5" d="M537.88,-261.207C544.762,-249.021 554.194,-232.318 562.002,-218.491"/>
<polygon fill="#b43f3f" stroke="#b43f3f" points="565.227,-219.898 567.097,-209.469 559.132,-216.456 565.227,-219.898"/>
<text text-anchor="middle" x="577.397" y="-231.8" font-family="Times,serif" font-size="14.00">2 (81.1)</text>
</g>
<!-- 028 -->
<g id="node19" class="node"><title>028</title>
<ellipse fill="#ff8a8a" stroke="#b43f3f" cx="667.397" cy="-192" rx="36.2938" ry="18"/>
<text text-anchor="middle" x="667.397" y="-188.3" font-family="Times,serif" font-size="14.00">028 (a)</text>
</g>
<!-- 044&#45;&gt;028 -->
<g id="edge17" class="edge"><title>044&#45;&gt;028</title>
<path fill="none" stroke="#b43f3f" stroke-dasharray="1,5" d="M555.892,-266.954C570.426,-260.677 588.329,-252.237 603.397,-243 616.939,-234.699 630.957,-224.021 642.408,-214.665"/>
<polygon fill="#b43f3f" stroke="#b43f3f" points="644.802,-217.227 650.25,-208.14 640.325,-211.846 644.802,-217.227"/>
<text text-anchor="middle" x="646.397" y="-231.8" font-family="Times,serif" font-size="14.00">2 (81.1)</text>
</g>
<!-- 011 -->
<g id="node20" class="node"><title>011</title>
<ellipse fill="#ff8a8a" stroke="#b43f3f" cx="758.397" cy="-192" rx="36.2938" ry="18"/>
<text text-anchor="middle" x="758.397" y="-188.3" font-family="Times,serif" font-size="14.00">011 (a)</text>
</g>
<!-- 044&#45;&gt;011 -->
<g id="edge18" class="edge"><title>044&#45;&gt;011</title>
<path fill="none" stroke="#b43f3f" stroke-dasharray="1,5" d="M555.875,-266.968C561.914,-264.791 568.321,-262.667 574.397,-261 617.102,-249.281 630.861,-258.357 672.397,-243 692.762,-235.471 713.865,-223.278 730.07,-212.818"/>
<polygon fill="#b43f3f" stroke="#b43f3f" points="732.12,-215.659 738.534,-207.226 728.261,-209.819 732.12,-215.659"/>
<text text-anchor="middle" x="727.397" y="-231.8" font-family="Times,serif" font-size="14.00">2 (86.5)</text>
</g>
<!-- 0141 -->
<g id="node21" class="node"><title>0141</title>
<ellipse fill="#ff8a8a" stroke="#b43f3f" cx="853.397" cy="-192" rx="40.0939" ry="18"/>
<text text-anchor="middle" x="853.397" y="-188.3" font-family="Times,serif" font-size="14.00">0141 (a)</text>
</g>
<!-- 044&#45;&gt;0141 -->
<g id="edge19" class="edge"><title>044&#45;&gt;0141</title>
<path fill="none" stroke="#b43f3f" stroke-dasharray="1,5" d="M555.291,-266.766C561.477,-264.547 568.092,-262.457 574.397,-261 652.3,-242.997 676.597,-265.245 753.397,-243 777.59,-235.992 802.951,-223.242 822.079,-212.371"/>
<polygon fill="#b43f3f" stroke="#b43f3f" points="824.052,-215.272 830.936,-207.219 820.533,-209.222 824.052,-215.272"/>
<text text-anchor="middle" x="813.397" y="-231.8" font-family="Times,serif" font-size="14.00">1 (89.2)</text>
</g>
<!-- 047 -->
<g id="node10" class="node"><title>047</title>
<ellipse fill="#ff8a8a" stroke="#b43f3f" cx="36.3968" cy="-105" rx="36.2938" ry="18"/>
<text text-anchor="middle" x="36.3968" y="-101.3" font-family="Times,serif" font-size="14.00">047 (a)</text>
</g>
<!-- 021&#45;&gt;047 -->
<g id="edge7" class="edge"><title>021&#45;&gt;047</title>
<path fill="none" stroke="#b43f3f" stroke-dasharray="1,5" d="M106.025,-177.006C97.4044,-170.963 87.5824,-163.554 79.3968,-156 70.8527,-148.115 62.3211,-138.619 55.1364,-130.029"/>
<polygon fill="#b43f3f" stroke="#b43f3f" points="57.741,-127.685 48.7043,-122.155 52.3196,-132.113 57.741,-127.685"/>
<text text-anchor="middle" x="101.397" y="-144.8" font-family="Times,serif" font-size="14.00">1 (95.1)</text>
</g>
<!-- 036 -->
<g id="node11" class="node"><title>036</title>
<ellipse fill="#ff8a8a" stroke="#b43f3f" cx="127.397" cy="-105" rx="36.2938" ry="18"/>
<text text-anchor="middle" x="127.397" y="-101.3" font-family="Times,serif" font-size="14.00">036 (a)</text>
</g>
<!-- 021&#45;&gt;036 -->
<g id="edge8" class="edge"><title>021&#45;&gt;036</title>
<path fill="none" stroke="#b43f3f" stroke-dasharray="1,5" d="M127.397,-173.799C127.397,-162.163 127.397,-146.548 127.397,-133.237"/>
<polygon fill="#b43f3f" stroke="#b43f3f" points="130.897,-133.175 127.397,-123.175 123.897,-133.175 130.897,-133.175"/>
<text text-anchor="middle" x="149.397" y="-144.8" font-family="Times,serif" font-size="14.00">1 (97.6)</text>
</g>
<!-- 031 -->
<g id="node13" class="node"><title>031</title>
<ellipse fill="#ff8a8a" stroke="#b43f3f" cx="218.397" cy="-105" rx="36.2938" ry="18"/>
<text text-anchor="middle" x="218.397" y="-101.3" font-family="Times,serif" font-size="14.00">031 (a)</text>
</g>
<!-- 022&#45;&gt;031 -->
<g id="edge9" class="edge"><title>022&#45;&gt;031</title>
<path fill="none" stroke="#b43f3f" stroke-dasharray="1,5" d="M259.441,-174.74C255.564,-168.879 251.219,-162.185 247.397,-156 242.544,-148.146 237.434,-139.48 232.878,-131.599"/>
<polygon fill="#b43f3f" stroke="#b43f3f" points="235.845,-129.737 227.833,-122.805 229.773,-133.22 235.845,-129.737"/>
<text text-anchor="middle" x="269.397" y="-144.8" font-family="Times,serif" font-size="14.00">2 (86.7)</text>
</g>
<!-- 017 -->
<g id="node14" class="node"><title>017</title>
<ellipse fill="#ff8a8a" stroke="#b43f3f" cx="173.397" cy="-18" rx="36.2938" ry="18"/>
<text text-anchor="middle" x="173.397" y="-14.3" font-family="Times,serif" font-size="14.00">017 (a)</text>
</g>
<!-- 031&#45;&gt;017 -->
<g id="edge10" class="edge"><title>031&#45;&gt;017</title>
<path fill="none" stroke="#b43f3f" stroke-dasharray="1,5" d="M208.644,-87.3706C205.322,-81.5933 201.633,-75.047 198.397,-69 194.229,-61.2133 189.866,-52.6446 185.972,-44.8337"/>
<polygon fill="#b43f3f" stroke="#b43f3f" points="189.069,-43.1997 181.5,-35.7855 182.793,-46.3011 189.069,-43.1997"/>
<text text-anchor="middle" x="220.397" y="-57.8" font-family="Times,serif" font-size="14.00">1 (94.3)</text>
</g>
<!-- 013 -->
<g id="node15" class="node"><title>013</title>
<ellipse fill="#ff8a8a" stroke="#b43f3f" cx="264.397" cy="-18" rx="36.2938" ry="18"/>
<text text-anchor="middle" x="264.397" y="-14.3" font-family="Times,serif" font-size="14.00">013 (a)</text>
</g>
<!-- 031&#45;&gt;013 -->
<g id="edge11" class="edge"><title>031&#45;&gt;013</title>
<path fill="none" stroke="#b43f3f" stroke-dasharray="1,5" d="M230.526,-87.6704C234.546,-81.9172 238.886,-75.3093 242.397,-69 246.547,-61.5417 250.498,-53.1477 253.877,-45.3977"/>
<polygon fill="#b43f3f" stroke="#b43f3f" points="257.161,-46.6185 257.824,-36.0444 250.712,-43.8974 257.161,-46.6185"/>
<text text-anchor="middle" x="272.397" y="-57.8" font-family="Times,serif" font-size="14.00">1 (97.1)</text>
</g>
<!-- 0211 -->
<g id="node22" class="node"><title>0211</title>
<ellipse fill="#ff8a8a" stroke="#b43f3f" cx="313.397" cy="-105" rx="40.0939" ry="18"/>
<text text-anchor="middle" x="313.397" y="-101.3" font-family="Times,serif" font-size="14.00">0211 (a)</text>
</g>
<!-- 07&#45;&gt;0211 -->
<g id="edge20" class="edge"><title>07&#45;&gt;0211</title>
<path fill="none" stroke="#b43f3f" stroke-dasharray="1,5" d="M388.611,-177.822C379.694,-171.572 369.211,-163.781 360.397,-156 351.233,-147.911 341.866,-138.276 333.93,-129.632"/>
<polygon fill="#b43f3f" stroke="#b43f3f" points="336.386,-127.129 327.091,-122.045 331.187,-131.816 336.386,-127.129"/>
<text text-anchor="middle" x="382.397" y="-144.8" font-family="Times,serif" font-size="14.00">2 (82.9)</text>
</g>
<!-- 030 -->
<g id="node23" class="node"><title>030</title>
<ellipse fill="#ff8a8a" stroke="#b43f3f" cx="408.397" cy="-105" rx="36.2938" ry="18"/>
<text text-anchor="middle" x="408.397" y="-101.3" font-family="Times,serif" font-size="14.00">030 (a)</text>
</g>
<!-- 07&#45;&gt;030 -->
<g id="edge21" class="edge"><title>07&#45;&gt;030</title>
<path fill="none" stroke="#b43f3f" stroke-dasharray="1,5" d="M408.397,-173.799C408.397,-162.163 408.397,-146.548 408.397,-133.237"/>
<polygon fill="#b43f3f" stroke="#b43f3f" points="411.897,-133.175 408.397,-123.175 404.897,-133.175 411.897,-133.175"/>
<text text-anchor="middle" x="430.397" y="-144.8" font-family="Times,serif" font-size="14.00">1 (95.1)</text>
</g>
<!-- 037 -->
<g id="node24" class="node"><title>037</title>
<ellipse fill="#ff8a8a" stroke="#b43f3f" cx="499.397" cy="-105" rx="36.2938" ry="18"/>
<text text-anchor="middle" x="499.397" y="-101.3" font-family="Times,serif" font-size="14.00">037 (a)</text>
</g>
<!-- 07&#45;&gt;037 -->
<g id="edge22" class="edge"><title>07&#45;&gt;037</title>
<path fill="none" stroke="#b43f3f" stroke-dasharray="1,5" d="M428.816,-177.672C437.659,-171.512 447.908,-163.834 456.397,-156 464.941,-148.115 473.472,-138.619 480.657,-130.029"/>
<polygon fill="#b43f3f" stroke="#b43f3f" points="483.474,-132.113 487.089,-122.155 478.053,-127.685 483.474,-132.113"/>
<text text-anchor="middle" x="492.397" y="-144.8" font-family="Times,serif" font-size="14.00">1 (97.5)</text>
</g>
<!-- 034 -->
<g id="node25" class="node"><title>034</title>
<ellipse fill="#ff8a8a" stroke="#b43f3f" cx="590.397" cy="-105" rx="36.2938" ry="18"/>
<text text-anchor="middle" x="590.397" y="-101.3" font-family="Times,serif" font-size="14.00">034 (a)</text>
</g>
<!-- 07&#45;&gt;034 -->
<g id="edge23" class="edge"><title>07&#45;&gt;034</title>
<path fill="none" stroke="#b43f3f" stroke-dasharray="1,5" d="M432.904,-180.194C438.285,-178.003 443.991,-175.816 449.397,-174 479.44,-163.907 489.603,-169.243 518.397,-156 534.842,-148.436 551.549,-137.107 564.724,-127.144"/>
<polygon fill="#b43f3f" stroke="#b43f3f" points="567.081,-129.745 572.834,-120.848 562.788,-124.216 567.081,-129.745"/>
<text text-anchor="middle" x="566.397" y="-144.8" font-family="Times,serif" font-size="14.00">1 (95.1)</text>
</g>
<!-- 038 -->
<g id="node26" class="node"><title>038</title>
<ellipse fill="#ff8a8a" stroke="#b43f3f" cx="681.397" cy="-105" rx="36.2938" ry="18"/>
<text text-anchor="middle" x="681.397" y="-101.3" font-family="Times,serif" font-size="14.00">038 (a)</text>
</g>
<!-- 045&#45;&gt;038 -->
<g id="edge24" class="edge"><title>045&#45;&gt;038</title>
<path fill="none" stroke="#b43f3f" stroke-dasharray="1,5" d="M602.103,-179.05C613.781,-172.996 627.409,-165.018 638.397,-156 647.518,-148.514 656.264,-138.952 663.459,-130.199"/>
<polygon fill="#b43f3f" stroke="#b43f3f" points="666.373,-132.158 669.844,-122.148 660.888,-127.808 666.373,-132.158"/>
<text text-anchor="middle" x="676.397" y="-144.8" font-family="Times,serif" font-size="14.00">1 (92.7)</text>
</g>
<!-- P75 -->
<g id="node27" class="node"><title>P75</title>
<ellipse fill="#ff8a8a" stroke="#b43f3f" cx="614.397" cy="-366" rx="36.2938" ry="18"/>
<text text-anchor="middle" x="614.397" y="-362.3" font-family="Times,serif" font-size="14.00">P75 (a)</text>
</g>
<!-- 019 -->
<g id="node28" class="node"><title>019</title>
<ellipse fill="#ff8a8a" stroke="#b43f3f" cx="705.397" cy="-366" rx="36.2938" ry="18"/>
<text text-anchor="middle" x="705.397" y="-362.3" font-family="Times,serif" font-size="14.00">019 (a)</text>
</g>
<!-- 01 -->
<g id="node29" class="node"><title>01</title>
<ellipse fill="#cea8f4" stroke="#835da9" cx="792.397" cy="-366" rx="32.4942" ry="18"/>
<text text-anchor="middle" x="792.397" y="-362.3" font-family="Times,serif" font-size="14.00">01 (b)</text>
</g>
</g>
</svg>
