<?xml version="1.0" encoding="UTF-8" standalone="no"?>
<!DOCTYPE svg PUBLIC "-//W3C//DTD SVG 1.1//EN"
 "http://www.w3.org/Graphics/SVG/1.1/DTD/svg11.dtd">
<!-- Generated by graphviz version 2.38.0 (20140413.2041)
 -->
<!-- Title: %3 Pages: 1 -->
<svg width="878pt" height="511pt"
 viewBox="0.00 0.00 878.00 511.00" xmlns="http://www.w3.org/2000/svg" xmlns:xlink="http://www.w3.org/1999/xlink">
<g id="graph0" class="graph" transform="scale(1 1) rotate(0) translate(4 507)">
<title>%3</title>
<polygon fill="white" stroke="none" points="-4,4 -4,-507 874,-507 874,4 -4,4"/>
<g id="clust1" class="cluster"><title>cluster_legend</title>
<path fill="none" stroke="black" d="M20,-367C20,-367 210,-367 210,-367 216,-367 222,-373 222,-379 222,-379 222,-483 222,-483 222,-489 216,-495 210,-495 210,-495 20,-495 20,-495 14,-495 8,-489 8,-483 8,-483 8,-379 8,-379 8,-373 14,-367 20,-367"/>
</g>
<g id="clust2" class="cluster"><title>cluster_reading</title>
<polygon fill="none" stroke="black" points="230,-8 230,-495 862,-495 862,-8 230,-8"/>
</g>
<!-- leg_s -->
<g id="node1" class="node"><title>leg_s</title>
<text text-anchor="middle" x="115" y="-465.3" font-family="Times,serif" font-size="14.00">Textual flow strength</text>
</g>
<!-- leg_e1 -->
<!-- leg_s&#45;&gt;leg_e1 -->
<g id="edge1" class="edge"><title>leg_s&#45;&gt;leg_e1</title>
<path fill="none" stroke="black" stroke-dasharray="1,5" d="M96.6657,-450.686C91.1324,-445.194 85.1607,-438.989 80,-433 70.1708,-421.593 60.0722,-407.779 52.9137,-397.563"/>
<polygon fill="black" stroke="black" points="55.6142,-395.314 47.056,-389.068 49.8514,-399.288 55.6142,-395.314"/>
<text text-anchor="middle" x="95.5" y="-421.8" font-family="Times,serif" font-size="14.00">&lt;=5 &#160;</text>
</g>
<!-- leg_e2 -->
<!-- leg_s&#45;&gt;leg_e2 -->
<g id="edge2" class="edge"><title>leg_s&#45;&gt;leg_e2</title>
<path fill="none" stroke="black" stroke-dasharray="5,2" d="M115,-450.799C115,-435.794 115,-414.174 115,-399.409"/>
<polygon fill="black" stroke="black" points="118.5,-399.293 115,-389.293 111.5,-399.293 118.5,-399.293"/>
<text text-anchor="middle" x="134" y="-421.8" font-family="Times,serif" font-size="14.00"> &#160;&lt;=25</text>
</g>
<!-- leg_e3 -->
<!-- leg_s&#45;&gt;leg_e3 -->
<g id="edge3" class="edge"><title>leg_s&#45;&gt;leg_e3</title>
<path fill="none" stroke="black" d="M138.503,-450.76C144.906,-445.462 151.567,-439.344 157,-433 166.087,-422.39 174.095,-408.689 179.546,-398.313"/>
<polygon fill="black" stroke="black" points="182.722,-399.789 184.091,-389.283 176.469,-396.642 182.722,-399.789"/>
<text text-anchor="middle" x="179" y="-421.8" font-family="Times,serif" font-size="14.00">&gt;25</text>
</g>
<!-- A -->
<g id="node5" class="node"><title>A</title>
<ellipse fill="#ff8a8a" stroke="#b43f3f" cx="661" cy="-469" rx="29.4969" ry="18"/>
<text text-anchor="middle" x="661" y="-465.3" font-family="Times,serif" font-size="14.00">A (a)</text>
</g>
<!-- 01 -->
<g id="node6" class="node"><title>01</title>
<ellipse fill="#ff8a8a" stroke="#b43f3f" cx="541" cy="-382" rx="31.6951" ry="18"/>
<text text-anchor="middle" x="541" y="-378.3" font-family="Times,serif" font-size="14.00">01 (a)</text>
</g>
<!-- A&#45;&gt;01 -->
<g id="edge4" class="edge"><title>A&#45;&gt;01</title>
<path fill="none" stroke="#b43f3f" stroke-dasharray="5,2" d="M635.955,-459.519C620.401,-453.539 600.492,-444.543 585,-433 575.203,-425.7 565.998,-415.909 558.565,-406.927"/>
<polygon fill="#b43f3f" stroke="#b43f3f" points="561.231,-404.655 552.271,-398.999 555.748,-409.007 561.231,-404.655"/>
<text text-anchor="middle" x="607" y="-421.8" font-family="Times,serif" font-size="14.00">1 (57.1)</text>
</g>
<!-- 03 -->
<g id="node7" class="node"><title>03</title>
<ellipse fill="#ff8a8a" stroke="#b43f3f" cx="623" cy="-382" rx="31.6951" ry="18"/>
<text text-anchor="middle" x="623" y="-378.3" font-family="Times,serif" font-size="14.00">03 (a)</text>
</g>
<!-- A&#45;&gt;03 -->
<g id="edge5" class="edge"><title>A&#45;&gt;03</title>
<path fill="none" stroke="#b43f3f" stroke-dasharray="1,5" d="M649.211,-452.19C645.255,-446.371 641.073,-439.589 638,-433 634.629,-425.772 631.803,-417.605 629.546,-409.999"/>
<polygon fill="#b43f3f" stroke="#b43f3f" points="632.853,-408.826 626.822,-400.115 626.105,-410.686 632.853,-408.826"/>
<text text-anchor="middle" x="660" y="-421.8" font-family="Times,serif" font-size="14.00">1 (93.3)</text>
</g>
<!-- P75 -->
<g id="node8" class="node"><title>P75</title>
<ellipse fill="#ff8a8a" stroke="#b43f3f" cx="709" cy="-382" rx="36.2938" ry="18"/>
<text text-anchor="middle" x="709" y="-378.3" font-family="Times,serif" font-size="14.00">P75 (a)</text>
</g>
<!-- A&#45;&gt;P75 -->
<g id="edge6" class="edge"><title>A&#45;&gt;P75</title>
<path fill="none" stroke="#b43f3f" stroke-dasharray="1,5" d="M670.983,-451.709C674.521,-445.845 678.493,-439.157 682,-433 686.443,-425.199 691.139,-416.627 695.347,-408.816"/>
<polygon fill="#b43f3f" stroke="#b43f3f" points="698.555,-410.239 700.188,-399.771 692.383,-406.936 698.555,-410.239"/>
<text text-anchor="middle" x="711" y="-421.8" font-family="Times,serif" font-size="14.00">1 (93.3)</text>
</g>
<!-- 019 -->
<g id="node9" class="node"><title>019</title>
<ellipse fill="#ff8a8a" stroke="#b43f3f" cx="800" cy="-382" rx="36.2938" ry="18"/>
<text text-anchor="middle" x="800" y="-378.3" font-family="Times,serif" font-size="14.00">019 (a)</text>
</g>
<!-- A&#45;&gt;019 -->
<g id="edge7" class="edge"><title>A&#45;&gt;019</title>
<path fill="none" stroke="#b43f3f" stroke-dasharray="1,5" d="M685.032,-458.675C700.372,-452.306 720.418,-443.194 737,-433 750.401,-424.761 764.208,-414.091 775.468,-404.725"/>
<polygon fill="#b43f3f" stroke="#b43f3f" points="777.812,-407.326 783.175,-398.188 773.284,-401.987 777.812,-407.326"/>
<text text-anchor="middle" x="779" y="-421.8" font-family="Times,serif" font-size="14.00">1 (93.3)</text>
</g>
<!-- 044 -->
<g id="node10" class="node"><title>044</title>
<ellipse fill="#ff8a8a" stroke="#b43f3f" cx="537" cy="-295" rx="36.2938" ry="18"/>
<text text-anchor="middle" x="537" y="-291.3" font-family="Times,serif" font-size="14.00">044 (a)</text>
</g>
<!-- 03&#45;&gt;044 -->
<g id="edge8" class="edge"><title>03&#45;&gt;044</title>
<path fill="none" stroke="#b43f3f" stroke-dasharray="1,5" d="M602.353,-367.912C593.467,-361.796 583.248,-354.086 575,-346 567.175,-338.329 559.638,-328.975 553.368,-320.442"/>
<polygon fill="#b43f3f" stroke="#b43f3f" points="556.206,-318.394 547.557,-312.275 550.503,-322.452 556.206,-318.394"/>
<text text-anchor="middle" x="597" y="-334.8" font-family="Times,serif" font-size="14.00">1 (89.2)</text>
</g>
<!-- 02 -->
<g id="node11" class="node"><title>02</title>
<ellipse fill="#ff8a8a" stroke="#b43f3f" cx="623" cy="-295" rx="31.6951" ry="18"/>
<text text-anchor="middle" x="623" y="-291.3" font-family="Times,serif" font-size="14.00">02 (a)</text>
</g>
<!-- 03&#45;&gt;02 -->
<g id="edge9" class="edge"><title>03&#45;&gt;02</title>
<path fill="none" stroke="#b43f3f" stroke-dasharray="1,5" d="M623,-363.799C623,-352.163 623,-336.548 623,-323.237"/>
<polygon fill="#b43f3f" stroke="#b43f3f" points="626.5,-323.175 623,-313.175 619.5,-323.175 626.5,-323.175"/>
<text text-anchor="middle" x="645" y="-334.8" font-family="Times,serif" font-size="14.00">1 (86.5)</text>
</g>
<!-- 032 -->
<g id="node12" class="node"><title>032</title>
<ellipse fill="#ff8a8a" stroke="#b43f3f" cx="709" cy="-295" rx="36.2938" ry="18"/>
<text text-anchor="middle" x="709" y="-291.3" font-family="Times,serif" font-size="14.00">032 (a)</text>
</g>
<!-- 03&#45;&gt;032 -->
<g id="edge10" class="edge"><title>03&#45;&gt;032</title>
<path fill="none" stroke="#b43f3f" stroke-dasharray="1,5" d="M643.647,-367.912C652.533,-361.796 662.752,-354.086 671,-346 678.825,-338.329 686.362,-328.975 692.632,-320.442"/>
<polygon fill="#b43f3f" stroke="#b43f3f" points="695.497,-322.452 698.443,-312.275 689.794,-318.394 695.497,-322.452"/>
<text text-anchor="middle" x="705" y="-334.8" font-family="Times,serif" font-size="14.00">1 (91.7)</text>
</g>
<!-- 011 -->
<g id="node13" class="node"><title>011</title>
<ellipse fill="#ff8a8a" stroke="#b43f3f" cx="274" cy="-208" rx="36.2938" ry="18"/>
<text text-anchor="middle" x="274" y="-204.3" font-family="Times,serif" font-size="14.00">011 (a)</text>
</g>
<!-- 044&#45;&gt;011 -->
<g id="edge11" class="edge"><title>044&#45;&gt;011</title>
<path fill="none" stroke="#b43f3f" stroke-dasharray="1,5" d="M501.58,-290.595C464.947,-286.261 406.55,-277.058 359,-259 338.878,-251.359 318.02,-239.164 302.002,-228.731"/>
<polygon fill="#b43f3f" stroke="#b43f3f" points="303.899,-225.789 293.636,-223.156 300.017,-231.614 303.899,-225.789"/>
<text text-anchor="middle" x="381" y="-247.8" font-family="Times,serif" font-size="14.00">2 (86.5)</text>
</g>
<!-- 022 -->
<g id="node14" class="node"><title>022</title>
<ellipse fill="#ff8a8a" stroke="#b43f3f" cx="365" cy="-208" rx="36.2938" ry="18"/>
<text text-anchor="middle" x="365" y="-204.3" font-family="Times,serif" font-size="14.00">022 (a)</text>
</g>
<!-- 044&#45;&gt;022 -->
<g id="edge12" class="edge"><title>044&#45;&gt;022</title>
<path fill="none" stroke="#b43f3f" stroke-dasharray="1,5" d="M504.626,-286.68C482.528,-280.934 453.021,-271.76 429,-259 414.771,-251.442 400.494,-240.669 389.046,-231.058"/>
<polygon fill="#b43f3f" stroke="#b43f3f" points="391.108,-228.214 381.252,-224.327 386.533,-233.512 391.108,-228.214"/>
<text text-anchor="middle" x="451" y="-247.8" font-family="Times,serif" font-size="14.00">1 (91.7)</text>
</g>
<!-- 07 -->
<g id="node15" class="node"><title>07</title>
<ellipse fill="#ff8a8a" stroke="#b43f3f" cx="451" cy="-208" rx="31.6951" ry="18"/>
<text text-anchor="middle" x="451" y="-204.3" font-family="Times,serif" font-size="14.00">07 (a)</text>
</g>
<!-- 044&#45;&gt;07 -->
<g id="edge13" class="edge"><title>044&#45;&gt;07</title>
<path fill="none" stroke="#b43f3f" stroke-dasharray="1,5" d="M515.396,-280.25C506.74,-274.245 496.954,-266.798 489,-259 481.175,-251.329 473.638,-241.975 467.368,-233.442"/>
<polygon fill="#b43f3f" stroke="#b43f3f" points="470.206,-231.394 461.557,-225.275 464.503,-235.452 470.206,-231.394"/>
<text text-anchor="middle" x="511" y="-247.8" font-family="Times,serif" font-size="14.00">2 (83.8)</text>
</g>
<!-- 021 -->
<g id="node16" class="node"><title>021</title>
<ellipse fill="#ff8a8a" stroke="#b43f3f" cx="537" cy="-208" rx="36.2938" ry="18"/>
<text text-anchor="middle" x="537" y="-204.3" font-family="Times,serif" font-size="14.00">021 (a)</text>
</g>
<!-- 044&#45;&gt;021 -->
<g id="edge14" class="edge"><title>044&#45;&gt;021</title>
<path fill="none" stroke="#b43f3f" stroke-dasharray="1,5" d="M537,-276.799C537,-265.163 537,-249.548 537,-236.237"/>
<polygon fill="#b43f3f" stroke="#b43f3f" points="540.5,-236.175 537,-226.175 533.5,-236.175 540.5,-236.175"/>
<text text-anchor="middle" x="559" y="-247.8" font-family="Times,serif" font-size="14.00">2 (83.8)</text>
</g>
<!-- 0141 -->
<g id="node17" class="node"><title>0141</title>
<ellipse fill="#ff8a8a" stroke="#b43f3f" cx="632" cy="-208" rx="40.0939" ry="18"/>
<text text-anchor="middle" x="632" y="-204.3" font-family="Times,serif" font-size="14.00">0141 (a)</text>
</g>
<!-- 044&#45;&gt;0141 -->
<g id="edge15" class="edge"><title>044&#45;&gt;0141</title>
<path fill="none" stroke="#b43f3f" stroke-dasharray="1,5" d="M557.73,-280.159C566.436,-274.025 576.495,-266.508 585,-259 594.163,-250.911 603.531,-241.276 611.467,-232.632"/>
<polygon fill="#b43f3f" stroke="#b43f3f" points="614.21,-234.816 618.306,-225.045 609.01,-230.129 614.21,-234.816"/>
<text text-anchor="middle" x="623" y="-247.8" font-family="Times,serif" font-size="14.00">1 (89.2)</text>
</g>
<!-- 045 -->
<g id="node18" class="node"><title>045</title>
<ellipse fill="#ff8a8a" stroke="#b43f3f" cx="727" cy="-208" rx="36.2938" ry="18"/>
<text text-anchor="middle" x="727" y="-204.3" font-family="Times,serif" font-size="14.00">045 (a)</text>
</g>
<!-- 044&#45;&gt;045 -->
<g id="edge16" class="edge"><title>044&#45;&gt;045</title>
<path fill="none" stroke="#b43f3f" stroke-dasharray="1,5" d="M564.454,-283.137C570.214,-280.997 576.277,-278.845 582,-277 611.347,-267.54 620.799,-271.467 649,-259 666.787,-251.137 685.171,-239.548 699.621,-229.507"/>
<polygon fill="#b43f3f" stroke="#b43f3f" points="701.946,-232.148 708.069,-223.502 697.891,-226.443 701.946,-232.148"/>
<text text-anchor="middle" x="697" y="-247.8" font-family="Times,serif" font-size="14.00">2 (81.1)</text>
</g>
<!-- 028 -->
<g id="node19" class="node"><title>028</title>
<ellipse fill="#ff8a8a" stroke="#b43f3f" cx="818" cy="-208" rx="36.2938" ry="18"/>
<text text-anchor="middle" x="818" y="-204.3" font-family="Times,serif" font-size="14.00">028 (a)</text>
</g>
<!-- 044&#45;&gt;028 -->
<g id="edge17" class="edge"><title>044&#45;&gt;028</title>
<path fill="none" stroke="#b43f3f" stroke-dasharray="1,5" d="M563.801,-282.705C569.713,-280.544 576.003,-278.494 582,-277 643.303,-261.732 662.754,-278.015 723,-259 746.006,-251.739 770.034,-239.038 788.169,-228.255"/>
<polygon fill="#b43f3f" stroke="#b43f3f" points="790.358,-231.02 797.079,-222.829 786.717,-225.041 790.358,-231.02"/>
<text text-anchor="middle" x="780" y="-247.8" font-family="Times,serif" font-size="14.00">2 (81.1)</text>
</g>
<!-- 031 -->
<g id="node20" class="node"><title>031</title>
<ellipse fill="#ff8a8a" stroke="#b43f3f" cx="344" cy="-121" rx="36.2938" ry="18"/>
<text text-anchor="middle" x="344" y="-117.3" font-family="Times,serif" font-size="14.00">031 (a)</text>
</g>
<!-- 022&#45;&gt;031 -->
<g id="edge18" class="edge"><title>022&#45;&gt;031</title>
<path fill="none" stroke="#b43f3f" stroke-dasharray="1,5" d="M360.75,-189.799C357.857,-178.086 353.967,-162.342 350.664,-148.974"/>
<polygon fill="#b43f3f" stroke="#b43f3f" points="353.968,-147.754 348.172,-138.885 347.172,-149.433 353.968,-147.754"/>
<text text-anchor="middle" x="378" y="-160.8" font-family="Times,serif" font-size="14.00">2 (86.7)</text>
</g>
<!-- 034 -->
<g id="node23" class="node"><title>034</title>
<ellipse fill="#ff8a8a" stroke="#b43f3f" cx="435" cy="-121" rx="36.2938" ry="18"/>
<text text-anchor="middle" x="435" y="-117.3" font-family="Times,serif" font-size="14.00">034 (a)</text>
</g>
<!-- 07&#45;&gt;034 -->
<g id="edge21" class="edge"><title>07&#45;&gt;034</title>
<path fill="none" stroke="#b43f3f" stroke-dasharray="1,5" d="M447.762,-189.799C445.572,-178.163 442.633,-162.548 440.127,-149.237"/>
<polygon fill="#b43f3f" stroke="#b43f3f" points="443.523,-148.355 438.233,-139.175 436.643,-149.65 443.523,-148.355"/>
<text text-anchor="middle" x="466" y="-160.8" font-family="Times,serif" font-size="14.00">1 (95.1)</text>
</g>
<!-- 037 -->
<g id="node24" class="node"><title>037</title>
<ellipse fill="#ff8a8a" stroke="#b43f3f" cx="526" cy="-121" rx="36.2938" ry="18"/>
<text text-anchor="middle" x="526" y="-117.3" font-family="Times,serif" font-size="14.00">037 (a)</text>
</g>
<!-- 07&#45;&gt;037 -->
<g id="edge22" class="edge"><title>07&#45;&gt;037</title>
<path fill="none" stroke="#b43f3f" stroke-dasharray="1,5" d="M469.502,-192.979C476.903,-186.933 485.254,-179.527 492,-172 498.791,-164.422 505.314,-155.414 510.799,-147.145"/>
<polygon fill="#b43f3f" stroke="#b43f3f" points="513.849,-148.871 516.306,-138.565 507.958,-145.09 513.849,-148.871"/>
<text text-anchor="middle" x="526" y="-160.8" font-family="Times,serif" font-size="14.00">1 (97.5)</text>
</g>
<!-- 047 -->
<g id="node25" class="node"><title>047</title>
<ellipse fill="#ff8a8a" stroke="#b43f3f" cx="617" cy="-121" rx="36.2938" ry="18"/>
<text text-anchor="middle" x="617" y="-117.3" font-family="Times,serif" font-size="14.00">047 (a)</text>
</g>
<!-- 021&#45;&gt;047 -->
<g id="edge23" class="edge"><title>021&#45;&gt;047</title>
<path fill="none" stroke="#b43f3f" stroke-dasharray="1,5" d="M551.673,-191.41C563.776,-178.55 581.135,-160.107 594.916,-145.464"/>
<polygon fill="#b43f3f" stroke="#b43f3f" points="597.844,-147.46 602.149,-137.779 592.746,-142.663 597.844,-147.46"/>
<text text-anchor="middle" x="604" y="-160.8" font-family="Times,serif" font-size="14.00">1 (95.1)</text>
</g>
<!-- 038 -->
<g id="node26" class="node"><title>038</title>
<ellipse fill="#ff8a8a" stroke="#b43f3f" cx="727" cy="-121" rx="36.2938" ry="18"/>
<text text-anchor="middle" x="727" y="-117.3" font-family="Times,serif" font-size="14.00">038 (a)</text>
</g>
<!-- 045&#45;&gt;038 -->
<g id="edge24" class="edge"><title>045&#45;&gt;038</title>
<path fill="none" stroke="#b43f3f" stroke-dasharray="1,5" d="M727,-189.799C727,-178.163 727,-162.548 727,-149.237"/>
<polygon fill="#b43f3f" stroke="#b43f3f" points="730.5,-149.175 727,-139.175 723.5,-149.175 730.5,-149.175"/>
<text text-anchor="middle" x="749" y="-160.8" font-family="Times,serif" font-size="14.00">1 (92.7)</text>
</g>
<!-- 017 -->
<g id="node21" class="node"><title>017</title>
<ellipse fill="#ff8a8a" stroke="#b43f3f" cx="276" cy="-34" rx="36.2938" ry="18"/>
<text text-anchor="middle" x="276" y="-30.3" font-family="Times,serif" font-size="14.00">017 (a)</text>
</g>
<!-- 031&#45;&gt;017 -->
<g id="edge19" class="edge"><title>031&#45;&gt;017</title>
<path fill="none" stroke="#b43f3f" stroke-dasharray="1,5" d="M326.504,-105.173C320.008,-99.2395 312.811,-92.1268 307,-85 300.81,-77.4085 294.907,-68.4876 289.945,-60.2987"/>
<polygon fill="#b43f3f" stroke="#b43f3f" points="292.85,-58.3348 284.777,-51.4743 286.81,-61.8722 292.85,-58.3348"/>
<text text-anchor="middle" x="329" y="-73.8" font-family="Times,serif" font-size="14.00">1 (94.3)</text>
</g>
<!-- 013 -->
<g id="node22" class="node"><title>013</title>
<ellipse fill="#ff8a8a" stroke="#b43f3f" cx="367" cy="-34" rx="36.2938" ry="18"/>
<text text-anchor="middle" x="367" y="-30.3" font-family="Times,serif" font-size="14.00">013 (a)</text>
</g>
<!-- 031&#45;&gt;013 -->
<g id="edge20" class="edge"><title>031&#45;&gt;013</title>
<path fill="none" stroke="#b43f3f" stroke-dasharray="1,5" d="M348.654,-102.799C351.855,-90.9701 356.168,-75.0301 359.808,-61.578"/>
<polygon fill="#b43f3f" stroke="#b43f3f" points="363.197,-62.4524 362.431,-51.8854 356.44,-60.624 363.197,-62.4524"/>
<text text-anchor="middle" x="379" y="-73.8" font-family="Times,serif" font-size="14.00">1 (97.1)</text>
</g>
</g>
</svg>
