<?xml version="1.0" encoding="UTF-8" standalone="no"?>
<!DOCTYPE svg PUBLIC "-//W3C//DTD SVG 1.1//EN"
 "http://www.w3.org/Graphics/SVG/1.1/DTD/svg11.dtd">
<!-- Generated by graphviz version 2.38.0 (20140413.2041)
 -->
<!-- Title: %3 Pages: 1 -->
<svg width="971pt" height="337pt"
 viewBox="0.00 0.00 971.00 337.00" xmlns="http://www.w3.org/2000/svg" xmlns:xlink="http://www.w3.org/1999/xlink">
<g id="graph0" class="graph" transform="scale(1 1) rotate(0) translate(4 333)">
<title>%3</title>
<polygon fill="white" stroke="none" points="-4,4 -4,-333 967,-333 967,4 -4,4"/>
<g id="clust1" class="cluster"><title>cluster_legend</title>
<path fill="none" stroke="black" d="M20,-193C20,-193 210,-193 210,-193 216,-193 222,-199 222,-205 222,-205 222,-309 222,-309 222,-315 216,-321 210,-321 210,-321 20,-321 20,-321 14,-321 8,-315 8,-309 8,-309 8,-205 8,-205 8,-199 14,-193 20,-193"/>
</g>
<g id="clust2" class="cluster"><title>cluster_reading</title>
<polygon fill="none" stroke="black" points="230,-8 230,-321 955,-321 955,-8 230,-8"/>
</g>
<!-- leg_s -->
<g id="node1" class="node"><title>leg_s</title>
<text text-anchor="middle" x="115" y="-291.3" font-family="Times,serif" font-size="14.00">Textual flow strength</text>
</g>
<!-- leg_e1 -->
<!-- leg_s&#45;&gt;leg_e1 -->
<g id="edge1" class="edge"><title>leg_s&#45;&gt;leg_e1</title>
<path fill="none" stroke="black" stroke-dasharray="1,5" d="M96.6657,-276.686C91.1324,-271.194 85.1607,-264.989 80,-259 70.1708,-247.593 60.0722,-233.779 52.9137,-223.563"/>
<polygon fill="black" stroke="black" points="55.6142,-221.314 47.056,-215.068 49.8514,-225.288 55.6142,-221.314"/>
<text text-anchor="middle" x="95.5" y="-247.8" font-family="Times,serif" font-size="14.00">&lt;=5 &#160;</text>
</g>
<!-- leg_e2 -->
<!-- leg_s&#45;&gt;leg_e2 -->
<g id="edge2" class="edge"><title>leg_s&#45;&gt;leg_e2</title>
<path fill="none" stroke="black" stroke-dasharray="5,2" d="M115,-276.799C115,-261.794 115,-240.174 115,-225.409"/>
<polygon fill="black" stroke="black" points="118.5,-225.293 115,-215.293 111.5,-225.293 118.5,-225.293"/>
<text text-anchor="middle" x="134" y="-247.8" font-family="Times,serif" font-size="14.00"> &#160;&lt;=25</text>
</g>
<!-- leg_e3 -->
<!-- leg_s&#45;&gt;leg_e3 -->
<g id="edge3" class="edge"><title>leg_s&#45;&gt;leg_e3</title>
<path fill="none" stroke="black" d="M138.503,-276.76C144.906,-271.462 151.567,-265.344 157,-259 166.087,-248.39 174.095,-234.689 179.546,-224.313"/>
<polygon fill="black" stroke="black" points="182.722,-225.789 184.091,-215.283 176.469,-222.642 182.722,-225.789"/>
<text text-anchor="middle" x="179" y="-247.8" font-family="Times,serif" font-size="14.00">&gt;25</text>
</g>
<!-- 044 -->
<g id="node5" class="node"><title>044</title>
<ellipse fill="#ff8a8a" stroke="#b43f3f" cx="739" cy="-208" rx="36.2938" ry="18"/>
<text text-anchor="middle" x="739" y="-204.3" font-family="Times,serif" font-size="14.00">044 (a)</text>
</g>
<!-- 022 -->
<g id="node6" class="node"><title>022</title>
<ellipse fill="#ff8a8a" stroke="#b43f3f" cx="812" cy="-121" rx="36.2938" ry="18"/>
<text text-anchor="middle" x="812" y="-117.3" font-family="Times,serif" font-size="14.00">022 (a)</text>
</g>
<!-- 044&#45;&gt;022 -->
<g id="edge4" class="edge"><title>044&#45;&gt;022</title>
<path fill="none" stroke="#b43f3f" stroke-dasharray="1,5" d="M752.731,-191.012C763.743,-178.19 779.358,-160.007 791.797,-145.524"/>
<polygon fill="#b43f3f" stroke="#b43f3f" points="794.471,-147.783 798.331,-137.916 789.16,-143.222 794.471,-147.783"/>
<text text-anchor="middle" x="801" y="-160.8" font-family="Times,serif" font-size="14.00">1 (91.7)</text>
</g>
<!-- 0141 -->
<g id="node7" class="node"><title>0141</title>
<ellipse fill="#ff8a8a" stroke="#b43f3f" cx="907" cy="-121" rx="40.0939" ry="18"/>
<text text-anchor="middle" x="907" y="-117.3" font-family="Times,serif" font-size="14.00">0141 (a)</text>
</g>
<!-- 044&#45;&gt;0141 -->
<g id="edge5" class="edge"><title>044&#45;&gt;0141</title>
<path fill="none" stroke="#b43f3f" stroke-dasharray="1,5" d="M767.411,-196.336C788.802,-188.188 816.218,-177.458 827,-172 844.305,-163.241 862.719,-151.886 877.512,-142.211"/>
<polygon fill="#b43f3f" stroke="#b43f3f" points="879.813,-144.886 886.214,-136.443 875.945,-139.051 879.813,-144.886"/>
<text text-anchor="middle" x="873" y="-160.8" font-family="Times,serif" font-size="14.00">1 (89.2)</text>
</g>
<!-- 031 -->
<g id="node8" class="node"><title>031</title>
<ellipse fill="#ff8a8a" stroke="#b43f3f" cx="276" cy="-121" rx="36.2938" ry="18"/>
<text text-anchor="middle" x="276" y="-117.3" font-family="Times,serif" font-size="14.00">031 (a)</text>
</g>
<!-- 013 -->
<g id="node9" class="node"><title>013</title>
<ellipse fill="#ff8a8a" stroke="#b43f3f" cx="274" cy="-34" rx="36.2938" ry="18"/>
<text text-anchor="middle" x="274" y="-30.3" font-family="Times,serif" font-size="14.00">013 (a)</text>
</g>
<!-- 031&#45;&gt;013 -->
<g id="edge6" class="edge"><title>031&#45;&gt;013</title>
<path fill="none" stroke="#b43f3f" stroke-dasharray="1,5" d="M275.595,-102.799C275.321,-91.1626 274.954,-75.5479 274.641,-62.2368"/>
<polygon fill="#b43f3f" stroke="#b43f3f" points="278.138,-62.0903 274.404,-52.1754 271.14,-62.255 278.138,-62.0903"/>
<text text-anchor="middle" x="298" y="-73.8" font-family="Times,serif" font-size="14.00">1 (97.1)</text>
</g>
<!-- 017 -->
<g id="node10" class="node"><title>017</title>
<ellipse fill="#ff8a8a" stroke="#b43f3f" cx="365" cy="-34" rx="36.2938" ry="18"/>
<text text-anchor="middle" x="365" y="-30.3" font-family="Times,serif" font-size="14.00">017 (a)</text>
</g>
<!-- 031&#45;&gt;017 -->
<g id="edge7" class="edge"><title>031&#45;&gt;017</title>
<path fill="none" stroke="#b43f3f" stroke-dasharray="1,5" d="M297.461,-106.102C306.095,-100.074 315.903,-92.6494 324,-85 332.201,-77.2521 340.281,-67.8817 347.073,-59.3567"/>
<polygon fill="#b43f3f" stroke="#b43f3f" points="350.031,-61.2531 353.39,-51.205 344.498,-56.965 350.031,-61.2531"/>
<text text-anchor="middle" x="360" y="-73.8" font-family="Times,serif" font-size="14.00">1 (94.3)</text>
</g>
<!-- 03 -->
<g id="node11" class="node"><title>03</title>
<ellipse fill="#ff8a8a" stroke="#b43f3f" cx="825" cy="-295" rx="31.6951" ry="18"/>
<text text-anchor="middle" x="825" y="-291.3" font-family="Times,serif" font-size="14.00">03 (a)</text>
</g>
<!-- 03&#45;&gt;044 -->
<g id="edge8" class="edge"><title>03&#45;&gt;044</title>
<path fill="none" stroke="#b43f3f" stroke-dasharray="1,5" d="M804.353,-280.912C795.467,-274.796 785.248,-267.086 777,-259 769.175,-251.329 761.638,-241.975 755.368,-233.442"/>
<polygon fill="#b43f3f" stroke="#b43f3f" points="758.206,-231.394 749.557,-225.275 752.503,-235.452 758.206,-231.394"/>
<text text-anchor="middle" x="799" y="-247.8" font-family="Times,serif" font-size="14.00">1 (89.2)</text>
</g>
<!-- 02 -->
<g id="node12" class="node"><title>02</title>
<ellipse fill="#ff8a8a" stroke="#b43f3f" cx="825" cy="-208" rx="31.6951" ry="18"/>
<text text-anchor="middle" x="825" y="-204.3" font-family="Times,serif" font-size="14.00">02 (a)</text>
</g>
<!-- 03&#45;&gt;02 -->
<g id="edge9" class="edge"><title>03&#45;&gt;02</title>
<path fill="none" stroke="#b43f3f" stroke-dasharray="1,5" d="M825,-276.799C825,-265.163 825,-249.548 825,-236.237"/>
<polygon fill="#b43f3f" stroke="#b43f3f" points="828.5,-236.175 825,-226.175 821.5,-236.175 828.5,-236.175"/>
<text text-anchor="middle" x="847" y="-247.8" font-family="Times,serif" font-size="14.00">1 (86.5)</text>
</g>
<!-- 032 -->
<g id="node13" class="node"><title>032</title>
<ellipse fill="#ff8a8a" stroke="#b43f3f" cx="911" cy="-208" rx="36.2938" ry="18"/>
<text text-anchor="middle" x="911" y="-204.3" font-family="Times,serif" font-size="14.00">032 (a)</text>
</g>
<!-- 03&#45;&gt;032 -->
<g id="edge10" class="edge"><title>03&#45;&gt;032</title>
<path fill="none" stroke="#b43f3f" stroke-dasharray="1,5" d="M845.647,-280.912C854.533,-274.796 864.752,-267.086 873,-259 880.825,-251.329 888.362,-241.975 894.632,-233.442"/>
<polygon fill="#b43f3f" stroke="#b43f3f" points="897.497,-235.452 900.443,-225.275 891.794,-231.394 897.497,-235.452"/>
<text text-anchor="middle" x="907" y="-247.8" font-family="Times,serif" font-size="14.00">1 (91.7)</text>
</g>
<!-- 063 -->
<g id="node14" class="node"><title>063</title>
<ellipse fill="#ff8a8a" stroke="#b43f3f" cx="487" cy="-208" rx="36.2938" ry="18"/>
<text text-anchor="middle" x="487" y="-204.3" font-family="Times,serif" font-size="14.00">063 (a)</text>
</g>
<!-- 063&#45;&gt;031 -->
<g id="edge11" class="edge"><title>063&#45;&gt;031</title>
<path fill="none" stroke="#b43f3f" stroke-dasharray="1,5" d="M459.046,-196.321C452.525,-194.048 445.566,-191.795 439,-190 398.81,-179.016 385.32,-188.355 347,-172 330.393,-164.912 313.785,-153.513 300.812,-143.387"/>
<polygon fill="#b43f3f" stroke="#b43f3f" points="302.832,-140.521 292.848,-136.976 298.442,-145.973 302.832,-140.521"/>
<text text-anchor="middle" x="369" y="-160.8" font-family="Times,serif" font-size="14.00">1 (95.8)</text>
</g>
<!-- 011 -->
<g id="node15" class="node"><title>011</title>
<ellipse fill="#ff8a8a" stroke="#b43f3f" cx="367" cy="-121" rx="36.2938" ry="18"/>
<text text-anchor="middle" x="367" y="-117.3" font-family="Times,serif" font-size="14.00">011 (a)</text>
</g>
<!-- 063&#45;&gt;011 -->
<g id="edge12" class="edge"><title>063&#45;&gt;011</title>
<path fill="none" stroke="#b43f3f" stroke-dasharray="1,5" d="M457.574,-197.106C442.49,-191.203 424.331,-182.75 410,-172 400.561,-164.919 391.752,-155.436 384.597,-146.632"/>
<polygon fill="#b43f3f" stroke="#b43f3f" points="387.177,-144.248 378.276,-138.5 381.65,-148.544 387.177,-144.248"/>
<text text-anchor="middle" x="432" y="-160.8" font-family="Times,serif" font-size="14.00">1 (93.1)</text>
</g>
<!-- 07 -->
<g id="node16" class="node"><title>07</title>
<ellipse fill="#ff8a8a" stroke="#b43f3f" cx="453" cy="-121" rx="31.6951" ry="18"/>
<text text-anchor="middle" x="453" y="-117.3" font-family="Times,serif" font-size="14.00">07 (a)</text>
</g>
<!-- 063&#45;&gt;07 -->
<g id="edge13" class="edge"><title>063&#45;&gt;07</title>
<path fill="none" stroke="#b43f3f" stroke-dasharray="1,5" d="M473.436,-191.166C469.174,-185.452 464.844,-178.743 462,-172 458.983,-164.849 456.977,-156.706 455.643,-149.098"/>
<polygon fill="#b43f3f" stroke="#b43f3f" points="459.107,-148.593 454.209,-139.198 452.179,-149.597 459.107,-148.593"/>
<text text-anchor="middle" x="484" y="-160.8" font-family="Times,serif" font-size="14.00">1 (96.6)</text>
</g>
<!-- 045 -->
<g id="node17" class="node"><title>045</title>
<ellipse fill="#ff8a8a" stroke="#b43f3f" cx="539" cy="-121" rx="36.2938" ry="18"/>
<text text-anchor="middle" x="539" y="-117.3" font-family="Times,serif" font-size="14.00">045 (a)</text>
</g>
<!-- 063&#45;&gt;045 -->
<g id="edge14" class="edge"><title>063&#45;&gt;045</title>
<path fill="none" stroke="#b43f3f" stroke-dasharray="1,5" d="M497.026,-190.611C504.58,-178.264 515.07,-161.117 523.673,-147.053"/>
<polygon fill="#b43f3f" stroke="#b43f3f" points="526.772,-148.695 529.005,-138.339 520.8,-145.042 526.772,-148.695"/>
<text text-anchor="middle" x="539" y="-160.8" font-family="Times,serif" font-size="14.00">1 (93.1)</text>
</g>
<!-- 021 -->
<g id="node18" class="node"><title>021</title>
<ellipse fill="#ff8a8a" stroke="#b43f3f" cx="630" cy="-121" rx="36.2938" ry="18"/>
<text text-anchor="middle" x="630" y="-117.3" font-family="Times,serif" font-size="14.00">021 (a)</text>
</g>
<!-- 063&#45;&gt;021 -->
<g id="edge15" class="edge"><title>063&#45;&gt;021</title>
<path fill="none" stroke="#b43f3f" stroke-dasharray="1,5" d="M514.861,-196.363C530.105,-190.087 549.075,-181.519 565,-172 578.866,-163.712 593.209,-152.949 604.882,-143.533"/>
<polygon fill="#b43f3f" stroke="#b43f3f" points="607.364,-146.024 612.866,-136.969 602.918,-140.617 607.364,-146.024"/>
<text text-anchor="middle" x="608" y="-160.8" font-family="Times,serif" font-size="14.00">1 (93.1)</text>
</g>
<!-- 028 -->
<g id="node19" class="node"><title>028</title>
<ellipse fill="#ff8a8a" stroke="#b43f3f" cx="721" cy="-121" rx="36.2938" ry="18"/>
<text text-anchor="middle" x="721" y="-117.3" font-family="Times,serif" font-size="14.00">028 (a)</text>
</g>
<!-- 063&#45;&gt;028 -->
<g id="edge16" class="edge"><title>063&#45;&gt;028</title>
<path fill="none" stroke="#b43f3f" stroke-dasharray="1,5" d="M521.42,-201.698C551.766,-196.35 596.812,-186.753 634,-172 654.221,-163.978 675.416,-151.885 691.823,-141.601"/>
<polygon fill="#b43f3f" stroke="#b43f3f" points="693.869,-144.447 700.409,-136.112 690.098,-138.55 693.869,-144.447"/>
<text text-anchor="middle" x="686" y="-160.8" font-family="Times,serif" font-size="14.00">1 (96.6)</text>
</g>
<!-- 037 -->
<g id="node24" class="node"><title>037</title>
<ellipse fill="#ff8a8a" stroke="#b43f3f" cx="456" cy="-34" rx="36.2938" ry="18"/>
<text text-anchor="middle" x="456" y="-30.3" font-family="Times,serif" font-size="14.00">037 (a)</text>
</g>
<!-- 07&#45;&gt;037 -->
<g id="edge20" class="edge"><title>07&#45;&gt;037</title>
<path fill="none" stroke="#b43f3f" stroke-dasharray="1,5" d="M453.607,-102.799C454.018,-91.1626 454.569,-75.5479 455.039,-62.2368"/>
<polygon fill="#b43f3f" stroke="#b43f3f" points="458.539,-62.2927 455.394,-52.1754 451.543,-62.0457 458.539,-62.2927"/>
<text text-anchor="middle" x="477" y="-73.8" font-family="Times,serif" font-size="14.00">1 (97.5)</text>
</g>
<!-- 034 -->
<g id="node25" class="node"><title>034</title>
<ellipse fill="#ff8a8a" stroke="#b43f3f" cx="547" cy="-34" rx="36.2938" ry="18"/>
<text text-anchor="middle" x="547" y="-30.3" font-family="Times,serif" font-size="14.00">034 (a)</text>
</g>
<!-- 07&#45;&gt;034 -->
<g id="edge21" class="edge"><title>07&#45;&gt;034</title>
<path fill="none" stroke="#b43f3f" stroke-dasharray="1,5" d="M473.776,-107.075C483.098,-100.876 493.998,-93.0548 503,-85 511.75,-77.1702 520.482,-67.6848 527.833,-59.0893"/>
<polygon fill="#b43f3f" stroke="#b43f3f" points="530.693,-61.1242 534.413,-51.2039 525.319,-56.6393 530.693,-61.1242"/>
<text text-anchor="middle" x="540" y="-73.8" font-family="Times,serif" font-size="14.00">1 (95.1)</text>
</g>
<!-- 030 -->
<g id="node26" class="node"><title>030</title>
<ellipse fill="#ff8a8a" stroke="#b43f3f" cx="638" cy="-34" rx="36.2938" ry="18"/>
<text text-anchor="middle" x="638" y="-30.3" font-family="Times,serif" font-size="14.00">030 (a)</text>
</g>
<!-- 07&#45;&gt;030 -->
<g id="edge22" class="edge"><title>07&#45;&gt;030</title>
<path fill="none" stroke="#b43f3f" stroke-dasharray="1,5" d="M477.493,-109.152C482.875,-106.963 488.586,-104.788 494,-103 525.321,-92.6548 535.963,-98.6299 566,-85 582.484,-77.5201 599.193,-66.1969 612.36,-56.2166"/>
<polygon fill="#b43f3f" stroke="#b43f3f" points="614.724,-58.8118 620.463,-49.906 610.423,-53.2891 614.724,-58.8118"/>
<text text-anchor="middle" x="614" y="-73.8" font-family="Times,serif" font-size="14.00">1 (95.1)</text>
</g>
<!-- 038 -->
<g id="node27" class="node"><title>038</title>
<ellipse fill="#ff8a8a" stroke="#b43f3f" cx="729" cy="-34" rx="36.2938" ry="18"/>
<text text-anchor="middle" x="729" y="-30.3" font-family="Times,serif" font-size="14.00">038 (a)</text>
</g>
<!-- 045&#45;&gt;038 -->
<g id="edge23" class="edge"><title>045&#45;&gt;038</title>
<path fill="none" stroke="#b43f3f" stroke-dasharray="1,5" d="M567.159,-109.403C573.04,-107.243 579.211,-105.016 585,-103 609.289,-94.5405 616.453,-95.3483 640,-85 660.124,-76.1558 681.64,-64.1448 698.475,-54.1115"/>
<polygon fill="#b43f3f" stroke="#b43f3f" points="700.559,-56.9414 707.307,-48.7737 696.938,-50.9505 700.559,-56.9414"/>
<text text-anchor="middle" x="693" y="-73.8" font-family="Times,serif" font-size="14.00">1 (92.7)</text>
</g>
<!-- 036 -->
<g id="node28" class="node"><title>036</title>
<ellipse fill="#ff8a8a" stroke="#b43f3f" cx="820" cy="-34" rx="36.2938" ry="18"/>
<text text-anchor="middle" x="820" y="-30.3" font-family="Times,serif" font-size="14.00">036 (a)</text>
</g>
<!-- 021&#45;&gt;036 -->
<g id="edge24" class="edge"><title>021&#45;&gt;036</title>
<path fill="none" stroke="#b43f3f" stroke-dasharray="1,5" d="M658.312,-109.57C675.927,-102.908 698.963,-93.8801 719,-85 741.905,-74.8488 767.165,-62.3433 786.694,-52.3784"/>
<polygon fill="#b43f3f" stroke="#b43f3f" points="788.487,-55.3924 795.785,-47.7121 785.29,-49.1648 788.487,-55.3924"/>
<text text-anchor="middle" x="771" y="-73.8" font-family="Times,serif" font-size="14.00">1 (97.6)</text>
</g>
<!-- 047 -->
<g id="node29" class="node"><title>047</title>
<ellipse fill="#ff8a8a" stroke="#b43f3f" cx="911" cy="-34" rx="36.2938" ry="18"/>
<text text-anchor="middle" x="911" y="-30.3" font-family="Times,serif" font-size="14.00">047 (a)</text>
</g>
<!-- 021&#45;&gt;047 -->
<g id="edge25" class="edge"><title>021&#45;&gt;047</title>
<path fill="none" stroke="#b43f3f" stroke-dasharray="1,5" d="M657.437,-108.811C663.478,-106.644 669.897,-104.564 676,-103 728.668,-89.5046 744.755,-100.052 797,-85 825.347,-76.8333 855.875,-63.1603 878.2,-52.1748"/>
<polygon fill="#b43f3f" stroke="#b43f3f" points="879.857,-55.2593 887.235,-47.6552 876.725,-48.9989 879.857,-55.2593"/>
<text text-anchor="middle" x="860" y="-73.8" font-family="Times,serif" font-size="14.00">1 (95.1)</text>
</g>
<!-- 019 -->
<g id="node20" class="node"><title>019</title>
<ellipse fill="#ff8a8a" stroke="#b43f3f" cx="487" cy="-295" rx="36.2938" ry="18"/>
<text text-anchor="middle" x="487" y="-291.3" font-family="Times,serif" font-size="14.00">019 (a)</text>
</g>
<!-- 019&#45;&gt;063 -->
<g id="edge17" class="edge"><title>019&#45;&gt;063</title>
<path fill="none" stroke="#b43f3f" stroke-dasharray="1,5" d="M487,-276.799C487,-265.163 487,-249.548 487,-236.237"/>
<polygon fill="#b43f3f" stroke="#b43f3f" points="490.5,-236.175 487,-226.175 483.5,-236.175 490.5,-236.175"/>
<text text-anchor="middle" x="509" y="-247.8" font-family="Times,serif" font-size="14.00">1 (85.7)</text>
</g>
<!-- 091 -->
<g id="node21" class="node"><title>091</title>
<ellipse fill="#ff8a8a" stroke="#b43f3f" cx="387" cy="-295" rx="36.2938" ry="18"/>
<text text-anchor="middle" x="387" y="-291.3" font-family="Times,serif" font-size="14.00">091 (a)</text>
</g>
<!-- 0211 -->
<g id="node22" class="node"><title>0211</title>
<ellipse fill="#ff8a8a" stroke="#b43f3f" cx="308" cy="-208" rx="40.0939" ry="18"/>
<text text-anchor="middle" x="308" y="-204.3" font-family="Times,serif" font-size="14.00">0211 (a)</text>
</g>
<!-- 091&#45;&gt;0211 -->
<g id="edge18" class="edge"><title>091&#45;&gt;0211</title>
<path fill="none" stroke="#b43f3f" stroke-dasharray="1,5" d="M367.22,-279.68C359.573,-273.702 350.998,-266.425 344,-259 336.813,-251.374 329.854,-242.262 324.002,-233.919"/>
<polygon fill="#b43f3f" stroke="#b43f3f" points="326.859,-231.896 318.34,-225.596 321.071,-235.833 326.859,-231.896"/>
<text text-anchor="middle" x="366" y="-247.8" font-family="Times,serif" font-size="14.00">1 (83.3)</text>
</g>
<!-- 05 -->
<g id="node23" class="node"><title>05</title>
<ellipse fill="#ff8a8a" stroke="#b43f3f" cx="398" cy="-208" rx="31.6951" ry="18"/>
<text text-anchor="middle" x="398" y="-204.3" font-family="Times,serif" font-size="14.00">05 (a)</text>
</g>
<!-- 091&#45;&gt;05 -->
<g id="edge19" class="edge"><title>091&#45;&gt;05</title>
<path fill="none" stroke="#b43f3f" stroke-dasharray="1,5" d="M389.226,-276.799C390.732,-265.163 392.753,-249.548 394.475,-236.237"/>
<polygon fill="#b43f3f" stroke="#b43f3f" points="397.965,-236.542 395.777,-226.175 391.023,-235.644 397.965,-236.542"/>
<text text-anchor="middle" x="416" y="-247.8" font-family="Times,serif" font-size="14.00">1 (87.5)</text>
</g>
<!-- P75 -->
<g id="node30" class="node"><title>P75</title>
<ellipse fill="#ff8a8a" stroke="#b43f3f" cx="276" cy="-295" rx="36.2938" ry="18"/>
<text text-anchor="middle" x="276" y="-291.3" font-family="Times,serif" font-size="14.00">P75 (a)</text>
</g>
</g>
</svg>
