<?xml version="1.0" encoding="UTF-8" standalone="no"?>
<!DOCTYPE svg PUBLIC "-//W3C//DTD SVG 1.1//EN"
 "http://www.w3.org/Graphics/SVG/1.1/DTD/svg11.dtd">
<!-- Generated by graphviz version 2.38.0 (20140413.2041)
 -->
<!-- Title: %3 Pages: 1 -->
<svg width="971pt" height="424pt"
 viewBox="0.00 0.00 971.00 424.00" xmlns="http://www.w3.org/2000/svg" xmlns:xlink="http://www.w3.org/1999/xlink">
<g id="graph0" class="graph" transform="scale(1 1) rotate(0) translate(4 420)">
<title>%3</title>
<polygon fill="white" stroke="none" points="-4,4 -4,-420 967,-420 967,4 -4,4"/>
<g id="clust1" class="cluster"><title>cluster_legend</title>
<path fill="none" stroke="black" d="M20,-280C20,-280 210,-280 210,-280 216,-280 222,-286 222,-292 222,-292 222,-396 222,-396 222,-402 216,-408 210,-408 210,-408 20,-408 20,-408 14,-408 8,-402 8,-396 8,-396 8,-292 8,-292 8,-286 14,-280 20,-280"/>
</g>
<g id="clust2" class="cluster"><title>cluster_reading</title>
<polygon fill="none" stroke="black" points="230,-8 230,-408 955,-408 955,-8 230,-8"/>
</g>
<!-- leg_s -->
<g id="node1" class="node"><title>leg_s</title>
<text text-anchor="middle" x="115" y="-378.3" font-family="Times,serif" font-size="14.00">Textual flow strength</text>
</g>
<!-- leg_e1 -->
<!-- leg_s&#45;&gt;leg_e1 -->
<g id="edge1" class="edge"><title>leg_s&#45;&gt;leg_e1</title>
<path fill="none" stroke="black" stroke-dasharray="1,5" d="M96.6657,-363.686C91.1324,-358.194 85.1607,-351.989 80,-346 70.1708,-334.593 60.0722,-320.779 52.9137,-310.563"/>
<polygon fill="black" stroke="black" points="55.6142,-308.314 47.056,-302.068 49.8514,-312.288 55.6142,-308.314"/>
<text text-anchor="middle" x="95.5" y="-334.8" font-family="Times,serif" font-size="14.00">&lt;=5 &#160;</text>
</g>
<!-- leg_e2 -->
<!-- leg_s&#45;&gt;leg_e2 -->
<g id="edge2" class="edge"><title>leg_s&#45;&gt;leg_e2</title>
<path fill="none" stroke="black" stroke-dasharray="5,2" d="M115,-363.799C115,-348.794 115,-327.174 115,-312.409"/>
<polygon fill="black" stroke="black" points="118.5,-312.293 115,-302.293 111.5,-312.293 118.5,-312.293"/>
<text text-anchor="middle" x="134" y="-334.8" font-family="Times,serif" font-size="14.00"> &#160;&lt;=25</text>
</g>
<!-- leg_e3 -->
<!-- leg_s&#45;&gt;leg_e3 -->
<g id="edge3" class="edge"><title>leg_s&#45;&gt;leg_e3</title>
<path fill="none" stroke="black" d="M138.503,-363.76C144.906,-358.462 151.567,-352.344 157,-346 166.087,-335.39 174.095,-321.689 179.546,-311.313"/>
<polygon fill="black" stroke="black" points="182.722,-312.789 184.091,-302.283 176.469,-309.642 182.722,-312.789"/>
<text text-anchor="middle" x="179" y="-334.8" font-family="Times,serif" font-size="14.00">&gt;25</text>
</g>
<!-- 044 -->
<g id="node5" class="node"><title>044</title>
<ellipse fill="#ff8a8a" stroke="#b43f3f" cx="558" cy="-208" rx="36.2938" ry="18"/>
<text text-anchor="middle" x="558" y="-204.3" font-family="Times,serif" font-size="14.00">044 (a)</text>
</g>
<!-- 022 -->
<g id="node6" class="node"><title>022</title>
<ellipse fill="#ff8a8a" stroke="#b43f3f" cx="812" cy="-121" rx="36.2938" ry="18"/>
<text text-anchor="middle" x="812" y="-117.3" font-family="Times,serif" font-size="14.00">022 (a)</text>
</g>
<!-- 044&#45;&gt;022 -->
<g id="edge4" class="edge"><title>044&#45;&gt;022</title>
<path fill="none" stroke="#b43f3f" stroke-dasharray="1,5" d="M584.792,-195.671C590.705,-193.512 596.998,-191.471 603,-190 668.215,-174.019 691.453,-198.84 753,-172 767.123,-165.841 780.439,-155.158 790.834,-145.243"/>
<polygon fill="#b43f3f" stroke="#b43f3f" points="793.582,-147.445 798.179,-137.899 788.633,-142.495 793.582,-147.445"/>
<text text-anchor="middle" x="798" y="-160.8" font-family="Times,serif" font-size="14.00">1 (91.7)</text>
</g>
<!-- 0141 -->
<g id="node7" class="node"><title>0141</title>
<ellipse fill="#ff8a8a" stroke="#b43f3f" cx="907" cy="-121" rx="40.0939" ry="18"/>
<text text-anchor="middle" x="907" y="-117.3" font-family="Times,serif" font-size="14.00">0141 (a)</text>
</g>
<!-- 044&#45;&gt;0141 -->
<g id="edge5" class="edge"><title>044&#45;&gt;0141</title>
<path fill="none" stroke="#b43f3f" stroke-dasharray="1,5" d="M584.751,-195.496C590.667,-193.349 596.971,-191.356 603,-190 699.146,-168.375 730.202,-202.225 824,-172 843.809,-165.617 863.857,-153.725 879.286,-143.141"/>
<polygon fill="#b43f3f" stroke="#b43f3f" points="881.662,-145.747 887.8,-137.111 877.617,-140.034 881.662,-145.747"/>
<text text-anchor="middle" x="877" y="-160.8" font-family="Times,serif" font-size="14.00">1 (89.2)</text>
</g>
<!-- A -->
<g id="node8" class="node"><title>A</title>
<ellipse fill="#ff8a8a" stroke="#b43f3f" cx="596" cy="-382" rx="29.4969" ry="18"/>
<text text-anchor="middle" x="596" y="-378.3" font-family="Times,serif" font-size="14.00">A (a)</text>
</g>
<!-- P75 -->
<g id="node9" class="node"><title>P75</title>
<ellipse fill="#ff8a8a" stroke="#b43f3f" cx="467" cy="-295" rx="36.2938" ry="18"/>
<text text-anchor="middle" x="467" y="-291.3" font-family="Times,serif" font-size="14.00">P75 (a)</text>
</g>
<!-- A&#45;&gt;P75 -->
<g id="edge6" class="edge"><title>A&#45;&gt;P75</title>
<path fill="none" stroke="#b43f3f" stroke-dasharray="1,5" d="M571.314,-372.013C555.899,-365.837 536.012,-356.812 520,-346 508.697,-338.368 497.515,-328.296 488.356,-319.193"/>
<polygon fill="#b43f3f" stroke="#b43f3f" points="490.672,-316.556 481.18,-311.85 485.665,-321.448 490.672,-316.556"/>
<text text-anchor="middle" x="542" y="-334.8" font-family="Times,serif" font-size="14.00">1 (93.3)</text>
</g>
<!-- 019 -->
<g id="node10" class="node"><title>019</title>
<ellipse fill="#ff8a8a" stroke="#b43f3f" cx="558" cy="-295" rx="36.2938" ry="18"/>
<text text-anchor="middle" x="558" y="-291.3" font-family="Times,serif" font-size="14.00">019 (a)</text>
</g>
<!-- A&#45;&gt;019 -->
<g id="edge7" class="edge"><title>A&#45;&gt;019</title>
<path fill="none" stroke="#b43f3f" stroke-dasharray="1,5" d="M584.211,-365.19C580.255,-359.371 576.073,-352.589 573,-346 569.629,-338.772 566.803,-330.605 564.546,-322.999"/>
<polygon fill="#b43f3f" stroke="#b43f3f" points="567.853,-321.826 561.822,-313.115 561.105,-323.686 567.853,-321.826"/>
<text text-anchor="middle" x="595" y="-334.8" font-family="Times,serif" font-size="14.00">1 (93.3)</text>
</g>
<!-- 03 -->
<g id="node11" class="node"><title>03</title>
<ellipse fill="#ff8a8a" stroke="#b43f3f" cx="644" cy="-295" rx="31.6951" ry="18"/>
<text text-anchor="middle" x="644" y="-291.3" font-family="Times,serif" font-size="14.00">03 (a)</text>
</g>
<!-- A&#45;&gt;03 -->
<g id="edge8" class="edge"><title>A&#45;&gt;03</title>
<path fill="none" stroke="#b43f3f" stroke-dasharray="1,5" d="M605.983,-364.709C609.521,-358.845 613.493,-352.157 617,-346 621.443,-338.199 626.139,-329.627 630.347,-321.816"/>
<polygon fill="#b43f3f" stroke="#b43f3f" points="633.555,-323.239 635.188,-312.771 627.383,-319.936 633.555,-323.239"/>
<text text-anchor="middle" x="647" y="-334.8" font-family="Times,serif" font-size="14.00">1 (93.3)</text>
</g>
<!-- 091 -->
<g id="node12" class="node"><title>091</title>
<ellipse fill="#ff8a8a" stroke="#b43f3f" cx="825" cy="-295" rx="36.2938" ry="18"/>
<text text-anchor="middle" x="825" y="-291.3" font-family="Times,serif" font-size="14.00">091 (a)</text>
</g>
<!-- A&#45;&gt;091 -->
<g id="edge9" class="edge"><title>A&#45;&gt;091</title>
<path fill="none" stroke="#b43f3f" stroke-dasharray="1,5" d="M620.507,-371.904C660.471,-357.07 739.949,-327.569 787.19,-310.034"/>
<polygon fill="#b43f3f" stroke="#b43f3f" points="788.598,-313.245 796.755,-306.484 786.162,-306.683 788.598,-313.245"/>
<text text-anchor="middle" x="746" y="-334.8" font-family="Times,serif" font-size="14.00">1 (87.5)</text>
</g>
<!-- 063 -->
<g id="node16" class="node"><title>063</title>
<ellipse fill="#ff8a8a" stroke="#b43f3f" cx="467" cy="-208" rx="36.2938" ry="18"/>
<text text-anchor="middle" x="467" y="-204.3" font-family="Times,serif" font-size="14.00">063 (a)</text>
</g>
<!-- 019&#45;&gt;063 -->
<g id="edge12" class="edge"><title>019&#45;&gt;063</title>
<path fill="none" stroke="#b43f3f" stroke-dasharray="1,5" d="M541.731,-278.804C527.584,-265.59 506.9,-246.269 490.877,-231.303"/>
<polygon fill="#b43f3f" stroke="#b43f3f" points="493.132,-228.62 483.435,-224.351 488.354,-233.735 493.132,-228.62"/>
<text text-anchor="middle" x="540" y="-247.8" font-family="Times,serif" font-size="14.00">1 (85.7)</text>
</g>
<!-- 03&#45;&gt;044 -->
<g id="edge13" class="edge"><title>03&#45;&gt;044</title>
<path fill="none" stroke="#b43f3f" stroke-dasharray="1,5" d="M623.353,-280.912C614.467,-274.796 604.248,-267.086 596,-259 588.175,-251.329 580.638,-241.975 574.368,-233.442"/>
<polygon fill="#b43f3f" stroke="#b43f3f" points="577.206,-231.394 568.557,-225.275 571.503,-235.452 577.206,-231.394"/>
<text text-anchor="middle" x="618" y="-247.8" font-family="Times,serif" font-size="14.00">1 (89.2)</text>
</g>
<!-- 02 -->
<g id="node17" class="node"><title>02</title>
<ellipse fill="#ff8a8a" stroke="#b43f3f" cx="644" cy="-208" rx="31.6951" ry="18"/>
<text text-anchor="middle" x="644" y="-204.3" font-family="Times,serif" font-size="14.00">02 (a)</text>
</g>
<!-- 03&#45;&gt;02 -->
<g id="edge14" class="edge"><title>03&#45;&gt;02</title>
<path fill="none" stroke="#b43f3f" stroke-dasharray="1,5" d="M644,-276.799C644,-265.163 644,-249.548 644,-236.237"/>
<polygon fill="#b43f3f" stroke="#b43f3f" points="647.5,-236.175 644,-226.175 640.5,-236.175 647.5,-236.175"/>
<text text-anchor="middle" x="666" y="-247.8" font-family="Times,serif" font-size="14.00">1 (86.5)</text>
</g>
<!-- 032 -->
<g id="node18" class="node"><title>032</title>
<ellipse fill="#ff8a8a" stroke="#b43f3f" cx="730" cy="-208" rx="36.2938" ry="18"/>
<text text-anchor="middle" x="730" y="-204.3" font-family="Times,serif" font-size="14.00">032 (a)</text>
</g>
<!-- 03&#45;&gt;032 -->
<g id="edge15" class="edge"><title>03&#45;&gt;032</title>
<path fill="none" stroke="#b43f3f" stroke-dasharray="1,5" d="M664.647,-280.912C673.533,-274.796 683.752,-267.086 692,-259 699.825,-251.329 707.362,-241.975 713.632,-233.442"/>
<polygon fill="#b43f3f" stroke="#b43f3f" points="716.497,-235.452 719.443,-225.275 710.794,-231.394 716.497,-235.452"/>
<text text-anchor="middle" x="727" y="-247.8" font-family="Times,serif" font-size="14.00">1 (91.7)</text>
</g>
<!-- 0211 -->
<g id="node24" class="node"><title>0211</title>
<ellipse fill="#ff8a8a" stroke="#b43f3f" cx="825" cy="-208" rx="40.0939" ry="18"/>
<text text-anchor="middle" x="825" y="-204.3" font-family="Times,serif" font-size="14.00">0211 (a)</text>
</g>
<!-- 091&#45;&gt;0211 -->
<g id="edge22" class="edge"><title>091&#45;&gt;0211</title>
<path fill="none" stroke="#b43f3f" stroke-dasharray="1,5" d="M825,-276.799C825,-265.163 825,-249.548 825,-236.237"/>
<polygon fill="#b43f3f" stroke="#b43f3f" points="828.5,-236.175 825,-226.175 821.5,-236.175 828.5,-236.175"/>
<text text-anchor="middle" x="847" y="-247.8" font-family="Times,serif" font-size="14.00">1 (83.3)</text>
</g>
<!-- 05 -->
<g id="node25" class="node"><title>05</title>
<ellipse fill="#ff8a8a" stroke="#b43f3f" cx="915" cy="-208" rx="31.6951" ry="18"/>
<text text-anchor="middle" x="915" y="-204.3" font-family="Times,serif" font-size="14.00">05 (a)</text>
</g>
<!-- 091&#45;&gt;05 -->
<g id="edge23" class="edge"><title>091&#45;&gt;05</title>
<path fill="none" stroke="#b43f3f" stroke-dasharray="1,5" d="M846.416,-280.054C855.043,-274.018 864.858,-266.601 873,-259 881.415,-251.144 889.762,-241.653 896.772,-233.06"/>
<polygon fill="#b43f3f" stroke="#b43f3f" points="899.554,-235.185 903.041,-225.18 894.076,-230.827 899.554,-235.185"/>
<text text-anchor="middle" x="908" y="-247.8" font-family="Times,serif" font-size="14.00">1 (87.5)</text>
</g>
<!-- 031 -->
<g id="node13" class="node"><title>031</title>
<ellipse fill="#ff8a8a" stroke="#b43f3f" cx="276" cy="-121" rx="36.2938" ry="18"/>
<text text-anchor="middle" x="276" y="-117.3" font-family="Times,serif" font-size="14.00">031 (a)</text>
</g>
<!-- 013 -->
<g id="node14" class="node"><title>013</title>
<ellipse fill="#ff8a8a" stroke="#b43f3f" cx="274" cy="-34" rx="36.2938" ry="18"/>
<text text-anchor="middle" x="274" y="-30.3" font-family="Times,serif" font-size="14.00">013 (a)</text>
</g>
<!-- 031&#45;&gt;013 -->
<g id="edge10" class="edge"><title>031&#45;&gt;013</title>
<path fill="none" stroke="#b43f3f" stroke-dasharray="1,5" d="M275.595,-102.799C275.321,-91.1626 274.954,-75.5479 274.641,-62.2368"/>
<polygon fill="#b43f3f" stroke="#b43f3f" points="278.138,-62.0903 274.404,-52.1754 271.14,-62.255 278.138,-62.0903"/>
<text text-anchor="middle" x="298" y="-73.8" font-family="Times,serif" font-size="14.00">1 (97.1)</text>
</g>
<!-- 017 -->
<g id="node15" class="node"><title>017</title>
<ellipse fill="#ff8a8a" stroke="#b43f3f" cx="365" cy="-34" rx="36.2938" ry="18"/>
<text text-anchor="middle" x="365" y="-30.3" font-family="Times,serif" font-size="14.00">017 (a)</text>
</g>
<!-- 031&#45;&gt;017 -->
<g id="edge11" class="edge"><title>031&#45;&gt;017</title>
<path fill="none" stroke="#b43f3f" stroke-dasharray="1,5" d="M297.461,-106.102C306.095,-100.074 315.903,-92.6494 324,-85 332.201,-77.2521 340.281,-67.8817 347.073,-59.3567"/>
<polygon fill="#b43f3f" stroke="#b43f3f" points="350.031,-61.2531 353.39,-51.205 344.498,-56.965 350.031,-61.2531"/>
<text text-anchor="middle" x="360" y="-73.8" font-family="Times,serif" font-size="14.00">1 (94.3)</text>
</g>
<!-- 063&#45;&gt;031 -->
<g id="edge16" class="edge"><title>063&#45;&gt;031</title>
<path fill="none" stroke="#b43f3f" stroke-dasharray="1,5" d="M434.245,-200.028C410.23,-194.249 377.208,-184.89 350,-172 333.333,-164.104 316.179,-152.751 302.589,-142.859"/>
<polygon fill="#b43f3f" stroke="#b43f3f" points="304.324,-139.787 294.213,-136.62 300.142,-145.401 304.324,-139.787"/>
<text text-anchor="middle" x="372" y="-160.8" font-family="Times,serif" font-size="14.00">1 (95.8)</text>
</g>
<!-- 011 -->
<g id="node19" class="node"><title>011</title>
<ellipse fill="#ff8a8a" stroke="#b43f3f" cx="367" cy="-121" rx="36.2938" ry="18"/>
<text text-anchor="middle" x="367" y="-117.3" font-family="Times,serif" font-size="14.00">011 (a)</text>
</g>
<!-- 063&#45;&gt;011 -->
<g id="edge17" class="edge"><title>063&#45;&gt;011</title>
<path fill="none" stroke="#b43f3f" stroke-dasharray="1,5" d="M443.555,-194.009C433.413,-187.912 421.676,-180.189 412,-172 402.854,-164.26 393.812,-154.693 386.259,-146.007"/>
<polygon fill="#b43f3f" stroke="#b43f3f" points="388.913,-143.726 379.78,-138.355 383.571,-148.249 388.913,-143.726"/>
<text text-anchor="middle" x="434" y="-160.8" font-family="Times,serif" font-size="14.00">1 (93.1)</text>
</g>
<!-- 07 -->
<g id="node20" class="node"><title>07</title>
<ellipse fill="#ff8a8a" stroke="#b43f3f" cx="453" cy="-121" rx="31.6951" ry="18"/>
<text text-anchor="middle" x="453" y="-117.3" font-family="Times,serif" font-size="14.00">07 (a)</text>
</g>
<!-- 063&#45;&gt;07 -->
<g id="edge18" class="edge"><title>063&#45;&gt;07</title>
<path fill="none" stroke="#b43f3f" stroke-dasharray="1,5" d="M464.167,-189.799C462.25,-178.163 459.678,-162.548 457.486,-149.237"/>
<polygon fill="#b43f3f" stroke="#b43f3f" points="460.908,-148.474 455.829,-139.175 454.001,-149.611 460.908,-148.474"/>
<text text-anchor="middle" x="483" y="-160.8" font-family="Times,serif" font-size="14.00">1 (96.6)</text>
</g>
<!-- 045 -->
<g id="node21" class="node"><title>045</title>
<ellipse fill="#ff8a8a" stroke="#b43f3f" cx="539" cy="-121" rx="36.2938" ry="18"/>
<text text-anchor="middle" x="539" y="-117.3" font-family="Times,serif" font-size="14.00">045 (a)</text>
</g>
<!-- 063&#45;&gt;045 -->
<g id="edge19" class="edge"><title>063&#45;&gt;045</title>
<path fill="none" stroke="#b43f3f" stroke-dasharray="1,5" d="M487.046,-192.565C494.443,-186.679 502.579,-179.497 509,-172 515.316,-164.626 521.11,-155.76 525.886,-147.554"/>
<polygon fill="#b43f3f" stroke="#b43f3f" points="529.017,-149.125 530.821,-138.685 522.901,-145.722 529.017,-149.125"/>
<text text-anchor="middle" x="542" y="-160.8" font-family="Times,serif" font-size="14.00">1 (93.1)</text>
</g>
<!-- 021 -->
<g id="node22" class="node"><title>021</title>
<ellipse fill="#ff8a8a" stroke="#b43f3f" cx="630" cy="-121" rx="36.2938" ry="18"/>
<text text-anchor="middle" x="630" y="-117.3" font-family="Times,serif" font-size="14.00">021 (a)</text>
</g>
<!-- 063&#45;&gt;021 -->
<g id="edge20" class="edge"><title>063&#45;&gt;021</title>
<path fill="none" stroke="#b43f3f" stroke-dasharray="1,5" d="M495.159,-196.403C501.04,-194.243 507.211,-192.016 513,-190 537.289,-181.541 545.397,-184.274 568,-172 581.885,-164.46 595.728,-153.689 606.799,-144.074"/>
<polygon fill="#b43f3f" stroke="#b43f3f" points="609.209,-146.615 614.331,-137.34 604.543,-141.396 609.209,-146.615"/>
<text text-anchor="middle" x="612" y="-160.8" font-family="Times,serif" font-size="14.00">1 (93.1)</text>
</g>
<!-- 028 -->
<g id="node23" class="node"><title>028</title>
<ellipse fill="#ff8a8a" stroke="#b43f3f" cx="721" cy="-121" rx="36.2938" ry="18"/>
<text text-anchor="middle" x="721" y="-117.3" font-family="Times,serif" font-size="14.00">028 (a)</text>
</g>
<!-- 063&#45;&gt;028 -->
<g id="edge21" class="edge"><title>063&#45;&gt;028</title>
<path fill="none" stroke="#b43f3f" stroke-dasharray="1,5" d="M494.431,-195.79C500.473,-193.624 506.893,-191.55 513,-190 567.404,-176.195 585.133,-190.856 638,-172 657.735,-164.961 677.915,-152.935 693.434,-142.442"/>
<polygon fill="#b43f3f" stroke="#b43f3f" points="695.782,-145.072 701.994,-136.49 691.786,-139.325 695.782,-145.072"/>
<text text-anchor="middle" x="692" y="-160.8" font-family="Times,serif" font-size="14.00">1 (96.6)</text>
</g>
<!-- 037 -->
<g id="node26" class="node"><title>037</title>
<ellipse fill="#ff8a8a" stroke="#b43f3f" cx="456" cy="-34" rx="36.2938" ry="18"/>
<text text-anchor="middle" x="456" y="-30.3" font-family="Times,serif" font-size="14.00">037 (a)</text>
</g>
<!-- 07&#45;&gt;037 -->
<g id="edge24" class="edge"><title>07&#45;&gt;037</title>
<path fill="none" stroke="#b43f3f" stroke-dasharray="1,5" d="M453.607,-102.799C454.018,-91.1626 454.569,-75.5479 455.039,-62.2368"/>
<polygon fill="#b43f3f" stroke="#b43f3f" points="458.539,-62.2927 455.394,-52.1754 451.543,-62.0457 458.539,-62.2927"/>
<text text-anchor="middle" x="477" y="-73.8" font-family="Times,serif" font-size="14.00">1 (97.5)</text>
</g>
<!-- 034 -->
<g id="node27" class="node"><title>034</title>
<ellipse fill="#ff8a8a" stroke="#b43f3f" cx="547" cy="-34" rx="36.2938" ry="18"/>
<text text-anchor="middle" x="547" y="-30.3" font-family="Times,serif" font-size="14.00">034 (a)</text>
</g>
<!-- 07&#45;&gt;034 -->
<g id="edge25" class="edge"><title>07&#45;&gt;034</title>
<path fill="none" stroke="#b43f3f" stroke-dasharray="1,5" d="M473.776,-107.075C483.098,-100.876 493.998,-93.0548 503,-85 511.75,-77.1702 520.482,-67.6848 527.833,-59.0893"/>
<polygon fill="#b43f3f" stroke="#b43f3f" points="530.693,-61.1242 534.413,-51.2039 525.319,-56.6393 530.693,-61.1242"/>
<text text-anchor="middle" x="540" y="-73.8" font-family="Times,serif" font-size="14.00">1 (95.1)</text>
</g>
<!-- 030 -->
<g id="node28" class="node"><title>030</title>
<ellipse fill="#ff8a8a" stroke="#b43f3f" cx="638" cy="-34" rx="36.2938" ry="18"/>
<text text-anchor="middle" x="638" y="-30.3" font-family="Times,serif" font-size="14.00">030 (a)</text>
</g>
<!-- 07&#45;&gt;030 -->
<g id="edge26" class="edge"><title>07&#45;&gt;030</title>
<path fill="none" stroke="#b43f3f" stroke-dasharray="1,5" d="M477.493,-109.152C482.875,-106.963 488.586,-104.788 494,-103 525.321,-92.6548 535.963,-98.6299 566,-85 582.484,-77.5201 599.193,-66.1969 612.36,-56.2166"/>
<polygon fill="#b43f3f" stroke="#b43f3f" points="614.724,-58.8118 620.463,-49.906 610.423,-53.2891 614.724,-58.8118"/>
<text text-anchor="middle" x="614" y="-73.8" font-family="Times,serif" font-size="14.00">1 (95.1)</text>
</g>
<!-- 038 -->
<g id="node29" class="node"><title>038</title>
<ellipse fill="#ff8a8a" stroke="#b43f3f" cx="729" cy="-34" rx="36.2938" ry="18"/>
<text text-anchor="middle" x="729" y="-30.3" font-family="Times,serif" font-size="14.00">038 (a)</text>
</g>
<!-- 045&#45;&gt;038 -->
<g id="edge27" class="edge"><title>045&#45;&gt;038</title>
<path fill="none" stroke="#b43f3f" stroke-dasharray="1,5" d="M567.159,-109.403C573.04,-107.243 579.211,-105.016 585,-103 609.289,-94.5405 616.453,-95.3483 640,-85 660.124,-76.1558 681.64,-64.1448 698.475,-54.1115"/>
<polygon fill="#b43f3f" stroke="#b43f3f" points="700.559,-56.9414 707.307,-48.7737 696.938,-50.9505 700.559,-56.9414"/>
<text text-anchor="middle" x="693" y="-73.8" font-family="Times,serif" font-size="14.00">1 (92.7)</text>
</g>
<!-- 036 -->
<g id="node30" class="node"><title>036</title>
<ellipse fill="#ff8a8a" stroke="#b43f3f" cx="820" cy="-34" rx="36.2938" ry="18"/>
<text text-anchor="middle" x="820" y="-30.3" font-family="Times,serif" font-size="14.00">036 (a)</text>
</g>
<!-- 021&#45;&gt;036 -->
<g id="edge28" class="edge"><title>021&#45;&gt;036</title>
<path fill="none" stroke="#b43f3f" stroke-dasharray="1,5" d="M658.312,-109.57C675.927,-102.908 698.963,-93.8801 719,-85 741.905,-74.8488 767.165,-62.3433 786.694,-52.3784"/>
<polygon fill="#b43f3f" stroke="#b43f3f" points="788.487,-55.3924 795.785,-47.7121 785.29,-49.1648 788.487,-55.3924"/>
<text text-anchor="middle" x="771" y="-73.8" font-family="Times,serif" font-size="14.00">1 (97.6)</text>
</g>
<!-- 047 -->
<g id="node31" class="node"><title>047</title>
<ellipse fill="#ff8a8a" stroke="#b43f3f" cx="911" cy="-34" rx="36.2938" ry="18"/>
<text text-anchor="middle" x="911" y="-30.3" font-family="Times,serif" font-size="14.00">047 (a)</text>
</g>
<!-- 021&#45;&gt;047 -->
<g id="edge29" class="edge"><title>021&#45;&gt;047</title>
<path fill="none" stroke="#b43f3f" stroke-dasharray="1,5" d="M657.437,-108.811C663.478,-106.644 669.897,-104.564 676,-103 728.668,-89.5046 744.755,-100.052 797,-85 825.347,-76.8333 855.875,-63.1603 878.2,-52.1748"/>
<polygon fill="#b43f3f" stroke="#b43f3f" points="879.857,-55.2593 887.235,-47.6552 876.725,-48.9989 879.857,-55.2593"/>
<text text-anchor="middle" x="860" y="-73.8" font-family="Times,serif" font-size="14.00">1 (95.1)</text>
</g>
</g>
</svg>
