<?xml version="1.0" encoding="UTF-8" standalone="no"?>
<!DOCTYPE svg PUBLIC "-//W3C//DTD SVG 1.1//EN"
 "http://www.w3.org/Graphics/SVG/1.1/DTD/svg11.dtd">
<!-- Generated by graphviz version 2.38.0 (20140413.2041)
 -->
<!-- Title: %3 Pages: 1 -->
<svg width="977pt" height="408pt"
 viewBox="0.00 0.00 976.89 408.00" xmlns="http://www.w3.org/2000/svg" xmlns:xlink="http://www.w3.org/1999/xlink">
<g id="graph0" class="graph" transform="scale(1 1) rotate(0) translate(4 404)">
<title>%3</title>
<polygon fill="white" stroke="none" points="-4,4 -4,-404 972.894,-404 972.894,4 -4,4"/>
<g id="clust1" class="cluster"><title>cluster_legend</title>
<path fill="none" stroke="black" d="M338.397,-264C338.397,-264 528.397,-264 528.397,-264 534.397,-264 540.397,-270 540.397,-276 540.397,-276 540.397,-380 540.397,-380 540.397,-386 534.397,-392 528.397,-392 528.397,-392 338.397,-392 338.397,-392 332.397,-392 326.397,-386 326.397,-380 326.397,-380 326.397,-276 326.397,-276 326.397,-270 332.397,-264 338.397,-264"/>
</g>
<!-- leg_s -->
<g id="node1" class="node"><title>leg_s</title>
<text text-anchor="middle" x="433.397" y="-362.3" font-family="Times,serif" font-size="14.00">Textual flow strength</text>
</g>
<!-- leg_e1 -->
<!-- leg_s&#45;&gt;leg_e1 -->
<g id="edge1" class="edge"><title>leg_s&#45;&gt;leg_e1</title>
<path fill="none" stroke="black" stroke-dasharray="1,5" d="M415.062,-347.686C409.529,-342.194 403.557,-335.989 398.397,-330 388.568,-318.593 378.469,-304.779 371.31,-294.563"/>
<polygon fill="black" stroke="black" points="374.011,-292.314 365.453,-286.068 368.248,-296.288 374.011,-292.314"/>
<text text-anchor="middle" x="413.897" y="-318.8" font-family="Times,serif" font-size="14.00">&lt;=5 &#160;</text>
</g>
<!-- leg_e2 -->
<!-- leg_s&#45;&gt;leg_e2 -->
<g id="edge2" class="edge"><title>leg_s&#45;&gt;leg_e2</title>
<path fill="none" stroke="black" stroke-dasharray="5,2" d="M433.397,-347.799C433.397,-332.794 433.397,-311.174 433.397,-296.409"/>
<polygon fill="black" stroke="black" points="436.897,-296.293 433.397,-286.293 429.897,-296.293 436.897,-296.293"/>
<text text-anchor="middle" x="452.397" y="-318.8" font-family="Times,serif" font-size="14.00"> &#160;&lt;=25</text>
</g>
<!-- leg_e3 -->
<!-- leg_s&#45;&gt;leg_e3 -->
<g id="edge3" class="edge"><title>leg_s&#45;&gt;leg_e3</title>
<path fill="none" stroke="black" d="M456.9,-347.76C463.303,-342.462 469.963,-336.344 475.397,-330 484.484,-319.39 492.492,-305.689 497.943,-295.313"/>
<polygon fill="black" stroke="black" points="501.119,-296.789 502.488,-286.283 494.866,-293.642 501.119,-296.789"/>
<text text-anchor="middle" x="497.397" y="-318.8" font-family="Times,serif" font-size="14.00">&gt;25</text>
</g>
<!-- 044 -->
<g id="node5" class="node"><title>044</title>
<ellipse fill="#ff8a8a" stroke="#b43f3f" cx="586.397" cy="-279" rx="36.2938" ry="18"/>
<text text-anchor="middle" x="586.397" y="-275.3" font-family="Times,serif" font-size="14.00">044 (a)</text>
</g>
<!-- 022 -->
<g id="node6" class="node"><title>022</title>
<ellipse fill="#ff8a8a" stroke="#b43f3f" cx="141.397" cy="-192" rx="36.2938" ry="18"/>
<text text-anchor="middle" x="141.397" y="-188.3" font-family="Times,serif" font-size="14.00">022 (a)</text>
</g>
<!-- 044&#45;&gt;022 -->
<g id="edge4" class="edge"><title>044&#45;&gt;022</title>
<path fill="none" stroke="#b43f3f" stroke-dasharray="1,5" d="M560.567,-266.204C555.306,-264.185 549.743,-262.317 544.397,-261 465.474,-241.553 442.635,-255.993 362.397,-243 298.992,-232.733 226.563,-215.222 182.416,-203.885"/>
<polygon fill="#b43f3f" stroke="#b43f3f" points="183.189,-200.47 172.631,-201.354 181.436,-207.247 183.189,-200.47"/>
<text text-anchor="middle" x="384.397" y="-231.8" font-family="Times,serif" font-size="14.00">1 (91.7)</text>
</g>
<!-- 07 -->
<g id="node7" class="node"><title>07</title>
<ellipse fill="#ff8a8a" stroke="#b43f3f" cx="362.397" cy="-192" rx="31.6951" ry="18"/>
<text text-anchor="middle" x="362.397" y="-188.3" font-family="Times,serif" font-size="14.00">07 (a)</text>
</g>
<!-- 044&#45;&gt;07 -->
<g id="edge5" class="edge"><title>044&#45;&gt;07</title>
<path fill="none" stroke="#b43f3f" stroke-dasharray="1,5" d="M560.039,-266.323C554.918,-264.343 549.543,-262.46 544.397,-261 498.425,-247.959 482.861,-260.505 438.397,-243 420.263,-235.861 401.954,-223.988 387.851,-213.603"/>
<polygon fill="#b43f3f" stroke="#b43f3f" points="389.736,-210.639 379.653,-207.385 385.505,-216.217 389.736,-210.639"/>
<text text-anchor="middle" x="460.397" y="-231.8" font-family="Times,serif" font-size="14.00">2 (83.8)</text>
</g>
<!-- 011 -->
<g id="node8" class="node"><title>011</title>
<ellipse fill="#ff8a8a" stroke="#b43f3f" cx="453.397" cy="-192" rx="36.2938" ry="18"/>
<text text-anchor="middle" x="453.397" y="-188.3" font-family="Times,serif" font-size="14.00">011 (a)</text>
</g>
<!-- 044&#45;&gt;011 -->
<g id="edge6" class="edge"><title>044&#45;&gt;011</title>
<path fill="none" stroke="#b43f3f" stroke-dasharray="1,5" d="M559.214,-266.983C537.278,-257.996 509.286,-246.27 504.397,-243 493.285,-235.568 482.487,-225.528 473.709,-216.395"/>
<polygon fill="#b43f3f" stroke="#b43f3f" points="476.22,-213.955 466.849,-209.013 471.093,-218.721 476.22,-213.955"/>
<text text-anchor="middle" x="526.397" y="-231.8" font-family="Times,serif" font-size="14.00">2 (86.5)</text>
</g>
<!-- 045 -->
<g id="node9" class="node"><title>045</title>
<ellipse fill="#ff8a8a" stroke="#b43f3f" cx="544.397" cy="-192" rx="36.2938" ry="18"/>
<text text-anchor="middle" x="544.397" y="-188.3" font-family="Times,serif" font-size="14.00">045 (a)</text>
</g>
<!-- 044&#45;&gt;045 -->
<g id="edge7" class="edge"><title>044&#45;&gt;045</title>
<path fill="none" stroke="#b43f3f" stroke-dasharray="1,5" d="M570.92,-262.327C565.997,-256.626 560.921,-249.884 557.397,-243 553.8,-235.974 551.14,-227.871 549.198,-220.26"/>
<polygon fill="#b43f3f" stroke="#b43f3f" points="552.576,-219.328 546.973,-210.336 545.745,-220.859 552.576,-219.328"/>
<text text-anchor="middle" x="579.397" y="-231.8" font-family="Times,serif" font-size="14.00">2 (81.1)</text>
</g>
<!-- 021 -->
<g id="node10" class="node"><title>021</title>
<ellipse fill="#ff8a8a" stroke="#b43f3f" cx="635.397" cy="-192" rx="36.2938" ry="18"/>
<text text-anchor="middle" x="635.397" y="-188.3" font-family="Times,serif" font-size="14.00">021 (a)</text>
</g>
<!-- 044&#45;&gt;021 -->
<g id="edge8" class="edge"><title>044&#45;&gt;021</title>
<path fill="none" stroke="#b43f3f" stroke-dasharray="1,5" d="M595.844,-261.611C602.917,-249.343 612.721,-232.336 620.798,-218.324"/>
<polygon fill="#b43f3f" stroke="#b43f3f" points="623.849,-220.04 625.811,-209.629 617.784,-216.544 623.849,-220.04"/>
<text text-anchor="middle" x="636.397" y="-231.8" font-family="Times,serif" font-size="14.00">2 (83.8)</text>
</g>
<!-- 028 -->
<g id="node11" class="node"><title>028</title>
<ellipse fill="#ff8a8a" stroke="#b43f3f" cx="726.397" cy="-192" rx="36.2938" ry="18"/>
<text text-anchor="middle" x="726.397" y="-188.3" font-family="Times,serif" font-size="14.00">028 (a)</text>
</g>
<!-- 044&#45;&gt;028 -->
<g id="edge9" class="edge"><title>044&#45;&gt;028</title>
<path fill="none" stroke="#b43f3f" stroke-dasharray="1,5" d="M613.91,-267.157C628.704,-260.88 647.016,-252.375 662.397,-243 675.96,-234.733 689.98,-224.059 701.428,-214.698"/>
<polygon fill="#b43f3f" stroke="#b43f3f" points="703.824,-217.257 709.266,-208.166 699.343,-211.879 703.824,-217.257"/>
<text text-anchor="middle" x="705.397" y="-231.8" font-family="Times,serif" font-size="14.00">2 (81.1)</text>
</g>
<!-- 0141 -->
<g id="node12" class="node"><title>0141</title>
<ellipse fill="#ff8a8a" stroke="#b43f3f" cx="821.397" cy="-192" rx="40.0939" ry="18"/>
<text text-anchor="middle" x="821.397" y="-188.3" font-family="Times,serif" font-size="14.00">0141 (a)</text>
</g>
<!-- 044&#45;&gt;0141 -->
<g id="edge10" class="edge"><title>044&#45;&gt;0141</title>
<path fill="none" stroke="#b43f3f" stroke-dasharray="1,5" d="M613.738,-266.76C619.506,-264.647 625.601,-262.602 631.397,-261 674.924,-248.97 688.862,-258.17 731.397,-243 752.42,-235.502 774.348,-223.422 791.296,-213.014"/>
<polygon fill="#b43f3f" stroke="#b43f3f" points="793.556,-215.727 800.162,-207.443 789.832,-209.8 793.556,-215.727"/>
<text text-anchor="middle" x="787.397" y="-231.8" font-family="Times,serif" font-size="14.00">1 (89.2)</text>
</g>
<!-- 05 -->
<g id="node13" class="node"><title>05</title>
<ellipse fill="#ff8a8a" stroke="#b43f3f" cx="911.397" cy="-192" rx="31.6951" ry="18"/>
<text text-anchor="middle" x="911.397" y="-188.3" font-family="Times,serif" font-size="14.00">05 (a)</text>
</g>
<!-- 044&#45;&gt;05 -->
<g id="edge11" class="edge"><title>044&#45;&gt;05</title>
<path fill="none" stroke="#b43f3f" stroke-dasharray="1,5" d="M613.166,-266.576C619.081,-264.423 625.379,-262.408 631.397,-261 710.542,-242.478 735.396,-265.867 813.397,-243 837.969,-235.796 863.681,-222.425 882.6,-211.322"/>
<polygon fill="#b43f3f" stroke="#b43f3f" points="884.538,-214.241 891.307,-206.09 880.933,-208.241 884.538,-214.241"/>
<text text-anchor="middle" x="872.397" y="-231.8" font-family="Times,serif" font-size="14.00">3 (76.7)</text>
</g>
<!-- 031 -->
<g id="node14" class="node"><title>031</title>
<ellipse fill="#ff8a8a" stroke="#b43f3f" cx="81.3968" cy="-105" rx="36.2938" ry="18"/>
<text text-anchor="middle" x="81.3968" y="-101.3" font-family="Times,serif" font-size="14.00">031 (a)</text>
</g>
<!-- 022&#45;&gt;031 -->
<g id="edge12" class="edge"><title>022&#45;&gt;031</title>
<path fill="none" stroke="#b43f3f" stroke-dasharray="1,5" d="M126.5,-175.529C121.148,-169.633 115.243,-162.713 110.397,-156 104.909,-148.397 99.5638,-139.684 94.9883,-131.683"/>
<polygon fill="#b43f3f" stroke="#b43f3f" points="97.927,-129.765 90.0081,-122.727 91.8093,-133.167 97.927,-129.765"/>
<text text-anchor="middle" x="132.397" y="-144.8" font-family="Times,serif" font-size="14.00">2 (86.7)</text>
</g>
<!-- 0211 -->
<g id="node20" class="node"><title>0211</title>
<ellipse fill="#ff8a8a" stroke="#b43f3f" cx="176.397" cy="-105" rx="40.0939" ry="18"/>
<text text-anchor="middle" x="176.397" y="-101.3" font-family="Times,serif" font-size="14.00">0211 (a)</text>
</g>
<!-- 07&#45;&gt;0211 -->
<g id="edge18" class="edge"><title>07&#45;&gt;0211</title>
<path fill="none" stroke="#b43f3f" stroke-dasharray="1,5" d="M333.373,-183.938C310.942,-177.948 279.43,-168.361 253.397,-156 236.346,-147.904 218.593,-136.599 204.436,-126.786"/>
<polygon fill="#b43f3f" stroke="#b43f3f" points="206.311,-123.825 196.125,-120.911 202.271,-129.541 206.311,-123.825"/>
<text text-anchor="middle" x="275.397" y="-144.8" font-family="Times,serif" font-size="14.00">2 (82.9)</text>
</g>
<!-- 037 -->
<g id="node21" class="node"><title>037</title>
<ellipse fill="#ff8a8a" stroke="#b43f3f" cx="271.397" cy="-105" rx="36.2938" ry="18"/>
<text text-anchor="middle" x="271.397" y="-101.3" font-family="Times,serif" font-size="14.00">037 (a)</text>
</g>
<!-- 07&#45;&gt;037 -->
<g id="edge19" class="edge"><title>07&#45;&gt;037</title>
<path fill="none" stroke="#b43f3f" stroke-dasharray="1,5" d="M341.978,-177.672C333.134,-171.512 322.886,-163.834 314.397,-156 305.853,-148.115 297.321,-138.619 290.136,-130.029"/>
<polygon fill="#b43f3f" stroke="#b43f3f" points="292.741,-127.685 283.704,-122.155 287.32,-132.113 292.741,-127.685"/>
<text text-anchor="middle" x="336.397" y="-144.8" font-family="Times,serif" font-size="14.00">1 (97.5)</text>
</g>
<!-- 034 -->
<g id="node22" class="node"><title>034</title>
<ellipse fill="#ff8a8a" stroke="#b43f3f" cx="362.397" cy="-105" rx="36.2938" ry="18"/>
<text text-anchor="middle" x="362.397" y="-101.3" font-family="Times,serif" font-size="14.00">034 (a)</text>
</g>
<!-- 07&#45;&gt;034 -->
<g id="edge20" class="edge"><title>07&#45;&gt;034</title>
<path fill="none" stroke="#b43f3f" stroke-dasharray="1,5" d="M362.397,-173.799C362.397,-162.163 362.397,-146.548 362.397,-133.237"/>
<polygon fill="#b43f3f" stroke="#b43f3f" points="365.897,-133.175 362.397,-123.175 358.897,-133.175 365.897,-133.175"/>
<text text-anchor="middle" x="384.397" y="-144.8" font-family="Times,serif" font-size="14.00">1 (95.1)</text>
</g>
<!-- 030 -->
<g id="node23" class="node"><title>030</title>
<ellipse fill="#ff8a8a" stroke="#b43f3f" cx="453.397" cy="-105" rx="36.2938" ry="18"/>
<text text-anchor="middle" x="453.397" y="-101.3" font-family="Times,serif" font-size="14.00">030 (a)</text>
</g>
<!-- 07&#45;&gt;030 -->
<g id="edge21" class="edge"><title>07&#45;&gt;030</title>
<path fill="none" stroke="#b43f3f" stroke-dasharray="1,5" d="M382.816,-177.672C391.659,-171.512 401.908,-163.834 410.397,-156 418.941,-148.115 427.472,-138.619 434.657,-130.029"/>
<polygon fill="#b43f3f" stroke="#b43f3f" points="437.474,-132.113 441.089,-122.155 432.053,-127.685 437.474,-132.113"/>
<text text-anchor="middle" x="446.397" y="-144.8" font-family="Times,serif" font-size="14.00">1 (95.1)</text>
</g>
<!-- 038 -->
<g id="node24" class="node"><title>038</title>
<ellipse fill="#ff8a8a" stroke="#b43f3f" cx="544.397" cy="-105" rx="36.2938" ry="18"/>
<text text-anchor="middle" x="544.397" y="-101.3" font-family="Times,serif" font-size="14.00">038 (a)</text>
</g>
<!-- 045&#45;&gt;038 -->
<g id="edge22" class="edge"><title>045&#45;&gt;038</title>
<path fill="none" stroke="#b43f3f" stroke-dasharray="1,5" d="M544.397,-173.799C544.397,-162.163 544.397,-146.548 544.397,-133.237"/>
<polygon fill="#b43f3f" stroke="#b43f3f" points="547.897,-133.175 544.397,-123.175 540.897,-133.175 547.897,-133.175"/>
<text text-anchor="middle" x="566.397" y="-144.8" font-family="Times,serif" font-size="14.00">1 (92.7)</text>
</g>
<!-- 036 -->
<g id="node25" class="node"><title>036</title>
<ellipse fill="#ff8a8a" stroke="#b43f3f" cx="635.397" cy="-105" rx="36.2938" ry="18"/>
<text text-anchor="middle" x="635.397" y="-101.3" font-family="Times,serif" font-size="14.00">036 (a)</text>
</g>
<!-- 021&#45;&gt;036 -->
<g id="edge23" class="edge"><title>021&#45;&gt;036</title>
<path fill="none" stroke="#b43f3f" stroke-dasharray="1,5" d="M635.397,-173.799C635.397,-162.163 635.397,-146.548 635.397,-133.237"/>
<polygon fill="#b43f3f" stroke="#b43f3f" points="638.897,-133.175 635.397,-123.175 631.897,-133.175 638.897,-133.175"/>
<text text-anchor="middle" x="657.397" y="-144.8" font-family="Times,serif" font-size="14.00">1 (97.6)</text>
</g>
<!-- 047 -->
<g id="node26" class="node"><title>047</title>
<ellipse fill="#ff8a8a" stroke="#b43f3f" cx="726.397" cy="-105" rx="36.2938" ry="18"/>
<text text-anchor="middle" x="726.397" y="-101.3" font-family="Times,serif" font-size="14.00">047 (a)</text>
</g>
<!-- 021&#45;&gt;047 -->
<g id="edge24" class="edge"><title>021&#45;&gt;047</title>
<path fill="none" stroke="#b43f3f" stroke-dasharray="1,5" d="M656.768,-177.006C665.389,-170.963 675.211,-163.554 683.397,-156 691.941,-148.115 700.472,-138.619 707.657,-130.029"/>
<polygon fill="#b43f3f" stroke="#b43f3f" points="710.474,-132.113 714.089,-122.155 705.053,-127.685 710.474,-132.113"/>
<text text-anchor="middle" x="719.397" y="-144.8" font-family="Times,serif" font-size="14.00">1 (95.1)</text>
</g>
<!-- 013 -->
<g id="node15" class="node"><title>013</title>
<ellipse fill="#ff8a8a" stroke="#b43f3f" cx="36.3968" cy="-18" rx="36.2938" ry="18"/>
<text text-anchor="middle" x="36.3968" y="-14.3" font-family="Times,serif" font-size="14.00">013 (a)</text>
</g>
<!-- 031&#45;&gt;013 -->
<g id="edge13" class="edge"><title>031&#45;&gt;013</title>
<path fill="none" stroke="#b43f3f" stroke-dasharray="1,5" d="M71.6438,-87.3706C68.3224,-81.5933 64.633,-75.047 61.3968,-69 57.2295,-61.2133 52.8659,-52.6446 48.9722,-44.8337"/>
<polygon fill="#b43f3f" stroke="#b43f3f" points="52.0688,-43.1997 44.5005,-35.7855 45.7934,-46.3011 52.0688,-43.1997"/>
<text text-anchor="middle" x="83.3968" y="-57.8" font-family="Times,serif" font-size="14.00">1 (97.1)</text>
</g>
<!-- 017 -->
<g id="node16" class="node"><title>017</title>
<ellipse fill="#ff8a8a" stroke="#b43f3f" cx="127.397" cy="-18" rx="36.2938" ry="18"/>
<text text-anchor="middle" x="127.397" y="-14.3" font-family="Times,serif" font-size="14.00">017 (a)</text>
</g>
<!-- 031&#45;&gt;017 -->
<g id="edge14" class="edge"><title>031&#45;&gt;017</title>
<path fill="none" stroke="#b43f3f" stroke-dasharray="1,5" d="M93.5262,-87.6704C97.5459,-81.9172 101.886,-75.3093 105.397,-69 109.547,-61.5417 113.498,-53.1477 116.877,-45.3977"/>
<polygon fill="#b43f3f" stroke="#b43f3f" points="120.161,-46.6185 120.824,-36.0444 113.712,-43.8974 120.161,-46.6185"/>
<text text-anchor="middle" x="135.397" y="-57.8" font-family="Times,serif" font-size="14.00">1 (94.3)</text>
</g>
<!-- 03 -->
<g id="node17" class="node"><title>03</title>
<ellipse fill="#ff8a8a" stroke="#b43f3f" cx="672.397" cy="-366" rx="31.6951" ry="18"/>
<text text-anchor="middle" x="672.397" y="-362.3" font-family="Times,serif" font-size="14.00">03 (a)</text>
</g>
<!-- 03&#45;&gt;044 -->
<g id="edge15" class="edge"><title>03&#45;&gt;044</title>
<path fill="none" stroke="#b43f3f" stroke-dasharray="1,5" d="M651.75,-351.912C642.864,-345.796 632.645,-338.086 624.397,-330 616.572,-322.329 609.035,-312.975 602.765,-304.442"/>
<polygon fill="#b43f3f" stroke="#b43f3f" points="605.603,-302.394 596.954,-296.275 599.899,-306.452 605.603,-302.394"/>
<text text-anchor="middle" x="646.397" y="-318.8" font-family="Times,serif" font-size="14.00">1 (89.2)</text>
</g>
<!-- 02 -->
<g id="node18" class="node"><title>02</title>
<ellipse fill="#ff8a8a" stroke="#b43f3f" cx="672.397" cy="-279" rx="31.6951" ry="18"/>
<text text-anchor="middle" x="672.397" y="-275.3" font-family="Times,serif" font-size="14.00">02 (a)</text>
</g>
<!-- 03&#45;&gt;02 -->
<g id="edge16" class="edge"><title>03&#45;&gt;02</title>
<path fill="none" stroke="#b43f3f" stroke-dasharray="1,5" d="M672.397,-347.799C672.397,-336.163 672.397,-320.548 672.397,-307.237"/>
<polygon fill="#b43f3f" stroke="#b43f3f" points="675.897,-307.175 672.397,-297.175 668.897,-307.175 675.897,-307.175"/>
<text text-anchor="middle" x="694.397" y="-318.8" font-family="Times,serif" font-size="14.00">1 (86.5)</text>
</g>
<!-- 032 -->
<g id="node19" class="node"><title>032</title>
<ellipse fill="#ff8a8a" stroke="#b43f3f" cx="758.397" cy="-279" rx="36.2938" ry="18"/>
<text text-anchor="middle" x="758.397" y="-275.3" font-family="Times,serif" font-size="14.00">032 (a)</text>
</g>
<!-- 03&#45;&gt;032 -->
<g id="edge17" class="edge"><title>03&#45;&gt;032</title>
<path fill="none" stroke="#b43f3f" stroke-dasharray="1,5" d="M693.044,-351.912C701.93,-345.796 712.148,-338.086 720.397,-330 728.221,-322.329 735.759,-312.975 742.029,-304.442"/>
<polygon fill="#b43f3f" stroke="#b43f3f" points="744.894,-306.452 747.84,-296.275 739.191,-302.394 744.894,-306.452"/>
<text text-anchor="middle" x="755.397" y="-318.8" font-family="Times,serif" font-size="14.00">1 (91.7)</text>
</g>
<!-- P75 -->
<g id="node27" class="node"><title>P75</title>
<ellipse fill="#ff8a8a" stroke="#b43f3f" cx="758.397" cy="-366" rx="36.2938" ry="18"/>
<text text-anchor="middle" x="758.397" y="-362.3" font-family="Times,serif" font-size="14.00">P75 (a)</text>
</g>
<!-- 019 -->
<g id="node28" class="node"><title>019</title>
<ellipse fill="#ff8a8a" stroke="#b43f3f" cx="849.397" cy="-366" rx="36.2938" ry="18"/>
<text text-anchor="middle" x="849.397" y="-362.3" font-family="Times,serif" font-size="14.00">019 (a)</text>
</g>
<!-- 01 -->
<g id="node29" class="node"><title>01</title>
<ellipse fill="#cea8f4" stroke="#835da9" cx="936.397" cy="-366" rx="32.4942" ry="18"/>
<text text-anchor="middle" x="936.397" y="-362.3" font-family="Times,serif" font-size="14.00">01 (b)</text>
</g>
</g>
</svg>
