<?xml version="1.0" encoding="UTF-8" standalone="no"?>
<!DOCTYPE svg PUBLIC "-//W3C//DTD SVG 1.1//EN"
 "http://www.w3.org/Graphics/SVG/1.1/DTD/svg11.dtd">
<!-- Generated by graphviz version 2.38.0 (20140413.2041)
 -->
<!-- Title: G Pages: 1 -->
<svg width="999pt" height="332pt"
 viewBox="0.00 0.00 998.79 332.00" xmlns="http://www.w3.org/2000/svg" xmlns:xlink="http://www.w3.org/1999/xlink">
<g id="graph0" class="graph" transform="scale(1 1) rotate(0) translate(4 328)">
<title>G</title>
<polygon fill="white" stroke="none" points="-4,4 -4,-328 994.794,-328 994.794,4 -4,4"/>
<!-- 038 (a) -->
<g id="node1" class="node"><title>038 (a)</title>
<ellipse fill="#ff8a8a" stroke="#b43f3f" cx="412.397" cy="-162" rx="36.2938" ry="18"/>
<text text-anchor="middle" x="412.397" y="-158.3" font-family="Times,serif" font-size="14.00">038 (a)</text>
</g>
<!-- 091 (b) -->
<g id="node2" class="node"><title>091 (b)</title>
<ellipse fill="#cea8f4" stroke="#835da9" cx="614.397" cy="-306" rx="36.2938" ry="18"/>
<text text-anchor="middle" x="614.397" y="-302.3" font-family="Times,serif" font-size="14.00">091 (b)</text>
</g>
<!-- 05 (b) -->
<g id="node9" class="node"><title>05 (b)</title>
<ellipse fill="#cea8f4" stroke="#835da9" cx="590.397" cy="-234" rx="32.4942" ry="18"/>
<text text-anchor="middle" x="590.397" y="-230.3" font-family="Times,serif" font-size="14.00">05 (b)</text>
</g>
<!-- 091 (b)&#45;&gt;05 (b) -->
<g id="edge1" class="edge"><title>091 (b)&#45;&gt;05 (b)</title>
<path fill="none" stroke="black" d="M608.587,-288.055C605.845,-280.059 602.51,-270.331 599.448,-261.4"/>
<polygon fill="black" stroke="black" points="602.707,-260.113 596.153,-251.789 596.085,-262.384 602.707,-260.113"/>
</g>
<!-- 0211 (b) -->
<g id="node12" class="node"><title>0211 (b)</title>
<ellipse fill="#cea8f4" stroke="#835da9" cx="681.397" cy="-234" rx="40.8928" ry="18"/>
<text text-anchor="middle" x="681.397" y="-230.3" font-family="Times,serif" font-size="14.00">0211 (b)</text>
</g>
<!-- 091 (b)&#45;&gt;0211 (b) -->
<g id="edge2" class="edge"><title>091 (b)&#45;&gt;0211 (b)</title>
<path fill="none" stroke="black" d="M629.266,-289.465C637.991,-280.349 649.188,-268.651 658.967,-258.434"/>
<polygon fill="black" stroke="black" points="661.718,-260.621 666.104,-250.977 656.661,-255.781 661.718,-260.621"/>
</g>
<!-- P75 (b) -->
<g id="node3" class="node"><title>P75 (b)</title>
<ellipse fill="#cea8f4" stroke="#835da9" cx="730.397" cy="-306" rx="37.0935" ry="18"/>
<text text-anchor="middle" x="730.397" y="-302.3" font-family="Times,serif" font-size="14.00">P75 (b)</text>
</g>
<!-- 032 (b) -->
<g id="node4" class="node"><title>032 (b)</title>
<ellipse fill="#cea8f4" stroke="#835da9" cx="776.397" cy="-234" rx="36.2938" ry="18"/>
<text text-anchor="middle" x="776.397" y="-230.3" font-family="Times,serif" font-size="14.00">032 (b)</text>
</g>
<!-- 028 (a) -->
<g id="node5" class="node"><title>028 (a)</title>
<ellipse fill="#ff8a8a" stroke="#b43f3f" cx="99.3968" cy="-234" rx="36.2938" ry="18"/>
<text text-anchor="middle" x="99.3968" y="-230.3" font-family="Times,serif" font-size="14.00">028 (a)</text>
</g>
<!-- 047 (a) -->
<g id="node6" class="node"><title>047 (a)</title>
<ellipse fill="#ff8a8a" stroke="#b43f3f" cx="503.397" cy="-162" rx="36.2938" ry="18"/>
<text text-anchor="middle" x="503.397" y="-158.3" font-family="Times,serif" font-size="14.00">047 (a)</text>
</g>
<!-- 034 (a) -->
<g id="node7" class="node"><title>034 (a)</title>
<ellipse fill="#ff8a8a" stroke="#b43f3f" cx="36.3968" cy="-162" rx="36.2938" ry="18"/>
<text text-anchor="middle" x="36.3968" y="-158.3" font-family="Times,serif" font-size="14.00">034 (a)</text>
</g>
<!-- 036 (a) -->
<g id="node8" class="node"><title>036 (a)</title>
<ellipse fill="#ff8a8a" stroke="#b43f3f" cx="594.397" cy="-162" rx="36.2938" ry="18"/>
<text text-anchor="middle" x="594.397" y="-158.3" font-family="Times,serif" font-size="14.00">036 (a)</text>
</g>
<!-- 011 (a) -->
<g id="node10" class="node"><title>011 (a)</title>
<ellipse fill="#ff8a8a" stroke="#b43f3f" cx="190.397" cy="-234" rx="36.2938" ry="18"/>
<text text-anchor="middle" x="190.397" y="-230.3" font-family="Times,serif" font-size="14.00">011 (a)</text>
</g>
<!-- 063 (a) -->
<g id="node11" class="node"><title>063 (a)</title>
<ellipse fill="#ff8a8a" stroke="#b43f3f" cx="276.397" cy="-306" rx="36.2938" ry="18"/>
<text text-anchor="middle" x="276.397" y="-302.3" font-family="Times,serif" font-size="14.00">063 (a)</text>
</g>
<!-- 063 (a)&#45;&gt;028 (a) -->
<g id="edge3" class="edge"><title>063 (a)&#45;&gt;028 (a)</title>
<path fill="none" stroke="black" d="M248.741,-294.062C218.476,-282.093 169.811,-262.848 136.306,-249.597"/>
<polygon fill="black" stroke="black" points="137.445,-246.284 126.859,-245.861 134.871,-252.793 137.445,-246.284"/>
</g>
<!-- 063 (a)&#45;&gt;011 (a) -->
<g id="edge6" class="edge"><title>063 (a)&#45;&gt;011 (a)</title>
<path fill="none" stroke="black" d="M258.158,-290.155C246.072,-280.317 230.027,-267.257 216.584,-256.315"/>
<polygon fill="black" stroke="black" points="218.574,-253.422 208.609,-249.824 214.155,-258.851 218.574,-253.422"/>
</g>
<!-- 07 (a) -->
<g id="node16" class="node"><title>07 (a)</title>
<ellipse fill="#ff8a8a" stroke="#b43f3f" cx="276.397" cy="-234" rx="31.6951" ry="18"/>
<text text-anchor="middle" x="276.397" y="-230.3" font-family="Times,serif" font-size="14.00">07 (a)</text>
</g>
<!-- 063 (a)&#45;&gt;07 (a) -->
<g id="edge4" class="edge"><title>063 (a)&#45;&gt;07 (a)</title>
<path fill="none" stroke="black" d="M276.397,-287.697C276.397,-279.983 276.397,-270.712 276.397,-262.112"/>
<polygon fill="black" stroke="black" points="279.897,-262.104 276.397,-252.104 272.897,-262.104 279.897,-262.104"/>
</g>
<!-- 045 (a) -->
<g id="node20" class="node"><title>045 (a)</title>
<ellipse fill="#ff8a8a" stroke="#b43f3f" cx="387.397" cy="-234" rx="36.2938" ry="18"/>
<text text-anchor="middle" x="387.397" y="-230.3" font-family="Times,serif" font-size="14.00">045 (a)</text>
</g>
<!-- 063 (a)&#45;&gt;045 (a) -->
<g id="edge5" class="edge"><title>063 (a)&#45;&gt;045 (a)</title>
<path fill="none" stroke="black" d="M298.062,-291.337C314.947,-280.689 338.587,-265.781 357.308,-253.975"/>
<polygon fill="black" stroke="black" points="359.194,-256.923 365.786,-248.628 355.46,-251.002 359.194,-256.923"/>
</g>
<!-- 021 (a) -->
<g id="node22" class="node"><title>021 (a)</title>
<ellipse fill="#ff8a8a" stroke="#b43f3f" cx="503.397" cy="-234" rx="36.2938" ry="18"/>
<text text-anchor="middle" x="503.397" y="-230.3" font-family="Times,serif" font-size="14.00">021 (a)</text>
</g>
<!-- 063 (a)&#45;&gt;021 (a) -->
<g id="edge7" class="edge"><title>063 (a)&#45;&gt;021 (a)</title>
<path fill="none" stroke="black" d="M306.541,-295.705C346.905,-283.257 418.616,-261.144 463.444,-247.32"/>
<polygon fill="black" stroke="black" points="464.604,-250.625 473.128,-244.334 462.541,-243.936 464.604,-250.625"/>
</g>
<!-- 044 (b) -->
<g id="node13" class="node"><title>044 (b)</title>
<ellipse fill="#cea8f4" stroke="#835da9" cx="867.397" cy="-234" rx="36.2938" ry="18"/>
<text text-anchor="middle" x="867.397" y="-230.3" font-family="Times,serif" font-size="14.00">044 (b)</text>
</g>
<!-- 022 (b) -->
<g id="node14" class="node"><title>022 (b)</title>
<ellipse fill="#cea8f4" stroke="#835da9" cx="819.397" cy="-162" rx="36.2938" ry="18"/>
<text text-anchor="middle" x="819.397" y="-158.3" font-family="Times,serif" font-size="14.00">022 (b)</text>
</g>
<!-- 044 (b)&#45;&gt;022 (b) -->
<g id="edge8" class="edge"><title>044 (b)&#45;&gt;022 (b)</title>
<path fill="none" stroke="black" d="M856.264,-216.765C850.327,-208.106 842.898,-197.273 836.268,-187.604"/>
<polygon fill="black" stroke="black" points="839.011,-185.415 830.469,-179.147 833.238,-189.374 839.011,-185.415"/>
</g>
<!-- 0141 (b) -->
<g id="node18" class="node"><title>0141 (b)</title>
<ellipse fill="#cea8f4" stroke="#835da9" cx="914.397" cy="-162" rx="40.8928" ry="18"/>
<text text-anchor="middle" x="914.397" y="-158.3" font-family="Times,serif" font-size="14.00">0141 (b)</text>
</g>
<!-- 044 (b)&#45;&gt;0141 (b) -->
<g id="edge9" class="edge"><title>044 (b)&#45;&gt;0141 (b)</title>
<path fill="none" stroke="black" d="M878.298,-216.765C884.028,-208.23 891.177,-197.582 897.598,-188.019"/>
<polygon fill="black" stroke="black" points="900.56,-189.887 903.229,-179.633 894.748,-185.985 900.56,-189.887"/>
</g>
<!-- 02 (b) -->
<g id="node15" class="node"><title>02 (b)</title>
<ellipse fill="#cea8f4" stroke="#835da9" cx="954.397" cy="-234" rx="32.4942" ry="18"/>
<text text-anchor="middle" x="954.397" y="-230.3" font-family="Times,serif" font-size="14.00">02 (b)</text>
</g>
<!-- 07 (a)&#45;&gt;034 (a) -->
<g id="edge10" class="edge"><title>07 (a)&#45;&gt;034 (a)</title>
<path fill="none" stroke="black" d="M251.924,-222.089C246.541,-219.904 240.825,-217.747 235.397,-216 168.487,-194.467 148.641,-200.464 81.3968,-180 78.7902,-179.207 76.1171,-178.34 73.4368,-177.43"/>
<polygon fill="black" stroke="black" points="74.3998,-174.058 63.805,-174.009 72.0568,-180.654 74.3998,-174.058"/>
</g>
<!-- 013/2 (a) -->
<g id="node17" class="node"><title>013/2 (a)</title>
<ellipse fill="#ff8a8a" stroke="#b43f3f" cx="133.397" cy="-162" rx="42.7926" ry="18"/>
<text text-anchor="middle" x="133.397" y="-158.3" font-family="Times,serif" font-size="14.00">013/2 (a)</text>
</g>
<!-- 07 (a)&#45;&gt;013/2 (a) -->
<g id="edge13" class="edge"><title>07 (a)&#45;&gt;013/2 (a)</title>
<path fill="none" stroke="black" d="M253.103,-221.597C230.548,-210.556 196.012,-193.651 169.822,-180.831"/>
<polygon fill="black" stroke="black" points="171.109,-177.564 160.588,-176.311 168.031,-183.851 171.109,-177.564"/>
</g>
<!-- 037 (a) -->
<g id="node23" class="node"><title>037 (a)</title>
<ellipse fill="#ff8a8a" stroke="#b43f3f" cx="230.397" cy="-162" rx="36.2938" ry="18"/>
<text text-anchor="middle" x="230.397" y="-158.3" font-family="Times,serif" font-size="14.00">037 (a)</text>
</g>
<!-- 07 (a)&#45;&gt;037 (a) -->
<g id="edge11" class="edge"><title>07 (a)&#45;&gt;037 (a)</title>
<path fill="none" stroke="black" d="M265.728,-216.765C260.119,-208.23 253.122,-197.582 246.838,-188.019"/>
<polygon fill="black" stroke="black" points="249.744,-186.068 241.327,-179.633 243.894,-189.913 249.744,-186.068"/>
</g>
<!-- 030 (a) -->
<g id="node24" class="node"><title>030 (a)</title>
<ellipse fill="#ff8a8a" stroke="#b43f3f" cx="321.397" cy="-162" rx="36.2938" ry="18"/>
<text text-anchor="middle" x="321.397" y="-158.3" font-family="Times,serif" font-size="14.00">030 (a)</text>
</g>
<!-- 07 (a)&#45;&gt;030 (a) -->
<g id="edge12" class="edge"><title>07 (a)&#45;&gt;030 (a)</title>
<path fill="none" stroke="black" d="M286.834,-216.765C292.264,-208.317 299.026,-197.799 305.125,-188.312"/>
<polygon fill="black" stroke="black" points="308.24,-189.938 310.704,-179.633 302.352,-186.153 308.24,-189.938"/>
</g>
<!-- 017/2 (b) -->
<g id="node21" class="node"><title>017/2 (b)</title>
<ellipse fill="#cea8f4" stroke="#835da9" cx="914.397" cy="-90" rx="43.5923" ry="18"/>
<text text-anchor="middle" x="914.397" y="-86.3" font-family="Times,serif" font-size="14.00">017/2 (b)</text>
</g>
<!-- 0141 (b)&#45;&gt;017/2 (b) -->
<g id="edge14" class="edge"><title>0141 (b)&#45;&gt;017/2 (b)</title>
<path fill="none" stroke="black" d="M914.397,-143.697C914.397,-135.983 914.397,-126.712 914.397,-118.112"/>
<polygon fill="black" stroke="black" points="917.897,-118.104 914.397,-108.104 910.897,-118.104 917.897,-118.104"/>
</g>
<!-- 019 (b) -->
<g id="node19" class="node"><title>019 (b)</title>
<ellipse fill="#cea8f4" stroke="#835da9" cx="954.397" cy="-306" rx="36.2938" ry="18"/>
<text text-anchor="middle" x="954.397" y="-302.3" font-family="Times,serif" font-size="14.00">019 (b)</text>
</g>
<!-- 045 (a)&#45;&gt;038 (a) -->
<g id="edge15" class="edge"><title>045 (a)&#45;&gt;038 (a)</title>
<path fill="none" stroke="black" d="M393.449,-216.055C396.304,-208.059 399.779,-198.331 402.968,-189.4"/>
<polygon fill="black" stroke="black" points="406.333,-190.384 406.401,-179.789 399.741,-188.029 406.333,-190.384"/>
</g>
<!-- 01/4 (b) -->
<g id="node25" class="node"><title>01/4 (b)</title>
<ellipse fill="#cea8f4" stroke="#835da9" cx="914.397" cy="-18" rx="38.9931" ry="18"/>
<text text-anchor="middle" x="914.397" y="-14.3" font-family="Times,serif" font-size="14.00">01/4 (b)</text>
</g>
<!-- 017/2 (b)&#45;&gt;01/4 (b) -->
<g id="edge16" class="edge"><title>017/2 (b)&#45;&gt;01/4 (b)</title>
<path fill="none" stroke="black" d="M914.397,-71.6966C914.397,-63.9827 914.397,-54.7125 914.397,-46.1124"/>
<polygon fill="black" stroke="black" points="917.897,-46.1043 914.397,-36.1043 910.897,-46.1044 917.897,-46.1043"/>
</g>
<!-- 021 (a)&#45;&gt;047 (a) -->
<g id="edge18" class="edge"><title>021 (a)&#45;&gt;047 (a)</title>
<path fill="none" stroke="black" d="M503.397,-215.697C503.397,-207.983 503.397,-198.712 503.397,-190.112"/>
<polygon fill="black" stroke="black" points="506.897,-190.104 503.397,-180.104 499.897,-190.104 506.897,-190.104"/>
</g>
<!-- 021 (a)&#45;&gt;036 (a) -->
<g id="edge17" class="edge"><title>021 (a)&#45;&gt;036 (a)</title>
<path fill="none" stroke="black" d="M522.252,-218.496C535.308,-208.453 552.882,-194.934 567.416,-183.754"/>
<polygon fill="black" stroke="black" points="569.773,-186.357 575.566,-177.485 565.505,-180.808 569.773,-186.357"/>
</g>
<!-- 03 (b) -->
<g id="node26" class="node"><title>03 (b)</title>
<ellipse fill="#cea8f4" stroke="#835da9" cx="867.397" cy="-306" rx="32.4942" ry="18"/>
<text text-anchor="middle" x="867.397" y="-302.3" font-family="Times,serif" font-size="14.00">03 (b)</text>
</g>
<!-- 03 (b)&#45;&gt;032 (b) -->
<g id="edge21" class="edge"><title>03 (b)&#45;&gt;032 (b)</title>
<path fill="none" stroke="black" d="M848.982,-290.834C835.957,-280.816 818.278,-267.216 803.628,-255.947"/>
<polygon fill="black" stroke="black" points="805.471,-252.949 795.411,-249.626 801.203,-258.498 805.471,-252.949"/>
</g>
<!-- 03 (b)&#45;&gt;044 (b) -->
<g id="edge19" class="edge"><title>03 (b)&#45;&gt;044 (b)</title>
<path fill="none" stroke="black" d="M867.397,-287.697C867.397,-279.983 867.397,-270.712 867.397,-262.112"/>
<polygon fill="black" stroke="black" points="870.897,-262.104 867.397,-252.104 863.897,-262.104 870.897,-262.104"/>
</g>
<!-- 03 (b)&#45;&gt;02 (b) -->
<g id="edge20" class="edge"><title>03 (b)&#45;&gt;02 (b)</title>
<path fill="none" stroke="black" d="M885.003,-290.834C897.62,-280.682 914.808,-266.853 928.921,-255.498"/>
<polygon fill="black" stroke="black" points="931.22,-258.14 936.817,-249.144 926.832,-252.686 931.22,-258.14"/>
</g>
</g>
</svg>
