<?xml version="1.0" encoding="UTF-8" standalone="no"?>
<!DOCTYPE svg PUBLIC "-//W3C//DTD SVG 1.1//EN"
 "http://www.w3.org/Graphics/SVG/1.1/DTD/svg11.dtd">
<!-- Generated by graphviz version 2.38.0 (20140413.2041)
 -->
<!-- Title: G Pages: 1 -->
<svg width="844pt" height="392pt"
 viewBox="0.00 0.00 843.79 392.00" xmlns="http://www.w3.org/2000/svg" xmlns:xlink="http://www.w3.org/1999/xlink">
<g id="graph0" class="graph" transform="scale(1 1) rotate(0) translate(4 388)">
<title>G</title>
<polygon fill="white" stroke="none" points="-4,4 -4,-388 839.794,-388 839.794,4 -4,4"/>
<!-- 013 (a) -->
<g id="node1" class="node"><title>013 (a)</title>
<ellipse fill="#ff8a8a" stroke="#b43f3f" cx="708.397" cy="-18" rx="36.2938" ry="18"/>
<text text-anchor="middle" x="708.397" y="-14.3" font-family="Times,serif" font-size="14.00">013 (a)</text>
</g>
<!-- 017 (a) -->
<g id="node2" class="node"><title>017 (a)</title>
<ellipse fill="#ff8a8a" stroke="#b43f3f" cx="799.397" cy="-18" rx="36.2938" ry="18"/>
<text text-anchor="middle" x="799.397" y="-14.3" font-family="Times,serif" font-size="14.00">017 (a)</text>
</g>
<!-- 032 (a) -->
<g id="node3" class="node"><title>032 (a)</title>
<ellipse fill="#ff8a8a" stroke="#b43f3f" cx="36.3968" cy="-192" rx="36.2938" ry="18"/>
<text text-anchor="middle" x="36.3968" y="-188.3" font-family="Times,serif" font-size="14.00">032 (a)</text>
</g>
<!-- A (a) -->
<g id="node4" class="node"><title>A (a)</title>
<ellipse fill="#ff8a8a" stroke="#b43f3f" cx="414.397" cy="-366" rx="29.4969" ry="18"/>
<text text-anchor="middle" x="414.397" y="-362.3" font-family="Times,serif" font-size="14.00">A (a)</text>
</g>
<!-- 03 (a) -->
<g id="node10" class="node"><title>03 (a)</title>
<ellipse fill="#ff8a8a" stroke="#b43f3f" cx="155.397" cy="-279" rx="31.6951" ry="18"/>
<text text-anchor="middle" x="155.397" y="-275.3" font-family="Times,serif" font-size="14.00">03 (a)</text>
</g>
<!-- A (a)&#45;&gt;03 (a) -->
<g id="edge1" class="edge"><title>A (a)&#45;&gt;03 (a)</title>
<path fill="none" stroke="#b43f3f" d="M388.824,-356.876C366.718,-349.833 333.92,-339.333 305.397,-330 266.604,-317.307 222.271,-302.491 191.921,-292.3"/>
<polygon fill="#b43f3f" stroke="#b43f3f" points="192.787,-288.899 182.193,-289.031 190.557,-295.534 192.787,-288.899"/>
<text text-anchor="middle" x="327.397" y="-318.8" font-family="Times,serif" font-size="14.00">1 (93.3)</text>
</g>
<!-- P75 (a) -->
<g id="node11" class="node"><title>P75 (a)</title>
<ellipse fill="#ff8a8a" stroke="#b43f3f" cx="323.397" cy="-279" rx="36.2938" ry="18"/>
<text text-anchor="middle" x="323.397" y="-275.3" font-family="Times,serif" font-size="14.00">P75 (a)</text>
</g>
<!-- A (a)&#45;&gt;P75 (a) -->
<g id="edge3" class="edge"><title>A (a)&#45;&gt;P75 (a)</title>
<path fill="none" stroke="#b43f3f" d="M394.92,-352.326C385.869,-346.06 375.189,-338.113 366.397,-330 357.853,-322.115 349.321,-312.619 342.136,-304.029"/>
<polygon fill="#b43f3f" stroke="#b43f3f" points="344.741,-301.685 335.704,-296.155 339.32,-306.113 344.741,-301.685"/>
<text text-anchor="middle" x="388.397" y="-318.8" font-family="Times,serif" font-size="14.00">1 (93.3)</text>
</g>
<!-- 019 (a) -->
<g id="node14" class="node"><title>019 (a)</title>
<ellipse fill="#ff8a8a" stroke="#b43f3f" cx="414.397" cy="-279" rx="36.2938" ry="18"/>
<text text-anchor="middle" x="414.397" y="-275.3" font-family="Times,serif" font-size="14.00">019 (a)</text>
</g>
<!-- A (a)&#45;&gt;019 (a) -->
<g id="edge4" class="edge"><title>A (a)&#45;&gt;019 (a)</title>
<path fill="none" stroke="#b43f3f" d="M414.397,-347.799C414.397,-336.163 414.397,-320.548 414.397,-307.237"/>
<polygon fill="#b43f3f" stroke="#b43f3f" points="417.897,-307.175 414.397,-297.175 410.897,-307.175 417.897,-307.175"/>
<text text-anchor="middle" x="436.397" y="-318.8" font-family="Times,serif" font-size="14.00">1 (93.3)</text>
</g>
<!-- 01 (a) -->
<g id="node17" class="node"><title>01 (a)</title>
<ellipse fill="#ff8a8a" stroke="#b43f3f" cx="500.397" cy="-279" rx="31.6951" ry="18"/>
<text text-anchor="middle" x="500.397" y="-275.3" font-family="Times,serif" font-size="14.00">01 (a)</text>
</g>
<!-- A (a)&#45;&gt;01 (a) -->
<g id="edge2" class="edge"><title>A (a)&#45;&gt;01 (a)</title>
<path fill="none" stroke="#b43f3f" d="M434.097,-352.561C443.197,-346.347 453.854,-338.375 462.397,-330 470.221,-322.329 477.759,-312.975 484.029,-304.442"/>
<polygon fill="#b43f3f" stroke="#b43f3f" points="486.894,-306.452 489.84,-296.275 481.191,-302.394 486.894,-306.452"/>
<text text-anchor="middle" x="497.397" y="-318.8" font-family="Times,serif" font-size="14.00">1 (57.1)</text>
</g>
<!-- 091 (a) -->
<g id="node18" class="node"><title>091 (a)</title>
<ellipse fill="#ff8a8a" stroke="#b43f3f" cx="586.397" cy="-279" rx="36.2938" ry="18"/>
<text text-anchor="middle" x="586.397" y="-275.3" font-family="Times,serif" font-size="14.00">091 (a)</text>
</g>
<!-- A (a)&#45;&gt;091 (a) -->
<g id="edge5" class="edge"><title>A (a)&#45;&gt;091 (a)</title>
<path fill="none" stroke="#b43f3f" d="M441.916,-359.083C464.638,-353.524 497.278,-343.958 523.397,-330 537.469,-322.48 551.53,-311.712 562.787,-302.093"/>
<polygon fill="#b43f3f" stroke="#b43f3f" points="565.25,-304.588 570.448,-295.355 560.627,-299.331 565.25,-304.588"/>
<text text-anchor="middle" x="568.397" y="-318.8" font-family="Times,serif" font-size="14.00">1 (87.5)</text>
</g>
<!-- 021 (a) -->
<g id="node5" class="node"><title>021 (a)</title>
<ellipse fill="#ff8a8a" stroke="#b43f3f" cx="301.397" cy="-105" rx="36.2938" ry="18"/>
<text text-anchor="middle" x="301.397" y="-101.3" font-family="Times,serif" font-size="14.00">021 (a)</text>
</g>
<!-- 036 (a) -->
<g id="node8" class="node"><title>036 (a)</title>
<ellipse fill="#ff8a8a" stroke="#b43f3f" cx="141.397" cy="-18" rx="36.2938" ry="18"/>
<text text-anchor="middle" x="141.397" y="-14.3" font-family="Times,serif" font-size="14.00">036 (a)</text>
</g>
<!-- 021 (a)&#45;&gt;036 (a) -->
<g id="edge6" class="edge"><title>021 (a)&#45;&gt;036 (a)</title>
<path fill="none" stroke="#b43f3f" d="M273.238,-93.4025C267.357,-91.243 261.186,-89.0162 255.397,-87 231.108,-78.5405 222.848,-81.5482 200.397,-69 187.321,-61.6922 174.437,-51.258 164.061,-41.8102"/>
<polygon fill="#b43f3f" stroke="#b43f3f" points="166.337,-39.1457 156.654,-34.8459 161.542,-44.2456 166.337,-39.1457"/>
<text text-anchor="middle" x="222.397" y="-57.8" font-family="Times,serif" font-size="14.00">1 (97.6)</text>
</g>
<!-- 047 (a) -->
<g id="node24" class="node"><title>047 (a)</title>
<ellipse fill="#ff8a8a" stroke="#b43f3f" cx="232.397" cy="-18" rx="36.2938" ry="18"/>
<text text-anchor="middle" x="232.397" y="-14.3" font-family="Times,serif" font-size="14.00">047 (a)</text>
</g>
<!-- 021 (a)&#45;&gt;047 (a) -->
<g id="edge7" class="edge"><title>021 (a)&#45;&gt;047 (a)</title>
<path fill="none" stroke="#b43f3f" d="M280.043,-89.9756C272.25,-84.1404 263.79,-76.8855 257.397,-69 251.598,-61.8475 246.664,-53.1291 242.75,-44.9878"/>
<polygon fill="#b43f3f" stroke="#b43f3f" points="245.923,-43.5115 238.633,-35.8242 239.538,-46.3803 245.923,-43.5115"/>
<text text-anchor="middle" x="279.397" y="-57.8" font-family="Times,serif" font-size="14.00">1 (95.1)</text>
</g>
<!-- 037 (a) -->
<g id="node6" class="node"><title>037 (a)</title>
<ellipse fill="#ff8a8a" stroke="#b43f3f" cx="323.397" cy="-18" rx="36.2938" ry="18"/>
<text text-anchor="middle" x="323.397" y="-14.3" font-family="Times,serif" font-size="14.00">037 (a)</text>
</g>
<!-- 05 (a) -->
<g id="node7" class="node"><title>05 (a)</title>
<ellipse fill="#ff8a8a" stroke="#b43f3f" cx="575.397" cy="-192" rx="31.6951" ry="18"/>
<text text-anchor="middle" x="575.397" y="-188.3" font-family="Times,serif" font-size="14.00">05 (a)</text>
</g>
<!-- 07 (a) -->
<g id="node9" class="node"><title>07 (a)</title>
<ellipse fill="#ff8a8a" stroke="#b43f3f" cx="392.397" cy="-105" rx="31.6951" ry="18"/>
<text text-anchor="middle" x="392.397" y="-101.3" font-family="Times,serif" font-size="14.00">07 (a)</text>
</g>
<!-- 07 (a)&#45;&gt;037 (a) -->
<g id="edge10" class="edge"><title>07 (a)&#45;&gt;037 (a)</title>
<path fill="none" stroke="#b43f3f" d="M374.785,-89.5804C368.01,-83.5882 360.454,-76.328 354.397,-69 348.156,-61.4499 342.24,-52.5393 337.282,-44.3472"/>
<polygon fill="#b43f3f" stroke="#b43f3f" points="340.19,-42.3852 332.125,-35.5143 334.145,-45.9148 340.19,-42.3852"/>
<text text-anchor="middle" x="376.397" y="-57.8" font-family="Times,serif" font-size="14.00">1 (97.5)</text>
</g>
<!-- 034 (a) -->
<g id="node13" class="node"><title>034 (a)</title>
<ellipse fill="#ff8a8a" stroke="#b43f3f" cx="414.397" cy="-18" rx="36.2938" ry="18"/>
<text text-anchor="middle" x="414.397" y="-14.3" font-family="Times,serif" font-size="14.00">034 (a)</text>
</g>
<!-- 07 (a)&#45;&gt;034 (a) -->
<g id="edge9" class="edge"><title>07 (a)&#45;&gt;034 (a)</title>
<path fill="none" stroke="#b43f3f" d="M396.849,-86.799C399.91,-74.9701 404.036,-59.0301 407.518,-45.578"/>
<polygon fill="#b43f3f" stroke="#b43f3f" points="410.909,-46.4434 410.026,-35.8854 404.132,-44.6893 410.909,-46.4434"/>
<text text-anchor="middle" x="427.397" y="-57.8" font-family="Times,serif" font-size="14.00">1 (95.1)</text>
</g>
<!-- 030 (a) -->
<g id="node21" class="node"><title>030 (a)</title>
<ellipse fill="#ff8a8a" stroke="#b43f3f" cx="505.397" cy="-18" rx="36.2938" ry="18"/>
<text text-anchor="middle" x="505.397" y="-14.3" font-family="Times,serif" font-size="14.00">030 (a)</text>
</g>
<!-- 07 (a)&#45;&gt;030 (a) -->
<g id="edge8" class="edge"><title>07 (a)&#45;&gt;030 (a)</title>
<path fill="none" stroke="#b43f3f" d="M415.535,-92.4596C427.302,-86.1663 441.576,-77.8625 453.397,-69 464.043,-61.0175 474.81,-51.0482 483.763,-42.1164"/>
<polygon fill="#b43f3f" stroke="#b43f3f" points="486.313,-44.515 490.814,-34.9241 481.314,-39.6145 486.313,-44.515"/>
<text text-anchor="middle" x="492.397" y="-57.8" font-family="Times,serif" font-size="14.00">1 (95.1)</text>
</g>
<!-- 03 (a)&#45;&gt;032 (a) -->
<g id="edge12" class="edge"><title>03 (a)&#45;&gt;032 (a)</title>
<path fill="none" stroke="#b43f3f" d="M129.399,-268.383C114.823,-262.314 96.7454,-253.618 82.3968,-243 72.524,-235.694 63.0724,-226.06 55.3327,-217.2"/>
<polygon fill="#b43f3f" stroke="#b43f3f" points="57.86,-214.767 48.7432,-209.369 52.5041,-219.274 57.86,-214.767"/>
<text text-anchor="middle" x="104.397" y="-231.8" font-family="Times,serif" font-size="14.00">1 (91.7)</text>
</g>
<!-- 02 (b) -->
<g id="node25" class="node"><title>02 (b)</title>
<ellipse fill="#cea8f4" stroke="#835da9" cx="123.397" cy="-192" rx="32.4942" ry="18"/>
<text text-anchor="middle" x="123.397" y="-188.3" font-family="Times,serif" font-size="14.00">02 (b)</text>
</g>
<!-- 03 (a)&#45;&gt;02 (b) -->
<g id="edge13" class="edge"><title>03 (a)&#45;&gt;02 (b)</title>
<path fill="none" stroke="#835da9" d="M144.205,-261.835C140.642,-256.095 136.963,-249.453 134.397,-243 131.507,-235.732 129.304,-227.553 127.657,-219.947"/>
<polygon fill="#835da9" stroke="#835da9" points="131.082,-219.223 125.744,-210.071 124.21,-220.554 131.082,-219.223"/>
<text text-anchor="middle" x="156.397" y="-231.8" font-family="Times,serif" font-size="14.00">1 (86.5)</text>
</g>
<!-- 044 (a) -->
<g id="node26" class="node"><title>044 (a)</title>
<ellipse fill="#ff8a8a" stroke="#b43f3f" cx="210.397" cy="-192" rx="36.2938" ry="18"/>
<text text-anchor="middle" x="210.397" y="-188.3" font-family="Times,serif" font-size="14.00">044 (a)</text>
</g>
<!-- 03 (a)&#45;&gt;044 (a) -->
<g id="edge11" class="edge"><title>03 (a)&#45;&gt;044 (a)</title>
<path fill="none" stroke="#b43f3f" d="M165.971,-261.997C169.89,-256.043 174.361,-249.222 178.397,-243 183.612,-234.958 189.261,-226.161 194.341,-218.218"/>
<polygon fill="#b43f3f" stroke="#b43f3f" points="197.349,-220.011 199.78,-209.699 191.449,-216.244 197.349,-220.011"/>
<text text-anchor="middle" x="209.397" y="-231.8" font-family="Times,serif" font-size="14.00">1 (89.2)</text>
</g>
<!-- 038 (a) -->
<g id="node12" class="node"><title>038 (a)</title>
<ellipse fill="#ff8a8a" stroke="#b43f3f" cx="596.397" cy="-18" rx="36.2938" ry="18"/>
<text text-anchor="middle" x="596.397" y="-14.3" font-family="Times,serif" font-size="14.00">038 (a)</text>
</g>
<!-- 063 (a) -->
<g id="node27" class="node"><title>063 (a)</title>
<ellipse fill="#ff8a8a" stroke="#b43f3f" cx="478.397" cy="-192" rx="36.2938" ry="18"/>
<text text-anchor="middle" x="478.397" y="-188.3" font-family="Times,serif" font-size="14.00">063 (a)</text>
</g>
<!-- 019 (a)&#45;&gt;063 (a) -->
<g id="edge14" class="edge"><title>019 (a)&#45;&gt;063 (a)</title>
<path fill="none" stroke="#b43f3f" d="M426.435,-262.012C435.939,-249.389 449.355,-231.571 460.174,-217.202"/>
<polygon fill="#b43f3f" stroke="#b43f3f" points="462.976,-219.299 466.195,-209.205 457.384,-215.089 462.976,-219.299"/>
<text text-anchor="middle" x="472.397" y="-231.8" font-family="Times,serif" font-size="14.00">1 (85.7)</text>
</g>
<!-- 0141 (a) -->
<g id="node15" class="node"><title>0141 (a)</title>
<ellipse fill="#ff8a8a" stroke="#b43f3f" cx="115.397" cy="-105" rx="40.0939" ry="18"/>
<text text-anchor="middle" x="115.397" y="-101.3" font-family="Times,serif" font-size="14.00">0141 (a)</text>
</g>
<!-- 0211 (a) -->
<g id="node16" class="node"><title>0211 (a)</title>
<ellipse fill="#ff8a8a" stroke="#b43f3f" cx="665.397" cy="-192" rx="40.0939" ry="18"/>
<text text-anchor="middle" x="665.397" y="-188.3" font-family="Times,serif" font-size="14.00">0211 (a)</text>
</g>
<!-- 091 (a)&#45;&gt;05 (a) -->
<g id="edge16" class="edge"><title>091 (a)&#45;&gt;05 (a)</title>
<path fill="none" stroke="#b43f3f" d="M584.171,-260.799C582.665,-249.163 580.644,-233.548 578.922,-220.237"/>
<polygon fill="#b43f3f" stroke="#b43f3f" points="582.374,-219.644 577.619,-210.175 575.432,-220.542 582.374,-219.644"/>
<text text-anchor="middle" x="604.397" y="-231.8" font-family="Times,serif" font-size="14.00">1 (87.5)</text>
</g>
<!-- 091 (a)&#45;&gt;0211 (a) -->
<g id="edge15" class="edge"><title>091 (a)&#45;&gt;0211 (a)</title>
<path fill="none" stroke="#b43f3f" d="M606.712,-263.795C614.546,-257.833 623.308,-250.537 630.397,-243 637.434,-235.518 644.16,-226.533 649.802,-218.256"/>
<polygon fill="#b43f3f" stroke="#b43f3f" points="652.887,-219.935 655.462,-209.657 647.04,-216.086 652.887,-219.935"/>
<text text-anchor="middle" x="664.397" y="-231.8" font-family="Times,serif" font-size="14.00">1 (83.3)</text>
</g>
<!-- 011 (a) -->
<g id="node19" class="node"><title>011 (a)</title>
<ellipse fill="#ff8a8a" stroke="#b43f3f" cx="478.397" cy="-105" rx="36.2938" ry="18"/>
<text text-anchor="middle" x="478.397" y="-101.3" font-family="Times,serif" font-size="14.00">011 (a)</text>
</g>
<!-- 045 (a) -->
<g id="node20" class="node"><title>045 (a)</title>
<ellipse fill="#ff8a8a" stroke="#b43f3f" cx="569.397" cy="-105" rx="36.2938" ry="18"/>
<text text-anchor="middle" x="569.397" y="-101.3" font-family="Times,serif" font-size="14.00">045 (a)</text>
</g>
<!-- 045 (a)&#45;&gt;038 (a) -->
<g id="edge17" class="edge"><title>045 (a)&#45;&gt;038 (a)</title>
<path fill="none" stroke="#b43f3f" d="M574.861,-86.799C578.618,-74.9701 583.681,-59.0301 587.954,-45.578"/>
<polygon fill="#b43f3f" stroke="#b43f3f" points="591.341,-46.4757 591.033,-35.8854 584.67,-44.3565 591.341,-46.4757"/>
<text text-anchor="middle" x="607.397" y="-57.8" font-family="Times,serif" font-size="14.00">1 (92.7)</text>
</g>
<!-- 028 (a) -->
<g id="node22" class="node"><title>028 (a)</title>
<ellipse fill="#ff8a8a" stroke="#b43f3f" cx="660.397" cy="-105" rx="36.2938" ry="18"/>
<text text-anchor="middle" x="660.397" y="-101.3" font-family="Times,serif" font-size="14.00">028 (a)</text>
</g>
<!-- 022 (a) -->
<g id="node23" class="node"><title>022 (a)</title>
<ellipse fill="#ff8a8a" stroke="#b43f3f" cx="210.397" cy="-105" rx="36.2938" ry="18"/>
<text text-anchor="middle" x="210.397" y="-101.3" font-family="Times,serif" font-size="14.00">022 (a)</text>
</g>
<!-- 044 (a)&#45;&gt;0141 (a) -->
<g id="edge19" class="edge"><title>044 (a)&#45;&gt;0141 (a)</title>
<path fill="none" stroke="#b43f3f" d="M189.667,-177.159C180.96,-171.025 170.902,-163.508 162.397,-156 153.233,-147.911 143.866,-138.276 135.93,-129.632"/>
<polygon fill="#b43f3f" stroke="#b43f3f" points="138.386,-127.129 129.091,-122.045 133.187,-131.816 138.386,-127.129"/>
<text text-anchor="middle" x="184.397" y="-144.8" font-family="Times,serif" font-size="14.00">1 (89.2)</text>
</g>
<!-- 044 (a)&#45;&gt;022 (a) -->
<g id="edge18" class="edge"><title>044 (a)&#45;&gt;022 (a)</title>
<path fill="none" stroke="#b43f3f" d="M210.397,-173.799C210.397,-162.163 210.397,-146.548 210.397,-133.237"/>
<polygon fill="#b43f3f" stroke="#b43f3f" points="213.897,-133.175 210.397,-123.175 206.897,-133.175 213.897,-133.175"/>
<text text-anchor="middle" x="232.397" y="-144.8" font-family="Times,serif" font-size="14.00">1 (91.7)</text>
</g>
<!-- 063 (a)&#45;&gt;021 (a) -->
<g id="edge24" class="edge"><title>063 (a)&#45;&gt;021 (a)</title>
<path fill="none" stroke="#b43f3f" d="M446.167,-183.402C424.134,-177.532 394.644,-168.324 370.397,-156 355.074,-148.212 339.447,-137.194 326.948,-127.482"/>
<polygon fill="#b43f3f" stroke="#b43f3f" points="328.84,-124.514 318.837,-121.023 324.479,-129.99 328.84,-124.514"/>
<text text-anchor="middle" x="392.397" y="-144.8" font-family="Times,serif" font-size="14.00">1 (93.1)</text>
</g>
<!-- 063 (a)&#45;&gt;07 (a) -->
<g id="edge23" class="edge"><title>063 (a)&#45;&gt;07 (a)</title>
<path fill="none" stroke="#b43f3f" d="M456.793,-177.25C448.136,-171.245 438.351,-163.798 430.397,-156 422.572,-148.329 415.035,-138.975 408.765,-130.442"/>
<polygon fill="#b43f3f" stroke="#b43f3f" points="411.603,-128.394 402.954,-122.275 405.899,-132.452 411.603,-128.394"/>
<text text-anchor="middle" x="452.397" y="-144.8" font-family="Times,serif" font-size="14.00">1 (96.6)</text>
</g>
<!-- 063 (a)&#45;&gt;011 (a) -->
<g id="edge22" class="edge"><title>063 (a)&#45;&gt;011 (a)</title>
<path fill="none" stroke="#b43f3f" d="M478.397,-173.799C478.397,-162.163 478.397,-146.548 478.397,-133.237"/>
<polygon fill="#b43f3f" stroke="#b43f3f" points="481.897,-133.175 478.397,-123.175 474.897,-133.175 481.897,-133.175"/>
<text text-anchor="middle" x="500.397" y="-144.8" font-family="Times,serif" font-size="14.00">1 (93.1)</text>
</g>
<!-- 063 (a)&#45;&gt;045 (a) -->
<g id="edge20" class="edge"><title>063 (a)&#45;&gt;045 (a)</title>
<path fill="none" stroke="#b43f3f" d="M499.768,-177.006C508.389,-170.963 518.211,-163.554 526.397,-156 534.941,-148.115 543.472,-138.619 550.657,-130.029"/>
<polygon fill="#b43f3f" stroke="#b43f3f" points="553.474,-132.113 557.089,-122.155 548.053,-127.685 553.474,-132.113"/>
<text text-anchor="middle" x="562.397" y="-144.8" font-family="Times,serif" font-size="14.00">1 (93.1)</text>
</g>
<!-- 063 (a)&#45;&gt;028 (a) -->
<g id="edge21" class="edge"><title>063 (a)&#45;&gt;028 (a)</title>
<path fill="none" stroke="#b43f3f" d="M508.776,-181.843C538.739,-172.729 581.093,-159.596 588.397,-156 604.525,-148.059 621.099,-136.801 634.273,-126.977"/>
<polygon fill="#b43f3f" stroke="#b43f3f" points="636.572,-129.626 642.401,-120.778 632.327,-124.06 636.572,-129.626"/>
<text text-anchor="middle" x="635.397" y="-144.8" font-family="Times,serif" font-size="14.00">1 (96.6)</text>
</g>
<!-- 031 (a) -->
<g id="node28" class="node"><title>031 (a)</title>
<ellipse fill="#ff8a8a" stroke="#b43f3f" cx="751.397" cy="-105" rx="36.2938" ry="18"/>
<text text-anchor="middle" x="751.397" y="-101.3" font-family="Times,serif" font-size="14.00">031 (a)</text>
</g>
<!-- 063 (a)&#45;&gt;031 (a) -->
<g id="edge25" class="edge"><title>063 (a)&#45;&gt;031 (a)</title>
<path fill="none" stroke="#b43f3f" d="M507.816,-181.141C516.322,-178.544 525.667,-175.932 534.397,-174 590.059,-161.684 607.353,-174.146 661.397,-156 682.842,-148.799 705.081,-136.497 722.086,-125.898"/>
<polygon fill="#b43f3f" stroke="#b43f3f" points="724.416,-128.563 730.957,-120.229 720.646,-122.665 724.416,-128.563"/>
<text text-anchor="middle" x="716.397" y="-144.8" font-family="Times,serif" font-size="14.00">1 (95.8)</text>
</g>
<!-- 031 (a)&#45;&gt;013 (a) -->
<g id="edge26" class="edge"><title>031 (a)&#45;&gt;013 (a)</title>
<path fill="none" stroke="#b43f3f" d="M742.752,-87.2851C739.773,-81.501 736.425,-74.9722 733.397,-69 729.402,-61.1233 725.089,-52.5285 721.188,-44.7215"/>
<polygon fill="#b43f3f" stroke="#b43f3f" points="724.278,-43.0767 716.683,-35.6905 718.015,-46.2013 724.278,-43.0767"/>
<text text-anchor="middle" x="755.397" y="-57.8" font-family="Times,serif" font-size="14.00">1 (97.1)</text>
</g>
<!-- 031 (a)&#45;&gt;017 (a) -->
<g id="edge27" class="edge"><title>031 (a)&#45;&gt;017 (a)</title>
<path fill="none" stroke="#b43f3f" d="M764.355,-88.1391C768.792,-82.3156 773.592,-75.5436 777.397,-69 781.687,-61.6215 785.68,-53.2512 789.055,-45.4984"/>
<polygon fill="#b43f3f" stroke="#b43f3f" points="792.343,-46.7057 792.973,-36.1296 785.886,-44.0044 792.343,-46.7057"/>
<text text-anchor="middle" x="806.397" y="-57.8" font-family="Times,serif" font-size="14.00">1 (94.3)</text>
</g>
</g>
</svg>
