<?xml version="1.0" encoding="UTF-8" standalone="no"?>
<!DOCTYPE svg PUBLIC "-//W3C//DTD SVG 1.1//EN"
 "http://www.w3.org/Graphics/SVG/1.1/DTD/svg11.dtd">
<!-- Generated by graphviz version 2.38.0 (20140413.2041)
 -->
<!-- Title: %3 Pages: 1 -->
<svg width="1144pt" height="408pt"
 viewBox="0.00 0.00 1144.40 408.00" xmlns="http://www.w3.org/2000/svg" xmlns:xlink="http://www.w3.org/1999/xlink">
<g id="graph0" class="graph" transform="scale(1 1) rotate(0) translate(4 404)">
<title>%3</title>
<polygon fill="white" stroke="none" points="-4,4 -4,-404 1140.4,-404 1140.4,4 -4,4"/>
<g id="clust1" class="cluster"><title>cluster_legend</title>
<path fill="none" stroke="black" d="M20,-264C20,-264 210,-264 210,-264 216,-264 222,-270 222,-276 222,-276 222,-380 222,-380 222,-386 216,-392 210,-392 210,-392 20,-392 20,-392 14,-392 8,-386 8,-380 8,-380 8,-276 8,-276 8,-270 14,-264 20,-264"/>
</g>
<!-- leg_s -->
<g id="node1" class="node"><title>leg_s</title>
<text text-anchor="middle" x="115" y="-362.3" font-family="Times,serif" font-size="14.00">Textual flow strength</text>
</g>
<!-- leg_e1 -->
<!-- leg_s&#45;&gt;leg_e1 -->
<g id="edge1" class="edge"><title>leg_s&#45;&gt;leg_e1</title>
<path fill="none" stroke="black" stroke-dasharray="1,5" d="M96.6657,-347.686C91.1324,-342.194 85.1607,-335.989 80,-330 70.1708,-318.593 60.0722,-304.779 52.9137,-294.563"/>
<polygon fill="black" stroke="black" points="55.6142,-292.314 47.056,-286.068 49.8514,-296.288 55.6142,-292.314"/>
<text text-anchor="middle" x="95.5" y="-318.8" font-family="Times,serif" font-size="14.00">&lt;=5 &#160;</text>
</g>
<!-- leg_e2 -->
<!-- leg_s&#45;&gt;leg_e2 -->
<g id="edge2" class="edge"><title>leg_s&#45;&gt;leg_e2</title>
<path fill="none" stroke="black" stroke-dasharray="5,2" d="M115,-347.799C115,-332.794 115,-311.174 115,-296.409"/>
<polygon fill="black" stroke="black" points="118.5,-296.293 115,-286.293 111.5,-296.293 118.5,-296.293"/>
<text text-anchor="middle" x="134" y="-318.8" font-family="Times,serif" font-size="14.00"> &#160;&lt;=25</text>
</g>
<!-- leg_e3 -->
<!-- leg_s&#45;&gt;leg_e3 -->
<g id="edge3" class="edge"><title>leg_s&#45;&gt;leg_e3</title>
<path fill="none" stroke="black" d="M138.503,-347.76C144.906,-342.462 151.567,-336.344 157,-330 166.087,-319.39 174.095,-305.689 179.546,-295.313"/>
<polygon fill="black" stroke="black" points="182.722,-296.789 184.091,-286.283 176.469,-293.642 182.722,-296.789"/>
<text text-anchor="middle" x="179" y="-318.8" font-family="Times,serif" font-size="14.00">&gt;25</text>
</g>
<!-- 03 -->
<g id="node5" class="node"><title>03</title>
<ellipse fill="#ff8a8a" stroke="#b43f3f" cx="264" cy="-279" rx="31.6951" ry="18"/>
<text text-anchor="middle" x="264" y="-275.3" font-family="Times,serif" font-size="14.00">03 (a)</text>
</g>
<!-- 02 -->
<g id="node6" class="node"><title>02</title>
<ellipse fill="#ff8a8a" stroke="#b43f3f" cx="176" cy="-192" rx="31.6951" ry="18"/>
<text text-anchor="middle" x="176" y="-188.3" font-family="Times,serif" font-size="14.00">02 (a)</text>
</g>
<!-- 03&#45;&gt;02 -->
<g id="edge4" class="edge"><title>03&#45;&gt;02</title>
<path fill="none" stroke="#b43f3f" stroke-dasharray="1,5" d="M243.437,-265.253C234.261,-259.09 223.603,-251.248 215,-243 207.013,-235.343 199.287,-225.992 192.847,-217.458"/>
<polygon fill="#b43f3f" stroke="#b43f3f" points="195.602,-215.295 186.874,-209.288 189.951,-219.426 195.602,-215.295"/>
<text text-anchor="middle" x="237" y="-231.8" font-family="Times,serif" font-size="14.00">1 (86.5)</text>
</g>
<!-- 032 -->
<g id="node7" class="node"><title>032</title>
<ellipse fill="#ff8a8a" stroke="#b43f3f" cx="262" cy="-192" rx="36.2938" ry="18"/>
<text text-anchor="middle" x="262" y="-188.3" font-family="Times,serif" font-size="14.00">032 (a)</text>
</g>
<!-- 03&#45;&gt;032 -->
<g id="edge5" class="edge"><title>03&#45;&gt;032</title>
<path fill="none" stroke="#b43f3f" stroke-dasharray="1,5" d="M263.595,-260.799C263.321,-249.163 262.954,-233.548 262.641,-220.237"/>
<polygon fill="#b43f3f" stroke="#b43f3f" points="266.138,-220.09 262.404,-210.175 259.14,-220.255 266.138,-220.09"/>
<text text-anchor="middle" x="286" y="-231.8" font-family="Times,serif" font-size="14.00">1 (91.7)</text>
</g>
<!-- 044 -->
<g id="node8" class="node"><title>044</title>
<ellipse fill="#ff8a8a" stroke="#b43f3f" cx="353" cy="-192" rx="36.2938" ry="18"/>
<text text-anchor="middle" x="353" y="-188.3" font-family="Times,serif" font-size="14.00">044 (a)</text>
</g>
<!-- 03&#45;&gt;044 -->
<g id="edge6" class="edge"><title>03&#45;&gt;044</title>
<path fill="none" stroke="#b43f3f" stroke-dasharray="1,5" d="M284.507,-264.766C293.367,-258.623 303.604,-250.933 312,-243 320.201,-235.252 328.281,-225.882 335.073,-217.357"/>
<polygon fill="#b43f3f" stroke="#b43f3f" points="338.031,-219.253 341.39,-209.205 332.498,-214.965 338.031,-219.253"/>
<text text-anchor="middle" x="348" y="-231.8" font-family="Times,serif" font-size="14.00">1 (89.2)</text>
</g>
<!-- 0141 -->
<g id="node30" class="node"><title>0141</title>
<ellipse fill="#ff8a8a" stroke="#b43f3f" cx="294" cy="-105" rx="40.0939" ry="18"/>
<text text-anchor="middle" x="294" y="-101.3" font-family="Times,serif" font-size="14.00">0141 (a)</text>
</g>
<!-- 044&#45;&gt;0141 -->
<g id="edge28" class="edge"><title>044&#45;&gt;0141</title>
<path fill="none" stroke="#b43f3f" stroke-dasharray="1,5" d="M337.474,-175.673C331.933,-169.792 325.865,-162.845 321,-156 315.66,-148.486 310.621,-139.797 306.375,-131.79"/>
<polygon fill="#b43f3f" stroke="#b43f3f" points="309.455,-130.125 301.784,-122.817 303.223,-133.314 309.455,-130.125"/>
<text text-anchor="middle" x="343" y="-144.8" font-family="Times,serif" font-size="14.00">1 (89.2)</text>
</g>
<!-- 022 -->
<g id="node31" class="node"><title>022</title>
<ellipse fill="#ff8a8a" stroke="#b43f3f" cx="389" cy="-105" rx="36.2938" ry="18"/>
<text text-anchor="middle" x="389" y="-101.3" font-family="Times,serif" font-size="14.00">022 (a)</text>
</g>
<!-- 044&#45;&gt;022 -->
<g id="edge29" class="edge"><title>044&#45;&gt;022</title>
<path fill="none" stroke="#b43f3f" stroke-dasharray="1,5" d="M360.112,-174.207C365.191,-162.216 372.122,-145.851 377.922,-132.157"/>
<polygon fill="#b43f3f" stroke="#b43f3f" points="381.225,-133.332 381.902,-122.758 374.779,-130.602 381.225,-133.332"/>
<text text-anchor="middle" x="396" y="-144.8" font-family="Times,serif" font-size="14.00">1 (91.7)</text>
</g>
<!-- A -->
<g id="node9" class="node"><title>A</title>
<ellipse fill="#ff8a8a" stroke="#b43f3f" cx="445" cy="-366" rx="29.4969" ry="18"/>
<text text-anchor="middle" x="445" y="-362.3" font-family="Times,serif" font-size="14.00">A (a)</text>
</g>
<!-- A&#45;&gt;03 -->
<g id="edge7" class="edge"><title>A&#45;&gt;03</title>
<path fill="none" stroke="#b43f3f" stroke-dasharray="1,5" d="M417.982,-358.559C395.617,-352.689 363.355,-342.958 337,-330 320.49,-321.882 303.45,-310.417 289.99,-300.512"/>
<polygon fill="#b43f3f" stroke="#b43f3f" points="291.799,-297.494 281.704,-294.28 287.592,-303.088 291.799,-297.494"/>
<text text-anchor="middle" x="359" y="-318.8" font-family="Times,serif" font-size="14.00">1 (93.3)</text>
</g>
<!-- P75 -->
<g id="node10" class="node"><title>P75</title>
<ellipse fill="#ff8a8a" stroke="#b43f3f" cx="359" cy="-279" rx="36.2938" ry="18"/>
<text text-anchor="middle" x="359" y="-275.3" font-family="Times,serif" font-size="14.00">P75 (a)</text>
</g>
<!-- A&#45;&gt;P75 -->
<g id="edge8" class="edge"><title>A&#45;&gt;P75</title>
<path fill="none" stroke="#b43f3f" stroke-dasharray="1,5" d="M425.3,-352.561C416.199,-346.347 405.543,-338.375 397,-330 389.175,-322.329 381.638,-312.975 375.368,-304.442"/>
<polygon fill="#b43f3f" stroke="#b43f3f" points="378.206,-302.394 369.557,-296.275 372.503,-306.452 378.206,-302.394"/>
<text text-anchor="middle" x="419" y="-318.8" font-family="Times,serif" font-size="14.00">1 (93.3)</text>
</g>
<!-- 01 -->
<g id="node11" class="node"><title>01</title>
<ellipse fill="#ff8a8a" stroke="#b43f3f" cx="445" cy="-279" rx="31.6951" ry="18"/>
<text text-anchor="middle" x="445" y="-275.3" font-family="Times,serif" font-size="14.00">01 (a)</text>
</g>
<!-- A&#45;&gt;01 -->
<g id="edge9" class="edge"><title>A&#45;&gt;01</title>
<path fill="none" stroke="#b43f3f" stroke-dasharray="5,2" d="M445,-347.799C445,-336.163 445,-320.548 445,-307.237"/>
<polygon fill="#b43f3f" stroke="#b43f3f" points="448.5,-307.175 445,-297.175 441.5,-307.175 448.5,-307.175"/>
<text text-anchor="middle" x="467" y="-318.8" font-family="Times,serif" font-size="14.00">1 (57.1)</text>
</g>
<!-- 091 -->
<g id="node12" class="node"><title>091</title>
<ellipse fill="#ff8a8a" stroke="#b43f3f" cx="531" cy="-279" rx="36.2938" ry="18"/>
<text text-anchor="middle" x="531" y="-275.3" font-family="Times,serif" font-size="14.00">091 (a)</text>
</g>
<!-- A&#45;&gt;091 -->
<g id="edge10" class="edge"><title>A&#45;&gt;091</title>
<path fill="none" stroke="#b43f3f" stroke-dasharray="1,5" d="M464.7,-352.561C473.801,-346.347 484.457,-338.375 493,-330 500.825,-322.329 508.362,-312.975 514.632,-304.442"/>
<polygon fill="#b43f3f" stroke="#b43f3f" points="517.497,-306.452 520.443,-296.275 511.794,-302.394 517.497,-306.452"/>
<text text-anchor="middle" x="528" y="-318.8" font-family="Times,serif" font-size="14.00">1 (87.5)</text>
</g>
<!-- 019 -->
<g id="node13" class="node"><title>019</title>
<ellipse fill="#ff8a8a" stroke="#b43f3f" cx="713" cy="-279" rx="36.2938" ry="18"/>
<text text-anchor="middle" x="713" y="-275.3" font-family="Times,serif" font-size="14.00">019 (a)</text>
</g>
<!-- A&#45;&gt;019 -->
<g id="edge11" class="edge"><title>A&#45;&gt;019</title>
<path fill="none" stroke="#b43f3f" stroke-dasharray="1,5" d="M470.697,-356.85C517.662,-341.954 617.641,-310.244 673.376,-292.567"/>
<polygon fill="#b43f3f" stroke="#b43f3f" points="674.442,-295.901 682.916,-289.542 672.326,-289.229 674.442,-295.901"/>
<text text-anchor="middle" x="618" y="-318.8" font-family="Times,serif" font-size="14.00">1 (93.3)</text>
</g>
<!-- 0211 -->
<g id="node14" class="node"><title>0211</title>
<ellipse fill="#ff8a8a" stroke="#b43f3f" cx="448" cy="-192" rx="40.0939" ry="18"/>
<text text-anchor="middle" x="448" y="-188.3" font-family="Times,serif" font-size="14.00">0211 (a)</text>
</g>
<!-- 091&#45;&gt;0211 -->
<g id="edge12" class="edge"><title>091&#45;&gt;0211</title>
<path fill="none" stroke="#b43f3f" stroke-dasharray="1,5" d="M510.883,-263.604C503.076,-257.615 494.281,-250.351 487,-243 479.33,-235.257 471.76,-226.025 465.359,-217.614"/>
<polygon fill="#b43f3f" stroke="#b43f3f" points="468.156,-215.509 459.388,-209.562 462.534,-219.679 468.156,-215.509"/>
<text text-anchor="middle" x="509" y="-231.8" font-family="Times,serif" font-size="14.00">1 (83.3)</text>
</g>
<!-- 05 -->
<g id="node15" class="node"><title>05</title>
<ellipse fill="#cea8f4" stroke="#835da9" cx="539" cy="-192" rx="32.4942" ry="18"/>
<text text-anchor="middle" x="539" y="-188.3" font-family="Times,serif" font-size="14.00">05 (b)</text>
</g>
<!-- 091&#45;&gt;05 -->
<g id="edge13" class="edge"><title>091&#45;&gt;05</title>
<path fill="none" stroke="#835da9" stroke-dasharray="1,5" d="M532.619,-260.799C533.714,-249.163 535.184,-233.548 536.437,-220.237"/>
<polygon fill="#835da9" stroke="#835da9" points="539.931,-220.459 537.383,-210.175 532.962,-219.803 539.931,-220.459"/>
<text text-anchor="middle" x="558" y="-231.8" font-family="Times,serif" font-size="14.00">1 (87.5)</text>
</g>
<!-- 063 -->
<g id="node16" class="node"><title>063</title>
<ellipse fill="#ff8a8a" stroke="#b43f3f" cx="827" cy="-192" rx="36.2938" ry="18"/>
<text text-anchor="middle" x="827" y="-188.3" font-family="Times,serif" font-size="14.00">063 (a)</text>
</g>
<!-- 019&#45;&gt;063 -->
<g id="edge26" class="edge"><title>019&#45;&gt;063</title>
<path fill="none" stroke="#b43f3f" stroke-dasharray="1,5" d="M732.339,-263.581C750.763,-249.843 778.69,-229.02 799.442,-213.548"/>
<polygon fill="#b43f3f" stroke="#b43f3f" points="801.642,-216.273 807.567,-207.49 797.458,-210.661 801.642,-216.273"/>
<text text-anchor="middle" x="799" y="-231.8" font-family="Times,serif" font-size="14.00">1 (85.7)</text>
</g>
<!-- 047 -->
<g id="node32" class="node"><title>047</title>
<ellipse fill="#cea8f4" stroke="#835da9" cx="516" cy="-105" rx="36.2938" ry="18"/>
<text text-anchor="middle" x="516" y="-101.3" font-family="Times,serif" font-size="14.00">047 (b)</text>
</g>
<!-- 05&#45;&gt;047 -->
<g id="edge30" class="edge"><title>05&#45;&gt;047</title>
<path fill="none" stroke="#835da9" stroke-dasharray="1,5" d="M534.346,-173.799C531.145,-161.97 526.832,-146.03 523.192,-132.578"/>
<polygon fill="#835da9" stroke="#835da9" points="526.56,-131.624 520.569,-122.885 519.803,-133.452 526.56,-131.624"/>
<text text-anchor="middle" x="554.5" y="-144.8" font-family="Times,serif" font-size="14.00">24 (67.6)</text>
</g>
<!-- 031 -->
<g id="node17" class="node"><title>031</title>
<ellipse fill="#ff8a8a" stroke="#b43f3f" cx="607" cy="-105" rx="36.2938" ry="18"/>
<text text-anchor="middle" x="607" y="-101.3" font-family="Times,serif" font-size="14.00">031 (a)</text>
</g>
<!-- 063&#45;&gt;031 -->
<g id="edge14" class="edge"><title>063&#45;&gt;031</title>
<path fill="none" stroke="#b43f3f" stroke-dasharray="1,5" d="M796.439,-182.047C774.645,-175.432 744.76,-165.892 719,-156 692.506,-145.826 663.242,-132.694 641.273,-122.441"/>
<polygon fill="#b43f3f" stroke="#b43f3f" points="642.571,-119.183 632.032,-118.097 639.593,-125.519 642.571,-119.183"/>
<text text-anchor="middle" x="741" y="-144.8" font-family="Times,serif" font-size="14.00">1 (95.8)</text>
</g>
<!-- 07 -->
<g id="node18" class="node"><title>07</title>
<ellipse fill="#ff8a8a" stroke="#b43f3f" cx="741" cy="-105" rx="31.6951" ry="18"/>
<text text-anchor="middle" x="741" y="-101.3" font-family="Times,serif" font-size="14.00">07 (a)</text>
</g>
<!-- 063&#45;&gt;07 -->
<g id="edge15" class="edge"><title>063&#45;&gt;07</title>
<path fill="none" stroke="#b43f3f" stroke-dasharray="1,5" d="M805.396,-177.25C796.74,-171.245 786.954,-163.798 779,-156 771.175,-148.329 763.638,-138.975 757.368,-130.442"/>
<polygon fill="#b43f3f" stroke="#b43f3f" points="760.206,-128.394 751.557,-122.275 754.503,-132.452 760.206,-128.394"/>
<text text-anchor="middle" x="801" y="-144.8" font-family="Times,serif" font-size="14.00">1 (96.6)</text>
</g>
<!-- 021 -->
<g id="node19" class="node"><title>021</title>
<ellipse fill="#ff8a8a" stroke="#b43f3f" cx="827" cy="-105" rx="36.2938" ry="18"/>
<text text-anchor="middle" x="827" y="-101.3" font-family="Times,serif" font-size="14.00">021 (a)</text>
</g>
<!-- 063&#45;&gt;021 -->
<g id="edge16" class="edge"><title>063&#45;&gt;021</title>
<path fill="none" stroke="#b43f3f" stroke-dasharray="1,5" d="M827,-173.799C827,-162.163 827,-146.548 827,-133.237"/>
<polygon fill="#b43f3f" stroke="#b43f3f" points="830.5,-133.175 827,-123.175 823.5,-133.175 830.5,-133.175"/>
<text text-anchor="middle" x="849" y="-144.8" font-family="Times,serif" font-size="14.00">1 (93.1)</text>
</g>
<!-- 045 -->
<g id="node20" class="node"><title>045</title>
<ellipse fill="#ff8a8a" stroke="#b43f3f" cx="918" cy="-105" rx="36.2938" ry="18"/>
<text text-anchor="middle" x="918" y="-101.3" font-family="Times,serif" font-size="14.00">045 (a)</text>
</g>
<!-- 063&#45;&gt;045 -->
<g id="edge17" class="edge"><title>063&#45;&gt;045</title>
<path fill="none" stroke="#b43f3f" stroke-dasharray="1,5" d="M848.372,-177.006C856.992,-170.963 866.814,-163.554 875,-156 883.544,-148.115 892.076,-138.619 899.26,-130.029"/>
<polygon fill="#b43f3f" stroke="#b43f3f" points="902.077,-132.113 905.692,-122.155 896.656,-127.685 902.077,-132.113"/>
<text text-anchor="middle" x="911" y="-144.8" font-family="Times,serif" font-size="14.00">1 (93.1)</text>
</g>
<!-- 028 -->
<g id="node21" class="node"><title>028</title>
<ellipse fill="#ff8a8a" stroke="#b43f3f" cx="1009" cy="-105" rx="36.2938" ry="18"/>
<text text-anchor="middle" x="1009" y="-101.3" font-family="Times,serif" font-size="14.00">028 (a)</text>
</g>
<!-- 063&#45;&gt;028 -->
<g id="edge18" class="edge"><title>063&#45;&gt;028</title>
<path fill="none" stroke="#b43f3f" stroke-dasharray="1,5" d="M859.267,-183.461C881.727,-177.566 912.009,-168.305 937,-156 953.128,-148.059 969.702,-136.801 982.877,-126.977"/>
<polygon fill="#b43f3f" stroke="#b43f3f" points="985.176,-129.626 991.004,-120.778 980.931,-124.06 985.176,-129.626"/>
<text text-anchor="middle" x="984" y="-144.8" font-family="Times,serif" font-size="14.00">1 (96.6)</text>
</g>
<!-- 011 -->
<g id="node22" class="node"><title>011</title>
<ellipse fill="#ff8a8a" stroke="#b43f3f" cx="1100" cy="-105" rx="36.2938" ry="18"/>
<text text-anchor="middle" x="1100" y="-101.3" font-family="Times,serif" font-size="14.00">011 (a)</text>
</g>
<!-- 063&#45;&gt;011 -->
<g id="edge19" class="edge"><title>063&#45;&gt;011</title>
<path fill="none" stroke="#b43f3f" stroke-dasharray="1,5" d="M862.629,-187.578C900.17,-183.197 960.588,-173.927 1010,-156 1031.27,-148.285 1053.5,-135.977 1070.55,-125.504"/>
<polygon fill="#b43f3f" stroke="#b43f3f" points="1072.84,-128.197 1079.45,-119.915 1069.12,-122.269 1072.84,-128.197"/>
<text text-anchor="middle" x="1063" y="-144.8" font-family="Times,serif" font-size="14.00">1 (93.1)</text>
</g>
<!-- 017 -->
<g id="node23" class="node"><title>017</title>
<ellipse fill="#ff8a8a" stroke="#b43f3f" cx="468" cy="-18" rx="36.2938" ry="18"/>
<text text-anchor="middle" x="468" y="-14.3" font-family="Times,serif" font-size="14.00">017 (a)</text>
</g>
<!-- 031&#45;&gt;017 -->
<g id="edge20" class="edge"><title>031&#45;&gt;017</title>
<path fill="none" stroke="#b43f3f" stroke-dasharray="1,5" d="M578.624,-93.6582C563.136,-87.4717 543.928,-78.8951 528,-69 515.15,-61.0173 502.106,-50.4965 491.476,-41.1658"/>
<polygon fill="#b43f3f" stroke="#b43f3f" points="493.639,-38.4041 483.861,-34.3242 488.961,-43.6111 493.639,-38.4041"/>
<text text-anchor="middle" x="550" y="-57.8" font-family="Times,serif" font-size="14.00">1 (94.3)</text>
</g>
<!-- 013 -->
<g id="node24" class="node"><title>013</title>
<ellipse fill="#ff8a8a" stroke="#b43f3f" cx="559" cy="-18" rx="36.2938" ry="18"/>
<text text-anchor="middle" x="559" y="-14.3" font-family="Times,serif" font-size="14.00">013 (a)</text>
</g>
<!-- 031&#45;&gt;013 -->
<g id="edge21" class="edge"><title>031&#45;&gt;013</title>
<path fill="none" stroke="#b43f3f" stroke-dasharray="1,5" d="M595.829,-87.8686C591.932,-82.0197 587.629,-75.3008 584,-69 579.592,-61.3467 575.159,-52.8166 571.276,-45"/>
<polygon fill="#b43f3f" stroke="#b43f3f" points="574.38,-43.3798 566.85,-35.9262 568.088,-46.4485 574.38,-43.3798"/>
<text text-anchor="middle" x="606" y="-57.8" font-family="Times,serif" font-size="14.00">1 (97.1)</text>
</g>
<!-- 030 -->
<g id="node25" class="node"><title>030</title>
<ellipse fill="#ff8a8a" stroke="#b43f3f" cx="650" cy="-18" rx="36.2938" ry="18"/>
<text text-anchor="middle" x="650" y="-14.3" font-family="Times,serif" font-size="14.00">030 (a)</text>
</g>
<!-- 07&#45;&gt;030 -->
<g id="edge22" class="edge"><title>07&#45;&gt;030</title>
<path fill="none" stroke="#b43f3f" stroke-dasharray="1,5" d="M720.581,-90.6717C711.737,-84.5121 701.489,-76.8337 693,-69 684.456,-61.1154 675.924,-51.6186 668.74,-43.0293"/>
<polygon fill="#b43f3f" stroke="#b43f3f" points="671.344,-40.6853 662.308,-35.1545 665.923,-45.1135 671.344,-40.6853"/>
<text text-anchor="middle" x="715" y="-57.8" font-family="Times,serif" font-size="14.00">1 (95.1)</text>
</g>
<!-- 037 -->
<g id="node26" class="node"><title>037</title>
<ellipse fill="#ff8a8a" stroke="#b43f3f" cx="741" cy="-18" rx="36.2938" ry="18"/>
<text text-anchor="middle" x="741" y="-14.3" font-family="Times,serif" font-size="14.00">037 (a)</text>
</g>
<!-- 07&#45;&gt;037 -->
<g id="edge23" class="edge"><title>07&#45;&gt;037</title>
<path fill="none" stroke="#b43f3f" stroke-dasharray="1,5" d="M741,-86.799C741,-75.1626 741,-59.5479 741,-46.2368"/>
<polygon fill="#b43f3f" stroke="#b43f3f" points="744.5,-46.1754 741,-36.1754 737.5,-46.1755 744.5,-46.1754"/>
<text text-anchor="middle" x="763" y="-57.8" font-family="Times,serif" font-size="14.00">1 (97.5)</text>
</g>
<!-- 034 -->
<g id="node27" class="node"><title>034</title>
<ellipse fill="#ff8a8a" stroke="#b43f3f" cx="832" cy="-18" rx="36.2938" ry="18"/>
<text text-anchor="middle" x="832" y="-14.3" font-family="Times,serif" font-size="14.00">034 (a)</text>
</g>
<!-- 07&#45;&gt;034 -->
<g id="edge24" class="edge"><title>07&#45;&gt;034</title>
<path fill="none" stroke="#b43f3f" stroke-dasharray="1,5" d="M761.419,-90.6717C770.263,-84.5121 780.511,-76.8337 789,-69 797.544,-61.1154 806.076,-51.6186 813.26,-43.0293"/>
<polygon fill="#b43f3f" stroke="#b43f3f" points="816.077,-45.1135 819.692,-35.1545 810.656,-40.6853 816.077,-45.1135"/>
<text text-anchor="middle" x="825" y="-57.8" font-family="Times,serif" font-size="14.00">1 (95.1)</text>
</g>
<!-- 036 -->
<g id="node28" class="node"><title>036</title>
<ellipse fill="#ff8a8a" stroke="#b43f3f" cx="923" cy="-18" rx="36.2938" ry="18"/>
<text text-anchor="middle" x="923" y="-14.3" font-family="Times,serif" font-size="14.00">036 (a)</text>
</g>
<!-- 021&#45;&gt;036 -->
<g id="edge25" class="edge"><title>021&#45;&gt;036</title>
<path fill="none" stroke="#b43f3f" stroke-dasharray="1,5" d="M844.163,-88.8037C859.179,-75.5078 881.179,-56.0291 898.125,-41.0245"/>
<polygon fill="#b43f3f" stroke="#b43f3f" points="900.819,-43.3143 905.986,-34.0647 896.179,-38.0734 900.819,-43.3143"/>
<text text-anchor="middle" x="903" y="-57.8" font-family="Times,serif" font-size="14.00">1 (97.6)</text>
</g>
<!-- 038 -->
<g id="node29" class="node"><title>038</title>
<ellipse fill="#ff8a8a" stroke="#b43f3f" cx="1014" cy="-18" rx="36.2938" ry="18"/>
<text text-anchor="middle" x="1014" y="-14.3" font-family="Times,serif" font-size="14.00">038 (a)</text>
</g>
<!-- 045&#45;&gt;038 -->
<g id="edge27" class="edge"><title>045&#45;&gt;038</title>
<path fill="none" stroke="#b43f3f" stroke-dasharray="1,5" d="M935.163,-88.8037C950.179,-75.5078 972.179,-56.0291 989.125,-41.0245"/>
<polygon fill="#b43f3f" stroke="#b43f3f" points="991.819,-43.3143 996.986,-34.0647 987.179,-38.0734 991.819,-43.3143"/>
<text text-anchor="middle" x="994" y="-57.8" font-family="Times,serif" font-size="14.00">1 (92.7)</text>
</g>
</g>
</svg>
