<?xml version="1.0" encoding="UTF-8" standalone="no"?>
<!DOCTYPE svg PUBLIC "-//W3C//DTD SVG 1.1//EN"
 "http://www.w3.org/Graphics/SVG/1.1/DTD/svg11.dtd">
<!-- Generated by graphviz version 2.38.0 (20140413.2041)
 -->
<!-- Title: %3 Pages: 1 -->
<svg width="1349pt" height="321pt"
 viewBox="0.00 0.00 1348.79 321.00" xmlns="http://www.w3.org/2000/svg" xmlns:xlink="http://www.w3.org/1999/xlink">
<g id="graph0" class="graph" transform="scale(1 1) rotate(0) translate(4 317)">
<title>%3</title>
<polygon fill="white" stroke="none" points="-4,4 -4,-317 1344.79,-317 1344.79,4 -4,4"/>
<g id="clust1" class="cluster"><title>cluster_legend</title>
<path fill="none" stroke="black" d="M431.397,-177C431.397,-177 621.397,-177 621.397,-177 627.397,-177 633.397,-183 633.397,-189 633.397,-189 633.397,-293 633.397,-293 633.397,-299 627.397,-305 621.397,-305 621.397,-305 431.397,-305 431.397,-305 425.397,-305 419.397,-299 419.397,-293 419.397,-293 419.397,-189 419.397,-189 419.397,-183 425.397,-177 431.397,-177"/>
</g>
<!-- leg_s -->
<g id="node1" class="node"><title>leg_s</title>
<text text-anchor="middle" x="526.397" y="-275.3" font-family="Times,serif" font-size="14.00">Textual flow strength</text>
</g>
<!-- leg_e1 -->
<!-- leg_s&#45;&gt;leg_e1 -->
<g id="edge1" class="edge"><title>leg_s&#45;&gt;leg_e1</title>
<path fill="none" stroke="black" stroke-dasharray="1,5" d="M508.062,-260.686C502.529,-255.194 496.557,-248.989 491.397,-243 481.568,-231.593 471.469,-217.779 464.31,-207.563"/>
<polygon fill="black" stroke="black" points="467.011,-205.314 458.453,-199.068 461.248,-209.288 467.011,-205.314"/>
<text text-anchor="middle" x="506.897" y="-231.8" font-family="Times,serif" font-size="14.00">&lt;=5 &#160;</text>
</g>
<!-- leg_e2 -->
<!-- leg_s&#45;&gt;leg_e2 -->
<g id="edge2" class="edge"><title>leg_s&#45;&gt;leg_e2</title>
<path fill="none" stroke="black" stroke-dasharray="5,2" d="M526.397,-260.799C526.397,-245.794 526.397,-224.174 526.397,-209.409"/>
<polygon fill="black" stroke="black" points="529.897,-209.293 526.397,-199.293 522.897,-209.293 529.897,-209.293"/>
<text text-anchor="middle" x="545.397" y="-231.8" font-family="Times,serif" font-size="14.00"> &#160;&lt;=25</text>
</g>
<!-- leg_e3 -->
<!-- leg_s&#45;&gt;leg_e3 -->
<g id="edge3" class="edge"><title>leg_s&#45;&gt;leg_e3</title>
<path fill="none" stroke="black" d="M549.9,-260.76C556.303,-255.462 562.963,-249.344 568.397,-243 577.484,-232.39 585.492,-218.689 590.943,-208.313"/>
<polygon fill="black" stroke="black" points="594.119,-209.789 595.488,-199.283 587.866,-206.642 594.119,-209.789"/>
<text text-anchor="middle" x="590.397" y="-231.8" font-family="Times,serif" font-size="14.00">&gt;25</text>
</g>
<!-- 021 -->
<g id="node5" class="node"><title>021</title>
<ellipse fill="#ff8a8a" stroke="#b43f3f" cx="127.397" cy="-105" rx="36.2938" ry="18"/>
<text text-anchor="middle" x="127.397" y="-101.3" font-family="Times,serif" font-size="14.00">021 (a)</text>
</g>
<!-- 036 -->
<g id="node6" class="node"><title>036</title>
<ellipse fill="#ff8a8a" stroke="#b43f3f" cx="36.3968" cy="-18" rx="36.2938" ry="18"/>
<text text-anchor="middle" x="36.3968" y="-14.3" font-family="Times,serif" font-size="14.00">036 (a)</text>
</g>
<!-- 021&#45;&gt;036 -->
<g id="edge4" class="edge"><title>021&#45;&gt;036</title>
<path fill="none" stroke="#b43f3f" stroke-dasharray="1,5" d="M106.025,-90.006C97.4044,-83.9634 87.5824,-76.5539 79.3968,-69 70.8527,-61.1154 62.3211,-51.6186 55.1364,-43.0293"/>
<polygon fill="#b43f3f" stroke="#b43f3f" points="57.741,-40.6853 48.7043,-35.1545 52.3196,-45.1135 57.741,-40.6853"/>
<text text-anchor="middle" x="101.397" y="-57.8" font-family="Times,serif" font-size="14.00">1 (97.6)</text>
</g>
<!-- 047 -->
<g id="node7" class="node"><title>047</title>
<ellipse fill="#ff8a8a" stroke="#b43f3f" cx="127.397" cy="-18" rx="36.2938" ry="18"/>
<text text-anchor="middle" x="127.397" y="-14.3" font-family="Times,serif" font-size="14.00">047 (a)</text>
</g>
<!-- 021&#45;&gt;047 -->
<g id="edge5" class="edge"><title>021&#45;&gt;047</title>
<path fill="none" stroke="#b43f3f" stroke-dasharray="1,5" d="M127.397,-86.799C127.397,-75.1626 127.397,-59.5479 127.397,-46.2368"/>
<polygon fill="#b43f3f" stroke="#b43f3f" points="130.897,-46.1754 127.397,-36.1754 123.897,-46.1755 130.897,-46.1754"/>
<text text-anchor="middle" x="149.397" y="-57.8" font-family="Times,serif" font-size="14.00">1 (95.1)</text>
</g>
<!-- 03 -->
<g id="node8" class="node"><title>03</title>
<ellipse fill="#ff8a8a" stroke="#b43f3f" cx="1044.4" cy="-279" rx="31.6951" ry="18"/>
<text text-anchor="middle" x="1044.4" y="-275.3" font-family="Times,serif" font-size="14.00">03 (a)</text>
</g>
<!-- 032 -->
<g id="node9" class="node"><title>032</title>
<ellipse fill="#ff8a8a" stroke="#b43f3f" cx="953.397" cy="-192" rx="36.2938" ry="18"/>
<text text-anchor="middle" x="953.397" y="-188.3" font-family="Times,serif" font-size="14.00">032 (a)</text>
</g>
<!-- 03&#45;&gt;032 -->
<g id="edge6" class="edge"><title>03&#45;&gt;032</title>
<path fill="none" stroke="#b43f3f" stroke-dasharray="1,5" d="M1023.98,-264.672C1015.13,-258.512 1004.89,-250.834 996.397,-243 987.853,-235.115 979.321,-225.619 972.136,-217.029"/>
<polygon fill="#b43f3f" stroke="#b43f3f" points="974.741,-214.685 965.704,-209.155 969.32,-219.113 974.741,-214.685"/>
<text text-anchor="middle" x="1018.4" y="-231.8" font-family="Times,serif" font-size="14.00">1 (91.7)</text>
</g>
<!-- 044 -->
<g id="node10" class="node"><title>044</title>
<ellipse fill="#ff8a8a" stroke="#b43f3f" cx="1044.4" cy="-192" rx="36.2938" ry="18"/>
<text text-anchor="middle" x="1044.4" y="-188.3" font-family="Times,serif" font-size="14.00">044 (a)</text>
</g>
<!-- 03&#45;&gt;044 -->
<g id="edge7" class="edge"><title>03&#45;&gt;044</title>
<path fill="none" stroke="#b43f3f" stroke-dasharray="1,5" d="M1044.4,-260.799C1044.4,-249.163 1044.4,-233.548 1044.4,-220.237"/>
<polygon fill="#b43f3f" stroke="#b43f3f" points="1047.9,-220.175 1044.4,-210.175 1040.9,-220.175 1047.9,-220.175"/>
<text text-anchor="middle" x="1066.4" y="-231.8" font-family="Times,serif" font-size="14.00">1 (89.2)</text>
</g>
<!-- 02 -->
<g id="node11" class="node"><title>02</title>
<ellipse fill="#cea8f4" stroke="#835da9" cx="1131.4" cy="-192" rx="32.4942" ry="18"/>
<text text-anchor="middle" x="1131.4" y="-188.3" font-family="Times,serif" font-size="14.00">02 (b)</text>
</g>
<!-- 03&#45;&gt;02 -->
<g id="edge8" class="edge"><title>03&#45;&gt;02</title>
<path fill="none" stroke="#835da9" stroke-dasharray="1,5" d="M1065,-264.862C1073.87,-258.738 1084.1,-251.034 1092.4,-243 1100.35,-235.304 1108.06,-225.945 1114.51,-217.414"/>
<polygon fill="#835da9" stroke="#835da9" points="1117.4,-219.388 1120.49,-209.252 1111.75,-215.25 1117.4,-219.388"/>
<text text-anchor="middle" x="1127.4" y="-231.8" font-family="Times,serif" font-size="14.00">1 (86.5)</text>
</g>
<!-- 022 -->
<g id="node26" class="node"><title>022</title>
<ellipse fill="#ff8a8a" stroke="#b43f3f" cx="997.397" cy="-105" rx="36.2938" ry="18"/>
<text text-anchor="middle" x="997.397" y="-101.3" font-family="Times,serif" font-size="14.00">022 (a)</text>
</g>
<!-- 044&#45;&gt;022 -->
<g id="edge23" class="edge"><title>044&#45;&gt;022</title>
<path fill="none" stroke="#b43f3f" stroke-dasharray="1,5" d="M1035.11,-174.207C1028.37,-162.021 1019.14,-145.318 1011.49,-131.491"/>
<polygon fill="#b43f3f" stroke="#b43f3f" points="1014.41,-129.527 1006.5,-122.469 1008.28,-132.914 1014.41,-129.527"/>
<text text-anchor="middle" x="1046.4" y="-144.8" font-family="Times,serif" font-size="14.00">1 (91.7)</text>
</g>
<!-- 0141 -->
<g id="node27" class="node"><title>0141</title>
<ellipse fill="#ff8a8a" stroke="#b43f3f" cx="1092.4" cy="-105" rx="40.0939" ry="18"/>
<text text-anchor="middle" x="1092.4" y="-101.3" font-family="Times,serif" font-size="14.00">0141 (a)</text>
</g>
<!-- 044&#45;&gt;0141 -->
<g id="edge24" class="edge"><title>044&#45;&gt;0141</title>
<path fill="none" stroke="#b43f3f" stroke-dasharray="1,5" d="M1057.36,-175.139C1061.79,-169.316 1066.59,-162.544 1070.4,-156 1074.69,-148.622 1078.68,-140.251 1082.05,-132.498"/>
<polygon fill="#b43f3f" stroke="#b43f3f" points="1085.34,-133.706 1085.97,-123.13 1078.89,-131.004 1085.34,-133.706"/>
<text text-anchor="middle" x="1100.4" y="-144.8" font-family="Times,serif" font-size="14.00">1 (89.2)</text>
</g>
<!-- 07 -->
<g id="node12" class="node"><title>07</title>
<ellipse fill="#ff8a8a" stroke="#b43f3f" cx="404.397" cy="-105" rx="31.6951" ry="18"/>
<text text-anchor="middle" x="404.397" y="-101.3" font-family="Times,serif" font-size="14.00">07 (a)</text>
</g>
<!-- 034 -->
<g id="node13" class="node"><title>034</title>
<ellipse fill="#ff8a8a" stroke="#b43f3f" cx="218.397" cy="-18" rx="36.2938" ry="18"/>
<text text-anchor="middle" x="218.397" y="-14.3" font-family="Times,serif" font-size="14.00">034 (a)</text>
</g>
<!-- 07&#45;&gt;034 -->
<g id="edge9" class="edge"><title>07&#45;&gt;034</title>
<path fill="none" stroke="#b43f3f" stroke-dasharray="1,5" d="M375.263,-97.2264C352.365,-91.3366 320.003,-81.7448 293.397,-69 276.45,-60.882 258.9,-49.3789 245.041,-39.4524"/>
<polygon fill="#b43f3f" stroke="#b43f3f" points="247.066,-36.597 236.928,-33.5199 242.934,-42.2476 247.066,-36.597"/>
<text text-anchor="middle" x="315.397" y="-57.8" font-family="Times,serif" font-size="14.00">1 (95.1)</text>
</g>
<!-- 037 -->
<g id="node14" class="node"><title>037</title>
<ellipse fill="#ff8a8a" stroke="#b43f3f" cx="309.397" cy="-18" rx="36.2938" ry="18"/>
<text text-anchor="middle" x="309.397" y="-14.3" font-family="Times,serif" font-size="14.00">037 (a)</text>
</g>
<!-- 07&#45;&gt;037 -->
<g id="edge10" class="edge"><title>07&#45;&gt;037</title>
<path fill="none" stroke="#b43f3f" stroke-dasharray="1,5" d="M384.611,-90.8221C375.694,-84.5722 365.211,-76.7806 356.397,-69 347.233,-60.9115 337.866,-51.2757 329.93,-42.6319"/>
<polygon fill="#b43f3f" stroke="#b43f3f" points="332.386,-40.1295 323.091,-35.0454 327.187,-44.8165 332.386,-40.1295"/>
<text text-anchor="middle" x="378.397" y="-57.8" font-family="Times,serif" font-size="14.00">1 (97.5)</text>
</g>
<!-- 0211 -->
<g id="node15" class="node"><title>0211</title>
<ellipse fill="#ff8a8a" stroke="#b43f3f" cx="404.397" cy="-18" rx="40.0939" ry="18"/>
<text text-anchor="middle" x="404.397" y="-14.3" font-family="Times,serif" font-size="14.00">0211 (a)</text>
</g>
<!-- 07&#45;&gt;0211 -->
<g id="edge11" class="edge"><title>07&#45;&gt;0211</title>
<path fill="none" stroke="#b43f3f" stroke-dasharray="1,5" d="M404.397,-86.799C404.397,-75.1626 404.397,-59.5479 404.397,-46.2368"/>
<polygon fill="#b43f3f" stroke="#b43f3f" points="407.897,-46.1754 404.397,-36.1754 400.897,-46.1755 407.897,-46.1754"/>
<text text-anchor="middle" x="426.397" y="-57.8" font-family="Times,serif" font-size="14.00">2 (82.9)</text>
</g>
<!-- 030 -->
<g id="node16" class="node"><title>030</title>
<ellipse fill="#ff8a8a" stroke="#b43f3f" cx="499.397" cy="-18" rx="36.2938" ry="18"/>
<text text-anchor="middle" x="499.397" y="-14.3" font-family="Times,serif" font-size="14.00">030 (a)</text>
</g>
<!-- 07&#45;&gt;030 -->
<g id="edge12" class="edge"><title>07&#45;&gt;030</title>
<path fill="none" stroke="#b43f3f" stroke-dasharray="1,5" d="M424.182,-90.8221C433.1,-84.5722 443.582,-76.7806 452.397,-69 461.56,-60.9115 470.927,-51.2757 478.863,-42.6319"/>
<polygon fill="#b43f3f" stroke="#b43f3f" points="481.606,-44.8165 485.702,-35.0454 476.407,-40.1295 481.606,-44.8165"/>
<text text-anchor="middle" x="490.397" y="-57.8" font-family="Times,serif" font-size="14.00">1 (95.1)</text>
</g>
<!-- 031 -->
<g id="node17" class="node"><title>031</title>
<ellipse fill="#ff8a8a" stroke="#b43f3f" cx="633.397" cy="-105" rx="36.2938" ry="18"/>
<text text-anchor="middle" x="633.397" y="-101.3" font-family="Times,serif" font-size="14.00">031 (a)</text>
</g>
<!-- 013 -->
<g id="node18" class="node"><title>013</title>
<ellipse fill="#ff8a8a" stroke="#b43f3f" cx="590.397" cy="-18" rx="36.2938" ry="18"/>
<text text-anchor="middle" x="590.397" y="-14.3" font-family="Times,serif" font-size="14.00">013 (a)</text>
</g>
<!-- 031&#45;&gt;013 -->
<g id="edge13" class="edge"><title>031&#45;&gt;013</title>
<path fill="none" stroke="#b43f3f" stroke-dasharray="1,5" d="M621.695,-87.6794C617.836,-81.9269 613.693,-75.3172 610.397,-69 606.504,-61.5402 602.877,-53.1458 599.809,-45.3959"/>
<polygon fill="#b43f3f" stroke="#b43f3f" points="603.076,-44.141 596.245,-36.0429 596.535,-46.6337 603.076,-44.141"/>
<text text-anchor="middle" x="632.397" y="-57.8" font-family="Times,serif" font-size="14.00">1 (97.1)</text>
</g>
<!-- 01 -->
<g id="node19" class="node"><title>01</title>
<ellipse fill="#ff8a8a" stroke="#b43f3f" cx="676.397" cy="-18" rx="31.6951" ry="18"/>
<text text-anchor="middle" x="676.397" y="-14.3" font-family="Times,serif" font-size="14.00">01 (a)</text>
</g>
<!-- 031&#45;&gt;01 -->
<g id="edge14" class="edge"><title>031&#45;&gt;01</title>
<path fill="none" stroke="#b43f3f" stroke-dasharray="1,5" d="M643.874,-87.5087C647.38,-81.7425 651.206,-75.1679 654.397,-69 658.319,-61.4192 662.203,-52.9889 665.59,-45.2433"/>
<polygon fill="#b43f3f" stroke="#b43f3f" points="668.866,-46.4846 669.58,-35.9139 662.43,-43.7315 668.866,-46.4846"/>
<text text-anchor="middle" x="684.397" y="-57.8" font-family="Times,serif" font-size="14.00">2 (48.5)</text>
</g>
<!-- 017 -->
<g id="node20" class="node"><title>017</title>
<ellipse fill="#ff8a8a" stroke="#b43f3f" cx="762.397" cy="-18" rx="36.2938" ry="18"/>
<text text-anchor="middle" x="762.397" y="-14.3" font-family="Times,serif" font-size="14.00">017 (a)</text>
</g>
<!-- 031&#45;&gt;017 -->
<g id="edge15" class="edge"><title>031&#45;&gt;017</title>
<path fill="none" stroke="#b43f3f" stroke-dasharray="1,5" d="M662.05,-93.6873C677.092,-87.6177 695.451,-79.1418 710.397,-69 721.57,-61.4182 732.555,-51.3544 741.528,-42.2438"/>
<polygon fill="#b43f3f" stroke="#b43f3f" points="744.176,-44.539 748.553,-34.8906 739.114,-39.7036 744.176,-44.539"/>
<text text-anchor="middle" x="751.397" y="-57.8" font-family="Times,serif" font-size="14.00">1 (94.3)</text>
</g>
<!-- 063 -->
<g id="node21" class="node"><title>063</title>
<ellipse fill="#ff8a8a" stroke="#b43f3f" cx="679.397" cy="-192" rx="36.2938" ry="18"/>
<text text-anchor="middle" x="679.397" y="-188.3" font-family="Times,serif" font-size="14.00">063 (a)</text>
</g>
<!-- 063&#45;&gt;021 -->
<g id="edge16" class="edge"><title>063&#45;&gt;021</title>
<path fill="none" stroke="#b43f3f" stroke-dasharray="1,5" d="M653.544,-179.296C648.285,-177.269 642.729,-175.375 637.397,-174 572.807,-157.341 554.547,-164.576 488.397,-156 374.253,-141.202 240.045,-122.188 171.923,-112.421"/>
<polygon fill="#b43f3f" stroke="#b43f3f" points="172.362,-108.948 161.966,-110.992 171.368,-115.877 172.362,-108.948"/>
<text text-anchor="middle" x="510.397" y="-144.8" font-family="Times,serif" font-size="14.00">1 (93.1)</text>
</g>
<!-- 063&#45;&gt;07 -->
<g id="edge17" class="edge"><title>063&#45;&gt;07</title>
<path fill="none" stroke="#b43f3f" stroke-dasharray="1,5" d="M652.437,-179.622C647.468,-177.658 642.301,-175.703 637.397,-174 569.858,-150.543 489.497,-128.309 442.977,-115.981"/>
<polygon fill="#b43f3f" stroke="#b43f3f" points="443.584,-112.522 433.023,-113.358 441.8,-119.291 443.584,-112.522"/>
<text text-anchor="middle" x="603.397" y="-144.8" font-family="Times,serif" font-size="14.00">1 (96.6)</text>
</g>
<!-- 063&#45;&gt;031 -->
<g id="edge18" class="edge"><title>063&#45;&gt;031</title>
<path fill="none" stroke="#b43f3f" stroke-dasharray="1,5" d="M665.109,-175.414C660.3,-169.617 655.197,-162.791 651.397,-156 647.387,-148.834 643.99,-140.608 641.264,-132.924"/>
<polygon fill="#b43f3f" stroke="#b43f3f" points="644.535,-131.666 638.072,-123.271 637.888,-133.864 644.535,-131.666"/>
<text text-anchor="middle" x="673.397" y="-144.8" font-family="Times,serif" font-size="14.00">1 (95.8)</text>
</g>
<!-- 045 -->
<g id="node22" class="node"><title>045</title>
<ellipse fill="#ff8a8a" stroke="#b43f3f" cx="724.397" cy="-105" rx="36.2938" ry="18"/>
<text text-anchor="middle" x="724.397" y="-101.3" font-family="Times,serif" font-size="14.00">045 (a)</text>
</g>
<!-- 063&#45;&gt;045 -->
<g id="edge19" class="edge"><title>063&#45;&gt;045</title>
<path fill="none" stroke="#b43f3f" stroke-dasharray="1,5" d="M688.287,-174.207C694.697,-162.099 703.468,-145.533 710.76,-131.759"/>
<polygon fill="#b43f3f" stroke="#b43f3f" points="713.939,-133.234 715.525,-122.758 707.752,-129.959 713.939,-133.234"/>
<text text-anchor="middle" x="727.397" y="-144.8" font-family="Times,serif" font-size="14.00">1 (93.1)</text>
</g>
<!-- 011 -->
<g id="node23" class="node"><title>011</title>
<ellipse fill="#ff8a8a" stroke="#b43f3f" cx="815.397" cy="-105" rx="36.2938" ry="18"/>
<text text-anchor="middle" x="815.397" y="-101.3" font-family="Times,serif" font-size="14.00">011 (a)</text>
</g>
<!-- 063&#45;&gt;011 -->
<g id="edge20" class="edge"><title>063&#45;&gt;011</title>
<path fill="none" stroke="#b43f3f" stroke-dasharray="1,5" d="M706.573,-179.997C720.927,-173.731 738.588,-165.289 753.397,-156 766.594,-147.722 780.182,-137.047 791.262,-127.688"/>
<polygon fill="#b43f3f" stroke="#b43f3f" points="793.551,-130.335 798.845,-121.158 788.983,-125.031 793.551,-130.335"/>
<text text-anchor="middle" x="795.397" y="-144.8" font-family="Times,serif" font-size="14.00">1 (93.1)</text>
</g>
<!-- 028 -->
<g id="node24" class="node"><title>028</title>
<ellipse fill="#ff8a8a" stroke="#b43f3f" cx="906.397" cy="-105" rx="36.2938" ry="18"/>
<text text-anchor="middle" x="906.397" y="-101.3" font-family="Times,serif" font-size="14.00">028 (a)</text>
</g>
<!-- 063&#45;&gt;028 -->
<g id="edge21" class="edge"><title>063&#45;&gt;028</title>
<path fill="none" stroke="#b43f3f" stroke-dasharray="1,5" d="M713.545,-185.463C742.864,-180.038 785.888,-170.459 821.397,-156 841.198,-147.937 861.906,-135.843 877.925,-125.569"/>
<polygon fill="#b43f3f" stroke="#b43f3f" points="879.855,-128.49 886.307,-120.086 876.022,-122.632 879.855,-128.49"/>
<text text-anchor="middle" x="873.397" y="-144.8" font-family="Times,serif" font-size="14.00">1 (96.6)</text>
</g>
<!-- 038 -->
<g id="node25" class="node"><title>038</title>
<ellipse fill="#ff8a8a" stroke="#b43f3f" cx="853.397" cy="-18" rx="36.2938" ry="18"/>
<text text-anchor="middle" x="853.397" y="-14.3" font-family="Times,serif" font-size="14.00">038 (a)</text>
</g>
<!-- 045&#45;&gt;038 -->
<g id="edge22" class="edge"><title>045&#45;&gt;038</title>
<path fill="none" stroke="#b43f3f" stroke-dasharray="1,5" d="M745.41,-90.1541C766.775,-76.0766 800.054,-54.1481 824.023,-38.355"/>
<polygon fill="#b43f3f" stroke="#b43f3f" points="825.968,-41.2647 832.393,-32.84 822.117,-35.4195 825.968,-41.2647"/>
<text text-anchor="middle" x="819.397" y="-57.8" font-family="Times,serif" font-size="14.00">1 (92.7)</text>
</g>
<!-- 019 -->
<g id="node28" class="node"><title>019</title>
<ellipse fill="#ff8a8a" stroke="#b43f3f" cx="679.397" cy="-279" rx="36.2938" ry="18"/>
<text text-anchor="middle" x="679.397" y="-275.3" font-family="Times,serif" font-size="14.00">019 (a)</text>
</g>
<!-- 019&#45;&gt;063 -->
<g id="edge25" class="edge"><title>019&#45;&gt;063</title>
<path fill="none" stroke="#b43f3f" stroke-dasharray="1,5" d="M679.397,-260.799C679.397,-249.163 679.397,-233.548 679.397,-220.237"/>
<polygon fill="#b43f3f" stroke="#b43f3f" points="682.897,-220.175 679.397,-210.175 675.897,-220.175 682.897,-220.175"/>
<text text-anchor="middle" x="701.397" y="-231.8" font-family="Times,serif" font-size="14.00">1 (85.7)</text>
</g>
<!-- 091 -->
<g id="node29" class="node"><title>091</title>
<ellipse fill="#72fe95" stroke="#27b34a" cx="1213.4" cy="-279" rx="36.2938" ry="18"/>
<text text-anchor="middle" x="1213.4" y="-275.3" font-family="Times,serif" font-size="14.00">091 (c)</text>
</g>
<!-- 05 -->
<g id="node30" class="node"><title>05</title>
<ellipse fill="#72fe95" stroke="#27b34a" cx="1213.4" cy="-192" rx="31.6951" ry="18"/>
<text text-anchor="middle" x="1213.4" y="-188.3" font-family="Times,serif" font-size="14.00">05 (c)</text>
</g>
<!-- 091&#45;&gt;05 -->
<g id="edge26" class="edge"><title>091&#45;&gt;05</title>
<path fill="none" stroke="#27b34a" stroke-dasharray="1,5" d="M1213.4,-260.799C1213.4,-249.163 1213.4,-233.548 1213.4,-220.237"/>
<polygon fill="#27b34a" stroke="#27b34a" points="1216.9,-220.175 1213.4,-210.175 1209.9,-220.175 1216.9,-220.175"/>
<text text-anchor="middle" x="1235.4" y="-231.8" font-family="Times,serif" font-size="14.00">1 (87.5)</text>
</g>
<!-- P75 -->
<g id="node31" class="node"><title>P75</title>
<ellipse fill="#ff8a8a" stroke="#b43f3f" cx="1304.4" cy="-279" rx="36.2938" ry="18"/>
<text text-anchor="middle" x="1304.4" y="-275.3" font-family="Times,serif" font-size="14.00">P75 (a)</text>
</g>
</g>
</svg>
