<?xml version="1.0" encoding="UTF-8" standalone="no"?>
<!DOCTYPE svg PUBLIC "-//W3C//DTD SVG 1.1//EN"
 "http://www.w3.org/Graphics/SVG/1.1/DTD/svg11.dtd">
<!-- Generated by graphviz version 2.38.0 (20140413.2041)
 -->
<!-- Title: %3 Pages: 1 -->
<svg width="1000pt" height="408pt"
 viewBox="0.00 0.00 1000.40 408.00" xmlns="http://www.w3.org/2000/svg" xmlns:xlink="http://www.w3.org/1999/xlink">
<g id="graph0" class="graph" transform="scale(1 1) rotate(0) translate(4 404)">
<title>%3</title>
<polygon fill="white" stroke="none" points="-4,4 -4,-404 996.397,-404 996.397,4 -4,4"/>
<g id="clust1" class="cluster"><title>cluster_legend</title>
<path fill="none" stroke="black" d="M20,-264C20,-264 210,-264 210,-264 216,-264 222,-270 222,-276 222,-276 222,-380 222,-380 222,-386 216,-392 210,-392 210,-392 20,-392 20,-392 14,-392 8,-386 8,-380 8,-380 8,-276 8,-276 8,-270 14,-264 20,-264"/>
</g>
<!-- leg_s -->
<g id="node1" class="node"><title>leg_s</title>
<text text-anchor="middle" x="115" y="-362.3" font-family="Times,serif" font-size="14.00">Textual flow strength</text>
</g>
<!-- leg_e1 -->
<!-- leg_s&#45;&gt;leg_e1 -->
<g id="edge1" class="edge"><title>leg_s&#45;&gt;leg_e1</title>
<path fill="none" stroke="black" stroke-dasharray="1,5" d="M96.6657,-347.686C91.1324,-342.194 85.1607,-335.989 80,-330 70.1708,-318.593 60.0722,-304.779 52.9137,-294.563"/>
<polygon fill="black" stroke="black" points="55.6142,-292.314 47.056,-286.068 49.8514,-296.288 55.6142,-292.314"/>
<text text-anchor="middle" x="95.5" y="-318.8" font-family="Times,serif" font-size="14.00">&lt;=5 &#160;</text>
</g>
<!-- leg_e2 -->
<!-- leg_s&#45;&gt;leg_e2 -->
<g id="edge2" class="edge"><title>leg_s&#45;&gt;leg_e2</title>
<path fill="none" stroke="black" stroke-dasharray="5,2" d="M115,-347.799C115,-332.794 115,-311.174 115,-296.409"/>
<polygon fill="black" stroke="black" points="118.5,-296.293 115,-286.293 111.5,-296.293 118.5,-296.293"/>
<text text-anchor="middle" x="134" y="-318.8" font-family="Times,serif" font-size="14.00"> &#160;&lt;=25</text>
</g>
<!-- leg_e3 -->
<!-- leg_s&#45;&gt;leg_e3 -->
<g id="edge3" class="edge"><title>leg_s&#45;&gt;leg_e3</title>
<path fill="none" stroke="black" d="M138.503,-347.76C144.906,-342.462 151.567,-336.344 157,-330 166.087,-319.39 174.095,-305.689 179.546,-295.313"/>
<polygon fill="black" stroke="black" points="182.722,-296.789 184.091,-286.283 176.469,-293.642 182.722,-296.789"/>
<text text-anchor="middle" x="179" y="-318.8" font-family="Times,serif" font-size="14.00">&gt;25</text>
</g>
<!-- 03 -->
<g id="node5" class="node"><title>03</title>
<ellipse fill="#ff8a8a" stroke="#b43f3f" cx="264" cy="-279" rx="31.6951" ry="18"/>
<text text-anchor="middle" x="264" y="-275.3" font-family="Times,serif" font-size="14.00">03 (a)</text>
</g>
<!-- 02 -->
<g id="node6" class="node"><title>02</title>
<ellipse fill="#ff8a8a" stroke="#b43f3f" cx="166" cy="-192" rx="31.6951" ry="18"/>
<text text-anchor="middle" x="166" y="-188.3" font-family="Times,serif" font-size="14.00">02 (a)</text>
</g>
<!-- 03&#45;&gt;02 -->
<g id="edge4" class="edge"><title>03&#45;&gt;02</title>
<path fill="none" stroke="#b43f3f" stroke-dasharray="1,5" d="M242.279,-265.804C232.024,-259.586 219.895,-251.541 210,-243 200.886,-235.133 191.907,-225.393 184.46,-216.607"/>
<polygon fill="#b43f3f" stroke="#b43f3f" points="187.156,-214.374 178.093,-208.886 181.755,-218.828 187.156,-214.374"/>
<text text-anchor="middle" x="232" y="-231.8" font-family="Times,serif" font-size="14.00">1 (86.5)</text>
</g>
<!-- 032 -->
<g id="node7" class="node"><title>032</title>
<ellipse fill="#ff8a8a" stroke="#b43f3f" cx="252" cy="-192" rx="36.2938" ry="18"/>
<text text-anchor="middle" x="252" y="-188.3" font-family="Times,serif" font-size="14.00">032 (a)</text>
</g>
<!-- 03&#45;&gt;032 -->
<g id="edge5" class="edge"><title>03&#45;&gt;032</title>
<path fill="none" stroke="#b43f3f" stroke-dasharray="1,5" d="M261.572,-260.799C259.929,-249.163 257.724,-233.548 255.845,-220.237"/>
<polygon fill="#b43f3f" stroke="#b43f3f" points="259.288,-219.588 254.425,-210.175 252.357,-220.567 259.288,-219.588"/>
<text text-anchor="middle" x="281" y="-231.8" font-family="Times,serif" font-size="14.00">1 (91.7)</text>
</g>
<!-- 044 -->
<g id="node8" class="node"><title>044</title>
<ellipse fill="#ff8a8a" stroke="#b43f3f" cx="343" cy="-192" rx="36.2938" ry="18"/>
<text text-anchor="middle" x="343" y="-188.3" font-family="Times,serif" font-size="14.00">044 (a)</text>
</g>
<!-- 03&#45;&gt;044 -->
<g id="edge6" class="edge"><title>03&#45;&gt;044</title>
<path fill="none" stroke="#b43f3f" stroke-dasharray="1,5" d="M282.919,-264.351C290.777,-258.251 299.738,-250.705 307,-243 314.187,-235.374 321.146,-226.262 326.998,-217.919"/>
<polygon fill="#b43f3f" stroke="#b43f3f" points="329.929,-219.833 332.66,-209.596 324.141,-215.896 329.929,-219.833"/>
<text text-anchor="middle" x="342" y="-231.8" font-family="Times,serif" font-size="14.00">1 (89.2)</text>
</g>
<!-- 0141 -->
<g id="node30" class="node"><title>0141</title>
<ellipse fill="#ff8a8a" stroke="#b43f3f" cx="248" cy="-105" rx="40.0939" ry="18"/>
<text text-anchor="middle" x="248" y="-101.3" font-family="Times,serif" font-size="14.00">0141 (a)</text>
</g>
<!-- 044&#45;&gt;0141 -->
<g id="edge28" class="edge"><title>044&#45;&gt;0141</title>
<path fill="none" stroke="#b43f3f" stroke-dasharray="1,5" d="M322.27,-177.159C313.564,-171.025 303.505,-163.508 295,-156 285.837,-147.911 276.469,-138.276 268.533,-129.632"/>
<polygon fill="#b43f3f" stroke="#b43f3f" points="270.99,-127.129 261.694,-122.045 265.79,-131.816 270.99,-127.129"/>
<text text-anchor="middle" x="317" y="-144.8" font-family="Times,serif" font-size="14.00">1 (89.2)</text>
</g>
<!-- 022 -->
<g id="node31" class="node"><title>022</title>
<ellipse fill="#cea8f4" stroke="#835da9" cx="343" cy="-105" rx="36.2938" ry="18"/>
<text text-anchor="middle" x="343" y="-101.3" font-family="Times,serif" font-size="14.00">022 (b)</text>
</g>
<!-- 044&#45;&gt;022 -->
<g id="edge29" class="edge"><title>044&#45;&gt;022</title>
<path fill="none" stroke="#835da9" stroke-dasharray="1,5" d="M343,-173.799C343,-162.163 343,-146.548 343,-133.237"/>
<polygon fill="#835da9" stroke="#835da9" points="346.5,-133.175 343,-123.175 339.5,-133.175 346.5,-133.175"/>
<text text-anchor="middle" x="365" y="-144.8" font-family="Times,serif" font-size="14.00">1 (91.7)</text>
</g>
<!-- A -->
<g id="node9" class="node"><title>A</title>
<ellipse fill="#ff8a8a" stroke="#b43f3f" cx="479" cy="-366" rx="29.4969" ry="18"/>
<text text-anchor="middle" x="479" y="-362.3" font-family="Times,serif" font-size="14.00">A (a)</text>
</g>
<!-- A&#45;&gt;03 -->
<g id="edge7" class="edge"><title>A&#45;&gt;03</title>
<path fill="none" stroke="#b43f3f" stroke-dasharray="1,5" d="M452.933,-357.541C430.859,-350.99 398.508,-340.836 371,-330 345.357,-319.898 317.144,-306.62 296.129,-296.286"/>
<polygon fill="#b43f3f" stroke="#b43f3f" points="297.529,-293.074 287.015,-291.768 294.419,-299.346 297.529,-293.074"/>
<text text-anchor="middle" x="393" y="-318.8" font-family="Times,serif" font-size="14.00">1 (93.3)</text>
</g>
<!-- P75 -->
<g id="node10" class="node"><title>P75</title>
<ellipse fill="#ff8a8a" stroke="#b43f3f" cx="393" cy="-279" rx="36.2938" ry="18"/>
<text text-anchor="middle" x="393" y="-275.3" font-family="Times,serif" font-size="14.00">P75 (a)</text>
</g>
<!-- A&#45;&gt;P75 -->
<g id="edge8" class="edge"><title>A&#45;&gt;P75</title>
<path fill="none" stroke="#b43f3f" stroke-dasharray="1,5" d="M459.3,-352.561C450.199,-346.347 439.543,-338.375 431,-330 423.175,-322.329 415.638,-312.975 409.368,-304.442"/>
<polygon fill="#b43f3f" stroke="#b43f3f" points="412.206,-302.394 403.557,-296.275 406.503,-306.452 412.206,-302.394"/>
<text text-anchor="middle" x="453" y="-318.8" font-family="Times,serif" font-size="14.00">1 (93.3)</text>
</g>
<!-- 01 -->
<g id="node11" class="node"><title>01</title>
<ellipse fill="#ff8a8a" stroke="#b43f3f" cx="479" cy="-279" rx="31.6951" ry="18"/>
<text text-anchor="middle" x="479" y="-275.3" font-family="Times,serif" font-size="14.00">01 (a)</text>
</g>
<!-- A&#45;&gt;01 -->
<g id="edge9" class="edge"><title>A&#45;&gt;01</title>
<path fill="none" stroke="#b43f3f" stroke-dasharray="5,2" d="M479,-347.799C479,-336.163 479,-320.548 479,-307.237"/>
<polygon fill="#b43f3f" stroke="#b43f3f" points="482.5,-307.175 479,-297.175 475.5,-307.175 482.5,-307.175"/>
<text text-anchor="middle" x="501" y="-318.8" font-family="Times,serif" font-size="14.00">1 (57.1)</text>
</g>
<!-- 091 -->
<g id="node12" class="node"><title>091</title>
<ellipse fill="#ff8a8a" stroke="#b43f3f" cx="565" cy="-279" rx="36.2938" ry="18"/>
<text text-anchor="middle" x="565" y="-275.3" font-family="Times,serif" font-size="14.00">091 (a)</text>
</g>
<!-- A&#45;&gt;091 -->
<g id="edge10" class="edge"><title>A&#45;&gt;091</title>
<path fill="none" stroke="#b43f3f" stroke-dasharray="1,5" d="M498.7,-352.561C507.801,-346.347 518.457,-338.375 527,-330 534.825,-322.329 542.362,-312.975 548.632,-304.442"/>
<polygon fill="#b43f3f" stroke="#b43f3f" points="551.497,-306.452 554.443,-296.275 545.794,-302.394 551.497,-306.452"/>
<text text-anchor="middle" x="562" y="-318.8" font-family="Times,serif" font-size="14.00">1 (87.5)</text>
</g>
<!-- 019 -->
<g id="node13" class="node"><title>019</title>
<ellipse fill="#ff8a8a" stroke="#b43f3f" cx="681" cy="-279" rx="36.2938" ry="18"/>
<text text-anchor="middle" x="681" y="-275.3" font-family="Times,serif" font-size="14.00">019 (a)</text>
</g>
<!-- A&#45;&gt;019 -->
<g id="edge11" class="edge"><title>A&#45;&gt;019</title>
<path fill="none" stroke="#b43f3f" stroke-dasharray="1,5" d="M505.476,-357.967C527.857,-351.676 560.564,-341.665 588,-330 609.261,-320.961 632.129,-308.703 649.868,-298.587"/>
<polygon fill="#b43f3f" stroke="#b43f3f" points="651.731,-301.552 658.641,-293.521 648.231,-295.491 651.731,-301.552"/>
<text text-anchor="middle" x="642" y="-318.8" font-family="Times,serif" font-size="14.00">1 (93.3)</text>
</g>
<!-- 0211 -->
<g id="node17" class="node"><title>0211</title>
<ellipse fill="#ff8a8a" stroke="#b43f3f" cx="532" cy="-192" rx="40.0939" ry="18"/>
<text text-anchor="middle" x="532" y="-188.3" font-family="Times,serif" font-size="14.00">0211 (a)</text>
</g>
<!-- 091&#45;&gt;0211 -->
<g id="edge14" class="edge"><title>091&#45;&gt;0211</title>
<path fill="none" stroke="#b43f3f" stroke-dasharray="1,5" d="M558.48,-261.207C553.855,-249.293 547.554,-233.063 542.259,-219.424"/>
<polygon fill="#b43f3f" stroke="#b43f3f" points="545.501,-218.105 538.619,-210.049 538.976,-220.638 545.501,-218.105"/>
<text text-anchor="middle" x="573" y="-231.8" font-family="Times,serif" font-size="14.00">1 (83.3)</text>
</g>
<!-- 05 -->
<g id="node18" class="node"><title>05</title>
<ellipse fill="#ff8a8a" stroke="#b43f3f" cx="622" cy="-192" rx="31.6951" ry="18"/>
<text text-anchor="middle" x="622" y="-188.3" font-family="Times,serif" font-size="14.00">05 (a)</text>
</g>
<!-- 091&#45;&gt;05 -->
<g id="edge15" class="edge"><title>091&#45;&gt;05</title>
<path fill="none" stroke="#b43f3f" stroke-dasharray="1,5" d="M581.804,-262.978C587.724,-257.131 594.114,-250.127 599,-243 603.994,-235.717 608.38,-227.175 611.945,-219.234"/>
<polygon fill="#b43f3f" stroke="#b43f3f" points="615.192,-220.542 615.874,-209.969 608.748,-217.809 615.192,-220.542"/>
<text text-anchor="middle" x="630" y="-231.8" font-family="Times,serif" font-size="14.00">1 (87.5)</text>
</g>
<!-- 063 -->
<g id="node19" class="node"><title>063</title>
<ellipse fill="#ff8a8a" stroke="#b43f3f" cx="717" cy="-192" rx="36.2938" ry="18"/>
<text text-anchor="middle" x="717" y="-188.3" font-family="Times,serif" font-size="14.00">063 (a)</text>
</g>
<!-- 019&#45;&gt;063 -->
<g id="edge26" class="edge"><title>019&#45;&gt;063</title>
<path fill="none" stroke="#b43f3f" stroke-dasharray="1,5" d="M688.112,-261.207C693.191,-249.216 700.122,-232.851 705.922,-219.157"/>
<polygon fill="#b43f3f" stroke="#b43f3f" points="709.225,-220.332 709.902,-209.758 702.779,-217.602 709.225,-220.332"/>
<text text-anchor="middle" x="724" y="-231.8" font-family="Times,serif" font-size="14.00">1 (85.7)</text>
</g>
<!-- 021 -->
<g id="node14" class="node"><title>021</title>
<ellipse fill="#ff8a8a" stroke="#b43f3f" cx="434" cy="-105" rx="36.2938" ry="18"/>
<text text-anchor="middle" x="434" y="-101.3" font-family="Times,serif" font-size="14.00">021 (a)</text>
</g>
<!-- 047 -->
<g id="node15" class="node"><title>047</title>
<ellipse fill="#ff8a8a" stroke="#b43f3f" cx="319" cy="-18" rx="36.2938" ry="18"/>
<text text-anchor="middle" x="319" y="-14.3" font-family="Times,serif" font-size="14.00">047 (a)</text>
</g>
<!-- 021&#45;&gt;047 -->
<g id="edge12" class="edge"><title>021&#45;&gt;047</title>
<path fill="none" stroke="#b43f3f" stroke-dasharray="1,5" d="M409.462,-91.5731C398.006,-85.3619 384.411,-77.3891 373,-69 362.062,-60.9592 350.902,-50.98 341.588,-42.0565"/>
<polygon fill="#b43f3f" stroke="#b43f3f" points="343.84,-39.3639 334.243,-34.8749 338.946,-44.3688 343.84,-39.3639"/>
<text text-anchor="middle" x="395" y="-57.8" font-family="Times,serif" font-size="14.00">1 (95.1)</text>
</g>
<!-- 036 -->
<g id="node16" class="node"><title>036</title>
<ellipse fill="#ff8a8a" stroke="#b43f3f" cx="410" cy="-18" rx="36.2938" ry="18"/>
<text text-anchor="middle" x="410" y="-14.3" font-family="Times,serif" font-size="14.00">036 (a)</text>
</g>
<!-- 021&#45;&gt;036 -->
<g id="edge13" class="edge"><title>021&#45;&gt;036</title>
<path fill="none" stroke="#b43f3f" stroke-dasharray="1,5" d="M429.143,-86.799C425.803,-74.9701 421.303,-59.0301 417.504,-45.578"/>
<polygon fill="#b43f3f" stroke="#b43f3f" points="420.853,-44.558 414.768,-35.8854 414.117,-46.4602 420.853,-44.558"/>
<text text-anchor="middle" x="446" y="-57.8" font-family="Times,serif" font-size="14.00">1 (97.6)</text>
</g>
<!-- 063&#45;&gt;021 -->
<g id="edge16" class="edge"><title>063&#45;&gt;021</title>
<path fill="none" stroke="#b43f3f" stroke-dasharray="1,5" d="M687.318,-181.56C679.423,-179.075 670.895,-176.415 663,-174 597.186,-153.87 520.469,-131.264 474.641,-117.85"/>
<polygon fill="#b43f3f" stroke="#b43f3f" points="475.372,-114.417 464.791,-114.97 473.407,-121.136 475.372,-114.417"/>
<text text-anchor="middle" x="623" y="-144.8" font-family="Times,serif" font-size="14.00">1 (93.1)</text>
</g>
<!-- 07 -->
<g id="node20" class="node"><title>07</title>
<ellipse fill="#ff8a8a" stroke="#b43f3f" cx="637" cy="-105" rx="31.6951" ry="18"/>
<text text-anchor="middle" x="637" y="-101.3" font-family="Times,serif" font-size="14.00">07 (a)</text>
</g>
<!-- 063&#45;&gt;07 -->
<g id="edge17" class="edge"><title>063&#45;&gt;07</title>
<path fill="none" stroke="#b43f3f" stroke-dasharray="1,5" d="M696.202,-176.863C688.187,-170.91 679.229,-163.603 672,-156 664.738,-148.363 657.836,-139.114 652.111,-130.658"/>
<polygon fill="#b43f3f" stroke="#b43f3f" points="655.005,-128.689 646.604,-122.233 649.146,-132.518 655.005,-128.689"/>
<text text-anchor="middle" x="694" y="-144.8" font-family="Times,serif" font-size="14.00">1 (96.6)</text>
</g>
<!-- 045 -->
<g id="node21" class="node"><title>045</title>
<ellipse fill="#ff8a8a" stroke="#b43f3f" cx="723" cy="-105" rx="36.2938" ry="18"/>
<text text-anchor="middle" x="723" y="-101.3" font-family="Times,serif" font-size="14.00">045 (a)</text>
</g>
<!-- 063&#45;&gt;045 -->
<g id="edge18" class="edge"><title>063&#45;&gt;045</title>
<path fill="none" stroke="#b43f3f" stroke-dasharray="1,5" d="M718.214,-173.799C719.036,-162.163 720.138,-146.548 721.077,-133.237"/>
<polygon fill="#b43f3f" stroke="#b43f3f" points="724.575,-133.397 721.788,-123.175 717.592,-132.904 724.575,-133.397"/>
<text text-anchor="middle" x="743" y="-144.8" font-family="Times,serif" font-size="14.00">1 (93.1)</text>
</g>
<!-- 028 -->
<g id="node22" class="node"><title>028</title>
<ellipse fill="#ff8a8a" stroke="#b43f3f" cx="814" cy="-105" rx="36.2938" ry="18"/>
<text text-anchor="middle" x="814" y="-101.3" font-family="Times,serif" font-size="14.00">028 (a)</text>
</g>
<!-- 063&#45;&gt;028 -->
<g id="edge19" class="edge"><title>063&#45;&gt;028</title>
<path fill="none" stroke="#b43f3f" stroke-dasharray="1,5" d="M739.372,-177.658C748.893,-171.553 759.881,-163.921 769,-156 778.045,-148.143 787.068,-138.553 794.634,-129.881"/>
<polygon fill="#b43f3f" stroke="#b43f3f" points="797.312,-132.134 801.131,-122.251 791.982,-127.596 797.312,-132.134"/>
<text text-anchor="middle" x="806" y="-144.8" font-family="Times,serif" font-size="14.00">1 (96.6)</text>
</g>
<!-- 011 -->
<g id="node23" class="node"><title>011</title>
<ellipse fill="#ff8a8a" stroke="#b43f3f" cx="905" cy="-105" rx="36.2938" ry="18"/>
<text text-anchor="middle" x="905" y="-101.3" font-family="Times,serif" font-size="14.00">011 (a)</text>
</g>
<!-- 063&#45;&gt;011 -->
<g id="edge20" class="edge"><title>063&#45;&gt;011</title>
<path fill="none" stroke="#b43f3f" stroke-dasharray="1,5" d="M749.714,-183.873C773.285,-178.069 805.478,-168.746 832,-156 848.355,-148.14 865.159,-136.888 878.516,-127.048"/>
<polygon fill="#b43f3f" stroke="#b43f3f" points="880.879,-129.65 886.757,-120.835 876.665,-124.061 880.879,-129.65"/>
<text text-anchor="middle" x="880" y="-144.8" font-family="Times,serif" font-size="14.00">1 (93.1)</text>
</g>
<!-- 017 -->
<g id="node24" class="node"><title>017</title>
<ellipse fill="#ff8a8a" stroke="#b43f3f" cx="501" cy="-18" rx="36.2938" ry="18"/>
<text text-anchor="middle" x="501" y="-14.3" font-family="Times,serif" font-size="14.00">017 (a)</text>
</g>
<!-- 07&#45;&gt;017 -->
<g id="edge21" class="edge"><title>07&#45;&gt;017</title>
<path fill="none" stroke="#b43f3f" stroke-dasharray="1,5" d="M611.523,-93.9935C596.61,-87.6816 577.689,-78.8715 562,-69 549.07,-60.8643 535.825,-50.3238 524.995,-41.0196"/>
<polygon fill="#b43f3f" stroke="#b43f3f" points="527.054,-38.1703 517.229,-34.2059 522.437,-43.4321 527.054,-38.1703"/>
<text text-anchor="middle" x="584" y="-57.8" font-family="Times,serif" font-size="14.00">2 (92.7)</text>
</g>
<!-- 030 -->
<g id="node25" class="node"><title>030</title>
<ellipse fill="#ff8a8a" stroke="#b43f3f" cx="592" cy="-18" rx="36.2938" ry="18"/>
<text text-anchor="middle" x="592" y="-14.3" font-family="Times,serif" font-size="14.00">030 (a)</text>
</g>
<!-- 07&#45;&gt;030 -->
<g id="edge22" class="edge"><title>07&#45;&gt;030</title>
<path fill="none" stroke="#b43f3f" stroke-dasharray="1,5" d="M627.45,-87.7233C624.076,-81.8607 620.302,-75.1704 617,-69 612.833,-61.2133 608.469,-52.6446 604.575,-44.8337"/>
<polygon fill="#b43f3f" stroke="#b43f3f" points="607.672,-43.1997 600.104,-35.7855 601.397,-46.3011 607.672,-43.1997"/>
<text text-anchor="middle" x="639" y="-57.8" font-family="Times,serif" font-size="14.00">1 (95.1)</text>
</g>
<!-- 037 -->
<g id="node26" class="node"><title>037</title>
<ellipse fill="#ff8a8a" stroke="#b43f3f" cx="683" cy="-18" rx="36.2938" ry="18"/>
<text text-anchor="middle" x="683" y="-14.3" font-family="Times,serif" font-size="14.00">037 (a)</text>
</g>
<!-- 07&#45;&gt;037 -->
<g id="edge23" class="edge"><title>07&#45;&gt;037</title>
<path fill="none" stroke="#b43f3f" stroke-dasharray="1,5" d="M648.884,-88.0215C652.972,-82.187 657.417,-75.4381 661,-69 665.15,-61.5417 669.102,-53.1477 672.481,-45.3977"/>
<polygon fill="#b43f3f" stroke="#b43f3f" points="675.764,-46.6185 676.427,-36.0444 669.315,-43.8974 675.764,-46.6185"/>
<text text-anchor="middle" x="691" y="-57.8" font-family="Times,serif" font-size="14.00">1 (97.5)</text>
</g>
<!-- 013 -->
<g id="node27" class="node"><title>013</title>
<ellipse fill="#ff8a8a" stroke="#b43f3f" cx="774" cy="-18" rx="36.2938" ry="18"/>
<text text-anchor="middle" x="774" y="-14.3" font-family="Times,serif" font-size="14.00">013 (a)</text>
</g>
<!-- 07&#45;&gt;013 -->
<g id="edge24" class="edge"><title>07&#45;&gt;013</title>
<path fill="none" stroke="#b43f3f" stroke-dasharray="1,5" d="M661.8,-93.6025C683.395,-84.4748 712.01,-72.1718 717,-69 729.097,-61.3104 741.215,-51.1161 751.149,-41.9391"/>
<polygon fill="#b43f3f" stroke="#b43f3f" points="753.759,-44.2869 758.605,-34.8648 748.941,-39.2089 753.759,-44.2869"/>
<text text-anchor="middle" x="760" y="-57.8" font-family="Times,serif" font-size="14.00">2 (95.1)</text>
</g>
<!-- 034 -->
<g id="node28" class="node"><title>034</title>
<ellipse fill="#ff8a8a" stroke="#b43f3f" cx="865" cy="-18" rx="36.2938" ry="18"/>
<text text-anchor="middle" x="865" y="-14.3" font-family="Times,serif" font-size="14.00">034 (a)</text>
</g>
<!-- 07&#45;&gt;034 -->
<g id="edge25" class="edge"><title>07&#45;&gt;034</title>
<path fill="none" stroke="#b43f3f" stroke-dasharray="1,5" d="M660.955,-92.9982C666.47,-90.7671 672.37,-88.6134 678,-87 724.779,-73.5939 740.539,-86.3566 786,-69 804.761,-61.8374 823.839,-49.9201 838.546,-39.5165"/>
<polygon fill="#b43f3f" stroke="#b43f3f" points="840.635,-42.325 846.665,-33.6134 836.519,-36.6633 840.635,-42.325"/>
<text text-anchor="middle" x="838" y="-57.8" font-family="Times,serif" font-size="14.00">1 (95.1)</text>
</g>
<!-- 038 -->
<g id="node29" class="node"><title>038</title>
<ellipse fill="#ff8a8a" stroke="#b43f3f" cx="956" cy="-18" rx="36.2938" ry="18"/>
<text text-anchor="middle" x="956" y="-14.3" font-family="Times,serif" font-size="14.00">038 (a)</text>
</g>
<!-- 045&#45;&gt;038 -->
<g id="edge27" class="edge"><title>045&#45;&gt;038</title>
<path fill="none" stroke="#b43f3f" stroke-dasharray="1,5" d="M750.486,-92.9941C756.524,-90.8153 762.929,-88.6843 769,-87 810.409,-75.5117 823.523,-83.4339 864,-69 885.871,-61.2008 908.821,-48.7364 926.329,-38.2041"/>
<polygon fill="#b43f3f" stroke="#b43f3f" points="928.263,-41.1233 934.953,-32.9074 924.6,-35.1584 928.263,-41.1233"/>
<text text-anchor="middle" x="918" y="-57.8" font-family="Times,serif" font-size="14.00">1 (92.7)</text>
</g>
</g>
</svg>
