<?xml version="1.0" encoding="UTF-8" standalone="no"?>
<!DOCTYPE svg PUBLIC "-//W3C//DTD SVG 1.1//EN"
 "http://www.w3.org/Graphics/SVG/1.1/DTD/svg11.dtd">
<!-- Generated by graphviz version 2.38.0 (20140413.2041)
 -->
<!-- Title: G Pages: 1 -->
<svg width="979pt" height="116pt"
 viewBox="0.00 0.00 978.79 116.00" xmlns="http://www.w3.org/2000/svg" xmlns:xlink="http://www.w3.org/1999/xlink">
<g id="graph0" class="graph" transform="scale(1 1) rotate(0) translate(4 112)">
<title>G</title>
<polygon fill="white" stroke="none" points="-4,4 -4,-112 974.794,-112 974.794,4 -4,4"/>
<!-- 038 (a) -->
<g id="node1" class="node"><title>038 (a)</title>
<ellipse fill="#ff8a8a" stroke="#b43f3f" cx="36.3968" cy="-18" rx="36.2938" ry="18"/>
<text text-anchor="middle" x="36.3968" y="-14.3" font-family="Times,serif" font-size="14.00">038 (a)</text>
</g>
<!-- 05/9 (a) -->
<g id="node2" class="node"><title>05/9 (a)</title>
<ellipse fill="#ff8a8a" stroke="#b43f3f" cx="131.397" cy="-18" rx="38.1938" ry="18"/>
<text text-anchor="middle" x="131.397" y="-14.3" font-family="Times,serif" font-size="14.00">05/9 (a)</text>
</g>
<!-- 034 (b) -->
<g id="node3" class="node"><title>034 (b)</title>
<ellipse fill="#cea8f4" stroke="#835da9" cx="226.397" cy="-90" rx="36.2938" ry="18"/>
<text text-anchor="middle" x="226.397" y="-86.3" font-family="Times,serif" font-size="14.00">034 (b)</text>
</g>
<!-- 036 (a) -->
<g id="node4" class="node"><title>036 (a)</title>
<ellipse fill="#ff8a8a" stroke="#b43f3f" cx="271.397" cy="-18" rx="36.2938" ry="18"/>
<text text-anchor="middle" x="271.397" y="-14.3" font-family="Times,serif" font-size="14.00">036 (a)</text>
</g>
<!-- 017 (a) -->
<g id="node5" class="node"><title>017 (a)</title>
<ellipse fill="#ff8a8a" stroke="#b43f3f" cx="453.397" cy="-18" rx="36.2938" ry="18"/>
<text text-anchor="middle" x="453.397" y="-14.3" font-family="Times,serif" font-size="14.00">017 (a)</text>
</g>
<!-- 011 (a) -->
<g id="node6" class="node"><title>011 (a)</title>
<ellipse fill="#ff8a8a" stroke="#b43f3f" cx="640.397" cy="-90" rx="36.2938" ry="18"/>
<text text-anchor="middle" x="640.397" y="-86.3" font-family="Times,serif" font-size="14.00">011 (a)</text>
</g>
<!-- 045 (a) -->
<g id="node7" class="node"><title>045 (a)</title>
<ellipse fill="#ff8a8a" stroke="#b43f3f" cx="36.3968" cy="-90" rx="36.2938" ry="18"/>
<text text-anchor="middle" x="36.3968" y="-86.3" font-family="Times,serif" font-size="14.00">045 (a)</text>
</g>
<!-- 045 (a)&#45;&gt;038 (a) -->
<g id="edge1" class="edge"><title>045 (a)&#45;&gt;038 (a)</title>
<path fill="none" stroke="black" d="M36.3968,-71.6966C36.3968,-63.9827 36.3968,-54.7125 36.3968,-46.1124"/>
<polygon fill="black" stroke="black" points="39.8969,-46.1043 36.3968,-36.1043 32.8969,-46.1044 39.8969,-46.1043"/>
</g>
<!-- 028 (a) -->
<g id="node8" class="node"><title>028 (a)</title>
<ellipse fill="#ff8a8a" stroke="#b43f3f" cx="741.397" cy="-90" rx="36.2938" ry="18"/>
<text text-anchor="middle" x="741.397" y="-86.3" font-family="Times,serif" font-size="14.00">028 (a)</text>
</g>
<!-- 047 (a) -->
<g id="node9" class="node"><title>047 (a)</title>
<ellipse fill="#ff8a8a" stroke="#b43f3f" cx="362.397" cy="-18" rx="36.2938" ry="18"/>
<text text-anchor="middle" x="362.397" y="-14.3" font-family="Times,serif" font-size="14.00">047 (a)</text>
</g>
<!-- 037 (a) -->
<g id="node10" class="node"><title>037 (a)</title>
<ellipse fill="#ff8a8a" stroke="#b43f3f" cx="730.397" cy="-18" rx="36.2938" ry="18"/>
<text text-anchor="middle" x="730.397" y="-14.3" font-family="Times,serif" font-size="14.00">037 (a)</text>
</g>
<!-- 013 (a) -->
<g id="node11" class="node"><title>013 (a)</title>
<ellipse fill="#ff8a8a" stroke="#b43f3f" cx="544.397" cy="-18" rx="36.2938" ry="18"/>
<text text-anchor="middle" x="544.397" y="-14.3" font-family="Times,serif" font-size="14.00">013 (a)</text>
</g>
<!-- 07 (a) -->
<g id="node12" class="node"><title>07 (a)</title>
<ellipse fill="#ff8a8a" stroke="#b43f3f" cx="832.397" cy="-90" rx="31.6951" ry="18"/>
<text text-anchor="middle" x="832.397" y="-86.3" font-family="Times,serif" font-size="14.00">07 (a)</text>
</g>
<!-- 07 (a)&#45;&gt;037 (a) -->
<g id="edge3" class="edge"><title>07 (a)&#45;&gt;037 (a)</title>
<path fill="none" stroke="black" d="M812.73,-75.5033C797.645,-65.1508 776.589,-50.7004 759.547,-39.0047"/>
<polygon fill="black" stroke="black" points="761.279,-35.9487 751.053,-33.1761 757.318,-41.7204 761.279,-35.9487"/>
</g>
<!-- 0211/2 (a) -->
<g id="node13" class="node"><title>0211/2 (a)</title>
<ellipse fill="#ff8a8a" stroke="#b43f3f" cx="832.397" cy="-18" rx="47.3916" ry="18"/>
<text text-anchor="middle" x="832.397" y="-14.3" font-family="Times,serif" font-size="14.00">0211/2 (a)</text>
</g>
<!-- 07 (a)&#45;&gt;0211/2 (a) -->
<g id="edge2" class="edge"><title>07 (a)&#45;&gt;0211/2 (a)</title>
<path fill="none" stroke="black" d="M832.397,-71.6966C832.397,-63.9827 832.397,-54.7125 832.397,-46.1124"/>
<polygon fill="black" stroke="black" points="835.897,-46.1043 832.397,-36.1043 828.897,-46.1044 835.897,-46.1043"/>
</g>
<!-- 030 (a) -->
<g id="node17" class="node"><title>030 (a)</title>
<ellipse fill="#ff8a8a" stroke="#b43f3f" cx="934.397" cy="-18" rx="36.2938" ry="18"/>
<text text-anchor="middle" x="934.397" y="-14.3" font-family="Times,serif" font-size="14.00">030 (a)</text>
</g>
<!-- 07 (a)&#45;&gt;030 (a) -->
<g id="edge4" class="edge"><title>07 (a)&#45;&gt;030 (a)</title>
<path fill="none" stroke="black" d="M852.063,-75.5033C867.148,-65.1508 888.205,-50.7004 905.247,-39.0047"/>
<polygon fill="black" stroke="black" points="907.476,-41.7204 913.74,-33.1761 903.515,-35.9487 907.476,-41.7204"/>
</g>
<!-- 0141 (a) -->
<g id="node14" class="node"><title>0141 (a)</title>
<ellipse fill="#ff8a8a" stroke="#b43f3f" cx="131.397" cy="-90" rx="40.0939" ry="18"/>
<text text-anchor="middle" x="131.397" y="-86.3" font-family="Times,serif" font-size="14.00">0141 (a)</text>
</g>
<!-- 0141 (a)&#45;&gt;05/9 (a) -->
<g id="edge5" class="edge"><title>0141 (a)&#45;&gt;05/9 (a)</title>
<path fill="none" stroke="black" d="M131.397,-71.6966C131.397,-63.9827 131.397,-54.7125 131.397,-46.1124"/>
<polygon fill="black" stroke="black" points="134.897,-46.1043 131.397,-36.1043 127.897,-46.1044 134.897,-46.1043"/>
</g>
<!-- 031 (a) -->
<g id="node15" class="node"><title>031 (a)</title>
<ellipse fill="#ff8a8a" stroke="#b43f3f" cx="544.397" cy="-90" rx="36.2938" ry="18"/>
<text text-anchor="middle" x="544.397" y="-86.3" font-family="Times,serif" font-size="14.00">031 (a)</text>
</g>
<!-- 031 (a)&#45;&gt;017 (a) -->
<g id="edge7" class="edge"><title>031 (a)&#45;&gt;017 (a)</title>
<path fill="none" stroke="black" d="M525.542,-74.496C512.486,-64.4532 494.912,-50.9344 480.377,-39.7541"/>
<polygon fill="black" stroke="black" points="482.288,-36.8084 472.228,-33.4855 478.02,-42.3568 482.288,-36.8084"/>
</g>
<!-- 031 (a)&#45;&gt;013 (a) -->
<g id="edge6" class="edge"><title>031 (a)&#45;&gt;013 (a)</title>
<path fill="none" stroke="black" d="M544.397,-71.6966C544.397,-63.9827 544.397,-54.7125 544.397,-46.1124"/>
<polygon fill="black" stroke="black" points="547.897,-46.1043 544.397,-36.1043 540.897,-46.1044 547.897,-46.1043"/>
</g>
<!-- 01/2 (a) -->
<g id="node16" class="node"><title>01/2 (a)</title>
<ellipse fill="#ff8a8a" stroke="#b43f3f" cx="637.397" cy="-18" rx="38.1938" ry="18"/>
<text text-anchor="middle" x="637.397" y="-14.3" font-family="Times,serif" font-size="14.00">01/2 (a)</text>
</g>
<!-- 031 (a)&#45;&gt;01/2 (a) -->
<g id="edge8" class="edge"><title>031 (a)&#45;&gt;01/2 (a)</title>
<path fill="none" stroke="black" d="M563.666,-74.496C576.92,-64.5202 594.73,-51.1145 609.526,-39.978"/>
<polygon fill="black" stroke="black" points="611.947,-42.5365 617.832,-33.7263 607.737,-36.9437 611.947,-42.5365"/>
</g>
<!-- 021 (a) -->
<g id="node18" class="node"><title>021 (a)</title>
<ellipse fill="#ff8a8a" stroke="#b43f3f" cx="317.397" cy="-90" rx="36.2938" ry="18"/>
<text text-anchor="middle" x="317.397" y="-86.3" font-family="Times,serif" font-size="14.00">021 (a)</text>
</g>
<!-- 021 (a)&#45;&gt;036 (a) -->
<g id="edge9" class="edge"><title>021 (a)&#45;&gt;036 (a)</title>
<path fill="none" stroke="black" d="M306.728,-72.7646C301.119,-64.2301 294.122,-53.5822 287.838,-44.0191"/>
<polygon fill="black" stroke="black" points="290.744,-42.0683 282.327,-35.6334 284.894,-45.9126 290.744,-42.0683"/>
</g>
<!-- 021 (a)&#45;&gt;047 (a) -->
<g id="edge10" class="edge"><title>021 (a)&#45;&gt;047 (a)</title>
<path fill="none" stroke="black" d="M328.061,-72.411C333.497,-63.9549 340.222,-53.4944 346.275,-44.0783"/>
<polygon fill="black" stroke="black" points="349.345,-45.7744 351.809,-35.4699 343.457,-41.9891 349.345,-45.7744"/>
</g>
</g>
</svg>
