<?xml version="1.0" encoding="UTF-8" standalone="no"?>
<!DOCTYPE svg PUBLIC "-//W3C//DTD SVG 1.1//EN"
 "http://www.w3.org/Graphics/SVG/1.1/DTD/svg11.dtd">
<!-- Generated by graphviz version 2.38.0 (20140413.2041)
 -->
<!-- Title: %3 Pages: 1 -->
<svg width="817pt" height="408pt"
 viewBox="0.00 0.00 816.69 408.00" xmlns="http://www.w3.org/2000/svg" xmlns:xlink="http://www.w3.org/1999/xlink">
<g id="graph0" class="graph" transform="scale(1 1) rotate(0) translate(4 404)">
<title>%3</title>
<polygon fill="white" stroke="none" points="-4,4 -4,-404 812.693,-404 812.693,4 -4,4"/>
<g id="clust1" class="cluster"><title>cluster_legend</title>
<path fill="none" stroke="black" d="M35.2964,-264C35.2964,-264 225.296,-264 225.296,-264 231.296,-264 237.296,-270 237.296,-276 237.296,-276 237.296,-380 237.296,-380 237.296,-386 231.296,-392 225.296,-392 225.296,-392 35.2964,-392 35.2964,-392 29.2964,-392 23.2964,-386 23.2964,-380 23.2964,-380 23.2964,-276 23.2964,-276 23.2964,-270 29.2964,-264 35.2964,-264"/>
</g>
<!-- leg_s -->
<g id="node1" class="node"><title>leg_s</title>
<text text-anchor="middle" x="130.296" y="-362.3" font-family="Times,serif" font-size="14.00">Textual flow strength</text>
</g>
<!-- leg_e1 -->
<!-- leg_s&#45;&gt;leg_e1 -->
<g id="edge1" class="edge"><title>leg_s&#45;&gt;leg_e1</title>
<path fill="none" stroke="black" stroke-dasharray="1,5" d="M111.962,-347.686C106.429,-342.194 100.457,-335.989 95.2964,-330 85.4673,-318.593 75.3686,-304.779 68.2101,-294.563"/>
<polygon fill="black" stroke="black" points="70.9106,-292.314 62.3525,-286.068 65.1478,-296.288 70.9106,-292.314"/>
<text text-anchor="middle" x="110.796" y="-318.8" font-family="Times,serif" font-size="14.00">&lt;=5 &#160;</text>
</g>
<!-- leg_e2 -->
<!-- leg_s&#45;&gt;leg_e2 -->
<g id="edge2" class="edge"><title>leg_s&#45;&gt;leg_e2</title>
<path fill="none" stroke="black" stroke-dasharray="5,2" d="M130.296,-347.799C130.296,-332.794 130.296,-311.174 130.296,-296.409"/>
<polygon fill="black" stroke="black" points="133.797,-296.293 130.296,-286.293 126.797,-296.293 133.797,-296.293"/>
<text text-anchor="middle" x="149.296" y="-318.8" font-family="Times,serif" font-size="14.00"> &#160;&lt;=25</text>
</g>
<!-- leg_e3 -->
<!-- leg_s&#45;&gt;leg_e3 -->
<g id="edge3" class="edge"><title>leg_s&#45;&gt;leg_e3</title>
<path fill="none" stroke="black" d="M153.8,-347.76C160.202,-342.462 166.863,-336.344 172.296,-330 181.384,-319.39 189.392,-305.689 194.843,-295.313"/>
<polygon fill="black" stroke="black" points="198.018,-296.789 199.387,-286.283 191.766,-293.642 198.018,-296.789"/>
<text text-anchor="middle" x="194.296" y="-318.8" font-family="Times,serif" font-size="14.00">&gt;25</text>
</g>
<!-- A -->
<g id="node5" class="node"><title>A</title>
<ellipse fill="#ff8a8a" stroke="#b43f3f" cx="497.296" cy="-366" rx="29.4969" ry="18"/>
<text text-anchor="middle" x="497.296" y="-362.3" font-family="Times,serif" font-size="14.00">A (a)</text>
</g>
<!-- 03 -->
<g id="node6" class="node"><title>03</title>
<ellipse fill="#ff8a8a" stroke="#b43f3f" cx="279.296" cy="-279" rx="31.6951" ry="18"/>
<text text-anchor="middle" x="279.296" y="-275.3" font-family="Times,serif" font-size="14.00">03 (a)</text>
</g>
<!-- A&#45;&gt;03 -->
<g id="edge4" class="edge"><title>A&#45;&gt;03</title>
<path fill="none" stroke="#b43f3f" stroke-dasharray="1,5" d="M471.003,-357.518C448.733,-350.953 416.088,-340.792 388.296,-330 361.923,-319.759 332.836,-306.302 311.347,-295.928"/>
<polygon fill="#b43f3f" stroke="#b43f3f" points="312.863,-292.774 302.34,-291.546 309.801,-299.068 312.863,-292.774"/>
<text text-anchor="middle" x="410.296" y="-318.8" font-family="Times,serif" font-size="14.00">1 (93.3)</text>
</g>
<!-- 019 -->
<g id="node7" class="node"><title>019</title>
<ellipse fill="#ff8a8a" stroke="#b43f3f" cx="406.296" cy="-279" rx="36.2938" ry="18"/>
<text text-anchor="middle" x="406.296" y="-275.3" font-family="Times,serif" font-size="14.00">019 (a)</text>
</g>
<!-- A&#45;&gt;019 -->
<g id="edge5" class="edge"><title>A&#45;&gt;019</title>
<path fill="none" stroke="#b43f3f" stroke-dasharray="1,5" d="M477.82,-352.326C468.768,-346.06 458.088,-338.113 449.296,-330 440.752,-322.115 432.221,-312.619 425.036,-304.029"/>
<polygon fill="#b43f3f" stroke="#b43f3f" points="427.641,-301.685 418.604,-296.155 422.219,-306.113 427.641,-301.685"/>
<text text-anchor="middle" x="471.296" y="-318.8" font-family="Times,serif" font-size="14.00">1 (93.3)</text>
</g>
<!-- 091 -->
<g id="node8" class="node"><title>091</title>
<ellipse fill="#ff8a8a" stroke="#b43f3f" cx="497.296" cy="-279" rx="36.2938" ry="18"/>
<text text-anchor="middle" x="497.296" y="-275.3" font-family="Times,serif" font-size="14.00">091 (a)</text>
</g>
<!-- A&#45;&gt;091 -->
<g id="edge6" class="edge"><title>A&#45;&gt;091</title>
<path fill="none" stroke="#b43f3f" stroke-dasharray="1,5" d="M497.296,-347.799C497.296,-336.163 497.296,-320.548 497.296,-307.237"/>
<polygon fill="#b43f3f" stroke="#b43f3f" points="500.797,-307.175 497.296,-297.175 493.797,-307.175 500.797,-307.175"/>
<text text-anchor="middle" x="519.296" y="-318.8" font-family="Times,serif" font-size="14.00">1 (87.5)</text>
</g>
<!-- P75 -->
<g id="node9" class="node"><title>P75</title>
<ellipse fill="#ff8a8a" stroke="#b43f3f" cx="588.296" cy="-279" rx="36.2938" ry="18"/>
<text text-anchor="middle" x="588.296" y="-275.3" font-family="Times,serif" font-size="14.00">P75 (a)</text>
</g>
<!-- A&#45;&gt;P75 -->
<g id="edge7" class="edge"><title>A&#45;&gt;P75</title>
<path fill="none" stroke="#b43f3f" stroke-dasharray="1,5" d="M516.773,-352.326C525.825,-346.06 536.504,-338.113 545.296,-330 553.841,-322.115 562.372,-312.619 569.557,-304.029"/>
<polygon fill="#b43f3f" stroke="#b43f3f" points="572.374,-306.113 575.989,-296.155 566.952,-301.685 572.374,-306.113"/>
<text text-anchor="middle" x="581.296" y="-318.8" font-family="Times,serif" font-size="14.00">1 (93.3)</text>
</g>
<!-- 01 -->
<g id="node10" class="node"><title>01</title>
<ellipse fill="#ff8a8a" stroke="#b43f3f" cx="674.296" cy="-279" rx="31.6951" ry="18"/>
<text text-anchor="middle" x="674.296" y="-275.3" font-family="Times,serif" font-size="14.00">01 (a)</text>
</g>
<!-- A&#45;&gt;01 -->
<g id="edge8" class="edge"><title>A&#45;&gt;01</title>
<path fill="none" stroke="#b43f3f" stroke-dasharray="5,2" d="M524.503,-359.033C547.388,-353.392 580.558,-343.737 607.296,-330 622.506,-322.186 637.906,-310.975 650.101,-301.148"/>
<polygon fill="#b43f3f" stroke="#b43f3f" points="652.513,-303.695 657.989,-294.625 648.052,-298.3 652.513,-303.695"/>
<text text-anchor="middle" x="653.296" y="-318.8" font-family="Times,serif" font-size="14.00">1 (57.1)</text>
</g>
<!-- 044 -->
<g id="node11" class="node"><title>044</title>
<ellipse fill="#ff8a8a" stroke="#b43f3f" cx="135.296" cy="-192" rx="36.2938" ry="18"/>
<text text-anchor="middle" x="135.296" y="-188.3" font-family="Times,serif" font-size="14.00">044 (a)</text>
</g>
<!-- 03&#45;&gt;044 -->
<g id="edge9" class="edge"><title>03&#45;&gt;044</title>
<path fill="none" stroke="#b43f3f" stroke-dasharray="1,5" d="M255.271,-266.982C250.655,-264.942 245.842,-262.867 241.296,-261 220.221,-252.344 212.895,-254.618 193.296,-243 180.538,-235.437 167.885,-224.97 157.668,-215.566"/>
<polygon fill="#b43f3f" stroke="#b43f3f" points="160.034,-212.987 150.368,-208.648 155.219,-218.068 160.034,-212.987"/>
<text text-anchor="middle" x="215.296" y="-231.8" font-family="Times,serif" font-size="14.00">1 (89.2)</text>
</g>
<!-- 032 -->
<g id="node12" class="node"><title>032</title>
<ellipse fill="#ff8a8a" stroke="#b43f3f" cx="230.296" cy="-192" rx="36.2938" ry="18"/>
<text text-anchor="middle" x="230.296" y="-188.3" font-family="Times,serif" font-size="14.00">032 (a)</text>
</g>
<!-- 03&#45;&gt;032 -->
<g id="edge10" class="edge"><title>03&#45;&gt;032</title>
<path fill="none" stroke="#b43f3f" stroke-dasharray="1,5" d="M263.723,-262.973C258.298,-257.125 252.519,-250.122 248.296,-243 243.995,-235.746 240.471,-227.298 237.717,-219.433"/>
<polygon fill="#b43f3f" stroke="#b43f3f" points="241.047,-218.355 234.64,-209.917 234.386,-220.508 241.047,-218.355"/>
<text text-anchor="middle" x="270.296" y="-231.8" font-family="Times,serif" font-size="14.00">1 (91.7)</text>
</g>
<!-- 02 -->
<g id="node13" class="node"><title>02</title>
<ellipse fill="#cea8f4" stroke="#835da9" cx="317.296" cy="-192" rx="32.4942" ry="18"/>
<text text-anchor="middle" x="317.296" y="-188.3" font-family="Times,serif" font-size="14.00">02 (b)</text>
</g>
<!-- 03&#45;&gt;02 -->
<g id="edge11" class="edge"><title>03&#45;&gt;02</title>
<path fill="none" stroke="#835da9" stroke-dasharray="1,5" d="M286.804,-261.207C292.165,-249.216 299.481,-232.851 305.603,-219.157"/>
<polygon fill="#835da9" stroke="#835da9" points="308.918,-220.316 309.804,-209.758 302.528,-217.459 308.918,-220.316"/>
<text text-anchor="middle" x="323.296" y="-231.8" font-family="Times,serif" font-size="14.00">1 (86.5)</text>
</g>
<!-- 063 -->
<g id="node16" class="node"><title>063</title>
<ellipse fill="#ff8a8a" stroke="#b43f3f" cx="408.296" cy="-192" rx="36.2938" ry="18"/>
<text text-anchor="middle" x="408.296" y="-188.3" font-family="Times,serif" font-size="14.00">063 (a)</text>
</g>
<!-- 019&#45;&gt;063 -->
<g id="edge28" class="edge"><title>019&#45;&gt;063</title>
<path fill="none" stroke="#b43f3f" stroke-dasharray="1,5" d="M406.701,-260.799C406.975,-249.163 407.342,-233.548 407.656,-220.237"/>
<polygon fill="#b43f3f" stroke="#b43f3f" points="411.156,-220.255 407.892,-210.175 404.158,-220.09 411.156,-220.255"/>
<text text-anchor="middle" x="430.296" y="-231.8" font-family="Times,serif" font-size="14.00">1 (85.7)</text>
</g>
<!-- 05 -->
<g id="node31" class="node"><title>05</title>
<ellipse fill="#ff8a8a" stroke="#b43f3f" cx="495.296" cy="-192" rx="31.6951" ry="18"/>
<text text-anchor="middle" x="495.296" y="-188.3" font-family="Times,serif" font-size="14.00">05 (a)</text>
</g>
<!-- 091&#45;&gt;05 -->
<g id="edge29" class="edge"><title>091&#45;&gt;05</title>
<path fill="none" stroke="#b43f3f" stroke-dasharray="1,5" d="M496.892,-260.799C496.618,-249.163 496.25,-233.548 495.937,-220.237"/>
<polygon fill="#b43f3f" stroke="#b43f3f" points="499.435,-220.09 495.701,-210.175 492.437,-220.255 499.435,-220.09"/>
<text text-anchor="middle" x="519.296" y="-231.8" font-family="Times,serif" font-size="14.00">1 (87.5)</text>
</g>
<!-- 0211 -->
<g id="node32" class="node"><title>0211</title>
<ellipse fill="#ff8a8a" stroke="#b43f3f" cx="585.296" cy="-192" rx="40.0939" ry="18"/>
<text text-anchor="middle" x="585.296" y="-188.3" font-family="Times,serif" font-size="14.00">0211 (a)</text>
</g>
<!-- 091&#45;&gt;0211 -->
<g id="edge30" class="edge"><title>091&#45;&gt;0211</title>
<path fill="none" stroke="#b43f3f" stroke-dasharray="1,5" d="M518.804,-264.151C527.445,-258.13 537.246,-250.698 545.296,-243 553.25,-235.394 561.035,-226.193 567.591,-217.768"/>
<polygon fill="#b43f3f" stroke="#b43f3f" points="570.459,-219.778 573.698,-209.69 564.875,-215.556 570.459,-219.778"/>
<text text-anchor="middle" x="581.296" y="-231.8" font-family="Times,serif" font-size="14.00">1 (83.3)</text>
</g>
<!-- 0141 -->
<g id="node14" class="node"><title>0141</title>
<ellipse fill="#ff8a8a" stroke="#b43f3f" cx="40.2964" cy="-105" rx="40.0939" ry="18"/>
<text text-anchor="middle" x="40.2964" y="-101.3" font-family="Times,serif" font-size="14.00">0141 (a)</text>
</g>
<!-- 044&#45;&gt;0141 -->
<g id="edge12" class="edge"><title>044&#45;&gt;0141</title>
<path fill="none" stroke="#b43f3f" stroke-dasharray="1,5" d="M114.566,-177.159C105.86,-171.025 95.8017,-163.508 87.2964,-156 78.1331,-147.911 68.7658,-138.276 60.8297,-129.632"/>
<polygon fill="#b43f3f" stroke="#b43f3f" points="63.2861,-127.129 53.9907,-122.045 58.0868,-131.816 63.2861,-127.129"/>
<text text-anchor="middle" x="109.296" y="-144.8" font-family="Times,serif" font-size="14.00">1 (89.2)</text>
</g>
<!-- 022 -->
<g id="node15" class="node"><title>022</title>
<ellipse fill="#ff8a8a" stroke="#b43f3f" cx="135.296" cy="-105" rx="36.2938" ry="18"/>
<text text-anchor="middle" x="135.296" y="-101.3" font-family="Times,serif" font-size="14.00">022 (a)</text>
</g>
<!-- 044&#45;&gt;022 -->
<g id="edge13" class="edge"><title>044&#45;&gt;022</title>
<path fill="none" stroke="#b43f3f" stroke-dasharray="1,5" d="M135.296,-173.799C135.296,-162.163 135.296,-146.548 135.296,-133.237"/>
<polygon fill="#b43f3f" stroke="#b43f3f" points="138.797,-133.175 135.296,-123.175 131.797,-133.175 138.797,-133.175"/>
<text text-anchor="middle" x="157.296" y="-144.8" font-family="Times,serif" font-size="14.00">1 (91.7)</text>
</g>
<!-- 045 -->
<g id="node17" class="node"><title>045</title>
<ellipse fill="#ff8a8a" stroke="#b43f3f" cx="226.296" cy="-105" rx="36.2938" ry="18"/>
<text text-anchor="middle" x="226.296" y="-101.3" font-family="Times,serif" font-size="14.00">045 (a)</text>
</g>
<!-- 063&#45;&gt;045 -->
<g id="edge14" class="edge"><title>063&#45;&gt;045</title>
<path fill="none" stroke="#b43f3f" stroke-dasharray="1,5" d="M379.265,-180.956C372.403,-178.63 365.103,-176.195 358.296,-174 332.204,-165.586 324.002,-167.883 299.296,-156 282.944,-148.135 266.14,-136.882 252.782,-127.043"/>
<polygon fill="#b43f3f" stroke="#b43f3f" points="254.634,-124.056 244.542,-120.831 250.42,-129.645 254.634,-124.056"/>
<text text-anchor="middle" x="321.296" y="-144.8" font-family="Times,serif" font-size="14.00">1 (93.1)</text>
</g>
<!-- 031 -->
<g id="node18" class="node"><title>031</title>
<ellipse fill="#ff8a8a" stroke="#b43f3f" cx="317.296" cy="-105" rx="36.2938" ry="18"/>
<text text-anchor="middle" x="317.296" y="-101.3" font-family="Times,serif" font-size="14.00">031 (a)</text>
</g>
<!-- 063&#45;&gt;031 -->
<g id="edge15" class="edge"><title>063&#45;&gt;031</title>
<path fill="none" stroke="#b43f3f" stroke-dasharray="1,5" d="M386.925,-177.006C378.304,-170.963 368.482,-163.554 360.296,-156 351.752,-148.115 343.221,-138.619 336.036,-130.029"/>
<polygon fill="#b43f3f" stroke="#b43f3f" points="338.641,-127.685 329.604,-122.155 333.219,-132.113 338.641,-127.685"/>
<text text-anchor="middle" x="382.296" y="-144.8" font-family="Times,serif" font-size="14.00">1 (95.8)</text>
</g>
<!-- 011 -->
<g id="node19" class="node"><title>011</title>
<ellipse fill="#ff8a8a" stroke="#b43f3f" cx="408.296" cy="-105" rx="36.2938" ry="18"/>
<text text-anchor="middle" x="408.296" y="-101.3" font-family="Times,serif" font-size="14.00">011 (a)</text>
</g>
<!-- 063&#45;&gt;011 -->
<g id="edge16" class="edge"><title>063&#45;&gt;011</title>
<path fill="none" stroke="#b43f3f" stroke-dasharray="1,5" d="M408.296,-173.799C408.296,-162.163 408.296,-146.548 408.296,-133.237"/>
<polygon fill="#b43f3f" stroke="#b43f3f" points="411.797,-133.175 408.296,-123.175 404.797,-133.175 411.797,-133.175"/>
<text text-anchor="middle" x="430.296" y="-144.8" font-family="Times,serif" font-size="14.00">1 (93.1)</text>
</g>
<!-- 07 -->
<g id="node20" class="node"><title>07</title>
<ellipse fill="#ff8a8a" stroke="#b43f3f" cx="494.296" cy="-105" rx="31.6951" ry="18"/>
<text text-anchor="middle" x="494.296" y="-101.3" font-family="Times,serif" font-size="14.00">07 (a)</text>
</g>
<!-- 063&#45;&gt;07 -->
<g id="edge17" class="edge"><title>063&#45;&gt;07</title>
<path fill="none" stroke="#b43f3f" stroke-dasharray="1,5" d="M429.9,-177.25C438.557,-171.245 448.343,-163.798 456.296,-156 464.121,-148.329 471.659,-138.975 477.929,-130.442"/>
<polygon fill="#b43f3f" stroke="#b43f3f" points="480.794,-132.452 483.74,-122.275 475.09,-128.394 480.794,-132.452"/>
<text text-anchor="middle" x="491.296" y="-144.8" font-family="Times,serif" font-size="14.00">1 (96.6)</text>
</g>
<!-- 028 -->
<g id="node21" class="node"><title>028</title>
<ellipse fill="#ff8a8a" stroke="#b43f3f" cx="580.296" cy="-105" rx="36.2938" ry="18"/>
<text text-anchor="middle" x="580.296" y="-101.3" font-family="Times,serif" font-size="14.00">028 (a)</text>
</g>
<!-- 063&#45;&gt;028 -->
<g id="edge18" class="edge"><title>063&#45;&gt;028</title>
<path fill="none" stroke="#b43f3f" stroke-dasharray="1,5" d="M436.398,-180.232C442.282,-178.084 448.47,-175.906 454.296,-174 481.974,-164.946 491.394,-169.307 517.296,-156 531.589,-148.658 545.761,-137.814 557.034,-128.1"/>
<polygon fill="#b43f3f" stroke="#b43f3f" points="559.542,-130.552 564.69,-121.292 554.891,-125.321 559.542,-130.552"/>
<text text-anchor="middle" x="562.296" y="-144.8" font-family="Times,serif" font-size="14.00">1 (96.6)</text>
</g>
<!-- 021 -->
<g id="node22" class="node"><title>021</title>
<ellipse fill="#ff8a8a" stroke="#b43f3f" cx="681.296" cy="-105" rx="36.2938" ry="18"/>
<text text-anchor="middle" x="681.296" y="-101.3" font-family="Times,serif" font-size="14.00">021 (a)</text>
</g>
<!-- 063&#45;&gt;021 -->
<g id="edge19" class="edge"><title>063&#45;&gt;021</title>
<path fill="none" stroke="#b43f3f" stroke-dasharray="1,5" d="M435.717,-179.746C441.759,-177.583 448.182,-175.521 454.296,-174 512.61,-159.497 531.133,-174.526 588.296,-156 610.72,-148.733 634.08,-136.151 651.78,-125.428"/>
<polygon fill="#b43f3f" stroke="#b43f3f" points="653.832,-128.273 660.484,-120.027 650.141,-122.325 653.832,-128.273"/>
<text text-anchor="middle" x="645.296" y="-144.8" font-family="Times,serif" font-size="14.00">1 (93.1)</text>
</g>
<!-- 038 -->
<g id="node23" class="node"><title>038</title>
<ellipse fill="#ff8a8a" stroke="#b43f3f" cx="135.296" cy="-18" rx="36.2938" ry="18"/>
<text text-anchor="middle" x="135.296" y="-14.3" font-family="Times,serif" font-size="14.00">038 (a)</text>
</g>
<!-- 045&#45;&gt;038 -->
<g id="edge20" class="edge"><title>045&#45;&gt;038</title>
<path fill="none" stroke="#b43f3f" stroke-dasharray="1,5" d="M197.769,-93.5557C185.093,-87.819 170.716,-79.6722 160.296,-69 153.767,-62.3118 148.611,-53.579 144.721,-45.2867"/>
<polygon fill="#b43f3f" stroke="#b43f3f" points="147.864,-43.7346 140.728,-35.9034 141.423,-46.4755 147.864,-43.7346"/>
<text text-anchor="middle" x="182.296" y="-57.8" font-family="Times,serif" font-size="14.00">1 (92.7)</text>
</g>
<!-- 017 -->
<g id="node24" class="node"><title>017</title>
<ellipse fill="#ff8a8a" stroke="#b43f3f" cx="226.296" cy="-18" rx="36.2938" ry="18"/>
<text text-anchor="middle" x="226.296" y="-14.3" font-family="Times,serif" font-size="14.00">017 (a)</text>
</g>
<!-- 031&#45;&gt;017 -->
<g id="edge21" class="edge"><title>031&#45;&gt;017</title>
<path fill="none" stroke="#b43f3f" stroke-dasharray="1,5" d="M295.925,-90.006C287.304,-83.9634 277.482,-76.5539 269.296,-69 260.752,-61.1154 252.221,-51.6186 245.036,-43.0293"/>
<polygon fill="#b43f3f" stroke="#b43f3f" points="247.641,-40.6853 238.604,-35.1545 242.219,-45.1135 247.641,-40.6853"/>
<text text-anchor="middle" x="291.296" y="-57.8" font-family="Times,serif" font-size="14.00">1 (94.3)</text>
</g>
<!-- 013 -->
<g id="node25" class="node"><title>013</title>
<ellipse fill="#ff8a8a" stroke="#b43f3f" cx="317.296" cy="-18" rx="36.2938" ry="18"/>
<text text-anchor="middle" x="317.296" y="-14.3" font-family="Times,serif" font-size="14.00">013 (a)</text>
</g>
<!-- 031&#45;&gt;013 -->
<g id="edge22" class="edge"><title>031&#45;&gt;013</title>
<path fill="none" stroke="#b43f3f" stroke-dasharray="1,5" d="M317.296,-86.799C317.296,-75.1626 317.296,-59.5479 317.296,-46.2368"/>
<polygon fill="#b43f3f" stroke="#b43f3f" points="320.797,-46.1754 317.296,-36.1754 313.797,-46.1755 320.797,-46.1754"/>
<text text-anchor="middle" x="339.296" y="-57.8" font-family="Times,serif" font-size="14.00">1 (97.1)</text>
</g>
<!-- 034 -->
<g id="node26" class="node"><title>034</title>
<ellipse fill="#ff8a8a" stroke="#b43f3f" cx="408.296" cy="-18" rx="36.2938" ry="18"/>
<text text-anchor="middle" x="408.296" y="-14.3" font-family="Times,serif" font-size="14.00">034 (a)</text>
</g>
<!-- 07&#45;&gt;034 -->
<g id="edge23" class="edge"><title>07&#45;&gt;034</title>
<path fill="none" stroke="#b43f3f" stroke-dasharray="1,5" d="M475.135,-90.5796C466.841,-84.4029 457.235,-76.7366 449.296,-69 441.217,-61.1259 433.162,-51.7284 426.358,-43.217"/>
<polygon fill="#b43f3f" stroke="#b43f3f" points="428.928,-40.8207 420.016,-35.0903 423.409,-45.1272 428.928,-40.8207"/>
<text text-anchor="middle" x="471.296" y="-57.8" font-family="Times,serif" font-size="14.00">1 (95.1)</text>
</g>
<!-- 030 -->
<g id="node27" class="node"><title>030</title>
<ellipse fill="#ff8a8a" stroke="#b43f3f" cx="499.296" cy="-18" rx="36.2938" ry="18"/>
<text text-anchor="middle" x="499.296" y="-14.3" font-family="Times,serif" font-size="14.00">030 (a)</text>
</g>
<!-- 07&#45;&gt;030 -->
<g id="edge24" class="edge"><title>07&#45;&gt;030</title>
<path fill="none" stroke="#b43f3f" stroke-dasharray="1,5" d="M495.308,-86.799C495.993,-75.1626 496.911,-59.5479 497.694,-46.2368"/>
<polygon fill="#b43f3f" stroke="#b43f3f" points="501.193,-46.3637 498.286,-36.1754 494.205,-45.9526 501.193,-46.3637"/>
<text text-anchor="middle" x="519.296" y="-57.8" font-family="Times,serif" font-size="14.00">1 (95.1)</text>
</g>
<!-- 037 -->
<g id="node28" class="node"><title>037</title>
<ellipse fill="#ff8a8a" stroke="#b43f3f" cx="590.296" cy="-18" rx="36.2938" ry="18"/>
<text text-anchor="middle" x="590.296" y="-14.3" font-family="Times,serif" font-size="14.00">037 (a)</text>
</g>
<!-- 07&#45;&gt;037 -->
<g id="edge25" class="edge"><title>07&#45;&gt;037</title>
<path fill="none" stroke="#b43f3f" stroke-dasharray="1,5" d="M515.466,-91.0889C524.97,-84.8929 536.09,-77.0696 545.296,-69 554.306,-61.1022 563.322,-51.5043 570.892,-42.8374"/>
<polygon fill="#b43f3f" stroke="#b43f3f" points="573.567,-45.0942 577.395,-35.2152 568.242,-40.5506 573.567,-45.0942"/>
<text text-anchor="middle" x="582.296" y="-57.8" font-family="Times,serif" font-size="14.00">1 (97.5)</text>
</g>
<!-- 036 -->
<g id="node29" class="node"><title>036</title>
<ellipse fill="#ff8a8a" stroke="#b43f3f" cx="681.296" cy="-18" rx="36.2938" ry="18"/>
<text text-anchor="middle" x="681.296" y="-14.3" font-family="Times,serif" font-size="14.00">036 (a)</text>
</g>
<!-- 021&#45;&gt;036 -->
<g id="edge26" class="edge"><title>021&#45;&gt;036</title>
<path fill="none" stroke="#b43f3f" stroke-dasharray="1,5" d="M681.296,-86.799C681.296,-75.1626 681.296,-59.5479 681.296,-46.2368"/>
<polygon fill="#b43f3f" stroke="#b43f3f" points="684.797,-46.1754 681.296,-36.1754 677.797,-46.1755 684.797,-46.1754"/>
<text text-anchor="middle" x="703.296" y="-57.8" font-family="Times,serif" font-size="14.00">1 (97.6)</text>
</g>
<!-- 047 -->
<g id="node30" class="node"><title>047</title>
<ellipse fill="#ff8a8a" stroke="#b43f3f" cx="772.296" cy="-18" rx="36.2938" ry="18"/>
<text text-anchor="middle" x="772.296" y="-14.3" font-family="Times,serif" font-size="14.00">047 (a)</text>
</g>
<!-- 021&#45;&gt;047 -->
<g id="edge27" class="edge"><title>021&#45;&gt;047</title>
<path fill="none" stroke="#b43f3f" stroke-dasharray="1,5" d="M702.668,-90.006C711.289,-83.9634 721.111,-76.5539 729.296,-69 737.841,-61.1154 746.372,-51.6186 753.557,-43.0293"/>
<polygon fill="#b43f3f" stroke="#b43f3f" points="756.374,-45.1135 759.989,-35.1545 750.952,-40.6853 756.374,-45.1135"/>
<text text-anchor="middle" x="765.296" y="-57.8" font-family="Times,serif" font-size="14.00">1 (95.1)</text>
</g>
</g>
</svg>
