<?xml version="1.0" encoding="UTF-8" standalone="no"?>
<!DOCTYPE svg PUBLIC "-//W3C//DTD SVG 1.1//EN"
 "http://www.w3.org/Graphics/SVG/1.1/DTD/svg11.dtd">
<!-- Generated by graphviz version 2.38.0 (20140413.2041)
 -->
<!-- Title: %3 Pages: 1 -->
<svg width="334pt" height="250pt"
 viewBox="0.00 0.00 334.00 250.00" xmlns="http://www.w3.org/2000/svg" xmlns:xlink="http://www.w3.org/1999/xlink">
<g id="graph0" class="graph" transform="scale(1 1) rotate(0) translate(4 246)">
<title>%3</title>
<polygon fill="white" stroke="none" points="-4,4 -4,-246 330,-246 330,4 -4,4"/>
<g id="clust1" class="cluster"><title>cluster_legend</title>
<path fill="none" stroke="black" d="M20,-106C20,-106 210,-106 210,-106 216,-106 222,-112 222,-118 222,-118 222,-222 222,-222 222,-228 216,-234 210,-234 210,-234 20,-234 20,-234 14,-234 8,-228 8,-222 8,-222 8,-118 8,-118 8,-112 14,-106 20,-106"/>
</g>
<g id="clust2" class="cluster"><title>cluster_reading</title>
<polygon fill="none" stroke="black" points="230,-8 230,-147 318,-147 318,-8 230,-8"/>
</g>
<!-- leg_s -->
<g id="node1" class="node"><title>leg_s</title>
<text text-anchor="middle" x="115" y="-204.3" font-family="Times,serif" font-size="14.00">Textual flow strength</text>
</g>
<!-- leg_e1 -->
<!-- leg_s&#45;&gt;leg_e1 -->
<g id="edge1" class="edge"><title>leg_s&#45;&gt;leg_e1</title>
<path fill="none" stroke="black" stroke-dasharray="1,5" d="M96.6657,-189.686C91.1324,-184.194 85.1607,-177.989 80,-172 70.1708,-160.593 60.0722,-146.779 52.9137,-136.563"/>
<polygon fill="black" stroke="black" points="55.6142,-134.314 47.056,-128.068 49.8514,-138.288 55.6142,-134.314"/>
<text text-anchor="middle" x="95.5" y="-160.8" font-family="Times,serif" font-size="14.00">&lt;=5 &#160;</text>
</g>
<!-- leg_e2 -->
<!-- leg_s&#45;&gt;leg_e2 -->
<g id="edge2" class="edge"><title>leg_s&#45;&gt;leg_e2</title>
<path fill="none" stroke="black" stroke-dasharray="5,2" d="M115,-189.799C115,-174.794 115,-153.174 115,-138.409"/>
<polygon fill="black" stroke="black" points="118.5,-138.293 115,-128.293 111.5,-138.293 118.5,-138.293"/>
<text text-anchor="middle" x="134" y="-160.8" font-family="Times,serif" font-size="14.00"> &#160;&lt;=25</text>
</g>
<!-- leg_e3 -->
<!-- leg_s&#45;&gt;leg_e3 -->
<g id="edge3" class="edge"><title>leg_s&#45;&gt;leg_e3</title>
<path fill="none" stroke="black" d="M138.503,-189.76C144.906,-184.462 151.567,-178.344 157,-172 166.087,-161.39 174.095,-147.689 179.546,-137.313"/>
<polygon fill="black" stroke="black" points="182.722,-138.789 184.091,-128.283 176.469,-135.642 182.722,-138.789"/>
<text text-anchor="middle" x="179" y="-160.8" font-family="Times,serif" font-size="14.00">&gt;25</text>
</g>
<!-- 037 -->
<g id="node5" class="node"><title>037</title>
<ellipse fill="#cea8f4" stroke="#835da9" cx="274" cy="-121" rx="36.2938" ry="18"/>
<text text-anchor="middle" x="274" y="-117.3" font-family="Times,serif" font-size="14.00">037 (b)</text>
</g>
<!-- 047 -->
<g id="node6" class="node"><title>047</title>
<ellipse fill="#cea8f4" stroke="#835da9" cx="274" cy="-34" rx="36.2938" ry="18"/>
<text text-anchor="middle" x="274" y="-30.3" font-family="Times,serif" font-size="14.00">047 (b)</text>
</g>
<!-- 037&#45;&gt;047 -->
<g id="edge4" class="edge"><title>037&#45;&gt;047</title>
<path fill="none" stroke="#835da9" stroke-dasharray="1,5" d="M274,-102.799C274,-91.1626 274,-75.5479 274,-62.2368"/>
<polygon fill="#835da9" stroke="#835da9" points="277.5,-62.1754 274,-52.1754 270.5,-62.1755 277.5,-62.1754"/>
<text text-anchor="middle" x="296" y="-73.8" font-family="Times,serif" font-size="14.00">2 (95.0)</text>
</g>
<!-- 07 -->
<g id="node7" class="node"><title>07</title>
<ellipse fill="#ff8a8a" stroke="#b43f3f" cx="274" cy="-208" rx="31.6951" ry="18"/>
<text text-anchor="middle" x="274" y="-204.3" font-family="Times,serif" font-size="14.00">07 (a)</text>
</g>
<!-- 07&#45;&gt;037 -->
<g id="edge5" class="edge"><title>07&#45;&gt;037</title>
<path fill="none" stroke="#835da9" stroke-dasharray="1,5" d="M274,-189.799C274,-178.163 274,-162.548 274,-149.237"/>
<polygon fill="#835da9" stroke="#835da9" points="277.5,-149.175 274,-139.175 270.5,-149.175 277.5,-149.175"/>
<text text-anchor="middle" x="296" y="-160.8" font-family="Times,serif" font-size="14.00">1 (97.5)</text>
</g>
</g>
</svg>
