<?xml version="1.0" encoding="UTF-8" standalone="no"?>
<!DOCTYPE svg PUBLIC "-//W3C//DTD SVG 1.1//EN"
 "http://www.w3.org/Graphics/SVG/1.1/DTD/svg11.dtd">
<!-- Generated by graphviz version 2.38.0 (20140413.2041)
 -->
<!-- Title: G Pages: 1 -->
<svg width="1160pt" height="305pt"
 viewBox="0.00 0.00 1159.89 305.00" xmlns="http://www.w3.org/2000/svg" xmlns:xlink="http://www.w3.org/1999/xlink">
<g id="graph0" class="graph" transform="scale(1 1) rotate(0) translate(4 301)">
<title>G</title>
<polygon fill="white" stroke="none" points="-4,4 -4,-301 1155.89,-301 1155.89,4 -4,4"/>
<!-- 013 (a) -->
<g id="node1" class="node"><title>013 (a)</title>
<ellipse fill="#ff8a8a" stroke="#b43f3f" cx="218.397" cy="-18" rx="36.2938" ry="18"/>
<text text-anchor="middle" x="218.397" y="-14.3" font-family="Times,serif" font-size="14.00">013 (a)</text>
</g>
<!-- 017 (a) -->
<g id="node2" class="node"><title>017 (a)</title>
<ellipse fill="#ff8a8a" stroke="#b43f3f" cx="309.397" cy="-18" rx="36.2938" ry="18"/>
<text text-anchor="middle" x="309.397" y="-14.3" font-family="Times,serif" font-size="14.00">017 (a)</text>
</g>
<!-- 032 (a) -->
<g id="node3" class="node"><title>032 (a)</title>
<ellipse fill="#ff8a8a" stroke="#b43f3f" cx="638.397" cy="-192" rx="36.2938" ry="18"/>
<text text-anchor="middle" x="638.397" y="-188.3" font-family="Times,serif" font-size="14.00">032 (a)</text>
</g>
<!-- 021 (a) -->
<g id="node4" class="node"><title>021 (a)</title>
<ellipse fill="#ff8a8a" stroke="#b43f3f" cx="127.397" cy="-105" rx="36.2938" ry="18"/>
<text text-anchor="middle" x="127.397" y="-101.3" font-family="Times,serif" font-size="14.00">021 (a)</text>
</g>
<!-- 036 (a) -->
<g id="node8" class="node"><title>036 (a)</title>
<ellipse fill="#ff8a8a" stroke="#b43f3f" cx="36.3968" cy="-18" rx="36.2938" ry="18"/>
<text text-anchor="middle" x="36.3968" y="-14.3" font-family="Times,serif" font-size="14.00">036 (a)</text>
</g>
<!-- 021 (a)&#45;&gt;036 (a) -->
<g id="edge1" class="edge"><title>021 (a)&#45;&gt;036 (a)</title>
<path fill="none" stroke="#b43f3f" d="M106.025,-90.006C97.4044,-83.9634 87.5824,-76.5539 79.3968,-69 70.8527,-61.1154 62.3211,-51.6186 55.1364,-43.0293"/>
<polygon fill="#b43f3f" stroke="#b43f3f" points="57.741,-40.6853 48.7043,-35.1545 52.3196,-45.1135 57.741,-40.6853"/>
<text text-anchor="middle" x="101.397" y="-57.8" font-family="Times,serif" font-size="14.00">1 (97.6)</text>
</g>
<!-- 047 (a) -->
<g id="node25" class="node"><title>047 (a)</title>
<ellipse fill="#ff8a8a" stroke="#b43f3f" cx="127.397" cy="-18" rx="36.2938" ry="18"/>
<text text-anchor="middle" x="127.397" y="-14.3" font-family="Times,serif" font-size="14.00">047 (a)</text>
</g>
<!-- 021 (a)&#45;&gt;047 (a) -->
<g id="edge2" class="edge"><title>021 (a)&#45;&gt;047 (a)</title>
<path fill="none" stroke="#b43f3f" d="M127.397,-86.799C127.397,-75.1626 127.397,-59.5479 127.397,-46.2368"/>
<polygon fill="#b43f3f" stroke="#b43f3f" points="130.897,-46.1754 127.397,-36.1754 123.897,-46.1755 130.897,-46.1754"/>
<text text-anchor="middle" x="149.397" y="-57.8" font-family="Times,serif" font-size="14.00">1 (95.1)</text>
</g>
<!-- 037 (a) -->
<g id="node5" class="node"><title>037 (a)</title>
<ellipse fill="#ff8a8a" stroke="#b43f3f" cx="400.397" cy="-18" rx="36.2938" ry="18"/>
<text text-anchor="middle" x="400.397" y="-14.3" font-family="Times,serif" font-size="14.00">037 (a)</text>
</g>
<!-- 05 (a) -->
<g id="node6" class="node"><title>05 (a)</title>
<ellipse fill="#ff8a8a" stroke="#b43f3f" cx="896.397" cy="-192" rx="31.6951" ry="18"/>
<text text-anchor="middle" x="896.397" y="-188.3" font-family="Times,serif" font-size="14.00">05 (a)</text>
</g>
<!-- 02 (a) -->
<g id="node7" class="node"><title>02 (a)</title>
<ellipse fill="#ff8a8a" stroke="#b43f3f" cx="724.397" cy="-192" rx="31.6951" ry="18"/>
<text text-anchor="middle" x="724.397" y="-188.3" font-family="Times,serif" font-size="14.00">02 (a)</text>
</g>
<!-- 07 (a) -->
<g id="node9" class="node"><title>07 (a)</title>
<ellipse fill="#ff8a8a" stroke="#b43f3f" cx="400.397" cy="-105" rx="31.6951" ry="18"/>
<text text-anchor="middle" x="400.397" y="-101.3" font-family="Times,serif" font-size="14.00">07 (a)</text>
</g>
<!-- 07 (a)&#45;&gt;013 (a) -->
<g id="edge3" class="edge"><title>07 (a)&#45;&gt;013 (a)</title>
<path fill="none" stroke="#b43f3f" d="M371.287,-97.118C348.808,-91.2254 317.276,-81.681 291.397,-69 275.102,-61.0155 258.302,-49.7539 244.933,-39.9394"/>
<polygon fill="#b43f3f" stroke="#b43f3f" points="246.782,-36.9507 236.682,-33.7478 242.58,-42.5495 246.782,-36.9507"/>
<text text-anchor="middle" x="313.397" y="-57.8" font-family="Times,serif" font-size="14.00">2 (95.1)</text>
</g>
<!-- 07 (a)&#45;&gt;017 (a) -->
<g id="edge4" class="edge"><title>07 (a)&#45;&gt;017 (a)</title>
<path fill="none" stroke="#b43f3f" d="M379.978,-90.6717C371.134,-84.5121 360.886,-76.8337 352.397,-69 343.853,-61.1154 335.321,-51.6186 328.136,-43.0293"/>
<polygon fill="#b43f3f" stroke="#b43f3f" points="330.741,-40.6853 321.704,-35.1545 325.32,-45.1135 330.741,-40.6853"/>
<text text-anchor="middle" x="374.397" y="-57.8" font-family="Times,serif" font-size="14.00">2 (92.7)</text>
</g>
<!-- 07 (a)&#45;&gt;037 (a) -->
<g id="edge5" class="edge"><title>07 (a)&#45;&gt;037 (a)</title>
<path fill="none" stroke="#b43f3f" d="M400.397,-86.799C400.397,-75.1626 400.397,-59.5479 400.397,-46.2368"/>
<polygon fill="#b43f3f" stroke="#b43f3f" points="403.897,-46.1754 400.397,-36.1754 396.897,-46.1755 403.897,-46.1754"/>
<text text-anchor="middle" x="422.397" y="-57.8" font-family="Times,serif" font-size="14.00">1 (97.5)</text>
</g>
<!-- 034 (a) -->
<g id="node13" class="node"><title>034 (a)</title>
<ellipse fill="#ff8a8a" stroke="#b43f3f" cx="491.397" cy="-18" rx="36.2938" ry="18"/>
<text text-anchor="middle" x="491.397" y="-14.3" font-family="Times,serif" font-size="14.00">034 (a)</text>
</g>
<!-- 07 (a)&#45;&gt;034 (a) -->
<g id="edge7" class="edge"><title>07 (a)&#45;&gt;034 (a)</title>
<path fill="none" stroke="#b43f3f" d="M420.816,-90.6717C429.659,-84.5121 439.908,-76.8337 448.397,-69 456.941,-61.1154 465.472,-51.6186 472.657,-43.0293"/>
<polygon fill="#b43f3f" stroke="#b43f3f" points="475.474,-45.1135 479.089,-35.1545 470.053,-40.6853 475.474,-45.1135"/>
<text text-anchor="middle" x="484.397" y="-57.8" font-family="Times,serif" font-size="14.00">1 (95.1)</text>
</g>
<!-- 030 (a) -->
<g id="node21" class="node"><title>030 (a)</title>
<ellipse fill="#ff8a8a" stroke="#b43f3f" cx="582.397" cy="-18" rx="36.2938" ry="18"/>
<text text-anchor="middle" x="582.397" y="-14.3" font-family="Times,serif" font-size="14.00">030 (a)</text>
</g>
<!-- 07 (a)&#45;&gt;030 (a) -->
<g id="edge6" class="edge"><title>07 (a)&#45;&gt;030 (a)</title>
<path fill="none" stroke="#b43f3f" d="M424.904,-93.1938C430.285,-91.0026 435.991,-88.816 441.397,-87 471.44,-76.9066 481.603,-82.2431 510.397,-69 526.842,-61.4361 543.549,-50.107 556.724,-40.1444"/>
<polygon fill="#b43f3f" stroke="#b43f3f" points="559.081,-42.7454 564.834,-33.8482 554.788,-37.2162 559.081,-42.7454"/>
<text text-anchor="middle" x="558.397" y="-57.8" font-family="Times,serif" font-size="14.00">1 (95.1)</text>
</g>
<!-- 03 (a) -->
<g id="node10" class="node"><title>03 (a)</title>
<ellipse fill="#ff8a8a" stroke="#b43f3f" cx="724.397" cy="-279" rx="31.6951" ry="18"/>
<text text-anchor="middle" x="724.397" y="-275.3" font-family="Times,serif" font-size="14.00">03 (a)</text>
</g>
<!-- 03 (a)&#45;&gt;032 (a) -->
<g id="edge9" class="edge"><title>03 (a)&#45;&gt;032 (a)</title>
<path fill="none" stroke="#b43f3f" d="M703.75,-264.912C694.864,-258.796 684.645,-251.086 676.397,-243 668.572,-235.329 661.035,-225.975 654.765,-217.442"/>
<polygon fill="#b43f3f" stroke="#b43f3f" points="657.603,-215.394 648.954,-209.275 651.899,-219.452 657.603,-215.394"/>
<text text-anchor="middle" x="698.397" y="-231.8" font-family="Times,serif" font-size="14.00">1 (91.7)</text>
</g>
<!-- 03 (a)&#45;&gt;02 (a) -->
<g id="edge10" class="edge"><title>03 (a)&#45;&gt;02 (a)</title>
<path fill="none" stroke="#b43f3f" d="M724.397,-260.799C724.397,-249.163 724.397,-233.548 724.397,-220.237"/>
<polygon fill="#b43f3f" stroke="#b43f3f" points="727.897,-220.175 724.397,-210.175 720.897,-220.175 727.897,-220.175"/>
<text text-anchor="middle" x="746.397" y="-231.8" font-family="Times,serif" font-size="14.00">1 (86.5)</text>
</g>
<!-- 044 (a) -->
<g id="node26" class="node"><title>044 (a)</title>
<ellipse fill="#ff8a8a" stroke="#b43f3f" cx="810.397" cy="-192" rx="36.2938" ry="18"/>
<text text-anchor="middle" x="810.397" y="-188.3" font-family="Times,serif" font-size="14.00">044 (a)</text>
</g>
<!-- 03 (a)&#45;&gt;044 (a) -->
<g id="edge8" class="edge"><title>03 (a)&#45;&gt;044 (a)</title>
<path fill="none" stroke="#b43f3f" d="M745.044,-264.912C753.93,-258.796 764.148,-251.086 772.397,-243 780.221,-235.329 787.759,-225.975 794.029,-217.442"/>
<polygon fill="#b43f3f" stroke="#b43f3f" points="796.894,-219.452 799.84,-209.275 791.191,-215.394 796.894,-219.452"/>
<text text-anchor="middle" x="807.397" y="-231.8" font-family="Times,serif" font-size="14.00">1 (89.2)</text>
</g>
<!-- P75 (a) -->
<g id="node11" class="node"><title>P75 (a)</title>
<ellipse fill="#ff8a8a" stroke="#b43f3f" cx="1032.4" cy="-279" rx="36.2938" ry="18"/>
<text text-anchor="middle" x="1032.4" y="-275.3" font-family="Times,serif" font-size="14.00">P75 (a)</text>
</g>
<!-- 038 (a) -->
<g id="node12" class="node"><title>038 (a)</title>
<ellipse fill="#ff8a8a" stroke="#b43f3f" cx="673.397" cy="-18" rx="36.2938" ry="18"/>
<text text-anchor="middle" x="673.397" y="-14.3" font-family="Times,serif" font-size="14.00">038 (a)</text>
</g>
<!-- 019 (a) -->
<g id="node14" class="node"><title>019 (a)</title>
<ellipse fill="#ff8a8a" stroke="#b43f3f" cx="486.397" cy="-279" rx="36.2938" ry="18"/>
<text text-anchor="middle" x="486.397" y="-275.3" font-family="Times,serif" font-size="14.00">019 (a)</text>
</g>
<!-- 063 (a) -->
<g id="node20" class="node"><title>063 (a)</title>
<ellipse fill="#ff8a8a" stroke="#b43f3f" cx="486.397" cy="-192" rx="36.2938" ry="18"/>
<text text-anchor="middle" x="486.397" y="-188.3" font-family="Times,serif" font-size="14.00">063 (a)</text>
</g>
<!-- 019 (a)&#45;&gt;063 (a) -->
<g id="edge11" class="edge"><title>019 (a)&#45;&gt;063 (a)</title>
<path fill="none" stroke="#b43f3f" d="M486.397,-260.799C486.397,-249.163 486.397,-233.548 486.397,-220.237"/>
<polygon fill="#b43f3f" stroke="#b43f3f" points="489.897,-220.175 486.397,-210.175 482.897,-220.175 489.897,-220.175"/>
<text text-anchor="middle" x="508.397" y="-231.8" font-family="Times,serif" font-size="14.00">1 (85.7)</text>
</g>
<!-- 0141 (a) -->
<g id="node15" class="node"><title>0141 (a)</title>
<ellipse fill="#ff8a8a" stroke="#b43f3f" cx="763.397" cy="-105" rx="40.0939" ry="18"/>
<text text-anchor="middle" x="763.397" y="-101.3" font-family="Times,serif" font-size="14.00">0141 (a)</text>
</g>
<!-- 0211 (a) -->
<g id="node16" class="node"><title>0211 (a)</title>
<ellipse fill="#ff8a8a" stroke="#b43f3f" cx="986.397" cy="-192" rx="40.0939" ry="18"/>
<text text-anchor="middle" x="986.397" y="-188.3" font-family="Times,serif" font-size="14.00">0211 (a)</text>
</g>
<!-- 011 (a) -->
<g id="node17" class="node"><title>011 (a)</title>
<ellipse fill="#ff8a8a" stroke="#b43f3f" cx="486.397" cy="-105" rx="36.2938" ry="18"/>
<text text-anchor="middle" x="486.397" y="-101.3" font-family="Times,serif" font-size="14.00">011 (a)</text>
</g>
<!-- 045 (a) -->
<g id="node18" class="node"><title>045 (a)</title>
<ellipse fill="#ff8a8a" stroke="#b43f3f" cx="577.397" cy="-105" rx="36.2938" ry="18"/>
<text text-anchor="middle" x="577.397" y="-101.3" font-family="Times,serif" font-size="14.00">045 (a)</text>
</g>
<!-- 045 (a)&#45;&gt;038 (a) -->
<g id="edge12" class="edge"><title>045 (a)&#45;&gt;038 (a)</title>
<path fill="none" stroke="#b43f3f" d="M600.305,-90.8201C610.028,-84.7443 621.212,-77.0898 630.397,-69 639.121,-61.3157 647.69,-51.8603 654.854,-43.2481"/>
<polygon fill="#b43f3f" stroke="#b43f3f" points="657.687,-45.3117 661.252,-35.3346 652.243,-40.911 657.687,-45.3117"/>
<text text-anchor="middle" x="667.397" y="-57.8" font-family="Times,serif" font-size="14.00">1 (92.7)</text>
</g>
<!-- 01 (b) -->
<g id="node19" class="node"><title>01 (b)</title>
<ellipse fill="#cea8f4" stroke="#835da9" cx="1119.4" cy="-279" rx="32.4942" ry="18"/>
<text text-anchor="middle" x="1119.4" y="-275.3" font-family="Times,serif" font-size="14.00">01 (b)</text>
</g>
<!-- 063 (a)&#45;&gt;021 (a) -->
<g id="edge17" class="edge"><title>063 (a)&#45;&gt;021 (a)</title>
<path fill="none" stroke="#b43f3f" d="M454.222,-183.382C389.264,-168.002 242.468,-133.245 169.794,-116.038"/>
<polygon fill="#b43f3f" stroke="#b43f3f" points="170.166,-112.53 159.628,-113.631 168.553,-119.341 170.166,-112.53"/>
<text text-anchor="middle" x="350.397" y="-144.8" font-family="Times,serif" font-size="14.00">1 (93.1)</text>
</g>
<!-- 063 (a)&#45;&gt;07 (a) -->
<g id="edge16" class="edge"><title>063 (a)&#45;&gt;07 (a)</title>
<path fill="none" stroke="#b43f3f" d="M464.793,-177.25C456.136,-171.245 446.351,-163.798 438.397,-156 430.572,-148.329 423.035,-138.975 416.765,-130.442"/>
<polygon fill="#b43f3f" stroke="#b43f3f" points="419.603,-128.394 410.954,-122.275 413.899,-132.452 419.603,-128.394"/>
<text text-anchor="middle" x="460.397" y="-144.8" font-family="Times,serif" font-size="14.00">1 (96.6)</text>
</g>
<!-- 063 (a)&#45;&gt;011 (a) -->
<g id="edge15" class="edge"><title>063 (a)&#45;&gt;011 (a)</title>
<path fill="none" stroke="#b43f3f" d="M486.397,-173.799C486.397,-162.163 486.397,-146.548 486.397,-133.237"/>
<polygon fill="#b43f3f" stroke="#b43f3f" points="489.897,-133.175 486.397,-123.175 482.897,-133.175 489.897,-133.175"/>
<text text-anchor="middle" x="508.397" y="-144.8" font-family="Times,serif" font-size="14.00">1 (93.1)</text>
</g>
<!-- 063 (a)&#45;&gt;045 (a) -->
<g id="edge13" class="edge"><title>063 (a)&#45;&gt;045 (a)</title>
<path fill="none" stroke="#b43f3f" d="M507.768,-177.006C516.389,-170.963 526.211,-163.554 534.397,-156 542.941,-148.115 551.472,-138.619 558.657,-130.029"/>
<polygon fill="#b43f3f" stroke="#b43f3f" points="561.474,-132.113 565.089,-122.155 556.053,-127.685 561.474,-132.113"/>
<text text-anchor="middle" x="570.397" y="-144.8" font-family="Times,serif" font-size="14.00">1 (93.1)</text>
</g>
<!-- 028 (a) -->
<g id="node22" class="node"><title>028 (a)</title>
<ellipse fill="#ff8a8a" stroke="#b43f3f" cx="668.397" cy="-105" rx="36.2938" ry="18"/>
<text text-anchor="middle" x="668.397" y="-101.3" font-family="Times,serif" font-size="14.00">028 (a)</text>
</g>
<!-- 063 (a)&#45;&gt;028 (a) -->
<g id="edge14" class="edge"><title>063 (a)&#45;&gt;028 (a)</title>
<path fill="none" stroke="#b43f3f" d="M518.664,-183.461C541.123,-177.566 571.405,-168.305 596.397,-156 612.525,-148.059 629.099,-136.801 642.273,-126.977"/>
<polygon fill="#b43f3f" stroke="#b43f3f" points="644.572,-129.626 650.401,-120.778 640.327,-124.06 644.572,-129.626"/>
<text text-anchor="middle" x="643.397" y="-144.8" font-family="Times,serif" font-size="14.00">1 (96.6)</text>
</g>
<!-- 091 (a) -->
<g id="node23" class="node"><title>091 (a)</title>
<ellipse fill="#ff8a8a" stroke="#b43f3f" cx="941.397" cy="-279" rx="36.2938" ry="18"/>
<text text-anchor="middle" x="941.397" y="-275.3" font-family="Times,serif" font-size="14.00">091 (a)</text>
</g>
<!-- 091 (a)&#45;&gt;05 (a) -->
<g id="edge19" class="edge"><title>091 (a)&#45;&gt;05 (a)</title>
<path fill="none" stroke="#b43f3f" d="M927.042,-262.452C922.226,-256.658 917.136,-249.824 913.397,-243 909.476,-235.844 906.226,-227.62 903.656,-219.936"/>
<polygon fill="#b43f3f" stroke="#b43f3f" points="906.968,-218.799 900.667,-210.281 900.28,-220.869 906.968,-218.799"/>
<text text-anchor="middle" x="935.397" y="-231.8" font-family="Times,serif" font-size="14.00">1 (87.5)</text>
</g>
<!-- 091 (a)&#45;&gt;0211 (a) -->
<g id="edge18" class="edge"><title>091 (a)&#45;&gt;0211 (a)</title>
<path fill="none" stroke="#b43f3f" d="M950.287,-261.207C956.697,-249.099 965.468,-232.533 972.76,-218.759"/>
<polygon fill="#b43f3f" stroke="#b43f3f" points="975.939,-220.234 977.525,-209.758 969.752,-216.959 975.939,-220.234"/>
<text text-anchor="middle" x="989.397" y="-231.8" font-family="Times,serif" font-size="14.00">1 (83.3)</text>
</g>
<!-- 022 (a) -->
<g id="node24" class="node"><title>022 (a)</title>
<ellipse fill="#ff8a8a" stroke="#b43f3f" cx="858.397" cy="-105" rx="36.2938" ry="18"/>
<text text-anchor="middle" x="858.397" y="-101.3" font-family="Times,serif" font-size="14.00">022 (a)</text>
</g>
<!-- 044 (a)&#45;&gt;0141 (a) -->
<g id="edge21" class="edge"><title>044 (a)&#45;&gt;0141 (a)</title>
<path fill="none" stroke="#b43f3f" d="M801.111,-174.207C794.416,-162.099 785.256,-145.533 777.64,-131.759"/>
<polygon fill="#b43f3f" stroke="#b43f3f" points="780.565,-129.816 772.663,-122.758 774.439,-133.203 780.565,-129.816"/>
<text text-anchor="middle" x="812.397" y="-144.8" font-family="Times,serif" font-size="14.00">1 (89.2)</text>
</g>
<!-- 044 (a)&#45;&gt;022 (a) -->
<g id="edge20" class="edge"><title>044 (a)&#45;&gt;022 (a)</title>
<path fill="none" stroke="#b43f3f" d="M823.355,-175.139C827.792,-169.316 832.592,-162.544 836.397,-156 840.687,-148.622 844.68,-140.251 848.055,-132.498"/>
<polygon fill="#b43f3f" stroke="#b43f3f" points="851.343,-133.706 851.973,-123.13 844.886,-131.004 851.343,-133.706"/>
<text text-anchor="middle" x="866.397" y="-144.8" font-family="Times,serif" font-size="14.00">1 (91.7)</text>
</g>
</g>
</svg>
