<?xml version="1.0" encoding="UTF-8" standalone="no"?>
<!DOCTYPE svg PUBLIC "-//W3C//DTD SVG 1.1//EN"
 "http://www.w3.org/Graphics/SVG/1.1/DTD/svg11.dtd">
<!-- Generated by graphviz version 2.38.0 (20140413.2041)
 -->
<!-- Title: G Pages: 1 -->
<svg width="990pt" height="305pt"
 viewBox="0.00 0.00 990.40 305.00" xmlns="http://www.w3.org/2000/svg" xmlns:xlink="http://www.w3.org/1999/xlink">
<g id="graph0" class="graph" transform="scale(1 1) rotate(0) translate(4 301)">
<title>G</title>
<polygon fill="white" stroke="none" points="-4,4 -4,-301 986.397,-301 986.397,4 -4,4"/>
<!-- 013 (a) -->
<g id="node1" class="node"><title>013 (a)</title>
<ellipse fill="#ff8a8a" stroke="#b43f3f" cx="625.397" cy="-18" rx="36.2938" ry="18"/>
<text text-anchor="middle" x="625.397" y="-14.3" font-family="Times,serif" font-size="14.00">013 (a)</text>
</g>
<!-- 017 (a) -->
<g id="node2" class="node"><title>017 (a)</title>
<ellipse fill="#ff8a8a" stroke="#b43f3f" cx="716.397" cy="-18" rx="36.2938" ry="18"/>
<text text-anchor="middle" x="716.397" y="-14.3" font-family="Times,serif" font-size="14.00">017 (a)</text>
</g>
<!-- 032 (a) -->
<g id="node3" class="node"><title>032 (a)</title>
<ellipse fill="#ff8a8a" stroke="#b43f3f" cx="672.397" cy="-192" rx="36.2938" ry="18"/>
<text text-anchor="middle" x="672.397" y="-188.3" font-family="Times,serif" font-size="14.00">032 (a)</text>
</g>
<!-- 021 (a) -->
<g id="node4" class="node"><title>021 (a)</title>
<ellipse fill="#ff8a8a" stroke="#b43f3f" cx="127.397" cy="-105" rx="36.2938" ry="18"/>
<text text-anchor="middle" x="127.397" y="-101.3" font-family="Times,serif" font-size="14.00">021 (a)</text>
</g>
<!-- 036 (a) -->
<g id="node8" class="node"><title>036 (a)</title>
<ellipse fill="#ff8a8a" stroke="#b43f3f" cx="36.3968" cy="-18" rx="36.2938" ry="18"/>
<text text-anchor="middle" x="36.3968" y="-14.3" font-family="Times,serif" font-size="14.00">036 (a)</text>
</g>
<!-- 021 (a)&#45;&gt;036 (a) -->
<g id="edge1" class="edge"><title>021 (a)&#45;&gt;036 (a)</title>
<path fill="none" stroke="#b43f3f" d="M106.025,-90.006C97.4044,-83.9634 87.5824,-76.5539 79.3968,-69 70.8527,-61.1154 62.3211,-51.6186 55.1364,-43.0293"/>
<polygon fill="#b43f3f" stroke="#b43f3f" points="57.741,-40.6853 48.7043,-35.1545 52.3196,-45.1135 57.741,-40.6853"/>
<text text-anchor="middle" x="101.397" y="-57.8" font-family="Times,serif" font-size="14.00">1 (97.6)</text>
</g>
<!-- 047 (a) -->
<g id="node23" class="node"><title>047 (a)</title>
<ellipse fill="#ff8a8a" stroke="#b43f3f" cx="127.397" cy="-18" rx="36.2938" ry="18"/>
<text text-anchor="middle" x="127.397" y="-14.3" font-family="Times,serif" font-size="14.00">047 (a)</text>
</g>
<!-- 021 (a)&#45;&gt;047 (a) -->
<g id="edge2" class="edge"><title>021 (a)&#45;&gt;047 (a)</title>
<path fill="none" stroke="#b43f3f" d="M127.397,-86.799C127.397,-75.1626 127.397,-59.5479 127.397,-46.2368"/>
<polygon fill="#b43f3f" stroke="#b43f3f" points="130.897,-46.1754 127.397,-36.1754 123.897,-46.1755 130.897,-46.1754"/>
<text text-anchor="middle" x="149.397" y="-57.8" font-family="Times,serif" font-size="14.00">1 (95.1)</text>
</g>
<!-- 037 (a) -->
<g id="node5" class="node"><title>037 (a)</title>
<ellipse fill="#ff8a8a" stroke="#b43f3f" cx="218.397" cy="-18" rx="36.2938" ry="18"/>
<text text-anchor="middle" x="218.397" y="-14.3" font-family="Times,serif" font-size="14.00">037 (a)</text>
</g>
<!-- 05 (a) -->
<g id="node6" class="node"><title>05 (a)</title>
<ellipse fill="#ff8a8a" stroke="#b43f3f" cx="754.397" cy="-105" rx="31.6951" ry="18"/>
<text text-anchor="middle" x="754.397" y="-101.3" font-family="Times,serif" font-size="14.00">05 (a)</text>
</g>
<!-- 02 (a) -->
<g id="node7" class="node"><title>02 (a)</title>
<ellipse fill="#ff8a8a" stroke="#b43f3f" cx="758.397" cy="-192" rx="31.6951" ry="18"/>
<text text-anchor="middle" x="758.397" y="-188.3" font-family="Times,serif" font-size="14.00">02 (a)</text>
</g>
<!-- 07 (a) -->
<g id="node9" class="node"><title>07 (a)</title>
<ellipse fill="#ff8a8a" stroke="#b43f3f" cx="309.397" cy="-105" rx="31.6951" ry="18"/>
<text text-anchor="middle" x="309.397" y="-101.3" font-family="Times,serif" font-size="14.00">07 (a)</text>
</g>
<!-- 07 (a)&#45;&gt;037 (a) -->
<g id="edge5" class="edge"><title>07 (a)&#45;&gt;037 (a)</title>
<path fill="none" stroke="#b43f3f" d="M288.978,-90.6717C280.134,-84.5121 269.886,-76.8337 261.397,-69 252.853,-61.1154 244.321,-51.6186 237.136,-43.0293"/>
<polygon fill="#b43f3f" stroke="#b43f3f" points="239.741,-40.6853 230.704,-35.1545 234.32,-45.1135 239.741,-40.6853"/>
<text text-anchor="middle" x="283.397" y="-57.8" font-family="Times,serif" font-size="14.00">1 (97.5)</text>
</g>
<!-- 034 (a) -->
<g id="node12" class="node"><title>034 (a)</title>
<ellipse fill="#ff8a8a" stroke="#b43f3f" cx="309.397" cy="-18" rx="36.2938" ry="18"/>
<text text-anchor="middle" x="309.397" y="-14.3" font-family="Times,serif" font-size="14.00">034 (a)</text>
</g>
<!-- 07 (a)&#45;&gt;034 (a) -->
<g id="edge4" class="edge"><title>07 (a)&#45;&gt;034 (a)</title>
<path fill="none" stroke="#b43f3f" d="M309.397,-86.799C309.397,-75.1626 309.397,-59.5479 309.397,-46.2368"/>
<polygon fill="#b43f3f" stroke="#b43f3f" points="312.897,-46.1754 309.397,-36.1754 305.897,-46.1755 312.897,-46.1754"/>
<text text-anchor="middle" x="331.397" y="-57.8" font-family="Times,serif" font-size="14.00">1 (95.1)</text>
</g>
<!-- 030 (a) -->
<g id="node20" class="node"><title>030 (a)</title>
<ellipse fill="#ff8a8a" stroke="#b43f3f" cx="400.397" cy="-18" rx="36.2938" ry="18"/>
<text text-anchor="middle" x="400.397" y="-14.3" font-family="Times,serif" font-size="14.00">030 (a)</text>
</g>
<!-- 07 (a)&#45;&gt;030 (a) -->
<g id="edge3" class="edge"><title>07 (a)&#45;&gt;030 (a)</title>
<path fill="none" stroke="#b43f3f" d="M329.816,-90.6717C338.659,-84.5121 348.908,-76.8337 357.397,-69 365.941,-61.1154 374.472,-51.6186 381.657,-43.0293"/>
<polygon fill="#b43f3f" stroke="#b43f3f" points="384.474,-45.1135 388.089,-35.1545 379.053,-40.6853 384.474,-45.1135"/>
<text text-anchor="middle" x="393.397" y="-57.8" font-family="Times,serif" font-size="14.00">1 (95.1)</text>
</g>
<!-- 03 (a) -->
<g id="node10" class="node"><title>03 (a)</title>
<ellipse fill="#ff8a8a" stroke="#b43f3f" cx="758.397" cy="-279" rx="31.6951" ry="18"/>
<text text-anchor="middle" x="758.397" y="-275.3" font-family="Times,serif" font-size="14.00">03 (a)</text>
</g>
<!-- 03 (a)&#45;&gt;032 (a) -->
<g id="edge7" class="edge"><title>03 (a)&#45;&gt;032 (a)</title>
<path fill="none" stroke="#b43f3f" d="M737.75,-264.912C728.864,-258.796 718.645,-251.086 710.397,-243 702.572,-235.329 695.035,-225.975 688.765,-217.442"/>
<polygon fill="#b43f3f" stroke="#b43f3f" points="691.603,-215.394 682.954,-209.275 685.899,-219.452 691.603,-215.394"/>
<text text-anchor="middle" x="732.397" y="-231.8" font-family="Times,serif" font-size="14.00">1 (91.7)</text>
</g>
<!-- 03 (a)&#45;&gt;02 (a) -->
<g id="edge8" class="edge"><title>03 (a)&#45;&gt;02 (a)</title>
<path fill="none" stroke="#b43f3f" d="M758.397,-260.799C758.397,-249.163 758.397,-233.548 758.397,-220.237"/>
<polygon fill="#b43f3f" stroke="#b43f3f" points="761.897,-220.175 758.397,-210.175 754.897,-220.175 761.897,-220.175"/>
<text text-anchor="middle" x="780.397" y="-231.8" font-family="Times,serif" font-size="14.00">1 (86.5)</text>
</g>
<!-- 044 (a) -->
<g id="node24" class="node"><title>044 (a)</title>
<ellipse fill="#ff8a8a" stroke="#b43f3f" cx="844.397" cy="-192" rx="36.2938" ry="18"/>
<text text-anchor="middle" x="844.397" y="-188.3" font-family="Times,serif" font-size="14.00">044 (a)</text>
</g>
<!-- 03 (a)&#45;&gt;044 (a) -->
<g id="edge6" class="edge"><title>03 (a)&#45;&gt;044 (a)</title>
<path fill="none" stroke="#b43f3f" d="M779.044,-264.912C787.93,-258.796 798.148,-251.086 806.397,-243 814.221,-235.329 821.759,-225.975 828.029,-217.442"/>
<polygon fill="#b43f3f" stroke="#b43f3f" points="830.894,-219.452 833.84,-209.275 825.191,-215.394 830.894,-219.452"/>
<text text-anchor="middle" x="841.397" y="-231.8" font-family="Times,serif" font-size="14.00">1 (89.2)</text>
</g>
<!-- 038 (a) -->
<g id="node11" class="node"><title>038 (a)</title>
<ellipse fill="#ff8a8a" stroke="#b43f3f" cx="491.397" cy="-18" rx="36.2938" ry="18"/>
<text text-anchor="middle" x="491.397" y="-14.3" font-family="Times,serif" font-size="14.00">038 (a)</text>
</g>
<!-- 019 (a) -->
<g id="node13" class="node"><title>019 (a)</title>
<ellipse fill="#ff8a8a" stroke="#b43f3f" cx="435.397" cy="-279" rx="36.2938" ry="18"/>
<text text-anchor="middle" x="435.397" y="-275.3" font-family="Times,serif" font-size="14.00">019 (a)</text>
</g>
<!-- 063 (a) -->
<g id="node19" class="node"><title>063 (a)</title>
<ellipse fill="#ff8a8a" stroke="#b43f3f" cx="435.397" cy="-192" rx="36.2938" ry="18"/>
<text text-anchor="middle" x="435.397" y="-188.3" font-family="Times,serif" font-size="14.00">063 (a)</text>
</g>
<!-- 019 (a)&#45;&gt;063 (a) -->
<g id="edge9" class="edge"><title>019 (a)&#45;&gt;063 (a)</title>
<path fill="none" stroke="#b43f3f" d="M435.397,-260.799C435.397,-249.163 435.397,-233.548 435.397,-220.237"/>
<polygon fill="#b43f3f" stroke="#b43f3f" points="438.897,-220.175 435.397,-210.175 431.897,-220.175 438.897,-220.175"/>
<text text-anchor="middle" x="457.397" y="-231.8" font-family="Times,serif" font-size="14.00">1 (85.7)</text>
</g>
<!-- 0141 (a) -->
<g id="node14" class="node"><title>0141 (a)</title>
<ellipse fill="#ff8a8a" stroke="#b43f3f" cx="844.397" cy="-105" rx="40.0939" ry="18"/>
<text text-anchor="middle" x="844.397" y="-101.3" font-family="Times,serif" font-size="14.00">0141 (a)</text>
</g>
<!-- 0211 (b) -->
<g id="node15" class="node"><title>0211 (b)</title>
<ellipse fill="#cea8f4" stroke="#835da9" cx="931.397" cy="-279" rx="40.8928" ry="18"/>
<text text-anchor="middle" x="931.397" y="-275.3" font-family="Times,serif" font-size="14.00">0211 (b)</text>
</g>
<!-- 01 (b) -->
<g id="node18" class="node"><title>01 (b)</title>
<ellipse fill="#cea8f4" stroke="#835da9" cx="931.397" cy="-192" rx="32.4942" ry="18"/>
<text text-anchor="middle" x="931.397" y="-188.3" font-family="Times,serif" font-size="14.00">01 (b)</text>
</g>
<!-- 0211 (b)&#45;&gt;01 (b) -->
<g id="edge10" class="edge"><title>0211 (b)&#45;&gt;01 (b)</title>
<path fill="none" stroke="#835da9" d="M931.397,-260.799C931.397,-249.163 931.397,-233.548 931.397,-220.237"/>
<polygon fill="#835da9" stroke="#835da9" points="934.897,-220.175 931.397,-210.175 927.897,-220.175 934.897,-220.175"/>
<text text-anchor="middle" x="956.897" y="-231.8" font-family="Times,serif" font-size="14.00">17 (39.5)</text>
</g>
<!-- 011 (a) -->
<g id="node16" class="node"><title>011 (a)</title>
<ellipse fill="#ff8a8a" stroke="#b43f3f" cx="395.397" cy="-105" rx="36.2938" ry="18"/>
<text text-anchor="middle" x="395.397" y="-101.3" font-family="Times,serif" font-size="14.00">011 (a)</text>
</g>
<!-- 045 (a) -->
<g id="node17" class="node"><title>045 (a)</title>
<ellipse fill="#ff8a8a" stroke="#b43f3f" cx="486.397" cy="-105" rx="36.2938" ry="18"/>
<text text-anchor="middle" x="486.397" y="-101.3" font-family="Times,serif" font-size="14.00">045 (a)</text>
</g>
<!-- 045 (a)&#45;&gt;038 (a) -->
<g id="edge11" class="edge"><title>045 (a)&#45;&gt;038 (a)</title>
<path fill="none" stroke="#b43f3f" d="M487.409,-86.799C488.093,-75.1626 489.012,-59.5479 489.795,-46.2368"/>
<polygon fill="#b43f3f" stroke="#b43f3f" points="493.293,-46.3637 490.386,-36.1754 486.305,-45.9526 493.293,-46.3637"/>
<text text-anchor="middle" x="511.397" y="-57.8" font-family="Times,serif" font-size="14.00">1 (92.7)</text>
</g>
<!-- 063 (a)&#45;&gt;021 (a) -->
<g id="edge16" class="edge"><title>063 (a)&#45;&gt;021 (a)</title>
<path fill="none" stroke="#b43f3f" d="M402.947,-183.675C373.672,-176.933 329.488,-166.426 291.397,-156 248.596,-144.285 200.03,-129.258 166.926,-118.75"/>
<polygon fill="#b43f3f" stroke="#b43f3f" points="167.764,-115.343 157.173,-115.642 165.639,-122.013 167.764,-115.343"/>
<text text-anchor="middle" x="313.397" y="-144.8" font-family="Times,serif" font-size="14.00">1 (93.1)</text>
</g>
<!-- 063 (a)&#45;&gt;07 (a) -->
<g id="edge15" class="edge"><title>063 (a)&#45;&gt;07 (a)</title>
<path fill="none" stroke="#b43f3f" d="M405.728,-181.388C389.947,-175.471 370.699,-166.918 355.397,-156 345.252,-148.762 335.645,-138.981 327.861,-129.99"/>
<polygon fill="#b43f3f" stroke="#b43f3f" points="330.345,-127.503 321.261,-122.05 324.962,-131.978 330.345,-127.503"/>
<text text-anchor="middle" x="377.397" y="-144.8" font-family="Times,serif" font-size="14.00">1 (96.6)</text>
</g>
<!-- 063 (a)&#45;&gt;011 (a) -->
<g id="edge14" class="edge"><title>063 (a)&#45;&gt;011 (a)</title>
<path fill="none" stroke="#b43f3f" d="M421.02,-175.178C416.439,-169.465 411.707,-162.753 408.397,-156 404.923,-148.913 402.301,-140.79 400.356,-133.18"/>
<polygon fill="#b43f3f" stroke="#b43f3f" points="403.733,-132.246 398.107,-123.268 396.907,-133.795 403.733,-132.246"/>
<text text-anchor="middle" x="430.397" y="-144.8" font-family="Times,serif" font-size="14.00">1 (93.1)</text>
</g>
<!-- 063 (a)&#45;&gt;045 (a) -->
<g id="edge12" class="edge"><title>063 (a)&#45;&gt;045 (a)</title>
<path fill="none" stroke="#b43f3f" d="M445.23,-174.611C452.638,-162.264 462.927,-145.117 471.365,-131.053"/>
<polygon fill="#b43f3f" stroke="#b43f3f" points="474.45,-132.714 476.594,-122.339 468.447,-129.113 474.45,-132.714"/>
<text text-anchor="middle" x="486.397" y="-144.8" font-family="Times,serif" font-size="14.00">1 (93.1)</text>
</g>
<!-- 028 (a) -->
<g id="node21" class="node"><title>028 (a)</title>
<ellipse fill="#ff8a8a" stroke="#b43f3f" cx="577.397" cy="-105" rx="36.2938" ry="18"/>
<text text-anchor="middle" x="577.397" y="-101.3" font-family="Times,serif" font-size="14.00">028 (a)</text>
</g>
<!-- 063 (a)&#45;&gt;028 (a) -->
<g id="edge13" class="edge"><title>063 (a)&#45;&gt;028 (a)</title>
<path fill="none" stroke="#b43f3f" d="M463.253,-180.161C478.237,-173.885 496.79,-165.38 512.397,-156 526.242,-147.679 540.583,-136.912 552.26,-127.502"/>
<polygon fill="#b43f3f" stroke="#b43f3f" points="554.74,-129.995 560.247,-120.944 550.298,-124.585 554.74,-129.995"/>
<text text-anchor="middle" x="555.397" y="-144.8" font-family="Times,serif" font-size="14.00">1 (96.6)</text>
</g>
<!-- 031 (a) -->
<g id="node25" class="node"><title>031 (a)</title>
<ellipse fill="#ff8a8a" stroke="#b43f3f" cx="668.397" cy="-105" rx="36.2938" ry="18"/>
<text text-anchor="middle" x="668.397" y="-101.3" font-family="Times,serif" font-size="14.00">031 (a)</text>
</g>
<!-- 063 (a)&#45;&gt;031 (a) -->
<g id="edge17" class="edge"><title>063 (a)&#45;&gt;031 (a)</title>
<path fill="none" stroke="#b43f3f" d="M469.581,-185.665C499.72,-180.296 544.46,-170.687 581.397,-156 601.612,-147.962 622.806,-135.869 639.215,-125.589"/>
<polygon fill="#b43f3f" stroke="#b43f3f" points="641.26,-128.436 647.801,-120.102 637.49,-122.537 641.26,-128.436"/>
<text text-anchor="middle" x="633.397" y="-144.8" font-family="Times,serif" font-size="14.00">1 (95.8)</text>
</g>
<!-- 022 (a) -->
<g id="node22" class="node"><title>022 (a)</title>
<ellipse fill="#ff8a8a" stroke="#b43f3f" cx="939.397" cy="-105" rx="36.2938" ry="18"/>
<text text-anchor="middle" x="939.397" y="-101.3" font-family="Times,serif" font-size="14.00">022 (a)</text>
</g>
<!-- 044 (a)&#45;&gt;05 (a) -->
<g id="edge20" class="edge"><title>044 (a)&#45;&gt;05 (a)</title>
<path fill="none" stroke="#b43f3f" d="M822.981,-177.054C814.354,-171.018 804.538,-163.601 796.397,-156 787.982,-148.144 779.635,-138.653 772.625,-130.06"/>
<polygon fill="#b43f3f" stroke="#b43f3f" points="775.32,-127.827 766.356,-122.18 769.842,-132.185 775.32,-127.827"/>
<text text-anchor="middle" x="818.397" y="-144.8" font-family="Times,serif" font-size="14.00">3 (76.7)</text>
</g>
<!-- 044 (a)&#45;&gt;0141 (a) -->
<g id="edge19" class="edge"><title>044 (a)&#45;&gt;0141 (a)</title>
<path fill="none" stroke="#b43f3f" d="M844.397,-173.799C844.397,-162.163 844.397,-146.548 844.397,-133.237"/>
<polygon fill="#b43f3f" stroke="#b43f3f" points="847.897,-133.175 844.397,-123.175 840.897,-133.175 847.897,-133.175"/>
<text text-anchor="middle" x="866.397" y="-144.8" font-family="Times,serif" font-size="14.00">1 (89.2)</text>
</g>
<!-- 044 (a)&#45;&gt;022 (a) -->
<g id="edge18" class="edge"><title>044 (a)&#45;&gt;022 (a)</title>
<path fill="none" stroke="#b43f3f" d="M865.127,-177.159C873.833,-171.025 883.891,-163.508 892.397,-156 901.56,-147.911 910.927,-138.276 918.863,-129.632"/>
<polygon fill="#b43f3f" stroke="#b43f3f" points="921.606,-131.816 925.702,-122.045 916.407,-127.129 921.606,-131.816"/>
<text text-anchor="middle" x="930.397" y="-144.8" font-family="Times,serif" font-size="14.00">1 (91.7)</text>
</g>
<!-- 031 (a)&#45;&gt;013 (a) -->
<g id="edge21" class="edge"><title>031 (a)&#45;&gt;013 (a)</title>
<path fill="none" stroke="#b43f3f" d="M659.752,-87.2851C656.773,-81.501 653.425,-74.9722 650.397,-69 646.402,-61.1233 642.089,-52.5285 638.188,-44.7215"/>
<polygon fill="#b43f3f" stroke="#b43f3f" points="641.278,-43.0767 633.683,-35.6905 635.015,-46.2013 641.278,-43.0767"/>
<text text-anchor="middle" x="672.397" y="-57.8" font-family="Times,serif" font-size="14.00">1 (97.1)</text>
</g>
<!-- 031 (a)&#45;&gt;017 (a) -->
<g id="edge22" class="edge"><title>031 (a)&#45;&gt;017 (a)</title>
<path fill="none" stroke="#b43f3f" d="M681.355,-88.1391C685.792,-82.3156 690.592,-75.5436 694.397,-69 698.687,-61.6215 702.68,-53.2512 706.055,-45.4984"/>
<polygon fill="#b43f3f" stroke="#b43f3f" points="709.343,-46.7057 709.973,-36.1296 702.886,-44.0044 709.343,-46.7057"/>
<text text-anchor="middle" x="724.397" y="-57.8" font-family="Times,serif" font-size="14.00">1 (94.3)</text>
</g>
</g>
</svg>
