<?xml version="1.0" encoding="UTF-8" standalone="no"?>
<!DOCTYPE svg PUBLIC "-//W3C//DTD SVG 1.1//EN"
 "http://www.w3.org/Graphics/SVG/1.1/DTD/svg11.dtd">
<!-- Generated by graphviz version 2.38.0 (20140413.2041)
 -->
<!-- Title: %3 Pages: 1 -->
<svg width="903pt" height="408pt"
 viewBox="0.00 0.00 903.34 408.00" xmlns="http://www.w3.org/2000/svg" xmlns:xlink="http://www.w3.org/1999/xlink">
<g id="graph0" class="graph" transform="scale(1 1) rotate(0) translate(4 404)">
<title>%3</title>
<polygon fill="white" stroke="none" points="-4,4 -4,-404 899.343,-404 899.343,4 -4,4"/>
<g id="clust1" class="cluster"><title>cluster_legend</title>
<path fill="none" stroke="black" d="M243.397,-264C243.397,-264 433.397,-264 433.397,-264 439.397,-264 445.397,-270 445.397,-276 445.397,-276 445.397,-380 445.397,-380 445.397,-386 439.397,-392 433.397,-392 433.397,-392 243.397,-392 243.397,-392 237.397,-392 231.397,-386 231.397,-380 231.397,-380 231.397,-276 231.397,-276 231.397,-270 237.397,-264 243.397,-264"/>
</g>
<!-- leg_s -->
<g id="node1" class="node"><title>leg_s</title>
<text text-anchor="middle" x="338.397" y="-362.3" font-family="Times,serif" font-size="14.00">Textual flow strength</text>
</g>
<!-- leg_e1 -->
<!-- leg_s&#45;&gt;leg_e1 -->
<g id="edge1" class="edge"><title>leg_s&#45;&gt;leg_e1</title>
<path fill="none" stroke="black" stroke-dasharray="1,5" d="M320.062,-347.686C314.529,-342.194 308.557,-335.989 303.397,-330 293.568,-318.593 283.469,-304.779 276.31,-294.563"/>
<polygon fill="black" stroke="black" points="279.011,-292.314 270.453,-286.068 273.248,-296.288 279.011,-292.314"/>
<text text-anchor="middle" x="318.897" y="-318.8" font-family="Times,serif" font-size="14.00">&lt;=5 &#160;</text>
</g>
<!-- leg_e2 -->
<!-- leg_s&#45;&gt;leg_e2 -->
<g id="edge2" class="edge"><title>leg_s&#45;&gt;leg_e2</title>
<path fill="none" stroke="black" stroke-dasharray="5,2" d="M338.397,-347.799C338.397,-332.794 338.397,-311.174 338.397,-296.409"/>
<polygon fill="black" stroke="black" points="341.897,-296.293 338.397,-286.293 334.897,-296.293 341.897,-296.293"/>
<text text-anchor="middle" x="357.397" y="-318.8" font-family="Times,serif" font-size="14.00"> &#160;&lt;=25</text>
</g>
<!-- leg_e3 -->
<!-- leg_s&#45;&gt;leg_e3 -->
<g id="edge3" class="edge"><title>leg_s&#45;&gt;leg_e3</title>
<path fill="none" stroke="black" d="M361.9,-347.76C368.303,-342.462 374.963,-336.344 380.397,-330 389.484,-319.39 397.492,-305.689 402.943,-295.313"/>
<polygon fill="black" stroke="black" points="406.119,-296.789 407.488,-286.283 399.866,-293.642 406.119,-296.789"/>
<text text-anchor="middle" x="402.397" y="-318.8" font-family="Times,serif" font-size="14.00">&gt;25</text>
</g>
<!-- 044 -->
<g id="node5" class="node"><title>044</title>
<ellipse fill="#ff8a8a" stroke="#b43f3f" cx="491.397" cy="-279" rx="36.2938" ry="18"/>
<text text-anchor="middle" x="491.397" y="-275.3" font-family="Times,serif" font-size="14.00">044 (a)</text>
</g>
<!-- 07 -->
<g id="node6" class="node"><title>07</title>
<ellipse fill="#ff8a8a" stroke="#b43f3f" cx="156.397" cy="-192" rx="31.6951" ry="18"/>
<text text-anchor="middle" x="156.397" y="-188.3" font-family="Times,serif" font-size="14.00">07 (a)</text>
</g>
<!-- 044&#45;&gt;07 -->
<g id="edge4" class="edge"><title>044&#45;&gt;07</title>
<path fill="none" stroke="#b43f3f" stroke-dasharray="1,5" d="M465.536,-266.328C460.277,-264.299 454.723,-262.396 449.397,-261 388.711,-245.1 370.593,-256.805 309.397,-243 268.072,-233.678 222.039,-217.864 191.364,-206.515"/>
<polygon fill="#b43f3f" stroke="#b43f3f" points="192.563,-203.226 181.97,-203.001 190.11,-209.782 192.563,-203.226"/>
<text text-anchor="middle" x="331.397" y="-231.8" font-family="Times,serif" font-size="14.00">2 (83.8)</text>
</g>
<!-- 028 -->
<g id="node7" class="node"><title>028</title>
<ellipse fill="#ff8a8a" stroke="#b43f3f" cx="309.397" cy="-192" rx="36.2938" ry="18"/>
<text text-anchor="middle" x="309.397" y="-188.3" font-family="Times,serif" font-size="14.00">028 (a)</text>
</g>
<!-- 044&#45;&gt;028 -->
<g id="edge5" class="edge"><title>044&#45;&gt;028</title>
<path fill="none" stroke="#b43f3f" stroke-dasharray="1,5" d="M464.467,-266.535C459.495,-264.58 454.319,-262.651 449.397,-261 420.163,-251.197 410.404,-255.896 382.397,-243 365.8,-235.358 348.867,-224.024 335.492,-214.077"/>
<polygon fill="#b43f3f" stroke="#b43f3f" points="337.33,-211.077 327.257,-207.795 333.084,-216.643 337.33,-211.077"/>
<text text-anchor="middle" x="404.397" y="-231.8" font-family="Times,serif" font-size="14.00">2 (81.1)</text>
</g>
<!-- 021 -->
<g id="node8" class="node"><title>021</title>
<ellipse fill="#ff8a8a" stroke="#b43f3f" cx="400.397" cy="-192" rx="36.2938" ry="18"/>
<text text-anchor="middle" x="400.397" y="-188.3" font-family="Times,serif" font-size="14.00">021 (a)</text>
</g>
<!-- 044&#45;&gt;021 -->
<g id="edge6" class="edge"><title>044&#45;&gt;021</title>
<path fill="none" stroke="#b43f3f" stroke-dasharray="1,5" d="M470.025,-264.006C461.404,-257.963 451.582,-250.554 443.397,-243 434.853,-235.115 426.321,-225.619 419.136,-217.029"/>
<polygon fill="#b43f3f" stroke="#b43f3f" points="421.741,-214.685 412.704,-209.155 416.32,-219.113 421.741,-214.685"/>
<text text-anchor="middle" x="465.397" y="-231.8" font-family="Times,serif" font-size="14.00">2 (83.8)</text>
</g>
<!-- 045 -->
<g id="node9" class="node"><title>045</title>
<ellipse fill="#ff8a8a" stroke="#b43f3f" cx="491.397" cy="-192" rx="36.2938" ry="18"/>
<text text-anchor="middle" x="491.397" y="-188.3" font-family="Times,serif" font-size="14.00">045 (a)</text>
</g>
<!-- 044&#45;&gt;045 -->
<g id="edge7" class="edge"><title>044&#45;&gt;045</title>
<path fill="none" stroke="#b43f3f" stroke-dasharray="1,5" d="M491.397,-260.799C491.397,-249.163 491.397,-233.548 491.397,-220.237"/>
<polygon fill="#b43f3f" stroke="#b43f3f" points="494.897,-220.175 491.397,-210.175 487.897,-220.175 494.897,-220.175"/>
<text text-anchor="middle" x="513.397" y="-231.8" font-family="Times,serif" font-size="14.00">2 (81.1)</text>
</g>
<!-- 022 -->
<g id="node10" class="node"><title>022</title>
<ellipse fill="#ff8a8a" stroke="#b43f3f" cx="582.397" cy="-192" rx="36.2938" ry="18"/>
<text text-anchor="middle" x="582.397" y="-188.3" font-family="Times,serif" font-size="14.00">022 (a)</text>
</g>
<!-- 044&#45;&gt;022 -->
<g id="edge8" class="edge"><title>044&#45;&gt;022</title>
<path fill="none" stroke="#b43f3f" stroke-dasharray="1,5" d="M512.768,-264.006C521.389,-257.963 531.211,-250.554 539.397,-243 547.941,-235.115 556.472,-225.619 563.657,-217.029"/>
<polygon fill="#b43f3f" stroke="#b43f3f" points="566.474,-219.113 570.089,-209.155 561.053,-214.685 566.474,-219.113"/>
<text text-anchor="middle" x="575.397" y="-231.8" font-family="Times,serif" font-size="14.00">1 (91.7)</text>
</g>
<!-- 011 -->
<g id="node11" class="node"><title>011</title>
<ellipse fill="#ff8a8a" stroke="#b43f3f" cx="673.397" cy="-192" rx="36.2938" ry="18"/>
<text text-anchor="middle" x="673.397" y="-188.3" font-family="Times,serif" font-size="14.00">011 (a)</text>
</g>
<!-- 044&#45;&gt;011 -->
<g id="edge9" class="edge"><title>044&#45;&gt;011</title>
<path fill="none" stroke="#b43f3f" stroke-dasharray="1,5" d="M519.492,-267.213C525.377,-265.067 531.567,-262.894 537.397,-261 565.499,-251.871 574.67,-255.601 601.397,-243 617.657,-235.334 634.241,-224.096 647.388,-214.216"/>
<polygon fill="#b43f3f" stroke="#b43f3f" points="649.709,-216.847 655.494,-207.97 645.436,-211.302 649.709,-216.847"/>
<text text-anchor="middle" x="649.397" y="-231.8" font-family="Times,serif" font-size="14.00">2 (86.5)</text>
</g>
<!-- 0141 -->
<g id="node12" class="node"><title>0141</title>
<ellipse fill="#ff8a8a" stroke="#b43f3f" cx="768.397" cy="-192" rx="40.0939" ry="18"/>
<text text-anchor="middle" x="768.397" y="-188.3" font-family="Times,serif" font-size="14.00">0141 (a)</text>
</g>
<!-- 044&#45;&gt;0141 -->
<g id="edge10" class="edge"><title>044&#45;&gt;0141</title>
<path fill="none" stroke="#b43f3f" stroke-dasharray="1,5" d="M518.813,-266.728C524.856,-264.566 531.28,-262.509 537.397,-261 597.45,-246.186 616.521,-261.957 675.397,-243 697.537,-235.871 720.576,-223.526 738.184,-212.887"/>
<polygon fill="#b43f3f" stroke="#b43f3f" points="740.202,-215.754 746.864,-207.515 736.518,-209.802 740.202,-215.754"/>
<text text-anchor="middle" x="732.397" y="-231.8" font-family="Times,serif" font-size="14.00">1 (89.2)</text>
</g>
<!-- 037 -->
<g id="node13" class="node"><title>037</title>
<ellipse fill="#ff8a8a" stroke="#b43f3f" cx="36.3968" cy="-105" rx="36.2938" ry="18"/>
<text text-anchor="middle" x="36.3968" y="-101.3" font-family="Times,serif" font-size="14.00">037 (a)</text>
</g>
<!-- 07&#45;&gt;037 -->
<g id="edge11" class="edge"><title>07&#45;&gt;037</title>
<path fill="none" stroke="#b43f3f" stroke-dasharray="1,5" d="M132.827,-179.749C120.394,-173.413 105.123,-164.983 92.3968,-156 80.802,-147.816 68.9391,-137.548 59.134,-128.449"/>
<polygon fill="#b43f3f" stroke="#b43f3f" points="61.4246,-125.798 51.7561,-121.465 56.6124,-130.882 61.4246,-125.798"/>
<text text-anchor="middle" x="114.397" y="-144.8" font-family="Times,serif" font-size="14.00">1 (97.5)</text>
</g>
<!-- 030 -->
<g id="node14" class="node"><title>030</title>
<ellipse fill="#ff8a8a" stroke="#b43f3f" cx="127.397" cy="-105" rx="36.2938" ry="18"/>
<text text-anchor="middle" x="127.397" y="-101.3" font-family="Times,serif" font-size="14.00">030 (a)</text>
</g>
<!-- 07&#45;&gt;030 -->
<g id="edge12" class="edge"><title>07&#45;&gt;030</title>
<path fill="none" stroke="#b43f3f" stroke-dasharray="1,5" d="M150.667,-174.207C146.642,-162.409 141.173,-146.378 136.548,-132.822"/>
<polygon fill="#b43f3f" stroke="#b43f3f" points="139.755,-131.383 133.214,-123.049 133.13,-133.644 139.755,-131.383"/>
<text text-anchor="middle" x="166.397" y="-144.8" font-family="Times,serif" font-size="14.00">1 (95.1)</text>
</g>
<!-- 034 -->
<g id="node15" class="node"><title>034</title>
<ellipse fill="#ff8a8a" stroke="#b43f3f" cx="218.397" cy="-105" rx="36.2938" ry="18"/>
<text text-anchor="middle" x="218.397" y="-101.3" font-family="Times,serif" font-size="14.00">034 (a)</text>
</g>
<!-- 07&#45;&gt;034 -->
<g id="edge13" class="edge"><title>07&#45;&gt;034</title>
<path fill="none" stroke="#b43f3f" stroke-dasharray="1,5" d="M173.312,-176.669C179.763,-170.689 186.882,-163.414 192.397,-156 197.853,-148.665 202.789,-140.023 206.859,-132.006"/>
<polygon fill="#b43f3f" stroke="#b43f3f" points="210.013,-133.523 211.218,-122.997 203.712,-130.475 210.013,-133.523"/>
<text text-anchor="middle" x="224.397" y="-144.8" font-family="Times,serif" font-size="14.00">1 (95.1)</text>
</g>
<!-- 036 -->
<g id="node16" class="node"><title>036</title>
<ellipse fill="#ff8a8a" stroke="#b43f3f" cx="309.397" cy="-105" rx="36.2938" ry="18"/>
<text text-anchor="middle" x="309.397" y="-101.3" font-family="Times,serif" font-size="14.00">036 (a)</text>
</g>
<!-- 021&#45;&gt;036 -->
<g id="edge14" class="edge"><title>021&#45;&gt;036</title>
<path fill="none" stroke="#b43f3f" stroke-dasharray="1,5" d="M379.025,-177.006C370.404,-170.963 360.582,-163.554 352.397,-156 343.853,-148.115 335.321,-138.619 328.136,-130.029"/>
<polygon fill="#b43f3f" stroke="#b43f3f" points="330.741,-127.685 321.704,-122.155 325.32,-132.113 330.741,-127.685"/>
<text text-anchor="middle" x="374.397" y="-144.8" font-family="Times,serif" font-size="14.00">1 (97.6)</text>
</g>
<!-- 047 -->
<g id="node17" class="node"><title>047</title>
<ellipse fill="#ff8a8a" stroke="#b43f3f" cx="400.397" cy="-105" rx="36.2938" ry="18"/>
<text text-anchor="middle" x="400.397" y="-101.3" font-family="Times,serif" font-size="14.00">047 (a)</text>
</g>
<!-- 021&#45;&gt;047 -->
<g id="edge15" class="edge"><title>021&#45;&gt;047</title>
<path fill="none" stroke="#b43f3f" stroke-dasharray="1,5" d="M400.397,-173.799C400.397,-162.163 400.397,-146.548 400.397,-133.237"/>
<polygon fill="#b43f3f" stroke="#b43f3f" points="403.897,-133.175 400.397,-123.175 396.897,-133.175 403.897,-133.175"/>
<text text-anchor="middle" x="422.397" y="-144.8" font-family="Times,serif" font-size="14.00">1 (95.1)</text>
</g>
<!-- 038 -->
<g id="node21" class="node"><title>038</title>
<ellipse fill="#ff8a8a" stroke="#b43f3f" cx="491.397" cy="-105" rx="36.2938" ry="18"/>
<text text-anchor="middle" x="491.397" y="-101.3" font-family="Times,serif" font-size="14.00">038 (a)</text>
</g>
<!-- 045&#45;&gt;038 -->
<g id="edge19" class="edge"><title>045&#45;&gt;038</title>
<path fill="none" stroke="#b43f3f" stroke-dasharray="1,5" d="M491.397,-173.799C491.397,-162.163 491.397,-146.548 491.397,-133.237"/>
<polygon fill="#b43f3f" stroke="#b43f3f" points="494.897,-133.175 491.397,-123.175 487.897,-133.175 494.897,-133.175"/>
<text text-anchor="middle" x="513.397" y="-144.8" font-family="Times,serif" font-size="14.00">1 (92.7)</text>
</g>
<!-- 031 -->
<g id="node22" class="node"><title>031</title>
<ellipse fill="#ff8a8a" stroke="#b43f3f" cx="582.397" cy="-105" rx="36.2938" ry="18"/>
<text text-anchor="middle" x="582.397" y="-101.3" font-family="Times,serif" font-size="14.00">031 (a)</text>
</g>
<!-- 022&#45;&gt;031 -->
<g id="edge23" class="edge"><title>022&#45;&gt;031</title>
<path fill="none" stroke="#b43f3f" stroke-dasharray="1,5" d="M582.397,-173.799C582.397,-162.163 582.397,-146.548 582.397,-133.237"/>
<polygon fill="#b43f3f" stroke="#b43f3f" points="585.897,-133.175 582.397,-123.175 578.897,-133.175 585.897,-133.175"/>
<text text-anchor="middle" x="604.397" y="-144.8" font-family="Times,serif" font-size="14.00">2 (86.7)</text>
</g>
<!-- 03 -->
<g id="node18" class="node"><title>03</title>
<ellipse fill="#ff8a8a" stroke="#b43f3f" cx="582.397" cy="-366" rx="31.6951" ry="18"/>
<text text-anchor="middle" x="582.397" y="-362.3" font-family="Times,serif" font-size="14.00">03 (a)</text>
</g>
<!-- 03&#45;&gt;044 -->
<g id="edge16" class="edge"><title>03&#45;&gt;044</title>
<path fill="none" stroke="#b43f3f" stroke-dasharray="1,5" d="M561.978,-351.672C553.134,-345.512 542.886,-337.834 534.397,-330 525.853,-322.115 517.321,-312.619 510.136,-304.029"/>
<polygon fill="#b43f3f" stroke="#b43f3f" points="512.741,-301.685 503.704,-296.155 507.32,-306.113 512.741,-301.685"/>
<text text-anchor="middle" x="556.397" y="-318.8" font-family="Times,serif" font-size="14.00">1 (89.2)</text>
</g>
<!-- 032 -->
<g id="node19" class="node"><title>032</title>
<ellipse fill="#ff8a8a" stroke="#b43f3f" cx="582.397" cy="-279" rx="36.2938" ry="18"/>
<text text-anchor="middle" x="582.397" y="-275.3" font-family="Times,serif" font-size="14.00">032 (a)</text>
</g>
<!-- 03&#45;&gt;032 -->
<g id="edge17" class="edge"><title>03&#45;&gt;032</title>
<path fill="none" stroke="#b43f3f" stroke-dasharray="1,5" d="M582.397,-347.799C582.397,-336.163 582.397,-320.548 582.397,-307.237"/>
<polygon fill="#b43f3f" stroke="#b43f3f" points="585.897,-307.175 582.397,-297.175 578.897,-307.175 585.897,-307.175"/>
<text text-anchor="middle" x="604.397" y="-318.8" font-family="Times,serif" font-size="14.00">1 (91.7)</text>
</g>
<!-- 02 -->
<g id="node20" class="node"><title>02</title>
<ellipse fill="#ff8a8a" stroke="#b43f3f" cx="668.397" cy="-279" rx="31.6951" ry="18"/>
<text text-anchor="middle" x="668.397" y="-275.3" font-family="Times,serif" font-size="14.00">02 (a)</text>
</g>
<!-- 03&#45;&gt;02 -->
<g id="edge18" class="edge"><title>03&#45;&gt;02</title>
<path fill="none" stroke="#b43f3f" stroke-dasharray="1,5" d="M603.044,-351.912C611.93,-345.796 622.148,-338.086 630.397,-330 638.221,-322.329 645.759,-312.975 652.029,-304.442"/>
<polygon fill="#b43f3f" stroke="#b43f3f" points="654.894,-306.452 657.84,-296.275 649.191,-302.394 654.894,-306.452"/>
<text text-anchor="middle" x="665.397" y="-318.8" font-family="Times,serif" font-size="14.00">1 (86.5)</text>
</g>
<!-- 017 -->
<g id="node23" class="node"><title>017</title>
<ellipse fill="#ff8a8a" stroke="#b43f3f" cx="491.397" cy="-18" rx="36.2938" ry="18"/>
<text text-anchor="middle" x="491.397" y="-14.3" font-family="Times,serif" font-size="14.00">017 (a)</text>
</g>
<!-- 031&#45;&gt;017 -->
<g id="edge20" class="edge"><title>031&#45;&gt;017</title>
<path fill="none" stroke="#b43f3f" stroke-dasharray="1,5" d="M561.025,-90.006C552.404,-83.9634 542.582,-76.5539 534.397,-69 525.853,-61.1154 517.321,-51.6186 510.136,-43.0293"/>
<polygon fill="#b43f3f" stroke="#b43f3f" points="512.741,-40.6853 503.704,-35.1545 507.32,-45.1135 512.741,-40.6853"/>
<text text-anchor="middle" x="556.397" y="-57.8" font-family="Times,serif" font-size="14.00">1 (94.3)</text>
</g>
<!-- 013 -->
<g id="node24" class="node"><title>013</title>
<ellipse fill="#ff8a8a" stroke="#b43f3f" cx="582.397" cy="-18" rx="36.2938" ry="18"/>
<text text-anchor="middle" x="582.397" y="-14.3" font-family="Times,serif" font-size="14.00">013 (a)</text>
</g>
<!-- 031&#45;&gt;013 -->
<g id="edge21" class="edge"><title>031&#45;&gt;013</title>
<path fill="none" stroke="#b43f3f" stroke-dasharray="1,5" d="M582.397,-86.799C582.397,-75.1626 582.397,-59.5479 582.397,-46.2368"/>
<polygon fill="#b43f3f" stroke="#b43f3f" points="585.897,-46.1754 582.397,-36.1754 578.897,-46.1755 585.897,-46.1754"/>
<text text-anchor="middle" x="604.397" y="-57.8" font-family="Times,serif" font-size="14.00">1 (97.1)</text>
</g>
<!-- 01 -->
<g id="node25" class="node"><title>01</title>
<ellipse fill="#ff8a8a" stroke="#b43f3f" cx="668.397" cy="-18" rx="31.6951" ry="18"/>
<text text-anchor="middle" x="668.397" y="-14.3" font-family="Times,serif" font-size="14.00">01 (a)</text>
</g>
<!-- 031&#45;&gt;01 -->
<g id="edge22" class="edge"><title>031&#45;&gt;01</title>
<path fill="none" stroke="#b43f3f" stroke-dasharray="1,5" d="M604.001,-90.2504C612.657,-84.2452 622.443,-76.7976 630.397,-69 638.221,-61.3291 645.759,-51.9752 652.029,-43.4419"/>
<polygon fill="#b43f3f" stroke="#b43f3f" points="654.894,-45.452 657.84,-35.2749 649.191,-41.3937 654.894,-45.452"/>
<text text-anchor="middle" x="665.397" y="-57.8" font-family="Times,serif" font-size="14.00">2 (48.5)</text>
</g>
<!-- P75 -->
<g id="node26" class="node"><title>P75</title>
<ellipse fill="#ff8a8a" stroke="#b43f3f" cx="668.397" cy="-366" rx="36.2938" ry="18"/>
<text text-anchor="middle" x="668.397" y="-362.3" font-family="Times,serif" font-size="14.00">P75 (a)</text>
</g>
<!-- 019 -->
<g id="node27" class="node"><title>019</title>
<ellipse fill="#ff8a8a" stroke="#b43f3f" cx="759.397" cy="-366" rx="36.2938" ry="18"/>
<text text-anchor="middle" x="759.397" y="-362.3" font-family="Times,serif" font-size="14.00">019 (a)</text>
</g>
<!-- 0211 -->
<g id="node28" class="node"><title>0211</title>
<ellipse fill="#cea8f4" stroke="#835da9" cx="854.397" cy="-366" rx="40.8928" ry="18"/>
<text text-anchor="middle" x="854.397" y="-362.3" font-family="Times,serif" font-size="14.00">0211 (b)</text>
</g>
</g>
</svg>
