<?xml version="1.0" encoding="UTF-8" standalone="no"?>
<!DOCTYPE svg PUBLIC "-//W3C//DTD SVG 1.1//EN"
 "http://www.w3.org/Graphics/SVG/1.1/DTD/svg11.dtd">
<!-- Generated by graphviz version 2.38.0 (20140413.2041)
 -->
<!-- Title: G Pages: 1 -->
<svg width="906pt" height="392pt"
 viewBox="0.00 0.00 905.69 392.00" xmlns="http://www.w3.org/2000/svg" xmlns:xlink="http://www.w3.org/1999/xlink">
<g id="graph0" class="graph" transform="scale(1 1) rotate(0) translate(4 388)">
<title>G</title>
<polygon fill="white" stroke="none" points="-4,4 -4,-388 901.693,-388 901.693,4 -4,4"/>
<!-- 013 (a) -->
<g id="node1" class="node"><title>013 (a)</title>
<ellipse fill="#ff8a8a" stroke="#b43f3f" cx="363.397" cy="-18" rx="36.2938" ry="18"/>
<text text-anchor="middle" x="363.397" y="-14.3" font-family="Times,serif" font-size="14.00">013 (a)</text>
</g>
<!-- 01 (b) -->
<g id="node2" class="node"><title>01 (b)</title>
<ellipse fill="#cea8f4" stroke="#835da9" cx="546.397" cy="-366" rx="32.4942" ry="18"/>
<text text-anchor="middle" x="546.397" y="-362.3" font-family="Times,serif" font-size="14.00">01 (b)</text>
</g>
<!-- 011 (a) -->
<g id="node3" class="node"><title>011 (a)</title>
<ellipse fill="#ff8a8a" stroke="#b43f3f" cx="184.397" cy="-192" rx="36.2938" ry="18"/>
<text text-anchor="middle" x="184.397" y="-188.3" font-family="Times,serif" font-size="14.00">011 (a)</text>
</g>
<!-- 017 (a) -->
<g id="node4" class="node"><title>017 (a)</title>
<ellipse fill="#ff8a8a" stroke="#b43f3f" cx="454.397" cy="-18" rx="36.2938" ry="18"/>
<text text-anchor="middle" x="454.397" y="-14.3" font-family="Times,serif" font-size="14.00">017 (a)</text>
</g>
<!-- 07 (a) -->
<g id="node5" class="node"><title>07 (a)</title>
<ellipse fill="#ff8a8a" stroke="#b43f3f" cx="270.397" cy="-192" rx="31.6951" ry="18"/>
<text text-anchor="middle" x="270.397" y="-188.3" font-family="Times,serif" font-size="14.00">07 (a)</text>
</g>
<!-- 037 (a) -->
<g id="node11" class="node"><title>037 (a)</title>
<ellipse fill="#ff8a8a" stroke="#b43f3f" cx="36.3968" cy="-105" rx="36.2938" ry="18"/>
<text text-anchor="middle" x="36.3968" y="-101.3" font-family="Times,serif" font-size="14.00">037 (a)</text>
</g>
<!-- 07 (a)&#45;&gt;037 (a) -->
<g id="edge4" class="edge"><title>07 (a)&#45;&gt;037 (a)</title>
<path fill="none" stroke="#b43f3f" d="M246.445,-179.986C240.93,-177.755 235.029,-175.605 229.397,-174 181.755,-160.423 165.895,-173.089 119.397,-156 99.7299,-148.772 79.5525,-136.741 64.017,-126.292"/>
<polygon fill="#b43f3f" stroke="#b43f3f" points="65.6624,-123.175 55.4453,-120.371 61.6838,-128.935 65.6624,-123.175"/>
<text text-anchor="middle" x="141.397" y="-144.8" font-family="Times,serif" font-size="14.00">1 (97.5)</text>
</g>
<!-- 034 (a) -->
<g id="node19" class="node"><title>034 (a)</title>
<ellipse fill="#ff8a8a" stroke="#b43f3f" cx="127.397" cy="-105" rx="36.2938" ry="18"/>
<text text-anchor="middle" x="127.397" y="-101.3" font-family="Times,serif" font-size="14.00">034 (a)</text>
</g>
<!-- 07 (a)&#45;&gt;034 (a) -->
<g id="edge2" class="edge"><title>07 (a)&#45;&gt;034 (a)</title>
<path fill="none" stroke="#b43f3f" d="M245.568,-180.603C222.413,-170.876 191.044,-157.605 188.397,-156 175.334,-148.08 162.071,-137.567 151.264,-128.226"/>
<polygon fill="#b43f3f" stroke="#b43f3f" points="153.33,-125.38 143.523,-121.373 148.691,-130.622 153.33,-125.38"/>
<text text-anchor="middle" x="210.397" y="-144.8" font-family="Times,serif" font-size="14.00">1 (95.1)</text>
</g>
<!-- 0211 (a) -->
<g id="node21" class="node"><title>0211 (a)</title>
<ellipse fill="#ff8a8a" stroke="#b43f3f" cx="222.397" cy="-105" rx="40.0939" ry="18"/>
<text text-anchor="middle" x="222.397" y="-101.3" font-family="Times,serif" font-size="14.00">0211 (a)</text>
</g>
<!-- 07 (a)&#45;&gt;0211 (a) -->
<g id="edge3" class="edge"><title>07 (a)&#45;&gt;0211 (a)</title>
<path fill="none" stroke="#b43f3f" d="M257.117,-175.585C252.423,-169.695 247.336,-162.764 243.397,-156 239.132,-148.678 235.271,-140.324 232.056,-132.569"/>
<polygon fill="#b43f3f" stroke="#b43f3f" points="235.279,-131.202 228.348,-123.189 228.77,-133.776 235.279,-131.202"/>
<text text-anchor="middle" x="265.397" y="-144.8" font-family="Times,serif" font-size="14.00">2 (82.9)</text>
</g>
<!-- 030 (a) -->
<g id="node24" class="node"><title>030 (a)</title>
<ellipse fill="#ff8a8a" stroke="#b43f3f" cx="317.397" cy="-105" rx="36.2938" ry="18"/>
<text text-anchor="middle" x="317.397" y="-101.3" font-family="Times,serif" font-size="14.00">030 (a)</text>
</g>
<!-- 07 (a)&#45;&gt;030 (a) -->
<g id="edge1" class="edge"><title>07 (a)&#45;&gt;030 (a)</title>
<path fill="none" stroke="#b43f3f" d="M279.459,-174.611C286.178,-162.46 295.467,-145.66 303.172,-131.725"/>
<polygon fill="#b43f3f" stroke="#b43f3f" points="306.426,-133.073 308.202,-122.629 300.3,-129.686 306.426,-133.073"/>
<text text-anchor="middle" x="319.397" y="-144.8" font-family="Times,serif" font-size="14.00">1 (95.1)</text>
</g>
<!-- 032 (a) -->
<g id="node6" class="node"><title>032 (a)</title>
<ellipse fill="#ff8a8a" stroke="#b43f3f" cx="378.397" cy="-279" rx="36.2938" ry="18"/>
<text text-anchor="middle" x="378.397" y="-275.3" font-family="Times,serif" font-size="14.00">032 (a)</text>
</g>
<!-- 022 (a) -->
<g id="node7" class="node"><title>022 (a)</title>
<ellipse fill="#ff8a8a" stroke="#b43f3f" cx="408.397" cy="-192" rx="36.2938" ry="18"/>
<text text-anchor="middle" x="408.397" y="-188.3" font-family="Times,serif" font-size="14.00">022 (a)</text>
</g>
<!-- 031 (a) -->
<g id="node25" class="node"><title>031 (a)</title>
<ellipse fill="#ff8a8a" stroke="#b43f3f" cx="408.397" cy="-105" rx="36.2938" ry="18"/>
<text text-anchor="middle" x="408.397" y="-101.3" font-family="Times,serif" font-size="14.00">031 (a)</text>
</g>
<!-- 022 (a)&#45;&gt;031 (a) -->
<g id="edge5" class="edge"><title>022 (a)&#45;&gt;031 (a)</title>
<path fill="none" stroke="#b43f3f" d="M408.397,-173.799C408.397,-162.163 408.397,-146.548 408.397,-133.237"/>
<polygon fill="#b43f3f" stroke="#b43f3f" points="411.897,-133.175 408.397,-123.175 404.897,-133.175 411.897,-133.175"/>
<text text-anchor="middle" x="430.397" y="-144.8" font-family="Times,serif" font-size="14.00">2 (86.7)</text>
</g>
<!-- 021 (a) -->
<g id="node8" class="node"><title>021 (a)</title>
<ellipse fill="#ff8a8a" stroke="#b43f3f" cx="499.397" cy="-192" rx="36.2938" ry="18"/>
<text text-anchor="middle" x="499.397" y="-188.3" font-family="Times,serif" font-size="14.00">021 (a)</text>
</g>
<!-- 047 (a) -->
<g id="node10" class="node"><title>047 (a)</title>
<ellipse fill="#ff8a8a" stroke="#b43f3f" cx="499.397" cy="-105" rx="36.2938" ry="18"/>
<text text-anchor="middle" x="499.397" y="-101.3" font-family="Times,serif" font-size="14.00">047 (a)</text>
</g>
<!-- 021 (a)&#45;&gt;047 (a) -->
<g id="edge7" class="edge"><title>021 (a)&#45;&gt;047 (a)</title>
<path fill="none" stroke="#b43f3f" d="M499.397,-173.799C499.397,-162.163 499.397,-146.548 499.397,-133.237"/>
<polygon fill="#b43f3f" stroke="#b43f3f" points="502.897,-133.175 499.397,-123.175 495.897,-133.175 502.897,-133.175"/>
<text text-anchor="middle" x="521.397" y="-144.8" font-family="Times,serif" font-size="14.00">1 (95.1)</text>
</g>
<!-- 036 (a) -->
<g id="node14" class="node"><title>036 (a)</title>
<ellipse fill="#ff8a8a" stroke="#b43f3f" cx="590.397" cy="-105" rx="36.2938" ry="18"/>
<text text-anchor="middle" x="590.397" y="-101.3" font-family="Times,serif" font-size="14.00">036 (a)</text>
</g>
<!-- 021 (a)&#45;&gt;036 (a) -->
<g id="edge6" class="edge"><title>021 (a)&#45;&gt;036 (a)</title>
<path fill="none" stroke="#b43f3f" d="M520.768,-177.006C529.389,-170.963 539.211,-163.554 547.397,-156 555.941,-148.115 564.472,-138.619 571.657,-130.029"/>
<polygon fill="#b43f3f" stroke="#b43f3f" points="574.474,-132.113 578.089,-122.155 569.053,-127.685 574.474,-132.113"/>
<text text-anchor="middle" x="583.397" y="-144.8" font-family="Times,serif" font-size="14.00">1 (97.6)</text>
</g>
<!-- 028 (a) -->
<g id="node9" class="node"><title>028 (a)</title>
<ellipse fill="#ff8a8a" stroke="#b43f3f" cx="590.397" cy="-192" rx="36.2938" ry="18"/>
<text text-anchor="middle" x="590.397" y="-188.3" font-family="Times,serif" font-size="14.00">028 (a)</text>
</g>
<!-- 05 (a) -->
<g id="node12" class="node"><title>05 (a)</title>
<ellipse fill="#ff8a8a" stroke="#b43f3f" cx="676.397" cy="-192" rx="31.6951" ry="18"/>
<text text-anchor="middle" x="676.397" y="-188.3" font-family="Times,serif" font-size="14.00">05 (a)</text>
</g>
<!-- 02 (a) -->
<g id="node13" class="node"><title>02 (a)</title>
<ellipse fill="#ff8a8a" stroke="#b43f3f" cx="464.397" cy="-279" rx="31.6951" ry="18"/>
<text text-anchor="middle" x="464.397" y="-275.3" font-family="Times,serif" font-size="14.00">02 (a)</text>
</g>
<!-- 045 (a) -->
<g id="node15" class="node"><title>045 (a)</title>
<ellipse fill="#ff8a8a" stroke="#b43f3f" cx="762.397" cy="-192" rx="36.2938" ry="18"/>
<text text-anchor="middle" x="762.397" y="-188.3" font-family="Times,serif" font-size="14.00">045 (a)</text>
</g>
<!-- 038 (a) -->
<g id="node18" class="node"><title>038 (a)</title>
<ellipse fill="#ff8a8a" stroke="#b43f3f" cx="762.397" cy="-105" rx="36.2938" ry="18"/>
<text text-anchor="middle" x="762.397" y="-101.3" font-family="Times,serif" font-size="14.00">038 (a)</text>
</g>
<!-- 045 (a)&#45;&gt;038 (a) -->
<g id="edge8" class="edge"><title>045 (a)&#45;&gt;038 (a)</title>
<path fill="none" stroke="#b43f3f" d="M762.397,-173.799C762.397,-162.163 762.397,-146.548 762.397,-133.237"/>
<polygon fill="#b43f3f" stroke="#b43f3f" points="765.897,-133.175 762.397,-123.175 758.897,-133.175 765.897,-133.175"/>
<text text-anchor="middle" x="784.397" y="-144.8" font-family="Times,serif" font-size="14.00">1 (92.7)</text>
</g>
<!-- 03 (a) -->
<g id="node16" class="node"><title>03 (a)</title>
<ellipse fill="#ff8a8a" stroke="#b43f3f" cx="464.397" cy="-366" rx="31.6951" ry="18"/>
<text text-anchor="middle" x="464.397" y="-362.3" font-family="Times,serif" font-size="14.00">03 (a)</text>
</g>
<!-- 03 (a)&#45;&gt;032 (a) -->
<g id="edge10" class="edge"><title>03 (a)&#45;&gt;032 (a)</title>
<path fill="none" stroke="#b43f3f" d="M443.75,-351.912C434.864,-345.796 424.645,-338.086 416.397,-330 408.572,-322.329 401.035,-312.975 394.765,-304.442"/>
<polygon fill="#b43f3f" stroke="#b43f3f" points="397.603,-302.394 388.954,-296.275 391.899,-306.452 397.603,-302.394"/>
<text text-anchor="middle" x="438.397" y="-318.8" font-family="Times,serif" font-size="14.00">1 (91.7)</text>
</g>
<!-- 03 (a)&#45;&gt;02 (a) -->
<g id="edge11" class="edge"><title>03 (a)&#45;&gt;02 (a)</title>
<path fill="none" stroke="#b43f3f" d="M464.397,-347.799C464.397,-336.163 464.397,-320.548 464.397,-307.237"/>
<polygon fill="#b43f3f" stroke="#b43f3f" points="467.897,-307.175 464.397,-297.175 460.897,-307.175 467.897,-307.175"/>
<text text-anchor="middle" x="486.397" y="-318.8" font-family="Times,serif" font-size="14.00">1 (86.5)</text>
</g>
<!-- 044 (a) -->
<g id="node22" class="node"><title>044 (a)</title>
<ellipse fill="#ff8a8a" stroke="#b43f3f" cx="550.397" cy="-279" rx="36.2938" ry="18"/>
<text text-anchor="middle" x="550.397" y="-275.3" font-family="Times,serif" font-size="14.00">044 (a)</text>
</g>
<!-- 03 (a)&#45;&gt;044 (a) -->
<g id="edge9" class="edge"><title>03 (a)&#45;&gt;044 (a)</title>
<path fill="none" stroke="#b43f3f" d="M485.044,-351.912C493.93,-345.796 504.148,-338.086 512.397,-330 520.221,-322.329 527.759,-312.975 534.029,-304.442"/>
<polygon fill="#b43f3f" stroke="#b43f3f" points="536.894,-306.452 539.84,-296.275 531.191,-302.394 536.894,-306.452"/>
<text text-anchor="middle" x="547.397" y="-318.8" font-family="Times,serif" font-size="14.00">1 (89.2)</text>
</g>
<!-- P75 (a) -->
<g id="node17" class="node"><title>P75 (a)</title>
<ellipse fill="#ff8a8a" stroke="#b43f3f" cx="633.397" cy="-366" rx="36.2938" ry="18"/>
<text text-anchor="middle" x="633.397" y="-362.3" font-family="Times,serif" font-size="14.00">P75 (a)</text>
</g>
<!-- 019 (a) -->
<g id="node20" class="node"><title>019 (a)</title>
<ellipse fill="#ff8a8a" stroke="#b43f3f" cx="724.397" cy="-366" rx="36.2938" ry="18"/>
<text text-anchor="middle" x="724.397" y="-362.3" font-family="Times,serif" font-size="14.00">019 (a)</text>
</g>
<!-- 044 (a)&#45;&gt;011 (a) -->
<g id="edge13" class="edge"><title>044 (a)&#45;&gt;011 (a)</title>
<path fill="none" stroke="#b43f3f" d="M523.636,-266.539C517.721,-264.389 511.42,-262.384 505.397,-261 419.28,-241.205 393.261,-263.865 307.397,-243 276.153,-235.408 242.441,-221.245 218.226,-209.926"/>
<polygon fill="#b43f3f" stroke="#b43f3f" points="219.646,-206.726 209.112,-205.591 216.639,-213.047 219.646,-206.726"/>
<text text-anchor="middle" x="329.397" y="-231.8" font-family="Times,serif" font-size="14.00">2 (86.5)</text>
</g>
<!-- 044 (a)&#45;&gt;07 (a) -->
<g id="edge14" class="edge"><title>044 (a)&#45;&gt;07 (a)</title>
<path fill="none" stroke="#b43f3f" d="M523.071,-266.702C517.302,-264.593 511.203,-262.564 505.397,-261 458.41,-248.341 444.295,-255.985 397.397,-243 364.737,-233.957 328.932,-219.413 303.689,-208.337"/>
<polygon fill="#b43f3f" stroke="#b43f3f" points="304.787,-204.995 294.227,-204.13 301.943,-211.391 304.787,-204.995"/>
<text text-anchor="middle" x="419.397" y="-231.8" font-family="Times,serif" font-size="14.00">2 (83.8)</text>
</g>
<!-- 044 (a)&#45;&gt;022 (a) -->
<g id="edge19" class="edge"><title>044 (a)&#45;&gt;022 (a)</title>
<path fill="none" stroke="#b43f3f" d="M521.859,-267.406C501.192,-259.519 475.228,-249.1 465.397,-243 453.04,-235.333 440.734,-224.973 430.736,-215.671"/>
<polygon fill="#b43f3f" stroke="#b43f3f" points="432.899,-212.897 423.255,-208.51 428.058,-217.953 432.899,-212.897"/>
<text text-anchor="middle" x="487.397" y="-231.8" font-family="Times,serif" font-size="14.00">1 (91.7)</text>
</g>
<!-- 044 (a)&#45;&gt;021 (a) -->
<g id="edge15" class="edge"><title>044 (a)&#45;&gt;021 (a)</title>
<path fill="none" stroke="#b43f3f" d="M535.237,-262.436C530.099,-256.64 524.601,-249.81 520.397,-243 515.876,-235.677 511.906,-227.209 508.67,-219.348"/>
<polygon fill="#b43f3f" stroke="#b43f3f" points="511.862,-217.899 504.978,-209.845 505.337,-220.434 511.862,-217.899"/>
<text text-anchor="middle" x="542.397" y="-231.8" font-family="Times,serif" font-size="14.00">2 (83.8)</text>
</g>
<!-- 044 (a)&#45;&gt;028 (a) -->
<g id="edge16" class="edge"><title>044 (a)&#45;&gt;028 (a)</title>
<path fill="none" stroke="#b43f3f" d="M558.299,-261.207C563.942,-249.216 571.643,-232.851 578.088,-219.157"/>
<polygon fill="#b43f3f" stroke="#b43f3f" points="581.419,-220.297 582.51,-209.758 575.086,-217.316 581.419,-220.297"/>
<text text-anchor="middle" x="595.397" y="-231.8" font-family="Times,serif" font-size="14.00">2 (81.1)</text>
</g>
<!-- 044 (a)&#45;&gt;05 (a) -->
<g id="edge18" class="edge"><title>044 (a)&#45;&gt;05 (a)</title>
<path fill="none" stroke="#b43f3f" d="M577.34,-266.875C591.04,-260.692 607.653,-252.361 621.397,-243 633.179,-234.975 645.034,-224.566 654.706,-215.324"/>
<polygon fill="#b43f3f" stroke="#b43f3f" points="657.254,-217.727 661.95,-208.23 652.356,-212.726 657.254,-217.727"/>
<text text-anchor="middle" x="663.397" y="-231.8" font-family="Times,serif" font-size="14.00">3 (76.7)</text>
</g>
<!-- 044 (a)&#45;&gt;045 (a) -->
<g id="edge12" class="edge"><title>044 (a)&#45;&gt;045 (a)</title>
<path fill="none" stroke="#b43f3f" d="M584.653,-272.859C613.495,-267.723 655.368,-258.344 689.397,-243 706.053,-235.489 722.991,-224.164 736.353,-214.19"/>
<polygon fill="#b43f3f" stroke="#b43f3f" points="738.771,-216.747 744.578,-207.885 734.512,-211.191 738.771,-216.747"/>
<text text-anchor="middle" x="737.397" y="-231.8" font-family="Times,serif" font-size="14.00">2 (81.1)</text>
</g>
<!-- 0141 (a) -->
<g id="node23" class="node"><title>0141 (a)</title>
<ellipse fill="#ff8a8a" stroke="#b43f3f" cx="857.397" cy="-192" rx="40.0939" ry="18"/>
<text text-anchor="middle" x="857.397" y="-188.3" font-family="Times,serif" font-size="14.00">0141 (a)</text>
</g>
<!-- 044 (a)&#45;&gt;0141 (a) -->
<g id="edge17" class="edge"><title>044 (a)&#45;&gt;0141 (a)</title>
<path fill="none" stroke="#b43f3f" d="M586.306,-275.677C629.353,-272.085 703.219,-263.334 763.397,-243 785.616,-235.492 808.902,-223.144 826.738,-212.598"/>
<polygon fill="#b43f3f" stroke="#b43f3f" points="828.786,-215.45 835.534,-207.282 825.165,-209.459 828.786,-215.45"/>
<text text-anchor="middle" x="820.397" y="-231.8" font-family="Times,serif" font-size="14.00">1 (89.2)</text>
</g>
<!-- 031 (a)&#45;&gt;013 (a) -->
<g id="edge20" class="edge"><title>031 (a)&#45;&gt;013 (a)</title>
<path fill="none" stroke="#b43f3f" d="M398.644,-87.3706C395.322,-81.5933 391.633,-75.047 388.397,-69 384.229,-61.2133 379.866,-52.6446 375.972,-44.8337"/>
<polygon fill="#b43f3f" stroke="#b43f3f" points="379.069,-43.1997 371.5,-35.7855 372.793,-46.3011 379.069,-43.1997"/>
<text text-anchor="middle" x="410.397" y="-57.8" font-family="Times,serif" font-size="14.00">1 (97.1)</text>
</g>
<!-- 031 (a)&#45;&gt;017 (a) -->
<g id="edge21" class="edge"><title>031 (a)&#45;&gt;017 (a)</title>
<path fill="none" stroke="#b43f3f" d="M420.526,-87.6704C424.546,-81.9172 428.886,-75.3093 432.397,-69 436.547,-61.5417 440.498,-53.1477 443.877,-45.3977"/>
<polygon fill="#b43f3f" stroke="#b43f3f" points="447.161,-46.6185 447.824,-36.0444 440.712,-43.8974 447.161,-46.6185"/>
<text text-anchor="middle" x="462.397" y="-57.8" font-family="Times,serif" font-size="14.00">1 (94.3)</text>
</g>
</g>
</svg>
