<?xml version="1.0" encoding="UTF-8" standalone="no"?>
<!DOCTYPE svg PUBLIC "-//W3C//DTD SVG 1.1//EN"
 "http://www.w3.org/Graphics/SVG/1.1/DTD/svg11.dtd">
<!-- Generated by graphviz version 2.38.0 (20140413.2041)
 -->
<!-- Title: %3 Pages: 1 -->
<svg width="983pt" height="408pt"
 viewBox="0.00 0.00 982.69 408.00" xmlns="http://www.w3.org/2000/svg" xmlns:xlink="http://www.w3.org/1999/xlink">
<g id="graph0" class="graph" transform="scale(1 1) rotate(0) translate(4 404)">
<title>%3</title>
<polygon fill="white" stroke="none" points="-4,4 -4,-404 978.693,-404 978.693,4 -4,4"/>
<g id="clust1" class="cluster"><title>cluster_legend</title>
<path fill="none" stroke="black" d="M72.2964,-264C72.2964,-264 262.296,-264 262.296,-264 268.296,-264 274.296,-270 274.296,-276 274.296,-276 274.296,-380 274.296,-380 274.296,-386 268.296,-392 262.296,-392 262.296,-392 72.2964,-392 72.2964,-392 66.2964,-392 60.2964,-386 60.2964,-380 60.2964,-380 60.2964,-276 60.2964,-276 60.2964,-270 66.2964,-264 72.2964,-264"/>
</g>
<!-- leg_s -->
<g id="node1" class="node"><title>leg_s</title>
<text text-anchor="middle" x="167.296" y="-362.3" font-family="Times,serif" font-size="14.00">Textual flow strength</text>
</g>
<!-- leg_e1 -->
<!-- leg_s&#45;&gt;leg_e1 -->
<g id="edge1" class="edge"><title>leg_s&#45;&gt;leg_e1</title>
<path fill="none" stroke="black" stroke-dasharray="1,5" d="M148.962,-347.686C143.429,-342.194 137.457,-335.989 132.296,-330 122.467,-318.593 112.369,-304.779 105.21,-294.563"/>
<polygon fill="black" stroke="black" points="107.911,-292.314 99.3525,-286.068 102.148,-296.288 107.911,-292.314"/>
<text text-anchor="middle" x="147.796" y="-318.8" font-family="Times,serif" font-size="14.00">&lt;=5 &#160;</text>
</g>
<!-- leg_e2 -->
<!-- leg_s&#45;&gt;leg_e2 -->
<g id="edge2" class="edge"><title>leg_s&#45;&gt;leg_e2</title>
<path fill="none" stroke="black" stroke-dasharray="5,2" d="M167.296,-347.799C167.296,-332.794 167.296,-311.174 167.296,-296.409"/>
<polygon fill="black" stroke="black" points="170.797,-296.293 167.296,-286.293 163.797,-296.293 170.797,-296.293"/>
<text text-anchor="middle" x="186.296" y="-318.8" font-family="Times,serif" font-size="14.00"> &#160;&lt;=25</text>
</g>
<!-- leg_e3 -->
<!-- leg_s&#45;&gt;leg_e3 -->
<g id="edge3" class="edge"><title>leg_s&#45;&gt;leg_e3</title>
<path fill="none" stroke="black" d="M190.8,-347.76C197.202,-342.462 203.863,-336.344 209.296,-330 218.384,-319.39 226.392,-305.689 231.843,-295.313"/>
<polygon fill="black" stroke="black" points="235.018,-296.789 236.387,-286.283 228.766,-293.642 235.018,-296.789"/>
<text text-anchor="middle" x="231.296" y="-318.8" font-family="Times,serif" font-size="14.00">&gt;25</text>
</g>
<!-- 063 -->
<g id="node5" class="node"><title>063</title>
<ellipse fill="#cea8f4" stroke="#835da9" cx="475.296" cy="-192" rx="36.2938" ry="18"/>
<text text-anchor="middle" x="475.296" y="-188.3" font-family="Times,serif" font-size="14.00">063 (b)</text>
</g>
<!-- 045 -->
<g id="node6" class="node"><title>045</title>
<ellipse fill="#ff8a8a" stroke="#b43f3f" cx="283.296" cy="-105" rx="36.2938" ry="18"/>
<text text-anchor="middle" x="283.296" y="-101.3" font-family="Times,serif" font-size="14.00">045 (a)</text>
</g>
<!-- 063&#45;&gt;045 -->
<g id="edge4" class="edge"><title>063&#45;&gt;045</title>
<path fill="none" stroke="#b43f3f" stroke-dasharray="1,5" d="M446.265,-180.956C439.403,-178.63 432.103,-176.195 425.296,-174 399.204,-165.586 391.339,-167.158 366.296,-156 347.543,-147.644 327.806,-135.891 312.285,-125.879"/>
<polygon fill="#b43f3f" stroke="#b43f3f" points="313.954,-122.788 303.674,-120.225 310.112,-128.639 313.954,-122.788"/>
<text text-anchor="middle" x="388.296" y="-144.8" font-family="Times,serif" font-size="14.00">1 (93.1)</text>
</g>
<!-- 031 -->
<g id="node7" class="node"><title>031</title>
<ellipse fill="#ff8a8a" stroke="#b43f3f" cx="384.296" cy="-105" rx="36.2938" ry="18"/>
<text text-anchor="middle" x="384.296" y="-101.3" font-family="Times,serif" font-size="14.00">031 (a)</text>
</g>
<!-- 063&#45;&gt;031 -->
<g id="edge5" class="edge"><title>063&#45;&gt;031</title>
<path fill="none" stroke="#b43f3f" stroke-dasharray="1,5" d="M453.925,-177.006C445.304,-170.963 435.482,-163.554 427.296,-156 418.752,-148.115 410.221,-138.619 403.036,-130.029"/>
<polygon fill="#b43f3f" stroke="#b43f3f" points="405.641,-127.685 396.604,-122.155 400.219,-132.113 405.641,-127.685"/>
<text text-anchor="middle" x="449.296" y="-144.8" font-family="Times,serif" font-size="14.00">1 (95.8)</text>
</g>
<!-- 011 -->
<g id="node8" class="node"><title>011</title>
<ellipse fill="#ff8a8a" stroke="#b43f3f" cx="475.296" cy="-105" rx="36.2938" ry="18"/>
<text text-anchor="middle" x="475.296" y="-101.3" font-family="Times,serif" font-size="14.00">011 (a)</text>
</g>
<!-- 063&#45;&gt;011 -->
<g id="edge6" class="edge"><title>063&#45;&gt;011</title>
<path fill="none" stroke="#b43f3f" stroke-dasharray="1,5" d="M475.296,-173.799C475.296,-162.163 475.296,-146.548 475.296,-133.237"/>
<polygon fill="#b43f3f" stroke="#b43f3f" points="478.797,-133.175 475.296,-123.175 471.797,-133.175 478.797,-133.175"/>
<text text-anchor="middle" x="497.296" y="-144.8" font-family="Times,serif" font-size="14.00">1 (93.1)</text>
</g>
<!-- 07 -->
<g id="node9" class="node"><title>07</title>
<ellipse fill="#ff8a8a" stroke="#b43f3f" cx="561.296" cy="-105" rx="31.6951" ry="18"/>
<text text-anchor="middle" x="561.296" y="-101.3" font-family="Times,serif" font-size="14.00">07 (a)</text>
</g>
<!-- 063&#45;&gt;07 -->
<g id="edge7" class="edge"><title>063&#45;&gt;07</title>
<path fill="none" stroke="#b43f3f" stroke-dasharray="1,5" d="M496.9,-177.25C505.557,-171.245 515.343,-163.798 523.296,-156 531.121,-148.329 538.659,-138.975 544.929,-130.442"/>
<polygon fill="#b43f3f" stroke="#b43f3f" points="547.794,-132.452 550.74,-122.275 542.09,-128.394 547.794,-132.452"/>
<text text-anchor="middle" x="558.296" y="-144.8" font-family="Times,serif" font-size="14.00">1 (96.6)</text>
</g>
<!-- 028 -->
<g id="node10" class="node"><title>028</title>
<ellipse fill="#ff8a8a" stroke="#b43f3f" cx="647.296" cy="-105" rx="36.2938" ry="18"/>
<text text-anchor="middle" x="647.296" y="-101.3" font-family="Times,serif" font-size="14.00">028 (a)</text>
</g>
<!-- 063&#45;&gt;028 -->
<g id="edge8" class="edge"><title>063&#45;&gt;028</title>
<path fill="none" stroke="#b43f3f" stroke-dasharray="1,5" d="M508.004,-183.786C530.322,-178.088 560.106,-168.927 584.296,-156 598.369,-148.48 612.43,-137.712 623.687,-128.093"/>
<polygon fill="#b43f3f" stroke="#b43f3f" points="626.15,-130.588 631.347,-121.355 621.527,-125.331 626.15,-130.588"/>
<text text-anchor="middle" x="629.296" y="-144.8" font-family="Times,serif" font-size="14.00">1 (96.6)</text>
</g>
<!-- 021 -->
<g id="node11" class="node"><title>021</title>
<ellipse fill="#ff8a8a" stroke="#b43f3f" cx="847.296" cy="-105" rx="36.2938" ry="18"/>
<text text-anchor="middle" x="847.296" y="-101.3" font-family="Times,serif" font-size="14.00">021 (a)</text>
</g>
<!-- 063&#45;&gt;021 -->
<g id="edge9" class="edge"><title>063&#45;&gt;021</title>
<path fill="none" stroke="#b43f3f" stroke-dasharray="1,5" d="M508.935,-185.11C545.194,-178.61 604.539,-167.532 655.296,-156 707.868,-144.056 767.924,-128.027 806.662,-117.373"/>
<polygon fill="#b43f3f" stroke="#b43f3f" points="807.809,-120.688 816.516,-114.652 805.945,-113.94 807.809,-120.688"/>
<text text-anchor="middle" x="736.296" y="-144.8" font-family="Times,serif" font-size="14.00">1 (93.1)</text>
</g>
<!-- 038 -->
<g id="node12" class="node"><title>038</title>
<ellipse fill="#ff8a8a" stroke="#b43f3f" cx="121.296" cy="-18" rx="36.2938" ry="18"/>
<text text-anchor="middle" x="121.296" y="-14.3" font-family="Times,serif" font-size="14.00">038 (a)</text>
</g>
<!-- 045&#45;&gt;038 -->
<g id="edge10" class="edge"><title>045&#45;&gt;038</title>
<path fill="none" stroke="#b43f3f" stroke-dasharray="1,5" d="M251.906,-95.7169C241.245,-92.9232 229.258,-89.8035 218.296,-87 186.34,-78.8268 172.026,-89.6395 146.296,-69 138.816,-62.9993 133.385,-54.1817 129.537,-45.6158"/>
<polygon fill="#b43f3f" stroke="#b43f3f" points="132.757,-44.2399 125.839,-36.2151 126.243,-46.8023 132.757,-44.2399"/>
<text text-anchor="middle" x="168.296" y="-57.8" font-family="Times,serif" font-size="14.00">1 (92.7)</text>
</g>
<!-- 017 -->
<g id="node13" class="node"><title>017</title>
<ellipse fill="#ff8a8a" stroke="#b43f3f" cx="212.296" cy="-18" rx="36.2938" ry="18"/>
<text text-anchor="middle" x="212.296" y="-14.3" font-family="Times,serif" font-size="14.00">017 (a)</text>
</g>
<!-- 031&#45;&gt;017 -->
<g id="edge11" class="edge"><title>031&#45;&gt;017</title>
<path fill="none" stroke="#b43f3f" stroke-dasharray="1,5" d="M354.481,-94.5972C325.914,-85.5013 286.151,-72.5813 279.296,-69 264.35,-61.1915 249.169,-50.1715 237.046,-40.4637"/>
<polygon fill="#b43f3f" stroke="#b43f3f" points="239.132,-37.6478 229.182,-34.0081 234.691,-43.0583 239.132,-37.6478"/>
<text text-anchor="middle" x="301.296" y="-57.8" font-family="Times,serif" font-size="14.00">1 (94.3)</text>
</g>
<!-- 013 -->
<g id="node14" class="node"><title>013</title>
<ellipse fill="#ff8a8a" stroke="#b43f3f" cx="303.296" cy="-18" rx="36.2938" ry="18"/>
<text text-anchor="middle" x="303.296" y="-14.3" font-family="Times,serif" font-size="14.00">013 (a)</text>
</g>
<!-- 031&#45;&gt;013 -->
<g id="edge12" class="edge"><title>031&#45;&gt;013</title>
<path fill="none" stroke="#b43f3f" stroke-dasharray="1,5" d="M363.551,-89.8135C355.543,-83.8535 346.576,-76.5544 339.296,-69 332.025,-61.4542 325.047,-52.3612 319.202,-44.0103"/>
<polygon fill="#b43f3f" stroke="#b43f3f" points="322.062,-41.9909 313.557,-35.6724 316.265,-45.9153 322.062,-41.9909"/>
<text text-anchor="middle" x="361.296" y="-57.8" font-family="Times,serif" font-size="14.00">1 (97.1)</text>
</g>
<!-- 01 -->
<g id="node15" class="node"><title>01</title>
<ellipse fill="#ff8a8a" stroke="#b43f3f" cx="389.296" cy="-18" rx="31.6951" ry="18"/>
<text text-anchor="middle" x="389.296" y="-14.3" font-family="Times,serif" font-size="14.00">01 (a)</text>
</g>
<!-- 031&#45;&gt;01 -->
<g id="edge13" class="edge"><title>031&#45;&gt;01</title>
<path fill="none" stroke="#b43f3f" stroke-dasharray="1,5" d="M385.308,-86.799C385.993,-75.1626 386.911,-59.5479 387.694,-46.2368"/>
<polygon fill="#b43f3f" stroke="#b43f3f" points="391.193,-46.3637 388.286,-36.1754 384.205,-45.9526 391.193,-46.3637"/>
<text text-anchor="middle" x="409.296" y="-57.8" font-family="Times,serif" font-size="14.00">2 (48.5)</text>
</g>
<!-- 034 -->
<g id="node16" class="node"><title>034</title>
<ellipse fill="#ff8a8a" stroke="#b43f3f" cx="475.296" cy="-18" rx="36.2938" ry="18"/>
<text text-anchor="middle" x="475.296" y="-14.3" font-family="Times,serif" font-size="14.00">034 (a)</text>
</g>
<!-- 07&#45;&gt;034 -->
<g id="edge14" class="edge"><title>07&#45;&gt;034</title>
<path fill="none" stroke="#b43f3f" stroke-dasharray="1,5" d="M542.135,-90.5796C533.841,-84.4029 524.235,-76.7366 516.296,-69 508.217,-61.1259 500.162,-51.7284 493.358,-43.217"/>
<polygon fill="#b43f3f" stroke="#b43f3f" points="495.928,-40.8207 487.016,-35.0903 490.409,-45.1272 495.928,-40.8207"/>
<text text-anchor="middle" x="538.296" y="-57.8" font-family="Times,serif" font-size="14.00">1 (95.1)</text>
</g>
<!-- 030 -->
<g id="node17" class="node"><title>030</title>
<ellipse fill="#ff8a8a" stroke="#b43f3f" cx="566.296" cy="-18" rx="36.2938" ry="18"/>
<text text-anchor="middle" x="566.296" y="-14.3" font-family="Times,serif" font-size="14.00">030 (a)</text>
</g>
<!-- 07&#45;&gt;030 -->
<g id="edge15" class="edge"><title>07&#45;&gt;030</title>
<path fill="none" stroke="#b43f3f" stroke-dasharray="1,5" d="M562.308,-86.799C562.993,-75.1626 563.911,-59.5479 564.694,-46.2368"/>
<polygon fill="#b43f3f" stroke="#b43f3f" points="568.193,-46.3637 565.286,-36.1754 561.205,-45.9526 568.193,-46.3637"/>
<text text-anchor="middle" x="586.296" y="-57.8" font-family="Times,serif" font-size="14.00">1 (95.1)</text>
</g>
<!-- 0211 -->
<g id="node18" class="node"><title>0211</title>
<ellipse fill="#ff8a8a" stroke="#b43f3f" cx="661.296" cy="-18" rx="40.0939" ry="18"/>
<text text-anchor="middle" x="661.296" y="-14.3" font-family="Times,serif" font-size="14.00">0211 (a)</text>
</g>
<!-- 07&#45;&gt;0211 -->
<g id="edge16" class="edge"><title>07&#45;&gt;0211</title>
<path fill="none" stroke="#b43f3f" stroke-dasharray="1,5" d="M582.31,-90.9067C591.782,-84.6739 602.921,-76.8723 612.296,-69 621.943,-60.8998 631.81,-51.1632 640.138,-42.4429"/>
<polygon fill="#b43f3f" stroke="#b43f3f" points="642.729,-44.7967 647.016,-35.1079 637.622,-40.0086 642.729,-44.7967"/>
<text text-anchor="middle" x="650.296" y="-57.8" font-family="Times,serif" font-size="14.00">2 (82.9)</text>
</g>
<!-- 037 -->
<g id="node19" class="node"><title>037</title>
<ellipse fill="#ff8a8a" stroke="#b43f3f" cx="756.296" cy="-18" rx="36.2938" ry="18"/>
<text text-anchor="middle" x="756.296" y="-14.3" font-family="Times,serif" font-size="14.00">037 (a)</text>
</g>
<!-- 07&#45;&gt;037 -->
<g id="edge17" class="edge"><title>07&#45;&gt;037</title>
<path fill="none" stroke="#b43f3f" stroke-dasharray="1,5" d="M585.781,-93.1258C591.164,-90.9388 596.876,-88.7712 602.296,-87 634.47,-76.4865 645.102,-82.1375 676.296,-69 694.845,-61.1883 714.019,-49.3555 728.945,-39.1618"/>
<polygon fill="#b43f3f" stroke="#b43f3f" points="731.011,-41.9879 737.205,-33.3921 727.003,-36.2492 731.011,-41.9879"/>
<text text-anchor="middle" x="726.296" y="-57.8" font-family="Times,serif" font-size="14.00">1 (97.5)</text>
</g>
<!-- 036 -->
<g id="node24" class="node"><title>036</title>
<ellipse fill="#ff8a8a" stroke="#b43f3f" cx="847.296" cy="-18" rx="36.2938" ry="18"/>
<text text-anchor="middle" x="847.296" y="-14.3" font-family="Times,serif" font-size="14.00">036 (a)</text>
</g>
<!-- 021&#45;&gt;036 -->
<g id="edge21" class="edge"><title>021&#45;&gt;036</title>
<path fill="none" stroke="#b43f3f" stroke-dasharray="1,5" d="M847.296,-86.799C847.296,-75.1626 847.296,-59.5479 847.296,-46.2368"/>
<polygon fill="#b43f3f" stroke="#b43f3f" points="850.797,-46.1754 847.296,-36.1754 843.797,-46.1755 850.797,-46.1754"/>
<text text-anchor="middle" x="869.296" y="-57.8" font-family="Times,serif" font-size="14.00">1 (97.6)</text>
</g>
<!-- 047 -->
<g id="node25" class="node"><title>047</title>
<ellipse fill="#ff8a8a" stroke="#b43f3f" cx="938.296" cy="-18" rx="36.2938" ry="18"/>
<text text-anchor="middle" x="938.296" y="-14.3" font-family="Times,serif" font-size="14.00">047 (a)</text>
</g>
<!-- 021&#45;&gt;047 -->
<g id="edge22" class="edge"><title>021&#45;&gt;047</title>
<path fill="none" stroke="#b43f3f" stroke-dasharray="1,5" d="M868.668,-90.006C877.289,-83.9634 887.111,-76.5539 895.296,-69 903.841,-61.1154 912.372,-51.6186 919.557,-43.0293"/>
<polygon fill="#b43f3f" stroke="#b43f3f" points="922.374,-45.1135 925.989,-35.1545 916.952,-40.6853 922.374,-45.1135"/>
<text text-anchor="middle" x="931.296" y="-57.8" font-family="Times,serif" font-size="14.00">1 (95.1)</text>
</g>
<!-- 044 -->
<g id="node20" class="node"><title>044</title>
<ellipse fill="#cea8f4" stroke="#835da9" cx="173.296" cy="-192" rx="36.2938" ry="18"/>
<text text-anchor="middle" x="173.296" y="-188.3" font-family="Times,serif" font-size="14.00">044 (b)</text>
</g>
<!-- 0141 -->
<g id="node21" class="node"><title>0141</title>
<ellipse fill="#ff8a8a" stroke="#b43f3f" cx="40.2964" cy="-105" rx="40.0939" ry="18"/>
<text text-anchor="middle" x="40.2964" y="-101.3" font-family="Times,serif" font-size="14.00">0141 (a)</text>
</g>
<!-- 044&#45;&gt;0141 -->
<g id="edge18" class="edge"><title>044&#45;&gt;0141</title>
<path fill="none" stroke="#b43f3f" stroke-dasharray="1,5" d="M151.928,-177.343C130.085,-163.383 95.9414,-141.563 71.1638,-125.727"/>
<polygon fill="#b43f3f" stroke="#b43f3f" points="72.8101,-122.626 62.4991,-120.19 69.0405,-128.524 72.8101,-122.626"/>
<text text-anchor="middle" x="137.296" y="-144.8" font-family="Times,serif" font-size="14.00">1 (89.2)</text>
</g>
<!-- 022 -->
<g id="node22" class="node"><title>022</title>
<ellipse fill="#cea8f4" stroke="#835da9" cx="173.296" cy="-105" rx="36.2938" ry="18"/>
<text text-anchor="middle" x="173.296" y="-101.3" font-family="Times,serif" font-size="14.00">022 (b)</text>
</g>
<!-- 044&#45;&gt;022 -->
<g id="edge19" class="edge"><title>044&#45;&gt;022</title>
<path fill="none" stroke="#835da9" stroke-dasharray="1,5" d="M173.296,-173.799C173.296,-162.163 173.296,-146.548 173.296,-133.237"/>
<polygon fill="#835da9" stroke="#835da9" points="176.797,-133.175 173.296,-123.175 169.797,-133.175 176.797,-133.175"/>
<text text-anchor="middle" x="195.296" y="-144.8" font-family="Times,serif" font-size="14.00">1 (91.7)</text>
</g>
<!-- 05 -->
<g id="node23" class="node"><title>05</title>
<ellipse fill="#ff8a8a" stroke="#b43f3f" cx="35.2964" cy="-18" rx="31.6951" ry="18"/>
<text text-anchor="middle" x="35.2964" y="-14.3" font-family="Times,serif" font-size="14.00">05 (a)</text>
</g>
<!-- 0141&#45;&gt;05 -->
<g id="edge20" class="edge"><title>0141&#45;&gt;05</title>
<path fill="none" stroke="#b43f3f" stroke-dasharray="1,5" d="M39.2846,-86.799C38.6001,-75.1626 37.6816,-59.5479 36.8986,-46.2368"/>
<polygon fill="#b43f3f" stroke="#b43f3f" points="40.388,-45.9526 36.3067,-36.1754 33.4001,-46.3637 40.388,-45.9526"/>
<text text-anchor="middle" x="60.2964" y="-57.8" font-family="Times,serif" font-size="14.00">9 (70.6)</text>
</g>
<!-- A -->
<g id="node26" class="node"><title>A</title>
<ellipse fill="#cea8f4" stroke="#835da9" cx="436.296" cy="-366" rx="29.795" ry="18"/>
<text text-anchor="middle" x="436.296" y="-362.3" font-family="Times,serif" font-size="14.00">A (b)</text>
</g>
<!-- 03 -->
<g id="node27" class="node"><title>03</title>
<ellipse fill="#cea8f4" stroke="#835da9" cx="316.296" cy="-279" rx="32.4942" ry="18"/>
<text text-anchor="middle" x="316.296" y="-275.3" font-family="Times,serif" font-size="14.00">03 (b)</text>
</g>
<!-- A&#45;&gt;03 -->
<g id="edge23" class="edge"><title>A&#45;&gt;03</title>
<path fill="none" stroke="#835da9" stroke-dasharray="1,5" d="M417.546,-351.719C397.79,-337.725 366.469,-315.539 343.892,-299.547"/>
<polygon fill="#835da9" stroke="#835da9" points="345.893,-296.675 335.71,-293.751 341.847,-302.387 345.893,-296.675"/>
<text text-anchor="middle" x="406.296" y="-318.8" font-family="Times,serif" font-size="14.00">1 (93.3)</text>
</g>
<!-- 019 -->
<g id="node28" class="node"><title>019</title>
<ellipse fill="#cea8f4" stroke="#835da9" cx="436.296" cy="-279" rx="36.2938" ry="18"/>
<text text-anchor="middle" x="436.296" y="-275.3" font-family="Times,serif" font-size="14.00">019 (b)</text>
</g>
<!-- A&#45;&gt;019 -->
<g id="edge24" class="edge"><title>A&#45;&gt;019</title>
<path fill="none" stroke="#835da9" stroke-dasharray="1,5" d="M436.296,-347.799C436.296,-336.163 436.296,-320.548 436.296,-307.237"/>
<polygon fill="#835da9" stroke="#835da9" points="439.797,-307.175 436.296,-297.175 432.797,-307.175 439.797,-307.175"/>
<text text-anchor="middle" x="458.296" y="-318.8" font-family="Times,serif" font-size="14.00">1 (93.3)</text>
</g>
<!-- P75 -->
<g id="node29" class="node"><title>P75</title>
<ellipse fill="#cea8f4" stroke="#835da9" cx="527.296" cy="-279" rx="37.0935" ry="18"/>
<text text-anchor="middle" x="527.296" y="-275.3" font-family="Times,serif" font-size="14.00">P75 (b)</text>
</g>
<!-- A&#45;&gt;P75 -->
<g id="edge25" class="edge"><title>A&#45;&gt;P75</title>
<path fill="none" stroke="#835da9" stroke-dasharray="1,5" d="M455.773,-352.326C464.825,-346.06 475.504,-338.113 484.296,-330 492.841,-322.115 501.372,-312.619 508.557,-304.029"/>
<polygon fill="#835da9" stroke="#835da9" points="511.374,-306.113 514.989,-296.155 505.952,-301.685 511.374,-306.113"/>
<text text-anchor="middle" x="520.296" y="-318.8" font-family="Times,serif" font-size="14.00">1 (93.3)</text>
</g>
<!-- 03&#45;&gt;044 -->
<g id="edge26" class="edge"><title>03&#45;&gt;044</title>
<path fill="none" stroke="#835da9" stroke-dasharray="1,5" d="M294.591,-265.437C283.172,-258.803 268.952,-250.503 256.296,-243 238.998,-232.745 219.757,-221.165 204.16,-211.734"/>
<polygon fill="#835da9" stroke="#835da9" points="205.807,-208.639 195.439,-206.455 202.182,-214.628 205.807,-208.639"/>
<text text-anchor="middle" x="278.296" y="-231.8" font-family="Times,serif" font-size="14.00">1 (89.2)</text>
</g>
<!-- 02 -->
<g id="node30" class="node"><title>02</title>
<ellipse fill="#cea8f4" stroke="#835da9" cx="293.296" cy="-192" rx="32.4942" ry="18"/>
<text text-anchor="middle" x="293.296" y="-188.3" font-family="Times,serif" font-size="14.00">02 (b)</text>
</g>
<!-- 03&#45;&gt;02 -->
<g id="edge27" class="edge"><title>03&#45;&gt;02</title>
<path fill="none" stroke="#835da9" stroke-dasharray="1,5" d="M311.642,-260.799C308.441,-248.97 304.128,-233.03 300.488,-219.578"/>
<polygon fill="#835da9" stroke="#835da9" points="303.856,-218.624 297.865,-209.885 297.099,-220.452 303.856,-218.624"/>
<text text-anchor="middle" x="328.296" y="-231.8" font-family="Times,serif" font-size="14.00">1 (86.5)</text>
</g>
<!-- 032 -->
<g id="node31" class="node"><title>032</title>
<ellipse fill="#cea8f4" stroke="#835da9" cx="380.296" cy="-192" rx="36.2938" ry="18"/>
<text text-anchor="middle" x="380.296" y="-188.3" font-family="Times,serif" font-size="14.00">032 (b)</text>
</g>
<!-- 03&#45;&gt;032 -->
<g id="edge28" class="edge"><title>03&#45;&gt;032</title>
<path fill="none" stroke="#835da9" stroke-dasharray="1,5" d="M334.197,-263.81C341.012,-257.85 348.52,-250.551 354.296,-243 359.851,-235.739 364.814,-227.117 368.878,-219.096"/>
<polygon fill="#835da9" stroke="#835da9" points="372.038,-220.601 373.217,-210.072 365.729,-217.568 372.038,-220.601"/>
<text text-anchor="middle" x="386.296" y="-231.8" font-family="Times,serif" font-size="14.00">1 (91.7)</text>
</g>
<!-- 019&#45;&gt;063 -->
<g id="edge29" class="edge"><title>019&#45;&gt;063</title>
<path fill="none" stroke="#835da9" stroke-dasharray="1,5" d="M444.002,-261.207C449.503,-249.216 457.012,-232.851 463.295,-219.157"/>
<polygon fill="#835da9" stroke="#835da9" points="466.618,-220.307 467.607,-209.758 460.256,-217.388 466.618,-220.307"/>
<text text-anchor="middle" x="480.296" y="-231.8" font-family="Times,serif" font-size="14.00">1 (85.7)</text>
</g>
</g>
</svg>
