<?xml version="1.0" encoding="UTF-8" standalone="no"?>
<!DOCTYPE svg PUBLIC "-//W3C//DTD SVG 1.1//EN"
 "http://www.w3.org/Graphics/SVG/1.1/DTD/svg11.dtd">
<!-- Generated by graphviz version 2.38.0 (20140413.2041)
 -->
<!-- Title: %3 Pages: 1 -->
<svg width="1140pt" height="321pt"
 viewBox="0.00 0.00 1140.40 321.00" xmlns="http://www.w3.org/2000/svg" xmlns:xlink="http://www.w3.org/1999/xlink">
<g id="graph0" class="graph" transform="scale(1 1) rotate(0) translate(4 317)">
<title>%3</title>
<polygon fill="white" stroke="none" points="-4,4 -4,-317 1136.4,-317 1136.4,4 -4,4"/>
<g id="clust1" class="cluster"><title>cluster_legend</title>
<path fill="none" stroke="black" d="M20,-177C20,-177 210,-177 210,-177 216,-177 222,-183 222,-189 222,-189 222,-293 222,-293 222,-299 216,-305 210,-305 210,-305 20,-305 20,-305 14,-305 8,-299 8,-293 8,-293 8,-189 8,-189 8,-183 14,-177 20,-177"/>
</g>
<!-- leg_s -->
<g id="node1" class="node"><title>leg_s</title>
<text text-anchor="middle" x="115" y="-275.3" font-family="Times,serif" font-size="14.00">Textual flow strength</text>
</g>
<!-- leg_e1 -->
<!-- leg_s&#45;&gt;leg_e1 -->
<g id="edge1" class="edge"><title>leg_s&#45;&gt;leg_e1</title>
<path fill="none" stroke="black" stroke-dasharray="1,5" d="M96.6657,-260.686C91.1324,-255.194 85.1607,-248.989 80,-243 70.1708,-231.593 60.0722,-217.779 52.9137,-207.563"/>
<polygon fill="black" stroke="black" points="55.6142,-205.314 47.056,-199.068 49.8514,-209.288 55.6142,-205.314"/>
<text text-anchor="middle" x="95.5" y="-231.8" font-family="Times,serif" font-size="14.00">&lt;=5 &#160;</text>
</g>
<!-- leg_e2 -->
<!-- leg_s&#45;&gt;leg_e2 -->
<g id="edge2" class="edge"><title>leg_s&#45;&gt;leg_e2</title>
<path fill="none" stroke="black" stroke-dasharray="5,2" d="M115,-260.799C115,-245.794 115,-224.174 115,-209.409"/>
<polygon fill="black" stroke="black" points="118.5,-209.293 115,-199.293 111.5,-209.293 118.5,-209.293"/>
<text text-anchor="middle" x="134" y="-231.8" font-family="Times,serif" font-size="14.00"> &#160;&lt;=25</text>
</g>
<!-- leg_e3 -->
<!-- leg_s&#45;&gt;leg_e3 -->
<g id="edge3" class="edge"><title>leg_s&#45;&gt;leg_e3</title>
<path fill="none" stroke="black" d="M138.503,-260.76C144.906,-255.462 151.567,-249.344 157,-243 166.087,-232.39 174.095,-218.689 179.546,-208.313"/>
<polygon fill="black" stroke="black" points="182.722,-209.789 184.091,-199.283 176.469,-206.642 182.722,-209.789"/>
<text text-anchor="middle" x="179" y="-231.8" font-family="Times,serif" font-size="14.00">&gt;25</text>
</g>
<!-- 03 -->
<g id="node5" class="node"><title>03</title>
<ellipse fill="#ff8a8a" stroke="#b43f3f" cx="354" cy="-279" rx="31.6951" ry="18"/>
<text text-anchor="middle" x="354" y="-275.3" font-family="Times,serif" font-size="14.00">03 (a)</text>
</g>
<!-- 044 -->
<g id="node6" class="node"><title>044</title>
<ellipse fill="#ff8a8a" stroke="#b43f3f" cx="268" cy="-192" rx="36.2938" ry="18"/>
<text text-anchor="middle" x="268" y="-188.3" font-family="Times,serif" font-size="14.00">044 (a)</text>
</g>
<!-- 03&#45;&gt;044 -->
<g id="edge4" class="edge"><title>03&#45;&gt;044</title>
<path fill="none" stroke="#b43f3f" stroke-dasharray="1,5" d="M333.353,-264.912C324.467,-258.796 314.248,-251.086 306,-243 298.175,-235.329 290.638,-225.975 284.368,-217.442"/>
<polygon fill="#b43f3f" stroke="#b43f3f" points="287.206,-215.394 278.557,-209.275 281.503,-219.452 287.206,-215.394"/>
<text text-anchor="middle" x="328" y="-231.8" font-family="Times,serif" font-size="14.00">1 (89.2)</text>
</g>
<!-- 02 -->
<g id="node7" class="node"><title>02</title>
<ellipse fill="#ff8a8a" stroke="#b43f3f" cx="354" cy="-192" rx="31.6951" ry="18"/>
<text text-anchor="middle" x="354" y="-188.3" font-family="Times,serif" font-size="14.00">02 (a)</text>
</g>
<!-- 03&#45;&gt;02 -->
<g id="edge5" class="edge"><title>03&#45;&gt;02</title>
<path fill="none" stroke="#b43f3f" stroke-dasharray="1,5" d="M354,-260.799C354,-249.163 354,-233.548 354,-220.237"/>
<polygon fill="#b43f3f" stroke="#b43f3f" points="357.5,-220.175 354,-210.175 350.5,-220.175 357.5,-220.175"/>
<text text-anchor="middle" x="376" y="-231.8" font-family="Times,serif" font-size="14.00">1 (86.5)</text>
</g>
<!-- 032 -->
<g id="node8" class="node"><title>032</title>
<ellipse fill="#ff8a8a" stroke="#b43f3f" cx="440" cy="-192" rx="36.2938" ry="18"/>
<text text-anchor="middle" x="440" y="-188.3" font-family="Times,serif" font-size="14.00">032 (a)</text>
</g>
<!-- 03&#45;&gt;032 -->
<g id="edge6" class="edge"><title>03&#45;&gt;032</title>
<path fill="none" stroke="#b43f3f" stroke-dasharray="1,5" d="M374.647,-264.912C383.533,-258.796 393.752,-251.086 402,-243 409.825,-235.329 417.362,-225.975 423.632,-217.442"/>
<polygon fill="#b43f3f" stroke="#b43f3f" points="426.497,-219.452 429.443,-209.275 420.794,-215.394 426.497,-219.452"/>
<text text-anchor="middle" x="437" y="-231.8" font-family="Times,serif" font-size="14.00">1 (91.7)</text>
</g>
<!-- 0141 -->
<g id="node9" class="node"><title>0141</title>
<ellipse fill="#ff8a8a" stroke="#b43f3f" cx="220" cy="-105" rx="40.0939" ry="18"/>
<text text-anchor="middle" x="220" y="-101.3" font-family="Times,serif" font-size="14.00">0141 (a)</text>
</g>
<!-- 044&#45;&gt;0141 -->
<g id="edge7" class="edge"><title>044&#45;&gt;0141</title>
<path fill="none" stroke="#b43f3f" stroke-dasharray="1,5" d="M254.443,-175.237C249.827,-169.423 244.862,-162.632 241,-156 236.736,-148.678 232.874,-140.324 229.659,-132.569"/>
<polygon fill="#b43f3f" stroke="#b43f3f" points="232.883,-131.202 225.951,-123.189 226.373,-133.776 232.883,-131.202"/>
<text text-anchor="middle" x="263" y="-144.8" font-family="Times,serif" font-size="14.00">1 (89.2)</text>
</g>
<!-- 022 -->
<g id="node10" class="node"><title>022</title>
<ellipse fill="#ff8a8a" stroke="#b43f3f" cx="315" cy="-105" rx="36.2938" ry="18"/>
<text text-anchor="middle" x="315" y="-101.3" font-family="Times,serif" font-size="14.00">022 (a)</text>
</g>
<!-- 044&#45;&gt;022 -->
<g id="edge8" class="edge"><title>044&#45;&gt;022</title>
<path fill="none" stroke="#b43f3f" stroke-dasharray="1,5" d="M277.286,-174.207C284.024,-162.021 293.26,-145.318 300.905,-131.491"/>
<polygon fill="#b43f3f" stroke="#b43f3f" points="304.117,-132.914 305.894,-122.469 297.992,-129.527 304.117,-132.914"/>
<text text-anchor="middle" x="317" y="-144.8" font-family="Times,serif" font-size="14.00">1 (91.7)</text>
</g>
<!-- 063 -->
<g id="node11" class="node"><title>063</title>
<ellipse fill="#ff8a8a" stroke="#b43f3f" cx="681" cy="-192" rx="36.2938" ry="18"/>
<text text-anchor="middle" x="681" y="-188.3" font-family="Times,serif" font-size="14.00">063 (a)</text>
</g>
<!-- 045 -->
<g id="node12" class="node"><title>045</title>
<ellipse fill="#ff8a8a" stroke="#b43f3f" cx="406" cy="-105" rx="36.2938" ry="18"/>
<text text-anchor="middle" x="406" y="-101.3" font-family="Times,serif" font-size="14.00">045 (a)</text>
</g>
<!-- 063&#45;&gt;045 -->
<g id="edge9" class="edge"><title>063&#45;&gt;045</title>
<path fill="none" stroke="#b43f3f" stroke-dasharray="1,5" d="M647.378,-184.863C616.301,-178.814 569.021,-168.653 529,-156 498.731,-146.43 465.432,-132.687 441.124,-122.029"/>
<polygon fill="#b43f3f" stroke="#b43f3f" points="442.508,-118.814 431.947,-117.966 439.673,-125.215 442.508,-118.814"/>
<text text-anchor="middle" x="551" y="-144.8" font-family="Times,serif" font-size="14.00">1 (93.1)</text>
</g>
<!-- 031 -->
<g id="node13" class="node"><title>031</title>
<ellipse fill="#ff8a8a" stroke="#b43f3f" cx="542" cy="-105" rx="36.2938" ry="18"/>
<text text-anchor="middle" x="542" y="-101.3" font-family="Times,serif" font-size="14.00">031 (a)</text>
</g>
<!-- 063&#45;&gt;031 -->
<g id="edge10" class="edge"><title>063&#45;&gt;031</title>
<path fill="none" stroke="#b43f3f" stroke-dasharray="1,5" d="M651.011,-181.611C634.13,-175.616 613.077,-166.916 596,-156 584.394,-148.581 572.986,-138.543 563.668,-129.407"/>
<polygon fill="#b43f3f" stroke="#b43f3f" points="565.891,-126.678 556.373,-122.023 560.911,-131.597 565.891,-126.678"/>
<text text-anchor="middle" x="618" y="-144.8" font-family="Times,serif" font-size="14.00">1 (95.8)</text>
</g>
<!-- 011 -->
<g id="node14" class="node"><title>011</title>
<ellipse fill="#ff8a8a" stroke="#b43f3f" cx="638" cy="-105" rx="36.2938" ry="18"/>
<text text-anchor="middle" x="638" y="-101.3" font-family="Times,serif" font-size="14.00">011 (a)</text>
</g>
<!-- 063&#45;&gt;011 -->
<g id="edge11" class="edge"><title>063&#45;&gt;011</title>
<path fill="none" stroke="#b43f3f" stroke-dasharray="1,5" d="M664.058,-175.991C658.504,-170.247 652.792,-163.308 649,-156 645.398,-149.057 642.972,-140.979 641.34,-133.367"/>
<polygon fill="#b43f3f" stroke="#b43f3f" points="644.769,-132.658 639.57,-123.426 637.877,-133.885 644.769,-132.658"/>
<text text-anchor="middle" x="671" y="-144.8" font-family="Times,serif" font-size="14.00">1 (93.1)</text>
</g>
<!-- 07 -->
<g id="node15" class="node"><title>07</title>
<ellipse fill="#ff8a8a" stroke="#b43f3f" cx="724" cy="-105" rx="31.6951" ry="18"/>
<text text-anchor="middle" x="724" y="-101.3" font-family="Times,serif" font-size="14.00">07 (a)</text>
</g>
<!-- 063&#45;&gt;07 -->
<g id="edge12" class="edge"><title>063&#45;&gt;07</title>
<path fill="none" stroke="#b43f3f" stroke-dasharray="1,5" d="M689.495,-174.207C695.66,-162.021 704.11,-145.318 711.105,-131.491"/>
<polygon fill="#b43f3f" stroke="#b43f3f" points="714.278,-132.972 715.669,-122.469 708.031,-129.812 714.278,-132.972"/>
<text text-anchor="middle" x="728" y="-144.8" font-family="Times,serif" font-size="14.00">1 (96.6)</text>
</g>
<!-- 028 -->
<g id="node16" class="node"><title>028</title>
<ellipse fill="#ff8a8a" stroke="#b43f3f" cx="810" cy="-105" rx="36.2938" ry="18"/>
<text text-anchor="middle" x="810" y="-101.3" font-family="Times,serif" font-size="14.00">028 (a)</text>
</g>
<!-- 063&#45;&gt;028 -->
<g id="edge13" class="edge"><title>063&#45;&gt;028</title>
<path fill="none" stroke="#b43f3f" stroke-dasharray="1,5" d="M708.337,-180.088C722.484,-173.906 739.732,-165.511 754,-156 765.809,-148.128 777.704,-137.906 787.475,-128.758"/>
<polygon fill="#b43f3f" stroke="#b43f3f" points="790.021,-131.166 794.814,-121.717 785.175,-126.115 790.021,-131.166"/>
<text text-anchor="middle" x="796" y="-144.8" font-family="Times,serif" font-size="14.00">1 (96.6)</text>
</g>
<!-- 021 -->
<g id="node17" class="node"><title>021</title>
<ellipse fill="#ff8a8a" stroke="#b43f3f" cx="1005" cy="-105" rx="36.2938" ry="18"/>
<text text-anchor="middle" x="1005" y="-101.3" font-family="Times,serif" font-size="14.00">021 (a)</text>
</g>
<!-- 063&#45;&gt;021 -->
<g id="edge14" class="edge"><title>063&#45;&gt;021</title>
<path fill="none" stroke="#b43f3f" stroke-dasharray="1,5" d="M712.974,-183.289C741.587,-176.335 784.658,-165.735 822,-156 870.941,-143.242 927.015,-127.798 964.054,-117.482"/>
<polygon fill="#b43f3f" stroke="#b43f3f" points="965.283,-120.773 973.975,-114.715 963.402,-114.03 965.283,-120.773"/>
<text text-anchor="middle" x="900" y="-144.8" font-family="Times,serif" font-size="14.00">1 (93.1)</text>
</g>
<!-- 038 -->
<g id="node18" class="node"><title>038</title>
<ellipse fill="#ff8a8a" stroke="#b43f3f" cx="360" cy="-18" rx="36.2938" ry="18"/>
<text text-anchor="middle" x="360" y="-14.3" font-family="Times,serif" font-size="14.00">038 (a)</text>
</g>
<!-- 045&#45;&gt;038 -->
<g id="edge15" class="edge"><title>045&#45;&gt;038</title>
<path fill="none" stroke="#b43f3f" stroke-dasharray="1,5" d="M395.695,-87.417C392.202,-81.6435 388.342,-75.0876 385,-69 380.75,-61.2581 376.363,-52.7023 372.472,-44.8895"/>
<polygon fill="#b43f3f" stroke="#b43f3f" points="375.572,-43.2604 368.017,-35.8327 369.291,-46.3507 375.572,-43.2604"/>
<text text-anchor="middle" x="407" y="-57.8" font-family="Times,serif" font-size="14.00">1 (92.7)</text>
</g>
<!-- 017 -->
<g id="node19" class="node"><title>017</title>
<ellipse fill="#ff8a8a" stroke="#b43f3f" cx="451" cy="-18" rx="36.2938" ry="18"/>
<text text-anchor="middle" x="451" y="-14.3" font-family="Times,serif" font-size="14.00">017 (a)</text>
</g>
<!-- 031&#45;&gt;017 -->
<g id="edge16" class="edge"><title>031&#45;&gt;017</title>
<path fill="none" stroke="#b43f3f" stroke-dasharray="1,5" d="M520.628,-90.006C512.008,-83.9634 502.186,-76.5539 494,-69 485.456,-61.1154 476.924,-51.6186 469.74,-43.0293"/>
<polygon fill="#b43f3f" stroke="#b43f3f" points="472.344,-40.6853 463.308,-35.1545 466.923,-45.1135 472.344,-40.6853"/>
<text text-anchor="middle" x="516" y="-57.8" font-family="Times,serif" font-size="14.00">1 (94.3)</text>
</g>
<!-- 013 -->
<g id="node20" class="node"><title>013</title>
<ellipse fill="#ff8a8a" stroke="#b43f3f" cx="542" cy="-18" rx="36.2938" ry="18"/>
<text text-anchor="middle" x="542" y="-14.3" font-family="Times,serif" font-size="14.00">013 (a)</text>
</g>
<!-- 031&#45;&gt;013 -->
<g id="edge17" class="edge"><title>031&#45;&gt;013</title>
<path fill="none" stroke="#b43f3f" stroke-dasharray="1,5" d="M542,-86.799C542,-75.1626 542,-59.5479 542,-46.2368"/>
<polygon fill="#b43f3f" stroke="#b43f3f" points="545.5,-46.1754 542,-36.1754 538.5,-46.1755 545.5,-46.1754"/>
<text text-anchor="middle" x="564" y="-57.8" font-family="Times,serif" font-size="14.00">1 (97.1)</text>
</g>
<!-- 034 -->
<g id="node21" class="node"><title>034</title>
<ellipse fill="#ff8a8a" stroke="#b43f3f" cx="633" cy="-18" rx="36.2938" ry="18"/>
<text text-anchor="middle" x="633" y="-14.3" font-family="Times,serif" font-size="14.00">034 (a)</text>
</g>
<!-- 07&#45;&gt;034 -->
<g id="edge18" class="edge"><title>07&#45;&gt;034</title>
<path fill="none" stroke="#b43f3f" stroke-dasharray="1,5" d="M703.581,-90.6717C694.737,-84.5121 684.489,-76.8337 676,-69 667.456,-61.1154 658.924,-51.6186 651.74,-43.0293"/>
<polygon fill="#b43f3f" stroke="#b43f3f" points="654.344,-40.6853 645.308,-35.1545 648.923,-45.1135 654.344,-40.6853"/>
<text text-anchor="middle" x="698" y="-57.8" font-family="Times,serif" font-size="14.00">1 (95.1)</text>
</g>
<!-- 030 -->
<g id="node22" class="node"><title>030</title>
<ellipse fill="#ff8a8a" stroke="#b43f3f" cx="724" cy="-18" rx="36.2938" ry="18"/>
<text text-anchor="middle" x="724" y="-14.3" font-family="Times,serif" font-size="14.00">030 (a)</text>
</g>
<!-- 07&#45;&gt;030 -->
<g id="edge19" class="edge"><title>07&#45;&gt;030</title>
<path fill="none" stroke="#b43f3f" stroke-dasharray="1,5" d="M724,-86.799C724,-75.1626 724,-59.5479 724,-46.2368"/>
<polygon fill="#b43f3f" stroke="#b43f3f" points="727.5,-46.1754 724,-36.1754 720.5,-46.1755 727.5,-46.1754"/>
<text text-anchor="middle" x="746" y="-57.8" font-family="Times,serif" font-size="14.00">1 (95.1)</text>
</g>
<!-- 0211 -->
<g id="node23" class="node"><title>0211</title>
<ellipse fill="#ff8a8a" stroke="#b43f3f" cx="819" cy="-18" rx="40.0939" ry="18"/>
<text text-anchor="middle" x="819" y="-14.3" font-family="Times,serif" font-size="14.00">0211 (a)</text>
</g>
<!-- 07&#45;&gt;0211 -->
<g id="edge20" class="edge"><title>07&#45;&gt;0211</title>
<path fill="none" stroke="#b43f3f" stroke-dasharray="1,5" d="M743.786,-90.8221C752.703,-84.5722 763.185,-76.7806 772,-69 781.163,-60.9115 790.531,-51.2757 798.467,-42.6319"/>
<polygon fill="#b43f3f" stroke="#b43f3f" points="801.21,-44.8165 805.306,-35.0454 796.01,-40.1295 801.21,-44.8165"/>
<text text-anchor="middle" x="810" y="-57.8" font-family="Times,serif" font-size="14.00">2 (82.9)</text>
</g>
<!-- 037 -->
<g id="node24" class="node"><title>037</title>
<ellipse fill="#ff8a8a" stroke="#b43f3f" cx="914" cy="-18" rx="36.2938" ry="18"/>
<text text-anchor="middle" x="914" y="-14.3" font-family="Times,serif" font-size="14.00">037 (a)</text>
</g>
<!-- 07&#45;&gt;037 -->
<g id="edge21" class="edge"><title>07&#45;&gt;037</title>
<path fill="none" stroke="#b43f3f" stroke-dasharray="1,5" d="M748.498,-93.1655C753.88,-90.9761 759.588,-88.7974 765,-87 795.894,-76.7388 806.133,-81.9513 836,-69 853.842,-61.2628 872.23,-49.6811 886.667,-39.6122"/>
<polygon fill="#b43f3f" stroke="#b43f3f" points="889.002,-42.2459 895.106,-33.5863 884.934,-36.5492 889.002,-42.2459"/>
<text text-anchor="middle" x="886" y="-57.8" font-family="Times,serif" font-size="14.00">1 (97.5)</text>
</g>
<!-- 036 -->
<g id="node25" class="node"><title>036</title>
<ellipse fill="#ff8a8a" stroke="#b43f3f" cx="1005" cy="-18" rx="36.2938" ry="18"/>
<text text-anchor="middle" x="1005" y="-14.3" font-family="Times,serif" font-size="14.00">036 (a)</text>
</g>
<!-- 021&#45;&gt;036 -->
<g id="edge22" class="edge"><title>021&#45;&gt;036</title>
<path fill="none" stroke="#b43f3f" stroke-dasharray="1,5" d="M1005,-86.799C1005,-75.1626 1005,-59.5479 1005,-46.2368"/>
<polygon fill="#b43f3f" stroke="#b43f3f" points="1008.5,-46.1754 1005,-36.1754 1001.5,-46.1755 1008.5,-46.1754"/>
<text text-anchor="middle" x="1027" y="-57.8" font-family="Times,serif" font-size="14.00">1 (97.6)</text>
</g>
<!-- 047 -->
<g id="node26" class="node"><title>047</title>
<ellipse fill="#ff8a8a" stroke="#b43f3f" cx="1096" cy="-18" rx="36.2938" ry="18"/>
<text text-anchor="middle" x="1096" y="-14.3" font-family="Times,serif" font-size="14.00">047 (a)</text>
</g>
<!-- 021&#45;&gt;047 -->
<g id="edge23" class="edge"><title>021&#45;&gt;047</title>
<path fill="none" stroke="#b43f3f" stroke-dasharray="1,5" d="M1026.37,-90.006C1034.99,-83.9634 1044.81,-76.5539 1053,-69 1061.54,-61.1154 1070.08,-51.6186 1077.26,-43.0293"/>
<polygon fill="#b43f3f" stroke="#b43f3f" points="1080.08,-45.1135 1083.69,-35.1545 1074.66,-40.6853 1080.08,-45.1135"/>
<text text-anchor="middle" x="1088" y="-57.8" font-family="Times,serif" font-size="14.00">1 (95.1)</text>
</g>
<!-- 019 -->
<g id="node27" class="node"><title>019</title>
<ellipse fill="#ff8a8a" stroke="#b43f3f" cx="681" cy="-279" rx="36.2938" ry="18"/>
<text text-anchor="middle" x="681" y="-275.3" font-family="Times,serif" font-size="14.00">019 (a)</text>
</g>
<!-- 019&#45;&gt;063 -->
<g id="edge24" class="edge"><title>019&#45;&gt;063</title>
<path fill="none" stroke="#b43f3f" stroke-dasharray="1,5" d="M681,-260.799C681,-249.163 681,-233.548 681,-220.237"/>
<polygon fill="#b43f3f" stroke="#b43f3f" points="684.5,-220.175 681,-210.175 677.5,-220.175 684.5,-220.175"/>
<text text-anchor="middle" x="703" y="-231.8" font-family="Times,serif" font-size="14.00">1 (85.7)</text>
</g>
<!-- P75 -->
<g id="node28" class="node"><title>P75</title>
<ellipse fill="#ff8a8a" stroke="#b43f3f" cx="772" cy="-279" rx="36.2938" ry="18"/>
<text text-anchor="middle" x="772" y="-275.3" font-family="Times,serif" font-size="14.00">P75 (a)</text>
</g>
<!-- 01 -->
<g id="node29" class="node"><title>01</title>
<ellipse fill="#cea8f4" stroke="#835da9" cx="859" cy="-279" rx="32.4942" ry="18"/>
<text text-anchor="middle" x="859" y="-275.3" font-family="Times,serif" font-size="14.00">01 (b)</text>
</g>
</g>
</svg>
