<?xml version="1.0" encoding="UTF-8" standalone="no"?>
<!DOCTYPE svg PUBLIC "-//W3C//DTD SVG 1.1//EN"
 "http://www.w3.org/Graphics/SVG/1.1/DTD/svg11.dtd">
<!-- Generated by graphviz version 2.38.0 (20140413.2041)
 -->
<!-- Title: %3 Pages: 1 -->
<svg width="1301pt" height="152pt"
 viewBox="0.00 0.00 1301.40 152.00" xmlns="http://www.w3.org/2000/svg" xmlns:xlink="http://www.w3.org/1999/xlink">
<g id="graph0" class="graph" transform="scale(1 1) rotate(0) translate(4 148)">
<title>%3</title>
<polygon fill="white" stroke="none" points="-4,4 -4,-148 1297.4,-148 1297.4,4 -4,4"/>
<g id="clust1" class="cluster"><title>cluster_legend</title>
<path fill="none" stroke="black" d="M20,-8C20,-8 210,-8 210,-8 216,-8 222,-14 222,-20 222,-20 222,-124 222,-124 222,-130 216,-136 210,-136 210,-136 20,-136 20,-136 14,-136 8,-130 8,-124 8,-124 8,-20 8,-20 8,-14 14,-8 20,-8"/>
</g>
<!-- leg_s -->
<g id="node1" class="node"><title>leg_s</title>
<text text-anchor="middle" x="115" y="-106.3" font-family="Times,serif" font-size="14.00">Textual flow strength</text>
</g>
<!-- leg_e1 -->
<!-- leg_s&#45;&gt;leg_e1 -->
<g id="edge1" class="edge"><title>leg_s&#45;&gt;leg_e1</title>
<path fill="none" stroke="black" stroke-dasharray="1,5" d="M96.6657,-91.6857C91.1324,-86.1938 85.1607,-79.9891 80,-74 70.1708,-62.593 60.0722,-48.7786 52.9137,-38.5634"/>
<polygon fill="black" stroke="black" points="55.6142,-36.3142 47.056,-30.0685 49.8514,-40.2879 55.6142,-36.3142"/>
<text text-anchor="middle" x="95.5" y="-62.8" font-family="Times,serif" font-size="14.00">&lt;=5 &#160;</text>
</g>
<!-- leg_e2 -->
<!-- leg_s&#45;&gt;leg_e2 -->
<g id="edge2" class="edge"><title>leg_s&#45;&gt;leg_e2</title>
<path fill="none" stroke="black" stroke-dasharray="5,2" d="M115,-91.799C115,-76.7942 115,-55.1745 115,-40.4086"/>
<polygon fill="black" stroke="black" points="118.5,-40.2934 115,-30.2934 111.5,-40.2934 118.5,-40.2934"/>
<text text-anchor="middle" x="134" y="-62.8" font-family="Times,serif" font-size="14.00"> &#160;&lt;=25</text>
</g>
<!-- leg_e3 -->
<!-- leg_s&#45;&gt;leg_e3 -->
<g id="edge3" class="edge"><title>leg_s&#45;&gt;leg_e3</title>
<path fill="none" stroke="black" d="M138.503,-91.7602C144.906,-86.4621 151.567,-80.3439 157,-74 166.087,-63.3897 174.095,-49.6892 179.546,-39.3134"/>
<polygon fill="black" stroke="black" points="182.722,-40.7893 184.091,-30.2833 176.469,-37.6425 182.722,-40.7893"/>
<text text-anchor="middle" x="179" y="-62.8" font-family="Times,serif" font-size="14.00">&gt;25</text>
</g>
<!-- 021 -->
<g id="node5" class="node"><title>021</title>
<ellipse fill="#ff8a8a" stroke="#b43f3f" cx="314" cy="-110" rx="36.2938" ry="18"/>
<text text-anchor="middle" x="314" y="-106.3" font-family="Times,serif" font-size="14.00">021 (a)</text>
</g>
<!-- 036 -->
<g id="node6" class="node"><title>036</title>
<ellipse fill="#ff8a8a" stroke="#b43f3f" cx="268" cy="-23" rx="36.2938" ry="18"/>
<text text-anchor="middle" x="268" y="-19.3" font-family="Times,serif" font-size="14.00">036 (a)</text>
</g>
<!-- 021&#45;&gt;036 -->
<g id="edge4" class="edge"><title>021&#45;&gt;036</title>
<path fill="none" stroke="#b43f3f" stroke-dasharray="1,5" d="M299.713,-93.4144C294.903,-87.6168 289.8,-80.7908 286,-74 281.99,-66.8344 278.593,-58.6079 275.867,-50.9242"/>
<polygon fill="#b43f3f" stroke="#b43f3f" points="279.138,-49.6664 272.675,-41.2708 272.492,-51.8641 279.138,-49.6664"/>
<text text-anchor="middle" x="308" y="-62.8" font-family="Times,serif" font-size="14.00">1 (97.6)</text>
</g>
<!-- 047 -->
<g id="node7" class="node"><title>047</title>
<ellipse fill="#ff8a8a" stroke="#b43f3f" cx="359" cy="-23" rx="36.2938" ry="18"/>
<text text-anchor="middle" x="359" y="-19.3" font-family="Times,serif" font-size="14.00">047 (a)</text>
</g>
<!-- 021&#45;&gt;047 -->
<g id="edge5" class="edge"><title>021&#45;&gt;047</title>
<path fill="none" stroke="#b43f3f" stroke-dasharray="1,5" d="M322.891,-92.2067C329.3,-80.0991 338.071,-63.5329 345.363,-49.759"/>
<polygon fill="#b43f3f" stroke="#b43f3f" points="348.542,-51.2339 350.128,-40.7584 342.356,-47.9586 348.542,-51.2339"/>
<text text-anchor="middle" x="362" y="-62.8" font-family="Times,serif" font-size="14.00">1 (95.1)</text>
</g>
<!-- 031 -->
<g id="node8" class="node"><title>031</title>
<ellipse fill="#ff8a8a" stroke="#b43f3f" cx="536" cy="-110" rx="36.2938" ry="18"/>
<text text-anchor="middle" x="536" y="-106.3" font-family="Times,serif" font-size="14.00">031 (a)</text>
</g>
<!-- 013 -->
<g id="node9" class="node"><title>013</title>
<ellipse fill="#ff8a8a" stroke="#b43f3f" cx="450" cy="-23" rx="36.2938" ry="18"/>
<text text-anchor="middle" x="450" y="-19.3" font-family="Times,serif" font-size="14.00">013 (a)</text>
</g>
<!-- 031&#45;&gt;013 -->
<g id="edge6" class="edge"><title>031&#45;&gt;013</title>
<path fill="none" stroke="#b43f3f" stroke-dasharray="1,5" d="M514.396,-95.2504C505.74,-89.2452 495.954,-81.7976 488,-74 480.175,-66.3291 472.638,-56.9752 466.368,-48.4419"/>
<polygon fill="#b43f3f" stroke="#b43f3f" points="469.206,-46.3937 460.557,-40.2749 463.503,-50.452 469.206,-46.3937"/>
<text text-anchor="middle" x="510" y="-62.8" font-family="Times,serif" font-size="14.00">1 (97.1)</text>
</g>
<!-- 01 -->
<g id="node10" class="node"><title>01</title>
<ellipse fill="#ff8a8a" stroke="#b43f3f" cx="536" cy="-23" rx="31.6951" ry="18"/>
<text text-anchor="middle" x="536" y="-19.3" font-family="Times,serif" font-size="14.00">01 (a)</text>
</g>
<!-- 031&#45;&gt;01 -->
<g id="edge7" class="edge"><title>031&#45;&gt;01</title>
<path fill="none" stroke="#b43f3f" stroke-dasharray="1,5" d="M536,-91.799C536,-80.1626 536,-64.5479 536,-51.2368"/>
<polygon fill="#b43f3f" stroke="#b43f3f" points="539.5,-51.1754 536,-41.1754 532.5,-51.1755 539.5,-51.1754"/>
<text text-anchor="middle" x="558" y="-62.8" font-family="Times,serif" font-size="14.00">2 (48.5)</text>
</g>
<!-- 017 -->
<g id="node11" class="node"><title>017</title>
<ellipse fill="#ff8a8a" stroke="#b43f3f" cx="622" cy="-23" rx="36.2938" ry="18"/>
<text text-anchor="middle" x="622" y="-19.3" font-family="Times,serif" font-size="14.00">017 (a)</text>
</g>
<!-- 031&#45;&gt;017 -->
<g id="edge8" class="edge"><title>031&#45;&gt;017</title>
<path fill="none" stroke="#b43f3f" stroke-dasharray="1,5" d="M557.604,-95.2504C566.26,-89.2452 576.046,-81.7976 584,-74 591.825,-66.3291 599.362,-56.9752 605.632,-48.4419"/>
<polygon fill="#b43f3f" stroke="#b43f3f" points="608.497,-50.452 611.443,-40.2749 602.794,-46.3937 608.497,-50.452"/>
<text text-anchor="middle" x="619" y="-62.8" font-family="Times,serif" font-size="14.00">1 (94.3)</text>
</g>
<!-- 045 -->
<g id="node12" class="node"><title>045</title>
<ellipse fill="#ff8a8a" stroke="#b43f3f" cx="713" cy="-110" rx="36.2938" ry="18"/>
<text text-anchor="middle" x="713" y="-106.3" font-family="Times,serif" font-size="14.00">045 (a)</text>
</g>
<!-- 038 -->
<g id="node13" class="node"><title>038</title>
<ellipse fill="#ff8a8a" stroke="#b43f3f" cx="713" cy="-23" rx="36.2938" ry="18"/>
<text text-anchor="middle" x="713" y="-19.3" font-family="Times,serif" font-size="14.00">038 (a)</text>
</g>
<!-- 045&#45;&gt;038 -->
<g id="edge9" class="edge"><title>045&#45;&gt;038</title>
<path fill="none" stroke="#b43f3f" stroke-dasharray="1,5" d="M713,-91.799C713,-80.1626 713,-64.5479 713,-51.2368"/>
<polygon fill="#b43f3f" stroke="#b43f3f" points="716.5,-51.1754 713,-41.1754 709.5,-51.1755 716.5,-51.1754"/>
<text text-anchor="middle" x="735" y="-62.8" font-family="Times,serif" font-size="14.00">1 (92.7)</text>
</g>
<!-- 0141 -->
<g id="node14" class="node"><title>0141</title>
<ellipse fill="#ff8a8a" stroke="#b43f3f" cx="808" cy="-110" rx="40.0939" ry="18"/>
<text text-anchor="middle" x="808" y="-106.3" font-family="Times,serif" font-size="14.00">0141 (a)</text>
</g>
<!-- 05 -->
<g id="node15" class="node"><title>05</title>
<ellipse fill="#ff8a8a" stroke="#b43f3f" cx="808" cy="-23" rx="31.6951" ry="18"/>
<text text-anchor="middle" x="808" y="-19.3" font-family="Times,serif" font-size="14.00">05 (a)</text>
</g>
<!-- 0141&#45;&gt;05 -->
<g id="edge10" class="edge"><title>0141&#45;&gt;05</title>
<path fill="none" stroke="#b43f3f" stroke-dasharray="1,5" d="M808,-91.799C808,-80.1626 808,-64.5479 808,-51.2368"/>
<polygon fill="#b43f3f" stroke="#b43f3f" points="811.5,-51.1754 808,-41.1754 804.5,-51.1755 811.5,-51.1754"/>
<text text-anchor="middle" x="830" y="-62.8" font-family="Times,serif" font-size="14.00">9 (70.6)</text>
</g>
<!-- 07 -->
<g id="node16" class="node"><title>07</title>
<ellipse fill="#ff8a8a" stroke="#b43f3f" cx="989" cy="-110" rx="31.6951" ry="18"/>
<text text-anchor="middle" x="989" y="-106.3" font-family="Times,serif" font-size="14.00">07 (a)</text>
</g>
<!-- 037 -->
<g id="node17" class="node"><title>037</title>
<ellipse fill="#ff8a8a" stroke="#b43f3f" cx="894" cy="-23" rx="36.2938" ry="18"/>
<text text-anchor="middle" x="894" y="-19.3" font-family="Times,serif" font-size="14.00">037 (a)</text>
</g>
<!-- 07&#45;&gt;037 -->
<g id="edge11" class="edge"><title>07&#45;&gt;037</title>
<path fill="none" stroke="#b43f3f" stroke-dasharray="1,5" d="M969.214,-95.8221C960.297,-89.5722 949.815,-81.7806 941,-74 931.837,-65.9115 922.469,-56.2757 914.533,-47.6319"/>
<polygon fill="#b43f3f" stroke="#b43f3f" points="916.99,-45.1295 907.694,-40.0454 911.79,-49.8165 916.99,-45.1295"/>
<text text-anchor="middle" x="963" y="-62.8" font-family="Times,serif" font-size="14.00">1 (97.5)</text>
</g>
<!-- 0211 -->
<g id="node18" class="node"><title>0211</title>
<ellipse fill="#ff8a8a" stroke="#b43f3f" cx="989" cy="-23" rx="40.0939" ry="18"/>
<text text-anchor="middle" x="989" y="-19.3" font-family="Times,serif" font-size="14.00">0211 (a)</text>
</g>
<!-- 07&#45;&gt;0211 -->
<g id="edge12" class="edge"><title>07&#45;&gt;0211</title>
<path fill="none" stroke="#b43f3f" stroke-dasharray="1,5" d="M989,-91.799C989,-80.1626 989,-64.5479 989,-51.2368"/>
<polygon fill="#b43f3f" stroke="#b43f3f" points="992.5,-51.1754 989,-41.1754 985.5,-51.1755 992.5,-51.1754"/>
<text text-anchor="middle" x="1011" y="-62.8" font-family="Times,serif" font-size="14.00">2 (82.9)</text>
</g>
<!-- 030 -->
<g id="node19" class="node"><title>030</title>
<ellipse fill="#ff8a8a" stroke="#b43f3f" cx="1084" cy="-23" rx="36.2938" ry="18"/>
<text text-anchor="middle" x="1084" y="-19.3" font-family="Times,serif" font-size="14.00">030 (a)</text>
</g>
<!-- 07&#45;&gt;030 -->
<g id="edge13" class="edge"><title>07&#45;&gt;030</title>
<path fill="none" stroke="#b43f3f" stroke-dasharray="1,5" d="M1008.79,-95.8221C1017.7,-89.5722 1028.19,-81.7806 1037,-74 1046.16,-65.9115 1055.53,-56.2757 1063.47,-47.6319"/>
<polygon fill="#b43f3f" stroke="#b43f3f" points="1066.21,-49.8165 1070.31,-40.0454 1061.01,-45.1295 1066.21,-49.8165"/>
<text text-anchor="middle" x="1074" y="-62.8" font-family="Times,serif" font-size="14.00">1 (95.1)</text>
</g>
<!-- 011 -->
<g id="node20" class="node"><title>011</title>
<ellipse fill="#ff8a8a" stroke="#b43f3f" cx="1075" cy="-110" rx="36.2938" ry="18"/>
<text text-anchor="middle" x="1075" y="-106.3" font-family="Times,serif" font-size="14.00">011 (a)</text>
</g>
<!-- 028 -->
<g id="node21" class="node"><title>028</title>
<ellipse fill="#ff8a8a" stroke="#b43f3f" cx="1166" cy="-110" rx="36.2938" ry="18"/>
<text text-anchor="middle" x="1166" y="-106.3" font-family="Times,serif" font-size="14.00">028 (a)</text>
</g>
<!-- 034 -->
<g id="node22" class="node"><title>034</title>
<ellipse fill="#cea8f4" stroke="#835da9" cx="1257" cy="-110" rx="36.2938" ry="18"/>
<text text-anchor="middle" x="1257" y="-106.3" font-family="Times,serif" font-size="14.00">034 (b)</text>
</g>
</g>
</svg>
