<?xml version="1.0" encoding="UTF-8" standalone="no"?>
<!DOCTYPE svg PUBLIC "-//W3C//DTD SVG 1.1//EN"
 "http://www.w3.org/Graphics/SVG/1.1/DTD/svg11.dtd">
<!-- Generated by graphviz version 2.38.0 (20140413.2041)
 -->
<!-- Title: %3 Pages: 1 -->
<svg width="820pt" height="408pt"
 viewBox="0.00 0.00 819.69 408.00" xmlns="http://www.w3.org/2000/svg" xmlns:xlink="http://www.w3.org/1999/xlink">
<g id="graph0" class="graph" transform="scale(1 1) rotate(0) translate(4 404)">
<title>%3</title>
<polygon fill="white" stroke="none" points="-4,4 -4,-404 815.693,-404 815.693,4 -4,4"/>
<g id="clust1" class="cluster"><title>cluster_legend</title>
<path fill="none" stroke="black" d="M164.397,-264C164.397,-264 354.397,-264 354.397,-264 360.397,-264 366.397,-270 366.397,-276 366.397,-276 366.397,-380 366.397,-380 366.397,-386 360.397,-392 354.397,-392 354.397,-392 164.397,-392 164.397,-392 158.397,-392 152.397,-386 152.397,-380 152.397,-380 152.397,-276 152.397,-276 152.397,-270 158.397,-264 164.397,-264"/>
</g>
<!-- leg_s -->
<g id="node1" class="node"><title>leg_s</title>
<text text-anchor="middle" x="259.397" y="-362.3" font-family="Times,serif" font-size="14.00">Textual flow strength</text>
</g>
<!-- leg_e1 -->
<!-- leg_s&#45;&gt;leg_e1 -->
<g id="edge1" class="edge"><title>leg_s&#45;&gt;leg_e1</title>
<path fill="none" stroke="black" stroke-dasharray="1,5" d="M241.062,-347.686C235.529,-342.194 229.557,-335.989 224.397,-330 214.568,-318.593 204.469,-304.779 197.31,-294.563"/>
<polygon fill="black" stroke="black" points="200.011,-292.314 191.453,-286.068 194.248,-296.288 200.011,-292.314"/>
<text text-anchor="middle" x="239.897" y="-318.8" font-family="Times,serif" font-size="14.00">&lt;=5 &#160;</text>
</g>
<!-- leg_e2 -->
<!-- leg_s&#45;&gt;leg_e2 -->
<g id="edge2" class="edge"><title>leg_s&#45;&gt;leg_e2</title>
<path fill="none" stroke="black" stroke-dasharray="5,2" d="M259.397,-347.799C259.397,-332.794 259.397,-311.174 259.397,-296.409"/>
<polygon fill="black" stroke="black" points="262.897,-296.293 259.397,-286.293 255.897,-296.293 262.897,-296.293"/>
<text text-anchor="middle" x="278.397" y="-318.8" font-family="Times,serif" font-size="14.00"> &#160;&lt;=25</text>
</g>
<!-- leg_e3 -->
<!-- leg_s&#45;&gt;leg_e3 -->
<g id="edge3" class="edge"><title>leg_s&#45;&gt;leg_e3</title>
<path fill="none" stroke="black" d="M282.9,-347.76C289.303,-342.462 295.963,-336.344 301.397,-330 310.484,-319.39 318.492,-305.689 323.943,-295.313"/>
<polygon fill="black" stroke="black" points="327.119,-296.789 328.488,-286.283 320.866,-293.642 327.119,-296.789"/>
<text text-anchor="middle" x="323.397" y="-318.8" font-family="Times,serif" font-size="14.00">&gt;25</text>
</g>
<!-- 03 -->
<g id="node5" class="node"><title>03</title>
<ellipse fill="#ff8a8a" stroke="#b43f3f" cx="494.397" cy="-366" rx="31.6951" ry="18"/>
<text text-anchor="middle" x="494.397" y="-362.3" font-family="Times,serif" font-size="14.00">03 (a)</text>
</g>
<!-- 02 -->
<g id="node6" class="node"><title>02</title>
<ellipse fill="#ff8a8a" stroke="#b43f3f" cx="408.397" cy="-279" rx="31.6951" ry="18"/>
<text text-anchor="middle" x="408.397" y="-275.3" font-family="Times,serif" font-size="14.00">02 (a)</text>
</g>
<!-- 03&#45;&gt;02 -->
<g id="edge4" class="edge"><title>03&#45;&gt;02</title>
<path fill="none" stroke="#b43f3f" stroke-dasharray="1,5" d="M473.75,-351.912C464.864,-345.796 454.645,-338.086 446.397,-330 438.572,-322.329 431.035,-312.975 424.765,-304.442"/>
<polygon fill="#b43f3f" stroke="#b43f3f" points="427.603,-302.394 418.954,-296.275 421.899,-306.452 427.603,-302.394"/>
<text text-anchor="middle" x="468.397" y="-318.8" font-family="Times,serif" font-size="14.00">1 (86.5)</text>
</g>
<!-- 044 -->
<g id="node7" class="node"><title>044</title>
<ellipse fill="#ff8a8a" stroke="#b43f3f" cx="494.397" cy="-279" rx="36.2938" ry="18"/>
<text text-anchor="middle" x="494.397" y="-275.3" font-family="Times,serif" font-size="14.00">044 (a)</text>
</g>
<!-- 03&#45;&gt;044 -->
<g id="edge5" class="edge"><title>03&#45;&gt;044</title>
<path fill="none" stroke="#b43f3f" stroke-dasharray="1,5" d="M494.397,-347.799C494.397,-336.163 494.397,-320.548 494.397,-307.237"/>
<polygon fill="#b43f3f" stroke="#b43f3f" points="497.897,-307.175 494.397,-297.175 490.897,-307.175 497.897,-307.175"/>
<text text-anchor="middle" x="516.397" y="-318.8" font-family="Times,serif" font-size="14.00">1 (89.2)</text>
</g>
<!-- 032 -->
<g id="node8" class="node"><title>032</title>
<ellipse fill="#ff8a8a" stroke="#b43f3f" cx="585.397" cy="-279" rx="36.2938" ry="18"/>
<text text-anchor="middle" x="585.397" y="-275.3" font-family="Times,serif" font-size="14.00">032 (a)</text>
</g>
<!-- 03&#45;&gt;032 -->
<g id="edge6" class="edge"><title>03&#45;&gt;032</title>
<path fill="none" stroke="#b43f3f" stroke-dasharray="1,5" d="M514.816,-351.672C523.659,-345.512 533.908,-337.834 542.397,-330 550.941,-322.115 559.472,-312.619 566.657,-304.029"/>
<polygon fill="#b43f3f" stroke="#b43f3f" points="569.474,-306.113 573.089,-296.155 564.053,-301.685 569.474,-306.113"/>
<text text-anchor="middle" x="578.397" y="-318.8" font-family="Times,serif" font-size="14.00">1 (91.7)</text>
</g>
<!-- 021 -->
<g id="node9" class="node"><title>021</title>
<ellipse fill="#ff8a8a" stroke="#b43f3f" cx="127.397" cy="-192" rx="36.2938" ry="18"/>
<text text-anchor="middle" x="127.397" y="-188.3" font-family="Times,serif" font-size="14.00">021 (a)</text>
</g>
<!-- 044&#45;&gt;021 -->
<g id="edge12" class="edge"><title>044&#45;&gt;021</title>
<path fill="none" stroke="#b43f3f" stroke-dasharray="1,5" d="M467.601,-266.685C461.688,-264.526 455.397,-262.481 449.397,-261 385.921,-245.336 367.477,-255.972 303.397,-243 255.651,-233.335 201.947,-217.306 166.56,-206.006"/>
<polygon fill="#b43f3f" stroke="#b43f3f" points="167.231,-202.545 156.639,-202.809 165.083,-209.208 167.231,-202.545"/>
<text text-anchor="middle" x="325.397" y="-231.8" font-family="Times,serif" font-size="14.00">2 (83.8)</text>
</g>
<!-- 022 -->
<g id="node12" class="node"><title>022</title>
<ellipse fill="#ff8a8a" stroke="#b43f3f" cx="270.397" cy="-192" rx="36.2938" ry="18"/>
<text text-anchor="middle" x="270.397" y="-188.3" font-family="Times,serif" font-size="14.00">022 (a)</text>
</g>
<!-- 044&#45;&gt;022 -->
<g id="edge13" class="edge"><title>044&#45;&gt;022</title>
<path fill="none" stroke="#b43f3f" stroke-dasharray="1,5" d="M466.439,-267.028C460.826,-264.941 454.946,-262.838 449.397,-261 421.752,-251.847 413.825,-252.784 386.397,-243 358.564,-233.072 327.892,-219.742 305.082,-209.343"/>
<polygon fill="#b43f3f" stroke="#b43f3f" points="306.366,-206.081 295.819,-205.084 303.442,-212.441 306.366,-206.081"/>
<text text-anchor="middle" x="408.397" y="-231.8" font-family="Times,serif" font-size="14.00">1 (91.7)</text>
</g>
<!-- 07 -->
<g id="node16" class="node"><title>07</title>
<ellipse fill="#ff8a8a" stroke="#b43f3f" cx="408.397" cy="-192" rx="31.6951" ry="18"/>
<text text-anchor="middle" x="408.397" y="-188.3" font-family="Times,serif" font-size="14.00">07 (a)</text>
</g>
<!-- 044&#45;&gt;07 -->
<g id="edge14" class="edge"><title>044&#45;&gt;07</title>
<path fill="none" stroke="#b43f3f" stroke-dasharray="1,5" d="M472.793,-264.25C464.136,-258.245 454.351,-250.798 446.397,-243 438.572,-235.329 431.035,-225.975 424.765,-217.442"/>
<polygon fill="#b43f3f" stroke="#b43f3f" points="427.603,-215.394 418.954,-209.275 421.899,-219.452 427.603,-215.394"/>
<text text-anchor="middle" x="468.397" y="-231.8" font-family="Times,serif" font-size="14.00">2 (83.8)</text>
</g>
<!-- 045 -->
<g id="node17" class="node"><title>045</title>
<ellipse fill="#ff8a8a" stroke="#b43f3f" cx="494.397" cy="-192" rx="36.2938" ry="18"/>
<text text-anchor="middle" x="494.397" y="-188.3" font-family="Times,serif" font-size="14.00">045 (a)</text>
</g>
<!-- 044&#45;&gt;045 -->
<g id="edge15" class="edge"><title>044&#45;&gt;045</title>
<path fill="none" stroke="#b43f3f" stroke-dasharray="1,5" d="M494.397,-260.799C494.397,-249.163 494.397,-233.548 494.397,-220.237"/>
<polygon fill="#b43f3f" stroke="#b43f3f" points="497.897,-220.175 494.397,-210.175 490.897,-220.175 497.897,-220.175"/>
<text text-anchor="middle" x="516.397" y="-231.8" font-family="Times,serif" font-size="14.00">2 (81.1)</text>
</g>
<!-- 028 -->
<g id="node18" class="node"><title>028</title>
<ellipse fill="#ff8a8a" stroke="#b43f3f" cx="585.397" cy="-192" rx="36.2938" ry="18"/>
<text text-anchor="middle" x="585.397" y="-188.3" font-family="Times,serif" font-size="14.00">028 (a)</text>
</g>
<!-- 044&#45;&gt;028 -->
<g id="edge16" class="edge"><title>044&#45;&gt;028</title>
<path fill="none" stroke="#b43f3f" stroke-dasharray="1,5" d="M515.768,-264.006C524.389,-257.963 534.211,-250.554 542.397,-243 550.941,-235.115 559.472,-225.619 566.657,-217.029"/>
<polygon fill="#b43f3f" stroke="#b43f3f" points="569.474,-219.113 573.089,-209.155 564.053,-214.685 569.474,-219.113"/>
<text text-anchor="middle" x="578.397" y="-231.8" font-family="Times,serif" font-size="14.00">2 (81.1)</text>
</g>
<!-- 011 -->
<g id="node19" class="node"><title>011</title>
<ellipse fill="#ff8a8a" stroke="#b43f3f" cx="676.397" cy="-192" rx="36.2938" ry="18"/>
<text text-anchor="middle" x="676.397" y="-188.3" font-family="Times,serif" font-size="14.00">011 (a)</text>
</g>
<!-- 044&#45;&gt;011 -->
<g id="edge17" class="edge"><title>044&#45;&gt;011</title>
<path fill="none" stroke="#b43f3f" stroke-dasharray="1,5" d="M522.492,-267.213C528.377,-265.067 534.567,-262.894 540.397,-261 568.499,-251.871 577.67,-255.601 604.397,-243 620.657,-235.334 637.241,-224.096 650.388,-214.216"/>
<polygon fill="#b43f3f" stroke="#b43f3f" points="652.709,-216.847 658.494,-207.97 648.436,-211.302 652.709,-216.847"/>
<text text-anchor="middle" x="652.397" y="-231.8" font-family="Times,serif" font-size="14.00">2 (86.5)</text>
</g>
<!-- 0141 -->
<g id="node20" class="node"><title>0141</title>
<ellipse fill="#ff8a8a" stroke="#b43f3f" cx="771.397" cy="-192" rx="40.0939" ry="18"/>
<text text-anchor="middle" x="771.397" y="-188.3" font-family="Times,serif" font-size="14.00">0141 (a)</text>
</g>
<!-- 044&#45;&gt;0141 -->
<g id="edge18" class="edge"><title>044&#45;&gt;0141</title>
<path fill="none" stroke="#b43f3f" stroke-dasharray="1,5" d="M521.813,-266.728C527.856,-264.566 534.28,-262.509 540.397,-261 600.45,-246.186 619.521,-261.957 678.397,-243 700.537,-235.871 723.576,-223.526 741.184,-212.887"/>
<polygon fill="#b43f3f" stroke="#b43f3f" points="743.202,-215.754 749.864,-207.515 739.518,-209.802 743.202,-215.754"/>
<text text-anchor="middle" x="735.397" y="-231.8" font-family="Times,serif" font-size="14.00">1 (89.2)</text>
</g>
<!-- 047 -->
<g id="node10" class="node"><title>047</title>
<ellipse fill="#ff8a8a" stroke="#b43f3f" cx="36.3968" cy="-105" rx="36.2938" ry="18"/>
<text text-anchor="middle" x="36.3968" y="-101.3" font-family="Times,serif" font-size="14.00">047 (a)</text>
</g>
<!-- 021&#45;&gt;047 -->
<g id="edge7" class="edge"><title>021&#45;&gt;047</title>
<path fill="none" stroke="#b43f3f" stroke-dasharray="1,5" d="M106.025,-177.006C97.4044,-170.963 87.5824,-163.554 79.3968,-156 70.8527,-148.115 62.3211,-138.619 55.1364,-130.029"/>
<polygon fill="#b43f3f" stroke="#b43f3f" points="57.741,-127.685 48.7043,-122.155 52.3196,-132.113 57.741,-127.685"/>
<text text-anchor="middle" x="101.397" y="-144.8" font-family="Times,serif" font-size="14.00">1 (95.1)</text>
</g>
<!-- 036 -->
<g id="node11" class="node"><title>036</title>
<ellipse fill="#ff8a8a" stroke="#b43f3f" cx="127.397" cy="-105" rx="36.2938" ry="18"/>
<text text-anchor="middle" x="127.397" y="-101.3" font-family="Times,serif" font-size="14.00">036 (a)</text>
</g>
<!-- 021&#45;&gt;036 -->
<g id="edge8" class="edge"><title>021&#45;&gt;036</title>
<path fill="none" stroke="#b43f3f" stroke-dasharray="1,5" d="M127.397,-173.799C127.397,-162.163 127.397,-146.548 127.397,-133.237"/>
<polygon fill="#b43f3f" stroke="#b43f3f" points="130.897,-133.175 127.397,-123.175 123.897,-133.175 130.897,-133.175"/>
<text text-anchor="middle" x="149.397" y="-144.8" font-family="Times,serif" font-size="14.00">1 (97.6)</text>
</g>
<!-- 031 -->
<g id="node13" class="node"><title>031</title>
<ellipse fill="#ff8a8a" stroke="#b43f3f" cx="218.397" cy="-105" rx="36.2938" ry="18"/>
<text text-anchor="middle" x="218.397" y="-101.3" font-family="Times,serif" font-size="14.00">031 (a)</text>
</g>
<!-- 022&#45;&gt;031 -->
<g id="edge9" class="edge"><title>022&#45;&gt;031</title>
<path fill="none" stroke="#b43f3f" stroke-dasharray="1,5" d="M259.441,-174.74C255.564,-168.879 251.219,-162.185 247.397,-156 242.544,-148.146 237.434,-139.48 232.878,-131.599"/>
<polygon fill="#b43f3f" stroke="#b43f3f" points="235.845,-129.737 227.833,-122.805 229.773,-133.22 235.845,-129.737"/>
<text text-anchor="middle" x="269.397" y="-144.8" font-family="Times,serif" font-size="14.00">2 (86.7)</text>
</g>
<!-- 017 -->
<g id="node14" class="node"><title>017</title>
<ellipse fill="#ff8a8a" stroke="#b43f3f" cx="173.397" cy="-18" rx="36.2938" ry="18"/>
<text text-anchor="middle" x="173.397" y="-14.3" font-family="Times,serif" font-size="14.00">017 (a)</text>
</g>
<!-- 031&#45;&gt;017 -->
<g id="edge10" class="edge"><title>031&#45;&gt;017</title>
<path fill="none" stroke="#b43f3f" stroke-dasharray="1,5" d="M208.644,-87.3706C205.322,-81.5933 201.633,-75.047 198.397,-69 194.229,-61.2133 189.866,-52.6446 185.972,-44.8337"/>
<polygon fill="#b43f3f" stroke="#b43f3f" points="189.069,-43.1997 181.5,-35.7855 182.793,-46.3011 189.069,-43.1997"/>
<text text-anchor="middle" x="220.397" y="-57.8" font-family="Times,serif" font-size="14.00">1 (94.3)</text>
</g>
<!-- 013 -->
<g id="node15" class="node"><title>013</title>
<ellipse fill="#ff8a8a" stroke="#b43f3f" cx="264.397" cy="-18" rx="36.2938" ry="18"/>
<text text-anchor="middle" x="264.397" y="-14.3" font-family="Times,serif" font-size="14.00">013 (a)</text>
</g>
<!-- 031&#45;&gt;013 -->
<g id="edge11" class="edge"><title>031&#45;&gt;013</title>
<path fill="none" stroke="#b43f3f" stroke-dasharray="1,5" d="M230.526,-87.6704C234.546,-81.9172 238.886,-75.3093 242.397,-69 246.547,-61.5417 250.498,-53.1477 253.877,-45.3977"/>
<polygon fill="#b43f3f" stroke="#b43f3f" points="257.161,-46.6185 257.824,-36.0444 250.712,-43.8974 257.161,-46.6185"/>
<text text-anchor="middle" x="272.397" y="-57.8" font-family="Times,serif" font-size="14.00">1 (97.1)</text>
</g>
<!-- 0211 -->
<g id="node21" class="node"><title>0211</title>
<ellipse fill="#ff8a8a" stroke="#b43f3f" cx="313.397" cy="-105" rx="40.0939" ry="18"/>
<text text-anchor="middle" x="313.397" y="-101.3" font-family="Times,serif" font-size="14.00">0211 (a)</text>
</g>
<!-- 07&#45;&gt;0211 -->
<g id="edge19" class="edge"><title>07&#45;&gt;0211</title>
<path fill="none" stroke="#b43f3f" stroke-dasharray="1,5" d="M388.611,-177.822C379.694,-171.572 369.211,-163.781 360.397,-156 351.233,-147.911 341.866,-138.276 333.93,-129.632"/>
<polygon fill="#b43f3f" stroke="#b43f3f" points="336.386,-127.129 327.091,-122.045 331.187,-131.816 336.386,-127.129"/>
<text text-anchor="middle" x="382.397" y="-144.8" font-family="Times,serif" font-size="14.00">2 (82.9)</text>
</g>
<!-- 030 -->
<g id="node22" class="node"><title>030</title>
<ellipse fill="#ff8a8a" stroke="#b43f3f" cx="408.397" cy="-105" rx="36.2938" ry="18"/>
<text text-anchor="middle" x="408.397" y="-101.3" font-family="Times,serif" font-size="14.00">030 (a)</text>
</g>
<!-- 07&#45;&gt;030 -->
<g id="edge20" class="edge"><title>07&#45;&gt;030</title>
<path fill="none" stroke="#b43f3f" stroke-dasharray="1,5" d="M408.397,-173.799C408.397,-162.163 408.397,-146.548 408.397,-133.237"/>
<polygon fill="#b43f3f" stroke="#b43f3f" points="411.897,-133.175 408.397,-123.175 404.897,-133.175 411.897,-133.175"/>
<text text-anchor="middle" x="430.397" y="-144.8" font-family="Times,serif" font-size="14.00">1 (95.1)</text>
</g>
<!-- 037 -->
<g id="node23" class="node"><title>037</title>
<ellipse fill="#ff8a8a" stroke="#b43f3f" cx="499.397" cy="-105" rx="36.2938" ry="18"/>
<text text-anchor="middle" x="499.397" y="-101.3" font-family="Times,serif" font-size="14.00">037 (a)</text>
</g>
<!-- 07&#45;&gt;037 -->
<g id="edge21" class="edge"><title>07&#45;&gt;037</title>
<path fill="none" stroke="#b43f3f" stroke-dasharray="1,5" d="M428.816,-177.672C437.659,-171.512 447.908,-163.834 456.397,-156 464.941,-148.115 473.472,-138.619 480.657,-130.029"/>
<polygon fill="#b43f3f" stroke="#b43f3f" points="483.474,-132.113 487.089,-122.155 478.053,-127.685 483.474,-132.113"/>
<text text-anchor="middle" x="492.397" y="-144.8" font-family="Times,serif" font-size="14.00">1 (97.5)</text>
</g>
<!-- 034 -->
<g id="node24" class="node"><title>034</title>
<ellipse fill="#ff8a8a" stroke="#b43f3f" cx="590.397" cy="-105" rx="36.2938" ry="18"/>
<text text-anchor="middle" x="590.397" y="-101.3" font-family="Times,serif" font-size="14.00">034 (a)</text>
</g>
<!-- 07&#45;&gt;034 -->
<g id="edge22" class="edge"><title>07&#45;&gt;034</title>
<path fill="none" stroke="#b43f3f" stroke-dasharray="1,5" d="M432.904,-180.194C438.285,-178.003 443.991,-175.816 449.397,-174 479.44,-163.907 489.603,-169.243 518.397,-156 534.842,-148.436 551.549,-137.107 564.724,-127.144"/>
<polygon fill="#b43f3f" stroke="#b43f3f" points="567.081,-129.745 572.834,-120.848 562.788,-124.216 567.081,-129.745"/>
<text text-anchor="middle" x="566.397" y="-144.8" font-family="Times,serif" font-size="14.00">1 (95.1)</text>
</g>
<!-- 038 -->
<g id="node25" class="node"><title>038</title>
<ellipse fill="#ff8a8a" stroke="#b43f3f" cx="681.397" cy="-105" rx="36.2938" ry="18"/>
<text text-anchor="middle" x="681.397" y="-101.3" font-family="Times,serif" font-size="14.00">038 (a)</text>
</g>
<!-- 045&#45;&gt;038 -->
<g id="edge23" class="edge"><title>045&#45;&gt;038</title>
<path fill="none" stroke="#b43f3f" stroke-dasharray="1,5" d="M522.582,-180.478C528.461,-178.313 534.625,-176.065 540.397,-174 563.424,-165.761 570.091,-166.029 592.397,-156 612.445,-146.986 633.958,-134.969 650.811,-124.976"/>
<polygon fill="#b43f3f" stroke="#b43f3f" points="652.885,-127.813 659.655,-119.664 649.28,-121.812 652.885,-127.813"/>
<text text-anchor="middle" x="645.397" y="-144.8" font-family="Times,serif" font-size="14.00">1 (92.7)</text>
</g>
<!-- P75 -->
<g id="node26" class="node"><title>P75</title>
<ellipse fill="#cea8f4" stroke="#835da9" cx="672.397" cy="-366" rx="37.0935" ry="18"/>
<text text-anchor="middle" x="672.397" y="-362.3" font-family="Times,serif" font-size="14.00">P75 (b)</text>
</g>
<!-- 01 -->
<g id="node27" class="node"><title>01</title>
<ellipse fill="#cea8f4" stroke="#835da9" cx="672.397" cy="-279" rx="32.4942" ry="18"/>
<text text-anchor="middle" x="672.397" y="-275.3" font-family="Times,serif" font-size="14.00">01 (b)</text>
</g>
<!-- P75&#45;&gt;01 -->
<g id="edge24" class="edge"><title>P75&#45;&gt;01</title>
<path fill="none" stroke="#835da9" stroke-dasharray="1,5" d="M672.397,-347.799C672.397,-336.163 672.397,-320.548 672.397,-307.237"/>
<polygon fill="#835da9" stroke="#835da9" points="675.897,-307.175 672.397,-297.175 668.897,-307.175 675.897,-307.175"/>
<text text-anchor="middle" x="697.897" y="-318.8" font-family="Times,serif" font-size="14.00">11 (42.4)</text>
</g>
<!-- 019 -->
<g id="node28" class="node"><title>019</title>
<ellipse fill="#cea8f4" stroke="#835da9" cx="763.397" cy="-366" rx="36.2938" ry="18"/>
<text text-anchor="middle" x="763.397" y="-362.3" font-family="Times,serif" font-size="14.00">019 (b)</text>
</g>
</g>
</svg>
