<?xml version="1.0" encoding="UTF-8" standalone="no"?>
<!DOCTYPE svg PUBLIC "-//W3C//DTD SVG 1.1//EN"
 "http://www.w3.org/Graphics/SVG/1.1/DTD/svg11.dtd">
<!-- Generated by graphviz version 2.38.0 (20140413.2041)
 -->
<!-- Title: %3 Pages: 1 -->
<svg width="1205pt" height="321pt"
 viewBox="0.00 0.00 1205.24 321.00" xmlns="http://www.w3.org/2000/svg" xmlns:xlink="http://www.w3.org/1999/xlink">
<g id="graph0" class="graph" transform="scale(1 1) rotate(0) translate(4 317)">
<title>%3</title>
<polygon fill="white" stroke="none" points="-4,4 -4,-317 1201.24,-317 1201.24,4 -4,4"/>
<g id="clust1" class="cluster"><title>cluster_legend</title>
<path fill="none" stroke="black" d="M62.3968,-177C62.3968,-177 252.397,-177 252.397,-177 258.397,-177 264.397,-183 264.397,-189 264.397,-189 264.397,-293 264.397,-293 264.397,-299 258.397,-305 252.397,-305 252.397,-305 62.3968,-305 62.3968,-305 56.3968,-305 50.3968,-299 50.3968,-293 50.3968,-293 50.3968,-189 50.3968,-189 50.3968,-183 56.3968,-177 62.3968,-177"/>
</g>
<!-- leg_s -->
<g id="node1" class="node"><title>leg_s</title>
<text text-anchor="middle" x="157.397" y="-275.3" font-family="Times,serif" font-size="14.00">Textual flow strength</text>
</g>
<!-- leg_e1 -->
<!-- leg_s&#45;&gt;leg_e1 -->
<g id="edge1" class="edge"><title>leg_s&#45;&gt;leg_e1</title>
<path fill="none" stroke="black" stroke-dasharray="1,5" d="M139.062,-260.686C133.529,-255.194 127.557,-248.989 122.397,-243 112.568,-231.593 102.469,-217.779 95.3105,-207.563"/>
<polygon fill="black" stroke="black" points="98.011,-205.314 89.4528,-199.068 92.2482,-209.288 98.011,-205.314"/>
<text text-anchor="middle" x="137.897" y="-231.8" font-family="Times,serif" font-size="14.00">&lt;=5 &#160;</text>
</g>
<!-- leg_e2 -->
<!-- leg_s&#45;&gt;leg_e2 -->
<g id="edge2" class="edge"><title>leg_s&#45;&gt;leg_e2</title>
<path fill="none" stroke="black" stroke-dasharray="5,2" d="M157.397,-260.799C157.397,-245.794 157.397,-224.174 157.397,-209.409"/>
<polygon fill="black" stroke="black" points="160.897,-209.293 157.397,-199.293 153.897,-209.293 160.897,-209.293"/>
<text text-anchor="middle" x="176.397" y="-231.8" font-family="Times,serif" font-size="14.00"> &#160;&lt;=25</text>
</g>
<!-- leg_e3 -->
<!-- leg_s&#45;&gt;leg_e3 -->
<g id="edge3" class="edge"><title>leg_s&#45;&gt;leg_e3</title>
<path fill="none" stroke="black" d="M180.9,-260.76C187.303,-255.462 193.963,-249.344 199.397,-243 208.484,-232.39 216.492,-218.689 221.943,-208.313"/>
<polygon fill="black" stroke="black" points="225.119,-209.789 226.488,-199.283 218.866,-206.642 225.119,-209.789"/>
<text text-anchor="middle" x="221.397" y="-231.8" font-family="Times,serif" font-size="14.00">&gt;25</text>
</g>
<!-- 091 -->
<g id="node5" class="node"><title>091</title>
<ellipse fill="#ff8a8a" stroke="#b43f3f" cx="352.397" cy="-279" rx="36.2938" ry="18"/>
<text text-anchor="middle" x="352.397" y="-275.3" font-family="Times,serif" font-size="14.00">091 (a)</text>
</g>
<!-- 05 -->
<g id="node6" class="node"><title>05</title>
<ellipse fill="#ff8a8a" stroke="#b43f3f" cx="306.397" cy="-192" rx="31.6951" ry="18"/>
<text text-anchor="middle" x="306.397" y="-188.3" font-family="Times,serif" font-size="14.00">05 (a)</text>
</g>
<!-- 091&#45;&gt;05 -->
<g id="edge4" class="edge"><title>091&#45;&gt;05</title>
<path fill="none" stroke="#b43f3f" stroke-dasharray="1,5" d="M338.109,-262.414C333.3,-256.617 328.197,-249.791 324.397,-243 320.387,-235.834 316.99,-227.608 314.264,-219.924"/>
<polygon fill="#b43f3f" stroke="#b43f3f" points="317.535,-218.666 311.072,-210.271 310.888,-220.864 317.535,-218.666"/>
<text text-anchor="middle" x="346.397" y="-231.8" font-family="Times,serif" font-size="14.00">1 (87.5)</text>
</g>
<!-- 0211 -->
<g id="node7" class="node"><title>0211</title>
<ellipse fill="#ff8a8a" stroke="#b43f3f" cx="396.397" cy="-192" rx="40.0939" ry="18"/>
<text text-anchor="middle" x="396.397" y="-188.3" font-family="Times,serif" font-size="14.00">0211 (a)</text>
</g>
<!-- 091&#45;&gt;0211 -->
<g id="edge5" class="edge"><title>091&#45;&gt;0211</title>
<path fill="none" stroke="#b43f3f" stroke-dasharray="1,5" d="M361.09,-261.207C367.357,-249.099 375.933,-232.533 383.063,-218.759"/>
<polygon fill="#b43f3f" stroke="#b43f3f" points="386.233,-220.248 387.722,-209.758 380.016,-217.03 386.233,-220.248"/>
<text text-anchor="middle" x="399.397" y="-231.8" font-family="Times,serif" font-size="14.00">1 (83.3)</text>
</g>
<!-- 063 -->
<g id="node8" class="node"><title>063</title>
<ellipse fill="#ff8a8a" stroke="#b43f3f" cx="491.397" cy="-192" rx="36.2938" ry="18"/>
<text text-anchor="middle" x="491.397" y="-188.3" font-family="Times,serif" font-size="14.00">063 (a)</text>
</g>
<!-- 07 -->
<g id="node9" class="node"><title>07</title>
<ellipse fill="#ff8a8a" stroke="#b43f3f" cx="247.397" cy="-105" rx="31.6951" ry="18"/>
<text text-anchor="middle" x="247.397" y="-101.3" font-family="Times,serif" font-size="14.00">07 (a)</text>
</g>
<!-- 063&#45;&gt;07 -->
<g id="edge6" class="edge"><title>063&#45;&gt;07</title>
<path fill="none" stroke="#b43f3f" stroke-dasharray="1,5" d="M463.296,-180.232C457.411,-178.084 451.223,-175.906 445.397,-174 417.72,-164.946 410.071,-165.064 382.397,-156 348.127,-144.776 309.604,-130.322 282.508,-119.843"/>
<polygon fill="#b43f3f" stroke="#b43f3f" points="283.66,-116.536 273.071,-116.176 281.124,-123.061 283.66,-116.536"/>
<text text-anchor="middle" x="404.397" y="-144.8" font-family="Times,serif" font-size="14.00">1 (96.6)</text>
</g>
<!-- 028 -->
<g id="node10" class="node"><title>028</title>
<ellipse fill="#ff8a8a" stroke="#b43f3f" cx="400.397" cy="-105" rx="36.2938" ry="18"/>
<text text-anchor="middle" x="400.397" y="-101.3" font-family="Times,serif" font-size="14.00">028 (a)</text>
</g>
<!-- 063&#45;&gt;028 -->
<g id="edge7" class="edge"><title>063&#45;&gt;028</title>
<path fill="none" stroke="#b43f3f" stroke-dasharray="1,5" d="M470.025,-177.006C461.404,-170.963 451.582,-163.554 443.397,-156 434.853,-148.115 426.321,-138.619 419.136,-130.029"/>
<polygon fill="#b43f3f" stroke="#b43f3f" points="421.741,-127.685 412.704,-122.155 416.32,-132.113 421.741,-127.685"/>
<text text-anchor="middle" x="465.397" y="-144.8" font-family="Times,serif" font-size="14.00">1 (96.6)</text>
</g>
<!-- 021 -->
<g id="node11" class="node"><title>021</title>
<ellipse fill="#ff8a8a" stroke="#b43f3f" cx="491.397" cy="-105" rx="36.2938" ry="18"/>
<text text-anchor="middle" x="491.397" y="-101.3" font-family="Times,serif" font-size="14.00">021 (a)</text>
</g>
<!-- 063&#45;&gt;021 -->
<g id="edge8" class="edge"><title>063&#45;&gt;021</title>
<path fill="none" stroke="#b43f3f" stroke-dasharray="1,5" d="M491.397,-173.799C491.397,-162.163 491.397,-146.548 491.397,-133.237"/>
<polygon fill="#b43f3f" stroke="#b43f3f" points="494.897,-133.175 491.397,-123.175 487.897,-133.175 494.897,-133.175"/>
<text text-anchor="middle" x="513.397" y="-144.8" font-family="Times,serif" font-size="14.00">1 (93.1)</text>
</g>
<!-- 011 -->
<g id="node12" class="node"><title>011</title>
<ellipse fill="#ff8a8a" stroke="#b43f3f" cx="582.397" cy="-105" rx="36.2938" ry="18"/>
<text text-anchor="middle" x="582.397" y="-101.3" font-family="Times,serif" font-size="14.00">011 (a)</text>
</g>
<!-- 063&#45;&gt;011 -->
<g id="edge9" class="edge"><title>063&#45;&gt;011</title>
<path fill="none" stroke="#b43f3f" stroke-dasharray="1,5" d="M512.768,-177.006C521.389,-170.963 531.211,-163.554 539.397,-156 547.941,-148.115 556.472,-138.619 563.657,-130.029"/>
<polygon fill="#b43f3f" stroke="#b43f3f" points="566.474,-132.113 570.089,-122.155 561.053,-127.685 566.474,-132.113"/>
<text text-anchor="middle" x="575.397" y="-144.8" font-family="Times,serif" font-size="14.00">1 (93.1)</text>
</g>
<!-- 045 -->
<g id="node13" class="node"><title>045</title>
<ellipse fill="#ff8a8a" stroke="#b43f3f" cx="673.397" cy="-105" rx="36.2938" ry="18"/>
<text text-anchor="middle" x="673.397" y="-101.3" font-family="Times,serif" font-size="14.00">045 (a)</text>
</g>
<!-- 063&#45;&gt;045 -->
<g id="edge10" class="edge"><title>063&#45;&gt;045</title>
<path fill="none" stroke="#b43f3f" stroke-dasharray="1,5" d="M523.664,-183.461C546.123,-177.566 576.405,-168.305 601.397,-156 617.525,-148.059 634.099,-136.801 647.273,-126.977"/>
<polygon fill="#b43f3f" stroke="#b43f3f" points="649.572,-129.626 655.401,-120.778 645.327,-124.06 649.572,-129.626"/>
<text text-anchor="middle" x="648.397" y="-144.8" font-family="Times,serif" font-size="14.00">1 (93.1)</text>
</g>
<!-- 017 -->
<g id="node14" class="node"><title>017</title>
<ellipse fill="#ff8a8a" stroke="#b43f3f" cx="36.3968" cy="-18" rx="36.2938" ry="18"/>
<text text-anchor="middle" x="36.3968" y="-14.3" font-family="Times,serif" font-size="14.00">017 (a)</text>
</g>
<!-- 07&#45;&gt;017 -->
<g id="edge11" class="edge"><title>07&#45;&gt;017</title>
<path fill="none" stroke="#b43f3f" stroke-dasharray="1,5" d="M217.653,-98.43C190.979,-92.8555 151.118,-83.0761 118.397,-69 99.5751,-60.9033 79.9289,-49.059 64.5866,-38.9306"/>
<polygon fill="#b43f3f" stroke="#b43f3f" points="66.3386,-35.8907 56.0893,-33.2067 62.4277,-41.6964 66.3386,-35.8907"/>
<text text-anchor="middle" x="140.397" y="-57.8" font-family="Times,serif" font-size="14.00">2 (92.7)</text>
</g>
<!-- 037 -->
<g id="node15" class="node"><title>037</title>
<ellipse fill="#ff8a8a" stroke="#b43f3f" cx="127.397" cy="-18" rx="36.2938" ry="18"/>
<text text-anchor="middle" x="127.397" y="-14.3" font-family="Times,serif" font-size="14.00">037 (a)</text>
</g>
<!-- 07&#45;&gt;037 -->
<g id="edge12" class="edge"><title>07&#45;&gt;037</title>
<path fill="none" stroke="#b43f3f" stroke-dasharray="1,5" d="M223.827,-92.7488C211.394,-86.4134 196.123,-77.9827 183.397,-69 171.802,-60.8157 159.939,-50.5475 150.134,-41.449"/>
<polygon fill="#b43f3f" stroke="#b43f3f" points="152.425,-38.7979 142.756,-34.4651 147.612,-43.8815 152.425,-38.7979"/>
<text text-anchor="middle" x="205.397" y="-57.8" font-family="Times,serif" font-size="14.00">1 (97.5)</text>
</g>
<!-- 030 -->
<g id="node16" class="node"><title>030</title>
<ellipse fill="#ff8a8a" stroke="#b43f3f" cx="218.397" cy="-18" rx="36.2938" ry="18"/>
<text text-anchor="middle" x="218.397" y="-14.3" font-family="Times,serif" font-size="14.00">030 (a)</text>
</g>
<!-- 07&#45;&gt;030 -->
<g id="edge13" class="edge"><title>07&#45;&gt;030</title>
<path fill="none" stroke="#b43f3f" stroke-dasharray="1,5" d="M241.667,-87.2067C237.642,-75.4091 232.173,-59.3781 227.548,-45.8221"/>
<polygon fill="#b43f3f" stroke="#b43f3f" points="230.755,-44.3835 224.214,-36.0493 224.13,-46.6438 230.755,-44.3835"/>
<text text-anchor="middle" x="257.397" y="-57.8" font-family="Times,serif" font-size="14.00">1 (95.1)</text>
</g>
<!-- 013 -->
<g id="node17" class="node"><title>013</title>
<ellipse fill="#ff8a8a" stroke="#b43f3f" cx="309.397" cy="-18" rx="36.2938" ry="18"/>
<text text-anchor="middle" x="309.397" y="-14.3" font-family="Times,serif" font-size="14.00">013 (a)</text>
</g>
<!-- 07&#45;&gt;013 -->
<g id="edge14" class="edge"><title>07&#45;&gt;013</title>
<path fill="none" stroke="#b43f3f" stroke-dasharray="1,5" d="M264.312,-89.669C270.763,-83.6891 277.882,-76.4141 283.397,-69 288.853,-61.6646 293.789,-53.0229 297.859,-45.0059"/>
<polygon fill="#b43f3f" stroke="#b43f3f" points="301.013,-46.5232 302.218,-35.9971 294.712,-43.4745 301.013,-46.5232"/>
<text text-anchor="middle" x="315.397" y="-57.8" font-family="Times,serif" font-size="14.00">2 (95.1)</text>
</g>
<!-- 034 -->
<g id="node18" class="node"><title>034</title>
<ellipse fill="#ff8a8a" stroke="#b43f3f" cx="400.397" cy="-18" rx="36.2938" ry="18"/>
<text text-anchor="middle" x="400.397" y="-14.3" font-family="Times,serif" font-size="14.00">034 (a)</text>
</g>
<!-- 07&#45;&gt;034 -->
<g id="edge15" class="edge"><title>07&#45;&gt;034</title>
<path fill="none" stroke="#b43f3f" stroke-dasharray="1,5" d="M275.682,-96.2864C294.964,-90.3649 320.659,-81.143 341.397,-69 354.323,-61.4312 367.188,-50.9635 377.59,-41.561"/>
<polygon fill="#b43f3f" stroke="#b43f3f" points="380.087,-44.0181 385.025,-34.6441 375.319,-38.8931 380.087,-44.0181"/>
<text text-anchor="middle" x="384.397" y="-57.8" font-family="Times,serif" font-size="14.00">1 (95.1)</text>
</g>
<!-- 036 -->
<g id="node19" class="node"><title>036</title>
<ellipse fill="#ff8a8a" stroke="#b43f3f" cx="491.397" cy="-18" rx="36.2938" ry="18"/>
<text text-anchor="middle" x="491.397" y="-14.3" font-family="Times,serif" font-size="14.00">036 (a)</text>
</g>
<!-- 021&#45;&gt;036 -->
<g id="edge16" class="edge"><title>021&#45;&gt;036</title>
<path fill="none" stroke="#b43f3f" stroke-dasharray="1,5" d="M491.397,-86.799C491.397,-75.1626 491.397,-59.5479 491.397,-46.2368"/>
<polygon fill="#b43f3f" stroke="#b43f3f" points="494.897,-46.1754 491.397,-36.1754 487.897,-46.1755 494.897,-46.1754"/>
<text text-anchor="middle" x="513.397" y="-57.8" font-family="Times,serif" font-size="14.00">1 (97.6)</text>
</g>
<!-- 047 -->
<g id="node20" class="node"><title>047</title>
<ellipse fill="#ff8a8a" stroke="#b43f3f" cx="582.397" cy="-18" rx="36.2938" ry="18"/>
<text text-anchor="middle" x="582.397" y="-14.3" font-family="Times,serif" font-size="14.00">047 (a)</text>
</g>
<!-- 021&#45;&gt;047 -->
<g id="edge17" class="edge"><title>021&#45;&gt;047</title>
<path fill="none" stroke="#b43f3f" stroke-dasharray="1,5" d="M512.768,-90.006C521.389,-83.9634 531.211,-76.5539 539.397,-69 547.941,-61.1154 556.472,-51.6186 563.657,-43.0293"/>
<polygon fill="#b43f3f" stroke="#b43f3f" points="566.474,-45.1135 570.089,-35.1545 561.053,-40.6853 566.474,-45.1135"/>
<text text-anchor="middle" x="575.397" y="-57.8" font-family="Times,serif" font-size="14.00">1 (95.1)</text>
</g>
<!-- 03 -->
<g id="node21" class="node"><title>03</title>
<ellipse fill="#ff8a8a" stroke="#b43f3f" cx="902.397" cy="-279" rx="31.6951" ry="18"/>
<text text-anchor="middle" x="902.397" y="-275.3" font-family="Times,serif" font-size="14.00">03 (a)</text>
</g>
<!-- 044 -->
<g id="node22" class="node"><title>044</title>
<ellipse fill="#ff8a8a" stroke="#b43f3f" cx="811.397" cy="-192" rx="36.2938" ry="18"/>
<text text-anchor="middle" x="811.397" y="-188.3" font-family="Times,serif" font-size="14.00">044 (a)</text>
</g>
<!-- 03&#45;&gt;044 -->
<g id="edge18" class="edge"><title>03&#45;&gt;044</title>
<path fill="none" stroke="#b43f3f" stroke-dasharray="1,5" d="M881.978,-264.672C873.134,-258.512 862.886,-250.834 854.397,-243 845.853,-235.115 837.321,-225.619 830.136,-217.029"/>
<polygon fill="#b43f3f" stroke="#b43f3f" points="832.741,-214.685 823.704,-209.155 827.32,-219.113 832.741,-214.685"/>
<text text-anchor="middle" x="876.397" y="-231.8" font-family="Times,serif" font-size="14.00">1 (89.2)</text>
</g>
<!-- 032 -->
<g id="node23" class="node"><title>032</title>
<ellipse fill="#ff8a8a" stroke="#b43f3f" cx="902.397" cy="-192" rx="36.2938" ry="18"/>
<text text-anchor="middle" x="902.397" y="-188.3" font-family="Times,serif" font-size="14.00">032 (a)</text>
</g>
<!-- 03&#45;&gt;032 -->
<g id="edge19" class="edge"><title>03&#45;&gt;032</title>
<path fill="none" stroke="#b43f3f" stroke-dasharray="1,5" d="M902.397,-260.799C902.397,-249.163 902.397,-233.548 902.397,-220.237"/>
<polygon fill="#b43f3f" stroke="#b43f3f" points="905.897,-220.175 902.397,-210.175 898.897,-220.175 905.897,-220.175"/>
<text text-anchor="middle" x="924.397" y="-231.8" font-family="Times,serif" font-size="14.00">1 (91.7)</text>
</g>
<!-- 02 -->
<g id="node24" class="node"><title>02</title>
<ellipse fill="#ff8a8a" stroke="#b43f3f" cx="988.397" cy="-192" rx="31.6951" ry="18"/>
<text text-anchor="middle" x="988.397" y="-188.3" font-family="Times,serif" font-size="14.00">02 (a)</text>
</g>
<!-- 03&#45;&gt;02 -->
<g id="edge20" class="edge"><title>03&#45;&gt;02</title>
<path fill="none" stroke="#b43f3f" stroke-dasharray="1,5" d="M923.044,-264.912C931.93,-258.796 942.148,-251.086 950.397,-243 958.221,-235.329 965.759,-225.975 972.029,-217.442"/>
<polygon fill="#b43f3f" stroke="#b43f3f" points="974.894,-219.452 977.84,-209.275 969.191,-215.394 974.894,-219.452"/>
<text text-anchor="middle" x="984.397" y="-231.8" font-family="Times,serif" font-size="14.00">1 (86.5)</text>
</g>
<!-- 022 -->
<g id="node25" class="node"><title>022</title>
<ellipse fill="#ff8a8a" stroke="#b43f3f" cx="764.397" cy="-105" rx="36.2938" ry="18"/>
<text text-anchor="middle" x="764.397" y="-101.3" font-family="Times,serif" font-size="14.00">022 (a)</text>
</g>
<!-- 044&#45;&gt;022 -->
<g id="edge21" class="edge"><title>044&#45;&gt;022</title>
<path fill="none" stroke="#b43f3f" stroke-dasharray="1,5" d="M802.111,-174.207C795.373,-162.021 786.137,-145.318 778.492,-131.491"/>
<polygon fill="#b43f3f" stroke="#b43f3f" points="781.405,-129.527 773.503,-122.469 775.279,-132.914 781.405,-129.527"/>
<text text-anchor="middle" x="813.397" y="-144.8" font-family="Times,serif" font-size="14.00">1 (91.7)</text>
</g>
<!-- 0141 -->
<g id="node26" class="node"><title>0141</title>
<ellipse fill="#ff8a8a" stroke="#b43f3f" cx="859.397" cy="-105" rx="40.0939" ry="18"/>
<text text-anchor="middle" x="859.397" y="-101.3" font-family="Times,serif" font-size="14.00">0141 (a)</text>
</g>
<!-- 044&#45;&gt;0141 -->
<g id="edge22" class="edge"><title>044&#45;&gt;0141</title>
<path fill="none" stroke="#b43f3f" stroke-dasharray="1,5" d="M824.355,-175.139C828.792,-169.316 833.592,-162.544 837.397,-156 841.687,-148.622 845.68,-140.251 849.055,-132.498"/>
<polygon fill="#b43f3f" stroke="#b43f3f" points="852.343,-133.706 852.973,-123.13 845.886,-131.004 852.343,-133.706"/>
<text text-anchor="middle" x="867.397" y="-144.8" font-family="Times,serif" font-size="14.00">1 (89.2)</text>
</g>
<!-- 019 -->
<g id="node27" class="node"><title>019</title>
<ellipse fill="#ff8a8a" stroke="#b43f3f" cx="491.397" cy="-279" rx="36.2938" ry="18"/>
<text text-anchor="middle" x="491.397" y="-275.3" font-family="Times,serif" font-size="14.00">019 (a)</text>
</g>
<!-- 019&#45;&gt;063 -->
<g id="edge23" class="edge"><title>019&#45;&gt;063</title>
<path fill="none" stroke="#b43f3f" stroke-dasharray="1,5" d="M491.397,-260.799C491.397,-249.163 491.397,-233.548 491.397,-220.237"/>
<polygon fill="#b43f3f" stroke="#b43f3f" points="494.897,-220.175 491.397,-210.175 487.897,-220.175 494.897,-220.175"/>
<text text-anchor="middle" x="513.397" y="-231.8" font-family="Times,serif" font-size="14.00">1 (85.7)</text>
</g>
<!-- P75 -->
<g id="node28" class="node"><title>P75</title>
<ellipse fill="#ff8a8a" stroke="#b43f3f" cx="988.397" cy="-279" rx="36.2938" ry="18"/>
<text text-anchor="middle" x="988.397" y="-275.3" font-family="Times,serif" font-size="14.00">P75 (a)</text>
</g>
<!-- 038 -->
<g id="node29" class="node"><title>038</title>
<ellipse fill="#cea8f4" stroke="#835da9" cx="1079.4" cy="-279" rx="36.2938" ry="18"/>
<text text-anchor="middle" x="1079.4" y="-275.3" font-family="Times,serif" font-size="14.00">038 (b)</text>
</g>
<!-- 01 -->
<g id="node30" class="node"><title>01</title>
<ellipse fill="#72fe95" stroke="#27b34a" cx="1165.4" cy="-279" rx="31.6951" ry="18"/>
<text text-anchor="middle" x="1165.4" y="-275.3" font-family="Times,serif" font-size="14.00">01 (c)</text>
</g>
</g>
</svg>
