<?xml version="1.0" encoding="UTF-8" standalone="no"?>
<!DOCTYPE svg PUBLIC "-//W3C//DTD SVG 1.1//EN"
 "http://www.w3.org/Graphics/SVG/1.1/DTD/svg11.dtd">
<!-- Generated by graphviz version 2.38.0 (20140413.2041)
 -->
<!-- Title: %3 Pages: 1 -->
<svg width="1163pt" height="321pt"
 viewBox="0.00 0.00 1163.40 321.00" xmlns="http://www.w3.org/2000/svg" xmlns:xlink="http://www.w3.org/1999/xlink">
<g id="graph0" class="graph" transform="scale(1 1) rotate(0) translate(4 317)">
<title>%3</title>
<polygon fill="white" stroke="none" points="-4,4 -4,-317 1159.4,-317 1159.4,4 -4,4"/>
<g id="clust1" class="cluster"><title>cluster_legend</title>
<path fill="none" stroke="black" d="M289.397,-177C289.397,-177 479.397,-177 479.397,-177 485.397,-177 491.397,-183 491.397,-189 491.397,-189 491.397,-293 491.397,-293 491.397,-299 485.397,-305 479.397,-305 479.397,-305 289.397,-305 289.397,-305 283.397,-305 277.397,-299 277.397,-293 277.397,-293 277.397,-189 277.397,-189 277.397,-183 283.397,-177 289.397,-177"/>
</g>
<!-- leg_s -->
<g id="node1" class="node"><title>leg_s</title>
<text text-anchor="middle" x="384.397" y="-275.3" font-family="Times,serif" font-size="14.00">Textual flow strength</text>
</g>
<!-- leg_e1 -->
<!-- leg_s&#45;&gt;leg_e1 -->
<g id="edge1" class="edge"><title>leg_s&#45;&gt;leg_e1</title>
<path fill="none" stroke="black" stroke-dasharray="1,5" d="M366.062,-260.686C360.529,-255.194 354.557,-248.989 349.397,-243 339.568,-231.593 329.469,-217.779 322.31,-207.563"/>
<polygon fill="black" stroke="black" points="325.011,-205.314 316.453,-199.068 319.248,-209.288 325.011,-205.314"/>
<text text-anchor="middle" x="364.897" y="-231.8" font-family="Times,serif" font-size="14.00">&lt;=5 &#160;</text>
</g>
<!-- leg_e2 -->
<!-- leg_s&#45;&gt;leg_e2 -->
<g id="edge2" class="edge"><title>leg_s&#45;&gt;leg_e2</title>
<path fill="none" stroke="black" stroke-dasharray="5,2" d="M384.397,-260.799C384.397,-245.794 384.397,-224.174 384.397,-209.409"/>
<polygon fill="black" stroke="black" points="387.897,-209.293 384.397,-199.293 380.897,-209.293 387.897,-209.293"/>
<text text-anchor="middle" x="403.397" y="-231.8" font-family="Times,serif" font-size="14.00"> &#160;&lt;=25</text>
</g>
<!-- leg_e3 -->
<!-- leg_s&#45;&gt;leg_e3 -->
<g id="edge3" class="edge"><title>leg_s&#45;&gt;leg_e3</title>
<path fill="none" stroke="black" d="M407.9,-260.76C414.303,-255.462 420.963,-249.344 426.397,-243 435.484,-232.39 443.492,-218.689 448.943,-208.313"/>
<polygon fill="black" stroke="black" points="452.119,-209.789 453.488,-199.283 445.866,-206.642 452.119,-209.789"/>
<text text-anchor="middle" x="448.397" y="-231.8" font-family="Times,serif" font-size="14.00">&gt;25</text>
</g>
<!-- 021 -->
<g id="node5" class="node"><title>021</title>
<ellipse fill="#ff8a8a" stroke="#b43f3f" cx="127.397" cy="-105" rx="36.2938" ry="18"/>
<text text-anchor="middle" x="127.397" y="-101.3" font-family="Times,serif" font-size="14.00">021 (a)</text>
</g>
<!-- 036 -->
<g id="node6" class="node"><title>036</title>
<ellipse fill="#ff8a8a" stroke="#b43f3f" cx="36.3968" cy="-18" rx="36.2938" ry="18"/>
<text text-anchor="middle" x="36.3968" y="-14.3" font-family="Times,serif" font-size="14.00">036 (a)</text>
</g>
<!-- 021&#45;&gt;036 -->
<g id="edge4" class="edge"><title>021&#45;&gt;036</title>
<path fill="none" stroke="#b43f3f" stroke-dasharray="1,5" d="M106.025,-90.006C97.4044,-83.9634 87.5824,-76.5539 79.3968,-69 70.8527,-61.1154 62.3211,-51.6186 55.1364,-43.0293"/>
<polygon fill="#b43f3f" stroke="#b43f3f" points="57.741,-40.6853 48.7043,-35.1545 52.3196,-45.1135 57.741,-40.6853"/>
<text text-anchor="middle" x="101.397" y="-57.8" font-family="Times,serif" font-size="14.00">1 (97.6)</text>
</g>
<!-- 047 -->
<g id="node7" class="node"><title>047</title>
<ellipse fill="#ff8a8a" stroke="#b43f3f" cx="127.397" cy="-18" rx="36.2938" ry="18"/>
<text text-anchor="middle" x="127.397" y="-14.3" font-family="Times,serif" font-size="14.00">047 (a)</text>
</g>
<!-- 021&#45;&gt;047 -->
<g id="edge5" class="edge"><title>021&#45;&gt;047</title>
<path fill="none" stroke="#b43f3f" stroke-dasharray="1,5" d="M127.397,-86.799C127.397,-75.1626 127.397,-59.5479 127.397,-46.2368"/>
<polygon fill="#b43f3f" stroke="#b43f3f" points="130.897,-46.1754 127.397,-36.1754 123.897,-46.1755 130.897,-46.1754"/>
<text text-anchor="middle" x="149.397" y="-57.8" font-family="Times,serif" font-size="14.00">1 (95.1)</text>
</g>
<!-- 03 -->
<g id="node8" class="node"><title>03</title>
<ellipse fill="#ff8a8a" stroke="#b43f3f" cx="936.397" cy="-279" rx="31.6951" ry="18"/>
<text text-anchor="middle" x="936.397" y="-275.3" font-family="Times,serif" font-size="14.00">03 (a)</text>
</g>
<!-- 032 -->
<g id="node9" class="node"><title>032</title>
<ellipse fill="#ff8a8a" stroke="#b43f3f" cx="845.397" cy="-192" rx="36.2938" ry="18"/>
<text text-anchor="middle" x="845.397" y="-188.3" font-family="Times,serif" font-size="14.00">032 (a)</text>
</g>
<!-- 03&#45;&gt;032 -->
<g id="edge6" class="edge"><title>03&#45;&gt;032</title>
<path fill="none" stroke="#b43f3f" stroke-dasharray="1,5" d="M915.978,-264.672C907.134,-258.512 896.886,-250.834 888.397,-243 879.853,-235.115 871.321,-225.619 864.136,-217.029"/>
<polygon fill="#b43f3f" stroke="#b43f3f" points="866.741,-214.685 857.704,-209.155 861.32,-219.113 866.741,-214.685"/>
<text text-anchor="middle" x="910.397" y="-231.8" font-family="Times,serif" font-size="14.00">1 (91.7)</text>
</g>
<!-- 044 -->
<g id="node10" class="node"><title>044</title>
<ellipse fill="#ff8a8a" stroke="#b43f3f" cx="936.397" cy="-192" rx="36.2938" ry="18"/>
<text text-anchor="middle" x="936.397" y="-188.3" font-family="Times,serif" font-size="14.00">044 (a)</text>
</g>
<!-- 03&#45;&gt;044 -->
<g id="edge7" class="edge"><title>03&#45;&gt;044</title>
<path fill="none" stroke="#b43f3f" stroke-dasharray="1,5" d="M936.397,-260.799C936.397,-249.163 936.397,-233.548 936.397,-220.237"/>
<polygon fill="#b43f3f" stroke="#b43f3f" points="939.897,-220.175 936.397,-210.175 932.897,-220.175 939.897,-220.175"/>
<text text-anchor="middle" x="958.397" y="-231.8" font-family="Times,serif" font-size="14.00">1 (89.2)</text>
</g>
<!-- 02 -->
<g id="node11" class="node"><title>02</title>
<ellipse fill="#ff8a8a" stroke="#b43f3f" cx="1022.4" cy="-192" rx="31.6951" ry="18"/>
<text text-anchor="middle" x="1022.4" y="-188.3" font-family="Times,serif" font-size="14.00">02 (a)</text>
</g>
<!-- 03&#45;&gt;02 -->
<g id="edge8" class="edge"><title>03&#45;&gt;02</title>
<path fill="none" stroke="#b43f3f" stroke-dasharray="1,5" d="M957.044,-264.912C965.93,-258.796 976.148,-251.086 984.397,-243 992.221,-235.329 999.759,-225.975 1006.03,-217.442"/>
<polygon fill="#b43f3f" stroke="#b43f3f" points="1008.89,-219.452 1011.84,-209.275 1003.19,-215.394 1008.89,-219.452"/>
<text text-anchor="middle" x="1019.4" y="-231.8" font-family="Times,serif" font-size="14.00">1 (86.5)</text>
</g>
<!-- 05 -->
<g id="node24" class="node"><title>05</title>
<ellipse fill="#ff8a8a" stroke="#b43f3f" cx="850.397" cy="-105" rx="31.6951" ry="18"/>
<text text-anchor="middle" x="850.397" y="-101.3" font-family="Times,serif" font-size="14.00">05 (a)</text>
</g>
<!-- 044&#45;&gt;05 -->
<g id="edge21" class="edge"><title>044&#45;&gt;05</title>
<path fill="none" stroke="#b43f3f" stroke-dasharray="1,5" d="M914.793,-177.25C906.136,-171.245 896.351,-163.798 888.397,-156 880.572,-148.329 873.035,-138.975 866.765,-130.442"/>
<polygon fill="#b43f3f" stroke="#b43f3f" points="869.603,-128.394 860.954,-122.275 863.899,-132.452 869.603,-128.394"/>
<text text-anchor="middle" x="910.397" y="-144.8" font-family="Times,serif" font-size="14.00">3 (76.7)</text>
</g>
<!-- 022 -->
<g id="node25" class="node"><title>022</title>
<ellipse fill="#ff8a8a" stroke="#b43f3f" cx="936.397" cy="-105" rx="36.2938" ry="18"/>
<text text-anchor="middle" x="936.397" y="-101.3" font-family="Times,serif" font-size="14.00">022 (a)</text>
</g>
<!-- 044&#45;&gt;022 -->
<g id="edge22" class="edge"><title>044&#45;&gt;022</title>
<path fill="none" stroke="#b43f3f" stroke-dasharray="1,5" d="M936.397,-173.799C936.397,-162.163 936.397,-146.548 936.397,-133.237"/>
<polygon fill="#b43f3f" stroke="#b43f3f" points="939.897,-133.175 936.397,-123.175 932.897,-133.175 939.897,-133.175"/>
<text text-anchor="middle" x="958.397" y="-144.8" font-family="Times,serif" font-size="14.00">1 (91.7)</text>
</g>
<!-- 0141 -->
<g id="node26" class="node"><title>0141</title>
<ellipse fill="#ff8a8a" stroke="#b43f3f" cx="1031.4" cy="-105" rx="40.0939" ry="18"/>
<text text-anchor="middle" x="1031.4" y="-101.3" font-family="Times,serif" font-size="14.00">0141 (a)</text>
</g>
<!-- 044&#45;&gt;0141 -->
<g id="edge23" class="edge"><title>044&#45;&gt;0141</title>
<path fill="none" stroke="#b43f3f" stroke-dasharray="1,5" d="M957.127,-177.159C965.833,-171.025 975.891,-163.508 984.397,-156 993.56,-147.911 1002.93,-138.276 1010.86,-129.632"/>
<polygon fill="#b43f3f" stroke="#b43f3f" points="1013.61,-131.816 1017.7,-122.045 1008.41,-127.129 1013.61,-131.816"/>
<text text-anchor="middle" x="1022.4" y="-144.8" font-family="Times,serif" font-size="14.00">1 (89.2)</text>
</g>
<!-- 07 -->
<g id="node12" class="node"><title>07</title>
<ellipse fill="#ff8a8a" stroke="#b43f3f" cx="338.397" cy="-105" rx="31.6951" ry="18"/>
<text text-anchor="middle" x="338.397" y="-101.3" font-family="Times,serif" font-size="14.00">07 (a)</text>
</g>
<!-- 034 -->
<g id="node13" class="node"><title>034</title>
<ellipse fill="#ff8a8a" stroke="#b43f3f" cx="218.397" cy="-18" rx="36.2938" ry="18"/>
<text text-anchor="middle" x="218.397" y="-14.3" font-family="Times,serif" font-size="14.00">034 (a)</text>
</g>
<!-- 07&#45;&gt;034 -->
<g id="edge9" class="edge"><title>07&#45;&gt;034</title>
<path fill="none" stroke="#b43f3f" stroke-dasharray="1,5" d="M314.827,-92.7488C302.394,-86.4134 287.123,-77.9827 274.397,-69 262.802,-60.8157 250.939,-50.5475 241.134,-41.449"/>
<polygon fill="#b43f3f" stroke="#b43f3f" points="243.425,-38.7979 233.756,-34.4651 238.612,-43.8815 243.425,-38.7979"/>
<text text-anchor="middle" x="296.397" y="-57.8" font-family="Times,serif" font-size="14.00">1 (95.1)</text>
</g>
<!-- 037 -->
<g id="node14" class="node"><title>037</title>
<ellipse fill="#ff8a8a" stroke="#b43f3f" cx="309.397" cy="-18" rx="36.2938" ry="18"/>
<text text-anchor="middle" x="309.397" y="-14.3" font-family="Times,serif" font-size="14.00">037 (a)</text>
</g>
<!-- 07&#45;&gt;037 -->
<g id="edge10" class="edge"><title>07&#45;&gt;037</title>
<path fill="none" stroke="#b43f3f" stroke-dasharray="1,5" d="M332.667,-87.2067C328.642,-75.4091 323.173,-59.3781 318.548,-45.8221"/>
<polygon fill="#b43f3f" stroke="#b43f3f" points="321.755,-44.3835 315.214,-36.0493 315.13,-46.6438 321.755,-44.3835"/>
<text text-anchor="middle" x="348.397" y="-57.8" font-family="Times,serif" font-size="14.00">1 (97.5)</text>
</g>
<!-- 030 -->
<g id="node15" class="node"><title>030</title>
<ellipse fill="#ff8a8a" stroke="#b43f3f" cx="400.397" cy="-18" rx="36.2938" ry="18"/>
<text text-anchor="middle" x="400.397" y="-14.3" font-family="Times,serif" font-size="14.00">030 (a)</text>
</g>
<!-- 07&#45;&gt;030 -->
<g id="edge11" class="edge"><title>07&#45;&gt;030</title>
<path fill="none" stroke="#b43f3f" stroke-dasharray="1,5" d="M355.312,-89.669C361.763,-83.6891 368.882,-76.4141 374.397,-69 379.853,-61.6646 384.789,-53.0229 388.859,-45.0059"/>
<polygon fill="#b43f3f" stroke="#b43f3f" points="392.013,-46.5232 393.218,-35.9971 385.712,-43.4745 392.013,-46.5232"/>
<text text-anchor="middle" x="406.397" y="-57.8" font-family="Times,serif" font-size="14.00">1 (95.1)</text>
</g>
<!-- 031 -->
<g id="node16" class="node"><title>031</title>
<ellipse fill="#ff8a8a" stroke="#b43f3f" cx="491.397" cy="-105" rx="36.2938" ry="18"/>
<text text-anchor="middle" x="491.397" y="-101.3" font-family="Times,serif" font-size="14.00">031 (a)</text>
</g>
<!-- 013 -->
<g id="node17" class="node"><title>013</title>
<ellipse fill="#ff8a8a" stroke="#b43f3f" cx="491.397" cy="-18" rx="36.2938" ry="18"/>
<text text-anchor="middle" x="491.397" y="-14.3" font-family="Times,serif" font-size="14.00">013 (a)</text>
</g>
<!-- 031&#45;&gt;013 -->
<g id="edge12" class="edge"><title>031&#45;&gt;013</title>
<path fill="none" stroke="#b43f3f" stroke-dasharray="1,5" d="M491.397,-86.799C491.397,-75.1626 491.397,-59.5479 491.397,-46.2368"/>
<polygon fill="#b43f3f" stroke="#b43f3f" points="494.897,-46.1754 491.397,-36.1754 487.897,-46.1755 494.897,-46.1754"/>
<text text-anchor="middle" x="513.397" y="-57.8" font-family="Times,serif" font-size="14.00">1 (97.1)</text>
</g>
<!-- 017 -->
<g id="node18" class="node"><title>017</title>
<ellipse fill="#ff8a8a" stroke="#b43f3f" cx="582.397" cy="-18" rx="36.2938" ry="18"/>
<text text-anchor="middle" x="582.397" y="-14.3" font-family="Times,serif" font-size="14.00">017 (a)</text>
</g>
<!-- 031&#45;&gt;017 -->
<g id="edge13" class="edge"><title>031&#45;&gt;017</title>
<path fill="none" stroke="#b43f3f" stroke-dasharray="1,5" d="M512.768,-90.006C521.389,-83.9634 531.211,-76.5539 539.397,-69 547.941,-61.1154 556.472,-51.6186 563.657,-43.0293"/>
<polygon fill="#b43f3f" stroke="#b43f3f" points="566.474,-45.1135 570.089,-35.1545 561.053,-40.6853 566.474,-45.1135"/>
<text text-anchor="middle" x="575.397" y="-57.8" font-family="Times,serif" font-size="14.00">1 (94.3)</text>
</g>
<!-- 063 -->
<g id="node19" class="node"><title>063</title>
<ellipse fill="#ff8a8a" stroke="#b43f3f" cx="537.397" cy="-192" rx="36.2938" ry="18"/>
<text text-anchor="middle" x="537.397" y="-188.3" font-family="Times,serif" font-size="14.00">063 (a)</text>
</g>
<!-- 063&#45;&gt;021 -->
<g id="edge14" class="edge"><title>063&#45;&gt;021</title>
<path fill="none" stroke="#b43f3f" stroke-dasharray="1,5" d="M511.061,-179.242C505.939,-177.27 500.557,-175.41 495.397,-174 443.374,-159.784 428.513,-165.332 375.397,-156 303.105,-143.299 219.515,-125.873 170.183,-115.304"/>
<polygon fill="#b43f3f" stroke="#b43f3f" points="170.705,-111.836 160.193,-113.157 169.234,-118.68 170.705,-111.836"/>
<text text-anchor="middle" x="397.397" y="-144.8" font-family="Times,serif" font-size="14.00">1 (93.1)</text>
</g>
<!-- 063&#45;&gt;07 -->
<g id="edge15" class="edge"><title>063&#45;&gt;07</title>
<path fill="none" stroke="#b43f3f" stroke-dasharray="1,5" d="M510.806,-179.654C494.758,-172.805 473.902,-163.903 455.397,-156 427.49,-144.081 395.842,-130.556 372.505,-120.581"/>
<polygon fill="#b43f3f" stroke="#b43f3f" points="373.618,-117.25 363.047,-116.538 370.866,-123.687 373.618,-117.25"/>
<text text-anchor="middle" x="477.397" y="-144.8" font-family="Times,serif" font-size="14.00">1 (96.6)</text>
</g>
<!-- 063&#45;&gt;031 -->
<g id="edge16" class="edge"><title>063&#45;&gt;031</title>
<path fill="none" stroke="#b43f3f" stroke-dasharray="1,5" d="M523.109,-175.414C518.3,-169.617 513.197,-162.791 509.397,-156 505.387,-148.834 501.99,-140.608 499.264,-132.924"/>
<polygon fill="#b43f3f" stroke="#b43f3f" points="502.535,-131.666 496.072,-123.271 495.888,-133.864 502.535,-131.666"/>
<text text-anchor="middle" x="531.397" y="-144.8" font-family="Times,serif" font-size="14.00">1 (95.8)</text>
</g>
<!-- 045 -->
<g id="node20" class="node"><title>045</title>
<ellipse fill="#ff8a8a" stroke="#b43f3f" cx="582.397" cy="-105" rx="36.2938" ry="18"/>
<text text-anchor="middle" x="582.397" y="-101.3" font-family="Times,serif" font-size="14.00">045 (a)</text>
</g>
<!-- 063&#45;&gt;045 -->
<g id="edge17" class="edge"><title>063&#45;&gt;045</title>
<path fill="none" stroke="#b43f3f" stroke-dasharray="1,5" d="M546.287,-174.207C552.697,-162.099 561.468,-145.533 568.76,-131.759"/>
<polygon fill="#b43f3f" stroke="#b43f3f" points="571.939,-133.234 573.525,-122.758 565.752,-129.959 571.939,-133.234"/>
<text text-anchor="middle" x="585.397" y="-144.8" font-family="Times,serif" font-size="14.00">1 (93.1)</text>
</g>
<!-- 011 -->
<g id="node21" class="node"><title>011</title>
<ellipse fill="#ff8a8a" stroke="#b43f3f" cx="673.397" cy="-105" rx="36.2938" ry="18"/>
<text text-anchor="middle" x="673.397" y="-101.3" font-family="Times,serif" font-size="14.00">011 (a)</text>
</g>
<!-- 063&#45;&gt;011 -->
<g id="edge18" class="edge"><title>063&#45;&gt;011</title>
<path fill="none" stroke="#b43f3f" stroke-dasharray="1,5" d="M564.573,-179.997C578.927,-173.731 596.588,-165.289 611.397,-156 624.594,-147.722 638.182,-137.047 649.262,-127.688"/>
<polygon fill="#b43f3f" stroke="#b43f3f" points="651.551,-130.335 656.845,-121.158 646.983,-125.031 651.551,-130.335"/>
<text text-anchor="middle" x="653.397" y="-144.8" font-family="Times,serif" font-size="14.00">1 (93.1)</text>
</g>
<!-- 028 -->
<g id="node22" class="node"><title>028</title>
<ellipse fill="#ff8a8a" stroke="#b43f3f" cx="764.397" cy="-105" rx="36.2938" ry="18"/>
<text text-anchor="middle" x="764.397" y="-101.3" font-family="Times,serif" font-size="14.00">028 (a)</text>
</g>
<!-- 063&#45;&gt;028 -->
<g id="edge19" class="edge"><title>063&#45;&gt;028</title>
<path fill="none" stroke="#b43f3f" stroke-dasharray="1,5" d="M571.545,-185.463C600.864,-180.038 643.888,-170.459 679.397,-156 699.198,-147.937 719.906,-135.843 735.925,-125.569"/>
<polygon fill="#b43f3f" stroke="#b43f3f" points="737.855,-128.49 744.307,-120.086 734.022,-122.632 737.855,-128.49"/>
<text text-anchor="middle" x="731.397" y="-144.8" font-family="Times,serif" font-size="14.00">1 (96.6)</text>
</g>
<!-- 038 -->
<g id="node23" class="node"><title>038</title>
<ellipse fill="#ff8a8a" stroke="#b43f3f" cx="673.397" cy="-18" rx="36.2938" ry="18"/>
<text text-anchor="middle" x="673.397" y="-14.3" font-family="Times,serif" font-size="14.00">038 (a)</text>
</g>
<!-- 045&#45;&gt;038 -->
<g id="edge20" class="edge"><title>045&#45;&gt;038</title>
<path fill="none" stroke="#b43f3f" stroke-dasharray="1,5" d="M598.666,-88.8037C612.812,-75.5898 633.497,-56.2693 649.52,-41.3029"/>
<polygon fill="#b43f3f" stroke="#b43f3f" points="652.043,-43.7352 656.962,-34.3513 647.265,-38.6196 652.043,-43.7352"/>
<text text-anchor="middle" x="655.397" y="-57.8" font-family="Times,serif" font-size="14.00">1 (92.7)</text>
</g>
<!-- 019 -->
<g id="node27" class="node"><title>019</title>
<ellipse fill="#ff8a8a" stroke="#b43f3f" cx="537.397" cy="-279" rx="36.2938" ry="18"/>
<text text-anchor="middle" x="537.397" y="-275.3" font-family="Times,serif" font-size="14.00">019 (a)</text>
</g>
<!-- 019&#45;&gt;063 -->
<g id="edge24" class="edge"><title>019&#45;&gt;063</title>
<path fill="none" stroke="#b43f3f" stroke-dasharray="1,5" d="M537.397,-260.799C537.397,-249.163 537.397,-233.548 537.397,-220.237"/>
<polygon fill="#b43f3f" stroke="#b43f3f" points="540.897,-220.175 537.397,-210.175 533.897,-220.175 540.897,-220.175"/>
<text text-anchor="middle" x="559.397" y="-231.8" font-family="Times,serif" font-size="14.00">1 (85.7)</text>
</g>
<!-- 0211 -->
<g id="node28" class="node"><title>0211</title>
<ellipse fill="#cea8f4" stroke="#835da9" cx="1104.4" cy="-279" rx="40.8928" ry="18"/>
<text text-anchor="middle" x="1104.4" y="-275.3" font-family="Times,serif" font-size="14.00">0211 (b)</text>
</g>
<!-- 01 -->
<g id="node29" class="node"><title>01</title>
<ellipse fill="#cea8f4" stroke="#835da9" cx="1104.4" cy="-192" rx="32.4942" ry="18"/>
<text text-anchor="middle" x="1104.4" y="-188.3" font-family="Times,serif" font-size="14.00">01 (b)</text>
</g>
<!-- 0211&#45;&gt;01 -->
<g id="edge25" class="edge"><title>0211&#45;&gt;01</title>
<path fill="none" stroke="#835da9" stroke-dasharray="1,5" d="M1104.4,-260.799C1104.4,-249.163 1104.4,-233.548 1104.4,-220.237"/>
<polygon fill="#835da9" stroke="#835da9" points="1107.9,-220.175 1104.4,-210.175 1100.9,-220.175 1107.9,-220.175"/>
<text text-anchor="middle" x="1129.9" y="-231.8" font-family="Times,serif" font-size="14.00">17 (39.5)</text>
</g>
</g>
</svg>
