<?xml version="1.0" encoding="UTF-8" standalone="no"?>
<!DOCTYPE svg PUBLIC "-//W3C//DTD SVG 1.1//EN"
 "http://www.w3.org/Graphics/SVG/1.1/DTD/svg11.dtd">
<!-- Generated by graphviz version 2.38.0 (20140413.2041)
 -->
<!-- Title: %3 Pages: 1 -->
<svg width="778pt" height="495pt"
 viewBox="0.00 0.00 777.69 495.00" xmlns="http://www.w3.org/2000/svg" xmlns:xlink="http://www.w3.org/1999/xlink">
<g id="graph0" class="graph" transform="scale(1 1) rotate(0) translate(4 491)">
<title>%3</title>
<polygon fill="white" stroke="none" points="-4,4 -4,-491 773.693,-491 773.693,4 -4,4"/>
<g id="clust1" class="cluster"><title>cluster_legend</title>
<path fill="none" stroke="black" d="M29.3968,-351C29.3968,-351 219.397,-351 219.397,-351 225.397,-351 231.397,-357 231.397,-363 231.397,-363 231.397,-467 231.397,-467 231.397,-473 225.397,-479 219.397,-479 219.397,-479 29.3968,-479 29.3968,-479 23.3968,-479 17.3968,-473 17.3968,-467 17.3968,-467 17.3968,-363 17.3968,-363 17.3968,-357 23.3968,-351 29.3968,-351"/>
</g>
<!-- leg_s -->
<g id="node1" class="node"><title>leg_s</title>
<text text-anchor="middle" x="124.397" y="-449.3" font-family="Times,serif" font-size="14.00">Textual flow strength</text>
</g>
<!-- leg_e1 -->
<!-- leg_s&#45;&gt;leg_e1 -->
<g id="edge1" class="edge"><title>leg_s&#45;&gt;leg_e1</title>
<path fill="none" stroke="black" stroke-dasharray="1,5" d="M106.062,-434.686C100.529,-429.194 94.5575,-422.989 89.3968,-417 79.5676,-405.593 69.469,-391.779 62.3105,-381.563"/>
<polygon fill="black" stroke="black" points="65.011,-379.314 56.4528,-373.068 59.2482,-383.288 65.011,-379.314"/>
<text text-anchor="middle" x="104.897" y="-405.8" font-family="Times,serif" font-size="14.00">&lt;=5 &#160;</text>
</g>
<!-- leg_e2 -->
<!-- leg_s&#45;&gt;leg_e2 -->
<g id="edge2" class="edge"><title>leg_s&#45;&gt;leg_e2</title>
<path fill="none" stroke="black" stroke-dasharray="5,2" d="M124.397,-434.799C124.397,-419.794 124.397,-398.174 124.397,-383.409"/>
<polygon fill="black" stroke="black" points="127.897,-383.293 124.397,-373.293 120.897,-383.293 127.897,-383.293"/>
<text text-anchor="middle" x="143.397" y="-405.8" font-family="Times,serif" font-size="14.00"> &#160;&lt;=25</text>
</g>
<!-- leg_e3 -->
<!-- leg_s&#45;&gt;leg_e3 -->
<g id="edge3" class="edge"><title>leg_s&#45;&gt;leg_e3</title>
<path fill="none" stroke="black" d="M147.9,-434.76C154.303,-429.462 160.963,-423.344 166.397,-417 175.484,-406.39 183.492,-392.689 188.943,-382.313"/>
<polygon fill="black" stroke="black" points="192.119,-383.789 193.488,-373.283 185.866,-380.642 192.119,-383.789"/>
<text text-anchor="middle" x="188.397" y="-405.8" font-family="Times,serif" font-size="14.00">&gt;25</text>
</g>
<!-- A -->
<g id="node5" class="node"><title>A</title>
<ellipse fill="#ff8a8a" stroke="#b43f3f" cx="404.397" cy="-453" rx="29.4969" ry="18"/>
<text text-anchor="middle" x="404.397" y="-449.3" font-family="Times,serif" font-size="14.00">A (a)</text>
</g>
<!-- 01 -->
<g id="node6" class="node"><title>01</title>
<ellipse fill="#ff8a8a" stroke="#b43f3f" cx="273.397" cy="-366" rx="31.6951" ry="18"/>
<text text-anchor="middle" x="273.397" y="-362.3" font-family="Times,serif" font-size="14.00">01 (a)</text>
</g>
<!-- A&#45;&gt;01 -->
<g id="edge4" class="edge"><title>A&#45;&gt;01</title>
<path fill="none" stroke="#b43f3f" stroke-dasharray="5,2" d="M380.144,-442.808C364.973,-436.553 345.353,-427.517 329.397,-417 317.375,-409.077 305.301,-398.681 295.458,-389.422"/>
<polygon fill="#b43f3f" stroke="#b43f3f" points="297.713,-386.734 288.086,-382.309 292.852,-391.772 297.713,-386.734"/>
<text text-anchor="middle" x="351.397" y="-405.8" font-family="Times,serif" font-size="14.00">1 (57.1)</text>
</g>
<!-- P75 -->
<g id="node7" class="node"><title>P75</title>
<ellipse fill="#ff8a8a" stroke="#b43f3f" cx="359.397" cy="-366" rx="36.2938" ry="18"/>
<text text-anchor="middle" x="359.397" y="-362.3" font-family="Times,serif" font-size="14.00">P75 (a)</text>
</g>
<!-- A&#45;&gt;P75 -->
<g id="edge5" class="edge"><title>A&#45;&gt;P75</title>
<path fill="none" stroke="#b43f3f" stroke-dasharray="1,5" d="M394.847,-435.723C391.473,-429.861 387.699,-423.17 384.397,-417 380.229,-409.213 375.866,-400.645 371.972,-392.834"/>
<polygon fill="#b43f3f" stroke="#b43f3f" points="375.069,-391.2 367.5,-383.785 368.793,-394.301 375.069,-391.2"/>
<text text-anchor="middle" x="406.397" y="-405.8" font-family="Times,serif" font-size="14.00">1 (93.3)</text>
</g>
<!-- 019 -->
<g id="node8" class="node"><title>019</title>
<ellipse fill="#ff8a8a" stroke="#b43f3f" cx="450.397" cy="-366" rx="36.2938" ry="18"/>
<text text-anchor="middle" x="450.397" y="-362.3" font-family="Times,serif" font-size="14.00">019 (a)</text>
</g>
<!-- A&#45;&gt;019 -->
<g id="edge6" class="edge"><title>A&#45;&gt;019</title>
<path fill="none" stroke="#b43f3f" stroke-dasharray="1,5" d="M416.036,-436.37C420.19,-430.457 424.743,-423.567 428.397,-417 432.547,-409.542 436.498,-401.148 439.877,-393.398"/>
<polygon fill="#b43f3f" stroke="#b43f3f" points="443.161,-394.619 443.824,-384.044 436.712,-391.897 443.161,-394.619"/>
<text text-anchor="middle" x="458.397" y="-405.8" font-family="Times,serif" font-size="14.00">1 (93.3)</text>
</g>
<!-- 03 -->
<g id="node9" class="node"><title>03</title>
<ellipse fill="#ff8a8a" stroke="#b43f3f" cx="536.397" cy="-366" rx="31.6951" ry="18"/>
<text text-anchor="middle" x="536.397" y="-362.3" font-family="Times,serif" font-size="14.00">03 (a)</text>
</g>
<!-- A&#45;&gt;03 -->
<g id="edge7" class="edge"><title>A&#45;&gt;03</title>
<path fill="none" stroke="#b43f3f" stroke-dasharray="1,5" d="M429.714,-443.555C446.064,-437.482 467.381,-428.371 484.397,-417 495.786,-409.389 506.935,-399.155 515.971,-389.928"/>
<polygon fill="#b43f3f" stroke="#b43f3f" points="518.679,-392.158 523.022,-382.494 513.601,-387.341 518.679,-392.158"/>
<text text-anchor="middle" x="525.397" y="-405.8" font-family="Times,serif" font-size="14.00">1 (93.3)</text>
</g>
<!-- 044 -->
<g id="node10" class="node"><title>044</title>
<ellipse fill="#ff8a8a" stroke="#b43f3f" cx="450.397" cy="-279" rx="36.2938" ry="18"/>
<text text-anchor="middle" x="450.397" y="-275.3" font-family="Times,serif" font-size="14.00">044 (a)</text>
</g>
<!-- 03&#45;&gt;044 -->
<g id="edge18" class="edge"><title>03&#45;&gt;044</title>
<path fill="none" stroke="#b43f3f" stroke-dasharray="1,5" d="M515.75,-351.912C506.864,-345.796 496.645,-338.086 488.397,-330 480.572,-322.329 473.035,-312.975 466.765,-304.442"/>
<polygon fill="#b43f3f" stroke="#b43f3f" points="469.603,-302.394 460.954,-296.275 463.899,-306.452 469.603,-302.394"/>
<text text-anchor="middle" x="510.397" y="-318.8" font-family="Times,serif" font-size="14.00">1 (89.2)</text>
</g>
<!-- 02 -->
<g id="node21" class="node"><title>02</title>
<ellipse fill="#ff8a8a" stroke="#b43f3f" cx="536.397" cy="-279" rx="31.6951" ry="18"/>
<text text-anchor="middle" x="536.397" y="-275.3" font-family="Times,serif" font-size="14.00">02 (a)</text>
</g>
<!-- 03&#45;&gt;02 -->
<g id="edge19" class="edge"><title>03&#45;&gt;02</title>
<path fill="none" stroke="#b43f3f" stroke-dasharray="1,5" d="M536.397,-347.799C536.397,-336.163 536.397,-320.548 536.397,-307.237"/>
<polygon fill="#b43f3f" stroke="#b43f3f" points="539.897,-307.175 536.397,-297.175 532.897,-307.175 539.897,-307.175"/>
<text text-anchor="middle" x="558.397" y="-318.8" font-family="Times,serif" font-size="14.00">1 (86.5)</text>
</g>
<!-- 032 -->
<g id="node22" class="node"><title>032</title>
<ellipse fill="#ff8a8a" stroke="#b43f3f" cx="622.397" cy="-279" rx="36.2938" ry="18"/>
<text text-anchor="middle" x="622.397" y="-275.3" font-family="Times,serif" font-size="14.00">032 (a)</text>
</g>
<!-- 03&#45;&gt;032 -->
<g id="edge20" class="edge"><title>03&#45;&gt;032</title>
<path fill="none" stroke="#b43f3f" stroke-dasharray="1,5" d="M557.044,-351.912C565.93,-345.796 576.148,-338.086 584.397,-330 592.221,-322.329 599.759,-312.975 606.029,-304.442"/>
<polygon fill="#b43f3f" stroke="#b43f3f" points="608.894,-306.452 611.84,-296.275 603.191,-302.394 608.894,-306.452"/>
<text text-anchor="middle" x="619.397" y="-318.8" font-family="Times,serif" font-size="14.00">1 (91.7)</text>
</g>
<!-- 022 -->
<g id="node11" class="node"><title>022</title>
<ellipse fill="#ff8a8a" stroke="#b43f3f" cx="129.397" cy="-192" rx="36.2938" ry="18"/>
<text text-anchor="middle" x="129.397" y="-188.3" font-family="Times,serif" font-size="14.00">022 (a)</text>
</g>
<!-- 044&#45;&gt;022 -->
<g id="edge8" class="edge"><title>044&#45;&gt;022</title>
<path fill="none" stroke="#b43f3f" stroke-dasharray="1,5" d="M415.875,-272.854C379.379,-267.051 320.304,-256.62 270.397,-243 234.311,-233.152 194.201,-218.56 166.017,-207.678"/>
<polygon fill="#b43f3f" stroke="#b43f3f" points="167.159,-204.367 156.571,-203.998 164.618,-210.89 167.159,-204.367"/>
<text text-anchor="middle" x="292.397" y="-231.8" font-family="Times,serif" font-size="14.00">1 (91.7)</text>
</g>
<!-- 011 -->
<g id="node12" class="node"><title>011</title>
<ellipse fill="#ff8a8a" stroke="#b43f3f" cx="274.397" cy="-192" rx="36.2938" ry="18"/>
<text text-anchor="middle" x="274.397" y="-188.3" font-family="Times,serif" font-size="14.00">011 (a)</text>
</g>
<!-- 044&#45;&gt;011 -->
<g id="edge9" class="edge"><title>044&#45;&gt;011</title>
<path fill="none" stroke="#b43f3f" stroke-dasharray="1,5" d="M417.81,-270.556C395.546,-264.755 365.777,-255.566 341.397,-243 326.407,-235.274 311.223,-224.262 299.108,-214.538"/>
<polygon fill="#b43f3f" stroke="#b43f3f" points="301.196,-211.723 291.252,-208.068 296.746,-217.126 301.196,-211.723"/>
<text text-anchor="middle" x="363.397" y="-231.8" font-family="Times,serif" font-size="14.00">2 (86.5)</text>
</g>
<!-- 07 -->
<g id="node13" class="node"><title>07</title>
<ellipse fill="#ff8a8a" stroke="#b43f3f" cx="360.397" cy="-192" rx="31.6951" ry="18"/>
<text text-anchor="middle" x="360.397" y="-188.3" font-family="Times,serif" font-size="14.00">07 (a)</text>
</g>
<!-- 044&#45;&gt;07 -->
<g id="edge10" class="edge"><title>044&#45;&gt;07</title>
<path fill="none" stroke="#b43f3f" stroke-dasharray="1,5" d="M428.981,-264.054C420.354,-258.018 410.538,-250.601 402.397,-243 393.982,-235.144 385.635,-225.653 378.625,-217.06"/>
<polygon fill="#b43f3f" stroke="#b43f3f" points="381.32,-214.827 372.356,-209.18 375.842,-219.185 381.32,-214.827"/>
<text text-anchor="middle" x="424.397" y="-231.8" font-family="Times,serif" font-size="14.00">2 (83.8)</text>
</g>
<!-- 045 -->
<g id="node14" class="node"><title>045</title>
<ellipse fill="#ff8a8a" stroke="#b43f3f" cx="450.397" cy="-192" rx="36.2938" ry="18"/>
<text text-anchor="middle" x="450.397" y="-188.3" font-family="Times,serif" font-size="14.00">045 (a)</text>
</g>
<!-- 044&#45;&gt;045 -->
<g id="edge11" class="edge"><title>044&#45;&gt;045</title>
<path fill="none" stroke="#b43f3f" stroke-dasharray="1,5" d="M450.397,-260.799C450.397,-249.163 450.397,-233.548 450.397,-220.237"/>
<polygon fill="#b43f3f" stroke="#b43f3f" points="453.897,-220.175 450.397,-210.175 446.897,-220.175 453.897,-220.175"/>
<text text-anchor="middle" x="472.397" y="-231.8" font-family="Times,serif" font-size="14.00">2 (81.1)</text>
</g>
<!-- 028 -->
<g id="node15" class="node"><title>028</title>
<ellipse fill="#ff8a8a" stroke="#b43f3f" cx="541.397" cy="-192" rx="36.2938" ry="18"/>
<text text-anchor="middle" x="541.397" y="-188.3" font-family="Times,serif" font-size="14.00">028 (a)</text>
</g>
<!-- 044&#45;&gt;028 -->
<g id="edge12" class="edge"><title>044&#45;&gt;028</title>
<path fill="none" stroke="#b43f3f" stroke-dasharray="1,5" d="M471.768,-264.006C480.389,-257.963 490.211,-250.554 498.397,-243 506.941,-235.115 515.472,-225.619 522.657,-217.029"/>
<polygon fill="#b43f3f" stroke="#b43f3f" points="525.474,-219.113 529.089,-209.155 520.053,-214.685 525.474,-219.113"/>
<text text-anchor="middle" x="534.397" y="-231.8" font-family="Times,serif" font-size="14.00">2 (81.1)</text>
</g>
<!-- 021 -->
<g id="node16" class="node"><title>021</title>
<ellipse fill="#ff8a8a" stroke="#b43f3f" cx="634.397" cy="-192" rx="36.2938" ry="18"/>
<text text-anchor="middle" x="634.397" y="-188.3" font-family="Times,serif" font-size="14.00">021 (a)</text>
</g>
<!-- 044&#45;&gt;021 -->
<g id="edge13" class="edge"><title>044&#45;&gt;021</title>
<path fill="none" stroke="#b43f3f" stroke-dasharray="1,5" d="M477.862,-267.171C483.621,-265.028 489.681,-262.867 495.397,-261 523.892,-251.694 533.177,-255.556 560.397,-243 577.143,-235.275 594.303,-223.935 607.877,-214.006"/>
<polygon fill="#b43f3f" stroke="#b43f3f" points="610.337,-216.536 616.239,-207.738 606.138,-210.936 610.337,-216.536"/>
<text text-anchor="middle" x="608.397" y="-231.8" font-family="Times,serif" font-size="14.00">2 (83.8)</text>
</g>
<!-- 0141 -->
<g id="node17" class="node"><title>0141</title>
<ellipse fill="#ff8a8a" stroke="#b43f3f" cx="729.397" cy="-192" rx="40.0939" ry="18"/>
<text text-anchor="middle" x="729.397" y="-188.3" font-family="Times,serif" font-size="14.00">0141 (a)</text>
</g>
<!-- 044&#45;&gt;0141 -->
<g id="edge14" class="edge"><title>044&#45;&gt;0141</title>
<path fill="none" stroke="#b43f3f" stroke-dasharray="1,5" d="M477.199,-266.713C483.112,-264.552 489.401,-262.499 495.397,-261 555.83,-245.891 575.009,-261.803 634.397,-243 657.093,-235.814 680.792,-223.351 698.842,-212.666"/>
<polygon fill="#b43f3f" stroke="#b43f3f" points="700.994,-215.455 707.731,-207.278 697.365,-209.468 700.994,-215.455"/>
<text text-anchor="middle" x="692.397" y="-231.8" font-family="Times,serif" font-size="14.00">1 (89.2)</text>
</g>
<!-- 031 -->
<g id="node18" class="node"><title>031</title>
<ellipse fill="#ff8a8a" stroke="#b43f3f" cx="81.3968" cy="-105" rx="36.2938" ry="18"/>
<text text-anchor="middle" x="81.3968" y="-101.3" font-family="Times,serif" font-size="14.00">031 (a)</text>
</g>
<!-- 022&#45;&gt;031 -->
<g id="edge15" class="edge"><title>022&#45;&gt;031</title>
<path fill="none" stroke="#b43f3f" stroke-dasharray="1,5" d="M118.226,-174.869C114.329,-169.02 110.025,-162.301 106.397,-156 101.989,-148.347 97.5562,-139.817 93.6728,-132"/>
<polygon fill="#b43f3f" stroke="#b43f3f" points="96.7767,-130.38 89.2471,-122.926 90.4852,-133.448 96.7767,-130.38"/>
<text text-anchor="middle" x="128.397" y="-144.8" font-family="Times,serif" font-size="14.00">2 (86.7)</text>
</g>
<!-- 037 -->
<g id="node23" class="node"><title>037</title>
<ellipse fill="#ff8a8a" stroke="#b43f3f" cx="172.397" cy="-105" rx="36.2938" ry="18"/>
<text text-anchor="middle" x="172.397" y="-101.3" font-family="Times,serif" font-size="14.00">037 (a)</text>
</g>
<!-- 07&#45;&gt;037 -->
<g id="edge21" class="edge"><title>07&#45;&gt;037</title>
<path fill="none" stroke="#b43f3f" stroke-dasharray="1,5" d="M335.899,-180.166C330.517,-177.976 324.808,-175.797 319.397,-174 288.502,-163.739 278.186,-169.128 248.397,-156 230.923,-148.299 213.002,-136.719 198.954,-126.643"/>
<polygon fill="#b43f3f" stroke="#b43f3f" points="200.877,-123.712 190.746,-120.611 196.732,-129.353 200.877,-123.712"/>
<text text-anchor="middle" x="270.397" y="-144.8" font-family="Times,serif" font-size="14.00">1 (97.5)</text>
</g>
<!-- 034 -->
<g id="node24" class="node"><title>034</title>
<ellipse fill="#ff8a8a" stroke="#b43f3f" cx="263.397" cy="-105" rx="36.2938" ry="18"/>
<text text-anchor="middle" x="263.397" y="-101.3" font-family="Times,serif" font-size="14.00">034 (a)</text>
</g>
<!-- 07&#45;&gt;034 -->
<g id="edge22" class="edge"><title>07&#45;&gt;034</title>
<path fill="none" stroke="#b43f3f" stroke-dasharray="1,5" d="M340.214,-177.836C331.114,-171.589 320.411,-163.796 311.397,-156 302.059,-147.925 292.496,-138.292 284.389,-129.646"/>
<polygon fill="#b43f3f" stroke="#b43f3f" points="286.749,-127.042 277.401,-122.057 281.6,-131.784 286.749,-127.042"/>
<text text-anchor="middle" x="333.397" y="-144.8" font-family="Times,serif" font-size="14.00">1 (95.1)</text>
</g>
<!-- 0211 -->
<g id="node25" class="node"><title>0211</title>
<ellipse fill="#cea8f4" stroke="#835da9" cx="358.397" cy="-105" rx="40.8928" ry="18"/>
<text text-anchor="middle" x="358.397" y="-101.3" font-family="Times,serif" font-size="14.00">0211 (b)</text>
</g>
<!-- 07&#45;&gt;0211 -->
<g id="edge23" class="edge"><title>07&#45;&gt;0211</title>
<path fill="none" stroke="#835da9" stroke-dasharray="1,5" d="M359.992,-173.799C359.718,-162.163 359.351,-146.548 359.038,-133.237"/>
<polygon fill="#835da9" stroke="#835da9" points="362.535,-133.09 358.801,-123.175 355.537,-133.255 362.535,-133.09"/>
<text text-anchor="middle" x="382.397" y="-144.8" font-family="Times,serif" font-size="14.00">2 (82.9)</text>
</g>
<!-- 030 -->
<g id="node26" class="node"><title>030</title>
<ellipse fill="#cea8f4" stroke="#835da9" cx="453.397" cy="-105" rx="36.2938" ry="18"/>
<text text-anchor="middle" x="453.397" y="-101.3" font-family="Times,serif" font-size="14.00">030 (b)</text>
</g>
<!-- 07&#45;&gt;030 -->
<g id="edge24" class="edge"><title>07&#45;&gt;030</title>
<path fill="none" stroke="#835da9" stroke-dasharray="1,5" d="M380.261,-177.91C389.194,-171.678 399.667,-163.876 408.397,-156 417.293,-147.974 426.286,-138.351 433.869,-129.7"/>
<polygon fill="#835da9" stroke="#835da9" points="436.535,-131.968 440.394,-122.101 431.224,-127.408 436.535,-131.968"/>
<text text-anchor="middle" x="445.397" y="-144.8" font-family="Times,serif" font-size="14.00">1 (95.1)</text>
</g>
<!-- 038 -->
<g id="node27" class="node"><title>038</title>
<ellipse fill="#ff8a8a" stroke="#b43f3f" cx="544.397" cy="-105" rx="36.2938" ry="18"/>
<text text-anchor="middle" x="544.397" y="-101.3" font-family="Times,serif" font-size="14.00">038 (a)</text>
</g>
<!-- 045&#45;&gt;038 -->
<g id="edge25" class="edge"><title>045&#45;&gt;038</title>
<path fill="none" stroke="#b43f3f" stroke-dasharray="1,5" d="M467.202,-175.804C481.906,-162.508 503.447,-143.029 520.04,-128.025"/>
<polygon fill="#b43f3f" stroke="#b43f3f" points="522.667,-130.368 527.737,-121.065 517.972,-125.176 522.667,-130.368"/>
<text text-anchor="middle" x="525.397" y="-144.8" font-family="Times,serif" font-size="14.00">1 (92.7)</text>
</g>
<!-- 047 -->
<g id="node28" class="node"><title>047</title>
<ellipse fill="#ff8a8a" stroke="#b43f3f" cx="635.397" cy="-105" rx="36.2938" ry="18"/>
<text text-anchor="middle" x="635.397" y="-101.3" font-family="Times,serif" font-size="14.00">047 (a)</text>
</g>
<!-- 021&#45;&gt;047 -->
<g id="edge26" class="edge"><title>021&#45;&gt;047</title>
<path fill="none" stroke="#b43f3f" stroke-dasharray="1,5" d="M634.599,-173.799C634.736,-162.163 634.92,-146.548 635.076,-133.237"/>
<polygon fill="#b43f3f" stroke="#b43f3f" points="638.577,-133.216 635.195,-123.175 631.577,-133.134 638.577,-133.216"/>
<text text-anchor="middle" x="657.397" y="-144.8" font-family="Times,serif" font-size="14.00">1 (95.1)</text>
</g>
<!-- 036 -->
<g id="node29" class="node"><title>036</title>
<ellipse fill="#cea8f4" stroke="#835da9" cx="726.397" cy="-105" rx="36.2938" ry="18"/>
<text text-anchor="middle" x="726.397" y="-101.3" font-family="Times,serif" font-size="14.00">036 (b)</text>
</g>
<!-- 021&#45;&gt;036 -->
<g id="edge27" class="edge"><title>021&#45;&gt;036</title>
<path fill="none" stroke="#835da9" stroke-dasharray="1,5" d="M655.747,-177.402C664.667,-171.31 674.908,-163.757 683.397,-156 691.979,-148.157 700.519,-138.669 707.699,-130.075"/>
<polygon fill="#835da9" stroke="#835da9" points="710.519,-132.155 714.124,-122.192 705.093,-127.733 710.519,-132.155"/>
<text text-anchor="middle" x="720.397" y="-144.8" font-family="Times,serif" font-size="14.00">1 (97.6)</text>
</g>
<!-- 013 -->
<g id="node19" class="node"><title>013</title>
<ellipse fill="#ff8a8a" stroke="#b43f3f" cx="36.3968" cy="-18" rx="36.2938" ry="18"/>
<text text-anchor="middle" x="36.3968" y="-14.3" font-family="Times,serif" font-size="14.00">013 (a)</text>
</g>
<!-- 031&#45;&gt;013 -->
<g id="edge16" class="edge"><title>031&#45;&gt;013</title>
<path fill="none" stroke="#b43f3f" stroke-dasharray="1,5" d="M71.6438,-87.3706C68.3224,-81.5933 64.633,-75.047 61.3968,-69 57.2295,-61.2133 52.8659,-52.6446 48.9722,-44.8337"/>
<polygon fill="#b43f3f" stroke="#b43f3f" points="52.0688,-43.1997 44.5005,-35.7855 45.7934,-46.3011 52.0688,-43.1997"/>
<text text-anchor="middle" x="83.3968" y="-57.8" font-family="Times,serif" font-size="14.00">1 (97.1)</text>
</g>
<!-- 017 -->
<g id="node20" class="node"><title>017</title>
<ellipse fill="#ff8a8a" stroke="#b43f3f" cx="127.397" cy="-18" rx="36.2938" ry="18"/>
<text text-anchor="middle" x="127.397" y="-14.3" font-family="Times,serif" font-size="14.00">017 (a)</text>
</g>
<!-- 031&#45;&gt;017 -->
<g id="edge17" class="edge"><title>031&#45;&gt;017</title>
<path fill="none" stroke="#b43f3f" stroke-dasharray="1,5" d="M93.5262,-87.6704C97.5459,-81.9172 101.886,-75.3093 105.397,-69 109.547,-61.5417 113.498,-53.1477 116.877,-45.3977"/>
<polygon fill="#b43f3f" stroke="#b43f3f" points="120.161,-46.6185 120.824,-36.0444 113.712,-43.8974 120.161,-46.6185"/>
<text text-anchor="middle" x="135.397" y="-57.8" font-family="Times,serif" font-size="14.00">1 (94.3)</text>
</g>
</g>
</svg>
