<?xml version="1.0" encoding="UTF-8" standalone="no"?>
<!DOCTYPE svg PUBLIC "-//W3C//DTD SVG 1.1//EN"
 "http://www.w3.org/Graphics/SVG/1.1/DTD/svg11.dtd">
<!-- Generated by graphviz version 2.38.0 (20140413.2041)
 -->
<!-- Title: %3 Pages: 1 -->
<svg width="878pt" height="250pt"
 viewBox="0.00 0.00 878.00 250.00" xmlns="http://www.w3.org/2000/svg" xmlns:xlink="http://www.w3.org/1999/xlink">
<g id="graph0" class="graph" transform="scale(1 1) rotate(0) translate(4 246)">
<title>%3</title>
<polygon fill="white" stroke="none" points="-4,4 -4,-246 874,-246 874,4 -4,4"/>
<g id="clust1" class="cluster"><title>cluster_legend</title>
<path fill="none" stroke="black" d="M20,-106C20,-106 210,-106 210,-106 216,-106 222,-112 222,-118 222,-118 222,-222 222,-222 222,-228 216,-234 210,-234 210,-234 20,-234 20,-234 14,-234 8,-228 8,-222 8,-222 8,-118 8,-118 8,-112 14,-106 20,-106"/>
</g>
<g id="clust2" class="cluster"><title>cluster_reading</title>
<polygon fill="none" stroke="black" points="230,-8 230,-234 862,-234 862,-8 230,-8"/>
</g>
<!-- leg_s -->
<g id="node1" class="node"><title>leg_s</title>
<text text-anchor="middle" x="115" y="-204.3" font-family="Times,serif" font-size="14.00">Textual flow strength</text>
</g>
<!-- leg_e1 -->
<!-- leg_s&#45;&gt;leg_e1 -->
<g id="edge1" class="edge"><title>leg_s&#45;&gt;leg_e1</title>
<path fill="none" stroke="black" stroke-dasharray="1,5" d="M96.6657,-189.686C91.1324,-184.194 85.1607,-177.989 80,-172 70.1708,-160.593 60.0722,-146.779 52.9137,-136.563"/>
<polygon fill="black" stroke="black" points="55.6142,-134.314 47.056,-128.068 49.8514,-138.288 55.6142,-134.314"/>
<text text-anchor="middle" x="95.5" y="-160.8" font-family="Times,serif" font-size="14.00">&lt;=5 &#160;</text>
</g>
<!-- leg_e2 -->
<!-- leg_s&#45;&gt;leg_e2 -->
<g id="edge2" class="edge"><title>leg_s&#45;&gt;leg_e2</title>
<path fill="none" stroke="black" stroke-dasharray="5,2" d="M115,-189.799C115,-174.794 115,-153.174 115,-138.409"/>
<polygon fill="black" stroke="black" points="118.5,-138.293 115,-128.293 111.5,-138.293 118.5,-138.293"/>
<text text-anchor="middle" x="134" y="-160.8" font-family="Times,serif" font-size="14.00"> &#160;&lt;=25</text>
</g>
<!-- leg_e3 -->
<!-- leg_s&#45;&gt;leg_e3 -->
<g id="edge3" class="edge"><title>leg_s&#45;&gt;leg_e3</title>
<path fill="none" stroke="black" d="M138.503,-189.76C144.906,-184.462 151.567,-178.344 157,-172 166.087,-161.39 174.095,-147.689 179.546,-137.313"/>
<polygon fill="black" stroke="black" points="182.722,-138.789 184.091,-128.283 176.469,-135.642 182.722,-138.789"/>
<text text-anchor="middle" x="179" y="-160.8" font-family="Times,serif" font-size="14.00">&gt;25</text>
</g>
<!-- 063 -->
<g id="node5" class="node"><title>063</title>
<ellipse fill="#ff8a8a" stroke="#b43f3f" cx="594" cy="-208" rx="36.2938" ry="18"/>
<text text-anchor="middle" x="594" y="-204.3" font-family="Times,serif" font-size="14.00">063 (a)</text>
</g>
<!-- 045 -->
<g id="node6" class="node"><title>045</title>
<ellipse fill="#ff8a8a" stroke="#b43f3f" cx="373" cy="-121" rx="36.2938" ry="18"/>
<text text-anchor="middle" x="373" y="-117.3" font-family="Times,serif" font-size="14.00">045 (a)</text>
</g>
<!-- 063&#45;&gt;045 -->
<g id="edge4" class="edge"><title>063&#45;&gt;045</title>
<path fill="none" stroke="#b43f3f" stroke-dasharray="1,5" d="M559.704,-201.615C530.537,-196.308 487.949,-186.815 453,-172 434.47,-164.145 415.296,-152.31 400.366,-142.126"/>
<polygon fill="#b43f3f" stroke="#b43f3f" points="402.308,-139.213 392.103,-136.364 398.304,-144.955 402.308,-139.213"/>
<text text-anchor="middle" x="475" y="-160.8" font-family="Times,serif" font-size="14.00">1 (93.1)</text>
</g>
<!-- 031 -->
<g id="node7" class="node"><title>031</title>
<ellipse fill="#ff8a8a" stroke="#b43f3f" cx="464" cy="-121" rx="36.2938" ry="18"/>
<text text-anchor="middle" x="464" y="-117.3" font-family="Times,serif" font-size="14.00">031 (a)</text>
</g>
<!-- 063&#45;&gt;031 -->
<g id="edge5" class="edge"><title>063&#45;&gt;031</title>
<path fill="none" stroke="#b43f3f" stroke-dasharray="1,5" d="M566.279,-196.144C551.936,-189.977 534.452,-181.579 520,-172 508.17,-164.159 496.272,-153.942 486.504,-144.789"/>
<polygon fill="#b43f3f" stroke="#b43f3f" points="488.806,-142.147 479.17,-137.743 483.956,-147.195 488.806,-142.147"/>
<text text-anchor="middle" x="542" y="-160.8" font-family="Times,serif" font-size="14.00">1 (95.8)</text>
</g>
<!-- 021 -->
<g id="node8" class="node"><title>021</title>
<ellipse fill="#ff8a8a" stroke="#b43f3f" cx="555" cy="-121" rx="36.2938" ry="18"/>
<text text-anchor="middle" x="555" y="-117.3" font-family="Times,serif" font-size="14.00">021 (a)</text>
</g>
<!-- 063&#45;&gt;021 -->
<g id="edge6" class="edge"><title>063&#45;&gt;021</title>
<path fill="none" stroke="#b43f3f" stroke-dasharray="1,5" d="M583.895,-190.548C580.546,-184.785 576.928,-178.202 574,-172 570.471,-164.527 567.1,-156.206 564.202,-148.531"/>
<polygon fill="#b43f3f" stroke="#b43f3f" points="567.416,-147.128 560.694,-138.939 560.842,-149.533 567.416,-147.128"/>
<text text-anchor="middle" x="596" y="-160.8" font-family="Times,serif" font-size="14.00">1 (93.1)</text>
</g>
<!-- 028 -->
<g id="node9" class="node"><title>028</title>
<ellipse fill="#ff8a8a" stroke="#b43f3f" cx="646" cy="-121" rx="36.2938" ry="18"/>
<text text-anchor="middle" x="646" y="-117.3" font-family="Times,serif" font-size="14.00">028 (a)</text>
</g>
<!-- 063&#45;&gt;028 -->
<g id="edge7" class="edge"><title>063&#45;&gt;028</title>
<path fill="none" stroke="#b43f3f" stroke-dasharray="1,5" d="M605.544,-190.822C609.6,-184.969 614.113,-178.259 618,-172 622.829,-164.225 627.804,-155.58 632.195,-147.696"/>
<polygon fill="#b43f3f" stroke="#b43f3f" points="635.288,-149.336 637.039,-138.887 629.154,-145.963 635.288,-149.336"/>
<text text-anchor="middle" x="649" y="-160.8" font-family="Times,serif" font-size="14.00">1 (96.6)</text>
</g>
<!-- 07 -->
<g id="node10" class="node"><title>07</title>
<ellipse fill="#ff8a8a" stroke="#b43f3f" cx="732" cy="-121" rx="31.6951" ry="18"/>
<text text-anchor="middle" x="732" y="-117.3" font-family="Times,serif" font-size="14.00">07 (a)</text>
</g>
<!-- 063&#45;&gt;07 -->
<g id="edge8" class="edge"><title>063&#45;&gt;07</title>
<path fill="none" stroke="#b43f3f" stroke-dasharray="1,5" d="M623.21,-196.926C639.125,-190.821 658.816,-182.236 675,-172 687.29,-164.227 699.587,-153.852 709.596,-144.568"/>
<polygon fill="#b43f3f" stroke="#b43f3f" points="712.265,-146.859 717.09,-137.427 707.436,-141.792 712.265,-146.859"/>
<text text-anchor="middle" x="717" y="-160.8" font-family="Times,serif" font-size="14.00">1 (96.6)</text>
</g>
<!-- 011 -->
<g id="node11" class="node"><title>011</title>
<ellipse fill="#ff8a8a" stroke="#b43f3f" cx="818" cy="-121" rx="36.2938" ry="18"/>
<text text-anchor="middle" x="818" y="-117.3" font-family="Times,serif" font-size="14.00">011 (a)</text>
</g>
<!-- 063&#45;&gt;011 -->
<g id="edge9" class="edge"><title>063&#45;&gt;011</title>
<path fill="none" stroke="#b43f3f" stroke-dasharray="1,5" d="M628.839,-202.42C659.766,-197.523 705.704,-188.182 743,-172 760.357,-164.469 778.049,-152.899 791.887,-142.785"/>
<polygon fill="#b43f3f" stroke="#b43f3f" points="794.067,-145.524 799.968,-136.724 789.867,-139.924 794.067,-145.524"/>
<text text-anchor="middle" x="791" y="-160.8" font-family="Times,serif" font-size="14.00">1 (93.1)</text>
</g>
<!-- 013 -->
<g id="node12" class="node"><title>013</title>
<ellipse fill="#ff8a8a" stroke="#b43f3f" cx="363" cy="-34" rx="36.2938" ry="18"/>
<text text-anchor="middle" x="363" y="-30.3" font-family="Times,serif" font-size="14.00">013 (a)</text>
</g>
<!-- 031&#45;&gt;013 -->
<g id="edge10" class="edge"><title>031&#45;&gt;013</title>
<path fill="none" stroke="#b43f3f" stroke-dasharray="1,5" d="M441.563,-106.74C431.818,-100.594 420.488,-92.906 411,-85 401.276,-76.8971 391.439,-67.0115 383.224,-58.1762"/>
<polygon fill="#b43f3f" stroke="#b43f3f" points="385.786,-55.7913 376.466,-50.7535 380.61,-60.504 385.786,-55.7913"/>
<text text-anchor="middle" x="433" y="-73.8" font-family="Times,serif" font-size="14.00">1 (97.1)</text>
</g>
<!-- 017 -->
<g id="node13" class="node"><title>017</title>
<ellipse fill="#ff8a8a" stroke="#b43f3f" cx="454" cy="-34" rx="36.2938" ry="18"/>
<text text-anchor="middle" x="454" y="-30.3" font-family="Times,serif" font-size="14.00">017 (a)</text>
</g>
<!-- 031&#45;&gt;017 -->
<g id="edge11" class="edge"><title>031&#45;&gt;017</title>
<path fill="none" stroke="#b43f3f" stroke-dasharray="1,5" d="M461.976,-102.799C460.607,-91.1626 458.77,-75.5479 457.204,-62.2368"/>
<polygon fill="#b43f3f" stroke="#b43f3f" points="460.665,-61.698 456.021,-52.1754 453.713,-62.5159 460.665,-61.698"/>
<text text-anchor="middle" x="482" y="-73.8" font-family="Times,serif" font-size="14.00">1 (94.3)</text>
</g>
<!-- 036 -->
<g id="node14" class="node"><title>036</title>
<ellipse fill="#ff8a8a" stroke="#b43f3f" cx="545" cy="-34" rx="36.2938" ry="18"/>
<text text-anchor="middle" x="545" y="-30.3" font-family="Times,serif" font-size="14.00">036 (a)</text>
</g>
<!-- 021&#45;&gt;036 -->
<g id="edge12" class="edge"><title>021&#45;&gt;036</title>
<path fill="none" stroke="#b43f3f" stroke-dasharray="1,5" d="M552.976,-102.799C551.607,-91.1626 549.77,-75.5479 548.204,-62.2368"/>
<polygon fill="#b43f3f" stroke="#b43f3f" points="551.665,-61.698 547.021,-52.1754 544.713,-62.5159 551.665,-61.698"/>
<text text-anchor="middle" x="573" y="-73.8" font-family="Times,serif" font-size="14.00">1 (97.6)</text>
</g>
<!-- 047 -->
<g id="node15" class="node"><title>047</title>
<ellipse fill="#ff8a8a" stroke="#b43f3f" cx="636" cy="-34" rx="36.2938" ry="18"/>
<text text-anchor="middle" x="636" y="-30.3" font-family="Times,serif" font-size="14.00">047 (a)</text>
</g>
<!-- 021&#45;&gt;047 -->
<g id="edge13" class="edge"><title>021&#45;&gt;047</title>
<path fill="none" stroke="#b43f3f" stroke-dasharray="1,5" d="M575.213,-105.698C583.034,-99.7225 591.813,-92.4426 599,-85 606.349,-77.3898 613.492,-68.2817 619.51,-59.9367"/>
<polygon fill="#b43f3f" stroke="#b43f3f" points="622.471,-61.8112 625.337,-51.6113 616.735,-57.7977 622.471,-61.8112"/>
<text text-anchor="middle" x="634" y="-73.8" font-family="Times,serif" font-size="14.00">1 (95.1)</text>
</g>
<!-- 030 -->
<g id="node16" class="node"><title>030</title>
<ellipse fill="#ff8a8a" stroke="#b43f3f" cx="727" cy="-34" rx="36.2938" ry="18"/>
<text text-anchor="middle" x="727" y="-30.3" font-family="Times,serif" font-size="14.00">030 (a)</text>
</g>
<!-- 07&#45;&gt;030 -->
<g id="edge14" class="edge"><title>07&#45;&gt;030</title>
<path fill="none" stroke="#b43f3f" stroke-dasharray="1,5" d="M730.988,-102.799C730.304,-91.1626 729.385,-75.5479 728.602,-62.2368"/>
<polygon fill="#b43f3f" stroke="#b43f3f" points="732.092,-61.9526 728.01,-52.1754 725.104,-62.3637 732.092,-61.9526"/>
<text text-anchor="middle" x="751" y="-73.8" font-family="Times,serif" font-size="14.00">1 (95.1)</text>
</g>
<!-- 034 -->
<g id="node17" class="node"><title>034</title>
<ellipse fill="#ff8a8a" stroke="#b43f3f" cx="818" cy="-34" rx="36.2938" ry="18"/>
<text text-anchor="middle" x="818" y="-30.3" font-family="Times,serif" font-size="14.00">034 (a)</text>
</g>
<!-- 07&#45;&gt;034 -->
<g id="edge15" class="edge"><title>07&#45;&gt;034</title>
<path fill="none" stroke="#b43f3f" stroke-dasharray="1,5" d="M751.161,-106.58C759.456,-100.403 769.061,-92.7366 777,-85 785.08,-77.1259 793.134,-67.7284 799.938,-59.217"/>
<polygon fill="#b43f3f" stroke="#b43f3f" points="802.887,-61.1272 806.28,-51.0903 797.369,-56.8207 802.887,-61.1272"/>
<text text-anchor="middle" x="812" y="-73.8" font-family="Times,serif" font-size="14.00">1 (95.1)</text>
</g>
<!-- 044 -->
<g id="node18" class="node"><title>044</title>
<ellipse fill="#ff8a8a" stroke="#b43f3f" cx="278" cy="-208" rx="36.2938" ry="18"/>
<text text-anchor="middle" x="278" y="-204.3" font-family="Times,serif" font-size="14.00">044 (a)</text>
</g>
<!-- 0141 -->
<g id="node19" class="node"><title>0141</title>
<ellipse fill="#ff8a8a" stroke="#b43f3f" cx="278" cy="-121" rx="40.0939" ry="18"/>
<text text-anchor="middle" x="278" y="-117.3" font-family="Times,serif" font-size="14.00">0141 (a)</text>
</g>
<!-- 044&#45;&gt;0141 -->
<g id="edge16" class="edge"><title>044&#45;&gt;0141</title>
<path fill="none" stroke="#b43f3f" stroke-dasharray="1,5" d="M278,-189.799C278,-178.163 278,-162.548 278,-149.237"/>
<polygon fill="#b43f3f" stroke="#b43f3f" points="281.5,-149.175 278,-139.175 274.5,-149.175 281.5,-149.175"/>
<text text-anchor="middle" x="300" y="-160.8" font-family="Times,serif" font-size="14.00">1 (89.2)</text>
</g>
</g>
</svg>
