<?xml version="1.0" encoding="UTF-8" standalone="no"?>
<!DOCTYPE svg PUBLIC "-//W3C//DTD SVG 1.1//EN"
 "http://www.w3.org/Graphics/SVG/1.1/DTD/svg11.dtd">
<!-- Generated by graphviz version 2.38.0 (20140413.2041)
 -->
<!-- Title: %3 Pages: 1 -->
<svg width="1305pt" height="408pt"
 viewBox="0.00 0.00 1305.40 408.00" xmlns="http://www.w3.org/2000/svg" xmlns:xlink="http://www.w3.org/1999/xlink">
<g id="graph0" class="graph" transform="scale(1 1) rotate(0) translate(4 404)">
<title>%3</title>
<polygon fill="white" stroke="none" points="-4,4 -4,-404 1301.4,-404 1301.4,4 -4,4"/>
<g id="clust1" class="cluster"><title>cluster_legend</title>
<path fill="none" stroke="black" d="M20,-264C20,-264 210,-264 210,-264 216,-264 222,-270 222,-276 222,-276 222,-380 222,-380 222,-386 216,-392 210,-392 210,-392 20,-392 20,-392 14,-392 8,-386 8,-380 8,-380 8,-276 8,-276 8,-270 14,-264 20,-264"/>
</g>
<!-- leg_s -->
<g id="node1" class="node"><title>leg_s</title>
<text text-anchor="middle" x="115" y="-362.3" font-family="Times,serif" font-size="14.00">Textual flow strength</text>
</g>
<!-- leg_e1 -->
<!-- leg_s&#45;&gt;leg_e1 -->
<g id="edge1" class="edge"><title>leg_s&#45;&gt;leg_e1</title>
<path fill="none" stroke="black" stroke-dasharray="1,5" d="M96.6657,-347.686C91.1324,-342.194 85.1607,-335.989 80,-330 70.1708,-318.593 60.0722,-304.779 52.9137,-294.563"/>
<polygon fill="black" stroke="black" points="55.6142,-292.314 47.056,-286.068 49.8514,-296.288 55.6142,-292.314"/>
<text text-anchor="middle" x="95.5" y="-318.8" font-family="Times,serif" font-size="14.00">&lt;=5 &#160;</text>
</g>
<!-- leg_e2 -->
<!-- leg_s&#45;&gt;leg_e2 -->
<g id="edge2" class="edge"><title>leg_s&#45;&gt;leg_e2</title>
<path fill="none" stroke="black" stroke-dasharray="5,2" d="M115,-347.799C115,-332.794 115,-311.174 115,-296.409"/>
<polygon fill="black" stroke="black" points="118.5,-296.293 115,-286.293 111.5,-296.293 118.5,-296.293"/>
<text text-anchor="middle" x="134" y="-318.8" font-family="Times,serif" font-size="14.00"> &#160;&lt;=25</text>
</g>
<!-- leg_e3 -->
<!-- leg_s&#45;&gt;leg_e3 -->
<g id="edge3" class="edge"><title>leg_s&#45;&gt;leg_e3</title>
<path fill="none" stroke="black" d="M138.503,-347.76C144.906,-342.462 151.567,-336.344 157,-330 166.087,-319.39 174.095,-305.689 179.546,-295.313"/>
<polygon fill="black" stroke="black" points="182.722,-296.789 184.091,-286.283 176.469,-293.642 182.722,-296.789"/>
<text text-anchor="middle" x="179" y="-318.8" font-family="Times,serif" font-size="14.00">&gt;25</text>
</g>
<!-- 063 -->
<g id="node5" class="node"><title>063</title>
<ellipse fill="#ff8a8a" stroke="#b43f3f" cx="535" cy="-366" rx="36.2938" ry="18"/>
<text text-anchor="middle" x="535" y="-362.3" font-family="Times,serif" font-size="14.00">063 (a)</text>
</g>
<!-- 045 -->
<g id="node6" class="node"><title>045</title>
<ellipse fill="#ff8a8a" stroke="#b43f3f" cx="268" cy="-279" rx="36.2938" ry="18"/>
<text text-anchor="middle" x="268" y="-275.3" font-family="Times,serif" font-size="14.00">045 (a)</text>
</g>
<!-- 063&#45;&gt;045 -->
<g id="edge4" class="edge"><title>063&#45;&gt;045</title>
<path fill="none" stroke="#b43f3f" stroke-dasharray="1,5" d="M505.149,-355.497C456.725,-340.081 361.056,-309.625 307.206,-292.481"/>
<polygon fill="#b43f3f" stroke="#b43f3f" points="308.25,-289.141 297.659,-289.442 306.126,-295.811 308.25,-289.141"/>
<text text-anchor="middle" x="440" y="-318.8" font-family="Times,serif" font-size="14.00">1 (93.1)</text>
</g>
<!-- 07 -->
<g id="node7" class="node"><title>07</title>
<ellipse fill="#ff8a8a" stroke="#b43f3f" cx="447" cy="-279" rx="31.6951" ry="18"/>
<text text-anchor="middle" x="447" y="-275.3" font-family="Times,serif" font-size="14.00">07 (a)</text>
</g>
<!-- 063&#45;&gt;07 -->
<g id="edge5" class="edge"><title>063&#45;&gt;07</title>
<path fill="none" stroke="#b43f3f" stroke-dasharray="1,5" d="M513.493,-351.151C504.851,-345.13 495.05,-337.698 487,-330 478.926,-322.279 471.026,-312.914 464.409,-304.386"/>
<polygon fill="#b43f3f" stroke="#b43f3f" points="467.074,-302.107 458.26,-296.229 461.484,-306.321 467.074,-302.107"/>
<text text-anchor="middle" x="509" y="-318.8" font-family="Times,serif" font-size="14.00">1 (96.6)</text>
</g>
<!-- 028 -->
<g id="node8" class="node"><title>028</title>
<ellipse fill="#ff8a8a" stroke="#b43f3f" cx="535" cy="-279" rx="36.2938" ry="18"/>
<text text-anchor="middle" x="535" y="-275.3" font-family="Times,serif" font-size="14.00">028 (a)</text>
</g>
<!-- 063&#45;&gt;028 -->
<g id="edge6" class="edge"><title>063&#45;&gt;028</title>
<path fill="none" stroke="#b43f3f" stroke-dasharray="1,5" d="M535,-347.799C535,-336.163 535,-320.548 535,-307.237"/>
<polygon fill="#b43f3f" stroke="#b43f3f" points="538.5,-307.175 535,-297.175 531.5,-307.175 538.5,-307.175"/>
<text text-anchor="middle" x="557" y="-318.8" font-family="Times,serif" font-size="14.00">1 (96.6)</text>
</g>
<!-- 021 -->
<g id="node9" class="node"><title>021</title>
<ellipse fill="#ff8a8a" stroke="#b43f3f" cx="627" cy="-279" rx="36.2938" ry="18"/>
<text text-anchor="middle" x="627" y="-275.3" font-family="Times,serif" font-size="14.00">021 (a)</text>
</g>
<!-- 063&#45;&gt;021 -->
<g id="edge7" class="edge"><title>063&#45;&gt;021</title>
<path fill="none" stroke="#b43f3f" stroke-dasharray="1,5" d="M556.329,-350.959C564.943,-344.909 574.771,-337.507 583,-330 591.674,-322.086 600.39,-312.583 607.75,-303.997"/>
<polygon fill="#b43f3f" stroke="#b43f3f" points="610.604,-306.041 614.345,-296.128 605.239,-301.544 610.604,-306.041"/>
<text text-anchor="middle" x="620" y="-318.8" font-family="Times,serif" font-size="14.00">1 (93.1)</text>
</g>
<!-- 011 -->
<g id="node10" class="node"><title>011</title>
<ellipse fill="#ff8a8a" stroke="#b43f3f" cx="718" cy="-279" rx="36.2938" ry="18"/>
<text text-anchor="middle" x="718" y="-275.3" font-family="Times,serif" font-size="14.00">011 (a)</text>
</g>
<!-- 063&#45;&gt;011 -->
<g id="edge8" class="edge"><title>063&#45;&gt;011</title>
<path fill="none" stroke="#b43f3f" stroke-dasharray="1,5" d="M567.563,-357.504C590.228,-351.629 620.786,-342.374 646,-330 662.138,-322.08 678.713,-310.824 691.886,-300.996"/>
<polygon fill="#b43f3f" stroke="#b43f3f" points="694.186,-303.643 700.012,-294.793 689.939,-298.078 694.186,-303.643"/>
<text text-anchor="middle" x="693" y="-318.8" font-family="Times,serif" font-size="14.00">1 (93.1)</text>
</g>
<!-- 038 -->
<g id="node11" class="node"><title>038</title>
<ellipse fill="#ff8a8a" stroke="#b43f3f" cx="174" cy="-192" rx="36.2938" ry="18"/>
<text text-anchor="middle" x="174" y="-188.3" font-family="Times,serif" font-size="14.00">038 (a)</text>
</g>
<!-- 045&#45;&gt;038 -->
<g id="edge9" class="edge"><title>045&#45;&gt;038</title>
<path fill="none" stroke="#b43f3f" stroke-dasharray="1,5" d="M241.338,-266.572C224.792,-259.09 205.487,-249.525 199,-243 192.41,-236.371 187.24,-227.653 183.354,-219.356"/>
<polygon fill="#b43f3f" stroke="#b43f3f" points="186.497,-217.803 179.374,-209.96 180.051,-220.533 186.497,-217.803"/>
<text text-anchor="middle" x="221" y="-231.8" font-family="Times,serif" font-size="14.00">1 (92.7)</text>
</g>
<!-- 034 -->
<g id="node12" class="node"><title>034</title>
<ellipse fill="#ff8a8a" stroke="#b43f3f" cx="265" cy="-192" rx="36.2938" ry="18"/>
<text text-anchor="middle" x="265" y="-188.3" font-family="Times,serif" font-size="14.00">034 (a)</text>
</g>
<!-- 07&#45;&gt;034 -->
<g id="edge10" class="edge"><title>07&#45;&gt;034</title>
<path fill="none" stroke="#b43f3f" stroke-dasharray="1,5" d="M417.89,-271.118C395.411,-265.225 363.879,-255.681 338,-243 321.705,-235.016 304.906,-223.754 291.536,-213.939"/>
<polygon fill="#b43f3f" stroke="#b43f3f" points="293.385,-210.951 283.286,-207.748 289.183,-216.55 293.385,-210.951"/>
<text text-anchor="middle" x="360" y="-231.8" font-family="Times,serif" font-size="14.00">1 (95.1)</text>
</g>
<!-- 030 -->
<g id="node13" class="node"><title>030</title>
<ellipse fill="#ff8a8a" stroke="#b43f3f" cx="356" cy="-192" rx="36.2938" ry="18"/>
<text text-anchor="middle" x="356" y="-188.3" font-family="Times,serif" font-size="14.00">030 (a)</text>
</g>
<!-- 07&#45;&gt;030 -->
<g id="edge11" class="edge"><title>07&#45;&gt;030</title>
<path fill="none" stroke="#b43f3f" stroke-dasharray="1,5" d="M426.581,-264.672C417.737,-258.512 407.489,-250.834 399,-243 390.456,-235.115 381.924,-225.619 374.74,-217.029"/>
<polygon fill="#b43f3f" stroke="#b43f3f" points="377.344,-214.685 368.308,-209.155 371.923,-219.113 377.344,-214.685"/>
<text text-anchor="middle" x="421" y="-231.8" font-family="Times,serif" font-size="14.00">1 (95.1)</text>
</g>
<!-- 037 -->
<g id="node14" class="node"><title>037</title>
<ellipse fill="#ff8a8a" stroke="#b43f3f" cx="447" cy="-192" rx="36.2938" ry="18"/>
<text text-anchor="middle" x="447" y="-188.3" font-family="Times,serif" font-size="14.00">037 (a)</text>
</g>
<!-- 07&#45;&gt;037 -->
<g id="edge12" class="edge"><title>07&#45;&gt;037</title>
<path fill="none" stroke="#b43f3f" stroke-dasharray="1,5" d="M447,-260.799C447,-249.163 447,-233.548 447,-220.237"/>
<polygon fill="#b43f3f" stroke="#b43f3f" points="450.5,-220.175 447,-210.175 443.5,-220.175 450.5,-220.175"/>
<text text-anchor="middle" x="469" y="-231.8" font-family="Times,serif" font-size="14.00">1 (97.5)</text>
</g>
<!-- 013 -->
<g id="node15" class="node"><title>013</title>
<ellipse fill="#ff8a8a" stroke="#b43f3f" cx="538" cy="-192" rx="36.2938" ry="18"/>
<text text-anchor="middle" x="538" y="-188.3" font-family="Times,serif" font-size="14.00">013 (a)</text>
</g>
<!-- 07&#45;&gt;013 -->
<g id="edge13" class="edge"><title>07&#45;&gt;013</title>
<path fill="none" stroke="#b43f3f" stroke-dasharray="1,5" d="M467.419,-264.672C476.263,-258.512 486.511,-250.834 495,-243 503.544,-235.115 512.076,-225.619 519.26,-217.029"/>
<polygon fill="#b43f3f" stroke="#b43f3f" points="522.077,-219.113 525.692,-209.155 516.656,-214.685 522.077,-219.113"/>
<text text-anchor="middle" x="531" y="-231.8" font-family="Times,serif" font-size="14.00">2 (95.1)</text>
</g>
<!-- 036 -->
<g id="node16" class="node"><title>036</title>
<ellipse fill="#ff8a8a" stroke="#b43f3f" cx="629" cy="-192" rx="36.2938" ry="18"/>
<text text-anchor="middle" x="629" y="-188.3" font-family="Times,serif" font-size="14.00">036 (a)</text>
</g>
<!-- 021&#45;&gt;036 -->
<g id="edge14" class="edge"><title>021&#45;&gt;036</title>
<path fill="none" stroke="#b43f3f" stroke-dasharray="1,5" d="M627.405,-260.799C627.679,-249.163 628.046,-233.548 628.359,-220.237"/>
<polygon fill="#b43f3f" stroke="#b43f3f" points="631.86,-220.255 628.596,-210.175 624.862,-220.09 631.86,-220.255"/>
<text text-anchor="middle" x="651" y="-231.8" font-family="Times,serif" font-size="14.00">1 (97.6)</text>
</g>
<!-- 047 -->
<g id="node17" class="node"><title>047</title>
<ellipse fill="#ff8a8a" stroke="#b43f3f" cx="720" cy="-192" rx="36.2938" ry="18"/>
<text text-anchor="middle" x="720" y="-188.3" font-family="Times,serif" font-size="14.00">047 (a)</text>
</g>
<!-- 021&#45;&gt;047 -->
<g id="edge15" class="edge"><title>021&#45;&gt;047</title>
<path fill="none" stroke="#b43f3f" stroke-dasharray="1,5" d="M648.807,-264.465C657.912,-258.383 668.358,-250.821 677,-243 685.62,-235.198 694.167,-225.719 701.343,-217.12"/>
<polygon fill="#b43f3f" stroke="#b43f3f" points="704.166,-219.196 707.761,-209.229 698.736,-214.779 704.166,-219.196"/>
<text text-anchor="middle" x="714" y="-231.8" font-family="Times,serif" font-size="14.00">1 (95.1)</text>
</g>
<!-- 091 -->
<g id="node18" class="node"><title>091</title>
<ellipse fill="#cea8f4" stroke="#835da9" cx="850" cy="-366" rx="36.2938" ry="18"/>
<text text-anchor="middle" x="850" y="-362.3" font-family="Times,serif" font-size="14.00">091 (b)</text>
</g>
<!-- 05 -->
<g id="node19" class="node"><title>05</title>
<ellipse fill="#cea8f4" stroke="#835da9" cx="805" cy="-279" rx="32.4942" ry="18"/>
<text text-anchor="middle" x="805" y="-275.3" font-family="Times,serif" font-size="14.00">05 (b)</text>
</g>
<!-- 091&#45;&gt;05 -->
<g id="edge16" class="edge"><title>091&#45;&gt;05</title>
<path fill="none" stroke="#835da9" stroke-dasharray="1,5" d="M840.247,-348.371C836.926,-342.593 833.236,-336.047 830,-330 825.833,-322.213 821.469,-313.645 817.575,-305.834"/>
<polygon fill="#835da9" stroke="#835da9" points="820.672,-304.2 813.104,-296.785 814.397,-307.301 820.672,-304.2"/>
<text text-anchor="middle" x="852" y="-318.8" font-family="Times,serif" font-size="14.00">1 (87.5)</text>
</g>
<!-- 0211 -->
<g id="node20" class="node"><title>0211</title>
<ellipse fill="#cea8f4" stroke="#835da9" cx="896" cy="-279" rx="40.8928" ry="18"/>
<text text-anchor="middle" x="896" y="-275.3" font-family="Times,serif" font-size="14.00">0211 (b)</text>
</g>
<!-- 091&#45;&gt;0211 -->
<g id="edge17" class="edge"><title>091&#45;&gt;0211</title>
<path fill="none" stroke="#835da9" stroke-dasharray="1,5" d="M862.129,-348.67C866.149,-342.917 870.489,-336.309 874,-330 878.15,-322.542 882.102,-314.148 885.481,-306.398"/>
<polygon fill="#835da9" stroke="#835da9" points="888.764,-307.619 889.427,-297.044 882.315,-304.897 888.764,-307.619"/>
<text text-anchor="middle" x="904" y="-318.8" font-family="Times,serif" font-size="14.00">1 (83.3)</text>
</g>
<!-- 03 -->
<g id="node21" class="node"><title>03</title>
<ellipse fill="#cea8f4" stroke="#835da9" cx="1082" cy="-366" rx="32.4942" ry="18"/>
<text text-anchor="middle" x="1082" y="-362.3" font-family="Times,serif" font-size="14.00">03 (b)</text>
</g>
<!-- 032 -->
<g id="node22" class="node"><title>032</title>
<ellipse fill="#cea8f4" stroke="#835da9" cx="991" cy="-279" rx="36.2938" ry="18"/>
<text text-anchor="middle" x="991" y="-275.3" font-family="Times,serif" font-size="14.00">032 (b)</text>
</g>
<!-- 03&#45;&gt;032 -->
<g id="edge18" class="edge"><title>03&#45;&gt;032</title>
<path fill="none" stroke="#835da9" stroke-dasharray="1,5" d="M1061.58,-351.672C1052.74,-345.512 1042.49,-337.834 1034,-330 1025.46,-322.115 1016.92,-312.619 1009.74,-304.029"/>
<polygon fill="#835da9" stroke="#835da9" points="1012.34,-301.685 1003.31,-296.155 1006.92,-306.113 1012.34,-301.685"/>
<text text-anchor="middle" x="1056" y="-318.8" font-family="Times,serif" font-size="14.00">1 (91.7)</text>
</g>
<!-- 044 -->
<g id="node23" class="node"><title>044</title>
<ellipse fill="#cea8f4" stroke="#835da9" cx="1082" cy="-279" rx="36.2938" ry="18"/>
<text text-anchor="middle" x="1082" y="-275.3" font-family="Times,serif" font-size="14.00">044 (b)</text>
</g>
<!-- 03&#45;&gt;044 -->
<g id="edge19" class="edge"><title>03&#45;&gt;044</title>
<path fill="none" stroke="#835da9" stroke-dasharray="1,5" d="M1082,-347.799C1082,-336.163 1082,-320.548 1082,-307.237"/>
<polygon fill="#835da9" stroke="#835da9" points="1085.5,-307.175 1082,-297.175 1078.5,-307.175 1085.5,-307.175"/>
<text text-anchor="middle" x="1104" y="-318.8" font-family="Times,serif" font-size="14.00">1 (89.2)</text>
</g>
<!-- 02 -->
<g id="node24" class="node"><title>02</title>
<ellipse fill="#cea8f4" stroke="#835da9" cx="1169" cy="-279" rx="32.4942" ry="18"/>
<text text-anchor="middle" x="1169" y="-275.3" font-family="Times,serif" font-size="14.00">02 (b)</text>
</g>
<!-- 03&#45;&gt;02 -->
<g id="edge20" class="edge"><title>03&#45;&gt;02</title>
<path fill="none" stroke="#835da9" stroke-dasharray="1,5" d="M1102.6,-351.862C1111.48,-345.738 1121.7,-338.034 1130,-330 1137.95,-322.304 1145.67,-312.945 1152.11,-304.414"/>
<polygon fill="#835da9" stroke="#835da9" points="1155,-306.388 1158.09,-296.252 1149.36,-302.25 1155,-306.388"/>
<text text-anchor="middle" x="1164" y="-318.8" font-family="Times,serif" font-size="14.00">1 (86.5)</text>
</g>
<!-- 0141 -->
<g id="node25" class="node"><title>0141</title>
<ellipse fill="#cea8f4" stroke="#835da9" cx="1034" cy="-192" rx="40.8928" ry="18"/>
<text text-anchor="middle" x="1034" y="-188.3" font-family="Times,serif" font-size="14.00">0141 (b)</text>
</g>
<!-- 044&#45;&gt;0141 -->
<g id="edge21" class="edge"><title>044&#45;&gt;0141</title>
<path fill="none" stroke="#835da9" stroke-dasharray="1,5" d="M1067.84,-262.339C1063.05,-256.535 1057.92,-249.723 1054,-243 1049.76,-235.73 1046.03,-227.392 1042.98,-219.635"/>
<polygon fill="#835da9" stroke="#835da9" points="1046.25,-218.395 1039.48,-210.245 1039.69,-220.838 1046.25,-218.395"/>
<text text-anchor="middle" x="1076" y="-231.8" font-family="Times,serif" font-size="14.00">1 (89.2)</text>
</g>
<!-- 022 -->
<g id="node26" class="node"><title>022</title>
<ellipse fill="#cea8f4" stroke="#835da9" cx="1129" cy="-192" rx="36.2938" ry="18"/>
<text text-anchor="middle" x="1129" y="-188.3" font-family="Times,serif" font-size="14.00">022 (b)</text>
</g>
<!-- 044&#45;&gt;022 -->
<g id="edge22" class="edge"><title>044&#45;&gt;022</title>
<path fill="none" stroke="#835da9" stroke-dasharray="1,5" d="M1091.29,-261.207C1098.02,-249.021 1107.26,-232.318 1114.9,-218.491"/>
<polygon fill="#835da9" stroke="#835da9" points="1118.12,-219.914 1119.89,-209.469 1111.99,-216.527 1118.12,-219.914"/>
<text text-anchor="middle" x="1130" y="-231.8" font-family="Times,serif" font-size="14.00">1 (91.7)</text>
</g>
<!-- 017 -->
<g id="node27" class="node"><title>017</title>
<ellipse fill="#cea8f4" stroke="#835da9" cx="1034" cy="-105" rx="36.2938" ry="18"/>
<text text-anchor="middle" x="1034" y="-101.3" font-family="Times,serif" font-size="14.00">017 (b)</text>
</g>
<!-- 0141&#45;&gt;017 -->
<g id="edge24" class="edge"><title>0141&#45;&gt;017</title>
<path fill="none" stroke="#835da9" stroke-dasharray="1,5" d="M1034,-173.799C1034,-162.163 1034,-146.548 1034,-133.237"/>
<polygon fill="#835da9" stroke="#835da9" points="1037.5,-133.175 1034,-123.175 1030.5,-133.175 1037.5,-133.175"/>
<text text-anchor="middle" x="1056" y="-144.8" font-family="Times,serif" font-size="14.00">2 (92.7)</text>
</g>
<!-- 01 -->
<g id="node28" class="node"><title>01</title>
<ellipse fill="#cea8f4" stroke="#835da9" cx="1034" cy="-18" rx="32.4942" ry="18"/>
<text text-anchor="middle" x="1034" y="-14.3" font-family="Times,serif" font-size="14.00">01 (b)</text>
</g>
<!-- 017&#45;&gt;01 -->
<g id="edge23" class="edge"><title>017&#45;&gt;01</title>
<path fill="none" stroke="#835da9" stroke-dasharray="1,5" d="M1034,-86.799C1034,-75.1626 1034,-59.5479 1034,-46.2368"/>
<polygon fill="#835da9" stroke="#835da9" points="1037.5,-46.1754 1034,-36.1754 1030.5,-46.1755 1037.5,-46.1754"/>
<text text-anchor="middle" x="1056" y="-57.8" font-family="Times,serif" font-size="14.00">4 (44.7)</text>
</g>
<!-- P75 -->
<g id="node29" class="node"><title>P75</title>
<ellipse fill="#cea8f4" stroke="#835da9" cx="1170" cy="-366" rx="37.0935" ry="18"/>
<text text-anchor="middle" x="1170" y="-362.3" font-family="Times,serif" font-size="14.00">P75 (b)</text>
</g>
<!-- 019 -->
<g id="node30" class="node"><title>019</title>
<ellipse fill="#cea8f4" stroke="#835da9" cx="1261" cy="-366" rx="36.2938" ry="18"/>
<text text-anchor="middle" x="1261" y="-362.3" font-family="Times,serif" font-size="14.00">019 (b)</text>
</g>
</g>
</svg>
