<?xml version="1.0" encoding="UTF-8" standalone="no"?>
<!DOCTYPE svg PUBLIC "-//W3C//DTD SVG 1.1//EN"
 "http://www.w3.org/Graphics/SVG/1.1/DTD/svg11.dtd">
<!-- Generated by graphviz version 2.38.0 (20140413.2041)
 -->
<!-- Title: %3 Pages: 1 -->
<svg width="1438pt" height="408pt"
 viewBox="0.00 0.00 1438.40 408.00" xmlns="http://www.w3.org/2000/svg" xmlns:xlink="http://www.w3.org/1999/xlink">
<g id="graph0" class="graph" transform="scale(1 1) rotate(0) translate(4 404)">
<title>%3</title>
<polygon fill="white" stroke="none" points="-4,4 -4,-404 1434.4,-404 1434.4,4 -4,4"/>
<g id="clust1" class="cluster"><title>cluster_legend</title>
<path fill="none" stroke="black" d="M20,-264C20,-264 210,-264 210,-264 216,-264 222,-270 222,-276 222,-276 222,-380 222,-380 222,-386 216,-392 210,-392 210,-392 20,-392 20,-392 14,-392 8,-386 8,-380 8,-380 8,-276 8,-276 8,-270 14,-264 20,-264"/>
</g>
<!-- leg_s -->
<g id="node1" class="node"><title>leg_s</title>
<text text-anchor="middle" x="115" y="-362.3" font-family="Times,serif" font-size="14.00">Textual flow strength</text>
</g>
<!-- leg_e1 -->
<!-- leg_s&#45;&gt;leg_e1 -->
<g id="edge1" class="edge"><title>leg_s&#45;&gt;leg_e1</title>
<path fill="none" stroke="black" stroke-dasharray="1,5" d="M96.6657,-347.686C91.1324,-342.194 85.1607,-335.989 80,-330 70.1708,-318.593 60.0722,-304.779 52.9137,-294.563"/>
<polygon fill="black" stroke="black" points="55.6142,-292.314 47.056,-286.068 49.8514,-296.288 55.6142,-292.314"/>
<text text-anchor="middle" x="95.5" y="-318.8" font-family="Times,serif" font-size="14.00">&lt;=5 &#160;</text>
</g>
<!-- leg_e2 -->
<!-- leg_s&#45;&gt;leg_e2 -->
<g id="edge2" class="edge"><title>leg_s&#45;&gt;leg_e2</title>
<path fill="none" stroke="black" stroke-dasharray="5,2" d="M115,-347.799C115,-332.794 115,-311.174 115,-296.409"/>
<polygon fill="black" stroke="black" points="118.5,-296.293 115,-286.293 111.5,-296.293 118.5,-296.293"/>
<text text-anchor="middle" x="134" y="-318.8" font-family="Times,serif" font-size="14.00"> &#160;&lt;=25</text>
</g>
<!-- leg_e3 -->
<!-- leg_s&#45;&gt;leg_e3 -->
<g id="edge3" class="edge"><title>leg_s&#45;&gt;leg_e3</title>
<path fill="none" stroke="black" d="M138.503,-347.76C144.906,-342.462 151.567,-336.344 157,-330 166.087,-319.39 174.095,-305.689 179.546,-295.313"/>
<polygon fill="black" stroke="black" points="182.722,-296.789 184.091,-286.283 176.469,-293.642 182.722,-296.789"/>
<text text-anchor="middle" x="179" y="-318.8" font-family="Times,serif" font-size="14.00">&gt;25</text>
</g>
<!-- 045 -->
<g id="node5" class="node"><title>045</title>
<ellipse fill="#ff8a8a" stroke="#b43f3f" cx="268" cy="-279" rx="36.2938" ry="18"/>
<text text-anchor="middle" x="268" y="-275.3" font-family="Times,serif" font-size="14.00">045 (a)</text>
</g>
<!-- 038 -->
<g id="node6" class="node"><title>038</title>
<ellipse fill="#ff8a8a" stroke="#b43f3f" cx="198" cy="-192" rx="36.2938" ry="18"/>
<text text-anchor="middle" x="198" y="-188.3" font-family="Times,serif" font-size="14.00">038 (a)</text>
</g>
<!-- 045&#45;&gt;038 -->
<g id="edge4" class="edge"><title>045&#45;&gt;038</title>
<path fill="none" stroke="#b43f3f" stroke-dasharray="1,5" d="M246.607,-264.389C238.51,-258.508 229.651,-251.113 223,-243 217.162,-235.879 212.218,-227.169 208.306,-219.026"/>
<polygon fill="#b43f3f" stroke="#b43f3f" points="211.481,-217.55 204.198,-209.855 205.093,-220.412 211.481,-217.55"/>
<text text-anchor="middle" x="245" y="-231.8" font-family="Times,serif" font-size="14.00">1 (92.7)</text>
</g>
<!-- 063 -->
<g id="node7" class="node"><title>063</title>
<ellipse fill="#ff8a8a" stroke="#b43f3f" cx="623" cy="-366" rx="36.2938" ry="18"/>
<text text-anchor="middle" x="623" y="-362.3" font-family="Times,serif" font-size="14.00">063 (a)</text>
</g>
<!-- 063&#45;&gt;045 -->
<g id="edge5" class="edge"><title>063&#45;&gt;045</title>
<path fill="none" stroke="#b43f3f" stroke-dasharray="1,5" d="M590.87,-357.307C526.532,-341.902 381.915,-307.275 310.105,-290.082"/>
<polygon fill="#b43f3f" stroke="#b43f3f" points="310.597,-286.6 300.057,-287.676 308.967,-293.408 310.597,-286.6"/>
<text text-anchor="middle" x="489" y="-318.8" font-family="Times,serif" font-size="14.00">1 (93.1)</text>
</g>
<!-- 07 -->
<g id="node8" class="node"><title>07</title>
<ellipse fill="#ff8a8a" stroke="#b43f3f" cx="471" cy="-279" rx="31.6951" ry="18"/>
<text text-anchor="middle" x="471" y="-275.3" font-family="Times,serif" font-size="14.00">07 (a)</text>
</g>
<!-- 063&#45;&gt;07 -->
<g id="edge6" class="edge"><title>063&#45;&gt;07</title>
<path fill="none" stroke="#b43f3f" stroke-dasharray="1,5" d="M599.583,-351.905C573.433,-337.282 530.993,-313.549 502.08,-297.38"/>
<polygon fill="#b43f3f" stroke="#b43f3f" points="503.643,-294.244 493.206,-292.418 500.226,-300.354 503.643,-294.244"/>
<text text-anchor="middle" x="579" y="-318.8" font-family="Times,serif" font-size="14.00">1 (96.6)</text>
</g>
<!-- 021 -->
<g id="node9" class="node"><title>021</title>
<ellipse fill="#ff8a8a" stroke="#b43f3f" cx="623" cy="-279" rx="36.2938" ry="18"/>
<text text-anchor="middle" x="623" y="-275.3" font-family="Times,serif" font-size="14.00">021 (a)</text>
</g>
<!-- 063&#45;&gt;021 -->
<g id="edge7" class="edge"><title>063&#45;&gt;021</title>
<path fill="none" stroke="#b43f3f" stroke-dasharray="1,5" d="M623,-347.799C623,-336.163 623,-320.548 623,-307.237"/>
<polygon fill="#b43f3f" stroke="#b43f3f" points="626.5,-307.175 623,-297.175 619.5,-307.175 626.5,-307.175"/>
<text text-anchor="middle" x="645" y="-318.8" font-family="Times,serif" font-size="14.00">1 (93.1)</text>
</g>
<!-- 028 -->
<g id="node10" class="node"><title>028</title>
<ellipse fill="#ff8a8a" stroke="#b43f3f" cx="714" cy="-279" rx="36.2938" ry="18"/>
<text text-anchor="middle" x="714" y="-275.3" font-family="Times,serif" font-size="14.00">028 (a)</text>
</g>
<!-- 063&#45;&gt;028 -->
<g id="edge8" class="edge"><title>063&#45;&gt;028</title>
<path fill="none" stroke="#b43f3f" stroke-dasharray="1,5" d="M644.372,-351.006C652.992,-344.963 662.814,-337.554 671,-330 679.544,-322.115 688.076,-312.619 695.26,-304.029"/>
<polygon fill="#b43f3f" stroke="#b43f3f" points="698.077,-306.113 701.692,-296.155 692.656,-301.685 698.077,-306.113"/>
<text text-anchor="middle" x="707" y="-318.8" font-family="Times,serif" font-size="14.00">1 (96.6)</text>
</g>
<!-- 011 -->
<g id="node11" class="node"><title>011</title>
<ellipse fill="#ff8a8a" stroke="#b43f3f" cx="805" cy="-279" rx="36.2938" ry="18"/>
<text text-anchor="middle" x="805" y="-275.3" font-family="Times,serif" font-size="14.00">011 (a)</text>
</g>
<!-- 063&#45;&gt;011 -->
<g id="edge9" class="edge"><title>063&#45;&gt;011</title>
<path fill="none" stroke="#b43f3f" stroke-dasharray="1,5" d="M655.267,-357.461C677.727,-351.566 708.009,-342.305 733,-330 749.128,-322.059 765.702,-310.801 778.877,-300.977"/>
<polygon fill="#b43f3f" stroke="#b43f3f" points="781.176,-303.626 787.004,-294.778 776.931,-298.06 781.176,-303.626"/>
<text text-anchor="middle" x="780" y="-318.8" font-family="Times,serif" font-size="14.00">1 (93.1)</text>
</g>
<!-- 013 -->
<g id="node12" class="node"><title>013</title>
<ellipse fill="#ff8a8a" stroke="#b43f3f" cx="289" cy="-192" rx="36.2938" ry="18"/>
<text text-anchor="middle" x="289" y="-188.3" font-family="Times,serif" font-size="14.00">013 (a)</text>
</g>
<!-- 07&#45;&gt;013 -->
<g id="edge10" class="edge"><title>07&#45;&gt;013</title>
<path fill="none" stroke="#b43f3f" stroke-dasharray="1,5" d="M441.89,-271.118C419.411,-265.225 387.879,-255.681 362,-243 345.705,-235.016 328.906,-223.754 315.536,-213.939"/>
<polygon fill="#b43f3f" stroke="#b43f3f" points="317.385,-210.951 307.286,-207.748 313.183,-216.55 317.385,-210.951"/>
<text text-anchor="middle" x="384" y="-231.8" font-family="Times,serif" font-size="14.00">2 (95.1)</text>
</g>
<!-- 030 -->
<g id="node13" class="node"><title>030</title>
<ellipse fill="#ff8a8a" stroke="#b43f3f" cx="380" cy="-192" rx="36.2938" ry="18"/>
<text text-anchor="middle" x="380" y="-188.3" font-family="Times,serif" font-size="14.00">030 (a)</text>
</g>
<!-- 07&#45;&gt;030 -->
<g id="edge11" class="edge"><title>07&#45;&gt;030</title>
<path fill="none" stroke="#b43f3f" stroke-dasharray="1,5" d="M450.581,-264.672C441.737,-258.512 431.489,-250.834 423,-243 414.456,-235.115 405.924,-225.619 398.74,-217.029"/>
<polygon fill="#b43f3f" stroke="#b43f3f" points="401.344,-214.685 392.308,-209.155 395.923,-219.113 401.344,-214.685"/>
<text text-anchor="middle" x="445" y="-231.8" font-family="Times,serif" font-size="14.00">1 (95.1)</text>
</g>
<!-- 034 -->
<g id="node14" class="node"><title>034</title>
<ellipse fill="#ff8a8a" stroke="#b43f3f" cx="471" cy="-192" rx="36.2938" ry="18"/>
<text text-anchor="middle" x="471" y="-188.3" font-family="Times,serif" font-size="14.00">034 (a)</text>
</g>
<!-- 07&#45;&gt;034 -->
<g id="edge12" class="edge"><title>07&#45;&gt;034</title>
<path fill="none" stroke="#b43f3f" stroke-dasharray="1,5" d="M471,-260.799C471,-249.163 471,-233.548 471,-220.237"/>
<polygon fill="#b43f3f" stroke="#b43f3f" points="474.5,-220.175 471,-210.175 467.5,-220.175 474.5,-220.175"/>
<text text-anchor="middle" x="493" y="-231.8" font-family="Times,serif" font-size="14.00">1 (95.1)</text>
</g>
<!-- 037 -->
<g id="node15" class="node"><title>037</title>
<ellipse fill="#ff8a8a" stroke="#b43f3f" cx="562" cy="-192" rx="36.2938" ry="18"/>
<text text-anchor="middle" x="562" y="-188.3" font-family="Times,serif" font-size="14.00">037 (a)</text>
</g>
<!-- 07&#45;&gt;037 -->
<g id="edge13" class="edge"><title>07&#45;&gt;037</title>
<path fill="none" stroke="#b43f3f" stroke-dasharray="1,5" d="M491.419,-264.672C500.263,-258.512 510.511,-250.834 519,-243 527.544,-235.115 536.076,-225.619 543.26,-217.029"/>
<polygon fill="#b43f3f" stroke="#b43f3f" points="546.077,-219.113 549.692,-209.155 540.656,-214.685 546.077,-219.113"/>
<text text-anchor="middle" x="555" y="-231.8" font-family="Times,serif" font-size="14.00">1 (97.5)</text>
</g>
<!-- 036 -->
<g id="node16" class="node"><title>036</title>
<ellipse fill="#ff8a8a" stroke="#b43f3f" cx="653" cy="-192" rx="36.2938" ry="18"/>
<text text-anchor="middle" x="653" y="-188.3" font-family="Times,serif" font-size="14.00">036 (a)</text>
</g>
<!-- 021&#45;&gt;036 -->
<g id="edge14" class="edge"><title>021&#45;&gt;036</title>
<path fill="none" stroke="#b43f3f" stroke-dasharray="1,5" d="M628.927,-261.207C633.091,-249.409 638.749,-233.378 643.533,-219.822"/>
<polygon fill="#b43f3f" stroke="#b43f3f" points="646.955,-220.644 646.983,-210.049 640.354,-218.314 646.955,-220.644"/>
<text text-anchor="middle" x="662" y="-231.8" font-family="Times,serif" font-size="14.00">1 (97.6)</text>
</g>
<!-- 047 -->
<g id="node17" class="node"><title>047</title>
<ellipse fill="#ff8a8a" stroke="#b43f3f" cx="744" cy="-192" rx="36.2938" ry="18"/>
<text text-anchor="middle" x="744" y="-188.3" font-family="Times,serif" font-size="14.00">047 (a)</text>
</g>
<!-- 021&#45;&gt;047 -->
<g id="edge15" class="edge"><title>021&#45;&gt;047</title>
<path fill="none" stroke="#b43f3f" stroke-dasharray="1,5" d="M648.505,-266.021C660.838,-259.796 675.616,-251.681 688,-243 699.621,-234.853 711.488,-224.591 721.289,-215.486"/>
<polygon fill="#b43f3f" stroke="#b43f3f" points="723.814,-217.916 728.662,-208.496 718.997,-212.836 723.814,-217.916"/>
<text text-anchor="middle" x="728" y="-231.8" font-family="Times,serif" font-size="14.00">1 (95.1)</text>
</g>
<!-- 017 -->
<g id="node18" class="node"><title>017</title>
<ellipse fill="#cea8f4" stroke="#835da9" cx="960" cy="-105" rx="36.2938" ry="18"/>
<text text-anchor="middle" x="960" y="-101.3" font-family="Times,serif" font-size="14.00">017 (b)</text>
</g>
<!-- 01 -->
<g id="node19" class="node"><title>01</title>
<ellipse fill="#cea8f4" stroke="#835da9" cx="960" cy="-18" rx="32.4942" ry="18"/>
<text text-anchor="middle" x="960" y="-14.3" font-family="Times,serif" font-size="14.00">01 (b)</text>
</g>
<!-- 017&#45;&gt;01 -->
<g id="edge16" class="edge"><title>017&#45;&gt;01</title>
<path fill="none" stroke="#835da9" stroke-dasharray="1,5" d="M960,-86.799C960,-75.1626 960,-59.5479 960,-46.2368"/>
<polygon fill="#835da9" stroke="#835da9" points="963.5,-46.1754 960,-36.1754 956.5,-46.1755 963.5,-46.1754"/>
<text text-anchor="middle" x="982" y="-57.8" font-family="Times,serif" font-size="14.00">4 (44.7)</text>
</g>
<!-- 044 -->
<g id="node20" class="node"><title>044</title>
<ellipse fill="#cea8f4" stroke="#835da9" cx="898" cy="-279" rx="36.2938" ry="18"/>
<text text-anchor="middle" x="898" y="-275.3" font-family="Times,serif" font-size="14.00">044 (b)</text>
</g>
<!-- 022 -->
<g id="node21" class="node"><title>022</title>
<ellipse fill="#cea8f4" stroke="#835da9" cx="865" cy="-192" rx="36.2938" ry="18"/>
<text text-anchor="middle" x="865" y="-188.3" font-family="Times,serif" font-size="14.00">022 (b)</text>
</g>
<!-- 044&#45;&gt;022 -->
<g id="edge17" class="edge"><title>044&#45;&gt;022</title>
<path fill="none" stroke="#835da9" stroke-dasharray="1,5" d="M888.755,-261.557C885.729,-255.795 882.504,-249.21 880,-243 877.018,-235.603 874.314,-227.384 872.048,-219.781"/>
<polygon fill="#835da9" stroke="#835da9" points="875.349,-218.592 869.247,-209.931 868.616,-220.507 875.349,-218.592"/>
<text text-anchor="middle" x="902" y="-231.8" font-family="Times,serif" font-size="14.00">1 (91.7)</text>
</g>
<!-- 0141 -->
<g id="node22" class="node"><title>0141</title>
<ellipse fill="#cea8f4" stroke="#835da9" cx="960" cy="-192" rx="40.8928" ry="18"/>
<text text-anchor="middle" x="960" y="-188.3" font-family="Times,serif" font-size="14.00">0141 (b)</text>
</g>
<!-- 044&#45;&gt;0141 -->
<g id="edge18" class="edge"><title>044&#45;&gt;0141</title>
<path fill="none" stroke="#835da9" stroke-dasharray="1,5" d="M910.22,-261.656C914.587,-255.787 919.531,-249.11 924,-243 929.936,-234.884 936.366,-225.987 942.128,-217.977"/>
<polygon fill="#835da9" stroke="#835da9" points="945.073,-219.876 948.062,-209.712 939.386,-215.793 945.073,-219.876"/>
<text text-anchor="middle" x="956" y="-231.8" font-family="Times,serif" font-size="14.00">1 (89.2)</text>
</g>
<!-- 0141&#45;&gt;017 -->
<g id="edge24" class="edge"><title>0141&#45;&gt;017</title>
<path fill="none" stroke="#835da9" stroke-dasharray="1,5" d="M960,-173.799C960,-162.163 960,-146.548 960,-133.237"/>
<polygon fill="#835da9" stroke="#835da9" points="963.5,-133.175 960,-123.175 956.5,-133.175 963.5,-133.175"/>
<text text-anchor="middle" x="982" y="-144.8" font-family="Times,serif" font-size="14.00">2 (92.7)</text>
</g>
<!-- 03 -->
<g id="node23" class="node"><title>03</title>
<ellipse fill="#cea8f4" stroke="#835da9" cx="985" cy="-366" rx="32.4942" ry="18"/>
<text text-anchor="middle" x="985" y="-362.3" font-family="Times,serif" font-size="14.00">03 (b)</text>
</g>
<!-- 03&#45;&gt;044 -->
<g id="edge19" class="edge"><title>03&#45;&gt;044</title>
<path fill="none" stroke="#835da9" stroke-dasharray="1,5" d="M964.401,-351.862C955.524,-345.738 945.299,-338.034 937,-330 929.051,-322.304 921.333,-312.945 914.889,-304.414"/>
<polygon fill="#835da9" stroke="#835da9" points="917.642,-302.25 908.909,-296.252 911.996,-306.388 917.642,-302.25"/>
<text text-anchor="middle" x="959" y="-318.8" font-family="Times,serif" font-size="14.00">1 (89.2)</text>
</g>
<!-- 02 -->
<g id="node24" class="node"><title>02</title>
<ellipse fill="#cea8f4" stroke="#835da9" cx="985" cy="-279" rx="32.4942" ry="18"/>
<text text-anchor="middle" x="985" y="-275.3" font-family="Times,serif" font-size="14.00">02 (b)</text>
</g>
<!-- 03&#45;&gt;02 -->
<g id="edge20" class="edge"><title>03&#45;&gt;02</title>
<path fill="none" stroke="#835da9" stroke-dasharray="1,5" d="M985,-347.799C985,-336.163 985,-320.548 985,-307.237"/>
<polygon fill="#835da9" stroke="#835da9" points="988.5,-307.175 985,-297.175 981.5,-307.175 988.5,-307.175"/>
<text text-anchor="middle" x="1007" y="-318.8" font-family="Times,serif" font-size="14.00">1 (86.5)</text>
</g>
<!-- 032 -->
<g id="node25" class="node"><title>032</title>
<ellipse fill="#cea8f4" stroke="#835da9" cx="1072" cy="-279" rx="36.2938" ry="18"/>
<text text-anchor="middle" x="1072" y="-275.3" font-family="Times,serif" font-size="14.00">032 (b)</text>
</g>
<!-- 03&#45;&gt;032 -->
<g id="edge21" class="edge"><title>03&#45;&gt;032</title>
<path fill="none" stroke="#835da9" stroke-dasharray="1,5" d="M1005.6,-351.862C1014.48,-345.738 1024.7,-338.034 1033,-330 1040.95,-322.304 1048.67,-312.945 1055.11,-304.414"/>
<polygon fill="#835da9" stroke="#835da9" points="1058,-306.388 1061.09,-296.252 1052.36,-302.25 1058,-306.388"/>
<text text-anchor="middle" x="1067" y="-318.8" font-family="Times,serif" font-size="14.00">1 (91.7)</text>
</g>
<!-- 091 -->
<g id="node26" class="node"><title>091</title>
<ellipse fill="#cea8f4" stroke="#835da9" cx="1212" cy="-366" rx="36.2938" ry="18"/>
<text text-anchor="middle" x="1212" y="-362.3" font-family="Times,serif" font-size="14.00">091 (b)</text>
</g>
<!-- 0211 -->
<g id="node27" class="node"><title>0211</title>
<ellipse fill="#cea8f4" stroke="#835da9" cx="1167" cy="-279" rx="40.8928" ry="18"/>
<text text-anchor="middle" x="1167" y="-275.3" font-family="Times,serif" font-size="14.00">0211 (b)</text>
</g>
<!-- 091&#45;&gt;0211 -->
<g id="edge22" class="edge"><title>091&#45;&gt;0211</title>
<path fill="none" stroke="#835da9" stroke-dasharray="1,5" d="M1202.25,-348.371C1198.93,-342.593 1195.24,-336.047 1192,-330 1187.83,-322.213 1183.47,-313.645 1179.58,-305.834"/>
<polygon fill="#835da9" stroke="#835da9" points="1182.67,-304.2 1175.1,-296.785 1176.4,-307.301 1182.67,-304.2"/>
<text text-anchor="middle" x="1214" y="-318.8" font-family="Times,serif" font-size="14.00">1 (83.3)</text>
</g>
<!-- 05 -->
<g id="node28" class="node"><title>05</title>
<ellipse fill="#cea8f4" stroke="#835da9" cx="1258" cy="-279" rx="32.4942" ry="18"/>
<text text-anchor="middle" x="1258" y="-275.3" font-family="Times,serif" font-size="14.00">05 (b)</text>
</g>
<!-- 091&#45;&gt;05 -->
<g id="edge23" class="edge"><title>091&#45;&gt;05</title>
<path fill="none" stroke="#835da9" stroke-dasharray="1,5" d="M1224.13,-348.67C1228.15,-342.917 1232.49,-336.309 1236,-330 1240.15,-322.542 1244.1,-314.148 1247.48,-306.398"/>
<polygon fill="#835da9" stroke="#835da9" points="1250.76,-307.619 1251.43,-297.044 1244.31,-304.897 1250.76,-307.619"/>
<text text-anchor="middle" x="1265" y="-318.8" font-family="Times,serif" font-size="14.00">1 (87.5)</text>
</g>
<!-- P75 -->
<g id="node29" class="node"><title>P75</title>
<ellipse fill="#cea8f4" stroke="#835da9" cx="1303" cy="-366" rx="37.0935" ry="18"/>
<text text-anchor="middle" x="1303" y="-362.3" font-family="Times,serif" font-size="14.00">P75 (b)</text>
</g>
<!-- 019 -->
<g id="node30" class="node"><title>019</title>
<ellipse fill="#cea8f4" stroke="#835da9" cx="1394" cy="-366" rx="36.2938" ry="18"/>
<text text-anchor="middle" x="1394" y="-362.3" font-family="Times,serif" font-size="14.00">019 (b)</text>
</g>
</g>
</svg>
