<?xml version="1.0" encoding="UTF-8" standalone="no"?>
<!DOCTYPE svg PUBLIC "-//W3C//DTD SVG 1.1//EN"
 "http://www.w3.org/Graphics/SVG/1.1/DTD/svg11.dtd">
<!-- Generated by graphviz version 2.38.0 (20140413.2041)
 -->
<!-- Title: %3 Pages: 1 -->
<svg width="1490pt" height="234pt"
 viewBox="0.00 0.00 1490.00 234.00" xmlns="http://www.w3.org/2000/svg" xmlns:xlink="http://www.w3.org/1999/xlink">
<g id="graph0" class="graph" transform="scale(1 1) rotate(0) translate(4 230)">
<title>%3</title>
<polygon fill="white" stroke="none" points="-4,4 -4,-230 1486,-230 1486,4 -4,4"/>
<g id="clust1" class="cluster"><title>cluster_legend</title>
<path fill="none" stroke="black" d="M20,-90C20,-90 210,-90 210,-90 216,-90 222,-96 222,-102 222,-102 222,-206 222,-206 222,-212 216,-218 210,-218 210,-218 20,-218 20,-218 14,-218 8,-212 8,-206 8,-206 8,-102 8,-102 8,-96 14,-90 20,-90"/>
</g>
<!-- leg_s -->
<g id="node1" class="node"><title>leg_s</title>
<text text-anchor="middle" x="115" y="-188.3" font-family="Times,serif" font-size="14.00">Textual flow strength</text>
</g>
<!-- leg_e1 -->
<!-- leg_s&#45;&gt;leg_e1 -->
<g id="edge1" class="edge"><title>leg_s&#45;&gt;leg_e1</title>
<path fill="none" stroke="black" stroke-dasharray="1,5" d="M96.6657,-173.686C91.1324,-168.194 85.1607,-161.989 80,-156 70.1708,-144.593 60.0722,-130.779 52.9137,-120.563"/>
<polygon fill="black" stroke="black" points="55.6142,-118.314 47.056,-112.068 49.8514,-122.288 55.6142,-118.314"/>
<text text-anchor="middle" x="95.5" y="-144.8" font-family="Times,serif" font-size="14.00">&lt;=5 &#160;</text>
</g>
<!-- leg_e2 -->
<!-- leg_s&#45;&gt;leg_e2 -->
<g id="edge2" class="edge"><title>leg_s&#45;&gt;leg_e2</title>
<path fill="none" stroke="black" stroke-dasharray="5,2" d="M115,-173.799C115,-158.794 115,-137.174 115,-122.409"/>
<polygon fill="black" stroke="black" points="118.5,-122.293 115,-112.293 111.5,-122.293 118.5,-122.293"/>
<text text-anchor="middle" x="134" y="-144.8" font-family="Times,serif" font-size="14.00"> &#160;&lt;=25</text>
</g>
<!-- leg_e3 -->
<!-- leg_s&#45;&gt;leg_e3 -->
<g id="edge3" class="edge"><title>leg_s&#45;&gt;leg_e3</title>
<path fill="none" stroke="black" d="M138.503,-173.76C144.906,-168.462 151.567,-162.344 157,-156 166.087,-145.39 174.095,-131.689 179.546,-121.313"/>
<polygon fill="black" stroke="black" points="182.722,-122.789 184.091,-112.283 176.469,-119.642 182.722,-122.789"/>
<text text-anchor="middle" x="179" y="-144.8" font-family="Times,serif" font-size="14.00">&gt;25</text>
</g>
<!-- 063 -->
<g id="node5" class="node"><title>063</title>
<ellipse fill="#ff8a8a" stroke="#b43f3f" cx="535" cy="-192" rx="36.2938" ry="18"/>
<text text-anchor="middle" x="535" y="-188.3" font-family="Times,serif" font-size="14.00">063 (a)</text>
</g>
<!-- 045 -->
<g id="node6" class="node"><title>045</title>
<ellipse fill="#ff8a8a" stroke="#b43f3f" cx="268" cy="-105" rx="36.2938" ry="18"/>
<text text-anchor="middle" x="268" y="-101.3" font-family="Times,serif" font-size="14.00">045 (a)</text>
</g>
<!-- 063&#45;&gt;045 -->
<g id="edge4" class="edge"><title>063&#45;&gt;045</title>
<path fill="none" stroke="#b43f3f" stroke-dasharray="1,5" d="M505.149,-181.497C456.725,-166.081 361.056,-135.625 307.206,-118.481"/>
<polygon fill="#b43f3f" stroke="#b43f3f" points="308.25,-115.141 297.659,-115.442 306.126,-121.811 308.25,-115.141"/>
<text text-anchor="middle" x="440" y="-144.8" font-family="Times,serif" font-size="14.00">1 (93.1)</text>
</g>
<!-- 07 -->
<g id="node7" class="node"><title>07</title>
<ellipse fill="#ff8a8a" stroke="#b43f3f" cx="449" cy="-105" rx="31.6951" ry="18"/>
<text text-anchor="middle" x="449" y="-101.3" font-family="Times,serif" font-size="14.00">07 (a)</text>
</g>
<!-- 063&#45;&gt;07 -->
<g id="edge5" class="edge"><title>063&#45;&gt;07</title>
<path fill="none" stroke="#b43f3f" stroke-dasharray="1,5" d="M513.396,-177.25C504.74,-171.245 494.954,-163.798 487,-156 479.175,-148.329 471.638,-138.975 465.368,-130.442"/>
<polygon fill="#b43f3f" stroke="#b43f3f" points="468.206,-128.394 459.557,-122.275 462.503,-132.452 468.206,-128.394"/>
<text text-anchor="middle" x="509" y="-144.8" font-family="Times,serif" font-size="14.00">1 (96.6)</text>
</g>
<!-- 028 -->
<g id="node8" class="node"><title>028</title>
<ellipse fill="#ff8a8a" stroke="#b43f3f" cx="535" cy="-105" rx="36.2938" ry="18"/>
<text text-anchor="middle" x="535" y="-101.3" font-family="Times,serif" font-size="14.00">028 (a)</text>
</g>
<!-- 063&#45;&gt;028 -->
<g id="edge6" class="edge"><title>063&#45;&gt;028</title>
<path fill="none" stroke="#b43f3f" stroke-dasharray="1,5" d="M535,-173.799C535,-162.163 535,-146.548 535,-133.237"/>
<polygon fill="#b43f3f" stroke="#b43f3f" points="538.5,-133.175 535,-123.175 531.5,-133.175 538.5,-133.175"/>
<text text-anchor="middle" x="557" y="-144.8" font-family="Times,serif" font-size="14.00">1 (96.6)</text>
</g>
<!-- 011 -->
<g id="node9" class="node"><title>011</title>
<ellipse fill="#ff8a8a" stroke="#b43f3f" cx="626" cy="-105" rx="36.2938" ry="18"/>
<text text-anchor="middle" x="626" y="-101.3" font-family="Times,serif" font-size="14.00">011 (a)</text>
</g>
<!-- 063&#45;&gt;011 -->
<g id="edge7" class="edge"><title>063&#45;&gt;011</title>
<path fill="none" stroke="#b43f3f" stroke-dasharray="1,5" d="M556.372,-177.006C564.992,-170.963 574.814,-163.554 583,-156 591.544,-148.115 600.076,-138.619 607.26,-130.029"/>
<polygon fill="#b43f3f" stroke="#b43f3f" points="610.077,-132.113 613.692,-122.155 604.656,-127.685 610.077,-132.113"/>
<text text-anchor="middle" x="619" y="-144.8" font-family="Times,serif" font-size="14.00">1 (93.1)</text>
</g>
<!-- 031 -->
<g id="node10" class="node"><title>031</title>
<ellipse fill="#ff8a8a" stroke="#b43f3f" cx="717" cy="-105" rx="36.2938" ry="18"/>
<text text-anchor="middle" x="717" y="-101.3" font-family="Times,serif" font-size="14.00">031 (a)</text>
</g>
<!-- 063&#45;&gt;031 -->
<g id="edge8" class="edge"><title>063&#45;&gt;031</title>
<path fill="none" stroke="#b43f3f" stroke-dasharray="1,5" d="M567.267,-183.461C589.727,-177.566 620.009,-168.305 645,-156 661.128,-148.059 677.702,-136.801 690.877,-126.977"/>
<polygon fill="#b43f3f" stroke="#b43f3f" points="693.176,-129.626 699.004,-120.778 688.931,-124.06 693.176,-129.626"/>
<text text-anchor="middle" x="692" y="-144.8" font-family="Times,serif" font-size="14.00">1 (95.8)</text>
</g>
<!-- 038 -->
<g id="node11" class="node"><title>038</title>
<ellipse fill="#ff8a8a" stroke="#b43f3f" cx="171" cy="-18" rx="36.2938" ry="18"/>
<text text-anchor="middle" x="171" y="-14.3" font-family="Times,serif" font-size="14.00">038 (a)</text>
</g>
<!-- 045&#45;&gt;038 -->
<g id="edge9" class="edge"><title>045&#45;&gt;038</title>
<path fill="none" stroke="#b43f3f" stroke-dasharray="1,5" d="M240.557,-92.8447C223.209,-85.387 202.819,-75.7432 196,-69 189.354,-62.4275 184.17,-53.7233 180.289,-45.4217"/>
<polygon fill="#b43f3f" stroke="#b43f3f" points="183.432,-43.8676 176.321,-36.0131 176.982,-46.5874 183.432,-43.8676"/>
<text text-anchor="middle" x="218" y="-57.8" font-family="Times,serif" font-size="14.00">1 (92.7)</text>
</g>
<!-- 034 -->
<g id="node12" class="node"><title>034</title>
<ellipse fill="#ff8a8a" stroke="#b43f3f" cx="262" cy="-18" rx="36.2938" ry="18"/>
<text text-anchor="middle" x="262" y="-14.3" font-family="Times,serif" font-size="14.00">034 (a)</text>
</g>
<!-- 07&#45;&gt;034 -->
<g id="edge10" class="edge"><title>07&#45;&gt;034</title>
<path fill="none" stroke="#b43f3f" stroke-dasharray="1,5" d="M420.286,-96.8146C398.084,-90.7588 366.872,-81.1429 341,-69 323.356,-60.7189 304.883,-49.2057 290.241,-39.3145"/>
<polygon fill="#b43f3f" stroke="#b43f3f" points="291.882,-36.1954 281.661,-33.4088 287.914,-41.9616 291.882,-36.1954"/>
<text text-anchor="middle" x="363" y="-57.8" font-family="Times,serif" font-size="14.00">1 (95.1)</text>
</g>
<!-- 0211 -->
<g id="node13" class="node"><title>0211</title>
<ellipse fill="#ff8a8a" stroke="#b43f3f" cx="357" cy="-18" rx="40.0939" ry="18"/>
<text text-anchor="middle" x="357" y="-14.3" font-family="Times,serif" font-size="14.00">0211 (a)</text>
</g>
<!-- 07&#45;&gt;0211 -->
<g id="edge11" class="edge"><title>07&#45;&gt;0211</title>
<path fill="none" stroke="#b43f3f" stroke-dasharray="1,5" d="M429.597,-90.4194C421.153,-84.2131 411.309,-76.5679 403,-69 394.053,-60.8516 384.89,-51.204 377.12,-42.5674"/>
<polygon fill="#b43f3f" stroke="#b43f3f" points="379.668,-40.1656 370.422,-34.9922 374.424,-44.8023 379.668,-40.1656"/>
<text text-anchor="middle" x="425" y="-57.8" font-family="Times,serif" font-size="14.00">2 (82.9)</text>
</g>
<!-- 030 -->
<g id="node14" class="node"><title>030</title>
<ellipse fill="#ff8a8a" stroke="#b43f3f" cx="452" cy="-18" rx="36.2938" ry="18"/>
<text text-anchor="middle" x="452" y="-14.3" font-family="Times,serif" font-size="14.00">030 (a)</text>
</g>
<!-- 07&#45;&gt;030 -->
<g id="edge12" class="edge"><title>07&#45;&gt;030</title>
<path fill="none" stroke="#b43f3f" stroke-dasharray="1,5" d="M449.607,-86.799C450.018,-75.1626 450.569,-59.5479 451.039,-46.2368"/>
<polygon fill="#b43f3f" stroke="#b43f3f" points="454.539,-46.2927 451.394,-36.1754 447.543,-46.0457 454.539,-46.2927"/>
<text text-anchor="middle" x="473" y="-57.8" font-family="Times,serif" font-size="14.00">1 (95.1)</text>
</g>
<!-- 037 -->
<g id="node15" class="node"><title>037</title>
<ellipse fill="#ff8a8a" stroke="#b43f3f" cx="543" cy="-18" rx="36.2938" ry="18"/>
<text text-anchor="middle" x="543" y="-14.3" font-family="Times,serif" font-size="14.00">037 (a)</text>
</g>
<!-- 07&#45;&gt;037 -->
<g id="edge13" class="edge"><title>07&#45;&gt;037</title>
<path fill="none" stroke="#b43f3f" stroke-dasharray="1,5" d="M469.776,-91.0752C479.098,-84.8764 489.998,-77.0548 499,-69 507.75,-61.1702 516.482,-51.6848 523.833,-43.0893"/>
<polygon fill="#b43f3f" stroke="#b43f3f" points="526.693,-45.1242 530.413,-35.2039 521.319,-40.6393 526.693,-45.1242"/>
<text text-anchor="middle" x="536" y="-57.8" font-family="Times,serif" font-size="14.00">1 (97.5)</text>
</g>
<!-- 02 -->
<g id="node16" class="node"><title>02</title>
<ellipse fill="#ff8a8a" stroke="#b43f3f" cx="629" cy="-18" rx="31.6951" ry="18"/>
<text text-anchor="middle" x="629" y="-14.3" font-family="Times,serif" font-size="14.00">02 (a)</text>
</g>
<!-- 011&#45;&gt;02 -->
<g id="edge14" class="edge"><title>011&#45;&gt;02</title>
<path fill="none" stroke="#b43f3f" stroke-dasharray="1,5" d="M626.607,-86.799C627.018,-75.1626 627.569,-59.5479 628.039,-46.2368"/>
<polygon fill="#b43f3f" stroke="#b43f3f" points="631.539,-46.2927 628.394,-36.1754 624.543,-46.0457 631.539,-46.2927"/>
<text text-anchor="middle" x="650" y="-57.8" font-family="Times,serif" font-size="14.00">1 (86.5)</text>
</g>
<!-- 013 -->
<g id="node17" class="node"><title>013</title>
<ellipse fill="#ff8a8a" stroke="#b43f3f" cx="717" cy="-18" rx="36.2938" ry="18"/>
<text text-anchor="middle" x="717" y="-14.3" font-family="Times,serif" font-size="14.00">013 (a)</text>
</g>
<!-- 031&#45;&gt;013 -->
<g id="edge15" class="edge"><title>031&#45;&gt;013</title>
<path fill="none" stroke="#b43f3f" stroke-dasharray="1,5" d="M717,-86.799C717,-75.1626 717,-59.5479 717,-46.2368"/>
<polygon fill="#b43f3f" stroke="#b43f3f" points="720.5,-46.1754 717,-36.1754 713.5,-46.1755 720.5,-46.1754"/>
<text text-anchor="middle" x="739" y="-57.8" font-family="Times,serif" font-size="14.00">1 (97.1)</text>
</g>
<!-- 03 -->
<g id="node18" class="node"><title>03</title>
<ellipse fill="#72fe95" stroke="#27b34a" cx="808" cy="-192" rx="31.6951" ry="18"/>
<text text-anchor="middle" x="808" y="-188.3" font-family="Times,serif" font-size="14.00">03 (c)</text>
</g>
<!-- 032 -->
<g id="node19" class="node"><title>032</title>
<ellipse fill="#72fe95" stroke="#27b34a" cx="808" cy="-105" rx="36.2938" ry="18"/>
<text text-anchor="middle" x="808" y="-101.3" font-family="Times,serif" font-size="14.00">032 (c)</text>
</g>
<!-- 03&#45;&gt;032 -->
<g id="edge16" class="edge"><title>03&#45;&gt;032</title>
<path fill="none" stroke="#27b34a" stroke-dasharray="1,5" d="M808,-173.799C808,-162.163 808,-146.548 808,-133.237"/>
<polygon fill="#27b34a" stroke="#27b34a" points="811.5,-133.175 808,-123.175 804.5,-133.175 811.5,-133.175"/>
<text text-anchor="middle" x="830" y="-144.8" font-family="Times,serif" font-size="14.00">1 (91.7)</text>
</g>
<!-- 091 -->
<g id="node20" class="node"><title>091</title>
<ellipse fill="#ff86c2" stroke="#b43b77" cx="899" cy="-192" rx="36.2938" ry="18"/>
<text text-anchor="middle" x="899" y="-188.3" font-family="Times,serif" font-size="14.00">091 (d)</text>
</g>
<!-- 021 -->
<g id="node21" class="node"><title>021</title>
<ellipse fill="#ff86c2" stroke="#b43b77" cx="899" cy="-105" rx="36.2938" ry="18"/>
<text text-anchor="middle" x="899" y="-101.3" font-family="Times,serif" font-size="14.00">021 (d)</text>
</g>
<!-- 091&#45;&gt;021 -->
<g id="edge17" class="edge"><title>091&#45;&gt;021</title>
<path fill="none" stroke="#b43b77" stroke-dasharray="1,5" d="M899,-173.799C899,-162.163 899,-146.548 899,-133.237"/>
<polygon fill="#b43b77" stroke="#b43b77" points="902.5,-133.175 899,-123.175 895.5,-133.175 902.5,-133.175"/>
<text text-anchor="middle" x="921" y="-144.8" font-family="Times,serif" font-size="14.00">3 (83.3)</text>
</g>
<!-- 036 -->
<g id="node22" class="node"><title>036</title>
<ellipse fill="#ff86c2" stroke="#b43b77" cx="808" cy="-18" rx="36.2938" ry="18"/>
<text text-anchor="middle" x="808" y="-14.3" font-family="Times,serif" font-size="14.00">036 (d)</text>
</g>
<!-- 021&#45;&gt;036 -->
<g id="edge18" class="edge"><title>021&#45;&gt;036</title>
<path fill="none" stroke="#b43b77" stroke-dasharray="1,5" d="M877.628,-90.006C869.008,-83.9634 859.186,-76.5539 851,-69 842.456,-61.1154 833.924,-51.6186 826.74,-43.0293"/>
<polygon fill="#b43b77" stroke="#b43b77" points="829.344,-40.6853 820.308,-35.1545 823.923,-45.1135 829.344,-40.6853"/>
<text text-anchor="middle" x="873" y="-57.8" font-family="Times,serif" font-size="14.00">1 (97.6)</text>
</g>
<!-- 047 -->
<g id="node23" class="node"><title>047</title>
<ellipse fill="#ff86c2" stroke="#b43b77" cx="899" cy="-18" rx="36.2938" ry="18"/>
<text text-anchor="middle" x="899" y="-14.3" font-family="Times,serif" font-size="14.00">047 (d)</text>
</g>
<!-- 021&#45;&gt;047 -->
<g id="edge19" class="edge"><title>021&#45;&gt;047</title>
<path fill="none" stroke="#b43b77" stroke-dasharray="1,5" d="M899,-86.799C899,-75.1626 899,-59.5479 899,-46.2368"/>
<polygon fill="#b43b77" stroke="#b43b77" points="902.5,-46.1754 899,-36.1754 895.5,-46.1755 902.5,-46.1754"/>
<text text-anchor="middle" x="921" y="-57.8" font-family="Times,serif" font-size="14.00">1 (95.1)</text>
</g>
<!-- P75 -->
<g id="node24" class="node"><title>P75</title>
<ellipse fill="#cea8f4" stroke="#835da9" cx="990" cy="-192" rx="37.0935" ry="18"/>
<text text-anchor="middle" x="990" y="-188.3" font-family="Times,serif" font-size="14.00">P75 (b)</text>
</g>
<!-- 022 -->
<g id="node25" class="node"><title>022</title>
<ellipse fill="#a9c5eb" stroke="#5e7aa0" cx="1081" cy="-192" rx="36.2938" ry="18"/>
<text text-anchor="middle" x="1081" y="-188.3" font-family="Times,serif" font-size="14.00">022 (e)</text>
</g>
<!-- 017 -->
<g id="node26" class="node"><title>017</title>
<ellipse fill="#80b584" stroke="#356a39" cx="1170" cy="-192" rx="35.194" ry="18"/>
<text text-anchor="middle" x="1170" y="-188.3" font-family="Times,serif" font-size="14.00">017 (f)</text>
</g>
<!-- 044 -->
<g id="node27" class="node"><title>044</title>
<ellipse fill="#ea8dfe" stroke="#9f42b3" cx="1259" cy="-192" rx="36.2938" ry="18"/>
<text text-anchor="middle" x="1259" y="-188.3" font-family="Times,serif" font-size="14.00">044 (g)</text>
</g>
<!-- 019 -->
<g id="node28" class="node"><title>019</title>
<ellipse fill="#8c8cff" stroke="#4141b4" cx="1350" cy="-192" rx="36.2938" ry="18"/>
<text text-anchor="middle" x="1350" y="-188.3" font-family="Times,serif" font-size="14.00">019 (h)</text>
</g>
<!-- 0141 -->
<g id="node29" class="node"><title>0141</title>
<ellipse fill="#36f200" stroke="#00a700" cx="1443" cy="-192" rx="38.9931" ry="18"/>
<text text-anchor="middle" x="1443" y="-188.3" font-family="Times,serif" font-size="14.00">0141 (i)</text>
</g>
</g>
</svg>
