<?xml version="1.0" encoding="UTF-8" standalone="no"?>
<!DOCTYPE svg PUBLIC "-//W3C//DTD SVG 1.1//EN"
 "http://www.w3.org/Graphics/SVG/1.1/DTD/svg11.dtd">
<!-- Generated by graphviz version 2.38.0 (20140413.2041)
 -->
<!-- Title: %3 Pages: 1 -->
<svg width="1070pt" height="424pt"
 viewBox="0.00 0.00 1070.00 424.00" xmlns="http://www.w3.org/2000/svg" xmlns:xlink="http://www.w3.org/1999/xlink">
<g id="graph0" class="graph" transform="scale(1 1) rotate(0) translate(4 420)">
<title>%3</title>
<polygon fill="white" stroke="none" points="-4,4 -4,-420 1066,-420 1066,4 -4,4"/>
<g id="clust1" class="cluster"><title>cluster_legend</title>
<path fill="none" stroke="black" d="M20,-280C20,-280 210,-280 210,-280 216,-280 222,-286 222,-292 222,-292 222,-396 222,-396 222,-402 216,-408 210,-408 210,-408 20,-408 20,-408 14,-408 8,-402 8,-396 8,-396 8,-292 8,-292 8,-286 14,-280 20,-280"/>
</g>
<g id="clust2" class="cluster"><title>cluster_reading</title>
<polygon fill="none" stroke="black" points="230,-8 230,-408 1054,-408 1054,-8 230,-8"/>
</g>
<!-- leg_s -->
<g id="node1" class="node"><title>leg_s</title>
<text text-anchor="middle" x="115" y="-378.3" font-family="Times,serif" font-size="14.00">Textual flow strength</text>
</g>
<!-- leg_e1 -->
<!-- leg_s&#45;&gt;leg_e1 -->
<g id="edge1" class="edge"><title>leg_s&#45;&gt;leg_e1</title>
<path fill="none" stroke="black" stroke-dasharray="1,5" d="M96.6657,-363.686C91.1324,-358.194 85.1607,-351.989 80,-346 70.1708,-334.593 60.0722,-320.779 52.9137,-310.563"/>
<polygon fill="black" stroke="black" points="55.6142,-308.314 47.056,-302.068 49.8514,-312.288 55.6142,-308.314"/>
<text text-anchor="middle" x="95.5" y="-334.8" font-family="Times,serif" font-size="14.00">&lt;=5 &#160;</text>
</g>
<!-- leg_e2 -->
<!-- leg_s&#45;&gt;leg_e2 -->
<g id="edge2" class="edge"><title>leg_s&#45;&gt;leg_e2</title>
<path fill="none" stroke="black" stroke-dasharray="5,2" d="M115,-363.799C115,-348.794 115,-327.174 115,-312.409"/>
<polygon fill="black" stroke="black" points="118.5,-312.293 115,-302.293 111.5,-312.293 118.5,-312.293"/>
<text text-anchor="middle" x="134" y="-334.8" font-family="Times,serif" font-size="14.00"> &#160;&lt;=25</text>
</g>
<!-- leg_e3 -->
<!-- leg_s&#45;&gt;leg_e3 -->
<g id="edge3" class="edge"><title>leg_s&#45;&gt;leg_e3</title>
<path fill="none" stroke="black" d="M138.503,-363.76C144.906,-358.462 151.567,-352.344 157,-346 166.087,-335.39 174.095,-321.689 179.546,-311.313"/>
<polygon fill="black" stroke="black" points="182.722,-312.789 184.091,-302.283 176.469,-309.642 182.722,-312.789"/>
<text text-anchor="middle" x="179" y="-334.8" font-family="Times,serif" font-size="14.00">&gt;25</text>
</g>
<!-- 021 -->
<g id="node5" class="node"><title>021</title>
<ellipse fill="#ff8a8a" stroke="#b43f3f" cx="464" cy="-121" rx="36.2938" ry="18"/>
<text text-anchor="middle" x="464" y="-117.3" font-family="Times,serif" font-size="14.00">021 (a)</text>
</g>
<!-- 036 -->
<g id="node6" class="node"><title>036</title>
<ellipse fill="#ff8a8a" stroke="#b43f3f" cx="274" cy="-34" rx="36.2938" ry="18"/>
<text text-anchor="middle" x="274" y="-30.3" font-family="Times,serif" font-size="14.00">036 (a)</text>
</g>
<!-- 021&#45;&gt;036 -->
<g id="edge4" class="edge"><title>021&#45;&gt;036</title>
<path fill="none" stroke="#b43f3f" stroke-dasharray="1,5" d="M435.932,-109.127C430.045,-106.987 423.848,-104.838 418,-103 387.766,-93.4952 377.918,-97.9692 349,-85 331.854,-77.3104 314.292,-65.8339 300.477,-55.8148"/>
<polygon fill="#b43f3f" stroke="#b43f3f" points="302.51,-52.9655 292.396,-49.8117 298.336,-58.5847 302.51,-52.9655"/>
<text text-anchor="middle" x="371" y="-73.8" font-family="Times,serif" font-size="14.00">1 (97.6)</text>
</g>
<!-- 047 -->
<g id="node7" class="node"><title>047</title>
<ellipse fill="#ff8a8a" stroke="#b43f3f" cx="365" cy="-34" rx="36.2938" ry="18"/>
<text text-anchor="middle" x="365" y="-30.3" font-family="Times,serif" font-size="14.00">047 (a)</text>
</g>
<!-- 021&#45;&gt;047 -->
<g id="edge5" class="edge"><title>021&#45;&gt;047</title>
<path fill="none" stroke="#b43f3f" stroke-dasharray="1,5" d="M441.483,-106.836C431.723,-100.706 420.403,-93.0063 411,-85 401.786,-77.1548 392.569,-67.5674 384.832,-58.8941"/>
<polygon fill="#b43f3f" stroke="#b43f3f" points="387.392,-56.504 378.185,-51.262 382.113,-61.1015 387.392,-56.504"/>
<text text-anchor="middle" x="433" y="-73.8" font-family="Times,serif" font-size="14.00">1 (95.1)</text>
</g>
<!-- A -->
<g id="node8" class="node"><title>A</title>
<ellipse fill="#ff8a8a" stroke="#b43f3f" cx="630" cy="-382" rx="29.4969" ry="18"/>
<text text-anchor="middle" x="630" y="-378.3" font-family="Times,serif" font-size="14.00">A (a)</text>
</g>
<!-- 03 -->
<g id="node9" class="node"><title>03</title>
<ellipse fill="#ff8a8a" stroke="#b43f3f" cx="481" cy="-295" rx="31.6951" ry="18"/>
<text text-anchor="middle" x="481" y="-291.3" font-family="Times,serif" font-size="14.00">03 (a)</text>
</g>
<!-- A&#45;&gt;03 -->
<g id="edge6" class="edge"><title>A&#45;&gt;03</title>
<path fill="none" stroke="#b43f3f" stroke-dasharray="1,5" d="M606.56,-370.971C591.782,-364.391 572.451,-355.308 556,-346 539.645,-336.746 522.132,-325.173 508.146,-315.492"/>
<polygon fill="#b43f3f" stroke="#b43f3f" points="510.134,-312.612 499.935,-309.746 506.121,-318.347 510.134,-312.612"/>
<text text-anchor="middle" x="578" y="-334.8" font-family="Times,serif" font-size="14.00">1 (93.3)</text>
</g>
<!-- 019 -->
<g id="node10" class="node"><title>019</title>
<ellipse fill="#ff8a8a" stroke="#b43f3f" cx="591" cy="-295" rx="36.2938" ry="18"/>
<text text-anchor="middle" x="591" y="-291.3" font-family="Times,serif" font-size="14.00">019 (a)</text>
</g>
<!-- A&#45;&gt;019 -->
<g id="edge7" class="edge"><title>A&#45;&gt;019</title>
<path fill="none" stroke="#b43f3f" stroke-dasharray="1,5" d="M620.1,-364.899C616.694,-359.053 612.988,-352.328 610,-346 606.471,-338.527 603.1,-330.206 600.202,-322.531"/>
<polygon fill="#b43f3f" stroke="#b43f3f" points="603.416,-321.128 596.694,-312.939 596.842,-323.533 603.416,-321.128"/>
<text text-anchor="middle" x="632" y="-334.8" font-family="Times,serif" font-size="14.00">1 (93.3)</text>
</g>
<!-- P75 -->
<g id="node11" class="node"><title>P75</title>
<ellipse fill="#ff8a8a" stroke="#b43f3f" cx="682" cy="-295" rx="36.2938" ry="18"/>
<text text-anchor="middle" x="682" y="-291.3" font-family="Times,serif" font-size="14.00">P75 (a)</text>
</g>
<!-- A&#45;&gt;P75 -->
<g id="edge8" class="edge"><title>A&#45;&gt;P75</title>
<path fill="none" stroke="#b43f3f" stroke-dasharray="1,5" d="M641.301,-365.172C645.42,-359.237 650.035,-352.384 654,-346 658.829,-338.225 663.804,-329.58 668.195,-321.696"/>
<polygon fill="#b43f3f" stroke="#b43f3f" points="671.288,-323.336 673.039,-312.887 665.154,-319.963 671.288,-323.336"/>
<text text-anchor="middle" x="685" y="-334.8" font-family="Times,serif" font-size="14.00">1 (93.3)</text>
</g>
<!-- 05 -->
<g id="node12" class="node"><title>05</title>
<ellipse fill="#ff8a8a" stroke="#b43f3f" cx="768" cy="-295" rx="31.6951" ry="18"/>
<text text-anchor="middle" x="768" y="-291.3" font-family="Times,serif" font-size="14.00">05 (a)</text>
</g>
<!-- A&#45;&gt;05 -->
<g id="edge9" class="edge"><title>A&#45;&gt;05</title>
<path fill="none" stroke="#b43f3f" stroke-dasharray="1,5" d="M655.101,-372.48C671.632,-366.319 693.392,-357.137 711,-346 723.29,-338.227 735.587,-327.852 745.596,-318.568"/>
<polygon fill="#b43f3f" stroke="#b43f3f" points="748.265,-320.859 753.09,-311.427 743.436,-315.792 748.265,-320.859"/>
<text text-anchor="middle" x="754" y="-334.8" font-family="Times,serif" font-size="14.00">2 (76.9)</text>
</g>
<!-- 044 -->
<g id="node13" class="node"><title>044</title>
<ellipse fill="#ff8a8a" stroke="#b43f3f" cx="373" cy="-208" rx="36.2938" ry="18"/>
<text text-anchor="middle" x="373" y="-204.3" font-family="Times,serif" font-size="14.00">044 (a)</text>
</g>
<!-- 03&#45;&gt;044 -->
<g id="edge10" class="edge"><title>03&#45;&gt;044</title>
<path fill="none" stroke="#b43f3f" stroke-dasharray="1,5" d="M458.856,-281.966C447.973,-275.667 434.891,-267.506 424,-259 413.721,-250.972 403.279,-241.099 394.543,-232.254"/>
<polygon fill="#b43f3f" stroke="#b43f3f" points="396.819,-229.573 387.352,-224.817 391.787,-234.439 396.819,-229.573"/>
<text text-anchor="middle" x="446" y="-247.8" font-family="Times,serif" font-size="14.00">1 (89.2)</text>
</g>
<!-- 02 -->
<g id="node14" class="node"><title>02</title>
<ellipse fill="#ff8a8a" stroke="#b43f3f" cx="464" cy="-208" rx="31.6951" ry="18"/>
<text text-anchor="middle" x="464" y="-204.3" font-family="Times,serif" font-size="14.00">02 (a)</text>
</g>
<!-- 03&#45;&gt;02 -->
<g id="edge11" class="edge"><title>03&#45;&gt;02</title>
<path fill="none" stroke="#b43f3f" stroke-dasharray="1,5" d="M477.56,-276.799C475.233,-265.163 472.11,-249.548 469.447,-236.237"/>
<polygon fill="#b43f3f" stroke="#b43f3f" points="472.828,-235.295 467.435,-226.175 465.964,-236.668 472.828,-235.295"/>
<text text-anchor="middle" x="496" y="-247.8" font-family="Times,serif" font-size="14.00">1 (86.5)</text>
</g>
<!-- 032 -->
<g id="node15" class="node"><title>032</title>
<ellipse fill="#ff8a8a" stroke="#b43f3f" cx="550" cy="-208" rx="36.2938" ry="18"/>
<text text-anchor="middle" x="550" y="-204.3" font-family="Times,serif" font-size="14.00">032 (a)</text>
</g>
<!-- 03&#45;&gt;032 -->
<g id="edge12" class="edge"><title>03&#45;&gt;032</title>
<path fill="none" stroke="#b43f3f" stroke-dasharray="1,5" d="M499.835,-280.265C507.288,-274.263 515.587,-266.813 522,-259 527.989,-251.704 533.385,-242.949 537.804,-234.817"/>
<polygon fill="#b43f3f" stroke="#b43f3f" points="541.042,-236.175 542.521,-225.684 534.823,-232.963 541.042,-236.175"/>
<text text-anchor="middle" x="554" y="-247.8" font-family="Times,serif" font-size="14.00">1 (91.7)</text>
</g>
<!-- 063 -->
<g id="node16" class="node"><title>063</title>
<ellipse fill="#ff8a8a" stroke="#b43f3f" cx="646" cy="-208" rx="36.2938" ry="18"/>
<text text-anchor="middle" x="646" y="-204.3" font-family="Times,serif" font-size="14.00">063 (a)</text>
</g>
<!-- 019&#45;&gt;063 -->
<g id="edge19" class="edge"><title>019&#45;&gt;063</title>
<path fill="none" stroke="#b43f3f" stroke-dasharray="1,5" d="M601.605,-277.611C609.594,-265.264 620.689,-248.117 629.789,-234.053"/>
<polygon fill="#b43f3f" stroke="#b43f3f" points="632.934,-235.636 635.428,-225.339 627.057,-231.833 632.934,-235.636"/>
<text text-anchor="middle" x="644" y="-247.8" font-family="Times,serif" font-size="14.00">1 (85.7)</text>
</g>
<!-- 0141 -->
<g id="node28" class="node"><title>0141</title>
<ellipse fill="#ff8a8a" stroke="#b43f3f" cx="278" cy="-121" rx="40.0939" ry="18"/>
<text text-anchor="middle" x="278" y="-117.3" font-family="Times,serif" font-size="14.00">0141 (a)</text>
</g>
<!-- 044&#45;&gt;0141 -->
<g id="edge26" class="edge"><title>044&#45;&gt;0141</title>
<path fill="none" stroke="#b43f3f" stroke-dasharray="1,5" d="M352.27,-193.159C343.564,-187.025 333.505,-179.508 325,-172 315.837,-163.911 306.469,-154.276 298.533,-145.632"/>
<polygon fill="#b43f3f" stroke="#b43f3f" points="300.99,-143.129 291.694,-138.045 295.79,-147.816 300.99,-143.129"/>
<text text-anchor="middle" x="347" y="-160.8" font-family="Times,serif" font-size="14.00">1 (89.2)</text>
</g>
<!-- 022 -->
<g id="node29" class="node"><title>022</title>
<ellipse fill="#ff8a8a" stroke="#b43f3f" cx="373" cy="-121" rx="36.2938" ry="18"/>
<text text-anchor="middle" x="373" y="-117.3" font-family="Times,serif" font-size="14.00">022 (a)</text>
</g>
<!-- 044&#45;&gt;022 -->
<g id="edge27" class="edge"><title>044&#45;&gt;022</title>
<path fill="none" stroke="#b43f3f" stroke-dasharray="1,5" d="M373,-189.799C373,-178.163 373,-162.548 373,-149.237"/>
<polygon fill="#b43f3f" stroke="#b43f3f" points="376.5,-149.175 373,-139.175 369.5,-149.175 376.5,-149.175"/>
<text text-anchor="middle" x="395" y="-160.8" font-family="Times,serif" font-size="14.00">1 (91.7)</text>
</g>
<!-- 063&#45;&gt;021 -->
<g id="edge13" class="edge"><title>063&#45;&gt;021</title>
<path fill="none" stroke="#b43f3f" stroke-dasharray="1,5" d="M616.638,-197.097C609.562,-194.742 602.019,-192.259 595,-190 569.307,-181.732 561.295,-183.758 537,-172 520.667,-164.095 503.864,-152.84 490.502,-143.009"/>
<polygon fill="#b43f3f" stroke="#b43f3f" points="492.353,-140.021 482.258,-136.804 488.143,-145.614 492.353,-140.021"/>
<text text-anchor="middle" x="559" y="-160.8" font-family="Times,serif" font-size="14.00">1 (93.1)</text>
</g>
<!-- 011 -->
<g id="node17" class="node"><title>011</title>
<ellipse fill="#ff8a8a" stroke="#b43f3f" cx="555" cy="-121" rx="36.2938" ry="18"/>
<text text-anchor="middle" x="555" y="-117.3" font-family="Times,serif" font-size="14.00">011 (a)</text>
</g>
<!-- 063&#45;&gt;011 -->
<g id="edge14" class="edge"><title>063&#45;&gt;011</title>
<path fill="none" stroke="#b43f3f" stroke-dasharray="1,5" d="M624.628,-193.006C616.008,-186.963 606.186,-179.554 598,-172 589.456,-164.115 580.924,-154.619 573.74,-146.029"/>
<polygon fill="#b43f3f" stroke="#b43f3f" points="576.344,-143.685 567.308,-138.155 570.923,-148.113 576.344,-143.685"/>
<text text-anchor="middle" x="620" y="-160.8" font-family="Times,serif" font-size="14.00">1 (93.1)</text>
</g>
<!-- 031 -->
<g id="node18" class="node"><title>031</title>
<ellipse fill="#ff8a8a" stroke="#b43f3f" cx="646" cy="-121" rx="36.2938" ry="18"/>
<text text-anchor="middle" x="646" y="-117.3" font-family="Times,serif" font-size="14.00">031 (a)</text>
</g>
<!-- 063&#45;&gt;031 -->
<g id="edge15" class="edge"><title>063&#45;&gt;031</title>
<path fill="none" stroke="#b43f3f" stroke-dasharray="1,5" d="M646,-189.799C646,-178.163 646,-162.548 646,-149.237"/>
<polygon fill="#b43f3f" stroke="#b43f3f" points="649.5,-149.175 646,-139.175 642.5,-149.175 649.5,-149.175"/>
<text text-anchor="middle" x="668" y="-160.8" font-family="Times,serif" font-size="14.00">1 (95.8)</text>
</g>
<!-- 07 -->
<g id="node19" class="node"><title>07</title>
<ellipse fill="#ff8a8a" stroke="#b43f3f" cx="732" cy="-121" rx="31.6951" ry="18"/>
<text text-anchor="middle" x="732" y="-117.3" font-family="Times,serif" font-size="14.00">07 (a)</text>
</g>
<!-- 063&#45;&gt;07 -->
<g id="edge16" class="edge"><title>063&#45;&gt;07</title>
<path fill="none" stroke="#b43f3f" stroke-dasharray="1,5" d="M667.604,-193.25C676.26,-187.245 686.046,-179.798 694,-172 701.825,-164.329 709.362,-154.975 715.632,-146.442"/>
<polygon fill="#b43f3f" stroke="#b43f3f" points="718.497,-148.452 721.443,-138.275 712.794,-144.394 718.497,-148.452"/>
<text text-anchor="middle" x="729" y="-160.8" font-family="Times,serif" font-size="14.00">1 (96.6)</text>
</g>
<!-- 045 -->
<g id="node20" class="node"><title>045</title>
<ellipse fill="#ff8a8a" stroke="#b43f3f" cx="818" cy="-121" rx="36.2938" ry="18"/>
<text text-anchor="middle" x="818" y="-117.3" font-family="Times,serif" font-size="14.00">045 (a)</text>
</g>
<!-- 063&#45;&gt;045 -->
<g id="edge17" class="edge"><title>063&#45;&gt;045</title>
<path fill="none" stroke="#b43f3f" stroke-dasharray="1,5" d="M678.708,-199.786C701.025,-194.088 730.81,-184.927 755,-172 769.072,-164.48 783.134,-153.712 794.39,-144.093"/>
<polygon fill="#b43f3f" stroke="#b43f3f" points="796.854,-146.588 802.051,-137.355 792.231,-141.331 796.854,-146.588"/>
<text text-anchor="middle" x="800" y="-160.8" font-family="Times,serif" font-size="14.00">1 (93.1)</text>
</g>
<!-- 028 -->
<g id="node21" class="node"><title>028</title>
<ellipse fill="#ff8a8a" stroke="#b43f3f" cx="909" cy="-121" rx="36.2938" ry="18"/>
<text text-anchor="middle" x="909" y="-117.3" font-family="Times,serif" font-size="14.00">028 (a)</text>
</g>
<!-- 063&#45;&gt;028 -->
<g id="edge18" class="edge"><title>063&#45;&gt;028</title>
<path fill="none" stroke="#b43f3f" stroke-dasharray="1,5" d="M681.514,-203.796C718.568,-199.61 777.863,-190.511 826,-172 845.426,-164.53 865.46,-152.602 880.979,-142.27"/>
<polygon fill="#b43f3f" stroke="#b43f3f" points="883.268,-144.945 889.555,-136.417 879.322,-139.163 883.268,-144.945"/>
<text text-anchor="middle" x="879" y="-160.8" font-family="Times,serif" font-size="14.00">1 (96.6)</text>
</g>
<!-- 017 -->
<g id="node22" class="node"><title>017</title>
<ellipse fill="#ff8a8a" stroke="#b43f3f" cx="456" cy="-34" rx="36.2938" ry="18"/>
<text text-anchor="middle" x="456" y="-30.3" font-family="Times,serif" font-size="14.00">017 (a)</text>
</g>
<!-- 031&#45;&gt;017 -->
<g id="edge20" class="edge"><title>031&#45;&gt;017</title>
<path fill="none" stroke="#b43f3f" stroke-dasharray="1,5" d="M617.857,-109.356C611.975,-107.2 605.799,-104.986 600,-103 574.866,-94.3929 567.325,-95.6809 543,-85 523.216,-76.3129 502.18,-64.3067 485.75,-54.2367"/>
<polygon fill="#b43f3f" stroke="#b43f3f" points="487.473,-51.1864 477.133,-48.8749 483.774,-57.1297 487.473,-51.1864"/>
<text text-anchor="middle" x="565" y="-73.8" font-family="Times,serif" font-size="14.00">1 (94.3)</text>
</g>
<!-- 013 -->
<g id="node23" class="node"><title>013</title>
<ellipse fill="#ff8a8a" stroke="#b43f3f" cx="547" cy="-34" rx="36.2938" ry="18"/>
<text text-anchor="middle" x="547" y="-30.3" font-family="Times,serif" font-size="14.00">013 (a)</text>
</g>
<!-- 031&#45;&gt;013 -->
<g id="edge21" class="edge"><title>031&#45;&gt;013</title>
<path fill="none" stroke="#b43f3f" stroke-dasharray="1,5" d="M628.301,-104.804C612.674,-91.3869 589.715,-71.6744 572.177,-56.6164"/>
<polygon fill="#b43f3f" stroke="#b43f3f" points="574.413,-53.9235 564.546,-50.0647 569.853,-59.2345 574.413,-53.9235"/>
<text text-anchor="middle" x="625" y="-73.8" font-family="Times,serif" font-size="14.00">1 (97.1)</text>
</g>
<!-- 030 -->
<g id="node24" class="node"><title>030</title>
<ellipse fill="#ff8a8a" stroke="#b43f3f" cx="638" cy="-34" rx="36.2938" ry="18"/>
<text text-anchor="middle" x="638" y="-30.3" font-family="Times,serif" font-size="14.00">030 (a)</text>
</g>
<!-- 07&#45;&gt;030 -->
<g id="edge22" class="edge"><title>07&#45;&gt;030</title>
<path fill="none" stroke="#b43f3f" stroke-dasharray="1,5" d="M711.7,-106.969C702.577,-100.749 691.888,-92.9398 683,-85 674.065,-77.0179 665.064,-67.4032 657.485,-58.7465"/>
<polygon fill="#b43f3f" stroke="#b43f3f" points="660.132,-56.4564 650.968,-51.1401 654.816,-61.0111 660.132,-56.4564"/>
<text text-anchor="middle" x="705" y="-73.8" font-family="Times,serif" font-size="14.00">1 (95.1)</text>
</g>
<!-- 034 -->
<g id="node25" class="node"><title>034</title>
<ellipse fill="#ff8a8a" stroke="#b43f3f" cx="729" cy="-34" rx="36.2938" ry="18"/>
<text text-anchor="middle" x="729" y="-30.3" font-family="Times,serif" font-size="14.00">034 (a)</text>
</g>
<!-- 07&#45;&gt;034 -->
<g id="edge23" class="edge"><title>07&#45;&gt;034</title>
<path fill="none" stroke="#b43f3f" stroke-dasharray="1,5" d="M731.393,-102.799C730.982,-91.1626 730.431,-75.5479 729.961,-62.2368"/>
<polygon fill="#b43f3f" stroke="#b43f3f" points="733.457,-62.0457 729.606,-52.1754 726.461,-62.2927 733.457,-62.0457"/>
<text text-anchor="middle" x="753" y="-73.8" font-family="Times,serif" font-size="14.00">1 (95.1)</text>
</g>
<!-- 037 -->
<g id="node26" class="node"><title>037</title>
<ellipse fill="#ff8a8a" stroke="#b43f3f" cx="820" cy="-34" rx="36.2938" ry="18"/>
<text text-anchor="middle" x="820" y="-30.3" font-family="Times,serif" font-size="14.00">037 (a)</text>
</g>
<!-- 07&#45;&gt;037 -->
<g id="edge24" class="edge"><title>07&#45;&gt;037</title>
<path fill="none" stroke="#b43f3f" stroke-dasharray="1,5" d="M752.059,-106.703C760.73,-100.549 770.757,-92.8667 779,-85 787.162,-77.211 795.234,-67.8317 802.029,-59.3112"/>
<polygon fill="#b43f3f" stroke="#b43f3f" points="804.985,-61.2121 808.355,-51.1676 799.456,-56.918 804.985,-61.2121"/>
<text text-anchor="middle" x="814" y="-73.8" font-family="Times,serif" font-size="14.00">1 (97.5)</text>
</g>
<!-- 0211 -->
<g id="node27" class="node"><title>0211</title>
<ellipse fill="#ff8a8a" stroke="#b43f3f" cx="915" cy="-34" rx="40.0939" ry="18"/>
<text text-anchor="middle" x="915" y="-30.3" font-family="Times,serif" font-size="14.00">0211 (a)</text>
</g>
<!-- 07&#45;&gt;0211 -->
<g id="edge25" class="edge"><title>07&#45;&gt;0211</title>
<path fill="none" stroke="#b43f3f" stroke-dasharray="1,5" d="M756.517,-109.224C761.898,-107.031 767.601,-104.836 773,-103 802.192,-93.074 811.912,-97.7199 840,-85 857,-77.3015 874.436,-65.9258 888.213,-55.9693"/>
<polygon fill="#b43f3f" stroke="#b43f3f" points="890.325,-58.7605 896.282,-49.9988 886.162,-53.1334 890.325,-58.7605"/>
<text text-anchor="middle" x="888" y="-73.8" font-family="Times,serif" font-size="14.00">2 (82.9)</text>
</g>
<!-- 038 -->
<g id="node30" class="node"><title>038</title>
<ellipse fill="#ff8a8a" stroke="#b43f3f" cx="1010" cy="-34" rx="36.2938" ry="18"/>
<text text-anchor="middle" x="1010" y="-30.3" font-family="Times,serif" font-size="14.00">038 (a)</text>
</g>
<!-- 045&#45;&gt;038 -->
<g id="edge28" class="edge"><title>045&#45;&gt;038</title>
<path fill="none" stroke="#b43f3f" stroke-dasharray="1,5" d="M846.206,-109.533C852.083,-107.364 858.241,-105.101 864,-103 886.188,-94.9063 892.366,-94.4765 914,-85 935.94,-75.3893 959.832,-62.9534 978.292,-52.8883"/>
<polygon fill="#b43f3f" stroke="#b43f3f" points="980.074,-55.9025 987.148,-48.0149 976.699,-49.7698 980.074,-55.9025"/>
<text text-anchor="middle" x="965" y="-73.8" font-family="Times,serif" font-size="14.00">1 (92.7)</text>
</g>
</g>
</svg>
