<?xml version="1.0" encoding="UTF-8" standalone="no"?>
<!DOCTYPE svg PUBLIC "-//W3C//DTD SVG 1.1//EN"
 "http://www.w3.org/Graphics/SVG/1.1/DTD/svg11.dtd">
<!-- Generated by graphviz version 2.38.0 (20140413.2041)
 -->
<!-- Title: %3 Pages: 1 -->
<svg width="1051pt" height="163pt"
 viewBox="0.00 0.00 1051.00 163.00" xmlns="http://www.w3.org/2000/svg" xmlns:xlink="http://www.w3.org/1999/xlink">
<g id="graph0" class="graph" transform="scale(1 1) rotate(0) translate(4 159)">
<title>%3</title>
<polygon fill="white" stroke="none" points="-4,4 -4,-159 1047,-159 1047,4 -4,4"/>
<g id="clust1" class="cluster"><title>cluster_reading</title>
<polygon fill="none" stroke="black" points="8,-8 8,-147 813,-147 813,-8 8,-8"/>
</g>
<g id="clust2" class="cluster"><title>cluster_legend</title>
<path fill="none" stroke="black" d="M833,-19C833,-19 1023,-19 1023,-19 1029,-19 1035,-25 1035,-31 1035,-31 1035,-135 1035,-135 1035,-141 1029,-147 1023,-147 1023,-147 833,-147 833,-147 827,-147 821,-141 821,-135 821,-135 821,-31 821,-31 821,-25 827,-19 833,-19"/>
</g>
<!-- 021 -->
<g id="node1" class="node"><title>021</title>
<ellipse fill="#ff8a8a" stroke="#b43f3f" cx="761" cy="-121" rx="36.2938" ry="18"/>
<text text-anchor="middle" x="761" y="-117.3" font-family="Times,serif" font-size="14.00">021 (a)</text>
</g>
<!-- 036 -->
<g id="node2" class="node"><title>036</title>
<ellipse fill="#ff8a8a" stroke="#b43f3f" cx="769" cy="-34" rx="36.2938" ry="18"/>
<text text-anchor="middle" x="769" y="-30.3" font-family="Times,serif" font-size="14.00">036 (a)</text>
</g>
<!-- 021&#45;&gt;036 -->
<g id="edge1" class="edge"><title>021&#45;&gt;036</title>
<path fill="none" stroke="#b43f3f" stroke-dasharray="1,5" d="M762.619,-102.799C763.714,-91.1626 765.184,-75.5479 766.437,-62.2368"/>
<polygon fill="#b43f3f" stroke="#b43f3f" points="769.931,-62.4594 767.383,-52.1754 762.962,-61.8034 769.931,-62.4594"/>
<text text-anchor="middle" x="788" y="-73.8" font-family="Times,serif" font-size="14.00">1 (97.6)</text>
</g>
<!-- 031 -->
<g id="node3" class="node"><title>031</title>
<ellipse fill="#ff8a8a" stroke="#b43f3f" cx="587" cy="-121" rx="36.2938" ry="18"/>
<text text-anchor="middle" x="587" y="-117.3" font-family="Times,serif" font-size="14.00">031 (a)</text>
</g>
<!-- 01 -->
<g id="node4" class="node"><title>01</title>
<ellipse fill="#ff8a8a" stroke="#b43f3f" cx="501" cy="-34" rx="31.6951" ry="18"/>
<text text-anchor="middle" x="501" y="-30.3" font-family="Times,serif" font-size="14.00">01 (a)</text>
</g>
<!-- 031&#45;&gt;01 -->
<g id="edge2" class="edge"><title>031&#45;&gt;01</title>
<path fill="none" stroke="#b43f3f" stroke-dasharray="1,5" d="M565.396,-106.25C556.74,-100.245 546.954,-92.7976 539,-85 531.175,-77.3291 523.638,-67.9752 517.368,-59.4419"/>
<polygon fill="#b43f3f" stroke="#b43f3f" points="520.206,-57.3937 511.557,-51.2749 514.503,-61.452 520.206,-57.3937"/>
<text text-anchor="middle" x="561" y="-73.8" font-family="Times,serif" font-size="14.00">2 (48.5)</text>
</g>
<!-- 017 -->
<g id="node5" class="node"><title>017</title>
<ellipse fill="#ff8a8a" stroke="#b43f3f" cx="587" cy="-34" rx="36.2938" ry="18"/>
<text text-anchor="middle" x="587" y="-30.3" font-family="Times,serif" font-size="14.00">017 (a)</text>
</g>
<!-- 031&#45;&gt;017 -->
<g id="edge3" class="edge"><title>031&#45;&gt;017</title>
<path fill="none" stroke="#b43f3f" stroke-dasharray="1,5" d="M587,-102.799C587,-91.1626 587,-75.5479 587,-62.2368"/>
<polygon fill="#b43f3f" stroke="#b43f3f" points="590.5,-62.1754 587,-52.1754 583.5,-62.1755 590.5,-62.1754"/>
<text text-anchor="middle" x="609" y="-73.8" font-family="Times,serif" font-size="14.00">1 (94.3)</text>
</g>
<!-- 013 -->
<g id="node6" class="node"><title>013</title>
<ellipse fill="#ff8a8a" stroke="#b43f3f" cx="678" cy="-34" rx="36.2938" ry="18"/>
<text text-anchor="middle" x="678" y="-30.3" font-family="Times,serif" font-size="14.00">013 (a)</text>
</g>
<!-- 031&#45;&gt;013 -->
<g id="edge4" class="edge"><title>031&#45;&gt;013</title>
<path fill="none" stroke="#b43f3f" stroke-dasharray="1,5" d="M608.372,-106.006C616.992,-99.9634 626.814,-92.5539 635,-85 643.544,-77.1154 652.076,-67.6186 659.26,-59.0293"/>
<polygon fill="#b43f3f" stroke="#b43f3f" points="662.077,-61.1135 665.692,-51.1545 656.656,-56.6853 662.077,-61.1135"/>
<text text-anchor="middle" x="671" y="-73.8" font-family="Times,serif" font-size="14.00">1 (97.1)</text>
</g>
<!-- 07 -->
<g id="node7" class="node"><title>07</title>
<ellipse fill="#ff8a8a" stroke="#b43f3f" cx="419" cy="-121" rx="31.6951" ry="18"/>
<text text-anchor="middle" x="419" y="-117.3" font-family="Times,serif" font-size="14.00">07 (a)</text>
</g>
<!-- 030 -->
<g id="node8" class="node"><title>030</title>
<ellipse fill="#ff8a8a" stroke="#b43f3f" cx="225" cy="-34" rx="36.2938" ry="18"/>
<text text-anchor="middle" x="225" y="-30.3" font-family="Times,serif" font-size="14.00">030 (a)</text>
</g>
<!-- 07&#45;&gt;030 -->
<g id="edge5" class="edge"><title>07&#45;&gt;030</title>
<path fill="none" stroke="#b43f3f" stroke-dasharray="1,5" d="M394.52,-109.113C389.136,-106.927 383.423,-104.763 378,-103 345.399,-92.4023 334.536,-98.4373 303,-85 285.109,-77.3767 266.719,-65.8013 252.292,-55.7073"/>
<polygon fill="#b43f3f" stroke="#b43f3f" points="254.027,-52.6451 243.861,-49.6624 249.948,-58.3339 254.027,-52.6451"/>
<text text-anchor="middle" x="325" y="-73.8" font-family="Times,serif" font-size="14.00">1 (95.1)</text>
</g>
<!-- 034 -->
<g id="node9" class="node"><title>034</title>
<ellipse fill="#ff8a8a" stroke="#b43f3f" cx="316" cy="-34" rx="36.2938" ry="18"/>
<text text-anchor="middle" x="316" y="-30.3" font-family="Times,serif" font-size="14.00">034 (a)</text>
</g>
<!-- 07&#45;&gt;034 -->
<g id="edge6" class="edge"><title>07&#45;&gt;034</title>
<path fill="none" stroke="#b43f3f" stroke-dasharray="1,5" d="M398.133,-107.203C388.378,-100.91 376.784,-92.9763 367,-85 356.891,-76.7587 346.479,-66.8484 337.72,-58.0321"/>
<polygon fill="#b43f3f" stroke="#b43f3f" points="339.987,-55.3448 330.497,-50.6355 334.979,-60.2354 339.987,-55.3448"/>
<text text-anchor="middle" x="389" y="-73.8" font-family="Times,serif" font-size="14.00">1 (95.1)</text>
</g>
<!-- 0211 -->
<g id="node10" class="node"><title>0211</title>
<ellipse fill="#ff8a8a" stroke="#b43f3f" cx="411" cy="-34" rx="40.0939" ry="18"/>
<text text-anchor="middle" x="411" y="-30.3" font-family="Times,serif" font-size="14.00">0211 (a)</text>
</g>
<!-- 07&#45;&gt;0211 -->
<g id="edge7" class="edge"><title>07&#45;&gt;0211</title>
<path fill="none" stroke="#b43f3f" stroke-dasharray="1,5" d="M417.381,-102.799C416.286,-91.1626 414.816,-75.5479 413.563,-62.2368"/>
<polygon fill="#b43f3f" stroke="#b43f3f" points="417.038,-61.8034 412.617,-52.1754 410.069,-62.4594 417.038,-61.8034"/>
<text text-anchor="middle" x="438" y="-73.8" font-family="Times,serif" font-size="14.00">2 (82.9)</text>
</g>
<!-- 045 -->
<g id="node11" class="node"><title>045</title>
<ellipse fill="#ff8a8a" stroke="#b43f3f" cx="333" cy="-121" rx="36.2938" ry="18"/>
<text text-anchor="middle" x="333" y="-117.3" font-family="Times,serif" font-size="14.00">045 (a)</text>
</g>
<!-- 038 -->
<g id="node12" class="node"><title>038</title>
<ellipse fill="#ff8a8a" stroke="#b43f3f" cx="134" cy="-34" rx="36.2938" ry="18"/>
<text text-anchor="middle" x="134" y="-30.3" font-family="Times,serif" font-size="14.00">038 (a)</text>
</g>
<!-- 045&#45;&gt;038 -->
<g id="edge8" class="edge"><title>045&#45;&gt;038</title>
<path fill="none" stroke="#b43f3f" stroke-dasharray="1,5" d="M304.872,-109.312C298.989,-107.159 292.809,-104.958 287,-103 261.02,-94.2446 253.331,-95.486 228,-85 206.33,-76.0293 183.049,-63.6683 165.078,-53.4813"/>
<polygon fill="#b43f3f" stroke="#b43f3f" points="166.615,-50.3281 156.2,-48.3819 163.128,-56.3979 166.615,-50.3281"/>
<text text-anchor="middle" x="250" y="-73.8" font-family="Times,serif" font-size="14.00">1 (92.7)</text>
</g>
<!-- 0141 -->
<g id="node13" class="node"><title>0141</title>
<ellipse fill="#ff8a8a" stroke="#b43f3f" cx="238" cy="-121" rx="40.0939" ry="18"/>
<text text-anchor="middle" x="238" y="-117.3" font-family="Times,serif" font-size="14.00">0141 (a)</text>
</g>
<!-- 05 -->
<g id="node14" class="node"><title>05</title>
<ellipse fill="#ff8a8a" stroke="#b43f3f" cx="48" cy="-34" rx="31.6951" ry="18"/>
<text text-anchor="middle" x="48" y="-30.3" font-family="Times,serif" font-size="14.00">05 (a)</text>
</g>
<!-- 0141&#45;&gt;05 -->
<g id="edge9" class="edge"><title>0141&#45;&gt;05</title>
<path fill="none" stroke="#b43f3f" stroke-dasharray="1,5" d="M207.808,-108.944C201.326,-106.793 194.477,-104.686 188,-103 145.144,-91.8427 128.278,-107.268 90,-85 79.4966,-78.8896 70.4257,-69.1305 63.4291,-59.8494"/>
<polygon fill="#b43f3f" stroke="#b43f3f" points="66.2244,-57.7399 57.6052,-51.5787 60.5009,-61.7701 66.2244,-57.7399"/>
<text text-anchor="middle" x="112" y="-73.8" font-family="Times,serif" font-size="14.00">9 (70.6)</text>
</g>
<!-- 011 -->
<g id="node15" class="node"><title>011</title>
<ellipse fill="#ff8a8a" stroke="#b43f3f" cx="143" cy="-121" rx="36.2938" ry="18"/>
<text text-anchor="middle" x="143" y="-117.3" font-family="Times,serif" font-size="14.00">011 (a)</text>
</g>
<!-- 028 -->
<g id="node16" class="node"><title>028</title>
<ellipse fill="#ff8a8a" stroke="#b43f3f" cx="52" cy="-121" rx="36.2938" ry="18"/>
<text text-anchor="middle" x="52" y="-117.3" font-family="Times,serif" font-size="14.00">028 (a)</text>
</g>
<!-- leg_s -->
<g id="node17" class="node"><title>leg_s</title>
<text text-anchor="middle" x="928" y="-117.3" font-family="Times,serif" font-size="14.00">Textual flow strength</text>
</g>
<!-- leg_e1 -->
<!-- leg_s&#45;&gt;leg_e1 -->
<g id="edge10" class="edge"><title>leg_s&#45;&gt;leg_e1</title>
<path fill="none" stroke="black" stroke-dasharray="1,5" d="M909.666,-102.686C904.132,-97.1938 898.161,-90.9891 893,-85 883.171,-73.593 873.072,-59.7786 865.914,-49.5634"/>
<polygon fill="black" stroke="black" points="868.614,-47.3142 860.056,-41.0685 862.851,-51.2879 868.614,-47.3142"/>
<text text-anchor="middle" x="908.5" y="-73.8" font-family="Times,serif" font-size="14.00">&lt;=5 &#160;</text>
</g>
<!-- leg_e2 -->
<!-- leg_s&#45;&gt;leg_e2 -->
<g id="edge11" class="edge"><title>leg_s&#45;&gt;leg_e2</title>
<path fill="none" stroke="black" stroke-dasharray="5,2" d="M928,-102.799C928,-87.7942 928,-66.1745 928,-51.4086"/>
<polygon fill="black" stroke="black" points="931.5,-51.2934 928,-41.2934 924.5,-51.2934 931.5,-51.2934"/>
<text text-anchor="middle" x="947" y="-73.8" font-family="Times,serif" font-size="14.00"> &#160;&lt;=25</text>
</g>
<!-- leg_e3 -->
<!-- leg_s&#45;&gt;leg_e3 -->
<g id="edge12" class="edge"><title>leg_s&#45;&gt;leg_e3</title>
<path fill="none" stroke="black" d="M951.503,-102.76C957.906,-97.4621 964.567,-91.3439 970,-85 979.087,-74.3897 987.095,-60.6892 992.546,-50.3134"/>
<polygon fill="black" stroke="black" points="995.722,-51.7893 997.091,-41.2833 989.469,-48.6425 995.722,-51.7893"/>
<text text-anchor="middle" x="991" y="-73.8" font-family="Times,serif" font-size="14.00">&gt;25</text>
</g>
</g>
</svg>
