<?xml version="1.0" encoding="UTF-8" standalone="no"?>
<!DOCTYPE svg PUBLIC "-//W3C//DTD SVG 1.1//EN"
 "http://www.w3.org/Graphics/SVG/1.1/DTD/svg11.dtd">
<!-- Generated by graphviz version 2.38.0 (20140413.2041)
 -->
<!-- Title: %3 Pages: 1 -->
<svg width="1008pt" height="321pt"
 viewBox="0.00 0.00 1008.40 321.00" xmlns="http://www.w3.org/2000/svg" xmlns:xlink="http://www.w3.org/1999/xlink">
<g id="graph0" class="graph" transform="scale(1 1) rotate(0) translate(4 317)">
<title>%3</title>
<polygon fill="white" stroke="none" points="-4,4 -4,-317 1004.4,-317 1004.4,4 -4,4"/>
<g id="clust1" class="cluster"><title>cluster_legend</title>
<path fill="none" stroke="black" d="M20,-177C20,-177 210,-177 210,-177 216,-177 222,-183 222,-189 222,-189 222,-293 222,-293 222,-299 216,-305 210,-305 210,-305 20,-305 20,-305 14,-305 8,-299 8,-293 8,-293 8,-189 8,-189 8,-183 14,-177 20,-177"/>
</g>
<!-- leg_s -->
<g id="node1" class="node"><title>leg_s</title>
<text text-anchor="middle" x="115" y="-275.3" font-family="Times,serif" font-size="14.00">Textual flow strength</text>
</g>
<!-- leg_e1 -->
<!-- leg_s&#45;&gt;leg_e1 -->
<g id="edge1" class="edge"><title>leg_s&#45;&gt;leg_e1</title>
<path fill="none" stroke="black" stroke-dasharray="1,5" d="M96.6657,-260.686C91.1324,-255.194 85.1607,-248.989 80,-243 70.1708,-231.593 60.0722,-217.779 52.9137,-207.563"/>
<polygon fill="black" stroke="black" points="55.6142,-205.314 47.056,-199.068 49.8514,-209.288 55.6142,-205.314"/>
<text text-anchor="middle" x="95.5" y="-231.8" font-family="Times,serif" font-size="14.00">&lt;=5 &#160;</text>
</g>
<!-- leg_e2 -->
<!-- leg_s&#45;&gt;leg_e2 -->
<g id="edge2" class="edge"><title>leg_s&#45;&gt;leg_e2</title>
<path fill="none" stroke="black" stroke-dasharray="5,2" d="M115,-260.799C115,-245.794 115,-224.174 115,-209.409"/>
<polygon fill="black" stroke="black" points="118.5,-209.293 115,-199.293 111.5,-209.293 118.5,-209.293"/>
<text text-anchor="middle" x="134" y="-231.8" font-family="Times,serif" font-size="14.00"> &#160;&lt;=25</text>
</g>
<!-- leg_e3 -->
<!-- leg_s&#45;&gt;leg_e3 -->
<g id="edge3" class="edge"><title>leg_s&#45;&gt;leg_e3</title>
<path fill="none" stroke="black" d="M138.503,-260.76C144.906,-255.462 151.567,-249.344 157,-243 166.087,-232.39 174.095,-218.689 179.546,-208.313"/>
<polygon fill="black" stroke="black" points="182.722,-209.789 184.091,-199.283 176.469,-206.642 182.722,-209.789"/>
<text text-anchor="middle" x="179" y="-231.8" font-family="Times,serif" font-size="14.00">&gt;25</text>
</g>
<!-- 044 -->
<g id="node5" class="node"><title>044</title>
<ellipse fill="#ff8a8a" stroke="#b43f3f" cx="268" cy="-192" rx="36.2938" ry="18"/>
<text text-anchor="middle" x="268" y="-188.3" font-family="Times,serif" font-size="14.00">044 (a)</text>
</g>
<!-- 022 -->
<g id="node6" class="node"><title>022</title>
<ellipse fill="#ff8a8a" stroke="#b43f3f" cx="221" cy="-105" rx="36.2938" ry="18"/>
<text text-anchor="middle" x="221" y="-101.3" font-family="Times,serif" font-size="14.00">022 (a)</text>
</g>
<!-- 044&#45;&gt;022 -->
<g id="edge4" class="edge"><title>044&#45;&gt;022</title>
<path fill="none" stroke="#b43f3f" stroke-dasharray="1,5" d="M258.714,-174.207C251.976,-162.021 242.74,-145.318 235.095,-131.491"/>
<polygon fill="#b43f3f" stroke="#b43f3f" points="238.008,-129.527 230.106,-122.469 231.883,-132.914 238.008,-129.527"/>
<text text-anchor="middle" x="270" y="-144.8" font-family="Times,serif" font-size="14.00">1 (91.7)</text>
</g>
<!-- 0141 -->
<g id="node7" class="node"><title>0141</title>
<ellipse fill="#ff8a8a" stroke="#b43f3f" cx="316" cy="-105" rx="40.0939" ry="18"/>
<text text-anchor="middle" x="316" y="-101.3" font-family="Times,serif" font-size="14.00">0141 (a)</text>
</g>
<!-- 044&#45;&gt;0141 -->
<g id="edge5" class="edge"><title>044&#45;&gt;0141</title>
<path fill="none" stroke="#b43f3f" stroke-dasharray="1,5" d="M280.959,-175.139C285.395,-169.316 290.195,-162.544 294,-156 298.291,-148.622 302.284,-140.251 305.658,-132.498"/>
<polygon fill="#b43f3f" stroke="#b43f3f" points="308.947,-133.706 309.577,-123.13 302.489,-131.004 308.947,-133.706"/>
<text text-anchor="middle" x="324" y="-144.8" font-family="Times,serif" font-size="14.00">1 (89.2)</text>
</g>
<!-- 03 -->
<g id="node8" class="node"><title>03</title>
<ellipse fill="#ff8a8a" stroke="#b43f3f" cx="354" cy="-279" rx="31.6951" ry="18"/>
<text text-anchor="middle" x="354" y="-275.3" font-family="Times,serif" font-size="14.00">03 (a)</text>
</g>
<!-- 03&#45;&gt;044 -->
<g id="edge6" class="edge"><title>03&#45;&gt;044</title>
<path fill="none" stroke="#b43f3f" stroke-dasharray="1,5" d="M333.353,-264.912C324.467,-258.796 314.248,-251.086 306,-243 298.175,-235.329 290.638,-225.975 284.368,-217.442"/>
<polygon fill="#b43f3f" stroke="#b43f3f" points="287.206,-215.394 278.557,-209.275 281.503,-219.452 287.206,-215.394"/>
<text text-anchor="middle" x="328" y="-231.8" font-family="Times,serif" font-size="14.00">1 (89.2)</text>
</g>
<!-- 02 -->
<g id="node9" class="node"><title>02</title>
<ellipse fill="#ff8a8a" stroke="#b43f3f" cx="354" cy="-192" rx="31.6951" ry="18"/>
<text text-anchor="middle" x="354" y="-188.3" font-family="Times,serif" font-size="14.00">02 (a)</text>
</g>
<!-- 03&#45;&gt;02 -->
<g id="edge7" class="edge"><title>03&#45;&gt;02</title>
<path fill="none" stroke="#b43f3f" stroke-dasharray="1,5" d="M354,-260.799C354,-249.163 354,-233.548 354,-220.237"/>
<polygon fill="#b43f3f" stroke="#b43f3f" points="357.5,-220.175 354,-210.175 350.5,-220.175 357.5,-220.175"/>
<text text-anchor="middle" x="376" y="-231.8" font-family="Times,serif" font-size="14.00">1 (86.5)</text>
</g>
<!-- 032 -->
<g id="node10" class="node"><title>032</title>
<ellipse fill="#ff8a8a" stroke="#b43f3f" cx="440" cy="-192" rx="36.2938" ry="18"/>
<text text-anchor="middle" x="440" y="-188.3" font-family="Times,serif" font-size="14.00">032 (a)</text>
</g>
<!-- 03&#45;&gt;032 -->
<g id="edge8" class="edge"><title>03&#45;&gt;032</title>
<path fill="none" stroke="#b43f3f" stroke-dasharray="1,5" d="M374.647,-264.912C383.533,-258.796 393.752,-251.086 402,-243 409.825,-235.329 417.362,-225.975 423.632,-217.442"/>
<polygon fill="#b43f3f" stroke="#b43f3f" points="426.497,-219.452 429.443,-209.275 420.794,-215.394 426.497,-219.452"/>
<text text-anchor="middle" x="437" y="-231.8" font-family="Times,serif" font-size="14.00">1 (91.7)</text>
</g>
<!-- 063 -->
<g id="node11" class="node"><title>063</title>
<ellipse fill="#ff8a8a" stroke="#b43f3f" cx="642" cy="-192" rx="36.2938" ry="18"/>
<text text-anchor="middle" x="642" y="-188.3" font-family="Times,serif" font-size="14.00">063 (a)</text>
</g>
<!-- 031 -->
<g id="node12" class="node"><title>031</title>
<ellipse fill="#ff8a8a" stroke="#b43f3f" cx="411" cy="-105" rx="36.2938" ry="18"/>
<text text-anchor="middle" x="411" y="-101.3" font-family="Times,serif" font-size="14.00">031 (a)</text>
</g>
<!-- 063&#45;&gt;031 -->
<g id="edge9" class="edge"><title>063&#45;&gt;031</title>
<path fill="none" stroke="#b43f3f" stroke-dasharray="1,5" d="M607.366,-186.186C576.318,-181.115 529.948,-171.649 492,-156 473.226,-148.258 453.812,-136.428 438.699,-126.218"/>
<polygon fill="#b43f3f" stroke="#b43f3f" points="440.551,-123.244 430.334,-120.438 436.571,-129.002 440.551,-123.244"/>
<text text-anchor="middle" x="514" y="-144.8" font-family="Times,serif" font-size="14.00">1 (95.8)</text>
</g>
<!-- 011 -->
<g id="node13" class="node"><title>011</title>
<ellipse fill="#ff8a8a" stroke="#b43f3f" cx="508" cy="-105" rx="36.2938" ry="18"/>
<text text-anchor="middle" x="508" y="-101.3" font-family="Times,serif" font-size="14.00">011 (a)</text>
</g>
<!-- 063&#45;&gt;011 -->
<g id="edge10" class="edge"><title>063&#45;&gt;011</title>
<path fill="none" stroke="#b43f3f" stroke-dasharray="1,5" d="M611.805,-181.924C594.858,-176.03 573.807,-167.328 557,-156 546.243,-148.75 535.938,-138.854 527.578,-129.778"/>
<polygon fill="#b43f3f" stroke="#b43f3f" points="530.023,-127.261 520.77,-122.101 524.786,-131.905 530.023,-127.261"/>
<text text-anchor="middle" x="579" y="-144.8" font-family="Times,serif" font-size="14.00">1 (93.1)</text>
</g>
<!-- 07 -->
<g id="node14" class="node"><title>07</title>
<ellipse fill="#ff8a8a" stroke="#b43f3f" cx="594" cy="-105" rx="31.6951" ry="18"/>
<text text-anchor="middle" x="594" y="-101.3" font-family="Times,serif" font-size="14.00">07 (a)</text>
</g>
<!-- 063&#45;&gt;07 -->
<g id="edge11" class="edge"><title>063&#45;&gt;07</title>
<path fill="none" stroke="#b43f3f" stroke-dasharray="1,5" d="M626.641,-175.555C621.484,-169.77 616.026,-162.917 612,-156 607.805,-148.792 604.328,-140.441 601.586,-132.652"/>
<polygon fill="#b43f3f" stroke="#b43f3f" points="604.828,-131.306 598.405,-122.881 598.172,-133.473 604.828,-131.306"/>
<text text-anchor="middle" x="634" y="-144.8" font-family="Times,serif" font-size="14.00">1 (96.6)</text>
</g>
<!-- 045 -->
<g id="node15" class="node"><title>045</title>
<ellipse fill="#ff8a8a" stroke="#b43f3f" cx="682" cy="-105" rx="36.2938" ry="18"/>
<text text-anchor="middle" x="682" y="-101.3" font-family="Times,serif" font-size="14.00">045 (a)</text>
</g>
<!-- 063&#45;&gt;045 -->
<g id="edge12" class="edge"><title>063&#45;&gt;045</title>
<path fill="none" stroke="#b43f3f" stroke-dasharray="1,5" d="M649.903,-174.207C655.546,-162.216 663.247,-145.851 669.691,-132.157"/>
<polygon fill="#b43f3f" stroke="#b43f3f" points="673.023,-133.297 674.114,-122.758 666.689,-130.316 673.023,-133.297"/>
<text text-anchor="middle" x="687" y="-144.8" font-family="Times,serif" font-size="14.00">1 (93.1)</text>
</g>
<!-- 021 -->
<g id="node16" class="node"><title>021</title>
<ellipse fill="#ff8a8a" stroke="#b43f3f" cx="774" cy="-105" rx="36.2938" ry="18"/>
<text text-anchor="middle" x="774" y="-101.3" font-family="Times,serif" font-size="14.00">021 (a)</text>
</g>
<!-- 063&#45;&gt;021 -->
<g id="edge13" class="edge"><title>063&#45;&gt;021</title>
<path fill="none" stroke="#b43f3f" stroke-dasharray="1,5" d="M668.747,-179.579C682.395,-173.317 699.021,-165.006 713,-156 725.842,-147.727 739.076,-137.168 749.921,-127.888"/>
<polygon fill="#b43f3f" stroke="#b43f3f" points="752.469,-130.311 757.703,-121.1 747.867,-125.036 752.469,-130.311"/>
<text text-anchor="middle" x="755" y="-144.8" font-family="Times,serif" font-size="14.00">1 (93.1)</text>
</g>
<!-- 028 -->
<g id="node17" class="node"><title>028</title>
<ellipse fill="#ff8a8a" stroke="#b43f3f" cx="865" cy="-105" rx="36.2938" ry="18"/>
<text text-anchor="middle" x="865" y="-101.3" font-family="Times,serif" font-size="14.00">028 (a)</text>
</g>
<!-- 063&#45;&gt;028 -->
<g id="edge14" class="edge"><title>063&#45;&gt;028</title>
<path fill="none" stroke="#b43f3f" stroke-dasharray="1,5" d="M669.491,-180.012C675.529,-177.832 681.932,-175.696 688,-174 728.546,-162.665 741.659,-170.99 781,-156 800.621,-148.524 820.896,-136.596 836.61,-126.265"/>
<polygon fill="#b43f3f" stroke="#b43f3f" points="838.958,-128.903 845.296,-120.413 835.047,-123.098 838.958,-128.903"/>
<text text-anchor="middle" x="835" y="-144.8" font-family="Times,serif" font-size="14.00">1 (96.6)</text>
</g>
<!-- 017 -->
<g id="node18" class="node"><title>017</title>
<ellipse fill="#ff8a8a" stroke="#b43f3f" cx="320" cy="-18" rx="36.2938" ry="18"/>
<text text-anchor="middle" x="320" y="-14.3" font-family="Times,serif" font-size="14.00">017 (a)</text>
</g>
<!-- 031&#45;&gt;017 -->
<g id="edge15" class="edge"><title>031&#45;&gt;017</title>
<path fill="none" stroke="#b43f3f" stroke-dasharray="1,5" d="M389.628,-90.006C381.008,-83.9634 371.186,-76.5539 363,-69 354.456,-61.1154 345.924,-51.6186 338.74,-43.0293"/>
<polygon fill="#b43f3f" stroke="#b43f3f" points="341.344,-40.6853 332.308,-35.1545 335.923,-45.1135 341.344,-40.6853"/>
<text text-anchor="middle" x="385" y="-57.8" font-family="Times,serif" font-size="14.00">1 (94.3)</text>
</g>
<!-- 013 -->
<g id="node19" class="node"><title>013</title>
<ellipse fill="#cea8f4" stroke="#835da9" cx="411" cy="-18" rx="36.2938" ry="18"/>
<text text-anchor="middle" x="411" y="-14.3" font-family="Times,serif" font-size="14.00">013 (b)</text>
</g>
<!-- 031&#45;&gt;013 -->
<g id="edge16" class="edge"><title>031&#45;&gt;013</title>
<path fill="none" stroke="#835da9" stroke-dasharray="1,5" d="M411,-86.799C411,-75.1626 411,-59.5479 411,-46.2368"/>
<polygon fill="#835da9" stroke="#835da9" points="414.5,-46.1754 411,-36.1754 407.5,-46.1755 414.5,-46.1754"/>
<text text-anchor="middle" x="433" y="-57.8" font-family="Times,serif" font-size="14.00">1 (97.1)</text>
</g>
<!-- 037 -->
<g id="node24" class="node"><title>037</title>
<ellipse fill="#ff8a8a" stroke="#b43f3f" cx="502" cy="-18" rx="36.2938" ry="18"/>
<text text-anchor="middle" x="502" y="-14.3" font-family="Times,serif" font-size="14.00">037 (a)</text>
</g>
<!-- 07&#45;&gt;037 -->
<g id="edge20" class="edge"><title>07&#45;&gt;037</title>
<path fill="none" stroke="#b43f3f" stroke-dasharray="1,5" d="M573.623,-90.6257C564.787,-84.4576 554.533,-76.7852 546,-69 537.326,-61.0861 528.61,-51.5834 521.25,-42.9974"/>
<polygon fill="#b43f3f" stroke="#b43f3f" points="523.761,-40.5445 514.655,-35.1283 518.396,-45.0408 523.761,-40.5445"/>
<text text-anchor="middle" x="568" y="-57.8" font-family="Times,serif" font-size="14.00">1 (97.5)</text>
</g>
<!-- 034 -->
<g id="node25" class="node"><title>034</title>
<ellipse fill="#ff8a8a" stroke="#b43f3f" cx="593" cy="-18" rx="36.2938" ry="18"/>
<text text-anchor="middle" x="593" y="-14.3" font-family="Times,serif" font-size="14.00">034 (a)</text>
</g>
<!-- 07&#45;&gt;034 -->
<g id="edge21" class="edge"><title>07&#45;&gt;034</title>
<path fill="none" stroke="#b43f3f" stroke-dasharray="1,5" d="M593.798,-86.799C593.661,-75.1626 593.477,-59.5479 593.32,-46.2368"/>
<polygon fill="#b43f3f" stroke="#b43f3f" points="596.82,-46.1335 593.202,-36.1754 589.82,-46.216 596.82,-46.1335"/>
<text text-anchor="middle" x="616" y="-57.8" font-family="Times,serif" font-size="14.00">1 (95.1)</text>
</g>
<!-- 038 -->
<g id="node26" class="node"><title>038</title>
<ellipse fill="#ff8a8a" stroke="#b43f3f" cx="684" cy="-18" rx="36.2938" ry="18"/>
<text text-anchor="middle" x="684" y="-14.3" font-family="Times,serif" font-size="14.00">038 (a)</text>
</g>
<!-- 045&#45;&gt;038 -->
<g id="edge22" class="edge"><title>045&#45;&gt;038</title>
<path fill="none" stroke="#b43f3f" stroke-dasharray="1,5" d="M682.405,-86.799C682.679,-75.1626 683.046,-59.5479 683.359,-46.2368"/>
<polygon fill="#b43f3f" stroke="#b43f3f" points="686.86,-46.255 683.596,-36.1754 679.862,-46.0903 686.86,-46.255"/>
<text text-anchor="middle" x="706" y="-57.8" font-family="Times,serif" font-size="14.00">1 (92.7)</text>
</g>
<!-- 036 -->
<g id="node27" class="node"><title>036</title>
<ellipse fill="#ff8a8a" stroke="#b43f3f" cx="775" cy="-18" rx="36.2938" ry="18"/>
<text text-anchor="middle" x="775" y="-14.3" font-family="Times,serif" font-size="14.00">036 (a)</text>
</g>
<!-- 021&#45;&gt;036 -->
<g id="edge23" class="edge"><title>021&#45;&gt;036</title>
<path fill="none" stroke="#b43f3f" stroke-dasharray="1,5" d="M774.202,-86.799C774.339,-75.1626 774.523,-59.5479 774.68,-46.2368"/>
<polygon fill="#b43f3f" stroke="#b43f3f" points="778.18,-46.216 774.798,-36.1754 771.18,-46.1335 778.18,-46.216"/>
<text text-anchor="middle" x="797" y="-57.8" font-family="Times,serif" font-size="14.00">1 (97.6)</text>
</g>
<!-- 047 -->
<g id="node28" class="node"><title>047</title>
<ellipse fill="#ff8a8a" stroke="#b43f3f" cx="866" cy="-18" rx="36.2938" ry="18"/>
<text text-anchor="middle" x="866" y="-14.3" font-family="Times,serif" font-size="14.00">047 (a)</text>
</g>
<!-- 021&#45;&gt;047 -->
<g id="edge24" class="edge"><title>021&#45;&gt;047</title>
<path fill="none" stroke="#b43f3f" stroke-dasharray="1,5" d="M795.35,-90.4023C804.27,-84.3103 814.511,-76.7574 823,-69 831.583,-61.1573 840.122,-51.6692 847.302,-43.0751"/>
<polygon fill="#b43f3f" stroke="#b43f3f" points="850.122,-45.155 853.727,-35.1922 844.696,-40.7326 850.122,-45.155"/>
<text text-anchor="middle" x="860" y="-57.8" font-family="Times,serif" font-size="14.00">1 (95.1)</text>
</g>
<!-- 019 -->
<g id="node20" class="node"><title>019</title>
<ellipse fill="#ff8a8a" stroke="#b43f3f" cx="642" cy="-279" rx="36.2938" ry="18"/>
<text text-anchor="middle" x="642" y="-275.3" font-family="Times,serif" font-size="14.00">019 (a)</text>
</g>
<!-- 019&#45;&gt;063 -->
<g id="edge17" class="edge"><title>019&#45;&gt;063</title>
<path fill="none" stroke="#b43f3f" stroke-dasharray="1,5" d="M642,-260.799C642,-249.163 642,-233.548 642,-220.237"/>
<polygon fill="#b43f3f" stroke="#b43f3f" points="645.5,-220.175 642,-210.175 638.5,-220.175 645.5,-220.175"/>
<text text-anchor="middle" x="664" y="-231.8" font-family="Times,serif" font-size="14.00">1 (85.7)</text>
</g>
<!-- 091 -->
<g id="node21" class="node"><title>091</title>
<ellipse fill="#ff8a8a" stroke="#b43f3f" cx="782" cy="-279" rx="36.2938" ry="18"/>
<text text-anchor="middle" x="782" y="-275.3" font-family="Times,serif" font-size="14.00">091 (a)</text>
</g>
<!-- 0211 -->
<g id="node22" class="node"><title>0211</title>
<ellipse fill="#ff8a8a" stroke="#b43f3f" cx="737" cy="-192" rx="40.0939" ry="18"/>
<text text-anchor="middle" x="737" y="-188.3" font-family="Times,serif" font-size="14.00">0211 (a)</text>
</g>
<!-- 091&#45;&gt;0211 -->
<g id="edge18" class="edge"><title>091&#45;&gt;0211</title>
<path fill="none" stroke="#b43f3f" stroke-dasharray="1,5" d="M771.639,-261.448C768.142,-255.676 764.293,-249.114 761,-243 756.846,-235.285 752.612,-226.737 748.881,-218.923"/>
<polygon fill="#b43f3f" stroke="#b43f3f" points="752.042,-217.42 744.617,-209.861 745.708,-220.4 752.042,-217.42"/>
<text text-anchor="middle" x="783" y="-231.8" font-family="Times,serif" font-size="14.00">1 (83.3)</text>
</g>
<!-- 05 -->
<g id="node23" class="node"><title>05</title>
<ellipse fill="#ff8a8a" stroke="#b43f3f" cx="827" cy="-192" rx="31.6951" ry="18"/>
<text text-anchor="middle" x="827" y="-188.3" font-family="Times,serif" font-size="14.00">05 (a)</text>
</g>
<!-- 091&#45;&gt;05 -->
<g id="edge19" class="edge"><title>091&#45;&gt;05</title>
<path fill="none" stroke="#b43f3f" stroke-dasharray="1,5" d="M793.58,-261.614C797.429,-255.857 801.597,-249.26 805,-243 809.077,-235.501 813.006,-227.095 816.388,-219.347"/>
<polygon fill="#b43f3f" stroke="#b43f3f" points="819.669,-220.574 820.348,-210.001 813.224,-217.843 819.669,-220.574"/>
<text text-anchor="middle" x="835" y="-231.8" font-family="Times,serif" font-size="14.00">1 (87.5)</text>
</g>
<!-- P75 -->
<g id="node29" class="node"><title>P75</title>
<ellipse fill="#ff8a8a" stroke="#b43f3f" cx="873" cy="-279" rx="36.2938" ry="18"/>
<text text-anchor="middle" x="873" y="-275.3" font-family="Times,serif" font-size="14.00">P75 (a)</text>
</g>
<!-- 030 -->
<g id="node30" class="node"><title>030</title>
<ellipse fill="#72fe95" stroke="#27b34a" cx="964" cy="-279" rx="36.2938" ry="18"/>
<text text-anchor="middle" x="964" y="-275.3" font-family="Times,serif" font-size="14.00">030 (c)</text>
</g>
</g>
</svg>
