<?xml version="1.0" encoding="UTF-8" standalone="no"?>
<!DOCTYPE svg PUBLIC "-//W3C//DTD SVG 1.1//EN"
 "http://www.w3.org/Graphics/SVG/1.1/DTD/svg11.dtd">
<!-- Generated by graphviz version 2.38.0 (20140413.2041)
 -->
<!-- Title: G Pages: 1 -->
<svg width="957pt" height="392pt"
 viewBox="0.00 0.00 956.79 392.00" xmlns="http://www.w3.org/2000/svg" xmlns:xlink="http://www.w3.org/1999/xlink">
<g id="graph0" class="graph" transform="scale(1 1) rotate(0) translate(4 388)">
<title>G</title>
<polygon fill="white" stroke="none" points="-4,4 -4,-388 952.794,-388 952.794,4 -4,4"/>
<!-- 021 (b) -->
<g id="node1" class="node"><title>021 (b)</title>
<ellipse fill="#cea8f4" stroke="#835da9" cx="267.397" cy="-105" rx="36.2938" ry="18"/>
<text text-anchor="middle" x="267.397" y="-101.3" font-family="Times,serif" font-size="14.00">021 (b)</text>
</g>
<!-- 047 (b) -->
<g id="node19" class="node"><title>047 (b)</title>
<ellipse fill="#cea8f4" stroke="#835da9" cx="176.397" cy="-18" rx="36.2938" ry="18"/>
<text text-anchor="middle" x="176.397" y="-14.3" font-family="Times,serif" font-size="14.00">047 (b)</text>
</g>
<!-- 021 (b)&#45;&gt;047 (b) -->
<g id="edge2" class="edge"><title>021 (b)&#45;&gt;047 (b)</title>
<path fill="none" stroke="#835da9" d="M246.025,-90.006C237.404,-83.9634 227.582,-76.5539 219.397,-69 210.853,-61.1154 202.321,-51.6186 195.136,-43.0293"/>
<polygon fill="#835da9" stroke="#835da9" points="197.741,-40.6853 188.704,-35.1545 192.32,-45.1135 197.741,-40.6853"/>
<text text-anchor="middle" x="241.397" y="-57.8" font-family="Times,serif" font-size="14.00">1 (95.1)</text>
</g>
<!-- 036 (b) -->
<g id="node23" class="node"><title>036 (b)</title>
<ellipse fill="#cea8f4" stroke="#835da9" cx="267.397" cy="-18" rx="36.2938" ry="18"/>
<text text-anchor="middle" x="267.397" y="-14.3" font-family="Times,serif" font-size="14.00">036 (b)</text>
</g>
<!-- 021 (b)&#45;&gt;036 (b) -->
<g id="edge1" class="edge"><title>021 (b)&#45;&gt;036 (b)</title>
<path fill="none" stroke="#835da9" d="M267.397,-86.799C267.397,-75.1626 267.397,-59.5479 267.397,-46.2368"/>
<polygon fill="#835da9" stroke="#835da9" points="270.897,-46.1754 267.397,-36.1754 263.897,-46.1755 270.897,-46.1754"/>
<text text-anchor="middle" x="289.397" y="-57.8" font-family="Times,serif" font-size="14.00">1 (97.6)</text>
</g>
<!-- 07 (b) -->
<g id="node2" class="node"><title>07 (b)</title>
<ellipse fill="#cea8f4" stroke="#835da9" cx="544.397" cy="-105" rx="32.4942" ry="18"/>
<text text-anchor="middle" x="544.397" y="-101.3" font-family="Times,serif" font-size="14.00">07 (b)</text>
</g>
<!-- 017 (b) -->
<g id="node4" class="node"><title>017 (b)</title>
<ellipse fill="#cea8f4" stroke="#835da9" cx="358.397" cy="-18" rx="36.2938" ry="18"/>
<text text-anchor="middle" x="358.397" y="-14.3" font-family="Times,serif" font-size="14.00">017 (b)</text>
</g>
<!-- 07 (b)&#45;&gt;017 (b) -->
<g id="edge7" class="edge"><title>07 (b)&#45;&gt;017 (b)</title>
<path fill="none" stroke="#835da9" d="M514.792,-97.1048C491.922,-91.205 459.82,-81.6575 433.397,-69 416.45,-60.882 398.9,-49.3789 385.041,-39.4524"/>
<polygon fill="#835da9" stroke="#835da9" points="387.066,-36.597 376.928,-33.5199 382.934,-42.2476 387.066,-36.597"/>
<text text-anchor="middle" x="455.397" y="-57.8" font-family="Times,serif" font-size="14.00">2 (92.7)</text>
</g>
<!-- 037 (b) -->
<g id="node5" class="node"><title>037 (b)</title>
<ellipse fill="#cea8f4" stroke="#835da9" cx="449.397" cy="-18" rx="36.2938" ry="18"/>
<text text-anchor="middle" x="449.397" y="-14.3" font-family="Times,serif" font-size="14.00">037 (b)</text>
</g>
<!-- 07 (b)&#45;&gt;037 (b) -->
<g id="edge3" class="edge"><title>07 (b)&#45;&gt;037 (b)</title>
<path fill="none" stroke="#835da9" d="M524.14,-90.4918C515.327,-84.2989 505.057,-76.6441 496.397,-69 487.233,-60.9115 477.866,-51.2757 469.93,-42.6319"/>
<polygon fill="#835da9" stroke="#835da9" points="472.386,-40.1295 463.091,-35.0454 467.187,-44.8165 472.386,-40.1295"/>
<text text-anchor="middle" x="518.397" y="-57.8" font-family="Times,serif" font-size="14.00">1 (97.5)</text>
</g>
<!-- 0211 (b) -->
<g id="node12" class="node"><title>0211 (b)</title>
<ellipse fill="#cea8f4" stroke="#835da9" cx="544.397" cy="-18" rx="40.8928" ry="18"/>
<text text-anchor="middle" x="544.397" y="-14.3" font-family="Times,serif" font-size="14.00">0211 (b)</text>
</g>
<!-- 07 (b)&#45;&gt;0211 (b) -->
<g id="edge4" class="edge"><title>07 (b)&#45;&gt;0211 (b)</title>
<path fill="none" stroke="#835da9" d="M544.397,-86.799C544.397,-75.1626 544.397,-59.5479 544.397,-46.2368"/>
<polygon fill="#835da9" stroke="#835da9" points="547.897,-46.1754 544.397,-36.1754 540.897,-46.1755 547.897,-46.1754"/>
<text text-anchor="middle" x="566.397" y="-57.8" font-family="Times,serif" font-size="14.00">2 (82.9)</text>
</g>
<!-- 030 (b) -->
<g id="node13" class="node"><title>030 (b)</title>
<ellipse fill="#cea8f4" stroke="#835da9" cx="639.397" cy="-18" rx="36.2938" ry="18"/>
<text text-anchor="middle" x="639.397" y="-14.3" font-family="Times,serif" font-size="14.00">030 (b)</text>
</g>
<!-- 07 (b)&#45;&gt;030 (b) -->
<g id="edge6" class="edge"><title>07 (b)&#45;&gt;030 (b)</title>
<path fill="none" stroke="#835da9" d="M564.653,-90.4918C573.467,-84.2989 583.737,-76.6441 592.397,-69 601.56,-60.9115 610.927,-51.2757 618.863,-42.6319"/>
<polygon fill="#835da9" stroke="#835da9" points="621.606,-44.8165 625.702,-35.0454 616.407,-40.1295 621.606,-44.8165"/>
<text text-anchor="middle" x="629.397" y="-57.8" font-family="Times,serif" font-size="14.00">1 (95.1)</text>
</g>
<!-- 013 (b) -->
<g id="node21" class="node"><title>013 (b)</title>
<ellipse fill="#cea8f4" stroke="#835da9" cx="730.397" cy="-18" rx="36.2938" ry="18"/>
<text text-anchor="middle" x="730.397" y="-14.3" font-family="Times,serif" font-size="14.00">013 (b)</text>
</g>
<!-- 07 (b)&#45;&gt;013 (b) -->
<g id="edge8" class="edge"><title>07 (b)&#45;&gt;013 (b)</title>
<path fill="none" stroke="#835da9" d="M569.519,-93.2158C575.03,-91.0233 580.871,-88.8305 586.397,-87 616.482,-77.0337 626.479,-81.9692 655.397,-69 672.543,-61.3104 690.105,-49.8339 703.92,-39.8148"/>
<polygon fill="#835da9" stroke="#835da9" points="706.061,-42.5847 712.001,-33.8117 701.886,-36.9655 706.061,-42.5847"/>
<text text-anchor="middle" x="703.397" y="-57.8" font-family="Times,serif" font-size="14.00">2 (95.1)</text>
</g>
<!-- 034 (b) -->
<g id="node25" class="node"><title>034 (b)</title>
<ellipse fill="#cea8f4" stroke="#835da9" cx="821.397" cy="-18" rx="36.2938" ry="18"/>
<text text-anchor="middle" x="821.397" y="-14.3" font-family="Times,serif" font-size="14.00">034 (b)</text>
</g>
<!-- 07 (b)&#45;&gt;034 (b) -->
<g id="edge5" class="edge"><title>07 (b)&#45;&gt;034 (b)</title>
<path fill="none" stroke="#835da9" d="M568.909,-92.8411C574.56,-90.6182 580.612,-88.5075 586.397,-87 648.384,-70.8475 668.423,-88.6338 729.397,-69 751.647,-61.8354 774.756,-49.2535 792.248,-38.504"/>
<polygon fill="#835da9" stroke="#835da9" points="794.251,-41.3784 800.848,-33.0881 790.521,-35.455 794.251,-41.3784"/>
<text text-anchor="middle" x="785.397" y="-57.8" font-family="Times,serif" font-size="14.00">1 (95.1)</text>
</g>
<!-- 045 (b) -->
<g id="node3" class="node"><title>045 (b)</title>
<ellipse fill="#cea8f4" stroke="#835da9" cx="631.397" cy="-105" rx="36.2938" ry="18"/>
<text text-anchor="middle" x="631.397" y="-101.3" font-family="Times,serif" font-size="14.00">045 (b)</text>
</g>
<!-- 038 (b) -->
<g id="node11" class="node"><title>038 (b)</title>
<ellipse fill="#cea8f4" stroke="#835da9" cx="912.397" cy="-18" rx="36.2938" ry="18"/>
<text text-anchor="middle" x="912.397" y="-14.3" font-family="Times,serif" font-size="14.00">038 (b)</text>
</g>
<!-- 045 (b)&#45;&gt;038 (b) -->
<g id="edge9" class="edge"><title>045 (b)&#45;&gt;038 (b)</title>
<path fill="none" stroke="#835da9" d="M658.817,-92.7459C664.86,-90.5826 671.283,-88.5206 677.397,-87 735.711,-72.4968 753.93,-86.5629 811.397,-69 836.111,-61.4468 862.209,-48.3777 881.684,-37.4952"/>
<polygon fill="#835da9" stroke="#835da9" points="883.455,-40.5147 890.407,-32.5198 879.986,-34.4343 883.455,-40.5147"/>
<text text-anchor="middle" x="870.397" y="-57.8" font-family="Times,serif" font-size="14.00">1 (92.7)</text>
</g>
<!-- 03 (a) -->
<g id="node6" class="node"><title>03 (a)</title>
<ellipse fill="#ff8a8a" stroke="#b43f3f" cx="131.397" cy="-279" rx="31.6951" ry="18"/>
<text text-anchor="middle" x="131.397" y="-275.3" font-family="Times,serif" font-size="14.00">03 (a)</text>
</g>
<!-- 032 (b) -->
<g id="node14" class="node"><title>032 (b)</title>
<ellipse fill="#cea8f4" stroke="#835da9" cx="40.3968" cy="-192" rx="36.2938" ry="18"/>
<text text-anchor="middle" x="40.3968" y="-188.3" font-family="Times,serif" font-size="14.00">032 (b)</text>
</g>
<!-- 03 (a)&#45;&gt;032 (b) -->
<g id="edge10" class="edge"><title>03 (a)&#45;&gt;032 (b)</title>
<path fill="none" stroke="#835da9" d="M110.978,-264.672C102.134,-258.512 91.8856,-250.834 83.3968,-243 74.8527,-235.115 66.3211,-225.619 59.1364,-217.029"/>
<polygon fill="#835da9" stroke="#835da9" points="61.741,-214.685 52.7043,-209.155 56.3196,-219.113 61.741,-214.685"/>
<text text-anchor="middle" x="105.397" y="-231.8" font-family="Times,serif" font-size="14.00">1 (91.7)</text>
</g>
<!-- 044 (b) -->
<g id="node15" class="node"><title>044 (b)</title>
<ellipse fill="#cea8f4" stroke="#835da9" cx="131.397" cy="-192" rx="36.2938" ry="18"/>
<text text-anchor="middle" x="131.397" y="-188.3" font-family="Times,serif" font-size="14.00">044 (b)</text>
</g>
<!-- 03 (a)&#45;&gt;044 (b) -->
<g id="edge11" class="edge"><title>03 (a)&#45;&gt;044 (b)</title>
<path fill="none" stroke="#835da9" d="M131.397,-260.799C131.397,-249.163 131.397,-233.548 131.397,-220.237"/>
<polygon fill="#835da9" stroke="#835da9" points="134.897,-220.175 131.397,-210.175 127.897,-220.175 134.897,-220.175"/>
<text text-anchor="middle" x="153.397" y="-231.8" font-family="Times,serif" font-size="14.00">1 (89.2)</text>
</g>
<!-- P75 (a) -->
<g id="node7" class="node"><title>P75 (a)</title>
<ellipse fill="#ff8a8a" stroke="#b43f3f" cx="392.397" cy="-279" rx="36.2938" ry="18"/>
<text text-anchor="middle" x="392.397" y="-275.3" font-family="Times,serif" font-size="14.00">P75 (a)</text>
</g>
<!-- 022 (b) -->
<g id="node8" class="node"><title>022 (b)</title>
<ellipse fill="#cea8f4" stroke="#835da9" cx="36.3968" cy="-105" rx="36.2938" ry="18"/>
<text text-anchor="middle" x="36.3968" y="-101.3" font-family="Times,serif" font-size="14.00">022 (b)</text>
</g>
<!-- A (a) -->
<g id="node9" class="node"><title>A (a)</title>
<ellipse fill="#ff8a8a" stroke="#b43f3f" cx="431.397" cy="-366" rx="29.4969" ry="18"/>
<text text-anchor="middle" x="431.397" y="-362.3" font-family="Times,serif" font-size="14.00">A (a)</text>
</g>
<!-- A (a)&#45;&gt;03 (a) -->
<g id="edge12" class="edge"><title>A (a)&#45;&gt;03 (a)</title>
<path fill="none" stroke="#b43f3f" d="M405.299,-357.606C352.094,-342.531 230.913,-308.196 169.131,-290.691"/>
<polygon fill="#b43f3f" stroke="#b43f3f" points="169.962,-287.289 159.386,-287.93 168.053,-294.024 169.962,-287.289"/>
<text text-anchor="middle" x="321.397" y="-318.8" font-family="Times,serif" font-size="14.00">1 (93.3)</text>
</g>
<!-- A (a)&#45;&gt;P75 (a) -->
<g id="edge13" class="edge"><title>A (a)&#45;&gt;P75 (a)</title>
<path fill="none" stroke="#b43f3f" d="M418.111,-349.801C413.537,-343.934 408.732,-336.964 405.397,-330 401.988,-322.881 399.386,-314.749 397.44,-307.14"/>
<polygon fill="#b43f3f" stroke="#b43f3f" points="400.816,-306.204 395.178,-297.234 393.992,-307.763 400.816,-306.204"/>
<text text-anchor="middle" x="427.397" y="-318.8" font-family="Times,serif" font-size="14.00">1 (93.3)</text>
</g>
<!-- 019 (a) -->
<g id="node10" class="node"><title>019 (a)</title>
<ellipse fill="#ff8a8a" stroke="#b43f3f" cx="483.397" cy="-279" rx="36.2938" ry="18"/>
<text text-anchor="middle" x="483.397" y="-275.3" font-family="Times,serif" font-size="14.00">019 (a)</text>
</g>
<!-- A (a)&#45;&gt;019 (a) -->
<g id="edge14" class="edge"><title>A (a)&#45;&gt;019 (a)</title>
<path fill="none" stroke="#b43f3f" d="M441.178,-349.012C448.707,-336.704 459.259,-319.456 467.929,-305.283"/>
<polygon fill="#b43f3f" stroke="#b43f3f" points="471.072,-306.853 473.305,-296.496 465.101,-303.2 471.072,-306.853"/>
<text text-anchor="middle" x="483.397" y="-318.8" font-family="Times,serif" font-size="14.00">1 (93.3)</text>
</g>
<!-- 091 (a) -->
<g id="node18" class="node"><title>091 (a)</title>
<ellipse fill="#ff8a8a" stroke="#b43f3f" cx="574.397" cy="-279" rx="36.2938" ry="18"/>
<text text-anchor="middle" x="574.397" y="-275.3" font-family="Times,serif" font-size="14.00">091 (a)</text>
</g>
<!-- A (a)&#45;&gt;091 (a) -->
<g id="edge15" class="edge"><title>A (a)&#45;&gt;091 (a)</title>
<path fill="none" stroke="#b43f3f" d="M455.674,-355.824C471.447,-349.451 492.198,-340.28 509.397,-330 523.262,-321.712 537.605,-310.949 549.279,-301.533"/>
<polygon fill="#b43f3f" stroke="#b43f3f" points="551.761,-304.024 557.262,-294.969 547.315,-298.617 551.761,-304.024"/>
<text text-anchor="middle" x="552.397" y="-318.8" font-family="Times,serif" font-size="14.00">1 (87.5)</text>
</g>
<!-- 063 (b) -->
<g id="node20" class="node"><title>063 (b)</title>
<ellipse fill="#cea8f4" stroke="#835da9" cx="588.397" cy="-192" rx="36.2938" ry="18"/>
<text text-anchor="middle" x="588.397" y="-188.3" font-family="Times,serif" font-size="14.00">063 (b)</text>
</g>
<!-- 019 (a)&#45;&gt;063 (b) -->
<g id="edge16" class="edge"><title>019 (a)&#45;&gt;063 (b)</title>
<path fill="none" stroke="#835da9" d="M501.686,-263.194C518.474,-249.604 543.528,-229.322 562.394,-214.05"/>
<polygon fill="#835da9" stroke="#835da9" points="564.746,-216.649 570.317,-207.636 560.342,-211.208 564.746,-216.649"/>
<text text-anchor="middle" x="564.397" y="-231.8" font-family="Times,serif" font-size="14.00">1 (85.7)</text>
</g>
<!-- 044 (b)&#45;&gt;022 (b) -->
<g id="edge17" class="edge"><title>044 (b)&#45;&gt;022 (b)</title>
<path fill="none" stroke="#835da9" d="M110.667,-177.159C101.96,-171.025 91.902,-163.508 83.3968,-156 74.2334,-147.911 64.8661,-138.276 56.93,-129.632"/>
<polygon fill="#835da9" stroke="#835da9" points="59.3864,-127.129 50.0911,-122.045 54.1871,-131.816 59.3864,-127.129"/>
<text text-anchor="middle" x="105.397" y="-144.8" font-family="Times,serif" font-size="14.00">1 (91.7)</text>
</g>
<!-- 0141 (b) -->
<g id="node22" class="node"><title>0141 (b)</title>
<ellipse fill="#cea8f4" stroke="#835da9" cx="131.397" cy="-105" rx="40.8928" ry="18"/>
<text text-anchor="middle" x="131.397" y="-101.3" font-family="Times,serif" font-size="14.00">0141 (b)</text>
</g>
<!-- 044 (b)&#45;&gt;0141 (b) -->
<g id="edge18" class="edge"><title>044 (b)&#45;&gt;0141 (b)</title>
<path fill="none" stroke="#835da9" d="M131.397,-173.799C131.397,-162.163 131.397,-146.548 131.397,-133.237"/>
<polygon fill="#835da9" stroke="#835da9" points="134.897,-133.175 131.397,-123.175 127.897,-133.175 134.897,-133.175"/>
<text text-anchor="middle" x="153.397" y="-144.8" font-family="Times,serif" font-size="14.00">1 (89.2)</text>
</g>
<!-- 011 (b) -->
<g id="node16" class="node"><title>011 (b)</title>
<ellipse fill="#cea8f4" stroke="#835da9" cx="722.397" cy="-105" rx="36.2938" ry="18"/>
<text text-anchor="middle" x="722.397" y="-101.3" font-family="Times,serif" font-size="14.00">011 (b)</text>
</g>
<!-- 028 (b) -->
<g id="node17" class="node"><title>028 (b)</title>
<ellipse fill="#cea8f4" stroke="#835da9" cx="813.397" cy="-105" rx="36.2938" ry="18"/>
<text text-anchor="middle" x="813.397" y="-101.3" font-family="Times,serif" font-size="14.00">028 (b)</text>
</g>
<!-- 063 (b)&#45;&gt;021 (b) -->
<g id="edge22" class="edge"><title>063 (b)&#45;&gt;021 (b)</title>
<path fill="none" stroke="#835da9" d="M557.033,-182.695C498.782,-167.27 373.909,-134.204 308.804,-116.964"/>
<polygon fill="#835da9" stroke="#835da9" points="309.45,-113.515 298.887,-114.339 307.658,-120.282 309.45,-113.515"/>
<text text-anchor="middle" x="469.397" y="-144.8" font-family="Times,serif" font-size="14.00">1 (93.1)</text>
</g>
<!-- 063 (b)&#45;&gt;07 (b) -->
<g id="edge19" class="edge"><title>063 (b)&#45;&gt;07 (b)</title>
<path fill="none" stroke="#835da9" d="M572.756,-175.712C567.572,-169.943 562.169,-163.058 558.397,-156 554.658,-149.004 551.835,-140.909 549.74,-133.298"/>
<polygon fill="#835da9" stroke="#835da9" points="553.088,-132.253 547.318,-123.368 546.288,-133.912 553.088,-132.253"/>
<text text-anchor="middle" x="580.397" y="-144.8" font-family="Times,serif" font-size="14.00">1 (96.6)</text>
</g>
<!-- 063 (b)&#45;&gt;045 (b) -->
<g id="edge23" class="edge"><title>063 (b)&#45;&gt;045 (b)</title>
<path fill="none" stroke="#835da9" d="M596.892,-174.207C603.017,-162.099 611.398,-145.533 618.366,-131.759"/>
<polygon fill="#835da9" stroke="#835da9" points="621.528,-133.262 622.919,-122.758 615.282,-130.102 621.528,-133.262"/>
<text text-anchor="middle" x="634.397" y="-144.8" font-family="Times,serif" font-size="14.00">1 (93.1)</text>
</g>
<!-- 063 (b)&#45;&gt;011 (b) -->
<g id="edge20" class="edge"><title>063 (b)&#45;&gt;011 (b)</title>
<path fill="none" stroke="#835da9" d="M615.159,-179.739C629.058,-173.462 646.081,-165.087 660.397,-156 673.549,-147.652 687.132,-136.968 698.22,-127.621"/>
<polygon fill="#835da9" stroke="#835da9" points="700.504,-130.274 705.811,-121.104 695.944,-124.963 700.504,-130.274"/>
<text text-anchor="middle" x="701.397" y="-144.8" font-family="Times,serif" font-size="14.00">1 (93.1)</text>
</g>
<!-- 063 (b)&#45;&gt;028 (b) -->
<g id="edge21" class="edge"><title>063 (b)&#45;&gt;028 (b)</title>
<path fill="none" stroke="#835da9" d="M622.373,-185.207C651.045,-179.673 692.825,-170.076 727.397,-156 747.371,-147.867 768.322,-135.772 784.544,-125.515"/>
<polygon fill="#835da9" stroke="#835da9" points="786.524,-128.402 793.033,-120.042 782.732,-122.518 786.524,-128.402"/>
<text text-anchor="middle" x="778.397" y="-144.8" font-family="Times,serif" font-size="14.00">1 (96.6)</text>
</g>
<!-- 02 (b) -->
<g id="node24" class="node"><title>02 (b)</title>
<ellipse fill="#cea8f4" stroke="#835da9" cx="89.3968" cy="-18" rx="32.4942" ry="18"/>
<text text-anchor="middle" x="89.3968" y="-14.3" font-family="Times,serif" font-size="14.00">02 (b)</text>
</g>
<!-- 0141 (b)&#45;&gt;02 (b) -->
<g id="edge24" class="edge"><title>0141 (b)&#45;&gt;02 (b)</title>
<path fill="none" stroke="#835da9" d="M120.86,-87.5392C117.349,-81.7755 113.536,-75.1946 110.397,-69 106.567,-61.4415 102.834,-53.0177 99.6037,-45.2713"/>
<polygon fill="#835da9" stroke="#835da9" points="102.818,-43.8845 95.8112,-35.9376 96.3331,-46.5196 102.818,-43.8845"/>
<text text-anchor="middle" x="132.397" y="-57.8" font-family="Times,serif" font-size="14.00">1 (86.5)</text>
</g>
</g>
</svg>
