<?xml version="1.0" encoding="UTF-8" standalone="no"?>
<!DOCTYPE svg PUBLIC "-//W3C//DTD SVG 1.1//EN"
 "http://www.w3.org/Graphics/SVG/1.1/DTD/svg11.dtd">
<!-- Generated by graphviz version 2.38.0 (20140413.2041)
 -->
<!-- Title: %3 Pages: 1 -->
<svg width="1479pt" height="408pt"
 viewBox="0.00 0.00 1479.05 408.00" xmlns="http://www.w3.org/2000/svg" xmlns:xlink="http://www.w3.org/1999/xlink">
<g id="graph0" class="graph" transform="scale(1 1) rotate(0) translate(4 404)">
<title>%3</title>
<polygon fill="white" stroke="none" points="-4,4 -4,-404 1475.05,-404 1475.05,4 -4,4"/>
<g id="clust1" class="cluster"><title>cluster_legend</title>
<path fill="none" stroke="black" d="M20,-264C20,-264 210,-264 210,-264 216,-264 222,-270 222,-276 222,-276 222,-380 222,-380 222,-386 216,-392 210,-392 210,-392 20,-392 20,-392 14,-392 8,-386 8,-380 8,-380 8,-276 8,-276 8,-270 14,-264 20,-264"/>
</g>
<!-- leg_s -->
<g id="node1" class="node"><title>leg_s</title>
<text text-anchor="middle" x="115" y="-362.3" font-family="Times,serif" font-size="14.00">Textual flow strength</text>
</g>
<!-- leg_e1 -->
<!-- leg_s&#45;&gt;leg_e1 -->
<g id="edge1" class="edge"><title>leg_s&#45;&gt;leg_e1</title>
<path fill="none" stroke="black" stroke-dasharray="1,5" d="M96.6657,-347.686C91.1324,-342.194 85.1607,-335.989 80,-330 70.1708,-318.593 60.0722,-304.779 52.9137,-294.563"/>
<polygon fill="black" stroke="black" points="55.6142,-292.314 47.056,-286.068 49.8514,-296.288 55.6142,-292.314"/>
<text text-anchor="middle" x="95.5" y="-318.8" font-family="Times,serif" font-size="14.00">&lt;=5 &#160;</text>
</g>
<!-- leg_e2 -->
<!-- leg_s&#45;&gt;leg_e2 -->
<g id="edge2" class="edge"><title>leg_s&#45;&gt;leg_e2</title>
<path fill="none" stroke="black" stroke-dasharray="5,2" d="M115,-347.799C115,-332.794 115,-311.174 115,-296.409"/>
<polygon fill="black" stroke="black" points="118.5,-296.293 115,-286.293 111.5,-296.293 118.5,-296.293"/>
<text text-anchor="middle" x="134" y="-318.8" font-family="Times,serif" font-size="14.00"> &#160;&lt;=25</text>
</g>
<!-- leg_e3 -->
<!-- leg_s&#45;&gt;leg_e3 -->
<g id="edge3" class="edge"><title>leg_s&#45;&gt;leg_e3</title>
<path fill="none" stroke="black" d="M138.503,-347.76C144.906,-342.462 151.567,-336.344 157,-330 166.087,-319.39 174.095,-305.689 179.546,-295.313"/>
<polygon fill="black" stroke="black" points="182.722,-296.789 184.091,-286.283 176.469,-293.642 182.722,-296.789"/>
<text text-anchor="middle" x="179" y="-318.8" font-family="Times,serif" font-size="14.00">&gt;25</text>
</g>
<!-- 063 -->
<g id="node5" class="node"><title>063</title>
<ellipse fill="#ff8a8a" stroke="#b43f3f" cx="493" cy="-366" rx="36.2938" ry="18"/>
<text text-anchor="middle" x="493" y="-362.3" font-family="Times,serif" font-size="14.00">063 (a)</text>
</g>
<!-- 045 -->
<g id="node6" class="node"><title>045</title>
<ellipse fill="#ff8a8a" stroke="#b43f3f" cx="268" cy="-279" rx="36.2938" ry="18"/>
<text text-anchor="middle" x="268" y="-275.3" font-family="Times,serif" font-size="14.00">045 (a)</text>
</g>
<!-- 063&#45;&gt;045 -->
<g id="edge4" class="edge"><title>063&#45;&gt;045</title>
<path fill="none" stroke="#b43f3f" stroke-dasharray="1,5" d="M462.487,-355.919C440.716,-349.245 410.838,-339.685 385,-330 357.128,-319.553 326.182,-306.25 303.119,-295.993"/>
<polygon fill="#b43f3f" stroke="#b43f3f" points="304.308,-292.691 293.75,-291.801 301.449,-299.08 304.308,-292.691"/>
<text text-anchor="middle" x="407" y="-318.8" font-family="Times,serif" font-size="14.00">1 (93.1)</text>
</g>
<!-- 011 -->
<g id="node7" class="node"><title>011</title>
<ellipse fill="#ff8a8a" stroke="#b43f3f" cx="407" cy="-279" rx="36.2938" ry="18"/>
<text text-anchor="middle" x="407" y="-275.3" font-family="Times,serif" font-size="14.00">011 (a)</text>
</g>
<!-- 063&#45;&gt;011 -->
<g id="edge5" class="edge"><title>063&#45;&gt;011</title>
<path fill="none" stroke="#b43f3f" stroke-dasharray="1,5" d="M471.396,-351.25C462.74,-345.245 452.954,-337.798 445,-330 437.175,-322.329 429.638,-312.975 423.368,-304.442"/>
<polygon fill="#b43f3f" stroke="#b43f3f" points="426.206,-302.394 417.557,-296.275 420.503,-306.452 426.206,-302.394"/>
<text text-anchor="middle" x="467" y="-318.8" font-family="Times,serif" font-size="14.00">1 (93.1)</text>
</g>
<!-- 07 -->
<g id="node8" class="node"><title>07</title>
<ellipse fill="#ff8a8a" stroke="#b43f3f" cx="493" cy="-279" rx="31.6951" ry="18"/>
<text text-anchor="middle" x="493" y="-275.3" font-family="Times,serif" font-size="14.00">07 (a)</text>
</g>
<!-- 063&#45;&gt;07 -->
<g id="edge6" class="edge"><title>063&#45;&gt;07</title>
<path fill="none" stroke="#b43f3f" stroke-dasharray="1,5" d="M493,-347.799C493,-336.163 493,-320.548 493,-307.237"/>
<polygon fill="#b43f3f" stroke="#b43f3f" points="496.5,-307.175 493,-297.175 489.5,-307.175 496.5,-307.175"/>
<text text-anchor="middle" x="515" y="-318.8" font-family="Times,serif" font-size="14.00">1 (96.6)</text>
</g>
<!-- 028 -->
<g id="node9" class="node"><title>028</title>
<ellipse fill="#ff8a8a" stroke="#b43f3f" cx="579" cy="-279" rx="36.2938" ry="18"/>
<text text-anchor="middle" x="579" y="-275.3" font-family="Times,serif" font-size="14.00">028 (a)</text>
</g>
<!-- 063&#45;&gt;028 -->
<g id="edge7" class="edge"><title>063&#45;&gt;028</title>
<path fill="none" stroke="#b43f3f" stroke-dasharray="1,5" d="M514.604,-351.25C523.26,-345.245 533.046,-337.798 541,-330 548.825,-322.329 556.362,-312.975 562.632,-304.442"/>
<polygon fill="#b43f3f" stroke="#b43f3f" points="565.497,-306.452 568.443,-296.275 559.794,-302.394 565.497,-306.452"/>
<text text-anchor="middle" x="576" y="-318.8" font-family="Times,serif" font-size="14.00">1 (96.6)</text>
</g>
<!-- 021 -->
<g id="node10" class="node"><title>021</title>
<ellipse fill="#ff8a8a" stroke="#b43f3f" cx="699" cy="-279" rx="36.2938" ry="18"/>
<text text-anchor="middle" x="699" y="-275.3" font-family="Times,serif" font-size="14.00">021 (a)</text>
</g>
<!-- 063&#45;&gt;021 -->
<g id="edge8" class="edge"><title>063&#45;&gt;021</title>
<path fill="none" stroke="#b43f3f" stroke-dasharray="1,5" d="M524.028,-356.523C546.11,-350.132 576.299,-340.664 602,-330 624.305,-320.745 648.446,-308.31 667.065,-298.157"/>
<polygon fill="#b43f3f" stroke="#b43f3f" points="668.927,-301.127 675.994,-293.233 665.547,-294.997 668.927,-301.127"/>
<text text-anchor="middle" x="657" y="-318.8" font-family="Times,serif" font-size="14.00">1 (93.1)</text>
</g>
<!-- 038 -->
<g id="node11" class="node"><title>038</title>
<ellipse fill="#ff8a8a" stroke="#b43f3f" cx="244" cy="-192" rx="36.2938" ry="18"/>
<text text-anchor="middle" x="244" y="-188.3" font-family="Times,serif" font-size="14.00">038 (a)</text>
</g>
<!-- 045&#45;&gt;038 -->
<g id="edge9" class="edge"><title>045&#45;&gt;038</title>
<path fill="none" stroke="#b43f3f" stroke-dasharray="1,5" d="M263.143,-260.799C259.803,-248.97 255.303,-233.03 251.504,-219.578"/>
<polygon fill="#b43f3f" stroke="#b43f3f" points="254.853,-218.558 248.768,-209.885 248.117,-220.46 254.853,-218.558"/>
<text text-anchor="middle" x="280" y="-231.8" font-family="Times,serif" font-size="14.00">1 (92.7)</text>
</g>
<!-- 034 -->
<g id="node12" class="node"><title>034</title>
<ellipse fill="#ff8a8a" stroke="#b43f3f" cx="335" cy="-192" rx="36.2938" ry="18"/>
<text text-anchor="middle" x="335" y="-188.3" font-family="Times,serif" font-size="14.00">034 (a)</text>
</g>
<!-- 07&#45;&gt;034 -->
<g id="edge10" class="edge"><title>07&#45;&gt;034</title>
<path fill="none" stroke="#b43f3f" stroke-dasharray="1,5" d="M468.397,-267.465C463.021,-265.257 457.342,-262.995 452,-261 428.3,-252.15 420.246,-255.046 398,-243 383.97,-235.402 369.913,-224.626 358.648,-215.022"/>
<polygon fill="#b43f3f" stroke="#b43f3f" points="360.806,-212.259 350.98,-208.298 356.191,-217.522 360.806,-212.259"/>
<text text-anchor="middle" x="420" y="-231.8" font-family="Times,serif" font-size="14.00">1 (95.1)</text>
</g>
<!-- 013 -->
<g id="node13" class="node"><title>013</title>
<ellipse fill="#ff8a8a" stroke="#b43f3f" cx="426" cy="-192" rx="36.2938" ry="18"/>
<text text-anchor="middle" x="426" y="-188.3" font-family="Times,serif" font-size="14.00">013 (a)</text>
</g>
<!-- 07&#45;&gt;013 -->
<g id="edge11" class="edge"><title>07&#45;&gt;013</title>
<path fill="none" stroke="#b43f3f" stroke-dasharray="1,5" d="M475.823,-263.559C469.223,-257.563 461.87,-250.307 456,-243 450.012,-235.546 444.358,-226.786 439.608,-218.698"/>
<polygon fill="#b43f3f" stroke="#b43f3f" points="442.632,-216.935 434.659,-209.958 436.541,-220.384 442.632,-216.935"/>
<text text-anchor="middle" x="478" y="-231.8" font-family="Times,serif" font-size="14.00">2 (95.1)</text>
</g>
<!-- 037 -->
<g id="node14" class="node"><title>037</title>
<ellipse fill="#ff8a8a" stroke="#b43f3f" cx="517" cy="-192" rx="36.2938" ry="18"/>
<text text-anchor="middle" x="517" y="-188.3" font-family="Times,serif" font-size="14.00">037 (a)</text>
</g>
<!-- 07&#45;&gt;037 -->
<g id="edge12" class="edge"><title>07&#45;&gt;037</title>
<path fill="none" stroke="#b43f3f" stroke-dasharray="1,5" d="M497.857,-260.799C501.197,-248.97 505.697,-233.03 509.496,-219.578"/>
<polygon fill="#b43f3f" stroke="#b43f3f" points="512.883,-220.46 512.232,-209.885 506.147,-218.558 512.883,-220.46"/>
<text text-anchor="middle" x="529" y="-231.8" font-family="Times,serif" font-size="14.00">1 (97.5)</text>
</g>
<!-- 030 -->
<g id="node15" class="node"><title>030</title>
<ellipse fill="#ff8a8a" stroke="#b43f3f" cx="608" cy="-192" rx="36.2938" ry="18"/>
<text text-anchor="middle" x="608" y="-188.3" font-family="Times,serif" font-size="14.00">030 (a)</text>
</g>
<!-- 07&#45;&gt;030 -->
<g id="edge13" class="edge"><title>07&#45;&gt;030</title>
<path fill="none" stroke="#b43f3f" stroke-dasharray="1,5" d="M516.2,-266.624C528.211,-260.315 542.86,-251.946 555,-243 565.82,-235.026 576.788,-225.059 585.917,-216.126"/>
<polygon fill="#b43f3f" stroke="#b43f3f" points="588.515,-218.478 593.11,-208.932 583.565,-213.529 588.515,-218.478"/>
<text text-anchor="middle" x="595" y="-231.8" font-family="Times,serif" font-size="14.00">1 (95.1)</text>
</g>
<!-- 036 -->
<g id="node16" class="node"><title>036</title>
<ellipse fill="#ff8a8a" stroke="#b43f3f" cx="699" cy="-192" rx="36.2938" ry="18"/>
<text text-anchor="middle" x="699" y="-188.3" font-family="Times,serif" font-size="14.00">036 (a)</text>
</g>
<!-- 021&#45;&gt;036 -->
<g id="edge14" class="edge"><title>021&#45;&gt;036</title>
<path fill="none" stroke="#b43f3f" stroke-dasharray="1,5" d="M699,-260.799C699,-249.163 699,-233.548 699,-220.237"/>
<polygon fill="#b43f3f" stroke="#b43f3f" points="702.5,-220.175 699,-210.175 695.5,-220.175 702.5,-220.175"/>
<text text-anchor="middle" x="721" y="-231.8" font-family="Times,serif" font-size="14.00">1 (97.6)</text>
</g>
<!-- 047 -->
<g id="node17" class="node"><title>047</title>
<ellipse fill="#ff8a8a" stroke="#b43f3f" cx="790" cy="-192" rx="36.2938" ry="18"/>
<text text-anchor="middle" x="790" y="-188.3" font-family="Times,serif" font-size="14.00">047 (a)</text>
</g>
<!-- 021&#45;&gt;047 -->
<g id="edge15" class="edge"><title>021&#45;&gt;047</title>
<path fill="none" stroke="#b43f3f" stroke-dasharray="1,5" d="M720.372,-264.006C728.992,-257.963 738.814,-250.554 747,-243 755.544,-235.115 764.076,-225.619 771.26,-217.029"/>
<polygon fill="#b43f3f" stroke="#b43f3f" points="774.077,-219.113 777.692,-209.155 768.656,-214.685 774.077,-219.113"/>
<text text-anchor="middle" x="783" y="-231.8" font-family="Times,serif" font-size="14.00">1 (95.1)</text>
</g>
<!-- 03 -->
<g id="node18" class="node"><title>03</title>
<ellipse fill="#cea8f4" stroke="#835da9" cx="1033" cy="-366" rx="32.4942" ry="18"/>
<text text-anchor="middle" x="1033" y="-362.3" font-family="Times,serif" font-size="14.00">03 (b)</text>
</g>
<!-- 044 -->
<g id="node19" class="node"><title>044</title>
<ellipse fill="#cea8f4" stroke="#835da9" cx="946" cy="-279" rx="36.2938" ry="18"/>
<text text-anchor="middle" x="946" y="-275.3" font-family="Times,serif" font-size="14.00">044 (b)</text>
</g>
<!-- 03&#45;&gt;044 -->
<g id="edge16" class="edge"><title>03&#45;&gt;044</title>
<path fill="none" stroke="#835da9" stroke-dasharray="1,5" d="M1012.4,-351.862C1003.52,-345.738 993.299,-338.034 985,-330 977.051,-322.304 969.333,-312.945 962.889,-304.414"/>
<polygon fill="#835da9" stroke="#835da9" points="965.642,-302.25 956.909,-296.252 959.996,-306.388 965.642,-302.25"/>
<text text-anchor="middle" x="1007" y="-318.8" font-family="Times,serif" font-size="14.00">1 (89.2)</text>
</g>
<!-- 02 -->
<g id="node20" class="node"><title>02</title>
<ellipse fill="#cea8f4" stroke="#835da9" cx="1033" cy="-279" rx="32.4942" ry="18"/>
<text text-anchor="middle" x="1033" y="-275.3" font-family="Times,serif" font-size="14.00">02 (b)</text>
</g>
<!-- 03&#45;&gt;02 -->
<g id="edge17" class="edge"><title>03&#45;&gt;02</title>
<path fill="none" stroke="#835da9" stroke-dasharray="1,5" d="M1033,-347.799C1033,-336.163 1033,-320.548 1033,-307.237"/>
<polygon fill="#835da9" stroke="#835da9" points="1036.5,-307.175 1033,-297.175 1029.5,-307.175 1036.5,-307.175"/>
<text text-anchor="middle" x="1055" y="-318.8" font-family="Times,serif" font-size="14.00">1 (86.5)</text>
</g>
<!-- 032 -->
<g id="node21" class="node"><title>032</title>
<ellipse fill="#cea8f4" stroke="#835da9" cx="1120" cy="-279" rx="36.2938" ry="18"/>
<text text-anchor="middle" x="1120" y="-275.3" font-family="Times,serif" font-size="14.00">032 (b)</text>
</g>
<!-- 03&#45;&gt;032 -->
<g id="edge18" class="edge"><title>03&#45;&gt;032</title>
<path fill="none" stroke="#835da9" stroke-dasharray="1,5" d="M1053.6,-351.862C1062.48,-345.738 1072.7,-338.034 1081,-330 1088.95,-322.304 1096.67,-312.945 1103.11,-304.414"/>
<polygon fill="#835da9" stroke="#835da9" points="1106,-306.388 1109.09,-296.252 1100.36,-302.25 1106,-306.388"/>
<text text-anchor="middle" x="1115" y="-318.8" font-family="Times,serif" font-size="14.00">1 (91.7)</text>
</g>
<!-- 0141 -->
<g id="node22" class="node"><title>0141</title>
<ellipse fill="#cea8f4" stroke="#835da9" cx="885" cy="-192" rx="40.8928" ry="18"/>
<text text-anchor="middle" x="885" y="-188.3" font-family="Times,serif" font-size="14.00">0141 (b)</text>
</g>
<!-- 044&#45;&gt;0141 -->
<g id="edge19" class="edge"><title>044&#45;&gt;0141</title>
<path fill="none" stroke="#835da9" stroke-dasharray="1,5" d="M929.441,-262.805C923.548,-256.938 917.112,-249.967 912,-243 906.547,-235.568 901.478,-226.9 897.238,-218.889"/>
<polygon fill="#835da9" stroke="#835da9" points="900.321,-217.229 892.67,-209.9 894.08,-220.4 900.321,-217.229"/>
<text text-anchor="middle" x="934" y="-231.8" font-family="Times,serif" font-size="14.00">1 (89.2)</text>
</g>
<!-- 022 -->
<g id="node23" class="node"><title>022</title>
<ellipse fill="#cea8f4" stroke="#835da9" cx="980" cy="-192" rx="36.2938" ry="18"/>
<text text-anchor="middle" x="980" y="-188.3" font-family="Times,serif" font-size="14.00">022 (b)</text>
</g>
<!-- 044&#45;&gt;022 -->
<g id="edge20" class="edge"><title>044&#45;&gt;022</title>
<path fill="none" stroke="#835da9" stroke-dasharray="1,5" d="M952.717,-261.207C957.514,-249.216 964.06,-232.851 969.537,-219.157"/>
<polygon fill="#835da9" stroke="#835da9" points="972.832,-220.343 973.297,-209.758 966.333,-217.743 972.832,-220.343"/>
<text text-anchor="middle" x="987" y="-231.8" font-family="Times,serif" font-size="14.00">1 (91.7)</text>
</g>
<!-- 017 -->
<g id="node27" class="node"><title>017</title>
<ellipse fill="#cea8f4" stroke="#835da9" cx="885" cy="-105" rx="36.2938" ry="18"/>
<text text-anchor="middle" x="885" y="-101.3" font-family="Times,serif" font-size="14.00">017 (b)</text>
</g>
<!-- 0141&#45;&gt;017 -->
<g id="edge23" class="edge"><title>0141&#45;&gt;017</title>
<path fill="none" stroke="#835da9" stroke-dasharray="1,5" d="M885,-173.799C885,-162.163 885,-146.548 885,-133.237"/>
<polygon fill="#835da9" stroke="#835da9" points="888.5,-133.175 885,-123.175 881.5,-133.175 888.5,-133.175"/>
<text text-anchor="middle" x="907" y="-144.8" font-family="Times,serif" font-size="14.00">2 (92.7)</text>
</g>
<!-- 091 -->
<g id="node24" class="node"><title>091</title>
<ellipse fill="#cea8f4" stroke="#835da9" cx="1252" cy="-366" rx="36.2938" ry="18"/>
<text text-anchor="middle" x="1252" y="-362.3" font-family="Times,serif" font-size="14.00">091 (b)</text>
</g>
<!-- 05 -->
<g id="node25" class="node"><title>05</title>
<ellipse fill="#cea8f4" stroke="#835da9" cx="1207" cy="-279" rx="32.4942" ry="18"/>
<text text-anchor="middle" x="1207" y="-275.3" font-family="Times,serif" font-size="14.00">05 (b)</text>
</g>
<!-- 091&#45;&gt;05 -->
<g id="edge21" class="edge"><title>091&#45;&gt;05</title>
<path fill="none" stroke="#835da9" stroke-dasharray="1,5" d="M1242.25,-348.371C1238.93,-342.593 1235.24,-336.047 1232,-330 1227.83,-322.213 1223.47,-313.645 1219.58,-305.834"/>
<polygon fill="#835da9" stroke="#835da9" points="1222.67,-304.2 1215.1,-296.785 1216.4,-307.301 1222.67,-304.2"/>
<text text-anchor="middle" x="1254" y="-318.8" font-family="Times,serif" font-size="14.00">1 (87.5)</text>
</g>
<!-- 0211 -->
<g id="node26" class="node"><title>0211</title>
<ellipse fill="#cea8f4" stroke="#835da9" cx="1298" cy="-279" rx="40.8928" ry="18"/>
<text text-anchor="middle" x="1298" y="-275.3" font-family="Times,serif" font-size="14.00">0211 (b)</text>
</g>
<!-- 091&#45;&gt;0211 -->
<g id="edge22" class="edge"><title>091&#45;&gt;0211</title>
<path fill="none" stroke="#835da9" stroke-dasharray="1,5" d="M1264.13,-348.67C1268.15,-342.917 1272.49,-336.309 1276,-330 1280.15,-322.542 1284.1,-314.148 1287.48,-306.398"/>
<polygon fill="#835da9" stroke="#835da9" points="1290.76,-307.619 1291.43,-297.044 1284.31,-304.897 1290.76,-307.619"/>
<text text-anchor="middle" x="1305" y="-318.8" font-family="Times,serif" font-size="14.00">1 (83.3)</text>
</g>
<!-- 01 -->
<g id="node28" class="node"><title>01</title>
<ellipse fill="#cea8f4" stroke="#835da9" cx="885" cy="-18" rx="32.4942" ry="18"/>
<text text-anchor="middle" x="885" y="-14.3" font-family="Times,serif" font-size="14.00">01 (b)</text>
</g>
<!-- 017&#45;&gt;01 -->
<g id="edge24" class="edge"><title>017&#45;&gt;01</title>
<path fill="none" stroke="#835da9" stroke-dasharray="1,5" d="M885,-86.799C885,-75.1626 885,-59.5479 885,-46.2368"/>
<polygon fill="#835da9" stroke="#835da9" points="888.5,-46.1754 885,-36.1754 881.5,-46.1755 888.5,-46.1754"/>
<text text-anchor="middle" x="907" y="-57.8" font-family="Times,serif" font-size="14.00">4 (44.7)</text>
</g>
<!-- 019 -->
<g id="node29" class="node"><title>019</title>
<ellipse fill="#cea8f4" stroke="#835da9" cx="1343" cy="-366" rx="36.2938" ry="18"/>
<text text-anchor="middle" x="1343" y="-362.3" font-family="Times,serif" font-size="14.00">019 (b)</text>
</g>
<!-- P75 -->
<g id="node30" class="node"><title>P75</title>
<ellipse fill="#cea8f4" stroke="#835da9" cx="1434" cy="-366" rx="37.0935" ry="18"/>
<text text-anchor="middle" x="1434" y="-362.3" font-family="Times,serif" font-size="14.00">P75 (b)</text>
</g>
</g>
</svg>
