<?xml version="1.0" encoding="UTF-8" standalone="no"?>
<!DOCTYPE svg PUBLIC "-//W3C//DTD SVG 1.1//EN"
 "http://www.w3.org/Graphics/SVG/1.1/DTD/svg11.dtd">
<!-- Generated by graphviz version 2.38.0 (20140413.2041)
 -->
<!-- Title: %3 Pages: 1 -->
<svg width="946pt" height="408pt"
 viewBox="0.00 0.00 946.40 408.00" xmlns="http://www.w3.org/2000/svg" xmlns:xlink="http://www.w3.org/1999/xlink">
<g id="graph0" class="graph" transform="scale(1 1) rotate(0) translate(4 404)">
<title>%3</title>
<polygon fill="white" stroke="none" points="-4,4 -4,-404 942.397,-404 942.397,4 -4,4"/>
<g id="clust1" class="cluster"><title>cluster_legend</title>
<path fill="none" stroke="black" d="M20,-264C20,-264 210,-264 210,-264 216,-264 222,-270 222,-276 222,-276 222,-380 222,-380 222,-386 216,-392 210,-392 210,-392 20,-392 20,-392 14,-392 8,-386 8,-380 8,-380 8,-276 8,-276 8,-270 14,-264 20,-264"/>
</g>
<!-- leg_s -->
<g id="node1" class="node"><title>leg_s</title>
<text text-anchor="middle" x="115" y="-362.3" font-family="Times,serif" font-size="14.00">Textual flow strength</text>
</g>
<!-- leg_e1 -->
<!-- leg_s&#45;&gt;leg_e1 -->
<g id="edge1" class="edge"><title>leg_s&#45;&gt;leg_e1</title>
<path fill="none" stroke="black" stroke-dasharray="1,5" d="M96.6657,-347.686C91.1324,-342.194 85.1607,-335.989 80,-330 70.1708,-318.593 60.0722,-304.779 52.9137,-294.563"/>
<polygon fill="black" stroke="black" points="55.6142,-292.314 47.056,-286.068 49.8514,-296.288 55.6142,-292.314"/>
<text text-anchor="middle" x="95.5" y="-318.8" font-family="Times,serif" font-size="14.00">&lt;=5 &#160;</text>
</g>
<!-- leg_e2 -->
<!-- leg_s&#45;&gt;leg_e2 -->
<g id="edge2" class="edge"><title>leg_s&#45;&gt;leg_e2</title>
<path fill="none" stroke="black" stroke-dasharray="5,2" d="M115,-347.799C115,-332.794 115,-311.174 115,-296.409"/>
<polygon fill="black" stroke="black" points="118.5,-296.293 115,-286.293 111.5,-296.293 118.5,-296.293"/>
<text text-anchor="middle" x="134" y="-318.8" font-family="Times,serif" font-size="14.00"> &#160;&lt;=25</text>
</g>
<!-- leg_e3 -->
<!-- leg_s&#45;&gt;leg_e3 -->
<g id="edge3" class="edge"><title>leg_s&#45;&gt;leg_e3</title>
<path fill="none" stroke="black" d="M138.503,-347.76C144.906,-342.462 151.567,-336.344 157,-330 166.087,-319.39 174.095,-305.689 179.546,-295.313"/>
<polygon fill="black" stroke="black" points="182.722,-296.789 184.091,-286.283 176.469,-293.642 182.722,-296.789"/>
<text text-anchor="middle" x="179" y="-318.8" font-family="Times,serif" font-size="14.00">&gt;25</text>
</g>
<!-- 021 -->
<g id="node5" class="node"><title>021</title>
<ellipse fill="#ff8a8a" stroke="#b43f3f" cx="312" cy="-105" rx="36.2938" ry="18"/>
<text text-anchor="middle" x="312" y="-101.3" font-family="Times,serif" font-size="14.00">021 (a)</text>
</g>
<!-- 036 -->
<g id="node6" class="node"><title>036</title>
<ellipse fill="#ff8a8a" stroke="#b43f3f" cx="125" cy="-18" rx="36.2938" ry="18"/>
<text text-anchor="middle" x="125" y="-14.3" font-family="Times,serif" font-size="14.00">036 (a)</text>
</g>
<!-- 021&#45;&gt;036 -->
<g id="edge4" class="edge"><title>021&#45;&gt;036</title>
<path fill="none" stroke="#b43f3f" stroke-dasharray="1,5" d="M284.48,-93.115C278.444,-90.9287 272.048,-88.764 266,-87 229.763,-76.4316 216.781,-85.8423 183,-69 169.537,-62.2876 156.644,-51.7402 146.447,-42.0596"/>
<polygon fill="#b43f3f" stroke="#b43f3f" points="148.782,-39.4463 139.21,-34.9036 143.86,-44.4237 148.782,-39.4463"/>
<text text-anchor="middle" x="205" y="-57.8" font-family="Times,serif" font-size="14.00">1 (97.6)</text>
</g>
<!-- 047 -->
<g id="node7" class="node"><title>047</title>
<ellipse fill="#ff8a8a" stroke="#b43f3f" cx="216" cy="-18" rx="36.2938" ry="18"/>
<text text-anchor="middle" x="216" y="-14.3" font-family="Times,serif" font-size="14.00">047 (a)</text>
</g>
<!-- 021&#45;&gt;047 -->
<g id="edge5" class="edge"><title>021&#45;&gt;047</title>
<path fill="none" stroke="#b43f3f" stroke-dasharray="1,5" d="M282.373,-94.4214C268.482,-88.7638 252.499,-80.4343 241,-69 234.372,-62.4092 229.192,-53.7005 225.31,-45.4003"/>
<polygon fill="#b43f3f" stroke="#b43f3f" points="228.453,-43.8466 221.339,-35.9957 222.004,-46.5696 228.453,-43.8466"/>
<text text-anchor="middle" x="263" y="-57.8" font-family="Times,serif" font-size="14.00">1 (95.1)</text>
</g>
<!-- 03 -->
<g id="node8" class="node"><title>03</title>
<ellipse fill="#ff8a8a" stroke="#b43f3f" cx="264" cy="-279" rx="31.6951" ry="18"/>
<text text-anchor="middle" x="264" y="-275.3" font-family="Times,serif" font-size="14.00">03 (a)</text>
</g>
<!-- 032 -->
<g id="node9" class="node"><title>032</title>
<ellipse fill="#ff8a8a" stroke="#b43f3f" cx="126" cy="-192" rx="36.2938" ry="18"/>
<text text-anchor="middle" x="126" y="-188.3" font-family="Times,serif" font-size="14.00">032 (a)</text>
</g>
<!-- 03&#45;&gt;032 -->
<g id="edge6" class="edge"><title>03&#45;&gt;032</title>
<path fill="none" stroke="#b43f3f" stroke-dasharray="1,5" d="M239.953,-267.034C235.339,-264.989 230.533,-262.899 226,-261 205.752,-252.515 198.601,-254.661 180,-243 168.041,-235.503 156.348,-225.166 146.918,-215.836"/>
<polygon fill="#b43f3f" stroke="#b43f3f" points="149.375,-213.342 139.879,-208.642 144.372,-218.237 149.375,-213.342"/>
<text text-anchor="middle" x="202" y="-231.8" font-family="Times,serif" font-size="14.00">1 (91.7)</text>
</g>
<!-- 044 -->
<g id="node10" class="node"><title>044</title>
<ellipse fill="#ff8a8a" stroke="#b43f3f" cx="217" cy="-192" rx="36.2938" ry="18"/>
<text text-anchor="middle" x="217" y="-188.3" font-family="Times,serif" font-size="14.00">044 (a)</text>
</g>
<!-- 03&#45;&gt;044 -->
<g id="edge7" class="edge"><title>03&#45;&gt;044</title>
<path fill="none" stroke="#b43f3f" stroke-dasharray="1,5" d="M248.882,-262.94C243.627,-257.088 238.043,-250.091 234,-243 229.958,-235.911 226.672,-227.708 224.105,-220.022"/>
<polygon fill="#b43f3f" stroke="#b43f3f" points="227.418,-218.888 221.14,-210.354 220.725,-220.94 227.418,-218.888"/>
<text text-anchor="middle" x="256" y="-231.8" font-family="Times,serif" font-size="14.00">1 (89.2)</text>
</g>
<!-- 02 -->
<g id="node11" class="node"><title>02</title>
<ellipse fill="#ff8a8a" stroke="#b43f3f" cx="303" cy="-192" rx="31.6951" ry="18"/>
<text text-anchor="middle" x="303" y="-188.3" font-family="Times,serif" font-size="14.00">02 (a)</text>
</g>
<!-- 03&#45;&gt;02 -->
<g id="edge8" class="edge"><title>03&#45;&gt;02</title>
<path fill="none" stroke="#b43f3f" stroke-dasharray="1,5" d="M271.705,-261.207C277.207,-249.216 284.715,-232.851 290.999,-219.157"/>
<polygon fill="#b43f3f" stroke="#b43f3f" points="294.322,-220.307 295.311,-209.758 287.959,-217.388 294.322,-220.307"/>
<text text-anchor="middle" x="308" y="-231.8" font-family="Times,serif" font-size="14.00">1 (86.5)</text>
</g>
<!-- 022 -->
<g id="node30" class="node"><title>022</title>
<ellipse fill="#ff8a8a" stroke="#b43f3f" cx="122" cy="-105" rx="36.2938" ry="18"/>
<text text-anchor="middle" x="122" y="-101.3" font-family="Times,serif" font-size="14.00">022 (a)</text>
</g>
<!-- 044&#45;&gt;022 -->
<g id="edge28" class="edge"><title>044&#45;&gt;022</title>
<path fill="none" stroke="#b43f3f" stroke-dasharray="1,5" d="M196.27,-177.159C187.564,-171.025 177.505,-163.508 169,-156 159.837,-147.911 150.469,-138.276 142.533,-129.632"/>
<polygon fill="#b43f3f" stroke="#b43f3f" points="144.99,-127.129 135.694,-122.045 139.79,-131.816 144.99,-127.129"/>
<text text-anchor="middle" x="191" y="-144.8" font-family="Times,serif" font-size="14.00">1 (91.7)</text>
</g>
<!-- 0141 -->
<g id="node31" class="node"><title>0141</title>
<ellipse fill="#ff8a8a" stroke="#b43f3f" cx="217" cy="-105" rx="40.0939" ry="18"/>
<text text-anchor="middle" x="217" y="-101.3" font-family="Times,serif" font-size="14.00">0141 (a)</text>
</g>
<!-- 044&#45;&gt;0141 -->
<g id="edge29" class="edge"><title>044&#45;&gt;0141</title>
<path fill="none" stroke="#b43f3f" stroke-dasharray="1,5" d="M217,-173.799C217,-162.163 217,-146.548 217,-133.237"/>
<polygon fill="#b43f3f" stroke="#b43f3f" points="220.5,-133.175 217,-123.175 213.5,-133.175 220.5,-133.175"/>
<text text-anchor="middle" x="239" y="-144.8" font-family="Times,serif" font-size="14.00">1 (89.2)</text>
</g>
<!-- 07 -->
<g id="node12" class="node"><title>07</title>
<ellipse fill="#ff8a8a" stroke="#b43f3f" cx="493" cy="-105" rx="31.6951" ry="18"/>
<text text-anchor="middle" x="493" y="-101.3" font-family="Times,serif" font-size="14.00">07 (a)</text>
</g>
<!-- 034 -->
<g id="node13" class="node"><title>034</title>
<ellipse fill="#ff8a8a" stroke="#b43f3f" cx="307" cy="-18" rx="36.2938" ry="18"/>
<text text-anchor="middle" x="307" y="-14.3" font-family="Times,serif" font-size="14.00">034 (a)</text>
</g>
<!-- 07&#45;&gt;034 -->
<g id="edge9" class="edge"><title>07&#45;&gt;034</title>
<path fill="none" stroke="#b43f3f" stroke-dasharray="1,5" d="M463.867,-97.2264C440.968,-91.3366 408.606,-81.7448 382,-69 365.053,-60.882 347.503,-49.3789 333.645,-39.4524"/>
<polygon fill="#b43f3f" stroke="#b43f3f" points="335.669,-36.597 325.531,-33.5199 331.538,-42.2476 335.669,-36.597"/>
<text text-anchor="middle" x="404" y="-57.8" font-family="Times,serif" font-size="14.00">1 (95.1)</text>
</g>
<!-- 037 -->
<g id="node14" class="node"><title>037</title>
<ellipse fill="#ff8a8a" stroke="#b43f3f" cx="398" cy="-18" rx="36.2938" ry="18"/>
<text text-anchor="middle" x="398" y="-14.3" font-family="Times,serif" font-size="14.00">037 (a)</text>
</g>
<!-- 07&#45;&gt;037 -->
<g id="edge10" class="edge"><title>07&#45;&gt;037</title>
<path fill="none" stroke="#b43f3f" stroke-dasharray="1,5" d="M473.214,-90.8221C464.297,-84.5722 453.815,-76.7806 445,-69 435.837,-60.9115 426.469,-51.2757 418.533,-42.6319"/>
<polygon fill="#b43f3f" stroke="#b43f3f" points="420.99,-40.1295 411.694,-35.0454 415.79,-44.8165 420.99,-40.1295"/>
<text text-anchor="middle" x="467" y="-57.8" font-family="Times,serif" font-size="14.00">1 (97.5)</text>
</g>
<!-- 0211 -->
<g id="node15" class="node"><title>0211</title>
<ellipse fill="#ff8a8a" stroke="#b43f3f" cx="493" cy="-18" rx="40.0939" ry="18"/>
<text text-anchor="middle" x="493" y="-14.3" font-family="Times,serif" font-size="14.00">0211 (a)</text>
</g>
<!-- 07&#45;&gt;0211 -->
<g id="edge11" class="edge"><title>07&#45;&gt;0211</title>
<path fill="none" stroke="#b43f3f" stroke-dasharray="1,5" d="M493,-86.799C493,-75.1626 493,-59.5479 493,-46.2368"/>
<polygon fill="#b43f3f" stroke="#b43f3f" points="496.5,-46.1754 493,-36.1754 489.5,-46.1755 496.5,-46.1754"/>
<text text-anchor="middle" x="515" y="-57.8" font-family="Times,serif" font-size="14.00">2 (82.9)</text>
</g>
<!-- 030 -->
<g id="node16" class="node"><title>030</title>
<ellipse fill="#ff8a8a" stroke="#b43f3f" cx="588" cy="-18" rx="36.2938" ry="18"/>
<text text-anchor="middle" x="588" y="-14.3" font-family="Times,serif" font-size="14.00">030 (a)</text>
</g>
<!-- 07&#45;&gt;030 -->
<g id="edge12" class="edge"><title>07&#45;&gt;030</title>
<path fill="none" stroke="#b43f3f" stroke-dasharray="1,5" d="M512.786,-90.8221C521.703,-84.5722 532.185,-76.7806 541,-69 550.163,-60.9115 559.531,-51.2757 567.467,-42.6319"/>
<polygon fill="#b43f3f" stroke="#b43f3f" points="570.21,-44.8165 574.306,-35.0454 565.01,-40.1295 570.21,-44.8165"/>
<text text-anchor="middle" x="579" y="-57.8" font-family="Times,serif" font-size="14.00">1 (95.1)</text>
</g>
<!-- 031 -->
<g id="node17" class="node"><title>031</title>
<ellipse fill="#ff8a8a" stroke="#b43f3f" cx="629" cy="-105" rx="36.2938" ry="18"/>
<text text-anchor="middle" x="629" y="-101.3" font-family="Times,serif" font-size="14.00">031 (a)</text>
</g>
<!-- 013 -->
<g id="node18" class="node"><title>013</title>
<ellipse fill="#ff8a8a" stroke="#b43f3f" cx="679" cy="-18" rx="36.2938" ry="18"/>
<text text-anchor="middle" x="679" y="-14.3" font-family="Times,serif" font-size="14.00">013 (a)</text>
</g>
<!-- 031&#45;&gt;013 -->
<g id="edge13" class="edge"><title>031&#45;&gt;013</title>
<path fill="none" stroke="#b43f3f" stroke-dasharray="1,5" d="M638.641,-87.6111C645.857,-75.3433 655.861,-58.3364 664.103,-44.3242"/>
<polygon fill="#b43f3f" stroke="#b43f3f" points="667.165,-46.0225 669.218,-35.6286 661.131,-42.4733 667.165,-46.0225"/>
<text text-anchor="middle" x="679" y="-57.8" font-family="Times,serif" font-size="14.00">1 (97.1)</text>
</g>
<!-- 017 -->
<g id="node19" class="node"><title>017</title>
<ellipse fill="#ff8a8a" stroke="#b43f3f" cx="770" cy="-18" rx="36.2938" ry="18"/>
<text text-anchor="middle" x="770" y="-14.3" font-family="Times,serif" font-size="14.00">017 (a)</text>
</g>
<!-- 031&#45;&gt;017 -->
<g id="edge14" class="edge"><title>031&#45;&gt;017</title>
<path fill="none" stroke="#b43f3f" stroke-dasharray="1,5" d="M656.485,-93.1113C671.271,-86.8199 689.584,-78.3171 705,-69 718.825,-60.6445 733.163,-49.8739 744.844,-40.4701"/>
<polygon fill="#b43f3f" stroke="#b43f3f" points="747.321,-42.9654 752.835,-33.9184 742.883,-37.5523 747.321,-42.9654"/>
<text text-anchor="middle" x="748" y="-57.8" font-family="Times,serif" font-size="14.00">1 (94.3)</text>
</g>
<!-- 063 -->
<g id="node20" class="node"><title>063</title>
<ellipse fill="#ff8a8a" stroke="#b43f3f" cx="629" cy="-192" rx="36.2938" ry="18"/>
<text text-anchor="middle" x="629" y="-188.3" font-family="Times,serif" font-size="14.00">063 (a)</text>
</g>
<!-- 063&#45;&gt;021 -->
<g id="edge15" class="edge"><title>063&#45;&gt;021</title>
<path fill="none" stroke="#b43f3f" stroke-dasharray="1,5" d="M597.737,-182.617C540.209,-167.192 417.594,-134.314 353.297,-117.073"/>
<polygon fill="#b43f3f" stroke="#b43f3f" points="354.062,-113.655 343.497,-114.446 352.249,-120.416 354.062,-113.655"/>
<text text-anchor="middle" x="512" y="-144.8" font-family="Times,serif" font-size="14.00">1 (93.1)</text>
</g>
<!-- 063&#45;&gt;07 -->
<g id="edge16" class="edge"><title>063&#45;&gt;07</title>
<path fill="none" stroke="#b43f3f" stroke-dasharray="1,5" d="M607.149,-177.343C584.178,-162.986 547.904,-140.315 522.425,-124.391"/>
<polygon fill="#b43f3f" stroke="#b43f3f" points="524.238,-121.397 513.903,-119.065 520.528,-127.333 524.238,-121.397"/>
<text text-anchor="middle" x="592" y="-144.8" font-family="Times,serif" font-size="14.00">1 (96.6)</text>
</g>
<!-- 063&#45;&gt;031 -->
<g id="edge17" class="edge"><title>063&#45;&gt;031</title>
<path fill="none" stroke="#b43f3f" stroke-dasharray="1,5" d="M629,-173.799C629,-162.163 629,-146.548 629,-133.237"/>
<polygon fill="#b43f3f" stroke="#b43f3f" points="632.5,-133.175 629,-123.175 625.5,-133.175 632.5,-133.175"/>
<text text-anchor="middle" x="651" y="-144.8" font-family="Times,serif" font-size="14.00">1 (95.8)</text>
</g>
<!-- 045 -->
<g id="node21" class="node"><title>045</title>
<ellipse fill="#ff8a8a" stroke="#b43f3f" cx="720" cy="-105" rx="36.2938" ry="18"/>
<text text-anchor="middle" x="720" y="-101.3" font-family="Times,serif" font-size="14.00">045 (a)</text>
</g>
<!-- 063&#45;&gt;045 -->
<g id="edge18" class="edge"><title>063&#45;&gt;045</title>
<path fill="none" stroke="#b43f3f" stroke-dasharray="1,5" d="M650.372,-177.006C658.992,-170.963 668.814,-163.554 677,-156 685.544,-148.115 694.076,-138.619 701.26,-130.029"/>
<polygon fill="#b43f3f" stroke="#b43f3f" points="704.077,-132.113 707.692,-122.155 698.656,-127.685 704.077,-132.113"/>
<text text-anchor="middle" x="713" y="-144.8" font-family="Times,serif" font-size="14.00">1 (93.1)</text>
</g>
<!-- 011 -->
<g id="node22" class="node"><title>011</title>
<ellipse fill="#ff8a8a" stroke="#b43f3f" cx="811" cy="-105" rx="36.2938" ry="18"/>
<text text-anchor="middle" x="811" y="-101.3" font-family="Times,serif" font-size="14.00">011 (a)</text>
</g>
<!-- 063&#45;&gt;011 -->
<g id="edge19" class="edge"><title>063&#45;&gt;011</title>
<path fill="none" stroke="#b43f3f" stroke-dasharray="1,5" d="M661.267,-183.461C683.727,-177.566 714.009,-168.305 739,-156 755.128,-148.059 771.702,-136.801 784.877,-126.977"/>
<polygon fill="#b43f3f" stroke="#b43f3f" points="787.176,-129.626 793.004,-120.778 782.931,-124.06 787.176,-129.626"/>
<text text-anchor="middle" x="786" y="-144.8" font-family="Times,serif" font-size="14.00">1 (93.1)</text>
</g>
<!-- 028 -->
<g id="node23" class="node"><title>028</title>
<ellipse fill="#ff8a8a" stroke="#b43f3f" cx="902" cy="-105" rx="36.2938" ry="18"/>
<text text-anchor="middle" x="902" y="-101.3" font-family="Times,serif" font-size="14.00">028 (a)</text>
</g>
<!-- 063&#45;&gt;028 -->
<g id="edge20" class="edge"><title>063&#45;&gt;028</title>
<path fill="none" stroke="#b43f3f" stroke-dasharray="1,5" d="M664.629,-187.578C702.17,-183.197 762.588,-173.927 812,-156 833.266,-148.285 855.502,-135.977 872.552,-125.504"/>
<polygon fill="#b43f3f" stroke="#b43f3f" points="874.844,-128.197 881.451,-119.915 871.121,-122.269 874.844,-128.197"/>
<text text-anchor="middle" x="865" y="-144.8" font-family="Times,serif" font-size="14.00">1 (96.6)</text>
</g>
<!-- 038 -->
<g id="node24" class="node"><title>038</title>
<ellipse fill="#ff8a8a" stroke="#b43f3f" cx="861" cy="-18" rx="36.2938" ry="18"/>
<text text-anchor="middle" x="861" y="-14.3" font-family="Times,serif" font-size="14.00">038 (a)</text>
</g>
<!-- 045&#45;&gt;038 -->
<g id="edge21" class="edge"><title>045&#45;&gt;038</title>
<path fill="none" stroke="#b43f3f" stroke-dasharray="1,5" d="M742.342,-90.5315C765.959,-76.2941 803.388,-53.7304 829.886,-37.7564"/>
<polygon fill="#b43f3f" stroke="#b43f3f" points="832.005,-40.5658 838.763,-32.4055 828.391,-34.5709 832.005,-40.5658"/>
<text text-anchor="middle" x="821" y="-57.8" font-family="Times,serif" font-size="14.00">1 (92.7)</text>
</g>
<!-- A -->
<g id="node25" class="node"><title>A</title>
<ellipse fill="#ff8a8a" stroke="#b43f3f" cx="481" cy="-366" rx="29.4969" ry="18"/>
<text text-anchor="middle" x="481" y="-362.3" font-family="Times,serif" font-size="14.00">A (a)</text>
</g>
<!-- A&#45;&gt;03 -->
<g id="edge22" class="edge"><title>A&#45;&gt;03</title>
<path fill="none" stroke="#b43f3f" stroke-dasharray="1,5" d="M454.953,-357.491C432.89,-350.91 400.546,-340.739 373,-330 346.641,-319.723 317.552,-306.268 296.06,-295.905"/>
<polygon fill="#b43f3f" stroke="#b43f3f" points="297.575,-292.75 287.05,-291.527 294.515,-299.046 297.575,-292.75"/>
<text text-anchor="middle" x="395" y="-318.8" font-family="Times,serif" font-size="14.00">1 (93.3)</text>
</g>
<!-- 05 -->
<g id="node26" class="node"><title>05</title>
<ellipse fill="#ff8a8a" stroke="#b43f3f" cx="395" cy="-279" rx="31.6951" ry="18"/>
<text text-anchor="middle" x="395" y="-275.3" font-family="Times,serif" font-size="14.00">05 (a)</text>
</g>
<!-- A&#45;&gt;05 -->
<g id="edge23" class="edge"><title>A&#45;&gt;05</title>
<path fill="none" stroke="#b43f3f" stroke-dasharray="1,5" d="M461.3,-352.561C452.199,-346.347 441.543,-338.375 433,-330 425.175,-322.329 417.638,-312.975 411.368,-304.442"/>
<polygon fill="#b43f3f" stroke="#b43f3f" points="414.206,-302.394 405.557,-296.275 408.503,-306.452 414.206,-302.394"/>
<text text-anchor="middle" x="455" y="-318.8" font-family="Times,serif" font-size="14.00">2 (76.9)</text>
</g>
<!-- 019 -->
<g id="node27" class="node"><title>019</title>
<ellipse fill="#ff8a8a" stroke="#b43f3f" cx="481" cy="-279" rx="36.2938" ry="18"/>
<text text-anchor="middle" x="481" y="-275.3" font-family="Times,serif" font-size="14.00">019 (a)</text>
</g>
<!-- A&#45;&gt;019 -->
<g id="edge24" class="edge"><title>A&#45;&gt;019</title>
<path fill="none" stroke="#b43f3f" stroke-dasharray="1,5" d="M481,-347.799C481,-336.163 481,-320.548 481,-307.237"/>
<polygon fill="#b43f3f" stroke="#b43f3f" points="484.5,-307.175 481,-297.175 477.5,-307.175 484.5,-307.175"/>
<text text-anchor="middle" x="503" y="-318.8" font-family="Times,serif" font-size="14.00">1 (93.3)</text>
</g>
<!-- P75 -->
<g id="node28" class="node"><title>P75</title>
<ellipse fill="#ff8a8a" stroke="#b43f3f" cx="572" cy="-279" rx="36.2938" ry="18"/>
<text text-anchor="middle" x="572" y="-275.3" font-family="Times,serif" font-size="14.00">P75 (a)</text>
</g>
<!-- A&#45;&gt;P75 -->
<g id="edge25" class="edge"><title>A&#45;&gt;P75</title>
<path fill="none" stroke="#b43f3f" stroke-dasharray="1,5" d="M500.477,-352.326C509.528,-346.06 520.208,-338.113 529,-330 537.544,-322.115 546.076,-312.619 553.26,-304.029"/>
<polygon fill="#b43f3f" stroke="#b43f3f" points="556.077,-306.113 559.692,-296.155 550.656,-301.685 556.077,-306.113"/>
<text text-anchor="middle" x="565" y="-318.8" font-family="Times,serif" font-size="14.00">1 (93.3)</text>
</g>
<!-- 01 -->
<g id="node29" class="node"><title>01</title>
<ellipse fill="#cea8f4" stroke="#835da9" cx="659" cy="-279" rx="32.4942" ry="18"/>
<text text-anchor="middle" x="659" y="-275.3" font-family="Times,serif" font-size="14.00">01 (b)</text>
</g>
<!-- A&#45;&gt;01 -->
<g id="edge26" class="edge"><title>A&#45;&gt;01</title>
<path fill="none" stroke="#835da9" stroke-dasharray="5,2" d="M508.182,-358.984C531.051,-353.314 564.213,-343.642 591,-330 606.384,-322.166 622.01,-310.953 634.397,-301.13"/>
<polygon fill="#835da9" stroke="#835da9" points="636.863,-303.636 642.412,-294.61 632.446,-298.205 636.863,-303.636"/>
<text text-anchor="middle" x="637" y="-318.8" font-family="Times,serif" font-size="14.00">1 (57.1)</text>
</g>
<!-- 019&#45;&gt;063 -->
<g id="edge27" class="edge"><title>019&#45;&gt;063</title>
<path fill="none" stroke="#b43f3f" stroke-dasharray="1,5" d="M503.801,-264.905C528.715,-250.596 568.817,-227.565 596.904,-211.433"/>
<polygon fill="#b43f3f" stroke="#b43f3f" points="599.001,-214.265 605.93,-206.25 595.515,-208.195 599.001,-214.265"/>
<text text-anchor="middle" x="586" y="-231.8" font-family="Times,serif" font-size="14.00">1 (85.7)</text>
</g>
</g>
</svg>
