<?xml version="1.0" encoding="UTF-8" standalone="no"?>
<!DOCTYPE svg PUBLIC "-//W3C//DTD SVG 1.1//EN"
 "http://www.w3.org/Graphics/SVG/1.1/DTD/svg11.dtd">
<!-- Generated by graphviz version 2.38.0 (20140413.2041)
 -->
<!-- Title: G Pages: 1 -->
<svg width="792pt" height="332pt"
 viewBox="0.00 0.00 791.79 332.00" xmlns="http://www.w3.org/2000/svg" xmlns:xlink="http://www.w3.org/1999/xlink">
<g id="graph0" class="graph" transform="scale(1 1) rotate(0) translate(4 328)">
<title>G</title>
<polygon fill="white" stroke="none" points="-4,4 -4,-328 787.794,-328 787.794,4 -4,4"/>
<!-- 045/2 (a) -->
<g id="node1" class="node"><title>045/2 (a)</title>
<ellipse fill="#ff8a8a" stroke="#b43f3f" cx="44.3968" cy="-162" rx="42.7926" ry="18"/>
<text text-anchor="middle" x="44.3968" y="-158.3" font-family="Times,serif" font-size="14.00">045/2 (a)</text>
</g>
<!-- 038 (a) -->
<g id="node2" class="node"><title>038 (a)</title>
<ellipse fill="#ff8a8a" stroke="#b43f3f" cx="36.3968" cy="-90" rx="36.2938" ry="18"/>
<text text-anchor="middle" x="36.3968" y="-86.3" font-family="Times,serif" font-size="14.00">038 (a)</text>
</g>
<!-- 045/2 (a)&#45;&gt;038 (a) -->
<g id="edge1" class="edge"><title>045/2 (a)&#45;&gt;038 (a)</title>
<path fill="none" stroke="black" d="M42.4192,-143.697C41.5377,-135.983 40.4782,-126.712 39.4953,-118.112"/>
<polygon fill="black" stroke="black" points="42.9645,-117.642 38.3516,-108.104 36.0097,-118.437 42.9645,-117.642"/>
</g>
<!-- 032 (a) -->
<g id="node3" class="node"><title>032 (a)</title>
<ellipse fill="#ff8a8a" stroke="#b43f3f" cx="230.397" cy="-234" rx="36.2938" ry="18"/>
<text text-anchor="middle" x="230.397" y="-230.3" font-family="Times,serif" font-size="14.00">032 (a)</text>
</g>
<!-- 028/2 (a) -->
<g id="node4" class="node"><title>028/2 (a)</title>
<ellipse fill="#ff8a8a" stroke="#b43f3f" cx="182.397" cy="-162" rx="42.7926" ry="18"/>
<text text-anchor="middle" x="182.397" y="-158.3" font-family="Times,serif" font-size="14.00">028/2 (a)</text>
</g>
<!-- 01/11 (b) -->
<g id="node5" class="node"><title>01/11 (b)</title>
<ellipse fill="#cea8f4" stroke="#835da9" cx="500.397" cy="-234" rx="43.5923" ry="18"/>
<text text-anchor="middle" x="500.397" y="-230.3" font-family="Times,serif" font-size="14.00">01/11 (b)</text>
</g>
<!-- P75 (b) -->
<g id="node6" class="node"><title>P75 (b)</title>
<ellipse fill="#cea8f4" stroke="#835da9" cx="500.397" cy="-306" rx="37.0935" ry="18"/>
<text text-anchor="middle" x="500.397" y="-302.3" font-family="Times,serif" font-size="14.00">P75 (b)</text>
</g>
<!-- P75 (b)&#45;&gt;01/11 (b) -->
<g id="edge2" class="edge"><title>P75 (b)&#45;&gt;01/11 (b)</title>
<path fill="none" stroke="black" d="M500.397,-287.697C500.397,-279.983 500.397,-270.712 500.397,-262.112"/>
<polygon fill="black" stroke="black" points="503.897,-262.104 500.397,-252.104 496.897,-262.104 503.897,-262.104"/>
</g>
<!-- 031/2 (a) -->
<g id="node7" class="node"><title>031/2 (a)</title>
<ellipse fill="#ff8a8a" stroke="#b43f3f" cx="701.397" cy="-90" rx="42.7926" ry="18"/>
<text text-anchor="middle" x="701.397" y="-86.3" font-family="Times,serif" font-size="14.00">031/2 (a)</text>
</g>
<!-- 017 (a) -->
<g id="node11" class="node"><title>017 (a)</title>
<ellipse fill="#ff8a8a" stroke="#b43f3f" cx="656.397" cy="-18" rx="36.2938" ry="18"/>
<text text-anchor="middle" x="656.397" y="-14.3" font-family="Times,serif" font-size="14.00">017 (a)</text>
</g>
<!-- 031/2 (a)&#45;&gt;017 (a) -->
<g id="edge3" class="edge"><title>031/2 (a)&#45;&gt;017 (a)</title>
<path fill="none" stroke="black" d="M690.732,-72.411C685.296,-63.9549 678.572,-53.4944 672.519,-44.0783"/>
<polygon fill="black" stroke="black" points="675.336,-41.9891 666.985,-35.4699 669.448,-45.7744 675.336,-41.9891"/>
</g>
<!-- 013 (a) -->
<g id="node21" class="node"><title>013 (a)</title>
<ellipse fill="#ff8a8a" stroke="#b43f3f" cx="747.397" cy="-18" rx="36.2938" ry="18"/>
<text text-anchor="middle" x="747.397" y="-14.3" font-family="Times,serif" font-size="14.00">013 (a)</text>
</g>
<!-- 031/2 (a)&#45;&gt;013 (a) -->
<g id="edge4" class="edge"><title>031/2 (a)&#45;&gt;013 (a)</title>
<path fill="none" stroke="black" d="M712.298,-72.411C717.855,-63.9549 724.729,-53.4944 730.917,-44.0783"/>
<polygon fill="black" stroke="black" points="734.007,-45.7492 736.574,-35.4699 728.157,-41.9049 734.007,-45.7492"/>
</g>
<!-- 02 (a) -->
<g id="node8" class="node"><title>02 (a)</title>
<ellipse fill="#ff8a8a" stroke="#b43f3f" cx="316.397" cy="-234" rx="31.6951" ry="18"/>
<text text-anchor="middle" x="316.397" y="-230.3" font-family="Times,serif" font-size="14.00">02 (a)</text>
</g>
<!-- 034 (a) -->
<g id="node9" class="node"><title>034 (a)</title>
<ellipse fill="#ff8a8a" stroke="#b43f3f" cx="309.397" cy="-90" rx="36.2938" ry="18"/>
<text text-anchor="middle" x="309.397" y="-86.3" font-family="Times,serif" font-size="14.00">034 (a)</text>
</g>
<!-- 036 (a) -->
<g id="node10" class="node"><title>036 (a)</title>
<ellipse fill="#ff8a8a" stroke="#b43f3f" cx="127.397" cy="-90" rx="36.2938" ry="18"/>
<text text-anchor="middle" x="127.397" y="-86.3" font-family="Times,serif" font-size="14.00">036 (a)</text>
</g>
<!-- 021/2 (a) -->
<g id="node12" class="node"><title>021/2 (a)</title>
<ellipse fill="#ff8a8a" stroke="#b43f3f" cx="286.397" cy="-162" rx="42.7926" ry="18"/>
<text text-anchor="middle" x="286.397" y="-158.3" font-family="Times,serif" font-size="14.00">021/2 (a)</text>
</g>
<!-- 021/2 (a)&#45;&gt;036 (a) -->
<g id="edge5" class="edge"><title>021/2 (a)&#45;&gt;036 (a)</title>
<path fill="none" stroke="black" d="M257.971,-148.485C231.407,-136.791 191.651,-119.288 162.989,-106.669"/>
<polygon fill="black" stroke="black" points="164.292,-103.419 153.729,-102.593 161.471,-109.825 164.292,-103.419"/>
</g>
<!-- 047 (a) -->
<g id="node14" class="node"><title>047 (a)</title>
<ellipse fill="#ff8a8a" stroke="#b43f3f" cx="218.397" cy="-90" rx="36.2938" ry="18"/>
<text text-anchor="middle" x="218.397" y="-86.3" font-family="Times,serif" font-size="14.00">047 (a)</text>
</g>
<!-- 021/2 (a)&#45;&gt;047 (a) -->
<g id="edge6" class="edge"><title>021/2 (a)&#45;&gt;047 (a)</title>
<path fill="none" stroke="black" d="M270.967,-145.116C262.098,-135.987 250.799,-124.355 240.95,-114.217"/>
<polygon fill="black" stroke="black" points="243.244,-111.555 233.766,-106.821 238.223,-116.433 243.244,-111.555"/>
</g>
<!-- 07/2 (a) -->
<g id="node13" class="node"><title>07/2 (a)</title>
<ellipse fill="#ff8a8a" stroke="#b43f3f" cx="402.397" cy="-162" rx="38.1938" ry="18"/>
<text text-anchor="middle" x="402.397" y="-158.3" font-family="Times,serif" font-size="14.00">07/2 (a)</text>
</g>
<!-- 07/2 (a)&#45;&gt;034 (a) -->
<g id="edge10" class="edge"><title>07/2 (a)&#45;&gt;034 (a)</title>
<path fill="none" stroke="black" d="M382.674,-146.155C369.302,-136.09 351.45,-122.653 336.714,-111.561"/>
<polygon fill="black" stroke="black" points="338.55,-108.562 328.455,-105.345 334.34,-114.155 338.55,-108.562"/>
</g>
<!-- 0211/2 (a) -->
<g id="node17" class="node"><title>0211/2 (a)</title>
<ellipse fill="#ff8a8a" stroke="#b43f3f" cx="411.397" cy="-90" rx="47.3916" ry="18"/>
<text text-anchor="middle" x="411.397" y="-86.3" font-family="Times,serif" font-size="14.00">0211/2 (a)</text>
</g>
<!-- 07/2 (a)&#45;&gt;0211/2 (a) -->
<g id="edge7" class="edge"><title>07/2 (a)&#45;&gt;0211/2 (a)</title>
<path fill="none" stroke="black" d="M404.621,-143.697C405.613,-135.983 406.805,-126.712 407.911,-118.112"/>
<polygon fill="black" stroke="black" points="411.394,-118.469 409.198,-108.104 404.451,-117.576 411.394,-118.469"/>
</g>
<!-- 037 (a) -->
<g id="node22" class="node"><title>037 (a)</title>
<ellipse fill="#ff8a8a" stroke="#b43f3f" cx="513.397" cy="-90" rx="36.2938" ry="18"/>
<text text-anchor="middle" x="513.397" y="-86.3" font-family="Times,serif" font-size="14.00">037 (a)</text>
</g>
<!-- 07/2 (a)&#45;&gt;037 (a) -->
<g id="edge8" class="edge"><title>07/2 (a)&#45;&gt;037 (a)</title>
<path fill="none" stroke="black" d="M424.327,-147.17C441.159,-136.556 464.589,-121.78 483.194,-110.047"/>
<polygon fill="black" stroke="black" points="485.298,-112.858 491.89,-104.563 481.564,-106.937 485.298,-112.858"/>
</g>
<!-- 030 (a) -->
<g id="node23" class="node"><title>030 (a)</title>
<ellipse fill="#ff8a8a" stroke="#b43f3f" cx="604.397" cy="-90" rx="36.2938" ry="18"/>
<text text-anchor="middle" x="604.397" y="-86.3" font-family="Times,serif" font-size="14.00">030 (a)</text>
</g>
<!-- 07/2 (a)&#45;&gt;030 (a) -->
<g id="edge9" class="edge"><title>07/2 (a)&#45;&gt;030 (a)</title>
<path fill="none" stroke="black" d="M432.069,-150.394C438.125,-148.256 444.461,-146.04 450.397,-144 498.246,-127.554 510.661,-124.772 558.397,-108 561.108,-107.047 563.904,-106.051 566.714,-105.038"/>
<polygon fill="black" stroke="black" points="568.031,-108.283 576.229,-101.573 565.635,-101.706 568.031,-108.283"/>
</g>
<!-- 03 (a) -->
<g id="node15" class="node"><title>03 (a)</title>
<ellipse fill="#ff8a8a" stroke="#b43f3f" cx="316.397" cy="-306" rx="31.6951" ry="18"/>
<text text-anchor="middle" x="316.397" y="-302.3" font-family="Times,serif" font-size="14.00">03 (a)</text>
</g>
<!-- 03 (a)&#45;&gt;032 (a) -->
<g id="edge11" class="edge"><title>03 (a)&#45;&gt;032 (a)</title>
<path fill="none" stroke="black" d="M298.993,-290.834C286.881,-280.976 270.509,-267.649 256.797,-256.488"/>
<polygon fill="black" stroke="black" points="258.63,-253.468 248.665,-249.869 254.211,-258.897 258.63,-253.468"/>
</g>
<!-- 03 (a)&#45;&gt;02 (a) -->
<g id="edge13" class="edge"><title>03 (a)&#45;&gt;02 (a)</title>
<path fill="none" stroke="black" d="M316.397,-287.697C316.397,-279.983 316.397,-270.712 316.397,-262.112"/>
<polygon fill="black" stroke="black" points="319.897,-262.104 316.397,-252.104 312.897,-262.104 319.897,-262.104"/>
</g>
<!-- 044 (a) -->
<g id="node24" class="node"><title>044 (a)</title>
<ellipse fill="#ff8a8a" stroke="#b43f3f" cx="402.397" cy="-234" rx="36.2938" ry="18"/>
<text text-anchor="middle" x="402.397" y="-230.3" font-family="Times,serif" font-size="14.00">044 (a)</text>
</g>
<!-- 03 (a)&#45;&gt;044 (a) -->
<g id="edge12" class="edge"><title>03 (a)&#45;&gt;044 (a)</title>
<path fill="none" stroke="black" d="M333.8,-290.834C345.912,-280.976 362.285,-267.649 375.997,-256.488"/>
<polygon fill="black" stroke="black" points="378.583,-258.897 384.129,-249.869 374.164,-253.468 378.583,-258.897"/>
</g>
<!-- 022 (a) -->
<g id="node16" class="node"><title>022 (a)</title>
<ellipse fill="#ff8a8a" stroke="#b43f3f" cx="495.397" cy="-162" rx="36.2938" ry="18"/>
<text text-anchor="middle" x="495.397" y="-158.3" font-family="Times,serif" font-size="14.00">022 (a)</text>
</g>
<!-- 022 (a)&#45;&gt;031/2 (a) -->
<g id="edge14" class="edge"><title>022 (a)&#45;&gt;031/2 (a)</title>
<path fill="none" stroke="black" d="M523.414,-150.202C529.022,-148.101 534.885,-145.947 540.397,-144 551.811,-139.967 615.074,-119.22 658.813,-104.913"/>
<polygon fill="black" stroke="black" points="659.954,-108.222 668.371,-101.787 657.778,-101.569 659.954,-108.222"/>
</g>
<!-- 011/2 (a) -->
<g id="node18" class="node"><title>011/2 (a)</title>
<ellipse fill="#ff8a8a" stroke="#b43f3f" cx="592.397" cy="-162" rx="42.7926" ry="18"/>
<text text-anchor="middle" x="592.397" y="-158.3" font-family="Times,serif" font-size="14.00">011/2 (a)</text>
</g>
<!-- 019 (b) -->
<g id="node19" class="node"><title>019 (b)</title>
<ellipse fill="#cea8f4" stroke="#835da9" cx="591.397" cy="-306" rx="36.2938" ry="18"/>
<text text-anchor="middle" x="591.397" y="-302.3" font-family="Times,serif" font-size="14.00">019 (b)</text>
</g>
<!-- 0141 (a) -->
<g id="node20" class="node"><title>0141 (a)</title>
<ellipse fill="#ff8a8a" stroke="#b43f3f" cx="693.397" cy="-162" rx="40.0939" ry="18"/>
<text text-anchor="middle" x="693.397" y="-158.3" font-family="Times,serif" font-size="14.00">0141 (a)</text>
</g>
<!-- 044 (a)&#45;&gt;045/2 (a) -->
<g id="edge20" class="edge"><title>044 (a)&#45;&gt;045/2 (a)</title>
<path fill="none" stroke="black" d="M375.081,-221.667C369.311,-219.561 363.209,-217.541 357.397,-216 258.66,-189.814 230.965,-197.908 130.397,-180 117.988,-177.79 104.608,-175.232 92.1842,-172.78"/>
<polygon fill="black" stroke="black" points="92.5056,-169.276 82.0148,-170.757 91.1394,-176.141 92.5056,-169.276"/>
</g>
<!-- 044 (a)&#45;&gt;028/2 (a) -->
<g id="edge17" class="edge"><title>044 (a)&#45;&gt;028/2 (a)</title>
<path fill="none" stroke="black" d="M374.43,-222.056C368.817,-219.967 362.94,-217.855 357.397,-216 303.382,-197.922 288.807,-196.852 234.397,-180 231.267,-179.031 228.036,-178.014 224.788,-176.98"/>
<polygon fill="black" stroke="black" points="225.671,-173.587 215.079,-173.857 223.527,-180.251 225.671,-173.587"/>
</g>
<!-- 044 (a)&#45;&gt;021/2 (a) -->
<g id="edge16" class="edge"><title>044 (a)&#45;&gt;021/2 (a)</title>
<path fill="none" stroke="black" d="M380.305,-219.669C362.862,-209.143 338.274,-194.305 318.634,-182.453"/>
<polygon fill="black" stroke="black" points="320.371,-179.414 310.001,-177.244 316.755,-185.407 320.371,-179.414"/>
</g>
<!-- 044 (a)&#45;&gt;07/2 (a) -->
<g id="edge15" class="edge"><title>044 (a)&#45;&gt;07/2 (a)</title>
<path fill="none" stroke="black" d="M402.397,-215.697C402.397,-207.983 402.397,-198.712 402.397,-190.112"/>
<polygon fill="black" stroke="black" points="405.897,-190.104 402.397,-180.104 398.897,-190.104 405.897,-190.104"/>
</g>
<!-- 044 (a)&#45;&gt;022 (a) -->
<g id="edge21" class="edge"><title>044 (a)&#45;&gt;022 (a)</title>
<path fill="none" stroke="black" d="M421.666,-218.496C435.009,-208.453 452.97,-194.934 467.823,-183.754"/>
<polygon fill="black" stroke="black" points="470.267,-186.296 476.152,-177.485 466.057,-180.703 470.267,-186.296"/>
</g>
<!-- 044 (a)&#45;&gt;011/2 (a) -->
<g id="edge19" class="edge"><title>044 (a)&#45;&gt;011/2 (a)</title>
<path fill="none" stroke="black" d="M430.465,-222.343C436.069,-220.23 441.917,-218.036 447.397,-216 482.496,-202.956 522.47,-188.364 551.545,-177.799"/>
<polygon fill="black" stroke="black" points="552.76,-181.082 560.964,-174.379 550.37,-174.502 552.76,-181.082"/>
</g>
<!-- 044 (a)&#45;&gt;0141 (a) -->
<g id="edge18" class="edge"><title>044 (a)&#45;&gt;0141 (a)</title>
<path fill="none" stroke="black" d="M429.741,-221.772C435.509,-219.658 441.603,-217.61 447.397,-216 533.154,-192.176 558.322,-202.653 644.397,-180 647.532,-179.175 650.754,-178.246 653.977,-177.258"/>
<polygon fill="black" stroke="black" points="655.119,-180.567 663.561,-174.165 652.97,-173.905 655.119,-180.567"/>
</g>
</g>
</svg>
