<?xml version="1.0" encoding="UTF-8" standalone="no"?>
<!DOCTYPE svg PUBLIC "-//W3C//DTD SVG 1.1//EN"
 "http://www.w3.org/Graphics/SVG/1.1/DTD/svg11.dtd">
<!-- Generated by graphviz version 2.38.0 (20140413.2041)
 -->
<!-- Title: %3 Pages: 1 -->
<svg width="793pt" height="495pt"
 viewBox="0.00 0.00 792.79 495.00" xmlns="http://www.w3.org/2000/svg" xmlns:xlink="http://www.w3.org/1999/xlink">
<g id="graph0" class="graph" transform="scale(1 1) rotate(0) translate(4 491)">
<title>%3</title>
<polygon fill="white" stroke="none" points="-4,4 -4,-491 788.794,-491 788.794,4 -4,4"/>
<g id="clust1" class="cluster"><title>cluster_legend</title>
<path fill="none" stroke="black" d="M236.397,-351C236.397,-351 426.397,-351 426.397,-351 432.397,-351 438.397,-357 438.397,-363 438.397,-363 438.397,-467 438.397,-467 438.397,-473 432.397,-479 426.397,-479 426.397,-479 236.397,-479 236.397,-479 230.397,-479 224.397,-473 224.397,-467 224.397,-467 224.397,-363 224.397,-363 224.397,-357 230.397,-351 236.397,-351"/>
</g>
<!-- leg_s -->
<g id="node1" class="node"><title>leg_s</title>
<text text-anchor="middle" x="331.397" y="-449.3" font-family="Times,serif" font-size="14.00">Textual flow strength</text>
</g>
<!-- leg_e1 -->
<!-- leg_s&#45;&gt;leg_e1 -->
<g id="edge1" class="edge"><title>leg_s&#45;&gt;leg_e1</title>
<path fill="none" stroke="black" stroke-dasharray="1,5" d="M313.062,-434.686C307.529,-429.194 301.557,-422.989 296.397,-417 286.568,-405.593 276.469,-391.779 269.31,-381.563"/>
<polygon fill="black" stroke="black" points="272.011,-379.314 263.453,-373.068 266.248,-383.288 272.011,-379.314"/>
<text text-anchor="middle" x="311.897" y="-405.8" font-family="Times,serif" font-size="14.00">&lt;=5 &#160;</text>
</g>
<!-- leg_e2 -->
<!-- leg_s&#45;&gt;leg_e2 -->
<g id="edge2" class="edge"><title>leg_s&#45;&gt;leg_e2</title>
<path fill="none" stroke="black" stroke-dasharray="5,2" d="M331.397,-434.799C331.397,-419.794 331.397,-398.174 331.397,-383.409"/>
<polygon fill="black" stroke="black" points="334.897,-383.293 331.397,-373.293 327.897,-383.293 334.897,-383.293"/>
<text text-anchor="middle" x="350.397" y="-405.8" font-family="Times,serif" font-size="14.00"> &#160;&lt;=25</text>
</g>
<!-- leg_e3 -->
<!-- leg_s&#45;&gt;leg_e3 -->
<g id="edge3" class="edge"><title>leg_s&#45;&gt;leg_e3</title>
<path fill="none" stroke="black" d="M354.9,-434.76C361.303,-429.462 367.963,-423.344 373.397,-417 382.484,-406.39 390.492,-392.689 395.943,-382.313"/>
<polygon fill="black" stroke="black" points="399.119,-383.789 400.488,-373.283 392.866,-380.642 399.119,-383.789"/>
<text text-anchor="middle" x="395.397" y="-405.8" font-family="Times,serif" font-size="14.00">&gt;25</text>
</g>
<!-- A -->
<g id="node5" class="node"><title>A</title>
<ellipse fill="#ff8a8a" stroke="#b43f3f" cx="611.397" cy="-453" rx="29.4969" ry="18"/>
<text text-anchor="middle" x="611.397" y="-449.3" font-family="Times,serif" font-size="14.00">A (a)</text>
</g>
<!-- 03 -->
<g id="node6" class="node"><title>03</title>
<ellipse fill="#ff8a8a" stroke="#b43f3f" cx="480.397" cy="-366" rx="31.6951" ry="18"/>
<text text-anchor="middle" x="480.397" y="-362.3" font-family="Times,serif" font-size="14.00">03 (a)</text>
</g>
<!-- A&#45;&gt;03 -->
<g id="edge4" class="edge"><title>A&#45;&gt;03</title>
<path fill="none" stroke="#b43f3f" stroke-dasharray="1,5" d="M585.029,-444.695C567.17,-438.956 543.601,-429.784 525.397,-417 515.299,-409.909 505.871,-400.154 498.28,-391.142"/>
<polygon fill="#b43f3f" stroke="#b43f3f" points="500.858,-388.764 491.859,-383.173 495.408,-393.156 500.858,-388.764"/>
<text text-anchor="middle" x="547.397" y="-405.8" font-family="Times,serif" font-size="14.00">1 (93.3)</text>
</g>
<!-- 019 -->
<g id="node7" class="node"><title>019</title>
<ellipse fill="#ff8a8a" stroke="#b43f3f" cx="566.397" cy="-366" rx="36.2938" ry="18"/>
<text text-anchor="middle" x="566.397" y="-362.3" font-family="Times,serif" font-size="14.00">019 (a)</text>
</g>
<!-- A&#45;&gt;019 -->
<g id="edge5" class="edge"><title>A&#45;&gt;019</title>
<path fill="none" stroke="#b43f3f" stroke-dasharray="1,5" d="M595.271,-437.594C589.531,-431.712 583.483,-424.525 579.397,-417 575.528,-409.876 572.77,-401.549 570.822,-393.757"/>
<polygon fill="#b43f3f" stroke="#b43f3f" points="574.239,-393 568.7,-383.968 567.398,-394.482 574.239,-393"/>
<text text-anchor="middle" x="601.397" y="-405.8" font-family="Times,serif" font-size="14.00">1 (93.3)</text>
</g>
<!-- 091 -->
<g id="node8" class="node"><title>091</title>
<ellipse fill="#ff8a8a" stroke="#b43f3f" cx="657.397" cy="-366" rx="36.2938" ry="18"/>
<text text-anchor="middle" x="657.397" y="-362.3" font-family="Times,serif" font-size="14.00">091 (a)</text>
</g>
<!-- A&#45;&gt;091 -->
<g id="edge6" class="edge"><title>A&#45;&gt;091</title>
<path fill="none" stroke="#b43f3f" stroke-dasharray="1,5" d="M620.266,-435.611C626.842,-423.46 635.934,-406.66 643.475,-392.725"/>
<polygon fill="#b43f3f" stroke="#b43f3f" points="646.716,-394.089 648.398,-383.629 640.56,-390.757 646.716,-394.089"/>
<text text-anchor="middle" x="659.397" y="-405.8" font-family="Times,serif" font-size="14.00">1 (87.5)</text>
</g>
<!-- P75 -->
<g id="node9" class="node"><title>P75</title>
<ellipse fill="#ff8a8a" stroke="#b43f3f" cx="748.397" cy="-366" rx="36.2938" ry="18"/>
<text text-anchor="middle" x="748.397" y="-362.3" font-family="Times,serif" font-size="14.00">P75 (a)</text>
</g>
<!-- A&#45;&gt;P75 -->
<g id="edge7" class="edge"><title>A&#45;&gt;P75</title>
<path fill="none" stroke="#b43f3f" stroke-dasharray="1,5" d="M635.114,-442.437C649.999,-436.038 669.345,-426.981 685.397,-417 698.755,-408.693 712.557,-398.014 723.825,-388.66"/>
<polygon fill="#b43f3f" stroke="#b43f3f" points="726.164,-391.266 731.539,-382.136 721.644,-385.921 726.164,-391.266"/>
<text text-anchor="middle" x="727.397" y="-405.8" font-family="Times,serif" font-size="14.00">1 (93.3)</text>
</g>
<!-- 044 -->
<g id="node10" class="node"><title>044</title>
<ellipse fill="#ff8a8a" stroke="#b43f3f" cx="394.397" cy="-279" rx="36.2938" ry="18"/>
<text text-anchor="middle" x="394.397" y="-275.3" font-family="Times,serif" font-size="14.00">044 (a)</text>
</g>
<!-- 03&#45;&gt;044 -->
<g id="edge8" class="edge"><title>03&#45;&gt;044</title>
<path fill="none" stroke="#b43f3f" stroke-dasharray="1,5" d="M459.75,-351.912C450.864,-345.796 440.645,-338.086 432.397,-330 424.572,-322.329 417.035,-312.975 410.765,-304.442"/>
<polygon fill="#b43f3f" stroke="#b43f3f" points="413.603,-302.394 404.954,-296.275 407.899,-306.452 413.603,-302.394"/>
<text text-anchor="middle" x="454.397" y="-318.8" font-family="Times,serif" font-size="14.00">1 (89.2)</text>
</g>
<!-- 02 -->
<g id="node11" class="node"><title>02</title>
<ellipse fill="#ff8a8a" stroke="#b43f3f" cx="480.397" cy="-279" rx="31.6951" ry="18"/>
<text text-anchor="middle" x="480.397" y="-275.3" font-family="Times,serif" font-size="14.00">02 (a)</text>
</g>
<!-- 03&#45;&gt;02 -->
<g id="edge9" class="edge"><title>03&#45;&gt;02</title>
<path fill="none" stroke="#b43f3f" stroke-dasharray="1,5" d="M480.397,-347.799C480.397,-336.163 480.397,-320.548 480.397,-307.237"/>
<polygon fill="#b43f3f" stroke="#b43f3f" points="483.897,-307.175 480.397,-297.175 476.897,-307.175 483.897,-307.175"/>
<text text-anchor="middle" x="502.397" y="-318.8" font-family="Times,serif" font-size="14.00">1 (86.5)</text>
</g>
<!-- 032 -->
<g id="node12" class="node"><title>032</title>
<ellipse fill="#ff8a8a" stroke="#b43f3f" cx="566.397" cy="-279" rx="36.2938" ry="18"/>
<text text-anchor="middle" x="566.397" y="-275.3" font-family="Times,serif" font-size="14.00">032 (a)</text>
</g>
<!-- 03&#45;&gt;032 -->
<g id="edge10" class="edge"><title>03&#45;&gt;032</title>
<path fill="none" stroke="#b43f3f" stroke-dasharray="1,5" d="M501.044,-351.912C509.93,-345.796 520.148,-338.086 528.397,-330 536.221,-322.329 543.759,-312.975 550.029,-304.442"/>
<polygon fill="#b43f3f" stroke="#b43f3f" points="552.894,-306.452 555.84,-296.275 547.191,-302.394 552.894,-306.452"/>
<text text-anchor="middle" x="563.397" y="-318.8" font-family="Times,serif" font-size="14.00">1 (91.7)</text>
</g>
<!-- 05 -->
<g id="node28" class="node"><title>05</title>
<ellipse fill="#ff8a8a" stroke="#b43f3f" cx="654.397" cy="-279" rx="31.6951" ry="18"/>
<text text-anchor="middle" x="654.397" y="-275.3" font-family="Times,serif" font-size="14.00">05 (a)</text>
</g>
<!-- 091&#45;&gt;05 -->
<g id="edge26" class="edge"><title>091&#45;&gt;05</title>
<path fill="none" stroke="#b43f3f" stroke-dasharray="1,5" d="M656.79,-347.799C656.379,-336.163 655.828,-320.548 655.358,-307.237"/>
<polygon fill="#b43f3f" stroke="#b43f3f" points="658.854,-307.046 655.003,-297.175 651.858,-307.293 658.854,-307.046"/>
<text text-anchor="middle" x="678.397" y="-318.8" font-family="Times,serif" font-size="14.00">1 (87.5)</text>
</g>
<!-- 0211 -->
<g id="node29" class="node"><title>0211</title>
<ellipse fill="#ff8a8a" stroke="#b43f3f" cx="744.397" cy="-279" rx="40.0939" ry="18"/>
<text text-anchor="middle" x="744.397" y="-275.3" font-family="Times,serif" font-size="14.00">0211 (a)</text>
</g>
<!-- 091&#45;&gt;0211 -->
<g id="edge27" class="edge"><title>091&#45;&gt;0211</title>
<path fill="none" stroke="#b43f3f" stroke-dasharray="1,5" d="M678.436,-351.086C686.894,-345.056 696.494,-337.634 704.397,-330 712.312,-322.354 720.088,-313.144 726.648,-304.723"/>
<polygon fill="#b43f3f" stroke="#b43f3f" points="729.513,-306.737 732.763,-296.653 723.934,-302.51 729.513,-306.737"/>
<text text-anchor="middle" x="740.397" y="-318.8" font-family="Times,serif" font-size="14.00">1 (83.3)</text>
</g>
<!-- 045 -->
<g id="node13" class="node"><title>045</title>
<ellipse fill="#ff8a8a" stroke="#b43f3f" cx="85.3968" cy="-192" rx="36.2938" ry="18"/>
<text text-anchor="middle" x="85.3968" y="-188.3" font-family="Times,serif" font-size="14.00">045 (a)</text>
</g>
<!-- 044&#45;&gt;045 -->
<g id="edge11" class="edge"><title>044&#45;&gt;045</title>
<path fill="none" stroke="#b43f3f" stroke-dasharray="1,5" d="M359.861,-273C323.693,-267.348 265.44,-257.07 216.397,-243 183.614,-233.595 147.478,-219.509 121.478,-208.682"/>
<polygon fill="#b43f3f" stroke="#b43f3f" points="122.612,-205.362 112.037,-204.709 119.896,-211.814 122.612,-205.362"/>
<text text-anchor="middle" x="238.397" y="-231.8" font-family="Times,serif" font-size="14.00">2 (81.1)</text>
</g>
<!-- 011 -->
<g id="node14" class="node"><title>011</title>
<ellipse fill="#ff8a8a" stroke="#b43f3f" cx="222.397" cy="-192" rx="36.2938" ry="18"/>
<text text-anchor="middle" x="222.397" y="-188.3" font-family="Times,serif" font-size="14.00">011 (a)</text>
</g>
<!-- 044&#45;&gt;011 -->
<g id="edge12" class="edge"><title>044&#45;&gt;011</title>
<path fill="none" stroke="#b43f3f" stroke-dasharray="1,5" d="M362.023,-270.68C339.925,-264.934 310.418,-255.76 286.397,-243 272.168,-235.442 257.891,-224.669 246.443,-215.058"/>
<polygon fill="#b43f3f" stroke="#b43f3f" points="248.505,-212.214 238.648,-208.327 243.93,-217.512 248.505,-212.214"/>
<text text-anchor="middle" x="308.397" y="-231.8" font-family="Times,serif" font-size="14.00">2 (86.5)</text>
</g>
<!-- 07 -->
<g id="node15" class="node"><title>07</title>
<ellipse fill="#ff8a8a" stroke="#b43f3f" cx="308.397" cy="-192" rx="31.6951" ry="18"/>
<text text-anchor="middle" x="308.397" y="-188.3" font-family="Times,serif" font-size="14.00">07 (a)</text>
</g>
<!-- 044&#45;&gt;07 -->
<g id="edge13" class="edge"><title>044&#45;&gt;07</title>
<path fill="none" stroke="#b43f3f" stroke-dasharray="1,5" d="M372.793,-264.25C364.136,-258.245 354.351,-250.798 346.397,-243 338.572,-235.329 331.035,-225.975 324.765,-217.442"/>
<polygon fill="#b43f3f" stroke="#b43f3f" points="327.603,-215.394 318.954,-209.275 321.899,-219.452 327.603,-215.394"/>
<text text-anchor="middle" x="368.397" y="-231.8" font-family="Times,serif" font-size="14.00">2 (83.8)</text>
</g>
<!-- 028 -->
<g id="node16" class="node"><title>028</title>
<ellipse fill="#ff8a8a" stroke="#b43f3f" cx="394.397" cy="-192" rx="36.2938" ry="18"/>
<text text-anchor="middle" x="394.397" y="-188.3" font-family="Times,serif" font-size="14.00">028 (a)</text>
</g>
<!-- 044&#45;&gt;028 -->
<g id="edge14" class="edge"><title>044&#45;&gt;028</title>
<path fill="none" stroke="#b43f3f" stroke-dasharray="1,5" d="M394.397,-260.799C394.397,-249.163 394.397,-233.548 394.397,-220.237"/>
<polygon fill="#b43f3f" stroke="#b43f3f" points="397.897,-220.175 394.397,-210.175 390.897,-220.175 397.897,-220.175"/>
<text text-anchor="middle" x="416.397" y="-231.8" font-family="Times,serif" font-size="14.00">2 (81.1)</text>
</g>
<!-- 0141 -->
<g id="node17" class="node"><title>0141</title>
<ellipse fill="#ff8a8a" stroke="#b43f3f" cx="489.397" cy="-192" rx="40.0939" ry="18"/>
<text text-anchor="middle" x="489.397" y="-188.3" font-family="Times,serif" font-size="14.00">0141 (a)</text>
</g>
<!-- 044&#45;&gt;0141 -->
<g id="edge15" class="edge"><title>044&#45;&gt;0141</title>
<path fill="none" stroke="#b43f3f" stroke-dasharray="1,5" d="M415.127,-264.159C423.833,-258.025 433.891,-250.508 442.397,-243 451.56,-234.911 460.927,-225.276 468.863,-216.632"/>
<polygon fill="#b43f3f" stroke="#b43f3f" points="471.606,-218.816 475.702,-209.045 466.407,-214.129 471.606,-218.816"/>
<text text-anchor="middle" x="480.397" y="-231.8" font-family="Times,serif" font-size="14.00">1 (89.2)</text>
</g>
<!-- 021 -->
<g id="node18" class="node"><title>021</title>
<ellipse fill="#ff8a8a" stroke="#b43f3f" cx="584.397" cy="-192" rx="36.2938" ry="18"/>
<text text-anchor="middle" x="584.397" y="-188.3" font-family="Times,serif" font-size="14.00">021 (a)</text>
</g>
<!-- 044&#45;&gt;021 -->
<g id="edge16" class="edge"><title>044&#45;&gt;021</title>
<path fill="none" stroke="#b43f3f" stroke-dasharray="1,5" d="M421.851,-267.137C427.61,-264.997 433.674,-262.845 439.397,-261 468.743,-251.54 478.196,-255.467 506.397,-243 524.184,-235.137 542.568,-223.548 557.018,-213.507"/>
<polygon fill="#b43f3f" stroke="#b43f3f" points="559.343,-216.148 565.466,-207.502 555.288,-210.443 559.343,-216.148"/>
<text text-anchor="middle" x="555.397" y="-231.8" font-family="Times,serif" font-size="14.00">2 (83.8)</text>
</g>
<!-- 022 -->
<g id="node19" class="node"><title>022</title>
<ellipse fill="#ff8a8a" stroke="#b43f3f" cx="675.397" cy="-192" rx="36.2938" ry="18"/>
<text text-anchor="middle" x="675.397" y="-188.3" font-family="Times,serif" font-size="14.00">022 (a)</text>
</g>
<!-- 044&#45;&gt;022 -->
<g id="edge17" class="edge"><title>044&#45;&gt;022</title>
<path fill="none" stroke="#b43f3f" stroke-dasharray="1,5" d="M421.196,-266.701C427.109,-264.54 433.399,-262.491 439.397,-261 501.134,-245.653 520.764,-262.253 581.397,-243 604.201,-235.759 627.975,-223.058 645.909,-212.269"/>
<polygon fill="#b43f3f" stroke="#b43f3f" points="648.042,-215.067 654.719,-206.841 644.37,-209.107 648.042,-215.067"/>
<text text-anchor="middle" x="639.397" y="-231.8" font-family="Times,serif" font-size="14.00">1 (91.7)</text>
</g>
<!-- 038 -->
<g id="node20" class="node"><title>038</title>
<ellipse fill="#cea8f4" stroke="#835da9" cx="36.3968" cy="-105" rx="36.2938" ry="18"/>
<text text-anchor="middle" x="36.3968" y="-101.3" font-family="Times,serif" font-size="14.00">038 (b)</text>
</g>
<!-- 045&#45;&gt;038 -->
<g id="edge18" class="edge"><title>045&#45;&gt;038</title>
<path fill="none" stroke="#835da9" stroke-dasharray="1,5" d="M73.6881,-174.921C69.6166,-169.077 65.1364,-162.348 61.3968,-156 56.9141,-148.391 52.4594,-139.873 48.5791,-132.055"/>
<polygon fill="#835da9" stroke="#835da9" points="51.6852,-130.438 44.1678,-122.972 45.3886,-133.497 51.6852,-130.438"/>
<text text-anchor="middle" x="83.3968" y="-144.8" font-family="Times,serif" font-size="14.00">1 (92.7)</text>
</g>
<!-- 034 -->
<g id="node21" class="node"><title>034</title>
<ellipse fill="#ff8a8a" stroke="#b43f3f" cx="127.397" cy="-105" rx="36.2938" ry="18"/>
<text text-anchor="middle" x="127.397" y="-101.3" font-family="Times,serif" font-size="14.00">034 (a)</text>
</g>
<!-- 07&#45;&gt;034 -->
<g id="edge19" class="edge"><title>07&#45;&gt;034</title>
<path fill="none" stroke="#b43f3f" stroke-dasharray="1,5" d="M283.88,-180.224C278.499,-178.031 272.795,-175.836 267.397,-174 238.204,-164.074 228.404,-168.896 200.397,-156 183.8,-148.358 166.867,-137.024 153.492,-127.077"/>
<polygon fill="#b43f3f" stroke="#b43f3f" points="155.33,-124.077 145.257,-120.795 151.084,-129.643 155.33,-124.077"/>
<text text-anchor="middle" x="222.397" y="-144.8" font-family="Times,serif" font-size="14.00">1 (95.1)</text>
</g>
<!-- 017 -->
<g id="node22" class="node"><title>017</title>
<ellipse fill="#ff8a8a" stroke="#b43f3f" cx="218.397" cy="-105" rx="36.2938" ry="18"/>
<text text-anchor="middle" x="218.397" y="-101.3" font-family="Times,serif" font-size="14.00">017 (a)</text>
</g>
<!-- 07&#45;&gt;017 -->
<g id="edge20" class="edge"><title>07&#45;&gt;017</title>
<path fill="none" stroke="#b43f3f" stroke-dasharray="1,5" d="M288.425,-177.611C279.77,-171.44 269.732,-163.769 261.397,-156 252.892,-148.073 244.369,-138.567 237.18,-129.983"/>
<polygon fill="#b43f3f" stroke="#b43f3f" points="239.783,-127.637 230.74,-122.116 234.366,-132.071 239.783,-127.637"/>
<text text-anchor="middle" x="283.397" y="-144.8" font-family="Times,serif" font-size="14.00">2 (92.7)</text>
</g>
<!-- 030 -->
<g id="node23" class="node"><title>030</title>
<ellipse fill="#ff8a8a" stroke="#b43f3f" cx="309.397" cy="-105" rx="36.2938" ry="18"/>
<text text-anchor="middle" x="309.397" y="-101.3" font-family="Times,serif" font-size="14.00">030 (a)</text>
</g>
<!-- 07&#45;&gt;030 -->
<g id="edge21" class="edge"><title>07&#45;&gt;030</title>
<path fill="none" stroke="#b43f3f" stroke-dasharray="1,5" d="M308.599,-173.799C308.736,-162.163 308.92,-146.548 309.076,-133.237"/>
<polygon fill="#b43f3f" stroke="#b43f3f" points="312.577,-133.216 309.195,-123.175 305.577,-133.134 312.577,-133.216"/>
<text text-anchor="middle" x="331.397" y="-144.8" font-family="Times,serif" font-size="14.00">1 (95.1)</text>
</g>
<!-- 037 -->
<g id="node24" class="node"><title>037</title>
<ellipse fill="#ff8a8a" stroke="#b43f3f" cx="400.397" cy="-105" rx="36.2938" ry="18"/>
<text text-anchor="middle" x="400.397" y="-101.3" font-family="Times,serif" font-size="14.00">037 (a)</text>
</g>
<!-- 07&#45;&gt;037 -->
<g id="edge22" class="edge"><title>07&#45;&gt;037</title>
<path fill="none" stroke="#b43f3f" stroke-dasharray="1,5" d="M328.78,-178.061C337.92,-171.859 348.599,-164.039 357.397,-156 365.979,-148.157 374.519,-138.669 381.699,-130.075"/>
<polygon fill="#b43f3f" stroke="#b43f3f" points="384.519,-132.155 388.124,-122.192 379.093,-127.733 384.519,-132.155"/>
<text text-anchor="middle" x="394.397" y="-144.8" font-family="Times,serif" font-size="14.00">1 (97.5)</text>
</g>
<!-- 013 -->
<g id="node25" class="node"><title>013</title>
<ellipse fill="#72fe95" stroke="#27b34a" cx="491.397" cy="-105" rx="36.2938" ry="18"/>
<text text-anchor="middle" x="491.397" y="-101.3" font-family="Times,serif" font-size="14.00">013 (c)</text>
</g>
<!-- 07&#45;&gt;013 -->
<g id="edge23" class="edge"><title>07&#45;&gt;013</title>
<path fill="none" stroke="#27b34a" stroke-dasharray="1,5" d="M332.894,-180.166C338.276,-177.976 343.985,-175.797 349.397,-174 380.291,-163.739 390.819,-169.598 420.397,-156 436.69,-148.509 453.17,-137.186 466.146,-127.207"/>
<polygon fill="#27b34a" stroke="#27b34a" points="468.454,-129.845 474.13,-120.899 464.114,-124.352 468.454,-129.845"/>
<text text-anchor="middle" x="467.397" y="-144.8" font-family="Times,serif" font-size="14.00">2 (95.1)</text>
</g>
<!-- 036 -->
<g id="node26" class="node"><title>036</title>
<ellipse fill="#ff8a8a" stroke="#b43f3f" cx="583.397" cy="-105" rx="36.2938" ry="18"/>
<text text-anchor="middle" x="583.397" y="-101.3" font-family="Times,serif" font-size="14.00">036 (a)</text>
</g>
<!-- 021&#45;&gt;036 -->
<g id="edge24" class="edge"><title>021&#45;&gt;036</title>
<path fill="none" stroke="#b43f3f" stroke-dasharray="1,5" d="M584.194,-173.799C584.058,-162.163 583.874,-146.548 583.717,-133.237"/>
<polygon fill="#b43f3f" stroke="#b43f3f" points="587.216,-133.134 583.599,-123.175 580.217,-133.216 587.216,-133.134"/>
<text text-anchor="middle" x="606.397" y="-144.8" font-family="Times,serif" font-size="14.00">1 (97.6)</text>
</g>
<!-- 047 -->
<g id="node27" class="node"><title>047</title>
<ellipse fill="#ff8a8a" stroke="#b43f3f" cx="674.397" cy="-105" rx="36.2938" ry="18"/>
<text text-anchor="middle" x="674.397" y="-101.3" font-family="Times,serif" font-size="14.00">047 (a)</text>
</g>
<!-- 021&#45;&gt;047 -->
<g id="edge25" class="edge"><title>021&#45;&gt;047</title>
<path fill="none" stroke="#b43f3f" stroke-dasharray="1,5" d="M605.812,-177.054C614.44,-171.018 624.255,-163.601 632.397,-156 640.811,-148.144 649.159,-138.653 656.169,-130.06"/>
<polygon fill="#b43f3f" stroke="#b43f3f" points="658.951,-132.185 662.438,-122.18 653.473,-127.827 658.951,-132.185"/>
<text text-anchor="middle" x="668.397" y="-144.8" font-family="Times,serif" font-size="14.00">1 (95.1)</text>
</g>
<!-- 01 -->
<g id="node30" class="node"><title>01</title>
<ellipse fill="#cea8f4" stroke="#835da9" cx="36.3968" cy="-18" rx="32.4942" ry="18"/>
<text text-anchor="middle" x="36.3968" y="-14.3" font-family="Times,serif" font-size="14.00">01 (b)</text>
</g>
<!-- 038&#45;&gt;01 -->
<g id="edge28" class="edge"><title>038&#45;&gt;01</title>
<path fill="none" stroke="#835da9" stroke-dasharray="1,5" d="M36.3968,-86.799C36.3968,-75.1626 36.3968,-59.5479 36.3968,-46.2368"/>
<polygon fill="#835da9" stroke="#835da9" points="39.8969,-46.1754 36.3968,-36.1754 32.8969,-46.1755 39.8969,-46.1754"/>
<text text-anchor="middle" x="58.3968" y="-57.8" font-family="Times,serif" font-size="14.00">4 (44.7)</text>
</g>
</g>
</svg>
