<?xml version="1.0" encoding="UTF-8" standalone="no"?>
<!DOCTYPE svg PUBLIC "-//W3C//DTD SVG 1.1//EN"
 "http://www.w3.org/Graphics/SVG/1.1/DTD/svg11.dtd">
<!-- Generated by graphviz version 2.38.0 (20140413.2041)
 -->
<!-- Title: G Pages: 1 -->
<svg width="1478pt" height="188pt"
 viewBox="0.00 0.00 1477.79 188.00" xmlns="http://www.w3.org/2000/svg" xmlns:xlink="http://www.w3.org/1999/xlink">
<g id="graph0" class="graph" transform="scale(1 1) rotate(0) translate(4 184)">
<title>G</title>
<polygon fill="white" stroke="none" points="-4,4 -4,-184 1473.79,-184 1473.79,4 -4,4"/>
<!-- 038 (a) -->
<g id="node1" class="node"><title>038 (a)</title>
<ellipse fill="#ff8a8a" stroke="#b43f3f" cx="636.397" cy="-18" rx="36.2938" ry="18"/>
<text text-anchor="middle" x="636.397" y="-14.3" font-family="Times,serif" font-size="14.00">038 (a)</text>
</g>
<!-- 034 (a) -->
<g id="node2" class="node"><title>034 (a)</title>
<ellipse fill="#ff8a8a" stroke="#b43f3f" cx="250.397" cy="-18" rx="36.2938" ry="18"/>
<text text-anchor="middle" x="250.397" y="-14.3" font-family="Times,serif" font-size="14.00">034 (a)</text>
</g>
<!-- 021/3 (d) -->
<g id="node3" class="node"><title>021/3 (d)</title>
<ellipse fill="#ff86c2" stroke="#b43b77" cx="803.397" cy="-90" rx="43.5923" ry="18"/>
<text text-anchor="middle" x="803.397" y="-86.3" font-family="Times,serif" font-size="14.00">021/3 (d)</text>
</g>
<!-- 036 (d) -->
<g id="node5" class="node"><title>036 (d)</title>
<ellipse fill="#ff86c2" stroke="#b43b77" cx="778.397" cy="-18" rx="36.2938" ry="18"/>
<text text-anchor="middle" x="778.397" y="-14.3" font-family="Times,serif" font-size="14.00">036 (d)</text>
</g>
<!-- 021/3 (d)&#45;&gt;036 (d) -->
<g id="edge1" class="edge"><title>021/3 (d)&#45;&gt;036 (d)</title>
<path fill="none" stroke="black" d="M797.345,-72.055C794.489,-64.0586 791.015,-54.3308 787.825,-45.3995"/>
<polygon fill="black" stroke="black" points="791.052,-44.0292 784.393,-35.789 784.46,-46.3836 791.052,-44.0292"/>
</g>
<!-- 047 (d) -->
<g id="node13" class="node"><title>047 (d)</title>
<ellipse fill="#ff86c2" stroke="#b43b77" cx="869.397" cy="-18" rx="36.2938" ry="18"/>
<text text-anchor="middle" x="869.397" y="-14.3" font-family="Times,serif" font-size="14.00">047 (d)</text>
</g>
<!-- 021/3 (d)&#45;&gt;047 (d) -->
<g id="edge2" class="edge"><title>021/3 (d)&#45;&gt;047 (d)</title>
<path fill="none" stroke="black" d="M818.704,-72.7646C827.322,-63.6243 838.226,-52.0599 847.711,-42.0001"/>
<polygon fill="black" stroke="black" points="850.313,-44.3428 854.626,-34.6658 845.219,-39.5406 850.313,-44.3428"/>
</g>
<!-- 063 (a) -->
<g id="node4" class="node"><title>063 (a)</title>
<ellipse fill="#ff8a8a" stroke="#b43f3f" cx="218.397" cy="-162" rx="36.2938" ry="18"/>
<text text-anchor="middle" x="218.397" y="-158.3" font-family="Times,serif" font-size="14.00">063 (a)</text>
</g>
<!-- 028 (a) -->
<g id="node7" class="node"><title>028 (a)</title>
<ellipse fill="#ff8a8a" stroke="#b43f3f" cx="36.3968" cy="-90" rx="36.2938" ry="18"/>
<text text-anchor="middle" x="36.3968" y="-86.3" font-family="Times,serif" font-size="14.00">028 (a)</text>
</g>
<!-- 063 (a)&#45;&gt;028 (a) -->
<g id="edge3" class="edge"><title>063 (a)&#45;&gt;028 (a)</title>
<path fill="none" stroke="black" d="M190.358,-150.216C159.139,-138.209 108.528,-118.743 73.9167,-105.431"/>
<polygon fill="black" stroke="black" points="74.7585,-102.005 64.1686,-101.681 72.2456,-108.538 74.7585,-102.005"/>
</g>
<!-- 031 (a) -->
<g id="node8" class="node"><title>031 (a)</title>
<ellipse fill="#ff8a8a" stroke="#b43f3f" cx="127.397" cy="-90" rx="36.2938" ry="18"/>
<text text-anchor="middle" x="127.397" y="-86.3" font-family="Times,serif" font-size="14.00">031 (a)</text>
</g>
<!-- 063 (a)&#45;&gt;031 (a) -->
<g id="edge7" class="edge"><title>063 (a)&#45;&gt;031 (a)</title>
<path fill="none" stroke="black" d="M199.542,-146.496C186.486,-136.453 168.912,-122.934 154.377,-111.754"/>
<polygon fill="black" stroke="black" points="156.288,-108.808 146.228,-105.485 152.02,-114.357 156.288,-108.808"/>
</g>
<!-- 011 (a) -->
<g id="node16" class="node"><title>011 (a)</title>
<ellipse fill="#ff8a8a" stroke="#b43f3f" cx="218.397" cy="-90" rx="36.2938" ry="18"/>
<text text-anchor="middle" x="218.397" y="-86.3" font-family="Times,serif" font-size="14.00">011 (a)</text>
</g>
<!-- 063 (a)&#45;&gt;011 (a) -->
<g id="edge6" class="edge"><title>063 (a)&#45;&gt;011 (a)</title>
<path fill="none" stroke="black" d="M218.397,-143.697C218.397,-135.983 218.397,-126.712 218.397,-118.112"/>
<polygon fill="black" stroke="black" points="221.897,-118.104 218.397,-108.104 214.897,-118.104 221.897,-118.104"/>
</g>
<!-- 07 (a) -->
<g id="node17" class="node"><title>07 (a)</title>
<ellipse fill="#ff8a8a" stroke="#b43f3f" cx="352.397" cy="-90" rx="31.6951" ry="18"/>
<text text-anchor="middle" x="352.397" y="-86.3" font-family="Times,serif" font-size="14.00">07 (a)</text>
</g>
<!-- 063 (a)&#45;&gt;07 (a) -->
<g id="edge4" class="edge"><title>063 (a)&#45;&gt;07 (a)</title>
<path fill="none" stroke="black" d="M242.663,-148.324C264.502,-136.915 296.737,-120.076 320.624,-107.598"/>
<polygon fill="black" stroke="black" points="322.408,-110.614 329.651,-102.882 319.167,-104.41 322.408,-110.614"/>
</g>
<!-- 045 (a) -->
<g id="node22" class="node"><title>045 (a)</title>
<ellipse fill="#ff8a8a" stroke="#b43f3f" cx="610.397" cy="-90" rx="36.2938" ry="18"/>
<text text-anchor="middle" x="610.397" y="-86.3" font-family="Times,serif" font-size="14.00">045 (a)</text>
</g>
<!-- 063 (a)&#45;&gt;045 (a) -->
<g id="edge5" class="edge"><title>063 (a)&#45;&gt;045 (a)</title>
<path fill="none" stroke="black" d="M252.158,-154.971C323.073,-142.308 487.475,-112.95 566.47,-98.844"/>
<polygon fill="black" stroke="black" points="567.349,-102.243 576.578,-97.0391 566.118,-95.3516 567.349,-102.243"/>
</g>
<!-- 017 (f) -->
<g id="node6" class="node"><title>017 (f)</title>
<ellipse fill="#80b584" stroke="#356a39" cx="892.397" cy="-162" rx="35.194" ry="18"/>
<text text-anchor="middle" x="892.397" y="-158.3" font-family="Times,serif" font-size="14.00">017 (f)</text>
</g>
<!-- 013 (a) -->
<g id="node21" class="node"><title>013 (a)</title>
<ellipse fill="#ff8a8a" stroke="#b43f3f" cx="78.3968" cy="-18" rx="36.2938" ry="18"/>
<text text-anchor="middle" x="78.3968" y="-14.3" font-family="Times,serif" font-size="14.00">013 (a)</text>
</g>
<!-- 031 (a)&#45;&gt;013 (a) -->
<g id="edge8" class="edge"><title>031 (a)&#45;&gt;013 (a)</title>
<path fill="none" stroke="black" d="M116.032,-72.7646C109.971,-64.1064 102.388,-53.2731 95.6196,-43.604"/>
<polygon fill="black" stroke="black" points="98.3019,-41.3325 89.6999,-35.1473 92.5672,-45.3468 98.3019,-41.3325"/>
</g>
<!-- 032 (c) -->
<g id="node9" class="node"><title>032 (c)</title>
<ellipse fill="#72fe95" stroke="#27b34a" cx="977.397" cy="-90" rx="36.2938" ry="18"/>
<text text-anchor="middle" x="977.397" y="-86.3" font-family="Times,serif" font-size="14.00">032 (c)</text>
</g>
<!-- 091 (d) -->
<g id="node10" class="node"><title>091 (d)</title>
<ellipse fill="#ff86c2" stroke="#b43b77" cx="803.397" cy="-162" rx="36.2938" ry="18"/>
<text text-anchor="middle" x="803.397" y="-158.3" font-family="Times,serif" font-size="14.00">091 (d)</text>
</g>
<!-- 091 (d)&#45;&gt;021/3 (d) -->
<g id="edge9" class="edge"><title>091 (d)&#45;&gt;021/3 (d)</title>
<path fill="none" stroke="black" d="M803.397,-143.697C803.397,-135.983 803.397,-126.712 803.397,-118.112"/>
<polygon fill="black" stroke="black" points="806.897,-118.104 803.397,-108.104 799.897,-118.104 806.897,-118.104"/>
</g>
<!-- 02 (a) -->
<g id="node11" class="node"><title>02 (a)</title>
<ellipse fill="#ff8a8a" stroke="#b43f3f" cx="164.397" cy="-18" rx="31.6951" ry="18"/>
<text text-anchor="middle" x="164.397" y="-14.3" font-family="Times,serif" font-size="14.00">02 (a)</text>
</g>
<!-- P75 (b) -->
<g id="node12" class="node"><title>P75 (b)</title>
<ellipse fill="#cea8f4" stroke="#835da9" cx="1064.4" cy="-162" rx="37.0935" ry="18"/>
<text text-anchor="middle" x="1064.4" y="-158.3" font-family="Times,serif" font-size="14.00">P75 (b)</text>
</g>
<!-- 0141 (i) -->
<g id="node14" class="node"><title>0141 (i)</title>
<ellipse fill="#36f200" stroke="#000000" cx="1158.4" cy="-162" rx="38.9931" ry="18"/>
<text text-anchor="middle" x="1158.4" y="-158.3" font-family="Times,serif" font-size="14.00">0141 (i)</text>
</g>
<!-- 022 (e) -->
<g id="node15" class="node"><title>022 (e)</title>
<ellipse fill="#a9c5eb" stroke="#5e7aa0" cx="1251.4" cy="-162" rx="36.2938" ry="18"/>
<text text-anchor="middle" x="1251.4" y="-158.3" font-family="Times,serif" font-size="14.00">022 (e)</text>
</g>
<!-- 011 (a)&#45;&gt;02 (a) -->
<g id="edge10" class="edge"><title>011 (a)&#45;&gt;02 (a)</title>
<path fill="none" stroke="black" d="M205.872,-72.7646C198.959,-63.8035 190.249,-52.5124 182.598,-42.5936"/>
<polygon fill="black" stroke="black" points="185.361,-40.4458 176.482,-34.6658 179.819,-44.7215 185.361,-40.4458"/>
</g>
<!-- 07 (a)&#45;&gt;034 (a) -->
<g id="edge14" class="edge"><title>07 (a)&#45;&gt;034 (a)</title>
<path fill="none" stroke="black" d="M332.73,-75.5033C317.645,-65.1508 296.589,-50.7004 279.547,-39.0047"/>
<polygon fill="black" stroke="black" points="281.279,-35.9487 271.053,-33.1761 277.318,-41.7204 281.279,-35.9487"/>
</g>
<!-- 0211/2 (a) -->
<g id="node19" class="node"><title>0211/2 (a)</title>
<ellipse fill="#ff8a8a" stroke="#b43f3f" cx="352.397" cy="-18" rx="47.3916" ry="18"/>
<text text-anchor="middle" x="352.397" y="-14.3" font-family="Times,serif" font-size="14.00">0211/2 (a)</text>
</g>
<!-- 07 (a)&#45;&gt;0211/2 (a) -->
<g id="edge11" class="edge"><title>07 (a)&#45;&gt;0211/2 (a)</title>
<path fill="none" stroke="black" d="M352.397,-71.6966C352.397,-63.9827 352.397,-54.7125 352.397,-46.1124"/>
<polygon fill="black" stroke="black" points="355.897,-46.1043 352.397,-36.1043 348.897,-46.1044 355.897,-46.1043"/>
</g>
<!-- 037 (a) -->
<g id="node24" class="node"><title>037 (a)</title>
<ellipse fill="#ff8a8a" stroke="#b43f3f" cx="454.397" cy="-18" rx="36.2938" ry="18"/>
<text text-anchor="middle" x="454.397" y="-14.3" font-family="Times,serif" font-size="14.00">037 (a)</text>
</g>
<!-- 07 (a)&#45;&gt;037 (a) -->
<g id="edge12" class="edge"><title>07 (a)&#45;&gt;037 (a)</title>
<path fill="none" stroke="black" d="M372.063,-75.5033C387.148,-65.1508 408.205,-50.7004 425.247,-39.0047"/>
<polygon fill="black" stroke="black" points="427.476,-41.7204 433.74,-33.1761 423.515,-35.9487 427.476,-41.7204"/>
</g>
<!-- 030 (a) -->
<g id="node25" class="node"><title>030 (a)</title>
<ellipse fill="#ff8a8a" stroke="#b43f3f" cx="545.397" cy="-18" rx="36.2938" ry="18"/>
<text text-anchor="middle" x="545.397" y="-14.3" font-family="Times,serif" font-size="14.00">030 (a)</text>
</g>
<!-- 07 (a)&#45;&gt;030 (a) -->
<g id="edge13" class="edge"><title>07 (a)&#45;&gt;030 (a)</title>
<path fill="none" stroke="black" d="M378.708,-79.5847C408.14,-69.0366 457.221,-51.3963 499.397,-36 502.096,-35.0146 504.883,-33.9936 507.688,-32.9635"/>
<polygon fill="black" stroke="black" points="509.016,-36.2043 517.19,-29.4644 506.597,-29.6355 509.016,-36.2043"/>
</g>
<!-- 03 (c) -->
<g id="node18" class="node"><title>03 (c)</title>
<ellipse fill="#72fe95" stroke="#27b34a" cx="977.397" cy="-162" rx="31.6951" ry="18"/>
<text text-anchor="middle" x="977.397" y="-158.3" font-family="Times,serif" font-size="14.00">03 (c)</text>
</g>
<!-- 03 (c)&#45;&gt;032 (c) -->
<g id="edge15" class="edge"><title>03 (c)&#45;&gt;032 (c)</title>
<path fill="none" stroke="black" d="M977.397,-143.697C977.397,-135.983 977.397,-126.712 977.397,-118.112"/>
<polygon fill="black" stroke="black" points="980.897,-118.104 977.397,-108.104 973.897,-118.104 980.897,-118.104"/>
</g>
<!-- 019 (h) -->
<g id="node20" class="node"><title>019 (h)</title>
<ellipse fill="#8c8cff" stroke="#4141b4" cx="1342.4" cy="-162" rx="36.2938" ry="18"/>
<text text-anchor="middle" x="1342.4" y="-158.3" font-family="Times,serif" font-size="14.00">019 (h)</text>
</g>
<!-- 045 (a)&#45;&gt;038 (a) -->
<g id="edge16" class="edge"><title>045 (a)&#45;&gt;038 (a)</title>
<path fill="none" stroke="black" d="M616.691,-72.055C619.661,-64.0586 623.274,-54.3308 626.591,-45.3995"/>
<polygon fill="black" stroke="black" points="629.96,-46.3819 630.161,-35.789 623.398,-43.9446 629.96,-46.3819"/>
</g>
<!-- 044 (g) -->
<g id="node23" class="node"><title>044 (g)</title>
<ellipse fill="#ea8dfe" stroke="#9f42b3" cx="1433.4" cy="-162" rx="36.2938" ry="18"/>
<text text-anchor="middle" x="1433.4" y="-158.3" font-family="Times,serif" font-size="14.00">044 (g)</text>
</g>
</g>
</svg>
