<?xml version="1.0" encoding="UTF-8" standalone="no"?>
<!DOCTYPE svg PUBLIC "-//W3C//DTD SVG 1.1//EN"
 "http://www.w3.org/Graphics/SVG/1.1/DTD/svg11.dtd">
<!-- Generated by graphviz version 2.38.0 (20140413.2041)
 -->
<!-- Title: %3 Pages: 1 -->
<svg width="1058pt" height="321pt"
 viewBox="0.00 0.00 1058.40 321.00" xmlns="http://www.w3.org/2000/svg" xmlns:xlink="http://www.w3.org/1999/xlink">
<g id="graph0" class="graph" transform="scale(1 1) rotate(0) translate(4 317)">
<title>%3</title>
<polygon fill="white" stroke="none" points="-4,4 -4,-317 1054.4,-317 1054.4,4 -4,4"/>
<g id="clust1" class="cluster"><title>cluster_legend</title>
<path fill="none" stroke="black" d="M20,-177C20,-177 210,-177 210,-177 216,-177 222,-183 222,-189 222,-189 222,-293 222,-293 222,-299 216,-305 210,-305 210,-305 20,-305 20,-305 14,-305 8,-299 8,-293 8,-293 8,-189 8,-189 8,-183 14,-177 20,-177"/>
</g>
<!-- leg_s -->
<g id="node1" class="node"><title>leg_s</title>
<text text-anchor="middle" x="115" y="-275.3" font-family="Times,serif" font-size="14.00">Textual flow strength</text>
</g>
<!-- leg_e1 -->
<!-- leg_s&#45;&gt;leg_e1 -->
<g id="edge1" class="edge"><title>leg_s&#45;&gt;leg_e1</title>
<path fill="none" stroke="black" stroke-dasharray="1,5" d="M96.6657,-260.686C91.1324,-255.194 85.1607,-248.989 80,-243 70.1708,-231.593 60.0722,-217.779 52.9137,-207.563"/>
<polygon fill="black" stroke="black" points="55.6142,-205.314 47.056,-199.068 49.8514,-209.288 55.6142,-205.314"/>
<text text-anchor="middle" x="95.5" y="-231.8" font-family="Times,serif" font-size="14.00">&lt;=5 &#160;</text>
</g>
<!-- leg_e2 -->
<!-- leg_s&#45;&gt;leg_e2 -->
<g id="edge2" class="edge"><title>leg_s&#45;&gt;leg_e2</title>
<path fill="none" stroke="black" stroke-dasharray="5,2" d="M115,-260.799C115,-245.794 115,-224.174 115,-209.409"/>
<polygon fill="black" stroke="black" points="118.5,-209.293 115,-199.293 111.5,-209.293 118.5,-209.293"/>
<text text-anchor="middle" x="134" y="-231.8" font-family="Times,serif" font-size="14.00"> &#160;&lt;=25</text>
</g>
<!-- leg_e3 -->
<!-- leg_s&#45;&gt;leg_e3 -->
<g id="edge3" class="edge"><title>leg_s&#45;&gt;leg_e3</title>
<path fill="none" stroke="black" d="M138.503,-260.76C144.906,-255.462 151.567,-249.344 157,-243 166.087,-232.39 174.095,-218.689 179.546,-208.313"/>
<polygon fill="black" stroke="black" points="182.722,-209.789 184.091,-199.283 176.469,-206.642 182.722,-209.789"/>
<text text-anchor="middle" x="179" y="-231.8" font-family="Times,serif" font-size="14.00">&gt;25</text>
</g>
<!-- 03 -->
<g id="node5" class="node"><title>03</title>
<ellipse fill="#ff8a8a" stroke="#b43f3f" cx="354" cy="-279" rx="31.6951" ry="18"/>
<text text-anchor="middle" x="354" y="-275.3" font-family="Times,serif" font-size="14.00">03 (a)</text>
</g>
<!-- 044 -->
<g id="node6" class="node"><title>044</title>
<ellipse fill="#ff8a8a" stroke="#b43f3f" cx="268" cy="-192" rx="36.2938" ry="18"/>
<text text-anchor="middle" x="268" y="-188.3" font-family="Times,serif" font-size="14.00">044 (a)</text>
</g>
<!-- 03&#45;&gt;044 -->
<g id="edge4" class="edge"><title>03&#45;&gt;044</title>
<path fill="none" stroke="#b43f3f" stroke-dasharray="1,5" d="M333.353,-264.912C324.467,-258.796 314.248,-251.086 306,-243 298.175,-235.329 290.638,-225.975 284.368,-217.442"/>
<polygon fill="#b43f3f" stroke="#b43f3f" points="287.206,-215.394 278.557,-209.275 281.503,-219.452 287.206,-215.394"/>
<text text-anchor="middle" x="328" y="-231.8" font-family="Times,serif" font-size="14.00">1 (89.2)</text>
</g>
<!-- 02 -->
<g id="node7" class="node"><title>02</title>
<ellipse fill="#ff8a8a" stroke="#b43f3f" cx="354" cy="-192" rx="31.6951" ry="18"/>
<text text-anchor="middle" x="354" y="-188.3" font-family="Times,serif" font-size="14.00">02 (a)</text>
</g>
<!-- 03&#45;&gt;02 -->
<g id="edge5" class="edge"><title>03&#45;&gt;02</title>
<path fill="none" stroke="#b43f3f" stroke-dasharray="1,5" d="M354,-260.799C354,-249.163 354,-233.548 354,-220.237"/>
<polygon fill="#b43f3f" stroke="#b43f3f" points="357.5,-220.175 354,-210.175 350.5,-220.175 357.5,-220.175"/>
<text text-anchor="middle" x="376" y="-231.8" font-family="Times,serif" font-size="14.00">1 (86.5)</text>
</g>
<!-- 032 -->
<g id="node8" class="node"><title>032</title>
<ellipse fill="#ff8a8a" stroke="#b43f3f" cx="440" cy="-192" rx="36.2938" ry="18"/>
<text text-anchor="middle" x="440" y="-188.3" font-family="Times,serif" font-size="14.00">032 (a)</text>
</g>
<!-- 03&#45;&gt;032 -->
<g id="edge6" class="edge"><title>03&#45;&gt;032</title>
<path fill="none" stroke="#b43f3f" stroke-dasharray="1,5" d="M374.647,-264.912C383.533,-258.796 393.752,-251.086 402,-243 409.825,-235.329 417.362,-225.975 423.632,-217.442"/>
<polygon fill="#b43f3f" stroke="#b43f3f" points="426.497,-219.452 429.443,-209.275 420.794,-215.394 426.497,-219.452"/>
<text text-anchor="middle" x="437" y="-231.8" font-family="Times,serif" font-size="14.00">1 (91.7)</text>
</g>
<!-- 0141 -->
<g id="node9" class="node"><title>0141</title>
<ellipse fill="#ff8a8a" stroke="#b43f3f" cx="221" cy="-105" rx="40.0939" ry="18"/>
<text text-anchor="middle" x="221" y="-101.3" font-family="Times,serif" font-size="14.00">0141 (a)</text>
</g>
<!-- 044&#45;&gt;0141 -->
<g id="edge7" class="edge"><title>044&#45;&gt;0141</title>
<path fill="none" stroke="#b43f3f" stroke-dasharray="1,5" d="M258.714,-174.207C252.02,-162.099 242.859,-145.533 235.243,-131.759"/>
<polygon fill="#b43f3f" stroke="#b43f3f" points="238.168,-129.816 230.266,-122.758 232.042,-133.203 238.168,-129.816"/>
<text text-anchor="middle" x="270" y="-144.8" font-family="Times,serif" font-size="14.00">1 (89.2)</text>
</g>
<!-- 022 -->
<g id="node10" class="node"><title>022</title>
<ellipse fill="#ff8a8a" stroke="#b43f3f" cx="316" cy="-105" rx="36.2938" ry="18"/>
<text text-anchor="middle" x="316" y="-101.3" font-family="Times,serif" font-size="14.00">022 (a)</text>
</g>
<!-- 044&#45;&gt;022 -->
<g id="edge8" class="edge"><title>044&#45;&gt;022</title>
<path fill="none" stroke="#b43f3f" stroke-dasharray="1,5" d="M280.959,-175.139C285.395,-169.316 290.195,-162.544 294,-156 298.291,-148.622 302.284,-140.251 305.658,-132.498"/>
<polygon fill="#b43f3f" stroke="#b43f3f" points="308.947,-133.706 309.577,-123.13 302.489,-131.004 308.947,-133.706"/>
<text text-anchor="middle" x="324" y="-144.8" font-family="Times,serif" font-size="14.00">1 (91.7)</text>
</g>
<!-- 063 -->
<g id="node11" class="node"><title>063</title>
<ellipse fill="#ff8a8a" stroke="#b43f3f" cx="650" cy="-192" rx="36.2938" ry="18"/>
<text text-anchor="middle" x="650" y="-188.3" font-family="Times,serif" font-size="14.00">063 (a)</text>
</g>
<!-- 045 -->
<g id="node12" class="node"><title>045</title>
<ellipse fill="#ff8a8a" stroke="#b43f3f" cx="407" cy="-105" rx="36.2938" ry="18"/>
<text text-anchor="middle" x="407" y="-101.3" font-family="Times,serif" font-size="14.00">045 (a)</text>
</g>
<!-- 063&#45;&gt;045 -->
<g id="edge9" class="edge"><title>063&#45;&gt;045</title>
<path fill="none" stroke="#b43f3f" stroke-dasharray="1,5" d="M620.093,-181.673C598.351,-174.804 568.255,-165.112 542,-156 508.774,-144.469 471.285,-130.507 444.259,-120.271"/>
<polygon fill="#b43f3f" stroke="#b43f3f" points="445.394,-116.958 434.803,-116.68 442.909,-123.502 445.394,-116.958"/>
<text text-anchor="middle" x="564" y="-144.8" font-family="Times,serif" font-size="14.00">1 (93.1)</text>
</g>
<!-- 011 -->
<g id="node13" class="node"><title>011</title>
<ellipse fill="#ff8a8a" stroke="#b43f3f" cx="564" cy="-105" rx="36.2938" ry="18"/>
<text text-anchor="middle" x="564" y="-101.3" font-family="Times,serif" font-size="14.00">011 (a)</text>
</g>
<!-- 063&#45;&gt;011 -->
<g id="edge10" class="edge"><title>063&#45;&gt;011</title>
<path fill="none" stroke="#b43f3f" stroke-dasharray="1,5" d="M628.396,-177.25C619.74,-171.245 609.954,-163.798 602,-156 594.175,-148.329 586.638,-138.975 580.368,-130.442"/>
<polygon fill="#b43f3f" stroke="#b43f3f" points="583.206,-128.394 574.557,-122.275 577.503,-132.452 583.206,-128.394"/>
<text text-anchor="middle" x="624" y="-144.8" font-family="Times,serif" font-size="14.00">1 (93.1)</text>
</g>
<!-- 07 -->
<g id="node14" class="node"><title>07</title>
<ellipse fill="#ff8a8a" stroke="#b43f3f" cx="650" cy="-105" rx="31.6951" ry="18"/>
<text text-anchor="middle" x="650" y="-101.3" font-family="Times,serif" font-size="14.00">07 (a)</text>
</g>
<!-- 063&#45;&gt;07 -->
<g id="edge11" class="edge"><title>063&#45;&gt;07</title>
<path fill="none" stroke="#b43f3f" stroke-dasharray="1,5" d="M650,-173.799C650,-162.163 650,-146.548 650,-133.237"/>
<polygon fill="#b43f3f" stroke="#b43f3f" points="653.5,-133.175 650,-123.175 646.5,-133.175 653.5,-133.175"/>
<text text-anchor="middle" x="672" y="-144.8" font-family="Times,serif" font-size="14.00">1 (96.6)</text>
</g>
<!-- 028 -->
<g id="node15" class="node"><title>028</title>
<ellipse fill="#ff8a8a" stroke="#b43f3f" cx="736" cy="-105" rx="36.2938" ry="18"/>
<text text-anchor="middle" x="736" y="-101.3" font-family="Times,serif" font-size="14.00">028 (a)</text>
</g>
<!-- 063&#45;&gt;028 -->
<g id="edge12" class="edge"><title>063&#45;&gt;028</title>
<path fill="none" stroke="#b43f3f" stroke-dasharray="1,5" d="M671.604,-177.25C680.26,-171.245 690.046,-163.798 698,-156 705.825,-148.329 713.362,-138.975 719.632,-130.442"/>
<polygon fill="#b43f3f" stroke="#b43f3f" points="722.497,-132.452 725.443,-122.275 716.794,-128.394 722.497,-132.452"/>
<text text-anchor="middle" x="733" y="-144.8" font-family="Times,serif" font-size="14.00">1 (96.6)</text>
</g>
<!-- 021 -->
<g id="node16" class="node"><title>021</title>
<ellipse fill="#ff8a8a" stroke="#b43f3f" cx="923" cy="-105" rx="36.2938" ry="18"/>
<text text-anchor="middle" x="923" y="-101.3" font-family="Times,serif" font-size="14.00">021 (a)</text>
</g>
<!-- 063&#45;&gt;021 -->
<g id="edge13" class="edge"><title>063&#45;&gt;021</title>
<path fill="none" stroke="#b43f3f" stroke-dasharray="1,5" d="M679.997,-181.66C729.417,-166.273 827.965,-135.59 883.171,-118.401"/>
<polygon fill="#b43f3f" stroke="#b43f3f" points="884.446,-121.67 892.954,-115.355 882.365,-114.986 884.446,-121.67"/>
<text text-anchor="middle" x="825" y="-144.8" font-family="Times,serif" font-size="14.00">1 (93.1)</text>
</g>
<!-- 038 -->
<g id="node17" class="node"><title>038</title>
<ellipse fill="#ff8a8a" stroke="#b43f3f" cx="377" cy="-18" rx="36.2938" ry="18"/>
<text text-anchor="middle" x="377" y="-14.3" font-family="Times,serif" font-size="14.00">038 (a)</text>
</g>
<!-- 045&#45;&gt;038 -->
<g id="edge14" class="edge"><title>045&#45;&gt;038</title>
<path fill="none" stroke="#b43f3f" stroke-dasharray="1,5" d="M401.073,-87.2067C396.909,-75.4091 391.251,-59.3781 386.467,-45.8221"/>
<polygon fill="#b43f3f" stroke="#b43f3f" points="389.646,-44.3143 383.017,-36.0493 383.045,-46.6441 389.646,-44.3143"/>
<text text-anchor="middle" x="416" y="-57.8" font-family="Times,serif" font-size="14.00">1 (92.7)</text>
</g>
<!-- 034 -->
<g id="node18" class="node"><title>034</title>
<ellipse fill="#ff8a8a" stroke="#b43f3f" cx="468" cy="-18" rx="36.2938" ry="18"/>
<text text-anchor="middle" x="468" y="-14.3" font-family="Times,serif" font-size="14.00">034 (a)</text>
</g>
<!-- 07&#45;&gt;034 -->
<g id="edge15" class="edge"><title>07&#45;&gt;034</title>
<path fill="none" stroke="#b43f3f" stroke-dasharray="1,5" d="M625.488,-93.2085C620.107,-91.0164 614.402,-88.8257 609,-87 579.383,-76.9903 569.422,-82.0229 541,-69 524.389,-61.3888 507.455,-50.0563 494.083,-40.1037"/>
<polygon fill="#b43f3f" stroke="#b43f3f" points="495.922,-37.1039 485.85,-33.8157 491.673,-42.667 495.922,-37.1039"/>
<text text-anchor="middle" x="563" y="-57.8" font-family="Times,serif" font-size="14.00">1 (95.1)</text>
</g>
<!-- 017 -->
<g id="node19" class="node"><title>017</title>
<ellipse fill="#ff8a8a" stroke="#b43f3f" cx="559" cy="-18" rx="36.2938" ry="18"/>
<text text-anchor="middle" x="559" y="-14.3" font-family="Times,serif" font-size="14.00">017 (a)</text>
</g>
<!-- 07&#45;&gt;017 -->
<g id="edge16" class="edge"><title>07&#45;&gt;017</title>
<path fill="none" stroke="#b43f3f" stroke-dasharray="1,5" d="M629.581,-90.6717C620.737,-84.5121 610.489,-76.8337 602,-69 593.456,-61.1154 584.924,-51.6186 577.74,-43.0293"/>
<polygon fill="#b43f3f" stroke="#b43f3f" points="580.344,-40.6853 571.308,-35.1545 574.923,-45.1135 580.344,-40.6853"/>
<text text-anchor="middle" x="624" y="-57.8" font-family="Times,serif" font-size="14.00">2 (92.7)</text>
</g>
<!-- 013 -->
<g id="node20" class="node"><title>013</title>
<ellipse fill="#ff8a8a" stroke="#b43f3f" cx="650" cy="-18" rx="36.2938" ry="18"/>
<text text-anchor="middle" x="650" y="-14.3" font-family="Times,serif" font-size="14.00">013 (a)</text>
</g>
<!-- 07&#45;&gt;013 -->
<g id="edge17" class="edge"><title>07&#45;&gt;013</title>
<path fill="none" stroke="#b43f3f" stroke-dasharray="1,5" d="M650,-86.799C650,-75.1626 650,-59.5479 650,-46.2368"/>
<polygon fill="#b43f3f" stroke="#b43f3f" points="653.5,-46.1754 650,-36.1754 646.5,-46.1755 653.5,-46.1754"/>
<text text-anchor="middle" x="672" y="-57.8" font-family="Times,serif" font-size="14.00">2 (95.1)</text>
</g>
<!-- 030 -->
<g id="node21" class="node"><title>030</title>
<ellipse fill="#ff8a8a" stroke="#b43f3f" cx="741" cy="-18" rx="36.2938" ry="18"/>
<text text-anchor="middle" x="741" y="-14.3" font-family="Times,serif" font-size="14.00">030 (a)</text>
</g>
<!-- 07&#45;&gt;030 -->
<g id="edge18" class="edge"><title>07&#45;&gt;030</title>
<path fill="none" stroke="#b43f3f" stroke-dasharray="1,5" d="M670.419,-90.6717C679.263,-84.5121 689.511,-76.8337 698,-69 706.544,-61.1154 715.076,-51.6186 722.26,-43.0293"/>
<polygon fill="#b43f3f" stroke="#b43f3f" points="725.077,-45.1135 728.692,-35.1545 719.656,-40.6853 725.077,-45.1135"/>
<text text-anchor="middle" x="734" y="-57.8" font-family="Times,serif" font-size="14.00">1 (95.1)</text>
</g>
<!-- 037 -->
<g id="node22" class="node"><title>037</title>
<ellipse fill="#ff8a8a" stroke="#b43f3f" cx="832" cy="-18" rx="36.2938" ry="18"/>
<text text-anchor="middle" x="832" y="-14.3" font-family="Times,serif" font-size="14.00">037 (a)</text>
</g>
<!-- 07&#45;&gt;037 -->
<g id="edge19" class="edge"><title>07&#45;&gt;037</title>
<path fill="none" stroke="#b43f3f" stroke-dasharray="1,5" d="M674.507,-93.1938C679.889,-91.0026 685.595,-88.816 691,-87 721.043,-76.9066 731.207,-82.2431 760,-69 776.446,-61.4361 793.152,-50.107 806.327,-40.1444"/>
<polygon fill="#b43f3f" stroke="#b43f3f" points="808.685,-42.7454 814.437,-33.8482 804.392,-37.2162 808.685,-42.7454"/>
<text text-anchor="middle" x="808" y="-57.8" font-family="Times,serif" font-size="14.00">1 (97.5)</text>
</g>
<!-- 036 -->
<g id="node23" class="node"><title>036</title>
<ellipse fill="#ff8a8a" stroke="#b43f3f" cx="923" cy="-18" rx="36.2938" ry="18"/>
<text text-anchor="middle" x="923" y="-14.3" font-family="Times,serif" font-size="14.00">036 (a)</text>
</g>
<!-- 021&#45;&gt;036 -->
<g id="edge20" class="edge"><title>021&#45;&gt;036</title>
<path fill="none" stroke="#b43f3f" stroke-dasharray="1,5" d="M923,-86.799C923,-75.1626 923,-59.5479 923,-46.2368"/>
<polygon fill="#b43f3f" stroke="#b43f3f" points="926.5,-46.1754 923,-36.1754 919.5,-46.1755 926.5,-46.1754"/>
<text text-anchor="middle" x="945" y="-57.8" font-family="Times,serif" font-size="14.00">1 (97.6)</text>
</g>
<!-- 047 -->
<g id="node24" class="node"><title>047</title>
<ellipse fill="#ff8a8a" stroke="#b43f3f" cx="1014" cy="-18" rx="36.2938" ry="18"/>
<text text-anchor="middle" x="1014" y="-14.3" font-family="Times,serif" font-size="14.00">047 (a)</text>
</g>
<!-- 021&#45;&gt;047 -->
<g id="edge21" class="edge"><title>021&#45;&gt;047</title>
<path fill="none" stroke="#b43f3f" stroke-dasharray="1,5" d="M944.372,-90.006C952.992,-83.9634 962.814,-76.5539 971,-69 979.544,-61.1154 988.076,-51.6186 995.26,-43.0293"/>
<polygon fill="#b43f3f" stroke="#b43f3f" points="998.077,-45.1135 1001.69,-35.1545 992.656,-40.6853 998.077,-45.1135"/>
<text text-anchor="middle" x="1006" y="-57.8" font-family="Times,serif" font-size="14.00">1 (95.1)</text>
</g>
<!-- 019 -->
<g id="node25" class="node"><title>019</title>
<ellipse fill="#ff8a8a" stroke="#b43f3f" cx="650" cy="-279" rx="36.2938" ry="18"/>
<text text-anchor="middle" x="650" y="-275.3" font-family="Times,serif" font-size="14.00">019 (a)</text>
</g>
<!-- 019&#45;&gt;063 -->
<g id="edge22" class="edge"><title>019&#45;&gt;063</title>
<path fill="none" stroke="#b43f3f" stroke-dasharray="1,5" d="M650,-260.799C650,-249.163 650,-233.548 650,-220.237"/>
<polygon fill="#b43f3f" stroke="#b43f3f" points="653.5,-220.175 650,-210.175 646.5,-220.175 653.5,-220.175"/>
<text text-anchor="middle" x="672" y="-231.8" font-family="Times,serif" font-size="14.00">1 (85.7)</text>
</g>
<!-- 091 -->
<g id="node26" class="node"><title>091</title>
<ellipse fill="#ff8a8a" stroke="#b43f3f" cx="783" cy="-279" rx="36.2938" ry="18"/>
<text text-anchor="middle" x="783" y="-275.3" font-family="Times,serif" font-size="14.00">091 (a)</text>
</g>
<!-- 05 -->
<g id="node27" class="node"><title>05</title>
<ellipse fill="#ff8a8a" stroke="#b43f3f" cx="759" cy="-192" rx="31.6951" ry="18"/>
<text text-anchor="middle" x="759" y="-188.3" font-family="Times,serif" font-size="14.00">05 (a)</text>
</g>
<!-- 091&#45;&gt;05 -->
<g id="edge23" class="edge"><title>091&#45;&gt;05</title>
<path fill="none" stroke="#b43f3f" stroke-dasharray="1,5" d="M778.143,-260.799C774.803,-248.97 770.303,-233.03 766.504,-219.578"/>
<polygon fill="#b43f3f" stroke="#b43f3f" points="769.853,-218.558 763.768,-209.885 763.117,-220.46 769.853,-218.558"/>
<text text-anchor="middle" x="795" y="-231.8" font-family="Times,serif" font-size="14.00">1 (87.5)</text>
</g>
<!-- 0211 -->
<g id="node28" class="node"><title>0211</title>
<ellipse fill="#ff8a8a" stroke="#b43f3f" cx="849" cy="-192" rx="40.0939" ry="18"/>
<text text-anchor="middle" x="849" y="-188.3" font-family="Times,serif" font-size="14.00">0211 (a)</text>
</g>
<!-- 091&#45;&gt;0211 -->
<g id="edge24" class="edge"><title>091&#45;&gt;0211</title>
<path fill="none" stroke="#b43f3f" stroke-dasharray="1,5" d="M801.167,-263.378C807.863,-257.469 815.219,-250.32 821,-243 826.762,-235.705 832.048,-227.074 836.437,-219.054"/>
<polygon fill="#b43f3f" stroke="#b43f3f" points="839.62,-220.521 841.154,-210.038 833.417,-217.276 839.62,-220.521"/>
<text text-anchor="middle" x="853" y="-231.8" font-family="Times,serif" font-size="14.00">1 (83.3)</text>
</g>
<!-- P75 -->
<g id="node29" class="node"><title>P75</title>
<ellipse fill="#ff8a8a" stroke="#b43f3f" cx="874" cy="-279" rx="36.2938" ry="18"/>
<text text-anchor="middle" x="874" y="-275.3" font-family="Times,serif" font-size="14.00">P75 (a)</text>
</g>
<!-- 01 -->
<g id="node30" class="node"><title>01</title>
<ellipse fill="#cea8f4" stroke="#835da9" cx="961" cy="-279" rx="32.4942" ry="18"/>
<text text-anchor="middle" x="961" y="-275.3" font-family="Times,serif" font-size="14.00">01 (b)</text>
</g>
</g>
</svg>
