<?xml version="1.0" encoding="UTF-8" standalone="no"?>
<!DOCTYPE svg PUBLIC "-//W3C//DTD SVG 1.1//EN"
 "http://www.w3.org/Graphics/SVG/1.1/DTD/svg11.dtd">
<!-- Generated by graphviz version 2.38.0 (20140413.2041)
 -->
<!-- Title: G Pages: 1 -->
<svg width="1104pt" height="218pt"
 viewBox="0.00 0.00 1103.69 218.00" xmlns="http://www.w3.org/2000/svg" xmlns:xlink="http://www.w3.org/1999/xlink">
<g id="graph0" class="graph" transform="scale(1 1) rotate(0) translate(4 214)">
<title>G</title>
<polygon fill="white" stroke="none" points="-4,4 -4,-214 1099.69,-214 1099.69,4 -4,4"/>
<!-- 013 (a) -->
<g id="node1" class="node"><title>013 (a)</title>
<ellipse fill="#ff8a8a" stroke="#b43f3f" cx="36.3968" cy="-105" rx="36.2938" ry="18"/>
<text text-anchor="middle" x="36.3968" y="-101.3" font-family="Times,serif" font-size="14.00">013 (a)</text>
</g>
<!-- 05 (b) -->
<g id="node2" class="node"><title>05 (b)</title>
<ellipse fill="#cea8f4" stroke="#835da9" cx="304.397" cy="-18" rx="32.4942" ry="18"/>
<text text-anchor="middle" x="304.397" y="-14.3" font-family="Times,serif" font-size="14.00">05 (b)</text>
</g>
<!-- 011 (a) -->
<g id="node3" class="node"><title>011 (a)</title>
<ellipse fill="#ff8a8a" stroke="#b43f3f" cx="419.397" cy="-192" rx="36.2938" ry="18"/>
<text text-anchor="middle" x="419.397" y="-188.3" font-family="Times,serif" font-size="14.00">011 (a)</text>
</g>
<!-- 017 (a) -->
<g id="node4" class="node"><title>017 (a)</title>
<ellipse fill="#ff8a8a" stroke="#b43f3f" cx="127.397" cy="-105" rx="36.2938" ry="18"/>
<text text-anchor="middle" x="127.397" y="-101.3" font-family="Times,serif" font-size="14.00">017 (a)</text>
</g>
<!-- 045 (a) -->
<g id="node5" class="node"><title>045 (a)</title>
<ellipse fill="#ff8a8a" stroke="#b43f3f" cx="510.397" cy="-192" rx="36.2938" ry="18"/>
<text text-anchor="middle" x="510.397" y="-188.3" font-family="Times,serif" font-size="14.00">045 (a)</text>
</g>
<!-- 038 (a) -->
<g id="node13" class="node"><title>038 (a)</title>
<ellipse fill="#ff8a8a" stroke="#b43f3f" cx="510.397" cy="-105" rx="36.2938" ry="18"/>
<text text-anchor="middle" x="510.397" y="-101.3" font-family="Times,serif" font-size="14.00">038 (a)</text>
</g>
<!-- 045 (a)&#45;&gt;038 (a) -->
<g id="edge1" class="edge"><title>045 (a)&#45;&gt;038 (a)</title>
<path fill="none" stroke="#b43f3f" d="M510.397,-173.799C510.397,-162.163 510.397,-146.548 510.397,-133.237"/>
<polygon fill="#b43f3f" stroke="#b43f3f" points="513.897,-133.175 510.397,-123.175 506.897,-133.175 513.897,-133.175"/>
<text text-anchor="middle" x="532.397" y="-144.8" font-family="Times,serif" font-size="14.00">1 (92.7)</text>
</g>
<!-- 021 (a) -->
<g id="node6" class="node"><title>021 (a)</title>
<ellipse fill="#ff8a8a" stroke="#b43f3f" cx="647.397" cy="-192" rx="36.2938" ry="18"/>
<text text-anchor="middle" x="647.397" y="-188.3" font-family="Times,serif" font-size="14.00">021 (a)</text>
</g>
<!-- 036 (a) -->
<g id="node10" class="node"><title>036 (a)</title>
<ellipse fill="#ff8a8a" stroke="#b43f3f" cx="601.397" cy="-105" rx="36.2938" ry="18"/>
<text text-anchor="middle" x="601.397" y="-101.3" font-family="Times,serif" font-size="14.00">036 (a)</text>
</g>
<!-- 021 (a)&#45;&gt;036 (a) -->
<g id="edge2" class="edge"><title>021 (a)&#45;&gt;036 (a)</title>
<path fill="none" stroke="#b43f3f" d="M633.109,-175.414C628.3,-169.617 623.197,-162.791 619.397,-156 615.387,-148.834 611.99,-140.608 609.264,-132.924"/>
<polygon fill="#b43f3f" stroke="#b43f3f" points="612.535,-131.666 606.072,-123.271 605.888,-133.864 612.535,-131.666"/>
<text text-anchor="middle" x="641.397" y="-144.8" font-family="Times,serif" font-size="14.00">1 (97.6)</text>
</g>
<!-- 047 (a) -->
<g id="node16" class="node"><title>047 (a)</title>
<ellipse fill="#ff8a8a" stroke="#b43f3f" cx="692.397" cy="-105" rx="36.2938" ry="18"/>
<text text-anchor="middle" x="692.397" y="-101.3" font-family="Times,serif" font-size="14.00">047 (a)</text>
</g>
<!-- 021 (a)&#45;&gt;047 (a) -->
<g id="edge3" class="edge"><title>021 (a)&#45;&gt;047 (a)</title>
<path fill="none" stroke="#b43f3f" d="M656.287,-174.207C662.697,-162.099 671.468,-145.533 678.76,-131.759"/>
<polygon fill="#b43f3f" stroke="#b43f3f" points="681.939,-133.234 683.525,-122.758 675.752,-129.959 681.939,-133.234"/>
<text text-anchor="middle" x="695.397" y="-144.8" font-family="Times,serif" font-size="14.00">1 (95.1)</text>
</g>
<!-- 030 (a) -->
<g id="node7" class="node"><title>030 (a)</title>
<ellipse fill="#ff8a8a" stroke="#b43f3f" cx="783.397" cy="-105" rx="36.2938" ry="18"/>
<text text-anchor="middle" x="783.397" y="-101.3" font-family="Times,serif" font-size="14.00">030 (a)</text>
</g>
<!-- 028 (a) -->
<g id="node8" class="node"><title>028 (a)</title>
<ellipse fill="#ff8a8a" stroke="#b43f3f" cx="960.397" cy="-192" rx="36.2938" ry="18"/>
<text text-anchor="middle" x="960.397" y="-188.3" font-family="Times,serif" font-size="14.00">028 (a)</text>
</g>
<!-- 037 (a) -->
<g id="node9" class="node"><title>037 (a)</title>
<ellipse fill="#ff8a8a" stroke="#b43f3f" cx="874.397" cy="-105" rx="36.2938" ry="18"/>
<text text-anchor="middle" x="874.397" y="-101.3" font-family="Times,serif" font-size="14.00">037 (a)</text>
</g>
<!-- 07 (a) -->
<g id="node11" class="node"><title>07 (a)</title>
<ellipse fill="#ff8a8a" stroke="#b43f3f" cx="874.397" cy="-192" rx="31.6951" ry="18"/>
<text text-anchor="middle" x="874.397" y="-188.3" font-family="Times,serif" font-size="14.00">07 (a)</text>
</g>
<!-- 07 (a)&#45;&gt;030 (a) -->
<g id="edge5" class="edge"><title>07 (a)&#45;&gt;030 (a)</title>
<path fill="none" stroke="#b43f3f" d="M853.978,-177.672C845.134,-171.512 834.886,-163.834 826.397,-156 817.853,-148.115 809.321,-138.619 802.136,-130.029"/>
<polygon fill="#b43f3f" stroke="#b43f3f" points="804.741,-127.685 795.704,-122.155 799.32,-132.113 804.741,-127.685"/>
<text text-anchor="middle" x="848.397" y="-144.8" font-family="Times,serif" font-size="14.00">1 (95.1)</text>
</g>
<!-- 07 (a)&#45;&gt;037 (a) -->
<g id="edge6" class="edge"><title>07 (a)&#45;&gt;037 (a)</title>
<path fill="none" stroke="#b43f3f" d="M874.397,-173.799C874.397,-162.163 874.397,-146.548 874.397,-133.237"/>
<polygon fill="#b43f3f" stroke="#b43f3f" points="877.897,-133.175 874.397,-123.175 870.897,-133.175 877.897,-133.175"/>
<text text-anchor="middle" x="896.397" y="-144.8" font-family="Times,serif" font-size="14.00">1 (97.5)</text>
</g>
<!-- 034 (a) -->
<g id="node15" class="node"><title>034 (a)</title>
<ellipse fill="#ff8a8a" stroke="#b43f3f" cx="965.397" cy="-105" rx="36.2938" ry="18"/>
<text text-anchor="middle" x="965.397" y="-101.3" font-family="Times,serif" font-size="14.00">034 (a)</text>
</g>
<!-- 07 (a)&#45;&gt;034 (a) -->
<g id="edge4" class="edge"><title>07 (a)&#45;&gt;034 (a)</title>
<path fill="none" stroke="#b43f3f" d="M894.816,-177.672C903.659,-171.512 913.908,-163.834 922.397,-156 930.941,-148.115 939.472,-138.619 946.657,-130.029"/>
<polygon fill="#b43f3f" stroke="#b43f3f" points="949.474,-132.113 953.089,-122.155 944.053,-127.685 949.474,-132.113"/>
<text text-anchor="middle" x="958.397" y="-144.8" font-family="Times,serif" font-size="14.00">1 (95.1)</text>
</g>
<!-- 0211 (b) -->
<g id="node12" class="node"><title>0211 (b)</title>
<ellipse fill="#cea8f4" stroke="#835da9" cx="304.397" cy="-105" rx="40.8928" ry="18"/>
<text text-anchor="middle" x="304.397" y="-101.3" font-family="Times,serif" font-size="14.00">0211 (b)</text>
</g>
<!-- 0211 (b)&#45;&gt;05 (b) -->
<g id="edge7" class="edge"><title>0211 (b)&#45;&gt;05 (b)</title>
<path fill="none" stroke="#835da9" d="M304.397,-86.799C304.397,-75.1626 304.397,-59.5479 304.397,-46.2368"/>
<polygon fill="#835da9" stroke="#835da9" points="307.897,-46.1754 304.397,-36.1754 300.897,-46.1755 307.897,-46.1754"/>
<text text-anchor="middle" x="329.897" y="-57.8" font-family="Times,serif" font-size="14.00">11 (67.6)</text>
</g>
<!-- OL_PARENT -->
<g id="node14" class="node"><title>OL_PARENT</title>
<ellipse fill="none" stroke="black" cx="304.397" cy="-192" rx="61.1893" ry="18"/>
<text text-anchor="middle" x="304.397" y="-188.3" font-family="Times,serif" font-size="14.00">OL_PARENT</text>
</g>
<!-- OL_PARENT&#45;&gt;0211 (b) -->
<g id="edge8" class="edge"><title>OL_PARENT&#45;&gt;0211 (b)</title>
<path fill="none" stroke="#835da9" d="M304.397,-173.799C304.397,-162.163 304.397,-146.548 304.397,-133.237"/>
<polygon fill="#835da9" stroke="#835da9" points="307.897,-133.175 304.397,-123.175 300.897,-133.175 307.897,-133.175"/>
<text text-anchor="middle" x="331.897" y="-144.8" font-family="Times,serif" font-size="14.00">&#45;1 (100.0)</text>
</g>
<!-- 0141 (a) -->
<g id="node17" class="node"><title>0141 (a)</title>
<ellipse fill="#ff8a8a" stroke="#b43f3f" cx="1055.4" cy="-192" rx="40.0939" ry="18"/>
<text text-anchor="middle" x="1055.4" y="-188.3" font-family="Times,serif" font-size="14.00">0141 (a)</text>
</g>
<!-- 01 (a) -->
<g id="node18" class="node"><title>01 (a)</title>
<ellipse fill="#ff8a8a" stroke="#b43f3f" cx="213.397" cy="-105" rx="31.6951" ry="18"/>
<text text-anchor="middle" x="213.397" y="-101.3" font-family="Times,serif" font-size="14.00">01 (a)</text>
</g>
<!-- 031 (a) -->
<g id="node19" class="node"><title>031 (a)</title>
<ellipse fill="#ff8a8a" stroke="#b43f3f" cx="127.397" cy="-192" rx="36.2938" ry="18"/>
<text text-anchor="middle" x="127.397" y="-188.3" font-family="Times,serif" font-size="14.00">031 (a)</text>
</g>
<!-- 031 (a)&#45;&gt;013 (a) -->
<g id="edge11" class="edge"><title>031 (a)&#45;&gt;013 (a)</title>
<path fill="none" stroke="#b43f3f" d="M106.025,-177.006C97.4044,-170.963 87.5824,-163.554 79.3968,-156 70.8527,-148.115 62.3211,-138.619 55.1364,-130.029"/>
<polygon fill="#b43f3f" stroke="#b43f3f" points="57.741,-127.685 48.7043,-122.155 52.3196,-132.113 57.741,-127.685"/>
<text text-anchor="middle" x="101.397" y="-144.8" font-family="Times,serif" font-size="14.00">1 (97.1)</text>
</g>
<!-- 031 (a)&#45;&gt;017 (a) -->
<g id="edge10" class="edge"><title>031 (a)&#45;&gt;017 (a)</title>
<path fill="none" stroke="#b43f3f" d="M127.397,-173.799C127.397,-162.163 127.397,-146.548 127.397,-133.237"/>
<polygon fill="#b43f3f" stroke="#b43f3f" points="130.897,-133.175 127.397,-123.175 123.897,-133.175 130.897,-133.175"/>
<text text-anchor="middle" x="149.397" y="-144.8" font-family="Times,serif" font-size="14.00">1 (94.3)</text>
</g>
<!-- 031 (a)&#45;&gt;01 (a) -->
<g id="edge9" class="edge"><title>031 (a)&#45;&gt;01 (a)</title>
<path fill="none" stroke="#b43f3f" d="M149.001,-177.25C157.657,-171.245 167.443,-163.798 175.397,-156 183.221,-148.329 190.759,-138.975 197.029,-130.442"/>
<polygon fill="#b43f3f" stroke="#b43f3f" points="199.894,-132.452 202.84,-122.275 194.191,-128.394 199.894,-132.452"/>
<text text-anchor="middle" x="210.397" y="-144.8" font-family="Times,serif" font-size="14.00">2 (48.5)</text>
</g>
</g>
</svg>
