<?xml version="1.0" encoding="UTF-8" standalone="no"?>
<!DOCTYPE svg PUBLIC "-//W3C//DTD SVG 1.1//EN"
 "http://www.w3.org/Graphics/SVG/1.1/DTD/svg11.dtd">
<!-- Generated by graphviz version 2.38.0 (20140413.2041)
 -->
<!-- Title: %3 Pages: 1 -->
<svg width="969pt" height="424pt"
 viewBox="0.00 0.00 969.00 424.00" xmlns="http://www.w3.org/2000/svg" xmlns:xlink="http://www.w3.org/1999/xlink">
<g id="graph0" class="graph" transform="scale(1 1) rotate(0) translate(4 420)">
<title>%3</title>
<polygon fill="white" stroke="none" points="-4,4 -4,-420 965,-420 965,4 -4,4"/>
<g id="clust1" class="cluster"><title>cluster_legend</title>
<path fill="none" stroke="black" d="M20,-280C20,-280 210,-280 210,-280 216,-280 222,-286 222,-292 222,-292 222,-396 222,-396 222,-402 216,-408 210,-408 210,-408 20,-408 20,-408 14,-408 8,-402 8,-396 8,-396 8,-292 8,-292 8,-286 14,-280 20,-280"/>
</g>
<g id="clust2" class="cluster"><title>cluster_reading</title>
<polygon fill="none" stroke="black" points="230,-8 230,-408 953,-408 953,-8 230,-8"/>
</g>
<!-- leg_s -->
<g id="node1" class="node"><title>leg_s</title>
<text text-anchor="middle" x="115" y="-378.3" font-family="Times,serif" font-size="14.00">Textual flow strength</text>
</g>
<!-- leg_e1 -->
<!-- leg_s&#45;&gt;leg_e1 -->
<g id="edge1" class="edge"><title>leg_s&#45;&gt;leg_e1</title>
<path fill="none" stroke="black" stroke-dasharray="1,5" d="M96.6657,-363.686C91.1324,-358.194 85.1607,-351.989 80,-346 70.1708,-334.593 60.0722,-320.779 52.9137,-310.563"/>
<polygon fill="black" stroke="black" points="55.6142,-308.314 47.056,-302.068 49.8514,-312.288 55.6142,-308.314"/>
<text text-anchor="middle" x="95.5" y="-334.8" font-family="Times,serif" font-size="14.00">&lt;=5 &#160;</text>
</g>
<!-- leg_e2 -->
<!-- leg_s&#45;&gt;leg_e2 -->
<g id="edge2" class="edge"><title>leg_s&#45;&gt;leg_e2</title>
<path fill="none" stroke="black" stroke-dasharray="5,2" d="M115,-363.799C115,-348.794 115,-327.174 115,-312.409"/>
<polygon fill="black" stroke="black" points="118.5,-312.293 115,-302.293 111.5,-312.293 118.5,-312.293"/>
<text text-anchor="middle" x="134" y="-334.8" font-family="Times,serif" font-size="14.00"> &#160;&lt;=25</text>
</g>
<!-- leg_e3 -->
<!-- leg_s&#45;&gt;leg_e3 -->
<g id="edge3" class="edge"><title>leg_s&#45;&gt;leg_e3</title>
<path fill="none" stroke="black" d="M138.503,-363.76C144.906,-358.462 151.567,-352.344 157,-346 166.087,-335.39 174.095,-321.689 179.546,-311.313"/>
<polygon fill="black" stroke="black" points="182.722,-312.789 184.091,-302.283 176.469,-309.642 182.722,-312.789"/>
<text text-anchor="middle" x="179" y="-334.8" font-family="Times,serif" font-size="14.00">&gt;25</text>
</g>
<!-- A -->
<g id="node5" class="node"><title>A</title>
<ellipse fill="#ff8a8a" stroke="#b43f3f" cx="556" cy="-382" rx="29.4969" ry="18"/>
<text text-anchor="middle" x="556" y="-378.3" font-family="Times,serif" font-size="14.00">A (a)</text>
</g>
<!-- 01 -->
<g id="node6" class="node"><title>01</title>
<ellipse fill="#ff8a8a" stroke="#b43f3f" cx="379" cy="-295" rx="31.6951" ry="18"/>
<text text-anchor="middle" x="379" y="-291.3" font-family="Times,serif" font-size="14.00">01 (a)</text>
</g>
<!-- A&#45;&gt;01 -->
<g id="edge4" class="edge"><title>A&#45;&gt;01</title>
<path fill="none" stroke="#b43f3f" stroke-dasharray="5,2" d="M529.067,-374.944C506.407,-369.249 473.548,-359.565 447,-346 431.627,-338.145 416.002,-326.931 403.612,-317.112"/>
<polygon fill="#b43f3f" stroke="#b43f3f" points="405.563,-314.187 395.595,-310.596 401.148,-319.619 405.563,-314.187"/>
<text text-anchor="middle" x="469" y="-334.8" font-family="Times,serif" font-size="14.00">1 (57.1)</text>
</g>
<!-- P75 -->
<g id="node7" class="node"><title>P75</title>
<ellipse fill="#ff8a8a" stroke="#b43f3f" cx="465" cy="-295" rx="36.2938" ry="18"/>
<text text-anchor="middle" x="465" y="-291.3" font-family="Times,serif" font-size="14.00">P75 (a)</text>
</g>
<!-- A&#45;&gt;P75 -->
<g id="edge5" class="edge"><title>A&#45;&gt;P75</title>
<path fill="none" stroke="#b43f3f" stroke-dasharray="1,5" d="M536.523,-368.326C527.472,-362.06 516.792,-354.113 508,-346 499.456,-338.115 490.924,-328.619 483.74,-320.029"/>
<polygon fill="#b43f3f" stroke="#b43f3f" points="486.344,-317.685 477.308,-312.155 480.923,-322.113 486.344,-317.685"/>
<text text-anchor="middle" x="530" y="-334.8" font-family="Times,serif" font-size="14.00">1 (93.3)</text>
</g>
<!-- 019 -->
<g id="node8" class="node"><title>019</title>
<ellipse fill="#ff8a8a" stroke="#b43f3f" cx="556" cy="-295" rx="36.2938" ry="18"/>
<text text-anchor="middle" x="556" y="-291.3" font-family="Times,serif" font-size="14.00">019 (a)</text>
</g>
<!-- A&#45;&gt;019 -->
<g id="edge6" class="edge"><title>A&#45;&gt;019</title>
<path fill="none" stroke="#b43f3f" stroke-dasharray="1,5" d="M556,-363.799C556,-352.163 556,-336.548 556,-323.237"/>
<polygon fill="#b43f3f" stroke="#b43f3f" points="559.5,-323.175 556,-313.175 552.5,-323.175 559.5,-323.175"/>
<text text-anchor="middle" x="578" y="-334.8" font-family="Times,serif" font-size="14.00">1 (93.3)</text>
</g>
<!-- 03 -->
<g id="node9" class="node"><title>03</title>
<ellipse fill="#ff8a8a" stroke="#b43f3f" cx="642" cy="-295" rx="31.6951" ry="18"/>
<text text-anchor="middle" x="642" y="-291.3" font-family="Times,serif" font-size="14.00">03 (a)</text>
</g>
<!-- A&#45;&gt;03 -->
<g id="edge7" class="edge"><title>A&#45;&gt;03</title>
<path fill="none" stroke="#b43f3f" stroke-dasharray="1,5" d="M575.7,-368.561C584.801,-362.347 595.457,-354.375 604,-346 611.825,-338.329 619.362,-328.975 625.632,-320.442"/>
<polygon fill="#b43f3f" stroke="#b43f3f" points="628.497,-322.452 631.443,-312.275 622.794,-318.394 628.497,-322.452"/>
<text text-anchor="middle" x="639" y="-334.8" font-family="Times,serif" font-size="14.00">1 (93.3)</text>
</g>
<!-- 091 -->
<g id="node10" class="node"><title>091</title>
<ellipse fill="#ff8a8a" stroke="#b43f3f" cx="823" cy="-295" rx="36.2938" ry="18"/>
<text text-anchor="middle" x="823" y="-291.3" font-family="Times,serif" font-size="14.00">091 (a)</text>
</g>
<!-- A&#45;&gt;091 -->
<g id="edge8" class="edge"><title>A&#45;&gt;091</title>
<path fill="none" stroke="#b43f3f" stroke-dasharray="1,5" d="M581.601,-372.85C628.294,-357.985 727.585,-326.376 783.178,-308.677"/>
<polygon fill="#b43f3f" stroke="#b43f3f" points="784.561,-311.91 793.028,-305.542 782.437,-305.24 784.561,-311.91"/>
<text text-anchor="middle" x="728" y="-334.8" font-family="Times,serif" font-size="14.00">1 (87.5)</text>
</g>
<!-- 063 -->
<g id="node17" class="node"><title>063</title>
<ellipse fill="#ff8a8a" stroke="#b43f3f" cx="465" cy="-208" rx="36.2938" ry="18"/>
<text text-anchor="middle" x="465" y="-204.3" font-family="Times,serif" font-size="14.00">063 (a)</text>
</g>
<!-- 019&#45;&gt;063 -->
<g id="edge13" class="edge"><title>019&#45;&gt;063</title>
<path fill="none" stroke="#b43f3f" stroke-dasharray="1,5" d="M539.731,-278.804C525.584,-265.59 504.9,-246.269 488.877,-231.303"/>
<polygon fill="#b43f3f" stroke="#b43f3f" points="491.132,-228.62 481.435,-224.351 486.354,-233.735 491.132,-228.62"/>
<text text-anchor="middle" x="538" y="-247.8" font-family="Times,serif" font-size="14.00">1 (85.7)</text>
</g>
<!-- 044 -->
<g id="node11" class="node"><title>044</title>
<ellipse fill="#ff8a8a" stroke="#b43f3f" cx="556" cy="-208" rx="36.2938" ry="18"/>
<text text-anchor="middle" x="556" y="-204.3" font-family="Times,serif" font-size="14.00">044 (a)</text>
</g>
<!-- 03&#45;&gt;044 -->
<g id="edge14" class="edge"><title>03&#45;&gt;044</title>
<path fill="none" stroke="#b43f3f" stroke-dasharray="1,5" d="M621.353,-280.912C612.467,-274.796 602.248,-267.086 594,-259 586.175,-251.329 578.638,-241.975 572.368,-233.442"/>
<polygon fill="#b43f3f" stroke="#b43f3f" points="575.206,-231.394 566.557,-225.275 569.503,-235.452 575.206,-231.394"/>
<text text-anchor="middle" x="616" y="-247.8" font-family="Times,serif" font-size="14.00">1 (89.2)</text>
</g>
<!-- 02 -->
<g id="node18" class="node"><title>02</title>
<ellipse fill="#ff8a8a" stroke="#b43f3f" cx="642" cy="-208" rx="31.6951" ry="18"/>
<text text-anchor="middle" x="642" y="-204.3" font-family="Times,serif" font-size="14.00">02 (a)</text>
</g>
<!-- 03&#45;&gt;02 -->
<g id="edge15" class="edge"><title>03&#45;&gt;02</title>
<path fill="none" stroke="#b43f3f" stroke-dasharray="1,5" d="M642,-276.799C642,-265.163 642,-249.548 642,-236.237"/>
<polygon fill="#b43f3f" stroke="#b43f3f" points="645.5,-236.175 642,-226.175 638.5,-236.175 645.5,-236.175"/>
<text text-anchor="middle" x="664" y="-247.8" font-family="Times,serif" font-size="14.00">1 (86.5)</text>
</g>
<!-- 032 -->
<g id="node19" class="node"><title>032</title>
<ellipse fill="#ff8a8a" stroke="#b43f3f" cx="728" cy="-208" rx="36.2938" ry="18"/>
<text text-anchor="middle" x="728" y="-204.3" font-family="Times,serif" font-size="14.00">032 (a)</text>
</g>
<!-- 03&#45;&gt;032 -->
<g id="edge16" class="edge"><title>03&#45;&gt;032</title>
<path fill="none" stroke="#b43f3f" stroke-dasharray="1,5" d="M662.647,-280.912C671.533,-274.796 681.752,-267.086 690,-259 697.825,-251.329 705.362,-241.975 711.632,-233.442"/>
<polygon fill="#b43f3f" stroke="#b43f3f" points="714.497,-235.452 717.443,-225.275 708.794,-231.394 714.497,-235.452"/>
<text text-anchor="middle" x="725" y="-247.8" font-family="Times,serif" font-size="14.00">1 (91.7)</text>
</g>
<!-- 0211 -->
<g id="node25" class="node"><title>0211</title>
<ellipse fill="#ff8a8a" stroke="#b43f3f" cx="823" cy="-208" rx="40.0939" ry="18"/>
<text text-anchor="middle" x="823" y="-204.3" font-family="Times,serif" font-size="14.00">0211 (a)</text>
</g>
<!-- 091&#45;&gt;0211 -->
<g id="edge23" class="edge"><title>091&#45;&gt;0211</title>
<path fill="none" stroke="#b43f3f" stroke-dasharray="1,5" d="M823,-276.799C823,-265.163 823,-249.548 823,-236.237"/>
<polygon fill="#b43f3f" stroke="#b43f3f" points="826.5,-236.175 823,-226.175 819.5,-236.175 826.5,-236.175"/>
<text text-anchor="middle" x="845" y="-247.8" font-family="Times,serif" font-size="14.00">1 (83.3)</text>
</g>
<!-- 05 -->
<g id="node26" class="node"><title>05</title>
<ellipse fill="#ff8a8a" stroke="#b43f3f" cx="913" cy="-208" rx="31.6951" ry="18"/>
<text text-anchor="middle" x="913" y="-204.3" font-family="Times,serif" font-size="14.00">05 (a)</text>
</g>
<!-- 091&#45;&gt;05 -->
<g id="edge24" class="edge"><title>091&#45;&gt;05</title>
<path fill="none" stroke="#b43f3f" stroke-dasharray="1,5" d="M844.416,-280.054C853.043,-274.018 862.858,-266.601 871,-259 879.415,-251.144 887.762,-241.653 894.772,-233.06"/>
<polygon fill="#b43f3f" stroke="#b43f3f" points="897.554,-235.185 901.041,-225.18 892.076,-230.827 897.554,-235.185"/>
<text text-anchor="middle" x="906" y="-247.8" font-family="Times,serif" font-size="14.00">1 (87.5)</text>
</g>
<!-- 022 -->
<g id="node12" class="node"><title>022</title>
<ellipse fill="#ff8a8a" stroke="#b43f3f" cx="810" cy="-121" rx="36.2938" ry="18"/>
<text text-anchor="middle" x="810" y="-117.3" font-family="Times,serif" font-size="14.00">022 (a)</text>
</g>
<!-- 044&#45;&gt;022 -->
<g id="edge9" class="edge"><title>044&#45;&gt;022</title>
<path fill="none" stroke="#b43f3f" stroke-dasharray="1,5" d="M582.792,-195.671C588.705,-193.512 594.998,-191.471 601,-190 666.215,-174.019 689.453,-198.84 751,-172 765.123,-165.841 778.439,-155.158 788.834,-145.243"/>
<polygon fill="#b43f3f" stroke="#b43f3f" points="791.582,-147.445 796.179,-137.899 786.633,-142.495 791.582,-147.445"/>
<text text-anchor="middle" x="796" y="-160.8" font-family="Times,serif" font-size="14.00">1 (91.7)</text>
</g>
<!-- 0141 -->
<g id="node13" class="node"><title>0141</title>
<ellipse fill="#ff8a8a" stroke="#b43f3f" cx="905" cy="-121" rx="40.0939" ry="18"/>
<text text-anchor="middle" x="905" y="-117.3" font-family="Times,serif" font-size="14.00">0141 (a)</text>
</g>
<!-- 044&#45;&gt;0141 -->
<g id="edge10" class="edge"><title>044&#45;&gt;0141</title>
<path fill="none" stroke="#b43f3f" stroke-dasharray="1,5" d="M582.751,-195.496C588.667,-193.349 594.971,-191.356 601,-190 697.146,-168.375 728.202,-202.225 822,-172 841.809,-165.617 861.857,-153.725 877.286,-143.141"/>
<polygon fill="#b43f3f" stroke="#b43f3f" points="879.662,-145.747 885.8,-137.111 875.617,-140.034 879.662,-145.747"/>
<text text-anchor="middle" x="875" y="-160.8" font-family="Times,serif" font-size="14.00">1 (89.2)</text>
</g>
<!-- 031 -->
<g id="node14" class="node"><title>031</title>
<ellipse fill="#ff8a8a" stroke="#b43f3f" cx="274" cy="-121" rx="36.2938" ry="18"/>
<text text-anchor="middle" x="274" y="-117.3" font-family="Times,serif" font-size="14.00">031 (a)</text>
</g>
<!-- 013 -->
<g id="node15" class="node"><title>013</title>
<ellipse fill="#ff8a8a" stroke="#b43f3f" cx="274" cy="-34" rx="36.2938" ry="18"/>
<text text-anchor="middle" x="274" y="-30.3" font-family="Times,serif" font-size="14.00">013 (a)</text>
</g>
<!-- 031&#45;&gt;013 -->
<g id="edge11" class="edge"><title>031&#45;&gt;013</title>
<path fill="none" stroke="#b43f3f" stroke-dasharray="1,5" d="M274,-102.799C274,-91.1626 274,-75.5479 274,-62.2368"/>
<polygon fill="#b43f3f" stroke="#b43f3f" points="277.5,-62.1754 274,-52.1754 270.5,-62.1755 277.5,-62.1754"/>
<text text-anchor="middle" x="296" y="-73.8" font-family="Times,serif" font-size="14.00">1 (97.1)</text>
</g>
<!-- 017 -->
<g id="node16" class="node"><title>017</title>
<ellipse fill="#ff8a8a" stroke="#b43f3f" cx="365" cy="-34" rx="36.2938" ry="18"/>
<text text-anchor="middle" x="365" y="-30.3" font-family="Times,serif" font-size="14.00">017 (a)</text>
</g>
<!-- 031&#45;&gt;017 -->
<g id="edge12" class="edge"><title>031&#45;&gt;017</title>
<path fill="none" stroke="#b43f3f" stroke-dasharray="1,5" d="M295.372,-106.006C303.992,-99.9634 313.814,-92.5539 322,-85 330.544,-77.1154 339.076,-67.6186 346.26,-59.0293"/>
<polygon fill="#b43f3f" stroke="#b43f3f" points="349.077,-61.1135 352.692,-51.1545 343.656,-56.6853 349.077,-61.1135"/>
<text text-anchor="middle" x="358" y="-73.8" font-family="Times,serif" font-size="14.00">1 (94.3)</text>
</g>
<!-- 063&#45;&gt;031 -->
<g id="edge17" class="edge"><title>063&#45;&gt;031</title>
<path fill="none" stroke="#b43f3f" stroke-dasharray="1,5" d="M432.245,-200.028C408.23,-194.249 375.208,-184.89 348,-172 331.333,-164.104 314.179,-152.751 300.589,-142.859"/>
<polygon fill="#b43f3f" stroke="#b43f3f" points="302.324,-139.787 292.213,-136.62 298.142,-145.401 302.324,-139.787"/>
<text text-anchor="middle" x="370" y="-160.8" font-family="Times,serif" font-size="14.00">1 (95.8)</text>
</g>
<!-- 011 -->
<g id="node20" class="node"><title>011</title>
<ellipse fill="#ff8a8a" stroke="#b43f3f" cx="365" cy="-121" rx="36.2938" ry="18"/>
<text text-anchor="middle" x="365" y="-117.3" font-family="Times,serif" font-size="14.00">011 (a)</text>
</g>
<!-- 063&#45;&gt;011 -->
<g id="edge18" class="edge"><title>063&#45;&gt;011</title>
<path fill="none" stroke="#b43f3f" stroke-dasharray="1,5" d="M441.555,-194.009C431.413,-187.912 419.676,-180.189 410,-172 400.854,-164.26 391.812,-154.693 384.259,-146.007"/>
<polygon fill="#b43f3f" stroke="#b43f3f" points="386.913,-143.726 377.78,-138.355 381.571,-148.249 386.913,-143.726"/>
<text text-anchor="middle" x="432" y="-160.8" font-family="Times,serif" font-size="14.00">1 (93.1)</text>
</g>
<!-- 07 -->
<g id="node21" class="node"><title>07</title>
<ellipse fill="#ff8a8a" stroke="#b43f3f" cx="451" cy="-121" rx="31.6951" ry="18"/>
<text text-anchor="middle" x="451" y="-117.3" font-family="Times,serif" font-size="14.00">07 (a)</text>
</g>
<!-- 063&#45;&gt;07 -->
<g id="edge19" class="edge"><title>063&#45;&gt;07</title>
<path fill="none" stroke="#b43f3f" stroke-dasharray="1,5" d="M462.167,-189.799C460.25,-178.163 457.678,-162.548 455.486,-149.237"/>
<polygon fill="#b43f3f" stroke="#b43f3f" points="458.908,-148.474 453.829,-139.175 452.001,-149.611 458.908,-148.474"/>
<text text-anchor="middle" x="481" y="-160.8" font-family="Times,serif" font-size="14.00">1 (96.6)</text>
</g>
<!-- 045 -->
<g id="node22" class="node"><title>045</title>
<ellipse fill="#ff8a8a" stroke="#b43f3f" cx="537" cy="-121" rx="36.2938" ry="18"/>
<text text-anchor="middle" x="537" y="-117.3" font-family="Times,serif" font-size="14.00">045 (a)</text>
</g>
<!-- 063&#45;&gt;045 -->
<g id="edge20" class="edge"><title>063&#45;&gt;045</title>
<path fill="none" stroke="#b43f3f" stroke-dasharray="1,5" d="M485.046,-192.565C492.443,-186.679 500.579,-179.497 507,-172 513.316,-164.626 519.11,-155.76 523.886,-147.554"/>
<polygon fill="#b43f3f" stroke="#b43f3f" points="527.017,-149.125 528.821,-138.685 520.901,-145.722 527.017,-149.125"/>
<text text-anchor="middle" x="540" y="-160.8" font-family="Times,serif" font-size="14.00">1 (93.1)</text>
</g>
<!-- 021 -->
<g id="node23" class="node"><title>021</title>
<ellipse fill="#ff8a8a" stroke="#b43f3f" cx="628" cy="-121" rx="36.2938" ry="18"/>
<text text-anchor="middle" x="628" y="-117.3" font-family="Times,serif" font-size="14.00">021 (a)</text>
</g>
<!-- 063&#45;&gt;021 -->
<g id="edge21" class="edge"><title>063&#45;&gt;021</title>
<path fill="none" stroke="#b43f3f" stroke-dasharray="1,5" d="M493.159,-196.403C499.04,-194.243 505.211,-192.016 511,-190 535.289,-181.541 543.397,-184.274 566,-172 579.885,-164.46 593.728,-153.689 604.799,-144.074"/>
<polygon fill="#b43f3f" stroke="#b43f3f" points="607.209,-146.615 612.331,-137.34 602.543,-141.396 607.209,-146.615"/>
<text text-anchor="middle" x="610" y="-160.8" font-family="Times,serif" font-size="14.00">1 (93.1)</text>
</g>
<!-- 028 -->
<g id="node24" class="node"><title>028</title>
<ellipse fill="#ff8a8a" stroke="#b43f3f" cx="719" cy="-121" rx="36.2938" ry="18"/>
<text text-anchor="middle" x="719" y="-117.3" font-family="Times,serif" font-size="14.00">028 (a)</text>
</g>
<!-- 063&#45;&gt;028 -->
<g id="edge22" class="edge"><title>063&#45;&gt;028</title>
<path fill="none" stroke="#b43f3f" stroke-dasharray="1,5" d="M492.431,-195.79C498.473,-193.624 504.893,-191.55 511,-190 565.404,-176.195 583.133,-190.856 636,-172 655.735,-164.961 675.915,-152.935 691.434,-142.442"/>
<polygon fill="#b43f3f" stroke="#b43f3f" points="693.782,-145.072 699.994,-136.49 689.786,-139.325 693.782,-145.072"/>
<text text-anchor="middle" x="690" y="-160.8" font-family="Times,serif" font-size="14.00">1 (96.6)</text>
</g>
<!-- 037 -->
<g id="node27" class="node"><title>037</title>
<ellipse fill="#ff8a8a" stroke="#b43f3f" cx="456" cy="-34" rx="36.2938" ry="18"/>
<text text-anchor="middle" x="456" y="-30.3" font-family="Times,serif" font-size="14.00">037 (a)</text>
</g>
<!-- 07&#45;&gt;037 -->
<g id="edge25" class="edge"><title>07&#45;&gt;037</title>
<path fill="none" stroke="#b43f3f" stroke-dasharray="1,5" d="M452.012,-102.799C452.696,-91.1626 453.615,-75.5479 454.398,-62.2368"/>
<polygon fill="#b43f3f" stroke="#b43f3f" points="457.896,-62.3637 454.99,-52.1754 450.908,-61.9526 457.896,-62.3637"/>
<text text-anchor="middle" x="476" y="-73.8" font-family="Times,serif" font-size="14.00">1 (97.5)</text>
</g>
<!-- 030 -->
<g id="node28" class="node"><title>030</title>
<ellipse fill="#ff8a8a" stroke="#b43f3f" cx="547" cy="-34" rx="36.2938" ry="18"/>
<text text-anchor="middle" x="547" y="-30.3" font-family="Times,serif" font-size="14.00">030 (a)</text>
</g>
<!-- 07&#45;&gt;030 -->
<g id="edge26" class="edge"><title>07&#45;&gt;030</title>
<path fill="none" stroke="#b43f3f" stroke-dasharray="1,5" d="M472.17,-107.089C481.674,-100.893 492.794,-93.0696 502,-85 511.01,-77.1022 520.026,-67.5043 527.595,-58.8374"/>
<polygon fill="#b43f3f" stroke="#b43f3f" points="530.271,-61.0942 534.099,-51.2152 524.945,-56.5506 530.271,-61.0942"/>
<text text-anchor="middle" x="539" y="-73.8" font-family="Times,serif" font-size="14.00">1 (95.1)</text>
</g>
<!-- 038 -->
<g id="node29" class="node"><title>038</title>
<ellipse fill="#ff8a8a" stroke="#b43f3f" cx="638" cy="-34" rx="36.2938" ry="18"/>
<text text-anchor="middle" x="638" y="-30.3" font-family="Times,serif" font-size="14.00">038 (a)</text>
</g>
<!-- 045&#45;&gt;038 -->
<g id="edge27" class="edge"><title>045&#45;&gt;038</title>
<path fill="none" stroke="#b43f3f" stroke-dasharray="1,5" d="M554.593,-105.194C570.571,-91.7475 594.333,-71.7497 612.412,-56.5348"/>
<polygon fill="#b43f3f" stroke="#b43f3f" points="614.872,-59.0383 620.27,-49.9214 610.365,-53.6826 614.872,-59.0383"/>
<text text-anchor="middle" x="616" y="-73.8" font-family="Times,serif" font-size="14.00">1 (92.7)</text>
</g>
<!-- 036 -->
<g id="node30" class="node"><title>036</title>
<ellipse fill="#ff8a8a" stroke="#b43f3f" cx="729" cy="-34" rx="36.2938" ry="18"/>
<text text-anchor="middle" x="729" y="-30.3" font-family="Times,serif" font-size="14.00">036 (a)</text>
</g>
<!-- 021&#45;&gt;036 -->
<g id="edge28" class="edge"><title>021&#45;&gt;036</title>
<path fill="none" stroke="#b43f3f" stroke-dasharray="1,5" d="M645.593,-105.194C661.571,-91.7475 685.333,-71.7497 703.412,-56.5348"/>
<polygon fill="#b43f3f" stroke="#b43f3f" points="705.872,-59.0383 711.27,-49.9214 701.365,-53.6826 705.872,-59.0383"/>
<text text-anchor="middle" x="707" y="-73.8" font-family="Times,serif" font-size="14.00">1 (97.6)</text>
</g>
<!-- 047 -->
<g id="node31" class="node"><title>047</title>
<ellipse fill="#ff8a8a" stroke="#b43f3f" cx="820" cy="-34" rx="36.2938" ry="18"/>
<text text-anchor="middle" x="820" y="-30.3" font-family="Times,serif" font-size="14.00">047 (a)</text>
</g>
<!-- 021&#45;&gt;047 -->
<g id="edge29" class="edge"><title>021&#45;&gt;047</title>
<path fill="none" stroke="#b43f3f" stroke-dasharray="1,5" d="M656.128,-109.312C662.011,-107.159 668.191,-104.958 674,-103 699.98,-94.2446 707.844,-95.8995 733,-85 752.826,-76.4096 773.863,-64.4063 790.284,-54.3138"/>
<polygon fill="#b43f3f" stroke="#b43f3f" points="792.266,-57.2025 798.894,-48.9372 788.558,-51.2649 792.266,-57.2025"/>
<text text-anchor="middle" x="784" y="-73.8" font-family="Times,serif" font-size="14.00">1 (95.1)</text>
</g>
</g>
</svg>
