<?xml version="1.0" encoding="UTF-8" standalone="no"?>
<!DOCTYPE svg PUBLIC "-//W3C//DTD SVG 1.1//EN"
 "http://www.w3.org/Graphics/SVG/1.1/DTD/svg11.dtd">
<!-- Generated by graphviz version 2.38.0 (20140413.2041)
 -->
<!-- Title: %3 Pages: 1 -->
<svg width="903pt" height="495pt"
 viewBox="0.00 0.00 902.79 495.00" xmlns="http://www.w3.org/2000/svg" xmlns:xlink="http://www.w3.org/1999/xlink">
<g id="graph0" class="graph" transform="scale(1 1) rotate(0) translate(4 491)">
<title>%3</title>
<polygon fill="white" stroke="none" points="-4,4 -4,-491 898.794,-491 898.794,4 -4,4"/>
<g id="clust1" class="cluster"><title>cluster_legend</title>
<path fill="none" stroke="black" d="M339.397,-351C339.397,-351 529.397,-351 529.397,-351 535.397,-351 541.397,-357 541.397,-363 541.397,-363 541.397,-467 541.397,-467 541.397,-473 535.397,-479 529.397,-479 529.397,-479 339.397,-479 339.397,-479 333.397,-479 327.397,-473 327.397,-467 327.397,-467 327.397,-363 327.397,-363 327.397,-357 333.397,-351 339.397,-351"/>
</g>
<!-- leg_s -->
<g id="node1" class="node"><title>leg_s</title>
<text text-anchor="middle" x="434.397" y="-449.3" font-family="Times,serif" font-size="14.00">Textual flow strength</text>
</g>
<!-- leg_e1 -->
<!-- leg_s&#45;&gt;leg_e1 -->
<g id="edge1" class="edge"><title>leg_s&#45;&gt;leg_e1</title>
<path fill="none" stroke="black" stroke-dasharray="1,5" d="M416.062,-434.686C410.529,-429.194 404.557,-422.989 399.397,-417 389.568,-405.593 379.469,-391.779 372.31,-381.563"/>
<polygon fill="black" stroke="black" points="375.011,-379.314 366.453,-373.068 369.248,-383.288 375.011,-379.314"/>
<text text-anchor="middle" x="414.897" y="-405.8" font-family="Times,serif" font-size="14.00">&lt;=5 &#160;</text>
</g>
<!-- leg_e2 -->
<!-- leg_s&#45;&gt;leg_e2 -->
<g id="edge2" class="edge"><title>leg_s&#45;&gt;leg_e2</title>
<path fill="none" stroke="black" stroke-dasharray="5,2" d="M434.397,-434.799C434.397,-419.794 434.397,-398.174 434.397,-383.409"/>
<polygon fill="black" stroke="black" points="437.897,-383.293 434.397,-373.293 430.897,-383.293 437.897,-383.293"/>
<text text-anchor="middle" x="453.397" y="-405.8" font-family="Times,serif" font-size="14.00"> &#160;&lt;=25</text>
</g>
<!-- leg_e3 -->
<!-- leg_s&#45;&gt;leg_e3 -->
<g id="edge3" class="edge"><title>leg_s&#45;&gt;leg_e3</title>
<path fill="none" stroke="black" d="M457.9,-434.76C464.303,-429.462 470.963,-423.344 476.397,-417 485.484,-406.39 493.492,-392.689 498.943,-382.313"/>
<polygon fill="black" stroke="black" points="502.119,-383.789 503.488,-373.283 495.866,-380.642 502.119,-383.789"/>
<text text-anchor="middle" x="498.397" y="-405.8" font-family="Times,serif" font-size="14.00">&gt;25</text>
</g>
<!-- 03 -->
<g id="node5" class="node"><title>03</title>
<ellipse fill="#ff8a8a" stroke="#b43f3f" cx="583.397" cy="-366" rx="31.6951" ry="18"/>
<text text-anchor="middle" x="583.397" y="-362.3" font-family="Times,serif" font-size="14.00">03 (a)</text>
</g>
<!-- 02 -->
<g id="node6" class="node"><title>02</title>
<ellipse fill="#ff8a8a" stroke="#b43f3f" cx="491.397" cy="-279" rx="31.6951" ry="18"/>
<text text-anchor="middle" x="491.397" y="-275.3" font-family="Times,serif" font-size="14.00">02 (a)</text>
</g>
<!-- 03&#45;&gt;02 -->
<g id="edge4" class="edge"><title>03&#45;&gt;02</title>
<path fill="none" stroke="#b43f3f" stroke-dasharray="1,5" d="M562.304,-352.444C552.709,-346.263 541.494,-338.352 532.397,-330 524.086,-322.37 515.982,-313.025 509.203,-304.487"/>
<polygon fill="#b43f3f" stroke="#b43f3f" points="511.781,-302.099 502.907,-296.312 506.235,-306.37 511.781,-302.099"/>
<text text-anchor="middle" x="554.397" y="-318.8" font-family="Times,serif" font-size="14.00">1 (86.5)</text>
</g>
<!-- 044 -->
<g id="node7" class="node"><title>044</title>
<ellipse fill="#ff8a8a" stroke="#b43f3f" cx="577.397" cy="-279" rx="36.2938" ry="18"/>
<text text-anchor="middle" x="577.397" y="-275.3" font-family="Times,serif" font-size="14.00">044 (a)</text>
</g>
<!-- 03&#45;&gt;044 -->
<g id="edge5" class="edge"><title>03&#45;&gt;044</title>
<path fill="none" stroke="#b43f3f" stroke-dasharray="1,5" d="M582.183,-347.799C581.361,-336.163 580.259,-320.548 579.319,-307.237"/>
<polygon fill="#b43f3f" stroke="#b43f3f" points="582.805,-306.904 578.609,-297.175 575.822,-307.397 582.805,-306.904"/>
<text text-anchor="middle" x="603.397" y="-318.8" font-family="Times,serif" font-size="14.00">1 (89.2)</text>
</g>
<!-- 032 -->
<g id="node8" class="node"><title>032</title>
<ellipse fill="#ff8a8a" stroke="#b43f3f" cx="668.397" cy="-279" rx="36.2938" ry="18"/>
<text text-anchor="middle" x="668.397" y="-275.3" font-family="Times,serif" font-size="14.00">032 (a)</text>
</g>
<!-- 03&#45;&gt;032 -->
<g id="edge6" class="edge"><title>03&#45;&gt;032</title>
<path fill="none" stroke="#b43f3f" stroke-dasharray="1,5" d="M603.098,-351.734C611.598,-345.586 621.402,-337.899 629.397,-330 637.267,-322.224 644.968,-312.847 651.421,-304.325"/>
<polygon fill="#b43f3f" stroke="#b43f3f" points="654.307,-306.308 657.417,-296.179 648.67,-302.158 654.307,-306.308"/>
<text text-anchor="middle" x="664.397" y="-318.8" font-family="Times,serif" font-size="14.00">1 (91.7)</text>
</g>
<!-- 021 -->
<g id="node13" class="node"><title>021</title>
<ellipse fill="#ff8a8a" stroke="#b43f3f" cx="127.397" cy="-192" rx="36.2938" ry="18"/>
<text text-anchor="middle" x="127.397" y="-188.3" font-family="Times,serif" font-size="14.00">021 (a)</text>
</g>
<!-- 044&#45;&gt;021 -->
<g id="edge15" class="edge"><title>044&#45;&gt;021</title>
<path fill="none" stroke="#b43f3f" stroke-dasharray="1,5" d="M550.59,-266.73C544.678,-264.568 538.389,-262.51 532.397,-261 473.701,-246.208 457.175,-252.514 397.397,-243 317.067,-230.215 223.876,-212.261 170.653,-201.708"/>
<polygon fill="#b43f3f" stroke="#b43f3f" points="171.047,-198.218 160.557,-199.7 169.682,-205.084 171.047,-198.218"/>
<text text-anchor="middle" x="419.397" y="-231.8" font-family="Times,serif" font-size="14.00">2 (83.8)</text>
</g>
<!-- 07 -->
<g id="node18" class="node"><title>07</title>
<ellipse fill="#ff8a8a" stroke="#b43f3f" cx="400.397" cy="-192" rx="31.6951" ry="18"/>
<text text-anchor="middle" x="400.397" y="-188.3" font-family="Times,serif" font-size="14.00">07 (a)</text>
</g>
<!-- 044&#45;&gt;07 -->
<g id="edge16" class="edge"><title>044&#45;&gt;07</title>
<path fill="none" stroke="#b43f3f" stroke-dasharray="1,5" d="M549.926,-267.189C544.168,-265.045 538.109,-262.878 532.397,-261 504.327,-251.77 494.95,-255.961 468.397,-243 452.776,-235.375 437.031,-224.081 424.631,-214.155"/>
<polygon fill="#b43f3f" stroke="#b43f3f" points="426.568,-211.216 416.623,-207.563 422.12,-216.621 426.568,-211.216"/>
<text text-anchor="middle" x="490.397" y="-231.8" font-family="Times,serif" font-size="14.00">2 (83.8)</text>
</g>
<!-- 028 -->
<g id="node19" class="node"><title>028</title>
<ellipse fill="#ff8a8a" stroke="#b43f3f" cx="486.397" cy="-192" rx="36.2938" ry="18"/>
<text text-anchor="middle" x="486.397" y="-188.3" font-family="Times,serif" font-size="14.00">028 (a)</text>
</g>
<!-- 044&#45;&gt;028 -->
<g id="edge17" class="edge"><title>044&#45;&gt;028</title>
<path fill="none" stroke="#b43f3f" stroke-dasharray="1,5" d="M556.025,-264.006C547.404,-257.963 537.582,-250.554 529.397,-243 520.853,-235.115 512.321,-225.619 505.136,-217.029"/>
<polygon fill="#b43f3f" stroke="#b43f3f" points="507.741,-214.685 498.704,-209.155 502.32,-219.113 507.741,-214.685"/>
<text text-anchor="middle" x="551.397" y="-231.8" font-family="Times,serif" font-size="14.00">2 (81.1)</text>
</g>
<!-- 045 -->
<g id="node20" class="node"><title>045</title>
<ellipse fill="#ff8a8a" stroke="#b43f3f" cx="577.397" cy="-192" rx="36.2938" ry="18"/>
<text text-anchor="middle" x="577.397" y="-188.3" font-family="Times,serif" font-size="14.00">045 (a)</text>
</g>
<!-- 044&#45;&gt;045 -->
<g id="edge18" class="edge"><title>044&#45;&gt;045</title>
<path fill="none" stroke="#b43f3f" stroke-dasharray="1,5" d="M577.397,-260.799C577.397,-249.163 577.397,-233.548 577.397,-220.237"/>
<polygon fill="#b43f3f" stroke="#b43f3f" points="580.897,-220.175 577.397,-210.175 573.897,-220.175 580.897,-220.175"/>
<text text-anchor="middle" x="599.397" y="-231.8" font-family="Times,serif" font-size="14.00">2 (81.1)</text>
</g>
<!-- 011 -->
<g id="node21" class="node"><title>011</title>
<ellipse fill="#ff8a8a" stroke="#b43f3f" cx="668.397" cy="-192" rx="36.2938" ry="18"/>
<text text-anchor="middle" x="668.397" y="-188.3" font-family="Times,serif" font-size="14.00">011 (a)</text>
</g>
<!-- 044&#45;&gt;011 -->
<g id="edge19" class="edge"><title>044&#45;&gt;011</title>
<path fill="none" stroke="#b43f3f" stroke-dasharray="1,5" d="M598.768,-264.006C607.389,-257.963 617.211,-250.554 625.397,-243 633.941,-235.115 642.472,-225.619 649.657,-217.029"/>
<polygon fill="#b43f3f" stroke="#b43f3f" points="652.474,-219.113 656.089,-209.155 647.053,-214.685 652.474,-219.113"/>
<text text-anchor="middle" x="661.397" y="-231.8" font-family="Times,serif" font-size="14.00">2 (86.5)</text>
</g>
<!-- 0141 -->
<g id="node22" class="node"><title>0141</title>
<ellipse fill="#ff8a8a" stroke="#b43f3f" cx="763.397" cy="-192" rx="40.0939" ry="18"/>
<text text-anchor="middle" x="763.397" y="-188.3" font-family="Times,serif" font-size="14.00">0141 (a)</text>
</g>
<!-- 044&#45;&gt;0141 -->
<g id="edge20" class="edge"><title>044&#45;&gt;0141</title>
<path fill="none" stroke="#b43f3f" stroke-dasharray="1,5" d="M605.492,-267.213C611.377,-265.067 617.567,-262.894 623.397,-261 651.499,-251.871 660.514,-255.265 687.397,-243 704.532,-235.182 722.194,-223.798 736.175,-213.867"/>
<polygon fill="#b43f3f" stroke="#b43f3f" points="738.333,-216.625 744.366,-207.916 734.218,-210.962 738.333,-216.625"/>
<text text-anchor="middle" x="736.397" y="-231.8" font-family="Times,serif" font-size="14.00">1 (89.2)</text>
</g>
<!-- 022 -->
<g id="node23" class="node"><title>022</title>
<ellipse fill="#ff8a8a" stroke="#b43f3f" cx="858.397" cy="-192" rx="36.2938" ry="18"/>
<text text-anchor="middle" x="858.397" y="-188.3" font-family="Times,serif" font-size="14.00">022 (a)</text>
</g>
<!-- 044&#45;&gt;022 -->
<g id="edge21" class="edge"><title>044&#45;&gt;022</title>
<path fill="none" stroke="#b43f3f" stroke-dasharray="1,5" d="M604.812,-266.724C610.855,-264.562 617.279,-262.506 623.397,-261 683.884,-246.109 702.968,-261.675 762.397,-243 785.708,-235.674 810.106,-222.891 828.472,-212.084"/>
<polygon fill="#b43f3f" stroke="#b43f3f" points="830.468,-214.968 837.23,-206.811 826.858,-208.97 830.468,-214.968"/>
<text text-anchor="middle" x="820.397" y="-231.8" font-family="Times,serif" font-size="14.00">1 (91.7)</text>
</g>
<!-- A -->
<g id="node9" class="node"><title>A</title>
<ellipse fill="#ff8a8a" stroke="#b43f3f" cx="717.397" cy="-453" rx="29.4969" ry="18"/>
<text text-anchor="middle" x="717.397" y="-449.3" font-family="Times,serif" font-size="14.00">A (a)</text>
</g>
<!-- A&#45;&gt;03 -->
<g id="edge7" class="edge"><title>A&#45;&gt;03</title>
<path fill="none" stroke="#b43f3f" stroke-dasharray="1,5" d="M691.159,-444.508C673.357,-438.685 649.805,-429.49 631.397,-417 620.615,-409.684 610.366,-399.612 602.129,-390.424"/>
<polygon fill="#b43f3f" stroke="#b43f3f" points="604.625,-387.958 595.445,-382.668 599.322,-392.528 604.625,-387.958"/>
<text text-anchor="middle" x="653.397" y="-405.8" font-family="Times,serif" font-size="14.00">1 (93.3)</text>
</g>
<!-- P75 -->
<g id="node10" class="node"><title>P75</title>
<ellipse fill="#ff8a8a" stroke="#b43f3f" cx="672.397" cy="-366" rx="36.2938" ry="18"/>
<text text-anchor="middle" x="672.397" y="-362.3" font-family="Times,serif" font-size="14.00">P75 (a)</text>
</g>
<!-- A&#45;&gt;P75 -->
<g id="edge8" class="edge"><title>A&#45;&gt;P75</title>
<path fill="none" stroke="#b43f3f" stroke-dasharray="1,5" d="M701.271,-437.594C695.531,-431.712 689.483,-424.525 685.397,-417 681.528,-409.876 678.77,-401.549 676.822,-393.757"/>
<polygon fill="#b43f3f" stroke="#b43f3f" points="680.239,-393 674.7,-383.968 673.398,-394.482 680.239,-393"/>
<text text-anchor="middle" x="707.397" y="-405.8" font-family="Times,serif" font-size="14.00">1 (93.3)</text>
</g>
<!-- 091 -->
<g id="node11" class="node"><title>091</title>
<ellipse fill="#ff8a8a" stroke="#b43f3f" cx="763.397" cy="-366" rx="36.2938" ry="18"/>
<text text-anchor="middle" x="763.397" y="-362.3" font-family="Times,serif" font-size="14.00">091 (a)</text>
</g>
<!-- A&#45;&gt;091 -->
<g id="edge9" class="edge"><title>A&#45;&gt;091</title>
<path fill="none" stroke="#b43f3f" stroke-dasharray="1,5" d="M726.266,-435.611C732.842,-423.46 741.934,-406.66 749.475,-392.725"/>
<polygon fill="#b43f3f" stroke="#b43f3f" points="752.716,-394.089 754.398,-383.629 746.56,-390.757 752.716,-394.089"/>
<text text-anchor="middle" x="765.397" y="-405.8" font-family="Times,serif" font-size="14.00">1 (87.5)</text>
</g>
<!-- 019 -->
<g id="node12" class="node"><title>019</title>
<ellipse fill="#ff8a8a" stroke="#b43f3f" cx="854.397" cy="-366" rx="36.2938" ry="18"/>
<text text-anchor="middle" x="854.397" y="-362.3" font-family="Times,serif" font-size="14.00">019 (a)</text>
</g>
<!-- A&#45;&gt;019 -->
<g id="edge10" class="edge"><title>A&#45;&gt;019</title>
<path fill="none" stroke="#b43f3f" stroke-dasharray="1,5" d="M741.114,-442.437C755.999,-436.038 775.345,-426.981 791.397,-417 804.755,-408.693 818.557,-398.014 829.825,-388.66"/>
<polygon fill="#b43f3f" stroke="#b43f3f" points="832.164,-391.266 837.539,-382.136 827.644,-385.921 832.164,-391.266"/>
<text text-anchor="middle" x="833.397" y="-405.8" font-family="Times,serif" font-size="14.00">1 (93.3)</text>
</g>
<!-- 0211 -->
<g id="node16" class="node"><title>0211</title>
<ellipse fill="#ff8a8a" stroke="#b43f3f" cx="763.397" cy="-279" rx="40.0939" ry="18"/>
<text text-anchor="middle" x="763.397" y="-275.3" font-family="Times,serif" font-size="14.00">0211 (a)</text>
</g>
<!-- 091&#45;&gt;0211 -->
<g id="edge13" class="edge"><title>091&#45;&gt;0211</title>
<path fill="none" stroke="#b43f3f" stroke-dasharray="1,5" d="M763.397,-347.799C763.397,-336.163 763.397,-320.548 763.397,-307.237"/>
<polygon fill="#b43f3f" stroke="#b43f3f" points="766.897,-307.175 763.397,-297.175 759.897,-307.175 766.897,-307.175"/>
<text text-anchor="middle" x="785.397" y="-318.8" font-family="Times,serif" font-size="14.00">1 (83.3)</text>
</g>
<!-- 05 -->
<g id="node17" class="node"><title>05</title>
<ellipse fill="#ff8a8a" stroke="#b43f3f" cx="853.397" cy="-279" rx="31.6951" ry="18"/>
<text text-anchor="middle" x="853.397" y="-275.3" font-family="Times,serif" font-size="14.00">05 (a)</text>
</g>
<!-- 091&#45;&gt;05 -->
<g id="edge14" class="edge"><title>091&#45;&gt;05</title>
<path fill="none" stroke="#b43f3f" stroke-dasharray="1,5" d="M784.812,-351.054C793.44,-345.018 803.255,-337.601 811.397,-330 819.811,-322.144 828.159,-312.653 835.169,-304.06"/>
<polygon fill="#b43f3f" stroke="#b43f3f" points="837.951,-306.185 841.438,-296.18 832.473,-301.827 837.951,-306.185"/>
<text text-anchor="middle" x="847.397" y="-318.8" font-family="Times,serif" font-size="14.00">1 (87.5)</text>
</g>
<!-- 047 -->
<g id="node14" class="node"><title>047</title>
<ellipse fill="#ff8a8a" stroke="#b43f3f" cx="36.3968" cy="-105" rx="36.2938" ry="18"/>
<text text-anchor="middle" x="36.3968" y="-101.3" font-family="Times,serif" font-size="14.00">047 (a)</text>
</g>
<!-- 021&#45;&gt;047 -->
<g id="edge11" class="edge"><title>021&#45;&gt;047</title>
<path fill="none" stroke="#b43f3f" stroke-dasharray="1,5" d="M106.025,-177.006C97.4044,-170.963 87.5824,-163.554 79.3968,-156 70.8527,-148.115 62.3211,-138.619 55.1364,-130.029"/>
<polygon fill="#b43f3f" stroke="#b43f3f" points="57.741,-127.685 48.7043,-122.155 52.3196,-132.113 57.741,-127.685"/>
<text text-anchor="middle" x="101.397" y="-144.8" font-family="Times,serif" font-size="14.00">1 (95.1)</text>
</g>
<!-- 036 -->
<g id="node15" class="node"><title>036</title>
<ellipse fill="#ff8a8a" stroke="#b43f3f" cx="127.397" cy="-105" rx="36.2938" ry="18"/>
<text text-anchor="middle" x="127.397" y="-101.3" font-family="Times,serif" font-size="14.00">036 (a)</text>
</g>
<!-- 021&#45;&gt;036 -->
<g id="edge12" class="edge"><title>021&#45;&gt;036</title>
<path fill="none" stroke="#b43f3f" stroke-dasharray="1,5" d="M127.397,-173.799C127.397,-162.163 127.397,-146.548 127.397,-133.237"/>
<polygon fill="#b43f3f" stroke="#b43f3f" points="130.897,-133.175 127.397,-123.175 123.897,-133.175 130.897,-133.175"/>
<text text-anchor="middle" x="149.397" y="-144.8" font-family="Times,serif" font-size="14.00">1 (97.6)</text>
</g>
<!-- 017 -->
<g id="node24" class="node"><title>017</title>
<ellipse fill="#ff8a8a" stroke="#b43f3f" cx="218.397" cy="-105" rx="36.2938" ry="18"/>
<text text-anchor="middle" x="218.397" y="-101.3" font-family="Times,serif" font-size="14.00">017 (a)</text>
</g>
<!-- 07&#45;&gt;017 -->
<g id="edge22" class="edge"><title>07&#45;&gt;017</title>
<path fill="none" stroke="#b43f3f" stroke-dasharray="1,5" d="M371.287,-184.118C348.808,-178.225 317.276,-168.681 291.397,-156 275.102,-148.016 258.302,-136.754 244.933,-126.939"/>
<polygon fill="#b43f3f" stroke="#b43f3f" points="246.782,-123.951 236.682,-120.748 242.58,-129.55 246.782,-123.951"/>
<text text-anchor="middle" x="313.397" y="-144.8" font-family="Times,serif" font-size="14.00">2 (92.7)</text>
</g>
<!-- 030 -->
<g id="node25" class="node"><title>030</title>
<ellipse fill="#ff8a8a" stroke="#b43f3f" cx="309.397" cy="-105" rx="36.2938" ry="18"/>
<text text-anchor="middle" x="309.397" y="-101.3" font-family="Times,serif" font-size="14.00">030 (a)</text>
</g>
<!-- 07&#45;&gt;030 -->
<g id="edge23" class="edge"><title>07&#45;&gt;030</title>
<path fill="none" stroke="#b43f3f" stroke-dasharray="1,5" d="M379.978,-177.672C371.134,-171.512 360.886,-163.834 352.397,-156 343.853,-148.115 335.321,-138.619 328.136,-130.029"/>
<polygon fill="#b43f3f" stroke="#b43f3f" points="330.741,-127.685 321.704,-122.155 325.32,-132.113 330.741,-127.685"/>
<text text-anchor="middle" x="374.397" y="-144.8" font-family="Times,serif" font-size="14.00">1 (95.1)</text>
</g>
<!-- 037 -->
<g id="node26" class="node"><title>037</title>
<ellipse fill="#ff8a8a" stroke="#b43f3f" cx="400.397" cy="-105" rx="36.2938" ry="18"/>
<text text-anchor="middle" x="400.397" y="-101.3" font-family="Times,serif" font-size="14.00">037 (a)</text>
</g>
<!-- 07&#45;&gt;037 -->
<g id="edge24" class="edge"><title>07&#45;&gt;037</title>
<path fill="none" stroke="#b43f3f" stroke-dasharray="1,5" d="M400.397,-173.799C400.397,-162.163 400.397,-146.548 400.397,-133.237"/>
<polygon fill="#b43f3f" stroke="#b43f3f" points="403.897,-133.175 400.397,-123.175 396.897,-133.175 403.897,-133.175"/>
<text text-anchor="middle" x="422.397" y="-144.8" font-family="Times,serif" font-size="14.00">1 (97.5)</text>
</g>
<!-- 034 -->
<g id="node27" class="node"><title>034</title>
<ellipse fill="#ff8a8a" stroke="#b43f3f" cx="491.397" cy="-105" rx="36.2938" ry="18"/>
<text text-anchor="middle" x="491.397" y="-101.3" font-family="Times,serif" font-size="14.00">034 (a)</text>
</g>
<!-- 07&#45;&gt;034 -->
<g id="edge25" class="edge"><title>07&#45;&gt;034</title>
<path fill="none" stroke="#b43f3f" stroke-dasharray="1,5" d="M420.816,-177.672C429.659,-171.512 439.908,-163.834 448.397,-156 456.941,-148.115 465.472,-138.619 472.657,-130.029"/>
<polygon fill="#b43f3f" stroke="#b43f3f" points="475.474,-132.113 479.089,-122.155 470.053,-127.685 475.474,-132.113"/>
<text text-anchor="middle" x="484.397" y="-144.8" font-family="Times,serif" font-size="14.00">1 (95.1)</text>
</g>
<!-- 013 -->
<g id="node28" class="node"><title>013</title>
<ellipse fill="#72fe95" stroke="#27b34a" cx="582.397" cy="-105" rx="36.2938" ry="18"/>
<text text-anchor="middle" x="582.397" y="-101.3" font-family="Times,serif" font-size="14.00">013 (c)</text>
</g>
<!-- 07&#45;&gt;013 -->
<g id="edge26" class="edge"><title>07&#45;&gt;013</title>
<path fill="none" stroke="#27b34a" stroke-dasharray="1,5" d="M424.904,-180.194C430.285,-178.003 435.991,-175.816 441.397,-174 471.44,-163.907 481.603,-169.243 510.397,-156 526.842,-148.436 543.549,-137.107 556.724,-127.144"/>
<polygon fill="#27b34a" stroke="#27b34a" points="559.081,-129.745 564.834,-120.848 554.788,-124.216 559.081,-129.745"/>
<text text-anchor="middle" x="558.397" y="-144.8" font-family="Times,serif" font-size="14.00">2 (95.1)</text>
</g>
<!-- 038 -->
<g id="node29" class="node"><title>038</title>
<ellipse fill="#cea8f4" stroke="#835da9" cx="673.397" cy="-105" rx="36.2938" ry="18"/>
<text text-anchor="middle" x="673.397" y="-101.3" font-family="Times,serif" font-size="14.00">038 (b)</text>
</g>
<!-- 045&#45;&gt;038 -->
<g id="edge27" class="edge"><title>045&#45;&gt;038</title>
<path fill="none" stroke="#835da9" stroke-dasharray="1,5" d="M600.305,-177.82C610.028,-171.744 621.212,-164.09 630.397,-156 639.121,-148.316 647.69,-138.86 654.854,-130.248"/>
<polygon fill="#835da9" stroke="#835da9" points="657.687,-132.312 661.252,-122.335 652.243,-127.911 657.687,-132.312"/>
<text text-anchor="middle" x="667.397" y="-144.8" font-family="Times,serif" font-size="14.00">1 (92.7)</text>
</g>
<!-- 01 -->
<g id="node30" class="node"><title>01</title>
<ellipse fill="#cea8f4" stroke="#835da9" cx="673.397" cy="-18" rx="32.4942" ry="18"/>
<text text-anchor="middle" x="673.397" y="-14.3" font-family="Times,serif" font-size="14.00">01 (b)</text>
</g>
<!-- 038&#45;&gt;01 -->
<g id="edge28" class="edge"><title>038&#45;&gt;01</title>
<path fill="none" stroke="#835da9" stroke-dasharray="1,5" d="M673.397,-86.799C673.397,-75.1626 673.397,-59.5479 673.397,-46.2368"/>
<polygon fill="#835da9" stroke="#835da9" points="676.897,-46.1754 673.397,-36.1754 669.897,-46.1755 676.897,-46.1754"/>
<text text-anchor="middle" x="695.397" y="-57.8" font-family="Times,serif" font-size="14.00">4 (44.7)</text>
</g>
</g>
</svg>
