<?xml version="1.0" encoding="UTF-8" standalone="no"?>
<!DOCTYPE svg PUBLIC "-//W3C//DTD SVG 1.1//EN"
 "http://www.w3.org/Graphics/SVG/1.1/DTD/svg11.dtd">
<!-- Generated by graphviz version 2.38.0 (20140413.2041)
 -->
<!-- Title: %3 Pages: 1 -->
<svg width="1427pt" height="152pt"
 viewBox="0.00 0.00 1427.30 152.00" xmlns="http://www.w3.org/2000/svg" xmlns:xlink="http://www.w3.org/1999/xlink">
<g id="graph0" class="graph" transform="scale(1 1) rotate(0) translate(4 148)">
<title>%3</title>
<polygon fill="white" stroke="none" points="-4,4 -4,-148 1423.3,-148 1423.3,4 -4,4"/>
<g id="clust1" class="cluster"><title>cluster_legend</title>
<path fill="none" stroke="black" d="M20,-8C20,-8 210,-8 210,-8 216,-8 222,-14 222,-20 222,-20 222,-124 222,-124 222,-130 216,-136 210,-136 210,-136 20,-136 20,-136 14,-136 8,-130 8,-124 8,-124 8,-20 8,-20 8,-14 14,-8 20,-8"/>
</g>
<!-- leg_s -->
<g id="node1" class="node"><title>leg_s</title>
<text text-anchor="middle" x="115" y="-106.3" font-family="Times,serif" font-size="14.00">Textual flow strength</text>
</g>
<!-- leg_e1 -->
<!-- leg_s&#45;&gt;leg_e1 -->
<g id="edge1" class="edge"><title>leg_s&#45;&gt;leg_e1</title>
<path fill="none" stroke="black" stroke-dasharray="1,5" d="M96.6657,-91.6857C91.1324,-86.1938 85.1607,-79.9891 80,-74 70.1708,-62.593 60.0722,-48.7786 52.9137,-38.5634"/>
<polygon fill="black" stroke="black" points="55.6142,-36.3142 47.056,-30.0685 49.8514,-40.2879 55.6142,-36.3142"/>
<text text-anchor="middle" x="95.5" y="-62.8" font-family="Times,serif" font-size="14.00">&lt;=5 &#160;</text>
</g>
<!-- leg_e2 -->
<!-- leg_s&#45;&gt;leg_e2 -->
<g id="edge2" class="edge"><title>leg_s&#45;&gt;leg_e2</title>
<path fill="none" stroke="black" stroke-dasharray="5,2" d="M115,-91.799C115,-76.7942 115,-55.1745 115,-40.4086"/>
<polygon fill="black" stroke="black" points="118.5,-40.2934 115,-30.2934 111.5,-40.2934 118.5,-40.2934"/>
<text text-anchor="middle" x="134" y="-62.8" font-family="Times,serif" font-size="14.00"> &#160;&lt;=25</text>
</g>
<!-- leg_e3 -->
<!-- leg_s&#45;&gt;leg_e3 -->
<g id="edge3" class="edge"><title>leg_s&#45;&gt;leg_e3</title>
<path fill="none" stroke="black" d="M138.503,-91.7602C144.906,-86.4621 151.567,-80.3439 157,-74 166.087,-63.3897 174.095,-49.6892 179.546,-39.3134"/>
<polygon fill="black" stroke="black" points="182.722,-40.7893 184.091,-30.2833 176.469,-37.6425 182.722,-40.7893"/>
<text text-anchor="middle" x="179" y="-62.8" font-family="Times,serif" font-size="14.00">&gt;25</text>
</g>
<!-- 031 -->
<g id="node5" class="node"><title>031</title>
<ellipse fill="#ff8a8a" stroke="#b43f3f" cx="350" cy="-110" rx="36.2938" ry="18"/>
<text text-anchor="middle" x="350" y="-106.3" font-family="Times,serif" font-size="14.00">031 (a)</text>
</g>
<!-- 01 -->
<g id="node6" class="node"><title>01</title>
<ellipse fill="#ff8a8a" stroke="#b43f3f" cx="264" cy="-23" rx="31.6951" ry="18"/>
<text text-anchor="middle" x="264" y="-19.3" font-family="Times,serif" font-size="14.00">01 (a)</text>
</g>
<!-- 031&#45;&gt;01 -->
<g id="edge4" class="edge"><title>031&#45;&gt;01</title>
<path fill="none" stroke="#b43f3f" stroke-dasharray="1,5" d="M328.396,-95.2504C319.74,-89.2452 309.954,-81.7976 302,-74 294.175,-66.3291 286.638,-56.9752 280.368,-48.4419"/>
<polygon fill="#b43f3f" stroke="#b43f3f" points="283.206,-46.3937 274.557,-40.2749 277.503,-50.452 283.206,-46.3937"/>
<text text-anchor="middle" x="324" y="-62.8" font-family="Times,serif" font-size="14.00">2 (48.5)</text>
</g>
<!-- 013 -->
<g id="node7" class="node"><title>013</title>
<ellipse fill="#ff8a8a" stroke="#b43f3f" cx="350" cy="-23" rx="36.2938" ry="18"/>
<text text-anchor="middle" x="350" y="-19.3" font-family="Times,serif" font-size="14.00">013 (a)</text>
</g>
<!-- 031&#45;&gt;013 -->
<g id="edge5" class="edge"><title>031&#45;&gt;013</title>
<path fill="none" stroke="#b43f3f" stroke-dasharray="1,5" d="M350,-91.799C350,-80.1626 350,-64.5479 350,-51.2368"/>
<polygon fill="#b43f3f" stroke="#b43f3f" points="353.5,-51.1754 350,-41.1754 346.5,-51.1755 353.5,-51.1754"/>
<text text-anchor="middle" x="372" y="-62.8" font-family="Times,serif" font-size="14.00">1 (97.1)</text>
</g>
<!-- 017 -->
<g id="node8" class="node"><title>017</title>
<ellipse fill="#ff8a8a" stroke="#b43f3f" cx="441" cy="-23" rx="36.2938" ry="18"/>
<text text-anchor="middle" x="441" y="-19.3" font-family="Times,serif" font-size="14.00">017 (a)</text>
</g>
<!-- 031&#45;&gt;017 -->
<g id="edge6" class="edge"><title>031&#45;&gt;017</title>
<path fill="none" stroke="#b43f3f" stroke-dasharray="1,5" d="M371.372,-95.006C379.992,-88.9634 389.814,-81.5539 398,-74 406.544,-66.1154 415.076,-56.6186 422.26,-48.0293"/>
<polygon fill="#b43f3f" stroke="#b43f3f" points="425.077,-50.1135 428.692,-40.1545 419.656,-45.6853 425.077,-50.1135"/>
<text text-anchor="middle" x="434" y="-62.8" font-family="Times,serif" font-size="14.00">1 (94.3)</text>
</g>
<!-- 07 -->
<g id="node9" class="node"><title>07</title>
<ellipse fill="#ff8a8a" stroke="#b43f3f" cx="623" cy="-110" rx="31.6951" ry="18"/>
<text text-anchor="middle" x="623" y="-106.3" font-family="Times,serif" font-size="14.00">07 (a)</text>
</g>
<!-- 037 -->
<g id="node10" class="node"><title>037</title>
<ellipse fill="#ff8a8a" stroke="#b43f3f" cx="532" cy="-23" rx="36.2938" ry="18"/>
<text text-anchor="middle" x="532" y="-19.3" font-family="Times,serif" font-size="14.00">037 (a)</text>
</g>
<!-- 07&#45;&gt;037 -->
<g id="edge7" class="edge"><title>07&#45;&gt;037</title>
<path fill="none" stroke="#b43f3f" stroke-dasharray="1,5" d="M602.581,-95.6717C593.737,-89.5121 583.489,-81.8337 575,-74 566.456,-66.1154 557.924,-56.6186 550.74,-48.0293"/>
<polygon fill="#b43f3f" stroke="#b43f3f" points="553.344,-45.6853 544.308,-40.1545 547.923,-50.1135 553.344,-45.6853"/>
<text text-anchor="middle" x="597" y="-62.8" font-family="Times,serif" font-size="14.00">1 (97.5)</text>
</g>
<!-- 034 -->
<g id="node11" class="node"><title>034</title>
<ellipse fill="#ff8a8a" stroke="#b43f3f" cx="623" cy="-23" rx="36.2938" ry="18"/>
<text text-anchor="middle" x="623" y="-19.3" font-family="Times,serif" font-size="14.00">034 (a)</text>
</g>
<!-- 07&#45;&gt;034 -->
<g id="edge8" class="edge"><title>07&#45;&gt;034</title>
<path fill="none" stroke="#b43f3f" stroke-dasharray="1,5" d="M623,-91.799C623,-80.1626 623,-64.5479 623,-51.2368"/>
<polygon fill="#b43f3f" stroke="#b43f3f" points="626.5,-51.1754 623,-41.1754 619.5,-51.1755 626.5,-51.1754"/>
<text text-anchor="middle" x="645" y="-62.8" font-family="Times,serif" font-size="14.00">1 (95.1)</text>
</g>
<!-- 030 -->
<g id="node12" class="node"><title>030</title>
<ellipse fill="#ff8a8a" stroke="#b43f3f" cx="714" cy="-23" rx="36.2938" ry="18"/>
<text text-anchor="middle" x="714" y="-19.3" font-family="Times,serif" font-size="14.00">030 (a)</text>
</g>
<!-- 07&#45;&gt;030 -->
<g id="edge9" class="edge"><title>07&#45;&gt;030</title>
<path fill="none" stroke="#b43f3f" stroke-dasharray="1,5" d="M643.419,-95.6717C652.263,-89.5121 662.511,-81.8337 671,-74 679.544,-66.1154 688.076,-56.6186 695.26,-48.0293"/>
<polygon fill="#b43f3f" stroke="#b43f3f" points="698.077,-50.1135 701.692,-40.1545 692.656,-45.6853 698.077,-50.1135"/>
<text text-anchor="middle" x="707" y="-62.8" font-family="Times,serif" font-size="14.00">1 (95.1)</text>
</g>
<!-- 045 -->
<g id="node13" class="node"><title>045</title>
<ellipse fill="#ff8a8a" stroke="#b43f3f" cx="805" cy="-110" rx="36.2938" ry="18"/>
<text text-anchor="middle" x="805" y="-106.3" font-family="Times,serif" font-size="14.00">045 (a)</text>
</g>
<!-- 038 -->
<g id="node14" class="node"><title>038</title>
<ellipse fill="#ff8a8a" stroke="#b43f3f" cx="805" cy="-23" rx="36.2938" ry="18"/>
<text text-anchor="middle" x="805" y="-19.3" font-family="Times,serif" font-size="14.00">038 (a)</text>
</g>
<!-- 045&#45;&gt;038 -->
<g id="edge10" class="edge"><title>045&#45;&gt;038</title>
<path fill="none" stroke="#b43f3f" stroke-dasharray="1,5" d="M805,-91.799C805,-80.1626 805,-64.5479 805,-51.2368"/>
<polygon fill="#b43f3f" stroke="#b43f3f" points="808.5,-51.1754 805,-41.1754 801.5,-51.1755 808.5,-51.1754"/>
<text text-anchor="middle" x="827" y="-62.8" font-family="Times,serif" font-size="14.00">1 (92.7)</text>
</g>
<!-- 021 -->
<g id="node15" class="node"><title>021</title>
<ellipse fill="#ff8a8a" stroke="#b43f3f" cx="962" cy="-110" rx="36.2938" ry="18"/>
<text text-anchor="middle" x="962" y="-106.3" font-family="Times,serif" font-size="14.00">021 (a)</text>
</g>
<!-- 036 -->
<g id="node16" class="node"><title>036</title>
<ellipse fill="#ff8a8a" stroke="#b43f3f" cx="896" cy="-23" rx="36.2938" ry="18"/>
<text text-anchor="middle" x="896" y="-19.3" font-family="Times,serif" font-size="14.00">036 (a)</text>
</g>
<!-- 021&#45;&gt;036 -->
<g id="edge11" class="edge"><title>021&#45;&gt;036</title>
<path fill="none" stroke="#b43f3f" stroke-dasharray="1,5" d="M944.016,-93.9198C937.607,-88.0659 930.596,-81.0728 925,-74 919.182,-66.6469 913.748,-58.0006 909.192,-49.9845"/>
<polygon fill="#b43f3f" stroke="#b43f3f" points="912.14,-48.0804 904.277,-40.9792 905.996,-51.4338 912.14,-48.0804"/>
<text text-anchor="middle" x="947" y="-62.8" font-family="Times,serif" font-size="14.00">1 (97.6)</text>
</g>
<!-- 047 -->
<g id="node17" class="node"><title>047</title>
<ellipse fill="#ff8a8a" stroke="#b43f3f" cx="987" cy="-23" rx="36.2938" ry="18"/>
<text text-anchor="middle" x="987" y="-19.3" font-family="Times,serif" font-size="14.00">047 (a)</text>
</g>
<!-- 021&#45;&gt;047 -->
<g id="edge12" class="edge"><title>021&#45;&gt;047</title>
<path fill="none" stroke="#b43f3f" stroke-dasharray="1,5" d="M967.059,-91.799C970.538,-79.9701 975.226,-64.0301 979.183,-50.578"/>
<polygon fill="#b43f3f" stroke="#b43f3f" points="982.57,-51.4666 982.034,-40.8854 975.854,-49.4914 982.57,-51.4666"/>
<text text-anchor="middle" x="997" y="-62.8" font-family="Times,serif" font-size="14.00">1 (95.1)</text>
</g>
<!-- 0211 -->
<g id="node18" class="node"><title>0211</title>
<ellipse fill="#cea8f4" stroke="#835da9" cx="1098" cy="-110" rx="40.8928" ry="18"/>
<text text-anchor="middle" x="1098" y="-106.3" font-family="Times,serif" font-size="14.00">0211 (b)</text>
</g>
<!-- 05 -->
<g id="node19" class="node"><title>05</title>
<ellipse fill="#cea8f4" stroke="#835da9" cx="1098" cy="-23" rx="32.4942" ry="18"/>
<text text-anchor="middle" x="1098" y="-19.3" font-family="Times,serif" font-size="14.00">05 (b)</text>
</g>
<!-- 0211&#45;&gt;05 -->
<g id="edge13" class="edge"><title>0211&#45;&gt;05</title>
<path fill="none" stroke="#835da9" stroke-dasharray="1,5" d="M1098,-91.799C1098,-80.1626 1098,-64.5479 1098,-51.2368"/>
<polygon fill="#835da9" stroke="#835da9" points="1101.5,-51.1754 1098,-41.1754 1094.5,-51.1755 1101.5,-51.1754"/>
<text text-anchor="middle" x="1123.5" y="-62.8" font-family="Times,serif" font-size="14.00">11 (67.6)</text>
</g>
<!-- 011 -->
<g id="node20" class="node"><title>011</title>
<ellipse fill="#ff8a8a" stroke="#b43f3f" cx="1193" cy="-110" rx="36.2938" ry="18"/>
<text text-anchor="middle" x="1193" y="-106.3" font-family="Times,serif" font-size="14.00">011 (a)</text>
</g>
<!-- 028 -->
<g id="node21" class="node"><title>028</title>
<ellipse fill="#ff8a8a" stroke="#b43f3f" cx="1284" cy="-110" rx="36.2938" ry="18"/>
<text text-anchor="middle" x="1284" y="-106.3" font-family="Times,serif" font-size="14.00">028 (a)</text>
</g>
<!-- 0141 -->
<g id="node22" class="node"><title>0141</title>
<ellipse fill="#ff8a8a" stroke="#b43f3f" cx="1379" cy="-110" rx="40.0939" ry="18"/>
<text text-anchor="middle" x="1379" y="-106.3" font-family="Times,serif" font-size="14.00">0141 (a)</text>
</g>
</g>
</svg>
