<?xml version="1.0" encoding="UTF-8" standalone="no"?>
<!DOCTYPE svg PUBLIC "-//W3C//DTD SVG 1.1//EN"
 "http://www.w3.org/Graphics/SVG/1.1/DTD/svg11.dtd">
<!-- Generated by graphviz version 2.38.0 (20140413.2041)
 -->
<!-- Title: %3 Pages: 1 -->
<svg width="1319pt" height="234pt"
 viewBox="0.00 0.00 1319.40 234.00" xmlns="http://www.w3.org/2000/svg" xmlns:xlink="http://www.w3.org/1999/xlink">
<g id="graph0" class="graph" transform="scale(1 1) rotate(0) translate(4 230)">
<title>%3</title>
<polygon fill="white" stroke="none" points="-4,4 -4,-230 1315.4,-230 1315.4,4 -4,4"/>
<g id="clust1" class="cluster"><title>cluster_legend</title>
<path fill="none" stroke="black" d="M20,-90C20,-90 210,-90 210,-90 216,-90 222,-96 222,-102 222,-102 222,-206 222,-206 222,-212 216,-218 210,-218 210,-218 20,-218 20,-218 14,-218 8,-212 8,-206 8,-206 8,-102 8,-102 8,-96 14,-90 20,-90"/>
</g>
<!-- leg_s -->
<g id="node1" class="node"><title>leg_s</title>
<text text-anchor="middle" x="115" y="-188.3" font-family="Times,serif" font-size="14.00">Textual flow strength</text>
</g>
<!-- leg_e1 -->
<!-- leg_s&#45;&gt;leg_e1 -->
<g id="edge1" class="edge"><title>leg_s&#45;&gt;leg_e1</title>
<path fill="none" stroke="black" stroke-dasharray="1,5" d="M96.6657,-173.686C91.1324,-168.194 85.1607,-161.989 80,-156 70.1708,-144.593 60.0722,-130.779 52.9137,-120.563"/>
<polygon fill="black" stroke="black" points="55.6142,-118.314 47.056,-112.068 49.8514,-122.288 55.6142,-118.314"/>
<text text-anchor="middle" x="95.5" y="-144.8" font-family="Times,serif" font-size="14.00">&lt;=5 &#160;</text>
</g>
<!-- leg_e2 -->
<!-- leg_s&#45;&gt;leg_e2 -->
<g id="edge2" class="edge"><title>leg_s&#45;&gt;leg_e2</title>
<path fill="none" stroke="black" stroke-dasharray="5,2" d="M115,-173.799C115,-158.794 115,-137.174 115,-122.409"/>
<polygon fill="black" stroke="black" points="118.5,-122.293 115,-112.293 111.5,-122.293 118.5,-122.293"/>
<text text-anchor="middle" x="134" y="-144.8" font-family="Times,serif" font-size="14.00"> &#160;&lt;=25</text>
</g>
<!-- leg_e3 -->
<!-- leg_s&#45;&gt;leg_e3 -->
<g id="edge3" class="edge"><title>leg_s&#45;&gt;leg_e3</title>
<path fill="none" stroke="black" d="M138.503,-173.76C144.906,-168.462 151.567,-162.344 157,-156 166.087,-145.39 174.095,-131.689 179.546,-121.313"/>
<polygon fill="black" stroke="black" points="182.722,-122.789 184.091,-112.283 176.469,-119.642 182.722,-122.789"/>
<text text-anchor="middle" x="179" y="-144.8" font-family="Times,serif" font-size="14.00">&gt;25</text>
</g>
<!-- 021 -->
<g id="node5" class="node"><title>021</title>
<ellipse fill="#ff8a8a" stroke="#b43f3f" cx="268" cy="-192" rx="36.2938" ry="18"/>
<text text-anchor="middle" x="268" y="-188.3" font-family="Times,serif" font-size="14.00">021 (a)</text>
</g>
<!-- 036 -->
<g id="node6" class="node"><title>036</title>
<ellipse fill="#ff8a8a" stroke="#b43f3f" cx="268" cy="-105" rx="36.2938" ry="18"/>
<text text-anchor="middle" x="268" y="-101.3" font-family="Times,serif" font-size="14.00">036 (a)</text>
</g>
<!-- 021&#45;&gt;036 -->
<g id="edge4" class="edge"><title>021&#45;&gt;036</title>
<path fill="none" stroke="#b43f3f" stroke-dasharray="1,5" d="M268,-173.799C268,-162.163 268,-146.548 268,-133.237"/>
<polygon fill="#b43f3f" stroke="#b43f3f" points="271.5,-133.175 268,-123.175 264.5,-133.175 271.5,-133.175"/>
<text text-anchor="middle" x="290" y="-144.8" font-family="Times,serif" font-size="14.00">1 (97.6)</text>
</g>
<!-- 07 -->
<g id="node7" class="node"><title>07</title>
<ellipse fill="#ff8a8a" stroke="#b43f3f" cx="501" cy="-192" rx="31.6951" ry="18"/>
<text text-anchor="middle" x="501" y="-188.3" font-family="Times,serif" font-size="14.00">07 (a)</text>
</g>
<!-- 034 -->
<g id="node8" class="node"><title>034</title>
<ellipse fill="#ff8a8a" stroke="#b43f3f" cx="359" cy="-105" rx="36.2938" ry="18"/>
<text text-anchor="middle" x="359" y="-101.3" font-family="Times,serif" font-size="14.00">034 (a)</text>
</g>
<!-- 07&#45;&gt;034 -->
<g id="edge5" class="edge"><title>07&#45;&gt;034</title>
<path fill="none" stroke="#b43f3f" stroke-dasharray="1,5" d="M476.058,-180.64C461.411,-174.207 442.744,-165.393 427,-156 412.583,-147.399 397.452,-136.483 385.132,-127.046"/>
<polygon fill="#b43f3f" stroke="#b43f3f" points="387.139,-124.173 377.096,-120.796 382.841,-129.698 387.139,-124.173"/>
<text text-anchor="middle" x="449" y="-144.8" font-family="Times,serif" font-size="14.00">1 (95.1)</text>
</g>
<!-- 0211 -->
<g id="node9" class="node"><title>0211</title>
<ellipse fill="#ff8a8a" stroke="#b43f3f" cx="454" cy="-105" rx="40.0939" ry="18"/>
<text text-anchor="middle" x="454" y="-101.3" font-family="Times,serif" font-size="14.00">0211 (a)</text>
</g>
<!-- 07&#45;&gt;0211 -->
<g id="edge6" class="edge"><title>07&#45;&gt;0211</title>
<path fill="none" stroke="#b43f3f" stroke-dasharray="1,5" d="M491.938,-174.611C485.219,-162.46 475.93,-145.66 468.225,-131.725"/>
<polygon fill="#b43f3f" stroke="#b43f3f" points="471.097,-129.686 463.195,-122.629 464.971,-133.073 471.097,-129.686"/>
<text text-anchor="middle" x="503" y="-144.8" font-family="Times,serif" font-size="14.00">2 (82.9)</text>
</g>
<!-- 030 -->
<g id="node10" class="node"><title>030</title>
<ellipse fill="#ff8a8a" stroke="#b43f3f" cx="549" cy="-105" rx="36.2938" ry="18"/>
<text text-anchor="middle" x="549" y="-101.3" font-family="Times,serif" font-size="14.00">030 (a)</text>
</g>
<!-- 07&#45;&gt;030 -->
<g id="edge7" class="edge"><title>07&#45;&gt;030</title>
<path fill="none" stroke="#b43f3f" stroke-dasharray="1,5" d="M513.693,-175.487C518.203,-169.587 523.119,-162.674 527,-156 531.291,-148.622 535.284,-140.251 538.658,-132.498"/>
<polygon fill="#b43f3f" stroke="#b43f3f" points="541.947,-133.706 542.577,-123.13 535.489,-131.004 541.947,-133.706"/>
<text text-anchor="middle" x="557" y="-144.8" font-family="Times,serif" font-size="14.00">1 (95.1)</text>
</g>
<!-- 037 -->
<g id="node11" class="node"><title>037</title>
<ellipse fill="#cea8f4" stroke="#835da9" cx="640" cy="-105" rx="36.2938" ry="18"/>
<text text-anchor="middle" x="640" y="-101.3" font-family="Times,serif" font-size="14.00">037 (b)</text>
</g>
<!-- 07&#45;&gt;037 -->
<g id="edge8" class="edge"><title>07&#45;&gt;037</title>
<path fill="none" stroke="#835da9" stroke-dasharray="1,5" d="M527.908,-181.98C544.447,-175.849 565.708,-166.883 583,-156 595.307,-148.254 607.606,-137.883 617.613,-128.594"/>
<polygon fill="#835da9" stroke="#835da9" points="620.284,-130.883 625.103,-121.448 615.452,-125.819 620.284,-130.883"/>
<text text-anchor="middle" x="626" y="-144.8" font-family="Times,serif" font-size="14.00">1 (97.5)</text>
</g>
<!-- 047 -->
<g id="node20" class="node"><title>047</title>
<ellipse fill="#cea8f4" stroke="#835da9" cx="640" cy="-18" rx="36.2938" ry="18"/>
<text text-anchor="middle" x="640" y="-14.3" font-family="Times,serif" font-size="14.00">047 (b)</text>
</g>
<!-- 037&#45;&gt;047 -->
<g id="edge14" class="edge"><title>037&#45;&gt;047</title>
<path fill="none" stroke="#835da9" stroke-dasharray="1,5" d="M640,-86.799C640,-75.1626 640,-59.5479 640,-46.2368"/>
<polygon fill="#835da9" stroke="#835da9" points="643.5,-46.1754 640,-36.1754 636.5,-46.1755 643.5,-46.1754"/>
<text text-anchor="middle" x="662" y="-57.8" font-family="Times,serif" font-size="14.00">2 (95.0)</text>
</g>
<!-- 031 -->
<g id="node12" class="node"><title>031</title>
<ellipse fill="#ff8a8a" stroke="#b43f3f" cx="817" cy="-192" rx="36.2938" ry="18"/>
<text text-anchor="middle" x="817" y="-188.3" font-family="Times,serif" font-size="14.00">031 (a)</text>
</g>
<!-- 013 -->
<g id="node13" class="node"><title>013</title>
<ellipse fill="#ff8a8a" stroke="#b43f3f" cx="731" cy="-105" rx="36.2938" ry="18"/>
<text text-anchor="middle" x="731" y="-101.3" font-family="Times,serif" font-size="14.00">013 (a)</text>
</g>
<!-- 031&#45;&gt;013 -->
<g id="edge9" class="edge"><title>031&#45;&gt;013</title>
<path fill="none" stroke="#b43f3f" stroke-dasharray="1,5" d="M795.396,-177.25C786.74,-171.245 776.954,-163.798 769,-156 761.175,-148.329 753.638,-138.975 747.368,-130.442"/>
<polygon fill="#b43f3f" stroke="#b43f3f" points="750.206,-128.394 741.557,-122.275 744.503,-132.452 750.206,-128.394"/>
<text text-anchor="middle" x="791" y="-144.8" font-family="Times,serif" font-size="14.00">1 (97.1)</text>
</g>
<!-- 01 -->
<g id="node14" class="node"><title>01</title>
<ellipse fill="#ff8a8a" stroke="#b43f3f" cx="817" cy="-105" rx="31.6951" ry="18"/>
<text text-anchor="middle" x="817" y="-101.3" font-family="Times,serif" font-size="14.00">01 (a)</text>
</g>
<!-- 031&#45;&gt;01 -->
<g id="edge10" class="edge"><title>031&#45;&gt;01</title>
<path fill="none" stroke="#b43f3f" stroke-dasharray="1,5" d="M817,-173.799C817,-162.163 817,-146.548 817,-133.237"/>
<polygon fill="#b43f3f" stroke="#b43f3f" points="820.5,-133.175 817,-123.175 813.5,-133.175 820.5,-133.175"/>
<text text-anchor="middle" x="839" y="-144.8" font-family="Times,serif" font-size="14.00">2 (48.5)</text>
</g>
<!-- 017 -->
<g id="node15" class="node"><title>017</title>
<ellipse fill="#ff8a8a" stroke="#b43f3f" cx="903" cy="-105" rx="36.2938" ry="18"/>
<text text-anchor="middle" x="903" y="-101.3" font-family="Times,serif" font-size="14.00">017 (a)</text>
</g>
<!-- 031&#45;&gt;017 -->
<g id="edge11" class="edge"><title>031&#45;&gt;017</title>
<path fill="none" stroke="#b43f3f" stroke-dasharray="1,5" d="M838.604,-177.25C847.26,-171.245 857.046,-163.798 865,-156 872.825,-148.329 880.362,-138.975 886.632,-130.442"/>
<polygon fill="#b43f3f" stroke="#b43f3f" points="889.497,-132.452 892.443,-122.275 883.794,-128.394 889.497,-132.452"/>
<text text-anchor="middle" x="899" y="-144.8" font-family="Times,serif" font-size="14.00">1 (94.3)</text>
</g>
<!-- 045 -->
<g id="node16" class="node"><title>045</title>
<ellipse fill="#ff8a8a" stroke="#b43f3f" cx="994" cy="-192" rx="36.2938" ry="18"/>
<text text-anchor="middle" x="994" y="-188.3" font-family="Times,serif" font-size="14.00">045 (a)</text>
</g>
<!-- 038 -->
<g id="node17" class="node"><title>038</title>
<ellipse fill="#ff8a8a" stroke="#b43f3f" cx="994" cy="-105" rx="36.2938" ry="18"/>
<text text-anchor="middle" x="994" y="-101.3" font-family="Times,serif" font-size="14.00">038 (a)</text>
</g>
<!-- 045&#45;&gt;038 -->
<g id="edge12" class="edge"><title>045&#45;&gt;038</title>
<path fill="none" stroke="#b43f3f" stroke-dasharray="1,5" d="M994,-173.799C994,-162.163 994,-146.548 994,-133.237"/>
<polygon fill="#b43f3f" stroke="#b43f3f" points="997.5,-133.175 994,-123.175 990.5,-133.175 997.5,-133.175"/>
<text text-anchor="middle" x="1016" y="-144.8" font-family="Times,serif" font-size="14.00">1 (92.7)</text>
</g>
<!-- 0141 -->
<g id="node18" class="node"><title>0141</title>
<ellipse fill="#ff8a8a" stroke="#b43f3f" cx="1089" cy="-192" rx="40.0939" ry="18"/>
<text text-anchor="middle" x="1089" y="-188.3" font-family="Times,serif" font-size="14.00">0141 (a)</text>
</g>
<!-- 05 -->
<g id="node19" class="node"><title>05</title>
<ellipse fill="#ff8a8a" stroke="#b43f3f" cx="1089" cy="-105" rx="31.6951" ry="18"/>
<text text-anchor="middle" x="1089" y="-101.3" font-family="Times,serif" font-size="14.00">05 (a)</text>
</g>
<!-- 0141&#45;&gt;05 -->
<g id="edge13" class="edge"><title>0141&#45;&gt;05</title>
<path fill="none" stroke="#b43f3f" stroke-dasharray="1,5" d="M1089,-173.799C1089,-162.163 1089,-146.548 1089,-133.237"/>
<polygon fill="#b43f3f" stroke="#b43f3f" points="1092.5,-133.175 1089,-123.175 1085.5,-133.175 1092.5,-133.175"/>
<text text-anchor="middle" x="1111" y="-144.8" font-family="Times,serif" font-size="14.00">9 (70.6)</text>
</g>
<!-- 011 -->
<g id="node21" class="node"><title>011</title>
<ellipse fill="#ff8a8a" stroke="#b43f3f" cx="1184" cy="-192" rx="36.2938" ry="18"/>
<text text-anchor="middle" x="1184" y="-188.3" font-family="Times,serif" font-size="14.00">011 (a)</text>
</g>
<!-- 028 -->
<g id="node22" class="node"><title>028</title>
<ellipse fill="#ff8a8a" stroke="#b43f3f" cx="1275" cy="-192" rx="36.2938" ry="18"/>
<text text-anchor="middle" x="1275" y="-188.3" font-family="Times,serif" font-size="14.00">028 (a)</text>
</g>
</g>
</svg>
