<?xml version="1.0" encoding="UTF-8" standalone="no"?>
<!DOCTYPE svg PUBLIC "-//W3C//DTD SVG 1.1//EN"
 "http://www.w3.org/Graphics/SVG/1.1/DTD/svg11.dtd">
<!-- Generated by graphviz version 2.38.0 (20140413.2041)
 -->
<!-- Title: %3 Pages: 1 -->
<svg width="1160pt" height="408pt"
 viewBox="0.00 0.00 1160.24 408.00" xmlns="http://www.w3.org/2000/svg" xmlns:xlink="http://www.w3.org/1999/xlink">
<g id="graph0" class="graph" transform="scale(1 1) rotate(0) translate(4 404)">
<title>%3</title>
<polygon fill="white" stroke="none" points="-4,4 -4,-404 1156.24,-404 1156.24,4 -4,4"/>
<g id="clust1" class="cluster"><title>cluster_legend</title>
<path fill="none" stroke="black" d="M345.397,-264C345.397,-264 535.397,-264 535.397,-264 541.397,-264 547.397,-270 547.397,-276 547.397,-276 547.397,-380 547.397,-380 547.397,-386 541.397,-392 535.397,-392 535.397,-392 345.397,-392 345.397,-392 339.397,-392 333.397,-386 333.397,-380 333.397,-380 333.397,-276 333.397,-276 333.397,-270 339.397,-264 345.397,-264"/>
</g>
<!-- leg_s -->
<g id="node1" class="node"><title>leg_s</title>
<text text-anchor="middle" x="440.397" y="-362.3" font-family="Times,serif" font-size="14.00">Textual flow strength</text>
</g>
<!-- leg_e1 -->
<!-- leg_s&#45;&gt;leg_e1 -->
<g id="edge1" class="edge"><title>leg_s&#45;&gt;leg_e1</title>
<path fill="none" stroke="black" stroke-dasharray="1,5" d="M422.062,-347.686C416.529,-342.194 410.557,-335.989 405.397,-330 395.568,-318.593 385.469,-304.779 378.31,-294.563"/>
<polygon fill="black" stroke="black" points="381.011,-292.314 372.453,-286.068 375.248,-296.288 381.011,-292.314"/>
<text text-anchor="middle" x="420.897" y="-318.8" font-family="Times,serif" font-size="14.00">&lt;=5 &#160;</text>
</g>
<!-- leg_e2 -->
<!-- leg_s&#45;&gt;leg_e2 -->
<g id="edge2" class="edge"><title>leg_s&#45;&gt;leg_e2</title>
<path fill="none" stroke="black" stroke-dasharray="5,2" d="M440.397,-347.799C440.397,-332.794 440.397,-311.174 440.397,-296.409"/>
<polygon fill="black" stroke="black" points="443.897,-296.293 440.397,-286.293 436.897,-296.293 443.897,-296.293"/>
<text text-anchor="middle" x="459.397" y="-318.8" font-family="Times,serif" font-size="14.00"> &#160;&lt;=25</text>
</g>
<!-- leg_e3 -->
<!-- leg_s&#45;&gt;leg_e3 -->
<g id="edge3" class="edge"><title>leg_s&#45;&gt;leg_e3</title>
<path fill="none" stroke="black" d="M463.9,-347.76C470.303,-342.462 476.963,-336.344 482.397,-330 491.484,-319.39 499.492,-305.689 504.943,-295.313"/>
<polygon fill="black" stroke="black" points="508.119,-296.789 509.488,-286.283 501.866,-293.642 508.119,-296.789"/>
<text text-anchor="middle" x="504.397" y="-318.8" font-family="Times,serif" font-size="14.00">&gt;25</text>
</g>
<!-- A -->
<g id="node5" class="node"><title>A</title>
<ellipse fill="#ff8a8a" stroke="#b43f3f" cx="766.397" cy="-366" rx="29.4969" ry="18"/>
<text text-anchor="middle" x="766.397" y="-362.3" font-family="Times,serif" font-size="14.00">A (a)</text>
</g>
<!-- 01 -->
<g id="node6" class="node"><title>01</title>
<ellipse fill="#ff8a8a" stroke="#b43f3f" cx="589.397" cy="-279" rx="31.6951" ry="18"/>
<text text-anchor="middle" x="589.397" y="-275.3" font-family="Times,serif" font-size="14.00">01 (a)</text>
</g>
<!-- A&#45;&gt;01 -->
<g id="edge4" class="edge"><title>A&#45;&gt;01</title>
<path fill="none" stroke="#b43f3f" stroke-dasharray="5,2" d="M739.464,-358.944C716.804,-353.249 683.945,-343.565 657.397,-330 642.024,-322.145 626.398,-310.931 614.009,-301.112"/>
<polygon fill="#b43f3f" stroke="#b43f3f" points="615.959,-298.187 605.992,-294.596 611.545,-303.619 615.959,-298.187"/>
<text text-anchor="middle" x="679.397" y="-318.8" font-family="Times,serif" font-size="14.00">1 (57.1)</text>
</g>
<!-- P75 -->
<g id="node7" class="node"><title>P75</title>
<ellipse fill="#ff8a8a" stroke="#b43f3f" cx="675.397" cy="-279" rx="36.2938" ry="18"/>
<text text-anchor="middle" x="675.397" y="-275.3" font-family="Times,serif" font-size="14.00">P75 (a)</text>
</g>
<!-- A&#45;&gt;P75 -->
<g id="edge5" class="edge"><title>A&#45;&gt;P75</title>
<path fill="none" stroke="#b43f3f" stroke-dasharray="1,5" d="M746.92,-352.326C737.869,-346.06 727.189,-338.113 718.397,-330 709.853,-322.115 701.321,-312.619 694.136,-304.029"/>
<polygon fill="#b43f3f" stroke="#b43f3f" points="696.741,-301.685 687.704,-296.155 691.32,-306.113 696.741,-301.685"/>
<text text-anchor="middle" x="740.397" y="-318.8" font-family="Times,serif" font-size="14.00">1 (93.3)</text>
</g>
<!-- 019 -->
<g id="node8" class="node"><title>019</title>
<ellipse fill="#ff8a8a" stroke="#b43f3f" cx="766.397" cy="-279" rx="36.2938" ry="18"/>
<text text-anchor="middle" x="766.397" y="-275.3" font-family="Times,serif" font-size="14.00">019 (a)</text>
</g>
<!-- A&#45;&gt;019 -->
<g id="edge6" class="edge"><title>A&#45;&gt;019</title>
<path fill="none" stroke="#b43f3f" stroke-dasharray="1,5" d="M766.397,-347.799C766.397,-336.163 766.397,-320.548 766.397,-307.237"/>
<polygon fill="#b43f3f" stroke="#b43f3f" points="769.897,-307.175 766.397,-297.175 762.897,-307.175 769.897,-307.175"/>
<text text-anchor="middle" x="788.397" y="-318.8" font-family="Times,serif" font-size="14.00">1 (93.3)</text>
</g>
<!-- 03 -->
<g id="node9" class="node"><title>03</title>
<ellipse fill="#ff8a8a" stroke="#b43f3f" cx="852.397" cy="-279" rx="31.6951" ry="18"/>
<text text-anchor="middle" x="852.397" y="-275.3" font-family="Times,serif" font-size="14.00">03 (a)</text>
</g>
<!-- A&#45;&gt;03 -->
<g id="edge7" class="edge"><title>A&#45;&gt;03</title>
<path fill="none" stroke="#b43f3f" stroke-dasharray="1,5" d="M786.097,-352.561C795.197,-346.347 805.854,-338.375 814.397,-330 822.221,-322.329 829.759,-312.975 836.029,-304.442"/>
<polygon fill="#b43f3f" stroke="#b43f3f" points="838.894,-306.452 841.84,-296.275 833.191,-302.394 838.894,-306.452"/>
<text text-anchor="middle" x="849.397" y="-318.8" font-family="Times,serif" font-size="14.00">1 (93.3)</text>
</g>
<!-- 091 -->
<g id="node10" class="node"><title>091</title>
<ellipse fill="#ff8a8a" stroke="#b43f3f" cx="1030.4" cy="-279" rx="36.2938" ry="18"/>
<text text-anchor="middle" x="1030.4" y="-275.3" font-family="Times,serif" font-size="14.00">091 (a)</text>
</g>
<!-- A&#45;&gt;091 -->
<g id="edge8" class="edge"><title>A&#45;&gt;091</title>
<path fill="none" stroke="#b43f3f" stroke-dasharray="1,5" d="M791.947,-356.806C814.039,-349.719 846.828,-339.195 875.397,-330 914.742,-317.337 959.693,-302.833 991.018,-292.719"/>
<polygon fill="#b43f3f" stroke="#b43f3f" points="992.245,-296.001 1000.69,-289.597 990.094,-289.339 992.245,-296.001"/>
<text text-anchor="middle" x="940.397" y="-318.8" font-family="Times,serif" font-size="14.00">1 (87.5)</text>
</g>
<!-- 063 -->
<g id="node17" class="node"><title>063</title>
<ellipse fill="#ff8a8a" stroke="#b43f3f" cx="488.397" cy="-192" rx="36.2938" ry="18"/>
<text text-anchor="middle" x="488.397" y="-188.3" font-family="Times,serif" font-size="14.00">063 (a)</text>
</g>
<!-- 019&#45;&gt;063 -->
<g id="edge13" class="edge"><title>019&#45;&gt;063</title>
<path fill="none" stroke="#b43f3f" stroke-dasharray="1,5" d="M738.286,-267.262C732.401,-265.113 726.217,-262.926 720.397,-261 654.131,-239.073 576.058,-216.939 529.481,-204.119"/>
<polygon fill="#b43f3f" stroke="#b43f3f" points="530.324,-200.721 519.754,-201.452 528.472,-207.472 530.324,-200.721"/>
<text text-anchor="middle" x="686.397" y="-231.8" font-family="Times,serif" font-size="14.00">1 (85.7)</text>
</g>
<!-- 044 -->
<g id="node11" class="node"><title>044</title>
<ellipse fill="#ff8a8a" stroke="#b43f3f" cx="761.397" cy="-192" rx="36.2938" ry="18"/>
<text text-anchor="middle" x="761.397" y="-188.3" font-family="Times,serif" font-size="14.00">044 (a)</text>
</g>
<!-- 03&#45;&gt;044 -->
<g id="edge14" class="edge"><title>03&#45;&gt;044</title>
<path fill="none" stroke="#b43f3f" stroke-dasharray="1,5" d="M831.978,-264.672C823.134,-258.512 812.886,-250.834 804.397,-243 795.853,-235.115 787.321,-225.619 780.136,-217.029"/>
<polygon fill="#b43f3f" stroke="#b43f3f" points="782.741,-214.685 773.704,-209.155 777.32,-219.113 782.741,-214.685"/>
<text text-anchor="middle" x="826.397" y="-231.8" font-family="Times,serif" font-size="14.00">1 (89.2)</text>
</g>
<!-- 032 -->
<g id="node18" class="node"><title>032</title>
<ellipse fill="#ff8a8a" stroke="#b43f3f" cx="852.397" cy="-192" rx="36.2938" ry="18"/>
<text text-anchor="middle" x="852.397" y="-188.3" font-family="Times,serif" font-size="14.00">032 (a)</text>
</g>
<!-- 03&#45;&gt;032 -->
<g id="edge15" class="edge"><title>03&#45;&gt;032</title>
<path fill="none" stroke="#b43f3f" stroke-dasharray="1,5" d="M852.397,-260.799C852.397,-249.163 852.397,-233.548 852.397,-220.237"/>
<polygon fill="#b43f3f" stroke="#b43f3f" points="855.897,-220.175 852.397,-210.175 848.897,-220.175 855.897,-220.175"/>
<text text-anchor="middle" x="874.397" y="-231.8" font-family="Times,serif" font-size="14.00">1 (91.7)</text>
</g>
<!-- 02 -->
<g id="node19" class="node"><title>02</title>
<ellipse fill="#cea8f4" stroke="#835da9" cx="939.397" cy="-192" rx="32.4942" ry="18"/>
<text text-anchor="middle" x="939.397" y="-188.3" font-family="Times,serif" font-size="14.00">02 (b)</text>
</g>
<!-- 03&#45;&gt;02 -->
<g id="edge16" class="edge"><title>03&#45;&gt;02</title>
<path fill="none" stroke="#835da9" stroke-dasharray="1,5" d="M872.996,-264.862C881.873,-258.738 892.098,-251.034 900.397,-243 908.346,-235.304 916.064,-225.945 922.508,-217.414"/>
<polygon fill="#835da9" stroke="#835da9" points="925.401,-219.388 928.488,-209.252 919.755,-215.25 925.401,-219.388"/>
<text text-anchor="middle" x="935.397" y="-231.8" font-family="Times,serif" font-size="14.00">1 (86.5)</text>
</g>
<!-- 0211 -->
<g id="node25" class="node"><title>0211</title>
<ellipse fill="#ff8a8a" stroke="#b43f3f" cx="1030.4" cy="-192" rx="40.0939" ry="18"/>
<text text-anchor="middle" x="1030.4" y="-188.3" font-family="Times,serif" font-size="14.00">0211 (a)</text>
</g>
<!-- 091&#45;&gt;0211 -->
<g id="edge23" class="edge"><title>091&#45;&gt;0211</title>
<path fill="none" stroke="#b43f3f" stroke-dasharray="1,5" d="M1030.4,-260.799C1030.4,-249.163 1030.4,-233.548 1030.4,-220.237"/>
<polygon fill="#b43f3f" stroke="#b43f3f" points="1033.9,-220.175 1030.4,-210.175 1026.9,-220.175 1033.9,-220.175"/>
<text text-anchor="middle" x="1052.4" y="-231.8" font-family="Times,serif" font-size="14.00">1 (83.3)</text>
</g>
<!-- 05 -->
<g id="node26" class="node"><title>05</title>
<ellipse fill="#ff8a8a" stroke="#b43f3f" cx="1120.4" cy="-192" rx="31.6951" ry="18"/>
<text text-anchor="middle" x="1120.4" y="-188.3" font-family="Times,serif" font-size="14.00">05 (a)</text>
</g>
<!-- 091&#45;&gt;05 -->
<g id="edge24" class="edge"><title>091&#45;&gt;05</title>
<path fill="none" stroke="#b43f3f" stroke-dasharray="1,5" d="M1051.81,-264.054C1060.44,-258.018 1070.26,-250.601 1078.4,-243 1086.81,-235.144 1095.16,-225.653 1102.17,-217.06"/>
<polygon fill="#b43f3f" stroke="#b43f3f" points="1104.95,-219.185 1108.44,-209.18 1099.47,-214.827 1104.95,-219.185"/>
<text text-anchor="middle" x="1114.4" y="-231.8" font-family="Times,serif" font-size="14.00">1 (87.5)</text>
</g>
<!-- 022 -->
<g id="node12" class="node"><title>022</title>
<ellipse fill="#ff8a8a" stroke="#b43f3f" cx="761.397" cy="-105" rx="36.2938" ry="18"/>
<text text-anchor="middle" x="761.397" y="-101.3" font-family="Times,serif" font-size="14.00">022 (a)</text>
</g>
<!-- 044&#45;&gt;022 -->
<g id="edge9" class="edge"><title>044&#45;&gt;022</title>
<path fill="none" stroke="#b43f3f" stroke-dasharray="1,5" d="M761.397,-173.799C761.397,-162.163 761.397,-146.548 761.397,-133.237"/>
<polygon fill="#b43f3f" stroke="#b43f3f" points="764.897,-133.175 761.397,-123.175 757.897,-133.175 764.897,-133.175"/>
<text text-anchor="middle" x="783.397" y="-144.8" font-family="Times,serif" font-size="14.00">1 (91.7)</text>
</g>
<!-- 0141 -->
<g id="node13" class="node"><title>0141</title>
<ellipse fill="#ff8a8a" stroke="#b43f3f" cx="856.397" cy="-105" rx="40.0939" ry="18"/>
<text text-anchor="middle" x="856.397" y="-101.3" font-family="Times,serif" font-size="14.00">0141 (a)</text>
</g>
<!-- 044&#45;&gt;0141 -->
<g id="edge10" class="edge"><title>044&#45;&gt;0141</title>
<path fill="none" stroke="#b43f3f" stroke-dasharray="1,5" d="M782.127,-177.159C790.833,-171.025 800.891,-163.508 809.397,-156 818.56,-147.911 827.927,-138.276 835.863,-129.632"/>
<polygon fill="#b43f3f" stroke="#b43f3f" points="838.606,-131.816 842.702,-122.045 833.407,-127.129 838.606,-131.816"/>
<text text-anchor="middle" x="847.397" y="-144.8" font-family="Times,serif" font-size="14.00">1 (89.2)</text>
</g>
<!-- 031 -->
<g id="node14" class="node"><title>031</title>
<ellipse fill="#ff8a8a" stroke="#b43f3f" cx="127.397" cy="-105" rx="36.2938" ry="18"/>
<text text-anchor="middle" x="127.397" y="-101.3" font-family="Times,serif" font-size="14.00">031 (a)</text>
</g>
<!-- 013 -->
<g id="node15" class="node"><title>013</title>
<ellipse fill="#ff8a8a" stroke="#b43f3f" cx="36.3968" cy="-18" rx="36.2938" ry="18"/>
<text text-anchor="middle" x="36.3968" y="-14.3" font-family="Times,serif" font-size="14.00">013 (a)</text>
</g>
<!-- 031&#45;&gt;013 -->
<g id="edge11" class="edge"><title>031&#45;&gt;013</title>
<path fill="none" stroke="#b43f3f" stroke-dasharray="1,5" d="M106.025,-90.006C97.4044,-83.9634 87.5824,-76.5539 79.3968,-69 70.8527,-61.1154 62.3211,-51.6186 55.1364,-43.0293"/>
<polygon fill="#b43f3f" stroke="#b43f3f" points="57.741,-40.6853 48.7043,-35.1545 52.3196,-45.1135 57.741,-40.6853"/>
<text text-anchor="middle" x="101.397" y="-57.8" font-family="Times,serif" font-size="14.00">1 (97.1)</text>
</g>
<!-- 017 -->
<g id="node16" class="node"><title>017</title>
<ellipse fill="#ff8a8a" stroke="#b43f3f" cx="127.397" cy="-18" rx="36.2938" ry="18"/>
<text text-anchor="middle" x="127.397" y="-14.3" font-family="Times,serif" font-size="14.00">017 (a)</text>
</g>
<!-- 031&#45;&gt;017 -->
<g id="edge12" class="edge"><title>031&#45;&gt;017</title>
<path fill="none" stroke="#b43f3f" stroke-dasharray="1,5" d="M127.397,-86.799C127.397,-75.1626 127.397,-59.5479 127.397,-46.2368"/>
<polygon fill="#b43f3f" stroke="#b43f3f" points="130.897,-46.1754 127.397,-36.1754 123.897,-46.1755 130.897,-46.1754"/>
<text text-anchor="middle" x="149.397" y="-57.8" font-family="Times,serif" font-size="14.00">1 (94.3)</text>
</g>
<!-- 063&#45;&gt;031 -->
<g id="edge17" class="edge"><title>063&#45;&gt;031</title>
<path fill="none" stroke="#b43f3f" stroke-dasharray="1,5" d="M454.585,-185.17C418.473,-178.761 359.644,-167.797 309.397,-156 260.264,-144.465 204.373,-128.711 167.641,-117.99"/>
<polygon fill="#b43f3f" stroke="#b43f3f" points="168.391,-114.563 157.81,-115.108 166.421,-121.28 168.391,-114.563"/>
<text text-anchor="middle" x="331.397" y="-144.8" font-family="Times,serif" font-size="14.00">1 (95.8)</text>
</g>
<!-- 011 -->
<g id="node20" class="node"><title>011</title>
<ellipse fill="#ff8a8a" stroke="#b43f3f" cx="314.397" cy="-105" rx="36.2938" ry="18"/>
<text text-anchor="middle" x="314.397" y="-101.3" font-family="Times,serif" font-size="14.00">011 (a)</text>
</g>
<!-- 063&#45;&gt;011 -->
<g id="edge18" class="edge"><title>063&#45;&gt;011</title>
<path fill="none" stroke="#b43f3f" stroke-dasharray="1,5" d="M455.751,-183.669C433.461,-177.918 403.684,-168.743 379.397,-156 364.991,-148.442 350.495,-137.669 338.86,-128.058"/>
<polygon fill="#b43f3f" stroke="#b43f3f" points="340.823,-125.133 330.936,-121.327 336.292,-130.468 340.823,-125.133"/>
<text text-anchor="middle" x="401.397" y="-144.8" font-family="Times,serif" font-size="14.00">1 (93.1)</text>
</g>
<!-- 07 -->
<g id="node21" class="node"><title>07</title>
<ellipse fill="#ff8a8a" stroke="#b43f3f" cx="400.397" cy="-105" rx="31.6951" ry="18"/>
<text text-anchor="middle" x="400.397" y="-101.3" font-family="Times,serif" font-size="14.00">07 (a)</text>
</g>
<!-- 063&#45;&gt;07 -->
<g id="edge19" class="edge"><title>063&#45;&gt;07</title>
<path fill="none" stroke="#b43f3f" stroke-dasharray="1,5" d="M466.889,-177.151C458.248,-171.13 448.447,-163.698 440.397,-156 432.322,-148.279 424.423,-138.914 417.805,-130.386"/>
<polygon fill="#b43f3f" stroke="#b43f3f" points="420.471,-128.107 411.656,-122.229 414.881,-132.321 420.471,-128.107"/>
<text text-anchor="middle" x="462.397" y="-144.8" font-family="Times,serif" font-size="14.00">1 (96.6)</text>
</g>
<!-- 045 -->
<g id="node22" class="node"><title>045</title>
<ellipse fill="#ff8a8a" stroke="#b43f3f" cx="488.397" cy="-105" rx="36.2938" ry="18"/>
<text text-anchor="middle" x="488.397" y="-101.3" font-family="Times,serif" font-size="14.00">045 (a)</text>
</g>
<!-- 063&#45;&gt;045 -->
<g id="edge20" class="edge"><title>063&#45;&gt;045</title>
<path fill="none" stroke="#b43f3f" stroke-dasharray="1,5" d="M488.397,-173.799C488.397,-162.163 488.397,-146.548 488.397,-133.237"/>
<polygon fill="#b43f3f" stroke="#b43f3f" points="491.897,-133.175 488.397,-123.175 484.897,-133.175 491.897,-133.175"/>
<text text-anchor="middle" x="510.397" y="-144.8" font-family="Times,serif" font-size="14.00">1 (93.1)</text>
</g>
<!-- 021 -->
<g id="node23" class="node"><title>021</title>
<ellipse fill="#ff8a8a" stroke="#b43f3f" cx="579.397" cy="-105" rx="36.2938" ry="18"/>
<text text-anchor="middle" x="579.397" y="-101.3" font-family="Times,serif" font-size="14.00">021 (a)</text>
</g>
<!-- 063&#45;&gt;021 -->
<g id="edge21" class="edge"><title>063&#45;&gt;021</title>
<path fill="none" stroke="#b43f3f" stroke-dasharray="1,5" d="M509.768,-177.006C518.389,-170.963 528.211,-163.554 536.397,-156 544.941,-148.115 553.472,-138.619 560.657,-130.029"/>
<polygon fill="#b43f3f" stroke="#b43f3f" points="563.474,-132.113 567.089,-122.155 558.053,-127.685 563.474,-132.113"/>
<text text-anchor="middle" x="572.397" y="-144.8" font-family="Times,serif" font-size="14.00">1 (93.1)</text>
</g>
<!-- 028 -->
<g id="node24" class="node"><title>028</title>
<ellipse fill="#ff8a8a" stroke="#b43f3f" cx="670.397" cy="-105" rx="36.2938" ry="18"/>
<text text-anchor="middle" x="670.397" y="-101.3" font-family="Times,serif" font-size="14.00">028 (a)</text>
</g>
<!-- 063&#45;&gt;028 -->
<g id="edge22" class="edge"><title>063&#45;&gt;028</title>
<path fill="none" stroke="#b43f3f" stroke-dasharray="1,5" d="M520.664,-183.461C543.123,-177.566 573.405,-168.305 598.397,-156 614.525,-148.059 631.099,-136.801 644.273,-126.977"/>
<polygon fill="#b43f3f" stroke="#b43f3f" points="646.572,-129.626 652.401,-120.778 642.327,-124.06 646.572,-129.626"/>
<text text-anchor="middle" x="645.397" y="-144.8" font-family="Times,serif" font-size="14.00">1 (96.6)</text>
</g>
<!-- 037 -->
<g id="node27" class="node"><title>037</title>
<ellipse fill="#ff8a8a" stroke="#b43f3f" cx="218.397" cy="-18" rx="36.2938" ry="18"/>
<text text-anchor="middle" x="218.397" y="-14.3" font-family="Times,serif" font-size="14.00">037 (a)</text>
</g>
<!-- 07&#45;&gt;037 -->
<g id="edge25" class="edge"><title>07&#45;&gt;037</title>
<path fill="none" stroke="#b43f3f" stroke-dasharray="1,5" d="M375.885,-93.2085C370.504,-91.0164 364.799,-88.8257 359.397,-87 329.779,-76.9903 319.818,-82.0229 291.397,-69 274.786,-61.3888 257.851,-50.0563 244.48,-40.1037"/>
<polygon fill="#b43f3f" stroke="#b43f3f" points="246.319,-37.1039 236.247,-33.8157 242.07,-42.667 246.319,-37.1039"/>
<text text-anchor="middle" x="313.397" y="-57.8" font-family="Times,serif" font-size="14.00">1 (97.5)</text>
</g>
<!-- 034 -->
<g id="node28" class="node"><title>034</title>
<ellipse fill="#ff8a8a" stroke="#b43f3f" cx="309.397" cy="-18" rx="36.2938" ry="18"/>
<text text-anchor="middle" x="309.397" y="-14.3" font-family="Times,serif" font-size="14.00">034 (a)</text>
</g>
<!-- 07&#45;&gt;034 -->
<g id="edge26" class="edge"><title>07&#45;&gt;034</title>
<path fill="none" stroke="#b43f3f" stroke-dasharray="1,5" d="M379.978,-90.6717C371.134,-84.5121 360.886,-76.8337 352.397,-69 343.853,-61.1154 335.321,-51.6186 328.136,-43.0293"/>
<polygon fill="#b43f3f" stroke="#b43f3f" points="330.741,-40.6853 321.704,-35.1545 325.32,-45.1135 330.741,-40.6853"/>
<text text-anchor="middle" x="374.397" y="-57.8" font-family="Times,serif" font-size="14.00">1 (95.1)</text>
</g>
<!-- 030 -->
<g id="node29" class="node"><title>030</title>
<ellipse fill="#ff8a8a" stroke="#b43f3f" cx="400.397" cy="-18" rx="36.2938" ry="18"/>
<text text-anchor="middle" x="400.397" y="-14.3" font-family="Times,serif" font-size="14.00">030 (a)</text>
</g>
<!-- 07&#45;&gt;030 -->
<g id="edge27" class="edge"><title>07&#45;&gt;030</title>
<path fill="none" stroke="#b43f3f" stroke-dasharray="1,5" d="M400.397,-86.799C400.397,-75.1626 400.397,-59.5479 400.397,-46.2368"/>
<polygon fill="#b43f3f" stroke="#b43f3f" points="403.897,-46.1754 400.397,-36.1754 396.897,-46.1755 403.897,-46.1754"/>
<text text-anchor="middle" x="422.397" y="-57.8" font-family="Times,serif" font-size="14.00">1 (95.1)</text>
</g>
<!-- 038 -->
<g id="node30" class="node"><title>038</title>
<ellipse fill="#ff8a8a" stroke="#b43f3f" cx="491.397" cy="-18" rx="36.2938" ry="18"/>
<text text-anchor="middle" x="491.397" y="-14.3" font-family="Times,serif" font-size="14.00">038 (a)</text>
</g>
<!-- 045&#45;&gt;038 -->
<g id="edge28" class="edge"><title>045&#45;&gt;038</title>
<path fill="none" stroke="#b43f3f" stroke-dasharray="1,5" d="M489.004,-86.799C489.415,-75.1626 489.966,-59.5479 490.435,-46.2368"/>
<polygon fill="#b43f3f" stroke="#b43f3f" points="493.936,-46.2927 490.791,-36.1754 486.94,-46.0457 493.936,-46.2927"/>
<text text-anchor="middle" x="512.397" y="-57.8" font-family="Times,serif" font-size="14.00">1 (92.7)</text>
</g>
<!-- 036 -->
<g id="node31" class="node"><title>036</title>
<ellipse fill="#ff8a8a" stroke="#b43f3f" cx="582.397" cy="-18" rx="36.2938" ry="18"/>
<text text-anchor="middle" x="582.397" y="-14.3" font-family="Times,serif" font-size="14.00">036 (a)</text>
</g>
<!-- 021&#45;&gt;036 -->
<g id="edge29" class="edge"><title>021&#45;&gt;036</title>
<path fill="none" stroke="#b43f3f" stroke-dasharray="1,5" d="M580.004,-86.799C580.415,-75.1626 580.966,-59.5479 581.435,-46.2368"/>
<polygon fill="#b43f3f" stroke="#b43f3f" points="584.936,-46.2927 581.791,-36.1754 577.94,-46.0457 584.936,-46.2927"/>
<text text-anchor="middle" x="603.397" y="-57.8" font-family="Times,serif" font-size="14.00">1 (97.6)</text>
</g>
<!-- 047 -->
<g id="node32" class="node"><title>047</title>
<ellipse fill="#ff8a8a" stroke="#b43f3f" cx="673.397" cy="-18" rx="36.2938" ry="18"/>
<text text-anchor="middle" x="673.397" y="-14.3" font-family="Times,serif" font-size="14.00">047 (a)</text>
</g>
<!-- 021&#45;&gt;047 -->
<g id="edge30" class="edge"><title>021&#45;&gt;047</title>
<path fill="none" stroke="#b43f3f" stroke-dasharray="1,5" d="M601.16,-90.4168C610.258,-84.3272 620.711,-76.7722 629.397,-69 638.147,-61.1702 646.879,-51.6848 654.23,-43.0893"/>
<polygon fill="#b43f3f" stroke="#b43f3f" points="657.09,-45.1242 660.81,-35.2039 651.715,-40.6393 657.09,-45.1242"/>
<text text-anchor="middle" x="666.397" y="-57.8" font-family="Times,serif" font-size="14.00">1 (95.1)</text>
</g>
</g>
</svg>
