<?xml version="1.0" encoding="UTF-8" standalone="no"?>
<!DOCTYPE svg PUBLIC "-//W3C//DTD SVG 1.1//EN"
 "http://www.w3.org/Graphics/SVG/1.1/DTD/svg11.dtd">
<!-- Generated by graphviz version 2.38.0 (20140413.2041)
 -->
<!-- Title: G Pages: 1 -->
<svg width="1024pt" height="332pt"
 viewBox="0.00 0.00 1023.69 332.00" xmlns="http://www.w3.org/2000/svg" xmlns:xlink="http://www.w3.org/1999/xlink">
<g id="graph0" class="graph" transform="scale(1 1) rotate(0) translate(4 328)">
<title>G</title>
<polygon fill="white" stroke="none" points="-4,4 -4,-328 1019.69,-328 1019.69,4 -4,4"/>
<!-- 038 (a) -->
<g id="node1" class="node"><title>038 (a)</title>
<ellipse fill="#ff8a8a" stroke="#b43f3f" cx="313.397" cy="-18" rx="36.2938" ry="18"/>
<text text-anchor="middle" x="313.397" y="-14.3" font-family="Times,serif" font-size="14.00">038 (a)</text>
</g>
<!-- 037 (a) -->
<g id="node2" class="node"><title>037 (a)</title>
<ellipse fill="#ff8a8a" stroke="#b43f3f" cx="404.397" cy="-18" rx="36.2938" ry="18"/>
<text text-anchor="middle" x="404.397" y="-14.3" font-family="Times,serif" font-size="14.00">037 (a)</text>
</g>
<!-- 019 (b) -->
<g id="node3" class="node"><title>019 (b)</title>
<ellipse fill="#cea8f4" stroke="#835da9" cx="600.397" cy="-234" rx="36.2938" ry="18"/>
<text text-anchor="middle" x="600.397" y="-230.3" font-family="Times,serif" font-size="14.00">019 (b)</text>
</g>
<!-- 063 (b) -->
<g id="node9" class="node"><title>063 (b)</title>
<ellipse fill="#cea8f4" stroke="#835da9" cx="406.397" cy="-162" rx="36.2938" ry="18"/>
<text text-anchor="middle" x="406.397" y="-158.3" font-family="Times,serif" font-size="14.00">063 (b)</text>
</g>
<!-- 019 (b)&#45;&gt;063 (b) -->
<g id="edge1" class="edge"><title>019 (b)&#45;&gt;063 (b)</title>
<path fill="none" stroke="black" d="M571.771,-222.671C538.005,-210.487 481.746,-190.188 444.363,-176.699"/>
<polygon fill="black" stroke="black" points="445.418,-173.359 434.824,-173.257 443.042,-179.943 445.418,-173.359"/>
</g>
<!-- 032 (b) -->
<g id="node4" class="node"><title>032 (b)</title>
<ellipse fill="#cea8f4" stroke="#835da9" cx="789.397" cy="-162" rx="36.2938" ry="18"/>
<text text-anchor="middle" x="789.397" y="-158.3" font-family="Times,serif" font-size="14.00">032 (b)</text>
</g>
<!-- 05/9 (a) -->
<g id="node5" class="node"><title>05/9 (a)</title>
<ellipse fill="#ff8a8a" stroke="#b43f3f" cx="975.397" cy="-18" rx="38.1938" ry="18"/>
<text text-anchor="middle" x="975.397" y="-14.3" font-family="Times,serif" font-size="14.00">05/9 (a)</text>
</g>
<!-- A (b) -->
<g id="node6" class="node"><title>A (b)</title>
<ellipse fill="#cea8f4" stroke="#835da9" cx="834.397" cy="-306" rx="29.795" ry="18"/>
<text text-anchor="middle" x="834.397" y="-302.3" font-family="Times,serif" font-size="14.00">A (b)</text>
</g>
<!-- A (b)&#45;&gt;019 (b) -->
<g id="edge3" class="edge"><title>A (b)&#45;&gt;019 (b)</title>
<path fill="none" stroke="black" d="M808.009,-297.106C767.168,-284.889 688.371,-261.317 640.47,-246.988"/>
<polygon fill="black" stroke="black" points="641.326,-243.591 630.743,-244.078 639.32,-250.297 641.326,-243.591"/>
</g>
<!-- 03 (b) -->
<g id="node12" class="node"><title>03 (b)</title>
<ellipse fill="#cea8f4" stroke="#835da9" cx="834.397" cy="-234" rx="32.4942" ry="18"/>
<text text-anchor="middle" x="834.397" y="-230.3" font-family="Times,serif" font-size="14.00">03 (b)</text>
</g>
<!-- A (b)&#45;&gt;03 (b) -->
<g id="edge4" class="edge"><title>A (b)&#45;&gt;03 (b)</title>
<path fill="none" stroke="black" d="M834.397,-287.697C834.397,-279.983 834.397,-270.712 834.397,-262.112"/>
<polygon fill="black" stroke="black" points="837.897,-262.104 834.397,-252.104 830.897,-262.104 837.897,-262.104"/>
</g>
<!-- P75 (b) -->
<g id="node13" class="node"><title>P75 (b)</title>
<ellipse fill="#cea8f4" stroke="#835da9" cx="922.397" cy="-234" rx="37.0935" ry="18"/>
<text text-anchor="middle" x="922.397" y="-230.3" font-family="Times,serif" font-size="14.00">P75 (b)</text>
</g>
<!-- A (b)&#45;&gt;P75 (b) -->
<g id="edge2" class="edge"><title>A (b)&#45;&gt;P75 (b)</title>
<path fill="none" stroke="black" d="M851.783,-291.17C864.344,-281.178 881.541,-267.499 895.819,-256.141"/>
<polygon fill="black" stroke="black" points="898.185,-258.732 903.832,-249.768 893.827,-253.254 898.185,-258.732"/>
</g>
<!-- 028 (a) -->
<g id="node7" class="node"><title>028 (a)</title>
<ellipse fill="#ff8a8a" stroke="#b43f3f" cx="129.397" cy="-90" rx="36.2938" ry="18"/>
<text text-anchor="middle" x="129.397" y="-86.3" font-family="Times,serif" font-size="14.00">028 (a)</text>
</g>
<!-- 022 (b) -->
<g id="node8" class="node"><title>022 (b)</title>
<ellipse fill="#cea8f4" stroke="#835da9" cx="880.397" cy="-90" rx="36.2938" ry="18"/>
<text text-anchor="middle" x="880.397" y="-86.3" font-family="Times,serif" font-size="14.00">022 (b)</text>
</g>
<!-- 063 (b)&#45;&gt;028 (a) -->
<g id="edge5" class="edge"><title>063 (b)&#45;&gt;028 (a)</title>
<path fill="none" stroke="black" d="M372.766,-154.694C327.482,-145.885 244.598,-128.633 175.397,-108 172.472,-107.128 169.465,-106.167 166.455,-105.159"/>
<polygon fill="black" stroke="black" points="167.528,-101.826 156.933,-101.83 165.218,-108.434 167.528,-101.826"/>
</g>
<!-- 031 (a) -->
<g id="node10" class="node"><title>031 (a)</title>
<ellipse fill="#ff8a8a" stroke="#b43f3f" cx="220.397" cy="-90" rx="36.2938" ry="18"/>
<text text-anchor="middle" x="220.397" y="-86.3" font-family="Times,serif" font-size="14.00">031 (a)</text>
</g>
<!-- 063 (b)&#45;&gt;031 (a) -->
<g id="edge6" class="edge"><title>063 (b)&#45;&gt;031 (a)</title>
<path fill="none" stroke="black" d="M378.147,-150.369C346.099,-138.307 293.685,-118.582 258.151,-105.208"/>
<polygon fill="black" stroke="black" points="259.199,-101.863 248.607,-101.617 256.733,-108.415 259.199,-101.863"/>
</g>
<!-- 011 (a) -->
<g id="node17" class="node"><title>011 (a)</title>
<ellipse fill="#ff8a8a" stroke="#b43f3f" cx="315.397" cy="-90" rx="36.2938" ry="18"/>
<text text-anchor="middle" x="315.397" y="-86.3" font-family="Times,serif" font-size="14.00">011 (a)</text>
</g>
<!-- 063 (b)&#45;&gt;011 (a) -->
<g id="edge9" class="edge"><title>063 (b)&#45;&gt;011 (a)</title>
<path fill="none" stroke="black" d="M387.542,-146.496C374.486,-136.453 356.912,-122.934 342.377,-111.754"/>
<polygon fill="black" stroke="black" points="344.288,-108.808 334.228,-105.485 340.02,-114.357 344.288,-108.808"/>
</g>
<!-- 045 (a) -->
<g id="node21" class="node"><title>045 (a)</title>
<ellipse fill="#ff8a8a" stroke="#b43f3f" cx="406.397" cy="-90" rx="36.2938" ry="18"/>
<text text-anchor="middle" x="406.397" y="-86.3" font-family="Times,serif" font-size="14.00">045 (a)</text>
</g>
<!-- 063 (b)&#45;&gt;045 (a) -->
<g id="edge10" class="edge"><title>063 (b)&#45;&gt;045 (a)</title>
<path fill="none" stroke="black" d="M406.397,-143.697C406.397,-135.983 406.397,-126.712 406.397,-118.112"/>
<polygon fill="black" stroke="black" points="409.897,-118.104 406.397,-108.104 402.897,-118.104 409.897,-118.104"/>
</g>
<!-- 07 (a) -->
<g id="node24" class="node"><title>07 (a)</title>
<ellipse fill="#ff8a8a" stroke="#b43f3f" cx="495.397" cy="-90" rx="31.6951" ry="18"/>
<text text-anchor="middle" x="495.397" y="-86.3" font-family="Times,serif" font-size="14.00">07 (a)</text>
</g>
<!-- 063 (b)&#45;&gt;07 (a) -->
<g id="edge7" class="edge"><title>063 (b)&#45;&gt;07 (a)</title>
<path fill="none" stroke="black" d="M425.271,-146.155C438.153,-136.023 455.38,-122.474 469.536,-111.34"/>
<polygon fill="black" stroke="black" points="471.764,-114.041 477.46,-105.108 467.436,-108.539 471.764,-114.041"/>
</g>
<!-- 021 (a) -->
<g id="node27" class="node"><title>021 (a)</title>
<ellipse fill="#ff8a8a" stroke="#b43f3f" cx="789.397" cy="-90" rx="36.2938" ry="18"/>
<text text-anchor="middle" x="789.397" y="-86.3" font-family="Times,serif" font-size="14.00">021 (a)</text>
</g>
<!-- 063 (b)&#45;&gt;021 (a) -->
<g id="edge8" class="edge"><title>063 (b)&#45;&gt;021 (a)</title>
<path fill="none" stroke="black" d="M440.05,-154.849C509.578,-142.142 669.002,-113.004 746.087,-98.9156"/>
<polygon fill="black" stroke="black" points="746.749,-102.353 755.957,-97.1118 745.49,-95.4668 746.749,-102.353"/>
</g>
<!-- 017 (a) -->
<g id="node16" class="node"><title>017 (a)</title>
<ellipse fill="#ff8a8a" stroke="#b43f3f" cx="36.3968" cy="-18" rx="36.2938" ry="18"/>
<text text-anchor="middle" x="36.3968" y="-14.3" font-family="Times,serif" font-size="14.00">017 (a)</text>
</g>
<!-- 031 (a)&#45;&gt;017 (a) -->
<g id="edge12" class="edge"><title>031 (a)&#45;&gt;017 (a)</title>
<path fill="none" stroke="black" d="M192.451,-78.3685C160.748,-66.3074 108.897,-46.5817 73.7447,-33.2085"/>
<polygon fill="black" stroke="black" points="74.8944,-29.9012 64.3034,-29.6166 72.4053,-36.4437 74.8944,-29.9012"/>
</g>
<!-- 013 (a) -->
<g id="node23" class="node"><title>013 (a)</title>
<ellipse fill="#ff8a8a" stroke="#b43f3f" cx="127.397" cy="-18" rx="36.2938" ry="18"/>
<text text-anchor="middle" x="127.397" y="-14.3" font-family="Times,serif" font-size="14.00">013 (a)</text>
</g>
<!-- 031 (a)&#45;&gt;013 (a) -->
<g id="edge13" class="edge"><title>031 (a)&#45;&gt;013 (a)</title>
<path fill="none" stroke="black" d="M201.127,-74.496C187.785,-64.4532 169.824,-50.9344 154.97,-39.7541"/>
<polygon fill="black" stroke="black" points="156.736,-36.7028 146.642,-33.4855 152.527,-42.2956 156.736,-36.7028"/>
</g>
<!-- 01/2 (a) -->
<g id="node25" class="node"><title>01/2 (a)</title>
<ellipse fill="#ff8a8a" stroke="#b43f3f" cx="220.397" cy="-18" rx="38.1938" ry="18"/>
<text text-anchor="middle" x="220.397" y="-14.3" font-family="Times,serif" font-size="14.00">01/2 (a)</text>
</g>
<!-- 031 (a)&#45;&gt;01/2 (a) -->
<g id="edge11" class="edge"><title>031 (a)&#45;&gt;01/2 (a)</title>
<path fill="none" stroke="black" d="M220.397,-71.6966C220.397,-63.9827 220.397,-54.7125 220.397,-46.1124"/>
<polygon fill="black" stroke="black" points="223.897,-46.1043 220.397,-36.1043 216.897,-46.1044 223.897,-46.1043"/>
</g>
<!-- 0141 (a) -->
<g id="node11" class="node"><title>0141 (a)</title>
<ellipse fill="#ff8a8a" stroke="#b43f3f" cx="975.397" cy="-90" rx="40.0939" ry="18"/>
<text text-anchor="middle" x="975.397" y="-86.3" font-family="Times,serif" font-size="14.00">0141 (a)</text>
</g>
<!-- 0141 (a)&#45;&gt;05/9 (a) -->
<g id="edge14" class="edge"><title>0141 (a)&#45;&gt;05/9 (a)</title>
<path fill="none" stroke="black" d="M975.397,-71.6966C975.397,-63.9827 975.397,-54.7125 975.397,-46.1124"/>
<polygon fill="black" stroke="black" points="978.897,-46.1043 975.397,-36.1043 971.897,-46.1044 978.897,-46.1043"/>
</g>
<!-- 03 (b)&#45;&gt;032 (b) -->
<g id="edge17" class="edge"><title>03 (b)&#45;&gt;032 (b)</title>
<path fill="none" stroke="black" d="M823.96,-216.765C818.529,-208.317 811.768,-197.799 805.669,-188.312"/>
<polygon fill="black" stroke="black" points="808.441,-186.153 800.09,-179.633 802.553,-189.938 808.441,-186.153"/>
</g>
<!-- 044 (b) -->
<g id="node18" class="node"><title>044 (b)</title>
<ellipse fill="#cea8f4" stroke="#835da9" cx="880.397" cy="-162" rx="36.2938" ry="18"/>
<text text-anchor="middle" x="880.397" y="-158.3" font-family="Times,serif" font-size="14.00">044 (b)</text>
</g>
<!-- 03 (b)&#45;&gt;044 (b) -->
<g id="edge15" class="edge"><title>03 (b)&#45;&gt;044 (b)</title>
<path fill="none" stroke="black" d="M845.066,-216.765C850.674,-208.23 857.671,-197.582 863.956,-188.019"/>
<polygon fill="black" stroke="black" points="866.899,-189.913 869.466,-179.633 861.049,-186.068 866.899,-189.913"/>
</g>
<!-- 02 (b) -->
<g id="node19" class="node"><title>02 (b)</title>
<ellipse fill="#cea8f4" stroke="#835da9" cx="967.397" cy="-162" rx="32.4942" ry="18"/>
<text text-anchor="middle" x="967.397" y="-158.3" font-family="Times,serif" font-size="14.00">02 (b)</text>
</g>
<!-- 03 (b)&#45;&gt;02 (b) -->
<g id="edge16" class="edge"><title>03 (b)&#45;&gt;02 (b)</title>
<path fill="none" stroke="black" d="M857.26,-220.967C878.766,-209.648 911.174,-192.591 935.273,-179.907"/>
<polygon fill="black" stroke="black" points="937.167,-182.865 944.387,-175.111 933.907,-176.671 937.167,-182.865"/>
</g>
<!-- 034 (a) -->
<g id="node14" class="node"><title>034 (a)</title>
<ellipse fill="#ff8a8a" stroke="#b43f3f" cx="495.397" cy="-18" rx="36.2938" ry="18"/>
<text text-anchor="middle" x="495.397" y="-14.3" font-family="Times,serif" font-size="14.00">034 (a)</text>
</g>
<!-- 036 (a) -->
<g id="node15" class="node"><title>036 (a)</title>
<ellipse fill="#ff8a8a" stroke="#b43f3f" cx="790.397" cy="-18" rx="36.2938" ry="18"/>
<text text-anchor="middle" x="790.397" y="-14.3" font-family="Times,serif" font-size="14.00">036 (a)</text>
</g>
<!-- 044 (b)&#45;&gt;022 (b) -->
<g id="edge18" class="edge"><title>044 (b)&#45;&gt;022 (b)</title>
<path fill="none" stroke="black" d="M880.397,-143.697C880.397,-135.983 880.397,-126.712 880.397,-118.112"/>
<polygon fill="black" stroke="black" points="883.897,-118.104 880.397,-108.104 876.897,-118.104 883.897,-118.104"/>
</g>
<!-- 044 (b)&#45;&gt;0141 (a) -->
<g id="edge19" class="edge"><title>044 (b)&#45;&gt;0141 (a)</title>
<path fill="none" stroke="black" d="M900.081,-146.496C913.746,-136.427 932.153,-122.864 947.35,-111.666"/>
<polygon fill="black" stroke="black" points="949.437,-114.476 955.411,-105.726 945.284,-108.841 949.437,-114.476"/>
</g>
<!-- 047 (a) -->
<g id="node20" class="node"><title>047 (a)</title>
<ellipse fill="#ff8a8a" stroke="#b43f3f" cx="881.397" cy="-18" rx="36.2938" ry="18"/>
<text text-anchor="middle" x="881.397" y="-14.3" font-family="Times,serif" font-size="14.00">047 (a)</text>
</g>
<!-- 045 (a)&#45;&gt;038 (a) -->
<g id="edge20" class="edge"><title>045 (a)&#45;&gt;038 (a)</title>
<path fill="none" stroke="black" d="M387.127,-74.496C373.785,-64.4532 355.824,-50.9344 340.97,-39.7541"/>
<polygon fill="black" stroke="black" points="342.736,-36.7028 332.642,-33.4855 338.527,-42.2956 342.736,-36.7028"/>
</g>
<!-- 0211/2 (a) -->
<g id="node22" class="node"><title>0211/2 (a)</title>
<ellipse fill="#ff8a8a" stroke="#b43f3f" cx="597.397" cy="-18" rx="47.3916" ry="18"/>
<text text-anchor="middle" x="597.397" y="-14.3" font-family="Times,serif" font-size="14.00">0211/2 (a)</text>
</g>
<!-- 07 (a)&#45;&gt;037 (a) -->
<g id="edge22" class="edge"><title>07 (a)&#45;&gt;037 (a)</title>
<path fill="none" stroke="black" d="M476.982,-74.8345C463.957,-64.8158 446.278,-51.2163 431.628,-39.9473"/>
<polygon fill="black" stroke="black" points="433.471,-36.9493 423.411,-33.6263 429.203,-42.4977 433.471,-36.9493"/>
</g>
<!-- 07 (a)&#45;&gt;034 (a) -->
<g id="edge24" class="edge"><title>07 (a)&#45;&gt;034 (a)</title>
<path fill="none" stroke="black" d="M495.397,-71.6966C495.397,-63.9827 495.397,-54.7125 495.397,-46.1124"/>
<polygon fill="black" stroke="black" points="498.897,-46.1043 495.397,-36.1043 491.897,-46.1044 498.897,-46.1043"/>
</g>
<!-- 07 (a)&#45;&gt;0211/2 (a) -->
<g id="edge21" class="edge"><title>07 (a)&#45;&gt;0211/2 (a)</title>
<path fill="none" stroke="black" d="M515.063,-75.5033C529.754,-65.4215 550.108,-51.4532 566.902,-39.9276"/>
<polygon fill="black" stroke="black" points="569.047,-42.7009 575.311,-34.1566 565.086,-36.9293 569.047,-42.7009"/>
</g>
<!-- 030 (a) -->
<g id="node26" class="node"><title>030 (a)</title>
<ellipse fill="#ff8a8a" stroke="#b43f3f" cx="699.397" cy="-18" rx="36.2938" ry="18"/>
<text text-anchor="middle" x="699.397" y="-14.3" font-family="Times,serif" font-size="14.00">030 (a)</text>
</g>
<!-- 07 (a)&#45;&gt;030 (a) -->
<g id="edge23" class="edge"><title>07 (a)&#45;&gt;030 (a)</title>
<path fill="none" stroke="black" d="M522.32,-80.2446C553.834,-69.9323 607.553,-52.1558 653.397,-36 656.107,-35.0449 658.902,-34.0462 661.712,-33.0319"/>
<polygon fill="black" stroke="black" points="663.029,-36.2772 671.226,-29.5645 660.632,-29.7004 663.029,-36.2772"/>
</g>
<!-- 021 (a)&#45;&gt;036 (a) -->
<g id="edge25" class="edge"><title>021 (a)&#45;&gt;036 (a)</title>
<path fill="none" stroke="black" d="M789.644,-71.6966C789.754,-63.9827 789.887,-54.7125 790.009,-46.1124"/>
<polygon fill="black" stroke="black" points="793.509,-46.1533 790.152,-36.1043 786.51,-46.0533 793.509,-46.1533"/>
</g>
<!-- 021 (a)&#45;&gt;047 (a) -->
<g id="edge26" class="edge"><title>021 (a)&#45;&gt;047 (a)</title>
<path fill="none" stroke="black" d="M808.459,-74.496C821.658,-64.4532 839.426,-50.9344 854.12,-39.7541"/>
<polygon fill="black" stroke="black" points="856.52,-42.3261 862.359,-33.4855 852.281,-36.7553 856.52,-42.3261"/>
</g>
</g>
</svg>
