<?xml version="1.0" encoding="UTF-8" standalone="no"?>
<!DOCTYPE svg PUBLIC "-//W3C//DTD SVG 1.1//EN"
 "http://www.w3.org/Graphics/SVG/1.1/DTD/svg11.dtd">
<!-- Generated by graphviz version 2.38.0 (20140413.2041)
 -->
<!-- Title: %3 Pages: 1 -->
<svg width="828pt" height="408pt"
 viewBox="0.00 0.00 828.40 408.00" xmlns="http://www.w3.org/2000/svg" xmlns:xlink="http://www.w3.org/1999/xlink">
<g id="graph0" class="graph" transform="scale(1 1) rotate(0) translate(4 404)">
<title>%3</title>
<polygon fill="white" stroke="none" points="-4,4 -4,-404 824.397,-404 824.397,4 -4,4"/>
<g id="clust1" class="cluster"><title>cluster_legend</title>
<path fill="none" stroke="black" d="M20,-264C20,-264 210,-264 210,-264 216,-264 222,-270 222,-276 222,-276 222,-380 222,-380 222,-386 216,-392 210,-392 210,-392 20,-392 20,-392 14,-392 8,-386 8,-380 8,-380 8,-276 8,-276 8,-270 14,-264 20,-264"/>
</g>
<!-- leg_s -->
<g id="node1" class="node"><title>leg_s</title>
<text text-anchor="middle" x="115" y="-362.3" font-family="Times,serif" font-size="14.00">Textual flow strength</text>
</g>
<!-- leg_e1 -->
<!-- leg_s&#45;&gt;leg_e1 -->
<g id="edge1" class="edge"><title>leg_s&#45;&gt;leg_e1</title>
<path fill="none" stroke="black" stroke-dasharray="1,5" d="M96.6657,-347.686C91.1324,-342.194 85.1607,-335.989 80,-330 70.1708,-318.593 60.0722,-304.779 52.9137,-294.563"/>
<polygon fill="black" stroke="black" points="55.6142,-292.314 47.056,-286.068 49.8514,-296.288 55.6142,-292.314"/>
<text text-anchor="middle" x="95.5" y="-318.8" font-family="Times,serif" font-size="14.00">&lt;=5 &#160;</text>
</g>
<!-- leg_e2 -->
<!-- leg_s&#45;&gt;leg_e2 -->
<g id="edge2" class="edge"><title>leg_s&#45;&gt;leg_e2</title>
<path fill="none" stroke="black" stroke-dasharray="5,2" d="M115,-347.799C115,-332.794 115,-311.174 115,-296.409"/>
<polygon fill="black" stroke="black" points="118.5,-296.293 115,-286.293 111.5,-296.293 118.5,-296.293"/>
<text text-anchor="middle" x="134" y="-318.8" font-family="Times,serif" font-size="14.00"> &#160;&lt;=25</text>
</g>
<!-- leg_e3 -->
<!-- leg_s&#45;&gt;leg_e3 -->
<g id="edge3" class="edge"><title>leg_s&#45;&gt;leg_e3</title>
<path fill="none" stroke="black" d="M138.503,-347.76C144.906,-342.462 151.567,-336.344 157,-330 166.087,-319.39 174.095,-305.689 179.546,-295.313"/>
<polygon fill="black" stroke="black" points="182.722,-296.789 184.091,-286.283 176.469,-293.642 182.722,-296.789"/>
<text text-anchor="middle" x="179" y="-318.8" font-family="Times,serif" font-size="14.00">&gt;25</text>
</g>
<!-- 021 -->
<g id="node5" class="node"><title>021</title>
<ellipse fill="#ff8a8a" stroke="#b43f3f" cx="284" cy="-105" rx="36.2938" ry="18"/>
<text text-anchor="middle" x="284" y="-101.3" font-family="Times,serif" font-size="14.00">021 (a)</text>
</g>
<!-- 036 -->
<g id="node6" class="node"><title>036</title>
<ellipse fill="#ff8a8a" stroke="#b43f3f" cx="147" cy="-18" rx="36.2938" ry="18"/>
<text text-anchor="middle" x="147" y="-14.3" font-family="Times,serif" font-size="14.00">036 (a)</text>
</g>
<!-- 021&#45;&gt;036 -->
<g id="edge4" class="edge"><title>021&#45;&gt;036</title>
<path fill="none" stroke="#b43f3f" stroke-dasharray="1,5" d="M256.04,-93.1492C241.283,-86.9272 223.147,-78.4773 208,-69 195.05,-60.897 181.802,-50.3607 170.975,-41.0509"/>
<polygon fill="#b43f3f" stroke="#b43f3f" points="173.036,-38.2022 163.213,-34.2312 168.415,-43.4609 173.036,-38.2022"/>
<text text-anchor="middle" x="230" y="-57.8" font-family="Times,serif" font-size="14.00">1 (97.6)</text>
</g>
<!-- 047 -->
<g id="node7" class="node"><title>047</title>
<ellipse fill="#ff8a8a" stroke="#b43f3f" cx="238" cy="-18" rx="36.2938" ry="18"/>
<text text-anchor="middle" x="238" y="-14.3" font-family="Times,serif" font-size="14.00">047 (a)</text>
</g>
<!-- 021&#45;&gt;047 -->
<g id="edge5" class="edge"><title>021&#45;&gt;047</title>
<path fill="none" stroke="#b43f3f" stroke-dasharray="1,5" d="M273.695,-87.417C270.202,-81.6435 266.342,-75.0876 263,-69 258.75,-61.2581 254.363,-52.7023 250.472,-44.8895"/>
<polygon fill="#b43f3f" stroke="#b43f3f" points="253.572,-43.2604 246.017,-35.8327 247.291,-46.3507 253.572,-43.2604"/>
<text text-anchor="middle" x="285" y="-57.8" font-family="Times,serif" font-size="14.00">1 (95.1)</text>
</g>
<!-- 03 -->
<g id="node8" class="node"><title>03</title>
<ellipse fill="#ff8a8a" stroke="#b43f3f" cx="264" cy="-279" rx="31.6951" ry="18"/>
<text text-anchor="middle" x="264" y="-275.3" font-family="Times,serif" font-size="14.00">03 (a)</text>
</g>
<!-- 032 -->
<g id="node9" class="node"><title>032</title>
<ellipse fill="#ff8a8a" stroke="#b43f3f" cx="102" cy="-192" rx="36.2938" ry="18"/>
<text text-anchor="middle" x="102" y="-188.3" font-family="Times,serif" font-size="14.00">032 (a)</text>
</g>
<!-- 03&#45;&gt;032 -->
<g id="edge6" class="edge"><title>03&#45;&gt;032</title>
<path fill="none" stroke="#b43f3f" stroke-dasharray="1,5" d="M240.078,-266.716C235.452,-264.7 230.61,-262.703 226,-261 199.484,-251.207 190.087,-256.025 165,-243 150.839,-235.648 136.769,-224.897 125.529,-215.247"/>
<polygon fill="#b43f3f" stroke="#b43f3f" points="127.691,-212.487 117.884,-208.479 123.051,-217.728 127.691,-212.487"/>
<text text-anchor="middle" x="187" y="-231.8" font-family="Times,serif" font-size="14.00">1 (91.7)</text>
</g>
<!-- 044 -->
<g id="node10" class="node"><title>044</title>
<ellipse fill="#ff8a8a" stroke="#b43f3f" cx="193" cy="-192" rx="36.2938" ry="18"/>
<text text-anchor="middle" x="193" y="-188.3" font-family="Times,serif" font-size="14.00">044 (a)</text>
</g>
<!-- 03&#45;&gt;044 -->
<g id="edge7" class="edge"><title>03&#45;&gt;044</title>
<path fill="none" stroke="#b43f3f" stroke-dasharray="1,5" d="M245.281,-264.168C237.847,-258.151 229.529,-250.716 223,-243 216.728,-235.589 210.945,-226.713 206.165,-218.51"/>
<polygon fill="#b43f3f" stroke="#b43f3f" points="209.15,-216.677 201.221,-209.649 203.037,-220.087 209.15,-216.677"/>
<text text-anchor="middle" x="245" y="-231.8" font-family="Times,serif" font-size="14.00">1 (89.2)</text>
</g>
<!-- 02 -->
<g id="node11" class="node"><title>02</title>
<ellipse fill="#ff8a8a" stroke="#b43f3f" cx="279" cy="-192" rx="31.6951" ry="18"/>
<text text-anchor="middle" x="279" y="-188.3" font-family="Times,serif" font-size="14.00">02 (a)</text>
</g>
<!-- 03&#45;&gt;02 -->
<g id="edge8" class="edge"><title>03&#45;&gt;02</title>
<path fill="none" stroke="#b43f3f" stroke-dasharray="1,5" d="M267.035,-260.799C269.089,-249.163 271.844,-233.548 274.194,-220.237"/>
<polygon fill="#b43f3f" stroke="#b43f3f" points="277.678,-220.632 275.969,-210.175 270.784,-219.415 277.678,-220.632"/>
<text text-anchor="middle" x="295" y="-231.8" font-family="Times,serif" font-size="14.00">1 (86.5)</text>
</g>
<!-- 0141 -->
<g id="node30" class="node"><title>0141</title>
<ellipse fill="#ff8a8a" stroke="#b43f3f" cx="98" cy="-105" rx="40.0939" ry="18"/>
<text text-anchor="middle" x="98" y="-101.3" font-family="Times,serif" font-size="14.00">0141 (a)</text>
</g>
<!-- 044&#45;&gt;0141 -->
<g id="edge28" class="edge"><title>044&#45;&gt;0141</title>
<path fill="none" stroke="#b43f3f" stroke-dasharray="1,5" d="M172.27,-177.159C163.564,-171.025 153.505,-163.508 145,-156 135.837,-147.911 126.469,-138.276 118.533,-129.632"/>
<polygon fill="#b43f3f" stroke="#b43f3f" points="120.99,-127.129 111.694,-122.045 115.79,-131.816 120.99,-127.129"/>
<text text-anchor="middle" x="167" y="-144.8" font-family="Times,serif" font-size="14.00">1 (89.2)</text>
</g>
<!-- 022 -->
<g id="node31" class="node"><title>022</title>
<ellipse fill="#cea8f4" stroke="#835da9" cx="193" cy="-105" rx="36.2938" ry="18"/>
<text text-anchor="middle" x="193" y="-101.3" font-family="Times,serif" font-size="14.00">022 (b)</text>
</g>
<!-- 044&#45;&gt;022 -->
<g id="edge29" class="edge"><title>044&#45;&gt;022</title>
<path fill="none" stroke="#835da9" stroke-dasharray="1,5" d="M193,-173.799C193,-162.163 193,-146.548 193,-133.237"/>
<polygon fill="#835da9" stroke="#835da9" points="196.5,-133.175 193,-123.175 189.5,-133.175 196.5,-133.175"/>
<text text-anchor="middle" x="215" y="-144.8" font-family="Times,serif" font-size="14.00">1 (91.7)</text>
</g>
<!-- 07 -->
<g id="node12" class="node"><title>07</title>
<ellipse fill="#ff8a8a" stroke="#b43f3f" cx="465" cy="-105" rx="31.6951" ry="18"/>
<text text-anchor="middle" x="465" y="-101.3" font-family="Times,serif" font-size="14.00">07 (a)</text>
</g>
<!-- 034 -->
<g id="node13" class="node"><title>034</title>
<ellipse fill="#ff8a8a" stroke="#b43f3f" cx="329" cy="-18" rx="36.2938" ry="18"/>
<text text-anchor="middle" x="329" y="-14.3" font-family="Times,serif" font-size="14.00">034 (a)</text>
</g>
<!-- 07&#45;&gt;034 -->
<g id="edge9" class="edge"><title>07&#45;&gt;034</title>
<path fill="none" stroke="#b43f3f" stroke-dasharray="1,5" d="M439.523,-93.9935C424.61,-87.6816 405.689,-78.8715 390,-69 377.07,-60.8643 363.825,-50.3238 352.995,-41.0196"/>
<polygon fill="#b43f3f" stroke="#b43f3f" points="355.054,-38.1703 345.229,-34.2059 350.437,-43.4321 355.054,-38.1703"/>
<text text-anchor="middle" x="412" y="-57.8" font-family="Times,serif" font-size="14.00">1 (95.1)</text>
</g>
<!-- 013 -->
<g id="node14" class="node"><title>013</title>
<ellipse fill="#ff8a8a" stroke="#b43f3f" cx="420" cy="-18" rx="36.2938" ry="18"/>
<text text-anchor="middle" x="420" y="-14.3" font-family="Times,serif" font-size="14.00">013 (a)</text>
</g>
<!-- 07&#45;&gt;013 -->
<g id="edge10" class="edge"><title>07&#45;&gt;013</title>
<path fill="none" stroke="#b43f3f" stroke-dasharray="1,5" d="M455.45,-87.7233C452.076,-81.8607 448.302,-75.1704 445,-69 440.833,-61.2133 436.469,-52.6446 432.575,-44.8337"/>
<polygon fill="#b43f3f" stroke="#b43f3f" points="435.672,-43.1997 428.104,-35.7855 429.397,-46.3011 435.672,-43.1997"/>
<text text-anchor="middle" x="467" y="-57.8" font-family="Times,serif" font-size="14.00">2 (95.1)</text>
</g>
<!-- 037 -->
<g id="node15" class="node"><title>037</title>
<ellipse fill="#ff8a8a" stroke="#b43f3f" cx="511" cy="-18" rx="36.2938" ry="18"/>
<text text-anchor="middle" x="511" y="-14.3" font-family="Times,serif" font-size="14.00">037 (a)</text>
</g>
<!-- 07&#45;&gt;037 -->
<g id="edge11" class="edge"><title>07&#45;&gt;037</title>
<path fill="none" stroke="#b43f3f" stroke-dasharray="1,5" d="M476.884,-88.0215C480.972,-82.187 485.417,-75.4381 489,-69 493.15,-61.5417 497.102,-53.1477 500.481,-45.3977"/>
<polygon fill="#b43f3f" stroke="#b43f3f" points="503.764,-46.6185 504.427,-36.0444 497.315,-43.8974 503.764,-46.6185"/>
<text text-anchor="middle" x="519" y="-57.8" font-family="Times,serif" font-size="14.00">1 (97.5)</text>
</g>
<!-- 017 -->
<g id="node16" class="node"><title>017</title>
<ellipse fill="#ff8a8a" stroke="#b43f3f" cx="602" cy="-18" rx="36.2938" ry="18"/>
<text text-anchor="middle" x="602" y="-14.3" font-family="Times,serif" font-size="14.00">017 (a)</text>
</g>
<!-- 07&#45;&gt;017 -->
<g id="edge12" class="edge"><title>07&#45;&gt;017</title>
<path fill="none" stroke="#b43f3f" stroke-dasharray="1,5" d="M489.8,-93.6025C511.395,-84.4748 540.01,-72.1718 545,-69 557.097,-61.3104 569.215,-51.1161 579.149,-41.9391"/>
<polygon fill="#b43f3f" stroke="#b43f3f" points="581.759,-44.2869 586.605,-34.8648 576.941,-39.2089 581.759,-44.2869"/>
<text text-anchor="middle" x="588" y="-57.8" font-family="Times,serif" font-size="14.00">2 (92.7)</text>
</g>
<!-- 030 -->
<g id="node17" class="node"><title>030</title>
<ellipse fill="#ff8a8a" stroke="#b43f3f" cx="693" cy="-18" rx="36.2938" ry="18"/>
<text text-anchor="middle" x="693" y="-14.3" font-family="Times,serif" font-size="14.00">030 (a)</text>
</g>
<!-- 07&#45;&gt;030 -->
<g id="edge13" class="edge"><title>07&#45;&gt;030</title>
<path fill="none" stroke="#b43f3f" stroke-dasharray="1,5" d="M488.955,-92.9982C494.47,-90.7671 500.37,-88.6134 506,-87 552.779,-73.5939 568.539,-86.3566 614,-69 632.761,-61.8374 651.839,-49.9201 666.546,-39.5165"/>
<polygon fill="#b43f3f" stroke="#b43f3f" points="668.635,-42.325 674.665,-33.6134 664.519,-36.6633 668.635,-42.325"/>
<text text-anchor="middle" x="666" y="-57.8" font-family="Times,serif" font-size="14.00">1 (95.1)</text>
</g>
<!-- 063 -->
<g id="node18" class="node"><title>063</title>
<ellipse fill="#ff8a8a" stroke="#b43f3f" cx="550" cy="-192" rx="36.2938" ry="18"/>
<text text-anchor="middle" x="550" y="-188.3" font-family="Times,serif" font-size="14.00">063 (a)</text>
</g>
<!-- 063&#45;&gt;021 -->
<g id="edge14" class="edge"><title>063&#45;&gt;021</title>
<path fill="none" stroke="#b43f3f" stroke-dasharray="1,5" d="M521.755,-180.496C515.596,-178.286 509.097,-176.015 503,-174 476.566,-165.262 469.613,-164.176 443,-156 402.316,-143.501 355.896,-128.86 323.76,-118.663"/>
<polygon fill="#b43f3f" stroke="#b43f3f" points="324.445,-115.208 313.854,-115.518 322.326,-121.88 324.445,-115.208"/>
<text text-anchor="middle" x="465" y="-144.8" font-family="Times,serif" font-size="14.00">1 (93.1)</text>
</g>
<!-- 063&#45;&gt;07 -->
<g id="edge15" class="edge"><title>063&#45;&gt;07</title>
<path fill="none" stroke="#b43f3f" stroke-dasharray="1,5" d="M528.865,-177.184C520.392,-171.169 510.807,-163.731 503,-156 495.214,-148.29 487.685,-138.928 481.411,-130.398"/>
<polygon fill="#b43f3f" stroke="#b43f3f" points="484.248,-128.349 475.592,-122.239 478.549,-132.413 484.248,-128.349"/>
<text text-anchor="middle" x="525" y="-144.8" font-family="Times,serif" font-size="14.00">1 (96.6)</text>
</g>
<!-- 045 -->
<g id="node19" class="node"><title>045</title>
<ellipse fill="#ff8a8a" stroke="#b43f3f" cx="551" cy="-105" rx="36.2938" ry="18"/>
<text text-anchor="middle" x="551" y="-101.3" font-family="Times,serif" font-size="14.00">045 (a)</text>
</g>
<!-- 063&#45;&gt;045 -->
<g id="edge16" class="edge"><title>063&#45;&gt;045</title>
<path fill="none" stroke="#b43f3f" stroke-dasharray="1,5" d="M550.202,-173.799C550.339,-162.163 550.523,-146.548 550.68,-133.237"/>
<polygon fill="#b43f3f" stroke="#b43f3f" points="554.18,-133.216 550.798,-123.175 547.18,-133.134 554.18,-133.216"/>
<text text-anchor="middle" x="573" y="-144.8" font-family="Times,serif" font-size="14.00">1 (93.1)</text>
</g>
<!-- 011 -->
<g id="node20" class="node"><title>011</title>
<ellipse fill="#ff8a8a" stroke="#b43f3f" cx="642" cy="-105" rx="36.2938" ry="18"/>
<text text-anchor="middle" x="642" y="-101.3" font-family="Times,serif" font-size="14.00">011 (a)</text>
</g>
<!-- 063&#45;&gt;011 -->
<g id="edge17" class="edge"><title>063&#45;&gt;011</title>
<path fill="none" stroke="#b43f3f" stroke-dasharray="1,5" d="M571.35,-177.402C580.27,-171.31 590.511,-163.757 599,-156 607.583,-148.157 616.122,-138.669 623.302,-130.075"/>
<polygon fill="#b43f3f" stroke="#b43f3f" points="626.122,-132.155 629.727,-122.192 620.696,-127.733 626.122,-132.155"/>
<text text-anchor="middle" x="636" y="-144.8" font-family="Times,serif" font-size="14.00">1 (93.1)</text>
</g>
<!-- 028 -->
<g id="node21" class="node"><title>028</title>
<ellipse fill="#ff8a8a" stroke="#b43f3f" cx="733" cy="-105" rx="36.2938" ry="18"/>
<text text-anchor="middle" x="733" y="-101.3" font-family="Times,serif" font-size="14.00">028 (a)</text>
</g>
<!-- 063&#45;&gt;028 -->
<g id="edge18" class="edge"><title>063&#45;&gt;028</title>
<path fill="none" stroke="#b43f3f" stroke-dasharray="1,5" d="M582.393,-183.725C605.324,-177.901 636.422,-168.616 662,-156 677.972,-148.122 694.321,-136.869 707.298,-127.032"/>
<polygon fill="#b43f3f" stroke="#b43f3f" points="709.546,-129.718 715.302,-120.822 705.255,-124.187 709.546,-129.718"/>
<text text-anchor="middle" x="709" y="-144.8" font-family="Times,serif" font-size="14.00">1 (96.6)</text>
</g>
<!-- 038 -->
<g id="node22" class="node"><title>038</title>
<ellipse fill="#ff8a8a" stroke="#b43f3f" cx="784" cy="-18" rx="36.2938" ry="18"/>
<text text-anchor="middle" x="784" y="-14.3" font-family="Times,serif" font-size="14.00">038 (a)</text>
</g>
<!-- 045&#45;&gt;038 -->
<g id="edge19" class="edge"><title>045&#45;&gt;038</title>
<path fill="none" stroke="#b43f3f" stroke-dasharray="1,5" d="M578.486,-92.9941C584.524,-90.8153 590.929,-88.6843 597,-87 638.409,-75.5117 651.523,-83.4339 692,-69 713.871,-61.2008 736.821,-48.7364 754.329,-38.2041"/>
<polygon fill="#b43f3f" stroke="#b43f3f" points="756.263,-41.1233 762.953,-32.9074 752.6,-35.1584 756.263,-41.1233"/>
<text text-anchor="middle" x="746" y="-57.8" font-family="Times,serif" font-size="14.00">1 (92.7)</text>
</g>
<!-- 091 -->
<g id="node23" class="node"><title>091</title>
<ellipse fill="#ff8a8a" stroke="#b43f3f" cx="381" cy="-279" rx="36.2938" ry="18"/>
<text text-anchor="middle" x="381" y="-275.3" font-family="Times,serif" font-size="14.00">091 (a)</text>
</g>
<!-- 05 -->
<g id="node24" class="node"><title>05</title>
<ellipse fill="#ff8a8a" stroke="#b43f3f" cx="364" cy="-192" rx="31.6951" ry="18"/>
<text text-anchor="middle" x="364" y="-188.3" font-family="Times,serif" font-size="14.00">05 (a)</text>
</g>
<!-- 091&#45;&gt;05 -->
<g id="edge20" class="edge"><title>091&#45;&gt;05</title>
<path fill="none" stroke="#b43f3f" stroke-dasharray="1,5" d="M377.56,-260.799C375.233,-249.163 372.11,-233.548 369.447,-220.237"/>
<polygon fill="#b43f3f" stroke="#b43f3f" points="372.828,-219.295 367.435,-210.175 365.964,-220.668 372.828,-219.295"/>
<text text-anchor="middle" x="396" y="-231.8" font-family="Times,serif" font-size="14.00">1 (87.5)</text>
</g>
<!-- 0211 -->
<g id="node25" class="node"><title>0211</title>
<ellipse fill="#ff8a8a" stroke="#b43f3f" cx="454" cy="-192" rx="40.0939" ry="18"/>
<text text-anchor="middle" x="454" y="-188.3" font-family="Times,serif" font-size="14.00">0211 (a)</text>
</g>
<!-- 091&#45;&gt;0211 -->
<g id="edge21" class="edge"><title>091&#45;&gt;0211</title>
<path fill="none" stroke="#b43f3f" stroke-dasharray="1,5" d="M400.436,-263.397C407.64,-257.491 415.606,-250.338 422,-243 428.563,-235.468 434.744,-226.471 439.891,-218.198"/>
<polygon fill="#b43f3f" stroke="#b43f3f" points="442.9,-219.986 445.04,-209.609 436.897,-216.387 442.9,-219.986"/>
<text text-anchor="middle" x="455" y="-231.8" font-family="Times,serif" font-size="14.00">1 (83.3)</text>
</g>
<!-- A -->
<g id="node26" class="node"><title>A</title>
<ellipse fill="#ff8a8a" stroke="#b43f3f" cx="472" cy="-366" rx="29.4969" ry="18"/>
<text text-anchor="middle" x="472" y="-362.3" font-family="Times,serif" font-size="14.00">A (a)</text>
</g>
<!-- A&#45;&gt;03 -->
<g id="edge22" class="edge"><title>A&#45;&gt;03</title>
<path fill="none" stroke="#b43f3f" stroke-dasharray="1,5" d="M445.6,-357.786C423.265,-351.384 390.583,-341.312 363,-330 339.576,-320.394 314.098,-307.465 294.855,-297.161"/>
<polygon fill="#b43f3f" stroke="#b43f3f" points="296.406,-294.021 285.945,-292.34 293.074,-300.178 296.406,-294.021"/>
<text text-anchor="middle" x="385" y="-318.8" font-family="Times,serif" font-size="14.00">1 (93.3)</text>
</g>
<!-- A&#45;&gt;091 -->
<g id="edge23" class="edge"><title>A&#45;&gt;091</title>
<path fill="none" stroke="#b43f3f" stroke-dasharray="1,5" d="M452.523,-352.326C443.472,-346.06 432.792,-338.113 424,-330 415.456,-322.115 406.924,-312.619 399.74,-304.029"/>
<polygon fill="#b43f3f" stroke="#b43f3f" points="402.344,-301.685 393.308,-296.155 396.923,-306.113 402.344,-301.685"/>
<text text-anchor="middle" x="446" y="-318.8" font-family="Times,serif" font-size="14.00">1 (87.5)</text>
</g>
<!-- 019 -->
<g id="node27" class="node"><title>019</title>
<ellipse fill="#ff8a8a" stroke="#b43f3f" cx="472" cy="-279" rx="36.2938" ry="18"/>
<text text-anchor="middle" x="472" y="-275.3" font-family="Times,serif" font-size="14.00">019 (a)</text>
</g>
<!-- A&#45;&gt;019 -->
<g id="edge24" class="edge"><title>A&#45;&gt;019</title>
<path fill="none" stroke="#b43f3f" stroke-dasharray="1,5" d="M472,-347.799C472,-336.163 472,-320.548 472,-307.237"/>
<polygon fill="#b43f3f" stroke="#b43f3f" points="475.5,-307.175 472,-297.175 468.5,-307.175 475.5,-307.175"/>
<text text-anchor="middle" x="494" y="-318.8" font-family="Times,serif" font-size="14.00">1 (93.3)</text>
</g>
<!-- 01 -->
<g id="node28" class="node"><title>01</title>
<ellipse fill="#ff8a8a" stroke="#b43f3f" cx="558" cy="-279" rx="31.6951" ry="18"/>
<text text-anchor="middle" x="558" y="-275.3" font-family="Times,serif" font-size="14.00">01 (a)</text>
</g>
<!-- A&#45;&gt;01 -->
<g id="edge25" class="edge"><title>A&#45;&gt;01</title>
<path fill="none" stroke="#b43f3f" stroke-dasharray="5,2" d="M491.7,-352.561C500.801,-346.347 511.457,-338.375 520,-330 527.825,-322.329 535.362,-312.975 541.632,-304.442"/>
<polygon fill="#b43f3f" stroke="#b43f3f" points="544.497,-306.452 547.443,-296.275 538.794,-302.394 544.497,-306.452"/>
<text text-anchor="middle" x="555" y="-318.8" font-family="Times,serif" font-size="14.00">1 (57.1)</text>
</g>
<!-- P75 -->
<g id="node29" class="node"><title>P75</title>
<ellipse fill="#ff8a8a" stroke="#b43f3f" cx="644" cy="-279" rx="36.2938" ry="18"/>
<text text-anchor="middle" x="644" y="-275.3" font-family="Times,serif" font-size="14.00">P75 (a)</text>
</g>
<!-- A&#45;&gt;P75 -->
<g id="edge26" class="edge"><title>A&#45;&gt;P75</title>
<path fill="none" stroke="#b43f3f" stroke-dasharray="1,5" d="M499.52,-359.083C522.242,-353.524 554.881,-343.958 581,-330 595.072,-322.48 609.134,-311.712 620.39,-302.093"/>
<polygon fill="#b43f3f" stroke="#b43f3f" points="622.854,-304.588 628.051,-295.355 618.231,-299.331 622.854,-304.588"/>
<text text-anchor="middle" x="626" y="-318.8" font-family="Times,serif" font-size="14.00">1 (93.3)</text>
</g>
<!-- 019&#45;&gt;063 -->
<g id="edge27" class="edge"><title>019&#45;&gt;063</title>
<path fill="none" stroke="#b43f3f" stroke-dasharray="1,5" d="M486.306,-262.41C498.107,-249.55 515.031,-231.107 528.468,-216.464"/>
<polygon fill="#b43f3f" stroke="#b43f3f" points="531.338,-218.514 535.52,-208.779 526.18,-213.781 531.338,-218.514"/>
<text text-anchor="middle" x="538" y="-231.8" font-family="Times,serif" font-size="14.00">1 (85.7)</text>
</g>
</g>
</svg>
