<?xml version="1.0" encoding="UTF-8" standalone="no"?>
<!DOCTYPE svg PUBLIC "-//W3C//DTD SVG 1.1//EN"
 "http://www.w3.org/Graphics/SVG/1.1/DTD/svg11.dtd">
<!-- Generated by graphviz version 2.38.0 (20140413.2041)
 -->
<!-- Title: %3 Pages: 1 -->
<svg width="1312pt" height="408pt"
 viewBox="0.00 0.00 1312.05 408.00" xmlns="http://www.w3.org/2000/svg" xmlns:xlink="http://www.w3.org/1999/xlink">
<g id="graph0" class="graph" transform="scale(1 1) rotate(0) translate(4 404)">
<title>%3</title>
<polygon fill="white" stroke="none" points="-4,4 -4,-404 1308.05,-404 1308.05,4 -4,4"/>
<g id="clust1" class="cluster"><title>cluster_legend</title>
<path fill="none" stroke="black" d="M20,-264C20,-264 210,-264 210,-264 216,-264 222,-270 222,-276 222,-276 222,-380 222,-380 222,-386 216,-392 210,-392 210,-392 20,-392 20,-392 14,-392 8,-386 8,-380 8,-380 8,-276 8,-276 8,-270 14,-264 20,-264"/>
</g>
<!-- leg_s -->
<g id="node1" class="node"><title>leg_s</title>
<text text-anchor="middle" x="115" y="-362.3" font-family="Times,serif" font-size="14.00">Textual flow strength</text>
</g>
<!-- leg_e1 -->
<!-- leg_s&#45;&gt;leg_e1 -->
<g id="edge1" class="edge"><title>leg_s&#45;&gt;leg_e1</title>
<path fill="none" stroke="black" stroke-dasharray="1,5" d="M96.6657,-347.686C91.1324,-342.194 85.1607,-335.989 80,-330 70.1708,-318.593 60.0722,-304.779 52.9137,-294.563"/>
<polygon fill="black" stroke="black" points="55.6142,-292.314 47.056,-286.068 49.8514,-296.288 55.6142,-292.314"/>
<text text-anchor="middle" x="95.5" y="-318.8" font-family="Times,serif" font-size="14.00">&lt;=5 &#160;</text>
</g>
<!-- leg_e2 -->
<!-- leg_s&#45;&gt;leg_e2 -->
<g id="edge2" class="edge"><title>leg_s&#45;&gt;leg_e2</title>
<path fill="none" stroke="black" stroke-dasharray="5,2" d="M115,-347.799C115,-332.794 115,-311.174 115,-296.409"/>
<polygon fill="black" stroke="black" points="118.5,-296.293 115,-286.293 111.5,-296.293 118.5,-296.293"/>
<text text-anchor="middle" x="134" y="-318.8" font-family="Times,serif" font-size="14.00"> &#160;&lt;=25</text>
</g>
<!-- leg_e3 -->
<!-- leg_s&#45;&gt;leg_e3 -->
<g id="edge3" class="edge"><title>leg_s&#45;&gt;leg_e3</title>
<path fill="none" stroke="black" d="M138.503,-347.76C144.906,-342.462 151.567,-336.344 157,-330 166.087,-319.39 174.095,-305.689 179.546,-295.313"/>
<polygon fill="black" stroke="black" points="182.722,-296.789 184.091,-286.283 176.469,-293.642 182.722,-296.789"/>
<text text-anchor="middle" x="179" y="-318.8" font-family="Times,serif" font-size="14.00">&gt;25</text>
</g>
<!-- 021 -->
<g id="node5" class="node"><title>021</title>
<ellipse fill="#ff8a8a" stroke="#b43f3f" cx="268" cy="-279" rx="36.2938" ry="18"/>
<text text-anchor="middle" x="268" y="-275.3" font-family="Times,serif" font-size="14.00">021 (a)</text>
</g>
<!-- 036 -->
<g id="node6" class="node"><title>036</title>
<ellipse fill="#ff8a8a" stroke="#b43f3f" cx="177" cy="-192" rx="36.2938" ry="18"/>
<text text-anchor="middle" x="177" y="-188.3" font-family="Times,serif" font-size="14.00">036 (a)</text>
</g>
<!-- 021&#45;&gt;036 -->
<g id="edge4" class="edge"><title>021&#45;&gt;036</title>
<path fill="none" stroke="#b43f3f" stroke-dasharray="1,5" d="M246.628,-264.006C238.008,-257.963 228.186,-250.554 220,-243 211.456,-235.115 202.924,-225.619 195.74,-217.029"/>
<polygon fill="#b43f3f" stroke="#b43f3f" points="198.344,-214.685 189.308,-209.155 192.923,-219.113 198.344,-214.685"/>
<text text-anchor="middle" x="242" y="-231.8" font-family="Times,serif" font-size="14.00">1 (97.6)</text>
</g>
<!-- 047 -->
<g id="node7" class="node"><title>047</title>
<ellipse fill="#ff8a8a" stroke="#b43f3f" cx="268" cy="-192" rx="36.2938" ry="18"/>
<text text-anchor="middle" x="268" y="-188.3" font-family="Times,serif" font-size="14.00">047 (a)</text>
</g>
<!-- 021&#45;&gt;047 -->
<g id="edge5" class="edge"><title>021&#45;&gt;047</title>
<path fill="none" stroke="#b43f3f" stroke-dasharray="1,5" d="M268,-260.799C268,-249.163 268,-233.548 268,-220.237"/>
<polygon fill="#b43f3f" stroke="#b43f3f" points="271.5,-220.175 268,-210.175 264.5,-220.175 271.5,-220.175"/>
<text text-anchor="middle" x="290" y="-231.8" font-family="Times,serif" font-size="14.00">1 (95.1)</text>
</g>
<!-- 063 -->
<g id="node8" class="node"><title>063</title>
<ellipse fill="#ff8a8a" stroke="#b43f3f" cx="476" cy="-366" rx="36.2938" ry="18"/>
<text text-anchor="middle" x="476" y="-362.3" font-family="Times,serif" font-size="14.00">063 (a)</text>
</g>
<!-- 063&#45;&gt;021 -->
<g id="edge6" class="edge"><title>063&#45;&gt;021</title>
<path fill="none" stroke="#b43f3f" stroke-dasharray="1,5" d="M444.575,-356.793C421.83,-350.466 390.551,-340.961 364,-330 341.86,-320.86 317.967,-308.426 299.557,-298.244"/>
<polygon fill="#b43f3f" stroke="#b43f3f" points="301.165,-295.133 290.729,-293.303 297.746,-301.242 301.165,-295.133"/>
<text text-anchor="middle" x="386" y="-318.8" font-family="Times,serif" font-size="14.00">1 (93.1)</text>
</g>
<!-- 045 -->
<g id="node9" class="node"><title>045</title>
<ellipse fill="#ff8a8a" stroke="#b43f3f" cx="374" cy="-279" rx="36.2938" ry="18"/>
<text text-anchor="middle" x="374" y="-275.3" font-family="Times,serif" font-size="14.00">045 (a)</text>
</g>
<!-- 063&#45;&gt;045 -->
<g id="edge7" class="edge"><title>063&#45;&gt;045</title>
<path fill="none" stroke="#b43f3f" stroke-dasharray="1,5" d="M455.519,-350.866C446.855,-344.684 436.76,-337.208 428,-330 417.517,-321.375 406.434,-311.296 397.055,-302.457"/>
<polygon fill="#b43f3f" stroke="#b43f3f" points="399.282,-299.745 389.627,-295.382 394.454,-304.813 399.282,-299.745"/>
<text text-anchor="middle" x="450" y="-318.8" font-family="Times,serif" font-size="14.00">1 (93.1)</text>
</g>
<!-- 07 -->
<g id="node10" class="node"><title>07</title>
<ellipse fill="#ff8a8a" stroke="#b43f3f" cx="476" cy="-279" rx="31.6951" ry="18"/>
<text text-anchor="middle" x="476" y="-275.3" font-family="Times,serif" font-size="14.00">07 (a)</text>
</g>
<!-- 063&#45;&gt;07 -->
<g id="edge8" class="edge"><title>063&#45;&gt;07</title>
<path fill="none" stroke="#b43f3f" stroke-dasharray="1,5" d="M476,-347.799C476,-336.163 476,-320.548 476,-307.237"/>
<polygon fill="#b43f3f" stroke="#b43f3f" points="479.5,-307.175 476,-297.175 472.5,-307.175 479.5,-307.175"/>
<text text-anchor="middle" x="498" y="-318.8" font-family="Times,serif" font-size="14.00">1 (96.6)</text>
</g>
<!-- 011 -->
<g id="node11" class="node"><title>011</title>
<ellipse fill="#ff8a8a" stroke="#b43f3f" cx="562" cy="-279" rx="36.2938" ry="18"/>
<text text-anchor="middle" x="562" y="-275.3" font-family="Times,serif" font-size="14.00">011 (a)</text>
</g>
<!-- 063&#45;&gt;011 -->
<g id="edge9" class="edge"><title>063&#45;&gt;011</title>
<path fill="none" stroke="#b43f3f" stroke-dasharray="1,5" d="M497.604,-351.25C506.26,-345.245 516.046,-337.798 524,-330 531.825,-322.329 539.362,-312.975 545.632,-304.442"/>
<polygon fill="#b43f3f" stroke="#b43f3f" points="548.497,-306.452 551.443,-296.275 542.794,-302.394 548.497,-306.452"/>
<text text-anchor="middle" x="559" y="-318.8" font-family="Times,serif" font-size="14.00">1 (93.1)</text>
</g>
<!-- 028 -->
<g id="node12" class="node"><title>028</title>
<ellipse fill="#ff8a8a" stroke="#b43f3f" cx="653" cy="-279" rx="36.2938" ry="18"/>
<text text-anchor="middle" x="653" y="-275.3" font-family="Times,serif" font-size="14.00">028 (a)</text>
</g>
<!-- 063&#45;&gt;028 -->
<g id="edge10" class="edge"><title>063&#45;&gt;028</title>
<path fill="none" stroke="#b43f3f" stroke-dasharray="1,5" d="M508.558,-357.501C530.81,-351.675 560.576,-342.479 585,-330 600.161,-322.254 615.567,-311.239 627.873,-301.519"/>
<polygon fill="#b43f3f" stroke="#b43f3f" points="630.289,-304.067 635.856,-295.053 625.883,-298.627 630.289,-304.067"/>
<text text-anchor="middle" x="631" y="-318.8" font-family="Times,serif" font-size="14.00">1 (96.6)</text>
</g>
<!-- 038 -->
<g id="node13" class="node"><title>038</title>
<ellipse fill="#ff8a8a" stroke="#b43f3f" cx="359" cy="-192" rx="36.2938" ry="18"/>
<text text-anchor="middle" x="359" y="-188.3" font-family="Times,serif" font-size="14.00">038 (a)</text>
</g>
<!-- 045&#45;&gt;038 -->
<g id="edge11" class="edge"><title>045&#45;&gt;038</title>
<path fill="none" stroke="#b43f3f" stroke-dasharray="1,5" d="M370.965,-260.799C368.911,-249.163 366.156,-233.548 363.806,-220.237"/>
<polygon fill="#b43f3f" stroke="#b43f3f" points="367.216,-219.415 362.031,-210.175 360.322,-220.632 367.216,-219.415"/>
<text text-anchor="middle" x="390" y="-231.8" font-family="Times,serif" font-size="14.00">1 (92.7)</text>
</g>
<!-- 034 -->
<g id="node14" class="node"><title>034</title>
<ellipse fill="#ff8a8a" stroke="#b43f3f" cx="450" cy="-192" rx="36.2938" ry="18"/>
<text text-anchor="middle" x="450" y="-188.3" font-family="Times,serif" font-size="14.00">034 (a)</text>
</g>
<!-- 07&#45;&gt;034 -->
<g id="edge12" class="edge"><title>07&#45;&gt;034</title>
<path fill="none" stroke="#b43f3f" stroke-dasharray="1,5" d="M470.863,-261.207C467.255,-249.409 462.351,-233.378 458.204,-219.822"/>
<polygon fill="#b43f3f" stroke="#b43f3f" points="461.487,-218.588 455.215,-210.049 454.793,-220.636 461.487,-218.588"/>
<text text-anchor="middle" x="487" y="-231.8" font-family="Times,serif" font-size="14.00">1 (95.1)</text>
</g>
<!-- 013 -->
<g id="node15" class="node"><title>013</title>
<ellipse fill="#ff8a8a" stroke="#b43f3f" cx="541" cy="-192" rx="36.2938" ry="18"/>
<text text-anchor="middle" x="541" y="-188.3" font-family="Times,serif" font-size="14.00">013 (a)</text>
</g>
<!-- 07&#45;&gt;013 -->
<g id="edge13" class="edge"><title>07&#45;&gt;013</title>
<path fill="none" stroke="#b43f3f" stroke-dasharray="1,5" d="M493.29,-263.648C499.906,-257.665 507.24,-250.394 513,-243 518.713,-235.667 523.986,-227.026 528.378,-219.008"/>
<polygon fill="#b43f3f" stroke="#b43f3f" points="531.559,-220.481 533.105,-209.999 525.36,-217.229 531.559,-220.481"/>
<text text-anchor="middle" x="545" y="-231.8" font-family="Times,serif" font-size="14.00">2 (95.1)</text>
</g>
<!-- 037 -->
<g id="node16" class="node"><title>037</title>
<ellipse fill="#ff8a8a" stroke="#b43f3f" cx="632" cy="-192" rx="36.2938" ry="18"/>
<text text-anchor="middle" x="632" y="-188.3" font-family="Times,serif" font-size="14.00">037 (a)</text>
</g>
<!-- 07&#45;&gt;037 -->
<g id="edge14" class="edge"><title>07&#45;&gt;037</title>
<path fill="none" stroke="#b43f3f" stroke-dasharray="1,5" d="M500.603,-267.465C505.979,-265.257 511.658,-262.995 517,-261 540.7,-252.15 548.85,-255.221 571,-243 584.7,-235.441 598.323,-224.669 609.208,-215.057"/>
<polygon fill="#b43f3f" stroke="#b43f3f" points="611.567,-217.643 616.612,-208.326 606.858,-212.463 611.567,-217.643"/>
<text text-anchor="middle" x="615" y="-231.8" font-family="Times,serif" font-size="14.00">1 (97.5)</text>
</g>
<!-- 030 -->
<g id="node17" class="node"><title>030</title>
<ellipse fill="#ff8a8a" stroke="#b43f3f" cx="723" cy="-192" rx="36.2938" ry="18"/>
<text text-anchor="middle" x="723" y="-188.3" font-family="Times,serif" font-size="14.00">030 (a)</text>
</g>
<!-- 07&#45;&gt;030 -->
<g id="edge15" class="edge"><title>07&#45;&gt;030</title>
<path fill="none" stroke="#b43f3f" stroke-dasharray="1,5" d="M499.931,-266.91C505.446,-264.684 511.354,-262.554 517,-261 570.692,-246.221 588.609,-261.879 641,-243 660.538,-235.96 680.476,-223.934 695.798,-213.441"/>
<polygon fill="#b43f3f" stroke="#b43f3f" points="698.089,-216.109 704.249,-207.489 694.058,-210.386 698.089,-216.109"/>
<text text-anchor="middle" x="694" y="-231.8" font-family="Times,serif" font-size="14.00">1 (95.1)</text>
</g>
<!-- 03 -->
<g id="node18" class="node"><title>03</title>
<ellipse fill="#cea8f4" stroke="#835da9" cx="862" cy="-366" rx="32.4942" ry="18"/>
<text text-anchor="middle" x="862" y="-362.3" font-family="Times,serif" font-size="14.00">03 (b)</text>
</g>
<!-- 032 -->
<g id="node19" class="node"><title>032</title>
<ellipse fill="#cea8f4" stroke="#835da9" cx="771" cy="-279" rx="36.2938" ry="18"/>
<text text-anchor="middle" x="771" y="-275.3" font-family="Times,serif" font-size="14.00">032 (b)</text>
</g>
<!-- 03&#45;&gt;032 -->
<g id="edge16" class="edge"><title>03&#45;&gt;032</title>
<path fill="none" stroke="#835da9" stroke-dasharray="1,5" d="M841.581,-351.672C832.737,-345.512 822.489,-337.834 814,-330 805.456,-322.115 796.924,-312.619 789.74,-304.029"/>
<polygon fill="#835da9" stroke="#835da9" points="792.344,-301.685 783.308,-296.155 786.923,-306.113 792.344,-301.685"/>
<text text-anchor="middle" x="836" y="-318.8" font-family="Times,serif" font-size="14.00">1 (91.7)</text>
</g>
<!-- 044 -->
<g id="node20" class="node"><title>044</title>
<ellipse fill="#cea8f4" stroke="#835da9" cx="862" cy="-279" rx="36.2938" ry="18"/>
<text text-anchor="middle" x="862" y="-275.3" font-family="Times,serif" font-size="14.00">044 (b)</text>
</g>
<!-- 03&#45;&gt;044 -->
<g id="edge17" class="edge"><title>03&#45;&gt;044</title>
<path fill="none" stroke="#835da9" stroke-dasharray="1,5" d="M862,-347.799C862,-336.163 862,-320.548 862,-307.237"/>
<polygon fill="#835da9" stroke="#835da9" points="865.5,-307.175 862,-297.175 858.5,-307.175 865.5,-307.175"/>
<text text-anchor="middle" x="884" y="-318.8" font-family="Times,serif" font-size="14.00">1 (89.2)</text>
</g>
<!-- 02 -->
<g id="node21" class="node"><title>02</title>
<ellipse fill="#cea8f4" stroke="#835da9" cx="949" cy="-279" rx="32.4942" ry="18"/>
<text text-anchor="middle" x="949" y="-275.3" font-family="Times,serif" font-size="14.00">02 (b)</text>
</g>
<!-- 03&#45;&gt;02 -->
<g id="edge18" class="edge"><title>03&#45;&gt;02</title>
<path fill="none" stroke="#835da9" stroke-dasharray="1,5" d="M882.599,-351.862C891.476,-345.738 901.701,-338.034 910,-330 917.949,-322.304 925.667,-312.945 932.111,-304.414"/>
<polygon fill="#835da9" stroke="#835da9" points="935.004,-306.388 938.091,-296.252 929.358,-302.25 935.004,-306.388"/>
<text text-anchor="middle" x="945" y="-318.8" font-family="Times,serif" font-size="14.00">1 (86.5)</text>
</g>
<!-- 022 -->
<g id="node22" class="node"><title>022</title>
<ellipse fill="#cea8f4" stroke="#835da9" cx="814" cy="-192" rx="36.2938" ry="18"/>
<text text-anchor="middle" x="814" y="-188.3" font-family="Times,serif" font-size="14.00">022 (b)</text>
</g>
<!-- 044&#45;&gt;022 -->
<g id="edge19" class="edge"><title>044&#45;&gt;022</title>
<path fill="none" stroke="#835da9" stroke-dasharray="1,5" d="M848.443,-262.237C843.827,-256.423 838.862,-249.632 835,-243 830.736,-235.678 826.874,-227.324 823.659,-219.569"/>
<polygon fill="#835da9" stroke="#835da9" points="826.883,-218.202 819.951,-210.189 820.373,-220.776 826.883,-218.202"/>
<text text-anchor="middle" x="857" y="-231.8" font-family="Times,serif" font-size="14.00">1 (91.7)</text>
</g>
<!-- 0141 -->
<g id="node23" class="node"><title>0141</title>
<ellipse fill="#cea8f4" stroke="#835da9" cx="909" cy="-192" rx="40.8928" ry="18"/>
<text text-anchor="middle" x="909" y="-188.3" font-family="Times,serif" font-size="14.00">0141 (b)</text>
</g>
<!-- 044&#45;&gt;0141 -->
<g id="edge20" class="edge"><title>044&#45;&gt;0141</title>
<path fill="none" stroke="#835da9" stroke-dasharray="1,5" d="M871.286,-261.207C877.98,-249.099 887.141,-232.533 894.757,-218.759"/>
<polygon fill="#835da9" stroke="#835da9" points="897.958,-220.203 899.734,-209.758 891.832,-216.816 897.958,-220.203"/>
<text text-anchor="middle" x="911" y="-231.8" font-family="Times,serif" font-size="14.00">1 (89.2)</text>
</g>
<!-- 017 -->
<g id="node24" class="node"><title>017</title>
<ellipse fill="#cea8f4" stroke="#835da9" cx="909" cy="-105" rx="36.2938" ry="18"/>
<text text-anchor="middle" x="909" y="-101.3" font-family="Times,serif" font-size="14.00">017 (b)</text>
</g>
<!-- 0141&#45;&gt;017 -->
<g id="edge21" class="edge"><title>0141&#45;&gt;017</title>
<path fill="none" stroke="#835da9" stroke-dasharray="1,5" d="M909,-173.799C909,-162.163 909,-146.548 909,-133.237"/>
<polygon fill="#835da9" stroke="#835da9" points="912.5,-133.175 909,-123.175 905.5,-133.175 912.5,-133.175"/>
<text text-anchor="middle" x="931" y="-144.8" font-family="Times,serif" font-size="14.00">2 (92.7)</text>
</g>
<!-- 01 -->
<g id="node28" class="node"><title>01</title>
<ellipse fill="#cea8f4" stroke="#835da9" cx="909" cy="-18" rx="32.4942" ry="18"/>
<text text-anchor="middle" x="909" y="-14.3" font-family="Times,serif" font-size="14.00">01 (b)</text>
</g>
<!-- 017&#45;&gt;01 -->
<g id="edge24" class="edge"><title>017&#45;&gt;01</title>
<path fill="none" stroke="#835da9" stroke-dasharray="1,5" d="M909,-86.799C909,-75.1626 909,-59.5479 909,-46.2368"/>
<polygon fill="#835da9" stroke="#835da9" points="912.5,-46.1754 909,-36.1754 905.5,-46.1755 912.5,-46.1754"/>
<text text-anchor="middle" x="931" y="-57.8" font-family="Times,serif" font-size="14.00">4 (44.7)</text>
</g>
<!-- 091 -->
<g id="node25" class="node"><title>091</title>
<ellipse fill="#cea8f4" stroke="#835da9" cx="1085" cy="-366" rx="36.2938" ry="18"/>
<text text-anchor="middle" x="1085" y="-362.3" font-family="Times,serif" font-size="14.00">091 (b)</text>
</g>
<!-- 0211 -->
<g id="node26" class="node"><title>0211</title>
<ellipse fill="#cea8f4" stroke="#835da9" cx="1040" cy="-279" rx="40.8928" ry="18"/>
<text text-anchor="middle" x="1040" y="-275.3" font-family="Times,serif" font-size="14.00">0211 (b)</text>
</g>
<!-- 091&#45;&gt;0211 -->
<g id="edge22" class="edge"><title>091&#45;&gt;0211</title>
<path fill="none" stroke="#835da9" stroke-dasharray="1,5" d="M1075.25,-348.371C1071.93,-342.593 1068.24,-336.047 1065,-330 1060.83,-322.213 1056.47,-313.645 1052.58,-305.834"/>
<polygon fill="#835da9" stroke="#835da9" points="1055.67,-304.2 1048.1,-296.785 1049.4,-307.301 1055.67,-304.2"/>
<text text-anchor="middle" x="1087" y="-318.8" font-family="Times,serif" font-size="14.00">1 (83.3)</text>
</g>
<!-- 05 -->
<g id="node27" class="node"><title>05</title>
<ellipse fill="#cea8f4" stroke="#835da9" cx="1131" cy="-279" rx="32.4942" ry="18"/>
<text text-anchor="middle" x="1131" y="-275.3" font-family="Times,serif" font-size="14.00">05 (b)</text>
</g>
<!-- 091&#45;&gt;05 -->
<g id="edge23" class="edge"><title>091&#45;&gt;05</title>
<path fill="none" stroke="#835da9" stroke-dasharray="1,5" d="M1097.13,-348.67C1101.15,-342.917 1105.49,-336.309 1109,-330 1113.15,-322.542 1117.1,-314.148 1120.48,-306.398"/>
<polygon fill="#835da9" stroke="#835da9" points="1123.76,-307.619 1124.43,-297.044 1117.31,-304.897 1123.76,-307.619"/>
<text text-anchor="middle" x="1138" y="-318.8" font-family="Times,serif" font-size="14.00">1 (87.5)</text>
</g>
<!-- 019 -->
<g id="node29" class="node"><title>019</title>
<ellipse fill="#cea8f4" stroke="#835da9" cx="1176" cy="-366" rx="36.2938" ry="18"/>
<text text-anchor="middle" x="1176" y="-362.3" font-family="Times,serif" font-size="14.00">019 (b)</text>
</g>
<!-- P75 -->
<g id="node30" class="node"><title>P75</title>
<ellipse fill="#cea8f4" stroke="#835da9" cx="1267" cy="-366" rx="37.0935" ry="18"/>
<text text-anchor="middle" x="1267" y="-362.3" font-family="Times,serif" font-size="14.00">P75 (b)</text>
</g>
</g>
</svg>
