<?xml version="1.0" encoding="UTF-8" standalone="no"?>
<!DOCTYPE svg PUBLIC "-//W3C//DTD SVG 1.1//EN"
 "http://www.w3.org/Graphics/SVG/1.1/DTD/svg11.dtd">
<!-- Generated by graphviz version 2.38.0 (20140413.2041)
 -->
<!-- Title: G Pages: 1 -->
<svg width="1122pt" height="218pt"
 viewBox="0.00 0.00 1121.79 218.00" xmlns="http://www.w3.org/2000/svg" xmlns:xlink="http://www.w3.org/1999/xlink">
<g id="graph0" class="graph" transform="scale(1 1) rotate(0) translate(4 214)">
<title>G</title>
<polygon fill="white" stroke="none" points="-4,4 -4,-214 1117.79,-214 1117.79,4 -4,4"/>
<!-- 036 (d) -->
<g id="node1" class="node"><title>036 (d)</title>
<ellipse fill="#ff86c2" stroke="#b43b77" cx="36.3968" cy="-18" rx="36.2938" ry="18"/>
<text text-anchor="middle" x="36.3968" y="-14.3" font-family="Times,serif" font-size="14.00">036 (d)</text>
</g>
<!-- 0141 (i) -->
<g id="node2" class="node"><title>0141 (i)</title>
<ellipse fill="#36f200" stroke="#000000" cx="159.397" cy="-192" rx="38.9931" ry="18"/>
<text text-anchor="middle" x="159.397" y="-188.3" font-family="Times,serif" font-size="14.00">0141 (i)</text>
</g>
<!-- 019 (h) -->
<g id="node3" class="node"><title>019 (h)</title>
<ellipse fill="#8c8cff" stroke="#4141b4" cx="264.397" cy="-192" rx="36.2938" ry="18"/>
<text text-anchor="middle" x="264.397" y="-188.3" font-family="Times,serif" font-size="14.00">019 (h)</text>
</g>
<!-- 032 (c) -->
<g id="node4" class="node"><title>032 (c)</title>
<ellipse fill="#72fe95" stroke="#27b34a" cx="356.397" cy="-105" rx="36.2938" ry="18"/>
<text text-anchor="middle" x="356.397" y="-101.3" font-family="Times,serif" font-size="14.00">032 (c)</text>
</g>
<!-- 091 (d) -->
<g id="node5" class="node"><title>091 (d)</title>
<ellipse fill="#ff86c2" stroke="#b43b77" cx="42.3968" cy="-192" rx="36.2938" ry="18"/>
<text text-anchor="middle" x="42.3968" y="-188.3" font-family="Times,serif" font-size="14.00">091 (d)</text>
</g>
<!-- 021 (d) -->
<g id="node14" class="node"><title>021 (d)</title>
<ellipse fill="#ff86c2" stroke="#b43b77" cx="42.3968" cy="-105" rx="36.2938" ry="18"/>
<text text-anchor="middle" x="42.3968" y="-101.3" font-family="Times,serif" font-size="14.00">021 (d)</text>
</g>
<!-- 091 (d)&#45;&gt;021 (d) -->
<g id="edge1" class="edge"><title>091 (d)&#45;&gt;021 (d)</title>
<path fill="none" stroke="#b43b77" d="M42.3968,-173.799C42.3968,-162.163 42.3968,-146.548 42.3968,-133.237"/>
<polygon fill="#b43b77" stroke="#b43b77" points="45.8969,-133.175 42.3968,-123.175 38.8969,-133.175 45.8969,-133.175"/>
<text text-anchor="middle" x="64.3968" y="-144.8" font-family="Times,serif" font-size="14.00">3 (83.3)</text>
</g>
<!-- 013 (a) -->
<g id="node6" class="node"><title>013 (a)</title>
<ellipse fill="#ff8a8a" stroke="#b43f3f" cx="898.397" cy="-18" rx="36.2938" ry="18"/>
<text text-anchor="middle" x="898.397" y="-14.3" font-family="Times,serif" font-size="14.00">013 (a)</text>
</g>
<!-- 037 (a) -->
<g id="node7" class="node"><title>037 (a)</title>
<ellipse fill="#ff8a8a" stroke="#b43f3f" cx="261.397" cy="-18" rx="36.2938" ry="18"/>
<text text-anchor="middle" x="261.397" y="-14.3" font-family="Times,serif" font-size="14.00">037 (a)</text>
</g>
<!-- 02 (a) -->
<g id="node8" class="node"><title>02 (a)</title>
<ellipse fill="#ff8a8a" stroke="#b43f3f" cx="628.397" cy="-18" rx="31.6951" ry="18"/>
<text text-anchor="middle" x="628.397" y="-14.3" font-family="Times,serif" font-size="14.00">02 (a)</text>
</g>
<!-- 07 (a) -->
<g id="node9" class="node"><title>07 (a)</title>
<ellipse fill="#ff8a8a" stroke="#b43f3f" cx="447.397" cy="-105" rx="31.6951" ry="18"/>
<text text-anchor="middle" x="447.397" y="-101.3" font-family="Times,serif" font-size="14.00">07 (a)</text>
</g>
<!-- 07 (a)&#45;&gt;037 (a) -->
<g id="edge5" class="edge"><title>07 (a)&#45;&gt;037 (a)</title>
<path fill="none" stroke="#b43f3f" d="M421.741,-94.086C415.148,-91.6581 408.041,-89.1436 401.397,-87 372.869,-77.7963 363.656,-81.471 336.397,-69 319.309,-61.1823 301.751,-49.6978 287.922,-39.7064"/>
<polygon fill="#b43f3f" stroke="#b43f3f" points="289.954,-36.8555 279.832,-33.7244 285.792,-42.484 289.954,-36.8555"/>
<text text-anchor="middle" x="358.397" y="-57.8" font-family="Times,serif" font-size="14.00">1 (97.5)</text>
</g>
<!-- 034 (a) -->
<g id="node12" class="node"><title>034 (a)</title>
<ellipse fill="#ff8a8a" stroke="#b43f3f" cx="352.397" cy="-18" rx="36.2938" ry="18"/>
<text text-anchor="middle" x="352.397" y="-14.3" font-family="Times,serif" font-size="14.00">034 (a)</text>
</g>
<!-- 07 (a)&#45;&gt;034 (a) -->
<g id="edge3" class="edge"><title>07 (a)&#45;&gt;034 (a)</title>
<path fill="none" stroke="#b43f3f" d="M427.611,-90.8221C418.694,-84.5722 408.211,-76.7806 399.397,-69 390.233,-60.9115 380.866,-51.2757 372.93,-42.6319"/>
<polygon fill="#b43f3f" stroke="#b43f3f" points="375.386,-40.1295 366.091,-35.0454 370.187,-44.8165 375.386,-40.1295"/>
<text text-anchor="middle" x="421.397" y="-57.8" font-family="Times,serif" font-size="14.00">1 (95.1)</text>
</g>
<!-- 0211 (a) -->
<g id="node13" class="node"><title>0211 (a)</title>
<ellipse fill="#ff8a8a" stroke="#b43f3f" cx="447.397" cy="-18" rx="40.0939" ry="18"/>
<text text-anchor="middle" x="447.397" y="-14.3" font-family="Times,serif" font-size="14.00">0211 (a)</text>
</g>
<!-- 07 (a)&#45;&gt;0211 (a) -->
<g id="edge4" class="edge"><title>07 (a)&#45;&gt;0211 (a)</title>
<path fill="none" stroke="#b43f3f" d="M447.397,-86.799C447.397,-75.1626 447.397,-59.5479 447.397,-46.2368"/>
<polygon fill="#b43f3f" stroke="#b43f3f" points="450.897,-46.1754 447.397,-36.1754 443.897,-46.1755 450.897,-46.1754"/>
<text text-anchor="middle" x="469.397" y="-57.8" font-family="Times,serif" font-size="14.00">2 (82.9)</text>
</g>
<!-- 030 (a) -->
<g id="node18" class="node"><title>030 (a)</title>
<ellipse fill="#ff8a8a" stroke="#b43f3f" cx="542.397" cy="-18" rx="36.2938" ry="18"/>
<text text-anchor="middle" x="542.397" y="-14.3" font-family="Times,serif" font-size="14.00">030 (a)</text>
</g>
<!-- 07 (a)&#45;&gt;030 (a) -->
<g id="edge2" class="edge"><title>07 (a)&#45;&gt;030 (a)</title>
<path fill="none" stroke="#b43f3f" d="M467.182,-90.8221C476.1,-84.5722 486.582,-76.7806 495.397,-69 504.56,-60.9115 513.927,-51.2757 521.863,-42.6319"/>
<polygon fill="#b43f3f" stroke="#b43f3f" points="524.606,-44.8165 528.702,-35.0454 519.407,-40.1295 524.606,-44.8165"/>
<text text-anchor="middle" x="533.397" y="-57.8" font-family="Times,serif" font-size="14.00">1 (95.1)</text>
</g>
<!-- 044 (g) -->
<g id="node10" class="node"><title>044 (g)</title>
<ellipse fill="#ea8dfe" stroke="#9f42b3" cx="807.397" cy="-192" rx="36.2938" ry="18"/>
<text text-anchor="middle" x="807.397" y="-188.3" font-family="Times,serif" font-size="14.00">044 (g)</text>
</g>
<!-- 017 (f) -->
<g id="node11" class="node"><title>017 (f)</title>
<ellipse fill="#80b584" stroke="#356a39" cx="896.397" cy="-192" rx="35.194" ry="18"/>
<text text-anchor="middle" x="896.397" y="-188.3" font-family="Times,serif" font-size="14.00">017 (f)</text>
</g>
<!-- 021 (d)&#45;&gt;036 (d) -->
<g id="edge6" class="edge"><title>021 (d)&#45;&gt;036 (d)</title>
<path fill="none" stroke="#b43b77" d="M41.1826,-86.799C40.3612,-75.1626 39.259,-59.5479 38.3194,-46.2368"/>
<polygon fill="#b43b77" stroke="#b43b77" points="41.8047,-45.9041 37.6092,-36.1754 34.8221,-46.3971 41.8047,-45.9041"/>
<text text-anchor="middle" x="62.3968" y="-57.8" font-family="Times,serif" font-size="14.00">1 (97.6)</text>
</g>
<!-- 047 (d) -->
<g id="node19" class="node"><title>047 (d)</title>
<ellipse fill="#ff86c2" stroke="#b43b77" cx="127.397" cy="-18" rx="36.2938" ry="18"/>
<text text-anchor="middle" x="127.397" y="-14.3" font-family="Times,serif" font-size="14.00">047 (d)</text>
</g>
<!-- 021 (d)&#45;&gt;047 (d) -->
<g id="edge7" class="edge"><title>021 (d)&#45;&gt;047 (d)</title>
<path fill="none" stroke="#b43b77" d="M63.0135,-90.0696C71.2959,-84.0368 80.6875,-76.6173 88.3968,-69 96.267,-61.2237 103.968,-51.8471 110.421,-43.3252"/>
<polygon fill="#b43b77" stroke="#b43b77" points="113.307,-45.3075 116.417,-35.1791 107.67,-41.158 113.307,-45.3075"/>
<text text-anchor="middle" x="123.397" y="-57.8" font-family="Times,serif" font-size="14.00">1 (95.1)</text>
</g>
<!-- 011 (a) -->
<g id="node15" class="node"><title>011 (a)</title>
<ellipse fill="#ff8a8a" stroke="#b43f3f" cx="625.397" cy="-105" rx="36.2938" ry="18"/>
<text text-anchor="middle" x="625.397" y="-101.3" font-family="Times,serif" font-size="14.00">011 (a)</text>
</g>
<!-- 011 (a)&#45;&gt;02 (a) -->
<g id="edge8" class="edge"><title>011 (a)&#45;&gt;02 (a)</title>
<path fill="none" stroke="#b43f3f" d="M626.004,-86.799C626.415,-75.1626 626.966,-59.5479 627.435,-46.2368"/>
<polygon fill="#b43f3f" stroke="#b43f3f" points="630.936,-46.2927 627.791,-36.1754 623.94,-46.0457 630.936,-46.2927"/>
<text text-anchor="middle" x="649.397" y="-57.8" font-family="Times,serif" font-size="14.00">1 (86.5)</text>
</g>
<!-- 038 (a) -->
<g id="node16" class="node"><title>038 (a)</title>
<ellipse fill="#ff8a8a" stroke="#b43f3f" cx="716.397" cy="-18" rx="36.2938" ry="18"/>
<text text-anchor="middle" x="716.397" y="-14.3" font-family="Times,serif" font-size="14.00">038 (a)</text>
</g>
<!-- 063 (a) -->
<g id="node17" class="node"><title>063 (a)</title>
<ellipse fill="#ff8a8a" stroke="#b43f3f" cx="716.397" cy="-192" rx="36.2938" ry="18"/>
<text text-anchor="middle" x="716.397" y="-188.3" font-family="Times,serif" font-size="14.00">063 (a)</text>
</g>
<!-- 063 (a)&#45;&gt;07 (a) -->
<g id="edge12" class="edge"><title>063 (a)&#45;&gt;07 (a)</title>
<path fill="none" stroke="#b43f3f" d="M686.581,-181.579C637.105,-165.945 538.17,-134.683 484.344,-117.675"/>
<polygon fill="#b43f3f" stroke="#b43f3f" points="485.114,-114.248 474.524,-114.572 483.005,-120.922 485.114,-114.248"/>
<text text-anchor="middle" x="620.397" y="-144.8" font-family="Times,serif" font-size="14.00">1 (96.6)</text>
</g>
<!-- 063 (a)&#45;&gt;011 (a) -->
<g id="edge11" class="edge"><title>063 (a)&#45;&gt;011 (a)</title>
<path fill="none" stroke="#b43f3f" d="M695.025,-177.006C686.404,-170.963 676.582,-163.554 668.397,-156 659.853,-148.115 651.321,-138.619 644.136,-130.029"/>
<polygon fill="#b43f3f" stroke="#b43f3f" points="646.741,-127.685 637.704,-122.155 641.32,-132.113 646.741,-127.685"/>
<text text-anchor="middle" x="690.397" y="-144.8" font-family="Times,serif" font-size="14.00">1 (93.1)</text>
</g>
<!-- 045 (a) -->
<g id="node21" class="node"><title>045 (a)</title>
<ellipse fill="#ff8a8a" stroke="#b43f3f" cx="716.397" cy="-105" rx="36.2938" ry="18"/>
<text text-anchor="middle" x="716.397" y="-101.3" font-family="Times,serif" font-size="14.00">045 (a)</text>
</g>
<!-- 063 (a)&#45;&gt;045 (a) -->
<g id="edge9" class="edge"><title>063 (a)&#45;&gt;045 (a)</title>
<path fill="none" stroke="#b43f3f" d="M716.397,-173.799C716.397,-162.163 716.397,-146.548 716.397,-133.237"/>
<polygon fill="#b43f3f" stroke="#b43f3f" points="719.897,-133.175 716.397,-123.175 712.897,-133.175 719.897,-133.175"/>
<text text-anchor="middle" x="738.397" y="-144.8" font-family="Times,serif" font-size="14.00">1 (93.1)</text>
</g>
<!-- 028 (a) -->
<g id="node22" class="node"><title>028 (a)</title>
<ellipse fill="#ff8a8a" stroke="#b43f3f" cx="807.397" cy="-105" rx="36.2938" ry="18"/>
<text text-anchor="middle" x="807.397" y="-101.3" font-family="Times,serif" font-size="14.00">028 (a)</text>
</g>
<!-- 063 (a)&#45;&gt;028 (a) -->
<g id="edge10" class="edge"><title>063 (a)&#45;&gt;028 (a)</title>
<path fill="none" stroke="#b43f3f" d="M737.768,-177.006C746.389,-170.963 756.211,-163.554 764.397,-156 772.941,-148.115 781.472,-138.619 788.657,-130.029"/>
<polygon fill="#b43f3f" stroke="#b43f3f" points="791.474,-132.113 795.089,-122.155 786.053,-127.685 791.474,-132.113"/>
<text text-anchor="middle" x="800.397" y="-144.8" font-family="Times,serif" font-size="14.00">1 (96.6)</text>
</g>
<!-- 031 (a) -->
<g id="node25" class="node"><title>031 (a)</title>
<ellipse fill="#ff8a8a" stroke="#b43f3f" cx="898.397" cy="-105" rx="36.2938" ry="18"/>
<text text-anchor="middle" x="898.397" y="-101.3" font-family="Times,serif" font-size="14.00">031 (a)</text>
</g>
<!-- 063 (a)&#45;&gt;031 (a) -->
<g id="edge13" class="edge"><title>063 (a)&#45;&gt;031 (a)</title>
<path fill="none" stroke="#b43f3f" d="M744.492,-180.213C750.377,-178.067 756.567,-175.894 762.397,-174 790.499,-164.871 799.67,-168.601 826.397,-156 842.657,-148.334 859.241,-137.096 872.388,-127.216"/>
<polygon fill="#b43f3f" stroke="#b43f3f" points="874.709,-129.847 880.494,-120.97 870.436,-124.302 874.709,-129.847"/>
<text text-anchor="middle" x="874.397" y="-144.8" font-family="Times,serif" font-size="14.00">1 (95.8)</text>
</g>
<!-- P75 (b) -->
<g id="node20" class="node"><title>P75 (b)</title>
<ellipse fill="#cea8f4" stroke="#835da9" cx="986.397" cy="-192" rx="37.0935" ry="18"/>
<text text-anchor="middle" x="986.397" y="-188.3" font-family="Times,serif" font-size="14.00">P75 (b)</text>
</g>
<!-- 045 (a)&#45;&gt;038 (a) -->
<g id="edge14" class="edge"><title>045 (a)&#45;&gt;038 (a)</title>
<path fill="none" stroke="#b43f3f" d="M716.397,-86.799C716.397,-75.1626 716.397,-59.5479 716.397,-46.2368"/>
<polygon fill="#b43f3f" stroke="#b43f3f" points="719.897,-46.1754 716.397,-36.1754 712.897,-46.1755 719.897,-46.1754"/>
<text text-anchor="middle" x="738.397" y="-57.8" font-family="Times,serif" font-size="14.00">1 (92.7)</text>
</g>
<!-- 022 (e) -->
<g id="node23" class="node"><title>022 (e)</title>
<ellipse fill="#a9c5eb" stroke="#5e7aa0" cx="1077.4" cy="-192" rx="36.2938" ry="18"/>
<text text-anchor="middle" x="1077.4" y="-188.3" font-family="Times,serif" font-size="14.00">022 (e)</text>
</g>
<!-- 03 (c) -->
<g id="node24" class="node"><title>03 (c)</title>
<ellipse fill="#72fe95" stroke="#27b34a" cx="356.397" cy="-192" rx="31.6951" ry="18"/>
<text text-anchor="middle" x="356.397" y="-188.3" font-family="Times,serif" font-size="14.00">03 (c)</text>
</g>
<!-- 03 (c)&#45;&gt;032 (c) -->
<g id="edge15" class="edge"><title>03 (c)&#45;&gt;032 (c)</title>
<path fill="none" stroke="#27b34a" d="M356.397,-173.799C356.397,-162.163 356.397,-146.548 356.397,-133.237"/>
<polygon fill="#27b34a" stroke="#27b34a" points="359.897,-133.175 356.397,-123.175 352.897,-133.175 359.897,-133.175"/>
<text text-anchor="middle" x="378.397" y="-144.8" font-family="Times,serif" font-size="14.00">1 (91.7)</text>
</g>
<!-- 031 (a)&#45;&gt;013 (a) -->
<g id="edge16" class="edge"><title>031 (a)&#45;&gt;013 (a)</title>
<path fill="none" stroke="#b43f3f" d="M898.397,-86.799C898.397,-75.1626 898.397,-59.5479 898.397,-46.2368"/>
<polygon fill="#b43f3f" stroke="#b43f3f" points="901.897,-46.1754 898.397,-36.1754 894.897,-46.1755 901.897,-46.1754"/>
<text text-anchor="middle" x="920.397" y="-57.8" font-family="Times,serif" font-size="14.00">1 (97.1)</text>
</g>
</g>
</svg>
