<?xml version="1.0" encoding="UTF-8" standalone="no"?>
<!DOCTYPE svg PUBLIC "-//W3C//DTD SVG 1.1//EN"
 "http://www.w3.org/Graphics/SVG/1.1/DTD/svg11.dtd">
<!-- Generated by graphviz version 2.38.0 (20140413.2041)
 -->
<!-- Title: %3 Pages: 1 -->
<svg width="880pt" height="337pt"
 viewBox="0.00 0.00 880.00 337.00" xmlns="http://www.w3.org/2000/svg" xmlns:xlink="http://www.w3.org/1999/xlink">
<g id="graph0" class="graph" transform="scale(1 1) rotate(0) translate(4 333)">
<title>%3</title>
<polygon fill="white" stroke="none" points="-4,4 -4,-333 876,-333 876,4 -4,4"/>
<g id="clust1" class="cluster"><title>cluster_legend</title>
<path fill="none" stroke="black" d="M20,-193C20,-193 210,-193 210,-193 216,-193 222,-199 222,-205 222,-205 222,-309 222,-309 222,-315 216,-321 210,-321 210,-321 20,-321 20,-321 14,-321 8,-315 8,-309 8,-309 8,-205 8,-205 8,-199 14,-193 20,-193"/>
</g>
<g id="clust2" class="cluster"><title>cluster_reading</title>
<polygon fill="none" stroke="black" points="230,-8 230,-321 864,-321 864,-8 230,-8"/>
</g>
<!-- leg_s -->
<g id="node1" class="node"><title>leg_s</title>
<text text-anchor="middle" x="115" y="-291.3" font-family="Times,serif" font-size="14.00">Textual flow strength</text>
</g>
<!-- leg_e1 -->
<!-- leg_s&#45;&gt;leg_e1 -->
<g id="edge1" class="edge"><title>leg_s&#45;&gt;leg_e1</title>
<path fill="none" stroke="black" stroke-dasharray="1,5" d="M96.6657,-276.686C91.1324,-271.194 85.1607,-264.989 80,-259 70.1708,-247.593 60.0722,-233.779 52.9137,-223.563"/>
<polygon fill="black" stroke="black" points="55.6142,-221.314 47.056,-215.068 49.8514,-225.288 55.6142,-221.314"/>
<text text-anchor="middle" x="95.5" y="-247.8" font-family="Times,serif" font-size="14.00">&lt;=5 &#160;</text>
</g>
<!-- leg_e2 -->
<!-- leg_s&#45;&gt;leg_e2 -->
<g id="edge2" class="edge"><title>leg_s&#45;&gt;leg_e2</title>
<path fill="none" stroke="black" stroke-dasharray="5,2" d="M115,-276.799C115,-261.794 115,-240.174 115,-225.409"/>
<polygon fill="black" stroke="black" points="118.5,-225.293 115,-215.293 111.5,-225.293 118.5,-225.293"/>
<text text-anchor="middle" x="134" y="-247.8" font-family="Times,serif" font-size="14.00"> &#160;&lt;=25</text>
</g>
<!-- leg_e3 -->
<!-- leg_s&#45;&gt;leg_e3 -->
<g id="edge3" class="edge"><title>leg_s&#45;&gt;leg_e3</title>
<path fill="none" stroke="black" d="M138.503,-276.76C144.906,-271.462 151.567,-265.344 157,-259 166.087,-248.39 174.095,-234.689 179.546,-224.313"/>
<polygon fill="black" stroke="black" points="182.722,-225.789 184.091,-215.283 176.469,-222.642 182.722,-225.789"/>
<text text-anchor="middle" x="179" y="-247.8" font-family="Times,serif" font-size="14.00">&gt;25</text>
</g>
<!-- 021 -->
<g id="node5" class="node"><title>021</title>
<ellipse fill="#ff8a8a" stroke="#b43f3f" cx="465" cy="-121" rx="36.2938" ry="18"/>
<text text-anchor="middle" x="465" y="-117.3" font-family="Times,serif" font-size="14.00">021 (a)</text>
</g>
<!-- 036 -->
<g id="node6" class="node"><title>036</title>
<ellipse fill="#ff8a8a" stroke="#b43f3f" cx="274" cy="-34" rx="36.2938" ry="18"/>
<text text-anchor="middle" x="274" y="-30.3" font-family="Times,serif" font-size="14.00">036 (a)</text>
</g>
<!-- 021&#45;&gt;036 -->
<g id="edge4" class="edge"><title>021&#45;&gt;036</title>
<path fill="none" stroke="#b43f3f" stroke-dasharray="1,5" d="M436.951,-109.066C431.063,-106.931 424.86,-104.799 419,-103 387.055,-93.1927 376.452,-98.759 346,-85 329.504,-77.5467 312.794,-66.2254 299.629,-56.2395"/>
<polygon fill="#b43f3f" stroke="#b43f3f" points="301.567,-53.3122 291.528,-49.9243 297.263,-58.8328 301.567,-53.3122"/>
<text text-anchor="middle" x="368" y="-73.8" font-family="Times,serif" font-size="14.00">1 (97.6)</text>
</g>
<!-- 047 -->
<g id="node7" class="node"><title>047</title>
<ellipse fill="#ff8a8a" stroke="#b43f3f" cx="365" cy="-34" rx="36.2938" ry="18"/>
<text text-anchor="middle" x="365" y="-30.3" font-family="Times,serif" font-size="14.00">047 (a)</text>
</g>
<!-- 021&#45;&gt;047 -->
<g id="edge5" class="edge"><title>021&#45;&gt;047</title>
<path fill="none" stroke="#b43f3f" stroke-dasharray="1,5" d="M440.864,-107.404C430.265,-101.326 417.989,-93.5096 408,-85 399.15,-77.4605 390.555,-68.0351 383.405,-59.4062"/>
<polygon fill="#b43f3f" stroke="#b43f3f" points="386.021,-57.0734 377.032,-51.4648 380.562,-61.4546 386.021,-57.0734"/>
<text text-anchor="middle" x="430" y="-73.8" font-family="Times,serif" font-size="14.00">1 (95.1)</text>
</g>
<!-- 063 -->
<g id="node8" class="node"><title>063</title>
<ellipse fill="#ff8a8a" stroke="#b43f3f" cx="718" cy="-208" rx="36.2938" ry="18"/>
<text text-anchor="middle" x="718" y="-204.3" font-family="Times,serif" font-size="14.00">063 (a)</text>
</g>
<!-- 063&#45;&gt;021 -->
<g id="edge6" class="edge"><title>063&#45;&gt;021</title>
<path fill="none" stroke="#b43f3f" stroke-dasharray="1,5" d="M690.57,-195.785C684.528,-193.619 678.108,-191.546 672,-190 617.161,-176.117 599.188,-191.262 546,-172 526.646,-164.991 506.951,-152.966 491.828,-142.466"/>
<polygon fill="#b43f3f" stroke="#b43f3f" points="493.66,-139.473 483.489,-136.508 489.591,-145.169 493.66,-139.473"/>
<text text-anchor="middle" x="568" y="-160.8" font-family="Times,serif" font-size="14.00">1 (93.1)</text>
</g>
<!-- 011 -->
<g id="node9" class="node"><title>011</title>
<ellipse fill="#ff8a8a" stroke="#b43f3f" cx="556" cy="-121" rx="36.2938" ry="18"/>
<text text-anchor="middle" x="556" y="-117.3" font-family="Times,serif" font-size="14.00">011 (a)</text>
</g>
<!-- 063&#45;&gt;011 -->
<g id="edge7" class="edge"><title>063&#45;&gt;011</title>
<path fill="none" stroke="#b43f3f" stroke-dasharray="1,5" d="M689.865,-196.333C683.982,-194.179 677.804,-191.972 672,-190 646.444,-181.319 637.606,-185.086 614,-172 601.028,-164.809 588.347,-154.39 578.167,-144.922"/>
<polygon fill="#b43f3f" stroke="#b43f3f" points="580.54,-142.347 570.907,-137.936 575.686,-147.392 580.54,-142.347"/>
<text text-anchor="middle" x="636" y="-160.8" font-family="Times,serif" font-size="14.00">1 (93.1)</text>
</g>
<!-- 07 -->
<g id="node10" class="node"><title>07</title>
<ellipse fill="#ff8a8a" stroke="#b43f3f" cx="642" cy="-121" rx="31.6951" ry="18"/>
<text text-anchor="middle" x="642" y="-117.3" font-family="Times,serif" font-size="14.00">07 (a)</text>
</g>
<!-- 063&#45;&gt;07 -->
<g id="edge8" class="edge"><title>063&#45;&gt;07</title>
<path fill="none" stroke="#b43f3f" stroke-dasharray="1,5" d="M697.523,-192.945C689.666,-187.003 680.931,-179.682 674,-172 667.307,-164.583 661.095,-155.613 655.959,-147.331"/>
<polygon fill="#b43f3f" stroke="#b43f3f" points="658.956,-145.524 650.836,-138.719 652.94,-149.103 658.956,-145.524"/>
<text text-anchor="middle" x="696" y="-160.8" font-family="Times,serif" font-size="14.00">1 (96.6)</text>
</g>
<!-- 028 -->
<g id="node11" class="node"><title>028</title>
<ellipse fill="#ff8a8a" stroke="#b43f3f" cx="728" cy="-121" rx="36.2938" ry="18"/>
<text text-anchor="middle" x="728" y="-117.3" font-family="Times,serif" font-size="14.00">028 (a)</text>
</g>
<!-- 063&#45;&gt;028 -->
<g id="edge9" class="edge"><title>063&#45;&gt;028</title>
<path fill="none" stroke="#b43f3f" stroke-dasharray="1,5" d="M720.024,-189.799C721.393,-178.163 723.23,-162.548 724.796,-149.237"/>
<polygon fill="#b43f3f" stroke="#b43f3f" points="728.287,-149.516 725.979,-139.175 721.335,-148.698 728.287,-149.516"/>
<text text-anchor="middle" x="745" y="-160.8" font-family="Times,serif" font-size="14.00">1 (96.6)</text>
</g>
<!-- 045 -->
<g id="node12" class="node"><title>045</title>
<ellipse fill="#ff8a8a" stroke="#b43f3f" cx="819" cy="-121" rx="36.2938" ry="18"/>
<text text-anchor="middle" x="819" y="-117.3" font-family="Times,serif" font-size="14.00">045 (a)</text>
</g>
<!-- 063&#45;&gt;045 -->
<g id="edge10" class="edge"><title>063&#45;&gt;045</title>
<path fill="none" stroke="#b43f3f" stroke-dasharray="1,5" d="M740.437,-193.74C750.182,-187.594 761.512,-179.906 771,-172 780.724,-163.897 790.561,-154.012 798.776,-145.176"/>
<polygon fill="#b43f3f" stroke="#b43f3f" points="801.39,-147.504 805.534,-137.753 796.214,-142.791 801.39,-147.504"/>
<text text-anchor="middle" x="808" y="-160.8" font-family="Times,serif" font-size="14.00">1 (93.1)</text>
</g>
<!-- 030 -->
<g id="node14" class="node"><title>030</title>
<ellipse fill="#ff8a8a" stroke="#b43f3f" cx="456" cy="-34" rx="36.2938" ry="18"/>
<text text-anchor="middle" x="456" y="-30.3" font-family="Times,serif" font-size="14.00">030 (a)</text>
</g>
<!-- 07&#45;&gt;030 -->
<g id="edge12" class="edge"><title>07&#45;&gt;030</title>
<path fill="none" stroke="#b43f3f" stroke-dasharray="1,5" d="M617.502,-109.166C612.12,-106.976 606.412,-104.797 601,-103 570.106,-92.7388 559.708,-98.3114 530,-85 513.17,-77.4588 496.004,-66.1313 482.448,-56.164"/>
<polygon fill="#b43f3f" stroke="#b43f3f" points="484.191,-53.0945 474.101,-49.8639 479.974,-58.6817 484.191,-53.0945"/>
<text text-anchor="middle" x="552" y="-73.8" font-family="Times,serif" font-size="14.00">1 (95.1)</text>
</g>
<!-- 017 -->
<g id="node15" class="node"><title>017</title>
<ellipse fill="#ff8a8a" stroke="#b43f3f" cx="547" cy="-34" rx="36.2938" ry="18"/>
<text text-anchor="middle" x="547" y="-30.3" font-family="Times,serif" font-size="14.00">017 (a)</text>
</g>
<!-- 07&#45;&gt;017 -->
<g id="edge13" class="edge"><title>07&#45;&gt;017</title>
<path fill="none" stroke="#b43f3f" stroke-dasharray="1,5" d="M621.265,-107.029C611.951,-100.821 601.047,-93.0044 592,-85 583.027,-77.0605 574.018,-67.4543 566.444,-58.7925"/>
<polygon fill="#b43f3f" stroke="#b43f3f" points="569.093,-56.5041 559.934,-51.1781 563.772,-61.0531 569.093,-56.5041"/>
<text text-anchor="middle" x="614" y="-73.8" font-family="Times,serif" font-size="14.00">2 (92.7)</text>
</g>
<!-- 013 -->
<g id="node16" class="node"><title>013</title>
<ellipse fill="#ff8a8a" stroke="#b43f3f" cx="638" cy="-34" rx="36.2938" ry="18"/>
<text text-anchor="middle" x="638" y="-30.3" font-family="Times,serif" font-size="14.00">013 (a)</text>
</g>
<!-- 07&#45;&gt;013 -->
<g id="edge14" class="edge"><title>07&#45;&gt;013</title>
<path fill="none" stroke="#b43f3f" stroke-dasharray="1,5" d="M641.191,-102.799C640.643,-91.1626 639.908,-75.5479 639.282,-62.2368"/>
<polygon fill="#b43f3f" stroke="#b43f3f" points="642.775,-61.9998 638.808,-52.1754 635.782,-62.3289 642.775,-61.9998"/>
<text text-anchor="middle" x="663" y="-73.8" font-family="Times,serif" font-size="14.00">2 (95.1)</text>
</g>
<!-- 034 -->
<g id="node17" class="node"><title>034</title>
<ellipse fill="#ff8a8a" stroke="#b43f3f" cx="729" cy="-34" rx="36.2938" ry="18"/>
<text text-anchor="middle" x="729" y="-30.3" font-family="Times,serif" font-size="14.00">034 (a)</text>
</g>
<!-- 07&#45;&gt;034 -->
<g id="edge15" class="edge"><title>07&#45;&gt;034</title>
<path fill="none" stroke="#b43f3f" stroke-dasharray="1,5" d="M662.104,-106.75C670.784,-100.605 680.804,-92.9163 689,-85 697.036,-77.2382 704.927,-67.8647 711.548,-59.3412"/>
<polygon fill="#b43f3f" stroke="#b43f3f" points="714.469,-61.2809 717.705,-51.1923 708.884,-57.0612 714.469,-61.2809"/>
<text text-anchor="middle" x="724" y="-73.8" font-family="Times,serif" font-size="14.00">1 (95.1)</text>
</g>
<!-- 037 -->
<g id="node18" class="node"><title>037</title>
<ellipse fill="#ff8a8a" stroke="#b43f3f" cx="820" cy="-34" rx="36.2938" ry="18"/>
<text text-anchor="middle" x="820" y="-30.3" font-family="Times,serif" font-size="14.00">037 (a)</text>
</g>
<!-- 07&#45;&gt;037 -->
<g id="edge16" class="edge"><title>07&#45;&gt;037</title>
<path fill="none" stroke="#b43f3f" stroke-dasharray="1,5" d="M666.517,-109.224C671.898,-107.031 677.601,-104.836 683,-103 712.192,-93.074 722.121,-98.1711 750,-85 765.951,-77.4642 782.086,-66.2371 794.838,-56.3298"/>
<polygon fill="#b43f3f" stroke="#b43f3f" points="797.06,-59.0345 802.694,-50.0618 792.694,-53.5627 797.06,-59.0345"/>
<text text-anchor="middle" x="796" y="-73.8" font-family="Times,serif" font-size="14.00">1 (97.5)</text>
</g>
<!-- 019 -->
<g id="node13" class="node"><title>019</title>
<ellipse fill="#ff8a8a" stroke="#b43f3f" cx="718" cy="-295" rx="36.2938" ry="18"/>
<text text-anchor="middle" x="718" y="-291.3" font-family="Times,serif" font-size="14.00">019 (a)</text>
</g>
<!-- 019&#45;&gt;063 -->
<g id="edge11" class="edge"><title>019&#45;&gt;063</title>
<path fill="none" stroke="#b43f3f" stroke-dasharray="1,5" d="M718,-276.799C718,-265.163 718,-249.548 718,-236.237"/>
<polygon fill="#b43f3f" stroke="#b43f3f" points="721.5,-236.175 718,-226.175 714.5,-236.175 721.5,-236.175"/>
<text text-anchor="middle" x="740" y="-247.8" font-family="Times,serif" font-size="14.00">1 (85.7)</text>
</g>
<!-- 03 -->
<g id="node19" class="node"><title>03</title>
<ellipse fill="#ff8a8a" stroke="#b43f3f" cx="541" cy="-295" rx="31.6951" ry="18"/>
<text text-anchor="middle" x="541" y="-291.3" font-family="Times,serif" font-size="14.00">03 (a)</text>
</g>
<!-- 044 -->
<g id="node20" class="node"><title>044</title>
<ellipse fill="#ff8a8a" stroke="#b43f3f" cx="455" cy="-208" rx="36.2938" ry="18"/>
<text text-anchor="middle" x="455" y="-204.3" font-family="Times,serif" font-size="14.00">044 (a)</text>
</g>
<!-- 03&#45;&gt;044 -->
<g id="edge17" class="edge"><title>03&#45;&gt;044</title>
<path fill="none" stroke="#b43f3f" stroke-dasharray="1,5" d="M520.353,-280.912C511.467,-274.796 501.248,-267.086 493,-259 485.175,-251.329 477.638,-241.975 471.368,-233.442"/>
<polygon fill="#b43f3f" stroke="#b43f3f" points="474.206,-231.394 465.557,-225.275 468.503,-235.452 474.206,-231.394"/>
<text text-anchor="middle" x="515" y="-247.8" font-family="Times,serif" font-size="14.00">1 (89.2)</text>
</g>
<!-- 02 -->
<g id="node21" class="node"><title>02</title>
<ellipse fill="#ff8a8a" stroke="#b43f3f" cx="541" cy="-208" rx="31.6951" ry="18"/>
<text text-anchor="middle" x="541" y="-204.3" font-family="Times,serif" font-size="14.00">02 (a)</text>
</g>
<!-- 03&#45;&gt;02 -->
<g id="edge18" class="edge"><title>03&#45;&gt;02</title>
<path fill="none" stroke="#b43f3f" stroke-dasharray="1,5" d="M541,-276.799C541,-265.163 541,-249.548 541,-236.237"/>
<polygon fill="#b43f3f" stroke="#b43f3f" points="544.5,-236.175 541,-226.175 537.5,-236.175 544.5,-236.175"/>
<text text-anchor="middle" x="563" y="-247.8" font-family="Times,serif" font-size="14.00">1 (86.5)</text>
</g>
<!-- 032 -->
<g id="node22" class="node"><title>032</title>
<ellipse fill="#ff8a8a" stroke="#b43f3f" cx="627" cy="-208" rx="36.2938" ry="18"/>
<text text-anchor="middle" x="627" y="-204.3" font-family="Times,serif" font-size="14.00">032 (a)</text>
</g>
<!-- 03&#45;&gt;032 -->
<g id="edge19" class="edge"><title>03&#45;&gt;032</title>
<path fill="none" stroke="#b43f3f" stroke-dasharray="1,5" d="M561.647,-280.912C570.533,-274.796 580.752,-267.086 589,-259 596.825,-251.329 604.362,-241.975 610.632,-233.442"/>
<polygon fill="#b43f3f" stroke="#b43f3f" points="613.497,-235.452 616.443,-225.275 607.794,-231.394 613.497,-235.452"/>
<text text-anchor="middle" x="624" y="-247.8" font-family="Times,serif" font-size="14.00">1 (91.7)</text>
</g>
<!-- 0141 -->
<g id="node23" class="node"><title>0141</title>
<ellipse fill="#ff8a8a" stroke="#b43f3f" cx="279" cy="-121" rx="40.0939" ry="18"/>
<text text-anchor="middle" x="279" y="-117.3" font-family="Times,serif" font-size="14.00">0141 (a)</text>
</g>
<!-- 044&#45;&gt;0141 -->
<g id="edge20" class="edge"><title>044&#45;&gt;0141</title>
<path fill="none" stroke="#b43f3f" stroke-dasharray="1,5" d="M426.824,-196.452C420.944,-194.289 414.778,-192.048 409,-190 385.553,-181.687 378.382,-182.858 356,-172 339.017,-163.762 321.27,-152.446 307.099,-142.663"/>
<polygon fill="#b43f3f" stroke="#b43f3f" points="308.97,-139.7 298.776,-136.811 304.943,-145.426 308.97,-139.7"/>
<text text-anchor="middle" x="378" y="-160.8" font-family="Times,serif" font-size="14.00">1 (89.2)</text>
</g>
<!-- 022 -->
<g id="node24" class="node"><title>022</title>
<ellipse fill="#ff8a8a" stroke="#b43f3f" cx="374" cy="-121" rx="36.2938" ry="18"/>
<text text-anchor="middle" x="374" y="-117.3" font-family="Times,serif" font-size="14.00">022 (a)</text>
</g>
<!-- 044&#45;&gt;022 -->
<g id="edge21" class="edge"><title>044&#45;&gt;022</title>
<path fill="none" stroke="#b43f3f" stroke-dasharray="1,5" d="M437.955,-192.074C431.258,-186.012 423.607,-178.836 417,-172 409.041,-163.765 400.736,-154.331 393.572,-145.893"/>
<polygon fill="#b43f3f" stroke="#b43f3f" points="396.209,-143.591 387.1,-138.18 390.846,-148.09 396.209,-143.591"/>
<text text-anchor="middle" x="439" y="-160.8" font-family="Times,serif" font-size="14.00">1 (91.7)</text>
</g>
<!-- 091 -->
<g id="node25" class="node"><title>091</title>
<ellipse fill="#ff8a8a" stroke="#b43f3f" cx="365" cy="-295" rx="36.2938" ry="18"/>
<text text-anchor="middle" x="365" y="-291.3" font-family="Times,serif" font-size="14.00">091 (a)</text>
</g>
<!-- 05 -->
<g id="node26" class="node"><title>05</title>
<ellipse fill="#ff8a8a" stroke="#b43f3f" cx="270" cy="-208" rx="31.6951" ry="18"/>
<text text-anchor="middle" x="270" y="-204.3" font-family="Times,serif" font-size="14.00">05 (a)</text>
</g>
<!-- 091&#45;&gt;05 -->
<g id="edge22" class="edge"><title>091&#45;&gt;05</title>
<path fill="none" stroke="#b43f3f" stroke-dasharray="1,5" d="M343.279,-280.369C334.188,-274.272 323.729,-266.724 315,-259 305.893,-250.942 296.75,-241.167 289.106,-232.405"/>
<polygon fill="#b43f3f" stroke="#b43f3f" points="291.705,-230.059 282.552,-224.722 286.379,-234.601 291.705,-230.059"/>
<text text-anchor="middle" x="337" y="-247.8" font-family="Times,serif" font-size="14.00">1 (87.5)</text>
</g>
<!-- 0211 -->
<g id="node27" class="node"><title>0211</title>
<ellipse fill="#ff8a8a" stroke="#b43f3f" cx="360" cy="-208" rx="40.0939" ry="18"/>
<text text-anchor="middle" x="360" y="-204.3" font-family="Times,serif" font-size="14.00">0211 (a)</text>
</g>
<!-- 091&#45;&gt;0211 -->
<g id="edge23" class="edge"><title>091&#45;&gt;0211</title>
<path fill="none" stroke="#b43f3f" stroke-dasharray="1,5" d="M363.988,-276.799C363.304,-265.163 362.385,-249.548 361.602,-236.237"/>
<polygon fill="#b43f3f" stroke="#b43f3f" points="365.092,-235.953 361.01,-226.175 358.104,-236.364 365.092,-235.953"/>
<text text-anchor="middle" x="385" y="-247.8" font-family="Times,serif" font-size="14.00">1 (83.3)</text>
</g>
<!-- P75 -->
<g id="node28" class="node"><title>P75</title>
<ellipse fill="#ff8a8a" stroke="#b43f3f" cx="274" cy="-295" rx="36.2938" ry="18"/>
<text text-anchor="middle" x="274" y="-291.3" font-family="Times,serif" font-size="14.00">P75 (a)</text>
</g>
</g>
</svg>
