<?xml version="1.0" encoding="UTF-8" standalone="no"?>
<!DOCTYPE svg PUBLIC "-//W3C//DTD SVG 1.1//EN"
 "http://www.w3.org/Graphics/SVG/1.1/DTD/svg11.dtd">
<!-- Generated by graphviz version 2.38.0 (20140413.2041)
 -->
<!-- Title: %3 Pages: 1 -->
<svg width="1043pt" height="408pt"
 viewBox="0.00 0.00 1043.40 408.00" xmlns="http://www.w3.org/2000/svg" xmlns:xlink="http://www.w3.org/1999/xlink">
<g id="graph0" class="graph" transform="scale(1 1) rotate(0) translate(4 404)">
<title>%3</title>
<polygon fill="white" stroke="none" points="-4,4 -4,-404 1039.4,-404 1039.4,4 -4,4"/>
<g id="clust1" class="cluster"><title>cluster_legend</title>
<path fill="none" stroke="black" d="M20,-264C20,-264 210,-264 210,-264 216,-264 222,-270 222,-276 222,-276 222,-380 222,-380 222,-386 216,-392 210,-392 210,-392 20,-392 20,-392 14,-392 8,-386 8,-380 8,-380 8,-276 8,-276 8,-270 14,-264 20,-264"/>
</g>
<!-- leg_s -->
<g id="node1" class="node"><title>leg_s</title>
<text text-anchor="middle" x="115" y="-362.3" font-family="Times,serif" font-size="14.00">Textual flow strength</text>
</g>
<!-- leg_e1 -->
<!-- leg_s&#45;&gt;leg_e1 -->
<g id="edge1" class="edge"><title>leg_s&#45;&gt;leg_e1</title>
<path fill="none" stroke="black" stroke-dasharray="1,5" d="M96.6657,-347.686C91.1324,-342.194 85.1607,-335.989 80,-330 70.1708,-318.593 60.0722,-304.779 52.9137,-294.563"/>
<polygon fill="black" stroke="black" points="55.6142,-292.314 47.056,-286.068 49.8514,-296.288 55.6142,-292.314"/>
<text text-anchor="middle" x="95.5" y="-318.8" font-family="Times,serif" font-size="14.00">&lt;=5 &#160;</text>
</g>
<!-- leg_e2 -->
<!-- leg_s&#45;&gt;leg_e2 -->
<g id="edge2" class="edge"><title>leg_s&#45;&gt;leg_e2</title>
<path fill="none" stroke="black" stroke-dasharray="5,2" d="M115,-347.799C115,-332.794 115,-311.174 115,-296.409"/>
<polygon fill="black" stroke="black" points="118.5,-296.293 115,-286.293 111.5,-296.293 118.5,-296.293"/>
<text text-anchor="middle" x="134" y="-318.8" font-family="Times,serif" font-size="14.00"> &#160;&lt;=25</text>
</g>
<!-- leg_e3 -->
<!-- leg_s&#45;&gt;leg_e3 -->
<g id="edge3" class="edge"><title>leg_s&#45;&gt;leg_e3</title>
<path fill="none" stroke="black" d="M138.503,-347.76C144.906,-342.462 151.567,-336.344 157,-330 166.087,-319.39 174.095,-305.689 179.546,-295.313"/>
<polygon fill="black" stroke="black" points="182.722,-296.789 184.091,-286.283 176.469,-293.642 182.722,-296.789"/>
<text text-anchor="middle" x="179" y="-318.8" font-family="Times,serif" font-size="14.00">&gt;25</text>
</g>
<!-- 03 -->
<g id="node5" class="node"><title>03</title>
<ellipse fill="#ff8a8a" stroke="#b43f3f" cx="264" cy="-279" rx="31.6951" ry="18"/>
<text text-anchor="middle" x="264" y="-275.3" font-family="Times,serif" font-size="14.00">03 (a)</text>
</g>
<!-- 02 -->
<g id="node6" class="node"><title>02</title>
<ellipse fill="#ff8a8a" stroke="#b43f3f" cx="158" cy="-192" rx="31.6951" ry="18"/>
<text text-anchor="middle" x="158" y="-188.3" font-family="Times,serif" font-size="14.00">02 (a)</text>
</g>
<!-- 03&#45;&gt;02 -->
<g id="edge4" class="edge"><title>03&#45;&gt;02</title>
<path fill="none" stroke="#b43f3f" stroke-dasharray="1,5" d="M241.178,-266.431C229.811,-260.19 216.15,-251.941 205,-243 195.322,-235.24 185.741,-225.52 177.78,-216.72"/>
<polygon fill="#b43f3f" stroke="#b43f3f" points="180.201,-214.173 170.967,-208.978 174.946,-218.797 180.201,-214.173"/>
<text text-anchor="middle" x="227" y="-231.8" font-family="Times,serif" font-size="14.00">1 (86.5)</text>
</g>
<!-- 032 -->
<g id="node7" class="node"><title>032</title>
<ellipse fill="#ff8a8a" stroke="#b43f3f" cx="244" cy="-192" rx="36.2938" ry="18"/>
<text text-anchor="middle" x="244" y="-188.3" font-family="Times,serif" font-size="14.00">032 (a)</text>
</g>
<!-- 03&#45;&gt;032 -->
<g id="edge5" class="edge"><title>03&#45;&gt;032</title>
<path fill="none" stroke="#b43f3f" stroke-dasharray="1,5" d="M259.953,-260.799C257.215,-249.163 253.541,-233.548 250.409,-220.237"/>
<polygon fill="#b43f3f" stroke="#b43f3f" points="253.739,-219.108 248.041,-210.175 246.925,-220.711 253.739,-219.108"/>
<text text-anchor="middle" x="278" y="-231.8" font-family="Times,serif" font-size="14.00">1 (91.7)</text>
</g>
<!-- 044 -->
<g id="node8" class="node"><title>044</title>
<ellipse fill="#ff8a8a" stroke="#b43f3f" cx="335" cy="-192" rx="36.2938" ry="18"/>
<text text-anchor="middle" x="335" y="-188.3" font-family="Times,serif" font-size="14.00">044 (a)</text>
</g>
<!-- 03&#45;&gt;044 -->
<g id="edge6" class="edge"><title>03&#45;&gt;044</title>
<path fill="none" stroke="#b43f3f" stroke-dasharray="1,5" d="M280.965,-263.384C287.537,-257.365 294.925,-250.137 301,-243 307.596,-235.251 314.071,-226.201 319.572,-217.947"/>
<polygon fill="#b43f3f" stroke="#b43f3f" points="322.61,-219.695 325.118,-209.402 316.738,-215.884 322.61,-219.695"/>
<text text-anchor="middle" x="335" y="-231.8" font-family="Times,serif" font-size="14.00">1 (89.2)</text>
</g>
<!-- 0141 -->
<g id="node31" class="node"><title>0141</title>
<ellipse fill="#ff8a8a" stroke="#b43f3f" cx="240" cy="-105" rx="40.0939" ry="18"/>
<text text-anchor="middle" x="240" y="-101.3" font-family="Times,serif" font-size="14.00">0141 (a)</text>
</g>
<!-- 044&#45;&gt;0141 -->
<g id="edge29" class="edge"><title>044&#45;&gt;0141</title>
<path fill="none" stroke="#b43f3f" stroke-dasharray="1,5" d="M314.27,-177.159C305.564,-171.025 295.505,-163.508 287,-156 277.837,-147.911 268.469,-138.276 260.533,-129.632"/>
<polygon fill="#b43f3f" stroke="#b43f3f" points="262.99,-127.129 253.694,-122.045 257.79,-131.816 262.99,-127.129"/>
<text text-anchor="middle" x="309" y="-144.8" font-family="Times,serif" font-size="14.00">1 (89.2)</text>
</g>
<!-- 022 -->
<g id="node32" class="node"><title>022</title>
<ellipse fill="#ff8a8a" stroke="#b43f3f" cx="335" cy="-105" rx="36.2938" ry="18"/>
<text text-anchor="middle" x="335" y="-101.3" font-family="Times,serif" font-size="14.00">022 (a)</text>
</g>
<!-- 044&#45;&gt;022 -->
<g id="edge30" class="edge"><title>044&#45;&gt;022</title>
<path fill="none" stroke="#b43f3f" stroke-dasharray="1,5" d="M335,-173.799C335,-162.163 335,-146.548 335,-133.237"/>
<polygon fill="#b43f3f" stroke="#b43f3f" points="338.5,-133.175 335,-123.175 331.5,-133.175 338.5,-133.175"/>
<text text-anchor="middle" x="357" y="-144.8" font-family="Times,serif" font-size="14.00">1 (91.7)</text>
</g>
<!-- A -->
<g id="node9" class="node"><title>A</title>
<ellipse fill="#ff8a8a" stroke="#b43f3f" cx="488" cy="-366" rx="29.4969" ry="18"/>
<text text-anchor="middle" x="488" y="-362.3" font-family="Times,serif" font-size="14.00">A (a)</text>
</g>
<!-- A&#45;&gt;03 -->
<g id="edge7" class="edge"><title>A&#45;&gt;03</title>
<path fill="none" stroke="#b43f3f" stroke-dasharray="1,5" d="M462.016,-357.327C439.991,-350.645 407.668,-340.42 380,-330 351.807,-319.382 320.468,-305.762 297.478,-295.419"/>
<polygon fill="#b43f3f" stroke="#b43f3f" points="298.724,-292.141 288.17,-291.205 295.837,-298.518 298.724,-292.141"/>
<text text-anchor="middle" x="402" y="-318.8" font-family="Times,serif" font-size="14.00">1 (93.3)</text>
</g>
<!-- P75 -->
<g id="node10" class="node"><title>P75</title>
<ellipse fill="#ff8a8a" stroke="#b43f3f" cx="402" cy="-279" rx="36.2938" ry="18"/>
<text text-anchor="middle" x="402" y="-275.3" font-family="Times,serif" font-size="14.00">P75 (a)</text>
</g>
<!-- A&#45;&gt;P75 -->
<g id="edge8" class="edge"><title>A&#45;&gt;P75</title>
<path fill="none" stroke="#b43f3f" stroke-dasharray="1,5" d="M468.3,-352.561C459.199,-346.347 448.543,-338.375 440,-330 432.175,-322.329 424.638,-312.975 418.368,-304.442"/>
<polygon fill="#b43f3f" stroke="#b43f3f" points="421.206,-302.394 412.557,-296.275 415.503,-306.452 421.206,-302.394"/>
<text text-anchor="middle" x="462" y="-318.8" font-family="Times,serif" font-size="14.00">1 (93.3)</text>
</g>
<!-- 01 -->
<g id="node11" class="node"><title>01</title>
<ellipse fill="#ff8a8a" stroke="#b43f3f" cx="488" cy="-279" rx="31.6951" ry="18"/>
<text text-anchor="middle" x="488" y="-275.3" font-family="Times,serif" font-size="14.00">01 (a)</text>
</g>
<!-- A&#45;&gt;01 -->
<g id="edge9" class="edge"><title>A&#45;&gt;01</title>
<path fill="none" stroke="#b43f3f" stroke-dasharray="5,2" d="M488,-347.799C488,-336.163 488,-320.548 488,-307.237"/>
<polygon fill="#b43f3f" stroke="#b43f3f" points="491.5,-307.175 488,-297.175 484.5,-307.175 491.5,-307.175"/>
<text text-anchor="middle" x="510" y="-318.8" font-family="Times,serif" font-size="14.00">1 (57.1)</text>
</g>
<!-- 091 -->
<g id="node12" class="node"><title>091</title>
<ellipse fill="#ff8a8a" stroke="#b43f3f" cx="574" cy="-279" rx="36.2938" ry="18"/>
<text text-anchor="middle" x="574" y="-275.3" font-family="Times,serif" font-size="14.00">091 (a)</text>
</g>
<!-- A&#45;&gt;091 -->
<g id="edge10" class="edge"><title>A&#45;&gt;091</title>
<path fill="none" stroke="#b43f3f" stroke-dasharray="1,5" d="M507.7,-352.561C516.801,-346.347 527.457,-338.375 536,-330 543.825,-322.329 551.362,-312.975 557.632,-304.442"/>
<polygon fill="#b43f3f" stroke="#b43f3f" points="560.497,-306.452 563.443,-296.275 554.794,-302.394 560.497,-306.452"/>
<text text-anchor="middle" x="571" y="-318.8" font-family="Times,serif" font-size="14.00">1 (87.5)</text>
</g>
<!-- 019 -->
<g id="node13" class="node"><title>019</title>
<ellipse fill="#ff8a8a" stroke="#b43f3f" cx="690" cy="-279" rx="36.2938" ry="18"/>
<text text-anchor="middle" x="690" y="-275.3" font-family="Times,serif" font-size="14.00">019 (a)</text>
</g>
<!-- A&#45;&gt;019 -->
<g id="edge11" class="edge"><title>A&#45;&gt;019</title>
<path fill="none" stroke="#b43f3f" stroke-dasharray="1,5" d="M514.476,-357.967C536.857,-351.676 569.564,-341.665 597,-330 618.261,-320.961 641.129,-308.703 658.868,-298.587"/>
<polygon fill="#b43f3f" stroke="#b43f3f" points="660.731,-301.552 667.641,-293.521 657.231,-295.491 660.731,-301.552"/>
<text text-anchor="middle" x="651" y="-318.8" font-family="Times,serif" font-size="14.00">1 (93.3)</text>
</g>
<!-- 0211 -->
<g id="node14" class="node"><title>0211</title>
<ellipse fill="#ff8a8a" stroke="#b43f3f" cx="541" cy="-192" rx="40.0939" ry="18"/>
<text text-anchor="middle" x="541" y="-188.3" font-family="Times,serif" font-size="14.00">0211 (a)</text>
</g>
<!-- 091&#45;&gt;0211 -->
<g id="edge12" class="edge"><title>091&#45;&gt;0211</title>
<path fill="none" stroke="#b43f3f" stroke-dasharray="1,5" d="M567.48,-261.207C562.855,-249.293 556.554,-233.063 551.259,-219.424"/>
<polygon fill="#b43f3f" stroke="#b43f3f" points="554.501,-218.105 547.619,-210.049 547.976,-220.638 554.501,-218.105"/>
<text text-anchor="middle" x="582" y="-231.8" font-family="Times,serif" font-size="14.00">1 (83.3)</text>
</g>
<!-- 05 -->
<g id="node15" class="node"><title>05</title>
<ellipse fill="#ff8a8a" stroke="#b43f3f" cx="631" cy="-192" rx="31.6951" ry="18"/>
<text text-anchor="middle" x="631" y="-188.3" font-family="Times,serif" font-size="14.00">05 (a)</text>
</g>
<!-- 091&#45;&gt;05 -->
<g id="edge13" class="edge"><title>091&#45;&gt;05</title>
<path fill="none" stroke="#b43f3f" stroke-dasharray="1,5" d="M590.804,-262.978C596.724,-257.131 603.114,-250.127 608,-243 612.994,-235.717 617.38,-227.175 620.945,-219.234"/>
<polygon fill="#b43f3f" stroke="#b43f3f" points="624.192,-220.542 624.874,-209.969 617.748,-217.809 624.192,-220.542"/>
<text text-anchor="middle" x="639" y="-231.8" font-family="Times,serif" font-size="14.00">1 (87.5)</text>
</g>
<!-- 063 -->
<g id="node16" class="node"><title>063</title>
<ellipse fill="#ff8a8a" stroke="#b43f3f" cx="726" cy="-192" rx="36.2938" ry="18"/>
<text text-anchor="middle" x="726" y="-188.3" font-family="Times,serif" font-size="14.00">063 (a)</text>
</g>
<!-- 019&#45;&gt;063 -->
<g id="edge27" class="edge"><title>019&#45;&gt;063</title>
<path fill="none" stroke="#b43f3f" stroke-dasharray="1,5" d="M697.112,-261.207C702.191,-249.216 709.122,-232.851 714.922,-219.157"/>
<polygon fill="#b43f3f" stroke="#b43f3f" points="718.225,-220.332 718.902,-209.758 711.779,-217.602 718.225,-220.332"/>
<text text-anchor="middle" x="733" y="-231.8" font-family="Times,serif" font-size="14.00">1 (85.7)</text>
</g>
<!-- 031 -->
<g id="node17" class="node"><title>031</title>
<ellipse fill="#ff8a8a" stroke="#b43f3f" cx="426" cy="-105" rx="36.2938" ry="18"/>
<text text-anchor="middle" x="426" y="-101.3" font-family="Times,serif" font-size="14.00">031 (a)</text>
</g>
<!-- 063&#45;&gt;031 -->
<g id="edge14" class="edge"><title>063&#45;&gt;031</title>
<path fill="none" stroke="#b43f3f" stroke-dasharray="1,5" d="M696.371,-181.381C688.476,-178.897 679.934,-176.282 672,-174 641.542,-165.239 633.585,-164.308 603,-156 556.162,-143.277 502.547,-128.036 466.713,-117.752"/>
<polygon fill="#b43f3f" stroke="#b43f3f" points="467.223,-114.257 456.645,-114.859 465.289,-120.985 467.223,-114.257"/>
<text text-anchor="middle" x="625" y="-144.8" font-family="Times,serif" font-size="14.00">1 (95.8)</text>
</g>
<!-- 07 -->
<g id="node18" class="node"><title>07</title>
<ellipse fill="#ff8a8a" stroke="#b43f3f" cx="592" cy="-105" rx="31.6951" ry="18"/>
<text text-anchor="middle" x="592" y="-101.3" font-family="Times,serif" font-size="14.00">07 (a)</text>
</g>
<!-- 063&#45;&gt;07 -->
<g id="edge15" class="edge"><title>063&#45;&gt;07</title>
<path fill="none" stroke="#b43f3f" stroke-dasharray="1,5" d="M704.471,-177.343C681.936,-163.049 646.408,-140.513 621.322,-124.6"/>
<polygon fill="#b43f3f" stroke="#b43f3f" points="622.915,-121.466 612.596,-119.065 619.165,-127.377 622.915,-121.466"/>
<text text-anchor="middle" x="690" y="-144.8" font-family="Times,serif" font-size="14.00">1 (96.6)</text>
</g>
<!-- 021 -->
<g id="node19" class="node"><title>021</title>
<ellipse fill="#ff8a8a" stroke="#b43f3f" cx="726" cy="-105" rx="36.2938" ry="18"/>
<text text-anchor="middle" x="726" y="-101.3" font-family="Times,serif" font-size="14.00">021 (a)</text>
</g>
<!-- 063&#45;&gt;021 -->
<g id="edge16" class="edge"><title>063&#45;&gt;021</title>
<path fill="none" stroke="#b43f3f" stroke-dasharray="1,5" d="M726,-173.799C726,-162.163 726,-146.548 726,-133.237"/>
<polygon fill="#b43f3f" stroke="#b43f3f" points="729.5,-133.175 726,-123.175 722.5,-133.175 729.5,-133.175"/>
<text text-anchor="middle" x="748" y="-144.8" font-family="Times,serif" font-size="14.00">1 (93.1)</text>
</g>
<!-- 045 -->
<g id="node20" class="node"><title>045</title>
<ellipse fill="#ff8a8a" stroke="#b43f3f" cx="817" cy="-105" rx="36.2938" ry="18"/>
<text text-anchor="middle" x="817" y="-101.3" font-family="Times,serif" font-size="14.00">045 (a)</text>
</g>
<!-- 063&#45;&gt;045 -->
<g id="edge17" class="edge"><title>063&#45;&gt;045</title>
<path fill="none" stroke="#b43f3f" stroke-dasharray="1,5" d="M747.372,-177.006C755.992,-170.963 765.814,-163.554 774,-156 782.544,-148.115 791.076,-138.619 798.26,-130.029"/>
<polygon fill="#b43f3f" stroke="#b43f3f" points="801.077,-132.113 804.692,-122.155 795.656,-127.685 801.077,-132.113"/>
<text text-anchor="middle" x="810" y="-144.8" font-family="Times,serif" font-size="14.00">1 (93.1)</text>
</g>
<!-- 028 -->
<g id="node21" class="node"><title>028</title>
<ellipse fill="#ff8a8a" stroke="#b43f3f" cx="908" cy="-105" rx="36.2938" ry="18"/>
<text text-anchor="middle" x="908" y="-101.3" font-family="Times,serif" font-size="14.00">028 (a)</text>
</g>
<!-- 063&#45;&gt;028 -->
<g id="edge18" class="edge"><title>063&#45;&gt;028</title>
<path fill="none" stroke="#b43f3f" stroke-dasharray="1,5" d="M758.267,-183.461C780.727,-177.566 811.009,-168.305 836,-156 852.128,-148.059 868.702,-136.801 881.877,-126.977"/>
<polygon fill="#b43f3f" stroke="#b43f3f" points="884.176,-129.626 890.004,-120.778 879.931,-124.06 884.176,-129.626"/>
<text text-anchor="middle" x="883" y="-144.8" font-family="Times,serif" font-size="14.00">1 (96.6)</text>
</g>
<!-- 011 -->
<g id="node22" class="node"><title>011</title>
<ellipse fill="#ff8a8a" stroke="#b43f3f" cx="999" cy="-105" rx="36.2938" ry="18"/>
<text text-anchor="middle" x="999" y="-101.3" font-family="Times,serif" font-size="14.00">011 (a)</text>
</g>
<!-- 063&#45;&gt;011 -->
<g id="edge19" class="edge"><title>063&#45;&gt;011</title>
<path fill="none" stroke="#b43f3f" stroke-dasharray="1,5" d="M761.629,-187.578C799.17,-183.197 859.588,-173.927 909,-156 930.266,-148.285 952.502,-135.977 969.552,-125.504"/>
<polygon fill="#b43f3f" stroke="#b43f3f" points="971.844,-128.197 978.451,-119.915 968.121,-122.269 971.844,-128.197"/>
<text text-anchor="middle" x="962" y="-144.8" font-family="Times,serif" font-size="14.00">1 (93.1)</text>
</g>
<!-- 017 -->
<g id="node23" class="node"><title>017</title>
<ellipse fill="#ff8a8a" stroke="#b43f3f" cx="295" cy="-18" rx="36.2938" ry="18"/>
<text text-anchor="middle" x="295" y="-14.3" font-family="Times,serif" font-size="14.00">017 (a)</text>
</g>
<!-- 031&#45;&gt;017 -->
<g id="edge20" class="edge"><title>031&#45;&gt;017</title>
<path fill="none" stroke="#b43f3f" stroke-dasharray="1,5" d="M399.641,-92.5266C386.188,-86.251 369.796,-77.9428 356,-69 343.273,-60.7497 330.139,-50.2783 319.334,-41.0524"/>
<polygon fill="#b43f3f" stroke="#b43f3f" points="321.411,-38.2209 311.57,-34.2975 316.817,-43.5019 321.411,-38.2209"/>
<text text-anchor="middle" x="378" y="-57.8" font-family="Times,serif" font-size="14.00">1 (94.3)</text>
</g>
<!-- 013 -->
<g id="node24" class="node"><title>013</title>
<ellipse fill="#ff8a8a" stroke="#b43f3f" cx="386" cy="-18" rx="36.2938" ry="18"/>
<text text-anchor="middle" x="386" y="-14.3" font-family="Times,serif" font-size="14.00">013 (a)</text>
</g>
<!-- 031&#45;&gt;013 -->
<g id="edge21" class="edge"><title>031&#45;&gt;013</title>
<path fill="none" stroke="#b43f3f" stroke-dasharray="1,5" d="M418.097,-87.2067C412.454,-75.2156 404.753,-58.8511 398.309,-45.1571"/>
<polygon fill="#b43f3f" stroke="#b43f3f" points="401.311,-43.3163 393.886,-35.7584 394.977,-46.2969 401.311,-43.3163"/>
<text text-anchor="middle" x="431" y="-57.8" font-family="Times,serif" font-size="14.00">1 (97.1)</text>
</g>
<!-- 030 -->
<g id="node25" class="node"><title>030</title>
<ellipse fill="#ff8a8a" stroke="#b43f3f" cx="477" cy="-18" rx="36.2938" ry="18"/>
<text text-anchor="middle" x="477" y="-14.3" font-family="Times,serif" font-size="14.00">030 (a)</text>
</g>
<!-- 07&#45;&gt;030 -->
<g id="edge22" class="edge"><title>07&#45;&gt;030</title>
<path fill="none" stroke="#b43f3f" stroke-dasharray="1,5" d="M568.931,-92.3664C557.182,-86.0484 542.903,-77.7507 531,-69 520.062,-60.9592 508.902,-50.98 499.588,-42.0565"/>
<polygon fill="#b43f3f" stroke="#b43f3f" points="501.84,-39.3639 492.243,-34.8749 496.946,-44.3688 501.84,-39.3639"/>
<text text-anchor="middle" x="553" y="-57.8" font-family="Times,serif" font-size="14.00">1 (95.1)</text>
</g>
<!-- 037 -->
<g id="node26" class="node"><title>037</title>
<ellipse fill="#ff8a8a" stroke="#b43f3f" cx="568" cy="-18" rx="36.2938" ry="18"/>
<text text-anchor="middle" x="568" y="-14.3" font-family="Times,serif" font-size="14.00">037 (a)</text>
</g>
<!-- 07&#45;&gt;037 -->
<g id="edge23" class="edge"><title>07&#45;&gt;037</title>
<path fill="none" stroke="#b43f3f" stroke-dasharray="1,5" d="M587.143,-86.799C583.803,-74.9701 579.303,-59.0301 575.504,-45.578"/>
<polygon fill="#b43f3f" stroke="#b43f3f" points="578.853,-44.558 572.768,-35.8854 572.117,-46.4602 578.853,-44.558"/>
<text text-anchor="middle" x="604" y="-57.8" font-family="Times,serif" font-size="14.00">1 (97.5)</text>
</g>
<!-- 034 -->
<g id="node27" class="node"><title>034</title>
<ellipse fill="#cea8f4" stroke="#835da9" cx="659" cy="-18" rx="36.2938" ry="18"/>
<text text-anchor="middle" x="659" y="-14.3" font-family="Times,serif" font-size="14.00">034 (b)</text>
</g>
<!-- 07&#45;&gt;034 -->
<g id="edge24" class="edge"><title>07&#45;&gt;034</title>
<path fill="none" stroke="#835da9" stroke-dasharray="1,5" d="M609.723,-89.6713C616.514,-83.6917 624.051,-76.4163 630,-69 635.867,-61.6858 641.314,-53.0499 645.867,-45.0316"/>
<polygon fill="#835da9" stroke="#835da9" points="649.066,-46.4751 650.772,-36.0185 642.918,-43.1291 649.066,-46.4751"/>
<text text-anchor="middle" x="663" y="-57.8" font-family="Times,serif" font-size="14.00">1 (95.1)</text>
</g>
<!-- 036 -->
<g id="node28" class="node"><title>036</title>
<ellipse fill="#ff8a8a" stroke="#b43f3f" cx="750" cy="-18" rx="36.2938" ry="18"/>
<text text-anchor="middle" x="750" y="-14.3" font-family="Times,serif" font-size="14.00">036 (a)</text>
</g>
<!-- 021&#45;&gt;036 -->
<g id="edge25" class="edge"><title>021&#45;&gt;036</title>
<path fill="none" stroke="#b43f3f" stroke-dasharray="1,5" d="M730.857,-86.799C734.197,-74.9701 738.697,-59.0301 742.496,-45.578"/>
<polygon fill="#b43f3f" stroke="#b43f3f" points="745.883,-46.4602 745.232,-35.8854 739.147,-44.558 745.883,-46.4602"/>
<text text-anchor="middle" x="762" y="-57.8" font-family="Times,serif" font-size="14.00">1 (97.6)</text>
</g>
<!-- 047 -->
<g id="node29" class="node"><title>047</title>
<ellipse fill="#ff8a8a" stroke="#b43f3f" cx="841" cy="-18" rx="36.2938" ry="18"/>
<text text-anchor="middle" x="841" y="-14.3" font-family="Times,serif" font-size="14.00">047 (a)</text>
</g>
<!-- 021&#45;&gt;047 -->
<g id="edge26" class="edge"><title>021&#45;&gt;047</title>
<path fill="none" stroke="#b43f3f" stroke-dasharray="1,5" d="M750.99,-91.6783C762.645,-85.49 776.458,-77.5063 788,-69 798.82,-61.0264 809.788,-51.0586 818.917,-42.1255"/>
<polygon fill="#b43f3f" stroke="#b43f3f" points="821.515,-44.4779 826.11,-34.9315 816.565,-39.5285 821.515,-44.4779"/>
<text text-anchor="middle" x="828" y="-57.8" font-family="Times,serif" font-size="14.00">1 (95.1)</text>
</g>
<!-- 038 -->
<g id="node30" class="node"><title>038</title>
<ellipse fill="#ff8a8a" stroke="#b43f3f" cx="932" cy="-18" rx="36.2938" ry="18"/>
<text text-anchor="middle" x="932" y="-14.3" font-family="Times,serif" font-size="14.00">038 (a)</text>
</g>
<!-- 045&#45;&gt;038 -->
<g id="edge28" class="edge"><title>045&#45;&gt;038</title>
<path fill="none" stroke="#b43f3f" stroke-dasharray="1,5" d="M836.508,-89.5809C855.094,-75.8432 883.267,-55.0203 904.2,-39.5479"/>
<polygon fill="#b43f3f" stroke="#b43f3f" points="906.435,-42.2484 912.396,-33.4898 902.274,-36.6192 906.435,-42.2484"/>
<text text-anchor="middle" x="904" y="-57.8" font-family="Times,serif" font-size="14.00">1 (92.7)</text>
</g>
</g>
</svg>
