<?xml version="1.0" encoding="UTF-8" standalone="no"?>
<!DOCTYPE svg PUBLIC "-//W3C//DTD SVG 1.1//EN"
 "http://www.w3.org/Graphics/SVG/1.1/DTD/svg11.dtd">
<!-- Generated by graphviz version 2.38.0 (20140413.2041)
 -->
<!-- Title: %3 Pages: 1 -->
<svg width="1307pt" height="234pt"
 viewBox="0.00 0.00 1306.95 234.00" xmlns="http://www.w3.org/2000/svg" xmlns:xlink="http://www.w3.org/1999/xlink">
<g id="graph0" class="graph" transform="scale(1 1) rotate(0) translate(4 230)">
<title>%3</title>
<polygon fill="white" stroke="none" points="-4,4 -4,-230 1302.95,-230 1302.95,4 -4,4"/>
<g id="clust1" class="cluster"><title>cluster_legend</title>
<path fill="none" stroke="black" d="M20,-90C20,-90 210,-90 210,-90 216,-90 222,-96 222,-102 222,-102 222,-206 222,-206 222,-212 216,-218 210,-218 210,-218 20,-218 20,-218 14,-218 8,-212 8,-206 8,-206 8,-102 8,-102 8,-96 14,-90 20,-90"/>
</g>
<!-- leg_s -->
<g id="node1" class="node"><title>leg_s</title>
<text text-anchor="middle" x="115" y="-188.3" font-family="Times,serif" font-size="14.00">Textual flow strength</text>
</g>
<!-- leg_e1 -->
<!-- leg_s&#45;&gt;leg_e1 -->
<g id="edge1" class="edge"><title>leg_s&#45;&gt;leg_e1</title>
<path fill="none" stroke="black" stroke-dasharray="1,5" d="M96.6657,-173.686C91.1324,-168.194 85.1607,-161.989 80,-156 70.1708,-144.593 60.0722,-130.779 52.9137,-120.563"/>
<polygon fill="black" stroke="black" points="55.6142,-118.314 47.056,-112.068 49.8514,-122.288 55.6142,-118.314"/>
<text text-anchor="middle" x="95.5" y="-144.8" font-family="Times,serif" font-size="14.00">&lt;=5 &#160;</text>
</g>
<!-- leg_e2 -->
<!-- leg_s&#45;&gt;leg_e2 -->
<g id="edge2" class="edge"><title>leg_s&#45;&gt;leg_e2</title>
<path fill="none" stroke="black" stroke-dasharray="5,2" d="M115,-173.799C115,-158.794 115,-137.174 115,-122.409"/>
<polygon fill="black" stroke="black" points="118.5,-122.293 115,-112.293 111.5,-122.293 118.5,-122.293"/>
<text text-anchor="middle" x="134" y="-144.8" font-family="Times,serif" font-size="14.00"> &#160;&lt;=25</text>
</g>
<!-- leg_e3 -->
<!-- leg_s&#45;&gt;leg_e3 -->
<g id="edge3" class="edge"><title>leg_s&#45;&gt;leg_e3</title>
<path fill="none" stroke="black" d="M138.503,-173.76C144.906,-168.462 151.567,-162.344 157,-156 166.087,-145.39 174.095,-131.689 179.546,-121.313"/>
<polygon fill="black" stroke="black" points="182.722,-122.789 184.091,-112.283 176.469,-119.642 182.722,-122.789"/>
<text text-anchor="middle" x="179" y="-144.8" font-family="Times,serif" font-size="14.00">&gt;25</text>
</g>
<!-- 063 -->
<g id="node5" class="node"><title>063</title>
<ellipse fill="#ff8a8a" stroke="#b43f3f" cx="496" cy="-192" rx="36.2938" ry="18"/>
<text text-anchor="middle" x="496" y="-188.3" font-family="Times,serif" font-size="14.00">063 (a)</text>
</g>
<!-- 045 -->
<g id="node6" class="node"><title>045</title>
<ellipse fill="#ff8a8a" stroke="#b43f3f" cx="268" cy="-105" rx="36.2938" ry="18"/>
<text text-anchor="middle" x="268" y="-101.3" font-family="Times,serif" font-size="14.00">045 (a)</text>
</g>
<!-- 063&#45;&gt;045 -->
<g id="edge4" class="edge"><title>063&#45;&gt;045</title>
<path fill="none" stroke="#b43f3f" stroke-dasharray="1,5" d="M461.87,-185.418C432.562,-179.964 389.546,-170.368 354,-156 334.005,-147.918 313.054,-135.823 296.837,-125.554"/>
<polygon fill="#b43f3f" stroke="#b43f3f" points="298.65,-122.558 288.351,-120.074 294.853,-128.439 298.65,-122.558"/>
<text text-anchor="middle" x="376" y="-144.8" font-family="Times,serif" font-size="14.00">1 (93.1)</text>
</g>
<!-- 031 -->
<g id="node7" class="node"><title>031</title>
<ellipse fill="#ff8a8a" stroke="#b43f3f" cx="359" cy="-105" rx="36.2938" ry="18"/>
<text text-anchor="middle" x="359" y="-101.3" font-family="Times,serif" font-size="14.00">031 (a)</text>
</g>
<!-- 063&#45;&gt;031 -->
<g id="edge5" class="edge"><title>063&#45;&gt;031</title>
<path fill="none" stroke="#b43f3f" stroke-dasharray="1,5" d="M468.447,-180.048C453.896,-173.798 435.996,-165.353 421,-156 407.782,-147.756 394.191,-137.085 383.115,-127.72"/>
<polygon fill="#b43f3f" stroke="#b43f3f" points="385.394,-125.064 375.535,-121.184 380.823,-130.365 385.394,-125.064"/>
<text text-anchor="middle" x="443" y="-144.8" font-family="Times,serif" font-size="14.00">1 (95.8)</text>
</g>
<!-- 021 -->
<g id="node8" class="node"><title>021</title>
<ellipse fill="#ff8a8a" stroke="#b43f3f" cx="451" cy="-105" rx="36.2938" ry="18"/>
<text text-anchor="middle" x="451" y="-101.3" font-family="Times,serif" font-size="14.00">021 (a)</text>
</g>
<!-- 063&#45;&gt;021 -->
<g id="edge6" class="edge"><title>063&#45;&gt;021</title>
<path fill="none" stroke="#b43f3f" stroke-dasharray="1,5" d="M486.247,-174.371C482.926,-168.593 479.236,-162.047 476,-156 471.833,-148.213 467.469,-139.645 463.575,-131.834"/>
<polygon fill="#b43f3f" stroke="#b43f3f" points="466.672,-130.2 459.104,-122.785 460.397,-133.301 466.672,-130.2"/>
<text text-anchor="middle" x="498" y="-144.8" font-family="Times,serif" font-size="14.00">1 (93.1)</text>
</g>
<!-- 028 -->
<g id="node9" class="node"><title>028</title>
<ellipse fill="#ff8a8a" stroke="#b43f3f" cx="542" cy="-105" rx="36.2938" ry="18"/>
<text text-anchor="middle" x="542" y="-101.3" font-family="Times,serif" font-size="14.00">028 (a)</text>
</g>
<!-- 063&#45;&gt;028 -->
<g id="edge7" class="edge"><title>063&#45;&gt;028</title>
<path fill="none" stroke="#b43f3f" stroke-dasharray="1,5" d="M508.129,-174.67C512.149,-168.917 516.489,-162.309 520,-156 524.15,-148.542 528.102,-140.148 531.481,-132.398"/>
<polygon fill="#b43f3f" stroke="#b43f3f" points="534.764,-133.619 535.427,-123.044 528.315,-130.897 534.764,-133.619"/>
<text text-anchor="middle" x="550" y="-144.8" font-family="Times,serif" font-size="14.00">1 (96.6)</text>
</g>
<!-- 07 -->
<g id="node10" class="node"><title>07</title>
<ellipse fill="#ff8a8a" stroke="#b43f3f" cx="630" cy="-105" rx="31.6951" ry="18"/>
<text text-anchor="middle" x="630" y="-101.3" font-family="Times,serif" font-size="14.00">07 (a)</text>
</g>
<!-- 063&#45;&gt;07 -->
<g id="edge8" class="edge"><title>063&#45;&gt;07</title>
<path fill="none" stroke="#b43f3f" stroke-dasharray="1,5" d="M524.951,-181.039C540.701,-174.968 560.146,-166.38 576,-156 587.808,-148.269 599.481,-137.9 608.936,-128.609"/>
<polygon fill="#b43f3f" stroke="#b43f3f" points="611.462,-131.032 616.004,-121.459 606.484,-126.11 611.462,-131.032"/>
<text text-anchor="middle" x="618" y="-144.8" font-family="Times,serif" font-size="14.00">1 (96.6)</text>
</g>
<!-- 011 -->
<g id="node11" class="node"><title>011</title>
<ellipse fill="#ff8a8a" stroke="#b43f3f" cx="716" cy="-105" rx="36.2938" ry="18"/>
<text text-anchor="middle" x="716" y="-101.3" font-family="Times,serif" font-size="14.00">011 (a)</text>
</g>
<!-- 063&#45;&gt;011 -->
<g id="edge9" class="edge"><title>063&#45;&gt;011</title>
<path fill="none" stroke="#b43f3f" stroke-dasharray="1,5" d="M530.982,-186.507C561.747,-181.684 607.228,-172.404 644,-156 660.531,-148.625 677.244,-137.31 690.401,-127.307"/>
<polygon fill="#b43f3f" stroke="#b43f3f" points="692.774,-129.895 698.496,-120.978 688.462,-124.38 692.774,-129.895"/>
<text text-anchor="middle" x="692" y="-144.8" font-family="Times,serif" font-size="14.00">1 (93.1)</text>
</g>
<!-- 013 -->
<g id="node12" class="node"><title>013</title>
<ellipse fill="#ff8a8a" stroke="#b43f3f" cx="268" cy="-18" rx="36.2938" ry="18"/>
<text text-anchor="middle" x="268" y="-14.3" font-family="Times,serif" font-size="14.00">013 (a)</text>
</g>
<!-- 031&#45;&gt;013 -->
<g id="edge10" class="edge"><title>031&#45;&gt;013</title>
<path fill="none" stroke="#b43f3f" stroke-dasharray="1,5" d="M337.628,-90.006C329.008,-83.9634 319.186,-76.5539 311,-69 302.456,-61.1154 293.924,-51.6186 286.74,-43.0293"/>
<polygon fill="#b43f3f" stroke="#b43f3f" points="289.344,-40.6853 280.308,-35.1545 283.923,-45.1135 289.344,-40.6853"/>
<text text-anchor="middle" x="333" y="-57.8" font-family="Times,serif" font-size="14.00">1 (97.1)</text>
</g>
<!-- 017 -->
<g id="node13" class="node"><title>017</title>
<ellipse fill="#ff8a8a" stroke="#b43f3f" cx="359" cy="-18" rx="36.2938" ry="18"/>
<text text-anchor="middle" x="359" y="-14.3" font-family="Times,serif" font-size="14.00">017 (a)</text>
</g>
<!-- 031&#45;&gt;017 -->
<g id="edge11" class="edge"><title>031&#45;&gt;017</title>
<path fill="none" stroke="#b43f3f" stroke-dasharray="1,5" d="M359,-86.799C359,-75.1626 359,-59.5479 359,-46.2368"/>
<polygon fill="#b43f3f" stroke="#b43f3f" points="362.5,-46.1754 359,-36.1754 355.5,-46.1755 362.5,-46.1754"/>
<text text-anchor="middle" x="381" y="-57.8" font-family="Times,serif" font-size="14.00">1 (94.3)</text>
</g>
<!-- 036 -->
<g id="node14" class="node"><title>036</title>
<ellipse fill="#ff8a8a" stroke="#b43f3f" cx="450" cy="-18" rx="36.2938" ry="18"/>
<text text-anchor="middle" x="450" y="-14.3" font-family="Times,serif" font-size="14.00">036 (a)</text>
</g>
<!-- 021&#45;&gt;036 -->
<g id="edge12" class="edge"><title>021&#45;&gt;036</title>
<path fill="none" stroke="#b43f3f" stroke-dasharray="1,5" d="M450.798,-86.799C450.661,-75.1626 450.477,-59.5479 450.32,-46.2368"/>
<polygon fill="#b43f3f" stroke="#b43f3f" points="453.82,-46.1335 450.202,-36.1754 446.82,-46.216 453.82,-46.1335"/>
<text text-anchor="middle" x="473" y="-57.8" font-family="Times,serif" font-size="14.00">1 (97.6)</text>
</g>
<!-- 047 -->
<g id="node15" class="node"><title>047</title>
<ellipse fill="#ff8a8a" stroke="#b43f3f" cx="541" cy="-18" rx="36.2938" ry="18"/>
<text text-anchor="middle" x="541" y="-14.3" font-family="Times,serif" font-size="14.00">047 (a)</text>
</g>
<!-- 021&#45;&gt;047 -->
<g id="edge13" class="edge"><title>021&#45;&gt;047</title>
<path fill="none" stroke="#b43f3f" stroke-dasharray="1,5" d="M472.416,-90.0535C481.043,-84.0182 490.858,-76.6013 499,-69 507.415,-61.1438 515.762,-51.6529 522.772,-43.0604"/>
<polygon fill="#b43f3f" stroke="#b43f3f" points="525.554,-45.1848 529.041,-35.1801 520.076,-40.8268 525.554,-45.1848"/>
<text text-anchor="middle" x="535" y="-57.8" font-family="Times,serif" font-size="14.00">1 (95.1)</text>
</g>
<!-- 030 -->
<g id="node16" class="node"><title>030</title>
<ellipse fill="#ff8a8a" stroke="#b43f3f" cx="632" cy="-18" rx="36.2938" ry="18"/>
<text text-anchor="middle" x="632" y="-14.3" font-family="Times,serif" font-size="14.00">030 (a)</text>
</g>
<!-- 07&#45;&gt;030 -->
<g id="edge14" class="edge"><title>07&#45;&gt;030</title>
<path fill="none" stroke="#b43f3f" stroke-dasharray="1,5" d="M630.405,-86.799C630.679,-75.1626 631.046,-59.5479 631.359,-46.2368"/>
<polygon fill="#b43f3f" stroke="#b43f3f" points="634.86,-46.255 631.596,-36.1754 627.862,-46.0903 634.86,-46.255"/>
<text text-anchor="middle" x="654" y="-57.8" font-family="Times,serif" font-size="14.00">1 (95.1)</text>
</g>
<!-- 034 -->
<g id="node17" class="node"><title>034</title>
<ellipse fill="#ff8a8a" stroke="#b43f3f" cx="723" cy="-18" rx="36.2938" ry="18"/>
<text text-anchor="middle" x="723" y="-14.3" font-family="Times,serif" font-size="14.00">034 (a)</text>
</g>
<!-- 07&#45;&gt;034 -->
<g id="edge15" class="edge"><title>07&#45;&gt;034</title>
<path fill="none" stroke="#b43f3f" stroke-dasharray="1,5" d="M650.819,-91.1224C660.149,-84.9331 671.044,-77.1059 680,-69 688.62,-61.1982 697.167,-51.7186 704.343,-43.1198"/>
<polygon fill="#b43f3f" stroke="#b43f3f" points="707.166,-45.1956 710.761,-35.229 701.736,-40.7788 707.166,-45.1956"/>
<text text-anchor="middle" x="717" y="-57.8" font-family="Times,serif" font-size="14.00">1 (95.1)</text>
</g>
<!-- 044 -->
<g id="node18" class="node"><title>044</title>
<ellipse fill="#ff8a8a" stroke="#b43f3f" cx="811" cy="-192" rx="36.2938" ry="18"/>
<text text-anchor="middle" x="811" y="-188.3" font-family="Times,serif" font-size="14.00">044 (a)</text>
</g>
<!-- 0141 -->
<g id="node19" class="node"><title>0141</title>
<ellipse fill="#ff8a8a" stroke="#b43f3f" cx="811" cy="-105" rx="40.0939" ry="18"/>
<text text-anchor="middle" x="811" y="-101.3" font-family="Times,serif" font-size="14.00">0141 (a)</text>
</g>
<!-- 044&#45;&gt;0141 -->
<g id="edge16" class="edge"><title>044&#45;&gt;0141</title>
<path fill="none" stroke="#b43f3f" stroke-dasharray="1,5" d="M811,-173.799C811,-162.163 811,-146.548 811,-133.237"/>
<polygon fill="#b43f3f" stroke="#b43f3f" points="814.5,-133.175 811,-123.175 807.5,-133.175 814.5,-133.175"/>
<text text-anchor="middle" x="833" y="-144.8" font-family="Times,serif" font-size="14.00">1 (89.2)</text>
</g>
<!-- 03 -->
<g id="node20" class="node"><title>03</title>
<ellipse fill="#cea8f4" stroke="#835da9" cx="945" cy="-192" rx="32.4942" ry="18"/>
<text text-anchor="middle" x="945" y="-188.3" font-family="Times,serif" font-size="14.00">03 (b)</text>
</g>
<!-- 02 -->
<g id="node21" class="node"><title>02</title>
<ellipse fill="#cea8f4" stroke="#835da9" cx="902" cy="-105" rx="32.4942" ry="18"/>
<text text-anchor="middle" x="902" y="-101.3" font-family="Times,serif" font-size="14.00">02 (b)</text>
</g>
<!-- 03&#45;&gt;02 -->
<g id="edge17" class="edge"><title>03&#45;&gt;02</title>
<path fill="none" stroke="#835da9" stroke-dasharray="1,5" d="M934.136,-174.943C930.391,-169.102 926.31,-162.368 923,-156 919.092,-148.482 915.336,-140.07 912.108,-132.322"/>
<polygon fill="#835da9" stroke="#835da9" points="915.325,-130.939 908.331,-122.98 908.835,-133.563 915.325,-130.939"/>
<text text-anchor="middle" x="945" y="-144.8" font-family="Times,serif" font-size="14.00">1 (86.5)</text>
</g>
<!-- 038 -->
<g id="node22" class="node"><title>038</title>
<ellipse fill="#cea8f4" stroke="#835da9" cx="989" cy="-105" rx="36.2938" ry="18"/>
<text text-anchor="middle" x="989" y="-101.3" font-family="Times,serif" font-size="14.00">038 (b)</text>
</g>
<!-- 03&#45;&gt;038 -->
<g id="edge18" class="edge"><title>03&#45;&gt;038</title>
<path fill="none" stroke="#835da9" stroke-dasharray="1,5" d="M955.804,-174.912C959.543,-169.067 963.636,-162.34 967,-156 971.001,-148.46 974.907,-140.042 978.292,-132.295"/>
<polygon fill="#835da9" stroke="#835da9" points="981.57,-133.53 982.267,-122.958 975.13,-130.787 981.57,-133.53"/>
<text text-anchor="middle" x="996" y="-144.8" font-family="Times,serif" font-size="14.00">8 (75.7)</text>
</g>
<!-- 05 -->
<g id="node23" class="node"><title>05</title>
<ellipse fill="#72fe95" stroke="#27b34a" cx="1075" cy="-192" rx="31.6951" ry="18"/>
<text text-anchor="middle" x="1075" y="-188.3" font-family="Times,serif" font-size="14.00">05 (c)</text>
</g>
<!-- 01 -->
<g id="node24" class="node"><title>01</title>
<ellipse fill="#72fe95" stroke="#27b34a" cx="1075" cy="-105" rx="31.6951" ry="18"/>
<text text-anchor="middle" x="1075" y="-101.3" font-family="Times,serif" font-size="14.00">01 (c)</text>
</g>
<!-- 05&#45;&gt;01 -->
<g id="edge19" class="edge"><title>05&#45;&gt;01</title>
<path fill="none" stroke="#27b34a" stroke-dasharray="1,5" d="M1075,-173.799C1075,-162.163 1075,-146.548 1075,-133.237"/>
<polygon fill="#27b34a" stroke="#27b34a" points="1078.5,-133.175 1075,-123.175 1071.5,-133.175 1078.5,-133.175"/>
<text text-anchor="middle" x="1100.5" y="-144.8" font-family="Times,serif" font-size="14.00">25 (33.3)</text>
</g>
<!-- P75 -->
<g id="node25" class="node"><title>P75</title>
<ellipse fill="#cea8f4" stroke="#835da9" cx="1162" cy="-192" rx="37.0935" ry="18"/>
<text text-anchor="middle" x="1162" y="-188.3" font-family="Times,serif" font-size="14.00">P75 (b)</text>
</g>
<!-- 0211 -->
<g id="node26" class="node"><title>0211</title>
<ellipse fill="#ff86c2" stroke="#b43b77" cx="1258" cy="-192" rx="40.8928" ry="18"/>
<text text-anchor="middle" x="1258" y="-188.3" font-family="Times,serif" font-size="14.00">0211 (d)</text>
</g>
</g>
</svg>
