<?xml version="1.0" encoding="UTF-8" standalone="no"?>
<!DOCTYPE svg PUBLIC "-//W3C//DTD SVG 1.1//EN"
 "http://www.w3.org/Graphics/SVG/1.1/DTD/svg11.dtd">
<!-- Generated by graphviz version 2.38.0 (20140413.2041)
 -->
<!-- Title: %3 Pages: 1 -->
<svg width="977pt" height="408pt"
 viewBox="0.00 0.00 976.79 408.00" xmlns="http://www.w3.org/2000/svg" xmlns:xlink="http://www.w3.org/1999/xlink">
<g id="graph0" class="graph" transform="scale(1 1) rotate(0) translate(4 404)">
<title>%3</title>
<polygon fill="white" stroke="none" points="-4,4 -4,-404 972.794,-404 972.794,4 -4,4"/>
<g id="clust1" class="cluster"><title>cluster_legend</title>
<path fill="none" stroke="black" d="M244.397,-264C244.397,-264 434.397,-264 434.397,-264 440.397,-264 446.397,-270 446.397,-276 446.397,-276 446.397,-380 446.397,-380 446.397,-386 440.397,-392 434.397,-392 434.397,-392 244.397,-392 244.397,-392 238.397,-392 232.397,-386 232.397,-380 232.397,-380 232.397,-276 232.397,-276 232.397,-270 238.397,-264 244.397,-264"/>
</g>
<!-- leg_s -->
<g id="node1" class="node"><title>leg_s</title>
<text text-anchor="middle" x="339.397" y="-362.3" font-family="Times,serif" font-size="14.00">Textual flow strength</text>
</g>
<!-- leg_e1 -->
<!-- leg_s&#45;&gt;leg_e1 -->
<g id="edge1" class="edge"><title>leg_s&#45;&gt;leg_e1</title>
<path fill="none" stroke="black" stroke-dasharray="1,5" d="M321.062,-347.686C315.529,-342.194 309.557,-335.989 304.397,-330 294.568,-318.593 284.469,-304.779 277.31,-294.563"/>
<polygon fill="black" stroke="black" points="280.011,-292.314 271.453,-286.068 274.248,-296.288 280.011,-292.314"/>
<text text-anchor="middle" x="319.897" y="-318.8" font-family="Times,serif" font-size="14.00">&lt;=5 &#160;</text>
</g>
<!-- leg_e2 -->
<!-- leg_s&#45;&gt;leg_e2 -->
<g id="edge2" class="edge"><title>leg_s&#45;&gt;leg_e2</title>
<path fill="none" stroke="black" stroke-dasharray="5,2" d="M339.397,-347.799C339.397,-332.794 339.397,-311.174 339.397,-296.409"/>
<polygon fill="black" stroke="black" points="342.897,-296.293 339.397,-286.293 335.897,-296.293 342.897,-296.293"/>
<text text-anchor="middle" x="358.397" y="-318.8" font-family="Times,serif" font-size="14.00"> &#160;&lt;=25</text>
</g>
<!-- leg_e3 -->
<!-- leg_s&#45;&gt;leg_e3 -->
<g id="edge3" class="edge"><title>leg_s&#45;&gt;leg_e3</title>
<path fill="none" stroke="black" d="M362.9,-347.76C369.303,-342.462 375.963,-336.344 381.397,-330 390.484,-319.39 398.492,-305.689 403.943,-295.313"/>
<polygon fill="black" stroke="black" points="407.119,-296.789 408.488,-286.283 400.866,-293.642 407.119,-296.789"/>
<text text-anchor="middle" x="403.397" y="-318.8" font-family="Times,serif" font-size="14.00">&gt;25</text>
</g>
<!-- 044 -->
<g id="node5" class="node"><title>044</title>
<ellipse fill="#ff8a8a" stroke="#b43f3f" cx="492.397" cy="-279" rx="36.2938" ry="18"/>
<text text-anchor="middle" x="492.397" y="-275.3" font-family="Times,serif" font-size="14.00">044 (a)</text>
</g>
<!-- 022 -->
<g id="node6" class="node"><title>022</title>
<ellipse fill="#ff8a8a" stroke="#b43f3f" cx="141.397" cy="-192" rx="36.2938" ry="18"/>
<text text-anchor="middle" x="141.397" y="-188.3" font-family="Times,serif" font-size="14.00">022 (a)</text>
</g>
<!-- 044&#45;&gt;022 -->
<g id="edge4" class="edge"><title>044&#45;&gt;022</title>
<path fill="none" stroke="#b43f3f" stroke-dasharray="1,5" d="M466.033,-266.343C460.913,-264.362 455.539,-262.472 450.397,-261 405.72,-248.211 392.89,-252.486 347.397,-243 289.817,-230.994 223.842,-214.491 182.396,-203.785"/>
<polygon fill="#b43f3f" stroke="#b43f3f" points="183.221,-200.384 172.663,-201.261 181.464,-207.16 183.221,-200.384"/>
<text text-anchor="middle" x="369.397" y="-231.8" font-family="Times,serif" font-size="14.00">1 (91.7)</text>
</g>
<!-- 07 -->
<g id="node7" class="node"><title>07</title>
<ellipse fill="#ff8a8a" stroke="#b43f3f" cx="362.397" cy="-192" rx="31.6951" ry="18"/>
<text text-anchor="middle" x="362.397" y="-188.3" font-family="Times,serif" font-size="14.00">07 (a)</text>
</g>
<!-- 044&#45;&gt;07 -->
<g id="edge5" class="edge"><title>044&#45;&gt;07</title>
<path fill="none" stroke="#b43f3f" stroke-dasharray="1,5" d="M464.996,-267.083C445.882,-259.238 422.272,-249.023 413.397,-243 402.175,-235.384 391.233,-225.149 382.379,-215.923"/>
<polygon fill="#b43f3f" stroke="#b43f3f" points="384.844,-213.434 375.474,-208.49 379.716,-218.198 384.844,-213.434"/>
<text text-anchor="middle" x="435.397" y="-231.8" font-family="Times,serif" font-size="14.00">2 (83.8)</text>
</g>
<!-- 011 -->
<g id="node8" class="node"><title>011</title>
<ellipse fill="#ff8a8a" stroke="#b43f3f" cx="453.397" cy="-192" rx="36.2938" ry="18"/>
<text text-anchor="middle" x="453.397" y="-188.3" font-family="Times,serif" font-size="14.00">011 (a)</text>
</g>
<!-- 044&#45;&gt;011 -->
<g id="edge6" class="edge"><title>044&#45;&gt;011</title>
<path fill="none" stroke="#b43f3f" stroke-dasharray="1,5" d="M478.572,-262.106C474.162,-256.388 469.601,-249.69 466.397,-243 462.988,-235.881 460.386,-227.749 458.44,-220.14"/>
<polygon fill="#b43f3f" stroke="#b43f3f" points="461.816,-219.204 456.178,-210.234 454.992,-220.763 461.816,-219.204"/>
<text text-anchor="middle" x="488.397" y="-231.8" font-family="Times,serif" font-size="14.00">2 (86.5)</text>
</g>
<!-- 045 -->
<g id="node9" class="node"><title>045</title>
<ellipse fill="#ff8a8a" stroke="#b43f3f" cx="544.397" cy="-192" rx="36.2938" ry="18"/>
<text text-anchor="middle" x="544.397" y="-188.3" font-family="Times,serif" font-size="14.00">045 (a)</text>
</g>
<!-- 044&#45;&gt;045 -->
<g id="edge7" class="edge"><title>044&#45;&gt;045</title>
<path fill="none" stroke="#b43f3f" stroke-dasharray="1,5" d="M502.423,-261.611C509.976,-249.264 520.467,-232.117 529.07,-218.053"/>
<polygon fill="#b43f3f" stroke="#b43f3f" points="532.168,-219.695 534.401,-209.339 526.197,-216.042 532.168,-219.695"/>
<text text-anchor="middle" x="544.397" y="-231.8" font-family="Times,serif" font-size="14.00">2 (81.1)</text>
</g>
<!-- 021 -->
<g id="node10" class="node"><title>021</title>
<ellipse fill="#ff8a8a" stroke="#b43f3f" cx="635.397" cy="-192" rx="36.2938" ry="18"/>
<text text-anchor="middle" x="635.397" y="-188.3" font-family="Times,serif" font-size="14.00">021 (a)</text>
</g>
<!-- 044&#45;&gt;021 -->
<g id="edge8" class="edge"><title>044&#45;&gt;021</title>
<path fill="none" stroke="#b43f3f" stroke-dasharray="1,5" d="M520.257,-267.363C535.502,-261.087 554.472,-252.519 570.397,-243 584.262,-234.712 598.605,-223.949 610.279,-214.533"/>
<polygon fill="#b43f3f" stroke="#b43f3f" points="612.761,-217.024 618.262,-207.969 608.315,-211.617 612.761,-217.024"/>
<text text-anchor="middle" x="613.397" y="-231.8" font-family="Times,serif" font-size="14.00">2 (83.8)</text>
</g>
<!-- 0141 -->
<g id="node11" class="node"><title>0141</title>
<ellipse fill="#ff8a8a" stroke="#b43f3f" cx="730.397" cy="-192" rx="40.0939" ry="18"/>
<text text-anchor="middle" x="730.397" y="-188.3" font-family="Times,serif" font-size="14.00">0141 (a)</text>
</g>
<!-- 044&#45;&gt;0141 -->
<g id="edge9" class="edge"><title>044&#45;&gt;0141</title>
<path fill="none" stroke="#b43f3f" stroke-dasharray="1,5" d="M519.734,-266.745C525.502,-264.633 531.598,-262.592 537.397,-261 581.788,-248.813 595.976,-258.289 639.397,-243 660.826,-235.455 683.211,-223.22 700.417,-212.742"/>
<polygon fill="#b43f3f" stroke="#b43f3f" points="702.269,-215.712 708.91,-207.457 698.571,-209.769 702.269,-215.712"/>
<text text-anchor="middle" x="695.397" y="-231.8" font-family="Times,serif" font-size="14.00">1 (89.2)</text>
</g>
<!-- 031 -->
<g id="node12" class="node"><title>031</title>
<ellipse fill="#ff8a8a" stroke="#b43f3f" cx="81.3968" cy="-105" rx="36.2938" ry="18"/>
<text text-anchor="middle" x="81.3968" y="-101.3" font-family="Times,serif" font-size="14.00">031 (a)</text>
</g>
<!-- 022&#45;&gt;031 -->
<g id="edge10" class="edge"><title>022&#45;&gt;031</title>
<path fill="none" stroke="#b43f3f" stroke-dasharray="1,5" d="M126.5,-175.529C121.148,-169.633 115.243,-162.713 110.397,-156 104.909,-148.397 99.5638,-139.684 94.9883,-131.683"/>
<polygon fill="#b43f3f" stroke="#b43f3f" points="97.927,-129.765 90.0081,-122.727 91.8093,-133.167 97.927,-129.765"/>
<text text-anchor="middle" x="132.397" y="-144.8" font-family="Times,serif" font-size="14.00">2 (86.7)</text>
</g>
<!-- 0211 -->
<g id="node18" class="node"><title>0211</title>
<ellipse fill="#ff8a8a" stroke="#b43f3f" cx="176.397" cy="-105" rx="40.0939" ry="18"/>
<text text-anchor="middle" x="176.397" y="-101.3" font-family="Times,serif" font-size="14.00">0211 (a)</text>
</g>
<!-- 07&#45;&gt;0211 -->
<g id="edge16" class="edge"><title>07&#45;&gt;0211</title>
<path fill="none" stroke="#b43f3f" stroke-dasharray="1,5" d="M333.373,-183.938C310.942,-177.948 279.43,-168.361 253.397,-156 236.346,-147.904 218.593,-136.599 204.436,-126.786"/>
<polygon fill="#b43f3f" stroke="#b43f3f" points="206.311,-123.825 196.125,-120.911 202.271,-129.541 206.311,-123.825"/>
<text text-anchor="middle" x="275.397" y="-144.8" font-family="Times,serif" font-size="14.00">2 (82.9)</text>
</g>
<!-- 037 -->
<g id="node19" class="node"><title>037</title>
<ellipse fill="#ff8a8a" stroke="#b43f3f" cx="271.397" cy="-105" rx="36.2938" ry="18"/>
<text text-anchor="middle" x="271.397" y="-101.3" font-family="Times,serif" font-size="14.00">037 (a)</text>
</g>
<!-- 07&#45;&gt;037 -->
<g id="edge17" class="edge"><title>07&#45;&gt;037</title>
<path fill="none" stroke="#b43f3f" stroke-dasharray="1,5" d="M341.978,-177.672C333.134,-171.512 322.886,-163.834 314.397,-156 305.853,-148.115 297.321,-138.619 290.136,-130.029"/>
<polygon fill="#b43f3f" stroke="#b43f3f" points="292.741,-127.685 283.704,-122.155 287.32,-132.113 292.741,-127.685"/>
<text text-anchor="middle" x="336.397" y="-144.8" font-family="Times,serif" font-size="14.00">1 (97.5)</text>
</g>
<!-- 034 -->
<g id="node20" class="node"><title>034</title>
<ellipse fill="#ff8a8a" stroke="#b43f3f" cx="362.397" cy="-105" rx="36.2938" ry="18"/>
<text text-anchor="middle" x="362.397" y="-101.3" font-family="Times,serif" font-size="14.00">034 (a)</text>
</g>
<!-- 07&#45;&gt;034 -->
<g id="edge18" class="edge"><title>07&#45;&gt;034</title>
<path fill="none" stroke="#b43f3f" stroke-dasharray="1,5" d="M362.397,-173.799C362.397,-162.163 362.397,-146.548 362.397,-133.237"/>
<polygon fill="#b43f3f" stroke="#b43f3f" points="365.897,-133.175 362.397,-123.175 358.897,-133.175 365.897,-133.175"/>
<text text-anchor="middle" x="384.397" y="-144.8" font-family="Times,serif" font-size="14.00">1 (95.1)</text>
</g>
<!-- 030 -->
<g id="node21" class="node"><title>030</title>
<ellipse fill="#ff8a8a" stroke="#b43f3f" cx="453.397" cy="-105" rx="36.2938" ry="18"/>
<text text-anchor="middle" x="453.397" y="-101.3" font-family="Times,serif" font-size="14.00">030 (a)</text>
</g>
<!-- 07&#45;&gt;030 -->
<g id="edge19" class="edge"><title>07&#45;&gt;030</title>
<path fill="none" stroke="#b43f3f" stroke-dasharray="1,5" d="M382.816,-177.672C391.659,-171.512 401.908,-163.834 410.397,-156 418.941,-148.115 427.472,-138.619 434.657,-130.029"/>
<polygon fill="#b43f3f" stroke="#b43f3f" points="437.474,-132.113 441.089,-122.155 432.053,-127.685 437.474,-132.113"/>
<text text-anchor="middle" x="446.397" y="-144.8" font-family="Times,serif" font-size="14.00">1 (95.1)</text>
</g>
<!-- 038 -->
<g id="node22" class="node"><title>038</title>
<ellipse fill="#ff8a8a" stroke="#b43f3f" cx="544.397" cy="-105" rx="36.2938" ry="18"/>
<text text-anchor="middle" x="544.397" y="-101.3" font-family="Times,serif" font-size="14.00">038 (a)</text>
</g>
<!-- 045&#45;&gt;038 -->
<g id="edge20" class="edge"><title>045&#45;&gt;038</title>
<path fill="none" stroke="#b43f3f" stroke-dasharray="1,5" d="M544.397,-173.799C544.397,-162.163 544.397,-146.548 544.397,-133.237"/>
<polygon fill="#b43f3f" stroke="#b43f3f" points="547.897,-133.175 544.397,-123.175 540.897,-133.175 547.897,-133.175"/>
<text text-anchor="middle" x="566.397" y="-144.8" font-family="Times,serif" font-size="14.00">1 (92.7)</text>
</g>
<!-- 036 -->
<g id="node23" class="node"><title>036</title>
<ellipse fill="#ff8a8a" stroke="#b43f3f" cx="635.397" cy="-105" rx="36.2938" ry="18"/>
<text text-anchor="middle" x="635.397" y="-101.3" font-family="Times,serif" font-size="14.00">036 (a)</text>
</g>
<!-- 021&#45;&gt;036 -->
<g id="edge21" class="edge"><title>021&#45;&gt;036</title>
<path fill="none" stroke="#b43f3f" stroke-dasharray="1,5" d="M635.397,-173.799C635.397,-162.163 635.397,-146.548 635.397,-133.237"/>
<polygon fill="#b43f3f" stroke="#b43f3f" points="638.897,-133.175 635.397,-123.175 631.897,-133.175 638.897,-133.175"/>
<text text-anchor="middle" x="657.397" y="-144.8" font-family="Times,serif" font-size="14.00">1 (97.6)</text>
</g>
<!-- 047 -->
<g id="node24" class="node"><title>047</title>
<ellipse fill="#ff8a8a" stroke="#b43f3f" cx="726.397" cy="-105" rx="36.2938" ry="18"/>
<text text-anchor="middle" x="726.397" y="-101.3" font-family="Times,serif" font-size="14.00">047 (a)</text>
</g>
<!-- 021&#45;&gt;047 -->
<g id="edge22" class="edge"><title>021&#45;&gt;047</title>
<path fill="none" stroke="#b43f3f" stroke-dasharray="1,5" d="M656.768,-177.006C665.389,-170.963 675.211,-163.554 683.397,-156 691.941,-148.115 700.472,-138.619 707.657,-130.029"/>
<polygon fill="#b43f3f" stroke="#b43f3f" points="710.474,-132.113 714.089,-122.155 705.053,-127.685 710.474,-132.113"/>
<text text-anchor="middle" x="719.397" y="-144.8" font-family="Times,serif" font-size="14.00">1 (95.1)</text>
</g>
<!-- 013 -->
<g id="node13" class="node"><title>013</title>
<ellipse fill="#ff8a8a" stroke="#b43f3f" cx="36.3968" cy="-18" rx="36.2938" ry="18"/>
<text text-anchor="middle" x="36.3968" y="-14.3" font-family="Times,serif" font-size="14.00">013 (a)</text>
</g>
<!-- 031&#45;&gt;013 -->
<g id="edge11" class="edge"><title>031&#45;&gt;013</title>
<path fill="none" stroke="#b43f3f" stroke-dasharray="1,5" d="M71.6438,-87.3706C68.3224,-81.5933 64.633,-75.047 61.3968,-69 57.2295,-61.2133 52.8659,-52.6446 48.9722,-44.8337"/>
<polygon fill="#b43f3f" stroke="#b43f3f" points="52.0688,-43.1997 44.5005,-35.7855 45.7934,-46.3011 52.0688,-43.1997"/>
<text text-anchor="middle" x="83.3968" y="-57.8" font-family="Times,serif" font-size="14.00">1 (97.1)</text>
</g>
<!-- 017 -->
<g id="node14" class="node"><title>017</title>
<ellipse fill="#ff8a8a" stroke="#b43f3f" cx="127.397" cy="-18" rx="36.2938" ry="18"/>
<text text-anchor="middle" x="127.397" y="-14.3" font-family="Times,serif" font-size="14.00">017 (a)</text>
</g>
<!-- 031&#45;&gt;017 -->
<g id="edge12" class="edge"><title>031&#45;&gt;017</title>
<path fill="none" stroke="#b43f3f" stroke-dasharray="1,5" d="M93.5262,-87.6704C97.5459,-81.9172 101.886,-75.3093 105.397,-69 109.547,-61.5417 113.498,-53.1477 116.877,-45.3977"/>
<polygon fill="#b43f3f" stroke="#b43f3f" points="120.161,-46.6185 120.824,-36.0444 113.712,-43.8974 120.161,-46.6185"/>
<text text-anchor="middle" x="135.397" y="-57.8" font-family="Times,serif" font-size="14.00">1 (94.3)</text>
</g>
<!-- 03 -->
<g id="node15" class="node"><title>03</title>
<ellipse fill="#ff8a8a" stroke="#b43f3f" cx="578.397" cy="-366" rx="31.6951" ry="18"/>
<text text-anchor="middle" x="578.397" y="-362.3" font-family="Times,serif" font-size="14.00">03 (a)</text>
</g>
<!-- 03&#45;&gt;044 -->
<g id="edge13" class="edge"><title>03&#45;&gt;044</title>
<path fill="none" stroke="#b43f3f" stroke-dasharray="1,5" d="M557.75,-351.912C548.864,-345.796 538.645,-338.086 530.397,-330 522.572,-322.329 515.035,-312.975 508.765,-304.442"/>
<polygon fill="#b43f3f" stroke="#b43f3f" points="511.603,-302.394 502.954,-296.275 505.899,-306.452 511.603,-302.394"/>
<text text-anchor="middle" x="552.397" y="-318.8" font-family="Times,serif" font-size="14.00">1 (89.2)</text>
</g>
<!-- 02 -->
<g id="node16" class="node"><title>02</title>
<ellipse fill="#ff8a8a" stroke="#b43f3f" cx="578.397" cy="-279" rx="31.6951" ry="18"/>
<text text-anchor="middle" x="578.397" y="-275.3" font-family="Times,serif" font-size="14.00">02 (a)</text>
</g>
<!-- 03&#45;&gt;02 -->
<g id="edge14" class="edge"><title>03&#45;&gt;02</title>
<path fill="none" stroke="#b43f3f" stroke-dasharray="1,5" d="M578.397,-347.799C578.397,-336.163 578.397,-320.548 578.397,-307.237"/>
<polygon fill="#b43f3f" stroke="#b43f3f" points="581.897,-307.175 578.397,-297.175 574.897,-307.175 581.897,-307.175"/>
<text text-anchor="middle" x="600.397" y="-318.8" font-family="Times,serif" font-size="14.00">1 (86.5)</text>
</g>
<!-- 032 -->
<g id="node17" class="node"><title>032</title>
<ellipse fill="#ff8a8a" stroke="#b43f3f" cx="664.397" cy="-279" rx="36.2938" ry="18"/>
<text text-anchor="middle" x="664.397" y="-275.3" font-family="Times,serif" font-size="14.00">032 (a)</text>
</g>
<!-- 03&#45;&gt;032 -->
<g id="edge15" class="edge"><title>03&#45;&gt;032</title>
<path fill="none" stroke="#b43f3f" stroke-dasharray="1,5" d="M599.044,-351.912C607.93,-345.796 618.148,-338.086 626.397,-330 634.221,-322.329 641.759,-312.975 648.029,-304.442"/>
<polygon fill="#b43f3f" stroke="#b43f3f" points="650.894,-306.452 653.84,-296.275 645.191,-302.394 650.894,-306.452"/>
<text text-anchor="middle" x="661.397" y="-318.8" font-family="Times,serif" font-size="14.00">1 (91.7)</text>
</g>
<!-- 028 -->
<g id="node25" class="node"><title>028</title>
<ellipse fill="#72fe95" stroke="#27b34a" cx="750.397" cy="-366" rx="36.2938" ry="18"/>
<text text-anchor="middle" x="750.397" y="-362.3" font-family="Times,serif" font-size="14.00">028 (c)</text>
</g>
<!-- 01 -->
<g id="node26" class="node"><title>01</title>
<ellipse fill="#72fe95" stroke="#27b34a" cx="750.397" cy="-279" rx="31.6951" ry="18"/>
<text text-anchor="middle" x="750.397" y="-275.3" font-family="Times,serif" font-size="14.00">01 (c)</text>
</g>
<!-- 028&#45;&gt;01 -->
<g id="edge23" class="edge"><title>028&#45;&gt;01</title>
<path fill="none" stroke="#27b34a" stroke-dasharray="1,5" d="M750.397,-347.799C750.397,-336.163 750.397,-320.548 750.397,-307.237"/>
<polygon fill="#27b34a" stroke="#27b34a" points="753.897,-307.175 750.397,-297.175 746.897,-307.175 753.897,-307.175"/>
<text text-anchor="middle" x="772.397" y="-318.8" font-family="Times,serif" font-size="14.00">3 (47.4)</text>
</g>
<!-- P75 -->
<g id="node27" class="node"><title>P75</title>
<ellipse fill="#ff8a8a" stroke="#b43f3f" cx="841.397" cy="-366" rx="36.2938" ry="18"/>
<text text-anchor="middle" x="841.397" y="-362.3" font-family="Times,serif" font-size="14.00">P75 (a)</text>
</g>
<!-- 019 -->
<g id="node28" class="node"><title>019</title>
<ellipse fill="#ff8a8a" stroke="#b43f3f" cx="932.397" cy="-366" rx="36.2938" ry="18"/>
<text text-anchor="middle" x="932.397" y="-362.3" font-family="Times,serif" font-size="14.00">019 (a)</text>
</g>
</g>
</svg>
