<?xml version="1.0" encoding="UTF-8" standalone="no"?>
<!DOCTYPE svg PUBLIC "-//W3C//DTD SVG 1.1//EN"
 "http://www.w3.org/Graphics/SVG/1.1/DTD/svg11.dtd">
<!-- Generated by graphviz version 2.38.0 (20140413.2041)
 -->
<!-- Title: %3 Pages: 1 -->
<svg width="1033pt" height="321pt"
 viewBox="0.00 0.00 1032.85 321.00" xmlns="http://www.w3.org/2000/svg" xmlns:xlink="http://www.w3.org/1999/xlink">
<g id="graph0" class="graph" transform="scale(1 1) rotate(0) translate(4 317)">
<title>%3</title>
<polygon fill="white" stroke="none" points="-4,4 -4,-317 1028.85,-317 1028.85,4 -4,4"/>
<g id="clust1" class="cluster"><title>cluster_legend</title>
<path fill="none" stroke="black" d="M20,-177C20,-177 210,-177 210,-177 216,-177 222,-183 222,-189 222,-189 222,-293 222,-293 222,-299 216,-305 210,-305 210,-305 20,-305 20,-305 14,-305 8,-299 8,-293 8,-293 8,-189 8,-189 8,-183 14,-177 20,-177"/>
</g>
<!-- leg_s -->
<g id="node1" class="node"><title>leg_s</title>
<text text-anchor="middle" x="115" y="-275.3" font-family="Times,serif" font-size="14.00">Textual flow strength</text>
</g>
<!-- leg_e1 -->
<!-- leg_s&#45;&gt;leg_e1 -->
<g id="edge1" class="edge"><title>leg_s&#45;&gt;leg_e1</title>
<path fill="none" stroke="black" stroke-dasharray="1,5" d="M96.6657,-260.686C91.1324,-255.194 85.1607,-248.989 80,-243 70.1708,-231.593 60.0722,-217.779 52.9137,-207.563"/>
<polygon fill="black" stroke="black" points="55.6142,-205.314 47.056,-199.068 49.8514,-209.288 55.6142,-205.314"/>
<text text-anchor="middle" x="95.5" y="-231.8" font-family="Times,serif" font-size="14.00">&lt;=5 &#160;</text>
</g>
<!-- leg_e2 -->
<!-- leg_s&#45;&gt;leg_e2 -->
<g id="edge2" class="edge"><title>leg_s&#45;&gt;leg_e2</title>
<path fill="none" stroke="black" stroke-dasharray="5,2" d="M115,-260.799C115,-245.794 115,-224.174 115,-209.409"/>
<polygon fill="black" stroke="black" points="118.5,-209.293 115,-199.293 111.5,-209.293 118.5,-209.293"/>
<text text-anchor="middle" x="134" y="-231.8" font-family="Times,serif" font-size="14.00"> &#160;&lt;=25</text>
</g>
<!-- leg_e3 -->
<!-- leg_s&#45;&gt;leg_e3 -->
<g id="edge3" class="edge"><title>leg_s&#45;&gt;leg_e3</title>
<path fill="none" stroke="black" d="M138.503,-260.76C144.906,-255.462 151.567,-249.344 157,-243 166.087,-232.39 174.095,-218.689 179.546,-208.313"/>
<polygon fill="black" stroke="black" points="182.722,-209.789 184.091,-199.283 176.469,-206.642 182.722,-209.789"/>
<text text-anchor="middle" x="179" y="-231.8" font-family="Times,serif" font-size="14.00">&gt;25</text>
</g>
<!-- 044 -->
<g id="node5" class="node"><title>044</title>
<ellipse fill="#ff8a8a" stroke="#b43f3f" cx="268" cy="-192" rx="36.2938" ry="18"/>
<text text-anchor="middle" x="268" y="-188.3" font-family="Times,serif" font-size="14.00">044 (a)</text>
</g>
<!-- 022 -->
<g id="node6" class="node"><title>022</title>
<ellipse fill="#ff8a8a" stroke="#b43f3f" cx="220" cy="-105" rx="36.2938" ry="18"/>
<text text-anchor="middle" x="220" y="-101.3" font-family="Times,serif" font-size="14.00">022 (a)</text>
</g>
<!-- 044&#45;&gt;022 -->
<g id="edge4" class="edge"><title>044&#45;&gt;022</title>
<path fill="none" stroke="#b43f3f" stroke-dasharray="1,5" d="M254.443,-175.237C249.827,-169.423 244.862,-162.632 241,-156 236.736,-148.678 232.874,-140.324 229.659,-132.569"/>
<polygon fill="#b43f3f" stroke="#b43f3f" points="232.883,-131.202 225.951,-123.189 226.373,-133.776 232.883,-131.202"/>
<text text-anchor="middle" x="263" y="-144.8" font-family="Times,serif" font-size="14.00">1 (91.7)</text>
</g>
<!-- 0141 -->
<g id="node7" class="node"><title>0141</title>
<ellipse fill="#ff8a8a" stroke="#b43f3f" cx="315" cy="-105" rx="40.0939" ry="18"/>
<text text-anchor="middle" x="315" y="-101.3" font-family="Times,serif" font-size="14.00">0141 (a)</text>
</g>
<!-- 044&#45;&gt;0141 -->
<g id="edge5" class="edge"><title>044&#45;&gt;0141</title>
<path fill="none" stroke="#b43f3f" stroke-dasharray="1,5" d="M277.286,-174.207C283.98,-162.099 293.141,-145.533 300.757,-131.759"/>
<polygon fill="#b43f3f" stroke="#b43f3f" points="303.958,-133.203 305.734,-122.758 297.832,-129.816 303.958,-133.203"/>
<text text-anchor="middle" x="317" y="-144.8" font-family="Times,serif" font-size="14.00">1 (89.2)</text>
</g>
<!-- 07 -->
<g id="node8" class="node"><title>07</title>
<ellipse fill="#ff8a8a" stroke="#b43f3f" cx="405" cy="-105" rx="31.6951" ry="18"/>
<text text-anchor="middle" x="405" y="-101.3" font-family="Times,serif" font-size="14.00">07 (a)</text>
</g>
<!-- 013 -->
<g id="node9" class="node"><title>013</title>
<ellipse fill="#ff8a8a" stroke="#b43f3f" cx="221" cy="-18" rx="36.2938" ry="18"/>
<text text-anchor="middle" x="221" y="-14.3" font-family="Times,serif" font-size="14.00">013 (a)</text>
</g>
<!-- 07&#45;&gt;013 -->
<g id="edge6" class="edge"><title>07&#45;&gt;013</title>
<path fill="none" stroke="#b43f3f" stroke-dasharray="1,5" d="M380.498,-93.1795C375.116,-90.9892 369.408,-88.8066 364,-87 333.532,-76.8227 323.251,-82.2777 294,-69 277.362,-61.4477 260.426,-50.1193 247.06,-40.1543"/>
<polygon fill="#b43f3f" stroke="#b43f3f" points="248.9,-37.1549 238.832,-33.8562 244.645,-42.7135 248.9,-37.1549"/>
<text text-anchor="middle" x="316" y="-57.8" font-family="Times,serif" font-size="14.00">2 (95.1)</text>
</g>
<!-- 017 -->
<g id="node10" class="node"><title>017</title>
<ellipse fill="#ff8a8a" stroke="#b43f3f" cx="312" cy="-18" rx="36.2938" ry="18"/>
<text text-anchor="middle" x="312" y="-14.3" font-family="Times,serif" font-size="14.00">017 (a)</text>
</g>
<!-- 07&#45;&gt;017 -->
<g id="edge7" class="edge"><title>07&#45;&gt;017</title>
<path fill="none" stroke="#b43f3f" stroke-dasharray="1,5" d="M384.659,-91.0147C375.528,-84.8037 364.843,-76.9892 356,-69 347.287,-61.1287 338.563,-51.6347 331.208,-43.0439"/>
<polygon fill="#b43f3f" stroke="#b43f3f" points="333.721,-40.5924 324.621,-35.1665 328.351,-45.083 333.721,-40.5924"/>
<text text-anchor="middle" x="378" y="-57.8" font-family="Times,serif" font-size="14.00">2 (92.7)</text>
</g>
<!-- 037 -->
<g id="node11" class="node"><title>037</title>
<ellipse fill="#ff8a8a" stroke="#b43f3f" cx="403" cy="-18" rx="36.2938" ry="18"/>
<text text-anchor="middle" x="403" y="-14.3" font-family="Times,serif" font-size="14.00">037 (a)</text>
</g>
<!-- 07&#45;&gt;037 -->
<g id="edge8" class="edge"><title>07&#45;&gt;037</title>
<path fill="none" stroke="#b43f3f" stroke-dasharray="1,5" d="M404.595,-86.799C404.321,-75.1626 403.954,-59.5479 403.641,-46.2368"/>
<polygon fill="#b43f3f" stroke="#b43f3f" points="407.138,-46.0903 403.404,-36.1754 400.14,-46.255 407.138,-46.0903"/>
<text text-anchor="middle" x="427" y="-57.8" font-family="Times,serif" font-size="14.00">1 (97.5)</text>
</g>
<!-- 034 -->
<g id="node12" class="node"><title>034</title>
<ellipse fill="#ff8a8a" stroke="#b43f3f" cx="494" cy="-18" rx="36.2938" ry="18"/>
<text text-anchor="middle" x="494" y="-14.3" font-family="Times,serif" font-size="14.00">034 (a)</text>
</g>
<!-- 07&#45;&gt;034 -->
<g id="edge9" class="edge"><title>07&#45;&gt;034</title>
<path fill="none" stroke="#b43f3f" stroke-dasharray="1,5" d="M425.507,-90.7657C434.367,-84.6235 444.604,-76.9327 453,-69 461.201,-61.2521 469.281,-51.8817 476.073,-43.3567"/>
<polygon fill="#b43f3f" stroke="#b43f3f" points="479.031,-45.2531 482.39,-35.205 473.498,-40.965 479.031,-45.2531"/>
<text text-anchor="middle" x="489" y="-57.8" font-family="Times,serif" font-size="14.00">1 (95.1)</text>
</g>
<!-- 030 -->
<g id="node13" class="node"><title>030</title>
<ellipse fill="#ff8a8a" stroke="#b43f3f" cx="585" cy="-18" rx="36.2938" ry="18"/>
<text text-anchor="middle" x="585" y="-14.3" font-family="Times,serif" font-size="14.00">030 (a)</text>
</g>
<!-- 07&#45;&gt;030 -->
<g id="edge10" class="edge"><title>07&#45;&gt;030</title>
<path fill="none" stroke="#b43f3f" stroke-dasharray="1,5" d="M430.434,-93.6649C436.476,-91.3511 442.932,-88.994 449,-87 477.885,-77.5086 487.534,-82.0399 515,-69 530.937,-61.4339 547.07,-50.2046 559.826,-40.3034"/>
<polygon fill="#b43f3f" stroke="#b43f3f" points="562.045,-43.0102 567.684,-34.0407 557.682,-37.536 562.045,-43.0102"/>
<text text-anchor="middle" x="562" y="-57.8" font-family="Times,serif" font-size="14.00">1 (95.1)</text>
</g>
<!-- 03 -->
<g id="node14" class="node"><title>03</title>
<ellipse fill="#ff8a8a" stroke="#b43f3f" cx="354" cy="-279" rx="31.6951" ry="18"/>
<text text-anchor="middle" x="354" y="-275.3" font-family="Times,serif" font-size="14.00">03 (a)</text>
</g>
<!-- 03&#45;&gt;044 -->
<g id="edge11" class="edge"><title>03&#45;&gt;044</title>
<path fill="none" stroke="#b43f3f" stroke-dasharray="1,5" d="M333.353,-264.912C324.467,-258.796 314.248,-251.086 306,-243 298.175,-235.329 290.638,-225.975 284.368,-217.442"/>
<polygon fill="#b43f3f" stroke="#b43f3f" points="287.206,-215.394 278.557,-209.275 281.503,-219.452 287.206,-215.394"/>
<text text-anchor="middle" x="328" y="-231.8" font-family="Times,serif" font-size="14.00">1 (89.2)</text>
</g>
<!-- 02 -->
<g id="node15" class="node"><title>02</title>
<ellipse fill="#ff8a8a" stroke="#b43f3f" cx="354" cy="-192" rx="31.6951" ry="18"/>
<text text-anchor="middle" x="354" y="-188.3" font-family="Times,serif" font-size="14.00">02 (a)</text>
</g>
<!-- 03&#45;&gt;02 -->
<g id="edge12" class="edge"><title>03&#45;&gt;02</title>
<path fill="none" stroke="#b43f3f" stroke-dasharray="1,5" d="M354,-260.799C354,-249.163 354,-233.548 354,-220.237"/>
<polygon fill="#b43f3f" stroke="#b43f3f" points="357.5,-220.175 354,-210.175 350.5,-220.175 357.5,-220.175"/>
<text text-anchor="middle" x="376" y="-231.8" font-family="Times,serif" font-size="14.00">1 (86.5)</text>
</g>
<!-- 032 -->
<g id="node16" class="node"><title>032</title>
<ellipse fill="#ff8a8a" stroke="#b43f3f" cx="440" cy="-192" rx="36.2938" ry="18"/>
<text text-anchor="middle" x="440" y="-188.3" font-family="Times,serif" font-size="14.00">032 (a)</text>
</g>
<!-- 03&#45;&gt;032 -->
<g id="edge13" class="edge"><title>03&#45;&gt;032</title>
<path fill="none" stroke="#b43f3f" stroke-dasharray="1,5" d="M374.647,-264.912C383.533,-258.796 393.752,-251.086 402,-243 409.825,-235.329 417.362,-225.975 423.632,-217.442"/>
<polygon fill="#b43f3f" stroke="#b43f3f" points="426.497,-219.452 429.443,-209.275 420.794,-215.394 426.497,-219.452"/>
<text text-anchor="middle" x="437" y="-231.8" font-family="Times,serif" font-size="14.00">1 (91.7)</text>
</g>
<!-- 019 -->
<g id="node17" class="node"><title>019</title>
<ellipse fill="#ff8a8a" stroke="#b43f3f" cx="585" cy="-279" rx="36.2938" ry="18"/>
<text text-anchor="middle" x="585" y="-275.3" font-family="Times,serif" font-size="14.00">019 (a)</text>
</g>
<!-- 063 -->
<g id="node18" class="node"><title>063</title>
<ellipse fill="#ff8a8a" stroke="#b43f3f" cx="585" cy="-192" rx="36.2938" ry="18"/>
<text text-anchor="middle" x="585" y="-188.3" font-family="Times,serif" font-size="14.00">063 (a)</text>
</g>
<!-- 019&#45;&gt;063 -->
<g id="edge14" class="edge"><title>019&#45;&gt;063</title>
<path fill="none" stroke="#b43f3f" stroke-dasharray="1,5" d="M585,-260.799C585,-249.163 585,-233.548 585,-220.237"/>
<polygon fill="#b43f3f" stroke="#b43f3f" points="588.5,-220.175 585,-210.175 581.5,-220.175 588.5,-220.175"/>
<text text-anchor="middle" x="607" y="-231.8" font-family="Times,serif" font-size="14.00">1 (85.7)</text>
</g>
<!-- 063&#45;&gt;07 -->
<g id="edge15" class="edge"><title>063&#45;&gt;07</title>
<path fill="none" stroke="#b43f3f" stroke-dasharray="1,5" d="M552.522,-183.341C530.307,-177.444 500.551,-168.229 476,-156 459.838,-147.95 443.258,-136.488 430.19,-126.569"/>
<polygon fill="#b43f3f" stroke="#b43f3f" points="432.193,-123.694 422.148,-120.326 427.9,-129.223 432.193,-123.694"/>
<text text-anchor="middle" x="498" y="-144.8" font-family="Times,serif" font-size="14.00">1 (96.6)</text>
</g>
<!-- 011 -->
<g id="node19" class="node"><title>011</title>
<ellipse fill="#ff8a8a" stroke="#b43f3f" cx="494" cy="-105" rx="36.2938" ry="18"/>
<text text-anchor="middle" x="494" y="-101.3" font-family="Times,serif" font-size="14.00">011 (a)</text>
</g>
<!-- 063&#45;&gt;011 -->
<g id="edge16" class="edge"><title>063&#45;&gt;011</title>
<path fill="none" stroke="#b43f3f" stroke-dasharray="1,5" d="M563.628,-177.006C555.008,-170.963 545.186,-163.554 537,-156 528.456,-148.115 519.924,-138.619 512.74,-130.029"/>
<polygon fill="#b43f3f" stroke="#b43f3f" points="515.344,-127.685 506.308,-122.155 509.923,-132.113 515.344,-127.685"/>
<text text-anchor="middle" x="559" y="-144.8" font-family="Times,serif" font-size="14.00">1 (93.1)</text>
</g>
<!-- 045 -->
<g id="node20" class="node"><title>045</title>
<ellipse fill="#ff8a8a" stroke="#b43f3f" cx="585" cy="-105" rx="36.2938" ry="18"/>
<text text-anchor="middle" x="585" y="-101.3" font-family="Times,serif" font-size="14.00">045 (a)</text>
</g>
<!-- 063&#45;&gt;045 -->
<g id="edge17" class="edge"><title>063&#45;&gt;045</title>
<path fill="none" stroke="#b43f3f" stroke-dasharray="1,5" d="M585,-173.799C585,-162.163 585,-146.548 585,-133.237"/>
<polygon fill="#b43f3f" stroke="#b43f3f" points="588.5,-133.175 585,-123.175 581.5,-133.175 588.5,-133.175"/>
<text text-anchor="middle" x="607" y="-144.8" font-family="Times,serif" font-size="14.00">1 (93.1)</text>
</g>
<!-- 021 -->
<g id="node21" class="node"><title>021</title>
<ellipse fill="#ff8a8a" stroke="#b43f3f" cx="676" cy="-105" rx="36.2938" ry="18"/>
<text text-anchor="middle" x="676" y="-101.3" font-family="Times,serif" font-size="14.00">021 (a)</text>
</g>
<!-- 063&#45;&gt;021 -->
<g id="edge18" class="edge"><title>063&#45;&gt;021</title>
<path fill="none" stroke="#b43f3f" stroke-dasharray="1,5" d="M606.372,-177.006C614.992,-170.963 624.814,-163.554 633,-156 641.544,-148.115 650.076,-138.619 657.26,-130.029"/>
<polygon fill="#b43f3f" stroke="#b43f3f" points="660.077,-132.113 663.692,-122.155 654.656,-127.685 660.077,-132.113"/>
<text text-anchor="middle" x="669" y="-144.8" font-family="Times,serif" font-size="14.00">1 (93.1)</text>
</g>
<!-- 028 -->
<g id="node22" class="node"><title>028</title>
<ellipse fill="#ff8a8a" stroke="#b43f3f" cx="767" cy="-105" rx="36.2938" ry="18"/>
<text text-anchor="middle" x="767" y="-101.3" font-family="Times,serif" font-size="14.00">028 (a)</text>
</g>
<!-- 063&#45;&gt;028 -->
<g id="edge19" class="edge"><title>063&#45;&gt;028</title>
<path fill="none" stroke="#b43f3f" stroke-dasharray="1,5" d="M613.095,-180.213C618.98,-178.067 625.17,-175.894 631,-174 659.103,-164.871 668.274,-168.601 695,-156 711.26,-148.334 727.844,-137.096 740.992,-127.216"/>
<polygon fill="#b43f3f" stroke="#b43f3f" points="743.312,-129.847 749.097,-120.97 739.039,-124.302 743.312,-129.847"/>
<text text-anchor="middle" x="743" y="-144.8" font-family="Times,serif" font-size="14.00">1 (96.6)</text>
</g>
<!-- 036 -->
<g id="node26" class="node"><title>036</title>
<ellipse fill="#ff8a8a" stroke="#b43f3f" cx="676" cy="-18" rx="36.2938" ry="18"/>
<text text-anchor="middle" x="676" y="-14.3" font-family="Times,serif" font-size="14.00">036 (a)</text>
</g>
<!-- 021&#45;&gt;036 -->
<g id="edge22" class="edge"><title>021&#45;&gt;036</title>
<path fill="none" stroke="#b43f3f" stroke-dasharray="1,5" d="M676,-86.799C676,-75.1626 676,-59.5479 676,-46.2368"/>
<polygon fill="#b43f3f" stroke="#b43f3f" points="679.5,-46.1754 676,-36.1754 672.5,-46.1755 679.5,-46.1754"/>
<text text-anchor="middle" x="698" y="-57.8" font-family="Times,serif" font-size="14.00">1 (97.6)</text>
</g>
<!-- 047 -->
<g id="node27" class="node"><title>047</title>
<ellipse fill="#ff8a8a" stroke="#b43f3f" cx="767" cy="-18" rx="36.2938" ry="18"/>
<text text-anchor="middle" x="767" y="-14.3" font-family="Times,serif" font-size="14.00">047 (a)</text>
</g>
<!-- 021&#45;&gt;047 -->
<g id="edge23" class="edge"><title>021&#45;&gt;047</title>
<path fill="none" stroke="#b43f3f" stroke-dasharray="1,5" d="M697.372,-90.006C705.992,-83.9634 715.814,-76.5539 724,-69 732.544,-61.1154 741.076,-51.6186 748.26,-43.0293"/>
<polygon fill="#b43f3f" stroke="#b43f3f" points="751.077,-45.1135 754.692,-35.1545 745.656,-40.6853 751.077,-45.1135"/>
<text text-anchor="middle" x="760" y="-57.8" font-family="Times,serif" font-size="14.00">1 (95.1)</text>
</g>
<!-- 091 -->
<g id="node23" class="node"><title>091</title>
<ellipse fill="#ff8a8a" stroke="#b43f3f" cx="725" cy="-279" rx="36.2938" ry="18"/>
<text text-anchor="middle" x="725" y="-275.3" font-family="Times,serif" font-size="14.00">091 (a)</text>
</g>
<!-- 0211 -->
<g id="node24" class="node"><title>0211</title>
<ellipse fill="#ff8a8a" stroke="#b43f3f" cx="680" cy="-192" rx="40.0939" ry="18"/>
<text text-anchor="middle" x="680" y="-188.3" font-family="Times,serif" font-size="14.00">0211 (a)</text>
</g>
<!-- 091&#45;&gt;0211 -->
<g id="edge20" class="edge"><title>091&#45;&gt;0211</title>
<path fill="none" stroke="#b43f3f" stroke-dasharray="1,5" d="M714.639,-261.448C711.142,-255.676 707.293,-249.114 704,-243 699.846,-235.285 695.612,-226.737 691.881,-218.923"/>
<polygon fill="#b43f3f" stroke="#b43f3f" points="695.042,-217.42 687.617,-209.861 688.708,-220.4 695.042,-217.42"/>
<text text-anchor="middle" x="726" y="-231.8" font-family="Times,serif" font-size="14.00">1 (83.3)</text>
</g>
<!-- 05 -->
<g id="node25" class="node"><title>05</title>
<ellipse fill="#ff8a8a" stroke="#b43f3f" cx="770" cy="-192" rx="31.6951" ry="18"/>
<text text-anchor="middle" x="770" y="-188.3" font-family="Times,serif" font-size="14.00">05 (a)</text>
</g>
<!-- 091&#45;&gt;05 -->
<g id="edge21" class="edge"><title>091&#45;&gt;05</title>
<path fill="none" stroke="#b43f3f" stroke-dasharray="1,5" d="M736.58,-261.614C740.429,-255.857 744.597,-249.26 748,-243 752.077,-235.501 756.006,-227.095 759.388,-219.347"/>
<polygon fill="#b43f3f" stroke="#b43f3f" points="762.669,-220.574 763.348,-210.001 756.224,-217.843 762.669,-220.574"/>
<text text-anchor="middle" x="778" y="-231.8" font-family="Times,serif" font-size="14.00">1 (87.5)</text>
</g>
<!-- P75 -->
<g id="node28" class="node"><title>P75</title>
<ellipse fill="#ff8a8a" stroke="#b43f3f" cx="816" cy="-279" rx="36.2938" ry="18"/>
<text text-anchor="middle" x="816" y="-275.3" font-family="Times,serif" font-size="14.00">P75 (a)</text>
</g>
<!-- 038 -->
<g id="node29" class="node"><title>038</title>
<ellipse fill="#cea8f4" stroke="#835da9" cx="907" cy="-279" rx="36.2938" ry="18"/>
<text text-anchor="middle" x="907" y="-275.3" font-family="Times,serif" font-size="14.00">038 (b)</text>
</g>
<!-- 01 -->
<g id="node30" class="node"><title>01</title>
<ellipse fill="#72fe95" stroke="#27b34a" cx="993" cy="-279" rx="31.6951" ry="18"/>
<text text-anchor="middle" x="993" y="-275.3" font-family="Times,serif" font-size="14.00">01 (c)</text>
</g>
</g>
</svg>
