<?xml version="1.0" encoding="UTF-8" standalone="no"?>
<!DOCTYPE svg PUBLIC "-//W3C//DTD SVG 1.1//EN"
 "http://www.w3.org/Graphics/SVG/1.1/DTD/svg11.dtd">
<!-- Generated by graphviz version 2.38.0 (20140413.2041)
 -->
<!-- Title: %3 Pages: 1 -->
<svg width="807pt" height="408pt"
 viewBox="0.00 0.00 806.79 408.00" xmlns="http://www.w3.org/2000/svg" xmlns:xlink="http://www.w3.org/1999/xlink">
<g id="graph0" class="graph" transform="scale(1 1) rotate(0) translate(4 404)">
<title>%3</title>
<polygon fill="white" stroke="none" points="-4,4 -4,-404 802.794,-404 802.794,4 -4,4"/>
<g id="clust1" class="cluster"><title>cluster_legend</title>
<path fill="none" stroke="black" d="M28.3968,-264C28.3968,-264 218.397,-264 218.397,-264 224.397,-264 230.397,-270 230.397,-276 230.397,-276 230.397,-380 230.397,-380 230.397,-386 224.397,-392 218.397,-392 218.397,-392 28.3968,-392 28.3968,-392 22.3968,-392 16.3968,-386 16.3968,-380 16.3968,-380 16.3968,-276 16.3968,-276 16.3968,-270 22.3968,-264 28.3968,-264"/>
</g>
<!-- leg_s -->
<g id="node1" class="node"><title>leg_s</title>
<text text-anchor="middle" x="123.397" y="-362.3" font-family="Times,serif" font-size="14.00">Textual flow strength</text>
</g>
<!-- leg_e1 -->
<!-- leg_s&#45;&gt;leg_e1 -->
<g id="edge1" class="edge"><title>leg_s&#45;&gt;leg_e1</title>
<path fill="none" stroke="black" stroke-dasharray="1,5" d="M105.062,-347.686C99.5292,-342.194 93.5575,-335.989 88.3968,-330 78.5676,-318.593 68.469,-304.779 61.3105,-294.563"/>
<polygon fill="black" stroke="black" points="64.011,-292.314 55.4528,-286.068 58.2482,-296.288 64.011,-292.314"/>
<text text-anchor="middle" x="103.897" y="-318.8" font-family="Times,serif" font-size="14.00">&lt;=5 &#160;</text>
</g>
<!-- leg_e2 -->
<!-- leg_s&#45;&gt;leg_e2 -->
<g id="edge2" class="edge"><title>leg_s&#45;&gt;leg_e2</title>
<path fill="none" stroke="black" stroke-dasharray="5,2" d="M123.397,-347.799C123.397,-332.794 123.397,-311.174 123.397,-296.409"/>
<polygon fill="black" stroke="black" points="126.897,-296.293 123.397,-286.293 119.897,-296.293 126.897,-296.293"/>
<text text-anchor="middle" x="142.397" y="-318.8" font-family="Times,serif" font-size="14.00"> &#160;&lt;=25</text>
</g>
<!-- leg_e3 -->
<!-- leg_s&#45;&gt;leg_e3 -->
<g id="edge3" class="edge"><title>leg_s&#45;&gt;leg_e3</title>
<path fill="none" stroke="black" d="M146.9,-347.76C153.303,-342.462 159.963,-336.344 165.397,-330 174.484,-319.39 182.492,-305.689 187.943,-295.313"/>
<polygon fill="black" stroke="black" points="191.119,-296.789 192.488,-286.283 184.866,-293.642 191.119,-296.789"/>
<text text-anchor="middle" x="187.397" y="-318.8" font-family="Times,serif" font-size="14.00">&gt;25</text>
</g>
<!-- A -->
<g id="node5" class="node"><title>A</title>
<ellipse fill="#ff8a8a" stroke="#b43f3f" cx="448.397" cy="-366" rx="29.4969" ry="18"/>
<text text-anchor="middle" x="448.397" y="-362.3" font-family="Times,serif" font-size="14.00">A (a)</text>
</g>
<!-- P75 -->
<g id="node6" class="node"><title>P75</title>
<ellipse fill="#ff8a8a" stroke="#b43f3f" cx="276.397" cy="-279" rx="36.2938" ry="18"/>
<text text-anchor="middle" x="276.397" y="-275.3" font-family="Times,serif" font-size="14.00">P75 (a)</text>
</g>
<!-- A&#45;&gt;P75 -->
<g id="edge4" class="edge"><title>A&#45;&gt;P75</title>
<path fill="none" stroke="#b43f3f" stroke-dasharray="1,5" d="M421.159,-358.989C398.664,-353.373 366.333,-343.777 340.397,-330 326.168,-322.442 311.891,-311.669 300.443,-302.058"/>
<polygon fill="#b43f3f" stroke="#b43f3f" points="302.505,-299.214 292.648,-295.327 297.93,-304.512 302.505,-299.214"/>
<text text-anchor="middle" x="362.397" y="-318.8" font-family="Times,serif" font-size="14.00">1 (93.3)</text>
</g>
<!-- 03 -->
<g id="node7" class="node"><title>03</title>
<ellipse fill="#ff8a8a" stroke="#b43f3f" cx="362.397" cy="-279" rx="31.6951" ry="18"/>
<text text-anchor="middle" x="362.397" y="-275.3" font-family="Times,serif" font-size="14.00">03 (a)</text>
</g>
<!-- A&#45;&gt;03 -->
<g id="edge5" class="edge"><title>A&#45;&gt;03</title>
<path fill="none" stroke="#b43f3f" stroke-dasharray="1,5" d="M428.697,-352.561C419.596,-346.347 408.94,-338.375 400.397,-330 392.572,-322.329 385.035,-312.975 378.765,-304.442"/>
<polygon fill="#b43f3f" stroke="#b43f3f" points="381.603,-302.394 372.954,-296.275 375.899,-306.452 381.603,-302.394"/>
<text text-anchor="middle" x="422.397" y="-318.8" font-family="Times,serif" font-size="14.00">1 (93.3)</text>
</g>
<!-- 019 -->
<g id="node8" class="node"><title>019</title>
<ellipse fill="#ff8a8a" stroke="#b43f3f" cx="448.397" cy="-279" rx="36.2938" ry="18"/>
<text text-anchor="middle" x="448.397" y="-275.3" font-family="Times,serif" font-size="14.00">019 (a)</text>
</g>
<!-- A&#45;&gt;019 -->
<g id="edge6" class="edge"><title>A&#45;&gt;019</title>
<path fill="none" stroke="#b43f3f" stroke-dasharray="1,5" d="M448.397,-347.799C448.397,-336.163 448.397,-320.548 448.397,-307.237"/>
<polygon fill="#b43f3f" stroke="#b43f3f" points="451.897,-307.175 448.397,-297.175 444.897,-307.175 451.897,-307.175"/>
<text text-anchor="middle" x="470.397" y="-318.8" font-family="Times,serif" font-size="14.00">1 (93.3)</text>
</g>
<!-- 091 -->
<g id="node9" class="node"><title>091</title>
<ellipse fill="#ff8a8a" stroke="#b43f3f" cx="541.397" cy="-279" rx="36.2938" ry="18"/>
<text text-anchor="middle" x="541.397" y="-275.3" font-family="Times,serif" font-size="14.00">091 (a)</text>
</g>
<!-- A&#45;&gt;091 -->
<g id="edge7" class="edge"><title>A&#45;&gt;091</title>
<path fill="none" stroke="#b43f3f" stroke-dasharray="1,5" d="M467.792,-352.236C476.826,-345.951 487.514,-338.014 496.397,-330 505.293,-321.974 514.286,-312.351 521.869,-303.7"/>
<polygon fill="#b43f3f" stroke="#b43f3f" points="524.535,-305.968 528.394,-296.101 519.224,-301.408 524.535,-305.968"/>
<text text-anchor="middle" x="533.397" y="-318.8" font-family="Times,serif" font-size="14.00">1 (87.5)</text>
</g>
<!-- 01 -->
<g id="node10" class="node"><title>01</title>
<ellipse fill="#ff8a8a" stroke="#b43f3f" cx="627.397" cy="-279" rx="31.6951" ry="18"/>
<text text-anchor="middle" x="627.397" y="-275.3" font-family="Times,serif" font-size="14.00">01 (a)</text>
</g>
<!-- A&#45;&gt;01 -->
<g id="edge8" class="edge"><title>A&#45;&gt;01</title>
<path fill="none" stroke="#b43f3f" stroke-dasharray="5,2" d="M475.828,-359.024C498.907,-353.378 532.37,-343.719 559.397,-330 574.791,-322.186 590.417,-310.974 602.802,-301.148"/>
<polygon fill="#b43f3f" stroke="#b43f3f" points="605.27,-303.652 610.816,-294.624 600.851,-298.223 605.27,-303.652"/>
<text text-anchor="middle" x="605.397" y="-318.8" font-family="Times,serif" font-size="14.00">1 (57.1)</text>
</g>
<!-- 044 -->
<g id="node22" class="node"><title>044</title>
<ellipse fill="#ff8a8a" stroke="#b43f3f" cx="131.397" cy="-192" rx="36.2938" ry="18"/>
<text text-anchor="middle" x="131.397" y="-188.3" font-family="Times,serif" font-size="14.00">044 (a)</text>
</g>
<!-- 03&#45;&gt;044 -->
<g id="edge19" class="edge"><title>03&#45;&gt;044</title>
<path fill="none" stroke="#b43f3f" stroke-dasharray="1,5" d="M337.88,-267.224C332.499,-265.031 326.795,-262.836 321.397,-261 292.204,-251.074 283.623,-252.824 254.397,-243 224.306,-232.885 190.994,-219.183 166.635,-208.68"/>
<polygon fill="#b43f3f" stroke="#b43f3f" points="168.002,-205.458 157.436,-204.683 165.212,-211.878 168.002,-205.458"/>
<text text-anchor="middle" x="276.397" y="-231.8" font-family="Times,serif" font-size="14.00">1 (89.2)</text>
</g>
<!-- 032 -->
<g id="node23" class="node"><title>032</title>
<ellipse fill="#ff8a8a" stroke="#b43f3f" cx="276.397" cy="-192" rx="36.2938" ry="18"/>
<text text-anchor="middle" x="276.397" y="-188.3" font-family="Times,serif" font-size="14.00">032 (a)</text>
</g>
<!-- 03&#45;&gt;032 -->
<g id="edge20" class="edge"><title>03&#45;&gt;032</title>
<path fill="none" stroke="#b43f3f" stroke-dasharray="1,5" d="M341.75,-264.912C332.864,-258.796 322.645,-251.086 314.397,-243 306.572,-235.329 299.035,-225.975 292.765,-217.442"/>
<polygon fill="#b43f3f" stroke="#b43f3f" points="295.603,-215.394 286.954,-209.275 289.899,-219.452 295.603,-215.394"/>
<text text-anchor="middle" x="336.397" y="-231.8" font-family="Times,serif" font-size="14.00">1 (91.7)</text>
</g>
<!-- 02 -->
<g id="node24" class="node"><title>02</title>
<ellipse fill="#ff8a8a" stroke="#b43f3f" cx="362.397" cy="-192" rx="31.6951" ry="18"/>
<text text-anchor="middle" x="362.397" y="-188.3" font-family="Times,serif" font-size="14.00">02 (a)</text>
</g>
<!-- 03&#45;&gt;02 -->
<g id="edge21" class="edge"><title>03&#45;&gt;02</title>
<path fill="none" stroke="#b43f3f" stroke-dasharray="1,5" d="M362.397,-260.799C362.397,-249.163 362.397,-233.548 362.397,-220.237"/>
<polygon fill="#b43f3f" stroke="#b43f3f" points="365.897,-220.175 362.397,-210.175 358.897,-220.175 365.897,-220.175"/>
<text text-anchor="middle" x="384.397" y="-231.8" font-family="Times,serif" font-size="14.00">1 (86.5)</text>
</g>
<!-- 063 -->
<g id="node11" class="node"><title>063</title>
<ellipse fill="#ff8a8a" stroke="#b43f3f" cx="448.397" cy="-192" rx="36.2938" ry="18"/>
<text text-anchor="middle" x="448.397" y="-188.3" font-family="Times,serif" font-size="14.00">063 (a)</text>
</g>
<!-- 019&#45;&gt;063 -->
<g id="edge24" class="edge"><title>019&#45;&gt;063</title>
<path fill="none" stroke="#b43f3f" stroke-dasharray="1,5" d="M448.397,-260.799C448.397,-249.163 448.397,-233.548 448.397,-220.237"/>
<polygon fill="#b43f3f" stroke="#b43f3f" points="451.897,-220.175 448.397,-210.175 444.897,-220.175 451.897,-220.175"/>
<text text-anchor="middle" x="470.397" y="-231.8" font-family="Times,serif" font-size="14.00">1 (85.7)</text>
</g>
<!-- 0211 -->
<g id="node30" class="node"><title>0211</title>
<ellipse fill="#ff8a8a" stroke="#b43f3f" cx="543.397" cy="-192" rx="40.0939" ry="18"/>
<text text-anchor="middle" x="543.397" y="-188.3" font-family="Times,serif" font-size="14.00">0211 (a)</text>
</g>
<!-- 091&#45;&gt;0211 -->
<g id="edge28" class="edge"><title>091&#45;&gt;0211</title>
<path fill="none" stroke="#b43f3f" stroke-dasharray="1,5" d="M541.802,-260.799C542.075,-249.163 542.443,-233.548 542.756,-220.237"/>
<polygon fill="#b43f3f" stroke="#b43f3f" points="546.256,-220.255 542.993,-210.175 539.258,-220.09 546.256,-220.255"/>
<text text-anchor="middle" x="565.397" y="-231.8" font-family="Times,serif" font-size="14.00">1 (83.3)</text>
</g>
<!-- 05 -->
<g id="node31" class="node"><title>05</title>
<ellipse fill="#cea8f4" stroke="#835da9" cx="723.397" cy="-192" rx="32.4942" ry="18"/>
<text text-anchor="middle" x="723.397" y="-188.3" font-family="Times,serif" font-size="14.00">05 (b)</text>
</g>
<!-- 091&#45;&gt;05 -->
<g id="edge29" class="edge"><title>091&#45;&gt;05</title>
<path fill="none" stroke="#835da9" stroke-dasharray="1,5" d="M567.087,-266.002C599.241,-250.985 654.386,-225.23 689.845,-208.67"/>
<polygon fill="#835da9" stroke="#835da9" points="691.709,-211.662 699.288,-204.26 688.746,-205.32 691.709,-211.662"/>
<text text-anchor="middle" x="665.397" y="-231.8" font-family="Times,serif" font-size="14.00">1 (87.5)</text>
</g>
<!-- 07 -->
<g id="node12" class="node"><title>07</title>
<ellipse fill="#ff8a8a" stroke="#b43f3f" cx="221.397" cy="-105" rx="31.6951" ry="18"/>
<text text-anchor="middle" x="221.397" y="-101.3" font-family="Times,serif" font-size="14.00">07 (a)</text>
</g>
<!-- 063&#45;&gt;07 -->
<g id="edge9" class="edge"><title>063&#45;&gt;07</title>
<path fill="none" stroke="#b43f3f" stroke-dasharray="1,5" d="M421.07,-179.709C415.301,-177.6 409.202,-175.569 403.397,-174 356.843,-161.419 341.228,-173.768 296.397,-156 278.446,-148.886 260.375,-137.013 246.471,-126.623"/>
<polygon fill="#b43f3f" stroke="#b43f3f" points="248.449,-123.728 238.39,-120.4 244.178,-129.275 248.449,-123.728"/>
<text text-anchor="middle" x="318.397" y="-144.8" font-family="Times,serif" font-size="14.00">1 (96.6)</text>
</g>
<!-- 028 -->
<g id="node13" class="node"><title>028</title>
<ellipse fill="#ff8a8a" stroke="#b43f3f" cx="307.397" cy="-105" rx="36.2938" ry="18"/>
<text text-anchor="middle" x="307.397" y="-101.3" font-family="Times,serif" font-size="14.00">028 (a)</text>
</g>
<!-- 063&#45;&gt;028 -->
<g id="edge10" class="edge"><title>063&#45;&gt;028</title>
<path fill="none" stroke="#b43f3f" stroke-dasharray="1,5" d="M420.197,-180.383C399.774,-172.483 374.117,-162.059 364.397,-156 352.056,-148.307 339.752,-137.943 329.751,-128.646"/>
<polygon fill="#b43f3f" stroke="#b43f3f" points="331.914,-125.871 322.267,-121.49 327.076,-130.93 331.914,-125.871"/>
<text text-anchor="middle" x="386.397" y="-144.8" font-family="Times,serif" font-size="14.00">1 (96.6)</text>
</g>
<!-- 021 -->
<g id="node14" class="node"><title>021</title>
<ellipse fill="#ff8a8a" stroke="#b43f3f" cx="398.397" cy="-105" rx="36.2938" ry="18"/>
<text text-anchor="middle" x="398.397" y="-101.3" font-family="Times,serif" font-size="14.00">021 (a)</text>
</g>
<!-- 063&#45;&gt;021 -->
<g id="edge11" class="edge"><title>063&#45;&gt;021</title>
<path fill="none" stroke="#b43f3f" stroke-dasharray="1,5" d="M433.771,-175.368C428.806,-169.566 423.486,-162.749 419.397,-156 414.937,-148.64 410.985,-140.161 407.746,-132.301"/>
<polygon fill="#b43f3f" stroke="#b43f3f" points="410.937,-130.85 404.041,-122.807 404.416,-133.395 410.937,-130.85"/>
<text text-anchor="middle" x="441.397" y="-144.8" font-family="Times,serif" font-size="14.00">1 (93.1)</text>
</g>
<!-- 045 -->
<g id="node15" class="node"><title>045</title>
<ellipse fill="#ff8a8a" stroke="#b43f3f" cx="489.397" cy="-105" rx="36.2938" ry="18"/>
<text text-anchor="middle" x="489.397" y="-101.3" font-family="Times,serif" font-size="14.00">045 (a)</text>
</g>
<!-- 063&#45;&gt;045 -->
<g id="edge12" class="edge"><title>063&#45;&gt;045</title>
<path fill="none" stroke="#b43f3f" stroke-dasharray="1,5" d="M456.497,-174.207C462.281,-162.216 470.174,-145.851 476.78,-132.157"/>
<polygon fill="#b43f3f" stroke="#b43f3f" points="480.121,-133.286 481.313,-122.758 473.816,-130.245 480.121,-133.286"/>
<text text-anchor="middle" x="493.397" y="-144.8" font-family="Times,serif" font-size="14.00">1 (93.1)</text>
</g>
<!-- 031 -->
<g id="node16" class="node"><title>031</title>
<ellipse fill="#ff8a8a" stroke="#b43f3f" cx="580.397" cy="-105" rx="36.2938" ry="18"/>
<text text-anchor="middle" x="580.397" y="-101.3" font-family="Times,serif" font-size="14.00">031 (a)</text>
</g>
<!-- 063&#45;&gt;031 -->
<g id="edge13" class="edge"><title>063&#45;&gt;031</title>
<path fill="none" stroke="#b43f3f" stroke-dasharray="1,5" d="M475.144,-179.579C488.792,-173.317 505.418,-165.006 519.397,-156 532.239,-147.727 545.473,-137.168 556.318,-127.888"/>
<polygon fill="#b43f3f" stroke="#b43f3f" points="558.865,-130.311 564.1,-121.1 554.264,-125.036 558.865,-130.311"/>
<text text-anchor="middle" x="561.397" y="-144.8" font-family="Times,serif" font-size="14.00">1 (95.8)</text>
</g>
<!-- 011 -->
<g id="node17" class="node"><title>011</title>
<ellipse fill="#ff8a8a" stroke="#b43f3f" cx="671.397" cy="-105" rx="36.2938" ry="18"/>
<text text-anchor="middle" x="671.397" y="-101.3" font-family="Times,serif" font-size="14.00">011 (a)</text>
</g>
<!-- 063&#45;&gt;011 -->
<g id="edge14" class="edge"><title>063&#45;&gt;011</title>
<path fill="none" stroke="#b43f3f" stroke-dasharray="1,5" d="M475.887,-180.012C481.926,-177.832 488.329,-175.696 494.397,-174 534.943,-162.665 548.055,-170.99 587.397,-156 607.017,-148.524 627.292,-136.596 643.007,-126.265"/>
<polygon fill="#b43f3f" stroke="#b43f3f" points="645.355,-128.903 651.693,-120.413 641.444,-123.098 645.355,-128.903"/>
<text text-anchor="middle" x="641.397" y="-144.8" font-family="Times,serif" font-size="14.00">1 (93.1)</text>
</g>
<!-- 037 -->
<g id="node18" class="node"><title>037</title>
<ellipse fill="#ff8a8a" stroke="#b43f3f" cx="125.397" cy="-18" rx="36.2938" ry="18"/>
<text text-anchor="middle" x="125.397" y="-14.3" font-family="Times,serif" font-size="14.00">037 (a)</text>
</g>
<!-- 07&#45;&gt;037 -->
<g id="edge15" class="edge"><title>07&#45;&gt;037</title>
<path fill="none" stroke="#b43f3f" stroke-dasharray="1,5" d="M200.702,-90.9829C191.396,-84.7655 180.487,-76.9548 171.397,-69 162.29,-61.0308 153.095,-51.4187 145.344,-42.7604"/>
<polygon fill="#b43f3f" stroke="#b43f3f" points="147.9,-40.3659 138.677,-35.1516 142.635,-44.9793 147.9,-40.3659"/>
<text text-anchor="middle" x="193.397" y="-57.8" font-family="Times,serif" font-size="14.00">1 (97.5)</text>
</g>
<!-- 030 -->
<g id="node19" class="node"><title>030</title>
<ellipse fill="#ff8a8a" stroke="#b43f3f" cx="216.397" cy="-18" rx="36.2938" ry="18"/>
<text text-anchor="middle" x="216.397" y="-14.3" font-family="Times,serif" font-size="14.00">030 (a)</text>
</g>
<!-- 07&#45;&gt;030 -->
<g id="edge16" class="edge"><title>07&#45;&gt;030</title>
<path fill="none" stroke="#b43f3f" stroke-dasharray="1,5" d="M220.385,-86.799C219.7,-75.1626 218.782,-59.5479 217.999,-46.2368"/>
<polygon fill="#b43f3f" stroke="#b43f3f" points="221.488,-45.9526 217.407,-36.1754 214.5,-46.3637 221.488,-45.9526"/>
<text text-anchor="middle" x="241.397" y="-57.8" font-family="Times,serif" font-size="14.00">1 (95.1)</text>
</g>
<!-- 034 -->
<g id="node20" class="node"><title>034</title>
<ellipse fill="#ff8a8a" stroke="#b43f3f" cx="307.397" cy="-18" rx="36.2938" ry="18"/>
<text text-anchor="middle" x="307.397" y="-14.3" font-family="Times,serif" font-size="14.00">034 (a)</text>
</g>
<!-- 07&#45;&gt;034 -->
<g id="edge17" class="edge"><title>07&#45;&gt;034</title>
<path fill="none" stroke="#b43f3f" stroke-dasharray="1,5" d="M241.052,-90.6873C249.543,-84.5305 259.353,-76.8501 267.397,-69 275.392,-61.1968 283.275,-51.8144 289.901,-43.2954"/>
<polygon fill="#b43f3f" stroke="#b43f3f" points="292.818,-45.2397 296.065,-35.1546 287.238,-41.0138 292.818,-45.2397"/>
<text text-anchor="middle" x="303.397" y="-57.8" font-family="Times,serif" font-size="14.00">1 (95.1)</text>
</g>
<!-- 036 -->
<g id="node21" class="node"><title>036</title>
<ellipse fill="#ff8a8a" stroke="#b43f3f" cx="398.397" cy="-18" rx="36.2938" ry="18"/>
<text text-anchor="middle" x="398.397" y="-14.3" font-family="Times,serif" font-size="14.00">036 (a)</text>
</g>
<!-- 021&#45;&gt;036 -->
<g id="edge18" class="edge"><title>021&#45;&gt;036</title>
<path fill="none" stroke="#b43f3f" stroke-dasharray="1,5" d="M398.397,-86.799C398.397,-75.1626 398.397,-59.5479 398.397,-46.2368"/>
<polygon fill="#b43f3f" stroke="#b43f3f" points="401.897,-46.1754 398.397,-36.1754 394.897,-46.1755 401.897,-46.1754"/>
<text text-anchor="middle" x="420.397" y="-57.8" font-family="Times,serif" font-size="14.00">1 (97.6)</text>
</g>
<!-- 038 -->
<g id="node27" class="node"><title>038</title>
<ellipse fill="#ff8a8a" stroke="#b43f3f" cx="489.397" cy="-18" rx="36.2938" ry="18"/>
<text text-anchor="middle" x="489.397" y="-14.3" font-family="Times,serif" font-size="14.00">038 (a)</text>
</g>
<!-- 045&#45;&gt;038 -->
<g id="edge25" class="edge"><title>045&#45;&gt;038</title>
<path fill="none" stroke="#b43f3f" stroke-dasharray="1,5" d="M489.397,-86.799C489.397,-75.1626 489.397,-59.5479 489.397,-46.2368"/>
<polygon fill="#b43f3f" stroke="#b43f3f" points="492.897,-46.1754 489.397,-36.1754 485.897,-46.1755 492.897,-46.1754"/>
<text text-anchor="middle" x="511.397" y="-57.8" font-family="Times,serif" font-size="14.00">1 (92.7)</text>
</g>
<!-- 017 -->
<g id="node28" class="node"><title>017</title>
<ellipse fill="#ff8a8a" stroke="#b43f3f" cx="580.397" cy="-18" rx="36.2938" ry="18"/>
<text text-anchor="middle" x="580.397" y="-14.3" font-family="Times,serif" font-size="14.00">017 (a)</text>
</g>
<!-- 031&#45;&gt;017 -->
<g id="edge26" class="edge"><title>031&#45;&gt;017</title>
<path fill="none" stroke="#b43f3f" stroke-dasharray="1,5" d="M580.397,-86.799C580.397,-75.1626 580.397,-59.5479 580.397,-46.2368"/>
<polygon fill="#b43f3f" stroke="#b43f3f" points="583.897,-46.1754 580.397,-36.1754 576.897,-46.1755 583.897,-46.1754"/>
<text text-anchor="middle" x="602.397" y="-57.8" font-family="Times,serif" font-size="14.00">1 (94.3)</text>
</g>
<!-- 013 -->
<g id="node29" class="node"><title>013</title>
<ellipse fill="#ff8a8a" stroke="#b43f3f" cx="671.397" cy="-18" rx="36.2938" ry="18"/>
<text text-anchor="middle" x="671.397" y="-14.3" font-family="Times,serif" font-size="14.00">013 (a)</text>
</g>
<!-- 031&#45;&gt;013 -->
<g id="edge27" class="edge"><title>031&#45;&gt;013</title>
<path fill="none" stroke="#b43f3f" stroke-dasharray="1,5" d="M601.768,-90.006C610.389,-83.9634 620.211,-76.5539 628.397,-69 636.941,-61.1154 645.472,-51.6186 652.657,-43.0293"/>
<polygon fill="#b43f3f" stroke="#b43f3f" points="655.474,-45.1135 659.089,-35.1545 650.053,-40.6853 655.474,-45.1135"/>
<text text-anchor="middle" x="664.397" y="-57.8" font-family="Times,serif" font-size="14.00">1 (97.1)</text>
</g>
<!-- 022 -->
<g id="node25" class="node"><title>022</title>
<ellipse fill="#ff8a8a" stroke="#b43f3f" cx="36.3968" cy="-105" rx="36.2938" ry="18"/>
<text text-anchor="middle" x="36.3968" y="-101.3" font-family="Times,serif" font-size="14.00">022 (a)</text>
</g>
<!-- 044&#45;&gt;022 -->
<g id="edge22" class="edge"><title>044&#45;&gt;022</title>
<path fill="none" stroke="#b43f3f" stroke-dasharray="1,5" d="M110.667,-177.159C101.96,-171.025 91.902,-163.508 83.3968,-156 74.2334,-147.911 64.8661,-138.276 56.93,-129.632"/>
<polygon fill="#b43f3f" stroke="#b43f3f" points="59.3864,-127.129 50.0911,-122.045 54.1871,-131.816 59.3864,-127.129"/>
<text text-anchor="middle" x="105.397" y="-144.8" font-family="Times,serif" font-size="14.00">1 (91.7)</text>
</g>
<!-- 0141 -->
<g id="node26" class="node"><title>0141</title>
<ellipse fill="#ff8a8a" stroke="#b43f3f" cx="131.397" cy="-105" rx="40.0939" ry="18"/>
<text text-anchor="middle" x="131.397" y="-101.3" font-family="Times,serif" font-size="14.00">0141 (a)</text>
</g>
<!-- 044&#45;&gt;0141 -->
<g id="edge23" class="edge"><title>044&#45;&gt;0141</title>
<path fill="none" stroke="#b43f3f" stroke-dasharray="1,5" d="M131.397,-173.799C131.397,-162.163 131.397,-146.548 131.397,-133.237"/>
<polygon fill="#b43f3f" stroke="#b43f3f" points="134.897,-133.175 131.397,-123.175 127.897,-133.175 134.897,-133.175"/>
<text text-anchor="middle" x="153.397" y="-144.8" font-family="Times,serif" font-size="14.00">1 (89.2)</text>
</g>
<!-- 047 -->
<g id="node32" class="node"><title>047</title>
<ellipse fill="#cea8f4" stroke="#835da9" cx="762.397" cy="-105" rx="36.2938" ry="18"/>
<text text-anchor="middle" x="762.397" y="-101.3" font-family="Times,serif" font-size="14.00">047 (b)</text>
</g>
<!-- 05&#45;&gt;047 -->
<g id="edge30" class="edge"><title>05&#45;&gt;047</title>
<path fill="none" stroke="#835da9" stroke-dasharray="1,5" d="M731.102,-174.207C736.604,-162.216 744.112,-145.851 750.395,-132.157"/>
<polygon fill="#835da9" stroke="#835da9" points="753.718,-133.307 754.708,-122.758 747.356,-130.388 753.718,-133.307"/>
<text text-anchor="middle" x="770.897" y="-144.8" font-family="Times,serif" font-size="14.00">24 (67.6)</text>
</g>
</g>
</svg>
