<?xml version="1.0" encoding="UTF-8" standalone="no"?>
<!DOCTYPE svg PUBLIC "-//W3C//DTD SVG 1.1//EN"
 "http://www.w3.org/Graphics/SVG/1.1/DTD/svg11.dtd">
<!-- Generated by graphviz version 2.38.0 (20140413.2041)
 -->
<!-- Title: %3 Pages: 1 -->
<svg width="1025pt" height="321pt"
 viewBox="0.00 0.00 1024.85 321.00" xmlns="http://www.w3.org/2000/svg" xmlns:xlink="http://www.w3.org/1999/xlink">
<g id="graph0" class="graph" transform="scale(1 1) rotate(0) translate(4 317)">
<title>%3</title>
<polygon fill="white" stroke="none" points="-4,4 -4,-317 1020.85,-317 1020.85,4 -4,4"/>
<g id="clust1" class="cluster"><title>cluster_legend</title>
<path fill="none" stroke="black" d="M20,-177C20,-177 210,-177 210,-177 216,-177 222,-183 222,-189 222,-189 222,-293 222,-293 222,-299 216,-305 210,-305 210,-305 20,-305 20,-305 14,-305 8,-299 8,-293 8,-293 8,-189 8,-189 8,-183 14,-177 20,-177"/>
</g>
<!-- leg_s -->
<g id="node1" class="node"><title>leg_s</title>
<text text-anchor="middle" x="115" y="-275.3" font-family="Times,serif" font-size="14.00">Textual flow strength</text>
</g>
<!-- leg_e1 -->
<!-- leg_s&#45;&gt;leg_e1 -->
<g id="edge1" class="edge"><title>leg_s&#45;&gt;leg_e1</title>
<path fill="none" stroke="black" stroke-dasharray="1,5" d="M96.6657,-260.686C91.1324,-255.194 85.1607,-248.989 80,-243 70.1708,-231.593 60.0722,-217.779 52.9137,-207.563"/>
<polygon fill="black" stroke="black" points="55.6142,-205.314 47.056,-199.068 49.8514,-209.288 55.6142,-205.314"/>
<text text-anchor="middle" x="95.5" y="-231.8" font-family="Times,serif" font-size="14.00">&lt;=5 &#160;</text>
</g>
<!-- leg_e2 -->
<!-- leg_s&#45;&gt;leg_e2 -->
<g id="edge2" class="edge"><title>leg_s&#45;&gt;leg_e2</title>
<path fill="none" stroke="black" stroke-dasharray="5,2" d="M115,-260.799C115,-245.794 115,-224.174 115,-209.409"/>
<polygon fill="black" stroke="black" points="118.5,-209.293 115,-199.293 111.5,-209.293 118.5,-209.293"/>
<text text-anchor="middle" x="134" y="-231.8" font-family="Times,serif" font-size="14.00"> &#160;&lt;=25</text>
</g>
<!-- leg_e3 -->
<!-- leg_s&#45;&gt;leg_e3 -->
<g id="edge3" class="edge"><title>leg_s&#45;&gt;leg_e3</title>
<path fill="none" stroke="black" d="M138.503,-260.76C144.906,-255.462 151.567,-249.344 157,-243 166.087,-232.39 174.095,-218.689 179.546,-208.313"/>
<polygon fill="black" stroke="black" points="182.722,-209.789 184.091,-199.283 176.469,-206.642 182.722,-209.789"/>
<text text-anchor="middle" x="179" y="-231.8" font-family="Times,serif" font-size="14.00">&gt;25</text>
</g>
<!-- 03 -->
<g id="node5" class="node"><title>03</title>
<ellipse fill="#ff8a8a" stroke="#b43f3f" cx="354" cy="-279" rx="31.6951" ry="18"/>
<text text-anchor="middle" x="354" y="-275.3" font-family="Times,serif" font-size="14.00">03 (a)</text>
</g>
<!-- 044 -->
<g id="node6" class="node"><title>044</title>
<ellipse fill="#ff8a8a" stroke="#b43f3f" cx="268" cy="-192" rx="36.2938" ry="18"/>
<text text-anchor="middle" x="268" y="-188.3" font-family="Times,serif" font-size="14.00">044 (a)</text>
</g>
<!-- 03&#45;&gt;044 -->
<g id="edge4" class="edge"><title>03&#45;&gt;044</title>
<path fill="none" stroke="#b43f3f" stroke-dasharray="1,5" d="M333.353,-264.912C324.467,-258.796 314.248,-251.086 306,-243 298.175,-235.329 290.638,-225.975 284.368,-217.442"/>
<polygon fill="#b43f3f" stroke="#b43f3f" points="287.206,-215.394 278.557,-209.275 281.503,-219.452 287.206,-215.394"/>
<text text-anchor="middle" x="328" y="-231.8" font-family="Times,serif" font-size="14.00">1 (89.2)</text>
</g>
<!-- 02 -->
<g id="node7" class="node"><title>02</title>
<ellipse fill="#ff8a8a" stroke="#b43f3f" cx="354" cy="-192" rx="31.6951" ry="18"/>
<text text-anchor="middle" x="354" y="-188.3" font-family="Times,serif" font-size="14.00">02 (a)</text>
</g>
<!-- 03&#45;&gt;02 -->
<g id="edge5" class="edge"><title>03&#45;&gt;02</title>
<path fill="none" stroke="#b43f3f" stroke-dasharray="1,5" d="M354,-260.799C354,-249.163 354,-233.548 354,-220.237"/>
<polygon fill="#b43f3f" stroke="#b43f3f" points="357.5,-220.175 354,-210.175 350.5,-220.175 357.5,-220.175"/>
<text text-anchor="middle" x="376" y="-231.8" font-family="Times,serif" font-size="14.00">1 (86.5)</text>
</g>
<!-- 032 -->
<g id="node8" class="node"><title>032</title>
<ellipse fill="#ff8a8a" stroke="#b43f3f" cx="440" cy="-192" rx="36.2938" ry="18"/>
<text text-anchor="middle" x="440" y="-188.3" font-family="Times,serif" font-size="14.00">032 (a)</text>
</g>
<!-- 03&#45;&gt;032 -->
<g id="edge6" class="edge"><title>03&#45;&gt;032</title>
<path fill="none" stroke="#b43f3f" stroke-dasharray="1,5" d="M374.647,-264.912C383.533,-258.796 393.752,-251.086 402,-243 409.825,-235.329 417.362,-225.975 423.632,-217.442"/>
<polygon fill="#b43f3f" stroke="#b43f3f" points="426.497,-219.452 429.443,-209.275 420.794,-215.394 426.497,-219.452"/>
<text text-anchor="middle" x="437" y="-231.8" font-family="Times,serif" font-size="14.00">1 (91.7)</text>
</g>
<!-- 0141 -->
<g id="node9" class="node"><title>0141</title>
<ellipse fill="#ff8a8a" stroke="#b43f3f" cx="221" cy="-105" rx="40.0939" ry="18"/>
<text text-anchor="middle" x="221" y="-101.3" font-family="Times,serif" font-size="14.00">0141 (a)</text>
</g>
<!-- 044&#45;&gt;0141 -->
<g id="edge7" class="edge"><title>044&#45;&gt;0141</title>
<path fill="none" stroke="#b43f3f" stroke-dasharray="1,5" d="M258.714,-174.207C252.02,-162.099 242.859,-145.533 235.243,-131.759"/>
<polygon fill="#b43f3f" stroke="#b43f3f" points="238.168,-129.816 230.266,-122.758 232.042,-133.203 238.168,-129.816"/>
<text text-anchor="middle" x="270" y="-144.8" font-family="Times,serif" font-size="14.00">1 (89.2)</text>
</g>
<!-- 022 -->
<g id="node10" class="node"><title>022</title>
<ellipse fill="#ff8a8a" stroke="#b43f3f" cx="316" cy="-105" rx="36.2938" ry="18"/>
<text text-anchor="middle" x="316" y="-101.3" font-family="Times,serif" font-size="14.00">022 (a)</text>
</g>
<!-- 044&#45;&gt;022 -->
<g id="edge8" class="edge"><title>044&#45;&gt;022</title>
<path fill="none" stroke="#b43f3f" stroke-dasharray="1,5" d="M280.959,-175.139C285.395,-169.316 290.195,-162.544 294,-156 298.291,-148.622 302.284,-140.251 305.658,-132.498"/>
<polygon fill="#b43f3f" stroke="#b43f3f" points="308.947,-133.706 309.577,-123.13 302.489,-131.004 308.947,-133.706"/>
<text text-anchor="middle" x="324" y="-144.8" font-family="Times,serif" font-size="14.00">1 (91.7)</text>
</g>
<!-- 063 -->
<g id="node11" class="node"><title>063</title>
<ellipse fill="#ff8a8a" stroke="#b43f3f" cx="584" cy="-192" rx="36.2938" ry="18"/>
<text text-anchor="middle" x="584" y="-188.3" font-family="Times,serif" font-size="14.00">063 (a)</text>
</g>
<!-- 045 -->
<g id="node12" class="node"><title>045</title>
<ellipse fill="#ff8a8a" stroke="#b43f3f" cx="407" cy="-105" rx="36.2938" ry="18"/>
<text text-anchor="middle" x="407" y="-101.3" font-family="Times,serif" font-size="14.00">045 (a)</text>
</g>
<!-- 063&#45;&gt;045 -->
<g id="edge9" class="edge"><title>063&#45;&gt;045</title>
<path fill="none" stroke="#b43f3f" stroke-dasharray="1,5" d="M551.77,-183.402C529.737,-177.532 500.248,-168.324 476,-156 460.677,-148.212 445.05,-137.194 432.551,-127.482"/>
<polygon fill="#b43f3f" stroke="#b43f3f" points="434.443,-124.514 424.44,-121.023 430.082,-129.99 434.443,-124.514"/>
<text text-anchor="middle" x="498" y="-144.8" font-family="Times,serif" font-size="14.00">1 (93.1)</text>
</g>
<!-- 011 -->
<g id="node13" class="node"><title>011</title>
<ellipse fill="#ff8a8a" stroke="#b43f3f" cx="498" cy="-105" rx="36.2938" ry="18"/>
<text text-anchor="middle" x="498" y="-101.3" font-family="Times,serif" font-size="14.00">011 (a)</text>
</g>
<!-- 063&#45;&gt;011 -->
<g id="edge10" class="edge"><title>063&#45;&gt;011</title>
<path fill="none" stroke="#b43f3f" stroke-dasharray="1,5" d="M562.396,-177.25C553.74,-171.245 543.954,-163.798 536,-156 528.175,-148.329 520.638,-138.975 514.368,-130.442"/>
<polygon fill="#b43f3f" stroke="#b43f3f" points="517.206,-128.394 508.557,-122.275 511.503,-132.452 517.206,-128.394"/>
<text text-anchor="middle" x="558" y="-144.8" font-family="Times,serif" font-size="14.00">1 (93.1)</text>
</g>
<!-- 07 -->
<g id="node14" class="node"><title>07</title>
<ellipse fill="#ff8a8a" stroke="#b43f3f" cx="584" cy="-105" rx="31.6951" ry="18"/>
<text text-anchor="middle" x="584" y="-101.3" font-family="Times,serif" font-size="14.00">07 (a)</text>
</g>
<!-- 063&#45;&gt;07 -->
<g id="edge11" class="edge"><title>063&#45;&gt;07</title>
<path fill="none" stroke="#b43f3f" stroke-dasharray="1,5" d="M584,-173.799C584,-162.163 584,-146.548 584,-133.237"/>
<polygon fill="#b43f3f" stroke="#b43f3f" points="587.5,-133.175 584,-123.175 580.5,-133.175 587.5,-133.175"/>
<text text-anchor="middle" x="606" y="-144.8" font-family="Times,serif" font-size="14.00">1 (96.6)</text>
</g>
<!-- 028 -->
<g id="node15" class="node"><title>028</title>
<ellipse fill="#ff8a8a" stroke="#b43f3f" cx="670" cy="-105" rx="36.2938" ry="18"/>
<text text-anchor="middle" x="670" y="-101.3" font-family="Times,serif" font-size="14.00">028 (a)</text>
</g>
<!-- 063&#45;&gt;028 -->
<g id="edge12" class="edge"><title>063&#45;&gt;028</title>
<path fill="none" stroke="#b43f3f" stroke-dasharray="1,5" d="M605.604,-177.25C614.26,-171.245 624.046,-163.798 632,-156 639.825,-148.329 647.362,-138.975 653.632,-130.442"/>
<polygon fill="#b43f3f" stroke="#b43f3f" points="656.497,-132.452 659.443,-122.275 650.794,-128.394 656.497,-132.452"/>
<text text-anchor="middle" x="667" y="-144.8" font-family="Times,serif" font-size="14.00">1 (96.6)</text>
</g>
<!-- 021 -->
<g id="node16" class="node"><title>021</title>
<ellipse fill="#ff8a8a" stroke="#b43f3f" cx="827" cy="-105" rx="36.2938" ry="18"/>
<text text-anchor="middle" x="827" y="-101.3" font-family="Times,serif" font-size="14.00">021 (a)</text>
</g>
<!-- 063&#45;&gt;021 -->
<g id="edge13" class="edge"><title>063&#45;&gt;021</title>
<path fill="none" stroke="#b43f3f" stroke-dasharray="1,5" d="M614.197,-181.717C636.147,-174.87 666.524,-165.185 693,-156 725.907,-144.584 762.984,-130.667 789.781,-120.417"/>
<polygon fill="#b43f3f" stroke="#b43f3f" points="791.079,-123.668 799.162,-116.818 788.572,-117.132 791.079,-123.668"/>
<text text-anchor="middle" x="756" y="-144.8" font-family="Times,serif" font-size="14.00">1 (93.1)</text>
</g>
<!-- 034 -->
<g id="node17" class="node"><title>034</title>
<ellipse fill="#ff8a8a" stroke="#b43f3f" cx="372" cy="-18" rx="36.2938" ry="18"/>
<text text-anchor="middle" x="372" y="-14.3" font-family="Times,serif" font-size="14.00">034 (a)</text>
</g>
<!-- 07&#45;&gt;034 -->
<g id="edge14" class="edge"><title>07&#45;&gt;034</title>
<path fill="none" stroke="#b43f3f" stroke-dasharray="1,5" d="M560.002,-93.1414C554.49,-90.903 548.601,-88.71 543,-87 504.402,-75.2163 491.573,-83.7273 454,-69 434.794,-61.4719 415,-49.5423 399.672,-39.2237"/>
<polygon fill="#b43f3f" stroke="#b43f3f" points="401.42,-36.1777 391.201,-33.3799 397.445,-41.9396 401.42,-36.1777"/>
<text text-anchor="middle" x="476" y="-57.8" font-family="Times,serif" font-size="14.00">1 (95.1)</text>
</g>
<!-- 017 -->
<g id="node18" class="node"><title>017</title>
<ellipse fill="#ff8a8a" stroke="#b43f3f" cx="463" cy="-18" rx="36.2938" ry="18"/>
<text text-anchor="middle" x="463" y="-14.3" font-family="Times,serif" font-size="14.00">017 (a)</text>
</g>
<!-- 07&#45;&gt;017 -->
<g id="edge15" class="edge"><title>07&#45;&gt;017</title>
<path fill="none" stroke="#b43f3f" stroke-dasharray="1,5" d="M560.462,-92.7034C548.038,-86.3552 532.765,-77.9267 520,-69 508.253,-60.7856 496.187,-50.5129 486.198,-41.4192"/>
<polygon fill="#b43f3f" stroke="#b43f3f" points="488.389,-38.6776 478.678,-34.4408 483.627,-43.8087 488.389,-38.6776"/>
<text text-anchor="middle" x="542" y="-57.8" font-family="Times,serif" font-size="14.00">2 (92.7)</text>
</g>
<!-- 013 -->
<g id="node19" class="node"><title>013</title>
<ellipse fill="#ff8a8a" stroke="#b43f3f" cx="554" cy="-18" rx="36.2938" ry="18"/>
<text text-anchor="middle" x="554" y="-14.3" font-family="Times,serif" font-size="14.00">013 (a)</text>
</g>
<!-- 07&#45;&gt;013 -->
<g id="edge16" class="edge"><title>07&#45;&gt;013</title>
<path fill="none" stroke="#b43f3f" stroke-dasharray="1,5" d="M578.073,-87.2067C573.909,-75.4091 568.251,-59.3781 563.467,-45.8221"/>
<polygon fill="#b43f3f" stroke="#b43f3f" points="566.646,-44.3143 560.017,-36.0493 560.045,-46.6441 566.646,-44.3143"/>
<text text-anchor="middle" x="593" y="-57.8" font-family="Times,serif" font-size="14.00">2 (95.1)</text>
</g>
<!-- 030 -->
<g id="node20" class="node"><title>030</title>
<ellipse fill="#ff8a8a" stroke="#b43f3f" cx="645" cy="-18" rx="36.2938" ry="18"/>
<text text-anchor="middle" x="645" y="-14.3" font-family="Times,serif" font-size="14.00">030 (a)</text>
</g>
<!-- 07&#45;&gt;030 -->
<g id="edge17" class="edge"><title>07&#45;&gt;030</title>
<path fill="none" stroke="#b43f3f" stroke-dasharray="1,5" d="M600.777,-89.2595C606.95,-83.3364 613.717,-76.2084 619,-69 624.404,-61.6263 629.327,-52.9744 633.4,-44.9596"/>
<polygon fill="#b43f3f" stroke="#b43f3f" points="636.551,-46.483 637.769,-35.9584 630.254,-43.4264 636.551,-46.483"/>
<text text-anchor="middle" x="651" y="-57.8" font-family="Times,serif" font-size="14.00">1 (95.1)</text>
</g>
<!-- 037 -->
<g id="node21" class="node"><title>037</title>
<ellipse fill="#ff8a8a" stroke="#b43f3f" cx="736" cy="-18" rx="36.2938" ry="18"/>
<text text-anchor="middle" x="736" y="-14.3" font-family="Times,serif" font-size="14.00">037 (a)</text>
</g>
<!-- 07&#45;&gt;037 -->
<g id="edge18" class="edge"><title>07&#45;&gt;037</title>
<path fill="none" stroke="#b43f3f" stroke-dasharray="1,5" d="M608.621,-93.5115C613.995,-91.3005 619.67,-89.0255 625,-87 647.862,-78.3125 655.753,-81.1123 677,-69 690.013,-61.5816 702.889,-51.1332 713.276,-41.7046"/>
<polygon fill="#b43f3f" stroke="#b43f3f" points="715.786,-44.1493 720.695,-34.7604 711.002,-39.0388 715.786,-44.1493"/>
<text text-anchor="middle" x="720" y="-57.8" font-family="Times,serif" font-size="14.00">1 (97.5)</text>
</g>
<!-- 036 -->
<g id="node22" class="node"><title>036</title>
<ellipse fill="#ff8a8a" stroke="#b43f3f" cx="827" cy="-18" rx="36.2938" ry="18"/>
<text text-anchor="middle" x="827" y="-14.3" font-family="Times,serif" font-size="14.00">036 (a)</text>
</g>
<!-- 021&#45;&gt;036 -->
<g id="edge19" class="edge"><title>021&#45;&gt;036</title>
<path fill="none" stroke="#b43f3f" stroke-dasharray="1,5" d="M827,-86.799C827,-75.1626 827,-59.5479 827,-46.2368"/>
<polygon fill="#b43f3f" stroke="#b43f3f" points="830.5,-46.1754 827,-36.1754 823.5,-46.1755 830.5,-46.1754"/>
<text text-anchor="middle" x="849" y="-57.8" font-family="Times,serif" font-size="14.00">1 (97.6)</text>
</g>
<!-- 047 -->
<g id="node23" class="node"><title>047</title>
<ellipse fill="#ff8a8a" stroke="#b43f3f" cx="918" cy="-18" rx="36.2938" ry="18"/>
<text text-anchor="middle" x="918" y="-14.3" font-family="Times,serif" font-size="14.00">047 (a)</text>
</g>
<!-- 021&#45;&gt;047 -->
<g id="edge20" class="edge"><title>021&#45;&gt;047</title>
<path fill="none" stroke="#b43f3f" stroke-dasharray="1,5" d="M848.372,-90.006C856.992,-83.9634 866.814,-76.5539 875,-69 883.544,-61.1154 892.076,-51.6186 899.26,-43.0293"/>
<polygon fill="#b43f3f" stroke="#b43f3f" points="902.077,-45.1135 905.692,-35.1545 896.656,-40.6853 902.077,-45.1135"/>
<text text-anchor="middle" x="911" y="-57.8" font-family="Times,serif" font-size="14.00">1 (95.1)</text>
</g>
<!-- 019 -->
<g id="node24" class="node"><title>019</title>
<ellipse fill="#ff8a8a" stroke="#b43f3f" cx="584" cy="-279" rx="36.2938" ry="18"/>
<text text-anchor="middle" x="584" y="-275.3" font-family="Times,serif" font-size="14.00">019 (a)</text>
</g>
<!-- 019&#45;&gt;063 -->
<g id="edge21" class="edge"><title>019&#45;&gt;063</title>
<path fill="none" stroke="#b43f3f" stroke-dasharray="1,5" d="M584,-260.799C584,-249.163 584,-233.548 584,-220.237"/>
<polygon fill="#b43f3f" stroke="#b43f3f" points="587.5,-220.175 584,-210.175 580.5,-220.175 587.5,-220.175"/>
<text text-anchor="middle" x="606" y="-231.8" font-family="Times,serif" font-size="14.00">1 (85.7)</text>
</g>
<!-- 091 -->
<g id="node25" class="node"><title>091</title>
<ellipse fill="#ff8a8a" stroke="#b43f3f" cx="717" cy="-279" rx="36.2938" ry="18"/>
<text text-anchor="middle" x="717" y="-275.3" font-family="Times,serif" font-size="14.00">091 (a)</text>
</g>
<!-- 05 -->
<g id="node26" class="node"><title>05</title>
<ellipse fill="#ff8a8a" stroke="#b43f3f" cx="693" cy="-192" rx="31.6951" ry="18"/>
<text text-anchor="middle" x="693" y="-188.3" font-family="Times,serif" font-size="14.00">05 (a)</text>
</g>
<!-- 091&#45;&gt;05 -->
<g id="edge22" class="edge"><title>091&#45;&gt;05</title>
<path fill="none" stroke="#b43f3f" stroke-dasharray="1,5" d="M712.143,-260.799C708.803,-248.97 704.303,-233.03 700.504,-219.578"/>
<polygon fill="#b43f3f" stroke="#b43f3f" points="703.853,-218.558 697.768,-209.885 697.117,-220.46 703.853,-218.558"/>
<text text-anchor="middle" x="729" y="-231.8" font-family="Times,serif" font-size="14.00">1 (87.5)</text>
</g>
<!-- 0211 -->
<g id="node27" class="node"><title>0211</title>
<ellipse fill="#ff8a8a" stroke="#b43f3f" cx="783" cy="-192" rx="40.0939" ry="18"/>
<text text-anchor="middle" x="783" y="-188.3" font-family="Times,serif" font-size="14.00">0211 (a)</text>
</g>
<!-- 091&#45;&gt;0211 -->
<g id="edge23" class="edge"><title>091&#45;&gt;0211</title>
<path fill="none" stroke="#b43f3f" stroke-dasharray="1,5" d="M735.167,-263.378C741.863,-257.469 749.219,-250.32 755,-243 760.762,-235.705 766.048,-227.074 770.437,-219.054"/>
<polygon fill="#b43f3f" stroke="#b43f3f" points="773.62,-220.521 775.154,-210.038 767.417,-217.276 773.62,-220.521"/>
<text text-anchor="middle" x="787" y="-231.8" font-family="Times,serif" font-size="14.00">1 (83.3)</text>
</g>
<!-- P75 -->
<g id="node28" class="node"><title>P75</title>
<ellipse fill="#ff8a8a" stroke="#b43f3f" cx="808" cy="-279" rx="36.2938" ry="18"/>
<text text-anchor="middle" x="808" y="-275.3" font-family="Times,serif" font-size="14.00">P75 (a)</text>
</g>
<!-- 038 -->
<g id="node29" class="node"><title>038</title>
<ellipse fill="#cea8f4" stroke="#835da9" cx="899" cy="-279" rx="36.2938" ry="18"/>
<text text-anchor="middle" x="899" y="-275.3" font-family="Times,serif" font-size="14.00">038 (b)</text>
</g>
<!-- 01 -->
<g id="node30" class="node"><title>01</title>
<ellipse fill="#72fe95" stroke="#27b34a" cx="985" cy="-279" rx="31.6951" ry="18"/>
<text text-anchor="middle" x="985" y="-275.3" font-family="Times,serif" font-size="14.00">01 (c)</text>
</g>
</g>
</svg>
