<?xml version="1.0" encoding="UTF-8" standalone="no"?>
<!DOCTYPE svg PUBLIC "-//W3C//DTD SVG 1.1//EN"
 "http://www.w3.org/Graphics/SVG/1.1/DTD/svg11.dtd">
<!-- Generated by graphviz version 2.38.0 (20140413.2041)
 -->
<!-- Title: %3 Pages: 1 -->
<svg width="1151pt" height="337pt"
 viewBox="0.00 0.00 1151.00 337.00" xmlns="http://www.w3.org/2000/svg" xmlns:xlink="http://www.w3.org/1999/xlink">
<g id="graph0" class="graph" transform="scale(1 1) rotate(0) translate(4 333)">
<title>%3</title>
<polygon fill="white" stroke="none" points="-4,4 -4,-333 1147,-333 1147,4 -4,4"/>
<g id="clust1" class="cluster"><title>cluster_legend</title>
<path fill="none" stroke="black" d="M20,-193C20,-193 210,-193 210,-193 216,-193 222,-199 222,-205 222,-205 222,-309 222,-309 222,-315 216,-321 210,-321 210,-321 20,-321 20,-321 14,-321 8,-315 8,-309 8,-309 8,-205 8,-205 8,-199 14,-193 20,-193"/>
</g>
<g id="clust2" class="cluster"><title>cluster_reading</title>
<polygon fill="none" stroke="black" points="230,-8 230,-321 1135,-321 1135,-8 230,-8"/>
</g>
<!-- leg_s -->
<g id="node1" class="node"><title>leg_s</title>
<text text-anchor="middle" x="115" y="-291.3" font-family="Times,serif" font-size="14.00">Textual flow strength</text>
</g>
<!-- leg_e1 -->
<!-- leg_s&#45;&gt;leg_e1 -->
<g id="edge1" class="edge"><title>leg_s&#45;&gt;leg_e1</title>
<path fill="none" stroke="black" stroke-dasharray="1,5" d="M96.6657,-276.686C91.1324,-271.194 85.1607,-264.989 80,-259 70.1708,-247.593 60.0722,-233.779 52.9137,-223.563"/>
<polygon fill="black" stroke="black" points="55.6142,-221.314 47.056,-215.068 49.8514,-225.288 55.6142,-221.314"/>
<text text-anchor="middle" x="95.5" y="-247.8" font-family="Times,serif" font-size="14.00">&lt;=5 &#160;</text>
</g>
<!-- leg_e2 -->
<!-- leg_s&#45;&gt;leg_e2 -->
<g id="edge2" class="edge"><title>leg_s&#45;&gt;leg_e2</title>
<path fill="none" stroke="black" stroke-dasharray="5,2" d="M115,-276.799C115,-261.794 115,-240.174 115,-225.409"/>
<polygon fill="black" stroke="black" points="118.5,-225.293 115,-215.293 111.5,-225.293 118.5,-225.293"/>
<text text-anchor="middle" x="134" y="-247.8" font-family="Times,serif" font-size="14.00"> &#160;&lt;=25</text>
</g>
<!-- leg_e3 -->
<!-- leg_s&#45;&gt;leg_e3 -->
<g id="edge3" class="edge"><title>leg_s&#45;&gt;leg_e3</title>
<path fill="none" stroke="black" d="M138.503,-276.76C144.906,-271.462 151.567,-265.344 157,-259 166.087,-248.39 174.095,-234.689 179.546,-224.313"/>
<polygon fill="black" stroke="black" points="182.722,-225.789 184.091,-215.283 176.469,-222.642 182.722,-225.789"/>
<text text-anchor="middle" x="179" y="-247.8" font-family="Times,serif" font-size="14.00">&gt;25</text>
</g>
<!-- 021 -->
<g id="node5" class="node"><title>021</title>
<ellipse fill="#ff8a8a" stroke="#b43f3f" cx="365" cy="-121" rx="36.2938" ry="18"/>
<text text-anchor="middle" x="365" y="-117.3" font-family="Times,serif" font-size="14.00">021 (a)</text>
</g>
<!-- 036 -->
<g id="node6" class="node"><title>036</title>
<ellipse fill="#ff8a8a" stroke="#b43f3f" cx="274" cy="-34" rx="36.2938" ry="18"/>
<text text-anchor="middle" x="274" y="-30.3" font-family="Times,serif" font-size="14.00">036 (a)</text>
</g>
<!-- 021&#45;&gt;036 -->
<g id="edge4" class="edge"><title>021&#45;&gt;036</title>
<path fill="none" stroke="#b43f3f" stroke-dasharray="1,5" d="M343.628,-106.006C335.008,-99.9634 325.186,-92.5539 317,-85 308.456,-77.1154 299.924,-67.6186 292.74,-59.0293"/>
<polygon fill="#b43f3f" stroke="#b43f3f" points="295.344,-56.6853 286.308,-51.1545 289.923,-61.1135 295.344,-56.6853"/>
<text text-anchor="middle" x="339" y="-73.8" font-family="Times,serif" font-size="14.00">1 (97.6)</text>
</g>
<!-- 047 -->
<g id="node7" class="node"><title>047</title>
<ellipse fill="#ff8a8a" stroke="#b43f3f" cx="365" cy="-34" rx="36.2938" ry="18"/>
<text text-anchor="middle" x="365" y="-30.3" font-family="Times,serif" font-size="14.00">047 (a)</text>
</g>
<!-- 021&#45;&gt;047 -->
<g id="edge5" class="edge"><title>021&#45;&gt;047</title>
<path fill="none" stroke="#b43f3f" stroke-dasharray="1,5" d="M365,-102.799C365,-91.1626 365,-75.5479 365,-62.2368"/>
<polygon fill="#b43f3f" stroke="#b43f3f" points="368.5,-62.1754 365,-52.1754 361.5,-62.1755 368.5,-62.1754"/>
<text text-anchor="middle" x="387" y="-73.8" font-family="Times,serif" font-size="14.00">1 (95.1)</text>
</g>
<!-- 031 -->
<g id="node8" class="node"><title>031</title>
<ellipse fill="#ff8a8a" stroke="#b43f3f" cx="577" cy="-121" rx="36.2938" ry="18"/>
<text text-anchor="middle" x="577" y="-117.3" font-family="Times,serif" font-size="14.00">031 (a)</text>
</g>
<!-- 01 -->
<g id="node9" class="node"><title>01</title>
<ellipse fill="#ff8a8a" stroke="#b43f3f" cx="451" cy="-34" rx="31.6951" ry="18"/>
<text text-anchor="middle" x="451" y="-30.3" font-family="Times,serif" font-size="14.00">01 (a)</text>
</g>
<!-- 031&#45;&gt;01 -->
<g id="edge6" class="edge"><title>031&#45;&gt;01</title>
<path fill="none" stroke="#b43f3f" stroke-dasharray="1,5" d="M547.331,-110.388C531.55,-104.471 512.303,-95.9183 497,-85 486.855,-77.7616 477.249,-67.9812 469.464,-58.99"/>
<polygon fill="#b43f3f" stroke="#b43f3f" points="471.948,-56.5031 462.864,-51.0503 466.565,-60.9777 471.948,-56.5031"/>
<text text-anchor="middle" x="519" y="-73.8" font-family="Times,serif" font-size="14.00">2 (48.5)</text>
</g>
<!-- 017 -->
<g id="node10" class="node"><title>017</title>
<ellipse fill="#ff8a8a" stroke="#b43f3f" cx="537" cy="-34" rx="36.2938" ry="18"/>
<text text-anchor="middle" x="537" y="-30.3" font-family="Times,serif" font-size="14.00">017 (a)</text>
</g>
<!-- 031&#45;&gt;017 -->
<g id="edge7" class="edge"><title>031&#45;&gt;017</title>
<path fill="none" stroke="#b43f3f" stroke-dasharray="1,5" d="M562.623,-104.178C558.043,-98.4652 553.31,-91.7533 550,-85 546.526,-77.9127 543.905,-69.7897 541.96,-62.1805"/>
<polygon fill="#b43f3f" stroke="#b43f3f" points="545.337,-61.2459 539.71,-52.2684 538.51,-62.795 545.337,-61.2459"/>
<text text-anchor="middle" x="572" y="-73.8" font-family="Times,serif" font-size="14.00">1 (94.3)</text>
</g>
<!-- 013 -->
<g id="node11" class="node"><title>013</title>
<ellipse fill="#ff8a8a" stroke="#b43f3f" cx="628" cy="-34" rx="36.2938" ry="18"/>
<text text-anchor="middle" x="628" y="-30.3" font-family="Times,serif" font-size="14.00">013 (a)</text>
</g>
<!-- 031&#45;&gt;013 -->
<g id="edge8" class="edge"><title>031&#45;&gt;013</title>
<path fill="none" stroke="#b43f3f" stroke-dasharray="1,5" d="M586.833,-103.611C594.242,-91.2642 604.53,-74.1167 612.968,-60.0534"/>
<polygon fill="#b43f3f" stroke="#b43f3f" points="616.053,-61.7142 618.197,-51.3385 610.051,-58.1127 616.053,-61.7142"/>
<text text-anchor="middle" x="628" y="-73.8" font-family="Times,serif" font-size="14.00">1 (97.1)</text>
</g>
<!-- 063 -->
<g id="node12" class="node"><title>063</title>
<ellipse fill="#ff8a8a" stroke="#b43f3f" cx="767" cy="-208" rx="36.2938" ry="18"/>
<text text-anchor="middle" x="767" y="-204.3" font-family="Times,serif" font-size="14.00">063 (a)</text>
</g>
<!-- 063&#45;&gt;021 -->
<g id="edge9" class="edge"><title>063&#45;&gt;021</title>
<path fill="none" stroke="#b43f3f" stroke-dasharray="1,5" d="M734.103,-200.044C661.632,-184.721 488.266,-148.064 407.613,-131.01"/>
<polygon fill="#b43f3f" stroke="#b43f3f" points="408.296,-127.577 397.788,-128.933 406.848,-134.426 408.296,-127.577"/>
<text text-anchor="middle" x="613" y="-160.8" font-family="Times,serif" font-size="14.00">1 (93.1)</text>
</g>
<!-- 063&#45;&gt;031 -->
<g id="edge10" class="edge"><title>063&#45;&gt;031</title>
<path fill="none" stroke="#b43f3f" stroke-dasharray="1,5" d="M739.951,-195.696C723.923,-188.938 703.244,-180.115 685,-172 660.443,-161.078 632.958,-148.346 611.86,-138.463"/>
<polygon fill="#b43f3f" stroke="#b43f3f" points="613.19,-135.221 602.65,-134.14 610.215,-141.557 613.19,-135.221"/>
<text text-anchor="middle" x="707" y="-160.8" font-family="Times,serif" font-size="14.00">1 (95.8)</text>
</g>
<!-- 011 -->
<g id="node13" class="node"><title>011</title>
<ellipse fill="#ff8a8a" stroke="#b43f3f" cx="724" cy="-121" rx="36.2938" ry="18"/>
<text text-anchor="middle" x="724" y="-117.3" font-family="Times,serif" font-size="14.00">011 (a)</text>
</g>
<!-- 063&#45;&gt;011 -->
<g id="edge11" class="edge"><title>063&#45;&gt;011</title>
<path fill="none" stroke="#b43f3f" stroke-dasharray="1,5" d="M752.216,-191.178C747.476,-185.465 742.542,-178.753 739,-172 735.295,-164.937 732.365,-156.822 730.115,-149.213"/>
<polygon fill="#b43f3f" stroke="#b43f3f" points="733.427,-148.049 727.459,-139.295 726.665,-149.86 733.427,-148.049"/>
<text text-anchor="middle" x="761" y="-160.8" font-family="Times,serif" font-size="14.00">1 (93.1)</text>
</g>
<!-- 07 -->
<g id="node14" class="node"><title>07</title>
<ellipse fill="#ff8a8a" stroke="#b43f3f" cx="810" cy="-121" rx="31.6951" ry="18"/>
<text text-anchor="middle" x="810" y="-117.3" font-family="Times,serif" font-size="14.00">07 (a)</text>
</g>
<!-- 063&#45;&gt;07 -->
<g id="edge12" class="edge"><title>063&#45;&gt;07</title>
<path fill="none" stroke="#b43f3f" stroke-dasharray="1,5" d="M775.495,-190.207C781.66,-178.021 790.11,-161.318 797.105,-147.491"/>
<polygon fill="#b43f3f" stroke="#b43f3f" points="800.278,-148.972 801.669,-138.469 794.031,-145.812 800.278,-148.972"/>
<text text-anchor="middle" x="814" y="-160.8" font-family="Times,serif" font-size="14.00">1 (96.6)</text>
</g>
<!-- 045 -->
<g id="node15" class="node"><title>045</title>
<ellipse fill="#ff8a8a" stroke="#b43f3f" cx="896" cy="-121" rx="36.2938" ry="18"/>
<text text-anchor="middle" x="896" y="-117.3" font-family="Times,serif" font-size="14.00">045 (a)</text>
</g>
<!-- 063&#45;&gt;045 -->
<g id="edge13" class="edge"><title>063&#45;&gt;045</title>
<path fill="none" stroke="#b43f3f" stroke-dasharray="1,5" d="M794.337,-196.088C808.484,-189.906 825.732,-181.511 840,-172 851.809,-164.128 863.704,-153.906 873.475,-144.758"/>
<polygon fill="#b43f3f" stroke="#b43f3f" points="876.021,-147.166 880.814,-137.717 871.175,-142.115 876.021,-147.166"/>
<text text-anchor="middle" x="881" y="-160.8" font-family="Times,serif" font-size="14.00">1 (93.1)</text>
</g>
<!-- 028 -->
<g id="node16" class="node"><title>028</title>
<ellipse fill="#ff8a8a" stroke="#b43f3f" cx="987" cy="-121" rx="36.2938" ry="18"/>
<text text-anchor="middle" x="987" y="-117.3" font-family="Times,serif" font-size="14.00">028 (a)</text>
</g>
<!-- 063&#45;&gt;028 -->
<g id="edge14" class="edge"><title>063&#45;&gt;028</title>
<path fill="none" stroke="#b43f3f" stroke-dasharray="1,5" d="M801.052,-201.58C830.011,-196.25 872.297,-186.745 907,-172 925.523,-164.129 944.697,-152.294 959.628,-142.114"/>
<polygon fill="#b43f3f" stroke="#b43f3f" points="961.69,-144.943 967.892,-136.354 957.687,-139.201 961.69,-144.943"/>
<text text-anchor="middle" x="956" y="-160.8" font-family="Times,serif" font-size="14.00">1 (96.6)</text>
</g>
<!-- 030 -->
<g id="node18" class="node"><title>030</title>
<ellipse fill="#ff8a8a" stroke="#b43f3f" cx="719" cy="-34" rx="36.2938" ry="18"/>
<text text-anchor="middle" x="719" y="-30.3" font-family="Times,serif" font-size="14.00">030 (a)</text>
</g>
<!-- 07&#45;&gt;030 -->
<g id="edge16" class="edge"><title>07&#45;&gt;030</title>
<path fill="none" stroke="#b43f3f" stroke-dasharray="1,5" d="M789.581,-106.672C780.737,-100.512 770.489,-92.8337 762,-85 753.456,-77.1154 744.924,-67.6186 737.74,-59.0293"/>
<polygon fill="#b43f3f" stroke="#b43f3f" points="740.344,-56.6853 731.308,-51.1545 734.923,-61.1135 740.344,-56.6853"/>
<text text-anchor="middle" x="784" y="-73.8" font-family="Times,serif" font-size="14.00">1 (95.1)</text>
</g>
<!-- 034 -->
<g id="node19" class="node"><title>034</title>
<ellipse fill="#ff8a8a" stroke="#b43f3f" cx="810" cy="-34" rx="36.2938" ry="18"/>
<text text-anchor="middle" x="810" y="-30.3" font-family="Times,serif" font-size="14.00">034 (a)</text>
</g>
<!-- 07&#45;&gt;034 -->
<g id="edge17" class="edge"><title>07&#45;&gt;034</title>
<path fill="none" stroke="#b43f3f" stroke-dasharray="1,5" d="M810,-102.799C810,-91.1626 810,-75.5479 810,-62.2368"/>
<polygon fill="#b43f3f" stroke="#b43f3f" points="813.5,-62.1754 810,-52.1754 806.5,-62.1755 813.5,-62.1754"/>
<text text-anchor="middle" x="832" y="-73.8" font-family="Times,serif" font-size="14.00">1 (95.1)</text>
</g>
<!-- 037 -->
<g id="node20" class="node"><title>037</title>
<ellipse fill="#ff8a8a" stroke="#b43f3f" cx="901" cy="-34" rx="36.2938" ry="18"/>
<text text-anchor="middle" x="901" y="-30.3" font-family="Times,serif" font-size="14.00">037 (a)</text>
</g>
<!-- 07&#45;&gt;037 -->
<g id="edge18" class="edge"><title>07&#45;&gt;037</title>
<path fill="none" stroke="#b43f3f" stroke-dasharray="1,5" d="M830.419,-106.672C839.263,-100.512 849.511,-92.8337 858,-85 866.544,-77.1154 875.076,-67.6186 882.26,-59.0293"/>
<polygon fill="#b43f3f" stroke="#b43f3f" points="885.077,-61.1135 888.692,-51.1545 879.656,-56.6853 885.077,-61.1135"/>
<text text-anchor="middle" x="893" y="-73.8" font-family="Times,serif" font-size="14.00">1 (97.5)</text>
</g>
<!-- 0211 -->
<g id="node21" class="node"><title>0211</title>
<ellipse fill="#ff8a8a" stroke="#b43f3f" cx="996" cy="-34" rx="40.0939" ry="18"/>
<text text-anchor="middle" x="996" y="-30.3" font-family="Times,serif" font-size="14.00">0211 (a)</text>
</g>
<!-- 07&#45;&gt;0211 -->
<g id="edge19" class="edge"><title>07&#45;&gt;0211</title>
<path fill="none" stroke="#b43f3f" stroke-dasharray="1,5" d="M834.512,-109.209C839.893,-107.016 845.598,-104.826 851,-103 880.617,-92.9903 890.42,-97.672 919,-85 936.376,-77.2956 954.272,-65.9195 968.433,-55.9642"/>
<polygon fill="#b43f3f" stroke="#b43f3f" points="970.657,-58.6762 976.73,-49.9947 966.568,-52.9942 970.657,-58.6762"/>
<text text-anchor="middle" x="967" y="-73.8" font-family="Times,serif" font-size="14.00">2 (82.9)</text>
</g>
<!-- 038 -->
<g id="node26" class="node"><title>038</title>
<ellipse fill="#ff8a8a" stroke="#b43f3f" cx="1091" cy="-34" rx="36.2938" ry="18"/>
<text text-anchor="middle" x="1091" y="-30.3" font-family="Times,serif" font-size="14.00">038 (a)</text>
</g>
<!-- 045&#45;&gt;038 -->
<g id="edge23" class="edge"><title>045&#45;&gt;038</title>
<path fill="none" stroke="#b43f3f" stroke-dasharray="1,5" d="M924.195,-109.505C930.073,-107.339 936.235,-105.083 942,-103 964.607,-94.8336 970.913,-94.4829 993,-85 1015.37,-75.3951 1039.76,-62.9593 1058.61,-52.8928"/>
<polygon fill="#b43f3f" stroke="#b43f3f" points="1060.51,-55.8439 1067.66,-48.0185 1057.19,-49.6818 1060.51,-55.8439"/>
<text text-anchor="middle" x="1045" y="-73.8" font-family="Times,serif" font-size="14.00">1 (92.7)</text>
</g>
<!-- 019 -->
<g id="node17" class="node"><title>019</title>
<ellipse fill="#ff8a8a" stroke="#b43f3f" cx="767" cy="-295" rx="36.2938" ry="18"/>
<text text-anchor="middle" x="767" y="-291.3" font-family="Times,serif" font-size="14.00">019 (a)</text>
</g>
<!-- 019&#45;&gt;063 -->
<g id="edge15" class="edge"><title>019&#45;&gt;063</title>
<path fill="none" stroke="#b43f3f" stroke-dasharray="1,5" d="M767,-276.799C767,-265.163 767,-249.548 767,-236.237"/>
<polygon fill="#b43f3f" stroke="#b43f3f" points="770.5,-236.175 767,-226.175 763.5,-236.175 770.5,-236.175"/>
<text text-anchor="middle" x="789" y="-247.8" font-family="Times,serif" font-size="14.00">1 (85.7)</text>
</g>
<!-- 03 -->
<g id="node22" class="node"><title>03</title>
<ellipse fill="#ff8a8a" stroke="#b43f3f" cx="547" cy="-295" rx="31.6951" ry="18"/>
<text text-anchor="middle" x="547" y="-291.3" font-family="Times,serif" font-size="14.00">03 (a)</text>
</g>
<!-- 0141 -->
<g id="node23" class="node"><title>0141</title>
<ellipse fill="#ff8a8a" stroke="#b43f3f" cx="452" cy="-208" rx="40.0939" ry="18"/>
<text text-anchor="middle" x="452" y="-204.3" font-family="Times,serif" font-size="14.00">0141 (a)</text>
</g>
<!-- 03&#45;&gt;0141 -->
<g id="edge20" class="edge"><title>03&#45;&gt;0141</title>
<path fill="none" stroke="#b43f3f" stroke-dasharray="1,5" d="M527.214,-280.822C518.297,-274.572 507.815,-266.781 499,-259 489.837,-250.911 480.469,-241.276 472.533,-232.632"/>
<polygon fill="#b43f3f" stroke="#b43f3f" points="474.99,-230.129 465.694,-225.045 469.79,-234.816 474.99,-230.129"/>
<text text-anchor="middle" x="521" y="-247.8" font-family="Times,serif" font-size="14.00">2 (86.5)</text>
</g>
<!-- 022 -->
<g id="node24" class="node"><title>022</title>
<ellipse fill="#ff8a8a" stroke="#b43f3f" cx="547" cy="-208" rx="36.2938" ry="18"/>
<text text-anchor="middle" x="547" y="-204.3" font-family="Times,serif" font-size="14.00">022 (a)</text>
</g>
<!-- 03&#45;&gt;022 -->
<g id="edge21" class="edge"><title>03&#45;&gt;022</title>
<path fill="none" stroke="#b43f3f" stroke-dasharray="1,5" d="M547,-276.799C547,-265.163 547,-249.548 547,-236.237"/>
<polygon fill="#b43f3f" stroke="#b43f3f" points="550.5,-236.175 547,-226.175 543.5,-236.175 550.5,-236.175"/>
<text text-anchor="middle" x="569" y="-247.8" font-family="Times,serif" font-size="14.00">1 (91.7)</text>
</g>
<!-- 02 -->
<g id="node25" class="node"><title>02</title>
<ellipse fill="#ff8a8a" stroke="#b43f3f" cx="633" cy="-208" rx="31.6951" ry="18"/>
<text text-anchor="middle" x="633" y="-204.3" font-family="Times,serif" font-size="14.00">02 (a)</text>
</g>
<!-- 03&#45;&gt;02 -->
<g id="edge22" class="edge"><title>03&#45;&gt;02</title>
<path fill="none" stroke="#b43f3f" stroke-dasharray="1,5" d="M567.647,-280.912C576.533,-274.796 586.752,-267.086 595,-259 602.825,-251.329 610.362,-241.975 616.632,-233.442"/>
<polygon fill="#b43f3f" stroke="#b43f3f" points="619.497,-235.452 622.443,-225.275 613.794,-231.394 619.497,-235.452"/>
<text text-anchor="middle" x="630" y="-247.8" font-family="Times,serif" font-size="14.00">1 (86.5)</text>
</g>
<!-- P75 -->
<g id="node27" class="node"><title>P75</title>
<ellipse fill="#ff8a8a" stroke="#b43f3f" cx="365" cy="-295" rx="36.2938" ry="18"/>
<text text-anchor="middle" x="365" y="-291.3" font-family="Times,serif" font-size="14.00">P75 (a)</text>
</g>
</g>
</svg>
