<?xml version="1.0" encoding="UTF-8" standalone="no"?>
<!DOCTYPE svg PUBLIC "-//W3C//DTD SVG 1.1//EN"
 "http://www.w3.org/Graphics/SVG/1.1/DTD/svg11.dtd">
<!-- Generated by graphviz version 2.38.0 (20140413.2041)
 -->
<!-- Title: %3 Pages: 1 -->
<svg width="979pt" height="424pt"
 viewBox="0.00 0.00 979.00 424.00" xmlns="http://www.w3.org/2000/svg" xmlns:xlink="http://www.w3.org/1999/xlink">
<g id="graph0" class="graph" transform="scale(1 1) rotate(0) translate(4 420)">
<title>%3</title>
<polygon fill="white" stroke="none" points="-4,4 -4,-420 975,-420 975,4 -4,4"/>
<g id="clust1" class="cluster"><title>cluster_legend</title>
<path fill="none" stroke="black" d="M20,-280C20,-280 210,-280 210,-280 216,-280 222,-286 222,-292 222,-292 222,-396 222,-396 222,-402 216,-408 210,-408 210,-408 20,-408 20,-408 14,-408 8,-402 8,-396 8,-396 8,-292 8,-292 8,-286 14,-280 20,-280"/>
</g>
<g id="clust2" class="cluster"><title>cluster_reading</title>
<polygon fill="none" stroke="black" points="230,-8 230,-408 963,-408 963,-8 230,-8"/>
</g>
<!-- leg_s -->
<g id="node1" class="node"><title>leg_s</title>
<text text-anchor="middle" x="115" y="-378.3" font-family="Times,serif" font-size="14.00">Textual flow strength</text>
</g>
<!-- leg_e1 -->
<!-- leg_s&#45;&gt;leg_e1 -->
<g id="edge1" class="edge"><title>leg_s&#45;&gt;leg_e1</title>
<path fill="none" stroke="black" stroke-dasharray="1,5" d="M96.6657,-363.686C91.1324,-358.194 85.1607,-351.989 80,-346 70.1708,-334.593 60.0722,-320.779 52.9137,-310.563"/>
<polygon fill="black" stroke="black" points="55.6142,-308.314 47.056,-302.068 49.8514,-312.288 55.6142,-308.314"/>
<text text-anchor="middle" x="95.5" y="-334.8" font-family="Times,serif" font-size="14.00">&lt;=5 &#160;</text>
</g>
<!-- leg_e2 -->
<!-- leg_s&#45;&gt;leg_e2 -->
<g id="edge2" class="edge"><title>leg_s&#45;&gt;leg_e2</title>
<path fill="none" stroke="black" stroke-dasharray="5,2" d="M115,-363.799C115,-348.794 115,-327.174 115,-312.409"/>
<polygon fill="black" stroke="black" points="118.5,-312.293 115,-302.293 111.5,-312.293 118.5,-312.293"/>
<text text-anchor="middle" x="134" y="-334.8" font-family="Times,serif" font-size="14.00"> &#160;&lt;=25</text>
</g>
<!-- leg_e3 -->
<!-- leg_s&#45;&gt;leg_e3 -->
<g id="edge3" class="edge"><title>leg_s&#45;&gt;leg_e3</title>
<path fill="none" stroke="black" d="M138.503,-363.76C144.906,-358.462 151.567,-352.344 157,-346 166.087,-335.39 174.095,-321.689 179.546,-311.313"/>
<polygon fill="black" stroke="black" points="182.722,-312.789 184.091,-302.283 176.469,-309.642 182.722,-312.789"/>
<text text-anchor="middle" x="179" y="-334.8" font-family="Times,serif" font-size="14.00">&gt;25</text>
</g>
<!-- 044 -->
<g id="node5" class="node"><title>044</title>
<ellipse fill="#ff8a8a" stroke="#b43f3f" cx="638" cy="-295" rx="36.2938" ry="18"/>
<text text-anchor="middle" x="638" y="-291.3" font-family="Times,serif" font-size="14.00">044 (a)</text>
</g>
<!-- 022 -->
<g id="node6" class="node"><title>022</title>
<ellipse fill="#ff8a8a" stroke="#b43f3f" cx="325" cy="-208" rx="36.2938" ry="18"/>
<text text-anchor="middle" x="325" y="-204.3" font-family="Times,serif" font-size="14.00">022 (a)</text>
</g>
<!-- 044&#45;&gt;022 -->
<g id="edge4" class="edge"><title>044&#45;&gt;022</title>
<path fill="none" stroke="#b43f3f" stroke-dasharray="1,5" d="M603.426,-289.042C566.887,-283.394 507.777,-273.089 458,-259 424.388,-249.487 387.265,-235.199 360.801,-224.329"/>
<polygon fill="#b43f3f" stroke="#b43f3f" points="362.137,-221.095 351.559,-220.495 359.454,-227.56 362.137,-221.095"/>
<text text-anchor="middle" x="480" y="-247.8" font-family="Times,serif" font-size="14.00">1 (91.7)</text>
</g>
<!-- 07 -->
<g id="node7" class="node"><title>07</title>
<ellipse fill="#ff8a8a" stroke="#b43f3f" cx="461" cy="-208" rx="31.6951" ry="18"/>
<text text-anchor="middle" x="461" y="-204.3" font-family="Times,serif" font-size="14.00">07 (a)</text>
</g>
<!-- 044&#45;&gt;07 -->
<g id="edge5" class="edge"><title>044&#45;&gt;07</title>
<path fill="none" stroke="#b43f3f" stroke-dasharray="1,5" d="M605.442,-286.501C583.19,-280.675 553.424,-271.479 529,-259 513.627,-251.145 498.002,-239.931 485.612,-230.112"/>
<polygon fill="#b43f3f" stroke="#b43f3f" points="487.563,-227.187 477.595,-223.596 483.148,-232.619 487.563,-227.187"/>
<text text-anchor="middle" x="551" y="-247.8" font-family="Times,serif" font-size="14.00">2 (83.8)</text>
</g>
<!-- 011 -->
<g id="node8" class="node"><title>011</title>
<ellipse fill="#ff8a8a" stroke="#b43f3f" cx="547" cy="-208" rx="36.2938" ry="18"/>
<text text-anchor="middle" x="547" y="-204.3" font-family="Times,serif" font-size="14.00">011 (a)</text>
</g>
<!-- 044&#45;&gt;011 -->
<g id="edge6" class="edge"><title>044&#45;&gt;011</title>
<path fill="none" stroke="#b43f3f" stroke-dasharray="1,5" d="M616.628,-280.006C608.008,-273.963 598.186,-266.554 590,-259 581.456,-251.115 572.924,-241.619 565.74,-233.029"/>
<polygon fill="#b43f3f" stroke="#b43f3f" points="568.344,-230.685 559.308,-225.155 562.923,-235.113 568.344,-230.685"/>
<text text-anchor="middle" x="612" y="-247.8" font-family="Times,serif" font-size="14.00">2 (86.5)</text>
</g>
<!-- 045 -->
<g id="node9" class="node"><title>045</title>
<ellipse fill="#ff8a8a" stroke="#b43f3f" cx="638" cy="-208" rx="36.2938" ry="18"/>
<text text-anchor="middle" x="638" y="-204.3" font-family="Times,serif" font-size="14.00">045 (a)</text>
</g>
<!-- 044&#45;&gt;045 -->
<g id="edge7" class="edge"><title>044&#45;&gt;045</title>
<path fill="none" stroke="#b43f3f" stroke-dasharray="1,5" d="M638,-276.799C638,-265.163 638,-249.548 638,-236.237"/>
<polygon fill="#b43f3f" stroke="#b43f3f" points="641.5,-236.175 638,-226.175 634.5,-236.175 641.5,-236.175"/>
<text text-anchor="middle" x="660" y="-247.8" font-family="Times,serif" font-size="14.00">2 (81.1)</text>
</g>
<!-- 021 -->
<g id="node10" class="node"><title>021</title>
<ellipse fill="#ff8a8a" stroke="#b43f3f" cx="729" cy="-208" rx="36.2938" ry="18"/>
<text text-anchor="middle" x="729" y="-204.3" font-family="Times,serif" font-size="14.00">021 (a)</text>
</g>
<!-- 044&#45;&gt;021 -->
<g id="edge8" class="edge"><title>044&#45;&gt;021</title>
<path fill="none" stroke="#b43f3f" stroke-dasharray="1,5" d="M659.372,-280.006C667.992,-273.963 677.814,-266.554 686,-259 694.544,-251.115 703.076,-241.619 710.26,-233.029"/>
<polygon fill="#b43f3f" stroke="#b43f3f" points="713.077,-235.113 716.692,-225.155 707.656,-230.685 713.077,-235.113"/>
<text text-anchor="middle" x="722" y="-247.8" font-family="Times,serif" font-size="14.00">2 (83.8)</text>
</g>
<!-- 028 -->
<g id="node11" class="node"><title>028</title>
<ellipse fill="#ff8a8a" stroke="#b43f3f" cx="820" cy="-208" rx="36.2938" ry="18"/>
<text text-anchor="middle" x="820" y="-204.3" font-family="Times,serif" font-size="14.00">028 (a)</text>
</g>
<!-- 044&#45;&gt;028 -->
<g id="edge9" class="edge"><title>044&#45;&gt;028</title>
<path fill="none" stroke="#b43f3f" stroke-dasharray="1,5" d="M665.465,-283.171C671.224,-281.028 677.284,-278.867 683,-277 711.495,-267.694 720.861,-271.729 748,-259 764.389,-251.313 781.091,-239.975 794.278,-230.039"/>
<polygon fill="#b43f3f" stroke="#b43f3f" points="796.626,-232.648 802.398,-223.764 792.345,-227.109 796.626,-232.648"/>
<text text-anchor="middle" x="795" y="-247.8" font-family="Times,serif" font-size="14.00">2 (81.1)</text>
</g>
<!-- 0141 -->
<g id="node12" class="node"><title>0141</title>
<ellipse fill="#ff8a8a" stroke="#b43f3f" cx="915" cy="-208" rx="40.0939" ry="18"/>
<text text-anchor="middle" x="915" y="-204.3" font-family="Times,serif" font-size="14.00">0141 (a)</text>
</g>
<!-- 044&#45;&gt;0141 -->
<g id="edge10" class="edge"><title>044&#45;&gt;0141</title>
<path fill="none" stroke="#b43f3f" stroke-dasharray="1,5" d="M664.804,-282.717C670.716,-280.556 677.005,-278.502 683,-277 742.999,-261.97 762.082,-277.826 821,-259 843.491,-251.813 866.94,-239.35 884.792,-228.666"/>
<polygon fill="#b43f3f" stroke="#b43f3f" points="886.885,-231.487 893.582,-223.278 883.227,-225.519 886.885,-231.487"/>
<text text-anchor="middle" x="878" y="-247.8" font-family="Times,serif" font-size="14.00">1 (89.2)</text>
</g>
<!-- 031 -->
<g id="node13" class="node"><title>031</title>
<ellipse fill="#ff8a8a" stroke="#b43f3f" cx="274" cy="-121" rx="36.2938" ry="18"/>
<text text-anchor="middle" x="274" y="-117.3" font-family="Times,serif" font-size="14.00">031 (a)</text>
</g>
<!-- 022&#45;&gt;031 -->
<g id="edge11" class="edge"><title>022&#45;&gt;031</title>
<path fill="none" stroke="#b43f3f" stroke-dasharray="1,5" d="M315.167,-190.611C307.758,-178.264 297.47,-161.117 289.032,-147.053"/>
<polygon fill="#b43f3f" stroke="#b43f3f" points="291.949,-145.113 283.803,-138.339 285.947,-148.714 291.949,-145.113"/>
<text text-anchor="middle" x="325" y="-160.8" font-family="Times,serif" font-size="14.00">2 (86.7)</text>
</g>
<!-- 0211 -->
<g id="node19" class="node"><title>0211</title>
<ellipse fill="#ff8a8a" stroke="#b43f3f" cx="369" cy="-121" rx="40.0939" ry="18"/>
<text text-anchor="middle" x="369" y="-117.3" font-family="Times,serif" font-size="14.00">0211 (a)</text>
</g>
<!-- 07&#45;&gt;0211 -->
<g id="edge17" class="edge"><title>07&#45;&gt;0211</title>
<path fill="none" stroke="#b43f3f" stroke-dasharray="1,5" d="M441.597,-193.419C433.153,-187.213 423.309,-179.568 415,-172 406.053,-163.852 396.89,-154.204 389.12,-145.567"/>
<polygon fill="#b43f3f" stroke="#b43f3f" points="391.668,-143.166 382.422,-137.992 386.424,-147.802 391.668,-143.166"/>
<text text-anchor="middle" x="437" y="-160.8" font-family="Times,serif" font-size="14.00">2 (82.9)</text>
</g>
<!-- 037 -->
<g id="node20" class="node"><title>037</title>
<ellipse fill="#ff8a8a" stroke="#b43f3f" cx="464" cy="-121" rx="36.2938" ry="18"/>
<text text-anchor="middle" x="464" y="-117.3" font-family="Times,serif" font-size="14.00">037 (a)</text>
</g>
<!-- 07&#45;&gt;037 -->
<g id="edge18" class="edge"><title>07&#45;&gt;037</title>
<path fill="none" stroke="#b43f3f" stroke-dasharray="1,5" d="M461.607,-189.799C462.018,-178.163 462.569,-162.548 463.039,-149.237"/>
<polygon fill="#b43f3f" stroke="#b43f3f" points="466.539,-149.293 463.394,-139.175 459.543,-149.046 466.539,-149.293"/>
<text text-anchor="middle" x="485" y="-160.8" font-family="Times,serif" font-size="14.00">1 (97.5)</text>
</g>
<!-- 034 -->
<g id="node21" class="node"><title>034</title>
<ellipse fill="#ff8a8a" stroke="#b43f3f" cx="555" cy="-121" rx="36.2938" ry="18"/>
<text text-anchor="middle" x="555" y="-117.3" font-family="Times,serif" font-size="14.00">034 (a)</text>
</g>
<!-- 07&#45;&gt;034 -->
<g id="edge19" class="edge"><title>07&#45;&gt;034</title>
<path fill="none" stroke="#b43f3f" stroke-dasharray="1,5" d="M480.327,-193.335C488.757,-187.113 498.611,-179.479 507,-172 516.215,-163.785 525.753,-154.124 533.875,-145.495"/>
<polygon fill="#b43f3f" stroke="#b43f3f" points="536.655,-147.646 540.887,-137.933 531.521,-142.886 536.655,-147.646"/>
<text text-anchor="middle" x="545" y="-160.8" font-family="Times,serif" font-size="14.00">1 (95.1)</text>
</g>
<!-- 030 -->
<g id="node22" class="node"><title>030</title>
<ellipse fill="#ff8a8a" stroke="#b43f3f" cx="646" cy="-121" rx="36.2938" ry="18"/>
<text text-anchor="middle" x="646" y="-117.3" font-family="Times,serif" font-size="14.00">030 (a)</text>
</g>
<!-- 07&#45;&gt;030 -->
<g id="edge20" class="edge"><title>07&#45;&gt;030</title>
<path fill="none" stroke="#b43f3f" stroke-dasharray="1,5" d="M485.507,-196.194C490.889,-194.003 496.595,-191.816 502,-190 532.043,-179.907 542.082,-184.969 571,-172 588.146,-164.31 605.708,-152.834 619.523,-142.815"/>
<polygon fill="#b43f3f" stroke="#b43f3f" points="621.664,-145.585 627.604,-136.812 617.49,-139.966 621.664,-145.585"/>
<text text-anchor="middle" x="620" y="-160.8" font-family="Times,serif" font-size="14.00">1 (95.1)</text>
</g>
<!-- 038 -->
<g id="node23" class="node"><title>038</title>
<ellipse fill="#ff8a8a" stroke="#b43f3f" cx="737" cy="-121" rx="36.2938" ry="18"/>
<text text-anchor="middle" x="737" y="-117.3" font-family="Times,serif" font-size="14.00">038 (a)</text>
</g>
<!-- 045&#45;&gt;038 -->
<g id="edge21" class="edge"><title>045&#45;&gt;038</title>
<path fill="none" stroke="#b43f3f" stroke-dasharray="1,5" d="M643.669,-189.97C647.898,-179.391 654.58,-166.119 664,-157 669.812,-151.374 685.157,-143.731 700.286,-137.022"/>
<polygon fill="#b43f3f" stroke="#b43f3f" points="701.806,-140.178 709.591,-132.992 699.024,-133.755 701.806,-140.178"/>
<text text-anchor="middle" x="686" y="-160.8" font-family="Times,serif" font-size="14.00">1 (92.7)</text>
</g>
<!-- 036 -->
<g id="node24" class="node"><title>036</title>
<ellipse fill="#ff8a8a" stroke="#b43f3f" cx="828" cy="-121" rx="36.2938" ry="18"/>
<text text-anchor="middle" x="828" y="-117.3" font-family="Times,serif" font-size="14.00">036 (a)</text>
</g>
<!-- 021&#45;&gt;036 -->
<g id="edge22" class="edge"><title>021&#45;&gt;036</title>
<path fill="none" stroke="#b43f3f" stroke-dasharray="1,5" d="M746.699,-191.804C762.326,-178.387 785.285,-158.674 802.823,-143.616"/>
<polygon fill="#b43f3f" stroke="#b43f3f" points="805.147,-146.235 810.454,-137.065 800.587,-140.923 805.147,-146.235"/>
<text text-anchor="middle" x="806" y="-160.8" font-family="Times,serif" font-size="14.00">1 (97.6)</text>
</g>
<!-- 047 -->
<g id="node25" class="node"><title>047</title>
<ellipse fill="#ff8a8a" stroke="#b43f3f" cx="919" cy="-121" rx="36.2938" ry="18"/>
<text text-anchor="middle" x="919" y="-117.3" font-family="Times,serif" font-size="14.00">047 (a)</text>
</g>
<!-- 021&#45;&gt;047 -->
<g id="edge23" class="edge"><title>021&#45;&gt;047</title>
<path fill="none" stroke="#b43f3f" stroke-dasharray="1,5" d="M757.143,-196.356C763.025,-194.2 769.201,-191.986 775,-190 800.134,-181.393 807.675,-182.681 832,-172 851.784,-163.313 872.82,-151.307 889.25,-141.237"/>
<polygon fill="#b43f3f" stroke="#b43f3f" points="891.226,-144.13 897.867,-135.875 887.527,-138.186 891.226,-144.13"/>
<text text-anchor="middle" x="883" y="-160.8" font-family="Times,serif" font-size="14.00">1 (95.1)</text>
</g>
<!-- 013 -->
<g id="node14" class="node"><title>013</title>
<ellipse fill="#ff8a8a" stroke="#b43f3f" cx="274" cy="-34" rx="36.2938" ry="18"/>
<text text-anchor="middle" x="274" y="-30.3" font-family="Times,serif" font-size="14.00">013 (a)</text>
</g>
<!-- 031&#45;&gt;013 -->
<g id="edge12" class="edge"><title>031&#45;&gt;013</title>
<path fill="none" stroke="#b43f3f" stroke-dasharray="1,5" d="M274,-102.799C274,-91.1626 274,-75.5479 274,-62.2368"/>
<polygon fill="#b43f3f" stroke="#b43f3f" points="277.5,-62.1754 274,-52.1754 270.5,-62.1755 277.5,-62.1754"/>
<text text-anchor="middle" x="296" y="-73.8" font-family="Times,serif" font-size="14.00">1 (97.1)</text>
</g>
<!-- 017 -->
<g id="node15" class="node"><title>017</title>
<ellipse fill="#ff8a8a" stroke="#b43f3f" cx="365" cy="-34" rx="36.2938" ry="18"/>
<text text-anchor="middle" x="365" y="-30.3" font-family="Times,serif" font-size="14.00">017 (a)</text>
</g>
<!-- 031&#45;&gt;017 -->
<g id="edge13" class="edge"><title>031&#45;&gt;017</title>
<path fill="none" stroke="#b43f3f" stroke-dasharray="1,5" d="M295.372,-106.006C303.992,-99.9634 313.814,-92.5539 322,-85 330.544,-77.1154 339.076,-67.6186 346.26,-59.0293"/>
<polygon fill="#b43f3f" stroke="#b43f3f" points="349.077,-61.1135 352.692,-51.1545 343.656,-56.6853 349.077,-61.1135"/>
<text text-anchor="middle" x="358" y="-73.8" font-family="Times,serif" font-size="14.00">1 (94.3)</text>
</g>
<!-- 03 -->
<g id="node16" class="node"><title>03</title>
<ellipse fill="#ff8a8a" stroke="#b43f3f" cx="724" cy="-382" rx="31.6951" ry="18"/>
<text text-anchor="middle" x="724" y="-378.3" font-family="Times,serif" font-size="14.00">03 (a)</text>
</g>
<!-- 03&#45;&gt;044 -->
<g id="edge14" class="edge"><title>03&#45;&gt;044</title>
<path fill="none" stroke="#b43f3f" stroke-dasharray="1,5" d="M703.353,-367.912C694.467,-361.796 684.248,-354.086 676,-346 668.175,-338.329 660.638,-328.975 654.368,-320.442"/>
<polygon fill="#b43f3f" stroke="#b43f3f" points="657.206,-318.394 648.557,-312.275 651.503,-322.452 657.206,-318.394"/>
<text text-anchor="middle" x="698" y="-334.8" font-family="Times,serif" font-size="14.00">1 (89.2)</text>
</g>
<!-- 02 -->
<g id="node17" class="node"><title>02</title>
<ellipse fill="#ff8a8a" stroke="#b43f3f" cx="724" cy="-295" rx="31.6951" ry="18"/>
<text text-anchor="middle" x="724" y="-291.3" font-family="Times,serif" font-size="14.00">02 (a)</text>
</g>
<!-- 03&#45;&gt;02 -->
<g id="edge15" class="edge"><title>03&#45;&gt;02</title>
<path fill="none" stroke="#b43f3f" stroke-dasharray="1,5" d="M724,-363.799C724,-352.163 724,-336.548 724,-323.237"/>
<polygon fill="#b43f3f" stroke="#b43f3f" points="727.5,-323.175 724,-313.175 720.5,-323.175 727.5,-323.175"/>
<text text-anchor="middle" x="746" y="-334.8" font-family="Times,serif" font-size="14.00">1 (86.5)</text>
</g>
<!-- 032 -->
<g id="node18" class="node"><title>032</title>
<ellipse fill="#ff8a8a" stroke="#b43f3f" cx="810" cy="-295" rx="36.2938" ry="18"/>
<text text-anchor="middle" x="810" y="-291.3" font-family="Times,serif" font-size="14.00">032 (a)</text>
</g>
<!-- 03&#45;&gt;032 -->
<g id="edge16" class="edge"><title>03&#45;&gt;032</title>
<path fill="none" stroke="#b43f3f" stroke-dasharray="1,5" d="M744.647,-367.912C753.533,-361.796 763.752,-354.086 772,-346 779.825,-338.329 787.362,-328.975 793.632,-320.442"/>
<polygon fill="#b43f3f" stroke="#b43f3f" points="796.497,-322.452 799.443,-312.275 790.794,-318.394 796.497,-322.452"/>
<text text-anchor="middle" x="806" y="-334.8" font-family="Times,serif" font-size="14.00">1 (91.7)</text>
</g>
</g>
</svg>
