<?xml version="1.0" encoding="UTF-8" standalone="no"?>
<!DOCTYPE svg PUBLIC "-//W3C//DTD SVG 1.1//EN"
 "http://www.w3.org/Graphics/SVG/1.1/DTD/svg11.dtd">
<!-- Generated by graphviz version 2.38.0 (20140413.2041)
 -->
<!-- Title: %3 Pages: 1 -->
<svg width="812pt" height="495pt"
 viewBox="0.00 0.00 811.69 495.00" xmlns="http://www.w3.org/2000/svg" xmlns:xlink="http://www.w3.org/1999/xlink">
<g id="graph0" class="graph" transform="scale(1 1) rotate(0) translate(4 491)">
<title>%3</title>
<polygon fill="white" stroke="none" points="-4,4 -4,-491 807.693,-491 807.693,4 -4,4"/>
<g id="clust1" class="cluster"><title>cluster_legend</title>
<path fill="none" stroke="black" d="M242.397,-351C242.397,-351 432.397,-351 432.397,-351 438.397,-351 444.397,-357 444.397,-363 444.397,-363 444.397,-467 444.397,-467 444.397,-473 438.397,-479 432.397,-479 432.397,-479 242.397,-479 242.397,-479 236.397,-479 230.397,-473 230.397,-467 230.397,-467 230.397,-363 230.397,-363 230.397,-357 236.397,-351 242.397,-351"/>
</g>
<!-- leg_s -->
<g id="node1" class="node"><title>leg_s</title>
<text text-anchor="middle" x="337.397" y="-449.3" font-family="Times,serif" font-size="14.00">Textual flow strength</text>
</g>
<!-- leg_e1 -->
<!-- leg_s&#45;&gt;leg_e1 -->
<g id="edge1" class="edge"><title>leg_s&#45;&gt;leg_e1</title>
<path fill="none" stroke="black" stroke-dasharray="1,5" d="M319.062,-434.686C313.529,-429.194 307.557,-422.989 302.397,-417 292.568,-405.593 282.469,-391.779 275.31,-381.563"/>
<polygon fill="black" stroke="black" points="278.011,-379.314 269.453,-373.068 272.248,-383.288 278.011,-379.314"/>
<text text-anchor="middle" x="317.897" y="-405.8" font-family="Times,serif" font-size="14.00">&lt;=5 &#160;</text>
</g>
<!-- leg_e2 -->
<!-- leg_s&#45;&gt;leg_e2 -->
<g id="edge2" class="edge"><title>leg_s&#45;&gt;leg_e2</title>
<path fill="none" stroke="black" stroke-dasharray="5,2" d="M337.397,-434.799C337.397,-419.794 337.397,-398.174 337.397,-383.409"/>
<polygon fill="black" stroke="black" points="340.897,-383.293 337.397,-373.293 333.897,-383.293 340.897,-383.293"/>
<text text-anchor="middle" x="356.397" y="-405.8" font-family="Times,serif" font-size="14.00"> &#160;&lt;=25</text>
</g>
<!-- leg_e3 -->
<!-- leg_s&#45;&gt;leg_e3 -->
<g id="edge3" class="edge"><title>leg_s&#45;&gt;leg_e3</title>
<path fill="none" stroke="black" d="M360.9,-434.76C367.303,-429.462 373.963,-423.344 379.397,-417 388.484,-406.39 396.492,-392.689 401.943,-382.313"/>
<polygon fill="black" stroke="black" points="405.119,-383.789 406.488,-373.283 398.866,-380.642 405.119,-383.789"/>
<text text-anchor="middle" x="401.397" y="-405.8" font-family="Times,serif" font-size="14.00">&gt;25</text>
</g>
<!-- 03 -->
<g id="node5" class="node"><title>03</title>
<ellipse fill="#ff8a8a" stroke="#b43f3f" cx="486.397" cy="-366" rx="31.6951" ry="18"/>
<text text-anchor="middle" x="486.397" y="-362.3" font-family="Times,serif" font-size="14.00">03 (a)</text>
</g>
<!-- 02 -->
<g id="node6" class="node"><title>02</title>
<ellipse fill="#ff8a8a" stroke="#b43f3f" cx="400.397" cy="-279" rx="31.6951" ry="18"/>
<text text-anchor="middle" x="400.397" y="-275.3" font-family="Times,serif" font-size="14.00">02 (a)</text>
</g>
<!-- 03&#45;&gt;02 -->
<g id="edge4" class="edge"><title>03&#45;&gt;02</title>
<path fill="none" stroke="#b43f3f" stroke-dasharray="1,5" d="M465.75,-351.912C456.864,-345.796 446.645,-338.086 438.397,-330 430.572,-322.329 423.035,-312.975 416.765,-304.442"/>
<polygon fill="#b43f3f" stroke="#b43f3f" points="419.603,-302.394 410.954,-296.275 413.899,-306.452 419.603,-302.394"/>
<text text-anchor="middle" x="460.397" y="-318.8" font-family="Times,serif" font-size="14.00">1 (86.5)</text>
</g>
<!-- 044 -->
<g id="node7" class="node"><title>044</title>
<ellipse fill="#ff8a8a" stroke="#b43f3f" cx="486.397" cy="-279" rx="36.2938" ry="18"/>
<text text-anchor="middle" x="486.397" y="-275.3" font-family="Times,serif" font-size="14.00">044 (a)</text>
</g>
<!-- 03&#45;&gt;044 -->
<g id="edge5" class="edge"><title>03&#45;&gt;044</title>
<path fill="none" stroke="#b43f3f" stroke-dasharray="1,5" d="M486.397,-347.799C486.397,-336.163 486.397,-320.548 486.397,-307.237"/>
<polygon fill="#b43f3f" stroke="#b43f3f" points="489.897,-307.175 486.397,-297.175 482.897,-307.175 489.897,-307.175"/>
<text text-anchor="middle" x="508.397" y="-318.8" font-family="Times,serif" font-size="14.00">1 (89.2)</text>
</g>
<!-- 032 -->
<g id="node8" class="node"><title>032</title>
<ellipse fill="#ff8a8a" stroke="#b43f3f" cx="577.397" cy="-279" rx="36.2938" ry="18"/>
<text text-anchor="middle" x="577.397" y="-275.3" font-family="Times,serif" font-size="14.00">032 (a)</text>
</g>
<!-- 03&#45;&gt;032 -->
<g id="edge6" class="edge"><title>03&#45;&gt;032</title>
<path fill="none" stroke="#b43f3f" stroke-dasharray="1,5" d="M506.816,-351.672C515.659,-345.512 525.908,-337.834 534.397,-330 542.941,-322.115 551.472,-312.619 558.657,-304.029"/>
<polygon fill="#b43f3f" stroke="#b43f3f" points="561.474,-306.113 565.089,-296.155 556.053,-301.685 561.474,-306.113"/>
<text text-anchor="middle" x="570.397" y="-318.8" font-family="Times,serif" font-size="14.00">1 (91.7)</text>
</g>
<!-- 021 -->
<g id="node13" class="node"><title>021</title>
<ellipse fill="#ff8a8a" stroke="#b43f3f" cx="127.397" cy="-192" rx="36.2938" ry="18"/>
<text text-anchor="middle" x="127.397" y="-188.3" font-family="Times,serif" font-size="14.00">021 (a)</text>
</g>
<!-- 044&#45;&gt;021 -->
<g id="edge16" class="edge"><title>044&#45;&gt;021</title>
<path fill="none" stroke="#b43f3f" stroke-dasharray="1,5" d="M459.6,-266.689C453.687,-264.529 447.396,-262.483 441.397,-261 378.355,-245.415 359.968,-256.256 296.397,-243 250.869,-233.506 199.828,-217.66 165.87,-206.351"/>
<polygon fill="#b43f3f" stroke="#b43f3f" points="166.929,-203.015 156.335,-203.146 164.698,-209.65 166.929,-203.015"/>
<text text-anchor="middle" x="318.397" y="-231.8" font-family="Times,serif" font-size="14.00">2 (83.8)</text>
</g>
<!-- 022 -->
<g id="node16" class="node"><title>022</title>
<ellipse fill="#ff8a8a" stroke="#b43f3f" cx="266.397" cy="-192" rx="36.2938" ry="18"/>
<text text-anchor="middle" x="266.397" y="-188.3" font-family="Times,serif" font-size="14.00">022 (a)</text>
</g>
<!-- 044&#45;&gt;022 -->
<g id="edge17" class="edge"><title>044&#45;&gt;022</title>
<path fill="none" stroke="#b43f3f" stroke-dasharray="1,5" d="M458.439,-267.028C452.826,-264.941 446.946,-262.838 441.397,-261 413.752,-251.847 405.761,-252.96 378.397,-243 351.728,-233.293 322.471,-220.141 300.549,-209.762"/>
<polygon fill="#b43f3f" stroke="#b43f3f" points="301.863,-206.511 291.331,-205.357 298.845,-212.827 301.863,-206.511"/>
<text text-anchor="middle" x="400.397" y="-231.8" font-family="Times,serif" font-size="14.00">1 (91.7)</text>
</g>
<!-- 07 -->
<g id="node20" class="node"><title>07</title>
<ellipse fill="#ff8a8a" stroke="#b43f3f" cx="400.397" cy="-192" rx="31.6951" ry="18"/>
<text text-anchor="middle" x="400.397" y="-188.3" font-family="Times,serif" font-size="14.00">07 (a)</text>
</g>
<!-- 044&#45;&gt;07 -->
<g id="edge18" class="edge"><title>044&#45;&gt;07</title>
<path fill="none" stroke="#b43f3f" stroke-dasharray="1,5" d="M464.793,-264.25C456.136,-258.245 446.351,-250.798 438.397,-243 430.572,-235.329 423.035,-225.975 416.765,-217.442"/>
<polygon fill="#b43f3f" stroke="#b43f3f" points="419.603,-215.394 410.954,-209.275 413.899,-219.452 419.603,-215.394"/>
<text text-anchor="middle" x="460.397" y="-231.8" font-family="Times,serif" font-size="14.00">2 (83.8)</text>
</g>
<!-- 045 -->
<g id="node21" class="node"><title>045</title>
<ellipse fill="#ff8a8a" stroke="#b43f3f" cx="486.397" cy="-192" rx="36.2938" ry="18"/>
<text text-anchor="middle" x="486.397" y="-188.3" font-family="Times,serif" font-size="14.00">045 (a)</text>
</g>
<!-- 044&#45;&gt;045 -->
<g id="edge19" class="edge"><title>044&#45;&gt;045</title>
<path fill="none" stroke="#b43f3f" stroke-dasharray="1,5" d="M486.397,-260.799C486.397,-249.163 486.397,-233.548 486.397,-220.237"/>
<polygon fill="#b43f3f" stroke="#b43f3f" points="489.897,-220.175 486.397,-210.175 482.897,-220.175 489.897,-220.175"/>
<text text-anchor="middle" x="508.397" y="-231.8" font-family="Times,serif" font-size="14.00">2 (81.1)</text>
</g>
<!-- 028 -->
<g id="node22" class="node"><title>028</title>
<ellipse fill="#ff8a8a" stroke="#b43f3f" cx="577.397" cy="-192" rx="36.2938" ry="18"/>
<text text-anchor="middle" x="577.397" y="-188.3" font-family="Times,serif" font-size="14.00">028 (a)</text>
</g>
<!-- 044&#45;&gt;028 -->
<g id="edge20" class="edge"><title>044&#45;&gt;028</title>
<path fill="none" stroke="#b43f3f" stroke-dasharray="1,5" d="M507.768,-264.006C516.389,-257.963 526.211,-250.554 534.397,-243 542.941,-235.115 551.472,-225.619 558.657,-217.029"/>
<polygon fill="#b43f3f" stroke="#b43f3f" points="561.474,-219.113 565.089,-209.155 556.053,-214.685 561.474,-219.113"/>
<text text-anchor="middle" x="570.397" y="-231.8" font-family="Times,serif" font-size="14.00">2 (81.1)</text>
</g>
<!-- 011 -->
<g id="node23" class="node"><title>011</title>
<ellipse fill="#ff8a8a" stroke="#b43f3f" cx="668.397" cy="-192" rx="36.2938" ry="18"/>
<text text-anchor="middle" x="668.397" y="-188.3" font-family="Times,serif" font-size="14.00">011 (a)</text>
</g>
<!-- 044&#45;&gt;011 -->
<g id="edge21" class="edge"><title>044&#45;&gt;011</title>
<path fill="none" stroke="#b43f3f" stroke-dasharray="1,5" d="M514.492,-267.213C520.377,-265.067 526.567,-262.894 532.397,-261 560.499,-251.871 569.67,-255.601 596.397,-243 612.657,-235.334 629.241,-224.096 642.388,-214.216"/>
<polygon fill="#b43f3f" stroke="#b43f3f" points="644.709,-216.847 650.494,-207.97 640.436,-211.302 644.709,-216.847"/>
<text text-anchor="middle" x="644.397" y="-231.8" font-family="Times,serif" font-size="14.00">2 (86.5)</text>
</g>
<!-- 0141 -->
<g id="node24" class="node"><title>0141</title>
<ellipse fill="#ff8a8a" stroke="#b43f3f" cx="763.397" cy="-192" rx="40.0939" ry="18"/>
<text text-anchor="middle" x="763.397" y="-188.3" font-family="Times,serif" font-size="14.00">0141 (a)</text>
</g>
<!-- 044&#45;&gt;0141 -->
<g id="edge22" class="edge"><title>044&#45;&gt;0141</title>
<path fill="none" stroke="#b43f3f" stroke-dasharray="1,5" d="M513.813,-266.728C519.856,-264.566 526.28,-262.509 532.397,-261 592.45,-246.186 611.521,-261.957 670.397,-243 692.537,-235.871 715.576,-223.526 733.184,-212.887"/>
<polygon fill="#b43f3f" stroke="#b43f3f" points="735.202,-215.754 741.864,-207.515 731.518,-209.802 735.202,-215.754"/>
<text text-anchor="middle" x="727.397" y="-231.8" font-family="Times,serif" font-size="14.00">1 (89.2)</text>
</g>
<!-- A -->
<g id="node9" class="node"><title>A</title>
<ellipse fill="#ff8a8a" stroke="#b43f3f" cx="615.397" cy="-453" rx="29.4969" ry="18"/>
<text text-anchor="middle" x="615.397" y="-449.3" font-family="Times,serif" font-size="14.00">A (a)</text>
</g>
<!-- A&#45;&gt;03 -->
<g id="edge7" class="edge"><title>A&#45;&gt;03</title>
<path fill="none" stroke="#b43f3f" stroke-dasharray="1,5" d="M590.695,-443.257C575.013,-437.12 554.679,-428.049 538.397,-417 527.062,-409.308 515.921,-399.062 506.876,-389.848"/>
<polygon fill="#b43f3f" stroke="#b43f3f" points="509.245,-387.26 499.814,-382.43 504.175,-392.086 509.245,-387.26"/>
<text text-anchor="middle" x="560.397" y="-405.8" font-family="Times,serif" font-size="14.00">1 (93.3)</text>
</g>
<!-- P75 -->
<g id="node10" class="node"><title>P75</title>
<ellipse fill="#ff8a8a" stroke="#b43f3f" cx="572.397" cy="-366" rx="36.2938" ry="18"/>
<text text-anchor="middle" x="572.397" y="-362.3" font-family="Times,serif" font-size="14.00">P75 (a)</text>
</g>
<!-- A&#45;&gt;P75 -->
<g id="edge8" class="edge"><title>A&#45;&gt;P75</title>
<path fill="none" stroke="#b43f3f" stroke-dasharray="1,5" d="M604.166,-436.379C600.176,-430.467 595.828,-423.575 592.397,-417 588.504,-409.54 584.877,-401.146 581.809,-393.396"/>
<polygon fill="#b43f3f" stroke="#b43f3f" points="585.076,-392.141 578.245,-384.043 578.535,-394.634 585.076,-392.141"/>
<text text-anchor="middle" x="614.397" y="-405.8" font-family="Times,serif" font-size="14.00">1 (93.3)</text>
</g>
<!-- 01 -->
<g id="node11" class="node"><title>01</title>
<ellipse fill="#ff8a8a" stroke="#b43f3f" cx="658.397" cy="-366" rx="31.6951" ry="18"/>
<text text-anchor="middle" x="658.397" y="-362.3" font-family="Times,serif" font-size="14.00">01 (a)</text>
</g>
<!-- A&#45;&gt;01 -->
<g id="edge9" class="edge"><title>A&#45;&gt;01</title>
<path fill="none" stroke="#b43f3f" stroke-dasharray="5,2" d="M625.66,-435.861C629.224,-430.011 633.14,-423.294 636.397,-417 640.319,-409.419 644.203,-400.989 647.59,-393.243"/>
<polygon fill="#b43f3f" stroke="#b43f3f" points="650.866,-394.485 651.58,-383.914 644.43,-391.732 650.866,-394.485"/>
<text text-anchor="middle" x="666.397" y="-405.8" font-family="Times,serif" font-size="14.00">1 (57.1)</text>
</g>
<!-- 019 -->
<g id="node12" class="node"><title>019</title>
<ellipse fill="#ff8a8a" stroke="#b43f3f" cx="744.397" cy="-366" rx="36.2938" ry="18"/>
<text text-anchor="middle" x="744.397" y="-362.3" font-family="Times,serif" font-size="14.00">019 (a)</text>
</g>
<!-- A&#45;&gt;019 -->
<g id="edge10" class="edge"><title>A&#45;&gt;019</title>
<path fill="none" stroke="#b43f3f" stroke-dasharray="1,5" d="M640.098,-443.257C655.781,-437.12 676.115,-428.049 692.397,-417 703.57,-409.418 714.555,-399.354 723.528,-390.244"/>
<polygon fill="#b43f3f" stroke="#b43f3f" points="726.176,-392.539 730.553,-382.891 721.114,-387.704 726.176,-392.539"/>
<text text-anchor="middle" x="733.397" y="-405.8" font-family="Times,serif" font-size="14.00">1 (93.3)</text>
</g>
<!-- 047 -->
<g id="node14" class="node"><title>047</title>
<ellipse fill="#ff8a8a" stroke="#b43f3f" cx="36.3968" cy="-105" rx="36.2938" ry="18"/>
<text text-anchor="middle" x="36.3968" y="-101.3" font-family="Times,serif" font-size="14.00">047 (a)</text>
</g>
<!-- 021&#45;&gt;047 -->
<g id="edge11" class="edge"><title>021&#45;&gt;047</title>
<path fill="none" stroke="#b43f3f" stroke-dasharray="1,5" d="M106.025,-177.006C97.4044,-170.963 87.5824,-163.554 79.3968,-156 70.8527,-148.115 62.3211,-138.619 55.1364,-130.029"/>
<polygon fill="#b43f3f" stroke="#b43f3f" points="57.741,-127.685 48.7043,-122.155 52.3196,-132.113 57.741,-127.685"/>
<text text-anchor="middle" x="101.397" y="-144.8" font-family="Times,serif" font-size="14.00">1 (95.1)</text>
</g>
<!-- 036 -->
<g id="node15" class="node"><title>036</title>
<ellipse fill="#cea8f4" stroke="#835da9" cx="127.397" cy="-105" rx="36.2938" ry="18"/>
<text text-anchor="middle" x="127.397" y="-101.3" font-family="Times,serif" font-size="14.00">036 (b)</text>
</g>
<!-- 021&#45;&gt;036 -->
<g id="edge12" class="edge"><title>021&#45;&gt;036</title>
<path fill="none" stroke="#835da9" stroke-dasharray="1,5" d="M127.397,-173.799C127.397,-162.163 127.397,-146.548 127.397,-133.237"/>
<polygon fill="#835da9" stroke="#835da9" points="130.897,-133.175 127.397,-123.175 123.897,-133.175 130.897,-133.175"/>
<text text-anchor="middle" x="149.397" y="-144.8" font-family="Times,serif" font-size="14.00">1 (97.6)</text>
</g>
<!-- 031 -->
<g id="node17" class="node"><title>031</title>
<ellipse fill="#ff8a8a" stroke="#b43f3f" cx="218.397" cy="-105" rx="36.2938" ry="18"/>
<text text-anchor="middle" x="218.397" y="-101.3" font-family="Times,serif" font-size="14.00">031 (a)</text>
</g>
<!-- 022&#45;&gt;031 -->
<g id="edge13" class="edge"><title>022&#45;&gt;031</title>
<path fill="none" stroke="#b43f3f" stroke-dasharray="1,5" d="M255.226,-174.869C251.329,-169.02 247.025,-162.301 243.397,-156 238.989,-148.347 234.556,-139.817 230.673,-132"/>
<polygon fill="#b43f3f" stroke="#b43f3f" points="233.777,-130.38 226.247,-122.926 227.485,-133.448 233.777,-130.38"/>
<text text-anchor="middle" x="265.397" y="-144.8" font-family="Times,serif" font-size="14.00">2 (86.7)</text>
</g>
<!-- 017 -->
<g id="node18" class="node"><title>017</title>
<ellipse fill="#ff8a8a" stroke="#b43f3f" cx="173.397" cy="-18" rx="36.2938" ry="18"/>
<text text-anchor="middle" x="173.397" y="-14.3" font-family="Times,serif" font-size="14.00">017 (a)</text>
</g>
<!-- 031&#45;&gt;017 -->
<g id="edge14" class="edge"><title>031&#45;&gt;017</title>
<path fill="none" stroke="#b43f3f" stroke-dasharray="1,5" d="M208.644,-87.3706C205.322,-81.5933 201.633,-75.047 198.397,-69 194.229,-61.2133 189.866,-52.6446 185.972,-44.8337"/>
<polygon fill="#b43f3f" stroke="#b43f3f" points="189.069,-43.1997 181.5,-35.7855 182.793,-46.3011 189.069,-43.1997"/>
<text text-anchor="middle" x="220.397" y="-57.8" font-family="Times,serif" font-size="14.00">1 (94.3)</text>
</g>
<!-- 013 -->
<g id="node19" class="node"><title>013</title>
<ellipse fill="#ff8a8a" stroke="#b43f3f" cx="264.397" cy="-18" rx="36.2938" ry="18"/>
<text text-anchor="middle" x="264.397" y="-14.3" font-family="Times,serif" font-size="14.00">013 (a)</text>
</g>
<!-- 031&#45;&gt;013 -->
<g id="edge15" class="edge"><title>031&#45;&gt;013</title>
<path fill="none" stroke="#b43f3f" stroke-dasharray="1,5" d="M230.526,-87.6704C234.546,-81.9172 238.886,-75.3093 242.397,-69 246.547,-61.5417 250.498,-53.1477 253.877,-45.3977"/>
<polygon fill="#b43f3f" stroke="#b43f3f" points="257.161,-46.6185 257.824,-36.0444 250.712,-43.8974 257.161,-46.6185"/>
<text text-anchor="middle" x="272.397" y="-57.8" font-family="Times,serif" font-size="14.00">1 (97.1)</text>
</g>
<!-- 037 -->
<g id="node25" class="node"><title>037</title>
<ellipse fill="#ff8a8a" stroke="#b43f3f" cx="309.397" cy="-105" rx="36.2938" ry="18"/>
<text text-anchor="middle" x="309.397" y="-101.3" font-family="Times,serif" font-size="14.00">037 (a)</text>
</g>
<!-- 07&#45;&gt;037 -->
<g id="edge23" class="edge"><title>07&#45;&gt;037</title>
<path fill="none" stroke="#b43f3f" stroke-dasharray="1,5" d="M379.978,-177.672C371.134,-171.512 360.886,-163.834 352.397,-156 343.853,-148.115 335.321,-138.619 328.136,-130.029"/>
<polygon fill="#b43f3f" stroke="#b43f3f" points="330.741,-127.685 321.704,-122.155 325.32,-132.113 330.741,-127.685"/>
<text text-anchor="middle" x="374.397" y="-144.8" font-family="Times,serif" font-size="14.00">1 (97.5)</text>
</g>
<!-- 034 -->
<g id="node26" class="node"><title>034</title>
<ellipse fill="#ff8a8a" stroke="#b43f3f" cx="400.397" cy="-105" rx="36.2938" ry="18"/>
<text text-anchor="middle" x="400.397" y="-101.3" font-family="Times,serif" font-size="14.00">034 (a)</text>
</g>
<!-- 07&#45;&gt;034 -->
<g id="edge24" class="edge"><title>07&#45;&gt;034</title>
<path fill="none" stroke="#b43f3f" stroke-dasharray="1,5" d="M400.397,-173.799C400.397,-162.163 400.397,-146.548 400.397,-133.237"/>
<polygon fill="#b43f3f" stroke="#b43f3f" points="403.897,-133.175 400.397,-123.175 396.897,-133.175 403.897,-133.175"/>
<text text-anchor="middle" x="422.397" y="-144.8" font-family="Times,serif" font-size="14.00">1 (95.1)</text>
</g>
<!-- 0211 -->
<g id="node27" class="node"><title>0211</title>
<ellipse fill="#cea8f4" stroke="#835da9" cx="495.397" cy="-105" rx="40.8928" ry="18"/>
<text text-anchor="middle" x="495.397" y="-101.3" font-family="Times,serif" font-size="14.00">0211 (b)</text>
</g>
<!-- 07&#45;&gt;0211 -->
<g id="edge25" class="edge"><title>07&#45;&gt;0211</title>
<path fill="none" stroke="#835da9" stroke-dasharray="1,5" d="M420.182,-177.822C429.1,-171.572 439.582,-163.781 448.397,-156 457.56,-147.911 466.927,-138.276 474.863,-129.632"/>
<polygon fill="#835da9" stroke="#835da9" points="477.606,-131.816 481.702,-122.045 472.407,-127.129 477.606,-131.816"/>
<text text-anchor="middle" x="486.397" y="-144.8" font-family="Times,serif" font-size="14.00">2 (82.9)</text>
</g>
<!-- 030 -->
<g id="node28" class="node"><title>030</title>
<ellipse fill="#cea8f4" stroke="#835da9" cx="590.397" cy="-105" rx="36.2938" ry="18"/>
<text text-anchor="middle" x="590.397" y="-101.3" font-family="Times,serif" font-size="14.00">030 (b)</text>
</g>
<!-- 07&#45;&gt;030 -->
<g id="edge26" class="edge"><title>07&#45;&gt;030</title>
<path fill="none" stroke="#835da9" stroke-dasharray="1,5" d="M424.894,-180.166C430.276,-177.976 435.985,-175.797 441.397,-174 472.291,-163.739 482.53,-168.951 512.397,-156 530.239,-148.263 548.627,-136.681 563.064,-126.612"/>
<polygon fill="#835da9" stroke="#835da9" points="565.399,-129.246 571.503,-120.586 561.331,-123.549 565.399,-129.246"/>
<text text-anchor="middle" x="562.397" y="-144.8" font-family="Times,serif" font-size="14.00">1 (95.1)</text>
</g>
<!-- 038 -->
<g id="node29" class="node"><title>038</title>
<ellipse fill="#ff8a8a" stroke="#b43f3f" cx="681.397" cy="-105" rx="36.2938" ry="18"/>
<text text-anchor="middle" x="681.397" y="-101.3" font-family="Times,serif" font-size="14.00">038 (a)</text>
</g>
<!-- 045&#45;&gt;038 -->
<g id="edge27" class="edge"><title>045&#45;&gt;038</title>
<path fill="none" stroke="#b43f3f" stroke-dasharray="1,5" d="M514.547,-180.379C520.429,-178.221 526.602,-176.001 532.397,-174 557.108,-165.467 564.339,-166.232 588.397,-156 609.657,-146.957 632.524,-134.7 650.263,-124.585"/>
<polygon fill="#b43f3f" stroke="#b43f3f" points="652.127,-127.55 659.037,-119.519 648.627,-121.488 652.127,-127.55"/>
<text text-anchor="middle" x="642.397" y="-144.8" font-family="Times,serif" font-size="14.00">1 (92.7)</text>
</g>
</g>
</svg>
