<?xml version="1.0" encoding="UTF-8" standalone="no"?>
<!DOCTYPE svg PUBLIC "-//W3C//DTD SVG 1.1//EN"
 "http://www.w3.org/Graphics/SVG/1.1/DTD/svg11.dtd">
<!-- Generated by graphviz version 2.38.0 (20140413.2041)
 -->
<!-- Title: G Pages: 1 -->
<svg width="981pt" height="332pt"
 viewBox="0.00 0.00 980.79 332.00" xmlns="http://www.w3.org/2000/svg" xmlns:xlink="http://www.w3.org/1999/xlink">
<g id="graph0" class="graph" transform="scale(1 1) rotate(0) translate(4 328)">
<title>G</title>
<polygon fill="white" stroke="none" points="-4,4 -4,-328 976.794,-328 976.794,4 -4,4"/>
<!-- 038 (a) -->
<g id="node1" class="node"><title>038 (a)</title>
<ellipse fill="#ff8a8a" stroke="#b43f3f" cx="481.397" cy="-18" rx="36.2938" ry="18"/>
<text text-anchor="middle" x="481.397" y="-14.3" font-family="Times,serif" font-size="14.00">038 (a)</text>
</g>
<!-- 032 (a) -->
<g id="node2" class="node"><title>032 (a)</title>
<ellipse fill="#ff8a8a" stroke="#b43f3f" cx="36.3968" cy="-162" rx="36.2938" ry="18"/>
<text text-anchor="middle" x="36.3968" y="-158.3" font-family="Times,serif" font-size="14.00">032 (a)</text>
</g>
<!-- 034 (a) -->
<g id="node3" class="node"><title>034 (a)</title>
<ellipse fill="#ff8a8a" stroke="#b43f3f" cx="572.397" cy="-18" rx="36.2938" ry="18"/>
<text text-anchor="middle" x="572.397" y="-14.3" font-family="Times,serif" font-size="14.00">034 (a)</text>
</g>
<!-- 063 (a) -->
<g id="node4" class="node"><title>063 (a)</title>
<ellipse fill="#ff8a8a" stroke="#b43f3f" cx="481.397" cy="-162" rx="36.2938" ry="18"/>
<text text-anchor="middle" x="481.397" y="-158.3" font-family="Times,serif" font-size="14.00">063 (a)</text>
</g>
<!-- 028 (a) -->
<g id="node6" class="node"><title>028 (a)</title>
<ellipse fill="#ff8a8a" stroke="#b43f3f" cx="299.397" cy="-90" rx="36.2938" ry="18"/>
<text text-anchor="middle" x="299.397" y="-86.3" font-family="Times,serif" font-size="14.00">028 (a)</text>
</g>
<!-- 063 (a)&#45;&gt;028 (a) -->
<g id="edge1" class="edge"><title>063 (a)&#45;&gt;028 (a)</title>
<path fill="none" stroke="black" d="M453.358,-150.216C422.139,-138.209 371.528,-118.743 336.917,-105.431"/>
<polygon fill="black" stroke="black" points="337.759,-102.005 327.169,-101.681 335.246,-108.538 337.759,-102.005"/>
</g>
<!-- 031 (a) -->
<g id="node15" class="node"><title>031 (a)</title>
<ellipse fill="#ff8a8a" stroke="#b43f3f" cx="390.397" cy="-90" rx="36.2938" ry="18"/>
<text text-anchor="middle" x="390.397" y="-86.3" font-family="Times,serif" font-size="14.00">031 (a)</text>
</g>
<!-- 063 (a)&#45;&gt;031 (a) -->
<g id="edge2" class="edge"><title>063 (a)&#45;&gt;031 (a)</title>
<path fill="none" stroke="black" d="M462.542,-146.496C449.486,-136.453 431.912,-122.934 417.377,-111.754"/>
<polygon fill="black" stroke="black" points="419.288,-108.808 409.228,-105.485 415.02,-114.357 419.288,-108.808"/>
</g>
<!-- 011 (a) -->
<g id="node18" class="node"><title>011 (a)</title>
<ellipse fill="#ff8a8a" stroke="#b43f3f" cx="481.397" cy="-90" rx="36.2938" ry="18"/>
<text text-anchor="middle" x="481.397" y="-86.3" font-family="Times,serif" font-size="14.00">011 (a)</text>
</g>
<!-- 063 (a)&#45;&gt;011 (a) -->
<g id="edge5" class="edge"><title>063 (a)&#45;&gt;011 (a)</title>
<path fill="none" stroke="black" d="M481.397,-143.697C481.397,-135.983 481.397,-126.712 481.397,-118.112"/>
<polygon fill="black" stroke="black" points="484.897,-118.104 481.397,-108.104 477.897,-118.104 484.897,-118.104"/>
</g>
<!-- 045 (a) -->
<g id="node20" class="node"><title>045 (a)</title>
<ellipse fill="#ff8a8a" stroke="#b43f3f" cx="572.397" cy="-90" rx="36.2938" ry="18"/>
<text text-anchor="middle" x="572.397" y="-86.3" font-family="Times,serif" font-size="14.00">045 (a)</text>
</g>
<!-- 063 (a)&#45;&gt;045 (a) -->
<g id="edge6" class="edge"><title>063 (a)&#45;&gt;045 (a)</title>
<path fill="none" stroke="black" d="M500.252,-146.496C513.308,-136.453 530.882,-122.934 545.416,-111.754"/>
<polygon fill="black" stroke="black" points="547.773,-114.357 553.566,-105.485 543.505,-108.808 547.773,-114.357"/>
</g>
<!-- 07 (a) -->
<g id="node25" class="node"><title>07 (a)</title>
<ellipse fill="#ff8a8a" stroke="#b43f3f" cx="660.397" cy="-90" rx="31.6951" ry="18"/>
<text text-anchor="middle" x="660.397" y="-86.3" font-family="Times,serif" font-size="14.00">07 (a)</text>
</g>
<!-- 063 (a)&#45;&gt;07 (a) -->
<g id="edge3" class="edge"><title>063 (a)&#45;&gt;07 (a)</title>
<path fill="none" stroke="black" d="M509.023,-150.28C536.511,-139.602 579.891,-122.722 617.397,-108 620.059,-106.955 622.813,-105.872 625.581,-104.781"/>
<polygon fill="black" stroke="black" points="626.922,-108.015 634.939,-101.089 624.352,-101.503 626.922,-108.015"/>
</g>
<!-- 021 (a) -->
<g id="node28" class="node"><title>021 (a)</title>
<ellipse fill="#ff8a8a" stroke="#b43f3f" cx="845.397" cy="-90" rx="36.2938" ry="18"/>
<text text-anchor="middle" x="845.397" y="-86.3" font-family="Times,serif" font-size="14.00">021 (a)</text>
</g>
<!-- 063 (a)&#45;&gt;021 (a) -->
<g id="edge4" class="edge"><title>063 (a)&#45;&gt;021 (a)</title>
<path fill="none" stroke="black" d="M514.664,-154.602C580.79,-141.886 728.698,-113.442 802.212,-99.3048"/>
<polygon fill="black" stroke="black" points="802.916,-102.734 812.075,-97.408 801.594,-95.8595 802.916,-102.734"/>
</g>
<!-- 05 (a) -->
<g id="node5" class="node"><title>05 (a)</title>
<ellipse fill="#ff8a8a" stroke="#b43f3f" cx="634.397" cy="-162" rx="31.6951" ry="18"/>
<text text-anchor="middle" x="634.397" y="-158.3" font-family="Times,serif" font-size="14.00">05 (a)</text>
</g>
<!-- 02 (a) -->
<g id="node7" class="node"><title>02 (a)</title>
<ellipse fill="#ff8a8a" stroke="#b43f3f" cx="122.397" cy="-162" rx="31.6951" ry="18"/>
<text text-anchor="middle" x="122.397" y="-158.3" font-family="Times,serif" font-size="14.00">02 (a)</text>
</g>
<!-- 03 (a) -->
<g id="node8" class="node"><title>03 (a)</title>
<ellipse fill="#ff8a8a" stroke="#b43f3f" cx="165.397" cy="-234" rx="31.6951" ry="18"/>
<text text-anchor="middle" x="165.397" y="-230.3" font-family="Times,serif" font-size="14.00">03 (a)</text>
</g>
<!-- 03 (a)&#45;&gt;032 (a) -->
<g id="edge7" class="edge"><title>03 (a)&#45;&gt;032 (a)</title>
<path fill="none" stroke="black" d="M143.221,-220.967C122.743,-209.855 92.0752,-193.213 68.8447,-180.607"/>
<polygon fill="black" stroke="black" points="70.4867,-177.516 60.028,-175.823 67.1481,-183.669 70.4867,-177.516"/>
</g>
<!-- 03 (a)&#45;&gt;02 (a) -->
<g id="edge9" class="edge"><title>03 (a)&#45;&gt;02 (a)</title>
<path fill="none" stroke="black" d="M155.424,-216.765C150.159,-208.195 143.586,-197.494 137.693,-187.9"/>
<polygon fill="black" stroke="black" points="140.532,-185.836 132.316,-179.147 134.568,-189.5 140.532,-185.836"/>
</g>
<!-- 044 (a) -->
<g id="node9" class="node"><title>044 (a)</title>
<ellipse fill="#ff8a8a" stroke="#b43f3f" cx="208.397" cy="-162" rx="36.2938" ry="18"/>
<text text-anchor="middle" x="208.397" y="-158.3" font-family="Times,serif" font-size="14.00">044 (a)</text>
</g>
<!-- 03 (a)&#45;&gt;044 (a) -->
<g id="edge8" class="edge"><title>03 (a)&#45;&gt;044 (a)</title>
<path fill="none" stroke="black" d="M175.37,-216.765C180.559,-208.317 187.02,-197.799 192.848,-188.312"/>
<polygon fill="black" stroke="black" points="195.927,-189.986 198.179,-179.633 189.963,-186.322 195.927,-189.986"/>
</g>
<!-- 0141 (a) -->
<g id="node10" class="node"><title>0141 (a)</title>
<ellipse fill="#ff8a8a" stroke="#b43f3f" cx="113.397" cy="-90" rx="40.0939" ry="18"/>
<text text-anchor="middle" x="113.397" y="-86.3" font-family="Times,serif" font-size="14.00">0141 (a)</text>
</g>
<!-- 044 (a)&#45;&gt;0141 (a) -->
<g id="edge11" class="edge"><title>044 (a)&#45;&gt;0141 (a)</title>
<path fill="none" stroke="black" d="M188.713,-146.496C175.048,-136.427 156.64,-122.864 141.444,-111.666"/>
<polygon fill="black" stroke="black" points="143.509,-108.841 133.382,-105.726 139.357,-114.476 143.509,-108.841"/>
</g>
<!-- 022 (a) -->
<g id="node21" class="node"><title>022 (a)</title>
<ellipse fill="#ff8a8a" stroke="#b43f3f" cx="208.397" cy="-90" rx="36.2938" ry="18"/>
<text text-anchor="middle" x="208.397" y="-86.3" font-family="Times,serif" font-size="14.00">022 (a)</text>
</g>
<!-- 044 (a)&#45;&gt;022 (a) -->
<g id="edge10" class="edge"><title>044 (a)&#45;&gt;022 (a)</title>
<path fill="none" stroke="black" d="M208.397,-143.697C208.397,-135.983 208.397,-126.712 208.397,-118.112"/>
<polygon fill="black" stroke="black" points="211.897,-118.104 208.397,-108.104 204.897,-118.104 211.897,-118.104"/>
</g>
<!-- 019 (a) -->
<g id="node11" class="node"><title>019 (a)</title>
<ellipse fill="#ff8a8a" stroke="#b43f3f" cx="414.397" cy="-234" rx="36.2938" ry="18"/>
<text text-anchor="middle" x="414.397" y="-230.3" font-family="Times,serif" font-size="14.00">019 (a)</text>
</g>
<!-- 019 (a)&#45;&gt;063 (a) -->
<g id="edge12" class="edge"><title>019 (a)&#45;&gt;063 (a)</title>
<path fill="none" stroke="black" d="M429.266,-217.465C438.114,-208.221 449.504,-196.321 459.379,-186.003"/>
<polygon fill="black" stroke="black" points="462.183,-188.136 466.569,-178.492 457.126,-183.296 462.183,-188.136"/>
</g>
<!-- P75 (a) -->
<g id="node12" class="node"><title>P75 (a)</title>
<ellipse fill="#ff8a8a" stroke="#b43f3f" cx="505.397" cy="-234" rx="36.2938" ry="18"/>
<text text-anchor="middle" x="505.397" y="-230.3" font-family="Times,serif" font-size="14.00">P75 (a)</text>
</g>
<!-- 01 (b) -->
<g id="node13" class="node"><title>01 (b)</title>
<ellipse fill="#cea8f4" stroke="#835da9" cx="592.397" cy="-234" rx="32.4942" ry="18"/>
<text text-anchor="middle" x="592.397" y="-230.3" font-family="Times,serif" font-size="14.00">01 (b)</text>
</g>
<!-- 0211 (a) -->
<g id="node14" class="node"><title>0211 (a)</title>
<ellipse fill="#ff8a8a" stroke="#b43f3f" cx="724.397" cy="-162" rx="40.0939" ry="18"/>
<text text-anchor="middle" x="724.397" y="-158.3" font-family="Times,serif" font-size="14.00">0211 (a)</text>
</g>
<!-- 017 (a) -->
<g id="node17" class="node"><title>017 (a)</title>
<ellipse fill="#ff8a8a" stroke="#b43f3f" cx="299.397" cy="-18" rx="36.2938" ry="18"/>
<text text-anchor="middle" x="299.397" y="-14.3" font-family="Times,serif" font-size="14.00">017 (a)</text>
</g>
<!-- 031 (a)&#45;&gt;017 (a) -->
<g id="edge13" class="edge"><title>031 (a)&#45;&gt;017 (a)</title>
<path fill="none" stroke="black" d="M371.542,-74.496C358.486,-64.4532 340.912,-50.9344 326.377,-39.7541"/>
<polygon fill="black" stroke="black" points="328.288,-36.8084 318.228,-33.4855 324.02,-42.3568 328.288,-36.8084"/>
</g>
<!-- 013 (a) -->
<g id="node23" class="node"><title>013 (a)</title>
<ellipse fill="#ff8a8a" stroke="#b43f3f" cx="390.397" cy="-18" rx="36.2938" ry="18"/>
<text text-anchor="middle" x="390.397" y="-14.3" font-family="Times,serif" font-size="14.00">013 (a)</text>
</g>
<!-- 031 (a)&#45;&gt;013 (a) -->
<g id="edge14" class="edge"><title>031 (a)&#45;&gt;013 (a)</title>
<path fill="none" stroke="black" d="M390.397,-71.6966C390.397,-63.9827 390.397,-54.7125 390.397,-46.1124"/>
<polygon fill="black" stroke="black" points="393.897,-46.1043 390.397,-36.1043 386.897,-46.1044 393.897,-46.1043"/>
</g>
<!-- 036 (a) -->
<g id="node16" class="node"><title>036 (a)</title>
<ellipse fill="#ff8a8a" stroke="#b43f3f" cx="845.397" cy="-18" rx="36.2938" ry="18"/>
<text text-anchor="middle" x="845.397" y="-14.3" font-family="Times,serif" font-size="14.00">036 (a)</text>
</g>
<!-- 047 (a) -->
<g id="node19" class="node"><title>047 (a)</title>
<ellipse fill="#ff8a8a" stroke="#b43f3f" cx="936.397" cy="-18" rx="36.2938" ry="18"/>
<text text-anchor="middle" x="936.397" y="-14.3" font-family="Times,serif" font-size="14.00">047 (a)</text>
</g>
<!-- 045 (a)&#45;&gt;038 (a) -->
<g id="edge15" class="edge"><title>045 (a)&#45;&gt;038 (a)</title>
<path fill="none" stroke="black" d="M553.542,-74.496C540.486,-64.4532 522.912,-50.9344 508.377,-39.7541"/>
<polygon fill="black" stroke="black" points="510.288,-36.8084 500.228,-33.4855 506.02,-42.3568 510.288,-36.8084"/>
</g>
<!-- A (a) -->
<g id="node22" class="node"><title>A (a)</title>
<ellipse fill="#ff8a8a" stroke="#b43f3f" cx="505.397" cy="-306" rx="29.4969" ry="18"/>
<text text-anchor="middle" x="505.397" y="-302.3" font-family="Times,serif" font-size="14.00">A (a)</text>
</g>
<!-- A (a)&#45;&gt;03 (a) -->
<g id="edge19" class="edge"><title>A (a)&#45;&gt;03 (a)</title>
<path fill="none" stroke="black" d="M478.148,-299.39C418.344,-287.077 275.359,-257.639 205.368,-243.229"/>
<polygon fill="black" stroke="black" points="205.687,-239.722 195.187,-241.133 204.276,-246.578 205.687,-239.722"/>
</g>
<!-- A (a)&#45;&gt;019 (a) -->
<g id="edge17" class="edge"><title>A (a)&#45;&gt;019 (a)</title>
<path fill="none" stroke="black" d="M487.851,-291.503C474.691,-281.38 456.436,-267.338 441.417,-255.785"/>
<polygon fill="black" stroke="black" points="443.52,-252.987 433.459,-249.664 439.252,-258.535 443.52,-252.987"/>
</g>
<!-- A (a)&#45;&gt;P75 (a) -->
<g id="edge16" class="edge"><title>A (a)&#45;&gt;P75 (a)</title>
<path fill="none" stroke="black" d="M505.397,-287.697C505.397,-279.983 505.397,-270.712 505.397,-262.112"/>
<polygon fill="black" stroke="black" points="508.897,-262.104 505.397,-252.104 501.897,-262.104 508.897,-262.104"/>
</g>
<!-- A (a)&#45;&gt;01 (b) -->
<g id="edge18" class="edge"><title>A (a)&#45;&gt;01 (b)</title>
<path fill="none" stroke="black" d="M522.585,-291.17C535.17,-281.045 552.46,-267.133 566.685,-255.688"/>
<polygon fill="black" stroke="black" points="569.05,-258.277 574.647,-249.282 564.661,-252.823 569.05,-258.277"/>
</g>
<!-- 091 (a) -->
<g id="node24" class="node"><title>091 (a)</title>
<ellipse fill="#ff8a8a" stroke="#b43f3f" cx="679.397" cy="-234" rx="36.2938" ry="18"/>
<text text-anchor="middle" x="679.397" y="-230.3" font-family="Times,serif" font-size="14.00">091 (a)</text>
</g>
<!-- A (a)&#45;&gt;091 (a) -->
<g id="edge20" class="edge"><title>A (a)&#45;&gt;091 (a)</title>
<path fill="none" stroke="black" d="M529.226,-295.414C558.452,-283.656 608.313,-263.597 642.505,-249.841"/>
<polygon fill="black" stroke="black" points="644.167,-252.945 652.138,-245.966 641.555,-246.451 644.167,-252.945"/>
</g>
<!-- 091 (a)&#45;&gt;05 (a) -->
<g id="edge21" class="edge"><title>091 (a)&#45;&gt;05 (a)</title>
<path fill="none" stroke="black" d="M668.732,-216.411C663.296,-207.955 656.572,-197.494 650.519,-188.078"/>
<polygon fill="black" stroke="black" points="653.336,-185.989 644.985,-179.47 647.448,-189.774 653.336,-185.989"/>
</g>
<!-- 091 (a)&#45;&gt;0211 (a) -->
<g id="edge22" class="edge"><title>091 (a)&#45;&gt;0211 (a)</title>
<path fill="none" stroke="black" d="M690.061,-216.411C695.497,-207.955 702.222,-197.494 708.275,-188.078"/>
<polygon fill="black" stroke="black" points="711.345,-189.774 713.809,-179.47 705.457,-185.989 711.345,-189.774"/>
</g>
<!-- 07 (a)&#45;&gt;034 (a) -->
<g id="edge25" class="edge"><title>07 (a)&#45;&gt;034 (a)</title>
<path fill="none" stroke="black" d="M642.589,-74.8345C629.994,-64.8158 612.897,-51.2163 598.731,-39.9473"/>
<polygon fill="black" stroke="black" points="600.789,-37.1125 590.784,-33.6263 596.431,-42.5907 600.789,-37.1125"/>
</g>
<!-- 037 (a) -->
<g id="node26" class="node"><title>037 (a)</title>
<ellipse fill="#ff8a8a" stroke="#b43f3f" cx="663.397" cy="-18" rx="36.2938" ry="18"/>
<text text-anchor="middle" x="663.397" y="-14.3" font-family="Times,serif" font-size="14.00">037 (a)</text>
</g>
<!-- 07 (a)&#45;&gt;037 (a) -->
<g id="edge23" class="edge"><title>07 (a)&#45;&gt;037 (a)</title>
<path fill="none" stroke="black" d="M661.138,-71.6966C661.469,-63.9827 661.866,-54.7125 662.235,-46.1124"/>
<polygon fill="black" stroke="black" points="665.732,-46.2451 662.664,-36.1043 658.739,-45.9453 665.732,-46.2451"/>
</g>
<!-- 030 (a) -->
<g id="node27" class="node"><title>030 (a)</title>
<ellipse fill="#ff8a8a" stroke="#b43f3f" cx="754.397" cy="-18" rx="36.2938" ry="18"/>
<text text-anchor="middle" x="754.397" y="-14.3" font-family="Times,serif" font-size="14.00">030 (a)</text>
</g>
<!-- 07 (a)&#45;&gt;030 (a) -->
<g id="edge24" class="edge"><title>07 (a)&#45;&gt;030 (a)</title>
<path fill="none" stroke="black" d="M678.968,-75.1703C692.602,-65.0175 711.348,-51.0578 726.74,-39.5952"/>
<polygon fill="black" stroke="black" points="728.963,-42.3038 734.893,-33.524 724.782,-36.6895 728.963,-42.3038"/>
</g>
<!-- 021 (a)&#45;&gt;036 (a) -->
<g id="edge26" class="edge"><title>021 (a)&#45;&gt;036 (a)</title>
<path fill="none" stroke="black" d="M845.397,-71.6966C845.397,-63.9827 845.397,-54.7125 845.397,-46.1124"/>
<polygon fill="black" stroke="black" points="848.897,-46.1043 845.397,-36.1043 841.897,-46.1044 848.897,-46.1043"/>
</g>
<!-- 021 (a)&#45;&gt;047 (a) -->
<g id="edge27" class="edge"><title>021 (a)&#45;&gt;047 (a)</title>
<path fill="none" stroke="black" d="M864.252,-74.496C877.308,-64.4532 894.882,-50.9344 909.416,-39.7541"/>
<polygon fill="black" stroke="black" points="911.773,-42.3568 917.566,-33.4855 907.505,-36.8084 911.773,-42.3568"/>
</g>
</g>
</svg>
