<?xml version="1.0" encoding="UTF-8" standalone="no"?>
<!DOCTYPE svg PUBLIC "-//W3C//DTD SVG 1.1//EN"
 "http://www.w3.org/Graphics/SVG/1.1/DTD/svg11.dtd">
<!-- Generated by graphviz version 2.38.0 (20140413.2041)
 -->
<!-- Title: %3 Pages: 1 -->
<svg width="1166pt" height="321pt"
 viewBox="0.00 0.00 1166.40 321.00" xmlns="http://www.w3.org/2000/svg" xmlns:xlink="http://www.w3.org/1999/xlink">
<g id="graph0" class="graph" transform="scale(1 1) rotate(0) translate(4 317)">
<title>%3</title>
<polygon fill="white" stroke="none" points="-4,4 -4,-317 1162.4,-317 1162.4,4 -4,4"/>
<g id="clust1" class="cluster"><title>cluster_legend</title>
<path fill="none" stroke="black" d="M20,-177C20,-177 210,-177 210,-177 216,-177 222,-183 222,-189 222,-189 222,-293 222,-293 222,-299 216,-305 210,-305 210,-305 20,-305 20,-305 14,-305 8,-299 8,-293 8,-293 8,-189 8,-189 8,-183 14,-177 20,-177"/>
</g>
<!-- leg_s -->
<g id="node1" class="node"><title>leg_s</title>
<text text-anchor="middle" x="115" y="-275.3" font-family="Times,serif" font-size="14.00">Textual flow strength</text>
</g>
<!-- leg_e1 -->
<!-- leg_s&#45;&gt;leg_e1 -->
<g id="edge1" class="edge"><title>leg_s&#45;&gt;leg_e1</title>
<path fill="none" stroke="black" stroke-dasharray="1,5" d="M96.6657,-260.686C91.1324,-255.194 85.1607,-248.989 80,-243 70.1708,-231.593 60.0722,-217.779 52.9137,-207.563"/>
<polygon fill="black" stroke="black" points="55.6142,-205.314 47.056,-199.068 49.8514,-209.288 55.6142,-205.314"/>
<text text-anchor="middle" x="95.5" y="-231.8" font-family="Times,serif" font-size="14.00">&lt;=5 &#160;</text>
</g>
<!-- leg_e2 -->
<!-- leg_s&#45;&gt;leg_e2 -->
<g id="edge2" class="edge"><title>leg_s&#45;&gt;leg_e2</title>
<path fill="none" stroke="black" stroke-dasharray="5,2" d="M115,-260.799C115,-245.794 115,-224.174 115,-209.409"/>
<polygon fill="black" stroke="black" points="118.5,-209.293 115,-199.293 111.5,-209.293 118.5,-209.293"/>
<text text-anchor="middle" x="134" y="-231.8" font-family="Times,serif" font-size="14.00"> &#160;&lt;=25</text>
</g>
<!-- leg_e3 -->
<!-- leg_s&#45;&gt;leg_e3 -->
<g id="edge3" class="edge"><title>leg_s&#45;&gt;leg_e3</title>
<path fill="none" stroke="black" d="M138.503,-260.76C144.906,-255.462 151.567,-249.344 157,-243 166.087,-232.39 174.095,-218.689 179.546,-208.313"/>
<polygon fill="black" stroke="black" points="182.722,-209.789 184.091,-199.283 176.469,-206.642 182.722,-209.789"/>
<text text-anchor="middle" x="179" y="-231.8" font-family="Times,serif" font-size="14.00">&gt;25</text>
</g>
<!-- 03 -->
<g id="node5" class="node"><title>03</title>
<ellipse fill="#ff8a8a" stroke="#b43f3f" cx="350" cy="-279" rx="31.6951" ry="18"/>
<text text-anchor="middle" x="350" y="-275.3" font-family="Times,serif" font-size="14.00">03 (a)</text>
</g>
<!-- 02 -->
<g id="node6" class="node"><title>02</title>
<ellipse fill="#ff8a8a" stroke="#b43f3f" cx="264" cy="-192" rx="31.6951" ry="18"/>
<text text-anchor="middle" x="264" y="-188.3" font-family="Times,serif" font-size="14.00">02 (a)</text>
</g>
<!-- 03&#45;&gt;02 -->
<g id="edge4" class="edge"><title>03&#45;&gt;02</title>
<path fill="none" stroke="#b43f3f" stroke-dasharray="1,5" d="M329.353,-264.912C320.467,-258.796 310.248,-251.086 302,-243 294.175,-235.329 286.638,-225.975 280.368,-217.442"/>
<polygon fill="#b43f3f" stroke="#b43f3f" points="283.206,-215.394 274.557,-209.275 277.503,-219.452 283.206,-215.394"/>
<text text-anchor="middle" x="324" y="-231.8" font-family="Times,serif" font-size="14.00">1 (86.5)</text>
</g>
<!-- 044 -->
<g id="node7" class="node"><title>044</title>
<ellipse fill="#ff8a8a" stroke="#b43f3f" cx="350" cy="-192" rx="36.2938" ry="18"/>
<text text-anchor="middle" x="350" y="-188.3" font-family="Times,serif" font-size="14.00">044 (a)</text>
</g>
<!-- 03&#45;&gt;044 -->
<g id="edge5" class="edge"><title>03&#45;&gt;044</title>
<path fill="none" stroke="#b43f3f" stroke-dasharray="1,5" d="M350,-260.799C350,-249.163 350,-233.548 350,-220.237"/>
<polygon fill="#b43f3f" stroke="#b43f3f" points="353.5,-220.175 350,-210.175 346.5,-220.175 353.5,-220.175"/>
<text text-anchor="middle" x="372" y="-231.8" font-family="Times,serif" font-size="14.00">1 (89.2)</text>
</g>
<!-- 032 -->
<g id="node8" class="node"><title>032</title>
<ellipse fill="#ff8a8a" stroke="#b43f3f" cx="441" cy="-192" rx="36.2938" ry="18"/>
<text text-anchor="middle" x="441" y="-188.3" font-family="Times,serif" font-size="14.00">032 (a)</text>
</g>
<!-- 03&#45;&gt;032 -->
<g id="edge6" class="edge"><title>03&#45;&gt;032</title>
<path fill="none" stroke="#b43f3f" stroke-dasharray="1,5" d="M370.419,-264.672C379.263,-258.512 389.511,-250.834 398,-243 406.544,-235.115 415.076,-225.619 422.26,-217.029"/>
<polygon fill="#b43f3f" stroke="#b43f3f" points="425.077,-219.113 428.692,-209.155 419.656,-214.685 425.077,-219.113"/>
<text text-anchor="middle" x="434" y="-231.8" font-family="Times,serif" font-size="14.00">1 (91.7)</text>
</g>
<!-- 05 -->
<g id="node24" class="node"><title>05</title>
<ellipse fill="#ff8a8a" stroke="#b43f3f" cx="260" cy="-105" rx="31.6951" ry="18"/>
<text text-anchor="middle" x="260" y="-101.3" font-family="Times,serif" font-size="14.00">05 (a)</text>
</g>
<!-- 044&#45;&gt;05 -->
<g id="edge21" class="edge"><title>044&#45;&gt;05</title>
<path fill="none" stroke="#b43f3f" stroke-dasharray="1,5" d="M328.584,-177.054C319.957,-171.018 310.142,-163.601 302,-156 293.585,-148.144 285.238,-138.653 278.228,-130.06"/>
<polygon fill="#b43f3f" stroke="#b43f3f" points="280.924,-127.827 271.959,-122.18 275.446,-132.185 280.924,-127.827"/>
<text text-anchor="middle" x="324" y="-144.8" font-family="Times,serif" font-size="14.00">3 (76.7)</text>
</g>
<!-- 0141 -->
<g id="node25" class="node"><title>0141</title>
<ellipse fill="#ff8a8a" stroke="#b43f3f" cx="350" cy="-105" rx="40.0939" ry="18"/>
<text text-anchor="middle" x="350" y="-101.3" font-family="Times,serif" font-size="14.00">0141 (a)</text>
</g>
<!-- 044&#45;&gt;0141 -->
<g id="edge22" class="edge"><title>044&#45;&gt;0141</title>
<path fill="none" stroke="#b43f3f" stroke-dasharray="1,5" d="M350,-173.799C350,-162.163 350,-146.548 350,-133.237"/>
<polygon fill="#b43f3f" stroke="#b43f3f" points="353.5,-133.175 350,-123.175 346.5,-133.175 353.5,-133.175"/>
<text text-anchor="middle" x="372" y="-144.8" font-family="Times,serif" font-size="14.00">1 (89.2)</text>
</g>
<!-- 022 -->
<g id="node26" class="node"><title>022</title>
<ellipse fill="#ff8a8a" stroke="#b43f3f" cx="445" cy="-105" rx="36.2938" ry="18"/>
<text text-anchor="middle" x="445" y="-101.3" font-family="Times,serif" font-size="14.00">022 (a)</text>
</g>
<!-- 044&#45;&gt;022 -->
<g id="edge23" class="edge"><title>044&#45;&gt;022</title>
<path fill="none" stroke="#b43f3f" stroke-dasharray="1,5" d="M370.73,-177.159C379.436,-171.025 389.495,-163.508 398,-156 407.163,-147.911 416.531,-138.276 424.467,-129.632"/>
<polygon fill="#b43f3f" stroke="#b43f3f" points="427.21,-131.816 431.306,-122.045 422.01,-127.129 427.21,-131.816"/>
<text text-anchor="middle" x="436" y="-144.8" font-family="Times,serif" font-size="14.00">1 (91.7)</text>
</g>
<!-- 021 -->
<g id="node9" class="node"><title>021</title>
<ellipse fill="#ff8a8a" stroke="#b43f3f" cx="536" cy="-105" rx="36.2938" ry="18"/>
<text text-anchor="middle" x="536" y="-101.3" font-family="Times,serif" font-size="14.00">021 (a)</text>
</g>
<!-- 047 -->
<g id="node10" class="node"><title>047</title>
<ellipse fill="#ff8a8a" stroke="#b43f3f" cx="445" cy="-18" rx="36.2938" ry="18"/>
<text text-anchor="middle" x="445" y="-14.3" font-family="Times,serif" font-size="14.00">047 (a)</text>
</g>
<!-- 021&#45;&gt;047 -->
<g id="edge7" class="edge"><title>021&#45;&gt;047</title>
<path fill="none" stroke="#b43f3f" stroke-dasharray="1,5" d="M514.628,-90.006C506.008,-83.9634 496.186,-76.5539 488,-69 479.456,-61.1154 470.924,-51.6186 463.74,-43.0293"/>
<polygon fill="#b43f3f" stroke="#b43f3f" points="466.344,-40.6853 457.308,-35.1545 460.923,-45.1135 466.344,-40.6853"/>
<text text-anchor="middle" x="510" y="-57.8" font-family="Times,serif" font-size="14.00">1 (95.1)</text>
</g>
<!-- 036 -->
<g id="node11" class="node"><title>036</title>
<ellipse fill="#ff8a8a" stroke="#b43f3f" cx="536" cy="-18" rx="36.2938" ry="18"/>
<text text-anchor="middle" x="536" y="-14.3" font-family="Times,serif" font-size="14.00">036 (a)</text>
</g>
<!-- 021&#45;&gt;036 -->
<g id="edge8" class="edge"><title>021&#45;&gt;036</title>
<path fill="none" stroke="#b43f3f" stroke-dasharray="1,5" d="M536,-86.799C536,-75.1626 536,-59.5479 536,-46.2368"/>
<polygon fill="#b43f3f" stroke="#b43f3f" points="539.5,-46.1754 536,-36.1754 532.5,-46.1755 539.5,-46.1754"/>
<text text-anchor="middle" x="558" y="-57.8" font-family="Times,serif" font-size="14.00">1 (97.6)</text>
</g>
<!-- 063 -->
<g id="node12" class="node"><title>063</title>
<ellipse fill="#ff8a8a" stroke="#b43f3f" cx="902" cy="-192" rx="36.2938" ry="18"/>
<text text-anchor="middle" x="902" y="-188.3" font-family="Times,serif" font-size="14.00">063 (a)</text>
</g>
<!-- 063&#45;&gt;021 -->
<g id="edge9" class="edge"><title>063&#45;&gt;021</title>
<path fill="none" stroke="#b43f3f" stroke-dasharray="1,5" d="M868.844,-184.184C835.862,-177.333 783.845,-166.335 739,-156 682.918,-143.075 618.43,-126.979 577.465,-116.599"/>
<polygon fill="#b43f3f" stroke="#b43f3f" points="578.13,-113.157 567.576,-114.089 576.407,-119.942 578.13,-113.157"/>
<text text-anchor="middle" x="761" y="-144.8" font-family="Times,serif" font-size="14.00">1 (93.1)</text>
</g>
<!-- 031 -->
<g id="node13" class="node"><title>031</title>
<ellipse fill="#ff8a8a" stroke="#b43f3f" cx="718" cy="-105" rx="36.2938" ry="18"/>
<text text-anchor="middle" x="718" y="-101.3" font-family="Times,serif" font-size="14.00">031 (a)</text>
</g>
<!-- 063&#45;&gt;031 -->
<g id="edge10" class="edge"><title>063&#45;&gt;031</title>
<path fill="none" stroke="#b43f3f" stroke-dasharray="1,5" d="M874.206,-180.184C857.49,-173.523 835.865,-164.633 817,-156 794.58,-145.741 769.82,-133.236 750.67,-123.298"/>
<polygon fill="#b43f3f" stroke="#b43f3f" points="752.24,-120.169 741.755,-118.646 749.002,-126.375 752.24,-120.169"/>
<text text-anchor="middle" x="839" y="-144.8" font-family="Times,serif" font-size="14.00">1 (95.8)</text>
</g>
<!-- 07 -->
<g id="node14" class="node"><title>07</title>
<ellipse fill="#ff8a8a" stroke="#b43f3f" cx="854" cy="-105" rx="31.6951" ry="18"/>
<text text-anchor="middle" x="854" y="-101.3" font-family="Times,serif" font-size="14.00">07 (a)</text>
</g>
<!-- 063&#45;&gt;07 -->
<g id="edge11" class="edge"><title>063&#45;&gt;07</title>
<path fill="none" stroke="#b43f3f" stroke-dasharray="1,5" d="M886.038,-175.668C880.7,-169.895 875.078,-163.019 871,-156 866.837,-148.834 863.494,-140.495 860.912,-132.705"/>
<polygon fill="#b43f3f" stroke="#b43f3f" points="864.198,-131.48 857.949,-122.924 857.498,-133.509 864.198,-131.48"/>
<text text-anchor="middle" x="893" y="-144.8" font-family="Times,serif" font-size="14.00">1 (96.6)</text>
</g>
<!-- 045 -->
<g id="node15" class="node"><title>045</title>
<ellipse fill="#ff8a8a" stroke="#b43f3f" cx="940" cy="-105" rx="36.2938" ry="18"/>
<text text-anchor="middle" x="940" y="-101.3" font-family="Times,serif" font-size="14.00">045 (a)</text>
</g>
<!-- 063&#45;&gt;045 -->
<g id="edge12" class="edge"><title>063&#45;&gt;045</title>
<path fill="none" stroke="#b43f3f" stroke-dasharray="1,5" d="M909.508,-174.207C914.868,-162.216 922.184,-145.851 928.306,-132.157"/>
<polygon fill="#b43f3f" stroke="#b43f3f" points="931.622,-133.316 932.508,-122.758 925.231,-130.459 931.622,-133.316"/>
<text text-anchor="middle" x="946" y="-144.8" font-family="Times,serif" font-size="14.00">1 (93.1)</text>
</g>
<!-- 028 -->
<g id="node16" class="node"><title>028</title>
<ellipse fill="#ff8a8a" stroke="#b43f3f" cx="1031" cy="-105" rx="36.2938" ry="18"/>
<text text-anchor="middle" x="1031" y="-101.3" font-family="Times,serif" font-size="14.00">028 (a)</text>
</g>
<!-- 063&#45;&gt;028 -->
<g id="edge13" class="edge"><title>063&#45;&gt;028</title>
<path fill="none" stroke="#b43f3f" stroke-dasharray="1,5" d="M928.755,-179.465C942.16,-173.232 958.392,-164.981 972,-156 984.323,-147.867 996.946,-137.495 1007.34,-128.309"/>
<polygon fill="#b43f3f" stroke="#b43f3f" points="1009.73,-130.868 1014.81,-121.571 1005.04,-125.67 1009.73,-130.868"/>
<text text-anchor="middle" x="1013" y="-144.8" font-family="Times,serif" font-size="14.00">1 (96.6)</text>
</g>
<!-- 011 -->
<g id="node17" class="node"><title>011</title>
<ellipse fill="#ff8a8a" stroke="#b43f3f" cx="1122" cy="-105" rx="36.2938" ry="18"/>
<text text-anchor="middle" x="1122" y="-101.3" font-family="Times,serif" font-size="14.00">011 (a)</text>
</g>
<!-- 063&#45;&gt;011 -->
<g id="edge14" class="edge"><title>063&#45;&gt;011</title>
<path fill="none" stroke="#b43f3f" stroke-dasharray="1,5" d="M931.285,-181.245C939.259,-178.736 947.925,-176.142 956,-174 992.485,-164.323 1003.92,-169.926 1039,-156 1058.34,-148.321 1078.38,-136.387 1093.91,-126.103"/>
<polygon fill="#b43f3f" stroke="#b43f3f" points="1096.19,-128.79 1102.5,-120.284 1092.26,-122.995 1096.19,-128.79"/>
<text text-anchor="middle" x="1090" y="-144.8" font-family="Times,serif" font-size="14.00">1 (93.1)</text>
</g>
<!-- 017 -->
<g id="node18" class="node"><title>017</title>
<ellipse fill="#ff8a8a" stroke="#b43f3f" cx="627" cy="-18" rx="36.2938" ry="18"/>
<text text-anchor="middle" x="627" y="-14.3" font-family="Times,serif" font-size="14.00">017 (a)</text>
</g>
<!-- 031&#45;&gt;017 -->
<g id="edge15" class="edge"><title>031&#45;&gt;017</title>
<path fill="none" stroke="#b43f3f" stroke-dasharray="1,5" d="M696.628,-90.006C688.008,-83.9634 678.186,-76.5539 670,-69 661.456,-61.1154 652.924,-51.6186 645.74,-43.0293"/>
<polygon fill="#b43f3f" stroke="#b43f3f" points="648.344,-40.6853 639.308,-35.1545 642.923,-45.1135 648.344,-40.6853"/>
<text text-anchor="middle" x="692" y="-57.8" font-family="Times,serif" font-size="14.00">1 (94.3)</text>
</g>
<!-- 013 -->
<g id="node19" class="node"><title>013</title>
<ellipse fill="#ff8a8a" stroke="#b43f3f" cx="718" cy="-18" rx="36.2938" ry="18"/>
<text text-anchor="middle" x="718" y="-14.3" font-family="Times,serif" font-size="14.00">013 (a)</text>
</g>
<!-- 031&#45;&gt;013 -->
<g id="edge16" class="edge"><title>031&#45;&gt;013</title>
<path fill="none" stroke="#b43f3f" stroke-dasharray="1,5" d="M718,-86.799C718,-75.1626 718,-59.5479 718,-46.2368"/>
<polygon fill="#b43f3f" stroke="#b43f3f" points="721.5,-46.1754 718,-36.1754 714.5,-46.1755 721.5,-46.1754"/>
<text text-anchor="middle" x="740" y="-57.8" font-family="Times,serif" font-size="14.00">1 (97.1)</text>
</g>
<!-- 030 -->
<g id="node20" class="node"><title>030</title>
<ellipse fill="#ff8a8a" stroke="#b43f3f" cx="809" cy="-18" rx="36.2938" ry="18"/>
<text text-anchor="middle" x="809" y="-14.3" font-family="Times,serif" font-size="14.00">030 (a)</text>
</g>
<!-- 07&#45;&gt;030 -->
<g id="edge17" class="edge"><title>07&#45;&gt;030</title>
<path fill="none" stroke="#b43f3f" stroke-dasharray="1,5" d="M844.45,-87.7233C841.076,-81.8607 837.302,-75.1704 834,-69 829.833,-61.2133 825.469,-52.6446 821.575,-44.8337"/>
<polygon fill="#b43f3f" stroke="#b43f3f" points="824.672,-43.1997 817.104,-35.7855 818.397,-46.3011 824.672,-43.1997"/>
<text text-anchor="middle" x="856" y="-57.8" font-family="Times,serif" font-size="14.00">1 (95.1)</text>
</g>
<!-- 037 -->
<g id="node21" class="node"><title>037</title>
<ellipse fill="#ff8a8a" stroke="#b43f3f" cx="900" cy="-18" rx="36.2938" ry="18"/>
<text text-anchor="middle" x="900" y="-14.3" font-family="Times,serif" font-size="14.00">037 (a)</text>
</g>
<!-- 07&#45;&gt;037 -->
<g id="edge18" class="edge"><title>07&#45;&gt;037</title>
<path fill="none" stroke="#b43f3f" stroke-dasharray="1,5" d="M865.884,-88.0215C869.972,-82.187 874.417,-75.4381 878,-69 882.15,-61.5417 886.102,-53.1477 889.481,-45.3977"/>
<polygon fill="#b43f3f" stroke="#b43f3f" points="892.764,-46.6185 893.427,-36.0444 886.315,-43.8974 892.764,-46.6185"/>
<text text-anchor="middle" x="908" y="-57.8" font-family="Times,serif" font-size="14.00">1 (97.5)</text>
</g>
<!-- 034 -->
<g id="node22" class="node"><title>034</title>
<ellipse fill="#ff8a8a" stroke="#b43f3f" cx="991" cy="-18" rx="36.2938" ry="18"/>
<text text-anchor="middle" x="991" y="-14.3" font-family="Times,serif" font-size="14.00">034 (a)</text>
</g>
<!-- 07&#45;&gt;034 -->
<g id="edge19" class="edge"><title>07&#45;&gt;034</title>
<path fill="none" stroke="#b43f3f" stroke-dasharray="1,5" d="M878.8,-93.6025C900.395,-84.4748 929.01,-72.1718 934,-69 946.097,-61.3104 958.215,-51.1161 968.149,-41.9391"/>
<polygon fill="#b43f3f" stroke="#b43f3f" points="970.759,-44.2869 975.605,-34.8648 965.941,-39.2089 970.759,-44.2869"/>
<text text-anchor="middle" x="977" y="-57.8" font-family="Times,serif" font-size="14.00">1 (95.1)</text>
</g>
<!-- 038 -->
<g id="node27" class="node"><title>038</title>
<ellipse fill="#ff8a8a" stroke="#b43f3f" cx="1082" cy="-18" rx="36.2938" ry="18"/>
<text text-anchor="middle" x="1082" y="-14.3" font-family="Times,serif" font-size="14.00">038 (a)</text>
</g>
<!-- 045&#45;&gt;038 -->
<g id="edge24" class="edge"><title>045&#45;&gt;038</title>
<path fill="none" stroke="#b43f3f" stroke-dasharray="1,5" d="M963.816,-91.187C975.683,-84.6971 990.196,-76.5999 1003,-69 1019.41,-59.2573 1037.42,-47.9151 1052.09,-38.4986"/>
<polygon fill="#b43f3f" stroke="#b43f3f" points="1054.24,-41.2762 1060.75,-32.9158 1050.44,-35.393 1054.24,-41.2762"/>
<text text-anchor="middle" x="1050" y="-57.8" font-family="Times,serif" font-size="14.00">1 (92.7)</text>
</g>
<!-- 019 -->
<g id="node23" class="node"><title>019</title>
<ellipse fill="#ff8a8a" stroke="#b43f3f" cx="902" cy="-279" rx="36.2938" ry="18"/>
<text text-anchor="middle" x="902" y="-275.3" font-family="Times,serif" font-size="14.00">019 (a)</text>
</g>
<!-- 019&#45;&gt;063 -->
<g id="edge20" class="edge"><title>019&#45;&gt;063</title>
<path fill="none" stroke="#b43f3f" stroke-dasharray="1,5" d="M902,-260.799C902,-249.163 902,-233.548 902,-220.237"/>
<polygon fill="#b43f3f" stroke="#b43f3f" points="905.5,-220.175 902,-210.175 898.5,-220.175 905.5,-220.175"/>
<text text-anchor="middle" x="924" y="-231.8" font-family="Times,serif" font-size="14.00">1 (85.7)</text>
</g>
<!-- 0211 -->
<g id="node28" class="node"><title>0211</title>
<ellipse fill="#cea8f4" stroke="#835da9" cx="997" cy="-279" rx="40.8928" ry="18"/>
<text text-anchor="middle" x="997" y="-275.3" font-family="Times,serif" font-size="14.00">0211 (b)</text>
</g>
<!-- 01 -->
<g id="node29" class="node"><title>01</title>
<ellipse fill="#cea8f4" stroke="#835da9" cx="997" cy="-192" rx="32.4942" ry="18"/>
<text text-anchor="middle" x="997" y="-188.3" font-family="Times,serif" font-size="14.00">01 (b)</text>
</g>
<!-- 0211&#45;&gt;01 -->
<g id="edge25" class="edge"><title>0211&#45;&gt;01</title>
<path fill="none" stroke="#835da9" stroke-dasharray="1,5" d="M997,-260.799C997,-249.163 997,-233.548 997,-220.237"/>
<polygon fill="#835da9" stroke="#835da9" points="1000.5,-220.175 997,-210.175 993.5,-220.175 1000.5,-220.175"/>
<text text-anchor="middle" x="1022.5" y="-231.8" font-family="Times,serif" font-size="14.00">17 (39.5)</text>
</g>
</g>
</svg>
