<?xml version="1.0" encoding="UTF-8" standalone="no"?>
<!DOCTYPE svg PUBLIC "-//W3C//DTD SVG 1.1//EN"
 "http://www.w3.org/Graphics/SVG/1.1/DTD/svg11.dtd">
<!-- Generated by graphviz version 2.38.0 (20140413.2041)
 -->
<!-- Title: %3 Pages: 1 -->
<svg width="1215pt" height="321pt"
 viewBox="0.00 0.00 1214.89 321.00" xmlns="http://www.w3.org/2000/svg" xmlns:xlink="http://www.w3.org/1999/xlink">
<g id="graph0" class="graph" transform="scale(1 1) rotate(0) translate(4 317)">
<title>%3</title>
<polygon fill="white" stroke="none" points="-4,4 -4,-317 1210.89,-317 1210.89,4 -4,4"/>
<g id="clust1" class="cluster"><title>cluster_legend</title>
<path fill="none" stroke="black" d="M296.397,-177C296.397,-177 486.397,-177 486.397,-177 492.397,-177 498.397,-183 498.397,-189 498.397,-189 498.397,-293 498.397,-293 498.397,-299 492.397,-305 486.397,-305 486.397,-305 296.397,-305 296.397,-305 290.397,-305 284.397,-299 284.397,-293 284.397,-293 284.397,-189 284.397,-189 284.397,-183 290.397,-177 296.397,-177"/>
</g>
<!-- leg_s -->
<g id="node1" class="node"><title>leg_s</title>
<text text-anchor="middle" x="391.397" y="-275.3" font-family="Times,serif" font-size="14.00">Textual flow strength</text>
</g>
<!-- leg_e1 -->
<!-- leg_s&#45;&gt;leg_e1 -->
<g id="edge1" class="edge"><title>leg_s&#45;&gt;leg_e1</title>
<path fill="none" stroke="black" stroke-dasharray="1,5" d="M373.062,-260.686C367.529,-255.194 361.557,-248.989 356.397,-243 346.568,-231.593 336.469,-217.779 329.31,-207.563"/>
<polygon fill="black" stroke="black" points="332.011,-205.314 323.453,-199.068 326.248,-209.288 332.011,-205.314"/>
<text text-anchor="middle" x="371.897" y="-231.8" font-family="Times,serif" font-size="14.00">&lt;=5 &#160;</text>
</g>
<!-- leg_e2 -->
<!-- leg_s&#45;&gt;leg_e2 -->
<g id="edge2" class="edge"><title>leg_s&#45;&gt;leg_e2</title>
<path fill="none" stroke="black" stroke-dasharray="5,2" d="M391.397,-260.799C391.397,-245.794 391.397,-224.174 391.397,-209.409"/>
<polygon fill="black" stroke="black" points="394.897,-209.293 391.397,-199.293 387.897,-209.293 394.897,-209.293"/>
<text text-anchor="middle" x="410.397" y="-231.8" font-family="Times,serif" font-size="14.00"> &#160;&lt;=25</text>
</g>
<!-- leg_e3 -->
<!-- leg_s&#45;&gt;leg_e3 -->
<g id="edge3" class="edge"><title>leg_s&#45;&gt;leg_e3</title>
<path fill="none" stroke="black" d="M414.9,-260.76C421.303,-255.462 427.963,-249.344 433.397,-243 442.484,-232.39 450.492,-218.689 455.943,-208.313"/>
<polygon fill="black" stroke="black" points="459.119,-209.789 460.488,-199.283 452.866,-206.642 459.119,-209.789"/>
<text text-anchor="middle" x="455.397" y="-231.8" font-family="Times,serif" font-size="14.00">&gt;25</text>
</g>
<!-- 063 -->
<g id="node5" class="node"><title>063</title>
<ellipse fill="#ff8a8a" stroke="#b43f3f" cx="544.397" cy="-192" rx="36.2938" ry="18"/>
<text text-anchor="middle" x="544.397" y="-188.3" font-family="Times,serif" font-size="14.00">063 (a)</text>
</g>
<!-- 07 -->
<g id="node6" class="node"><title>07</title>
<ellipse fill="#ff8a8a" stroke="#b43f3f" cx="222.397" cy="-105" rx="31.6951" ry="18"/>
<text text-anchor="middle" x="222.397" y="-101.3" font-family="Times,serif" font-size="14.00">07 (a)</text>
</g>
<!-- 063&#45;&gt;07 -->
<g id="edge4" class="edge"><title>063&#45;&gt;07</title>
<path fill="none" stroke="#b43f3f" stroke-dasharray="1,5" d="M518.037,-179.33C512.917,-177.349 507.542,-175.464 502.397,-174 456.857,-161.043 443.561,-166.519 397.397,-156 349.168,-145.01 294.483,-128.764 259.274,-117.8"/>
<polygon fill="#b43f3f" stroke="#b43f3f" points="260.03,-114.369 249.441,-114.717 257.936,-121.048 260.03,-114.369"/>
<text text-anchor="middle" x="419.397" y="-144.8" font-family="Times,serif" font-size="14.00">1 (96.6)</text>
</g>
<!-- 028 -->
<g id="node7" class="node"><title>028</title>
<ellipse fill="#ff8a8a" stroke="#b43f3f" cx="408.397" cy="-105" rx="36.2938" ry="18"/>
<text text-anchor="middle" x="408.397" y="-101.3" font-family="Times,serif" font-size="14.00">028 (a)</text>
</g>
<!-- 063&#45;&gt;028 -->
<g id="edge5" class="edge"><title>063&#45;&gt;028</title>
<path fill="none" stroke="#b43f3f" stroke-dasharray="1,5" d="M517.493,-179.726C496.181,-170.713 469.213,-159.091 464.397,-156 452.453,-148.334 440.538,-138.143 430.788,-128.962"/>
<polygon fill="#b43f3f" stroke="#b43f3f" points="433.094,-126.323 423.474,-121.884 428.226,-131.353 433.094,-126.323"/>
<text text-anchor="middle" x="486.397" y="-144.8" font-family="Times,serif" font-size="14.00">1 (96.6)</text>
</g>
<!-- 021 -->
<g id="node8" class="node"><title>021</title>
<ellipse fill="#ff8a8a" stroke="#b43f3f" cx="499.397" cy="-105" rx="36.2938" ry="18"/>
<text text-anchor="middle" x="499.397" y="-101.3" font-family="Times,serif" font-size="14.00">021 (a)</text>
</g>
<!-- 063&#45;&gt;021 -->
<g id="edge6" class="edge"><title>063&#45;&gt;021</title>
<path fill="none" stroke="#b43f3f" stroke-dasharray="1,5" d="M530.982,-174.896C526.605,-169.16 521.96,-162.506 518.397,-156 514.427,-148.751 510.921,-140.499 508.036,-132.818"/>
<polygon fill="#b43f3f" stroke="#b43f3f" points="511.259,-131.434 504.615,-123.181 504.662,-133.776 511.259,-131.434"/>
<text text-anchor="middle" x="540.397" y="-144.8" font-family="Times,serif" font-size="14.00">1 (93.1)</text>
</g>
<!-- 045 -->
<g id="node9" class="node"><title>045</title>
<ellipse fill="#ff8a8a" stroke="#b43f3f" cx="590.397" cy="-105" rx="36.2938" ry="18"/>
<text text-anchor="middle" x="590.397" y="-101.3" font-family="Times,serif" font-size="14.00">045 (a)</text>
</g>
<!-- 063&#45;&gt;045 -->
<g id="edge7" class="edge"><title>063&#45;&gt;045</title>
<path fill="none" stroke="#b43f3f" stroke-dasharray="1,5" d="M553.485,-174.207C560.08,-162.021 569.119,-145.318 576.602,-131.491"/>
<polygon fill="#b43f3f" stroke="#b43f3f" points="579.803,-132.93 581.484,-122.469 573.646,-129.598 579.803,-132.93"/>
<text text-anchor="middle" x="592.397" y="-144.8" font-family="Times,serif" font-size="14.00">1 (93.1)</text>
</g>
<!-- 031 -->
<g id="node10" class="node"><title>031</title>
<ellipse fill="#ff8a8a" stroke="#b43f3f" cx="681.397" cy="-105" rx="36.2938" ry="18"/>
<text text-anchor="middle" x="681.397" y="-101.3" font-family="Times,serif" font-size="14.00">031 (a)</text>
</g>
<!-- 063&#45;&gt;031 -->
<g id="edge8" class="edge"><title>063&#45;&gt;031</title>
<path fill="none" stroke="#b43f3f" stroke-dasharray="1,5" d="M571.544,-179.95C585.89,-173.671 603.552,-165.231 618.397,-156 631.755,-147.693 645.557,-137.014 656.825,-127.66"/>
<polygon fill="#b43f3f" stroke="#b43f3f" points="659.164,-130.266 664.539,-121.136 654.644,-124.921 659.164,-130.266"/>
<text text-anchor="middle" x="660.397" y="-144.8" font-family="Times,serif" font-size="14.00">1 (95.8)</text>
</g>
<!-- 011 -->
<g id="node11" class="node"><title>011</title>
<ellipse fill="#ff8a8a" stroke="#b43f3f" cx="772.397" cy="-105" rx="36.2938" ry="18"/>
<text text-anchor="middle" x="772.397" y="-101.3" font-family="Times,serif" font-size="14.00">011 (a)</text>
</g>
<!-- 063&#45;&gt;011 -->
<g id="edge9" class="edge"><title>063&#45;&gt;011</title>
<path fill="none" stroke="#b43f3f" stroke-dasharray="1,5" d="M578.527,-185.418C607.834,-179.964 650.851,-170.368 686.397,-156 706.392,-147.918 727.343,-135.823 743.56,-125.554"/>
<polygon fill="#b43f3f" stroke="#b43f3f" points="745.544,-128.439 752.046,-120.074 741.747,-122.558 745.544,-128.439"/>
<text text-anchor="middle" x="738.397" y="-144.8" font-family="Times,serif" font-size="14.00">1 (93.1)</text>
</g>
<!-- 037 -->
<g id="node12" class="node"><title>037</title>
<ellipse fill="#ff8a8a" stroke="#b43f3f" cx="36.3968" cy="-18" rx="36.2938" ry="18"/>
<text text-anchor="middle" x="36.3968" y="-14.3" font-family="Times,serif" font-size="14.00">037 (a)</text>
</g>
<!-- 07&#45;&gt;037 -->
<g id="edge10" class="edge"><title>07&#45;&gt;037</title>
<path fill="none" stroke="#b43f3f" stroke-dasharray="1,5" d="M193.263,-97.2264C170.365,-91.3366 138.003,-81.7448 111.397,-69 94.4497,-60.882 76.8999,-49.3789 63.0413,-39.4524"/>
<polygon fill="#b43f3f" stroke="#b43f3f" points="65.066,-36.597 54.9278,-33.5199 60.9343,-42.2476 65.066,-36.597"/>
<text text-anchor="middle" x="133.397" y="-57.8" font-family="Times,serif" font-size="14.00">1 (97.5)</text>
</g>
<!-- 030 -->
<g id="node13" class="node"><title>030</title>
<ellipse fill="#ff8a8a" stroke="#b43f3f" cx="127.397" cy="-18" rx="36.2938" ry="18"/>
<text text-anchor="middle" x="127.397" y="-14.3" font-family="Times,serif" font-size="14.00">030 (a)</text>
</g>
<!-- 07&#45;&gt;030 -->
<g id="edge11" class="edge"><title>07&#45;&gt;030</title>
<path fill="none" stroke="#b43f3f" stroke-dasharray="1,5" d="M202.611,-90.8221C193.694,-84.5722 183.211,-76.7806 174.397,-69 165.233,-60.9115 155.866,-51.2757 147.93,-42.6319"/>
<polygon fill="#b43f3f" stroke="#b43f3f" points="150.386,-40.1295 141.091,-35.0454 145.187,-44.8165 150.386,-40.1295"/>
<text text-anchor="middle" x="196.397" y="-57.8" font-family="Times,serif" font-size="14.00">1 (95.1)</text>
</g>
<!-- 0211 -->
<g id="node14" class="node"><title>0211</title>
<ellipse fill="#ff8a8a" stroke="#b43f3f" cx="222.397" cy="-18" rx="40.0939" ry="18"/>
<text text-anchor="middle" x="222.397" y="-14.3" font-family="Times,serif" font-size="14.00">0211 (a)</text>
</g>
<!-- 07&#45;&gt;0211 -->
<g id="edge12" class="edge"><title>07&#45;&gt;0211</title>
<path fill="none" stroke="#b43f3f" stroke-dasharray="1,5" d="M222.397,-86.799C222.397,-75.1626 222.397,-59.5479 222.397,-46.2368"/>
<polygon fill="#b43f3f" stroke="#b43f3f" points="225.897,-46.1754 222.397,-36.1754 218.897,-46.1755 225.897,-46.1754"/>
<text text-anchor="middle" x="244.397" y="-57.8" font-family="Times,serif" font-size="14.00">2 (82.9)</text>
</g>
<!-- 034 -->
<g id="node15" class="node"><title>034</title>
<ellipse fill="#ff8a8a" stroke="#b43f3f" cx="317.397" cy="-18" rx="36.2938" ry="18"/>
<text text-anchor="middle" x="317.397" y="-14.3" font-family="Times,serif" font-size="14.00">034 (a)</text>
</g>
<!-- 07&#45;&gt;034 -->
<g id="edge13" class="edge"><title>07&#45;&gt;034</title>
<path fill="none" stroke="#b43f3f" stroke-dasharray="1,5" d="M242.182,-90.8221C251.1,-84.5722 261.582,-76.7806 270.397,-69 279.56,-60.9115 288.927,-51.2757 296.863,-42.6319"/>
<polygon fill="#b43f3f" stroke="#b43f3f" points="299.606,-44.8165 303.702,-35.0454 294.407,-40.1295 299.606,-44.8165"/>
<text text-anchor="middle" x="308.397" y="-57.8" font-family="Times,serif" font-size="14.00">1 (95.1)</text>
</g>
<!-- 036 -->
<g id="node16" class="node"><title>036</title>
<ellipse fill="#ff8a8a" stroke="#b43f3f" cx="408.397" cy="-18" rx="36.2938" ry="18"/>
<text text-anchor="middle" x="408.397" y="-14.3" font-family="Times,serif" font-size="14.00">036 (a)</text>
</g>
<!-- 021&#45;&gt;036 -->
<g id="edge14" class="edge"><title>021&#45;&gt;036</title>
<path fill="none" stroke="#b43f3f" stroke-dasharray="1,5" d="M478.025,-90.006C469.404,-83.9634 459.582,-76.5539 451.397,-69 442.853,-61.1154 434.321,-51.6186 427.136,-43.0293"/>
<polygon fill="#b43f3f" stroke="#b43f3f" points="429.741,-40.6853 420.704,-35.1545 424.32,-45.1135 429.741,-40.6853"/>
<text text-anchor="middle" x="473.397" y="-57.8" font-family="Times,serif" font-size="14.00">1 (97.6)</text>
</g>
<!-- 047 -->
<g id="node17" class="node"><title>047</title>
<ellipse fill="#ff8a8a" stroke="#b43f3f" cx="499.397" cy="-18" rx="36.2938" ry="18"/>
<text text-anchor="middle" x="499.397" y="-14.3" font-family="Times,serif" font-size="14.00">047 (a)</text>
</g>
<!-- 021&#45;&gt;047 -->
<g id="edge15" class="edge"><title>021&#45;&gt;047</title>
<path fill="none" stroke="#b43f3f" stroke-dasharray="1,5" d="M499.397,-86.799C499.397,-75.1626 499.397,-59.5479 499.397,-46.2368"/>
<polygon fill="#b43f3f" stroke="#b43f3f" points="502.897,-46.1754 499.397,-36.1754 495.897,-46.1755 502.897,-46.1754"/>
<text text-anchor="middle" x="521.397" y="-57.8" font-family="Times,serif" font-size="14.00">1 (95.1)</text>
</g>
<!-- 038 -->
<g id="node24" class="node"><title>038</title>
<ellipse fill="#ff8a8a" stroke="#b43f3f" cx="590.397" cy="-18" rx="36.2938" ry="18"/>
<text text-anchor="middle" x="590.397" y="-14.3" font-family="Times,serif" font-size="14.00">038 (a)</text>
</g>
<!-- 045&#45;&gt;038 -->
<g id="edge21" class="edge"><title>045&#45;&gt;038</title>
<path fill="none" stroke="#b43f3f" stroke-dasharray="1,5" d="M590.397,-86.799C590.397,-75.1626 590.397,-59.5479 590.397,-46.2368"/>
<polygon fill="#b43f3f" stroke="#b43f3f" points="593.897,-46.1754 590.397,-36.1754 586.897,-46.1755 593.897,-46.1754"/>
<text text-anchor="middle" x="612.397" y="-57.8" font-family="Times,serif" font-size="14.00">1 (92.7)</text>
</g>
<!-- 017 -->
<g id="node25" class="node"><title>017</title>
<ellipse fill="#ff8a8a" stroke="#b43f3f" cx="681.397" cy="-18" rx="36.2938" ry="18"/>
<text text-anchor="middle" x="681.397" y="-14.3" font-family="Times,serif" font-size="14.00">017 (a)</text>
</g>
<!-- 031&#45;&gt;017 -->
<g id="edge22" class="edge"><title>031&#45;&gt;017</title>
<path fill="none" stroke="#b43f3f" stroke-dasharray="1,5" d="M681.397,-86.799C681.397,-75.1626 681.397,-59.5479 681.397,-46.2368"/>
<polygon fill="#b43f3f" stroke="#b43f3f" points="684.897,-46.1754 681.397,-36.1754 677.897,-46.1755 684.897,-46.1754"/>
<text text-anchor="middle" x="703.397" y="-57.8" font-family="Times,serif" font-size="14.00">1 (94.3)</text>
</g>
<!-- 013 -->
<g id="node26" class="node"><title>013</title>
<ellipse fill="#ff8a8a" stroke="#b43f3f" cx="772.397" cy="-18" rx="36.2938" ry="18"/>
<text text-anchor="middle" x="772.397" y="-14.3" font-family="Times,serif" font-size="14.00">013 (a)</text>
</g>
<!-- 031&#45;&gt;013 -->
<g id="edge23" class="edge"><title>031&#45;&gt;013</title>
<path fill="none" stroke="#b43f3f" stroke-dasharray="1,5" d="M702.768,-90.006C711.389,-83.9634 721.211,-76.5539 729.397,-69 737.941,-61.1154 746.472,-51.6186 753.657,-43.0293"/>
<polygon fill="#b43f3f" stroke="#b43f3f" points="756.474,-45.1135 760.089,-35.1545 751.053,-40.6853 756.474,-45.1135"/>
<text text-anchor="middle" x="765.397" y="-57.8" font-family="Times,serif" font-size="14.00">1 (97.1)</text>
</g>
<!-- 03 -->
<g id="node18" class="node"><title>03</title>
<ellipse fill="#ff8a8a" stroke="#b43f3f" cx="1001.4" cy="-279" rx="31.6951" ry="18"/>
<text text-anchor="middle" x="1001.4" y="-275.3" font-family="Times,serif" font-size="14.00">03 (a)</text>
</g>
<!-- 044 -->
<g id="node19" class="node"><title>044</title>
<ellipse fill="#ff8a8a" stroke="#b43f3f" cx="910.397" cy="-192" rx="36.2938" ry="18"/>
<text text-anchor="middle" x="910.397" y="-188.3" font-family="Times,serif" font-size="14.00">044 (a)</text>
</g>
<!-- 03&#45;&gt;044 -->
<g id="edge16" class="edge"><title>03&#45;&gt;044</title>
<path fill="none" stroke="#b43f3f" stroke-dasharray="1,5" d="M980.978,-264.672C972.134,-258.512 961.886,-250.834 953.397,-243 944.853,-235.115 936.321,-225.619 929.136,-217.029"/>
<polygon fill="#b43f3f" stroke="#b43f3f" points="931.741,-214.685 922.704,-209.155 926.32,-219.113 931.741,-214.685"/>
<text text-anchor="middle" x="975.397" y="-231.8" font-family="Times,serif" font-size="14.00">1 (89.2)</text>
</g>
<!-- 032 -->
<g id="node20" class="node"><title>032</title>
<ellipse fill="#ff8a8a" stroke="#b43f3f" cx="1001.4" cy="-192" rx="36.2938" ry="18"/>
<text text-anchor="middle" x="1001.4" y="-188.3" font-family="Times,serif" font-size="14.00">032 (a)</text>
</g>
<!-- 03&#45;&gt;032 -->
<g id="edge17" class="edge"><title>03&#45;&gt;032</title>
<path fill="none" stroke="#b43f3f" stroke-dasharray="1,5" d="M1001.4,-260.799C1001.4,-249.163 1001.4,-233.548 1001.4,-220.237"/>
<polygon fill="#b43f3f" stroke="#b43f3f" points="1004.9,-220.175 1001.4,-210.175 997.897,-220.175 1004.9,-220.175"/>
<text text-anchor="middle" x="1023.4" y="-231.8" font-family="Times,serif" font-size="14.00">1 (91.7)</text>
</g>
<!-- 02 -->
<g id="node21" class="node"><title>02</title>
<ellipse fill="#ff8a8a" stroke="#b43f3f" cx="1087.4" cy="-192" rx="31.6951" ry="18"/>
<text text-anchor="middle" x="1087.4" y="-188.3" font-family="Times,serif" font-size="14.00">02 (a)</text>
</g>
<!-- 03&#45;&gt;02 -->
<g id="edge18" class="edge"><title>03&#45;&gt;02</title>
<path fill="none" stroke="#b43f3f" stroke-dasharray="1,5" d="M1022.04,-264.912C1030.93,-258.796 1041.15,-251.086 1049.4,-243 1057.22,-235.329 1064.76,-225.975 1071.03,-217.442"/>
<polygon fill="#b43f3f" stroke="#b43f3f" points="1073.89,-219.452 1076.84,-209.275 1068.19,-215.394 1073.89,-219.452"/>
<text text-anchor="middle" x="1084.4" y="-231.8" font-family="Times,serif" font-size="14.00">1 (86.5)</text>
</g>
<!-- 022 -->
<g id="node22" class="node"><title>022</title>
<ellipse fill="#ff8a8a" stroke="#b43f3f" cx="863.397" cy="-105" rx="36.2938" ry="18"/>
<text text-anchor="middle" x="863.397" y="-101.3" font-family="Times,serif" font-size="14.00">022 (a)</text>
</g>
<!-- 044&#45;&gt;022 -->
<g id="edge19" class="edge"><title>044&#45;&gt;022</title>
<path fill="none" stroke="#b43f3f" stroke-dasharray="1,5" d="M901.111,-174.207C894.373,-162.021 885.137,-145.318 877.492,-131.491"/>
<polygon fill="#b43f3f" stroke="#b43f3f" points="880.405,-129.527 872.503,-122.469 874.279,-132.914 880.405,-129.527"/>
<text text-anchor="middle" x="912.397" y="-144.8" font-family="Times,serif" font-size="14.00">1 (91.7)</text>
</g>
<!-- 0141 -->
<g id="node23" class="node"><title>0141</title>
<ellipse fill="#ff8a8a" stroke="#b43f3f" cx="958.397" cy="-105" rx="40.0939" ry="18"/>
<text text-anchor="middle" x="958.397" y="-101.3" font-family="Times,serif" font-size="14.00">0141 (a)</text>
</g>
<!-- 044&#45;&gt;0141 -->
<g id="edge20" class="edge"><title>044&#45;&gt;0141</title>
<path fill="none" stroke="#b43f3f" stroke-dasharray="1,5" d="M923.355,-175.139C927.792,-169.316 932.592,-162.544 936.397,-156 940.687,-148.622 944.68,-140.251 948.055,-132.498"/>
<polygon fill="#b43f3f" stroke="#b43f3f" points="951.343,-133.706 951.973,-123.13 944.886,-131.004 951.343,-133.706"/>
<text text-anchor="middle" x="966.397" y="-144.8" font-family="Times,serif" font-size="14.00">1 (89.2)</text>
</g>
<!-- 019 -->
<g id="node27" class="node"><title>019</title>
<ellipse fill="#ff8a8a" stroke="#b43f3f" cx="544.397" cy="-279" rx="36.2938" ry="18"/>
<text text-anchor="middle" x="544.397" y="-275.3" font-family="Times,serif" font-size="14.00">019 (a)</text>
</g>
<!-- 019&#45;&gt;063 -->
<g id="edge24" class="edge"><title>019&#45;&gt;063</title>
<path fill="none" stroke="#b43f3f" stroke-dasharray="1,5" d="M544.397,-260.799C544.397,-249.163 544.397,-233.548 544.397,-220.237"/>
<polygon fill="#b43f3f" stroke="#b43f3f" points="547.897,-220.175 544.397,-210.175 540.897,-220.175 547.897,-220.175"/>
<text text-anchor="middle" x="566.397" y="-231.8" font-family="Times,serif" font-size="14.00">1 (85.7)</text>
</g>
<!-- P75 -->
<g id="node28" class="node"><title>P75</title>
<ellipse fill="#ff8a8a" stroke="#b43f3f" cx="1087.4" cy="-279" rx="36.2938" ry="18"/>
<text text-anchor="middle" x="1087.4" y="-275.3" font-family="Times,serif" font-size="14.00">P75 (a)</text>
</g>
<!-- 01 -->
<g id="node29" class="node"><title>01</title>
<ellipse fill="#cea8f4" stroke="#835da9" cx="1174.4" cy="-279" rx="32.4942" ry="18"/>
<text text-anchor="middle" x="1174.4" y="-275.3" font-family="Times,serif" font-size="14.00">01 (b)</text>
</g>
</g>
</svg>
