<?xml version="1.0" encoding="UTF-8" standalone="no"?>
<!DOCTYPE svg PUBLIC "-//W3C//DTD SVG 1.1//EN"
 "http://www.w3.org/Graphics/SVG/1.1/DTD/svg11.dtd">
<!-- Generated by graphviz version 2.38.0 (20140413.2041)
 -->
<!-- Title: %3 Pages: 1 -->
<svg width="900pt" height="408pt"
 viewBox="0.00 0.00 899.89 408.00" xmlns="http://www.w3.org/2000/svg" xmlns:xlink="http://www.w3.org/1999/xlink">
<g id="graph0" class="graph" transform="scale(1 1) rotate(0) translate(4 404)">
<title>%3</title>
<polygon fill="white" stroke="none" points="-4,4 -4,-404 895.894,-404 895.894,4 -4,4"/>
<g id="clust1" class="cluster"><title>cluster_legend</title>
<path fill="none" stroke="black" d="M261.497,-264C261.497,-264 451.497,-264 451.497,-264 457.497,-264 463.497,-270 463.497,-276 463.497,-276 463.497,-380 463.497,-380 463.497,-386 457.497,-392 451.497,-392 451.497,-392 261.497,-392 261.497,-392 255.497,-392 249.497,-386 249.497,-380 249.497,-380 249.497,-276 249.497,-276 249.497,-270 255.497,-264 261.497,-264"/>
</g>
<!-- leg_s -->
<g id="node1" class="node"><title>leg_s</title>
<text text-anchor="middle" x="356.497" y="-362.3" font-family="Times,serif" font-size="14.00">Textual flow strength</text>
</g>
<!-- leg_e1 -->
<!-- leg_s&#45;&gt;leg_e1 -->
<g id="edge1" class="edge"><title>leg_s&#45;&gt;leg_e1</title>
<path fill="none" stroke="black" stroke-dasharray="1,5" d="M338.163,-347.686C332.63,-342.194 326.658,-335.989 321.497,-330 311.668,-318.593 301.569,-304.779 294.411,-294.563"/>
<polygon fill="black" stroke="black" points="297.111,-292.314 288.553,-286.068 291.348,-296.288 297.111,-292.314"/>
<text text-anchor="middle" x="336.997" y="-318.8" font-family="Times,serif" font-size="14.00">&lt;=5 &#160;</text>
</g>
<!-- leg_e2 -->
<!-- leg_s&#45;&gt;leg_e2 -->
<g id="edge2" class="edge"><title>leg_s&#45;&gt;leg_e2</title>
<path fill="none" stroke="black" stroke-dasharray="5,2" d="M356.497,-347.799C356.497,-332.794 356.497,-311.174 356.497,-296.409"/>
<polygon fill="black" stroke="black" points="359.997,-296.293 356.497,-286.293 352.997,-296.293 359.997,-296.293"/>
<text text-anchor="middle" x="375.497" y="-318.8" font-family="Times,serif" font-size="14.00"> &#160;&lt;=25</text>
</g>
<!-- leg_e3 -->
<!-- leg_s&#45;&gt;leg_e3 -->
<g id="edge3" class="edge"><title>leg_s&#45;&gt;leg_e3</title>
<path fill="none" stroke="black" d="M380.001,-347.76C386.403,-342.462 393.064,-336.344 398.497,-330 407.585,-319.39 415.592,-305.689 421.044,-295.313"/>
<polygon fill="black" stroke="black" points="424.219,-296.789 425.588,-286.283 417.966,-293.642 424.219,-296.789"/>
<text text-anchor="middle" x="420.497" y="-318.8" font-family="Times,serif" font-size="14.00">&gt;25</text>
</g>
<!-- A -->
<g id="node5" class="node"><title>A</title>
<ellipse fill="#ff8a8a" stroke="#b43f3f" cx="650.497" cy="-366" rx="29.4969" ry="18"/>
<text text-anchor="middle" x="650.497" y="-362.3" font-family="Times,serif" font-size="14.00">A (a)</text>
</g>
<!-- 03 -->
<g id="node6" class="node"><title>03</title>
<ellipse fill="#ff8a8a" stroke="#b43f3f" cx="505.497" cy="-279" rx="31.6951" ry="18"/>
<text text-anchor="middle" x="505.497" y="-275.3" font-family="Times,serif" font-size="14.00">03 (a)</text>
</g>
<!-- A&#45;&gt;03 -->
<g id="edge4" class="edge"><title>A&#45;&gt;03</title>
<path fill="none" stroke="#b43f3f" stroke-dasharray="1,5" d="M624.43,-357.459C606.054,-351.51 581.292,-342.185 561.497,-330 549.236,-322.453 537.129,-312.109 527.326,-302.787"/>
<polygon fill="#b43f3f" stroke="#b43f3f" points="529.59,-300.105 520,-295.603 524.689,-305.103 529.59,-300.105"/>
<text text-anchor="middle" x="583.497" y="-318.8" font-family="Times,serif" font-size="14.00">1 (93.3)</text>
</g>
<!-- 019 -->
<g id="node7" class="node"><title>019</title>
<ellipse fill="#ff8a8a" stroke="#b43f3f" cx="593.497" cy="-279" rx="36.2938" ry="18"/>
<text text-anchor="middle" x="593.497" y="-275.3" font-family="Times,serif" font-size="14.00">019 (a)</text>
</g>
<!-- A&#45;&gt;019 -->
<g id="edge5" class="edge"><title>A&#45;&gt;019</title>
<path fill="none" stroke="#b43f3f" stroke-dasharray="1,5" d="M634.947,-350.549C629.028,-344.552 622.508,-337.297 617.497,-330 612.459,-322.664 607.931,-314.108 604.201,-306.169"/>
<polygon fill="#b43f3f" stroke="#b43f3f" points="607.341,-304.617 600.066,-296.915 600.95,-307.473 607.341,-304.617"/>
<text text-anchor="middle" x="639.497" y="-318.8" font-family="Times,serif" font-size="14.00">1 (93.3)</text>
</g>
<!-- 091 -->
<g id="node8" class="node"><title>091</title>
<ellipse fill="#ff8a8a" stroke="#b43f3f" cx="684.497" cy="-279" rx="36.2938" ry="18"/>
<text text-anchor="middle" x="684.497" y="-275.3" font-family="Times,serif" font-size="14.00">091 (a)</text>
</g>
<!-- A&#45;&gt;091 -->
<g id="edge6" class="edge"><title>A&#45;&gt;091</title>
<path fill="none" stroke="#b43f3f" stroke-dasharray="1,5" d="M657.214,-348.207C662.011,-336.216 668.557,-319.851 674.034,-306.157"/>
<polygon fill="#b43f3f" stroke="#b43f3f" points="677.329,-307.343 677.794,-296.758 670.83,-304.743 677.329,-307.343"/>
<text text-anchor="middle" x="692.497" y="-318.8" font-family="Times,serif" font-size="14.00">1 (87.5)</text>
</g>
<!-- P75 -->
<g id="node9" class="node"><title>P75</title>
<ellipse fill="#ff8a8a" stroke="#b43f3f" cx="775.497" cy="-279" rx="36.2938" ry="18"/>
<text text-anchor="middle" x="775.497" y="-275.3" font-family="Times,serif" font-size="14.00">P75 (a)</text>
</g>
<!-- A&#45;&gt;P75 -->
<g id="edge7" class="edge"><title>A&#45;&gt;P75</title>
<path fill="none" stroke="#b43f3f" stroke-dasharray="1,5" d="M673.645,-354.822C687.183,-348.451 704.339,-339.639 718.497,-330 730.346,-321.934 742.428,-311.683 752.4,-302.566"/>
<polygon fill="#b43f3f" stroke="#b43f3f" points="754.982,-304.944 759.901,-295.56 750.204,-299.828 754.982,-304.944"/>
<text text-anchor="middle" x="759.497" y="-318.8" font-family="Times,serif" font-size="14.00">1 (93.3)</text>
</g>
<!-- 044 -->
<g id="node10" class="node"><title>044</title>
<ellipse fill="#cea8f4" stroke="#835da9" cx="167.497" cy="-192" rx="36.2938" ry="18"/>
<text text-anchor="middle" x="167.497" y="-188.3" font-family="Times,serif" font-size="14.00">044 (b)</text>
</g>
<!-- 03&#45;&gt;044 -->
<g id="edge8" class="edge"><title>03&#45;&gt;044</title>
<path fill="none" stroke="#835da9" stroke-dasharray="1,5" d="M482.068,-266.652C477.313,-264.596 472.297,-262.6 467.497,-261 378.84,-231.444 271.21,-210.521 211.972,-200.239"/>
<polygon fill="#835da9" stroke="#835da9" points="212.287,-196.742 201.839,-198.503 211.104,-203.642 212.287,-196.742"/>
<text text-anchor="middle" x="425.497" y="-231.8" font-family="Times,serif" font-size="14.00">1 (89.2)</text>
</g>
<!-- 032 -->
<g id="node11" class="node"><title>032</title>
<ellipse fill="#cea8f4" stroke="#835da9" cx="505.497" cy="-192" rx="36.2938" ry="18"/>
<text text-anchor="middle" x="505.497" y="-188.3" font-family="Times,serif" font-size="14.00">032 (b)</text>
</g>
<!-- 03&#45;&gt;032 -->
<g id="edge9" class="edge"><title>03&#45;&gt;032</title>
<path fill="none" stroke="#835da9" stroke-dasharray="1,5" d="M505.497,-260.799C505.497,-249.163 505.497,-233.548 505.497,-220.237"/>
<polygon fill="#835da9" stroke="#835da9" points="508.997,-220.175 505.497,-210.175 501.997,-220.175 508.997,-220.175"/>
<text text-anchor="middle" x="527.497" y="-231.8" font-family="Times,serif" font-size="14.00">1 (91.7)</text>
</g>
<!-- 063 -->
<g id="node12" class="node"><title>063</title>
<ellipse fill="#cea8f4" stroke="#835da9" cx="627.497" cy="-192" rx="36.2938" ry="18"/>
<text text-anchor="middle" x="627.497" y="-188.3" font-family="Times,serif" font-size="14.00">063 (b)</text>
</g>
<!-- 019&#45;&gt;063 -->
<g id="edge10" class="edge"><title>019&#45;&gt;063</title>
<path fill="none" stroke="#835da9" stroke-dasharray="1,5" d="M600.214,-261.207C605.011,-249.216 611.557,-232.851 617.034,-219.157"/>
<polygon fill="#835da9" stroke="#835da9" points="620.329,-220.343 620.794,-209.758 613.83,-217.743 620.329,-220.343"/>
<text text-anchor="middle" x="635.497" y="-231.8" font-family="Times,serif" font-size="14.00">1 (85.7)</text>
</g>
<!-- 022 -->
<g id="node26" class="node"><title>022</title>
<ellipse fill="#cea8f4" stroke="#835da9" cx="72.4971" cy="-105" rx="36.2938" ry="18"/>
<text text-anchor="middle" x="72.4971" y="-101.3" font-family="Times,serif" font-size="14.00">022 (b)</text>
</g>
<!-- 044&#45;&gt;022 -->
<g id="edge24" class="edge"><title>044&#45;&gt;022</title>
<path fill="none" stroke="#835da9" stroke-dasharray="1,5" d="M146.767,-177.159C138.061,-171.025 128.002,-163.508 119.497,-156 110.334,-147.911 100.966,-138.276 93.0304,-129.632"/>
<polygon fill="#835da9" stroke="#835da9" points="95.4868,-127.129 86.1914,-122.045 90.2875,-131.816 95.4868,-127.129"/>
<text text-anchor="middle" x="141.497" y="-144.8" font-family="Times,serif" font-size="14.00">1 (91.7)</text>
</g>
<!-- 0141 -->
<g id="node27" class="node"><title>0141</title>
<ellipse fill="#cea8f4" stroke="#835da9" cx="167.497" cy="-105" rx="40.8928" ry="18"/>
<text text-anchor="middle" x="167.497" y="-101.3" font-family="Times,serif" font-size="14.00">0141 (b)</text>
</g>
<!-- 044&#45;&gt;0141 -->
<g id="edge25" class="edge"><title>044&#45;&gt;0141</title>
<path fill="none" stroke="#835da9" stroke-dasharray="1,5" d="M167.497,-173.799C167.497,-162.163 167.497,-146.548 167.497,-133.237"/>
<polygon fill="#835da9" stroke="#835da9" points="170.997,-133.175 167.497,-123.175 163.997,-133.175 170.997,-133.175"/>
<text text-anchor="middle" x="189.497" y="-144.8" font-family="Times,serif" font-size="14.00">1 (89.2)</text>
</g>
<!-- 07 -->
<g id="node13" class="node"><title>07</title>
<ellipse fill="#cea8f4" stroke="#835da9" cx="392.497" cy="-105" rx="32.4942" ry="18"/>
<text text-anchor="middle" x="392.497" y="-101.3" font-family="Times,serif" font-size="14.00">07 (b)</text>
</g>
<!-- 063&#45;&gt;07 -->
<g id="edge11" class="edge"><title>063&#45;&gt;07</title>
<path fill="none" stroke="#835da9" stroke-dasharray="1,5" d="M598.682,-180.577C555.773,-165.057 475.141,-135.892 428.437,-119"/>
<polygon fill="#835da9" stroke="#835da9" points="429.606,-115.701 419.012,-115.59 427.225,-122.283 429.606,-115.701"/>
<text text-anchor="middle" x="546.497" y="-144.8" font-family="Times,serif" font-size="14.00">1 (96.6)</text>
</g>
<!-- 028 -->
<g id="node14" class="node"><title>028</title>
<ellipse fill="#cea8f4" stroke="#835da9" cx="582.497" cy="-105" rx="36.2938" ry="18"/>
<text text-anchor="middle" x="582.497" y="-101.3" font-family="Times,serif" font-size="14.00">028 (b)</text>
</g>
<!-- 063&#45;&gt;028 -->
<g id="edge12" class="edge"><title>063&#45;&gt;028</title>
<path fill="none" stroke="#835da9" stroke-dasharray="1,5" d="M610.708,-175.909C605.169,-170.158 599.426,-163.235 595.497,-156 591.628,-148.876 588.87,-140.549 586.922,-132.757"/>
<polygon fill="#835da9" stroke="#835da9" points="590.339,-132 584.801,-122.968 583.498,-133.482 590.339,-132"/>
<text text-anchor="middle" x="617.497" y="-144.8" font-family="Times,serif" font-size="14.00">1 (96.6)</text>
</g>
<!-- 021 -->
<g id="node15" class="node"><title>021</title>
<ellipse fill="#cea8f4" stroke="#835da9" cx="673.497" cy="-105" rx="36.2938" ry="18"/>
<text text-anchor="middle" x="673.497" y="-101.3" font-family="Times,serif" font-size="14.00">021 (b)</text>
</g>
<!-- 063&#45;&gt;021 -->
<g id="edge13" class="edge"><title>063&#45;&gt;021</title>
<path fill="none" stroke="#835da9" stroke-dasharray="1,5" d="M636.585,-174.207C643.18,-162.021 652.219,-145.318 659.702,-131.491"/>
<polygon fill="#835da9" stroke="#835da9" points="662.903,-132.93 664.584,-122.469 656.747,-129.598 662.903,-132.93"/>
<text text-anchor="middle" x="675.497" y="-144.8" font-family="Times,serif" font-size="14.00">1 (93.1)</text>
</g>
<!-- 045 -->
<g id="node16" class="node"><title>045</title>
<ellipse fill="#cea8f4" stroke="#835da9" cx="764.497" cy="-105" rx="36.2938" ry="18"/>
<text text-anchor="middle" x="764.497" y="-101.3" font-family="Times,serif" font-size="14.00">045 (b)</text>
</g>
<!-- 063&#45;&gt;045 -->
<g id="edge14" class="edge"><title>063&#45;&gt;045</title>
<path fill="none" stroke="#835da9" stroke-dasharray="1,5" d="M654.644,-179.95C668.99,-173.671 686.653,-165.231 701.497,-156 714.856,-147.693 728.657,-137.014 739.925,-127.66"/>
<polygon fill="#835da9" stroke="#835da9" points="742.264,-130.266 747.64,-121.136 737.744,-124.921 742.264,-130.266"/>
<text text-anchor="middle" x="743.497" y="-144.8" font-family="Times,serif" font-size="14.00">1 (93.1)</text>
</g>
<!-- 011 -->
<g id="node17" class="node"><title>011</title>
<ellipse fill="#cea8f4" stroke="#835da9" cx="855.497" cy="-105" rx="36.2938" ry="18"/>
<text text-anchor="middle" x="855.497" y="-101.3" font-family="Times,serif" font-size="14.00">011 (b)</text>
</g>
<!-- 063&#45;&gt;011 -->
<g id="edge15" class="edge"><title>063&#45;&gt;011</title>
<path fill="none" stroke="#835da9" stroke-dasharray="1,5" d="M661.627,-185.418C690.935,-179.964 733.952,-170.368 769.497,-156 789.492,-147.918 810.443,-135.823 826.66,-125.554"/>
<polygon fill="#835da9" stroke="#835da9" points="828.644,-128.439 835.146,-120.074 824.847,-122.558 828.644,-128.439"/>
<text text-anchor="middle" x="821.497" y="-144.8" font-family="Times,serif" font-size="14.00">1 (93.1)</text>
</g>
<!-- 017 -->
<g id="node18" class="node"><title>017</title>
<ellipse fill="#cea8f4" stroke="#835da9" cx="119.497" cy="-18" rx="36.2938" ry="18"/>
<text text-anchor="middle" x="119.497" y="-14.3" font-family="Times,serif" font-size="14.00">017 (b)</text>
</g>
<!-- 07&#45;&gt;017 -->
<g id="edge16" class="edge"><title>07&#45;&gt;017</title>
<path fill="none" stroke="#835da9" stroke-dasharray="1,5" d="M360.79,-100.938C323.836,-96.6839 261.346,-87.3428 210.497,-69 188.837,-61.1866 166.137,-48.7223 148.827,-38.1935"/>
<polygon fill="#835da9" stroke="#835da9" points="150.642,-35.2006 140.3,-32.8989 146.949,-41.1475 150.642,-35.2006"/>
<text text-anchor="middle" x="232.497" y="-57.8" font-family="Times,serif" font-size="14.00">2 (92.7)</text>
</g>
<!-- 037 -->
<g id="node19" class="node"><title>037</title>
<ellipse fill="#cea8f4" stroke="#835da9" cx="210.497" cy="-18" rx="36.2938" ry="18"/>
<text text-anchor="middle" x="210.497" y="-14.3" font-family="Times,serif" font-size="14.00">037 (b)</text>
</g>
<!-- 07&#45;&gt;037 -->
<g id="edge17" class="edge"><title>07&#45;&gt;037</title>
<path fill="none" stroke="#835da9" stroke-dasharray="1,5" d="M362.92,-96.9956C340.474,-91.0936 309.198,-81.5935 283.497,-69 267.203,-61.0155 250.403,-49.7539 237.033,-39.9394"/>
<polygon fill="#835da9" stroke="#835da9" points="238.882,-36.9507 228.783,-33.7478 234.68,-42.5495 238.882,-36.9507"/>
<text text-anchor="middle" x="305.497" y="-57.8" font-family="Times,serif" font-size="14.00">1 (97.5)</text>
</g>
<!-- 030 -->
<g id="node20" class="node"><title>030</title>
<ellipse fill="#cea8f4" stroke="#835da9" cx="301.497" cy="-18" rx="36.2938" ry="18"/>
<text text-anchor="middle" x="301.497" y="-14.3" font-family="Times,serif" font-size="14.00">030 (b)</text>
</g>
<!-- 07&#45;&gt;030 -->
<g id="edge18" class="edge"><title>07&#45;&gt;030</title>
<path fill="none" stroke="#835da9" stroke-dasharray="1,5" d="M372.078,-90.6717C363.235,-84.5121 352.986,-76.8337 344.497,-69 335.953,-61.1154 327.421,-51.6186 320.237,-43.0293"/>
<polygon fill="#835da9" stroke="#835da9" points="322.841,-40.6853 313.805,-35.1545 317.42,-45.1135 322.841,-40.6853"/>
<text text-anchor="middle" x="366.497" y="-57.8" font-family="Times,serif" font-size="14.00">1 (95.1)</text>
</g>
<!-- 013 -->
<g id="node21" class="node"><title>013</title>
<ellipse fill="#cea8f4" stroke="#835da9" cx="392.497" cy="-18" rx="36.2938" ry="18"/>
<text text-anchor="middle" x="392.497" y="-14.3" font-family="Times,serif" font-size="14.00">013 (b)</text>
</g>
<!-- 07&#45;&gt;013 -->
<g id="edge19" class="edge"><title>07&#45;&gt;013</title>
<path fill="none" stroke="#835da9" stroke-dasharray="1,5" d="M392.497,-86.799C392.497,-75.1626 392.497,-59.5479 392.497,-46.2368"/>
<polygon fill="#835da9" stroke="#835da9" points="395.997,-46.1754 392.497,-36.1754 388.997,-46.1755 395.997,-46.1754"/>
<text text-anchor="middle" x="414.497" y="-57.8" font-family="Times,serif" font-size="14.00">2 (95.1)</text>
</g>
<!-- 0211 -->
<g id="node22" class="node"><title>0211</title>
<ellipse fill="#cea8f4" stroke="#835da9" cx="487.497" cy="-18" rx="40.8928" ry="18"/>
<text text-anchor="middle" x="487.497" y="-14.3" font-family="Times,serif" font-size="14.00">0211 (b)</text>
</g>
<!-- 07&#45;&gt;0211 -->
<g id="edge20" class="edge"><title>07&#45;&gt;0211</title>
<path fill="none" stroke="#835da9" stroke-dasharray="1,5" d="M412.754,-90.4918C421.567,-84.2989 431.837,-76.6441 440.497,-69 449.66,-60.9115 459.028,-51.2757 466.964,-42.6319"/>
<polygon fill="#835da9" stroke="#835da9" points="469.707,-44.8165 473.803,-35.0454 464.507,-40.1295 469.707,-44.8165"/>
<text text-anchor="middle" x="478.497" y="-57.8" font-family="Times,serif" font-size="14.00">2 (82.9)</text>
</g>
<!-- 034 -->
<g id="node23" class="node"><title>034</title>
<ellipse fill="#cea8f4" stroke="#835da9" cx="582.497" cy="-18" rx="36.2938" ry="18"/>
<text text-anchor="middle" x="582.497" y="-14.3" font-family="Times,serif" font-size="14.00">034 (b)</text>
</g>
<!-- 07&#45;&gt;034 -->
<g id="edge21" class="edge"><title>07&#45;&gt;034</title>
<path fill="none" stroke="#835da9" stroke-dasharray="1,5" d="M421.833,-97.1314C444.904,-91.1892 477.543,-81.5734 504.497,-69 522.001,-60.835 540.245,-49.329 554.684,-39.4127"/>
<polygon fill="#835da9" stroke="#835da9" points="556.96,-42.092 563.142,-33.4879 552.944,-36.3587 556.96,-42.092"/>
<text text-anchor="middle" x="553.497" y="-57.8" font-family="Times,serif" font-size="14.00">1 (95.1)</text>
</g>
<!-- 036 -->
<g id="node24" class="node"><title>036</title>
<ellipse fill="#cea8f4" stroke="#835da9" cx="673.497" cy="-18" rx="36.2938" ry="18"/>
<text text-anchor="middle" x="673.497" y="-14.3" font-family="Times,serif" font-size="14.00">036 (b)</text>
</g>
<!-- 021&#45;&gt;036 -->
<g id="edge22" class="edge"><title>021&#45;&gt;036</title>
<path fill="none" stroke="#835da9" stroke-dasharray="1,5" d="M673.497,-86.799C673.497,-75.1626 673.497,-59.5479 673.497,-46.2368"/>
<polygon fill="#835da9" stroke="#835da9" points="676.997,-46.1754 673.497,-36.1754 669.997,-46.1755 676.997,-46.1754"/>
<text text-anchor="middle" x="695.497" y="-57.8" font-family="Times,serif" font-size="14.00">1 (97.6)</text>
</g>
<!-- 047 -->
<g id="node25" class="node"><title>047</title>
<ellipse fill="#cea8f4" stroke="#835da9" cx="764.497" cy="-18" rx="36.2938" ry="18"/>
<text text-anchor="middle" x="764.497" y="-14.3" font-family="Times,serif" font-size="14.00">047 (b)</text>
</g>
<!-- 021&#45;&gt;047 -->
<g id="edge23" class="edge"><title>021&#45;&gt;047</title>
<path fill="none" stroke="#835da9" stroke-dasharray="1,5" d="M694.869,-90.006C703.489,-83.9634 713.311,-76.5539 721.497,-69 730.041,-61.1154 738.573,-51.6186 745.757,-43.0293"/>
<polygon fill="#835da9" stroke="#835da9" points="748.574,-45.1135 752.19,-35.1545 743.153,-40.6853 748.574,-45.1135"/>
<text text-anchor="middle" x="757.497" y="-57.8" font-family="Times,serif" font-size="14.00">1 (95.1)</text>
</g>
<!-- 038 -->
<g id="node28" class="node"><title>038</title>
<ellipse fill="#cea8f4" stroke="#835da9" cx="855.497" cy="-18" rx="36.2938" ry="18"/>
<text text-anchor="middle" x="855.497" y="-14.3" font-family="Times,serif" font-size="14.00">038 (b)</text>
</g>
<!-- 045&#45;&gt;038 -->
<g id="edge26" class="edge"><title>045&#45;&gt;038</title>
<path fill="none" stroke="#835da9" stroke-dasharray="1,5" d="M780.766,-88.8037C794.913,-75.5898 815.597,-56.2693 831.62,-41.3029"/>
<polygon fill="#835da9" stroke="#835da9" points="834.143,-43.7352 839.062,-34.3513 829.365,-38.6196 834.143,-43.7352"/>
<text text-anchor="middle" x="837.497" y="-57.8" font-family="Times,serif" font-size="14.00">1 (92.7)</text>
</g>
<!-- 02 -->
<g id="node29" class="node"><title>02</title>
<ellipse fill="#cea8f4" stroke="#835da9" cx="32.4971" cy="-18" rx="32.4942" ry="18"/>
<text text-anchor="middle" x="32.4971" y="-14.3" font-family="Times,serif" font-size="14.00">02 (b)</text>
</g>
<!-- 0141&#45;&gt;02 -->
<g id="edge27" class="edge"><title>0141&#45;&gt;02</title>
<path fill="none" stroke="#835da9" stroke-dasharray="1,5" d="M136.375,-93.131C130.143,-91.0356 123.627,-88.9025 117.497,-87 89.2771,-78.2411 75.6399,-88.5649 53.4971,-69 46.6004,-62.9062 41.9087,-54.1761 38.7437,-45.7115"/>
<polygon fill="#835da9" stroke="#835da9" points="42.046,-44.5462 35.6889,-36.0705 35.373,-46.6607 42.046,-44.5462"/>
<text text-anchor="middle" x="75.4971" y="-57.8" font-family="Times,serif" font-size="14.00">1 (86.5)</text>
</g>
</g>
</svg>
