<?xml version="1.0" encoding="UTF-8" standalone="no"?>
<!DOCTYPE svg PUBLIC "-//W3C//DTD SVG 1.1//EN"
 "http://www.w3.org/Graphics/SVG/1.1/DTD/svg11.dtd">
<!-- Generated by graphviz version 2.38.0 (20140413.2041)
 -->
<!-- Title: %3 Pages: 1 -->
<svg width="1018pt" height="321pt"
 viewBox="0.00 0.00 1017.79 321.00" xmlns="http://www.w3.org/2000/svg" xmlns:xlink="http://www.w3.org/1999/xlink">
<g id="graph0" class="graph" transform="scale(1 1) rotate(0) translate(4 317)">
<title>%3</title>
<polygon fill="white" stroke="none" points="-4,4 -4,-317 1013.79,-317 1013.79,4 -4,4"/>
<g id="clust1" class="cluster"><title>cluster_legend</title>
<path fill="none" stroke="black" d="M185.397,-177C185.397,-177 375.397,-177 375.397,-177 381.397,-177 387.397,-183 387.397,-189 387.397,-189 387.397,-293 387.397,-293 387.397,-299 381.397,-305 375.397,-305 375.397,-305 185.397,-305 185.397,-305 179.397,-305 173.397,-299 173.397,-293 173.397,-293 173.397,-189 173.397,-189 173.397,-183 179.397,-177 185.397,-177"/>
</g>
<!-- leg_s -->
<g id="node1" class="node"><title>leg_s</title>
<text text-anchor="middle" x="280.397" y="-275.3" font-family="Times,serif" font-size="14.00">Textual flow strength</text>
</g>
<!-- leg_e1 -->
<!-- leg_s&#45;&gt;leg_e1 -->
<g id="edge1" class="edge"><title>leg_s&#45;&gt;leg_e1</title>
<path fill="none" stroke="black" stroke-dasharray="1,5" d="M262.062,-260.686C256.529,-255.194 250.557,-248.989 245.397,-243 235.568,-231.593 225.469,-217.779 218.31,-207.563"/>
<polygon fill="black" stroke="black" points="221.011,-205.314 212.453,-199.068 215.248,-209.288 221.011,-205.314"/>
<text text-anchor="middle" x="260.897" y="-231.8" font-family="Times,serif" font-size="14.00">&lt;=5 &#160;</text>
</g>
<!-- leg_e2 -->
<!-- leg_s&#45;&gt;leg_e2 -->
<g id="edge2" class="edge"><title>leg_s&#45;&gt;leg_e2</title>
<path fill="none" stroke="black" stroke-dasharray="5,2" d="M280.397,-260.799C280.397,-245.794 280.397,-224.174 280.397,-209.409"/>
<polygon fill="black" stroke="black" points="283.897,-209.293 280.397,-199.293 276.897,-209.293 283.897,-209.293"/>
<text text-anchor="middle" x="299.397" y="-231.8" font-family="Times,serif" font-size="14.00"> &#160;&lt;=25</text>
</g>
<!-- leg_e3 -->
<!-- leg_s&#45;&gt;leg_e3 -->
<g id="edge3" class="edge"><title>leg_s&#45;&gt;leg_e3</title>
<path fill="none" stroke="black" d="M303.9,-260.76C310.303,-255.462 316.963,-249.344 322.397,-243 331.484,-232.39 339.492,-218.689 344.943,-208.313"/>
<polygon fill="black" stroke="black" points="348.119,-209.789 349.488,-199.283 341.866,-206.642 348.119,-209.789"/>
<text text-anchor="middle" x="344.397" y="-231.8" font-family="Times,serif" font-size="14.00">&gt;25</text>
</g>
<!-- 063 -->
<g id="node5" class="node"><title>063</title>
<ellipse fill="#ff8a8a" stroke="#b43f3f" cx="433.397" cy="-192" rx="36.2938" ry="18"/>
<text text-anchor="middle" x="433.397" y="-188.3" font-family="Times,serif" font-size="14.00">063 (a)</text>
</g>
<!-- 045 -->
<g id="node6" class="node"><title>045</title>
<ellipse fill="#ff8a8a" stroke="#b43f3f" cx="82.3968" cy="-105" rx="36.2938" ry="18"/>
<text text-anchor="middle" x="82.3968" y="-101.3" font-family="Times,serif" font-size="14.00">045 (a)</text>
</g>
<!-- 063&#45;&gt;045 -->
<g id="edge4" class="edge"><title>063&#45;&gt;045</title>
<path fill="none" stroke="#b43f3f" stroke-dasharray="1,5" d="M407.052,-179.275C401.931,-177.3 396.551,-175.43 391.397,-174 341.969,-160.288 327.63,-166.382 277.397,-156 223.557,-144.873 162.255,-128.541 122.991,-117.603"/>
<polygon fill="#b43f3f" stroke="#b43f3f" points="123.831,-114.203 113.257,-114.876 121.942,-120.944 123.831,-114.203"/>
<text text-anchor="middle" x="299.397" y="-144.8" font-family="Times,serif" font-size="14.00">1 (93.1)</text>
</g>
<!-- 031 -->
<g id="node7" class="node"><title>031</title>
<ellipse fill="#ff8a8a" stroke="#b43f3f" cx="261.397" cy="-105" rx="36.2938" ry="18"/>
<text text-anchor="middle" x="261.397" y="-101.3" font-family="Times,serif" font-size="14.00">031 (a)</text>
</g>
<!-- 063&#45;&gt;031 -->
<g id="edge5" class="edge"><title>063&#45;&gt;031</title>
<path fill="none" stroke="#b43f3f" stroke-dasharray="1,5" d="M406.101,-179.742C390.514,-173.143 370.69,-164.463 353.397,-156 332.957,-145.997 310.509,-133.822 292.904,-123.99"/>
<polygon fill="#b43f3f" stroke="#b43f3f" points="294.608,-120.933 284.176,-119.086 291.18,-127.036 294.608,-120.933"/>
<text text-anchor="middle" x="375.397" y="-144.8" font-family="Times,serif" font-size="14.00">1 (95.8)</text>
</g>
<!-- 011 -->
<g id="node8" class="node"><title>011</title>
<ellipse fill="#ff8a8a" stroke="#b43f3f" cx="395.397" cy="-105" rx="36.2938" ry="18"/>
<text text-anchor="middle" x="395.397" y="-101.3" font-family="Times,serif" font-size="14.00">011 (a)</text>
</g>
<!-- 063&#45;&gt;011 -->
<g id="edge6" class="edge"><title>063&#45;&gt;011</title>
<path fill="none" stroke="#b43f3f" stroke-dasharray="1,5" d="M418.874,-175.248C414.281,-169.541 409.578,-162.815 406.397,-156 403.088,-148.913 400.754,-140.79 399.116,-133.181"/>
<polygon fill="#b43f3f" stroke="#b43f3f" points="402.543,-132.468 397.287,-123.269 395.66,-133.738 402.543,-132.468"/>
<text text-anchor="middle" x="428.397" y="-144.8" font-family="Times,serif" font-size="14.00">1 (93.1)</text>
</g>
<!-- 07 -->
<g id="node9" class="node"><title>07</title>
<ellipse fill="#ff8a8a" stroke="#b43f3f" cx="481.397" cy="-105" rx="31.6951" ry="18"/>
<text text-anchor="middle" x="481.397" y="-101.3" font-family="Times,serif" font-size="14.00">07 (a)</text>
</g>
<!-- 063&#45;&gt;07 -->
<g id="edge7" class="edge"><title>063&#45;&gt;07</title>
<path fill="none" stroke="#b43f3f" stroke-dasharray="1,5" d="M442.88,-174.207C449.762,-162.021 459.194,-145.318 467.002,-131.491"/>
<polygon fill="#b43f3f" stroke="#b43f3f" points="470.227,-132.898 472.097,-122.469 464.132,-129.456 470.227,-132.898"/>
<text text-anchor="middle" x="482.397" y="-144.8" font-family="Times,serif" font-size="14.00">1 (96.6)</text>
</g>
<!-- 028 -->
<g id="node10" class="node"><title>028</title>
<ellipse fill="#ff8a8a" stroke="#b43f3f" cx="567.397" cy="-105" rx="36.2938" ry="18"/>
<text text-anchor="middle" x="567.397" y="-101.3" font-family="Times,serif" font-size="14.00">028 (a)</text>
</g>
<!-- 063&#45;&gt;028 -->
<g id="edge8" class="edge"><title>063&#45;&gt;028</title>
<path fill="none" stroke="#b43f3f" stroke-dasharray="1,5" d="M461.043,-180.196C475.62,-173.987 493.516,-165.535 508.397,-156 520.829,-148.035 533.467,-137.686 543.841,-128.472"/>
<polygon fill="#b43f3f" stroke="#b43f3f" points="546.242,-131.019 551.291,-121.705 541.535,-125.838 546.242,-131.019"/>
<text text-anchor="middle" x="551.397" y="-144.8" font-family="Times,serif" font-size="14.00">1 (96.6)</text>
</g>
<!-- 021 -->
<g id="node11" class="node"><title>021</title>
<ellipse fill="#ff8a8a" stroke="#b43f3f" cx="762.397" cy="-105" rx="36.2938" ry="18"/>
<text text-anchor="middle" x="762.397" y="-101.3" font-family="Times,serif" font-size="14.00">021 (a)</text>
</g>
<!-- 063&#45;&gt;021 -->
<g id="edge9" class="edge"><title>063&#45;&gt;021</title>
<path fill="none" stroke="#b43f3f" stroke-dasharray="1,5" d="M460.875,-179.968C466.914,-177.791 473.321,-175.667 479.397,-174 522.102,-162.281 534.207,-165.785 577.397,-156 627.521,-144.643 684.515,-128.786 721.837,-117.996"/>
<polygon fill="#b43f3f" stroke="#b43f3f" points="723.194,-121.246 731.82,-115.094 721.241,-114.524 723.194,-121.246"/>
<text text-anchor="middle" x="656.397" y="-144.8" font-family="Times,serif" font-size="14.00">1 (93.1)</text>
</g>
<!-- 038 -->
<g id="node12" class="node"><title>038</title>
<ellipse fill="#ff8a8a" stroke="#b43f3f" cx="36.3968" cy="-18" rx="36.2938" ry="18"/>
<text text-anchor="middle" x="36.3968" y="-14.3" font-family="Times,serif" font-size="14.00">038 (a)</text>
</g>
<!-- 045&#45;&gt;038 -->
<g id="edge10" class="edge"><title>045&#45;&gt;038</title>
<path fill="none" stroke="#b43f3f" stroke-dasharray="1,5" d="M72.0918,-87.417C68.5992,-81.6435 64.7385,-75.0876 61.3968,-69 57.1469,-61.2581 52.7594,-52.7023 48.8693,-44.8895"/>
<polygon fill="#b43f3f" stroke="#b43f3f" points="51.9685,-43.2604 44.4134,-35.8327 45.6875,-46.3507 51.9685,-43.2604"/>
<text text-anchor="middle" x="83.3968" y="-57.8" font-family="Times,serif" font-size="14.00">1 (92.7)</text>
</g>
<!-- 017 -->
<g id="node13" class="node"><title>017</title>
<ellipse fill="#ff8a8a" stroke="#b43f3f" cx="127.397" cy="-18" rx="36.2938" ry="18"/>
<text text-anchor="middle" x="127.397" y="-14.3" font-family="Times,serif" font-size="14.00">017 (a)</text>
</g>
<!-- 031&#45;&gt;017 -->
<g id="edge11" class="edge"><title>031&#45;&gt;017</title>
<path fill="none" stroke="#b43f3f" stroke-dasharray="1,5" d="M233.293,-93.5581C218.237,-87.3975 199.694,-78.8772 184.397,-69 172.355,-61.2246 160.245,-51.0175 150.302,-41.8541"/>
<polygon fill="#b43f3f" stroke="#b43f3f" points="152.508,-39.1224 142.837,-34.7954 147.698,-44.2089 152.508,-39.1224"/>
<text text-anchor="middle" x="206.397" y="-57.8" font-family="Times,serif" font-size="14.00">1 (94.3)</text>
</g>
<!-- 013 -->
<g id="node14" class="node"><title>013</title>
<ellipse fill="#ff8a8a" stroke="#b43f3f" cx="218.397" cy="-18" rx="36.2938" ry="18"/>
<text text-anchor="middle" x="218.397" y="-14.3" font-family="Times,serif" font-size="14.00">013 (a)</text>
</g>
<!-- 031&#45;&gt;013 -->
<g id="edge12" class="edge"><title>031&#45;&gt;013</title>
<path fill="none" stroke="#b43f3f" stroke-dasharray="1,5" d="M249.695,-87.6794C245.836,-81.9269 241.693,-75.3172 238.397,-69 234.504,-61.5402 230.877,-53.1458 227.809,-45.3959"/>
<polygon fill="#b43f3f" stroke="#b43f3f" points="231.076,-44.141 224.245,-36.0429 224.535,-46.6337 231.076,-44.141"/>
<text text-anchor="middle" x="260.397" y="-57.8" font-family="Times,serif" font-size="14.00">1 (97.1)</text>
</g>
<!-- 01 -->
<g id="node15" class="node"><title>01</title>
<ellipse fill="#ff8a8a" stroke="#b43f3f" cx="304.397" cy="-18" rx="31.6951" ry="18"/>
<text text-anchor="middle" x="304.397" y="-14.3" font-family="Times,serif" font-size="14.00">01 (a)</text>
</g>
<!-- 031&#45;&gt;01 -->
<g id="edge13" class="edge"><title>031&#45;&gt;01</title>
<path fill="none" stroke="#b43f3f" stroke-dasharray="1,5" d="M271.874,-87.5087C275.38,-81.7425 279.206,-75.1679 282.397,-69 286.319,-61.4192 290.203,-52.9889 293.59,-45.2433"/>
<polygon fill="#b43f3f" stroke="#b43f3f" points="296.866,-46.4846 297.58,-35.9139 290.43,-43.7315 296.866,-46.4846"/>
<text text-anchor="middle" x="312.397" y="-57.8" font-family="Times,serif" font-size="14.00">2 (48.5)</text>
</g>
<!-- 034 -->
<g id="node16" class="node"><title>034</title>
<ellipse fill="#ff8a8a" stroke="#b43f3f" cx="390.397" cy="-18" rx="36.2938" ry="18"/>
<text text-anchor="middle" x="390.397" y="-14.3" font-family="Times,serif" font-size="14.00">034 (a)</text>
</g>
<!-- 07&#45;&gt;034 -->
<g id="edge14" class="edge"><title>07&#45;&gt;034</title>
<path fill="none" stroke="#b43f3f" stroke-dasharray="1,5" d="M460.978,-90.6717C452.134,-84.5121 441.886,-76.8337 433.397,-69 424.853,-61.1154 416.321,-51.6186 409.136,-43.0293"/>
<polygon fill="#b43f3f" stroke="#b43f3f" points="411.741,-40.6853 402.704,-35.1545 406.32,-45.1135 411.741,-40.6853"/>
<text text-anchor="middle" x="455.397" y="-57.8" font-family="Times,serif" font-size="14.00">1 (95.1)</text>
</g>
<!-- 030 -->
<g id="node17" class="node"><title>030</title>
<ellipse fill="#ff8a8a" stroke="#b43f3f" cx="481.397" cy="-18" rx="36.2938" ry="18"/>
<text text-anchor="middle" x="481.397" y="-14.3" font-family="Times,serif" font-size="14.00">030 (a)</text>
</g>
<!-- 07&#45;&gt;030 -->
<g id="edge15" class="edge"><title>07&#45;&gt;030</title>
<path fill="none" stroke="#b43f3f" stroke-dasharray="1,5" d="M481.397,-86.799C481.397,-75.1626 481.397,-59.5479 481.397,-46.2368"/>
<polygon fill="#b43f3f" stroke="#b43f3f" points="484.897,-46.1754 481.397,-36.1754 477.897,-46.1755 484.897,-46.1754"/>
<text text-anchor="middle" x="503.397" y="-57.8" font-family="Times,serif" font-size="14.00">1 (95.1)</text>
</g>
<!-- 0211 -->
<g id="node18" class="node"><title>0211</title>
<ellipse fill="#ff8a8a" stroke="#b43f3f" cx="576.397" cy="-18" rx="40.0939" ry="18"/>
<text text-anchor="middle" x="576.397" y="-14.3" font-family="Times,serif" font-size="14.00">0211 (a)</text>
</g>
<!-- 07&#45;&gt;0211 -->
<g id="edge16" class="edge"><title>07&#45;&gt;0211</title>
<path fill="none" stroke="#b43f3f" stroke-dasharray="1,5" d="M501.182,-90.8221C510.1,-84.5722 520.582,-76.7806 529.397,-69 538.56,-60.9115 547.927,-51.2757 555.863,-42.6319"/>
<polygon fill="#b43f3f" stroke="#b43f3f" points="558.606,-44.8165 562.702,-35.0454 553.407,-40.1295 558.606,-44.8165"/>
<text text-anchor="middle" x="567.397" y="-57.8" font-family="Times,serif" font-size="14.00">2 (82.9)</text>
</g>
<!-- 037 -->
<g id="node19" class="node"><title>037</title>
<ellipse fill="#ff8a8a" stroke="#b43f3f" cx="671.397" cy="-18" rx="36.2938" ry="18"/>
<text text-anchor="middle" x="671.397" y="-14.3" font-family="Times,serif" font-size="14.00">037 (a)</text>
</g>
<!-- 07&#45;&gt;037 -->
<g id="edge17" class="edge"><title>07&#45;&gt;037</title>
<path fill="none" stroke="#b43f3f" stroke-dasharray="1,5" d="M505.894,-93.1655C511.276,-90.9761 516.985,-88.7974 522.397,-87 553.291,-76.7388 563.53,-81.9513 593.397,-69 611.239,-61.2628 629.627,-49.6811 644.064,-39.6122"/>
<polygon fill="#b43f3f" stroke="#b43f3f" points="646.399,-42.2459 652.503,-33.5863 642.331,-36.5492 646.399,-42.2459"/>
<text text-anchor="middle" x="643.397" y="-57.8" font-family="Times,serif" font-size="14.00">1 (97.5)</text>
</g>
<!-- 036 -->
<g id="node24" class="node"><title>036</title>
<ellipse fill="#ff8a8a" stroke="#b43f3f" cx="762.397" cy="-18" rx="36.2938" ry="18"/>
<text text-anchor="middle" x="762.397" y="-14.3" font-family="Times,serif" font-size="14.00">036 (a)</text>
</g>
<!-- 021&#45;&gt;036 -->
<g id="edge21" class="edge"><title>021&#45;&gt;036</title>
<path fill="none" stroke="#b43f3f" stroke-dasharray="1,5" d="M762.397,-86.799C762.397,-75.1626 762.397,-59.5479 762.397,-46.2368"/>
<polygon fill="#b43f3f" stroke="#b43f3f" points="765.897,-46.1754 762.397,-36.1754 758.897,-46.1755 765.897,-46.1754"/>
<text text-anchor="middle" x="784.397" y="-57.8" font-family="Times,serif" font-size="14.00">1 (97.6)</text>
</g>
<!-- 047 -->
<g id="node25" class="node"><title>047</title>
<ellipse fill="#ff8a8a" stroke="#b43f3f" cx="853.397" cy="-18" rx="36.2938" ry="18"/>
<text text-anchor="middle" x="853.397" y="-14.3" font-family="Times,serif" font-size="14.00">047 (a)</text>
</g>
<!-- 021&#45;&gt;047 -->
<g id="edge22" class="edge"><title>021&#45;&gt;047</title>
<path fill="none" stroke="#b43f3f" stroke-dasharray="1,5" d="M783.768,-90.006C792.389,-83.9634 802.211,-76.5539 810.397,-69 818.941,-61.1154 827.472,-51.6186 834.657,-43.0293"/>
<polygon fill="#b43f3f" stroke="#b43f3f" points="837.474,-45.1135 841.089,-35.1545 832.053,-40.6853 837.474,-45.1135"/>
<text text-anchor="middle" x="846.397" y="-57.8" font-family="Times,serif" font-size="14.00">1 (95.1)</text>
</g>
<!-- 03 -->
<g id="node20" class="node"><title>03</title>
<ellipse fill="#ff8a8a" stroke="#b43f3f" cx="618.397" cy="-279" rx="31.6951" ry="18"/>
<text text-anchor="middle" x="618.397" y="-275.3" font-family="Times,serif" font-size="14.00">03 (a)</text>
</g>
<!-- 0141 -->
<g id="node21" class="node"><title>0141</title>
<ellipse fill="#ff8a8a" stroke="#b43f3f" cx="528.397" cy="-192" rx="40.0939" ry="18"/>
<text text-anchor="middle" x="528.397" y="-188.3" font-family="Times,serif" font-size="14.00">0141 (a)</text>
</g>
<!-- 03&#45;&gt;0141 -->
<g id="edge18" class="edge"><title>03&#45;&gt;0141</title>
<path fill="none" stroke="#b43f3f" stroke-dasharray="1,5" d="M597.935,-264.718C589.083,-258.567 578.84,-250.883 570.397,-243 562.193,-235.341 554.053,-226.128 547.155,-217.709"/>
<polygon fill="#b43f3f" stroke="#b43f3f" points="549.688,-215.272 540.714,-209.641 544.218,-219.639 549.688,-215.272"/>
<text text-anchor="middle" x="592.397" y="-231.8" font-family="Times,serif" font-size="14.00">2 (86.5)</text>
</g>
<!-- 02 -->
<g id="node22" class="node"><title>02</title>
<ellipse fill="#ff8a8a" stroke="#b43f3f" cx="618.397" cy="-192" rx="31.6951" ry="18"/>
<text text-anchor="middle" x="618.397" y="-188.3" font-family="Times,serif" font-size="14.00">02 (a)</text>
</g>
<!-- 03&#45;&gt;02 -->
<g id="edge19" class="edge"><title>03&#45;&gt;02</title>
<path fill="none" stroke="#b43f3f" stroke-dasharray="1,5" d="M618.397,-260.799C618.397,-249.163 618.397,-233.548 618.397,-220.237"/>
<polygon fill="#b43f3f" stroke="#b43f3f" points="621.897,-220.175 618.397,-210.175 614.897,-220.175 621.897,-220.175"/>
<text text-anchor="middle" x="640.397" y="-231.8" font-family="Times,serif" font-size="14.00">1 (86.5)</text>
</g>
<!-- 022 -->
<g id="node23" class="node"><title>022</title>
<ellipse fill="#ff8a8a" stroke="#b43f3f" cx="704.397" cy="-192" rx="36.2938" ry="18"/>
<text text-anchor="middle" x="704.397" y="-188.3" font-family="Times,serif" font-size="14.00">022 (a)</text>
</g>
<!-- 03&#45;&gt;022 -->
<g id="edge20" class="edge"><title>03&#45;&gt;022</title>
<path fill="none" stroke="#b43f3f" stroke-dasharray="1,5" d="M639.044,-264.912C647.93,-258.796 658.148,-251.086 666.397,-243 674.221,-235.329 681.759,-225.975 688.029,-217.442"/>
<polygon fill="#b43f3f" stroke="#b43f3f" points="690.894,-219.452 693.84,-209.275 685.191,-215.394 690.894,-219.452"/>
<text text-anchor="middle" x="701.397" y="-231.8" font-family="Times,serif" font-size="14.00">1 (91.7)</text>
</g>
<!-- 019 -->
<g id="node26" class="node"><title>019</title>
<ellipse fill="#ff8a8a" stroke="#b43f3f" cx="433.397" cy="-279" rx="36.2938" ry="18"/>
<text text-anchor="middle" x="433.397" y="-275.3" font-family="Times,serif" font-size="14.00">019 (a)</text>
</g>
<!-- 019&#45;&gt;063 -->
<g id="edge23" class="edge"><title>019&#45;&gt;063</title>
<path fill="none" stroke="#b43f3f" stroke-dasharray="1,5" d="M433.397,-260.799C433.397,-249.163 433.397,-233.548 433.397,-220.237"/>
<polygon fill="#b43f3f" stroke="#b43f3f" points="436.897,-220.175 433.397,-210.175 429.897,-220.175 436.897,-220.175"/>
<text text-anchor="middle" x="455.397" y="-231.8" font-family="Times,serif" font-size="14.00">1 (85.7)</text>
</g>
<!-- 044 -->
<g id="node27" class="node"><title>044</title>
<ellipse fill="#cea8f4" stroke="#835da9" cx="791.397" cy="-279" rx="36.2938" ry="18"/>
<text text-anchor="middle" x="791.397" y="-275.3" font-family="Times,serif" font-size="14.00">044 (b)</text>
</g>
<!-- 05 -->
<g id="node28" class="node"><title>05</title>
<ellipse fill="#cea8f4" stroke="#835da9" cx="791.397" cy="-192" rx="32.4942" ry="18"/>
<text text-anchor="middle" x="791.397" y="-188.3" font-family="Times,serif" font-size="14.00">05 (b)</text>
</g>
<!-- 044&#45;&gt;05 -->
<g id="edge24" class="edge"><title>044&#45;&gt;05</title>
<path fill="none" stroke="#835da9" stroke-dasharray="1,5" d="M791.397,-260.799C791.397,-249.163 791.397,-233.548 791.397,-220.237"/>
<polygon fill="#835da9" stroke="#835da9" points="794.897,-220.175 791.397,-210.175 787.897,-220.175 794.897,-220.175"/>
<text text-anchor="middle" x="813.397" y="-231.8" font-family="Times,serif" font-size="14.00">3 (76.7)</text>
</g>
<!-- P75 -->
<g id="node29" class="node"><title>P75</title>
<ellipse fill="#ff8a8a" stroke="#b43f3f" cx="882.397" cy="-279" rx="36.2938" ry="18"/>
<text text-anchor="middle" x="882.397" y="-275.3" font-family="Times,serif" font-size="14.00">P75 (a)</text>
</g>
<!-- 032 -->
<g id="node30" class="node"><title>032</title>
<ellipse fill="#cea8f4" stroke="#835da9" cx="973.397" cy="-279" rx="36.2938" ry="18"/>
<text text-anchor="middle" x="973.397" y="-275.3" font-family="Times,serif" font-size="14.00">032 (b)</text>
</g>
</g>
</svg>
