<?xml version="1.0" encoding="UTF-8" standalone="no"?>
<!DOCTYPE svg PUBLIC "-//W3C//DTD SVG 1.1//EN"
 "http://www.w3.org/Graphics/SVG/1.1/DTD/svg11.dtd">
<!-- Generated by graphviz version 2.38.0 (20140413.2041)
 -->
<!-- Title: G Pages: 1 -->
<svg width="915pt" height="332pt"
 viewBox="0.00 0.00 914.79 332.00" xmlns="http://www.w3.org/2000/svg" xmlns:xlink="http://www.w3.org/1999/xlink">
<g id="graph0" class="graph" transform="scale(1 1) rotate(0) translate(4 328)">
<title>G</title>
<polygon fill="white" stroke="none" points="-4,4 -4,-328 910.794,-328 910.794,4 -4,4"/>
<!-- 038 (a) -->
<g id="node1" class="node"><title>038 (a)</title>
<ellipse fill="#ff8a8a" stroke="#b43f3f" cx="209.397" cy="-18" rx="36.2938" ry="18"/>
<text text-anchor="middle" x="209.397" y="-14.3" font-family="Times,serif" font-size="14.00">038 (a)</text>
</g>
<!-- 032 (a) -->
<g id="node2" class="node"><title>032 (a)</title>
<ellipse fill="#ff8a8a" stroke="#b43f3f" cx="40.3968" cy="-162" rx="36.2938" ry="18"/>
<text text-anchor="middle" x="40.3968" y="-158.3" font-family="Times,serif" font-size="14.00">032 (a)</text>
</g>
<!-- 063 (a) -->
<g id="node3" class="node"><title>063 (a)</title>
<ellipse fill="#ff8a8a" stroke="#b43f3f" cx="337.397" cy="-162" rx="36.2938" ry="18"/>
<text text-anchor="middle" x="337.397" y="-158.3" font-family="Times,serif" font-size="14.00">063 (a)</text>
</g>
<!-- 028 (a) -->
<g id="node5" class="node"><title>028 (a)</title>
<ellipse fill="#ff8a8a" stroke="#b43f3f" cx="226.397" cy="-90" rx="36.2938" ry="18"/>
<text text-anchor="middle" x="226.397" y="-86.3" font-family="Times,serif" font-size="14.00">028 (a)</text>
</g>
<!-- 063 (a)&#45;&gt;028 (a) -->
<g id="edge1" class="edge"><title>063 (a)&#45;&gt;028 (a)</title>
<path fill="none" stroke="black" d="M315.731,-147.337C298.847,-136.689 275.206,-121.781 256.486,-109.975"/>
<polygon fill="black" stroke="black" points="258.333,-107.002 248.008,-104.628 254.599,-112.923 258.333,-107.002"/>
</g>
<!-- 011 (a) -->
<g id="node18" class="node"><title>011 (a)</title>
<ellipse fill="#ff8a8a" stroke="#b43f3f" cx="317.397" cy="-90" rx="36.2938" ry="18"/>
<text text-anchor="middle" x="317.397" y="-86.3" font-family="Times,serif" font-size="14.00">011 (a)</text>
</g>
<!-- 063 (a)&#45;&gt;011 (a) -->
<g id="edge4" class="edge"><title>063 (a)&#45;&gt;011 (a)</title>
<path fill="none" stroke="black" d="M332.555,-144.055C330.328,-136.261 327.632,-126.822 325.134,-118.079"/>
<polygon fill="black" stroke="black" points="328.445,-116.929 322.333,-108.275 321.715,-118.852 328.445,-116.929"/>
</g>
<!-- 045 (a) -->
<g id="node20" class="node"><title>045 (a)</title>
<ellipse fill="#ff8a8a" stroke="#b43f3f" cx="408.397" cy="-90" rx="36.2938" ry="18"/>
<text text-anchor="middle" x="408.397" y="-86.3" font-family="Times,serif" font-size="14.00">045 (a)</text>
</g>
<!-- 063 (a)&#45;&gt;045 (a) -->
<g id="edge3" class="edge"><title>063 (a)&#45;&gt;045 (a)</title>
<path fill="none" stroke="black" d="M353.154,-145.465C362.622,-136.13 374.837,-124.087 385.372,-113.7"/>
<polygon fill="black" stroke="black" points="388.02,-116.005 392.684,-106.492 383.105,-111.02 388.02,-116.005"/>
</g>
<!-- 07 (a) -->
<g id="node23" class="node"><title>07 (a)</title>
<ellipse fill="#ff8a8a" stroke="#b43f3f" cx="494.397" cy="-90" rx="31.6951" ry="18"/>
<text text-anchor="middle" x="494.397" y="-86.3" font-family="Times,serif" font-size="14.00">07 (a)</text>
</g>
<!-- 063 (a)&#45;&gt;07 (a) -->
<g id="edge2" class="edge"><title>063 (a)&#45;&gt;07 (a)</title>
<path fill="none" stroke="black" d="M363.675,-149.284C390.34,-137.395 431.719,-118.946 460.762,-105.996"/>
<polygon fill="black" stroke="black" points="462.392,-109.102 470.1,-101.833 459.541,-102.709 462.392,-109.102"/>
</g>
<!-- 021 (a) -->
<g id="node27" class="node"><title>021 (a)</title>
<ellipse fill="#ff8a8a" stroke="#b43f3f" cx="779.397" cy="-90" rx="36.2938" ry="18"/>
<text text-anchor="middle" x="779.397" y="-86.3" font-family="Times,serif" font-size="14.00">021 (a)</text>
</g>
<!-- 063 (a)&#45;&gt;021 (a) -->
<g id="edge5" class="edge"><title>063 (a)&#45;&gt;021 (a)</title>
<path fill="none" stroke="black" d="M370.408,-154.094C386.38,-150.851 405.851,-147.038 423.397,-144 534.878,-124.694 666.749,-106.185 734.4,-97.0026"/>
<polygon fill="black" stroke="black" points="735.253,-100.419 744.693,-95.6104 734.314,-93.4824 735.253,-100.419"/>
</g>
<!-- 05 (a) -->
<g id="node4" class="node"><title>05 (a)</title>
<ellipse fill="#ff8a8a" stroke="#b43f3f" cx="464.397" cy="-162" rx="31.6951" ry="18"/>
<text text-anchor="middle" x="464.397" y="-158.3" font-family="Times,serif" font-size="14.00">05 (a)</text>
</g>
<!-- 01 (a) -->
<g id="node6" class="node"><title>01 (a)</title>
<ellipse fill="#ff8a8a" stroke="#b43f3f" cx="124.397" cy="-234" rx="31.6951" ry="18"/>
<text text-anchor="middle" x="124.397" y="-230.3" font-family="Times,serif" font-size="14.00">01 (a)</text>
</g>
<!-- 022 (b) -->
<g id="node7" class="node"><title>022 (b)</title>
<ellipse fill="#cea8f4" stroke="#835da9" cx="36.3968" cy="-90" rx="36.2938" ry="18"/>
<text text-anchor="middle" x="36.3968" y="-86.3" font-family="Times,serif" font-size="14.00">022 (b)</text>
</g>
<!-- 03 (a) -->
<g id="node8" class="node"><title>03 (a)</title>
<ellipse fill="#ff8a8a" stroke="#b43f3f" cx="206.397" cy="-234" rx="31.6951" ry="18"/>
<text text-anchor="middle" x="206.397" y="-230.3" font-family="Times,serif" font-size="14.00">03 (a)</text>
</g>
<!-- 03 (a)&#45;&gt;032 (a) -->
<g id="edge6" class="edge"><title>03 (a)&#45;&gt;032 (a)</title>
<path fill="none" stroke="black" d="M181.545,-222.52C153.676,-210.768 108.231,-191.605 76.4576,-178.206"/>
<polygon fill="black" stroke="black" points="77.6446,-174.909 67.0704,-174.248 74.9247,-181.359 77.6446,-174.909"/>
</g>
<!-- 044 (a) -->
<g id="node10" class="node"><title>044 (a)</title>
<ellipse fill="#ff8a8a" stroke="#b43f3f" cx="131.397" cy="-162" rx="36.2938" ry="18"/>
<text text-anchor="middle" x="131.397" y="-158.3" font-family="Times,serif" font-size="14.00">044 (a)</text>
</g>
<!-- 03 (a)&#45;&gt;044 (a) -->
<g id="edge7" class="edge"><title>03 (a)&#45;&gt;044 (a)</title>
<path fill="none" stroke="black" d="M190.491,-218.155C180.29,-208.633 166.854,-196.093 155.371,-185.376"/>
<polygon fill="black" stroke="black" points="157.497,-182.572 147.798,-178.308 152.72,-187.69 157.497,-182.572"/>
</g>
<!-- 02 (a) -->
<g id="node12" class="node"><title>02 (a)</title>
<ellipse fill="#ff8a8a" stroke="#b43f3f" cx="217.397" cy="-162" rx="31.6951" ry="18"/>
<text text-anchor="middle" x="217.397" y="-158.3" font-family="Times,serif" font-size="14.00">02 (a)</text>
</g>
<!-- 03 (a)&#45;&gt;02 (a) -->
<g id="edge8" class="edge"><title>03 (a)&#45;&gt;02 (a)</title>
<path fill="none" stroke="black" d="M209.06,-216.055C210.271,-208.346 211.735,-199.027 213.097,-190.364"/>
<polygon fill="black" stroke="black" points="216.587,-190.697 214.682,-180.275 209.672,-189.611 216.587,-190.697"/>
</g>
<!-- 013/2 (a) -->
<g id="node9" class="node"><title>013/2 (a)</title>
<ellipse fill="#ff8a8a" stroke="#b43f3f" cx="306.397" cy="-18" rx="42.7926" ry="18"/>
<text text-anchor="middle" x="306.397" y="-14.3" font-family="Times,serif" font-size="14.00">013/2 (a)</text>
</g>
<!-- 044 (a)&#45;&gt;022 (b) -->
<g id="edge9" class="edge"><title>044 (a)&#45;&gt;022 (b)</title>
<path fill="none" stroke="black" d="M111.713,-146.496C97.9559,-136.359 79.393,-122.681 64.1384,-111.441"/>
<polygon fill="black" stroke="black" points="66.1824,-108.6 56.0556,-105.485 62.03,-114.235 66.1824,-108.6"/>
</g>
<!-- 0141 (a) -->
<g id="node11" class="node"><title>0141 (a)</title>
<ellipse fill="#ff8a8a" stroke="#b43f3f" cx="131.397" cy="-90" rx="40.0939" ry="18"/>
<text text-anchor="middle" x="131.397" y="-86.3" font-family="Times,serif" font-size="14.00">0141 (a)</text>
</g>
<!-- 044 (a)&#45;&gt;0141 (a) -->
<g id="edge10" class="edge"><title>044 (a)&#45;&gt;0141 (a)</title>
<path fill="none" stroke="black" d="M131.397,-143.697C131.397,-135.983 131.397,-126.712 131.397,-118.112"/>
<polygon fill="black" stroke="black" points="134.897,-118.104 131.397,-108.104 127.897,-118.104 134.897,-118.104"/>
</g>
<!-- 019 (a) -->
<g id="node13" class="node"><title>019 (a)</title>
<ellipse fill="#ff8a8a" stroke="#b43f3f" cx="292.397" cy="-234" rx="36.2938" ry="18"/>
<text text-anchor="middle" x="292.397" y="-230.3" font-family="Times,serif" font-size="14.00">019 (a)</text>
</g>
<!-- 019 (a)&#45;&gt;063 (a) -->
<g id="edge11" class="edge"><title>019 (a)&#45;&gt;063 (a)</title>
<path fill="none" stroke="black" d="M303.061,-216.411C308.497,-207.955 315.222,-197.494 321.275,-188.078"/>
<polygon fill="black" stroke="black" points="324.345,-189.774 326.809,-179.47 318.457,-185.989 324.345,-189.774"/>
</g>
<!-- P75 (a) -->
<g id="node14" class="node"><title>P75 (a)</title>
<ellipse fill="#ff8a8a" stroke="#b43f3f" cx="383.397" cy="-234" rx="36.2938" ry="18"/>
<text text-anchor="middle" x="383.397" y="-230.3" font-family="Times,serif" font-size="14.00">P75 (a)</text>
</g>
<!-- 0211 (a) -->
<g id="node15" class="node"><title>0211 (a)</title>
<ellipse fill="#ff8a8a" stroke="#b43f3f" cx="554.397" cy="-162" rx="40.0939" ry="18"/>
<text text-anchor="middle" x="554.397" y="-158.3" font-family="Times,serif" font-size="14.00">0211 (a)</text>
</g>
<!-- 034 (a) -->
<g id="node16" class="node"><title>034 (a)</title>
<ellipse fill="#ff8a8a" stroke="#b43f3f" cx="403.397" cy="-18" rx="36.2938" ry="18"/>
<text text-anchor="middle" x="403.397" y="-14.3" font-family="Times,serif" font-size="14.00">034 (a)</text>
</g>
<!-- 036 (a) -->
<g id="node17" class="node"><title>036 (a)</title>
<ellipse fill="#ff8a8a" stroke="#b43f3f" cx="779.397" cy="-18" rx="36.2938" ry="18"/>
<text text-anchor="middle" x="779.397" y="-14.3" font-family="Times,serif" font-size="14.00">036 (a)</text>
</g>
<!-- 047 (a) -->
<g id="node19" class="node"><title>047 (a)</title>
<ellipse fill="#ff8a8a" stroke="#b43f3f" cx="870.397" cy="-18" rx="36.2938" ry="18"/>
<text text-anchor="middle" x="870.397" y="-14.3" font-family="Times,serif" font-size="14.00">047 (a)</text>
</g>
<!-- 045 (a)&#45;&gt;038 (a) -->
<g id="edge12" class="edge"><title>045 (a)&#45;&gt;038 (a)</title>
<path fill="none" stroke="black" d="M380.229,-78.427C374.349,-76.2658 368.18,-74.032 362.397,-72 314.661,-55.2282 302.072,-52.9437 254.397,-36 251.987,-35.1435 249.509,-34.2486 247.015,-33.3369"/>
<polygon fill="black" stroke="black" points="248.013,-29.9739 237.419,-29.7816 245.581,-36.5378 248.013,-29.9739"/>
</g>
<!-- 030 (a) -->
<g id="node21" class="node"><title>030 (a)</title>
<ellipse fill="#ff8a8a" stroke="#b43f3f" cx="494.397" cy="-18" rx="36.2938" ry="18"/>
<text text-anchor="middle" x="494.397" y="-14.3" font-family="Times,serif" font-size="14.00">030 (a)</text>
</g>
<!-- 091 (a) -->
<g id="node22" class="node"><title>091 (a)</title>
<ellipse fill="#ff8a8a" stroke="#b43f3f" cx="474.397" cy="-234" rx="36.2938" ry="18"/>
<text text-anchor="middle" x="474.397" y="-230.3" font-family="Times,serif" font-size="14.00">091 (a)</text>
</g>
<!-- 091 (a)&#45;&gt;05 (a) -->
<g id="edge13" class="edge"><title>091 (a)&#45;&gt;05 (a)</title>
<path fill="none" stroke="black" d="M471.925,-215.697C470.823,-207.983 469.499,-198.712 468.27,-190.112"/>
<polygon fill="black" stroke="black" points="471.719,-189.509 466.84,-180.104 464.79,-190.499 471.719,-189.509"/>
</g>
<!-- 091 (a)&#45;&gt;0211 (a) -->
<g id="edge14" class="edge"><title>091 (a)&#45;&gt;0211 (a)</title>
<path fill="none" stroke="black" d="M491.756,-217.811C502.688,-208.245 516.984,-195.736 529.158,-185.084"/>
<polygon fill="black" stroke="black" points="531.575,-187.62 536.796,-178.401 526.965,-182.352 531.575,-187.62"/>
</g>
<!-- 07 (a)&#45;&gt;013/2 (a) -->
<g id="edge19" class="edge"><title>07 (a)&#45;&gt;013/2 (a)</title>
<path fill="none" stroke="black" d="M469.756,-78.5632C464.383,-76.349 458.714,-74.0596 453.397,-72 418.054,-58.3104 377.507,-43.7779 347.961,-33.3996"/>
<polygon fill="black" stroke="black" points="348.982,-30.0485 338.387,-30.0464 346.668,-36.6551 348.982,-30.0485"/>
</g>
<!-- 07 (a)&#45;&gt;034 (a) -->
<g id="edge15" class="edge"><title>07 (a)&#45;&gt;034 (a)</title>
<path fill="none" stroke="black" d="M475.982,-74.8345C462.957,-64.8158 445.278,-51.2163 430.628,-39.9473"/>
<polygon fill="black" stroke="black" points="432.471,-36.9493 422.411,-33.6263 428.203,-42.4977 432.471,-36.9493"/>
</g>
<!-- 07 (a)&#45;&gt;030 (a) -->
<g id="edge18" class="edge"><title>07 (a)&#45;&gt;030 (a)</title>
<path fill="none" stroke="black" d="M494.397,-71.6966C494.397,-63.9827 494.397,-54.7125 494.397,-46.1124"/>
<polygon fill="black" stroke="black" points="497.897,-46.1043 494.397,-36.1043 490.897,-46.1044 497.897,-46.1043"/>
</g>
<!-- 017/2 (a) -->
<g id="node24" class="node"><title>017/2 (a)</title>
<ellipse fill="#ff8a8a" stroke="#b43f3f" cx="591.397" cy="-18" rx="42.7926" ry="18"/>
<text text-anchor="middle" x="591.397" y="-14.3" font-family="Times,serif" font-size="14.00">017/2 (a)</text>
</g>
<!-- 07 (a)&#45;&gt;017/2 (a) -->
<g id="edge16" class="edge"><title>07 (a)&#45;&gt;017/2 (a)</title>
<path fill="none" stroke="black" d="M513.561,-75.1703C527.443,-65.152 546.462,-51.4269 562.225,-40.0519"/>
<polygon fill="black" stroke="black" points="564.533,-42.7028 570.593,-34.0127 560.436,-37.0265 564.533,-42.7028"/>
</g>
<!-- 037 (a) -->
<g id="node25" class="node"><title>037 (a)</title>
<ellipse fill="#ff8a8a" stroke="#b43f3f" cx="688.397" cy="-18" rx="36.2938" ry="18"/>
<text text-anchor="middle" x="688.397" y="-14.3" font-family="Times,serif" font-size="14.00">037 (a)</text>
</g>
<!-- 07 (a)&#45;&gt;037 (a) -->
<g id="edge17" class="edge"><title>07 (a)&#45;&gt;037 (a)</title>
<path fill="none" stroke="black" d="M520.829,-79.7723C550.66,-69.3179 600.606,-51.6913 643.397,-36 645.798,-35.1195 648.269,-34.2063 650.758,-33.2809"/>
<polygon fill="black" stroke="black" points="652.203,-36.4771 660.343,-29.6945 649.75,-29.9211 652.203,-36.4771"/>
</g>
<!-- A (a) -->
<g id="node26" class="node"><title>A (a)</title>
<ellipse fill="#ff8a8a" stroke="#b43f3f" cx="292.397" cy="-306" rx="29.4969" ry="18"/>
<text text-anchor="middle" x="292.397" y="-302.3" font-family="Times,serif" font-size="14.00">A (a)</text>
</g>
<!-- A (a)&#45;&gt;01 (a) -->
<g id="edge22" class="edge"><title>A (a)&#45;&gt;01 (a)</title>
<path fill="none" stroke="black" d="M268.683,-295.119C240.076,-283.2 191.753,-263.065 158.988,-249.413"/>
<polygon fill="black" stroke="black" points="159.936,-246.016 149.359,-245.401 157.243,-252.478 159.936,-246.016"/>
</g>
<!-- A (a)&#45;&gt;03 (a) -->
<g id="edge23" class="edge"><title>A (a)&#45;&gt;03 (a)</title>
<path fill="none" stroke="black" d="M275.406,-291.17C262.966,-281.045 245.875,-267.133 231.813,-255.688"/>
<polygon fill="black" stroke="black" points="233.908,-252.88 223.943,-249.282 229.489,-258.309 233.908,-252.88"/>
</g>
<!-- A (a)&#45;&gt;019 (a) -->
<g id="edge21" class="edge"><title>A (a)&#45;&gt;019 (a)</title>
<path fill="none" stroke="black" d="M292.397,-287.697C292.397,-279.983 292.397,-270.712 292.397,-262.112"/>
<polygon fill="black" stroke="black" points="295.897,-262.104 292.397,-252.104 288.897,-262.104 295.897,-262.104"/>
</g>
<!-- A (a)&#45;&gt;P75 (a) -->
<g id="edge20" class="edge"><title>A (a)&#45;&gt;P75 (a)</title>
<path fill="none" stroke="black" d="M309.942,-291.503C323.103,-281.38 341.358,-267.338 356.376,-255.785"/>
<polygon fill="black" stroke="black" points="358.542,-258.535 364.334,-249.664 354.274,-252.987 358.542,-258.535"/>
</g>
<!-- A (a)&#45;&gt;091 (a) -->
<g id="edge24" class="edge"><title>A (a)&#45;&gt;091 (a)</title>
<path fill="none" stroke="black" d="M316.565,-295.705C347.323,-283.875 400.783,-263.313 436.865,-249.435"/>
<polygon fill="black" stroke="black" points="438.47,-252.568 446.547,-245.711 435.958,-246.034 438.47,-252.568"/>
</g>
<!-- 021 (a)&#45;&gt;036 (a) -->
<g id="edge25" class="edge"><title>021 (a)&#45;&gt;036 (a)</title>
<path fill="none" stroke="black" d="M779.397,-71.6966C779.397,-63.9827 779.397,-54.7125 779.397,-46.1124"/>
<polygon fill="black" stroke="black" points="782.897,-46.1043 779.397,-36.1043 775.897,-46.1044 782.897,-46.1043"/>
</g>
<!-- 021 (a)&#45;&gt;047 (a) -->
<g id="edge26" class="edge"><title>021 (a)&#45;&gt;047 (a)</title>
<path fill="none" stroke="black" d="M798.252,-74.496C811.308,-64.4532 828.882,-50.9344 843.416,-39.7541"/>
<polygon fill="black" stroke="black" points="845.773,-42.3568 851.566,-33.4855 841.505,-36.8084 845.773,-42.3568"/>
</g>
</g>
</svg>
