<?xml version="1.0" encoding="UTF-8" standalone="no"?>
<!DOCTYPE svg PUBLIC "-//W3C//DTD SVG 1.1//EN"
 "http://www.w3.org/Graphics/SVG/1.1/DTD/svg11.dtd">
<!-- Generated by graphviz version 2.38.0 (20140413.2041)
 -->
<!-- Title: %3 Pages: 1 -->
<svg width="1410pt" height="152pt"
 viewBox="0.00 0.00 1410.40 152.00" xmlns="http://www.w3.org/2000/svg" xmlns:xlink="http://www.w3.org/1999/xlink">
<g id="graph0" class="graph" transform="scale(1 1) rotate(0) translate(4 148)">
<title>%3</title>
<polygon fill="white" stroke="none" points="-4,4 -4,-148 1406.4,-148 1406.4,4 -4,4"/>
<g id="clust1" class="cluster"><title>cluster_legend</title>
<path fill="none" stroke="black" d="M20,-8C20,-8 210,-8 210,-8 216,-8 222,-14 222,-20 222,-20 222,-124 222,-124 222,-130 216,-136 210,-136 210,-136 20,-136 20,-136 14,-136 8,-130 8,-124 8,-124 8,-20 8,-20 8,-14 14,-8 20,-8"/>
</g>
<!-- leg_s -->
<g id="node1" class="node"><title>leg_s</title>
<text text-anchor="middle" x="115" y="-106.3" font-family="Times,serif" font-size="14.00">Textual flow strength</text>
</g>
<!-- leg_e1 -->
<!-- leg_s&#45;&gt;leg_e1 -->
<g id="edge1" class="edge"><title>leg_s&#45;&gt;leg_e1</title>
<path fill="none" stroke="black" stroke-dasharray="1,5" d="M96.6657,-91.6857C91.1324,-86.1938 85.1607,-79.9891 80,-74 70.1708,-62.593 60.0722,-48.7786 52.9137,-38.5634"/>
<polygon fill="black" stroke="black" points="55.6142,-36.3142 47.056,-30.0685 49.8514,-40.2879 55.6142,-36.3142"/>
<text text-anchor="middle" x="95.5" y="-62.8" font-family="Times,serif" font-size="14.00">&lt;=5 &#160;</text>
</g>
<!-- leg_e2 -->
<!-- leg_s&#45;&gt;leg_e2 -->
<g id="edge2" class="edge"><title>leg_s&#45;&gt;leg_e2</title>
<path fill="none" stroke="black" stroke-dasharray="5,2" d="M115,-91.799C115,-76.7942 115,-55.1745 115,-40.4086"/>
<polygon fill="black" stroke="black" points="118.5,-40.2934 115,-30.2934 111.5,-40.2934 118.5,-40.2934"/>
<text text-anchor="middle" x="134" y="-62.8" font-family="Times,serif" font-size="14.00"> &#160;&lt;=25</text>
</g>
<!-- leg_e3 -->
<!-- leg_s&#45;&gt;leg_e3 -->
<g id="edge3" class="edge"><title>leg_s&#45;&gt;leg_e3</title>
<path fill="none" stroke="black" d="M138.503,-91.7602C144.906,-86.4621 151.567,-80.3439 157,-74 166.087,-63.3897 174.095,-49.6892 179.546,-39.3134"/>
<polygon fill="black" stroke="black" points="182.722,-40.7893 184.091,-30.2833 176.469,-37.6425 182.722,-40.7893"/>
<text text-anchor="middle" x="179" y="-62.8" font-family="Times,serif" font-size="14.00">&gt;25</text>
</g>
<!-- 021 -->
<g id="node5" class="node"><title>021</title>
<ellipse fill="#ff8a8a" stroke="#b43f3f" cx="314" cy="-110" rx="36.2938" ry="18"/>
<text text-anchor="middle" x="314" y="-106.3" font-family="Times,serif" font-size="14.00">021 (a)</text>
</g>
<!-- 036 -->
<g id="node6" class="node"><title>036</title>
<ellipse fill="#ff8a8a" stroke="#b43f3f" cx="268" cy="-23" rx="36.2938" ry="18"/>
<text text-anchor="middle" x="268" y="-19.3" font-family="Times,serif" font-size="14.00">036 (a)</text>
</g>
<!-- 021&#45;&gt;036 -->
<g id="edge4" class="edge"><title>021&#45;&gt;036</title>
<path fill="none" stroke="#b43f3f" stroke-dasharray="1,5" d="M299.713,-93.4144C294.903,-87.6168 289.8,-80.7908 286,-74 281.99,-66.8344 278.593,-58.6079 275.867,-50.9242"/>
<polygon fill="#b43f3f" stroke="#b43f3f" points="279.138,-49.6664 272.675,-41.2708 272.492,-51.8641 279.138,-49.6664"/>
<text text-anchor="middle" x="308" y="-62.8" font-family="Times,serif" font-size="14.00">1 (97.6)</text>
</g>
<!-- 047 -->
<g id="node7" class="node"><title>047</title>
<ellipse fill="#ff8a8a" stroke="#b43f3f" cx="359" cy="-23" rx="36.2938" ry="18"/>
<text text-anchor="middle" x="359" y="-19.3" font-family="Times,serif" font-size="14.00">047 (a)</text>
</g>
<!-- 021&#45;&gt;047 -->
<g id="edge5" class="edge"><title>021&#45;&gt;047</title>
<path fill="none" stroke="#b43f3f" stroke-dasharray="1,5" d="M322.891,-92.2067C329.3,-80.0991 338.071,-63.5329 345.363,-49.759"/>
<polygon fill="#b43f3f" stroke="#b43f3f" points="348.542,-51.2339 350.128,-40.7584 342.356,-47.9586 348.542,-51.2339"/>
<text text-anchor="middle" x="362" y="-62.8" font-family="Times,serif" font-size="14.00">1 (95.1)</text>
</g>
<!-- 07 -->
<g id="node8" class="node"><title>07</title>
<ellipse fill="#ff8a8a" stroke="#b43f3f" cx="541" cy="-110" rx="31.6951" ry="18"/>
<text text-anchor="middle" x="541" y="-106.3" font-family="Times,serif" font-size="14.00">07 (a)</text>
</g>
<!-- 034 -->
<g id="node9" class="node"><title>034</title>
<ellipse fill="#ff8a8a" stroke="#b43f3f" cx="450" cy="-23" rx="36.2938" ry="18"/>
<text text-anchor="middle" x="450" y="-19.3" font-family="Times,serif" font-size="14.00">034 (a)</text>
</g>
<!-- 07&#45;&gt;034 -->
<g id="edge6" class="edge"><title>07&#45;&gt;034</title>
<path fill="none" stroke="#b43f3f" stroke-dasharray="1,5" d="M520.581,-95.6717C511.737,-89.5121 501.489,-81.8337 493,-74 484.456,-66.1154 475.924,-56.6186 468.74,-48.0293"/>
<polygon fill="#b43f3f" stroke="#b43f3f" points="471.344,-45.6853 462.308,-40.1545 465.923,-50.1135 471.344,-45.6853"/>
<text text-anchor="middle" x="515" y="-62.8" font-family="Times,serif" font-size="14.00">1 (95.1)</text>
</g>
<!-- 037 -->
<g id="node10" class="node"><title>037</title>
<ellipse fill="#ff8a8a" stroke="#b43f3f" cx="541" cy="-23" rx="36.2938" ry="18"/>
<text text-anchor="middle" x="541" y="-19.3" font-family="Times,serif" font-size="14.00">037 (a)</text>
</g>
<!-- 07&#45;&gt;037 -->
<g id="edge7" class="edge"><title>07&#45;&gt;037</title>
<path fill="none" stroke="#b43f3f" stroke-dasharray="1,5" d="M541,-91.799C541,-80.1626 541,-64.5479 541,-51.2368"/>
<polygon fill="#b43f3f" stroke="#b43f3f" points="544.5,-51.1754 541,-41.1754 537.5,-51.1755 544.5,-51.1754"/>
<text text-anchor="middle" x="563" y="-62.8" font-family="Times,serif" font-size="14.00">1 (97.5)</text>
</g>
<!-- 030 -->
<g id="node11" class="node"><title>030</title>
<ellipse fill="#ff8a8a" stroke="#b43f3f" cx="632" cy="-23" rx="36.2938" ry="18"/>
<text text-anchor="middle" x="632" y="-19.3" font-family="Times,serif" font-size="14.00">030 (a)</text>
</g>
<!-- 07&#45;&gt;030 -->
<g id="edge8" class="edge"><title>07&#45;&gt;030</title>
<path fill="none" stroke="#b43f3f" stroke-dasharray="1,5" d="M561.419,-95.6717C570.263,-89.5121 580.511,-81.8337 589,-74 597.544,-66.1154 606.076,-56.6186 613.26,-48.0293"/>
<polygon fill="#b43f3f" stroke="#b43f3f" points="616.077,-50.1135 619.692,-40.1545 610.656,-45.6853 616.077,-50.1135"/>
<text text-anchor="middle" x="625" y="-62.8" font-family="Times,serif" font-size="14.00">1 (95.1)</text>
</g>
<!-- 031 -->
<g id="node12" class="node"><title>031</title>
<ellipse fill="#ff8a8a" stroke="#b43f3f" cx="809" cy="-110" rx="36.2938" ry="18"/>
<text text-anchor="middle" x="809" y="-106.3" font-family="Times,serif" font-size="14.00">031 (a)</text>
</g>
<!-- 013 -->
<g id="node13" class="node"><title>013</title>
<ellipse fill="#ff8a8a" stroke="#b43f3f" cx="723" cy="-23" rx="36.2938" ry="18"/>
<text text-anchor="middle" x="723" y="-19.3" font-family="Times,serif" font-size="14.00">013 (a)</text>
</g>
<!-- 031&#45;&gt;013 -->
<g id="edge9" class="edge"><title>031&#45;&gt;013</title>
<path fill="none" stroke="#b43f3f" stroke-dasharray="1,5" d="M787.396,-95.2504C778.74,-89.2452 768.954,-81.7976 761,-74 753.175,-66.3291 745.638,-56.9752 739.368,-48.4419"/>
<polygon fill="#b43f3f" stroke="#b43f3f" points="742.206,-46.3937 733.557,-40.2749 736.503,-50.452 742.206,-46.3937"/>
<text text-anchor="middle" x="783" y="-62.8" font-family="Times,serif" font-size="14.00">1 (97.1)</text>
</g>
<!-- 01 -->
<g id="node14" class="node"><title>01</title>
<ellipse fill="#ff8a8a" stroke="#b43f3f" cx="809" cy="-23" rx="31.6951" ry="18"/>
<text text-anchor="middle" x="809" y="-19.3" font-family="Times,serif" font-size="14.00">01 (a)</text>
</g>
<!-- 031&#45;&gt;01 -->
<g id="edge10" class="edge"><title>031&#45;&gt;01</title>
<path fill="none" stroke="#b43f3f" stroke-dasharray="1,5" d="M809,-91.799C809,-80.1626 809,-64.5479 809,-51.2368"/>
<polygon fill="#b43f3f" stroke="#b43f3f" points="812.5,-51.1754 809,-41.1754 805.5,-51.1755 812.5,-51.1754"/>
<text text-anchor="middle" x="831" y="-62.8" font-family="Times,serif" font-size="14.00">2 (48.5)</text>
</g>
<!-- 017 -->
<g id="node15" class="node"><title>017</title>
<ellipse fill="#ff8a8a" stroke="#b43f3f" cx="895" cy="-23" rx="36.2938" ry="18"/>
<text text-anchor="middle" x="895" y="-19.3" font-family="Times,serif" font-size="14.00">017 (a)</text>
</g>
<!-- 031&#45;&gt;017 -->
<g id="edge11" class="edge"><title>031&#45;&gt;017</title>
<path fill="none" stroke="#b43f3f" stroke-dasharray="1,5" d="M830.604,-95.2504C839.26,-89.2452 849.046,-81.7976 857,-74 864.825,-66.3291 872.362,-56.9752 878.632,-48.4419"/>
<polygon fill="#b43f3f" stroke="#b43f3f" points="881.497,-50.452 884.443,-40.2749 875.794,-46.3937 881.497,-50.452"/>
<text text-anchor="middle" x="891" y="-62.8" font-family="Times,serif" font-size="14.00">1 (94.3)</text>
</g>
<!-- 045 -->
<g id="node16" class="node"><title>045</title>
<ellipse fill="#ff8a8a" stroke="#b43f3f" cx="986" cy="-110" rx="36.2938" ry="18"/>
<text text-anchor="middle" x="986" y="-106.3" font-family="Times,serif" font-size="14.00">045 (a)</text>
</g>
<!-- 038 -->
<g id="node17" class="node"><title>038</title>
<ellipse fill="#ff8a8a" stroke="#b43f3f" cx="986" cy="-23" rx="36.2938" ry="18"/>
<text text-anchor="middle" x="986" y="-19.3" font-family="Times,serif" font-size="14.00">038 (a)</text>
</g>
<!-- 045&#45;&gt;038 -->
<g id="edge12" class="edge"><title>045&#45;&gt;038</title>
<path fill="none" stroke="#b43f3f" stroke-dasharray="1,5" d="M986,-91.799C986,-80.1626 986,-64.5479 986,-51.2368"/>
<polygon fill="#b43f3f" stroke="#b43f3f" points="989.5,-51.1754 986,-41.1754 982.5,-51.1755 989.5,-51.1754"/>
<text text-anchor="middle" x="1008" y="-62.8" font-family="Times,serif" font-size="14.00">1 (92.7)</text>
</g>
<!-- 0211 -->
<g id="node18" class="node"><title>0211</title>
<ellipse fill="#cea8f4" stroke="#835da9" cx="1081" cy="-110" rx="40.8928" ry="18"/>
<text text-anchor="middle" x="1081" y="-106.3" font-family="Times,serif" font-size="14.00">0211 (b)</text>
</g>
<!-- 05 -->
<g id="node19" class="node"><title>05</title>
<ellipse fill="#cea8f4" stroke="#835da9" cx="1081" cy="-23" rx="32.4942" ry="18"/>
<text text-anchor="middle" x="1081" y="-19.3" font-family="Times,serif" font-size="14.00">05 (b)</text>
</g>
<!-- 0211&#45;&gt;05 -->
<g id="edge13" class="edge"><title>0211&#45;&gt;05</title>
<path fill="none" stroke="#835da9" stroke-dasharray="1,5" d="M1081,-91.799C1081,-80.1626 1081,-64.5479 1081,-51.2368"/>
<polygon fill="#835da9" stroke="#835da9" points="1084.5,-51.1754 1081,-41.1754 1077.5,-51.1755 1084.5,-51.1754"/>
<text text-anchor="middle" x="1106.5" y="-62.8" font-family="Times,serif" font-size="14.00">11 (67.6)</text>
</g>
<!-- 0141 -->
<g id="node20" class="node"><title>0141</title>
<ellipse fill="#ff8a8a" stroke="#b43f3f" cx="1180" cy="-110" rx="40.0939" ry="18"/>
<text text-anchor="middle" x="1180" y="-106.3" font-family="Times,serif" font-size="14.00">0141 (a)</text>
</g>
<!-- 011 -->
<g id="node21" class="node"><title>011</title>
<ellipse fill="#ff8a8a" stroke="#b43f3f" cx="1275" cy="-110" rx="36.2938" ry="18"/>
<text text-anchor="middle" x="1275" y="-106.3" font-family="Times,serif" font-size="14.00">011 (a)</text>
</g>
<!-- 028 -->
<g id="node22" class="node"><title>028</title>
<ellipse fill="#ff8a8a" stroke="#b43f3f" cx="1366" cy="-110" rx="36.2938" ry="18"/>
<text text-anchor="middle" x="1366" y="-106.3" font-family="Times,serif" font-size="14.00">028 (a)</text>
</g>
</g>
</svg>
