<?xml version="1.0" encoding="UTF-8" standalone="no"?>
<!DOCTYPE svg PUBLIC "-//W3C//DTD SVG 1.1//EN"
 "http://www.w3.org/Graphics/SVG/1.1/DTD/svg11.dtd">
<!-- Generated by graphviz version 2.38.0 (20140413.2041)
 -->
<!-- Title: G Pages: 1 -->
<svg width="1340pt" height="218pt"
 viewBox="0.00 0.00 1339.79 218.00" xmlns="http://www.w3.org/2000/svg" xmlns:xlink="http://www.w3.org/1999/xlink">
<g id="graph0" class="graph" transform="scale(1 1) rotate(0) translate(4 214)">
<title>G</title>
<polygon fill="white" stroke="none" points="-4,4 -4,-214 1335.79,-214 1335.79,4 -4,4"/>
<!-- 013 (a) -->
<g id="node1" class="node"><title>013 (a)</title>
<ellipse fill="#ff8a8a" stroke="#b43f3f" cx="681.397" cy="-18" rx="36.2938" ry="18"/>
<text text-anchor="middle" x="681.397" y="-14.3" font-family="Times,serif" font-size="14.00">013 (a)</text>
</g>
<!-- 017 (a) -->
<g id="node2" class="node"><title>017 (a)</title>
<ellipse fill="#ff8a8a" stroke="#b43f3f" cx="772.397" cy="-18" rx="36.2938" ry="18"/>
<text text-anchor="middle" x="772.397" y="-14.3" font-family="Times,serif" font-size="14.00">017 (a)</text>
</g>
<!-- 021 (a) -->
<g id="node3" class="node"><title>021 (a)</title>
<ellipse fill="#ff8a8a" stroke="#b43f3f" cx="127.397" cy="-105" rx="36.2938" ry="18"/>
<text text-anchor="middle" x="127.397" y="-101.3" font-family="Times,serif" font-size="14.00">021 (a)</text>
</g>
<!-- 036 (a) -->
<g id="node5" class="node"><title>036 (a)</title>
<ellipse fill="#ff8a8a" stroke="#b43f3f" cx="36.3968" cy="-18" rx="36.2938" ry="18"/>
<text text-anchor="middle" x="36.3968" y="-14.3" font-family="Times,serif" font-size="14.00">036 (a)</text>
</g>
<!-- 021 (a)&#45;&gt;036 (a) -->
<g id="edge1" class="edge"><title>021 (a)&#45;&gt;036 (a)</title>
<path fill="none" stroke="#b43f3f" d="M106.025,-90.006C97.4044,-83.9634 87.5824,-76.5539 79.3968,-69 70.8527,-61.1154 62.3211,-51.6186 55.1364,-43.0293"/>
<polygon fill="#b43f3f" stroke="#b43f3f" points="57.741,-40.6853 48.7043,-35.1545 52.3196,-45.1135 57.741,-40.6853"/>
<text text-anchor="middle" x="101.397" y="-57.8" font-family="Times,serif" font-size="14.00">1 (97.6)</text>
</g>
<!-- 047 (a) -->
<g id="node23" class="node"><title>047 (a)</title>
<ellipse fill="#ff8a8a" stroke="#b43f3f" cx="127.397" cy="-18" rx="36.2938" ry="18"/>
<text text-anchor="middle" x="127.397" y="-14.3" font-family="Times,serif" font-size="14.00">047 (a)</text>
</g>
<!-- 021 (a)&#45;&gt;047 (a) -->
<g id="edge2" class="edge"><title>021 (a)&#45;&gt;047 (a)</title>
<path fill="none" stroke="#b43f3f" d="M127.397,-86.799C127.397,-75.1626 127.397,-59.5479 127.397,-46.2368"/>
<polygon fill="#b43f3f" stroke="#b43f3f" points="130.897,-46.1754 127.397,-36.1754 123.897,-46.1755 130.897,-46.1754"/>
<text text-anchor="middle" x="149.397" y="-57.8" font-family="Times,serif" font-size="14.00">1 (95.1)</text>
</g>
<!-- 037 (a) -->
<g id="node4" class="node"><title>037 (a)</title>
<ellipse fill="#ff8a8a" stroke="#b43f3f" cx="218.397" cy="-18" rx="36.2938" ry="18"/>
<text text-anchor="middle" x="218.397" y="-14.3" font-family="Times,serif" font-size="14.00">037 (a)</text>
</g>
<!-- 07 (a) -->
<g id="node6" class="node"><title>07 (a)</title>
<ellipse fill="#ff8a8a" stroke="#b43f3f" cx="404.397" cy="-105" rx="31.6951" ry="18"/>
<text text-anchor="middle" x="404.397" y="-101.3" font-family="Times,serif" font-size="14.00">07 (a)</text>
</g>
<!-- 07 (a)&#45;&gt;037 (a) -->
<g id="edge6" class="edge"><title>07 (a)&#45;&gt;037 (a)</title>
<path fill="none" stroke="#b43f3f" d="M375.263,-97.2264C352.365,-91.3366 320.003,-81.7448 293.397,-69 276.45,-60.882 258.9,-49.3789 245.041,-39.4524"/>
<polygon fill="#b43f3f" stroke="#b43f3f" points="247.066,-36.597 236.928,-33.5199 242.934,-42.2476 247.066,-36.597"/>
<text text-anchor="middle" x="315.397" y="-57.8" font-family="Times,serif" font-size="14.00">1 (97.5)</text>
</g>
<!-- 034 (a) -->
<g id="node8" class="node"><title>034 (a)</title>
<ellipse fill="#ff8a8a" stroke="#b43f3f" cx="309.397" cy="-18" rx="36.2938" ry="18"/>
<text text-anchor="middle" x="309.397" y="-14.3" font-family="Times,serif" font-size="14.00">034 (a)</text>
</g>
<!-- 07 (a)&#45;&gt;034 (a) -->
<g id="edge4" class="edge"><title>07 (a)&#45;&gt;034 (a)</title>
<path fill="none" stroke="#b43f3f" d="M384.611,-90.8221C375.694,-84.5722 365.211,-76.7806 356.397,-69 347.233,-60.9115 337.866,-51.2757 329.93,-42.6319"/>
<polygon fill="#b43f3f" stroke="#b43f3f" points="332.386,-40.1295 323.091,-35.0454 327.187,-44.8165 332.386,-40.1295"/>
<text text-anchor="middle" x="378.397" y="-57.8" font-family="Times,serif" font-size="14.00">1 (95.1)</text>
</g>
<!-- 0211 (a) -->
<g id="node9" class="node"><title>0211 (a)</title>
<ellipse fill="#ff8a8a" stroke="#b43f3f" cx="404.397" cy="-18" rx="40.0939" ry="18"/>
<text text-anchor="middle" x="404.397" y="-14.3" font-family="Times,serif" font-size="14.00">0211 (a)</text>
</g>
<!-- 07 (a)&#45;&gt;0211 (a) -->
<g id="edge5" class="edge"><title>07 (a)&#45;&gt;0211 (a)</title>
<path fill="none" stroke="#b43f3f" d="M404.397,-86.799C404.397,-75.1626 404.397,-59.5479 404.397,-46.2368"/>
<polygon fill="#b43f3f" stroke="#b43f3f" points="407.897,-46.1754 404.397,-36.1754 400.897,-46.1755 407.897,-46.1754"/>
<text text-anchor="middle" x="426.397" y="-57.8" font-family="Times,serif" font-size="14.00">2 (82.9)</text>
</g>
<!-- 030 (a) -->
<g id="node17" class="node"><title>030 (a)</title>
<ellipse fill="#ff8a8a" stroke="#b43f3f" cx="499.397" cy="-18" rx="36.2938" ry="18"/>
<text text-anchor="middle" x="499.397" y="-14.3" font-family="Times,serif" font-size="14.00">030 (a)</text>
</g>
<!-- 07 (a)&#45;&gt;030 (a) -->
<g id="edge3" class="edge"><title>07 (a)&#45;&gt;030 (a)</title>
<path fill="none" stroke="#b43f3f" d="M424.182,-90.8221C433.1,-84.5722 443.582,-76.7806 452.397,-69 461.56,-60.9115 470.927,-51.2757 478.863,-42.6319"/>
<polygon fill="#b43f3f" stroke="#b43f3f" points="481.606,-44.8165 485.702,-35.0454 476.407,-40.1295 481.606,-44.8165"/>
<text text-anchor="middle" x="490.397" y="-57.8" font-family="Times,serif" font-size="14.00">1 (95.1)</text>
</g>
<!-- 022 (b) -->
<g id="node7" class="node"><title>022 (b)</title>
<ellipse fill="#cea8f4" stroke="#835da9" cx="944.397" cy="-18" rx="36.2938" ry="18"/>
<text text-anchor="middle" x="944.397" y="-14.3" font-family="Times,serif" font-size="14.00">022 (b)</text>
</g>
<!-- 01 (a) -->
<g id="node10" class="node"><title>01 (a)</title>
<ellipse fill="#ff8a8a" stroke="#b43f3f" cx="858.397" cy="-18" rx="31.6951" ry="18"/>
<text text-anchor="middle" x="858.397" y="-14.3" font-family="Times,serif" font-size="14.00">01 (a)</text>
</g>
<!-- 032 (b) -->
<g id="node11" class="node"><title>032 (b)</title>
<ellipse fill="#cea8f4" stroke="#835da9" cx="944.397" cy="-105" rx="36.2938" ry="18"/>
<text text-anchor="middle" x="944.397" y="-101.3" font-family="Times,serif" font-size="14.00">032 (b)</text>
</g>
<!-- 044 (b) -->
<g id="node12" class="node"><title>044 (b)</title>
<ellipse fill="#cea8f4" stroke="#835da9" cx="1035.4" cy="-105" rx="36.2938" ry="18"/>
<text text-anchor="middle" x="1035.4" y="-101.3" font-family="Times,serif" font-size="14.00">044 (b)</text>
</g>
<!-- 044 (b)&#45;&gt;022 (b) -->
<g id="edge8" class="edge"><title>044 (b)&#45;&gt;022 (b)</title>
<path fill="none" stroke="#835da9" d="M1014.03,-90.006C1005.4,-83.9634 995.582,-76.5539 987.397,-69 978.853,-61.1154 970.321,-51.6186 963.136,-43.0293"/>
<polygon fill="#835da9" stroke="#835da9" points="965.741,-40.6853 956.704,-35.1545 960.32,-45.1135 965.741,-40.6853"/>
<text text-anchor="middle" x="1009.4" y="-57.8" font-family="Times,serif" font-size="14.00">1 (91.7)</text>
</g>
<!-- 011 (b) -->
<g id="node13" class="node"><title>011 (b)</title>
<ellipse fill="#cea8f4" stroke="#835da9" cx="1035.4" cy="-18" rx="36.2938" ry="18"/>
<text text-anchor="middle" x="1035.4" y="-14.3" font-family="Times,serif" font-size="14.00">011 (b)</text>
</g>
<!-- 044 (b)&#45;&gt;011 (b) -->
<g id="edge7" class="edge"><title>044 (b)&#45;&gt;011 (b)</title>
<path fill="none" stroke="#835da9" d="M1035.4,-86.799C1035.4,-75.1626 1035.4,-59.5479 1035.4,-46.2368"/>
<polygon fill="#835da9" stroke="#835da9" points="1038.9,-46.1754 1035.4,-36.1754 1031.9,-46.1755 1038.9,-46.1754"/>
<text text-anchor="middle" x="1057.4" y="-57.8" font-family="Times,serif" font-size="14.00">2 (86.5)</text>
</g>
<!-- 0141 (b) -->
<g id="node24" class="node"><title>0141 (b)</title>
<ellipse fill="#cea8f4" stroke="#835da9" cx="1130.4" cy="-18" rx="40.8928" ry="18"/>
<text text-anchor="middle" x="1130.4" y="-14.3" font-family="Times,serif" font-size="14.00">0141 (b)</text>
</g>
<!-- 044 (b)&#45;&gt;0141 (b) -->
<g id="edge9" class="edge"><title>044 (b)&#45;&gt;0141 (b)</title>
<path fill="none" stroke="#835da9" d="M1056.13,-90.1586C1064.83,-84.0255 1074.89,-76.5076 1083.4,-69 1092.56,-60.9115 1101.93,-51.2757 1109.86,-42.6319"/>
<polygon fill="#835da9" stroke="#835da9" points="1112.61,-44.8165 1116.7,-35.0454 1107.41,-40.1295 1112.61,-44.8165"/>
<text text-anchor="middle" x="1121.4" y="-57.8" font-family="Times,serif" font-size="14.00">1 (89.2)</text>
</g>
<!-- 038 (a) -->
<g id="node14" class="node"><title>038 (a)</title>
<ellipse fill="#ff8a8a" stroke="#b43f3f" cx="590.397" cy="-18" rx="36.2938" ry="18"/>
<text text-anchor="middle" x="590.397" y="-14.3" font-family="Times,serif" font-size="14.00">038 (a)</text>
</g>
<!-- 05 (c) -->
<g id="node15" class="node"><title>05 (c)</title>
<ellipse fill="#72fe95" stroke="#27b34a" cx="1117.4" cy="-192" rx="31.6951" ry="18"/>
<text text-anchor="middle" x="1117.4" y="-188.3" font-family="Times,serif" font-size="14.00">05 (c)</text>
</g>
<!-- 063 (a) -->
<g id="node16" class="node"><title>063 (a)</title>
<ellipse fill="#ff8a8a" stroke="#b43f3f" cx="493.397" cy="-192" rx="36.2938" ry="18"/>
<text text-anchor="middle" x="493.397" y="-188.3" font-family="Times,serif" font-size="14.00">063 (a)</text>
</g>
<!-- 063 (a)&#45;&gt;021 (a) -->
<g id="edge13" class="edge"><title>063 (a)&#45;&gt;021 (a)</title>
<path fill="none" stroke="#b43f3f" d="M461.237,-183.531C395.014,-168.152 243.45,-132.952 169.514,-115.781"/>
<polygon fill="#b43f3f" stroke="#b43f3f" points="170.146,-112.335 159.614,-113.482 168.563,-119.154 170.146,-112.335"/>
<text text-anchor="middle" x="354.397" y="-144.8" font-family="Times,serif" font-size="14.00">1 (93.1)</text>
</g>
<!-- 063 (a)&#45;&gt;07 (a) -->
<g id="edge12" class="edge"><title>063 (a)&#45;&gt;07 (a)</title>
<path fill="none" stroke="#b43f3f" d="M471.936,-177.102C463.301,-171.074 453.493,-163.649 445.397,-156 437.196,-148.252 429.115,-138.882 422.324,-130.357"/>
<polygon fill="#b43f3f" stroke="#b43f3f" points="424.899,-127.965 416.006,-122.205 419.366,-132.253 424.899,-127.965"/>
<text text-anchor="middle" x="467.397" y="-144.8" font-family="Times,serif" font-size="14.00">1 (96.6)</text>
</g>
<!-- 028 (a) -->
<g id="node18" class="node"><title>028 (a)</title>
<ellipse fill="#ff8a8a" stroke="#b43f3f" cx="493.397" cy="-105" rx="36.2938" ry="18"/>
<text text-anchor="middle" x="493.397" y="-101.3" font-family="Times,serif" font-size="14.00">028 (a)</text>
</g>
<!-- 063 (a)&#45;&gt;028 (a) -->
<g id="edge11" class="edge"><title>063 (a)&#45;&gt;028 (a)</title>
<path fill="none" stroke="#b43f3f" d="M493.397,-173.799C493.397,-162.163 493.397,-146.548 493.397,-133.237"/>
<polygon fill="#b43f3f" stroke="#b43f3f" points="496.897,-133.175 493.397,-123.175 489.897,-133.175 496.897,-133.175"/>
<text text-anchor="middle" x="515.397" y="-144.8" font-family="Times,serif" font-size="14.00">1 (96.6)</text>
</g>
<!-- 045 (a) -->
<g id="node21" class="node"><title>045 (a)</title>
<ellipse fill="#ff8a8a" stroke="#b43f3f" cx="586.397" cy="-105" rx="36.2938" ry="18"/>
<text text-anchor="middle" x="586.397" y="-101.3" font-family="Times,serif" font-size="14.00">045 (a)</text>
</g>
<!-- 063 (a)&#45;&gt;045 (a) -->
<g id="edge10" class="edge"><title>063 (a)&#45;&gt;045 (a)</title>
<path fill="none" stroke="#b43f3f" d="M514.683,-176.913C523.291,-170.856 533.126,-163.461 541.397,-156 550.293,-147.974 559.286,-138.351 566.869,-129.7"/>
<polygon fill="#b43f3f" stroke="#b43f3f" points="569.535,-131.968 573.394,-122.101 564.224,-127.408 569.535,-131.968"/>
<text text-anchor="middle" x="578.397" y="-144.8" font-family="Times,serif" font-size="14.00">1 (93.1)</text>
</g>
<!-- 031 (a) -->
<g id="node26" class="node"><title>031 (a)</title>
<ellipse fill="#ff8a8a" stroke="#b43f3f" cx="726.397" cy="-105" rx="36.2938" ry="18"/>
<text text-anchor="middle" x="726.397" y="-101.3" font-family="Times,serif" font-size="14.00">031 (a)</text>
</g>
<!-- 063 (a)&#45;&gt;031 (a) -->
<g id="edge14" class="edge"><title>063 (a)&#45;&gt;031 (a)</title>
<path fill="none" stroke="#b43f3f" d="M524.252,-182.026C546.654,-175.327 577.606,-165.694 604.397,-156 633.72,-145.389 666.383,-131.912 690.527,-121.624"/>
<polygon fill="#b43f3f" stroke="#b43f3f" points="692.177,-124.725 699.991,-117.57 689.42,-118.291 692.177,-124.725"/>
<text text-anchor="middle" x="664.397" y="-144.8" font-family="Times,serif" font-size="14.00">1 (95.8)</text>
</g>
<!-- 02 (b) -->
<g id="node19" class="node"><title>02 (b)</title>
<ellipse fill="#cea8f4" stroke="#835da9" cx="1122.4" cy="-105" rx="32.4942" ry="18"/>
<text text-anchor="middle" x="1122.4" y="-101.3" font-family="Times,serif" font-size="14.00">02 (b)</text>
</g>
<!-- P75 (b) -->
<g id="node20" class="node"><title>P75 (b)</title>
<ellipse fill="#cea8f4" stroke="#835da9" cx="1204.4" cy="-192" rx="37.0935" ry="18"/>
<text text-anchor="middle" x="1204.4" y="-188.3" font-family="Times,serif" font-size="14.00">P75 (b)</text>
</g>
<!-- 045 (a)&#45;&gt;038 (a) -->
<g id="edge15" class="edge"><title>045 (a)&#45;&gt;038 (a)</title>
<path fill="none" stroke="#b43f3f" d="M587.206,-86.799C587.754,-75.1626 588.489,-59.5479 589.115,-46.2368"/>
<polygon fill="#b43f3f" stroke="#b43f3f" points="592.614,-46.3289 589.589,-36.1754 585.622,-45.9998 592.614,-46.3289"/>
<text text-anchor="middle" x="611.397" y="-57.8" font-family="Times,serif" font-size="14.00">1 (92.7)</text>
</g>
<!-- 019 (b) -->
<g id="node22" class="node"><title>019 (b)</title>
<ellipse fill="#cea8f4" stroke="#835da9" cx="1295.4" cy="-192" rx="36.2938" ry="18"/>
<text text-anchor="middle" x="1295.4" y="-188.3" font-family="Times,serif" font-size="14.00">019 (b)</text>
</g>
<!-- 03 (b) -->
<g id="node25" class="node"><title>03 (b)</title>
<ellipse fill="#cea8f4" stroke="#835da9" cx="1035.4" cy="-192" rx="32.4942" ry="18"/>
<text text-anchor="middle" x="1035.4" y="-188.3" font-family="Times,serif" font-size="14.00">03 (b)</text>
</g>
<!-- 03 (b)&#45;&gt;032 (b) -->
<g id="edge16" class="edge"><title>03 (b)&#45;&gt;032 (b)</title>
<path fill="none" stroke="#835da9" d="M1014.98,-177.672C1006.13,-171.512 995.886,-163.834 987.397,-156 978.853,-148.115 970.321,-138.619 963.136,-130.029"/>
<polygon fill="#835da9" stroke="#835da9" points="965.741,-127.685 956.704,-122.155 960.32,-132.113 965.741,-127.685"/>
<text text-anchor="middle" x="1009.4" y="-144.8" font-family="Times,serif" font-size="14.00">1 (91.7)</text>
</g>
<!-- 03 (b)&#45;&gt;044 (b) -->
<g id="edge18" class="edge"><title>03 (b)&#45;&gt;044 (b)</title>
<path fill="none" stroke="#835da9" d="M1035.4,-173.799C1035.4,-162.163 1035.4,-146.548 1035.4,-133.237"/>
<polygon fill="#835da9" stroke="#835da9" points="1038.9,-133.175 1035.4,-123.175 1031.9,-133.175 1038.9,-133.175"/>
<text text-anchor="middle" x="1057.4" y="-144.8" font-family="Times,serif" font-size="14.00">1 (89.2)</text>
</g>
<!-- 03 (b)&#45;&gt;02 (b) -->
<g id="edge17" class="edge"><title>03 (b)&#45;&gt;02 (b)</title>
<path fill="none" stroke="#835da9" d="M1056,-177.862C1064.87,-171.738 1075.1,-164.034 1083.4,-156 1091.35,-148.304 1099.06,-138.945 1105.51,-130.414"/>
<polygon fill="#835da9" stroke="#835da9" points="1108.4,-132.388 1111.49,-122.252 1102.75,-128.25 1108.4,-132.388"/>
<text text-anchor="middle" x="1118.4" y="-144.8" font-family="Times,serif" font-size="14.00">1 (86.5)</text>
</g>
<!-- 031 (a)&#45;&gt;013 (a) -->
<g id="edge19" class="edge"><title>031 (a)&#45;&gt;013 (a)</title>
<path fill="none" stroke="#b43f3f" d="M716.644,-87.3706C713.322,-81.5933 709.633,-75.047 706.397,-69 702.229,-61.2133 697.866,-52.6446 693.972,-44.8337"/>
<polygon fill="#b43f3f" stroke="#b43f3f" points="697.069,-43.1997 689.5,-35.7855 690.793,-46.3011 697.069,-43.1997"/>
<text text-anchor="middle" x="728.397" y="-57.8" font-family="Times,serif" font-size="14.00">1 (97.1)</text>
</g>
<!-- 031 (a)&#45;&gt;017 (a) -->
<g id="edge20" class="edge"><title>031 (a)&#45;&gt;017 (a)</title>
<path fill="none" stroke="#b43f3f" d="M738.526,-87.6704C742.546,-81.9172 746.886,-75.3093 750.397,-69 754.547,-61.5417 758.498,-53.1477 761.877,-45.3977"/>
<polygon fill="#b43f3f" stroke="#b43f3f" points="765.161,-46.6185 765.824,-36.0444 758.712,-43.8974 765.161,-46.6185"/>
<text text-anchor="middle" x="780.397" y="-57.8" font-family="Times,serif" font-size="14.00">1 (94.3)</text>
</g>
<!-- 031 (a)&#45;&gt;01 (a) -->
<g id="edge21" class="edge"><title>031 (a)&#45;&gt;01 (a)</title>
<path fill="none" stroke="#b43f3f" d="M755.805,-94.0107C771.509,-87.9827 790.767,-79.4446 806.397,-69 817.786,-61.3891 828.935,-51.1547 837.971,-41.9278"/>
<polygon fill="#b43f3f" stroke="#b43f3f" points="840.679,-44.1579 845.022,-34.4939 835.601,-39.3405 840.679,-44.1579"/>
<text text-anchor="middle" x="847.397" y="-57.8" font-family="Times,serif" font-size="14.00">2 (48.5)</text>
</g>
</g>
</svg>
