<?xml version="1.0" encoding="UTF-8" standalone="no"?>
<!DOCTYPE svg PUBLIC "-//W3C//DTD SVG 1.1//EN"
 "http://www.w3.org/Graphics/SVG/1.1/DTD/svg11.dtd">
<!-- Generated by graphviz version 2.38.0 (20140413.2041)
 -->
<!-- Title: G Pages: 1 -->
<svg width="822pt" height="392pt"
 viewBox="0.00 0.00 821.79 392.00" xmlns="http://www.w3.org/2000/svg" xmlns:xlink="http://www.w3.org/1999/xlink">
<g id="graph0" class="graph" transform="scale(1 1) rotate(0) translate(4 388)">
<title>G</title>
<polygon fill="white" stroke="none" points="-4,4 -4,-388 817.794,-388 817.794,4 -4,4"/>
<!-- 013 (a) -->
<g id="node1" class="node"><title>013 (a)</title>
<ellipse fill="#ff8a8a" stroke="#b43f3f" cx="322.397" cy="-18" rx="36.2938" ry="18"/>
<text text-anchor="middle" x="322.397" y="-14.3" font-family="Times,serif" font-size="14.00">013 (a)</text>
</g>
<!-- 017 (a) -->
<g id="node2" class="node"><title>017 (a)</title>
<ellipse fill="#ff8a8a" stroke="#b43f3f" cx="413.397" cy="-18" rx="36.2938" ry="18"/>
<text text-anchor="middle" x="413.397" y="-14.3" font-family="Times,serif" font-size="14.00">017 (a)</text>
</g>
<!-- 032 (a) -->
<g id="node3" class="node"><title>032 (a)</title>
<ellipse fill="#ff8a8a" stroke="#b43f3f" cx="36.3968" cy="-192" rx="36.2938" ry="18"/>
<text text-anchor="middle" x="36.3968" y="-188.3" font-family="Times,serif" font-size="14.00">032 (a)</text>
</g>
<!-- 021 (a) -->
<g id="node4" class="node"><title>021 (a)</title>
<ellipse fill="#ff8a8a" stroke="#b43f3f" cx="303.397" cy="-105" rx="36.2938" ry="18"/>
<text text-anchor="middle" x="303.397" y="-101.3" font-family="Times,serif" font-size="14.00">021 (a)</text>
</g>
<!-- 036 (a) -->
<g id="node8" class="node"><title>036 (a)</title>
<ellipse fill="#ff8a8a" stroke="#b43f3f" cx="140.397" cy="-18" rx="36.2938" ry="18"/>
<text text-anchor="middle" x="140.397" y="-14.3" font-family="Times,serif" font-size="14.00">036 (a)</text>
</g>
<!-- 021 (a)&#45;&gt;036 (a) -->
<g id="edge1" class="edge"><title>021 (a)&#45;&gt;036 (a)</title>
<path fill="none" stroke="#b43f3f" d="M275.262,-93.3335C269.379,-91.179 263.201,-88.9717 257.397,-87 231.84,-78.3188 223.058,-81.9866 199.397,-69 186.266,-61.7928 173.374,-51.3716 163.008,-41.9064"/>
<polygon fill="#b43f3f" stroke="#b43f3f" points="165.285,-39.2428 155.61,-34.9237 160.48,-44.3332 165.285,-39.2428"/>
<text text-anchor="middle" x="221.397" y="-57.8" font-family="Times,serif" font-size="14.00">1 (97.6)</text>
</g>
<!-- 047 (a) -->
<g id="node25" class="node"><title>047 (a)</title>
<ellipse fill="#ff8a8a" stroke="#b43f3f" cx="231.397" cy="-18" rx="36.2938" ry="18"/>
<text text-anchor="middle" x="231.397" y="-14.3" font-family="Times,serif" font-size="14.00">047 (a)</text>
</g>
<!-- 021 (a)&#45;&gt;047 (a) -->
<g id="edge2" class="edge"><title>021 (a)&#45;&gt;047 (a)</title>
<path fill="none" stroke="#b43f3f" d="M281.029,-90.5482C272.569,-84.6894 263.321,-77.2677 256.397,-69 250.485,-61.9408 245.521,-53.2465 241.615,-45.0987"/>
<polygon fill="#b43f3f" stroke="#b43f3f" points="244.79,-43.6243 237.522,-35.9156 238.396,-46.4743 244.79,-43.6243"/>
<text text-anchor="middle" x="278.397" y="-57.8" font-family="Times,serif" font-size="14.00">1 (95.1)</text>
</g>
<!-- 037 (a) -->
<g id="node5" class="node"><title>037 (a)</title>
<ellipse fill="#ff8a8a" stroke="#b43f3f" cx="504.397" cy="-18" rx="36.2938" ry="18"/>
<text text-anchor="middle" x="504.397" y="-14.3" font-family="Times,serif" font-size="14.00">037 (a)</text>
</g>
<!-- 05 (a) -->
<g id="node6" class="node"><title>05 (a)</title>
<ellipse fill="#ff8a8a" stroke="#b43f3f" cx="582.397" cy="-192" rx="31.6951" ry="18"/>
<text text-anchor="middle" x="582.397" y="-188.3" font-family="Times,serif" font-size="14.00">05 (a)</text>
</g>
<!-- 02 (a) -->
<g id="node7" class="node"><title>02 (a)</title>
<ellipse fill="#ff8a8a" stroke="#b43f3f" cx="122.397" cy="-192" rx="31.6951" ry="18"/>
<text text-anchor="middle" x="122.397" y="-188.3" font-family="Times,serif" font-size="14.00">02 (a)</text>
</g>
<!-- 07 (a) -->
<g id="node9" class="node"><title>07 (a)</title>
<ellipse fill="#ff8a8a" stroke="#b43f3f" cx="437.397" cy="-105" rx="31.6951" ry="18"/>
<text text-anchor="middle" x="437.397" y="-101.3" font-family="Times,serif" font-size="14.00">07 (a)</text>
</g>
<!-- 07 (a)&#45;&gt;013 (a) -->
<g id="edge3" class="edge"><title>07 (a)&#45;&gt;013 (a)</title>
<path fill="none" stroke="#b43f3f" d="M414.328,-92.3664C402.579,-86.0484 388.3,-77.7507 376.397,-69 365.459,-60.9592 354.299,-50.98 344.985,-42.0565"/>
<polygon fill="#b43f3f" stroke="#b43f3f" points="347.237,-39.3639 337.64,-34.8749 342.343,-44.3688 347.237,-39.3639"/>
<text text-anchor="middle" x="398.397" y="-57.8" font-family="Times,serif" font-size="14.00">2 (95.1)</text>
</g>
<!-- 07 (a)&#45;&gt;017 (a) -->
<g id="edge4" class="edge"><title>07 (a)&#45;&gt;017 (a)</title>
<path fill="none" stroke="#b43f3f" d="M432.54,-86.799C429.2,-74.9701 424.699,-59.0301 420.901,-45.578"/>
<polygon fill="#b43f3f" stroke="#b43f3f" points="424.25,-44.558 418.164,-35.8854 417.513,-46.4602 424.25,-44.558"/>
<text text-anchor="middle" x="449.397" y="-57.8" font-family="Times,serif" font-size="14.00">2 (92.7)</text>
</g>
<!-- 07 (a)&#45;&gt;037 (a) -->
<g id="edge5" class="edge"><title>07 (a)&#45;&gt;037 (a)</title>
<path fill="none" stroke="#b43f3f" d="M455.12,-89.6713C461.911,-83.6917 469.448,-76.4163 475.397,-69 481.264,-61.6858 486.711,-53.0499 491.264,-45.0316"/>
<polygon fill="#b43f3f" stroke="#b43f3f" points="494.463,-46.4751 496.169,-36.0185 488.314,-43.1291 494.463,-46.4751"/>
<text text-anchor="middle" x="508.397" y="-57.8" font-family="Times,serif" font-size="14.00">1 (97.5)</text>
</g>
<!-- 034 (a) -->
<g id="node20" class="node"><title>034 (a)</title>
<ellipse fill="#ff8a8a" stroke="#b43f3f" cx="595.397" cy="-18" rx="36.2938" ry="18"/>
<text text-anchor="middle" x="595.397" y="-14.3" font-family="Times,serif" font-size="14.00">034 (a)</text>
</g>
<!-- 07 (a)&#45;&gt;034 (a) -->
<g id="edge7" class="edge"><title>07 (a)&#45;&gt;034 (a)</title>
<path fill="none" stroke="#b43f3f" d="M461.984,-93.4214C467.36,-91.2161 473.044,-88.9661 478.397,-87 502.937,-77.9858 511.439,-81.5063 534.397,-69 548.137,-61.5149 561.764,-50.7503 572.642,-41.1251"/>
<polygon fill="#b43f3f" stroke="#b43f3f" points="575.007,-43.7049 580.039,-34.381 570.291,-38.5321 575.007,-43.7049"/>
<text text-anchor="middle" x="578.397" y="-57.8" font-family="Times,serif" font-size="14.00">1 (95.1)</text>
</g>
<!-- 030 (a) -->
<g id="node21" class="node"><title>030 (a)</title>
<ellipse fill="#ff8a8a" stroke="#b43f3f" cx="686.397" cy="-18" rx="36.2938" ry="18"/>
<text text-anchor="middle" x="686.397" y="-14.3" font-family="Times,serif" font-size="14.00">030 (a)</text>
</g>
<!-- 07 (a)&#45;&gt;030 (a) -->
<g id="edge6" class="edge"><title>07 (a)&#45;&gt;030 (a)</title>
<path fill="none" stroke="#b43f3f" d="M461.325,-92.9009C466.841,-90.6749 472.749,-88.5478 478.397,-87 532.954,-72.049 551.156,-88.1169 604.397,-69 623.943,-61.9816 643.88,-49.9565 659.201,-39.4581"/>
<polygon fill="#b43f3f" stroke="#b43f3f" points="661.493,-42.1246 667.651,-33.5026 657.461,-36.403 661.493,-42.1246"/>
<text text-anchor="middle" x="657.397" y="-57.8" font-family="Times,serif" font-size="14.00">1 (95.1)</text>
</g>
<!-- 038 (a) -->
<g id="node10" class="node"><title>038 (a)</title>
<ellipse fill="#ff8a8a" stroke="#b43f3f" cx="777.397" cy="-18" rx="36.2938" ry="18"/>
<text text-anchor="middle" x="777.397" y="-14.3" font-family="Times,serif" font-size="14.00">038 (a)</text>
</g>
<!-- 03 (a) -->
<g id="node11" class="node"><title>03 (a)</title>
<ellipse fill="#ff8a8a" stroke="#b43f3f" cx="155.397" cy="-279" rx="31.6951" ry="18"/>
<text text-anchor="middle" x="155.397" y="-275.3" font-family="Times,serif" font-size="14.00">03 (a)</text>
</g>
<!-- 03 (a)&#45;&gt;032 (a) -->
<g id="edge9" class="edge"><title>03 (a)&#45;&gt;032 (a)</title>
<path fill="none" stroke="#b43f3f" d="M128.937,-268.77C113.867,-262.776 95.1173,-254.026 80.3968,-243 70.7603,-235.782 61.6837,-226.164 54.3057,-217.292"/>
<polygon fill="#b43f3f" stroke="#b43f3f" points="57.0148,-215.076 48.0402,-209.445 51.5445,-219.443 57.0148,-215.076"/>
<text text-anchor="middle" x="102.397" y="-231.8" font-family="Times,serif" font-size="14.00">1 (91.7)</text>
</g>
<!-- 03 (a)&#45;&gt;02 (a) -->
<g id="edge10" class="edge"><title>03 (a)&#45;&gt;02 (a)</title>
<path fill="none" stroke="#b43f3f" d="M143.258,-262.343C139.27,-256.539 135.157,-249.727 132.397,-243 129.439,-235.793 127.334,-227.633 125.843,-220.026"/>
<polygon fill="#b43f3f" stroke="#b43f3f" points="129.29,-219.414 124.171,-210.138 122.388,-220.582 129.29,-219.414"/>
<text text-anchor="middle" x="154.397" y="-231.8" font-family="Times,serif" font-size="14.00">1 (86.5)</text>
</g>
<!-- 044 (a) -->
<g id="node26" class="node"><title>044 (a)</title>
<ellipse fill="#ff8a8a" stroke="#b43f3f" cx="208.397" cy="-192" rx="36.2938" ry="18"/>
<text text-anchor="middle" x="208.397" y="-188.3" font-family="Times,serif" font-size="14.00">044 (a)</text>
</g>
<!-- 03 (a)&#45;&gt;044 (a) -->
<g id="edge8" class="edge"><title>03 (a)&#45;&gt;044 (a)</title>
<path fill="none" stroke="#b43f3f" d="M165.616,-261.611C173.314,-249.264 184.006,-232.117 192.775,-218.053"/>
<polygon fill="#b43f3f" stroke="#b43f3f" points="195.888,-219.676 198.209,-209.339 189.948,-215.972 195.888,-219.676"/>
<text text-anchor="middle" x="207.397" y="-231.8" font-family="Times,serif" font-size="14.00">1 (89.2)</text>
</g>
<!-- P75 (a) -->
<g id="node12" class="node"><title>P75 (a)</title>
<ellipse fill="#ff8a8a" stroke="#b43f3f" cx="330.397" cy="-279" rx="36.2938" ry="18"/>
<text text-anchor="middle" x="330.397" y="-275.3" font-family="Times,serif" font-size="14.00">P75 (a)</text>
</g>
<!-- 022 (b) -->
<g id="node13" class="node"><title>022 (b)</title>
<ellipse fill="#cea8f4" stroke="#835da9" cx="113.397" cy="-105" rx="36.2938" ry="18"/>
<text text-anchor="middle" x="113.397" y="-101.3" font-family="Times,serif" font-size="14.00">022 (b)</text>
</g>
<!-- A (a) -->
<g id="node14" class="node"><title>A (a)</title>
<ellipse fill="#ff8a8a" stroke="#b43f3f" cx="421.397" cy="-366" rx="29.4969" ry="18"/>
<text text-anchor="middle" x="421.397" y="-362.3" font-family="Times,serif" font-size="14.00">A (a)</text>
</g>
<!-- A (a)&#45;&gt;03 (a) -->
<g id="edge11" class="edge"><title>A (a)&#45;&gt;03 (a)</title>
<path fill="none" stroke="#b43f3f" d="M395.892,-356.85C348.517,-341.711 246.793,-309.205 192.053,-291.714"/>
<polygon fill="#b43f3f" stroke="#b43f3f" points="192.994,-288.34 182.403,-288.63 190.863,-295.008 192.994,-288.34"/>
<text text-anchor="middle" x="326.397" y="-318.8" font-family="Times,serif" font-size="14.00">1 (93.3)</text>
</g>
<!-- A (a)&#45;&gt;P75 (a) -->
<g id="edge13" class="edge"><title>A (a)&#45;&gt;P75 (a)</title>
<path fill="none" stroke="#b43f3f" d="M401.92,-352.326C392.869,-346.06 382.189,-338.113 373.397,-330 364.853,-322.115 356.321,-312.619 349.136,-304.029"/>
<polygon fill="#b43f3f" stroke="#b43f3f" points="351.741,-301.685 342.704,-296.155 346.32,-306.113 351.741,-301.685"/>
<text text-anchor="middle" x="395.397" y="-318.8" font-family="Times,serif" font-size="14.00">1 (93.3)</text>
</g>
<!-- 019 (a) -->
<g id="node15" class="node"><title>019 (a)</title>
<ellipse fill="#ff8a8a" stroke="#b43f3f" cx="421.397" cy="-279" rx="36.2938" ry="18"/>
<text text-anchor="middle" x="421.397" y="-275.3" font-family="Times,serif" font-size="14.00">019 (a)</text>
</g>
<!-- A (a)&#45;&gt;019 (a) -->
<g id="edge14" class="edge"><title>A (a)&#45;&gt;019 (a)</title>
<path fill="none" stroke="#b43f3f" d="M421.397,-347.799C421.397,-336.163 421.397,-320.548 421.397,-307.237"/>
<polygon fill="#b43f3f" stroke="#b43f3f" points="424.897,-307.175 421.397,-297.175 417.897,-307.175 424.897,-307.175"/>
<text text-anchor="middle" x="443.397" y="-318.8" font-family="Times,serif" font-size="14.00">1 (93.3)</text>
</g>
<!-- 01 (a) -->
<g id="node18" class="node"><title>01 (a)</title>
<ellipse fill="#ff8a8a" stroke="#b43f3f" cx="507.397" cy="-279" rx="31.6951" ry="18"/>
<text text-anchor="middle" x="507.397" y="-275.3" font-family="Times,serif" font-size="14.00">01 (a)</text>
</g>
<!-- A (a)&#45;&gt;01 (a) -->
<g id="edge12" class="edge"><title>A (a)&#45;&gt;01 (a)</title>
<path fill="none" stroke="#b43f3f" d="M441.097,-352.561C450.197,-346.347 460.854,-338.375 469.397,-330 477.221,-322.329 484.759,-312.975 491.029,-304.442"/>
<polygon fill="#b43f3f" stroke="#b43f3f" points="493.894,-306.452 496.84,-296.275 488.191,-302.394 493.894,-306.452"/>
<text text-anchor="middle" x="504.397" y="-318.8" font-family="Times,serif" font-size="14.00">1 (57.1)</text>
</g>
<!-- 091 (a) -->
<g id="node23" class="node"><title>091 (a)</title>
<ellipse fill="#ff8a8a" stroke="#b43f3f" cx="593.397" cy="-279" rx="36.2938" ry="18"/>
<text text-anchor="middle" x="593.397" y="-275.3" font-family="Times,serif" font-size="14.00">091 (a)</text>
</g>
<!-- A (a)&#45;&gt;091 (a) -->
<g id="edge15" class="edge"><title>A (a)&#45;&gt;091 (a)</title>
<path fill="none" stroke="#b43f3f" d="M448.916,-359.083C471.638,-353.524 504.278,-343.958 530.397,-330 544.469,-322.48 558.53,-311.712 569.787,-302.093"/>
<polygon fill="#b43f3f" stroke="#b43f3f" points="572.25,-304.588 577.448,-295.355 567.627,-299.331 572.25,-304.588"/>
<text text-anchor="middle" x="575.397" y="-318.8" font-family="Times,serif" font-size="14.00">1 (87.5)</text>
</g>
<!-- 063 (a) -->
<g id="node27" class="node"><title>063 (a)</title>
<ellipse fill="#ff8a8a" stroke="#b43f3f" cx="485.397" cy="-192" rx="36.2938" ry="18"/>
<text text-anchor="middle" x="485.397" y="-188.3" font-family="Times,serif" font-size="14.00">063 (a)</text>
</g>
<!-- 019 (a)&#45;&gt;063 (a) -->
<g id="edge16" class="edge"><title>019 (a)&#45;&gt;063 (a)</title>
<path fill="none" stroke="#b43f3f" d="M433.435,-262.012C442.939,-249.389 456.355,-231.571 467.174,-217.202"/>
<polygon fill="#b43f3f" stroke="#b43f3f" points="469.976,-219.299 473.195,-209.205 464.384,-215.089 469.976,-219.299"/>
<text text-anchor="middle" x="479.397" y="-231.8" font-family="Times,serif" font-size="14.00">1 (85.7)</text>
</g>
<!-- 0141 (a) -->
<g id="node16" class="node"><title>0141 (a)</title>
<ellipse fill="#ff8a8a" stroke="#b43f3f" cx="208.397" cy="-105" rx="40.0939" ry="18"/>
<text text-anchor="middle" x="208.397" y="-101.3" font-family="Times,serif" font-size="14.00">0141 (a)</text>
</g>
<!-- 0211 (a) -->
<g id="node17" class="node"><title>0211 (a)</title>
<ellipse fill="#ff8a8a" stroke="#b43f3f" cx="672.397" cy="-192" rx="40.0939" ry="18"/>
<text text-anchor="middle" x="672.397" y="-188.3" font-family="Times,serif" font-size="14.00">0211 (a)</text>
</g>
<!-- 011 (a) -->
<g id="node19" class="node"><title>011 (a)</title>
<ellipse fill="#ff8a8a" stroke="#b43f3f" cx="523.397" cy="-105" rx="36.2938" ry="18"/>
<text text-anchor="middle" x="523.397" y="-101.3" font-family="Times,serif" font-size="14.00">011 (a)</text>
</g>
<!-- 028 (a) -->
<g id="node22" class="node"><title>028 (a)</title>
<ellipse fill="#ff8a8a" stroke="#b43f3f" cx="614.397" cy="-105" rx="36.2938" ry="18"/>
<text text-anchor="middle" x="614.397" y="-101.3" font-family="Times,serif" font-size="14.00">028 (a)</text>
</g>
<!-- 091 (a)&#45;&gt;05 (a) -->
<g id="edge18" class="edge"><title>091 (a)&#45;&gt;05 (a)</title>
<path fill="none" stroke="#b43f3f" d="M591.171,-260.799C589.665,-249.163 587.644,-233.548 585.922,-220.237"/>
<polygon fill="#b43f3f" stroke="#b43f3f" points="589.374,-219.644 584.619,-210.175 582.432,-220.542 589.374,-219.644"/>
<text text-anchor="middle" x="611.397" y="-231.8" font-family="Times,serif" font-size="14.00">1 (87.5)</text>
</g>
<!-- 091 (a)&#45;&gt;0211 (a) -->
<g id="edge17" class="edge"><title>091 (a)&#45;&gt;0211 (a)</title>
<path fill="none" stroke="#b43f3f" d="M613.712,-263.795C621.546,-257.833 630.308,-250.537 637.397,-243 644.434,-235.518 651.16,-226.533 656.802,-218.256"/>
<polygon fill="#b43f3f" stroke="#b43f3f" points="659.887,-219.935 662.462,-209.657 654.04,-216.086 659.887,-219.935"/>
<text text-anchor="middle" x="671.397" y="-231.8" font-family="Times,serif" font-size="14.00">1 (83.3)</text>
</g>
<!-- 045 (a) -->
<g id="node24" class="node"><title>045 (a)</title>
<ellipse fill="#ff8a8a" stroke="#b43f3f" cx="753.397" cy="-105" rx="36.2938" ry="18"/>
<text text-anchor="middle" x="753.397" y="-101.3" font-family="Times,serif" font-size="14.00">045 (a)</text>
</g>
<!-- 045 (a)&#45;&gt;038 (a) -->
<g id="edge19" class="edge"><title>045 (a)&#45;&gt;038 (a)</title>
<path fill="none" stroke="#b43f3f" d="M758.254,-86.799C761.593,-74.9701 766.094,-59.0301 769.892,-45.578"/>
<polygon fill="#b43f3f" stroke="#b43f3f" points="773.28,-46.4602 772.629,-35.8854 766.543,-44.558 773.28,-46.4602"/>
<text text-anchor="middle" x="788.397" y="-57.8" font-family="Times,serif" font-size="14.00">1 (92.7)</text>
</g>
<!-- 044 (a)&#45;&gt;022 (b) -->
<g id="edge21" class="edge"><title>044 (a)&#45;&gt;022 (b)</title>
<path fill="none" stroke="#835da9" d="M187.667,-177.159C178.96,-171.025 168.902,-163.508 160.397,-156 151.233,-147.911 141.866,-138.276 133.93,-129.632"/>
<polygon fill="#835da9" stroke="#835da9" points="136.386,-127.129 127.091,-122.045 131.187,-131.816 136.386,-127.129"/>
<text text-anchor="middle" x="182.397" y="-144.8" font-family="Times,serif" font-size="14.00">1 (91.7)</text>
</g>
<!-- 044 (a)&#45;&gt;0141 (a) -->
<g id="edge20" class="edge"><title>044 (a)&#45;&gt;0141 (a)</title>
<path fill="none" stroke="#b43f3f" d="M208.397,-173.799C208.397,-162.163 208.397,-146.548 208.397,-133.237"/>
<polygon fill="#b43f3f" stroke="#b43f3f" points="211.897,-133.175 208.397,-123.175 204.897,-133.175 211.897,-133.175"/>
<text text-anchor="middle" x="230.397" y="-144.8" font-family="Times,serif" font-size="14.00">1 (89.2)</text>
</g>
<!-- 063 (a)&#45;&gt;021 (a) -->
<g id="edge26" class="edge"><title>063 (a)&#45;&gt;021 (a)</title>
<path fill="none" stroke="#b43f3f" d="M457.577,-180.24C440.851,-173.6 419.226,-164.71 400.397,-156 378.626,-145.929 354.664,-133.59 336.002,-123.689"/>
<polygon fill="#b43f3f" stroke="#b43f3f" points="337.504,-120.523 327.034,-118.903 334.208,-126.699 337.504,-120.523"/>
<text text-anchor="middle" x="422.397" y="-144.8" font-family="Times,serif" font-size="14.00">1 (93.1)</text>
</g>
<!-- 063 (a)&#45;&gt;07 (a) -->
<g id="edge25" class="edge"><title>063 (a)&#45;&gt;07 (a)</title>
<path fill="none" stroke="#b43f3f" d="M469.434,-175.668C464.097,-169.895 458.474,-163.019 454.397,-156 450.234,-148.834 446.891,-140.495 444.308,-132.705"/>
<polygon fill="#b43f3f" stroke="#b43f3f" points="447.595,-131.48 441.346,-122.924 440.895,-133.509 447.595,-131.48"/>
<text text-anchor="middle" x="476.397" y="-144.8" font-family="Times,serif" font-size="14.00">1 (96.6)</text>
</g>
<!-- 063 (a)&#45;&gt;011 (a) -->
<g id="edge24" class="edge"><title>063 (a)&#45;&gt;011 (a)</title>
<path fill="none" stroke="#b43f3f" d="M492.904,-174.207C498.265,-162.216 505.581,-145.851 511.703,-132.157"/>
<polygon fill="#b43f3f" stroke="#b43f3f" points="515.019,-133.316 515.905,-122.758 508.628,-130.459 515.019,-133.316"/>
<text text-anchor="middle" x="529.397" y="-144.8" font-family="Times,serif" font-size="14.00">1 (93.1)</text>
</g>
<!-- 063 (a)&#45;&gt;028 (a) -->
<g id="edge23" class="edge"><title>063 (a)&#45;&gt;028 (a)</title>
<path fill="none" stroke="#b43f3f" d="M512.152,-179.465C525.557,-173.232 541.788,-164.981 555.397,-156 567.72,-147.867 580.343,-137.495 590.734,-128.309"/>
<polygon fill="#b43f3f" stroke="#b43f3f" points="593.122,-130.868 598.204,-121.571 588.434,-125.67 593.122,-130.868"/>
<text text-anchor="middle" x="596.397" y="-144.8" font-family="Times,serif" font-size="14.00">1 (96.6)</text>
</g>
<!-- 063 (a)&#45;&gt;045 (a) -->
<g id="edge22" class="edge"><title>063 (a)&#45;&gt;045 (a)</title>
<path fill="none" stroke="#b43f3f" d="M515.212,-181.49C523.641,-178.927 532.847,-176.244 541.397,-174 577.067,-164.637 587.076,-166.603 622.397,-156 655.062,-146.194 691.209,-132.146 717.243,-121.435"/>
<polygon fill="#b43f3f" stroke="#b43f3f" points="718.805,-124.577 726.698,-117.51 716.12,-118.112 718.805,-124.577"/>
<text text-anchor="middle" x="688.397" y="-144.8" font-family="Times,serif" font-size="14.00">1 (93.1)</text>
</g>
</g>
</svg>
