<?xml version="1.0" encoding="UTF-8" standalone="no"?>
<!DOCTYPE svg PUBLIC "-//W3C//DTD SVG 1.1//EN"
 "http://www.w3.org/Graphics/SVG/1.1/DTD/svg11.dtd">
<!-- Generated by graphviz version 2.38.0 (20140413.2041)
 -->
<!-- Title: %3 Pages: 1 -->
<svg width="1152pt" height="337pt"
 viewBox="0.00 0.00 1152.00 337.00" xmlns="http://www.w3.org/2000/svg" xmlns:xlink="http://www.w3.org/1999/xlink">
<g id="graph0" class="graph" transform="scale(1 1) rotate(0) translate(4 333)">
<title>%3</title>
<polygon fill="white" stroke="none" points="-4,4 -4,-333 1148,-333 1148,4 -4,4"/>
<g id="clust1" class="cluster"><title>cluster_legend</title>
<path fill="none" stroke="black" d="M20,-193C20,-193 210,-193 210,-193 216,-193 222,-199 222,-205 222,-205 222,-309 222,-309 222,-315 216,-321 210,-321 210,-321 20,-321 20,-321 14,-321 8,-315 8,-309 8,-309 8,-205 8,-205 8,-199 14,-193 20,-193"/>
</g>
<g id="clust2" class="cluster"><title>cluster_reading</title>
<polygon fill="none" stroke="black" points="230,-8 230,-321 1136,-321 1136,-8 230,-8"/>
</g>
<!-- leg_s -->
<g id="node1" class="node"><title>leg_s</title>
<text text-anchor="middle" x="115" y="-291.3" font-family="Times,serif" font-size="14.00">Textual flow strength</text>
</g>
<!-- leg_e1 -->
<!-- leg_s&#45;&gt;leg_e1 -->
<g id="edge1" class="edge"><title>leg_s&#45;&gt;leg_e1</title>
<path fill="none" stroke="black" stroke-dasharray="1,5" d="M96.6657,-276.686C91.1324,-271.194 85.1607,-264.989 80,-259 70.1708,-247.593 60.0722,-233.779 52.9137,-223.563"/>
<polygon fill="black" stroke="black" points="55.6142,-221.314 47.056,-215.068 49.8514,-225.288 55.6142,-221.314"/>
<text text-anchor="middle" x="95.5" y="-247.8" font-family="Times,serif" font-size="14.00">&lt;=5 &#160;</text>
</g>
<!-- leg_e2 -->
<!-- leg_s&#45;&gt;leg_e2 -->
<g id="edge2" class="edge"><title>leg_s&#45;&gt;leg_e2</title>
<path fill="none" stroke="black" stroke-dasharray="5,2" d="M115,-276.799C115,-261.794 115,-240.174 115,-225.409"/>
<polygon fill="black" stroke="black" points="118.5,-225.293 115,-215.293 111.5,-225.293 118.5,-225.293"/>
<text text-anchor="middle" x="134" y="-247.8" font-family="Times,serif" font-size="14.00"> &#160;&lt;=25</text>
</g>
<!-- leg_e3 -->
<!-- leg_s&#45;&gt;leg_e3 -->
<g id="edge3" class="edge"><title>leg_s&#45;&gt;leg_e3</title>
<path fill="none" stroke="black" d="M138.503,-276.76C144.906,-271.462 151.567,-265.344 157,-259 166.087,-248.39 174.095,-234.689 179.546,-224.313"/>
<polygon fill="black" stroke="black" points="182.722,-225.789 184.091,-215.283 176.469,-222.642 182.722,-225.789"/>
<text text-anchor="middle" x="179" y="-247.8" font-family="Times,serif" font-size="14.00">&gt;25</text>
</g>
<!-- 031 -->
<g id="node5" class="node"><title>031</title>
<ellipse fill="#ff8a8a" stroke="#b43f3f" cx="395" cy="-121" rx="36.2938" ry="18"/>
<text text-anchor="middle" x="395" y="-117.3" font-family="Times,serif" font-size="14.00">031 (a)</text>
</g>
<!-- 01 -->
<g id="node6" class="node"><title>01</title>
<ellipse fill="#ff8a8a" stroke="#b43f3f" cx="270" cy="-34" rx="31.6951" ry="18"/>
<text text-anchor="middle" x="270" y="-30.3" font-family="Times,serif" font-size="14.00">01 (a)</text>
</g>
<!-- 031&#45;&gt;01 -->
<g id="edge4" class="edge"><title>031&#45;&gt;01</title>
<path fill="none" stroke="#b43f3f" stroke-dasharray="1,5" d="M365.329,-110.181C349.818,-104.251 330.995,-95.7515 316,-85 305.872,-77.7381 296.268,-67.9536 288.482,-58.9657"/>
<polygon fill="#b43f3f" stroke="#b43f3f" points="290.965,-56.4785 281.878,-51.0307 285.585,-60.9561 290.965,-56.4785"/>
<text text-anchor="middle" x="338" y="-73.8" font-family="Times,serif" font-size="14.00">2 (48.5)</text>
</g>
<!-- 013 -->
<g id="node7" class="node"><title>013</title>
<ellipse fill="#ff8a8a" stroke="#b43f3f" cx="356" cy="-34" rx="36.2938" ry="18"/>
<text text-anchor="middle" x="356" y="-30.3" font-family="Times,serif" font-size="14.00">013 (a)</text>
</g>
<!-- 031&#45;&gt;013 -->
<g id="edge5" class="edge"><title>031&#45;&gt;013</title>
<path fill="none" stroke="#b43f3f" stroke-dasharray="1,5" d="M381.175,-104.106C376.765,-98.3876 372.204,-91.6904 369,-85 365.591,-77.8814 362.989,-69.7486 361.043,-62.1401"/>
<polygon fill="#b43f3f" stroke="#b43f3f" points="364.419,-61.204 358.781,-52.2343 357.595,-62.7625 364.419,-61.204"/>
<text text-anchor="middle" x="391" y="-73.8" font-family="Times,serif" font-size="14.00">1 (97.1)</text>
</g>
<!-- 017 -->
<g id="node8" class="node"><title>017</title>
<ellipse fill="#ff8a8a" stroke="#b43f3f" cx="447" cy="-34" rx="36.2938" ry="18"/>
<text text-anchor="middle" x="447" y="-30.3" font-family="Times,serif" font-size="14.00">017 (a)</text>
</g>
<!-- 031&#45;&gt;017 -->
<g id="edge6" class="edge"><title>031&#45;&gt;017</title>
<path fill="none" stroke="#b43f3f" stroke-dasharray="1,5" d="M405.026,-103.611C412.58,-91.2642 423.07,-74.1167 431.673,-60.0534"/>
<polygon fill="#b43f3f" stroke="#b43f3f" points="434.772,-61.6954 437.005,-51.3385 428.8,-58.0424 434.772,-61.6954"/>
<text text-anchor="middle" x="447" y="-73.8" font-family="Times,serif" font-size="14.00">1 (94.3)</text>
</g>
<!-- 044 -->
<g id="node9" class="node"><title>044</title>
<ellipse fill="#ff8a8a" stroke="#b43f3f" cx="997" cy="-208" rx="36.2938" ry="18"/>
<text text-anchor="middle" x="997" y="-204.3" font-family="Times,serif" font-size="14.00">044 (a)</text>
</g>
<!-- 022 -->
<g id="node10" class="node"><title>022</title>
<ellipse fill="#ff8a8a" stroke="#b43f3f" cx="993" cy="-121" rx="36.2938" ry="18"/>
<text text-anchor="middle" x="993" y="-117.3" font-family="Times,serif" font-size="14.00">022 (a)</text>
</g>
<!-- 044&#45;&gt;022 -->
<g id="edge7" class="edge"><title>044&#45;&gt;022</title>
<path fill="none" stroke="#b43f3f" stroke-dasharray="1,5" d="M996.191,-189.799C995.643,-178.163 994.908,-162.548 994.282,-149.237"/>
<polygon fill="#b43f3f" stroke="#b43f3f" points="997.775,-149 993.808,-139.175 990.782,-149.329 997.775,-149"/>
<text text-anchor="middle" x="1017" y="-160.8" font-family="Times,serif" font-size="14.00">1 (91.7)</text>
</g>
<!-- 0141 -->
<g id="node11" class="node"><title>0141</title>
<ellipse fill="#ff8a8a" stroke="#b43f3f" cx="1088" cy="-121" rx="40.0939" ry="18"/>
<text text-anchor="middle" x="1088" y="-117.3" font-family="Times,serif" font-size="14.00">0141 (a)</text>
</g>
<!-- 044&#45;&gt;0141 -->
<g id="edge8" class="edge"><title>044&#45;&gt;0141</title>
<path fill="none" stroke="#b43f3f" stroke-dasharray="1,5" d="M1017.35,-192.793C1025.59,-186.718 1035.03,-179.341 1043,-172 1051.59,-164.087 1060.34,-154.723 1067.81,-146.252"/>
<polygon fill="#b43f3f" stroke="#b43f3f" points="1070.64,-148.331 1074.54,-138.479 1065.35,-143.752 1070.64,-148.331"/>
<text text-anchor="middle" x="1079" y="-160.8" font-family="Times,serif" font-size="14.00">1 (89.2)</text>
</g>
<!-- 03 -->
<g id="node12" class="node"><title>03</title>
<ellipse fill="#ff8a8a" stroke="#b43f3f" cx="1043" cy="-295" rx="31.6951" ry="18"/>
<text text-anchor="middle" x="1043" y="-291.3" font-family="Times,serif" font-size="14.00">03 (a)</text>
</g>
<!-- 03&#45;&gt;044 -->
<g id="edge9" class="edge"><title>03&#45;&gt;044</title>
<path fill="none" stroke="#b43f3f" stroke-dasharray="1,5" d="M1028.41,-278.868C1023.33,-273.009 1017.93,-266.025 1014,-259 1010.02,-251.878 1006.75,-243.664 1004.18,-235.979"/>
<polygon fill="#b43f3f" stroke="#b43f3f" points="1007.49,-234.844 1001.2,-226.318 1000.8,-236.905 1007.49,-234.844"/>
<text text-anchor="middle" x="1036" y="-247.8" font-family="Times,serif" font-size="14.00">1 (89.2)</text>
</g>
<!-- 032 -->
<g id="node13" class="node"><title>032</title>
<ellipse fill="#ff8a8a" stroke="#b43f3f" cx="1088" cy="-208" rx="36.2938" ry="18"/>
<text text-anchor="middle" x="1088" y="-204.3" font-family="Times,serif" font-size="14.00">032 (a)</text>
</g>
<!-- 03&#45;&gt;032 -->
<g id="edge10" class="edge"><title>03&#45;&gt;032</title>
<path fill="none" stroke="#b43f3f" stroke-dasharray="1,5" d="M1051.68,-277.611C1058.11,-265.46 1067,-248.66 1074.38,-234.725"/>
<polygon fill="#b43f3f" stroke="#b43f3f" points="1077.61,-236.104 1079.2,-225.629 1071.42,-232.829 1077.61,-236.104"/>
<text text-anchor="middle" x="1090" y="-247.8" font-family="Times,serif" font-size="14.00">1 (91.7)</text>
</g>
<!-- 063 -->
<g id="node14" class="node"><title>063</title>
<ellipse fill="#ff8a8a" stroke="#b43f3f" cx="680" cy="-208" rx="36.2938" ry="18"/>
<text text-anchor="middle" x="680" y="-204.3" font-family="Times,serif" font-size="14.00">063 (a)</text>
</g>
<!-- 063&#45;&gt;031 -->
<g id="edge11" class="edge"><title>063&#45;&gt;031</title>
<path fill="none" stroke="#b43f3f" stroke-dasharray="1,5" d="M646.685,-200.57C615.871,-194.319 568.94,-184.025 529,-172 495.33,-161.863 457.908,-147.641 431.187,-136.956"/>
<polygon fill="#b43f3f" stroke="#b43f3f" points="432.437,-133.686 421.853,-133.193 429.819,-140.178 432.437,-133.686"/>
<text text-anchor="middle" x="551" y="-160.8" font-family="Times,serif" font-size="14.00">1 (95.8)</text>
</g>
<!-- 07 -->
<g id="node15" class="node"><title>07</title>
<ellipse fill="#ff8a8a" stroke="#b43f3f" cx="543" cy="-121" rx="31.6951" ry="18"/>
<text text-anchor="middle" x="543" y="-117.3" font-family="Times,serif" font-size="14.00">07 (a)</text>
</g>
<!-- 063&#45;&gt;07 -->
<g id="edge12" class="edge"><title>063&#45;&gt;07</title>
<path fill="none" stroke="#b43f3f" stroke-dasharray="1,5" d="M649.932,-197.733C633.025,-191.777 611.973,-183.077 595,-172 583.528,-164.514 572.367,-154.297 563.345,-145.05"/>
<polygon fill="#b43f3f" stroke="#b43f3f" points="565.718,-142.465 556.31,-137.592 560.626,-147.268 565.718,-142.465"/>
<text text-anchor="middle" x="617" y="-160.8" font-family="Times,serif" font-size="14.00">1 (96.6)</text>
</g>
<!-- 011 -->
<g id="node16" class="node"><title>011</title>
<ellipse fill="#ff8a8a" stroke="#b43f3f" cx="629" cy="-121" rx="36.2938" ry="18"/>
<text text-anchor="middle" x="629" y="-117.3" font-family="Times,serif" font-size="14.00">011 (a)</text>
</g>
<!-- 063&#45;&gt;011 -->
<g id="edge13" class="edge"><title>063&#45;&gt;011</title>
<path fill="none" stroke="#b43f3f" stroke-dasharray="1,5" d="M664.84,-191.436C659.702,-185.64 654.204,-178.81 650,-172 645.479,-164.677 641.509,-156.209 638.273,-148.348"/>
<polygon fill="#b43f3f" stroke="#b43f3f" points="641.465,-146.899 634.581,-138.845 634.941,-149.434 641.465,-146.899"/>
<text text-anchor="middle" x="672" y="-160.8" font-family="Times,serif" font-size="14.00">1 (93.1)</text>
</g>
<!-- 045 -->
<g id="node17" class="node"><title>045</title>
<ellipse fill="#ff8a8a" stroke="#b43f3f" cx="720" cy="-121" rx="36.2938" ry="18"/>
<text text-anchor="middle" x="720" y="-117.3" font-family="Times,serif" font-size="14.00">045 (a)</text>
</g>
<!-- 063&#45;&gt;045 -->
<g id="edge14" class="edge"><title>063&#45;&gt;045</title>
<path fill="none" stroke="#b43f3f" stroke-dasharray="1,5" d="M687.903,-190.207C693.546,-178.216 701.247,-161.851 707.691,-148.157"/>
<polygon fill="#b43f3f" stroke="#b43f3f" points="711.023,-149.297 712.114,-138.758 704.689,-146.316 711.023,-149.297"/>
<text text-anchor="middle" x="725" y="-160.8" font-family="Times,serif" font-size="14.00">1 (93.1)</text>
</g>
<!-- 021 -->
<g id="node18" class="node"><title>021</title>
<ellipse fill="#ff8a8a" stroke="#b43f3f" cx="811" cy="-121" rx="36.2938" ry="18"/>
<text text-anchor="middle" x="811" y="-117.3" font-family="Times,serif" font-size="14.00">021 (a)</text>
</g>
<!-- 063&#45;&gt;021 -->
<g id="edge15" class="edge"><title>063&#45;&gt;021</title>
<path fill="none" stroke="#b43f3f" stroke-dasharray="1,5" d="M706.778,-195.626C720.434,-189.377 737.058,-181.062 751,-172 763.593,-163.815 776.521,-153.352 787.137,-144.115"/>
<polygon fill="#b43f3f" stroke="#b43f3f" points="789.605,-146.605 794.76,-137.349 784.958,-141.369 789.605,-146.605"/>
<text text-anchor="middle" x="793" y="-160.8" font-family="Times,serif" font-size="14.00">1 (93.1)</text>
</g>
<!-- 028 -->
<g id="node19" class="node"><title>028</title>
<ellipse fill="#ff8a8a" stroke="#b43f3f" cx="902" cy="-121" rx="36.2938" ry="18"/>
<text text-anchor="middle" x="902" y="-117.3" font-family="Times,serif" font-size="14.00">028 (a)</text>
</g>
<!-- 063&#45;&gt;028 -->
<g id="edge16" class="edge"><title>063&#45;&gt;028</title>
<path fill="none" stroke="#b43f3f" stroke-dasharray="1,5" d="M714.033,-201.345C742.74,-195.895 784.538,-186.344 819,-172 838.085,-164.056 857.972,-152.218 873.493,-142.055"/>
<polygon fill="#b43f3f" stroke="#b43f3f" points="875.722,-144.775 882.089,-136.306 871.831,-138.956 875.722,-144.775"/>
<text text-anchor="middle" x="870" y="-160.8" font-family="Times,serif" font-size="14.00">1 (96.6)</text>
</g>
<!-- 0211 -->
<g id="node21" class="node"><title>0211</title>
<ellipse fill="#ff8a8a" stroke="#b43f3f" cx="542" cy="-34" rx="40.0939" ry="18"/>
<text text-anchor="middle" x="542" y="-30.3" font-family="Times,serif" font-size="14.00">0211 (a)</text>
</g>
<!-- 07&#45;&gt;0211 -->
<g id="edge18" class="edge"><title>07&#45;&gt;0211</title>
<path fill="none" stroke="#b43f3f" stroke-dasharray="1,5" d="M542.798,-102.799C542.661,-91.1626 542.477,-75.5479 542.32,-62.2368"/>
<polygon fill="#b43f3f" stroke="#b43f3f" points="545.82,-62.1335 542.202,-52.1754 538.82,-62.216 545.82,-62.1335"/>
<text text-anchor="middle" x="565" y="-73.8" font-family="Times,serif" font-size="14.00">2 (82.9)</text>
</g>
<!-- 037 -->
<g id="node22" class="node"><title>037</title>
<ellipse fill="#ff8a8a" stroke="#b43f3f" cx="637" cy="-34" rx="36.2938" ry="18"/>
<text text-anchor="middle" x="637" y="-30.3" font-family="Times,serif" font-size="14.00">037 (a)</text>
</g>
<!-- 07&#45;&gt;037 -->
<g id="edge19" class="edge"><title>07&#45;&gt;037</title>
<path fill="none" stroke="#b43f3f" stroke-dasharray="1,5" d="M562.824,-106.866C571.749,-100.625 582.227,-92.8278 591,-85 600.029,-76.9432 609.209,-67.3138 616.969,-58.6661"/>
<polygon fill="#b43f3f" stroke="#b43f3f" points="619.672,-60.8929 623.651,-51.0737 614.417,-56.2682 619.672,-60.8929"/>
<text text-anchor="middle" x="628" y="-73.8" font-family="Times,serif" font-size="14.00">1 (97.5)</text>
</g>
<!-- 034 -->
<g id="node23" class="node"><title>034</title>
<ellipse fill="#ff8a8a" stroke="#b43f3f" cx="728" cy="-34" rx="36.2938" ry="18"/>
<text text-anchor="middle" x="728" y="-30.3" font-family="Times,serif" font-size="14.00">034 (a)</text>
</g>
<!-- 07&#45;&gt;034 -->
<g id="edge20" class="edge"><title>07&#45;&gt;034</title>
<path fill="none" stroke="#b43f3f" stroke-dasharray="1,5" d="M567.502,-109.179C572.884,-106.989 578.592,-104.807 584,-103 614.468,-92.8227 624.707,-98.1851 654,-85 670.817,-77.4302 687.982,-66.1007 701.541,-56.1394"/>
<polygon fill="#b43f3f" stroke="#b43f3f" points="704.013,-58.6591 709.891,-49.8442 699.799,-53.0697 704.013,-58.6591"/>
<text text-anchor="middle" x="702" y="-73.8" font-family="Times,serif" font-size="14.00">1 (95.1)</text>
</g>
<!-- 030 -->
<g id="node24" class="node"><title>030</title>
<ellipse fill="#ff8a8a" stroke="#b43f3f" cx="819" cy="-34" rx="36.2938" ry="18"/>
<text text-anchor="middle" x="819" y="-30.3" font-family="Times,serif" font-size="14.00">030 (a)</text>
</g>
<!-- 07&#45;&gt;030 -->
<g id="edge21" class="edge"><title>07&#45;&gt;030</title>
<path fill="none" stroke="#b43f3f" stroke-dasharray="1,5" d="M566.908,-108.827C572.425,-106.605 578.339,-104.498 584,-103 646.352,-86.4994 666.643,-104.884 728,-85 750.05,-77.8542 772.908,-65.2722 790.199,-54.5179"/>
<polygon fill="#b43f3f" stroke="#b43f3f" points="792.149,-57.4258 798.7,-49.0992 788.386,-51.523 792.149,-57.4258"/>
<text text-anchor="middle" x="785" y="-73.8" font-family="Times,serif" font-size="14.00">1 (95.1)</text>
</g>
<!-- 038 -->
<g id="node25" class="node"><title>038</title>
<ellipse fill="#ff8a8a" stroke="#b43f3f" cx="910" cy="-34" rx="36.2938" ry="18"/>
<text text-anchor="middle" x="910" y="-30.3" font-family="Times,serif" font-size="14.00">038 (a)</text>
</g>
<!-- 045&#45;&gt;038 -->
<g id="edge22" class="edge"><title>045&#45;&gt;038</title>
<path fill="none" stroke="#b43f3f" stroke-dasharray="1,5" d="M747.534,-109.163C753.57,-106.974 759.961,-104.796 766,-103 800.517,-92.7367 812.417,-100.334 845,-85 860.072,-77.907 874.944,-66.8536 886.651,-56.9414"/>
<polygon fill="#b43f3f" stroke="#b43f3f" points="888.993,-59.5432 894.214,-50.3241 884.383,-54.2751 888.993,-59.5432"/>
<text text-anchor="middle" x="890" y="-73.8" font-family="Times,serif" font-size="14.00">1 (92.7)</text>
</g>
<!-- 036 -->
<g id="node26" class="node"><title>036</title>
<ellipse fill="#ff8a8a" stroke="#b43f3f" cx="1001" cy="-34" rx="36.2938" ry="18"/>
<text text-anchor="middle" x="1001" y="-30.3" font-family="Times,serif" font-size="14.00">036 (a)</text>
</g>
<!-- 021&#45;&gt;036 -->
<g id="edge23" class="edge"><title>021&#45;&gt;036</title>
<path fill="none" stroke="#b43f3f" stroke-dasharray="1,5" d="M839.128,-109.312C845.011,-107.159 851.191,-104.958 857,-103 882.98,-94.2446 890.9,-96.0265 916,-85 935.262,-76.5383 955.617,-64.6795 971.577,-54.6346"/>
<polygon fill="#b43f3f" stroke="#b43f3f" points="973.891,-57.3091 980.425,-48.9692 970.116,-51.414 973.891,-57.3091"/>
<text text-anchor="middle" x="967" y="-73.8" font-family="Times,serif" font-size="14.00">1 (97.6)</text>
</g>
<!-- 047 -->
<g id="node27" class="node"><title>047</title>
<ellipse fill="#ff8a8a" stroke="#b43f3f" cx="1092" cy="-34" rx="36.2938" ry="18"/>
<text text-anchor="middle" x="1092" y="-30.3" font-family="Times,serif" font-size="14.00">047 (a)</text>
</g>
<!-- 021&#45;&gt;047 -->
<g id="edge24" class="edge"><title>021&#45;&gt;047</title>
<path fill="none" stroke="#b43f3f" stroke-dasharray="1,5" d="M838.418,-108.737C844.461,-106.574 850.884,-104.515 857,-103 916.183,-88.3416 934.745,-102.997 993,-85 1017.19,-77.527 1042.65,-64.5406 1061.69,-53.6757"/>
<polygon fill="#b43f3f" stroke="#b43f3f" points="1063.61,-56.6062 1070.49,-48.5458 1060.09,-50.5589 1063.61,-56.6062"/>
<text text-anchor="middle" x="1051" y="-73.8" font-family="Times,serif" font-size="14.00">1 (95.1)</text>
</g>
<!-- 019 -->
<g id="node20" class="node"><title>019</title>
<ellipse fill="#ff8a8a" stroke="#b43f3f" cx="680" cy="-295" rx="36.2938" ry="18"/>
<text text-anchor="middle" x="680" y="-291.3" font-family="Times,serif" font-size="14.00">019 (a)</text>
</g>
<!-- 019&#45;&gt;063 -->
<g id="edge17" class="edge"><title>019&#45;&gt;063</title>
<path fill="none" stroke="#b43f3f" stroke-dasharray="1,5" d="M680,-276.799C680,-265.163 680,-249.548 680,-236.237"/>
<polygon fill="#b43f3f" stroke="#b43f3f" points="683.5,-236.175 680,-226.175 676.5,-236.175 683.5,-236.175"/>
<text text-anchor="middle" x="702" y="-247.8" font-family="Times,serif" font-size="14.00">1 (85.7)</text>
</g>
<!-- P75 -->
<g id="node28" class="node"><title>P75</title>
<ellipse fill="#ff8a8a" stroke="#b43f3f" cx="457" cy="-295" rx="36.2938" ry="18"/>
<text text-anchor="middle" x="457" y="-291.3" font-family="Times,serif" font-size="14.00">P75 (a)</text>
</g>
</g>
</svg>
