<?xml version="1.0" encoding="UTF-8" standalone="no"?>
<!DOCTYPE svg PUBLIC "-//W3C//DTD SVG 1.1//EN"
 "http://www.w3.org/Graphics/SVG/1.1/DTD/svg11.dtd">
<!-- Generated by graphviz version 2.38.0 (20140413.2041)
 -->
<!-- Title: %3 Pages: 1 -->
<svg width="1060pt" height="337pt"
 viewBox="0.00 0.00 1060.00 337.00" xmlns="http://www.w3.org/2000/svg" xmlns:xlink="http://www.w3.org/1999/xlink">
<g id="graph0" class="graph" transform="scale(1 1) rotate(0) translate(4 333)">
<title>%3</title>
<polygon fill="white" stroke="none" points="-4,4 -4,-333 1056,-333 1056,4 -4,4"/>
<g id="clust1" class="cluster"><title>cluster_legend</title>
<path fill="none" stroke="black" d="M20,-193C20,-193 210,-193 210,-193 216,-193 222,-199 222,-205 222,-205 222,-309 222,-309 222,-315 216,-321 210,-321 210,-321 20,-321 20,-321 14,-321 8,-315 8,-309 8,-309 8,-205 8,-205 8,-199 14,-193 20,-193"/>
</g>
<g id="clust2" class="cluster"><title>cluster_reading</title>
<polygon fill="none" stroke="black" points="230,-8 230,-321 1044,-321 1044,-8 230,-8"/>
</g>
<!-- leg_s -->
<g id="node1" class="node"><title>leg_s</title>
<text text-anchor="middle" x="115" y="-291.3" font-family="Times,serif" font-size="14.00">Textual flow strength</text>
</g>
<!-- leg_e1 -->
<!-- leg_s&#45;&gt;leg_e1 -->
<g id="edge1" class="edge"><title>leg_s&#45;&gt;leg_e1</title>
<path fill="none" stroke="black" stroke-dasharray="1,5" d="M96.6657,-276.686C91.1324,-271.194 85.1607,-264.989 80,-259 70.1708,-247.593 60.0722,-233.779 52.9137,-223.563"/>
<polygon fill="black" stroke="black" points="55.6142,-221.314 47.056,-215.068 49.8514,-225.288 55.6142,-221.314"/>
<text text-anchor="middle" x="95.5" y="-247.8" font-family="Times,serif" font-size="14.00">&lt;=5 &#160;</text>
</g>
<!-- leg_e2 -->
<!-- leg_s&#45;&gt;leg_e2 -->
<g id="edge2" class="edge"><title>leg_s&#45;&gt;leg_e2</title>
<path fill="none" stroke="black" stroke-dasharray="5,2" d="M115,-276.799C115,-261.794 115,-240.174 115,-225.409"/>
<polygon fill="black" stroke="black" points="118.5,-225.293 115,-215.293 111.5,-225.293 118.5,-225.293"/>
<text text-anchor="middle" x="134" y="-247.8" font-family="Times,serif" font-size="14.00"> &#160;&lt;=25</text>
</g>
<!-- leg_e3 -->
<!-- leg_s&#45;&gt;leg_e3 -->
<g id="edge3" class="edge"><title>leg_s&#45;&gt;leg_e3</title>
<path fill="none" stroke="black" d="M138.503,-276.76C144.906,-271.462 151.567,-265.344 157,-259 166.087,-248.39 174.095,-234.689 179.546,-224.313"/>
<polygon fill="black" stroke="black" points="182.722,-225.789 184.091,-215.283 176.469,-222.642 182.722,-225.789"/>
<text text-anchor="middle" x="179" y="-247.8" font-family="Times,serif" font-size="14.00">&gt;25</text>
</g>
<!-- 021 -->
<g id="node5" class="node"><title>021</title>
<ellipse fill="#ff8a8a" stroke="#b43f3f" cx="545" cy="-121" rx="36.2938" ry="18"/>
<text text-anchor="middle" x="545" y="-117.3" font-family="Times,serif" font-size="14.00">021 (a)</text>
</g>
<!-- 036 -->
<g id="node6" class="node"><title>036</title>
<ellipse fill="#ff8a8a" stroke="#b43f3f" cx="274" cy="-34" rx="36.2938" ry="18"/>
<text text-anchor="middle" x="274" y="-30.3" font-family="Times,serif" font-size="14.00">036 (a)</text>
</g>
<!-- 021&#45;&gt;036 -->
<g id="edge4" class="edge"><title>021&#45;&gt;036</title>
<path fill="none" stroke="#b43f3f" stroke-dasharray="1,5" d="M518.218,-108.631C512.304,-106.474 506.009,-104.445 500,-103 429.564,-86.0666 405.087,-112.336 338,-85 322.723,-78.7749 308.042,-67.7961 296.603,-57.709"/>
<polygon fill="#b43f3f" stroke="#b43f3f" points="298.966,-55.1269 289.234,-50.9375 294.229,-60.281 298.966,-55.1269"/>
<text text-anchor="middle" x="360" y="-73.8" font-family="Times,serif" font-size="14.00">1 (97.6)</text>
</g>
<!-- 047 -->
<g id="node7" class="node"><title>047</title>
<ellipse fill="#ff8a8a" stroke="#b43f3f" cx="365" cy="-34" rx="36.2938" ry="18"/>
<text text-anchor="middle" x="365" y="-30.3" font-family="Times,serif" font-size="14.00">047 (a)</text>
</g>
<!-- 021&#45;&gt;047 -->
<g id="edge5" class="edge"><title>021&#45;&gt;047</title>
<path fill="none" stroke="#b43f3f" stroke-dasharray="1,5" d="M517.657,-108.768C511.889,-106.655 505.794,-104.607 500,-103 456.905,-91.0486 438.811,-108.881 401,-85 391.64,-79.0883 383.964,-69.7839 378.14,-60.7965"/>
<polygon fill="#b43f3f" stroke="#b43f3f" points="381.06,-58.8583 372.94,-52.0522 375.043,-62.4362 381.06,-58.8583"/>
<text text-anchor="middle" x="423" y="-73.8" font-family="Times,serif" font-size="14.00">1 (95.1)</text>
</g>
<!-- 031 -->
<g id="node8" class="node"><title>031</title>
<ellipse fill="#ff8a8a" stroke="#b43f3f" cx="636" cy="-121" rx="36.2938" ry="18"/>
<text text-anchor="middle" x="636" y="-117.3" font-family="Times,serif" font-size="14.00">031 (a)</text>
</g>
<!-- 01 -->
<g id="node9" class="node"><title>01</title>
<ellipse fill="#ff8a8a" stroke="#b43f3f" cx="451" cy="-34" rx="31.6951" ry="18"/>
<text text-anchor="middle" x="451" y="-30.3" font-family="Times,serif" font-size="14.00">01 (a)</text>
</g>
<!-- 031&#45;&gt;01 -->
<g id="edge6" class="edge"><title>031&#45;&gt;01</title>
<path fill="none" stroke="#b43f3f" stroke-dasharray="1,5" d="M607.932,-109.127C602.045,-106.987 595.848,-104.838 590,-103 559.766,-93.4952 549.705,-98.4338 521,-85 504.689,-77.3665 488.213,-65.8305 475.346,-55.7621"/>
<polygon fill="#b43f3f" stroke="#b43f3f" points="477.436,-52.9519 467.45,-49.4134 473.05,-58.4072 477.436,-52.9519"/>
<text text-anchor="middle" x="543" y="-73.8" font-family="Times,serif" font-size="14.00">2 (48.5)</text>
</g>
<!-- 017 -->
<g id="node10" class="node"><title>017</title>
<ellipse fill="#ff8a8a" stroke="#b43f3f" cx="537" cy="-34" rx="36.2938" ry="18"/>
<text text-anchor="middle" x="537" y="-30.3" font-family="Times,serif" font-size="14.00">017 (a)</text>
</g>
<!-- 031&#45;&gt;017 -->
<g id="edge7" class="edge"><title>031&#45;&gt;017</title>
<path fill="none" stroke="#b43f3f" stroke-dasharray="1,5" d="M613.71,-106.562C604.203,-100.441 593.205,-92.822 584,-85 574.686,-77.0852 565.289,-67.4839 557.371,-58.8191"/>
<polygon fill="#b43f3f" stroke="#b43f3f" points="559.834,-56.3229 550.56,-51.2 554.616,-60.9881 559.834,-56.3229"/>
<text text-anchor="middle" x="606" y="-73.8" font-family="Times,serif" font-size="14.00">1 (94.3)</text>
</g>
<!-- 013 -->
<g id="node11" class="node"><title>013</title>
<ellipse fill="#ff8a8a" stroke="#b43f3f" cx="628" cy="-34" rx="36.2938" ry="18"/>
<text text-anchor="middle" x="628" y="-30.3" font-family="Times,serif" font-size="14.00">013 (a)</text>
</g>
<!-- 031&#45;&gt;013 -->
<g id="edge8" class="edge"><title>031&#45;&gt;013</title>
<path fill="none" stroke="#b43f3f" stroke-dasharray="1,5" d="M634.381,-102.799C633.286,-91.1626 631.816,-75.5479 630.563,-62.2368"/>
<polygon fill="#b43f3f" stroke="#b43f3f" points="634.038,-61.8034 629.617,-52.1754 627.069,-62.4594 634.038,-61.8034"/>
<text text-anchor="middle" x="655" y="-73.8" font-family="Times,serif" font-size="14.00">1 (97.1)</text>
</g>
<!-- 063 -->
<g id="node12" class="node"><title>063</title>
<ellipse fill="#ff8a8a" stroke="#b43f3f" cx="727" cy="-208" rx="36.2938" ry="18"/>
<text text-anchor="middle" x="727" y="-204.3" font-family="Times,serif" font-size="14.00">063 (a)</text>
</g>
<!-- 063&#45;&gt;021 -->
<g id="edge9" class="edge"><title>063&#45;&gt;021</title>
<path fill="none" stroke="#b43f3f" stroke-dasharray="1,5" d="M695.054,-199.368C672.811,-193.43 642.808,-184.156 618,-172 601.705,-164.016 584.906,-152.754 571.536,-142.939"/>
<polygon fill="#b43f3f" stroke="#b43f3f" points="573.385,-139.951 563.286,-136.748 569.183,-145.55 573.385,-139.951"/>
<text text-anchor="middle" x="640" y="-160.8" font-family="Times,serif" font-size="14.00">1 (93.1)</text>
</g>
<!-- 063&#45;&gt;031 -->
<g id="edge10" class="edge"><title>063&#45;&gt;031</title>
<path fill="none" stroke="#b43f3f" stroke-dasharray="1,5" d="M705.628,-193.006C697.008,-186.963 687.186,-179.554 679,-172 670.456,-164.115 661.924,-154.619 654.74,-146.029"/>
<polygon fill="#b43f3f" stroke="#b43f3f" points="657.344,-143.685 648.308,-138.155 651.923,-148.113 657.344,-143.685"/>
<text text-anchor="middle" x="701" y="-160.8" font-family="Times,serif" font-size="14.00">1 (95.8)</text>
</g>
<!-- 011 -->
<g id="node13" class="node"><title>011</title>
<ellipse fill="#ff8a8a" stroke="#b43f3f" cx="727" cy="-121" rx="36.2938" ry="18"/>
<text text-anchor="middle" x="727" y="-117.3" font-family="Times,serif" font-size="14.00">011 (a)</text>
</g>
<!-- 063&#45;&gt;011 -->
<g id="edge11" class="edge"><title>063&#45;&gt;011</title>
<path fill="none" stroke="#b43f3f" stroke-dasharray="1,5" d="M727,-189.799C727,-178.163 727,-162.548 727,-149.237"/>
<polygon fill="#b43f3f" stroke="#b43f3f" points="730.5,-149.175 727,-139.175 723.5,-149.175 730.5,-149.175"/>
<text text-anchor="middle" x="749" y="-160.8" font-family="Times,serif" font-size="14.00">1 (93.1)</text>
</g>
<!-- 07 -->
<g id="node14" class="node"><title>07</title>
<ellipse fill="#ff8a8a" stroke="#b43f3f" cx="813" cy="-121" rx="31.6951" ry="18"/>
<text text-anchor="middle" x="813" y="-117.3" font-family="Times,serif" font-size="14.00">07 (a)</text>
</g>
<!-- 063&#45;&gt;07 -->
<g id="edge12" class="edge"><title>063&#45;&gt;07</title>
<path fill="none" stroke="#b43f3f" stroke-dasharray="1,5" d="M748.604,-193.25C757.26,-187.245 767.046,-179.798 775,-172 782.825,-164.329 790.362,-154.975 796.632,-146.442"/>
<polygon fill="#b43f3f" stroke="#b43f3f" points="799.497,-148.452 802.443,-138.275 793.794,-144.394 799.497,-148.452"/>
<text text-anchor="middle" x="810" y="-160.8" font-family="Times,serif" font-size="14.00">1 (96.6)</text>
</g>
<!-- 028 -->
<g id="node15" class="node"><title>028</title>
<ellipse fill="#ff8a8a" stroke="#b43f3f" cx="899" cy="-121" rx="36.2938" ry="18"/>
<text text-anchor="middle" x="899" y="-117.3" font-family="Times,serif" font-size="14.00">028 (a)</text>
</g>
<!-- 063&#45;&gt;028 -->
<g id="edge13" class="edge"><title>063&#45;&gt;028</title>
<path fill="none" stroke="#b43f3f" stroke-dasharray="1,5" d="M759.708,-199.786C782.025,-194.088 811.81,-184.927 836,-172 850.072,-164.48 864.134,-153.712 875.39,-144.093"/>
<polygon fill="#b43f3f" stroke="#b43f3f" points="877.854,-146.588 883.051,-137.355 873.231,-141.331 877.854,-146.588"/>
<text text-anchor="middle" x="880" y="-160.8" font-family="Times,serif" font-size="14.00">1 (96.6)</text>
</g>
<!-- 030 -->
<g id="node17" class="node"><title>030</title>
<ellipse fill="#ff8a8a" stroke="#b43f3f" cx="719" cy="-34" rx="36.2938" ry="18"/>
<text text-anchor="middle" x="719" y="-30.3" font-family="Times,serif" font-size="14.00">030 (a)</text>
</g>
<!-- 07&#45;&gt;030 -->
<g id="edge15" class="edge"><title>07&#45;&gt;030</title>
<path fill="none" stroke="#b43f3f" stroke-dasharray="1,5" d="M792.224,-107.075C782.902,-100.876 772.002,-93.0548 763,-85 754.25,-77.1702 745.518,-67.6848 738.167,-59.0893"/>
<polygon fill="#b43f3f" stroke="#b43f3f" points="740.681,-56.6393 731.587,-51.2039 735.307,-61.1242 740.681,-56.6393"/>
<text text-anchor="middle" x="785" y="-73.8" font-family="Times,serif" font-size="14.00">1 (95.1)</text>
</g>
<!-- 034 -->
<g id="node18" class="node"><title>034</title>
<ellipse fill="#ff8a8a" stroke="#b43f3f" cx="810" cy="-34" rx="36.2938" ry="18"/>
<text text-anchor="middle" x="810" y="-30.3" font-family="Times,serif" font-size="14.00">034 (a)</text>
</g>
<!-- 07&#45;&gt;034 -->
<g id="edge16" class="edge"><title>07&#45;&gt;034</title>
<path fill="none" stroke="#b43f3f" stroke-dasharray="1,5" d="M812.393,-102.799C811.982,-91.1626 811.431,-75.5479 810.961,-62.2368"/>
<polygon fill="#b43f3f" stroke="#b43f3f" points="814.457,-62.0457 810.606,-52.1754 807.461,-62.2927 814.457,-62.0457"/>
<text text-anchor="middle" x="833" y="-73.8" font-family="Times,serif" font-size="14.00">1 (95.1)</text>
</g>
<!-- 037 -->
<g id="node19" class="node"><title>037</title>
<ellipse fill="#ff8a8a" stroke="#b43f3f" cx="901" cy="-34" rx="36.2938" ry="18"/>
<text text-anchor="middle" x="901" y="-30.3" font-family="Times,serif" font-size="14.00">037 (a)</text>
</g>
<!-- 07&#45;&gt;037 -->
<g id="edge17" class="edge"><title>07&#45;&gt;037</title>
<path fill="none" stroke="#b43f3f" stroke-dasharray="1,5" d="M832.567,-106.595C841.042,-100.422 850.863,-92.7533 859,-85 867.334,-77.0584 875.665,-67.5499 882.684,-58.9672"/>
<polygon fill="#b43f3f" stroke="#b43f3f" points="885.46,-61.1003 888.969,-51.1034 879.991,-56.7301 885.46,-61.1003"/>
<text text-anchor="middle" x="894" y="-73.8" font-family="Times,serif" font-size="14.00">1 (97.5)</text>
</g>
<!-- 0211 -->
<g id="node20" class="node"><title>0211</title>
<ellipse fill="#ff8a8a" stroke="#b43f3f" cx="996" cy="-34" rx="40.0939" ry="18"/>
<text text-anchor="middle" x="996" y="-30.3" font-family="Times,serif" font-size="14.00">0211 (a)</text>
</g>
<!-- 07&#45;&gt;0211 -->
<g id="edge18" class="edge"><title>07&#45;&gt;0211</title>
<path fill="none" stroke="#b43f3f" stroke-dasharray="1,5" d="M837.522,-109.239C842.903,-107.045 848.605,-104.846 854,-103 882.768,-93.1575 892.289,-97.511 920,-85 937.166,-77.2501 954.83,-65.8709 968.804,-55.9252"/>
<polygon fill="#b43f3f" stroke="#b43f3f" points="970.968,-58.6795 976.991,-49.9632 966.847,-53.0211 970.968,-58.6795"/>
<text text-anchor="middle" x="968" y="-73.8" font-family="Times,serif" font-size="14.00">2 (82.9)</text>
</g>
<!-- 019 -->
<g id="node16" class="node"><title>019</title>
<ellipse fill="#ff8a8a" stroke="#b43f3f" cx="727" cy="-295" rx="36.2938" ry="18"/>
<text text-anchor="middle" x="727" y="-291.3" font-family="Times,serif" font-size="14.00">019 (a)</text>
</g>
<!-- 019&#45;&gt;063 -->
<g id="edge14" class="edge"><title>019&#45;&gt;063</title>
<path fill="none" stroke="#b43f3f" stroke-dasharray="1,5" d="M727,-276.799C727,-265.163 727,-249.548 727,-236.237"/>
<polygon fill="#b43f3f" stroke="#b43f3f" points="730.5,-236.175 727,-226.175 723.5,-236.175 730.5,-236.175"/>
<text text-anchor="middle" x="749" y="-247.8" font-family="Times,serif" font-size="14.00">1 (85.7)</text>
</g>
<!-- 03 -->
<g id="node21" class="node"><title>03</title>
<ellipse fill="#ff8a8a" stroke="#b43f3f" cx="459" cy="-295" rx="31.6951" ry="18"/>
<text text-anchor="middle" x="459" y="-291.3" font-family="Times,serif" font-size="14.00">03 (a)</text>
</g>
<!-- 044 -->
<g id="node22" class="node"><title>044</title>
<ellipse fill="#ff8a8a" stroke="#b43f3f" cx="373" cy="-208" rx="36.2938" ry="18"/>
<text text-anchor="middle" x="373" y="-204.3" font-family="Times,serif" font-size="14.00">044 (a)</text>
</g>
<!-- 03&#45;&gt;044 -->
<g id="edge19" class="edge"><title>03&#45;&gt;044</title>
<path fill="none" stroke="#b43f3f" stroke-dasharray="1,5" d="M438.353,-280.912C429.467,-274.796 419.248,-267.086 411,-259 403.175,-251.329 395.638,-241.975 389.368,-233.442"/>
<polygon fill="#b43f3f" stroke="#b43f3f" points="392.206,-231.394 383.557,-225.275 386.503,-235.452 392.206,-231.394"/>
<text text-anchor="middle" x="433" y="-247.8" font-family="Times,serif" font-size="14.00">1 (89.2)</text>
</g>
<!-- 02 -->
<g id="node23" class="node"><title>02</title>
<ellipse fill="#ff8a8a" stroke="#b43f3f" cx="459" cy="-208" rx="31.6951" ry="18"/>
<text text-anchor="middle" x="459" y="-204.3" font-family="Times,serif" font-size="14.00">02 (a)</text>
</g>
<!-- 03&#45;&gt;02 -->
<g id="edge20" class="edge"><title>03&#45;&gt;02</title>
<path fill="none" stroke="#b43f3f" stroke-dasharray="1,5" d="M459,-276.799C459,-265.163 459,-249.548 459,-236.237"/>
<polygon fill="#b43f3f" stroke="#b43f3f" points="462.5,-236.175 459,-226.175 455.5,-236.175 462.5,-236.175"/>
<text text-anchor="middle" x="481" y="-247.8" font-family="Times,serif" font-size="14.00">1 (86.5)</text>
</g>
<!-- 032 -->
<g id="node24" class="node"><title>032</title>
<ellipse fill="#ff8a8a" stroke="#b43f3f" cx="545" cy="-208" rx="36.2938" ry="18"/>
<text text-anchor="middle" x="545" y="-204.3" font-family="Times,serif" font-size="14.00">032 (a)</text>
</g>
<!-- 03&#45;&gt;032 -->
<g id="edge21" class="edge"><title>03&#45;&gt;032</title>
<path fill="none" stroke="#b43f3f" stroke-dasharray="1,5" d="M479.647,-280.912C488.533,-274.796 498.752,-267.086 507,-259 514.825,-251.329 522.362,-241.975 528.632,-233.442"/>
<polygon fill="#b43f3f" stroke="#b43f3f" points="531.497,-235.452 534.443,-225.275 525.794,-231.394 531.497,-235.452"/>
<text text-anchor="middle" x="542" y="-247.8" font-family="Times,serif" font-size="14.00">1 (91.7)</text>
</g>
<!-- 0141 -->
<g id="node25" class="node"><title>0141</title>
<ellipse fill="#ff8a8a" stroke="#b43f3f" cx="278" cy="-121" rx="40.0939" ry="18"/>
<text text-anchor="middle" x="278" y="-117.3" font-family="Times,serif" font-size="14.00">0141 (a)</text>
</g>
<!-- 044&#45;&gt;0141 -->
<g id="edge22" class="edge"><title>044&#45;&gt;0141</title>
<path fill="none" stroke="#b43f3f" stroke-dasharray="1,5" d="M352.27,-193.159C343.564,-187.025 333.505,-179.508 325,-172 315.837,-163.911 306.469,-154.276 298.533,-145.632"/>
<polygon fill="#b43f3f" stroke="#b43f3f" points="300.99,-143.129 291.694,-138.045 295.79,-147.816 300.99,-143.129"/>
<text text-anchor="middle" x="347" y="-160.8" font-family="Times,serif" font-size="14.00">1 (89.2)</text>
</g>
<!-- 022 -->
<g id="node26" class="node"><title>022</title>
<ellipse fill="#ff8a8a" stroke="#b43f3f" cx="373" cy="-121" rx="36.2938" ry="18"/>
<text text-anchor="middle" x="373" y="-117.3" font-family="Times,serif" font-size="14.00">022 (a)</text>
</g>
<!-- 044&#45;&gt;022 -->
<g id="edge23" class="edge"><title>044&#45;&gt;022</title>
<path fill="none" stroke="#b43f3f" stroke-dasharray="1,5" d="M373,-189.799C373,-178.163 373,-162.548 373,-149.237"/>
<polygon fill="#b43f3f" stroke="#b43f3f" points="376.5,-149.175 373,-139.175 369.5,-149.175 376.5,-149.175"/>
<text text-anchor="middle" x="395" y="-160.8" font-family="Times,serif" font-size="14.00">1 (91.7)</text>
</g>
<!-- 05 -->
<g id="node27" class="node"><title>05</title>
<ellipse fill="#ff8a8a" stroke="#b43f3f" cx="459" cy="-121" rx="31.6951" ry="18"/>
<text text-anchor="middle" x="459" y="-117.3" font-family="Times,serif" font-size="14.00">05 (a)</text>
</g>
<!-- 044&#45;&gt;05 -->
<g id="edge24" class="edge"><title>044&#45;&gt;05</title>
<path fill="none" stroke="#b43f3f" stroke-dasharray="1,5" d="M394.604,-193.25C403.26,-187.245 413.046,-179.798 421,-172 428.825,-164.329 436.362,-154.975 442.632,-146.442"/>
<polygon fill="#b43f3f" stroke="#b43f3f" points="445.497,-148.452 448.443,-138.275 439.794,-144.394 445.497,-148.452"/>
<text text-anchor="middle" x="456" y="-160.8" font-family="Times,serif" font-size="14.00">3 (76.7)</text>
</g>
<!-- P75 -->
<g id="node28" class="node"><title>P75</title>
<ellipse fill="#ff8a8a" stroke="#b43f3f" cx="324" cy="-295" rx="36.2938" ry="18"/>
<text text-anchor="middle" x="324" y="-291.3" font-family="Times,serif" font-size="14.00">P75 (a)</text>
</g>
</g>
</svg>
