<?xml version="1.0" encoding="UTF-8" standalone="no"?>
<!DOCTYPE svg PUBLIC "-//W3C//DTD SVG 1.1//EN"
 "http://www.w3.org/Graphics/SVG/1.1/DTD/svg11.dtd">
<!-- Generated by graphviz version 2.38.0 (20140413.2041)
 -->
<!-- Title: %3 Pages: 1 -->
<svg width="1080pt" height="408pt"
 viewBox="0.00 0.00 1079.79 408.00" xmlns="http://www.w3.org/2000/svg" xmlns:xlink="http://www.w3.org/1999/xlink">
<g id="graph0" class="graph" transform="scale(1 1) rotate(0) translate(4 404)">
<title>%3</title>
<polygon fill="white" stroke="none" points="-4,4 -4,-404 1075.79,-404 1075.79,4 -4,4"/>
<g id="clust1" class="cluster"><title>cluster_legend</title>
<path fill="none" stroke="black" d="M408.397,-264C408.397,-264 598.397,-264 598.397,-264 604.397,-264 610.397,-270 610.397,-276 610.397,-276 610.397,-380 610.397,-380 610.397,-386 604.397,-392 598.397,-392 598.397,-392 408.397,-392 408.397,-392 402.397,-392 396.397,-386 396.397,-380 396.397,-380 396.397,-276 396.397,-276 396.397,-270 402.397,-264 408.397,-264"/>
</g>
<!-- leg_s -->
<g id="node1" class="node"><title>leg_s</title>
<text text-anchor="middle" x="503.397" y="-362.3" font-family="Times,serif" font-size="14.00">Textual flow strength</text>
</g>
<!-- leg_e1 -->
<!-- leg_s&#45;&gt;leg_e1 -->
<g id="edge1" class="edge"><title>leg_s&#45;&gt;leg_e1</title>
<path fill="none" stroke="black" stroke-dasharray="1,5" d="M485.062,-347.686C479.529,-342.194 473.557,-335.989 468.397,-330 458.568,-318.593 448.469,-304.779 441.31,-294.563"/>
<polygon fill="black" stroke="black" points="444.011,-292.314 435.453,-286.068 438.248,-296.288 444.011,-292.314"/>
<text text-anchor="middle" x="483.897" y="-318.8" font-family="Times,serif" font-size="14.00">&lt;=5 &#160;</text>
</g>
<!-- leg_e2 -->
<!-- leg_s&#45;&gt;leg_e2 -->
<g id="edge2" class="edge"><title>leg_s&#45;&gt;leg_e2</title>
<path fill="none" stroke="black" stroke-dasharray="5,2" d="M503.397,-347.799C503.397,-332.794 503.397,-311.174 503.397,-296.409"/>
<polygon fill="black" stroke="black" points="506.897,-296.293 503.397,-286.293 499.897,-296.293 506.897,-296.293"/>
<text text-anchor="middle" x="522.397" y="-318.8" font-family="Times,serif" font-size="14.00"> &#160;&lt;=25</text>
</g>
<!-- leg_e3 -->
<!-- leg_s&#45;&gt;leg_e3 -->
<g id="edge3" class="edge"><title>leg_s&#45;&gt;leg_e3</title>
<path fill="none" stroke="black" d="M526.9,-347.76C533.303,-342.462 539.963,-336.344 545.397,-330 554.484,-319.39 562.492,-305.689 567.943,-295.313"/>
<polygon fill="black" stroke="black" points="571.119,-296.789 572.488,-286.283 564.866,-293.642 571.119,-296.789"/>
<text text-anchor="middle" x="567.397" y="-318.8" font-family="Times,serif" font-size="14.00">&gt;25</text>
</g>
<!-- A -->
<g id="node5" class="node"><title>A</title>
<ellipse fill="#ff8a8a" stroke="#b43f3f" cx="829.397" cy="-366" rx="29.4969" ry="18"/>
<text text-anchor="middle" x="829.397" y="-362.3" font-family="Times,serif" font-size="14.00">A (a)</text>
</g>
<!-- 01 -->
<g id="node6" class="node"><title>01</title>
<ellipse fill="#ff8a8a" stroke="#b43f3f" cx="652.397" cy="-279" rx="31.6951" ry="18"/>
<text text-anchor="middle" x="652.397" y="-275.3" font-family="Times,serif" font-size="14.00">01 (a)</text>
</g>
<!-- A&#45;&gt;01 -->
<g id="edge4" class="edge"><title>A&#45;&gt;01</title>
<path fill="none" stroke="#b43f3f" stroke-dasharray="5,2" d="M802.464,-358.944C779.804,-353.249 746.945,-343.565 720.397,-330 705.024,-322.145 689.398,-310.931 677.009,-301.112"/>
<polygon fill="#b43f3f" stroke="#b43f3f" points="678.959,-298.187 668.992,-294.596 674.545,-303.619 678.959,-298.187"/>
<text text-anchor="middle" x="742.397" y="-318.8" font-family="Times,serif" font-size="14.00">1 (57.1)</text>
</g>
<!-- P75 -->
<g id="node7" class="node"><title>P75</title>
<ellipse fill="#ff8a8a" stroke="#b43f3f" cx="738.397" cy="-279" rx="36.2938" ry="18"/>
<text text-anchor="middle" x="738.397" y="-275.3" font-family="Times,serif" font-size="14.00">P75 (a)</text>
</g>
<!-- A&#45;&gt;P75 -->
<g id="edge5" class="edge"><title>A&#45;&gt;P75</title>
<path fill="none" stroke="#b43f3f" stroke-dasharray="1,5" d="M809.92,-352.326C800.869,-346.06 790.189,-338.113 781.397,-330 772.853,-322.115 764.321,-312.619 757.136,-304.029"/>
<polygon fill="#b43f3f" stroke="#b43f3f" points="759.741,-301.685 750.704,-296.155 754.32,-306.113 759.741,-301.685"/>
<text text-anchor="middle" x="803.397" y="-318.8" font-family="Times,serif" font-size="14.00">1 (93.3)</text>
</g>
<!-- 019 -->
<g id="node8" class="node"><title>019</title>
<ellipse fill="#ff8a8a" stroke="#b43f3f" cx="829.397" cy="-279" rx="36.2938" ry="18"/>
<text text-anchor="middle" x="829.397" y="-275.3" font-family="Times,serif" font-size="14.00">019 (a)</text>
</g>
<!-- A&#45;&gt;019 -->
<g id="edge6" class="edge"><title>A&#45;&gt;019</title>
<path fill="none" stroke="#b43f3f" stroke-dasharray="1,5" d="M829.397,-347.799C829.397,-336.163 829.397,-320.548 829.397,-307.237"/>
<polygon fill="#b43f3f" stroke="#b43f3f" points="832.897,-307.175 829.397,-297.175 825.897,-307.175 832.897,-307.175"/>
<text text-anchor="middle" x="851.397" y="-318.8" font-family="Times,serif" font-size="14.00">1 (93.3)</text>
</g>
<!-- 03 -->
<g id="node9" class="node"><title>03</title>
<ellipse fill="#ff8a8a" stroke="#b43f3f" cx="915.397" cy="-279" rx="31.6951" ry="18"/>
<text text-anchor="middle" x="915.397" y="-275.3" font-family="Times,serif" font-size="14.00">03 (a)</text>
</g>
<!-- A&#45;&gt;03 -->
<g id="edge7" class="edge"><title>A&#45;&gt;03</title>
<path fill="none" stroke="#b43f3f" stroke-dasharray="1,5" d="M849.097,-352.561C858.197,-346.347 868.854,-338.375 877.397,-330 885.221,-322.329 892.759,-312.975 899.029,-304.442"/>
<polygon fill="#b43f3f" stroke="#b43f3f" points="901.894,-306.452 904.84,-296.275 896.191,-302.394 901.894,-306.452"/>
<text text-anchor="middle" x="912.397" y="-318.8" font-family="Times,serif" font-size="14.00">1 (93.3)</text>
</g>
<!-- 05 -->
<g id="node10" class="node"><title>05</title>
<ellipse fill="#ff8a8a" stroke="#b43f3f" cx="997.397" cy="-279" rx="31.6951" ry="18"/>
<text text-anchor="middle" x="997.397" y="-275.3" font-family="Times,serif" font-size="14.00">05 (a)</text>
</g>
<!-- A&#45;&gt;05 -->
<g id="edge8" class="edge"><title>A&#45;&gt;05</title>
<path fill="none" stroke="#b43f3f" stroke-dasharray="1,5" d="M857.036,-359.302C879.829,-353.874 912.506,-344.376 938.397,-330 951.68,-322.625 964.747,-312.001 975.195,-302.441"/>
<polygon fill="#b43f3f" stroke="#b43f3f" points="977.771,-304.822 982.634,-295.409 972.962,-299.735 977.771,-304.822"/>
<text text-anchor="middle" x="982.397" y="-318.8" font-family="Times,serif" font-size="14.00">2 (76.9)</text>
</g>
<!-- 063 -->
<g id="node17" class="node"><title>063</title>
<ellipse fill="#ff8a8a" stroke="#b43f3f" cx="590.397" cy="-192" rx="36.2938" ry="18"/>
<text text-anchor="middle" x="590.397" y="-188.3" font-family="Times,serif" font-size="14.00">063 (a)</text>
</g>
<!-- 019&#45;&gt;063 -->
<g id="edge13" class="edge"><title>019&#45;&gt;063</title>
<path fill="none" stroke="#b43f3f" stroke-dasharray="1,5" d="M801.202,-267.503C795.324,-265.336 789.163,-263.081 783.397,-261 730.023,-241.736 668.119,-220.039 629.108,-206.444"/>
<polygon fill="#b43f3f" stroke="#b43f3f" points="629.815,-202.985 619.22,-203.002 627.513,-209.595 629.815,-202.985"/>
<text text-anchor="middle" x="753.397" y="-231.8" font-family="Times,serif" font-size="14.00">1 (85.7)</text>
</g>
<!-- 044 -->
<g id="node11" class="node"><title>044</title>
<ellipse fill="#ff8a8a" stroke="#b43f3f" cx="863.397" cy="-192" rx="36.2938" ry="18"/>
<text text-anchor="middle" x="863.397" y="-188.3" font-family="Times,serif" font-size="14.00">044 (a)</text>
</g>
<!-- 03&#45;&gt;044 -->
<g id="edge14" class="edge"><title>03&#45;&gt;044</title>
<path fill="none" stroke="#b43f3f" stroke-dasharray="1,5" d="M899.187,-263.421C893.318,-257.517 887.007,-250.361 882.397,-243 877.891,-235.806 874.181,-227.375 871.272,-219.508"/>
<polygon fill="#b43f3f" stroke="#b43f3f" points="874.562,-218.311 868.017,-209.979 867.938,-220.573 874.562,-218.311"/>
<text text-anchor="middle" x="904.397" y="-231.8" font-family="Times,serif" font-size="14.00">1 (89.2)</text>
</g>
<!-- 02 -->
<g id="node18" class="node"><title>02</title>
<ellipse fill="#ff8a8a" stroke="#b43f3f" cx="949.397" cy="-192" rx="31.6951" ry="18"/>
<text text-anchor="middle" x="949.397" y="-188.3" font-family="Times,serif" font-size="14.00">02 (a)</text>
</g>
<!-- 03&#45;&gt;02 -->
<g id="edge15" class="edge"><title>03&#45;&gt;02</title>
<path fill="none" stroke="#b43f3f" stroke-dasharray="1,5" d="M922.114,-261.207C926.911,-249.216 933.456,-232.851 938.934,-219.157"/>
<polygon fill="#b43f3f" stroke="#b43f3f" points="942.229,-220.343 942.693,-209.758 935.73,-217.743 942.229,-220.343"/>
<text text-anchor="middle" x="957.397" y="-231.8" font-family="Times,serif" font-size="14.00">1 (86.5)</text>
</g>
<!-- 032 -->
<g id="node19" class="node"><title>032</title>
<ellipse fill="#ff8a8a" stroke="#b43f3f" cx="1035.4" cy="-192" rx="36.2938" ry="18"/>
<text text-anchor="middle" x="1035.4" y="-188.3" font-family="Times,serif" font-size="14.00">032 (a)</text>
</g>
<!-- 03&#45;&gt;032 -->
<g id="edge16" class="edge"><title>03&#45;&gt;032</title>
<path fill="none" stroke="#b43f3f" stroke-dasharray="1,5" d="M939.985,-267.466C953.365,-261.222 969.894,-252.651 983.397,-243 994.382,-235.148 1005.34,-225.042 1014.34,-215.973"/>
<polygon fill="#b43f3f" stroke="#b43f3f" points="1016.96,-218.292 1021.4,-208.67 1011.93,-213.427 1016.96,-218.292"/>
<text text-anchor="middle" x="1022.4" y="-231.8" font-family="Times,serif" font-size="14.00">1 (91.7)</text>
</g>
<!-- 022 -->
<g id="node12" class="node"><title>022</title>
<ellipse fill="#ff8a8a" stroke="#b43f3f" cx="863.397" cy="-105" rx="36.2938" ry="18"/>
<text text-anchor="middle" x="863.397" y="-101.3" font-family="Times,serif" font-size="14.00">022 (a)</text>
</g>
<!-- 044&#45;&gt;022 -->
<g id="edge9" class="edge"><title>044&#45;&gt;022</title>
<path fill="none" stroke="#b43f3f" stroke-dasharray="1,5" d="M863.397,-173.799C863.397,-162.163 863.397,-146.548 863.397,-133.237"/>
<polygon fill="#b43f3f" stroke="#b43f3f" points="866.897,-133.175 863.397,-123.175 859.897,-133.175 866.897,-133.175"/>
<text text-anchor="middle" x="885.397" y="-144.8" font-family="Times,serif" font-size="14.00">1 (91.7)</text>
</g>
<!-- 0141 -->
<g id="node13" class="node"><title>0141</title>
<ellipse fill="#ff8a8a" stroke="#b43f3f" cx="958.397" cy="-105" rx="40.0939" ry="18"/>
<text text-anchor="middle" x="958.397" y="-101.3" font-family="Times,serif" font-size="14.00">0141 (a)</text>
</g>
<!-- 044&#45;&gt;0141 -->
<g id="edge10" class="edge"><title>044&#45;&gt;0141</title>
<path fill="none" stroke="#b43f3f" stroke-dasharray="1,5" d="M884.127,-177.159C892.833,-171.025 902.891,-163.508 911.397,-156 920.56,-147.911 929.927,-138.276 937.863,-129.632"/>
<polygon fill="#b43f3f" stroke="#b43f3f" points="940.606,-131.816 944.702,-122.045 935.407,-127.129 940.606,-131.816"/>
<text text-anchor="middle" x="949.397" y="-144.8" font-family="Times,serif" font-size="14.00">1 (89.2)</text>
</g>
<!-- 031 -->
<g id="node14" class="node"><title>031</title>
<ellipse fill="#ff8a8a" stroke="#b43f3f" cx="127.397" cy="-105" rx="36.2938" ry="18"/>
<text text-anchor="middle" x="127.397" y="-101.3" font-family="Times,serif" font-size="14.00">031 (a)</text>
</g>
<!-- 013 -->
<g id="node15" class="node"><title>013</title>
<ellipse fill="#ff8a8a" stroke="#b43f3f" cx="36.3968" cy="-18" rx="36.2938" ry="18"/>
<text text-anchor="middle" x="36.3968" y="-14.3" font-family="Times,serif" font-size="14.00">013 (a)</text>
</g>
<!-- 031&#45;&gt;013 -->
<g id="edge11" class="edge"><title>031&#45;&gt;013</title>
<path fill="none" stroke="#b43f3f" stroke-dasharray="1,5" d="M106.025,-90.006C97.4044,-83.9634 87.5824,-76.5539 79.3968,-69 70.8527,-61.1154 62.3211,-51.6186 55.1364,-43.0293"/>
<polygon fill="#b43f3f" stroke="#b43f3f" points="57.741,-40.6853 48.7043,-35.1545 52.3196,-45.1135 57.741,-40.6853"/>
<text text-anchor="middle" x="101.397" y="-57.8" font-family="Times,serif" font-size="14.00">1 (97.1)</text>
</g>
<!-- 017 -->
<g id="node16" class="node"><title>017</title>
<ellipse fill="#cea8f4" stroke="#835da9" cx="127.397" cy="-18" rx="36.2938" ry="18"/>
<text text-anchor="middle" x="127.397" y="-14.3" font-family="Times,serif" font-size="14.00">017 (b)</text>
</g>
<!-- 031&#45;&gt;017 -->
<g id="edge12" class="edge"><title>031&#45;&gt;017</title>
<path fill="none" stroke="#835da9" stroke-dasharray="1,5" d="M127.397,-86.799C127.397,-75.1626 127.397,-59.5479 127.397,-46.2368"/>
<polygon fill="#835da9" stroke="#835da9" points="130.897,-46.1754 127.397,-36.1754 123.897,-46.1755 130.897,-46.1754"/>
<text text-anchor="middle" x="149.397" y="-57.8" font-family="Times,serif" font-size="14.00">1 (94.3)</text>
</g>
<!-- 063&#45;&gt;031 -->
<g id="edge17" class="edge"><title>063&#45;&gt;031</title>
<path fill="none" stroke="#b43f3f" stroke-dasharray="1,5" d="M556.726,-184.819C474.373,-169.7 262.828,-130.863 171.01,-114.007"/>
<polygon fill="#b43f3f" stroke="#b43f3f" points="171.409,-110.522 160.941,-112.158 170.145,-117.407 171.409,-110.522"/>
<text text-anchor="middle" x="409.397" y="-144.8" font-family="Times,serif" font-size="14.00">1 (95.8)</text>
</g>
<!-- 07 -->
<g id="node20" class="node"><title>07</title>
<ellipse fill="#ff8a8a" stroke="#b43f3f" cx="408.397" cy="-105" rx="31.6951" ry="18"/>
<text text-anchor="middle" x="408.397" y="-101.3" font-family="Times,serif" font-size="14.00">07 (a)</text>
</g>
<!-- 063&#45;&gt;07 -->
<g id="edge18" class="edge"><title>063&#45;&gt;07</title>
<path fill="none" stroke="#b43f3f" stroke-dasharray="1,5" d="M558.451,-183.368C536.208,-177.43 506.205,-168.156 481.397,-156 464.876,-147.905 447.836,-136.44 434.378,-126.531"/>
<polygon fill="#b43f3f" stroke="#b43f3f" points="436.187,-123.513 426.093,-120.295 431.978,-129.105 436.187,-123.513"/>
<text text-anchor="middle" x="503.397" y="-144.8" font-family="Times,serif" font-size="14.00">1 (96.6)</text>
</g>
<!-- 011 -->
<g id="node21" class="node"><title>011</title>
<ellipse fill="#ff8a8a" stroke="#b43f3f" cx="499.397" cy="-105" rx="36.2938" ry="18"/>
<text text-anchor="middle" x="499.397" y="-101.3" font-family="Times,serif" font-size="14.00">011 (a)</text>
</g>
<!-- 063&#45;&gt;011 -->
<g id="edge19" class="edge"><title>063&#45;&gt;011</title>
<path fill="none" stroke="#b43f3f" stroke-dasharray="1,5" d="M569.025,-177.006C560.404,-170.963 550.582,-163.554 542.397,-156 533.853,-148.115 525.321,-138.619 518.136,-130.029"/>
<polygon fill="#b43f3f" stroke="#b43f3f" points="520.741,-127.685 511.704,-122.155 515.32,-132.113 520.741,-127.685"/>
<text text-anchor="middle" x="564.397" y="-144.8" font-family="Times,serif" font-size="14.00">1 (93.1)</text>
</g>
<!-- 045 -->
<g id="node22" class="node"><title>045</title>
<ellipse fill="#ff8a8a" stroke="#b43f3f" cx="590.397" cy="-105" rx="36.2938" ry="18"/>
<text text-anchor="middle" x="590.397" y="-101.3" font-family="Times,serif" font-size="14.00">045 (a)</text>
</g>
<!-- 063&#45;&gt;045 -->
<g id="edge20" class="edge"><title>063&#45;&gt;045</title>
<path fill="none" stroke="#b43f3f" stroke-dasharray="1,5" d="M590.397,-173.799C590.397,-162.163 590.397,-146.548 590.397,-133.237"/>
<polygon fill="#b43f3f" stroke="#b43f3f" points="593.897,-133.175 590.397,-123.175 586.897,-133.175 593.897,-133.175"/>
<text text-anchor="middle" x="612.397" y="-144.8" font-family="Times,serif" font-size="14.00">1 (93.1)</text>
</g>
<!-- 021 -->
<g id="node23" class="node"><title>021</title>
<ellipse fill="#ff8a8a" stroke="#b43f3f" cx="681.397" cy="-105" rx="36.2938" ry="18"/>
<text text-anchor="middle" x="681.397" y="-101.3" font-family="Times,serif" font-size="14.00">021 (a)</text>
</g>
<!-- 063&#45;&gt;021 -->
<g id="edge21" class="edge"><title>063&#45;&gt;021</title>
<path fill="none" stroke="#b43f3f" stroke-dasharray="1,5" d="M611.768,-177.006C620.389,-170.963 630.211,-163.554 638.397,-156 646.941,-148.115 655.472,-138.619 662.657,-130.029"/>
<polygon fill="#b43f3f" stroke="#b43f3f" points="665.474,-132.113 669.089,-122.155 660.053,-127.685 665.474,-132.113"/>
<text text-anchor="middle" x="674.397" y="-144.8" font-family="Times,serif" font-size="14.00">1 (93.1)</text>
</g>
<!-- 028 -->
<g id="node24" class="node"><title>028</title>
<ellipse fill="#ff8a8a" stroke="#b43f3f" cx="772.397" cy="-105" rx="36.2938" ry="18"/>
<text text-anchor="middle" x="772.397" y="-101.3" font-family="Times,serif" font-size="14.00">028 (a)</text>
</g>
<!-- 063&#45;&gt;028 -->
<g id="edge22" class="edge"><title>063&#45;&gt;028</title>
<path fill="none" stroke="#b43f3f" stroke-dasharray="1,5" d="M622.664,-183.461C645.123,-177.566 675.405,-168.305 700.397,-156 716.525,-148.059 733.099,-136.801 746.273,-126.977"/>
<polygon fill="#b43f3f" stroke="#b43f3f" points="748.572,-129.626 754.401,-120.778 744.327,-124.06 748.572,-129.626"/>
<text text-anchor="middle" x="747.397" y="-144.8" font-family="Times,serif" font-size="14.00">1 (96.6)</text>
</g>
<!-- 0211 -->
<g id="node25" class="node"><title>0211</title>
<ellipse fill="#ff8a8a" stroke="#b43f3f" cx="222.397" cy="-18" rx="40.0939" ry="18"/>
<text text-anchor="middle" x="222.397" y="-14.3" font-family="Times,serif" font-size="14.00">0211 (a)</text>
</g>
<!-- 07&#45;&gt;0211 -->
<g id="edge23" class="edge"><title>07&#45;&gt;0211</title>
<path fill="none" stroke="#b43f3f" stroke-dasharray="1,5" d="M379.373,-96.9378C356.942,-90.9482 325.43,-81.3614 299.397,-69 282.346,-60.9037 264.593,-49.5986 250.436,-39.7859"/>
<polygon fill="#b43f3f" stroke="#b43f3f" points="252.311,-36.825 242.125,-33.911 248.271,-42.5412 252.311,-36.825"/>
<text text-anchor="middle" x="321.397" y="-57.8" font-family="Times,serif" font-size="14.00">2 (82.9)</text>
</g>
<!-- 037 -->
<g id="node26" class="node"><title>037</title>
<ellipse fill="#ff8a8a" stroke="#b43f3f" cx="317.397" cy="-18" rx="36.2938" ry="18"/>
<text text-anchor="middle" x="317.397" y="-14.3" font-family="Times,serif" font-size="14.00">037 (a)</text>
</g>
<!-- 07&#45;&gt;037 -->
<g id="edge24" class="edge"><title>07&#45;&gt;037</title>
<path fill="none" stroke="#b43f3f" stroke-dasharray="1,5" d="M387.978,-90.6717C379.134,-84.5121 368.886,-76.8337 360.397,-69 351.853,-61.1154 343.321,-51.6186 336.136,-43.0293"/>
<polygon fill="#b43f3f" stroke="#b43f3f" points="338.741,-40.6853 329.704,-35.1545 333.32,-45.1135 338.741,-40.6853"/>
<text text-anchor="middle" x="382.397" y="-57.8" font-family="Times,serif" font-size="14.00">1 (97.5)</text>
</g>
<!-- 034 -->
<g id="node27" class="node"><title>034</title>
<ellipse fill="#ff8a8a" stroke="#b43f3f" cx="408.397" cy="-18" rx="36.2938" ry="18"/>
<text text-anchor="middle" x="408.397" y="-14.3" font-family="Times,serif" font-size="14.00">034 (a)</text>
</g>
<!-- 07&#45;&gt;034 -->
<g id="edge25" class="edge"><title>07&#45;&gt;034</title>
<path fill="none" stroke="#b43f3f" stroke-dasharray="1,5" d="M408.397,-86.799C408.397,-75.1626 408.397,-59.5479 408.397,-46.2368"/>
<polygon fill="#b43f3f" stroke="#b43f3f" points="411.897,-46.1754 408.397,-36.1754 404.897,-46.1755 411.897,-46.1754"/>
<text text-anchor="middle" x="430.397" y="-57.8" font-family="Times,serif" font-size="14.00">1 (95.1)</text>
</g>
<!-- 030 -->
<g id="node28" class="node"><title>030</title>
<ellipse fill="#ff8a8a" stroke="#b43f3f" cx="499.397" cy="-18" rx="36.2938" ry="18"/>
<text text-anchor="middle" x="499.397" y="-14.3" font-family="Times,serif" font-size="14.00">030 (a)</text>
</g>
<!-- 07&#45;&gt;030 -->
<g id="edge26" class="edge"><title>07&#45;&gt;030</title>
<path fill="none" stroke="#b43f3f" stroke-dasharray="1,5" d="M428.816,-90.6717C437.659,-84.5121 447.908,-76.8337 456.397,-69 464.941,-61.1154 473.472,-51.6186 480.657,-43.0293"/>
<polygon fill="#b43f3f" stroke="#b43f3f" points="483.474,-45.1135 487.089,-35.1545 478.053,-40.6853 483.474,-45.1135"/>
<text text-anchor="middle" x="492.397" y="-57.8" font-family="Times,serif" font-size="14.00">1 (95.1)</text>
</g>
<!-- 038 -->
<g id="node29" class="node"><title>038</title>
<ellipse fill="#ff8a8a" stroke="#b43f3f" cx="590.397" cy="-18" rx="36.2938" ry="18"/>
<text text-anchor="middle" x="590.397" y="-14.3" font-family="Times,serif" font-size="14.00">038 (a)</text>
</g>
<!-- 045&#45;&gt;038 -->
<g id="edge27" class="edge"><title>045&#45;&gt;038</title>
<path fill="none" stroke="#b43f3f" stroke-dasharray="1,5" d="M590.397,-86.799C590.397,-75.1626 590.397,-59.5479 590.397,-46.2368"/>
<polygon fill="#b43f3f" stroke="#b43f3f" points="593.897,-46.1754 590.397,-36.1754 586.897,-46.1755 593.897,-46.1754"/>
<text text-anchor="middle" x="612.397" y="-57.8" font-family="Times,serif" font-size="14.00">1 (92.7)</text>
</g>
<!-- 036 -->
<g id="node30" class="node"><title>036</title>
<ellipse fill="#ff8a8a" stroke="#b43f3f" cx="681.397" cy="-18" rx="36.2938" ry="18"/>
<text text-anchor="middle" x="681.397" y="-14.3" font-family="Times,serif" font-size="14.00">036 (a)</text>
</g>
<!-- 021&#45;&gt;036 -->
<g id="edge28" class="edge"><title>021&#45;&gt;036</title>
<path fill="none" stroke="#b43f3f" stroke-dasharray="1,5" d="M681.397,-86.799C681.397,-75.1626 681.397,-59.5479 681.397,-46.2368"/>
<polygon fill="#b43f3f" stroke="#b43f3f" points="684.897,-46.1754 681.397,-36.1754 677.897,-46.1755 684.897,-46.1754"/>
<text text-anchor="middle" x="703.397" y="-57.8" font-family="Times,serif" font-size="14.00">1 (97.6)</text>
</g>
<!-- 047 -->
<g id="node31" class="node"><title>047</title>
<ellipse fill="#ff8a8a" stroke="#b43f3f" cx="772.397" cy="-18" rx="36.2938" ry="18"/>
<text text-anchor="middle" x="772.397" y="-14.3" font-family="Times,serif" font-size="14.00">047 (a)</text>
</g>
<!-- 021&#45;&gt;047 -->
<g id="edge29" class="edge"><title>021&#45;&gt;047</title>
<path fill="none" stroke="#b43f3f" stroke-dasharray="1,5" d="M702.768,-90.006C711.389,-83.9634 721.211,-76.5539 729.397,-69 737.941,-61.1154 746.472,-51.6186 753.657,-43.0293"/>
<polygon fill="#b43f3f" stroke="#b43f3f" points="756.474,-45.1135 760.089,-35.1545 751.053,-40.6853 756.474,-45.1135"/>
<text text-anchor="middle" x="765.397" y="-57.8" font-family="Times,serif" font-size="14.00">1 (95.1)</text>
</g>
</g>
</svg>
