<?xml version="1.0" encoding="UTF-8" standalone="no"?>
<!DOCTYPE svg PUBLIC "-//W3C//DTD SVG 1.1//EN"
 "http://www.w3.org/Graphics/SVG/1.1/DTD/svg11.dtd">
<!-- Generated by graphviz version 2.38.0 (20140413.2041)
 -->
<!-- Title: %3 Pages: 1 -->
<svg width="908pt" height="495pt"
 viewBox="0.00 0.00 907.69 495.00" xmlns="http://www.w3.org/2000/svg" xmlns:xlink="http://www.w3.org/1999/xlink">
<g id="graph0" class="graph" transform="scale(1 1) rotate(0) translate(4 491)">
<title>%3</title>
<polygon fill="white" stroke="none" points="-4,4 -4,-491 903.693,-491 903.693,4 -4,4"/>
<g id="clust1" class="cluster"><title>cluster_legend</title>
<path fill="none" stroke="black" d="M239.397,-351C239.397,-351 429.397,-351 429.397,-351 435.397,-351 441.397,-357 441.397,-363 441.397,-363 441.397,-467 441.397,-467 441.397,-473 435.397,-479 429.397,-479 429.397,-479 239.397,-479 239.397,-479 233.397,-479 227.397,-473 227.397,-467 227.397,-467 227.397,-363 227.397,-363 227.397,-357 233.397,-351 239.397,-351"/>
</g>
<!-- leg_s -->
<g id="node1" class="node"><title>leg_s</title>
<text text-anchor="middle" x="334.397" y="-449.3" font-family="Times,serif" font-size="14.00">Textual flow strength</text>
</g>
<!-- leg_e1 -->
<!-- leg_s&#45;&gt;leg_e1 -->
<g id="edge1" class="edge"><title>leg_s&#45;&gt;leg_e1</title>
<path fill="none" stroke="black" stroke-dasharray="1,5" d="M316.062,-434.686C310.529,-429.194 304.557,-422.989 299.397,-417 289.568,-405.593 279.469,-391.779 272.31,-381.563"/>
<polygon fill="black" stroke="black" points="275.011,-379.314 266.453,-373.068 269.248,-383.288 275.011,-379.314"/>
<text text-anchor="middle" x="314.897" y="-405.8" font-family="Times,serif" font-size="14.00">&lt;=5 &#160;</text>
</g>
<!-- leg_e2 -->
<!-- leg_s&#45;&gt;leg_e2 -->
<g id="edge2" class="edge"><title>leg_s&#45;&gt;leg_e2</title>
<path fill="none" stroke="black" stroke-dasharray="5,2" d="M334.397,-434.799C334.397,-419.794 334.397,-398.174 334.397,-383.409"/>
<polygon fill="black" stroke="black" points="337.897,-383.293 334.397,-373.293 330.897,-383.293 337.897,-383.293"/>
<text text-anchor="middle" x="353.397" y="-405.8" font-family="Times,serif" font-size="14.00"> &#160;&lt;=25</text>
</g>
<!-- leg_e3 -->
<!-- leg_s&#45;&gt;leg_e3 -->
<g id="edge3" class="edge"><title>leg_s&#45;&gt;leg_e3</title>
<path fill="none" stroke="black" d="M357.9,-434.76C364.303,-429.462 370.963,-423.344 376.397,-417 385.484,-406.39 393.492,-392.689 398.943,-382.313"/>
<polygon fill="black" stroke="black" points="402.119,-383.789 403.488,-373.283 395.866,-380.642 402.119,-383.789"/>
<text text-anchor="middle" x="398.397" y="-405.8" font-family="Times,serif" font-size="14.00">&gt;25</text>
</g>
<!-- 091 -->
<g id="node5" class="node"><title>091</title>
<ellipse fill="#ff8a8a" stroke="#b43f3f" cx="487.397" cy="-366" rx="36.2938" ry="18"/>
<text text-anchor="middle" x="487.397" y="-362.3" font-family="Times,serif" font-size="14.00">091 (a)</text>
</g>
<!-- 05 -->
<g id="node6" class="node"><title>05</title>
<ellipse fill="#ff8a8a" stroke="#b43f3f" cx="397.397" cy="-279" rx="31.6951" ry="18"/>
<text text-anchor="middle" x="397.397" y="-275.3" font-family="Times,serif" font-size="14.00">05 (a)</text>
</g>
<!-- 091&#45;&gt;05 -->
<g id="edge4" class="edge"><title>091&#45;&gt;05</title>
<path fill="none" stroke="#b43f3f" stroke-dasharray="1,5" d="M465.981,-351.054C457.354,-345.018 447.538,-337.601 439.397,-330 430.982,-322.144 422.635,-312.653 415.625,-304.06"/>
<polygon fill="#b43f3f" stroke="#b43f3f" points="418.32,-301.827 409.356,-296.18 412.842,-306.185 418.32,-301.827"/>
<text text-anchor="middle" x="461.397" y="-318.8" font-family="Times,serif" font-size="14.00">1 (87.5)</text>
</g>
<!-- 0211 -->
<g id="node7" class="node"><title>0211</title>
<ellipse fill="#ff8a8a" stroke="#b43f3f" cx="487.397" cy="-279" rx="40.0939" ry="18"/>
<text text-anchor="middle" x="487.397" y="-275.3" font-family="Times,serif" font-size="14.00">0211 (a)</text>
</g>
<!-- 091&#45;&gt;0211 -->
<g id="edge5" class="edge"><title>091&#45;&gt;0211</title>
<path fill="none" stroke="#b43f3f" stroke-dasharray="1,5" d="M487.397,-347.799C487.397,-336.163 487.397,-320.548 487.397,-307.237"/>
<polygon fill="#b43f3f" stroke="#b43f3f" points="490.897,-307.175 487.397,-297.175 483.897,-307.175 490.897,-307.175"/>
<text text-anchor="middle" x="509.397" y="-318.8" font-family="Times,serif" font-size="14.00">1 (83.3)</text>
</g>
<!-- A -->
<g id="node8" class="node"><title>A</title>
<ellipse fill="#ff8a8a" stroke="#b43f3f" cx="625.397" cy="-453" rx="29.4969" ry="18"/>
<text text-anchor="middle" x="625.397" y="-449.3" font-family="Times,serif" font-size="14.00">A (a)</text>
</g>
<!-- A&#45;&gt;091 -->
<g id="edge6" class="edge"><title>A&#45;&gt;091</title>
<path fill="none" stroke="#b43f3f" stroke-dasharray="1,5" d="M599.659,-444.162C582.152,-438.185 558.897,-428.948 540.397,-417 528.94,-409.601 517.733,-399.566 508.598,-390.428"/>
<polygon fill="#b43f3f" stroke="#b43f3f" points="510.919,-387.794 501.451,-383.04 505.888,-392.661 510.919,-387.794"/>
<text text-anchor="middle" x="562.397" y="-405.8" font-family="Times,serif" font-size="14.00">1 (87.5)</text>
</g>
<!-- P75 -->
<g id="node9" class="node"><title>P75</title>
<ellipse fill="#ff8a8a" stroke="#b43f3f" cx="582.397" cy="-366" rx="36.2938" ry="18"/>
<text text-anchor="middle" x="582.397" y="-362.3" font-family="Times,serif" font-size="14.00">P75 (a)</text>
</g>
<!-- A&#45;&gt;P75 -->
<g id="edge7" class="edge"><title>A&#45;&gt;P75</title>
<path fill="none" stroke="#b43f3f" stroke-dasharray="1,5" d="M609.12,-437.674C603.361,-431.802 597.34,-424.601 593.397,-417 589.795,-410.057 587.369,-401.979 585.737,-394.367"/>
<polygon fill="#b43f3f" stroke="#b43f3f" points="589.166,-393.658 583.967,-384.426 582.274,-394.885 589.166,-393.658"/>
<text text-anchor="middle" x="615.397" y="-405.8" font-family="Times,serif" font-size="14.00">1 (93.3)</text>
</g>
<!-- 03 -->
<g id="node10" class="node"><title>03</title>
<ellipse fill="#ff8a8a" stroke="#b43f3f" cx="668.397" cy="-366" rx="31.6951" ry="18"/>
<text text-anchor="middle" x="668.397" y="-362.3" font-family="Times,serif" font-size="14.00">03 (a)</text>
</g>
<!-- A&#45;&gt;03 -->
<g id="edge8" class="edge"><title>A&#45;&gt;03</title>
<path fill="none" stroke="#b43f3f" stroke-dasharray="1,5" d="M633.688,-435.611C639.835,-423.46 648.334,-406.66 655.383,-392.725"/>
<polygon fill="#b43f3f" stroke="#b43f3f" points="658.594,-394.132 659.985,-383.629 652.347,-390.972 658.594,-394.132"/>
<text text-anchor="middle" x="672.397" y="-405.8" font-family="Times,serif" font-size="14.00">1 (93.3)</text>
</g>
<!-- 019 -->
<g id="node11" class="node"><title>019</title>
<ellipse fill="#ff8a8a" stroke="#b43f3f" cx="754.397" cy="-366" rx="36.2938" ry="18"/>
<text text-anchor="middle" x="754.397" y="-362.3" font-family="Times,serif" font-size="14.00">019 (a)</text>
</g>
<!-- A&#45;&gt;019 -->
<g id="edge9" class="edge"><title>A&#45;&gt;019</title>
<path fill="none" stroke="#b43f3f" stroke-dasharray="1,5" d="M649.321,-442.563C664.034,-436.274 682.96,-427.291 698.397,-417 710.206,-409.128 722.101,-398.906 731.872,-389.758"/>
<polygon fill="#b43f3f" stroke="#b43f3f" points="734.418,-392.166 739.21,-382.717 729.571,-387.115 734.418,-392.166"/>
<text text-anchor="middle" x="740.397" y="-405.8" font-family="Times,serif" font-size="14.00">1 (93.3)</text>
</g>
<!-- 044 -->
<g id="node12" class="node"><title>044</title>
<ellipse fill="#ff8a8a" stroke="#b43f3f" cx="582.397" cy="-279" rx="36.2938" ry="18"/>
<text text-anchor="middle" x="582.397" y="-275.3" font-family="Times,serif" font-size="14.00">044 (a)</text>
</g>
<!-- 03&#45;&gt;044 -->
<g id="edge24" class="edge"><title>03&#45;&gt;044</title>
<path fill="none" stroke="#b43f3f" stroke-dasharray="1,5" d="M649.236,-351.58C640.941,-345.403 631.335,-337.737 623.397,-330 615.317,-322.126 607.262,-312.728 600.458,-304.217"/>
<polygon fill="#b43f3f" stroke="#b43f3f" points="603.028,-301.821 594.116,-296.09 597.509,-306.127 603.028,-301.821"/>
<text text-anchor="middle" x="645.397" y="-318.8" font-family="Times,serif" font-size="14.00">1 (89.2)</text>
</g>
<!-- 032 -->
<g id="node27" class="node"><title>032</title>
<ellipse fill="#ff8a8a" stroke="#b43f3f" cx="673.397" cy="-279" rx="36.2938" ry="18"/>
<text text-anchor="middle" x="673.397" y="-275.3" font-family="Times,serif" font-size="14.00">032 (a)</text>
</g>
<!-- 03&#45;&gt;032 -->
<g id="edge25" class="edge"><title>03&#45;&gt;032</title>
<path fill="none" stroke="#b43f3f" stroke-dasharray="1,5" d="M669.409,-347.799C670.093,-336.163 671.012,-320.548 671.795,-307.237"/>
<polygon fill="#b43f3f" stroke="#b43f3f" points="675.293,-307.364 672.386,-297.175 668.305,-306.953 675.293,-307.364"/>
<text text-anchor="middle" x="693.397" y="-318.8" font-family="Times,serif" font-size="14.00">1 (91.7)</text>
</g>
<!-- 02 -->
<g id="node28" class="node"><title>02</title>
<ellipse fill="#ff8a8a" stroke="#b43f3f" cx="759.397" cy="-279" rx="31.6951" ry="18"/>
<text text-anchor="middle" x="759.397" y="-275.3" font-family="Times,serif" font-size="14.00">02 (a)</text>
</g>
<!-- 03&#45;&gt;02 -->
<g id="edge26" class="edge"><title>03&#45;&gt;02</title>
<path fill="none" stroke="#b43f3f" stroke-dasharray="1,5" d="M689.535,-352.494C699.14,-346.323 710.35,-338.407 719.397,-330 727.581,-322.395 735.504,-313.055 742.109,-304.515"/>
<polygon fill="#b43f3f" stroke="#b43f3f" points="745.043,-306.437 748.237,-296.335 739.44,-302.24 745.043,-306.437"/>
<text text-anchor="middle" x="755.397" y="-318.8" font-family="Times,serif" font-size="14.00">1 (86.5)</text>
</g>
<!-- 07 -->
<g id="node13" class="node"><title>07</title>
<ellipse fill="#ff8a8a" stroke="#b43f3f" cx="247.397" cy="-192" rx="31.6951" ry="18"/>
<text text-anchor="middle" x="247.397" y="-188.3" font-family="Times,serif" font-size="14.00">07 (a)</text>
</g>
<!-- 044&#45;&gt;07 -->
<g id="edge10" class="edge"><title>044&#45;&gt;07</title>
<path fill="none" stroke="#b43f3f" stroke-dasharray="1,5" d="M554.979,-266.737C548.936,-264.574 542.512,-262.515 536.397,-261 477.213,-246.342 459.849,-256.527 400.397,-243 359.09,-233.601 313.053,-217.801 282.373,-206.476"/>
<polygon fill="#b43f3f" stroke="#b43f3f" points="283.57,-203.187 272.977,-202.97 281.123,-209.745 283.57,-203.187"/>
<text text-anchor="middle" x="422.397" y="-231.8" font-family="Times,serif" font-size="14.00">2 (83.8)</text>
</g>
<!-- 028 -->
<g id="node14" class="node"><title>028</title>
<ellipse fill="#ff8a8a" stroke="#b43f3f" cx="400.397" cy="-192" rx="36.2938" ry="18"/>
<text text-anchor="middle" x="400.397" y="-188.3" font-family="Times,serif" font-size="14.00">028 (a)</text>
</g>
<!-- 044&#45;&gt;028 -->
<g id="edge11" class="edge"><title>044&#45;&gt;028</title>
<path fill="none" stroke="#b43f3f" stroke-dasharray="1,5" d="M554.296,-267.232C548.411,-265.084 542.223,-262.906 536.397,-261 508.72,-251.946 499.751,-255.388 473.397,-243 456.861,-235.227 439.932,-223.883 426.545,-213.965"/>
<polygon fill="#b43f3f" stroke="#b43f3f" points="428.38,-210.963 418.299,-207.704 424.147,-216.539 428.38,-210.963"/>
<text text-anchor="middle" x="495.397" y="-231.8" font-family="Times,serif" font-size="14.00">2 (81.1)</text>
</g>
<!-- 021 -->
<g id="node15" class="node"><title>021</title>
<ellipse fill="#ff8a8a" stroke="#b43f3f" cx="491.397" cy="-192" rx="36.2938" ry="18"/>
<text text-anchor="middle" x="491.397" y="-188.3" font-family="Times,serif" font-size="14.00">021 (a)</text>
</g>
<!-- 044&#45;&gt;021 -->
<g id="edge12" class="edge"><title>044&#45;&gt;021</title>
<path fill="none" stroke="#b43f3f" stroke-dasharray="1,5" d="M561.025,-264.006C552.404,-257.963 542.582,-250.554 534.397,-243 525.853,-235.115 517.321,-225.619 510.136,-217.029"/>
<polygon fill="#b43f3f" stroke="#b43f3f" points="512.741,-214.685 503.704,-209.155 507.32,-219.113 512.741,-214.685"/>
<text text-anchor="middle" x="556.397" y="-231.8" font-family="Times,serif" font-size="14.00">2 (83.8)</text>
</g>
<!-- 022 -->
<g id="node16" class="node"><title>022</title>
<ellipse fill="#ff8a8a" stroke="#b43f3f" cx="582.397" cy="-192" rx="36.2938" ry="18"/>
<text text-anchor="middle" x="582.397" y="-188.3" font-family="Times,serif" font-size="14.00">022 (a)</text>
</g>
<!-- 044&#45;&gt;022 -->
<g id="edge13" class="edge"><title>044&#45;&gt;022</title>
<path fill="none" stroke="#b43f3f" stroke-dasharray="1,5" d="M582.397,-260.799C582.397,-249.163 582.397,-233.548 582.397,-220.237"/>
<polygon fill="#b43f3f" stroke="#b43f3f" points="585.897,-220.175 582.397,-210.175 578.897,-220.175 585.897,-220.175"/>
<text text-anchor="middle" x="604.397" y="-231.8" font-family="Times,serif" font-size="14.00">1 (91.7)</text>
</g>
<!-- 011 -->
<g id="node17" class="node"><title>011</title>
<ellipse fill="#ff8a8a" stroke="#b43f3f" cx="673.397" cy="-192" rx="36.2938" ry="18"/>
<text text-anchor="middle" x="673.397" y="-188.3" font-family="Times,serif" font-size="14.00">011 (a)</text>
</g>
<!-- 044&#45;&gt;011 -->
<g id="edge14" class="edge"><title>044&#45;&gt;011</title>
<path fill="none" stroke="#b43f3f" stroke-dasharray="1,5" d="M603.768,-264.006C612.389,-257.963 622.211,-250.554 630.397,-243 638.941,-235.115 647.472,-225.619 654.657,-217.029"/>
<polygon fill="#b43f3f" stroke="#b43f3f" points="657.474,-219.113 661.089,-209.155 652.053,-214.685 657.474,-219.113"/>
<text text-anchor="middle" x="666.397" y="-231.8" font-family="Times,serif" font-size="14.00">2 (86.5)</text>
</g>
<!-- 045 -->
<g id="node18" class="node"><title>045</title>
<ellipse fill="#ff8a8a" stroke="#b43f3f" cx="764.397" cy="-192" rx="36.2938" ry="18"/>
<text text-anchor="middle" x="764.397" y="-188.3" font-family="Times,serif" font-size="14.00">045 (a)</text>
</g>
<!-- 044&#45;&gt;045 -->
<g id="edge15" class="edge"><title>044&#45;&gt;045</title>
<path fill="none" stroke="#b43f3f" stroke-dasharray="1,5" d="M610.492,-267.213C616.377,-265.067 622.567,-262.894 628.397,-261 656.499,-251.871 665.67,-255.601 692.397,-243 708.657,-235.334 725.241,-224.096 738.388,-214.216"/>
<polygon fill="#b43f3f" stroke="#b43f3f" points="740.709,-216.847 746.494,-207.97 736.436,-211.302 740.709,-216.847"/>
<text text-anchor="middle" x="740.397" y="-231.8" font-family="Times,serif" font-size="14.00">2 (81.1)</text>
</g>
<!-- 0141 -->
<g id="node19" class="node"><title>0141</title>
<ellipse fill="#ff8a8a" stroke="#b43f3f" cx="859.397" cy="-192" rx="40.0939" ry="18"/>
<text text-anchor="middle" x="859.397" y="-188.3" font-family="Times,serif" font-size="14.00">0141 (a)</text>
</g>
<!-- 044&#45;&gt;0141 -->
<g id="edge16" class="edge"><title>044&#45;&gt;0141</title>
<path fill="none" stroke="#b43f3f" stroke-dasharray="1,5" d="M609.813,-266.728C615.856,-264.566 622.28,-262.509 628.397,-261 688.45,-246.186 707.521,-261.957 766.397,-243 788.537,-235.871 811.576,-223.526 829.184,-212.887"/>
<polygon fill="#b43f3f" stroke="#b43f3f" points="831.202,-215.754 837.864,-207.515 827.518,-209.802 831.202,-215.754"/>
<text text-anchor="middle" x="823.397" y="-231.8" font-family="Times,serif" font-size="14.00">1 (89.2)</text>
</g>
<!-- 017 -->
<g id="node20" class="node"><title>017</title>
<ellipse fill="#ff8a8a" stroke="#b43f3f" cx="36.3968" cy="-105" rx="36.2938" ry="18"/>
<text text-anchor="middle" x="36.3968" y="-101.3" font-family="Times,serif" font-size="14.00">017 (a)</text>
</g>
<!-- 07&#45;&gt;017 -->
<g id="edge17" class="edge"><title>07&#45;&gt;017</title>
<path fill="none" stroke="#b43f3f" stroke-dasharray="1,5" d="M217.653,-185.43C190.979,-179.855 151.118,-170.076 118.397,-156 99.5751,-147.903 79.9289,-136.059 64.5866,-125.931"/>
<polygon fill="#b43f3f" stroke="#b43f3f" points="66.3386,-122.891 56.0893,-120.207 62.4277,-128.696 66.3386,-122.891"/>
<text text-anchor="middle" x="140.397" y="-144.8" font-family="Times,serif" font-size="14.00">2 (92.7)</text>
</g>
<!-- 037 -->
<g id="node21" class="node"><title>037</title>
<ellipse fill="#ff8a8a" stroke="#b43f3f" cx="127.397" cy="-105" rx="36.2938" ry="18"/>
<text text-anchor="middle" x="127.397" y="-101.3" font-family="Times,serif" font-size="14.00">037 (a)</text>
</g>
<!-- 07&#45;&gt;037 -->
<g id="edge18" class="edge"><title>07&#45;&gt;037</title>
<path fill="none" stroke="#b43f3f" stroke-dasharray="1,5" d="M223.827,-179.749C211.394,-173.413 196.123,-164.983 183.397,-156 171.802,-147.816 159.939,-137.548 150.134,-128.449"/>
<polygon fill="#b43f3f" stroke="#b43f3f" points="152.425,-125.798 142.756,-121.465 147.612,-130.882 152.425,-125.798"/>
<text text-anchor="middle" x="205.397" y="-144.8" font-family="Times,serif" font-size="14.00">1 (97.5)</text>
</g>
<!-- 030 -->
<g id="node22" class="node"><title>030</title>
<ellipse fill="#ff8a8a" stroke="#b43f3f" cx="218.397" cy="-105" rx="36.2938" ry="18"/>
<text text-anchor="middle" x="218.397" y="-101.3" font-family="Times,serif" font-size="14.00">030 (a)</text>
</g>
<!-- 07&#45;&gt;030 -->
<g id="edge19" class="edge"><title>07&#45;&gt;030</title>
<path fill="none" stroke="#b43f3f" stroke-dasharray="1,5" d="M241.667,-174.207C237.642,-162.409 232.173,-146.378 227.548,-132.822"/>
<polygon fill="#b43f3f" stroke="#b43f3f" points="230.755,-131.383 224.214,-123.049 224.13,-133.644 230.755,-131.383"/>
<text text-anchor="middle" x="257.397" y="-144.8" font-family="Times,serif" font-size="14.00">1 (95.1)</text>
</g>
<!-- 034 -->
<g id="node23" class="node"><title>034</title>
<ellipse fill="#ff8a8a" stroke="#b43f3f" cx="309.397" cy="-105" rx="36.2938" ry="18"/>
<text text-anchor="middle" x="309.397" y="-101.3" font-family="Times,serif" font-size="14.00">034 (a)</text>
</g>
<!-- 07&#45;&gt;034 -->
<g id="edge20" class="edge"><title>07&#45;&gt;034</title>
<path fill="none" stroke="#b43f3f" stroke-dasharray="1,5" d="M264.312,-176.669C270.763,-170.689 277.882,-163.414 283.397,-156 288.853,-148.665 293.789,-140.023 297.859,-132.006"/>
<polygon fill="#b43f3f" stroke="#b43f3f" points="301.013,-133.523 302.218,-122.997 294.712,-130.475 301.013,-133.523"/>
<text text-anchor="middle" x="315.397" y="-144.8" font-family="Times,serif" font-size="14.00">1 (95.1)</text>
</g>
<!-- 013 -->
<g id="node24" class="node"><title>013</title>
<ellipse fill="#72fe95" stroke="#27b34a" cx="400.397" cy="-105" rx="36.2938" ry="18"/>
<text text-anchor="middle" x="400.397" y="-101.3" font-family="Times,serif" font-size="14.00">013 (c)</text>
</g>
<!-- 07&#45;&gt;013 -->
<g id="edge21" class="edge"><title>07&#45;&gt;013</title>
<path fill="none" stroke="#27b34a" stroke-dasharray="1,5" d="M275.682,-183.286C294.964,-177.365 320.659,-168.143 341.397,-156 354.323,-148.431 367.188,-137.963 377.59,-128.561"/>
<polygon fill="#27b34a" stroke="#27b34a" points="380.087,-131.018 385.025,-121.644 375.319,-125.893 380.087,-131.018"/>
<text text-anchor="middle" x="384.397" y="-144.8" font-family="Times,serif" font-size="14.00">2 (95.1)</text>
</g>
<!-- 036 -->
<g id="node25" class="node"><title>036</title>
<ellipse fill="#ff8a8a" stroke="#b43f3f" cx="491.397" cy="-105" rx="36.2938" ry="18"/>
<text text-anchor="middle" x="491.397" y="-101.3" font-family="Times,serif" font-size="14.00">036 (a)</text>
</g>
<!-- 021&#45;&gt;036 -->
<g id="edge22" class="edge"><title>021&#45;&gt;036</title>
<path fill="none" stroke="#b43f3f" stroke-dasharray="1,5" d="M491.397,-173.799C491.397,-162.163 491.397,-146.548 491.397,-133.237"/>
<polygon fill="#b43f3f" stroke="#b43f3f" points="494.897,-133.175 491.397,-123.175 487.897,-133.175 494.897,-133.175"/>
<text text-anchor="middle" x="513.397" y="-144.8" font-family="Times,serif" font-size="14.00">1 (97.6)</text>
</g>
<!-- 047 -->
<g id="node26" class="node"><title>047</title>
<ellipse fill="#ff8a8a" stroke="#b43f3f" cx="582.397" cy="-105" rx="36.2938" ry="18"/>
<text text-anchor="middle" x="582.397" y="-101.3" font-family="Times,serif" font-size="14.00">047 (a)</text>
</g>
<!-- 021&#45;&gt;047 -->
<g id="edge23" class="edge"><title>021&#45;&gt;047</title>
<path fill="none" stroke="#b43f3f" stroke-dasharray="1,5" d="M512.768,-177.006C521.389,-170.963 531.211,-163.554 539.397,-156 547.941,-148.115 556.472,-138.619 563.657,-130.029"/>
<polygon fill="#b43f3f" stroke="#b43f3f" points="566.474,-132.113 570.089,-122.155 561.053,-127.685 566.474,-132.113"/>
<text text-anchor="middle" x="575.397" y="-144.8" font-family="Times,serif" font-size="14.00">1 (95.1)</text>
</g>
<!-- 038 -->
<g id="node29" class="node"><title>038</title>
<ellipse fill="#cea8f4" stroke="#835da9" cx="764.397" cy="-105" rx="36.2938" ry="18"/>
<text text-anchor="middle" x="764.397" y="-101.3" font-family="Times,serif" font-size="14.00">038 (b)</text>
</g>
<!-- 045&#45;&gt;038 -->
<g id="edge27" class="edge"><title>045&#45;&gt;038</title>
<path fill="none" stroke="#835da9" stroke-dasharray="1,5" d="M764.397,-173.799C764.397,-162.163 764.397,-146.548 764.397,-133.237"/>
<polygon fill="#835da9" stroke="#835da9" points="767.897,-133.175 764.397,-123.175 760.897,-133.175 767.897,-133.175"/>
<text text-anchor="middle" x="786.397" y="-144.8" font-family="Times,serif" font-size="14.00">1 (92.7)</text>
</g>
<!-- 01 -->
<g id="node30" class="node"><title>01</title>
<ellipse fill="#cea8f4" stroke="#835da9" cx="764.397" cy="-18" rx="32.4942" ry="18"/>
<text text-anchor="middle" x="764.397" y="-14.3" font-family="Times,serif" font-size="14.00">01 (b)</text>
</g>
<!-- 038&#45;&gt;01 -->
<g id="edge28" class="edge"><title>038&#45;&gt;01</title>
<path fill="none" stroke="#835da9" stroke-dasharray="1,5" d="M764.397,-86.799C764.397,-75.1626 764.397,-59.5479 764.397,-46.2368"/>
<polygon fill="#835da9" stroke="#835da9" points="767.897,-46.1754 764.397,-36.1754 760.897,-46.1755 767.897,-46.1754"/>
<text text-anchor="middle" x="786.397" y="-57.8" font-family="Times,serif" font-size="14.00">4 (44.7)</text>
</g>
</g>
</svg>
