<?xml version="1.0" encoding="UTF-8" standalone="no"?>
<!DOCTYPE svg PUBLIC "-//W3C//DTD SVG 1.1//EN"
 "http://www.w3.org/Graphics/SVG/1.1/DTD/svg11.dtd">
<!-- Generated by graphviz version 2.38.0 (20140413.2041)
 -->
<!-- Title: %3 Pages: 1 -->
<svg width="971pt" height="424pt"
 viewBox="0.00 0.00 971.00 424.00" xmlns="http://www.w3.org/2000/svg" xmlns:xlink="http://www.w3.org/1999/xlink">
<g id="graph0" class="graph" transform="scale(1 1) rotate(0) translate(4 420)">
<title>%3</title>
<polygon fill="white" stroke="none" points="-4,4 -4,-420 967,-420 967,4 -4,4"/>
<g id="clust1" class="cluster"><title>cluster_legend</title>
<path fill="none" stroke="black" d="M20,-280C20,-280 210,-280 210,-280 216,-280 222,-286 222,-292 222,-292 222,-396 222,-396 222,-402 216,-408 210,-408 210,-408 20,-408 20,-408 14,-408 8,-402 8,-396 8,-396 8,-292 8,-292 8,-286 14,-280 20,-280"/>
</g>
<g id="clust2" class="cluster"><title>cluster_reading</title>
<polygon fill="none" stroke="black" points="230,-8 230,-408 955,-408 955,-8 230,-8"/>
</g>
<!-- leg_s -->
<g id="node1" class="node"><title>leg_s</title>
<text text-anchor="middle" x="115" y="-378.3" font-family="Times,serif" font-size="14.00">Textual flow strength</text>
</g>
<!-- leg_e1 -->
<!-- leg_s&#45;&gt;leg_e1 -->
<g id="edge1" class="edge"><title>leg_s&#45;&gt;leg_e1</title>
<path fill="none" stroke="black" stroke-dasharray="1,5" d="M96.6657,-363.686C91.1324,-358.194 85.1607,-351.989 80,-346 70.1708,-334.593 60.0722,-320.779 52.9137,-310.563"/>
<polygon fill="black" stroke="black" points="55.6142,-308.314 47.056,-302.068 49.8514,-312.288 55.6142,-308.314"/>
<text text-anchor="middle" x="95.5" y="-334.8" font-family="Times,serif" font-size="14.00">&lt;=5 &#160;</text>
</g>
<!-- leg_e2 -->
<!-- leg_s&#45;&gt;leg_e2 -->
<g id="edge2" class="edge"><title>leg_s&#45;&gt;leg_e2</title>
<path fill="none" stroke="black" stroke-dasharray="5,2" d="M115,-363.799C115,-348.794 115,-327.174 115,-312.409"/>
<polygon fill="black" stroke="black" points="118.5,-312.293 115,-302.293 111.5,-312.293 118.5,-312.293"/>
<text text-anchor="middle" x="134" y="-334.8" font-family="Times,serif" font-size="14.00"> &#160;&lt;=25</text>
</g>
<!-- leg_e3 -->
<!-- leg_s&#45;&gt;leg_e3 -->
<g id="edge3" class="edge"><title>leg_s&#45;&gt;leg_e3</title>
<path fill="none" stroke="black" d="M138.503,-363.76C144.906,-358.462 151.567,-352.344 157,-346 166.087,-335.39 174.095,-321.689 179.546,-311.313"/>
<polygon fill="black" stroke="black" points="182.722,-312.789 184.091,-302.283 176.469,-309.642 182.722,-312.789"/>
<text text-anchor="middle" x="179" y="-334.8" font-family="Times,serif" font-size="14.00">&gt;25</text>
</g>
<!-- A -->
<g id="node5" class="node"><title>A</title>
<ellipse fill="#ff8a8a" stroke="#b43f3f" cx="667" cy="-382" rx="29.4969" ry="18"/>
<text text-anchor="middle" x="667" y="-378.3" font-family="Times,serif" font-size="14.00">A (a)</text>
</g>
<!-- 01 -->
<g id="node6" class="node"><title>01</title>
<ellipse fill="#ff8a8a" stroke="#b43f3f" cx="490" cy="-295" rx="31.6951" ry="18"/>
<text text-anchor="middle" x="490" y="-291.3" font-family="Times,serif" font-size="14.00">01 (a)</text>
</g>
<!-- A&#45;&gt;01 -->
<g id="edge4" class="edge"><title>A&#45;&gt;01</title>
<path fill="none" stroke="#b43f3f" stroke-dasharray="5,2" d="M640.067,-374.944C617.407,-369.249 584.548,-359.565 558,-346 542.627,-338.145 527.002,-326.931 514.612,-317.112"/>
<polygon fill="#b43f3f" stroke="#b43f3f" points="516.563,-314.187 506.595,-310.596 512.148,-319.619 516.563,-314.187"/>
<text text-anchor="middle" x="580" y="-334.8" font-family="Times,serif" font-size="14.00">1 (57.1)</text>
</g>
<!-- P75 -->
<g id="node7" class="node"><title>P75</title>
<ellipse fill="#ff8a8a" stroke="#b43f3f" cx="576" cy="-295" rx="36.2938" ry="18"/>
<text text-anchor="middle" x="576" y="-291.3" font-family="Times,serif" font-size="14.00">P75 (a)</text>
</g>
<!-- A&#45;&gt;P75 -->
<g id="edge5" class="edge"><title>A&#45;&gt;P75</title>
<path fill="none" stroke="#b43f3f" stroke-dasharray="1,5" d="M647.523,-368.326C638.472,-362.06 627.792,-354.113 619,-346 610.456,-338.115 601.924,-328.619 594.74,-320.029"/>
<polygon fill="#b43f3f" stroke="#b43f3f" points="597.344,-317.685 588.308,-312.155 591.923,-322.113 597.344,-317.685"/>
<text text-anchor="middle" x="641" y="-334.8" font-family="Times,serif" font-size="14.00">1 (93.3)</text>
</g>
<!-- 019 -->
<g id="node8" class="node"><title>019</title>
<ellipse fill="#ff8a8a" stroke="#b43f3f" cx="667" cy="-295" rx="36.2938" ry="18"/>
<text text-anchor="middle" x="667" y="-291.3" font-family="Times,serif" font-size="14.00">019 (a)</text>
</g>
<!-- A&#45;&gt;019 -->
<g id="edge6" class="edge"><title>A&#45;&gt;019</title>
<path fill="none" stroke="#b43f3f" stroke-dasharray="1,5" d="M667,-363.799C667,-352.163 667,-336.548 667,-323.237"/>
<polygon fill="#b43f3f" stroke="#b43f3f" points="670.5,-323.175 667,-313.175 663.5,-323.175 670.5,-323.175"/>
<text text-anchor="middle" x="689" y="-334.8" font-family="Times,serif" font-size="14.00">1 (93.3)</text>
</g>
<!-- 03 -->
<g id="node9" class="node"><title>03</title>
<ellipse fill="#ff8a8a" stroke="#b43f3f" cx="753" cy="-295" rx="31.6951" ry="18"/>
<text text-anchor="middle" x="753" y="-291.3" font-family="Times,serif" font-size="14.00">03 (a)</text>
</g>
<!-- A&#45;&gt;03 -->
<g id="edge7" class="edge"><title>A&#45;&gt;03</title>
<path fill="none" stroke="#b43f3f" stroke-dasharray="1,5" d="M686.7,-368.561C695.801,-362.347 706.457,-354.375 715,-346 722.825,-338.329 730.362,-328.975 736.632,-320.442"/>
<polygon fill="#b43f3f" stroke="#b43f3f" points="739.497,-322.452 742.443,-312.275 733.794,-318.394 739.497,-322.452"/>
<text text-anchor="middle" x="749" y="-334.8" font-family="Times,serif" font-size="14.00">1 (93.3)</text>
</g>
<!-- 05 -->
<g id="node10" class="node"><title>05</title>
<ellipse fill="#ff8a8a" stroke="#b43f3f" cx="835" cy="-295" rx="31.6951" ry="18"/>
<text text-anchor="middle" x="835" y="-291.3" font-family="Times,serif" font-size="14.00">05 (a)</text>
</g>
<!-- A&#45;&gt;05 -->
<g id="edge8" class="edge"><title>A&#45;&gt;05</title>
<path fill="none" stroke="#b43f3f" stroke-dasharray="1,5" d="M694.353,-375.202C716.917,-369.714 749.285,-360.184 775,-346 788.435,-338.589 801.716,-327.961 812.354,-318.407"/>
<polygon fill="#b43f3f" stroke="#b43f3f" points="814.978,-320.747 819.932,-311.382 810.219,-315.614 814.978,-320.747"/>
<text text-anchor="middle" x="818" y="-334.8" font-family="Times,serif" font-size="14.00">2 (76.9)</text>
</g>
<!-- 063 -->
<g id="node17" class="node"><title>063</title>
<ellipse fill="#ff8a8a" stroke="#b43f3f" cx="539" cy="-208" rx="36.2938" ry="18"/>
<text text-anchor="middle" x="539" y="-204.3" font-family="Times,serif" font-size="14.00">063 (a)</text>
</g>
<!-- 019&#45;&gt;063 -->
<g id="edge13" class="edge"><title>019&#45;&gt;063</title>
<path fill="none" stroke="#b43f3f" stroke-dasharray="1,5" d="M646.15,-280.154C625.044,-266.138 592.218,-244.34 568.46,-228.563"/>
<polygon fill="#b43f3f" stroke="#b43f3f" points="570.108,-225.456 559.841,-222.84 566.236,-231.288 570.108,-225.456"/>
<text text-anchor="middle" x="633" y="-247.8" font-family="Times,serif" font-size="14.00">1 (85.7)</text>
</g>
<!-- 044 -->
<g id="node11" class="node"><title>044</title>
<ellipse fill="#ff8a8a" stroke="#b43f3f" cx="739" cy="-208" rx="36.2938" ry="18"/>
<text text-anchor="middle" x="739" y="-204.3" font-family="Times,serif" font-size="14.00">044 (a)</text>
</g>
<!-- 03&#45;&gt;044 -->
<g id="edge14" class="edge"><title>03&#45;&gt;044</title>
<path fill="none" stroke="#b43f3f" stroke-dasharray="1,5" d="M750.167,-276.799C748.25,-265.163 745.678,-249.548 743.486,-236.237"/>
<polygon fill="#b43f3f" stroke="#b43f3f" points="746.908,-235.474 741.829,-226.175 740.001,-236.611 746.908,-235.474"/>
<text text-anchor="middle" x="768" y="-247.8" font-family="Times,serif" font-size="14.00">1 (89.2)</text>
</g>
<!-- 02 -->
<g id="node18" class="node"><title>02</title>
<ellipse fill="#ff8a8a" stroke="#b43f3f" cx="825" cy="-208" rx="31.6951" ry="18"/>
<text text-anchor="middle" x="825" y="-204.3" font-family="Times,serif" font-size="14.00">02 (a)</text>
</g>
<!-- 03&#45;&gt;02 -->
<g id="edge15" class="edge"><title>03&#45;&gt;02</title>
<path fill="none" stroke="#b43f3f" stroke-dasharray="1,5" d="M771.663,-280.12C779.089,-274.095 787.415,-266.668 794,-259 800.382,-251.569 806.333,-242.688 811.28,-234.487"/>
<polygon fill="#b43f3f" stroke="#b43f3f" points="814.427,-236.037 816.409,-225.63 808.369,-232.53 814.427,-236.037"/>
<text text-anchor="middle" x="826" y="-247.8" font-family="Times,serif" font-size="14.00">1 (86.5)</text>
</g>
<!-- 032 -->
<g id="node19" class="node"><title>032</title>
<ellipse fill="#ff8a8a" stroke="#b43f3f" cx="911" cy="-208" rx="36.2938" ry="18"/>
<text text-anchor="middle" x="911" y="-204.3" font-family="Times,serif" font-size="14.00">032 (a)</text>
</g>
<!-- 03&#45;&gt;032 -->
<g id="edge16" class="edge"><title>03&#45;&gt;032</title>
<path fill="none" stroke="#b43f3f" stroke-dasharray="1,5" d="M777.572,-283.381C782.95,-281.178 788.638,-278.939 794,-277 819.382,-267.821 828.339,-271.987 852,-259 865.131,-251.793 878.022,-241.372 888.389,-231.906"/>
<polygon fill="#b43f3f" stroke="#b43f3f" points="890.917,-234.333 895.786,-224.924 886.112,-229.243 890.917,-234.333"/>
<text text-anchor="middle" x="895" y="-247.8" font-family="Times,serif" font-size="14.00">1 (91.7)</text>
</g>
<!-- 022 -->
<g id="node12" class="node"><title>022</title>
<ellipse fill="#ff8a8a" stroke="#b43f3f" cx="812" cy="-121" rx="36.2938" ry="18"/>
<text text-anchor="middle" x="812" y="-117.3" font-family="Times,serif" font-size="14.00">022 (a)</text>
</g>
<!-- 044&#45;&gt;022 -->
<g id="edge9" class="edge"><title>044&#45;&gt;022</title>
<path fill="none" stroke="#b43f3f" stroke-dasharray="1,5" d="M752.731,-191.012C763.743,-178.19 779.358,-160.007 791.797,-145.524"/>
<polygon fill="#b43f3f" stroke="#b43f3f" points="794.471,-147.783 798.331,-137.916 789.16,-143.222 794.471,-147.783"/>
<text text-anchor="middle" x="801" y="-160.8" font-family="Times,serif" font-size="14.00">1 (91.7)</text>
</g>
<!-- 0141 -->
<g id="node13" class="node"><title>0141</title>
<ellipse fill="#ff8a8a" stroke="#b43f3f" cx="907" cy="-121" rx="40.0939" ry="18"/>
<text text-anchor="middle" x="907" y="-117.3" font-family="Times,serif" font-size="14.00">0141 (a)</text>
</g>
<!-- 044&#45;&gt;0141 -->
<g id="edge10" class="edge"><title>044&#45;&gt;0141</title>
<path fill="none" stroke="#b43f3f" stroke-dasharray="1,5" d="M767.411,-196.336C788.802,-188.188 816.218,-177.458 827,-172 844.305,-163.241 862.719,-151.886 877.512,-142.211"/>
<polygon fill="#b43f3f" stroke="#b43f3f" points="879.813,-144.886 886.214,-136.443 875.945,-139.051 879.813,-144.886"/>
<text text-anchor="middle" x="873" y="-160.8" font-family="Times,serif" font-size="14.00">1 (89.2)</text>
</g>
<!-- 031 -->
<g id="node14" class="node"><title>031</title>
<ellipse fill="#ff8a8a" stroke="#b43f3f" cx="276" cy="-121" rx="36.2938" ry="18"/>
<text text-anchor="middle" x="276" y="-117.3" font-family="Times,serif" font-size="14.00">031 (a)</text>
</g>
<!-- 013 -->
<g id="node15" class="node"><title>013</title>
<ellipse fill="#ff8a8a" stroke="#b43f3f" cx="274" cy="-34" rx="36.2938" ry="18"/>
<text text-anchor="middle" x="274" y="-30.3" font-family="Times,serif" font-size="14.00">013 (a)</text>
</g>
<!-- 031&#45;&gt;013 -->
<g id="edge11" class="edge"><title>031&#45;&gt;013</title>
<path fill="none" stroke="#b43f3f" stroke-dasharray="1,5" d="M275.595,-102.799C275.321,-91.1626 274.954,-75.5479 274.641,-62.2368"/>
<polygon fill="#b43f3f" stroke="#b43f3f" points="278.138,-62.0903 274.404,-52.1754 271.14,-62.255 278.138,-62.0903"/>
<text text-anchor="middle" x="298" y="-73.8" font-family="Times,serif" font-size="14.00">1 (97.1)</text>
</g>
<!-- 017 -->
<g id="node16" class="node"><title>017</title>
<ellipse fill="#ff8a8a" stroke="#b43f3f" cx="365" cy="-34" rx="36.2938" ry="18"/>
<text text-anchor="middle" x="365" y="-30.3" font-family="Times,serif" font-size="14.00">017 (a)</text>
</g>
<!-- 031&#45;&gt;017 -->
<g id="edge12" class="edge"><title>031&#45;&gt;017</title>
<path fill="none" stroke="#b43f3f" stroke-dasharray="1,5" d="M297.461,-106.102C306.095,-100.074 315.903,-92.6494 324,-85 332.201,-77.2521 340.281,-67.8817 347.073,-59.3567"/>
<polygon fill="#b43f3f" stroke="#b43f3f" points="350.031,-61.2531 353.39,-51.205 344.498,-56.965 350.031,-61.2531"/>
<text text-anchor="middle" x="360" y="-73.8" font-family="Times,serif" font-size="14.00">1 (94.3)</text>
</g>
<!-- 063&#45;&gt;031 -->
<g id="edge17" class="edge"><title>063&#45;&gt;031</title>
<path fill="none" stroke="#b43f3f" stroke-dasharray="1,5" d="M503.58,-203.595C466.947,-199.261 408.55,-190.058 361,-172 340.878,-164.359 320.02,-152.164 304.002,-141.731"/>
<polygon fill="#b43f3f" stroke="#b43f3f" points="305.899,-138.789 295.636,-136.156 302.017,-144.614 305.899,-138.789"/>
<text text-anchor="middle" x="383" y="-160.8" font-family="Times,serif" font-size="14.00">1 (95.8)</text>
</g>
<!-- 011 -->
<g id="node20" class="node"><title>011</title>
<ellipse fill="#ff8a8a" stroke="#b43f3f" cx="367" cy="-121" rx="36.2938" ry="18"/>
<text text-anchor="middle" x="367" y="-117.3" font-family="Times,serif" font-size="14.00">011 (a)</text>
</g>
<!-- 063&#45;&gt;011 -->
<g id="edge18" class="edge"><title>063&#45;&gt;011</title>
<path fill="none" stroke="#b43f3f" stroke-dasharray="1,5" d="M506.626,-199.68C484.528,-193.934 455.021,-184.76 431,-172 416.771,-164.442 402.494,-153.669 391.046,-144.058"/>
<polygon fill="#b43f3f" stroke="#b43f3f" points="393.108,-141.214 383.252,-137.327 388.533,-146.512 393.108,-141.214"/>
<text text-anchor="middle" x="453" y="-160.8" font-family="Times,serif" font-size="14.00">1 (93.1)</text>
</g>
<!-- 07 -->
<g id="node21" class="node"><title>07</title>
<ellipse fill="#ff8a8a" stroke="#b43f3f" cx="453" cy="-121" rx="31.6951" ry="18"/>
<text text-anchor="middle" x="453" y="-117.3" font-family="Times,serif" font-size="14.00">07 (a)</text>
</g>
<!-- 063&#45;&gt;07 -->
<g id="edge19" class="edge"><title>063&#45;&gt;07</title>
<path fill="none" stroke="#b43f3f" stroke-dasharray="1,5" d="M517.396,-193.25C508.74,-187.245 498.954,-179.798 491,-172 483.175,-164.329 475.638,-154.975 469.368,-146.442"/>
<polygon fill="#b43f3f" stroke="#b43f3f" points="472.206,-144.394 463.557,-138.275 466.503,-148.452 472.206,-144.394"/>
<text text-anchor="middle" x="513" y="-160.8" font-family="Times,serif" font-size="14.00">1 (96.6)</text>
</g>
<!-- 045 -->
<g id="node22" class="node"><title>045</title>
<ellipse fill="#ff8a8a" stroke="#b43f3f" cx="539" cy="-121" rx="36.2938" ry="18"/>
<text text-anchor="middle" x="539" y="-117.3" font-family="Times,serif" font-size="14.00">045 (a)</text>
</g>
<!-- 063&#45;&gt;045 -->
<g id="edge20" class="edge"><title>063&#45;&gt;045</title>
<path fill="none" stroke="#b43f3f" stroke-dasharray="1,5" d="M539,-189.799C539,-178.163 539,-162.548 539,-149.237"/>
<polygon fill="#b43f3f" stroke="#b43f3f" points="542.5,-149.175 539,-139.175 535.5,-149.175 542.5,-149.175"/>
<text text-anchor="middle" x="561" y="-160.8" font-family="Times,serif" font-size="14.00">1 (93.1)</text>
</g>
<!-- 021 -->
<g id="node23" class="node"><title>021</title>
<ellipse fill="#ff8a8a" stroke="#b43f3f" cx="630" cy="-121" rx="36.2938" ry="18"/>
<text text-anchor="middle" x="630" y="-117.3" font-family="Times,serif" font-size="14.00">021 (a)</text>
</g>
<!-- 063&#45;&gt;021 -->
<g id="edge21" class="edge"><title>063&#45;&gt;021</title>
<path fill="none" stroke="#b43f3f" stroke-dasharray="1,5" d="M560.372,-193.006C568.992,-186.963 578.814,-179.554 587,-172 595.544,-164.115 604.076,-154.619 611.26,-146.029"/>
<polygon fill="#b43f3f" stroke="#b43f3f" points="614.077,-148.113 617.692,-138.155 608.656,-143.685 614.077,-148.113"/>
<text text-anchor="middle" x="623" y="-160.8" font-family="Times,serif" font-size="14.00">1 (93.1)</text>
</g>
<!-- 028 -->
<g id="node24" class="node"><title>028</title>
<ellipse fill="#ff8a8a" stroke="#b43f3f" cx="721" cy="-121" rx="36.2938" ry="18"/>
<text text-anchor="middle" x="721" y="-117.3" font-family="Times,serif" font-size="14.00">028 (a)</text>
</g>
<!-- 063&#45;&gt;028 -->
<g id="edge22" class="edge"><title>063&#45;&gt;028</title>
<path fill="none" stroke="#b43f3f" stroke-dasharray="1,5" d="M571.267,-199.461C593.727,-193.566 624.009,-184.305 649,-172 665.128,-164.059 681.702,-152.801 694.877,-142.977"/>
<polygon fill="#b43f3f" stroke="#b43f3f" points="697.176,-145.626 703.004,-136.778 692.931,-140.06 697.176,-145.626"/>
<text text-anchor="middle" x="696" y="-160.8" font-family="Times,serif" font-size="14.00">1 (96.6)</text>
</g>
<!-- 037 -->
<g id="node25" class="node"><title>037</title>
<ellipse fill="#ff8a8a" stroke="#b43f3f" cx="456" cy="-34" rx="36.2938" ry="18"/>
<text text-anchor="middle" x="456" y="-30.3" font-family="Times,serif" font-size="14.00">037 (a)</text>
</g>
<!-- 07&#45;&gt;037 -->
<g id="edge23" class="edge"><title>07&#45;&gt;037</title>
<path fill="none" stroke="#b43f3f" stroke-dasharray="1,5" d="M453.607,-102.799C454.018,-91.1626 454.569,-75.5479 455.039,-62.2368"/>
<polygon fill="#b43f3f" stroke="#b43f3f" points="458.539,-62.2927 455.394,-52.1754 451.543,-62.0457 458.539,-62.2927"/>
<text text-anchor="middle" x="477" y="-73.8" font-family="Times,serif" font-size="14.00">1 (97.5)</text>
</g>
<!-- 034 -->
<g id="node26" class="node"><title>034</title>
<ellipse fill="#ff8a8a" stroke="#b43f3f" cx="547" cy="-34" rx="36.2938" ry="18"/>
<text text-anchor="middle" x="547" y="-30.3" font-family="Times,serif" font-size="14.00">034 (a)</text>
</g>
<!-- 07&#45;&gt;034 -->
<g id="edge24" class="edge"><title>07&#45;&gt;034</title>
<path fill="none" stroke="#b43f3f" stroke-dasharray="1,5" d="M473.776,-107.075C483.098,-100.876 493.998,-93.0548 503,-85 511.75,-77.1702 520.482,-67.6848 527.833,-59.0893"/>
<polygon fill="#b43f3f" stroke="#b43f3f" points="530.693,-61.1242 534.413,-51.2039 525.319,-56.6393 530.693,-61.1242"/>
<text text-anchor="middle" x="540" y="-73.8" font-family="Times,serif" font-size="14.00">1 (95.1)</text>
</g>
<!-- 030 -->
<g id="node27" class="node"><title>030</title>
<ellipse fill="#ff8a8a" stroke="#b43f3f" cx="638" cy="-34" rx="36.2938" ry="18"/>
<text text-anchor="middle" x="638" y="-30.3" font-family="Times,serif" font-size="14.00">030 (a)</text>
</g>
<!-- 07&#45;&gt;030 -->
<g id="edge25" class="edge"><title>07&#45;&gt;030</title>
<path fill="none" stroke="#b43f3f" stroke-dasharray="1,5" d="M477.493,-109.152C482.875,-106.963 488.586,-104.788 494,-103 525.321,-92.6548 535.963,-98.6299 566,-85 582.484,-77.5201 599.193,-66.1969 612.36,-56.2166"/>
<polygon fill="#b43f3f" stroke="#b43f3f" points="614.724,-58.8118 620.463,-49.906 610.423,-53.2891 614.724,-58.8118"/>
<text text-anchor="middle" x="614" y="-73.8" font-family="Times,serif" font-size="14.00">1 (95.1)</text>
</g>
<!-- 038 -->
<g id="node28" class="node"><title>038</title>
<ellipse fill="#ff8a8a" stroke="#b43f3f" cx="729" cy="-34" rx="36.2938" ry="18"/>
<text text-anchor="middle" x="729" y="-30.3" font-family="Times,serif" font-size="14.00">038 (a)</text>
</g>
<!-- 045&#45;&gt;038 -->
<g id="edge26" class="edge"><title>045&#45;&gt;038</title>
<path fill="none" stroke="#b43f3f" stroke-dasharray="1,5" d="M567.159,-109.403C573.04,-107.243 579.211,-105.016 585,-103 609.289,-94.5405 616.453,-95.3483 640,-85 660.124,-76.1558 681.64,-64.1448 698.475,-54.1115"/>
<polygon fill="#b43f3f" stroke="#b43f3f" points="700.559,-56.9414 707.307,-48.7737 696.938,-50.9505 700.559,-56.9414"/>
<text text-anchor="middle" x="693" y="-73.8" font-family="Times,serif" font-size="14.00">1 (92.7)</text>
</g>
<!-- 036 -->
<g id="node29" class="node"><title>036</title>
<ellipse fill="#ff8a8a" stroke="#b43f3f" cx="820" cy="-34" rx="36.2938" ry="18"/>
<text text-anchor="middle" x="820" y="-30.3" font-family="Times,serif" font-size="14.00">036 (a)</text>
</g>
<!-- 021&#45;&gt;036 -->
<g id="edge27" class="edge"><title>021&#45;&gt;036</title>
<path fill="none" stroke="#b43f3f" stroke-dasharray="1,5" d="M658.312,-109.57C675.927,-102.908 698.963,-93.8801 719,-85 741.905,-74.8488 767.165,-62.3433 786.694,-52.3784"/>
<polygon fill="#b43f3f" stroke="#b43f3f" points="788.487,-55.3924 795.785,-47.7121 785.29,-49.1648 788.487,-55.3924"/>
<text text-anchor="middle" x="771" y="-73.8" font-family="Times,serif" font-size="14.00">1 (97.6)</text>
</g>
<!-- 047 -->
<g id="node30" class="node"><title>047</title>
<ellipse fill="#ff8a8a" stroke="#b43f3f" cx="911" cy="-34" rx="36.2938" ry="18"/>
<text text-anchor="middle" x="911" y="-30.3" font-family="Times,serif" font-size="14.00">047 (a)</text>
</g>
<!-- 021&#45;&gt;047 -->
<g id="edge28" class="edge"><title>021&#45;&gt;047</title>
<path fill="none" stroke="#b43f3f" stroke-dasharray="1,5" d="M657.437,-108.811C663.478,-106.644 669.897,-104.564 676,-103 728.668,-89.5046 744.755,-100.052 797,-85 825.347,-76.8333 855.875,-63.1603 878.2,-52.1748"/>
<polygon fill="#b43f3f" stroke="#b43f3f" points="879.857,-55.2593 887.235,-47.6552 876.725,-48.9989 879.857,-55.2593"/>
<text text-anchor="middle" x="860" y="-73.8" font-family="Times,serif" font-size="14.00">1 (95.1)</text>
</g>
</g>
</svg>
