<?xml version="1.0" encoding="UTF-8" standalone="no"?>
<!DOCTYPE svg PUBLIC "-//W3C//DTD SVG 1.1//EN"
 "http://www.w3.org/Graphics/SVG/1.1/DTD/svg11.dtd">
<!-- Generated by graphviz version 2.38.0 (20140413.2041)
 -->
<!-- Title: G Pages: 1 -->
<svg width="878pt" height="332pt"
 viewBox="0.00 0.00 878.29 332.00" xmlns="http://www.w3.org/2000/svg" xmlns:xlink="http://www.w3.org/1999/xlink">
<g id="graph0" class="graph" transform="scale(1 1) rotate(0) translate(4 328)">
<title>G</title>
<polygon fill="white" stroke="none" points="-4,4 -4,-328 874.293,-328 874.293,4 -4,4"/>
<!-- 038 (a) -->
<g id="node1" class="node"><title>038 (a)</title>
<ellipse fill="#ff8a8a" stroke="#b43f3f" cx="827.397" cy="-90" rx="36.2938" ry="18"/>
<text text-anchor="middle" x="827.397" y="-86.3" font-family="Times,serif" font-size="14.00">038 (a)</text>
</g>
<!-- 032 (a) -->
<g id="node2" class="node"><title>032 (a)</title>
<ellipse fill="#ff8a8a" stroke="#b43f3f" cx="395.397" cy="-234" rx="36.2938" ry="18"/>
<text text-anchor="middle" x="395.397" y="-230.3" font-family="Times,serif" font-size="14.00">032 (a)</text>
</g>
<!-- 011/2 (a) -->
<g id="node3" class="node"><title>011/2 (a)</title>
<ellipse fill="#ff8a8a" stroke="#b43f3f" cx="137.397" cy="-162" rx="42.7926" ry="18"/>
<text text-anchor="middle" x="137.397" y="-158.3" font-family="Times,serif" font-size="14.00">011/2 (a)</text>
</g>
<!-- 013 (a) -->
<g id="node4" class="node"><title>013 (a)</title>
<ellipse fill="#ff8a8a" stroke="#b43f3f" cx="685.397" cy="-18" rx="36.2938" ry="18"/>
<text text-anchor="middle" x="685.397" y="-14.3" font-family="Times,serif" font-size="14.00">013 (a)</text>
</g>
<!-- 07/2 (a) -->
<g id="node5" class="node"><title>07/2 (a)</title>
<ellipse fill="#ff8a8a" stroke="#b43f3f" cx="236.397" cy="-162" rx="38.1938" ry="18"/>
<text text-anchor="middle" x="236.397" y="-158.3" font-family="Times,serif" font-size="14.00">07/2 (a)</text>
</g>
<!-- 034 (a) -->
<g id="node16" class="node"><title>034 (a)</title>
<ellipse fill="#ff8a8a" stroke="#b43f3f" cx="36.3968" cy="-90" rx="36.2938" ry="18"/>
<text text-anchor="middle" x="36.3968" y="-86.3" font-family="Times,serif" font-size="14.00">034 (a)</text>
</g>
<!-- 07/2 (a)&#45;&gt;034 (a) -->
<g id="edge4" class="edge"><title>07/2 (a)&#45;&gt;034 (a)</title>
<path fill="none" stroke="black" d="M207.099,-150.288C201.244,-148.18 195.131,-146.002 189.397,-144 142.024,-127.466 129.712,-124.698 82.3968,-108 79.6871,-107.044 76.8924,-106.044 74.0821,-105.029"/>
<polygon fill="black" stroke="black" points="75.1626,-101.698 64.5686,-101.56 72.7647,-108.274 75.1626,-101.698"/>
</g>
<!-- 0211/2 (a) -->
<g id="node22" class="node"><title>0211/2 (a)</title>
<ellipse fill="#ff8a8a" stroke="#b43f3f" cx="138.397" cy="-90" rx="47.3916" ry="18"/>
<text text-anchor="middle" x="138.397" y="-86.3" font-family="Times,serif" font-size="14.00">0211/2 (a)</text>
</g>
<!-- 07/2 (a)&#45;&gt;0211/2 (a) -->
<g id="edge1" class="edge"><title>07/2 (a)&#45;&gt;0211/2 (a)</title>
<path fill="none" stroke="black" d="M216.091,-146.496C202.184,-136.562 183.515,-123.227 167.963,-112.119"/>
<polygon fill="black" stroke="black" points="169.865,-109.176 159.693,-106.212 165.796,-114.872 169.865,-109.176"/>
</g>
<!-- 037 (a) -->
<g id="node24" class="node"><title>037 (a)</title>
<ellipse fill="#ff8a8a" stroke="#b43f3f" cx="240.397" cy="-90" rx="36.2938" ry="18"/>
<text text-anchor="middle" x="240.397" y="-86.3" font-family="Times,serif" font-size="14.00">037 (a)</text>
</g>
<!-- 07/2 (a)&#45;&gt;037 (a) -->
<g id="edge2" class="edge"><title>07/2 (a)&#45;&gt;037 (a)</title>
<path fill="none" stroke="black" d="M237.386,-143.697C237.826,-135.983 238.356,-126.712 238.847,-118.112"/>
<polygon fill="black" stroke="black" points="242.343,-118.288 239.419,-108.104 235.354,-117.888 242.343,-118.288"/>
</g>
<!-- 030 (a) -->
<g id="node25" class="node"><title>030 (a)</title>
<ellipse fill="#ff8a8a" stroke="#b43f3f" cx="331.397" cy="-90" rx="36.2938" ry="18"/>
<text text-anchor="middle" x="331.397" y="-86.3" font-family="Times,serif" font-size="14.00">030 (a)</text>
</g>
<!-- 07/2 (a)&#45;&gt;030 (a) -->
<g id="edge3" class="edge"><title>07/2 (a)&#45;&gt;030 (a)</title>
<path fill="none" stroke="black" d="M256.081,-146.496C269.838,-136.359 288.401,-122.681 303.655,-111.441"/>
<polygon fill="black" stroke="black" points="305.764,-114.235 311.738,-105.485 301.611,-108.6 305.764,-114.235"/>
</g>
<!-- 03 (a) -->
<g id="node6" class="node"><title>03 (a)</title>
<ellipse fill="#ff8a8a" stroke="#b43f3f" cx="486.397" cy="-306" rx="31.6951" ry="18"/>
<text text-anchor="middle" x="486.397" y="-302.3" font-family="Times,serif" font-size="14.00">03 (a)</text>
</g>
<!-- 03 (a)&#45;&gt;032 (a) -->
<g id="edge5" class="edge"><title>03 (a)&#45;&gt;032 (a)</title>
<path fill="none" stroke="black" d="M467.982,-290.834C454.957,-280.816 437.278,-267.216 422.628,-255.947"/>
<polygon fill="black" stroke="black" points="424.471,-252.949 414.411,-249.626 420.203,-258.498 424.471,-252.949"/>
</g>
<!-- 044 (a) -->
<g id="node7" class="node"><title>044 (a)</title>
<ellipse fill="#ff8a8a" stroke="#b43f3f" cx="486.397" cy="-234" rx="36.2938" ry="18"/>
<text text-anchor="middle" x="486.397" y="-230.3" font-family="Times,serif" font-size="14.00">044 (a)</text>
</g>
<!-- 03 (a)&#45;&gt;044 (a) -->
<g id="edge6" class="edge"><title>03 (a)&#45;&gt;044 (a)</title>
<path fill="none" stroke="black" d="M486.397,-287.697C486.397,-279.983 486.397,-270.712 486.397,-262.112"/>
<polygon fill="black" stroke="black" points="489.897,-262.104 486.397,-252.104 482.897,-262.104 489.897,-262.104"/>
</g>
<!-- 02 (a) -->
<g id="node9" class="node"><title>02 (a)</title>
<ellipse fill="#ff8a8a" stroke="#b43f3f" cx="572.397" cy="-234" rx="31.6951" ry="18"/>
<text text-anchor="middle" x="572.397" y="-230.3" font-family="Times,serif" font-size="14.00">02 (a)</text>
</g>
<!-- 03 (a)&#45;&gt;02 (a) -->
<g id="edge7" class="edge"><title>03 (a)&#45;&gt;02 (a)</title>
<path fill="none" stroke="black" d="M503.8,-290.834C516.273,-280.682 533.263,-266.853 547.214,-255.498"/>
<polygon fill="black" stroke="black" points="549.473,-258.172 555.019,-249.144 545.054,-252.743 549.473,-258.172"/>
</g>
<!-- 044 (a)&#45;&gt;011/2 (a) -->
<g id="edge12" class="edge"><title>044 (a)&#45;&gt;011/2 (a)</title>
<path fill="none" stroke="black" d="M458.966,-221.787C452.924,-219.621 446.504,-217.548 440.397,-216 331.154,-188.312 299.146,-205.606 189.397,-180 185.963,-179.199 182.431,-178.273 178.903,-177.274"/>
<polygon fill="black" stroke="black" points="179.634,-173.839 169.049,-174.314 177.62,-180.543 179.634,-173.839"/>
</g>
<!-- 044 (a)&#45;&gt;07/2 (a) -->
<g id="edge8" class="edge"><title>044 (a)&#45;&gt;07/2 (a)</title>
<path fill="none" stroke="black" d="M458.859,-222.176C452.824,-219.986 446.433,-217.804 440.397,-216 372.221,-195.626 352.71,-199.91 284.397,-180 281.299,-179.097 278.109,-178.106 274.915,-177.07"/>
<polygon fill="black" stroke="black" points="276.009,-173.746 265.415,-173.873 273.776,-180.38 276.009,-173.746"/>
</g>
<!-- 0141 (a) -->
<g id="node8" class="node"><title>0141 (a)</title>
<ellipse fill="#ff8a8a" stroke="#b43f3f" cx="333.397" cy="-162" rx="40.0939" ry="18"/>
<text text-anchor="middle" x="333.397" y="-158.3" font-family="Times,serif" font-size="14.00">0141 (a)</text>
</g>
<!-- 044 (a)&#45;&gt;0141 (a) -->
<g id="edge11" class="edge"><title>044 (a)&#45;&gt;0141 (a)</title>
<path fill="none" stroke="black" d="M460.442,-221.125C435.58,-209.75 397.825,-192.477 369.929,-179.714"/>
<polygon fill="black" stroke="black" points="371.06,-176.383 360.511,-175.405 368.148,-182.748 371.06,-176.383"/>
</g>
<!-- 021/2 (a) -->
<g id="node12" class="node"><title>021/2 (a)</title>
<ellipse fill="#ff8a8a" stroke="#b43f3f" cx="434.397" cy="-162" rx="42.7926" ry="18"/>
<text text-anchor="middle" x="434.397" y="-158.3" font-family="Times,serif" font-size="14.00">021/2 (a)</text>
</g>
<!-- 044 (a)&#45;&gt;021/2 (a) -->
<g id="edge9" class="edge"><title>044 (a)&#45;&gt;021/2 (a)</title>
<path fill="none" stroke="black" d="M474.336,-216.765C467.932,-208.143 459.925,-197.365 452.765,-187.727"/>
<polygon fill="black" stroke="black" points="455.526,-185.574 446.753,-179.633 449.907,-189.748 455.526,-185.574"/>
</g>
<!-- 028/2 (a) -->
<g id="node15" class="node"><title>028/2 (a)</title>
<ellipse fill="#ff8a8a" stroke="#b43f3f" cx="538.397" cy="-162" rx="42.7926" ry="18"/>
<text text-anchor="middle" x="538.397" y="-158.3" font-family="Times,serif" font-size="14.00">028/2 (a)</text>
</g>
<!-- 044 (a)&#45;&gt;028/2 (a) -->
<g id="edge10" class="edge"><title>044 (a)&#45;&gt;028/2 (a)</title>
<path fill="none" stroke="black" d="M498.457,-216.765C504.862,-208.143 512.869,-197.365 520.028,-187.727"/>
<polygon fill="black" stroke="black" points="522.887,-189.748 526.041,-179.633 517.268,-185.574 522.887,-189.748"/>
</g>
<!-- 05/3 (a) -->
<g id="node20" class="node"><title>05/3 (a)</title>
<ellipse fill="#ff8a8a" stroke="#b43f3f" cx="637.397" cy="-162" rx="38.1938" ry="18"/>
<text text-anchor="middle" x="637.397" y="-158.3" font-family="Times,serif" font-size="14.00">05/3 (a)</text>
</g>
<!-- 044 (a)&#45;&gt;05/3 (a) -->
<g id="edge14" class="edge"><title>044 (a)&#45;&gt;05/3 (a)</title>
<path fill="none" stroke="black" d="M512.012,-221.125C536.7,-209.681 574.268,-192.265 601.848,-179.48"/>
<polygon fill="black" stroke="black" points="603.548,-182.549 611.148,-175.168 600.604,-176.199 603.548,-182.549"/>
</g>
<!-- 022 (a) -->
<g id="node21" class="node"><title>022 (a)</title>
<ellipse fill="#ff8a8a" stroke="#b43f3f" cx="730.397" cy="-162" rx="36.2938" ry="18"/>
<text text-anchor="middle" x="730.397" y="-158.3" font-family="Times,serif" font-size="14.00">022 (a)</text>
</g>
<!-- 044 (a)&#45;&gt;022 (a) -->
<g id="edge15" class="edge"><title>044 (a)&#45;&gt;022 (a)</title>
<path fill="none" stroke="black" d="M513.807,-221.997C519.57,-219.867 525.646,-217.755 531.397,-216 598.213,-195.613 617.508,-200.146 684.397,-180 687.319,-179.12 690.324,-178.153 693.333,-177.141"/>
<polygon fill="black" stroke="black" points="694.573,-180.415 702.853,-173.805 692.258,-173.809 694.573,-180.415"/>
</g>
<!-- 045/2 (a) -->
<g id="node23" class="node"><title>045/2 (a)</title>
<ellipse fill="#ff8a8a" stroke="#b43f3f" cx="827.397" cy="-162" rx="42.7926" ry="18"/>
<text text-anchor="middle" x="827.397" y="-158.3" font-family="Times,serif" font-size="14.00">045/2 (a)</text>
</g>
<!-- 044 (a)&#45;&gt;045/2 (a) -->
<g id="edge13" class="edge"><title>044 (a)&#45;&gt;045/2 (a)</title>
<path fill="none" stroke="black" d="M513.22,-221.793C519.131,-219.627 525.415,-217.552 531.397,-216 637.502,-188.472 668.696,-205.122 775.397,-180 778.829,-179.192 782.359,-178.261 785.887,-177.259"/>
<polygon fill="black" stroke="black" points="787.173,-180.527 795.739,-174.293 785.155,-173.824 787.173,-180.527"/>
</g>
<!-- 019 (a) -->
<g id="node10" class="node"><title>019 (a)</title>
<ellipse fill="#ff8a8a" stroke="#b43f3f" cx="572.397" cy="-306" rx="36.2938" ry="18"/>
<text text-anchor="middle" x="572.397" y="-302.3" font-family="Times,serif" font-size="14.00">019 (a)</text>
</g>
<!-- P75 (a) -->
<g id="node11" class="node"><title>P75 (a)</title>
<ellipse fill="#ff8a8a" stroke="#b43f3f" cx="663.397" cy="-306" rx="36.2938" ry="18"/>
<text text-anchor="middle" x="663.397" y="-302.3" font-family="Times,serif" font-size="14.00">P75 (a)</text>
</g>
<!-- 036 (a) -->
<g id="node17" class="node"><title>036 (a)</title>
<ellipse fill="#ff8a8a" stroke="#b43f3f" cx="426.397" cy="-90" rx="36.2938" ry="18"/>
<text text-anchor="middle" x="426.397" y="-86.3" font-family="Times,serif" font-size="14.00">036 (a)</text>
</g>
<!-- 021/2 (a)&#45;&gt;036 (a) -->
<g id="edge16" class="edge"><title>021/2 (a)&#45;&gt;036 (a)</title>
<path fill="none" stroke="black" d="M432.419,-143.697C431.538,-135.983 430.478,-126.712 429.495,-118.112"/>
<polygon fill="black" stroke="black" points="432.964,-117.642 428.352,-108.104 426.01,-118.437 432.964,-117.642"/>
</g>
<!-- 047 (a) -->
<g id="node19" class="node"><title>047 (a)</title>
<ellipse fill="#ff8a8a" stroke="#b43f3f" cx="517.397" cy="-90" rx="36.2938" ry="18"/>
<text text-anchor="middle" x="517.397" y="-86.3" font-family="Times,serif" font-size="14.00">047 (a)</text>
</g>
<!-- 021/2 (a)&#45;&gt;047 (a) -->
<g id="edge17" class="edge"><title>021/2 (a)&#45;&gt;047 (a)</title>
<path fill="none" stroke="black" d="M452.817,-145.465C464.257,-135.817 479.127,-123.275 491.715,-112.66"/>
<polygon fill="black" stroke="black" points="494.21,-115.134 499.598,-106.011 489.697,-109.783 494.21,-115.134"/>
</g>
<!-- 031/2 (a) -->
<g id="node13" class="node"><title>031/2 (a)</title>
<ellipse fill="#ff8a8a" stroke="#b43f3f" cx="730.397" cy="-90" rx="42.7926" ry="18"/>
<text text-anchor="middle" x="730.397" y="-86.3" font-family="Times,serif" font-size="14.00">031/2 (a)</text>
</g>
<!-- 031/2 (a)&#45;&gt;013 (a) -->
<g id="edge19" class="edge"><title>031/2 (a)&#45;&gt;013 (a)</title>
<path fill="none" stroke="black" d="M719.732,-72.411C714.296,-63.9549 707.572,-53.4944 701.519,-44.0783"/>
<polygon fill="black" stroke="black" points="704.336,-41.9891 695.985,-35.4699 698.448,-45.7744 704.336,-41.9891"/>
</g>
<!-- 017 (a) -->
<g id="node18" class="node"><title>017 (a)</title>
<ellipse fill="#ff8a8a" stroke="#b43f3f" cx="776.397" cy="-18" rx="36.2938" ry="18"/>
<text text-anchor="middle" x="776.397" y="-14.3" font-family="Times,serif" font-size="14.00">017 (a)</text>
</g>
<!-- 031/2 (a)&#45;&gt;017 (a) -->
<g id="edge18" class="edge"><title>031/2 (a)&#45;&gt;017 (a)</title>
<path fill="none" stroke="black" d="M741.298,-72.411C746.855,-63.9549 753.729,-53.4944 759.917,-44.0783"/>
<polygon fill="black" stroke="black" points="763.007,-45.7492 765.574,-35.4699 757.157,-41.9049 763.007,-45.7492"/>
</g>
<!-- 01 (b) -->
<g id="node14" class="node"><title>01 (b)</title>
<ellipse fill="#cea8f4" stroke="#835da9" cx="750.397" cy="-306" rx="32.4942" ry="18"/>
<text text-anchor="middle" x="750.397" y="-302.3" font-family="Times,serif" font-size="14.00">01 (b)</text>
</g>
<!-- 022 (a)&#45;&gt;031/2 (a) -->
<g id="edge20" class="edge"><title>022 (a)&#45;&gt;031/2 (a)</title>
<path fill="none" stroke="black" d="M730.397,-143.697C730.397,-135.983 730.397,-126.712 730.397,-118.112"/>
<polygon fill="black" stroke="black" points="733.897,-118.104 730.397,-108.104 726.897,-118.104 733.897,-118.104"/>
</g>
<!-- 045/2 (a)&#45;&gt;038 (a) -->
<g id="edge21" class="edge"><title>045/2 (a)&#45;&gt;038 (a)</title>
<path fill="none" stroke="black" d="M827.397,-143.697C827.397,-135.983 827.397,-126.712 827.397,-118.112"/>
<polygon fill="black" stroke="black" points="830.897,-118.104 827.397,-108.104 823.897,-118.104 830.897,-118.104"/>
</g>
</g>
</svg>
