<?xml version="1.0" encoding="UTF-8" standalone="no"?>
<!DOCTYPE svg PUBLIC "-//W3C//DTD SVG 1.1//EN"
 "http://www.w3.org/Graphics/SVG/1.1/DTD/svg11.dtd">
<!-- Generated by graphviz version 2.38.0 (20140413.2041)
 -->
<!-- Title: %3 Pages: 1 -->
<svg width="980pt" height="408pt"
 viewBox="0.00 0.00 979.69 408.00" xmlns="http://www.w3.org/2000/svg" xmlns:xlink="http://www.w3.org/1999/xlink">
<g id="graph0" class="graph" transform="scale(1 1) rotate(0) translate(4 404)">
<title>%3</title>
<polygon fill="white" stroke="none" points="-4,4 -4,-404 975.694,-404 975.694,4 -4,4"/>
<g id="clust1" class="cluster"><title>cluster_legend</title>
<path fill="none" stroke="black" d="M85.8472,-264C85.8472,-264 275.847,-264 275.847,-264 281.847,-264 287.847,-270 287.847,-276 287.847,-276 287.847,-380 287.847,-380 287.847,-386 281.847,-392 275.847,-392 275.847,-392 85.8472,-392 85.8472,-392 79.8472,-392 73.8472,-386 73.8472,-380 73.8472,-380 73.8472,-276 73.8472,-276 73.8472,-270 79.8472,-264 85.8472,-264"/>
</g>
<!-- leg_s -->
<g id="node1" class="node"><title>leg_s</title>
<text text-anchor="middle" x="180.847" y="-362.3" font-family="Times,serif" font-size="14.00">Textual flow strength</text>
</g>
<!-- leg_e1 -->
<!-- leg_s&#45;&gt;leg_e1 -->
<g id="edge1" class="edge"><title>leg_s&#45;&gt;leg_e1</title>
<path fill="none" stroke="black" stroke-dasharray="1,5" d="M162.513,-347.686C156.98,-342.194 151.008,-335.989 145.847,-330 136.018,-318.593 125.919,-304.779 118.761,-294.563"/>
<polygon fill="black" stroke="black" points="121.461,-292.314 112.903,-286.068 115.699,-296.288 121.461,-292.314"/>
<text text-anchor="middle" x="161.347" y="-318.8" font-family="Times,serif" font-size="14.00">&lt;=5 &#160;</text>
</g>
<!-- leg_e2 -->
<!-- leg_s&#45;&gt;leg_e2 -->
<g id="edge2" class="edge"><title>leg_s&#45;&gt;leg_e2</title>
<path fill="none" stroke="black" stroke-dasharray="5,2" d="M180.847,-347.799C180.847,-332.794 180.847,-311.174 180.847,-296.409"/>
<polygon fill="black" stroke="black" points="184.347,-296.293 180.847,-286.293 177.347,-296.293 184.347,-296.293"/>
<text text-anchor="middle" x="199.847" y="-318.8" font-family="Times,serif" font-size="14.00"> &#160;&lt;=25</text>
</g>
<!-- leg_e3 -->
<!-- leg_s&#45;&gt;leg_e3 -->
<g id="edge3" class="edge"><title>leg_s&#45;&gt;leg_e3</title>
<path fill="none" stroke="black" d="M204.351,-347.76C210.753,-342.462 217.414,-336.344 222.847,-330 231.935,-319.39 239.942,-305.689 245.394,-295.313"/>
<polygon fill="black" stroke="black" points="248.569,-296.789 249.938,-286.283 242.316,-293.642 248.569,-296.789"/>
<text text-anchor="middle" x="244.847" y="-318.8" font-family="Times,serif" font-size="14.00">&gt;25</text>
</g>
<!-- 0141 -->
<g id="node5" class="node"><title>0141</title>
<ellipse fill="#ff8a8a" stroke="#b43f3f" cx="54.8472" cy="-105" rx="40.0939" ry="18"/>
<text text-anchor="middle" x="54.8472" y="-101.3" font-family="Times,serif" font-size="14.00">0141 (a)</text>
</g>
<!-- 05 -->
<g id="node6" class="node"><title>05</title>
<ellipse fill="#ff8a8a" stroke="#b43f3f" cx="31.8472" cy="-18" rx="31.6951" ry="18"/>
<text text-anchor="middle" x="31.8472" y="-14.3" font-family="Times,serif" font-size="14.00">05 (a)</text>
</g>
<!-- 0141&#45;&gt;05 -->
<g id="edge4" class="edge"><title>0141&#45;&gt;05</title>
<path fill="none" stroke="#b43f3f" stroke-dasharray="1,5" d="M50.1928,-86.799C46.992,-74.9701 42.6789,-59.0301 39.0389,-45.578"/>
<polygon fill="#b43f3f" stroke="#b43f3f" points="42.4067,-44.624 36.4162,-35.8854 35.6497,-46.4524 42.4067,-44.624"/>
<text text-anchor="middle" x="66.8472" y="-57.8" font-family="Times,serif" font-size="14.00">9 (70.6)</text>
</g>
<!-- 063 -->
<g id="node7" class="node"><title>063</title>
<ellipse fill="#cea8f4" stroke="#835da9" cx="580.847" cy="-192" rx="36.2938" ry="18"/>
<text text-anchor="middle" x="580.847" y="-188.3" font-family="Times,serif" font-size="14.00">063 (b)</text>
</g>
<!-- 07 -->
<g id="node8" class="node"><title>07</title>
<ellipse fill="#ff8a8a" stroke="#b43f3f" cx="303.847" cy="-105" rx="31.6951" ry="18"/>
<text text-anchor="middle" x="303.847" y="-101.3" font-family="Times,serif" font-size="14.00">07 (a)</text>
</g>
<!-- 063&#45;&gt;07 -->
<g id="edge5" class="edge"><title>063&#45;&gt;07</title>
<path fill="none" stroke="#b43f3f" stroke-dasharray="1,5" d="M550.676,-181.742C499.591,-166.066 396.229,-134.348 340.854,-117.356"/>
<polygon fill="#b43f3f" stroke="#b43f3f" points="341.683,-113.949 331.097,-114.362 339.63,-120.641 341.683,-113.949"/>
<text text-anchor="middle" x="481.847" y="-144.8" font-family="Times,serif" font-size="14.00">1 (96.6)</text>
</g>
<!-- 028 -->
<g id="node9" class="node"><title>028</title>
<ellipse fill="#ff8a8a" stroke="#b43f3f" cx="489.847" cy="-105" rx="36.2938" ry="18"/>
<text text-anchor="middle" x="489.847" y="-101.3" font-family="Times,serif" font-size="14.00">028 (a)</text>
</g>
<!-- 063&#45;&gt;028 -->
<g id="edge6" class="edge"><title>063&#45;&gt;028</title>
<path fill="none" stroke="#b43f3f" stroke-dasharray="1,5" d="M559.476,-177.006C550.855,-170.963 541.033,-163.554 532.847,-156 524.303,-148.115 515.771,-138.619 508.587,-130.029"/>
<polygon fill="#b43f3f" stroke="#b43f3f" points="511.191,-127.685 502.155,-122.155 505.77,-132.113 511.191,-127.685"/>
<text text-anchor="middle" x="554.847" y="-144.8" font-family="Times,serif" font-size="14.00">1 (96.6)</text>
</g>
<!-- 021 -->
<g id="node10" class="node"><title>021</title>
<ellipse fill="#ff8a8a" stroke="#b43f3f" cx="580.847" cy="-105" rx="36.2938" ry="18"/>
<text text-anchor="middle" x="580.847" y="-101.3" font-family="Times,serif" font-size="14.00">021 (a)</text>
</g>
<!-- 063&#45;&gt;021 -->
<g id="edge7" class="edge"><title>063&#45;&gt;021</title>
<path fill="none" stroke="#b43f3f" stroke-dasharray="1,5" d="M580.847,-173.799C580.847,-162.163 580.847,-146.548 580.847,-133.237"/>
<polygon fill="#b43f3f" stroke="#b43f3f" points="584.347,-133.175 580.847,-123.175 577.347,-133.175 584.347,-133.175"/>
<text text-anchor="middle" x="602.847" y="-144.8" font-family="Times,serif" font-size="14.00">1 (93.1)</text>
</g>
<!-- 045 -->
<g id="node11" class="node"><title>045</title>
<ellipse fill="#ff8a8a" stroke="#b43f3f" cx="671.847" cy="-105" rx="36.2938" ry="18"/>
<text text-anchor="middle" x="671.847" y="-101.3" font-family="Times,serif" font-size="14.00">045 (a)</text>
</g>
<!-- 063&#45;&gt;045 -->
<g id="edge8" class="edge"><title>063&#45;&gt;045</title>
<path fill="none" stroke="#b43f3f" stroke-dasharray="1,5" d="M602.219,-177.006C610.84,-170.963 620.662,-163.554 628.847,-156 637.391,-148.115 645.923,-138.619 653.108,-130.029"/>
<polygon fill="#b43f3f" stroke="#b43f3f" points="655.924,-132.113 659.54,-122.155 650.503,-127.685 655.924,-132.113"/>
<text text-anchor="middle" x="664.847" y="-144.8" font-family="Times,serif" font-size="14.00">1 (93.1)</text>
</g>
<!-- 031 -->
<g id="node12" class="node"><title>031</title>
<ellipse fill="#ff8a8a" stroke="#b43f3f" cx="762.847" cy="-105" rx="36.2938" ry="18"/>
<text text-anchor="middle" x="762.847" y="-101.3" font-family="Times,serif" font-size="14.00">031 (a)</text>
</g>
<!-- 063&#45;&gt;031 -->
<g id="edge9" class="edge"><title>063&#45;&gt;031</title>
<path fill="none" stroke="#b43f3f" stroke-dasharray="1,5" d="M613.114,-183.461C635.574,-177.566 665.856,-168.305 690.847,-156 706.975,-148.059 723.549,-136.801 736.724,-126.977"/>
<polygon fill="#b43f3f" stroke="#b43f3f" points="739.023,-129.626 744.852,-120.778 734.778,-124.06 739.023,-129.626"/>
<text text-anchor="middle" x="737.847" y="-144.8" font-family="Times,serif" font-size="14.00">1 (95.8)</text>
</g>
<!-- 011 -->
<g id="node13" class="node"><title>011</title>
<ellipse fill="#ff8a8a" stroke="#b43f3f" cx="853.847" cy="-105" rx="36.2938" ry="18"/>
<text text-anchor="middle" x="853.847" y="-101.3" font-family="Times,serif" font-size="14.00">011 (a)</text>
</g>
<!-- 063&#45;&gt;011 -->
<g id="edge10" class="edge"><title>063&#45;&gt;011</title>
<path fill="none" stroke="#b43f3f" stroke-dasharray="1,5" d="M616.476,-187.578C654.018,-183.197 714.435,-173.927 763.847,-156 785.113,-148.285 807.349,-135.977 824.399,-125.504"/>
<polygon fill="#b43f3f" stroke="#b43f3f" points="826.691,-128.197 833.298,-119.915 822.968,-122.269 826.691,-128.197"/>
<text text-anchor="middle" x="816.847" y="-144.8" font-family="Times,serif" font-size="14.00">1 (93.1)</text>
</g>
<!-- 037 -->
<g id="node14" class="node"><title>037</title>
<ellipse fill="#ff8a8a" stroke="#b43f3f" cx="117.847" cy="-18" rx="36.2938" ry="18"/>
<text text-anchor="middle" x="117.847" y="-14.3" font-family="Times,serif" font-size="14.00">037 (a)</text>
</g>
<!-- 07&#45;&gt;037 -->
<g id="edge11" class="edge"><title>07&#45;&gt;037</title>
<path fill="none" stroke="#b43f3f" stroke-dasharray="1,5" d="M275.911,-96.1686C248.137,-88.2084 207.608,-76.0708 192.847,-69 175.9,-60.882 158.35,-49.3789 144.492,-39.4524"/>
<polygon fill="#b43f3f" stroke="#b43f3f" points="146.516,-36.597 136.378,-33.5199 142.385,-42.2476 146.516,-36.597"/>
<text text-anchor="middle" x="214.847" y="-57.8" font-family="Times,serif" font-size="14.00">1 (97.5)</text>
</g>
<!-- 030 -->
<g id="node15" class="node"><title>030</title>
<ellipse fill="#ff8a8a" stroke="#b43f3f" cx="208.847" cy="-18" rx="36.2938" ry="18"/>
<text text-anchor="middle" x="208.847" y="-14.3" font-family="Times,serif" font-size="14.00">030 (a)</text>
</g>
<!-- 07&#45;&gt;030 -->
<g id="edge12" class="edge"><title>07&#45;&gt;030</title>
<path fill="none" stroke="#b43f3f" stroke-dasharray="1,5" d="M284.062,-90.8221C275.144,-84.5722 264.662,-76.7806 255.847,-69 246.684,-60.9115 237.317,-51.2757 229.38,-42.6319"/>
<polygon fill="#b43f3f" stroke="#b43f3f" points="231.837,-40.1295 222.541,-35.0454 226.638,-44.8165 231.837,-40.1295"/>
<text text-anchor="middle" x="277.847" y="-57.8" font-family="Times,serif" font-size="14.00">1 (95.1)</text>
</g>
<!-- 0211 -->
<g id="node16" class="node"><title>0211</title>
<ellipse fill="#ff8a8a" stroke="#b43f3f" cx="303.847" cy="-18" rx="40.0939" ry="18"/>
<text text-anchor="middle" x="303.847" y="-14.3" font-family="Times,serif" font-size="14.00">0211 (a)</text>
</g>
<!-- 07&#45;&gt;0211 -->
<g id="edge13" class="edge"><title>07&#45;&gt;0211</title>
<path fill="none" stroke="#b43f3f" stroke-dasharray="1,5" d="M303.847,-86.799C303.847,-75.1626 303.847,-59.5479 303.847,-46.2368"/>
<polygon fill="#b43f3f" stroke="#b43f3f" points="307.347,-46.1754 303.847,-36.1754 300.347,-46.1755 307.347,-46.1754"/>
<text text-anchor="middle" x="325.847" y="-57.8" font-family="Times,serif" font-size="14.00">2 (82.9)</text>
</g>
<!-- 034 -->
<g id="node17" class="node"><title>034</title>
<ellipse fill="#ff8a8a" stroke="#b43f3f" cx="398.847" cy="-18" rx="36.2938" ry="18"/>
<text text-anchor="middle" x="398.847" y="-14.3" font-family="Times,serif" font-size="14.00">034 (a)</text>
</g>
<!-- 07&#45;&gt;034 -->
<g id="edge14" class="edge"><title>07&#45;&gt;034</title>
<path fill="none" stroke="#b43f3f" stroke-dasharray="1,5" d="M323.633,-90.8221C332.55,-84.5722 343.033,-76.7806 351.847,-69 361.011,-60.9115 370.378,-51.2757 378.314,-42.6319"/>
<polygon fill="#b43f3f" stroke="#b43f3f" points="381.057,-44.8165 385.153,-35.0454 375.858,-40.1295 381.057,-44.8165"/>
<text text-anchor="middle" x="389.847" y="-57.8" font-family="Times,serif" font-size="14.00">1 (95.1)</text>
</g>
<!-- 036 -->
<g id="node18" class="node"><title>036</title>
<ellipse fill="#ff8a8a" stroke="#b43f3f" cx="489.847" cy="-18" rx="36.2938" ry="18"/>
<text text-anchor="middle" x="489.847" y="-14.3" font-family="Times,serif" font-size="14.00">036 (a)</text>
</g>
<!-- 021&#45;&gt;036 -->
<g id="edge15" class="edge"><title>021&#45;&gt;036</title>
<path fill="none" stroke="#b43f3f" stroke-dasharray="1,5" d="M559.476,-90.006C550.855,-83.9634 541.033,-76.5539 532.847,-69 524.303,-61.1154 515.771,-51.6186 508.587,-43.0293"/>
<polygon fill="#b43f3f" stroke="#b43f3f" points="511.191,-40.6853 502.155,-35.1545 505.77,-45.1135 511.191,-40.6853"/>
<text text-anchor="middle" x="554.847" y="-57.8" font-family="Times,serif" font-size="14.00">1 (97.6)</text>
</g>
<!-- 047 -->
<g id="node19" class="node"><title>047</title>
<ellipse fill="#ff8a8a" stroke="#b43f3f" cx="580.847" cy="-18" rx="36.2938" ry="18"/>
<text text-anchor="middle" x="580.847" y="-14.3" font-family="Times,serif" font-size="14.00">047 (a)</text>
</g>
<!-- 021&#45;&gt;047 -->
<g id="edge16" class="edge"><title>021&#45;&gt;047</title>
<path fill="none" stroke="#b43f3f" stroke-dasharray="1,5" d="M580.847,-86.799C580.847,-75.1626 580.847,-59.5479 580.847,-46.2368"/>
<polygon fill="#b43f3f" stroke="#b43f3f" points="584.347,-46.1754 580.847,-36.1754 577.347,-46.1755 584.347,-46.1754"/>
<text text-anchor="middle" x="602.847" y="-57.8" font-family="Times,serif" font-size="14.00">1 (95.1)</text>
</g>
<!-- 038 -->
<g id="node20" class="node"><title>038</title>
<ellipse fill="#ff8a8a" stroke="#b43f3f" cx="671.847" cy="-18" rx="36.2938" ry="18"/>
<text text-anchor="middle" x="671.847" y="-14.3" font-family="Times,serif" font-size="14.00">038 (a)</text>
</g>
<!-- 045&#45;&gt;038 -->
<g id="edge17" class="edge"><title>045&#45;&gt;038</title>
<path fill="none" stroke="#b43f3f" stroke-dasharray="1,5" d="M671.847,-86.799C671.847,-75.1626 671.847,-59.5479 671.847,-46.2368"/>
<polygon fill="#b43f3f" stroke="#b43f3f" points="675.347,-46.1754 671.847,-36.1754 668.347,-46.1755 675.347,-46.1754"/>
<text text-anchor="middle" x="693.847" y="-57.8" font-family="Times,serif" font-size="14.00">1 (92.7)</text>
</g>
<!-- 017 -->
<g id="node21" class="node"><title>017</title>
<ellipse fill="#ff8a8a" stroke="#b43f3f" cx="762.847" cy="-18" rx="36.2938" ry="18"/>
<text text-anchor="middle" x="762.847" y="-14.3" font-family="Times,serif" font-size="14.00">017 (a)</text>
</g>
<!-- 031&#45;&gt;017 -->
<g id="edge18" class="edge"><title>031&#45;&gt;017</title>
<path fill="none" stroke="#b43f3f" stroke-dasharray="1,5" d="M762.847,-86.799C762.847,-75.1626 762.847,-59.5479 762.847,-46.2368"/>
<polygon fill="#b43f3f" stroke="#b43f3f" points="766.347,-46.1754 762.847,-36.1754 759.347,-46.1755 766.347,-46.1754"/>
<text text-anchor="middle" x="784.847" y="-57.8" font-family="Times,serif" font-size="14.00">1 (94.3)</text>
</g>
<!-- 013 -->
<g id="node22" class="node"><title>013</title>
<ellipse fill="#ff8a8a" stroke="#b43f3f" cx="853.847" cy="-18" rx="36.2938" ry="18"/>
<text text-anchor="middle" x="853.847" y="-14.3" font-family="Times,serif" font-size="14.00">013 (a)</text>
</g>
<!-- 031&#45;&gt;013 -->
<g id="edge19" class="edge"><title>031&#45;&gt;013</title>
<path fill="none" stroke="#b43f3f" stroke-dasharray="1,5" d="M784.219,-90.006C792.84,-83.9634 802.662,-76.5539 810.847,-69 819.391,-61.1154 827.923,-51.6186 835.108,-43.0293"/>
<polygon fill="#b43f3f" stroke="#b43f3f" points="837.924,-45.1135 841.54,-35.1545 832.503,-40.6853 837.924,-45.1135"/>
<text text-anchor="middle" x="846.847" y="-57.8" font-family="Times,serif" font-size="14.00">1 (97.1)</text>
</g>
<!-- 01 -->
<g id="node23" class="node"><title>01</title>
<ellipse fill="#ff8a8a" stroke="#b43f3f" cx="939.847" cy="-18" rx="31.6951" ry="18"/>
<text text-anchor="middle" x="939.847" y="-14.3" font-family="Times,serif" font-size="14.00">01 (a)</text>
</g>
<!-- 031&#45;&gt;01 -->
<g id="edge20" class="edge"><title>031&#45;&gt;01</title>
<path fill="none" stroke="#b43f3f" stroke-dasharray="1,5" d="M790.942,-93.2129C796.828,-91.0671 803.017,-88.8939 808.847,-87 836.95,-77.8713 846.34,-82.0552 872.847,-69 888.187,-61.445 903.598,-50.2543 915.765,-40.3743"/>
<polygon fill="#b43f3f" stroke="#b43f3f" points="918.199,-42.9015 923.63,-33.8044 913.712,-37.5293 918.199,-42.9015"/>
<text text-anchor="middle" x="918.847" y="-57.8" font-family="Times,serif" font-size="14.00">2 (48.5)</text>
</g>
<!-- 044 -->
<g id="node24" class="node"><title>044</title>
<ellipse fill="#cea8f4" stroke="#835da9" cx="194.847" cy="-192" rx="36.2938" ry="18"/>
<text text-anchor="middle" x="194.847" y="-188.3" font-family="Times,serif" font-size="14.00">044 (b)</text>
</g>
<!-- 044&#45;&gt;0141 -->
<g id="edge21" class="edge"><title>044&#45;&gt;0141</title>
<path fill="none" stroke="#b43f3f" stroke-dasharray="1,5" d="M172.664,-177.531C149.49,-163.462 112.923,-141.26 86.6732,-125.323"/>
<polygon fill="#b43f3f" stroke="#b43f3f" points="88.2218,-122.169 77.8575,-119.971 84.589,-128.152 88.2218,-122.169"/>
<text text-anchor="middle" x="155.847" y="-144.8" font-family="Times,serif" font-size="14.00">1 (89.2)</text>
</g>
<!-- 022 -->
<g id="node25" class="node"><title>022</title>
<ellipse fill="#cea8f4" stroke="#835da9" cx="194.847" cy="-105" rx="36.2938" ry="18"/>
<text text-anchor="middle" x="194.847" y="-101.3" font-family="Times,serif" font-size="14.00">022 (b)</text>
</g>
<!-- 044&#45;&gt;022 -->
<g id="edge22" class="edge"><title>044&#45;&gt;022</title>
<path fill="none" stroke="#835da9" stroke-dasharray="1,5" d="M194.847,-173.799C194.847,-162.163 194.847,-146.548 194.847,-133.237"/>
<polygon fill="#835da9" stroke="#835da9" points="198.347,-133.175 194.847,-123.175 191.347,-133.175 198.347,-133.175"/>
<text text-anchor="middle" x="216.847" y="-144.8" font-family="Times,serif" font-size="14.00">1 (91.7)</text>
</g>
<!-- 03 -->
<g id="node26" class="node"><title>03</title>
<ellipse fill="#cea8f4" stroke="#835da9" cx="329.847" cy="-279" rx="32.4942" ry="18"/>
<text text-anchor="middle" x="329.847" y="-275.3" font-family="Times,serif" font-size="14.00">03 (b)</text>
</g>
<!-- 03&#45;&gt;044 -->
<g id="edge23" class="edge"><title>03&#45;&gt;044</title>
<path fill="none" stroke="#835da9" stroke-dasharray="1,5" d="M305.381,-266.881C300.893,-264.891 296.24,-262.86 291.847,-261 272.012,-252.6 264.946,-254.681 246.847,-243 235.502,-235.678 224.49,-225.655 215.543,-216.505"/>
<polygon fill="#835da9" stroke="#835da9" points="217.962,-213.969 208.551,-209.102 212.873,-218.775 217.962,-213.969"/>
<text text-anchor="middle" x="268.847" y="-231.8" font-family="Times,serif" font-size="14.00">1 (89.2)</text>
</g>
<!-- 032 -->
<g id="node27" class="node"><title>032</title>
<ellipse fill="#cea8f4" stroke="#835da9" cx="285.847" cy="-192" rx="36.2938" ry="18"/>
<text text-anchor="middle" x="285.847" y="-188.3" font-family="Times,serif" font-size="14.00">032 (b)</text>
</g>
<!-- 03&#45;&gt;032 -->
<g id="edge24" class="edge"><title>03&#45;&gt;032</title>
<path fill="none" stroke="#835da9" stroke-dasharray="1,5" d="M315.115,-262.944C310.023,-257.093 304.647,-250.096 300.847,-243 297.082,-235.97 294.133,-227.864 291.884,-220.254"/>
<polygon fill="#835da9" stroke="#835da9" points="295.196,-219.092 289.24,-210.33 288.432,-220.894 295.196,-219.092"/>
<text text-anchor="middle" x="322.847" y="-231.8" font-family="Times,serif" font-size="14.00">1 (91.7)</text>
</g>
<!-- 02 -->
<g id="node28" class="node"><title>02</title>
<ellipse fill="#cea8f4" stroke="#835da9" cx="372.847" cy="-192" rx="32.4942" ry="18"/>
<text text-anchor="middle" x="372.847" y="-188.3" font-family="Times,serif" font-size="14.00">02 (b)</text>
</g>
<!-- 03&#45;&gt;02 -->
<g id="edge25" class="edge"><title>03&#45;&gt;02</title>
<path fill="none" stroke="#835da9" stroke-dasharray="1,5" d="M338.343,-261.207C344.507,-249.021 352.957,-232.318 359.952,-218.491"/>
<polygon fill="#835da9" stroke="#835da9" points="363.125,-219.972 364.516,-209.469 356.878,-216.812 363.125,-219.972"/>
<text text-anchor="middle" x="376.847" y="-231.8" font-family="Times,serif" font-size="14.00">1 (86.5)</text>
</g>
<!-- A -->
<g id="node29" class="node"><title>A</title>
<ellipse fill="#cea8f4" stroke="#835da9" cx="484.847" cy="-366" rx="29.795" ry="18"/>
<text text-anchor="middle" x="484.847" y="-362.3" font-family="Times,serif" font-size="14.00">A (b)</text>
</g>
<!-- A&#45;&gt;03 -->
<g id="edge26" class="edge"><title>A&#45;&gt;03</title>
<path fill="none" stroke="#835da9" stroke-dasharray="1,5" d="M463.295,-353.181C436.76,-338.629 391.487,-313.803 361.126,-297.153"/>
<polygon fill="#835da9" stroke="#835da9" points="362.671,-294.008 352.22,-292.269 359.305,-300.146 362.671,-294.008"/>
<text text-anchor="middle" x="438.847" y="-318.8" font-family="Times,serif" font-size="14.00">1 (93.3)</text>
</g>
<!-- P75 -->
<g id="node30" class="node"><title>P75</title>
<ellipse fill="#cea8f4" stroke="#835da9" cx="484.847" cy="-279" rx="37.0935" ry="18"/>
<text text-anchor="middle" x="484.847" y="-275.3" font-family="Times,serif" font-size="14.00">P75 (b)</text>
</g>
<!-- A&#45;&gt;P75 -->
<g id="edge27" class="edge"><title>A&#45;&gt;P75</title>
<path fill="none" stroke="#835da9" stroke-dasharray="1,5" d="M484.847,-347.799C484.847,-336.163 484.847,-320.548 484.847,-307.237"/>
<polygon fill="#835da9" stroke="#835da9" points="488.347,-307.175 484.847,-297.175 481.347,-307.175 488.347,-307.175"/>
<text text-anchor="middle" x="506.847" y="-318.8" font-family="Times,serif" font-size="14.00">1 (93.3)</text>
</g>
<!-- 019 -->
<g id="node31" class="node"><title>019</title>
<ellipse fill="#cea8f4" stroke="#835da9" cx="578.847" cy="-279" rx="36.2938" ry="18"/>
<text text-anchor="middle" x="578.847" y="-275.3" font-family="Times,serif" font-size="14.00">019 (b)</text>
</g>
<!-- A&#45;&gt;019 -->
<g id="edge28" class="edge"><title>A&#45;&gt;019</title>
<path fill="none" stroke="#835da9" stroke-dasharray="1,5" d="M504.203,-352.193C513.228,-345.898 523.921,-337.965 532.847,-330 541.877,-321.943 551.057,-312.314 558.816,-303.666"/>
<polygon fill="#835da9" stroke="#835da9" points="561.519,-305.893 565.498,-296.074 556.264,-301.268 561.519,-305.893"/>
<text text-anchor="middle" x="569.847" y="-318.8" font-family="Times,serif" font-size="14.00">1 (93.3)</text>
</g>
<!-- 019&#45;&gt;063 -->
<g id="edge29" class="edge"><title>019&#45;&gt;063</title>
<path fill="none" stroke="#835da9" stroke-dasharray="1,5" d="M579.252,-260.799C579.526,-249.163 579.893,-233.548 580.206,-220.237"/>
<polygon fill="#835da9" stroke="#835da9" points="583.707,-220.255 580.443,-210.175 576.709,-220.09 583.707,-220.255"/>
<text text-anchor="middle" x="602.847" y="-231.8" font-family="Times,serif" font-size="14.00">1 (85.7)</text>
</g>
</g>
</svg>
