<?xml version="1.0" encoding="UTF-8" standalone="no"?>
<!DOCTYPE svg PUBLIC "-//W3C//DTD SVG 1.1//EN"
 "http://www.w3.org/Graphics/SVG/1.1/DTD/svg11.dtd">
<!-- Generated by graphviz version 2.38.0 (20140413.2041)
 -->
<!-- Title: %3 Pages: 1 -->
<svg width="598pt" height="163pt"
 viewBox="0.00 0.00 598.00 163.00" xmlns="http://www.w3.org/2000/svg" xmlns:xlink="http://www.w3.org/1999/xlink">
<g id="graph0" class="graph" transform="scale(1 1) rotate(0) translate(4 159)">
<title>%3</title>
<polygon fill="white" stroke="none" points="-4,4 -4,-159 594,-159 594,4 -4,4"/>
<g id="clust1" class="cluster"><title>cluster_legend</title>
<path fill="none" stroke="black" d="M20,-19C20,-19 210,-19 210,-19 216,-19 222,-25 222,-31 222,-31 222,-135 222,-135 222,-141 216,-147 210,-147 210,-147 20,-147 20,-147 14,-147 8,-141 8,-135 8,-135 8,-31 8,-31 8,-25 14,-19 20,-19"/>
</g>
<g id="clust2" class="cluster"><title>cluster_reading</title>
<polygon fill="none" stroke="black" points="230,-8 230,-147 582,-147 582,-8 230,-8"/>
</g>
<!-- leg_s -->
<g id="node1" class="node"><title>leg_s</title>
<text text-anchor="middle" x="115" y="-117.3" font-family="Times,serif" font-size="14.00">Textual flow strength</text>
</g>
<!-- leg_e1 -->
<!-- leg_s&#45;&gt;leg_e1 -->
<g id="edge1" class="edge"><title>leg_s&#45;&gt;leg_e1</title>
<path fill="none" stroke="black" stroke-dasharray="1,5" d="M96.6657,-102.686C91.1324,-97.1938 85.1607,-90.9891 80,-85 70.1708,-73.593 60.0722,-59.7786 52.9137,-49.5634"/>
<polygon fill="black" stroke="black" points="55.6142,-47.3142 47.056,-41.0685 49.8514,-51.2879 55.6142,-47.3142"/>
<text text-anchor="middle" x="95.5" y="-73.8" font-family="Times,serif" font-size="14.00">&lt;=5 &#160;</text>
</g>
<!-- leg_e2 -->
<!-- leg_s&#45;&gt;leg_e2 -->
<g id="edge2" class="edge"><title>leg_s&#45;&gt;leg_e2</title>
<path fill="none" stroke="black" stroke-dasharray="5,2" d="M115,-102.799C115,-87.7942 115,-66.1745 115,-51.4086"/>
<polygon fill="black" stroke="black" points="118.5,-51.2934 115,-41.2934 111.5,-51.2934 118.5,-51.2934"/>
<text text-anchor="middle" x="134" y="-73.8" font-family="Times,serif" font-size="14.00"> &#160;&lt;=25</text>
</g>
<!-- leg_e3 -->
<!-- leg_s&#45;&gt;leg_e3 -->
<g id="edge3" class="edge"><title>leg_s&#45;&gt;leg_e3</title>
<path fill="none" stroke="black" d="M138.503,-102.76C144.906,-97.4621 151.567,-91.3439 157,-85 166.087,-74.3897 174.095,-60.6892 179.546,-50.3134"/>
<polygon fill="black" stroke="black" points="182.722,-51.7893 184.091,-41.2833 176.469,-48.6425 182.722,-51.7893"/>
<text text-anchor="middle" x="179" y="-73.8" font-family="Times,serif" font-size="14.00">&gt;25</text>
</g>
<!-- A -->
<g id="node5" class="node"><title>A</title>
<ellipse fill="#ff8a8a" stroke="#b43f3f" cx="395" cy="-121" rx="29.4969" ry="18"/>
<text text-anchor="middle" x="395" y="-117.3" font-family="Times,serif" font-size="14.00">A (a)</text>
</g>
<!-- 03 -->
<g id="node6" class="node"><title>03</title>
<ellipse fill="#ff8a8a" stroke="#b43f3f" cx="270" cy="-34" rx="31.6951" ry="18"/>
<text text-anchor="middle" x="270" y="-30.3" font-family="Times,serif" font-size="14.00">03 (a)</text>
</g>
<!-- A&#45;&gt;03 -->
<g id="edge4" class="edge"><title>A&#45;&gt;03</title>
<path fill="none" stroke="#b43f3f" stroke-dasharray="1,5" d="M370.567,-110.87C355.584,-104.696 336.391,-95.7259 321,-85 310.032,-77.3566 299.257,-67.2831 290.458,-58.1819"/>
<polygon fill="#b43f3f" stroke="#b43f3f" points="292.964,-55.7385 283.57,-50.8403 287.859,-60.528 292.964,-55.7385"/>
<text text-anchor="middle" x="343" y="-73.8" font-family="Times,serif" font-size="14.00">1 (93.3)</text>
</g>
<!-- 091 -->
<g id="node7" class="node"><title>091</title>
<ellipse fill="#ff8a8a" stroke="#b43f3f" cx="356" cy="-34" rx="36.2938" ry="18"/>
<text text-anchor="middle" x="356" y="-30.3" font-family="Times,serif" font-size="14.00">091 (a)</text>
</g>
<!-- A&#45;&gt;091 -->
<g id="edge5" class="edge"><title>A&#45;&gt;091</title>
<path fill="none" stroke="#b43f3f" stroke-dasharray="1,5" d="M385.1,-103.899C381.694,-98.0534 377.988,-91.3285 375,-85 371.471,-77.5266 368.1,-69.2062 365.202,-61.5312"/>
<polygon fill="#b43f3f" stroke="#b43f3f" points="368.416,-60.1279 361.694,-51.9388 361.842,-62.5326 368.416,-60.1279"/>
<text text-anchor="middle" x="397" y="-73.8" font-family="Times,serif" font-size="14.00">1 (87.5)</text>
</g>
<!-- P75 -->
<g id="node8" class="node"><title>P75</title>
<ellipse fill="#ff8a8a" stroke="#b43f3f" cx="447" cy="-34" rx="36.2938" ry="18"/>
<text text-anchor="middle" x="447" y="-30.3" font-family="Times,serif" font-size="14.00">P75 (a)</text>
</g>
<!-- A&#45;&gt;P75 -->
<g id="edge6" class="edge"><title>A&#45;&gt;P75</title>
<path fill="none" stroke="#b43f3f" stroke-dasharray="1,5" d="M406.301,-104.172C410.42,-98.2371 415.035,-91.384 419,-85 423.829,-77.2246 428.804,-68.5802 433.195,-60.6957"/>
<polygon fill="#b43f3f" stroke="#b43f3f" points="436.288,-62.3356 438.039,-51.8865 430.154,-58.9627 436.288,-62.3356"/>
<text text-anchor="middle" x="450" y="-73.8" font-family="Times,serif" font-size="14.00">1 (93.3)</text>
</g>
<!-- 019 -->
<g id="node9" class="node"><title>019</title>
<ellipse fill="#ff8a8a" stroke="#b43f3f" cx="538" cy="-34" rx="36.2938" ry="18"/>
<text text-anchor="middle" x="538" y="-30.3" font-family="Times,serif" font-size="14.00">019 (a)</text>
</g>
<!-- A&#45;&gt;019 -->
<g id="edge7" class="edge"><title>A&#45;&gt;019</title>
<path fill="none" stroke="#b43f3f" stroke-dasharray="1,5" d="M419.952,-111.238C436.42,-104.975 458.166,-95.7698 476,-85 489.335,-76.9472 502.94,-66.299 513.996,-56.8993"/>
<polygon fill="#b43f3f" stroke="#b43f3f" points="516.302,-59.5318 521.554,-50.3304 511.71,-54.2482 516.302,-59.5318"/>
<text text-anchor="middle" x="519" y="-73.8" font-family="Times,serif" font-size="14.00">1 (93.3)</text>
</g>
</g>
</svg>
