<?xml version="1.0" encoding="UTF-8" standalone="no"?>
<!DOCTYPE svg PUBLIC "-//W3C//DTD SVG 1.1//EN"
 "http://www.w3.org/Graphics/SVG/1.1/DTD/svg11.dtd">
<!-- Generated by graphviz version 2.38.0 (20140413.2041)
 -->
<!-- Title: %3 Pages: 1 -->
<svg width="821pt" height="408pt"
 viewBox="0.00 0.00 821.30 408.00" xmlns="http://www.w3.org/2000/svg" xmlns:xlink="http://www.w3.org/1999/xlink">
<g id="graph0" class="graph" transform="scale(1 1) rotate(0) translate(4 404)">
<title>%3</title>
<polygon fill="white" stroke="none" points="-4,4 -4,-404 817.296,-404 817.296,4 -4,4"/>
<g id="clust1" class="cluster"><title>cluster_legend</title>
<path fill="none" stroke="black" d="M25.2964,-264C25.2964,-264 215.296,-264 215.296,-264 221.296,-264 227.296,-270 227.296,-276 227.296,-276 227.296,-380 227.296,-380 227.296,-386 221.296,-392 215.296,-392 215.296,-392 25.2964,-392 25.2964,-392 19.2964,-392 13.2964,-386 13.2964,-380 13.2964,-380 13.2964,-276 13.2964,-276 13.2964,-270 19.2964,-264 25.2964,-264"/>
</g>
<!-- leg_s -->
<g id="node1" class="node"><title>leg_s</title>
<text text-anchor="middle" x="120.296" y="-362.3" font-family="Times,serif" font-size="14.00">Textual flow strength</text>
</g>
<!-- leg_e1 -->
<!-- leg_s&#45;&gt;leg_e1 -->
<g id="edge1" class="edge"><title>leg_s&#45;&gt;leg_e1</title>
<path fill="none" stroke="black" stroke-dasharray="1,5" d="M101.962,-347.686C96.4288,-342.194 90.4571,-335.989 85.2964,-330 75.4673,-318.593 65.3686,-304.779 58.2101,-294.563"/>
<polygon fill="black" stroke="black" points="60.9106,-292.314 52.3525,-286.068 55.1478,-296.288 60.9106,-292.314"/>
<text text-anchor="middle" x="100.796" y="-318.8" font-family="Times,serif" font-size="14.00">&lt;=5 &#160;</text>
</g>
<!-- leg_e2 -->
<!-- leg_s&#45;&gt;leg_e2 -->
<g id="edge2" class="edge"><title>leg_s&#45;&gt;leg_e2</title>
<path fill="none" stroke="black" stroke-dasharray="5,2" d="M120.296,-347.799C120.296,-332.794 120.296,-311.174 120.296,-296.409"/>
<polygon fill="black" stroke="black" points="123.797,-296.293 120.296,-286.293 116.797,-296.293 123.797,-296.293"/>
<text text-anchor="middle" x="139.296" y="-318.8" font-family="Times,serif" font-size="14.00"> &#160;&lt;=25</text>
</g>
<!-- leg_e3 -->
<!-- leg_s&#45;&gt;leg_e3 -->
<g id="edge3" class="edge"><title>leg_s&#45;&gt;leg_e3</title>
<path fill="none" stroke="black" d="M143.8,-347.76C150.202,-342.462 156.863,-336.344 162.296,-330 171.384,-319.39 179.392,-305.689 184.843,-295.313"/>
<polygon fill="black" stroke="black" points="188.018,-296.789 189.387,-286.283 181.766,-293.642 188.018,-296.789"/>
<text text-anchor="middle" x="184.296" y="-318.8" font-family="Times,serif" font-size="14.00">&gt;25</text>
</g>
<!-- A -->
<g id="node5" class="node"><title>A</title>
<ellipse fill="#ff8a8a" stroke="#b43f3f" cx="499.296" cy="-366" rx="29.4969" ry="18"/>
<text text-anchor="middle" x="499.296" y="-362.3" font-family="Times,serif" font-size="14.00">A (a)</text>
</g>
<!-- 03 -->
<g id="node6" class="node"><title>03</title>
<ellipse fill="#ff8a8a" stroke="#b43f3f" cx="269.296" cy="-279" rx="31.6951" ry="18"/>
<text text-anchor="middle" x="269.296" y="-275.3" font-family="Times,serif" font-size="14.00">03 (a)</text>
</g>
<!-- A&#45;&gt;03 -->
<g id="edge4" class="edge"><title>A&#45;&gt;03</title>
<path fill="none" stroke="#b43f3f" stroke-dasharray="1,5" d="M473.549,-357.378C451.335,-350.648 418.475,-340.327 390.296,-330 360.472,-319.07 327.152,-305.174 303.041,-294.806"/>
<polygon fill="#b43f3f" stroke="#b43f3f" points="304.2,-291.495 293.632,-290.739 301.422,-297.92 304.2,-291.495"/>
<text text-anchor="middle" x="412.296" y="-318.8" font-family="Times,serif" font-size="14.00">1 (93.3)</text>
</g>
<!-- 019 -->
<g id="node7" class="node"><title>019</title>
<ellipse fill="#ff8a8a" stroke="#b43f3f" cx="408.296" cy="-279" rx="36.2938" ry="18"/>
<text text-anchor="middle" x="408.296" y="-275.3" font-family="Times,serif" font-size="14.00">019 (a)</text>
</g>
<!-- A&#45;&gt;019 -->
<g id="edge5" class="edge"><title>A&#45;&gt;019</title>
<path fill="none" stroke="#b43f3f" stroke-dasharray="1,5" d="M479.82,-352.326C470.768,-346.06 460.088,-338.113 451.296,-330 442.752,-322.115 434.221,-312.619 427.036,-304.029"/>
<polygon fill="#b43f3f" stroke="#b43f3f" points="429.641,-301.685 420.604,-296.155 424.219,-306.113 429.641,-301.685"/>
<text text-anchor="middle" x="473.296" y="-318.8" font-family="Times,serif" font-size="14.00">1 (93.3)</text>
</g>
<!-- P75 -->
<g id="node8" class="node"><title>P75</title>
<ellipse fill="#ff8a8a" stroke="#b43f3f" cx="499.296" cy="-279" rx="36.2938" ry="18"/>
<text text-anchor="middle" x="499.296" y="-275.3" font-family="Times,serif" font-size="14.00">P75 (a)</text>
</g>
<!-- A&#45;&gt;P75 -->
<g id="edge6" class="edge"><title>A&#45;&gt;P75</title>
<path fill="none" stroke="#b43f3f" stroke-dasharray="1,5" d="M499.296,-347.799C499.296,-336.163 499.296,-320.548 499.296,-307.237"/>
<polygon fill="#b43f3f" stroke="#b43f3f" points="502.797,-307.175 499.296,-297.175 495.797,-307.175 502.797,-307.175"/>
<text text-anchor="middle" x="521.296" y="-318.8" font-family="Times,serif" font-size="14.00">1 (93.3)</text>
</g>
<!-- 01 -->
<g id="node9" class="node"><title>01</title>
<ellipse fill="#ff8a8a" stroke="#b43f3f" cx="585.296" cy="-279" rx="31.6951" ry="18"/>
<text text-anchor="middle" x="585.296" y="-275.3" font-family="Times,serif" font-size="14.00">01 (a)</text>
</g>
<!-- A&#45;&gt;01 -->
<g id="edge7" class="edge"><title>A&#45;&gt;01</title>
<path fill="none" stroke="#b43f3f" stroke-dasharray="5,2" d="M518.997,-352.561C528.097,-346.347 538.753,-338.375 547.296,-330 555.121,-322.329 562.659,-312.975 568.929,-304.442"/>
<polygon fill="#b43f3f" stroke="#b43f3f" points="571.794,-306.452 574.74,-296.275 566.09,-302.394 571.794,-306.452"/>
<text text-anchor="middle" x="582.296" y="-318.8" font-family="Times,serif" font-size="14.00">1 (57.1)</text>
</g>
<!-- 091 -->
<g id="node10" class="node"><title>091</title>
<ellipse fill="#ff8a8a" stroke="#b43f3f" cx="671.296" cy="-279" rx="36.2938" ry="18"/>
<text text-anchor="middle" x="671.296" y="-275.3" font-family="Times,serif" font-size="14.00">091 (a)</text>
</g>
<!-- A&#45;&gt;091 -->
<g id="edge8" class="edge"><title>A&#45;&gt;091</title>
<path fill="none" stroke="#b43f3f" stroke-dasharray="1,5" d="M526.816,-359.083C549.538,-353.524 582.178,-343.958 608.296,-330 622.369,-322.48 636.43,-311.712 647.687,-302.093"/>
<polygon fill="#b43f3f" stroke="#b43f3f" points="650.15,-304.588 655.347,-295.355 645.527,-299.331 650.15,-304.588"/>
<text text-anchor="middle" x="653.296" y="-318.8" font-family="Times,serif" font-size="14.00">1 (87.5)</text>
</g>
<!-- 044 -->
<g id="node11" class="node"><title>044</title>
<ellipse fill="#ff8a8a" stroke="#b43f3f" cx="135.296" cy="-192" rx="36.2938" ry="18"/>
<text text-anchor="middle" x="135.296" y="-188.3" font-family="Times,serif" font-size="14.00">044 (a)</text>
</g>
<!-- 03&#45;&gt;044 -->
<g id="edge9" class="edge"><title>03&#45;&gt;044</title>
<path fill="none" stroke="#b43f3f" stroke-dasharray="1,5" d="M245.037,-267.074C222.929,-257.101 193.522,-243.792 192.296,-243 180.255,-235.225 168.144,-225.017 158.202,-215.854"/>
<polygon fill="#b43f3f" stroke="#b43f3f" points="160.407,-213.122 150.736,-208.795 155.598,-218.209 160.407,-213.122"/>
<text text-anchor="middle" x="214.296" y="-231.8" font-family="Times,serif" font-size="14.00">1 (89.2)</text>
</g>
<!-- 02 -->
<g id="node12" class="node"><title>02</title>
<ellipse fill="#ff8a8a" stroke="#b43f3f" cx="226.296" cy="-192" rx="31.6951" ry="18"/>
<text text-anchor="middle" x="226.296" y="-188.3" font-family="Times,serif" font-size="14.00">02 (a)</text>
</g>
<!-- 03&#45;&gt;02 -->
<g id="edge10" class="edge"><title>03&#45;&gt;02</title>
<path fill="none" stroke="#b43f3f" stroke-dasharray="1,5" d="M257.83,-262.03C253.905,-256.197 249.66,-249.446 246.296,-243 242.404,-235.54 238.776,-227.146 235.709,-219.396"/>
<polygon fill="#b43f3f" stroke="#b43f3f" points="238.976,-218.141 232.144,-210.043 232.435,-220.634 238.976,-218.141"/>
<text text-anchor="middle" x="268.296" y="-231.8" font-family="Times,serif" font-size="14.00">1 (86.5)</text>
</g>
<!-- 032 -->
<g id="node13" class="node"><title>032</title>
<ellipse fill="#ff8a8a" stroke="#b43f3f" cx="312.296" cy="-192" rx="36.2938" ry="18"/>
<text text-anchor="middle" x="312.296" y="-188.3" font-family="Times,serif" font-size="14.00">032 (a)</text>
</g>
<!-- 03&#45;&gt;032 -->
<g id="edge11" class="edge"><title>03&#45;&gt;032</title>
<path fill="none" stroke="#b43f3f" stroke-dasharray="1,5" d="M279.559,-261.861C283.123,-256.011 287.04,-249.294 290.296,-243 294.219,-235.419 298.102,-226.989 301.489,-219.243"/>
<polygon fill="#b43f3f" stroke="#b43f3f" points="304.765,-220.485 305.48,-209.914 298.329,-217.732 304.765,-220.485"/>
<text text-anchor="middle" x="320.296" y="-231.8" font-family="Times,serif" font-size="14.00">1 (91.7)</text>
</g>
<!-- 063 -->
<g id="node16" class="node"><title>063</title>
<ellipse fill="#ff8a8a" stroke="#b43f3f" cx="408.296" cy="-192" rx="36.2938" ry="18"/>
<text text-anchor="middle" x="408.296" y="-188.3" font-family="Times,serif" font-size="14.00">063 (a)</text>
</g>
<!-- 019&#45;&gt;063 -->
<g id="edge27" class="edge"><title>019&#45;&gt;063</title>
<path fill="none" stroke="#b43f3f" stroke-dasharray="1,5" d="M408.296,-260.799C408.296,-249.163 408.296,-233.548 408.296,-220.237"/>
<polygon fill="#b43f3f" stroke="#b43f3f" points="411.797,-220.175 408.296,-210.175 404.797,-220.175 411.797,-220.175"/>
<text text-anchor="middle" x="430.296" y="-231.8" font-family="Times,serif" font-size="14.00">1 (85.7)</text>
</g>
<!-- 0211 -->
<g id="node30" class="node"><title>0211</title>
<ellipse fill="#ff8a8a" stroke="#b43f3f" cx="671.296" cy="-192" rx="40.0939" ry="18"/>
<text text-anchor="middle" x="671.296" y="-188.3" font-family="Times,serif" font-size="14.00">0211 (a)</text>
</g>
<!-- 091&#45;&gt;0211 -->
<g id="edge28" class="edge"><title>091&#45;&gt;0211</title>
<path fill="none" stroke="#b43f3f" stroke-dasharray="1,5" d="M671.296,-260.799C671.296,-249.163 671.296,-233.548 671.296,-220.237"/>
<polygon fill="#b43f3f" stroke="#b43f3f" points="674.797,-220.175 671.296,-210.175 667.797,-220.175 674.797,-220.175"/>
<text text-anchor="middle" x="693.296" y="-231.8" font-family="Times,serif" font-size="14.00">1 (83.3)</text>
</g>
<!-- 05 -->
<g id="node31" class="node"><title>05</title>
<ellipse fill="#cea8f4" stroke="#835da9" cx="762.296" cy="-192" rx="32.4942" ry="18"/>
<text text-anchor="middle" x="762.296" y="-188.3" font-family="Times,serif" font-size="14.00">05 (b)</text>
</g>
<!-- 091&#45;&gt;05 -->
<g id="edge29" class="edge"><title>091&#45;&gt;05</title>
<path fill="none" stroke="#835da9" stroke-dasharray="1,5" d="M692.668,-264.006C701.289,-257.963 711.111,-250.554 719.296,-243 727.841,-235.115 736.372,-225.619 743.557,-217.029"/>
<polygon fill="#835da9" stroke="#835da9" points="746.374,-219.113 749.989,-209.155 740.952,-214.685 746.374,-219.113"/>
<text text-anchor="middle" x="755.296" y="-231.8" font-family="Times,serif" font-size="14.00">1 (87.5)</text>
</g>
<!-- 0141 -->
<g id="node14" class="node"><title>0141</title>
<ellipse fill="#ff8a8a" stroke="#b43f3f" cx="40.2964" cy="-105" rx="40.0939" ry="18"/>
<text text-anchor="middle" x="40.2964" y="-101.3" font-family="Times,serif" font-size="14.00">0141 (a)</text>
</g>
<!-- 044&#45;&gt;0141 -->
<g id="edge12" class="edge"><title>044&#45;&gt;0141</title>
<path fill="none" stroke="#b43f3f" stroke-dasharray="1,5" d="M114.566,-177.159C105.86,-171.025 95.8017,-163.508 87.2964,-156 78.1331,-147.911 68.7658,-138.276 60.8297,-129.632"/>
<polygon fill="#b43f3f" stroke="#b43f3f" points="63.2861,-127.129 53.9907,-122.045 58.0868,-131.816 63.2861,-127.129"/>
<text text-anchor="middle" x="109.296" y="-144.8" font-family="Times,serif" font-size="14.00">1 (89.2)</text>
</g>
<!-- 022 -->
<g id="node15" class="node"><title>022</title>
<ellipse fill="#ff8a8a" stroke="#b43f3f" cx="135.296" cy="-105" rx="36.2938" ry="18"/>
<text text-anchor="middle" x="135.296" y="-101.3" font-family="Times,serif" font-size="14.00">022 (a)</text>
</g>
<!-- 044&#45;&gt;022 -->
<g id="edge13" class="edge"><title>044&#45;&gt;022</title>
<path fill="none" stroke="#b43f3f" stroke-dasharray="1,5" d="M135.296,-173.799C135.296,-162.163 135.296,-146.548 135.296,-133.237"/>
<polygon fill="#b43f3f" stroke="#b43f3f" points="138.797,-133.175 135.296,-123.175 131.797,-133.175 138.797,-133.175"/>
<text text-anchor="middle" x="157.296" y="-144.8" font-family="Times,serif" font-size="14.00">1 (91.7)</text>
</g>
<!-- 045 -->
<g id="node17" class="node"><title>045</title>
<ellipse fill="#ff8a8a" stroke="#b43f3f" cx="226.296" cy="-105" rx="36.2938" ry="18"/>
<text text-anchor="middle" x="226.296" y="-101.3" font-family="Times,serif" font-size="14.00">045 (a)</text>
</g>
<!-- 063&#45;&gt;045 -->
<g id="edge14" class="edge"><title>063&#45;&gt;045</title>
<path fill="none" stroke="#b43f3f" stroke-dasharray="1,5" d="M378.935,-181.097C371.859,-178.742 364.315,-176.259 357.296,-174 331.603,-165.732 323.591,-167.758 299.296,-156 282.963,-148.095 266.16,-136.84 252.799,-127.009"/>
<polygon fill="#b43f3f" stroke="#b43f3f" points="254.649,-124.021 244.555,-120.804 250.44,-129.614 254.649,-124.021"/>
<text text-anchor="middle" x="321.296" y="-144.8" font-family="Times,serif" font-size="14.00">1 (93.1)</text>
</g>
<!-- 031 -->
<g id="node18" class="node"><title>031</title>
<ellipse fill="#ff8a8a" stroke="#b43f3f" cx="317.296" cy="-105" rx="36.2938" ry="18"/>
<text text-anchor="middle" x="317.296" y="-101.3" font-family="Times,serif" font-size="14.00">031 (a)</text>
</g>
<!-- 063&#45;&gt;031 -->
<g id="edge15" class="edge"><title>063&#45;&gt;031</title>
<path fill="none" stroke="#b43f3f" stroke-dasharray="1,5" d="M386.925,-177.006C378.304,-170.963 368.482,-163.554 360.296,-156 351.752,-148.115 343.221,-138.619 336.036,-130.029"/>
<polygon fill="#b43f3f" stroke="#b43f3f" points="338.641,-127.685 329.604,-122.155 333.219,-132.113 338.641,-127.685"/>
<text text-anchor="middle" x="382.296" y="-144.8" font-family="Times,serif" font-size="14.00">1 (95.8)</text>
</g>
<!-- 011 -->
<g id="node19" class="node"><title>011</title>
<ellipse fill="#ff8a8a" stroke="#b43f3f" cx="408.296" cy="-105" rx="36.2938" ry="18"/>
<text text-anchor="middle" x="408.296" y="-101.3" font-family="Times,serif" font-size="14.00">011 (a)</text>
</g>
<!-- 063&#45;&gt;011 -->
<g id="edge16" class="edge"><title>063&#45;&gt;011</title>
<path fill="none" stroke="#b43f3f" stroke-dasharray="1,5" d="M408.296,-173.799C408.296,-162.163 408.296,-146.548 408.296,-133.237"/>
<polygon fill="#b43f3f" stroke="#b43f3f" points="411.797,-133.175 408.296,-123.175 404.797,-133.175 411.797,-133.175"/>
<text text-anchor="middle" x="430.296" y="-144.8" font-family="Times,serif" font-size="14.00">1 (93.1)</text>
</g>
<!-- 07 -->
<g id="node20" class="node"><title>07</title>
<ellipse fill="#ff8a8a" stroke="#b43f3f" cx="494.296" cy="-105" rx="31.6951" ry="18"/>
<text text-anchor="middle" x="494.296" y="-101.3" font-family="Times,serif" font-size="14.00">07 (a)</text>
</g>
<!-- 063&#45;&gt;07 -->
<g id="edge17" class="edge"><title>063&#45;&gt;07</title>
<path fill="none" stroke="#b43f3f" stroke-dasharray="1,5" d="M429.9,-177.25C438.557,-171.245 448.343,-163.798 456.296,-156 464.121,-148.329 471.659,-138.975 477.929,-130.442"/>
<polygon fill="#b43f3f" stroke="#b43f3f" points="480.794,-132.452 483.74,-122.275 475.09,-128.394 480.794,-132.452"/>
<text text-anchor="middle" x="491.296" y="-144.8" font-family="Times,serif" font-size="14.00">1 (96.6)</text>
</g>
<!-- 028 -->
<g id="node21" class="node"><title>028</title>
<ellipse fill="#ff8a8a" stroke="#b43f3f" cx="580.296" cy="-105" rx="36.2938" ry="18"/>
<text text-anchor="middle" x="580.296" y="-101.3" font-family="Times,serif" font-size="14.00">028 (a)</text>
</g>
<!-- 063&#45;&gt;028 -->
<g id="edge18" class="edge"><title>063&#45;&gt;028</title>
<path fill="none" stroke="#b43f3f" stroke-dasharray="1,5" d="M441.004,-183.786C463.322,-178.088 493.106,-168.927 517.296,-156 531.369,-148.48 545.43,-137.712 556.687,-128.093"/>
<polygon fill="#b43f3f" stroke="#b43f3f" points="559.15,-130.588 564.347,-121.355 554.527,-125.331 559.15,-130.588"/>
<text text-anchor="middle" x="562.296" y="-144.8" font-family="Times,serif" font-size="14.00">1 (96.6)</text>
</g>
<!-- 021 -->
<g id="node22" class="node"><title>021</title>
<ellipse fill="#ff8a8a" stroke="#b43f3f" cx="671.296" cy="-105" rx="36.2938" ry="18"/>
<text text-anchor="middle" x="671.296" y="-101.3" font-family="Times,serif" font-size="14.00">021 (a)</text>
</g>
<!-- 063&#45;&gt;021 -->
<g id="edge19" class="edge"><title>063&#45;&gt;021</title>
<path fill="none" stroke="#b43f3f" stroke-dasharray="1,5" d="M443.81,-187.796C480.865,-183.61 540.16,-174.511 588.296,-156 607.722,-148.53 627.757,-136.602 643.275,-126.27"/>
<polygon fill="#b43f3f" stroke="#b43f3f" points="645.565,-128.945 651.851,-120.417 641.619,-123.163 645.565,-128.945"/>
<text text-anchor="middle" x="642.296" y="-144.8" font-family="Times,serif" font-size="14.00">1 (93.1)</text>
</g>
<!-- 038 -->
<g id="node23" class="node"><title>038</title>
<ellipse fill="#ff8a8a" stroke="#b43f3f" cx="135.296" cy="-18" rx="36.2938" ry="18"/>
<text text-anchor="middle" x="135.296" y="-14.3" font-family="Times,serif" font-size="14.00">038 (a)</text>
</g>
<!-- 045&#45;&gt;038 -->
<g id="edge20" class="edge"><title>045&#45;&gt;038</title>
<path fill="none" stroke="#b43f3f" stroke-dasharray="1,5" d="M197.769,-93.5557C185.093,-87.819 170.716,-79.6722 160.296,-69 153.767,-62.3118 148.611,-53.579 144.721,-45.2867"/>
<polygon fill="#b43f3f" stroke="#b43f3f" points="147.864,-43.7346 140.728,-35.9034 141.423,-46.4755 147.864,-43.7346"/>
<text text-anchor="middle" x="182.296" y="-57.8" font-family="Times,serif" font-size="14.00">1 (92.7)</text>
</g>
<!-- 017 -->
<g id="node24" class="node"><title>017</title>
<ellipse fill="#ff8a8a" stroke="#b43f3f" cx="226.296" cy="-18" rx="36.2938" ry="18"/>
<text text-anchor="middle" x="226.296" y="-14.3" font-family="Times,serif" font-size="14.00">017 (a)</text>
</g>
<!-- 031&#45;&gt;017 -->
<g id="edge21" class="edge"><title>031&#45;&gt;017</title>
<path fill="none" stroke="#b43f3f" stroke-dasharray="1,5" d="M295.925,-90.006C287.304,-83.9634 277.482,-76.5539 269.296,-69 260.752,-61.1154 252.221,-51.6186 245.036,-43.0293"/>
<polygon fill="#b43f3f" stroke="#b43f3f" points="247.641,-40.6853 238.604,-35.1545 242.219,-45.1135 247.641,-40.6853"/>
<text text-anchor="middle" x="291.296" y="-57.8" font-family="Times,serif" font-size="14.00">1 (94.3)</text>
</g>
<!-- 013 -->
<g id="node25" class="node"><title>013</title>
<ellipse fill="#ff8a8a" stroke="#b43f3f" cx="317.296" cy="-18" rx="36.2938" ry="18"/>
<text text-anchor="middle" x="317.296" y="-14.3" font-family="Times,serif" font-size="14.00">013 (a)</text>
</g>
<!-- 031&#45;&gt;013 -->
<g id="edge22" class="edge"><title>031&#45;&gt;013</title>
<path fill="none" stroke="#b43f3f" stroke-dasharray="1,5" d="M317.296,-86.799C317.296,-75.1626 317.296,-59.5479 317.296,-46.2368"/>
<polygon fill="#b43f3f" stroke="#b43f3f" points="320.797,-46.1754 317.296,-36.1754 313.797,-46.1755 320.797,-46.1754"/>
<text text-anchor="middle" x="339.296" y="-57.8" font-family="Times,serif" font-size="14.00">1 (97.1)</text>
</g>
<!-- 034 -->
<g id="node26" class="node"><title>034</title>
<ellipse fill="#ff8a8a" stroke="#b43f3f" cx="408.296" cy="-18" rx="36.2938" ry="18"/>
<text text-anchor="middle" x="408.296" y="-14.3" font-family="Times,serif" font-size="14.00">034 (a)</text>
</g>
<!-- 07&#45;&gt;034 -->
<g id="edge23" class="edge"><title>07&#45;&gt;034</title>
<path fill="none" stroke="#b43f3f" stroke-dasharray="1,5" d="M475.135,-90.5796C466.841,-84.4029 457.235,-76.7366 449.296,-69 441.217,-61.1259 433.162,-51.7284 426.358,-43.217"/>
<polygon fill="#b43f3f" stroke="#b43f3f" points="428.928,-40.8207 420.016,-35.0903 423.409,-45.1272 428.928,-40.8207"/>
<text text-anchor="middle" x="471.296" y="-57.8" font-family="Times,serif" font-size="14.00">1 (95.1)</text>
</g>
<!-- 030 -->
<g id="node27" class="node"><title>030</title>
<ellipse fill="#ff8a8a" stroke="#b43f3f" cx="499.296" cy="-18" rx="36.2938" ry="18"/>
<text text-anchor="middle" x="499.296" y="-14.3" font-family="Times,serif" font-size="14.00">030 (a)</text>
</g>
<!-- 07&#45;&gt;030 -->
<g id="edge24" class="edge"><title>07&#45;&gt;030</title>
<path fill="none" stroke="#b43f3f" stroke-dasharray="1,5" d="M495.308,-86.799C495.993,-75.1626 496.911,-59.5479 497.694,-46.2368"/>
<polygon fill="#b43f3f" stroke="#b43f3f" points="501.193,-46.3637 498.286,-36.1754 494.205,-45.9526 501.193,-46.3637"/>
<text text-anchor="middle" x="519.296" y="-57.8" font-family="Times,serif" font-size="14.00">1 (95.1)</text>
</g>
<!-- 037 -->
<g id="node28" class="node"><title>037</title>
<ellipse fill="#ff8a8a" stroke="#b43f3f" cx="590.296" cy="-18" rx="36.2938" ry="18"/>
<text text-anchor="middle" x="590.296" y="-14.3" font-family="Times,serif" font-size="14.00">037 (a)</text>
</g>
<!-- 07&#45;&gt;037 -->
<g id="edge25" class="edge"><title>07&#45;&gt;037</title>
<path fill="none" stroke="#b43f3f" stroke-dasharray="1,5" d="M515.466,-91.0889C524.97,-84.8929 536.09,-77.0696 545.296,-69 554.306,-61.1022 563.322,-51.5043 570.892,-42.8374"/>
<polygon fill="#b43f3f" stroke="#b43f3f" points="573.567,-45.0942 577.395,-35.2152 568.242,-40.5506 573.567,-45.0942"/>
<text text-anchor="middle" x="582.296" y="-57.8" font-family="Times,serif" font-size="14.00">1 (97.5)</text>
</g>
<!-- 036 -->
<g id="node29" class="node"><title>036</title>
<ellipse fill="#ff8a8a" stroke="#b43f3f" cx="681.296" cy="-18" rx="36.2938" ry="18"/>
<text text-anchor="middle" x="681.296" y="-14.3" font-family="Times,serif" font-size="14.00">036 (a)</text>
</g>
<!-- 021&#45;&gt;036 -->
<g id="edge26" class="edge"><title>021&#45;&gt;036</title>
<path fill="none" stroke="#b43f3f" stroke-dasharray="1,5" d="M673.32,-86.799C674.689,-75.1626 676.526,-59.5479 678.092,-46.2368"/>
<polygon fill="#b43f3f" stroke="#b43f3f" points="681.583,-46.5159 679.276,-36.1754 674.631,-45.698 681.583,-46.5159"/>
<text text-anchor="middle" x="699.296" y="-57.8" font-family="Times,serif" font-size="14.00">1 (97.6)</text>
</g>
<!-- 047 -->
<g id="node32" class="node"><title>047</title>
<ellipse fill="#cea8f4" stroke="#835da9" cx="762.296" cy="-105" rx="36.2938" ry="18"/>
<text text-anchor="middle" x="762.296" y="-101.3" font-family="Times,serif" font-size="14.00">047 (b)</text>
</g>
<!-- 05&#45;&gt;047 -->
<g id="edge30" class="edge"><title>05&#45;&gt;047</title>
<path fill="none" stroke="#835da9" stroke-dasharray="1,5" d="M762.296,-173.799C762.296,-162.163 762.296,-146.548 762.296,-133.237"/>
<polygon fill="#835da9" stroke="#835da9" points="765.797,-133.175 762.296,-123.175 758.797,-133.175 765.797,-133.175"/>
<text text-anchor="middle" x="787.796" y="-144.8" font-family="Times,serif" font-size="14.00">24 (67.6)</text>
</g>
</g>
</svg>
