<?xml version="1.0" encoding="UTF-8" standalone="no"?>
<!DOCTYPE svg PUBLIC "-//W3C//DTD SVG 1.1//EN"
 "http://www.w3.org/Graphics/SVG/1.1/DTD/svg11.dtd">
<!-- Generated by graphviz version 2.38.0 (20140413.2041)
 -->
<!-- Title: %3 Pages: 1 -->
<svg width="980pt" height="408pt"
 viewBox="0.00 0.00 980.24 408.00" xmlns="http://www.w3.org/2000/svg" xmlns:xlink="http://www.w3.org/1999/xlink">
<g id="graph0" class="graph" transform="scale(1 1) rotate(0) translate(4 404)">
<title>%3</title>
<polygon fill="white" stroke="none" points="-4,4 -4,-404 976.244,-404 976.244,4 -4,4"/>
<g id="clust1" class="cluster"><title>cluster_legend</title>
<path fill="none" stroke="black" d="M60.8472,-264C60.8472,-264 250.847,-264 250.847,-264 256.847,-264 262.847,-270 262.847,-276 262.847,-276 262.847,-380 262.847,-380 262.847,-386 256.847,-392 250.847,-392 250.847,-392 60.8472,-392 60.8472,-392 54.8472,-392 48.8472,-386 48.8472,-380 48.8472,-380 48.8472,-276 48.8472,-276 48.8472,-270 54.8472,-264 60.8472,-264"/>
</g>
<!-- leg_s -->
<g id="node1" class="node"><title>leg_s</title>
<text text-anchor="middle" x="155.847" y="-362.3" font-family="Times,serif" font-size="14.00">Textual flow strength</text>
</g>
<!-- leg_e1 -->
<!-- leg_s&#45;&gt;leg_e1 -->
<g id="edge1" class="edge"><title>leg_s&#45;&gt;leg_e1</title>
<path fill="none" stroke="black" stroke-dasharray="1,5" d="M137.513,-347.686C131.98,-342.194 126.008,-335.989 120.847,-330 111.018,-318.593 100.919,-304.779 93.7609,-294.563"/>
<polygon fill="black" stroke="black" points="96.4614,-292.314 87.9032,-286.068 90.6986,-296.288 96.4614,-292.314"/>
<text text-anchor="middle" x="136.347" y="-318.8" font-family="Times,serif" font-size="14.00">&lt;=5 &#160;</text>
</g>
<!-- leg_e2 -->
<!-- leg_s&#45;&gt;leg_e2 -->
<g id="edge2" class="edge"><title>leg_s&#45;&gt;leg_e2</title>
<path fill="none" stroke="black" stroke-dasharray="5,2" d="M155.847,-347.799C155.847,-332.794 155.847,-311.174 155.847,-296.409"/>
<polygon fill="black" stroke="black" points="159.347,-296.293 155.847,-286.293 152.347,-296.293 159.347,-296.293"/>
<text text-anchor="middle" x="174.847" y="-318.8" font-family="Times,serif" font-size="14.00"> &#160;&lt;=25</text>
</g>
<!-- leg_e3 -->
<!-- leg_s&#45;&gt;leg_e3 -->
<g id="edge3" class="edge"><title>leg_s&#45;&gt;leg_e3</title>
<path fill="none" stroke="black" d="M179.351,-347.76C185.753,-342.462 192.414,-336.344 197.847,-330 206.935,-319.39 214.942,-305.689 220.394,-295.313"/>
<polygon fill="black" stroke="black" points="223.569,-296.789 224.938,-286.283 217.316,-293.642 223.569,-296.789"/>
<text text-anchor="middle" x="219.847" y="-318.8" font-family="Times,serif" font-size="14.00">&gt;25</text>
</g>
<!-- 031 -->
<g id="node5" class="node"><title>031</title>
<ellipse fill="#ff8a8a" stroke="#b43f3f" cx="281.847" cy="-105" rx="36.2938" ry="18"/>
<text text-anchor="middle" x="281.847" y="-101.3" font-family="Times,serif" font-size="14.00">031 (a)</text>
</g>
<!-- 01 -->
<g id="node6" class="node"><title>01</title>
<ellipse fill="#ff8a8a" stroke="#b43f3f" cx="113.847" cy="-18" rx="31.6951" ry="18"/>
<text text-anchor="middle" x="113.847" y="-14.3" font-family="Times,serif" font-size="14.00">01 (a)</text>
</g>
<!-- 031&#45;&gt;01 -->
<g id="edge4" class="edge"><title>031&#45;&gt;01</title>
<path fill="none" stroke="#b43f3f" stroke-dasharray="1,5" d="M249.753,-96.2351C228.585,-90.3931 200.659,-81.2828 177.847,-69 163.462,-61.2543 148.987,-50.2766 137.45,-40.5797"/>
<polygon fill="#b43f3f" stroke="#b43f3f" points="139.469,-37.698 129.613,-33.8097 134.893,-42.9953 139.469,-37.698"/>
<text text-anchor="middle" x="199.847" y="-57.8" font-family="Times,serif" font-size="14.00">2 (48.5)</text>
</g>
<!-- 017 -->
<g id="node7" class="node"><title>017</title>
<ellipse fill="#ff8a8a" stroke="#b43f3f" cx="199.847" cy="-18" rx="36.2938" ry="18"/>
<text text-anchor="middle" x="199.847" y="-14.3" font-family="Times,serif" font-size="14.00">017 (a)</text>
</g>
<!-- 031&#45;&gt;017 -->
<g id="edge5" class="edge"><title>031&#45;&gt;017</title>
<path fill="none" stroke="#b43f3f" stroke-dasharray="1,5" d="M261.683,-89.6509C253.869,-83.6684 245.082,-76.3965 237.847,-69 230.378,-61.364 223.061,-52.2499 216.872,-43.9073"/>
<polygon fill="#b43f3f" stroke="#b43f3f" points="219.561,-41.6515 210.873,-35.5869 213.883,-45.7454 219.561,-41.6515"/>
<text text-anchor="middle" x="259.847" y="-57.8" font-family="Times,serif" font-size="14.00">1 (94.3)</text>
</g>
<!-- 013 -->
<g id="node8" class="node"><title>013</title>
<ellipse fill="#ff8a8a" stroke="#b43f3f" cx="290.847" cy="-18" rx="36.2938" ry="18"/>
<text text-anchor="middle" x="290.847" y="-14.3" font-family="Times,serif" font-size="14.00">013 (a)</text>
</g>
<!-- 031&#45;&gt;013 -->
<g id="edge6" class="edge"><title>031&#45;&gt;013</title>
<path fill="none" stroke="#b43f3f" stroke-dasharray="1,5" d="M283.668,-86.799C284.901,-75.1626 286.554,-59.5479 287.963,-46.2368"/>
<polygon fill="#b43f3f" stroke="#b43f3f" points="291.456,-46.4884 289.029,-36.1754 284.495,-45.7513 291.456,-46.4884"/>
<text text-anchor="middle" x="309.847" y="-57.8" font-family="Times,serif" font-size="14.00">1 (97.1)</text>
</g>
<!-- 021 -->
<g id="node9" class="node"><title>021</title>
<ellipse fill="#ff8a8a" stroke="#b43f3f" cx="472.847" cy="-105" rx="36.2938" ry="18"/>
<text text-anchor="middle" x="472.847" y="-101.3" font-family="Times,serif" font-size="14.00">021 (a)</text>
</g>
<!-- 047 -->
<g id="node10" class="node"><title>047</title>
<ellipse fill="#ff8a8a" stroke="#b43f3f" cx="381.847" cy="-18" rx="36.2938" ry="18"/>
<text text-anchor="middle" x="381.847" y="-14.3" font-family="Times,serif" font-size="14.00">047 (a)</text>
</g>
<!-- 021&#45;&gt;047 -->
<g id="edge7" class="edge"><title>021&#45;&gt;047</title>
<path fill="none" stroke="#b43f3f" stroke-dasharray="1,5" d="M451.476,-90.006C442.855,-83.9634 433.033,-76.5539 424.847,-69 416.303,-61.1154 407.771,-51.6186 400.587,-43.0293"/>
<polygon fill="#b43f3f" stroke="#b43f3f" points="403.191,-40.6853 394.155,-35.1545 397.77,-45.1135 403.191,-40.6853"/>
<text text-anchor="middle" x="446.847" y="-57.8" font-family="Times,serif" font-size="14.00">1 (95.1)</text>
</g>
<!-- 036 -->
<g id="node11" class="node"><title>036</title>
<ellipse fill="#ff8a8a" stroke="#b43f3f" cx="472.847" cy="-18" rx="36.2938" ry="18"/>
<text text-anchor="middle" x="472.847" y="-14.3" font-family="Times,serif" font-size="14.00">036 (a)</text>
</g>
<!-- 021&#45;&gt;036 -->
<g id="edge8" class="edge"><title>021&#45;&gt;036</title>
<path fill="none" stroke="#b43f3f" stroke-dasharray="1,5" d="M472.847,-86.799C472.847,-75.1626 472.847,-59.5479 472.847,-46.2368"/>
<polygon fill="#b43f3f" stroke="#b43f3f" points="476.347,-46.1754 472.847,-36.1754 469.347,-46.1755 476.347,-46.1754"/>
<text text-anchor="middle" x="494.847" y="-57.8" font-family="Times,serif" font-size="14.00">1 (97.6)</text>
</g>
<!-- 063 -->
<g id="node12" class="node"><title>063</title>
<ellipse fill="#cea8f4" stroke="#835da9" cx="614.847" cy="-192" rx="36.2938" ry="18"/>
<text text-anchor="middle" x="614.847" y="-188.3" font-family="Times,serif" font-size="14.00">063 (b)</text>
</g>
<!-- 063&#45;&gt;031 -->
<g id="edge9" class="edge"><title>063&#45;&gt;031</title>
<path fill="none" stroke="#b43f3f" stroke-dasharray="1,5" d="M583.219,-182.927C522.84,-167.515 391.164,-133.904 323.627,-116.664"/>
<polygon fill="#b43f3f" stroke="#b43f3f" points="324.306,-113.226 313.751,-114.144 322.575,-120.008 324.306,-113.226"/>
<text text-anchor="middle" x="490.847" y="-144.8" font-family="Times,serif" font-size="14.00">1 (95.8)</text>
</g>
<!-- 063&#45;&gt;021 -->
<g id="edge10" class="edge"><title>063&#45;&gt;021</title>
<path fill="none" stroke="#b43f3f" stroke-dasharray="1,5" d="M592.66,-177.719C568.832,-163.456 530.789,-140.683 503.974,-124.632"/>
<polygon fill="#b43f3f" stroke="#b43f3f" points="505.725,-121.602 495.347,-119.469 502.13,-127.608 505.725,-121.602"/>
<text text-anchor="middle" x="574.847" y="-144.8" font-family="Times,serif" font-size="14.00">1 (93.1)</text>
</g>
<!-- 07 -->
<g id="node13" class="node"><title>07</title>
<ellipse fill="#ff8a8a" stroke="#b43f3f" cx="614.847" cy="-105" rx="31.6951" ry="18"/>
<text text-anchor="middle" x="614.847" y="-101.3" font-family="Times,serif" font-size="14.00">07 (a)</text>
</g>
<!-- 063&#45;&gt;07 -->
<g id="edge11" class="edge"><title>063&#45;&gt;07</title>
<path fill="none" stroke="#b43f3f" stroke-dasharray="1,5" d="M614.847,-173.799C614.847,-162.163 614.847,-146.548 614.847,-133.237"/>
<polygon fill="#b43f3f" stroke="#b43f3f" points="618.347,-133.175 614.847,-123.175 611.347,-133.175 618.347,-133.175"/>
<text text-anchor="middle" x="636.847" y="-144.8" font-family="Times,serif" font-size="14.00">1 (96.6)</text>
</g>
<!-- 045 -->
<g id="node14" class="node"><title>045</title>
<ellipse fill="#ff8a8a" stroke="#b43f3f" cx="700.847" cy="-105" rx="36.2938" ry="18"/>
<text text-anchor="middle" x="700.847" y="-101.3" font-family="Times,serif" font-size="14.00">045 (a)</text>
</g>
<!-- 063&#45;&gt;045 -->
<g id="edge12" class="edge"><title>063&#45;&gt;045</title>
<path fill="none" stroke="#b43f3f" stroke-dasharray="1,5" d="M636.451,-177.25C645.108,-171.245 654.893,-163.798 662.847,-156 670.672,-148.329 678.209,-138.975 684.479,-130.442"/>
<polygon fill="#b43f3f" stroke="#b43f3f" points="687.345,-132.452 690.29,-122.275 681.641,-128.394 687.345,-132.452"/>
<text text-anchor="middle" x="697.847" y="-144.8" font-family="Times,serif" font-size="14.00">1 (93.1)</text>
</g>
<!-- 028 -->
<g id="node15" class="node"><title>028</title>
<ellipse fill="#ff8a8a" stroke="#b43f3f" cx="791.847" cy="-105" rx="36.2938" ry="18"/>
<text text-anchor="middle" x="791.847" y="-101.3" font-family="Times,serif" font-size="14.00">028 (a)</text>
</g>
<!-- 063&#45;&gt;028 -->
<g id="edge13" class="edge"><title>063&#45;&gt;028</title>
<path fill="none" stroke="#b43f3f" stroke-dasharray="1,5" d="M647.406,-183.501C669.657,-177.675 699.423,-168.479 723.847,-156 739.008,-148.254 754.415,-137.239 766.72,-127.519"/>
<polygon fill="#b43f3f" stroke="#b43f3f" points="769.136,-130.067 774.703,-121.053 764.73,-124.627 769.136,-130.067"/>
<text text-anchor="middle" x="769.847" y="-144.8" font-family="Times,serif" font-size="14.00">1 (96.6)</text>
</g>
<!-- 011 -->
<g id="node16" class="node"><title>011</title>
<ellipse fill="#ff8a8a" stroke="#b43f3f" cx="882.847" cy="-105" rx="36.2938" ry="18"/>
<text text-anchor="middle" x="882.847" y="-101.3" font-family="Times,serif" font-size="14.00">011 (a)</text>
</g>
<!-- 063&#45;&gt;011 -->
<g id="edge14" class="edge"><title>063&#45;&gt;011</title>
<path fill="none" stroke="#b43f3f" stroke-dasharray="1,5" d="M650.482,-187.624C687.68,-183.298 747.255,-174.086 795.847,-156 816.373,-148.36 837.72,-136.166 854.132,-125.732"/>
<polygon fill="#b43f3f" stroke="#b43f3f" points="856.23,-128.543 862.706,-120.157 852.414,-122.675 856.23,-128.543"/>
<text text-anchor="middle" x="848.847" y="-144.8" font-family="Times,serif" font-size="14.00">1 (93.1)</text>
</g>
<!-- 0211 -->
<g id="node17" class="node"><title>0211</title>
<ellipse fill="#ff8a8a" stroke="#b43f3f" cx="567.847" cy="-18" rx="40.0939" ry="18"/>
<text text-anchor="middle" x="567.847" y="-14.3" font-family="Times,serif" font-size="14.00">0211 (a)</text>
</g>
<!-- 07&#45;&gt;0211 -->
<g id="edge15" class="edge"><title>07&#45;&gt;0211</title>
<path fill="none" stroke="#b43f3f" stroke-dasharray="1,5" d="M605.785,-87.6111C599.066,-75.4601 589.777,-58.6599 582.072,-44.7254"/>
<polygon fill="#b43f3f" stroke="#b43f3f" points="584.944,-42.6862 577.042,-35.6286 578.818,-46.0735 584.944,-42.6862"/>
<text text-anchor="middle" x="616.847" y="-57.8" font-family="Times,serif" font-size="14.00">2 (82.9)</text>
</g>
<!-- 030 -->
<g id="node18" class="node"><title>030</title>
<ellipse fill="#ff8a8a" stroke="#b43f3f" cx="662.847" cy="-18" rx="36.2938" ry="18"/>
<text text-anchor="middle" x="662.847" y="-14.3" font-family="Times,serif" font-size="14.00">030 (a)</text>
</g>
<!-- 07&#45;&gt;030 -->
<g id="edge16" class="edge"><title>07&#45;&gt;030</title>
<path fill="none" stroke="#b43f3f" stroke-dasharray="1,5" d="M627.54,-88.4873C632.05,-82.5865 636.966,-75.6745 640.847,-69 645.138,-61.6215 649.131,-53.2512 652.505,-45.4984"/>
<polygon fill="#b43f3f" stroke="#b43f3f" points="655.794,-46.7057 656.424,-36.1296 649.336,-44.0044 655.794,-46.7057"/>
<text text-anchor="middle" x="670.847" y="-57.8" font-family="Times,serif" font-size="14.00">1 (95.1)</text>
</g>
<!-- 037 -->
<g id="node19" class="node"><title>037</title>
<ellipse fill="#ff8a8a" stroke="#b43f3f" cx="753.847" cy="-18" rx="36.2938" ry="18"/>
<text text-anchor="middle" x="753.847" y="-14.3" font-family="Times,serif" font-size="14.00">037 (a)</text>
</g>
<!-- 07&#45;&gt;037 -->
<g id="edge17" class="edge"><title>07&#45;&gt;037</title>
<path fill="none" stroke="#b43f3f" stroke-dasharray="1,5" d="M639.687,-93.6214C662.851,-83.9086 694.227,-70.649 696.847,-69 709.154,-61.2542 721.454,-50.8829 731.46,-41.5943"/>
<polygon fill="#b43f3f" stroke="#b43f3f" points="734.131,-43.8835 738.95,-34.4481 729.299,-38.8189 734.131,-43.8835"/>
<text text-anchor="middle" x="739.847" y="-57.8" font-family="Times,serif" font-size="14.00">1 (97.5)</text>
</g>
<!-- 034 -->
<g id="node20" class="node"><title>034</title>
<ellipse fill="#ff8a8a" stroke="#b43f3f" cx="844.847" cy="-18" rx="36.2938" ry="18"/>
<text text-anchor="middle" x="844.847" y="-14.3" font-family="Times,serif" font-size="14.00">034 (a)</text>
</g>
<!-- 07&#45;&gt;034 -->
<g id="edge18" class="edge"><title>07&#45;&gt;034</title>
<path fill="none" stroke="#b43f3f" stroke-dasharray="1,5" d="M638.799,-92.9858C644.314,-90.7554 650.215,-88.6051 655.847,-87 703.489,-73.4225 719.54,-86.6012 765.847,-69 784.618,-61.8651 803.697,-49.9487 818.402,-39.5387"/>
<polygon fill="#b43f3f" stroke="#b43f3f" points="820.493,-42.3454 826.519,-33.6311 816.374,-36.6857 820.493,-42.3454"/>
<text text-anchor="middle" x="817.847" y="-57.8" font-family="Times,serif" font-size="14.00">1 (95.1)</text>
</g>
<!-- 038 -->
<g id="node23" class="node"><title>038</title>
<ellipse fill="#ff8a8a" stroke="#b43f3f" cx="935.847" cy="-18" rx="36.2938" ry="18"/>
<text text-anchor="middle" x="935.847" y="-14.3" font-family="Times,serif" font-size="14.00">038 (a)</text>
</g>
<!-- 045&#45;&gt;038 -->
<g id="edge20" class="edge"><title>045&#45;&gt;038</title>
<path fill="none" stroke="#b43f3f" stroke-dasharray="1,5" d="M728.328,-92.9767C734.367,-90.7991 740.773,-88.6728 746.847,-87 789.12,-75.3579 802.52,-83.6494 843.847,-69 865.733,-61.242 888.683,-48.7778 906.187,-38.2352"/>
<polygon fill="#b43f3f" stroke="#b43f3f" points="908.125,-41.1524 914.809,-32.9324 904.457,-35.1898 908.125,-41.1524"/>
<text text-anchor="middle" x="897.847" y="-57.8" font-family="Times,serif" font-size="14.00">1 (92.7)</text>
</g>
<!-- 0141 -->
<g id="node21" class="node"><title>0141</title>
<ellipse fill="#ff8a8a" stroke="#b43f3f" cx="41.8472" cy="-105" rx="40.0939" ry="18"/>
<text text-anchor="middle" x="41.8472" y="-101.3" font-family="Times,serif" font-size="14.00">0141 (a)</text>
</g>
<!-- 05 -->
<g id="node22" class="node"><title>05</title>
<ellipse fill="#ff8a8a" stroke="#b43f3f" cx="31.8472" cy="-18" rx="31.6951" ry="18"/>
<text text-anchor="middle" x="31.8472" y="-14.3" font-family="Times,serif" font-size="14.00">05 (a)</text>
</g>
<!-- 0141&#45;&gt;05 -->
<g id="edge19" class="edge"><title>0141&#45;&gt;05</title>
<path fill="none" stroke="#b43f3f" stroke-dasharray="1,5" d="M39.8235,-86.799C38.4545,-75.1626 36.6175,-59.5479 35.0515,-46.2368"/>
<polygon fill="#b43f3f" stroke="#b43f3f" points="38.5123,-45.698 33.8678,-36.1754 31.5603,-46.5159 38.5123,-45.698"/>
<text text-anchor="middle" x="59.8472" y="-57.8" font-family="Times,serif" font-size="14.00">9 (70.6)</text>
</g>
<!-- 044 -->
<g id="node24" class="node"><title>044</title>
<ellipse fill="#cea8f4" stroke="#835da9" cx="172.847" cy="-192" rx="36.2938" ry="18"/>
<text text-anchor="middle" x="172.847" y="-188.3" font-family="Times,serif" font-size="14.00">044 (b)</text>
</g>
<!-- 044&#45;&gt;0141 -->
<g id="edge21" class="edge"><title>044&#45;&gt;0141</title>
<path fill="none" stroke="#b43f3f" stroke-dasharray="1,5" d="M151.508,-177.154C130.071,-163.244 96.8196,-141.669 72.5499,-125.922"/>
<polygon fill="#b43f3f" stroke="#b43f3f" points="74.3473,-122.916 64.0533,-120.409 70.537,-128.788 74.3473,-122.916"/>
<text text-anchor="middle" x="137.847" y="-144.8" font-family="Times,serif" font-size="14.00">1 (89.2)</text>
</g>
<!-- 022 -->
<g id="node25" class="node"><title>022</title>
<ellipse fill="#cea8f4" stroke="#835da9" cx="172.847" cy="-105" rx="36.2938" ry="18"/>
<text text-anchor="middle" x="172.847" y="-101.3" font-family="Times,serif" font-size="14.00">022 (b)</text>
</g>
<!-- 044&#45;&gt;022 -->
<g id="edge22" class="edge"><title>044&#45;&gt;022</title>
<path fill="none" stroke="#835da9" stroke-dasharray="1,5" d="M172.847,-173.799C172.847,-162.163 172.847,-146.548 172.847,-133.237"/>
<polygon fill="#835da9" stroke="#835da9" points="176.347,-133.175 172.847,-123.175 169.347,-133.175 176.347,-133.175"/>
<text text-anchor="middle" x="194.847" y="-144.8" font-family="Times,serif" font-size="14.00">1 (91.7)</text>
</g>
<!-- 03 -->
<g id="node26" class="node"><title>03</title>
<ellipse fill="#cea8f4" stroke="#835da9" cx="304.847" cy="-279" rx="32.4942" ry="18"/>
<text text-anchor="middle" x="304.847" y="-275.3" font-family="Times,serif" font-size="14.00">03 (b)</text>
</g>
<!-- 03&#45;&gt;044 -->
<g id="edge23" class="edge"><title>03&#45;&gt;044</title>
<path fill="none" stroke="#835da9" stroke-dasharray="1,5" d="M280.381,-266.881C275.893,-264.891 271.24,-262.86 266.847,-261 247.012,-252.6 239.77,-254.949 221.847,-243 211.053,-235.804 200.742,-225.917 192.388,-216.834"/>
<polygon fill="#835da9" stroke="#835da9" points="194.834,-214.317 185.587,-209.146 189.591,-218.955 194.834,-214.317"/>
<text text-anchor="middle" x="243.847" y="-231.8" font-family="Times,serif" font-size="14.00">1 (89.2)</text>
</g>
<!-- 02 -->
<g id="node27" class="node"><title>02</title>
<ellipse fill="#cea8f4" stroke="#835da9" cx="260.847" cy="-192" rx="32.4942" ry="18"/>
<text text-anchor="middle" x="260.847" y="-188.3" font-family="Times,serif" font-size="14.00">02 (b)</text>
</g>
<!-- 03&#45;&gt;02 -->
<g id="edge24" class="edge"><title>03&#45;&gt;02</title>
<path fill="none" stroke="#835da9" stroke-dasharray="1,5" d="M290.115,-262.944C285.023,-257.093 279.647,-250.096 275.847,-243 272.082,-235.97 269.133,-227.864 266.884,-220.254"/>
<polygon fill="#835da9" stroke="#835da9" points="270.196,-219.092 264.24,-210.33 263.432,-220.894 270.196,-219.092"/>
<text text-anchor="middle" x="297.847" y="-231.8" font-family="Times,serif" font-size="14.00">1 (86.5)</text>
</g>
<!-- 032 -->
<g id="node28" class="node"><title>032</title>
<ellipse fill="#cea8f4" stroke="#835da9" cx="347.847" cy="-192" rx="36.2938" ry="18"/>
<text text-anchor="middle" x="347.847" y="-188.3" font-family="Times,serif" font-size="14.00">032 (b)</text>
</g>
<!-- 03&#45;&gt;032 -->
<g id="edge25" class="edge"><title>03&#45;&gt;032</title>
<path fill="none" stroke="#835da9" stroke-dasharray="1,5" d="M313.343,-261.207C319.468,-249.099 327.848,-232.533 334.816,-218.759"/>
<polygon fill="#835da9" stroke="#835da9" points="337.978,-220.262 339.369,-209.758 331.732,-217.102 337.978,-220.262"/>
<text text-anchor="middle" x="351.847" y="-231.8" font-family="Times,serif" font-size="14.00">1 (91.7)</text>
</g>
<!-- A -->
<g id="node29" class="node"><title>A</title>
<ellipse fill="#cea8f4" stroke="#835da9" cx="510.847" cy="-366" rx="29.795" ry="18"/>
<text text-anchor="middle" x="510.847" y="-362.3" font-family="Times,serif" font-size="14.00">A (b)</text>
</g>
<!-- A&#45;&gt;03 -->
<g id="edge26" class="edge"><title>A&#45;&gt;03</title>
<path fill="none" stroke="#835da9" stroke-dasharray="1,5" d="M486.813,-355.083C450.556,-340.123 381.675,-311.701 339.845,-294.441"/>
<polygon fill="#835da9" stroke="#835da9" points="340.916,-291.097 330.337,-290.518 338.246,-297.567 340.916,-291.097"/>
<text text-anchor="middle" x="442.847" y="-318.8" font-family="Times,serif" font-size="14.00">1 (93.3)</text>
</g>
<!-- P75 -->
<g id="node30" class="node"><title>P75</title>
<ellipse fill="#cea8f4" stroke="#835da9" cx="510.847" cy="-279" rx="37.0935" ry="18"/>
<text text-anchor="middle" x="510.847" y="-275.3" font-family="Times,serif" font-size="14.00">P75 (b)</text>
</g>
<!-- A&#45;&gt;P75 -->
<g id="edge27" class="edge"><title>A&#45;&gt;P75</title>
<path fill="none" stroke="#835da9" stroke-dasharray="1,5" d="M510.847,-347.799C510.847,-336.163 510.847,-320.548 510.847,-307.237"/>
<polygon fill="#835da9" stroke="#835da9" points="514.347,-307.175 510.847,-297.175 507.347,-307.175 514.347,-307.175"/>
<text text-anchor="middle" x="532.847" y="-318.8" font-family="Times,serif" font-size="14.00">1 (93.3)</text>
</g>
<!-- 019 -->
<g id="node31" class="node"><title>019</title>
<ellipse fill="#cea8f4" stroke="#835da9" cx="608.847" cy="-279" rx="36.2938" ry="18"/>
<text text-anchor="middle" x="608.847" y="-275.3" font-family="Times,serif" font-size="14.00">019 (b)</text>
</g>
<!-- A&#45;&gt;019 -->
<g id="edge28" class="edge"><title>A&#45;&gt;019</title>
<path fill="none" stroke="#835da9" stroke-dasharray="1,5" d="M530.056,-352.024C539.049,-345.693 549.757,-337.778 558.847,-330 568.515,-321.729 578.55,-311.96 587.07,-303.261"/>
<polygon fill="#835da9" stroke="#835da9" points="589.693,-305.583 594.12,-295.957 584.657,-300.721 589.693,-305.583"/>
<text text-anchor="middle" x="596.847" y="-318.8" font-family="Times,serif" font-size="14.00">1 (93.3)</text>
</g>
<!-- 019&#45;&gt;063 -->
<g id="edge29" class="edge"><title>019&#45;&gt;063</title>
<path fill="none" stroke="#835da9" stroke-dasharray="1,5" d="M610.061,-260.799C610.883,-249.163 611.985,-233.548 612.925,-220.237"/>
<polygon fill="#835da9" stroke="#835da9" points="616.422,-220.397 613.635,-210.175 609.439,-219.904 616.422,-220.397"/>
<text text-anchor="middle" x="634.847" y="-231.8" font-family="Times,serif" font-size="14.00">1 (85.7)</text>
</g>
</g>
</svg>
