<?xml version="1.0" encoding="UTF-8" standalone="no"?>
<!DOCTYPE svg PUBLIC "-//W3C//DTD SVG 1.1//EN"
 "http://www.w3.org/Graphics/SVG/1.1/DTD/svg11.dtd">
<!-- Generated by graphviz version 2.38.0 (20140413.2041)
 -->
<!-- Title: %3 Pages: 1 -->
<svg width="1153pt" height="337pt"
 viewBox="0.00 0.00 1153.00 337.00" xmlns="http://www.w3.org/2000/svg" xmlns:xlink="http://www.w3.org/1999/xlink">
<g id="graph0" class="graph" transform="scale(1 1) rotate(0) translate(4 333)">
<title>%3</title>
<polygon fill="white" stroke="none" points="-4,4 -4,-333 1149,-333 1149,4 -4,4"/>
<g id="clust1" class="cluster"><title>cluster_legend</title>
<path fill="none" stroke="black" d="M20,-193C20,-193 210,-193 210,-193 216,-193 222,-199 222,-205 222,-205 222,-309 222,-309 222,-315 216,-321 210,-321 210,-321 20,-321 20,-321 14,-321 8,-315 8,-309 8,-309 8,-205 8,-205 8,-199 14,-193 20,-193"/>
</g>
<g id="clust2" class="cluster"><title>cluster_reading</title>
<polygon fill="none" stroke="black" points="230,-8 230,-234 1137,-234 1137,-8 230,-8"/>
</g>
<!-- leg_s -->
<g id="node1" class="node"><title>leg_s</title>
<text text-anchor="middle" x="115" y="-291.3" font-family="Times,serif" font-size="14.00">Textual flow strength</text>
</g>
<!-- leg_e1 -->
<!-- leg_s&#45;&gt;leg_e1 -->
<g id="edge1" class="edge"><title>leg_s&#45;&gt;leg_e1</title>
<path fill="none" stroke="black" stroke-dasharray="1,5" d="M96.6657,-276.686C91.1324,-271.194 85.1607,-264.989 80,-259 70.1708,-247.593 60.0722,-233.779 52.9137,-223.563"/>
<polygon fill="black" stroke="black" points="55.6142,-221.314 47.056,-215.068 49.8514,-225.288 55.6142,-221.314"/>
<text text-anchor="middle" x="95.5" y="-247.8" font-family="Times,serif" font-size="14.00">&lt;=5 &#160;</text>
</g>
<!-- leg_e2 -->
<!-- leg_s&#45;&gt;leg_e2 -->
<g id="edge2" class="edge"><title>leg_s&#45;&gt;leg_e2</title>
<path fill="none" stroke="black" stroke-dasharray="5,2" d="M115,-276.799C115,-261.794 115,-240.174 115,-225.409"/>
<polygon fill="black" stroke="black" points="118.5,-225.293 115,-215.293 111.5,-225.293 118.5,-225.293"/>
<text text-anchor="middle" x="134" y="-247.8" font-family="Times,serif" font-size="14.00"> &#160;&lt;=25</text>
</g>
<!-- leg_e3 -->
<!-- leg_s&#45;&gt;leg_e3 -->
<g id="edge3" class="edge"><title>leg_s&#45;&gt;leg_e3</title>
<path fill="none" stroke="black" d="M138.503,-276.76C144.906,-271.462 151.567,-265.344 157,-259 166.087,-248.39 174.095,-234.689 179.546,-224.313"/>
<polygon fill="black" stroke="black" points="182.722,-225.789 184.091,-215.283 176.469,-222.642 182.722,-225.789"/>
<text text-anchor="middle" x="179" y="-247.8" font-family="Times,serif" font-size="14.00">&gt;25</text>
</g>
<!-- 021 -->
<g id="node5" class="node"><title>021</title>
<ellipse fill="#cea8f4" stroke="#835da9" cx="365" cy="-121" rx="36.2938" ry="18"/>
<text text-anchor="middle" x="365" y="-117.3" font-family="Times,serif" font-size="14.00">021 (b)</text>
</g>
<!-- 036 -->
<g id="node6" class="node"><title>036</title>
<ellipse fill="#cea8f4" stroke="#835da9" cx="365" cy="-34" rx="36.2938" ry="18"/>
<text text-anchor="middle" x="365" y="-30.3" font-family="Times,serif" font-size="14.00">036 (b)</text>
</g>
<!-- 021&#45;&gt;036 -->
<g id="edge4" class="edge"><title>021&#45;&gt;036</title>
<path fill="none" stroke="#835da9" stroke-dasharray="1,5" d="M365,-102.799C365,-91.1626 365,-75.5479 365,-62.2368"/>
<polygon fill="#835da9" stroke="#835da9" points="368.5,-62.1754 365,-52.1754 361.5,-62.1755 368.5,-62.1754"/>
<text text-anchor="middle" x="387" y="-73.8" font-family="Times,serif" font-size="14.00">1 (97.6)</text>
</g>
<!-- 047 -->
<g id="node7" class="node"><title>047</title>
<ellipse fill="#cea8f4" stroke="#835da9" cx="274" cy="-34" rx="36.2938" ry="18"/>
<text text-anchor="middle" x="274" y="-30.3" font-family="Times,serif" font-size="14.00">047 (b)</text>
</g>
<!-- 021&#45;&gt;047 -->
<g id="edge5" class="edge"><title>021&#45;&gt;047</title>
<path fill="none" stroke="#835da9" stroke-dasharray="1,5" d="M343.628,-106.006C335.008,-99.9634 325.186,-92.5539 317,-85 308.456,-77.1154 299.924,-67.6186 292.74,-59.0293"/>
<polygon fill="#835da9" stroke="#835da9" points="295.344,-56.6853 286.308,-51.1545 289.923,-61.1135 295.344,-56.6853"/>
<text text-anchor="middle" x="339" y="-73.8" font-family="Times,serif" font-size="14.00">1 (95.1)</text>
</g>
<!-- 063 -->
<g id="node8" class="node"><title>063</title>
<ellipse fill="#cea8f4" stroke="#835da9" cx="688" cy="-208" rx="36.2938" ry="18"/>
<text text-anchor="middle" x="688" y="-204.3" font-family="Times,serif" font-size="14.00">063 (b)</text>
</g>
<!-- 063&#45;&gt;021 -->
<g id="edge6" class="edge"><title>063&#45;&gt;021</title>
<path fill="none" stroke="#835da9" stroke-dasharray="1,5" d="M656.736,-198.773C598.126,-183.349 471.756,-150.094 406.252,-132.856"/>
<polygon fill="#835da9" stroke="#835da9" points="406.843,-129.392 396.281,-130.232 405.061,-136.162 406.843,-129.392"/>
<text text-anchor="middle" x="568" y="-160.8" font-family="Times,serif" font-size="14.00">1 (93.1)</text>
</g>
<!-- 011 -->
<g id="node9" class="node"><title>011</title>
<ellipse fill="#cea8f4" stroke="#835da9" cx="601" cy="-121" rx="36.2938" ry="18"/>
<text text-anchor="middle" x="601" y="-117.3" font-family="Times,serif" font-size="14.00">011 (b)</text>
</g>
<!-- 063&#45;&gt;011 -->
<g id="edge7" class="edge"><title>063&#45;&gt;011</title>
<path fill="none" stroke="#835da9" stroke-dasharray="1,5" d="M666.445,-193.2C657.796,-187.187 648.003,-179.748 640,-172 632.051,-164.304 624.333,-154.945 617.889,-146.414"/>
<polygon fill="#835da9" stroke="#835da9" points="620.642,-144.25 611.909,-138.252 614.996,-148.388 620.642,-144.25"/>
<text text-anchor="middle" x="662" y="-160.8" font-family="Times,serif" font-size="14.00">1 (93.1)</text>
</g>
<!-- 07 -->
<g id="node10" class="node"><title>07</title>
<ellipse fill="#cea8f4" stroke="#835da9" cx="688" cy="-121" rx="32.4942" ry="18"/>
<text text-anchor="middle" x="688" y="-117.3" font-family="Times,serif" font-size="14.00">07 (b)</text>
</g>
<!-- 063&#45;&gt;07 -->
<g id="edge8" class="edge"><title>063&#45;&gt;07</title>
<path fill="none" stroke="#835da9" stroke-dasharray="1,5" d="M688,-189.799C688,-178.163 688,-162.548 688,-149.237"/>
<polygon fill="#835da9" stroke="#835da9" points="691.5,-149.175 688,-139.175 684.5,-149.175 691.5,-149.175"/>
<text text-anchor="middle" x="710" y="-160.8" font-family="Times,serif" font-size="14.00">1 (96.6)</text>
</g>
<!-- 045 -->
<g id="node11" class="node"><title>045</title>
<ellipse fill="#cea8f4" stroke="#835da9" cx="775" cy="-121" rx="36.2938" ry="18"/>
<text text-anchor="middle" x="775" y="-117.3" font-family="Times,serif" font-size="14.00">045 (b)</text>
</g>
<!-- 063&#45;&gt;045 -->
<g id="edge9" class="edge"><title>063&#45;&gt;045</title>
<path fill="none" stroke="#835da9" stroke-dasharray="1,5" d="M709.555,-193.2C718.204,-187.187 727.997,-179.748 736,-172 743.949,-164.304 751.667,-154.945 758.111,-146.414"/>
<polygon fill="#835da9" stroke="#835da9" points="761.004,-148.388 764.091,-138.252 755.358,-144.25 761.004,-148.388"/>
<text text-anchor="middle" x="771" y="-160.8" font-family="Times,serif" font-size="14.00">1 (93.1)</text>
</g>
<!-- 028 -->
<g id="node12" class="node"><title>028</title>
<ellipse fill="#cea8f4" stroke="#835da9" cx="866" cy="-121" rx="36.2938" ry="18"/>
<text text-anchor="middle" x="866" y="-117.3" font-family="Times,serif" font-size="14.00">028 (b)</text>
</g>
<!-- 063&#45;&gt;028 -->
<g id="edge10" class="edge"><title>063&#45;&gt;028</title>
<path fill="none" stroke="#835da9" stroke-dasharray="1,5" d="M720.531,-199.447C742.77,-193.597 772.532,-184.394 797,-172 812.333,-164.233 827.961,-153.217 840.458,-143.501"/>
<polygon fill="#835da9" stroke="#835da9" points="842.929,-146.007 848.568,-137.038 838.566,-140.533 842.929,-146.007"/>
<text text-anchor="middle" x="844" y="-160.8" font-family="Times,serif" font-size="14.00">1 (96.6)</text>
</g>
<!-- 030 -->
<g id="node13" class="node"><title>030</title>
<ellipse fill="#cea8f4" stroke="#835da9" cx="737" cy="-34" rx="36.2938" ry="18"/>
<text text-anchor="middle" x="737" y="-30.3" font-family="Times,serif" font-size="14.00">030 (b)</text>
</g>
<!-- 07&#45;&gt;030 -->
<g id="edge11" class="edge"><title>07&#45;&gt;030</title>
<path fill="none" stroke="#835da9" stroke-dasharray="1,5" d="M697.448,-103.611C704.52,-91.3433 714.324,-74.3364 722.401,-60.3242"/>
<polygon fill="#835da9" stroke="#835da9" points="725.452,-62.0401 727.414,-51.6286 719.388,-58.5441 725.452,-62.0401"/>
<text text-anchor="middle" x="738" y="-73.8" font-family="Times,serif" font-size="14.00">1 (95.1)</text>
</g>
<!-- 017 -->
<g id="node14" class="node"><title>017</title>
<ellipse fill="#cea8f4" stroke="#835da9" cx="828" cy="-34" rx="36.2938" ry="18"/>
<text text-anchor="middle" x="828" y="-30.3" font-family="Times,serif" font-size="14.00">017 (b)</text>
</g>
<!-- 07&#45;&gt;017 -->
<g id="edge12" class="edge"><title>07&#45;&gt;017</title>
<path fill="none" stroke="#835da9" stroke-dasharray="1,5" d="M713.741,-109.906C728.826,-103.564 747.999,-94.7529 764,-85 777.564,-76.7328 791.583,-66.059 803.031,-56.6977"/>
<polygon fill="#835da9" stroke="#835da9" points="805.428,-59.2569 810.869,-50.1663 800.946,-53.8792 805.428,-59.2569"/>
<text text-anchor="middle" x="807" y="-73.8" font-family="Times,serif" font-size="14.00">2 (92.7)</text>
</g>
<!-- 013 -->
<g id="node15" class="node"><title>013</title>
<ellipse fill="#cea8f4" stroke="#835da9" cx="919" cy="-34" rx="36.2938" ry="18"/>
<text text-anchor="middle" x="919" y="-30.3" font-family="Times,serif" font-size="14.00">013 (b)</text>
</g>
<!-- 07&#45;&gt;013 -->
<g id="edge13" class="edge"><title>07&#45;&gt;013</title>
<path fill="none" stroke="#835da9" stroke-dasharray="1,5" d="M712.568,-109.046C718.216,-106.812 724.252,-104.645 730,-103 774.677,-90.2106 789.343,-100.927 833,-85 853.397,-77.5586 874.501,-65.3675 890.699,-54.8865"/>
<polygon fill="#835da9" stroke="#835da9" points="892.755,-57.7226 899.157,-49.2806 888.888,-51.8878 892.755,-57.7226"/>
<text text-anchor="middle" x="887" y="-73.8" font-family="Times,serif" font-size="14.00">2 (95.1)</text>
</g>
<!-- 034 -->
<g id="node16" class="node"><title>034</title>
<ellipse fill="#cea8f4" stroke="#835da9" cx="456" cy="-34" rx="36.2938" ry="18"/>
<text text-anchor="middle" x="456" y="-30.3" font-family="Times,serif" font-size="14.00">034 (b)</text>
</g>
<!-- 07&#45;&gt;034 -->
<g id="edge14" class="edge"><title>07&#45;&gt;034</title>
<path fill="none" stroke="#835da9" stroke-dasharray="1,5" d="M663.445,-108.999C657.797,-106.768 651.756,-104.614 646,-103 598.301,-89.624 582.357,-102.47 536,-85 517.039,-77.8542 497.72,-65.9374 482.818,-55.53"/>
<polygon fill="#835da9" stroke="#835da9" points="484.755,-52.6121 474.59,-49.6241 480.673,-58.2988 484.755,-52.6121"/>
<text text-anchor="middle" x="558" y="-73.8" font-family="Times,serif" font-size="14.00">1 (95.1)</text>
</g>
<!-- 037 -->
<g id="node17" class="node"><title>037</title>
<ellipse fill="#cea8f4" stroke="#835da9" cx="547" cy="-34" rx="36.2938" ry="18"/>
<text text-anchor="middle" x="547" y="-30.3" font-family="Times,serif" font-size="14.00">037 (b)</text>
</g>
<!-- 07&#45;&gt;037 -->
<g id="edge15" class="edge"><title>07&#45;&gt;037</title>
<path fill="none" stroke="#835da9" stroke-dasharray="1,5" d="M662.589,-109.656C638.044,-99.6459 604.369,-85.8579 603,-85 590.799,-77.3553 578.7,-66.9978 568.888,-57.6923"/>
<polygon fill="#835da9" stroke="#835da9" points="571.15,-55.0093 561.55,-50.527 566.259,-60.0176 571.15,-55.0093"/>
<text text-anchor="middle" x="625" y="-73.8" font-family="Times,serif" font-size="14.00">1 (97.5)</text>
</g>
<!-- 0211 -->
<g id="node18" class="node"><title>0211</title>
<ellipse fill="#cea8f4" stroke="#835da9" cx="642" cy="-34" rx="40.8928" ry="18"/>
<text text-anchor="middle" x="642" y="-30.3" font-family="Times,serif" font-size="14.00">0211 (b)</text>
</g>
<!-- 07&#45;&gt;0211 -->
<g id="edge16" class="edge"><title>07&#45;&gt;0211</title>
<path fill="none" stroke="#835da9" stroke-dasharray="1,5" d="M672.216,-105.094C666.768,-99.2589 661.029,-92.2333 657,-85 653.075,-77.9533 650.067,-69.7631 647.811,-62.076"/>
<polygon fill="#835da9" stroke="#835da9" points="651.195,-61.1802 645.267,-52.3991 644.425,-62.9604 651.195,-61.1802"/>
<text text-anchor="middle" x="679" y="-73.8" font-family="Times,serif" font-size="14.00">2 (82.9)</text>
</g>
<!-- 038 -->
<g id="node23" class="node"><title>038</title>
<ellipse fill="#cea8f4" stroke="#835da9" cx="1010" cy="-34" rx="36.2938" ry="18"/>
<text text-anchor="middle" x="1010" y="-30.3" font-family="Times,serif" font-size="14.00">038 (b)</text>
</g>
<!-- 045&#45;&gt;038 -->
<g id="edge20" class="edge"><title>045&#45;&gt;038</title>
<path fill="none" stroke="#835da9" stroke-dasharray="1,5" d="M802.493,-109.022C808.531,-106.841 814.934,-104.702 821,-103 861.114,-91.7422 873.646,-98.6812 913,-85 936.116,-76.9636 960.602,-64.3068 979.189,-53.7385"/>
<polygon fill="#835da9" stroke="#835da9" points="981.171,-56.6349 988.069,-48.5932 977.662,-50.578 981.171,-56.6349"/>
<text text-anchor="middle" x="968" y="-73.8" font-family="Times,serif" font-size="14.00">1 (92.7)</text>
</g>
<!-- 044 -->
<g id="node19" class="node"><title>044</title>
<ellipse fill="#cea8f4" stroke="#835da9" cx="999" cy="-208" rx="36.2938" ry="18"/>
<text text-anchor="middle" x="999" y="-204.3" font-family="Times,serif" font-size="14.00">044 (b)</text>
</g>
<!-- 0141 -->
<g id="node20" class="node"><title>0141</title>
<ellipse fill="#cea8f4" stroke="#835da9" cx="1085" cy="-121" rx="40.8928" ry="18"/>
<text text-anchor="middle" x="1085" y="-117.3" font-family="Times,serif" font-size="14.00">0141 (b)</text>
</g>
<!-- 044&#45;&gt;0141 -->
<g id="edge17" class="edge"><title>044&#45;&gt;0141</title>
<path fill="none" stroke="#835da9" stroke-dasharray="1,5" d="M1018.54,-192.806C1026.44,-186.732 1035.45,-179.354 1043,-172 1051.04,-164.171 1059.14,-154.919 1066.06,-146.516"/>
<polygon fill="#835da9" stroke="#835da9" points="1068.98,-148.464 1072.53,-138.481 1063.53,-144.074 1068.98,-148.464"/>
<text text-anchor="middle" x="1078" y="-160.8" font-family="Times,serif" font-size="14.00">1 (89.2)</text>
</g>
<!-- 022 -->
<g id="node21" class="node"><title>022</title>
<ellipse fill="#cea8f4" stroke="#835da9" cx="990" cy="-121" rx="36.2938" ry="18"/>
<text text-anchor="middle" x="990" y="-117.3" font-family="Times,serif" font-size="14.00">022 (b)</text>
</g>
<!-- 044&#45;&gt;022 -->
<g id="edge18" class="edge"><title>044&#45;&gt;022</title>
<path fill="none" stroke="#835da9" stroke-dasharray="1,5" d="M997.179,-189.799C995.947,-178.163 994.293,-162.548 992.884,-149.237"/>
<polygon fill="#835da9" stroke="#835da9" points="996.352,-148.751 991.819,-139.175 989.391,-149.488 996.352,-148.751"/>
<text text-anchor="middle" x="1017" y="-160.8" font-family="Times,serif" font-size="14.00">1 (91.7)</text>
</g>
<!-- 02 -->
<g id="node22" class="node"><title>02</title>
<ellipse fill="#cea8f4" stroke="#835da9" cx="1097" cy="-34" rx="32.4942" ry="18"/>
<text text-anchor="middle" x="1097" y="-30.3" font-family="Times,serif" font-size="14.00">02 (b)</text>
</g>
<!-- 0141&#45;&gt;02 -->
<g id="edge19" class="edge"><title>0141&#45;&gt;02</title>
<path fill="none" stroke="#835da9" stroke-dasharray="1,5" d="M1087.43,-102.799C1089.07,-91.1626 1091.28,-75.5479 1093.15,-62.2368"/>
<polygon fill="#835da9" stroke="#835da9" points="1096.64,-62.5665 1094.58,-52.1754 1089.71,-61.588 1096.64,-62.5665"/>
<text text-anchor="middle" x="1113" y="-73.8" font-family="Times,serif" font-size="14.00">1 (86.5)</text>
</g>
<!-- 032 -->
<g id="node24" class="node"><title>032</title>
<ellipse fill="#cea8f4" stroke="#835da9" cx="1090" cy="-208" rx="36.2938" ry="18"/>
<text text-anchor="middle" x="1090" y="-204.3" font-family="Times,serif" font-size="14.00">032 (b)</text>
</g>
<!-- 019 -->
<g id="node25" class="node"><title>019</title>
<ellipse fill="#ff8a8a" stroke="#b43f3f" cx="688" cy="-295" rx="36.2938" ry="18"/>
<text text-anchor="middle" x="688" y="-291.3" font-family="Times,serif" font-size="14.00">019 (a)</text>
</g>
<!-- 019&#45;&gt;063 -->
<g id="edge21" class="edge"><title>019&#45;&gt;063</title>
<path fill="none" stroke="#835da9" stroke-dasharray="1,5" d="M688,-276.799C688,-265.163 688,-249.548 688,-236.237"/>
<polygon fill="#835da9" stroke="#835da9" points="691.5,-236.175 688,-226.175 684.5,-236.175 691.5,-236.175"/>
<text text-anchor="middle" x="710" y="-247.8" font-family="Times,serif" font-size="14.00">1 (85.7)</text>
</g>
<!-- 03 -->
<g id="node26" class="node"><title>03</title>
<ellipse fill="#ff8a8a" stroke="#b43f3f" cx="1038" cy="-295" rx="31.6951" ry="18"/>
<text text-anchor="middle" x="1038" y="-291.3" font-family="Times,serif" font-size="14.00">03 (a)</text>
</g>
<!-- 03&#45;&gt;044 -->
<g id="edge22" class="edge"><title>03&#45;&gt;044</title>
<path fill="none" stroke="#835da9" stroke-dasharray="1,5" d="M1027.9,-277.548C1024.55,-271.785 1020.93,-265.202 1018,-259 1014.47,-251.527 1011.1,-243.206 1008.2,-235.531"/>
<polygon fill="#835da9" stroke="#835da9" points="1011.42,-234.128 1004.69,-225.939 1004.84,-236.533 1011.42,-234.128"/>
<text text-anchor="middle" x="1040" y="-247.8" font-family="Times,serif" font-size="14.00">1 (89.2)</text>
</g>
<!-- 03&#45;&gt;032 -->
<g id="edge23" class="edge"><title>03&#45;&gt;032</title>
<path fill="none" stroke="#835da9" stroke-dasharray="1,5" d="M1049.54,-277.822C1053.6,-271.969 1058.11,-265.259 1062,-259 1066.83,-251.225 1071.8,-242.58 1076.2,-234.696"/>
<polygon fill="#835da9" stroke="#835da9" points="1079.29,-236.336 1081.04,-225.887 1073.15,-232.963 1079.29,-236.336"/>
<text text-anchor="middle" x="1092" y="-247.8" font-family="Times,serif" font-size="14.00">1 (91.7)</text>
</g>
</g>
</svg>
