<?xml version="1.0" encoding="UTF-8" standalone="no"?>
<!DOCTYPE svg PUBLIC "-//W3C//DTD SVG 1.1//EN"
 "http://www.w3.org/Graphics/SVG/1.1/DTD/svg11.dtd">
<!-- Generated by graphviz version 2.38.0 (20140413.2041)
 -->
<!-- Title: G Pages: 1 -->
<svg width="908pt" height="479pt"
 viewBox="0.00 0.00 907.79 479.00" xmlns="http://www.w3.org/2000/svg" xmlns:xlink="http://www.w3.org/1999/xlink">
<g id="graph0" class="graph" transform="scale(1 1) rotate(0) translate(4 475)">
<title>G</title>
<polygon fill="white" stroke="none" points="-4,4 -4,-475 903.794,-475 903.794,4 -4,4"/>
<!-- 01 (b) -->
<g id="node1" class="node"><title>01 (b)</title>
<ellipse fill="#cea8f4" stroke="#835da9" cx="772.397" cy="-18" rx="32.4942" ry="18"/>
<text text-anchor="middle" x="772.397" y="-14.3" font-family="Times,serif" font-size="14.00">01 (b)</text>
</g>
<!-- 013 (c) -->
<g id="node2" class="node"><title>013 (c)</title>
<ellipse fill="#72fe95" stroke="#27b34a" cx="36.3968" cy="-105" rx="36.2938" ry="18"/>
<text text-anchor="middle" x="36.3968" y="-101.3" font-family="Times,serif" font-size="14.00">013 (c)</text>
</g>
<!-- 017 (a) -->
<g id="node3" class="node"><title>017 (a)</title>
<ellipse fill="#ff8a8a" stroke="#b43f3f" cx="127.397" cy="-105" rx="36.2938" ry="18"/>
<text text-anchor="middle" x="127.397" y="-101.3" font-family="Times,serif" font-size="14.00">017 (a)</text>
</g>
<!-- 07 (a) -->
<g id="node4" class="node"><title>07 (a)</title>
<ellipse fill="#ff8a8a" stroke="#b43f3f" cx="247.397" cy="-192" rx="31.6951" ry="18"/>
<text text-anchor="middle" x="247.397" y="-188.3" font-family="Times,serif" font-size="14.00">07 (a)</text>
</g>
<!-- 07 (a)&#45;&gt;013 (c) -->
<g id="edge3" class="edge"><title>07 (a)&#45;&gt;013 (c)</title>
<path fill="none" stroke="#27b34a" d="M217.653,-185.43C190.979,-179.855 151.118,-170.076 118.397,-156 99.5751,-147.903 79.9289,-136.059 64.5866,-125.931"/>
<polygon fill="#27b34a" stroke="#27b34a" points="66.3386,-122.891 56.0893,-120.207 62.4277,-128.696 66.3386,-122.891"/>
<text text-anchor="middle" x="140.397" y="-144.8" font-family="Times,serif" font-size="14.00">2 (95.1)</text>
</g>
<!-- 07 (a)&#45;&gt;017 (a) -->
<g id="edge1" class="edge"><title>07 (a)&#45;&gt;017 (a)</title>
<path fill="none" stroke="#b43f3f" d="M223.827,-179.749C211.394,-173.413 196.123,-164.983 183.397,-156 171.802,-147.816 159.939,-137.548 150.134,-128.449"/>
<polygon fill="#b43f3f" stroke="#b43f3f" points="152.425,-125.798 142.756,-121.465 147.612,-130.882 152.425,-125.798"/>
<text text-anchor="middle" x="205.397" y="-144.8" font-family="Times,serif" font-size="14.00">2 (92.7)</text>
</g>
<!-- 037 (a) -->
<g id="node11" class="node"><title>037 (a)</title>
<ellipse fill="#ff8a8a" stroke="#b43f3f" cx="218.397" cy="-105" rx="36.2938" ry="18"/>
<text text-anchor="middle" x="218.397" y="-101.3" font-family="Times,serif" font-size="14.00">037 (a)</text>
</g>
<!-- 07 (a)&#45;&gt;037 (a) -->
<g id="edge4" class="edge"><title>07 (a)&#45;&gt;037 (a)</title>
<path fill="none" stroke="#b43f3f" d="M241.667,-174.207C237.642,-162.409 232.173,-146.378 227.548,-132.822"/>
<polygon fill="#b43f3f" stroke="#b43f3f" points="230.755,-131.383 224.214,-123.049 224.13,-133.644 230.755,-131.383"/>
<text text-anchor="middle" x="257.397" y="-144.8" font-family="Times,serif" font-size="14.00">1 (97.5)</text>
</g>
<!-- 034 (a) -->
<g id="node19" class="node"><title>034 (a)</title>
<ellipse fill="#ff8a8a" stroke="#b43f3f" cx="309.397" cy="-105" rx="36.2938" ry="18"/>
<text text-anchor="middle" x="309.397" y="-101.3" font-family="Times,serif" font-size="14.00">034 (a)</text>
</g>
<!-- 07 (a)&#45;&gt;034 (a) -->
<g id="edge2" class="edge"><title>07 (a)&#45;&gt;034 (a)</title>
<path fill="none" stroke="#b43f3f" d="M264.312,-176.669C270.763,-170.689 277.882,-163.414 283.397,-156 288.853,-148.665 293.789,-140.023 297.859,-132.006"/>
<polygon fill="#b43f3f" stroke="#b43f3f" points="301.013,-133.523 302.218,-122.997 294.712,-130.475 301.013,-133.523"/>
<text text-anchor="middle" x="315.397" y="-144.8" font-family="Times,serif" font-size="14.00">1 (95.1)</text>
</g>
<!-- 030 (a) -->
<g id="node24" class="node"><title>030 (a)</title>
<ellipse fill="#ff8a8a" stroke="#b43f3f" cx="400.397" cy="-105" rx="36.2938" ry="18"/>
<text text-anchor="middle" x="400.397" y="-101.3" font-family="Times,serif" font-size="14.00">030 (a)</text>
</g>
<!-- 07 (a)&#45;&gt;030 (a) -->
<g id="edge5" class="edge"><title>07 (a)&#45;&gt;030 (a)</title>
<path fill="none" stroke="#b43f3f" d="M275.682,-183.286C294.964,-177.365 320.659,-168.143 341.397,-156 354.323,-148.431 367.188,-137.963 377.59,-128.561"/>
<polygon fill="#b43f3f" stroke="#b43f3f" points="380.087,-131.018 385.025,-121.644 375.319,-125.893 380.087,-131.018"/>
<text text-anchor="middle" x="384.397" y="-144.8" font-family="Times,serif" font-size="14.00">1 (95.1)</text>
</g>
<!-- 032 (a) -->
<g id="node5" class="node"><title>032 (a)</title>
<ellipse fill="#ff8a8a" stroke="#b43f3f" cx="414.397" cy="-279" rx="36.2938" ry="18"/>
<text text-anchor="middle" x="414.397" y="-275.3" font-family="Times,serif" font-size="14.00">032 (a)</text>
</g>
<!-- 022 (a) -->
<g id="node6" class="node"><title>022 (a)</title>
<ellipse fill="#ff8a8a" stroke="#b43f3f" cx="400.397" cy="-192" rx="36.2938" ry="18"/>
<text text-anchor="middle" x="400.397" y="-188.3" font-family="Times,serif" font-size="14.00">022 (a)</text>
</g>
<!-- A (a) -->
<g id="node7" class="node"><title>A (a)</title>
<ellipse fill="#ff8a8a" stroke="#b43f3f" cx="631.397" cy="-453" rx="29.4969" ry="18"/>
<text text-anchor="middle" x="631.397" y="-449.3" font-family="Times,serif" font-size="14.00">A (a)</text>
</g>
<!-- 03 (a) -->
<g id="node17" class="node"><title>03 (a)</title>
<ellipse fill="#ff8a8a" stroke="#b43f3f" cx="500.397" cy="-366" rx="31.6951" ry="18"/>
<text text-anchor="middle" x="500.397" y="-362.3" font-family="Times,serif" font-size="14.00">03 (a)</text>
</g>
<!-- A (a)&#45;&gt;03 (a) -->
<g id="edge6" class="edge"><title>A (a)&#45;&gt;03 (a)</title>
<path fill="none" stroke="#b43f3f" d="M607.144,-442.808C591.973,-436.553 572.353,-427.517 556.397,-417 544.375,-409.077 532.301,-398.681 522.458,-389.422"/>
<polygon fill="#b43f3f" stroke="#b43f3f" points="524.713,-386.734 515.086,-382.309 519.852,-391.772 524.713,-386.734"/>
<text text-anchor="middle" x="578.397" y="-405.8" font-family="Times,serif" font-size="14.00">1 (93.3)</text>
</g>
<!-- P75 (a) -->
<g id="node18" class="node"><title>P75 (a)</title>
<ellipse fill="#ff8a8a" stroke="#b43f3f" cx="586.397" cy="-366" rx="36.2938" ry="18"/>
<text text-anchor="middle" x="586.397" y="-362.3" font-family="Times,serif" font-size="14.00">P75 (a)</text>
</g>
<!-- A (a)&#45;&gt;P75 (a) -->
<g id="edge7" class="edge"><title>A (a)&#45;&gt;P75 (a)</title>
<path fill="none" stroke="#b43f3f" d="M621.847,-435.723C618.473,-429.861 614.699,-423.17 611.397,-417 607.229,-409.213 602.866,-400.645 598.972,-392.834"/>
<polygon fill="#b43f3f" stroke="#b43f3f" points="602.069,-391.2 594.5,-383.785 595.793,-394.301 602.069,-391.2"/>
<text text-anchor="middle" x="633.397" y="-405.8" font-family="Times,serif" font-size="14.00">1 (93.3)</text>
</g>
<!-- 019 (a) -->
<g id="node20" class="node"><title>019 (a)</title>
<ellipse fill="#ff8a8a" stroke="#b43f3f" cx="677.397" cy="-366" rx="36.2938" ry="18"/>
<text text-anchor="middle" x="677.397" y="-362.3" font-family="Times,serif" font-size="14.00">019 (a)</text>
</g>
<!-- A (a)&#45;&gt;019 (a) -->
<g id="edge8" class="edge"><title>A (a)&#45;&gt;019 (a)</title>
<path fill="none" stroke="#b43f3f" d="M643.036,-436.37C647.19,-430.457 651.743,-423.567 655.397,-417 659.547,-409.542 663.498,-401.148 666.877,-393.398"/>
<polygon fill="#b43f3f" stroke="#b43f3f" points="670.161,-394.619 670.824,-384.044 663.712,-391.897 670.161,-394.619"/>
<text text-anchor="middle" x="685.397" y="-405.8" font-family="Times,serif" font-size="14.00">1 (93.3)</text>
</g>
<!-- 091 (a) -->
<g id="node23" class="node"><title>091 (a)</title>
<ellipse fill="#ff8a8a" stroke="#b43f3f" cx="768.397" cy="-366" rx="36.2938" ry="18"/>
<text text-anchor="middle" x="768.397" y="-362.3" font-family="Times,serif" font-size="14.00">091 (a)</text>
</g>
<!-- A (a)&#45;&gt;091 (a) -->
<g id="edge9" class="edge"><title>A (a)&#45;&gt;091 (a)</title>
<path fill="none" stroke="#b43f3f" d="M656.182,-443.429C672.507,-437.247 693.997,-428.061 711.397,-417 723.493,-409.31 735.612,-399.116 745.546,-389.939"/>
<polygon fill="#b43f3f" stroke="#b43f3f" points="748.156,-392.287 753.001,-382.865 743.338,-387.209 748.156,-392.287"/>
<text text-anchor="middle" x="754.397" y="-405.8" font-family="Times,serif" font-size="14.00">1 (87.5)</text>
</g>
<!-- 021 (a) -->
<g id="node8" class="node"><title>021 (a)</title>
<ellipse fill="#ff8a8a" stroke="#b43f3f" cx="491.397" cy="-192" rx="36.2938" ry="18"/>
<text text-anchor="middle" x="491.397" y="-188.3" font-family="Times,serif" font-size="14.00">021 (a)</text>
</g>
<!-- 036 (a) -->
<g id="node14" class="node"><title>036 (a)</title>
<ellipse fill="#ff8a8a" stroke="#b43f3f" cx="491.397" cy="-105" rx="36.2938" ry="18"/>
<text text-anchor="middle" x="491.397" y="-101.3" font-family="Times,serif" font-size="14.00">036 (a)</text>
</g>
<!-- 021 (a)&#45;&gt;036 (a) -->
<g id="edge10" class="edge"><title>021 (a)&#45;&gt;036 (a)</title>
<path fill="none" stroke="#b43f3f" d="M491.397,-173.799C491.397,-162.163 491.397,-146.548 491.397,-133.237"/>
<polygon fill="#b43f3f" stroke="#b43f3f" points="494.897,-133.175 491.397,-123.175 487.897,-133.175 494.897,-133.175"/>
<text text-anchor="middle" x="513.397" y="-144.8" font-family="Times,serif" font-size="14.00">1 (97.6)</text>
</g>
<!-- 047 (a) -->
<g id="node21" class="node"><title>047 (a)</title>
<ellipse fill="#ff8a8a" stroke="#b43f3f" cx="582.397" cy="-105" rx="36.2938" ry="18"/>
<text text-anchor="middle" x="582.397" y="-101.3" font-family="Times,serif" font-size="14.00">047 (a)</text>
</g>
<!-- 021 (a)&#45;&gt;047 (a) -->
<g id="edge11" class="edge"><title>021 (a)&#45;&gt;047 (a)</title>
<path fill="none" stroke="#b43f3f" d="M512.768,-177.006C521.389,-170.963 531.211,-163.554 539.397,-156 547.941,-148.115 556.472,-138.619 563.657,-130.029"/>
<polygon fill="#b43f3f" stroke="#b43f3f" points="566.474,-132.113 570.089,-122.155 561.053,-127.685 566.474,-132.113"/>
<text text-anchor="middle" x="575.397" y="-144.8" font-family="Times,serif" font-size="14.00">1 (95.1)</text>
</g>
<!-- 0141 (a) -->
<g id="node9" class="node"><title>0141 (a)</title>
<ellipse fill="#ff8a8a" stroke="#b43f3f" cx="586.397" cy="-192" rx="40.0939" ry="18"/>
<text text-anchor="middle" x="586.397" y="-188.3" font-family="Times,serif" font-size="14.00">0141 (a)</text>
</g>
<!-- 028 (a) -->
<g id="node10" class="node"><title>028 (a)</title>
<ellipse fill="#ff8a8a" stroke="#b43f3f" cx="681.397" cy="-192" rx="36.2938" ry="18"/>
<text text-anchor="middle" x="681.397" y="-188.3" font-family="Times,serif" font-size="14.00">028 (a)</text>
</g>
<!-- 05 (a) -->
<g id="node12" class="node"><title>05 (a)</title>
<ellipse fill="#ff8a8a" stroke="#b43f3f" cx="723.397" cy="-279" rx="31.6951" ry="18"/>
<text text-anchor="middle" x="723.397" y="-275.3" font-family="Times,serif" font-size="14.00">05 (a)</text>
</g>
<!-- 02 (a) -->
<g id="node13" class="node"><title>02 (a)</title>
<ellipse fill="#ff8a8a" stroke="#b43f3f" cx="500.397" cy="-279" rx="31.6951" ry="18"/>
<text text-anchor="middle" x="500.397" y="-275.3" font-family="Times,serif" font-size="14.00">02 (a)</text>
</g>
<!-- 038 (b) -->
<g id="node15" class="node"><title>038 (b)</title>
<ellipse fill="#cea8f4" stroke="#835da9" cx="772.397" cy="-105" rx="36.2938" ry="18"/>
<text text-anchor="middle" x="772.397" y="-101.3" font-family="Times,serif" font-size="14.00">038 (b)</text>
</g>
<!-- 038 (b)&#45;&gt;01 (b) -->
<g id="edge12" class="edge"><title>038 (b)&#45;&gt;01 (b)</title>
<path fill="none" stroke="#835da9" d="M772.397,-86.799C772.397,-75.1626 772.397,-59.5479 772.397,-46.2368"/>
<polygon fill="#835da9" stroke="#835da9" points="775.897,-46.1754 772.397,-36.1754 768.897,-46.1755 775.897,-46.1754"/>
<text text-anchor="middle" x="794.397" y="-57.8" font-family="Times,serif" font-size="14.00">4 (44.7)</text>
</g>
<!-- 045 (a) -->
<g id="node16" class="node"><title>045 (a)</title>
<ellipse fill="#ff8a8a" stroke="#b43f3f" cx="772.397" cy="-192" rx="36.2938" ry="18"/>
<text text-anchor="middle" x="772.397" y="-188.3" font-family="Times,serif" font-size="14.00">045 (a)</text>
</g>
<!-- 045 (a)&#45;&gt;038 (b) -->
<g id="edge13" class="edge"><title>045 (a)&#45;&gt;038 (b)</title>
<path fill="none" stroke="#835da9" d="M772.397,-173.799C772.397,-162.163 772.397,-146.548 772.397,-133.237"/>
<polygon fill="#835da9" stroke="#835da9" points="775.897,-133.175 772.397,-123.175 768.897,-133.175 775.897,-133.175"/>
<text text-anchor="middle" x="794.397" y="-144.8" font-family="Times,serif" font-size="14.00">1 (92.7)</text>
</g>
<!-- 03 (a)&#45;&gt;032 (a) -->
<g id="edge15" class="edge"><title>03 (a)&#45;&gt;032 (a)</title>
<path fill="none" stroke="#b43f3f" d="M479.75,-351.912C470.864,-345.796 460.645,-338.086 452.397,-330 444.572,-322.329 437.035,-312.975 430.765,-304.442"/>
<polygon fill="#b43f3f" stroke="#b43f3f" points="433.603,-302.394 424.954,-296.275 427.899,-306.452 433.603,-302.394"/>
<text text-anchor="middle" x="474.397" y="-318.8" font-family="Times,serif" font-size="14.00">1 (91.7)</text>
</g>
<!-- 03 (a)&#45;&gt;02 (a) -->
<g id="edge16" class="edge"><title>03 (a)&#45;&gt;02 (a)</title>
<path fill="none" stroke="#b43f3f" d="M500.397,-347.799C500.397,-336.163 500.397,-320.548 500.397,-307.237"/>
<polygon fill="#b43f3f" stroke="#b43f3f" points="503.897,-307.175 500.397,-297.175 496.897,-307.175 503.897,-307.175"/>
<text text-anchor="middle" x="522.397" y="-318.8" font-family="Times,serif" font-size="14.00">1 (86.5)</text>
</g>
<!-- 044 (a) -->
<g id="node22" class="node"><title>044 (a)</title>
<ellipse fill="#ff8a8a" stroke="#b43f3f" cx="586.397" cy="-279" rx="36.2938" ry="18"/>
<text text-anchor="middle" x="586.397" y="-275.3" font-family="Times,serif" font-size="14.00">044 (a)</text>
</g>
<!-- 03 (a)&#45;&gt;044 (a) -->
<g id="edge14" class="edge"><title>03 (a)&#45;&gt;044 (a)</title>
<path fill="none" stroke="#b43f3f" d="M521.044,-351.912C529.93,-345.796 540.148,-338.086 548.397,-330 556.221,-322.329 563.759,-312.975 570.029,-304.442"/>
<polygon fill="#b43f3f" stroke="#b43f3f" points="572.894,-306.452 575.84,-296.275 567.191,-302.394 572.894,-306.452"/>
<text text-anchor="middle" x="583.397" y="-318.8" font-family="Times,serif" font-size="14.00">1 (89.2)</text>
</g>
<!-- 044 (a)&#45;&gt;07 (a) -->
<g id="edge20" class="edge"><title>044 (a)&#45;&gt;07 (a)</title>
<path fill="none" stroke="#b43f3f" d="M559.595,-266.709C553.683,-264.548 547.393,-262.496 541.397,-261 480.529,-245.812 462.607,-256.746 401.397,-243 359.696,-233.635 313.206,-217.757 282.326,-206.406"/>
<polygon fill="#b43f3f" stroke="#b43f3f" points="283.467,-203.096 272.874,-202.893 281.029,-209.658 283.467,-203.096"/>
<text text-anchor="middle" x="423.397" y="-231.8" font-family="Times,serif" font-size="14.00">2 (83.8)</text>
</g>
<!-- 044 (a)&#45;&gt;022 (a) -->
<g id="edge21" class="edge"><title>044 (a)&#45;&gt;022 (a)</title>
<path fill="none" stroke="#b43f3f" d="M558.937,-267.154C553.178,-265.012 547.116,-262.856 541.397,-261 512.476,-251.617 503.07,-255.595 475.397,-243 458.294,-235.216 440.734,-223.733 426.91,-213.735"/>
<polygon fill="#b43f3f" stroke="#b43f3f" points="428.941,-210.884 418.822,-207.747 424.776,-216.51 428.941,-210.884"/>
<text text-anchor="middle" x="497.397" y="-231.8" font-family="Times,serif" font-size="14.00">1 (91.7)</text>
</g>
<!-- 044 (a)&#45;&gt;021 (a) -->
<g id="edge19" class="edge"><title>044 (a)&#45;&gt;021 (a)</title>
<path fill="none" stroke="#b43f3f" d="M565.667,-264.159C556.96,-258.025 546.902,-250.508 538.397,-243 529.233,-234.911 519.866,-225.276 511.93,-216.632"/>
<polygon fill="#b43f3f" stroke="#b43f3f" points="514.386,-214.129 505.091,-209.045 509.187,-218.816 514.386,-214.129"/>
<text text-anchor="middle" x="560.397" y="-231.8" font-family="Times,serif" font-size="14.00">2 (83.8)</text>
</g>
<!-- 044 (a)&#45;&gt;0141 (a) -->
<g id="edge18" class="edge"><title>044 (a)&#45;&gt;0141 (a)</title>
<path fill="none" stroke="#b43f3f" d="M586.397,-260.799C586.397,-249.163 586.397,-233.548 586.397,-220.237"/>
<polygon fill="#b43f3f" stroke="#b43f3f" points="589.897,-220.175 586.397,-210.175 582.897,-220.175 589.897,-220.175"/>
<text text-anchor="middle" x="608.397" y="-231.8" font-family="Times,serif" font-size="14.00">1 (89.2)</text>
</g>
<!-- 044 (a)&#45;&gt;028 (a) -->
<g id="edge23" class="edge"><title>044 (a)&#45;&gt;028 (a)</title>
<path fill="none" stroke="#b43f3f" d="M607.127,-264.159C615.833,-258.025 625.891,-250.508 634.397,-243 643.56,-234.911 652.927,-225.276 660.863,-216.632"/>
<polygon fill="#b43f3f" stroke="#b43f3f" points="663.606,-218.816 667.702,-209.045 658.407,-214.129 663.606,-218.816"/>
<text text-anchor="middle" x="672.397" y="-231.8" font-family="Times,serif" font-size="14.00">2 (81.1)</text>
</g>
<!-- 044 (a)&#45;&gt;045 (a) -->
<g id="edge17" class="edge"><title>044 (a)&#45;&gt;045 (a)</title>
<path fill="none" stroke="#b43f3f" d="M618.715,-270.572C641.611,-264.676 672.698,-255.368 698.397,-243 714.9,-235.057 731.929,-223.799 745.485,-213.976"/>
<polygon fill="#b43f3f" stroke="#b43f3f" points="747.899,-216.543 753.851,-207.777 743.732,-210.918 747.899,-216.543"/>
<text text-anchor="middle" x="746.397" y="-231.8" font-family="Times,serif" font-size="14.00">2 (81.1)</text>
</g>
<!-- 011 (a) -->
<g id="node25" class="node"><title>011 (a)</title>
<ellipse fill="#ff8a8a" stroke="#b43f3f" cx="863.397" cy="-192" rx="36.2938" ry="18"/>
<text text-anchor="middle" x="863.397" y="-188.3" font-family="Times,serif" font-size="14.00">011 (a)</text>
</g>
<!-- 044 (a)&#45;&gt;011 (a) -->
<g id="edge22" class="edge"><title>044 (a)&#45;&gt;011 (a)</title>
<path fill="none" stroke="#b43f3f" d="M620.15,-271.933C671.801,-262.608 765.263,-245.557 772.397,-243 794.072,-235.23 816.773,-222.766 834.079,-212.226"/>
<polygon fill="#b43f3f" stroke="#b43f3f" points="835.96,-215.178 842.604,-206.925 832.263,-209.234 835.96,-215.178"/>
<text text-anchor="middle" x="826.397" y="-231.8" font-family="Times,serif" font-size="14.00">2 (86.5)</text>
</g>
<!-- 091 (a)&#45;&gt;05 (a) -->
<g id="edge25" class="edge"><title>091 (a)&#45;&gt;05 (a)</title>
<path fill="none" stroke="#b43f3f" d="M754.042,-349.452C749.226,-343.658 744.136,-336.824 740.397,-330 736.476,-322.844 733.226,-314.62 730.656,-306.936"/>
<polygon fill="#b43f3f" stroke="#b43f3f" points="733.968,-305.799 727.667,-297.281 727.28,-307.869 733.968,-305.799"/>
<text text-anchor="middle" x="762.397" y="-318.8" font-family="Times,serif" font-size="14.00">1 (87.5)</text>
</g>
<!-- 0211 (a) -->
<g id="node26" class="node"><title>0211 (a)</title>
<ellipse fill="#ff8a8a" stroke="#b43f3f" cx="813.397" cy="-279" rx="40.0939" ry="18"/>
<text text-anchor="middle" x="813.397" y="-275.3" font-family="Times,serif" font-size="14.00">0211 (a)</text>
</g>
<!-- 091 (a)&#45;&gt;0211 (a) -->
<g id="edge24" class="edge"><title>091 (a)&#45;&gt;0211 (a)</title>
<path fill="none" stroke="#b43f3f" d="M777.287,-348.207C783.697,-336.099 792.468,-319.533 799.76,-305.759"/>
<polygon fill="#b43f3f" stroke="#b43f3f" points="802.939,-307.234 804.525,-296.758 796.752,-303.959 802.939,-307.234"/>
<text text-anchor="middle" x="816.397" y="-318.8" font-family="Times,serif" font-size="14.00">1 (83.3)</text>
</g>
</g>
</svg>
