<?xml version="1.0" encoding="UTF-8" standalone="no"?>
<!DOCTYPE svg PUBLIC "-//W3C//DTD SVG 1.1//EN"
 "http://www.w3.org/Graphics/SVG/1.1/DTD/svg11.dtd">
<!-- Generated by graphviz version 2.38.0 (20140413.2041)
 -->
<!-- Title: %3 Pages: 1 -->
<svg width="997pt" height="408pt"
 viewBox="0.00 0.00 996.79 408.00" xmlns="http://www.w3.org/2000/svg" xmlns:xlink="http://www.w3.org/1999/xlink">
<g id="graph0" class="graph" transform="scale(1 1) rotate(0) translate(4 404)">
<title>%3</title>
<polygon fill="white" stroke="none" points="-4,4 -4,-404 992.794,-404 992.794,4 -4,4"/>
<g id="clust1" class="cluster"><title>cluster_legend</title>
<path fill="none" stroke="black" d="M284.397,-264C284.397,-264 474.397,-264 474.397,-264 480.397,-264 486.397,-270 486.397,-276 486.397,-276 486.397,-380 486.397,-380 486.397,-386 480.397,-392 474.397,-392 474.397,-392 284.397,-392 284.397,-392 278.397,-392 272.397,-386 272.397,-380 272.397,-380 272.397,-276 272.397,-276 272.397,-270 278.397,-264 284.397,-264"/>
</g>
<!-- leg_s -->
<g id="node1" class="node"><title>leg_s</title>
<text text-anchor="middle" x="379.397" y="-362.3" font-family="Times,serif" font-size="14.00">Textual flow strength</text>
</g>
<!-- leg_e1 -->
<!-- leg_s&#45;&gt;leg_e1 -->
<g id="edge1" class="edge"><title>leg_s&#45;&gt;leg_e1</title>
<path fill="none" stroke="black" stroke-dasharray="1,5" d="M361.062,-347.686C355.529,-342.194 349.557,-335.989 344.397,-330 334.568,-318.593 324.469,-304.779 317.31,-294.563"/>
<polygon fill="black" stroke="black" points="320.011,-292.314 311.453,-286.068 314.248,-296.288 320.011,-292.314"/>
<text text-anchor="middle" x="359.897" y="-318.8" font-family="Times,serif" font-size="14.00">&lt;=5 &#160;</text>
</g>
<!-- leg_e2 -->
<!-- leg_s&#45;&gt;leg_e2 -->
<g id="edge2" class="edge"><title>leg_s&#45;&gt;leg_e2</title>
<path fill="none" stroke="black" stroke-dasharray="5,2" d="M379.397,-347.799C379.397,-332.794 379.397,-311.174 379.397,-296.409"/>
<polygon fill="black" stroke="black" points="382.897,-296.293 379.397,-286.293 375.897,-296.293 382.897,-296.293"/>
<text text-anchor="middle" x="398.397" y="-318.8" font-family="Times,serif" font-size="14.00"> &#160;&lt;=25</text>
</g>
<!-- leg_e3 -->
<!-- leg_s&#45;&gt;leg_e3 -->
<g id="edge3" class="edge"><title>leg_s&#45;&gt;leg_e3</title>
<path fill="none" stroke="black" d="M402.9,-347.76C409.303,-342.462 415.963,-336.344 421.397,-330 430.484,-319.39 438.492,-305.689 443.943,-295.313"/>
<polygon fill="black" stroke="black" points="447.119,-296.789 448.488,-286.283 440.866,-293.642 447.119,-296.789"/>
<text text-anchor="middle" x="443.397" y="-318.8" font-family="Times,serif" font-size="14.00">&gt;25</text>
</g>
<!-- 021 -->
<g id="node5" class="node"><title>021</title>
<ellipse fill="#ff8a8a" stroke="#b43f3f" cx="127.397" cy="-192" rx="36.2938" ry="18"/>
<text text-anchor="middle" x="127.397" y="-188.3" font-family="Times,serif" font-size="14.00">021 (a)</text>
</g>
<!-- 036 -->
<g id="node6" class="node"><title>036</title>
<ellipse fill="#ff8a8a" stroke="#b43f3f" cx="36.3968" cy="-105" rx="36.2938" ry="18"/>
<text text-anchor="middle" x="36.3968" y="-101.3" font-family="Times,serif" font-size="14.00">036 (a)</text>
</g>
<!-- 021&#45;&gt;036 -->
<g id="edge4" class="edge"><title>021&#45;&gt;036</title>
<path fill="none" stroke="#b43f3f" stroke-dasharray="1,5" d="M106.025,-177.006C97.4044,-170.963 87.5824,-163.554 79.3968,-156 70.8527,-148.115 62.3211,-138.619 55.1364,-130.029"/>
<polygon fill="#b43f3f" stroke="#b43f3f" points="57.741,-127.685 48.7043,-122.155 52.3196,-132.113 57.741,-127.685"/>
<text text-anchor="middle" x="101.397" y="-144.8" font-family="Times,serif" font-size="14.00">1 (97.6)</text>
</g>
<!-- 047 -->
<g id="node7" class="node"><title>047</title>
<ellipse fill="#ff8a8a" stroke="#b43f3f" cx="127.397" cy="-105" rx="36.2938" ry="18"/>
<text text-anchor="middle" x="127.397" y="-101.3" font-family="Times,serif" font-size="14.00">047 (a)</text>
</g>
<!-- 021&#45;&gt;047 -->
<g id="edge5" class="edge"><title>021&#45;&gt;047</title>
<path fill="none" stroke="#b43f3f" stroke-dasharray="1,5" d="M127.397,-173.799C127.397,-162.163 127.397,-146.548 127.397,-133.237"/>
<polygon fill="#b43f3f" stroke="#b43f3f" points="130.897,-133.175 127.397,-123.175 123.897,-133.175 130.897,-133.175"/>
<text text-anchor="middle" x="149.397" y="-144.8" font-family="Times,serif" font-size="14.00">1 (95.1)</text>
</g>
<!-- 03 -->
<g id="node8" class="node"><title>03</title>
<ellipse fill="#ff8a8a" stroke="#b43f3f" cx="623.397" cy="-366" rx="31.6951" ry="18"/>
<text text-anchor="middle" x="623.397" y="-362.3" font-family="Times,serif" font-size="14.00">03 (a)</text>
</g>
<!-- 032 -->
<g id="node9" class="node"><title>032</title>
<ellipse fill="#ff8a8a" stroke="#b43f3f" cx="532.397" cy="-279" rx="36.2938" ry="18"/>
<text text-anchor="middle" x="532.397" y="-275.3" font-family="Times,serif" font-size="14.00">032 (a)</text>
</g>
<!-- 03&#45;&gt;032 -->
<g id="edge6" class="edge"><title>03&#45;&gt;032</title>
<path fill="none" stroke="#b43f3f" stroke-dasharray="1,5" d="M602.978,-351.672C594.134,-345.512 583.886,-337.834 575.397,-330 566.853,-322.115 558.321,-312.619 551.136,-304.029"/>
<polygon fill="#b43f3f" stroke="#b43f3f" points="553.741,-301.685 544.704,-296.155 548.32,-306.113 553.741,-301.685"/>
<text text-anchor="middle" x="597.397" y="-318.8" font-family="Times,serif" font-size="14.00">1 (91.7)</text>
</g>
<!-- 044 -->
<g id="node10" class="node"><title>044</title>
<ellipse fill="#ff8a8a" stroke="#b43f3f" cx="623.397" cy="-279" rx="36.2938" ry="18"/>
<text text-anchor="middle" x="623.397" y="-275.3" font-family="Times,serif" font-size="14.00">044 (a)</text>
</g>
<!-- 03&#45;&gt;044 -->
<g id="edge7" class="edge"><title>03&#45;&gt;044</title>
<path fill="none" stroke="#b43f3f" stroke-dasharray="1,5" d="M623.397,-347.799C623.397,-336.163 623.397,-320.548 623.397,-307.237"/>
<polygon fill="#b43f3f" stroke="#b43f3f" points="626.897,-307.175 623.397,-297.175 619.897,-307.175 626.897,-307.175"/>
<text text-anchor="middle" x="645.397" y="-318.8" font-family="Times,serif" font-size="14.00">1 (89.2)</text>
</g>
<!-- 02 -->
<g id="node11" class="node"><title>02</title>
<ellipse fill="#ff8a8a" stroke="#b43f3f" cx="709.397" cy="-279" rx="31.6951" ry="18"/>
<text text-anchor="middle" x="709.397" y="-275.3" font-family="Times,serif" font-size="14.00">02 (a)</text>
</g>
<!-- 03&#45;&gt;02 -->
<g id="edge8" class="edge"><title>03&#45;&gt;02</title>
<path fill="none" stroke="#b43f3f" stroke-dasharray="1,5" d="M644.044,-351.912C652.93,-345.796 663.148,-338.086 671.397,-330 679.221,-322.329 686.759,-312.975 693.029,-304.442"/>
<polygon fill="#b43f3f" stroke="#b43f3f" points="695.894,-306.452 698.84,-296.275 690.191,-302.394 695.894,-306.452"/>
<text text-anchor="middle" x="706.397" y="-318.8" font-family="Times,serif" font-size="14.00">1 (86.5)</text>
</g>
<!-- 044&#45;&gt;021 -->
<g id="edge15" class="edge"><title>044&#45;&gt;021</title>
<path fill="none" stroke="#b43f3f" stroke-dasharray="1,5" d="M596.5,-266.78C590.314,-264.56 583.699,-262.466 577.397,-261 501.672,-243.386 480.37,-253.937 403.397,-243 320.51,-231.222 224.476,-212.714 170.334,-201.826"/>
<polygon fill="#b43f3f" stroke="#b43f3f" points="170.898,-198.37 160.403,-199.82 169.512,-205.231 170.898,-198.37"/>
<text text-anchor="middle" x="425.397" y="-231.8" font-family="Times,serif" font-size="14.00">2 (83.8)</text>
</g>
<!-- 07 -->
<g id="node12" class="node"><title>07</title>
<ellipse fill="#ff8a8a" stroke="#b43f3f" cx="404.397" cy="-192" rx="31.6951" ry="18"/>
<text text-anchor="middle" x="404.397" y="-188.3" font-family="Times,serif" font-size="14.00">07 (a)</text>
</g>
<!-- 044&#45;&gt;07 -->
<g id="edge16" class="edge"><title>044&#45;&gt;07</title>
<path fill="none" stroke="#b43f3f" stroke-dasharray="1,5" d="M595.918,-266.968C589.879,-264.791 583.473,-262.667 577.397,-261 534.691,-249.281 520.442,-259.624 479.397,-243 461.499,-235.751 443.431,-223.874 429.514,-213.515"/>
<polygon fill="#b43f3f" stroke="#b43f3f" points="431.491,-210.62 421.424,-207.315 427.233,-216.176 431.491,-210.62"/>
<text text-anchor="middle" x="501.397" y="-231.8" font-family="Times,serif" font-size="14.00">2 (83.8)</text>
</g>
<!-- 045 -->
<g id="node20" class="node"><title>045</title>
<ellipse fill="#ff8a8a" stroke="#b43f3f" cx="499.397" cy="-192" rx="36.2938" ry="18"/>
<text text-anchor="middle" x="499.397" y="-188.3" font-family="Times,serif" font-size="14.00">045 (a)</text>
</g>
<!-- 044&#45;&gt;045 -->
<g id="edge17" class="edge"><title>044&#45;&gt;045</title>
<path fill="none" stroke="#b43f3f" stroke-dasharray="1,5" d="M595.512,-267.299C576.087,-259.565 552.15,-249.393 543.397,-243 533.674,-235.899 524.581,-226.303 517.214,-217.416"/>
<polygon fill="#b43f3f" stroke="#b43f3f" points="519.925,-215.201 510.966,-209.546 514.443,-219.554 519.925,-215.201"/>
<text text-anchor="middle" x="565.397" y="-231.8" font-family="Times,serif" font-size="14.00">2 (81.1)</text>
</g>
<!-- 05 -->
<g id="node21" class="node"><title>05</title>
<ellipse fill="#ff8a8a" stroke="#b43f3f" cx="585.397" cy="-192" rx="31.6951" ry="18"/>
<text text-anchor="middle" x="585.397" y="-188.3" font-family="Times,serif" font-size="14.00">05 (a)</text>
</g>
<!-- 044&#45;&gt;05 -->
<g id="edge18" class="edge"><title>044&#45;&gt;05</title>
<path fill="none" stroke="#b43f3f" stroke-dasharray="1,5" d="M608.874,-262.248C604.281,-256.541 599.578,-249.815 596.397,-243 593.088,-235.913 590.754,-227.79 589.116,-220.181"/>
<polygon fill="#b43f3f" stroke="#b43f3f" points="592.543,-219.468 587.287,-210.269 585.66,-220.738 592.543,-219.468"/>
<text text-anchor="middle" x="618.397" y="-231.8" font-family="Times,serif" font-size="14.00">3 (76.7)</text>
</g>
<!-- 022 -->
<g id="node22" class="node"><title>022</title>
<ellipse fill="#ff8a8a" stroke="#b43f3f" cx="671.397" cy="-192" rx="36.2938" ry="18"/>
<text text-anchor="middle" x="671.397" y="-188.3" font-family="Times,serif" font-size="14.00">022 (a)</text>
</g>
<!-- 044&#45;&gt;022 -->
<g id="edge19" class="edge"><title>044&#45;&gt;022</title>
<path fill="none" stroke="#b43f3f" stroke-dasharray="1,5" d="M632.88,-261.207C639.762,-249.021 649.194,-232.318 657.002,-218.491"/>
<polygon fill="#b43f3f" stroke="#b43f3f" points="660.227,-219.898 662.097,-209.469 654.132,-216.456 660.227,-219.898"/>
<text text-anchor="middle" x="672.397" y="-231.8" font-family="Times,serif" font-size="14.00">1 (91.7)</text>
</g>
<!-- 0141 -->
<g id="node23" class="node"><title>0141</title>
<ellipse fill="#ff8a8a" stroke="#b43f3f" cx="766.397" cy="-192" rx="40.0939" ry="18"/>
<text text-anchor="middle" x="766.397" y="-188.3" font-family="Times,serif" font-size="14.00">0141 (a)</text>
</g>
<!-- 044&#45;&gt;0141 -->
<g id="edge20" class="edge"><title>044&#45;&gt;0141</title>
<path fill="none" stroke="#b43f3f" stroke-dasharray="1,5" d="M650.431,-266.929C664.997,-260.585 683.072,-252.089 698.397,-243 712.733,-234.497 727.755,-223.679 740.022,-214.281"/>
<polygon fill="#b43f3f" stroke="#b43f3f" points="742.29,-216.952 748.033,-208.049 737.991,-211.427 742.29,-216.952"/>
<text text-anchor="middle" x="742.397" y="-231.8" font-family="Times,serif" font-size="14.00">1 (89.2)</text>
</g>
<!-- 011 -->
<g id="node24" class="node"><title>011</title>
<ellipse fill="#ff8a8a" stroke="#b43f3f" cx="861.397" cy="-192" rx="36.2938" ry="18"/>
<text text-anchor="middle" x="861.397" y="-188.3" font-family="Times,serif" font-size="14.00">011 (a)</text>
</g>
<!-- 044&#45;&gt;011 -->
<g id="edge21" class="edge"><title>044&#45;&gt;011</title>
<path fill="none" stroke="#b43f3f" stroke-dasharray="1,5" d="M650.738,-266.76C656.506,-264.647 662.601,-262.602 668.397,-261 711.924,-248.97 725.759,-257.876 768.397,-243 790.505,-235.286 813.705,-222.822 831.402,-212.269"/>
<polygon fill="#b43f3f" stroke="#b43f3f" points="833.4,-215.15 840.121,-206.959 829.759,-209.171 833.4,-215.15"/>
<text text-anchor="middle" x="825.397" y="-231.8" font-family="Times,serif" font-size="14.00">2 (86.5)</text>
</g>
<!-- 028 -->
<g id="node25" class="node"><title>028</title>
<ellipse fill="#ff8a8a" stroke="#b43f3f" cx="952.397" cy="-192" rx="36.2938" ry="18"/>
<text text-anchor="middle" x="952.397" y="-188.3" font-family="Times,serif" font-size="14.00">028 (a)</text>
</g>
<!-- 044&#45;&gt;028 -->
<g id="edge22" class="edge"><title>044&#45;&gt;028</title>
<path fill="none" stroke="#b43f3f" stroke-dasharray="1,5" d="M650.166,-266.573C656.08,-264.421 662.379,-262.407 668.397,-261 747.977,-242.398 772.828,-265.496 851.397,-243 876.404,-235.84 902.676,-222.632 922.156,-211.589"/>
<polygon fill="#b43f3f" stroke="#b43f3f" points="923.972,-214.581 930.868,-206.537 920.461,-208.526 923.972,-214.581"/>
<text text-anchor="middle" x="911.397" y="-231.8" font-family="Times,serif" font-size="14.00">2 (81.1)</text>
</g>
<!-- 034 -->
<g id="node13" class="node"><title>034</title>
<ellipse fill="#ff8a8a" stroke="#b43f3f" cx="218.397" cy="-105" rx="36.2938" ry="18"/>
<text text-anchor="middle" x="218.397" y="-101.3" font-family="Times,serif" font-size="14.00">034 (a)</text>
</g>
<!-- 07&#45;&gt;034 -->
<g id="edge9" class="edge"><title>07&#45;&gt;034</title>
<path fill="none" stroke="#b43f3f" stroke-dasharray="1,5" d="M375.263,-184.226C352.365,-178.337 320.003,-168.745 293.397,-156 276.45,-147.882 258.9,-136.379 245.041,-126.452"/>
<polygon fill="#b43f3f" stroke="#b43f3f" points="247.066,-123.597 236.928,-120.52 242.934,-129.248 247.066,-123.597"/>
<text text-anchor="middle" x="315.397" y="-144.8" font-family="Times,serif" font-size="14.00">1 (95.1)</text>
</g>
<!-- 037 -->
<g id="node14" class="node"><title>037</title>
<ellipse fill="#ff8a8a" stroke="#b43f3f" cx="309.397" cy="-105" rx="36.2938" ry="18"/>
<text text-anchor="middle" x="309.397" y="-101.3" font-family="Times,serif" font-size="14.00">037 (a)</text>
</g>
<!-- 07&#45;&gt;037 -->
<g id="edge10" class="edge"><title>07&#45;&gt;037</title>
<path fill="none" stroke="#b43f3f" stroke-dasharray="1,5" d="M384.611,-177.822C375.694,-171.572 365.211,-163.781 356.397,-156 347.233,-147.911 337.866,-138.276 329.93,-129.632"/>
<polygon fill="#b43f3f" stroke="#b43f3f" points="332.386,-127.129 323.091,-122.045 327.187,-131.816 332.386,-127.129"/>
<text text-anchor="middle" x="378.397" y="-144.8" font-family="Times,serif" font-size="14.00">1 (97.5)</text>
</g>
<!-- 0211 -->
<g id="node15" class="node"><title>0211</title>
<ellipse fill="#ff8a8a" stroke="#b43f3f" cx="404.397" cy="-105" rx="40.0939" ry="18"/>
<text text-anchor="middle" x="404.397" y="-101.3" font-family="Times,serif" font-size="14.00">0211 (a)</text>
</g>
<!-- 07&#45;&gt;0211 -->
<g id="edge11" class="edge"><title>07&#45;&gt;0211</title>
<path fill="none" stroke="#b43f3f" stroke-dasharray="1,5" d="M404.397,-173.799C404.397,-162.163 404.397,-146.548 404.397,-133.237"/>
<polygon fill="#b43f3f" stroke="#b43f3f" points="407.897,-133.175 404.397,-123.175 400.897,-133.175 407.897,-133.175"/>
<text text-anchor="middle" x="426.397" y="-144.8" font-family="Times,serif" font-size="14.00">2 (82.9)</text>
</g>
<!-- 030 -->
<g id="node16" class="node"><title>030</title>
<ellipse fill="#ff8a8a" stroke="#b43f3f" cx="499.397" cy="-105" rx="36.2938" ry="18"/>
<text text-anchor="middle" x="499.397" y="-101.3" font-family="Times,serif" font-size="14.00">030 (a)</text>
</g>
<!-- 07&#45;&gt;030 -->
<g id="edge12" class="edge"><title>07&#45;&gt;030</title>
<path fill="none" stroke="#b43f3f" stroke-dasharray="1,5" d="M424.182,-177.822C433.1,-171.572 443.582,-163.781 452.397,-156 461.56,-147.911 470.927,-138.276 478.863,-129.632"/>
<polygon fill="#b43f3f" stroke="#b43f3f" points="481.606,-131.816 485.702,-122.045 476.407,-127.129 481.606,-131.816"/>
<text text-anchor="middle" x="490.397" y="-144.8" font-family="Times,serif" font-size="14.00">1 (95.1)</text>
</g>
<!-- 031 -->
<g id="node17" class="node"><title>031</title>
<ellipse fill="#ff8a8a" stroke="#b43f3f" cx="681.397" cy="-105" rx="36.2938" ry="18"/>
<text text-anchor="middle" x="681.397" y="-101.3" font-family="Times,serif" font-size="14.00">031 (a)</text>
</g>
<!-- 013 -->
<g id="node18" class="node"><title>013</title>
<ellipse fill="#ff8a8a" stroke="#b43f3f" cx="636.397" cy="-18" rx="36.2938" ry="18"/>
<text text-anchor="middle" x="636.397" y="-14.3" font-family="Times,serif" font-size="14.00">013 (a)</text>
</g>
<!-- 031&#45;&gt;013 -->
<g id="edge13" class="edge"><title>031&#45;&gt;013</title>
<path fill="none" stroke="#b43f3f" stroke-dasharray="1,5" d="M671.644,-87.3706C668.322,-81.5933 664.633,-75.047 661.397,-69 657.229,-61.2133 652.866,-52.6446 648.972,-44.8337"/>
<polygon fill="#b43f3f" stroke="#b43f3f" points="652.069,-43.1997 644.5,-35.7855 645.793,-46.3011 652.069,-43.1997"/>
<text text-anchor="middle" x="683.397" y="-57.8" font-family="Times,serif" font-size="14.00">1 (97.1)</text>
</g>
<!-- 017 -->
<g id="node19" class="node"><title>017</title>
<ellipse fill="#ff8a8a" stroke="#b43f3f" cx="727.397" cy="-18" rx="36.2938" ry="18"/>
<text text-anchor="middle" x="727.397" y="-14.3" font-family="Times,serif" font-size="14.00">017 (a)</text>
</g>
<!-- 031&#45;&gt;017 -->
<g id="edge14" class="edge"><title>031&#45;&gt;017</title>
<path fill="none" stroke="#b43f3f" stroke-dasharray="1,5" d="M693.526,-87.6704C697.546,-81.9172 701.886,-75.3093 705.397,-69 709.547,-61.5417 713.498,-53.1477 716.877,-45.3977"/>
<polygon fill="#b43f3f" stroke="#b43f3f" points="720.161,-46.6185 720.824,-36.0444 713.712,-43.8974 720.161,-46.6185"/>
<text text-anchor="middle" x="735.397" y="-57.8" font-family="Times,serif" font-size="14.00">1 (94.3)</text>
</g>
<!-- 038 -->
<g id="node26" class="node"><title>038</title>
<ellipse fill="#ff8a8a" stroke="#b43f3f" cx="590.397" cy="-105" rx="36.2938" ry="18"/>
<text text-anchor="middle" x="590.397" y="-101.3" font-family="Times,serif" font-size="14.00">038 (a)</text>
</g>
<!-- 045&#45;&gt;038 -->
<g id="edge23" class="edge"><title>045&#45;&gt;038</title>
<path fill="none" stroke="#b43f3f" stroke-dasharray="1,5" d="M520.768,-177.006C529.389,-170.963 539.211,-163.554 547.397,-156 555.941,-148.115 564.472,-138.619 571.657,-130.029"/>
<polygon fill="#b43f3f" stroke="#b43f3f" points="574.474,-132.113 578.089,-122.155 569.053,-127.685 574.474,-132.113"/>
<text text-anchor="middle" x="583.397" y="-144.8" font-family="Times,serif" font-size="14.00">1 (92.7)</text>
</g>
<!-- 022&#45;&gt;031 -->
<g id="edge24" class="edge"><title>022&#45;&gt;031</title>
<path fill="none" stroke="#b43f3f" stroke-dasharray="1,5" d="M673.42,-173.799C674.789,-162.163 676.626,-146.548 678.192,-133.237"/>
<polygon fill="#b43f3f" stroke="#b43f3f" points="681.684,-133.516 679.376,-123.175 674.732,-132.698 681.684,-133.516"/>
<text text-anchor="middle" x="699.397" y="-144.8" font-family="Times,serif" font-size="14.00">2 (86.7)</text>
</g>
<!-- 019 -->
<g id="node27" class="node"><title>019</title>
<ellipse fill="#ff8a8a" stroke="#b43f3f" cx="709.397" cy="-366" rx="36.2938" ry="18"/>
<text text-anchor="middle" x="709.397" y="-362.3" font-family="Times,serif" font-size="14.00">019 (a)</text>
</g>
<!-- P75 -->
<g id="node28" class="node"><title>P75</title>
<ellipse fill="#ff8a8a" stroke="#b43f3f" cx="800.397" cy="-366" rx="36.2938" ry="18"/>
<text text-anchor="middle" x="800.397" y="-362.3" font-family="Times,serif" font-size="14.00">P75 (a)</text>
</g>
<!-- 01 -->
<g id="node29" class="node"><title>01</title>
<ellipse fill="#cea8f4" stroke="#835da9" cx="887.397" cy="-366" rx="32.4942" ry="18"/>
<text text-anchor="middle" x="887.397" y="-362.3" font-family="Times,serif" font-size="14.00">01 (b)</text>
</g>
</g>
</svg>
