<?xml version="1.0" encoding="UTF-8" standalone="no"?>
<!DOCTYPE svg PUBLIC "-//W3C//DTD SVG 1.1//EN"
 "http://www.w3.org/Graphics/SVG/1.1/DTD/svg11.dtd">
<!-- Generated by graphviz version 2.38.0 (20140413.2041)
 -->
<!-- Title: G Pages: 1 -->
<svg width="1242pt" height="188pt"
 viewBox="0.00 0.00 1241.79 188.00" xmlns="http://www.w3.org/2000/svg" xmlns:xlink="http://www.w3.org/1999/xlink">
<g id="graph0" class="graph" transform="scale(1 1) rotate(0) translate(4 184)">
<title>G</title>
<polygon fill="white" stroke="none" points="-4,4 -4,-184 1237.79,-184 1237.79,4 -4,4"/>
<!-- 038 (a) -->
<g id="node1" class="node"><title>038 (a)</title>
<ellipse fill="#ff8a8a" stroke="#b43f3f" cx="36.3968" cy="-90" rx="36.2938" ry="18"/>
<text text-anchor="middle" x="36.3968" y="-86.3" font-family="Times,serif" font-size="14.00">038 (a)</text>
</g>
<!-- P75 (b) -->
<g id="node2" class="node"><title>P75 (b)</title>
<ellipse fill="#cea8f4" stroke="#835da9" cx="130.397" cy="-162" rx="37.0935" ry="18"/>
<text text-anchor="middle" x="130.397" y="-158.3" font-family="Times,serif" font-size="14.00">P75 (b)</text>
</g>
<!-- 01 (c) -->
<g id="node3" class="node"><title>01 (c)</title>
<ellipse fill="#72fe95" stroke="#27b34a" cx="222.397" cy="-162" rx="31.6951" ry="18"/>
<text text-anchor="middle" x="222.397" y="-158.3" font-family="Times,serif" font-size="14.00">01 (c)</text>
</g>
<!-- 034 (a) -->
<g id="node4" class="node"><title>034 (a)</title>
<ellipse fill="#ff8a8a" stroke="#b43f3f" cx="175.397" cy="-90" rx="36.2938" ry="18"/>
<text text-anchor="middle" x="175.397" y="-86.3" font-family="Times,serif" font-size="14.00">034 (a)</text>
</g>
<!-- 028 (a) -->
<g id="node5" class="node"><title>028 (a)</title>
<ellipse fill="#ff8a8a" stroke="#b43f3f" cx="423.397" cy="-162" rx="36.2938" ry="18"/>
<text text-anchor="middle" x="423.397" y="-158.3" font-family="Times,serif" font-size="14.00">028 (a)</text>
</g>
<!-- 032 (b) -->
<g id="node6" class="node"><title>032 (b)</title>
<ellipse fill="#cea8f4" stroke="#835da9" cx="561.397" cy="-90" rx="36.2938" ry="18"/>
<text text-anchor="middle" x="561.397" y="-86.3" font-family="Times,serif" font-size="14.00">032 (b)</text>
</g>
<!-- 047 (a) -->
<g id="node7" class="node"><title>047 (a)</title>
<ellipse fill="#ff8a8a" stroke="#b43f3f" cx="743.397" cy="-90" rx="36.2938" ry="18"/>
<text text-anchor="middle" x="743.397" y="-86.3" font-family="Times,serif" font-size="14.00">047 (a)</text>
</g>
<!-- 02 (a) -->
<g id="node8" class="node"><title>02 (a)</title>
<ellipse fill="#ff8a8a" stroke="#b43f3f" cx="920.397" cy="-90" rx="31.6951" ry="18"/>
<text text-anchor="middle" x="920.397" y="-86.3" font-family="Times,serif" font-size="14.00">02 (a)</text>
</g>
<!-- 031 (a) -->
<g id="node9" class="node"><title>031 (a)</title>
<ellipse fill="#ff8a8a" stroke="#b43f3f" cx="1015.4" cy="-162" rx="36.2938" ry="18"/>
<text text-anchor="middle" x="1015.4" y="-158.3" font-family="Times,serif" font-size="14.00">031 (a)</text>
</g>
<!-- 017 (a) -->
<g id="node11" class="node"><title>017 (a)</title>
<ellipse fill="#ff8a8a" stroke="#b43f3f" cx="1011.4" cy="-90" rx="36.2938" ry="18"/>
<text text-anchor="middle" x="1011.4" y="-86.3" font-family="Times,serif" font-size="14.00">017 (a)</text>
</g>
<!-- 031 (a)&#45;&gt;017 (a) -->
<g id="edge1" class="edge"><title>031 (a)&#45;&gt;017 (a)</title>
<path fill="none" stroke="black" d="M1014.41,-143.697C1013.97,-135.983 1013.44,-126.712 1012.95,-118.112"/>
<polygon fill="black" stroke="black" points="1016.44,-117.888 1012.37,-108.104 1009.45,-118.288 1016.44,-117.888"/>
</g>
<!-- 013 (a) -->
<g id="node16" class="node"><title>013 (a)</title>
<ellipse fill="#ff8a8a" stroke="#b43f3f" cx="1102.4" cy="-90" rx="36.2938" ry="18"/>
<text text-anchor="middle" x="1102.4" y="-86.3" font-family="Times,serif" font-size="14.00">013 (a)</text>
</g>
<!-- 031 (a)&#45;&gt;013 (a) -->
<g id="edge2" class="edge"><title>031 (a)&#45;&gt;013 (a)</title>
<path fill="none" stroke="black" d="M1033.85,-146.155C1046.07,-136.317 1062.31,-123.257 1075.9,-112.315"/>
<polygon fill="black" stroke="black" points="1078.38,-114.82 1083.97,-105.824 1073.99,-109.366 1078.38,-114.82"/>
</g>
<!-- 036 (a) -->
<g id="node10" class="node"><title>036 (a)</title>
<ellipse fill="#ff8a8a" stroke="#b43f3f" cx="834.397" cy="-90" rx="36.2938" ry="18"/>
<text text-anchor="middle" x="834.397" y="-86.3" font-family="Times,serif" font-size="14.00">036 (a)</text>
</g>
<!-- 011 (a) -->
<g id="node12" class="node"><title>011 (a)</title>
<ellipse fill="#ff8a8a" stroke="#b43f3f" cx="1106.4" cy="-162" rx="36.2938" ry="18"/>
<text text-anchor="middle" x="1106.4" y="-158.3" font-family="Times,serif" font-size="14.00">011 (a)</text>
</g>
<!-- 045 (a) -->
<g id="node13" class="node"><title>045 (a)</title>
<ellipse fill="#ff8a8a" stroke="#b43f3f" cx="36.3968" cy="-162" rx="36.2938" ry="18"/>
<text text-anchor="middle" x="36.3968" y="-158.3" font-family="Times,serif" font-size="14.00">045 (a)</text>
</g>
<!-- 045 (a)&#45;&gt;038 (a) -->
<g id="edge3" class="edge"><title>045 (a)&#45;&gt;038 (a)</title>
<path fill="none" stroke="black" d="M36.3968,-143.697C36.3968,-135.983 36.3968,-126.712 36.3968,-118.112"/>
<polygon fill="black" stroke="black" points="39.8969,-118.104 36.3968,-108.104 32.8969,-118.104 39.8969,-118.104"/>
</g>
<!-- 022 (b) -->
<g id="node14" class="node"><title>022 (b)</title>
<ellipse fill="#cea8f4" stroke="#835da9" cx="605.397" cy="-18" rx="36.2938" ry="18"/>
<text text-anchor="middle" x="605.397" y="-14.3" font-family="Times,serif" font-size="14.00">022 (b)</text>
</g>
<!-- 037 (a) -->
<g id="node15" class="node"><title>037 (a)</title>
<ellipse fill="#ff8a8a" stroke="#b43f3f" cx="266.397" cy="-90" rx="36.2938" ry="18"/>
<text text-anchor="middle" x="266.397" y="-86.3" font-family="Times,serif" font-size="14.00">037 (a)</text>
</g>
<!-- 07 (a) -->
<g id="node17" class="node"><title>07 (a)</title>
<ellipse fill="#ff8a8a" stroke="#b43f3f" cx="315.397" cy="-162" rx="31.6951" ry="18"/>
<text text-anchor="middle" x="315.397" y="-158.3" font-family="Times,serif" font-size="14.00">07 (a)</text>
</g>
<!-- 07 (a)&#45;&gt;034 (a) -->
<g id="edge7" class="edge"><title>07 (a)&#45;&gt;034 (a)</title>
<path fill="none" stroke="black" d="M292.279,-149.441C269.591,-138.097 234.743,-120.673 208.997,-107.8"/>
<polygon fill="black" stroke="black" points="210.473,-104.625 199.963,-103.283 207.342,-110.886 210.473,-104.625"/>
</g>
<!-- 07 (a)&#45;&gt;037 (a) -->
<g id="edge5" class="edge"><title>07 (a)&#45;&gt;037 (a)</title>
<path fill="none" stroke="black" d="M304.278,-145.116C298.163,-136.38 290.444,-125.353 283.571,-115.535"/>
<polygon fill="black" stroke="black" points="286.414,-113.492 277.812,-107.307 280.679,-117.506 286.414,-113.492"/>
</g>
<!-- 0211/2 (a) -->
<g id="node18" class="node"><title>0211/2 (a)</title>
<ellipse fill="#ff8a8a" stroke="#b43f3f" cx="368.397" cy="-90" rx="47.3916" ry="18"/>
<text text-anchor="middle" x="368.397" y="-86.3" font-family="Times,serif" font-size="14.00">0211/2 (a)</text>
</g>
<!-- 07 (a)&#45;&gt;0211/2 (a) -->
<g id="edge4" class="edge"><title>07 (a)&#45;&gt;0211/2 (a)</title>
<path fill="none" stroke="black" d="M327.423,-145.116C333.943,-136.505 342.149,-125.667 349.501,-115.957"/>
<polygon fill="black" stroke="black" points="352.433,-117.883 355.679,-107.797 346.852,-113.657 352.433,-117.883"/>
</g>
<!-- 030 (a) -->
<g id="node24" class="node"><title>030 (a)</title>
<ellipse fill="#ff8a8a" stroke="#b43f3f" cx="470.397" cy="-90" rx="36.2938" ry="18"/>
<text text-anchor="middle" x="470.397" y="-86.3" font-family="Times,serif" font-size="14.00">030 (a)</text>
</g>
<!-- 07 (a)&#45;&gt;030 (a) -->
<g id="edge6" class="edge"><title>07 (a)&#45;&gt;030 (a)</title>
<path fill="none" stroke="black" d="M339.616,-150.062C365.242,-138.489 405.933,-120.113 435.121,-106.931"/>
<polygon fill="black" stroke="black" points="436.867,-109.983 444.541,-102.677 433.986,-103.603 436.867,-109.983"/>
</g>
<!-- 044 (b) -->
<g id="node19" class="node"><title>044 (b)</title>
<ellipse fill="#cea8f4" stroke="#835da9" cx="652.397" cy="-90" rx="36.2938" ry="18"/>
<text text-anchor="middle" x="652.397" y="-86.3" font-family="Times,serif" font-size="14.00">044 (b)</text>
</g>
<!-- 044 (b)&#45;&gt;022 (b) -->
<g id="edge9" class="edge"><title>044 (b)&#45;&gt;022 (b)</title>
<path fill="none" stroke="black" d="M641.496,-72.7646C635.766,-64.2301 628.616,-53.5822 622.195,-44.0191"/>
<polygon fill="black" stroke="black" points="625.045,-41.9846 616.565,-35.6334 619.234,-45.8867 625.045,-41.9846"/>
</g>
<!-- 05/3 (b) -->
<g id="node22" class="node"><title>05/3 (b)</title>
<ellipse fill="#cea8f4" stroke="#835da9" cx="698.397" cy="-18" rx="38.9931" ry="18"/>
<text text-anchor="middle" x="698.397" y="-14.3" font-family="Times,serif" font-size="14.00">05/3 (b)</text>
</g>
<!-- 044 (b)&#45;&gt;05/3 (b) -->
<g id="edge8" class="edge"><title>044 (b)&#45;&gt;05/3 (b)</title>
<path fill="none" stroke="black" d="M663.066,-72.7646C668.674,-64.2301 675.671,-53.5822 681.956,-44.0191"/>
<polygon fill="black" stroke="black" points="684.899,-45.9126 687.466,-35.6334 679.049,-42.0683 684.899,-45.9126"/>
</g>
<!-- 019 (b) -->
<g id="node20" class="node"><title>019 (b)</title>
<ellipse fill="#cea8f4" stroke="#835da9" cx="1197.4" cy="-162" rx="36.2938" ry="18"/>
<text text-anchor="middle" x="1197.4" y="-158.3" font-family="Times,serif" font-size="14.00">019 (b)</text>
</g>
<!-- 0141 (a) -->
<g id="node21" class="node"><title>0141 (a)</title>
<ellipse fill="#ff8a8a" stroke="#b43f3f" cx="920.397" cy="-162" rx="40.0939" ry="18"/>
<text text-anchor="middle" x="920.397" y="-158.3" font-family="Times,serif" font-size="14.00">0141 (a)</text>
</g>
<!-- 0141 (a)&#45;&gt;02 (a) -->
<g id="edge10" class="edge"><title>0141 (a)&#45;&gt;02 (a)</title>
<path fill="none" stroke="black" d="M920.397,-143.697C920.397,-135.983 920.397,-126.712 920.397,-118.112"/>
<polygon fill="black" stroke="black" points="923.897,-118.104 920.397,-108.104 916.897,-118.104 923.897,-118.104"/>
</g>
<!-- 021 (a) -->
<g id="node23" class="node"><title>021 (a)</title>
<ellipse fill="#ff8a8a" stroke="#b43f3f" cx="784.397" cy="-162" rx="36.2938" ry="18"/>
<text text-anchor="middle" x="784.397" y="-158.3" font-family="Times,serif" font-size="14.00">021 (a)</text>
</g>
<!-- 021 (a)&#45;&gt;047 (a) -->
<g id="edge12" class="edge"><title>021 (a)&#45;&gt;047 (a)</title>
<path fill="none" stroke="black" d="M774.68,-144.411C769.779,-136.042 763.727,-125.71 758.256,-116.37"/>
<polygon fill="black" stroke="black" points="761.118,-114.33 753.043,-107.47 755.077,-117.868 761.118,-114.33"/>
</g>
<!-- 021 (a)&#45;&gt;036 (a) -->
<g id="edge11" class="edge"><title>021 (a)&#45;&gt;036 (a)</title>
<path fill="none" stroke="black" d="M795.993,-144.765C802.241,-136.018 810.074,-125.052 817.034,-115.308"/>
<polygon fill="black" stroke="black" points="819.899,-117.319 822.863,-107.147 814.202,-113.25 819.899,-117.319"/>
</g>
<!-- 03 (b) -->
<g id="node25" class="node"><title>03 (b)</title>
<ellipse fill="#cea8f4" stroke="#835da9" cx="606.397" cy="-162" rx="32.4942" ry="18"/>
<text text-anchor="middle" x="606.397" y="-158.3" font-family="Times,serif" font-size="14.00">03 (b)</text>
</g>
<!-- 03 (b)&#45;&gt;032 (b) -->
<g id="edge14" class="edge"><title>03 (b)&#45;&gt;032 (b)</title>
<path fill="none" stroke="black" d="M595.96,-144.765C590.529,-136.317 583.768,-125.799 577.669,-116.312"/>
<polygon fill="black" stroke="black" points="580.441,-114.153 572.09,-107.633 574.553,-117.938 580.441,-114.153"/>
</g>
<!-- 03 (b)&#45;&gt;044 (b) -->
<g id="edge13" class="edge"><title>03 (b)&#45;&gt;044 (b)</title>
<path fill="none" stroke="black" d="M617.066,-144.765C622.674,-136.23 629.671,-125.582 635.956,-116.019"/>
<polygon fill="black" stroke="black" points="638.899,-117.913 641.466,-107.633 633.049,-114.068 638.899,-117.913"/>
</g>
</g>
</svg>
