<?xml version="1.0" encoding="UTF-8" standalone="no"?>
<!DOCTYPE svg PUBLIC "-//W3C//DTD SVG 1.1//EN"
 "http://www.w3.org/Graphics/SVG/1.1/DTD/svg11.dtd">
<!-- Generated by graphviz version 2.38.0 (20140413.2041)
 -->
<!-- Title: %3 Pages: 1 -->
<svg width="971pt" height="337pt"
 viewBox="0.00 0.00 971.00 337.00" xmlns="http://www.w3.org/2000/svg" xmlns:xlink="http://www.w3.org/1999/xlink">
<g id="graph0" class="graph" transform="scale(1 1) rotate(0) translate(4 333)">
<title>%3</title>
<polygon fill="white" stroke="none" points="-4,4 -4,-333 967,-333 967,4 -4,4"/>
<g id="clust1" class="cluster"><title>cluster_legend</title>
<path fill="none" stroke="black" d="M20,-193C20,-193 210,-193 210,-193 216,-193 222,-199 222,-205 222,-205 222,-309 222,-309 222,-315 216,-321 210,-321 210,-321 20,-321 20,-321 14,-321 8,-315 8,-309 8,-309 8,-205 8,-205 8,-199 14,-193 20,-193"/>
</g>
<g id="clust2" class="cluster"><title>cluster_reading</title>
<polygon fill="none" stroke="black" points="230,-8 230,-321 955,-321 955,-8 230,-8"/>
</g>
<!-- leg_s -->
<g id="node1" class="node"><title>leg_s</title>
<text text-anchor="middle" x="115" y="-291.3" font-family="Times,serif" font-size="14.00">Textual flow strength</text>
</g>
<!-- leg_e1 -->
<!-- leg_s&#45;&gt;leg_e1 -->
<g id="edge1" class="edge"><title>leg_s&#45;&gt;leg_e1</title>
<path fill="none" stroke="black" stroke-dasharray="1,5" d="M96.6657,-276.686C91.1324,-271.194 85.1607,-264.989 80,-259 70.1708,-247.593 60.0722,-233.779 52.9137,-223.563"/>
<polygon fill="black" stroke="black" points="55.6142,-221.314 47.056,-215.068 49.8514,-225.288 55.6142,-221.314"/>
<text text-anchor="middle" x="95.5" y="-247.8" font-family="Times,serif" font-size="14.00">&lt;=5 &#160;</text>
</g>
<!-- leg_e2 -->
<!-- leg_s&#45;&gt;leg_e2 -->
<g id="edge2" class="edge"><title>leg_s&#45;&gt;leg_e2</title>
<path fill="none" stroke="black" stroke-dasharray="5,2" d="M115,-276.799C115,-261.794 115,-240.174 115,-225.409"/>
<polygon fill="black" stroke="black" points="118.5,-225.293 115,-215.293 111.5,-225.293 118.5,-225.293"/>
<text text-anchor="middle" x="134" y="-247.8" font-family="Times,serif" font-size="14.00"> &#160;&lt;=25</text>
</g>
<!-- leg_e3 -->
<!-- leg_s&#45;&gt;leg_e3 -->
<g id="edge3" class="edge"><title>leg_s&#45;&gt;leg_e3</title>
<path fill="none" stroke="black" d="M138.503,-276.76C144.906,-271.462 151.567,-265.344 157,-259 166.087,-248.39 174.095,-234.689 179.546,-224.313"/>
<polygon fill="black" stroke="black" points="182.722,-225.789 184.091,-215.283 176.469,-222.642 182.722,-225.789"/>
<text text-anchor="middle" x="179" y="-247.8" font-family="Times,serif" font-size="14.00">&gt;25</text>
</g>
<!-- 044 -->
<g id="node5" class="node"><title>044</title>
<ellipse fill="#ff8a8a" stroke="#b43f3f" cx="739" cy="-208" rx="36.2938" ry="18"/>
<text text-anchor="middle" x="739" y="-204.3" font-family="Times,serif" font-size="14.00">044 (a)</text>
</g>
<!-- 022 -->
<g id="node6" class="node"><title>022</title>
<ellipse fill="#ff8a8a" stroke="#b43f3f" cx="812" cy="-121" rx="36.2938" ry="18"/>
<text text-anchor="middle" x="812" y="-117.3" font-family="Times,serif" font-size="14.00">022 (a)</text>
</g>
<!-- 044&#45;&gt;022 -->
<g id="edge4" class="edge"><title>044&#45;&gt;022</title>
<path fill="none" stroke="#b43f3f" stroke-dasharray="1,5" d="M752.731,-191.012C763.743,-178.19 779.358,-160.007 791.797,-145.524"/>
<polygon fill="#b43f3f" stroke="#b43f3f" points="794.471,-147.783 798.331,-137.916 789.16,-143.222 794.471,-147.783"/>
<text text-anchor="middle" x="801" y="-160.8" font-family="Times,serif" font-size="14.00">1 (91.7)</text>
</g>
<!-- 0141 -->
<g id="node7" class="node"><title>0141</title>
<ellipse fill="#ff8a8a" stroke="#b43f3f" cx="907" cy="-121" rx="40.0939" ry="18"/>
<text text-anchor="middle" x="907" y="-117.3" font-family="Times,serif" font-size="14.00">0141 (a)</text>
</g>
<!-- 044&#45;&gt;0141 -->
<g id="edge5" class="edge"><title>044&#45;&gt;0141</title>
<path fill="none" stroke="#b43f3f" stroke-dasharray="1,5" d="M767.411,-196.336C788.802,-188.188 816.218,-177.458 827,-172 844.305,-163.241 862.719,-151.886 877.512,-142.211"/>
<polygon fill="#b43f3f" stroke="#b43f3f" points="879.813,-144.886 886.214,-136.443 875.945,-139.051 879.813,-144.886"/>
<text text-anchor="middle" x="873" y="-160.8" font-family="Times,serif" font-size="14.00">1 (89.2)</text>
</g>
<!-- 07 -->
<g id="node8" class="node"><title>07</title>
<ellipse fill="#ff8a8a" stroke="#b43f3f" cx="362" cy="-121" rx="31.6951" ry="18"/>
<text text-anchor="middle" x="362" y="-117.3" font-family="Times,serif" font-size="14.00">07 (a)</text>
</g>
<!-- 013 -->
<g id="node9" class="node"><title>013</title>
<ellipse fill="#ff8a8a" stroke="#b43f3f" cx="274" cy="-34" rx="36.2938" ry="18"/>
<text text-anchor="middle" x="274" y="-30.3" font-family="Times,serif" font-size="14.00">013 (a)</text>
</g>
<!-- 07&#45;&gt;013 -->
<g id="edge6" class="edge"><title>07&#45;&gt;013</title>
<path fill="none" stroke="#b43f3f" stroke-dasharray="1,5" d="M342.433,-106.595C333.958,-100.422 324.137,-92.7533 316,-85 307.666,-77.0584 299.335,-67.5499 292.316,-58.9672"/>
<polygon fill="#b43f3f" stroke="#b43f3f" points="295.009,-56.7301 286.031,-51.1034 289.54,-61.1003 295.009,-56.7301"/>
<text text-anchor="middle" x="338" y="-73.8" font-family="Times,serif" font-size="14.00">2 (95.1)</text>
</g>
<!-- 017 -->
<g id="node10" class="node"><title>017</title>
<ellipse fill="#ff8a8a" stroke="#b43f3f" cx="365" cy="-34" rx="36.2938" ry="18"/>
<text text-anchor="middle" x="365" y="-30.3" font-family="Times,serif" font-size="14.00">017 (a)</text>
</g>
<!-- 07&#45;&gt;017 -->
<g id="edge7" class="edge"><title>07&#45;&gt;017</title>
<path fill="none" stroke="#b43f3f" stroke-dasharray="1,5" d="M362.607,-102.799C363.018,-91.1626 363.569,-75.5479 364.039,-62.2368"/>
<polygon fill="#b43f3f" stroke="#b43f3f" points="367.539,-62.2927 364.394,-52.1754 360.543,-62.0457 367.539,-62.2927"/>
<text text-anchor="middle" x="386" y="-73.8" font-family="Times,serif" font-size="14.00">2 (92.7)</text>
</g>
<!-- 037 -->
<g id="node11" class="node"><title>037</title>
<ellipse fill="#ff8a8a" stroke="#b43f3f" cx="456" cy="-34" rx="36.2938" ry="18"/>
<text text-anchor="middle" x="456" y="-30.3" font-family="Times,serif" font-size="14.00">037 (a)</text>
</g>
<!-- 07&#45;&gt;037 -->
<g id="edge8" class="edge"><title>07&#45;&gt;037</title>
<path fill="none" stroke="#b43f3f" stroke-dasharray="1,5" d="M382.776,-107.075C392.098,-100.876 402.998,-93.0548 412,-85 420.75,-77.1702 429.482,-67.6848 436.833,-59.0893"/>
<polygon fill="#b43f3f" stroke="#b43f3f" points="439.693,-61.1242 443.413,-51.2039 434.319,-56.6393 439.693,-61.1242"/>
<text text-anchor="middle" x="449" y="-73.8" font-family="Times,serif" font-size="14.00">1 (97.5)</text>
</g>
<!-- 034 -->
<g id="node12" class="node"><title>034</title>
<ellipse fill="#ff8a8a" stroke="#b43f3f" cx="547" cy="-34" rx="36.2938" ry="18"/>
<text text-anchor="middle" x="547" y="-30.3" font-family="Times,serif" font-size="14.00">034 (a)</text>
</g>
<!-- 07&#45;&gt;034 -->
<g id="edge9" class="edge"><title>07&#45;&gt;034</title>
<path fill="none" stroke="#b43f3f" stroke-dasharray="1,5" d="M386.493,-109.152C391.875,-106.963 397.586,-104.788 403,-103 434.321,-92.6548 444.963,-98.6299 475,-85 491.484,-77.5201 508.193,-66.1969 521.36,-56.2166"/>
<polygon fill="#b43f3f" stroke="#b43f3f" points="523.724,-58.8118 529.463,-49.906 519.423,-53.2891 523.724,-58.8118"/>
<text text-anchor="middle" x="523" y="-73.8" font-family="Times,serif" font-size="14.00">1 (95.1)</text>
</g>
<!-- 030 -->
<g id="node13" class="node"><title>030</title>
<ellipse fill="#ff8a8a" stroke="#b43f3f" cx="638" cy="-34" rx="36.2938" ry="18"/>
<text text-anchor="middle" x="638" y="-30.3" font-family="Times,serif" font-size="14.00">030 (a)</text>
</g>
<!-- 07&#45;&gt;030 -->
<g id="edge10" class="edge"><title>07&#45;&gt;030</title>
<path fill="none" stroke="#b43f3f" stroke-dasharray="1,5" d="M385.906,-108.82C391.423,-106.598 397.337,-104.493 403,-103 466.219,-86.3271 486.883,-105.396 549,-85 570.453,-77.9558 592.597,-65.5388 609.43,-54.8417"/>
<polygon fill="#b43f3f" stroke="#b43f3f" points="611.735,-57.5168 618.197,-49.1208 607.91,-51.6544 611.735,-57.5168"/>
<text text-anchor="middle" x="605" y="-73.8" font-family="Times,serif" font-size="14.00">1 (95.1)</text>
</g>
<!-- 03 -->
<g id="node14" class="node"><title>03</title>
<ellipse fill="#ff8a8a" stroke="#b43f3f" cx="825" cy="-295" rx="31.6951" ry="18"/>
<text text-anchor="middle" x="825" y="-291.3" font-family="Times,serif" font-size="14.00">03 (a)</text>
</g>
<!-- 03&#45;&gt;044 -->
<g id="edge11" class="edge"><title>03&#45;&gt;044</title>
<path fill="none" stroke="#b43f3f" stroke-dasharray="1,5" d="M804.353,-280.912C795.467,-274.796 785.248,-267.086 777,-259 769.175,-251.329 761.638,-241.975 755.368,-233.442"/>
<polygon fill="#b43f3f" stroke="#b43f3f" points="758.206,-231.394 749.557,-225.275 752.503,-235.452 758.206,-231.394"/>
<text text-anchor="middle" x="799" y="-247.8" font-family="Times,serif" font-size="14.00">1 (89.2)</text>
</g>
<!-- 02 -->
<g id="node15" class="node"><title>02</title>
<ellipse fill="#ff8a8a" stroke="#b43f3f" cx="825" cy="-208" rx="31.6951" ry="18"/>
<text text-anchor="middle" x="825" y="-204.3" font-family="Times,serif" font-size="14.00">02 (a)</text>
</g>
<!-- 03&#45;&gt;02 -->
<g id="edge12" class="edge"><title>03&#45;&gt;02</title>
<path fill="none" stroke="#b43f3f" stroke-dasharray="1,5" d="M825,-276.799C825,-265.163 825,-249.548 825,-236.237"/>
<polygon fill="#b43f3f" stroke="#b43f3f" points="828.5,-236.175 825,-226.175 821.5,-236.175 828.5,-236.175"/>
<text text-anchor="middle" x="847" y="-247.8" font-family="Times,serif" font-size="14.00">1 (86.5)</text>
</g>
<!-- 032 -->
<g id="node16" class="node"><title>032</title>
<ellipse fill="#ff8a8a" stroke="#b43f3f" cx="911" cy="-208" rx="36.2938" ry="18"/>
<text text-anchor="middle" x="911" y="-204.3" font-family="Times,serif" font-size="14.00">032 (a)</text>
</g>
<!-- 03&#45;&gt;032 -->
<g id="edge13" class="edge"><title>03&#45;&gt;032</title>
<path fill="none" stroke="#b43f3f" stroke-dasharray="1,5" d="M845.647,-280.912C854.533,-274.796 864.752,-267.086 873,-259 880.825,-251.329 888.362,-241.975 894.632,-233.442"/>
<polygon fill="#b43f3f" stroke="#b43f3f" points="897.497,-235.452 900.443,-225.275 891.794,-231.394 897.497,-235.452"/>
<text text-anchor="middle" x="907" y="-247.8" font-family="Times,serif" font-size="14.00">1 (91.7)</text>
</g>
<!-- 019 -->
<g id="node17" class="node"><title>019</title>
<ellipse fill="#ff8a8a" stroke="#b43f3f" cx="539" cy="-295" rx="36.2938" ry="18"/>
<text text-anchor="middle" x="539" y="-291.3" font-family="Times,serif" font-size="14.00">019 (a)</text>
</g>
<!-- 063 -->
<g id="node18" class="node"><title>063</title>
<ellipse fill="#ff8a8a" stroke="#b43f3f" cx="539" cy="-208" rx="36.2938" ry="18"/>
<text text-anchor="middle" x="539" y="-204.3" font-family="Times,serif" font-size="14.00">063 (a)</text>
</g>
<!-- 019&#45;&gt;063 -->
<g id="edge14" class="edge"><title>019&#45;&gt;063</title>
<path fill="none" stroke="#b43f3f" stroke-dasharray="1,5" d="M539,-276.799C539,-265.163 539,-249.548 539,-236.237"/>
<polygon fill="#b43f3f" stroke="#b43f3f" points="542.5,-236.175 539,-226.175 535.5,-236.175 542.5,-236.175"/>
<text text-anchor="middle" x="561" y="-247.8" font-family="Times,serif" font-size="14.00">1 (85.7)</text>
</g>
<!-- 063&#45;&gt;07 -->
<g id="edge15" class="edge"><title>063&#45;&gt;07</title>
<path fill="none" stroke="#b43f3f" stroke-dasharray="1,5" d="M510.658,-196.68C504.218,-194.414 497.391,-192.073 491,-190 464.112,-181.278 455.323,-184.561 430,-172 414.428,-164.276 398.686,-152.974 386.276,-143.069"/>
<polygon fill="#b43f3f" stroke="#b43f3f" points="388.212,-140.13 378.26,-136.495 383.773,-145.543 388.212,-140.13"/>
<text text-anchor="middle" x="452" y="-160.8" font-family="Times,serif" font-size="14.00">1 (96.6)</text>
</g>
<!-- 011 -->
<g id="node19" class="node"><title>011</title>
<ellipse fill="#ff8a8a" stroke="#b43f3f" cx="448" cy="-121" rx="36.2938" ry="18"/>
<text text-anchor="middle" x="448" y="-117.3" font-family="Times,serif" font-size="14.00">011 (a)</text>
</g>
<!-- 063&#45;&gt;011 -->
<g id="edge16" class="edge"><title>063&#45;&gt;011</title>
<path fill="none" stroke="#b43f3f" stroke-dasharray="1,5" d="M517.628,-193.006C509.008,-186.963 499.186,-179.554 491,-172 482.456,-164.115 473.924,-154.619 466.74,-146.029"/>
<polygon fill="#b43f3f" stroke="#b43f3f" points="469.344,-143.685 460.308,-138.155 463.923,-148.113 469.344,-143.685"/>
<text text-anchor="middle" x="513" y="-160.8" font-family="Times,serif" font-size="14.00">1 (93.1)</text>
</g>
<!-- 045 -->
<g id="node20" class="node"><title>045</title>
<ellipse fill="#ff8a8a" stroke="#b43f3f" cx="539" cy="-121" rx="36.2938" ry="18"/>
<text text-anchor="middle" x="539" y="-117.3" font-family="Times,serif" font-size="14.00">045 (a)</text>
</g>
<!-- 063&#45;&gt;045 -->
<g id="edge17" class="edge"><title>063&#45;&gt;045</title>
<path fill="none" stroke="#b43f3f" stroke-dasharray="1,5" d="M539,-189.799C539,-178.163 539,-162.548 539,-149.237"/>
<polygon fill="#b43f3f" stroke="#b43f3f" points="542.5,-149.175 539,-139.175 535.5,-149.175 542.5,-149.175"/>
<text text-anchor="middle" x="561" y="-160.8" font-family="Times,serif" font-size="14.00">1 (93.1)</text>
</g>
<!-- 021 -->
<g id="node21" class="node"><title>021</title>
<ellipse fill="#ff8a8a" stroke="#b43f3f" cx="630" cy="-121" rx="36.2938" ry="18"/>
<text text-anchor="middle" x="630" y="-117.3" font-family="Times,serif" font-size="14.00">021 (a)</text>
</g>
<!-- 063&#45;&gt;021 -->
<g id="edge18" class="edge"><title>063&#45;&gt;021</title>
<path fill="none" stroke="#b43f3f" stroke-dasharray="1,5" d="M560.372,-193.006C568.992,-186.963 578.814,-179.554 587,-172 595.544,-164.115 604.076,-154.619 611.26,-146.029"/>
<polygon fill="#b43f3f" stroke="#b43f3f" points="614.077,-148.113 617.692,-138.155 608.656,-143.685 614.077,-148.113"/>
<text text-anchor="middle" x="623" y="-160.8" font-family="Times,serif" font-size="14.00">1 (93.1)</text>
</g>
<!-- 028 -->
<g id="node22" class="node"><title>028</title>
<ellipse fill="#ff8a8a" stroke="#b43f3f" cx="721" cy="-121" rx="36.2938" ry="18"/>
<text text-anchor="middle" x="721" y="-117.3" font-family="Times,serif" font-size="14.00">028 (a)</text>
</g>
<!-- 063&#45;&gt;028 -->
<g id="edge19" class="edge"><title>063&#45;&gt;028</title>
<path fill="none" stroke="#b43f3f" stroke-dasharray="1,5" d="M571.267,-199.461C593.727,-193.566 624.009,-184.305 649,-172 665.128,-164.059 681.702,-152.801 694.877,-142.977"/>
<polygon fill="#b43f3f" stroke="#b43f3f" points="697.176,-145.626 703.004,-136.778 692.931,-140.06 697.176,-145.626"/>
<text text-anchor="middle" x="696" y="-160.8" font-family="Times,serif" font-size="14.00">1 (96.6)</text>
</g>
<!-- 038 -->
<g id="node26" class="node"><title>038</title>
<ellipse fill="#ff8a8a" stroke="#b43f3f" cx="729" cy="-34" rx="36.2938" ry="18"/>
<text text-anchor="middle" x="729" y="-30.3" font-family="Times,serif" font-size="14.00">038 (a)</text>
</g>
<!-- 045&#45;&gt;038 -->
<g id="edge22" class="edge"><title>045&#45;&gt;038</title>
<path fill="none" stroke="#b43f3f" stroke-dasharray="1,5" d="M566.534,-109.163C572.57,-106.974 578.961,-104.796 585,-103 619.517,-92.7367 631.417,-100.334 664,-85 679.072,-77.907 693.944,-66.8536 705.651,-56.9414"/>
<polygon fill="#b43f3f" stroke="#b43f3f" points="707.993,-59.5432 713.214,-50.3241 703.383,-54.2751 707.993,-59.5432"/>
<text text-anchor="middle" x="710" y="-73.8" font-family="Times,serif" font-size="14.00">1 (92.7)</text>
</g>
<!-- 036 -->
<g id="node27" class="node"><title>036</title>
<ellipse fill="#ff8a8a" stroke="#b43f3f" cx="820" cy="-34" rx="36.2938" ry="18"/>
<text text-anchor="middle" x="820" y="-30.3" font-family="Times,serif" font-size="14.00">036 (a)</text>
</g>
<!-- 021&#45;&gt;036 -->
<g id="edge23" class="edge"><title>021&#45;&gt;036</title>
<path fill="none" stroke="#b43f3f" stroke-dasharray="1,5" d="M658.121,-109.291C664.004,-107.139 670.186,-104.944 676,-103 702.404,-94.1702 710.513,-96.2043 736,-85 755.091,-76.6071 775.209,-64.7511 790.969,-54.6904"/>
<polygon fill="#b43f3f" stroke="#b43f3f" points="793.226,-57.3978 799.704,-49.014 789.412,-51.5283 793.226,-57.3978"/>
<text text-anchor="middle" x="786" y="-73.8" font-family="Times,serif" font-size="14.00">1 (97.6)</text>
</g>
<!-- 047 -->
<g id="node28" class="node"><title>047</title>
<ellipse fill="#ff8a8a" stroke="#b43f3f" cx="911" cy="-34" rx="36.2938" ry="18"/>
<text text-anchor="middle" x="911" y="-30.3" font-family="Times,serif" font-size="14.00">047 (a)</text>
</g>
<!-- 021&#45;&gt;047 -->
<g id="edge24" class="edge"><title>021&#45;&gt;047</title>
<path fill="none" stroke="#b43f3f" stroke-dasharray="1,5" d="M657.418,-108.737C663.461,-106.574 669.884,-104.515 676,-103 735.183,-88.3416 753.745,-102.997 812,-85 836.19,-77.527 861.647,-64.5406 880.689,-53.6757"/>
<polygon fill="#b43f3f" stroke="#b43f3f" points="882.611,-56.6062 889.487,-48.5458 879.085,-50.5589 882.611,-56.6062"/>
<text text-anchor="middle" x="870" y="-73.8" font-family="Times,serif" font-size="14.00">1 (95.1)</text>
</g>
<!-- 091 -->
<g id="node23" class="node"><title>091</title>
<ellipse fill="#ff8a8a" stroke="#b43f3f" cx="439" cy="-295" rx="36.2938" ry="18"/>
<text text-anchor="middle" x="439" y="-291.3" font-family="Times,serif" font-size="14.00">091 (a)</text>
</g>
<!-- 0211 -->
<g id="node24" class="node"><title>0211</title>
<ellipse fill="#ff8a8a" stroke="#b43f3f" cx="360" cy="-208" rx="40.0939" ry="18"/>
<text text-anchor="middle" x="360" y="-204.3" font-family="Times,serif" font-size="14.00">0211 (a)</text>
</g>
<!-- 091&#45;&gt;0211 -->
<g id="edge20" class="edge"><title>091&#45;&gt;0211</title>
<path fill="none" stroke="#b43f3f" stroke-dasharray="1,5" d="M419.22,-279.68C411.573,-273.702 402.998,-266.425 396,-259 388.813,-251.374 381.854,-242.262 376.002,-233.919"/>
<polygon fill="#b43f3f" stroke="#b43f3f" points="378.859,-231.896 370.34,-225.596 373.071,-235.833 378.859,-231.896"/>
<text text-anchor="middle" x="418" y="-247.8" font-family="Times,serif" font-size="14.00">1 (83.3)</text>
</g>
<!-- 05 -->
<g id="node25" class="node"><title>05</title>
<ellipse fill="#ff8a8a" stroke="#b43f3f" cx="450" cy="-208" rx="31.6951" ry="18"/>
<text text-anchor="middle" x="450" y="-204.3" font-family="Times,serif" font-size="14.00">05 (a)</text>
</g>
<!-- 091&#45;&gt;05 -->
<g id="edge21" class="edge"><title>091&#45;&gt;05</title>
<path fill="none" stroke="#b43f3f" stroke-dasharray="1,5" d="M441.226,-276.799C442.732,-265.163 444.753,-249.548 446.475,-236.237"/>
<polygon fill="#b43f3f" stroke="#b43f3f" points="449.965,-236.542 447.777,-226.175 443.023,-235.644 449.965,-236.542"/>
<text text-anchor="middle" x="468" y="-247.8" font-family="Times,serif" font-size="14.00">1 (87.5)</text>
</g>
<!-- P75 -->
<g id="node29" class="node"><title>P75</title>
<ellipse fill="#ff8a8a" stroke="#b43f3f" cx="307" cy="-295" rx="36.2938" ry="18"/>
<text text-anchor="middle" x="307" y="-291.3" font-family="Times,serif" font-size="14.00">P75 (a)</text>
</g>
</g>
</svg>
