<?xml version="1.0" encoding="UTF-8" standalone="no"?>
<!DOCTYPE svg PUBLIC "-//W3C//DTD SVG 1.1//EN"
 "http://www.w3.org/Graphics/SVG/1.1/DTD/svg11.dtd">
<!-- Generated by graphviz version 2.38.0 (20140413.2041)
 -->
<!-- Title: %3 Pages: 1 -->
<svg width="1142pt" height="163pt"
 viewBox="0.00 0.00 1142.00 163.00" xmlns="http://www.w3.org/2000/svg" xmlns:xlink="http://www.w3.org/1999/xlink">
<g id="graph0" class="graph" transform="scale(1 1) rotate(0) translate(4 159)">
<title>%3</title>
<polygon fill="white" stroke="none" points="-4,4 -4,-159 1138,-159 1138,4 -4,4"/>
<g id="clust1" class="cluster"><title>cluster_legend</title>
<path fill="none" stroke="black" d="M20,-19C20,-19 210,-19 210,-19 216,-19 222,-25 222,-31 222,-31 222,-135 222,-135 222,-141 216,-147 210,-147 210,-147 20,-147 20,-147 14,-147 8,-141 8,-135 8,-135 8,-31 8,-31 8,-25 14,-19 20,-19"/>
</g>
<g id="clust2" class="cluster"><title>cluster_reading</title>
<polygon fill="none" stroke="black" points="230,-8 230,-147 1126,-147 1126,-8 230,-8"/>
</g>
<!-- leg_s -->
<g id="node1" class="node"><title>leg_s</title>
<text text-anchor="middle" x="115" y="-117.3" font-family="Times,serif" font-size="14.00">Textual flow strength</text>
</g>
<!-- leg_e1 -->
<!-- leg_s&#45;&gt;leg_e1 -->
<g id="edge1" class="edge"><title>leg_s&#45;&gt;leg_e1</title>
<path fill="none" stroke="black" stroke-dasharray="1,5" d="M96.6657,-102.686C91.1324,-97.1938 85.1607,-90.9891 80,-85 70.1708,-73.593 60.0722,-59.7786 52.9137,-49.5634"/>
<polygon fill="black" stroke="black" points="55.6142,-47.3142 47.056,-41.0685 49.8514,-51.2879 55.6142,-47.3142"/>
<text text-anchor="middle" x="95.5" y="-73.8" font-family="Times,serif" font-size="14.00">&lt;=5 &#160;</text>
</g>
<!-- leg_e2 -->
<!-- leg_s&#45;&gt;leg_e2 -->
<g id="edge2" class="edge"><title>leg_s&#45;&gt;leg_e2</title>
<path fill="none" stroke="black" stroke-dasharray="5,2" d="M115,-102.799C115,-87.7942 115,-66.1745 115,-51.4086"/>
<polygon fill="black" stroke="black" points="118.5,-51.2934 115,-41.2934 111.5,-51.2934 118.5,-51.2934"/>
<text text-anchor="middle" x="134" y="-73.8" font-family="Times,serif" font-size="14.00"> &#160;&lt;=25</text>
</g>
<!-- leg_e3 -->
<!-- leg_s&#45;&gt;leg_e3 -->
<g id="edge3" class="edge"><title>leg_s&#45;&gt;leg_e3</title>
<path fill="none" stroke="black" d="M138.503,-102.76C144.906,-97.4621 151.567,-91.3439 157,-85 166.087,-74.3897 174.095,-60.6892 179.546,-50.3134"/>
<polygon fill="black" stroke="black" points="182.722,-51.7893 184.091,-41.2833 176.469,-48.6425 182.722,-51.7893"/>
<text text-anchor="middle" x="179" y="-73.8" font-family="Times,serif" font-size="14.00">&gt;25</text>
</g>
<!-- 031 -->
<g id="node5" class="node"><title>031</title>
<ellipse fill="#ff8a8a" stroke="#b43f3f" cx="991" cy="-121" rx="36.2938" ry="18"/>
<text text-anchor="middle" x="991" y="-117.3" font-family="Times,serif" font-size="14.00">031 (a)</text>
</g>
<!-- 01 -->
<g id="node6" class="node"><title>01</title>
<ellipse fill="#ff8a8a" stroke="#b43f3f" cx="905" cy="-34" rx="31.6951" ry="18"/>
<text text-anchor="middle" x="905" y="-30.3" font-family="Times,serif" font-size="14.00">01 (a)</text>
</g>
<!-- 031&#45;&gt;01 -->
<g id="edge4" class="edge"><title>031&#45;&gt;01</title>
<path fill="none" stroke="#b43f3f" stroke-dasharray="1,5" d="M969.396,-106.25C960.74,-100.245 950.954,-92.7976 943,-85 935.175,-77.3291 927.638,-67.9752 921.368,-59.4419"/>
<polygon fill="#b43f3f" stroke="#b43f3f" points="924.206,-57.3937 915.557,-51.2749 918.503,-61.452 924.206,-57.3937"/>
<text text-anchor="middle" x="965" y="-73.8" font-family="Times,serif" font-size="14.00">2 (48.5)</text>
</g>
<!-- 013 -->
<g id="node7" class="node"><title>013</title>
<ellipse fill="#ff8a8a" stroke="#b43f3f" cx="991" cy="-34" rx="36.2938" ry="18"/>
<text text-anchor="middle" x="991" y="-30.3" font-family="Times,serif" font-size="14.00">013 (a)</text>
</g>
<!-- 031&#45;&gt;013 -->
<g id="edge5" class="edge"><title>031&#45;&gt;013</title>
<path fill="none" stroke="#b43f3f" stroke-dasharray="1,5" d="M991,-102.799C991,-91.1626 991,-75.5479 991,-62.2368"/>
<polygon fill="#b43f3f" stroke="#b43f3f" points="994.5,-62.1754 991,-52.1754 987.5,-62.1755 994.5,-62.1754"/>
<text text-anchor="middle" x="1013" y="-73.8" font-family="Times,serif" font-size="14.00">1 (97.1)</text>
</g>
<!-- 017 -->
<g id="node8" class="node"><title>017</title>
<ellipse fill="#ff8a8a" stroke="#b43f3f" cx="1082" cy="-34" rx="36.2938" ry="18"/>
<text text-anchor="middle" x="1082" y="-30.3" font-family="Times,serif" font-size="14.00">017 (a)</text>
</g>
<!-- 031&#45;&gt;017 -->
<g id="edge6" class="edge"><title>031&#45;&gt;017</title>
<path fill="none" stroke="#b43f3f" stroke-dasharray="1,5" d="M1012.37,-106.006C1020.99,-99.9634 1030.81,-92.5539 1039,-85 1047.54,-77.1154 1056.08,-67.6186 1063.26,-59.0293"/>
<polygon fill="#b43f3f" stroke="#b43f3f" points="1066.08,-61.1135 1069.69,-51.1545 1060.66,-56.6853 1066.08,-61.1135"/>
<text text-anchor="middle" x="1074" y="-73.8" font-family="Times,serif" font-size="14.00">1 (94.3)</text>
</g>
<!-- 07 -->
<g id="node9" class="node"><title>07</title>
<ellipse fill="#ff8a8a" stroke="#b43f3f" cx="732" cy="-121" rx="31.6951" ry="18"/>
<text text-anchor="middle" x="732" y="-117.3" font-family="Times,serif" font-size="14.00">07 (a)</text>
</g>
<!-- 0211 -->
<g id="node10" class="node"><title>0211</title>
<ellipse fill="#ff8a8a" stroke="#b43f3f" cx="633" cy="-34" rx="40.0939" ry="18"/>
<text text-anchor="middle" x="633" y="-30.3" font-family="Times,serif" font-size="14.00">0211 (a)</text>
</g>
<!-- 07&#45;&gt;0211 -->
<g id="edge7" class="edge"><title>07&#45;&gt;0211</title>
<path fill="none" stroke="#b43f3f" stroke-dasharray="1,5" d="M711.42,-106.85C702.138,-100.605 691.215,-92.8105 682,-85 672.391,-76.8552 662.531,-67.1101 654.199,-58.3955"/>
<polygon fill="#b43f3f" stroke="#b43f3f" points="656.712,-55.9594 647.314,-51.0685 651.611,-60.7528 656.712,-55.9594"/>
<text text-anchor="middle" x="704" y="-73.8" font-family="Times,serif" font-size="14.00">2 (82.9)</text>
</g>
<!-- 037 -->
<g id="node11" class="node"><title>037</title>
<ellipse fill="#ff8a8a" stroke="#b43f3f" cx="728" cy="-34" rx="36.2938" ry="18"/>
<text text-anchor="middle" x="728" y="-30.3" font-family="Times,serif" font-size="14.00">037 (a)</text>
</g>
<!-- 07&#45;&gt;037 -->
<g id="edge8" class="edge"><title>07&#45;&gt;037</title>
<path fill="none" stroke="#b43f3f" stroke-dasharray="1,5" d="M731.191,-102.799C730.643,-91.1626 729.908,-75.5479 729.282,-62.2368"/>
<polygon fill="#b43f3f" stroke="#b43f3f" points="732.775,-61.9998 728.808,-52.1754 725.782,-62.3289 732.775,-61.9998"/>
<text text-anchor="middle" x="753" y="-73.8" font-family="Times,serif" font-size="14.00">1 (97.5)</text>
</g>
<!-- 030 -->
<g id="node12" class="node"><title>030</title>
<ellipse fill="#ff8a8a" stroke="#b43f3f" cx="819" cy="-34" rx="36.2938" ry="18"/>
<text text-anchor="middle" x="819" y="-30.3" font-family="Times,serif" font-size="14.00">030 (a)</text>
</g>
<!-- 07&#45;&gt;030 -->
<g id="edge9" class="edge"><title>07&#45;&gt;030</title>
<path fill="none" stroke="#b43f3f" stroke-dasharray="1,5" d="M752.104,-106.75C760.784,-100.605 770.804,-92.9163 779,-85 787.036,-77.2382 794.927,-67.8647 801.548,-59.3412"/>
<polygon fill="#b43f3f" stroke="#b43f3f" points="804.469,-61.2809 807.705,-51.1923 798.884,-57.0612 804.469,-61.2809"/>
<text text-anchor="middle" x="815" y="-73.8" font-family="Times,serif" font-size="14.00">1 (95.1)</text>
</g>
<!-- 045 -->
<g id="node13" class="node"><title>045</title>
<ellipse fill="#ff8a8a" stroke="#b43f3f" cx="646" cy="-121" rx="36.2938" ry="18"/>
<text text-anchor="middle" x="646" y="-117.3" font-family="Times,serif" font-size="14.00">045 (a)</text>
</g>
<!-- 038 -->
<g id="node14" class="node"><title>038</title>
<ellipse fill="#ff8a8a" stroke="#b43f3f" cx="538" cy="-34" rx="36.2938" ry="18"/>
<text text-anchor="middle" x="538" y="-30.3" font-family="Times,serif" font-size="14.00">038 (a)</text>
</g>
<!-- 045&#45;&gt;038 -->
<g id="edge10" class="edge"><title>045&#45;&gt;038</title>
<path fill="none" stroke="#b43f3f" stroke-dasharray="1,5" d="M627.188,-105.194C609.843,-91.5431 583.919,-71.1403 564.485,-55.8443"/>
<polygon fill="#b43f3f" stroke="#b43f3f" points="566.619,-53.0705 556.597,-49.6362 562.29,-58.5712 566.619,-53.0705"/>
<text text-anchor="middle" x="621" y="-73.8" font-family="Times,serif" font-size="14.00">1 (92.7)</text>
</g>
<!-- 021 -->
<g id="node15" class="node"><title>021</title>
<ellipse fill="#ff8a8a" stroke="#b43f3f" cx="555" cy="-121" rx="36.2938" ry="18"/>
<text text-anchor="middle" x="555" y="-117.3" font-family="Times,serif" font-size="14.00">021 (a)</text>
</g>
<!-- 036 -->
<g id="node16" class="node"><title>036</title>
<ellipse fill="#ff8a8a" stroke="#b43f3f" cx="356" cy="-34" rx="36.2938" ry="18"/>
<text text-anchor="middle" x="356" y="-30.3" font-family="Times,serif" font-size="14.00">036 (a)</text>
</g>
<!-- 021&#45;&gt;036 -->
<g id="edge11" class="edge"><title>021&#45;&gt;036</title>
<path fill="none" stroke="#b43f3f" stroke-dasharray="1,5" d="M526.893,-109.251C521.008,-107.102 514.822,-104.918 509,-103 481.748,-94.021 473.512,-95.9749 447,-85 426.201,-76.39 404.041,-64.2827 386.796,-54.1387"/>
<polygon fill="#b43f3f" stroke="#b43f3f" points="388.141,-50.865 377.761,-48.7398 384.55,-56.8739 388.141,-50.865"/>
<text text-anchor="middle" x="469" y="-73.8" font-family="Times,serif" font-size="14.00">1 (97.6)</text>
</g>
<!-- 047 -->
<g id="node17" class="node"><title>047</title>
<ellipse fill="#ff8a8a" stroke="#b43f3f" cx="447" cy="-34" rx="36.2938" ry="18"/>
<text text-anchor="middle" x="447" y="-30.3" font-family="Times,serif" font-size="14.00">047 (a)</text>
</g>
<!-- 021&#45;&gt;047 -->
<g id="edge12" class="edge"><title>021&#45;&gt;047</title>
<path fill="none" stroke="#b43f3f" stroke-dasharray="1,5" d="M536.188,-105.194C518.843,-91.5431 492.919,-71.1403 473.485,-55.8443"/>
<polygon fill="#b43f3f" stroke="#b43f3f" points="475.619,-53.0705 465.597,-49.6362 471.29,-58.5712 475.619,-53.0705"/>
<text text-anchor="middle" x="530" y="-73.8" font-family="Times,serif" font-size="14.00">1 (95.1)</text>
</g>
<!-- 0141 -->
<g id="node18" class="node"><title>0141</title>
<ellipse fill="#ff8a8a" stroke="#b43f3f" cx="460" cy="-121" rx="40.0939" ry="18"/>
<text text-anchor="middle" x="460" y="-117.3" font-family="Times,serif" font-size="14.00">0141 (a)</text>
</g>
<!-- 05 -->
<g id="node19" class="node"><title>05</title>
<ellipse fill="#ff8a8a" stroke="#b43f3f" cx="270" cy="-34" rx="31.6951" ry="18"/>
<text text-anchor="middle" x="270" y="-30.3" font-family="Times,serif" font-size="14.00">05 (a)</text>
</g>
<!-- 0141&#45;&gt;05 -->
<g id="edge13" class="edge"><title>0141&#45;&gt;05</title>
<path fill="none" stroke="#b43f3f" stroke-dasharray="1,5" d="M429.806,-108.953C423.324,-106.802 416.476,-104.692 410,-103 367.578,-91.9139 351.008,-106.863 313,-85 302.362,-78.881 293.094,-69.1205 285.914,-59.8407"/>
<polygon fill="#b43f3f" stroke="#b43f3f" points="288.627,-57.6191 279.927,-51.5717 282.957,-61.7242 288.627,-57.6191"/>
<text text-anchor="middle" x="335" y="-73.8" font-family="Times,serif" font-size="14.00">9 (70.6)</text>
</g>
<!-- 011 -->
<g id="node20" class="node"><title>011</title>
<ellipse fill="#ff8a8a" stroke="#b43f3f" cx="365" cy="-121" rx="36.2938" ry="18"/>
<text text-anchor="middle" x="365" y="-117.3" font-family="Times,serif" font-size="14.00">011 (a)</text>
</g>
<!-- 028 -->
<g id="node21" class="node"><title>028</title>
<ellipse fill="#ff8a8a" stroke="#b43f3f" cx="274" cy="-121" rx="36.2938" ry="18"/>
<text text-anchor="middle" x="274" y="-117.3" font-family="Times,serif" font-size="14.00">028 (a)</text>
</g>
</g>
</svg>
