<?xml version="1.0" encoding="UTF-8" standalone="no"?>
<!DOCTYPE svg PUBLIC "-//W3C//DTD SVG 1.1//EN"
 "http://www.w3.org/Graphics/SVG/1.1/DTD/svg11.dtd">
<!-- Generated by graphviz version 2.38.0 (20140413.2041)
 -->
<!-- Title: G Pages: 1 -->
<svg width="988pt" height="392pt"
 viewBox="0.00 0.00 988.40 392.00" xmlns="http://www.w3.org/2000/svg" xmlns:xlink="http://www.w3.org/1999/xlink">
<g id="graph0" class="graph" transform="scale(1 1) rotate(0) translate(4 388)">
<title>G</title>
<polygon fill="white" stroke="none" points="-4,4 -4,-388 984.397,-388 984.397,4 -4,4"/>
<!-- 013 (a) -->
<g id="node1" class="node"><title>013 (a)</title>
<ellipse fill="#ff8a8a" stroke="#b43f3f" cx="681.397" cy="-18" rx="36.2938" ry="18"/>
<text text-anchor="middle" x="681.397" y="-14.3" font-family="Times,serif" font-size="14.00">013 (a)</text>
</g>
<!-- 017 (a) -->
<g id="node2" class="node"><title>017 (a)</title>
<ellipse fill="#ff8a8a" stroke="#b43f3f" cx="772.397" cy="-18" rx="36.2938" ry="18"/>
<text text-anchor="middle" x="772.397" y="-14.3" font-family="Times,serif" font-size="14.00">017 (a)</text>
</g>
<!-- 021 (a) -->
<g id="node3" class="node"><title>021 (a)</title>
<ellipse fill="#ff8a8a" stroke="#b43f3f" cx="127.397" cy="-105" rx="36.2938" ry="18"/>
<text text-anchor="middle" x="127.397" y="-101.3" font-family="Times,serif" font-size="14.00">021 (a)</text>
</g>
<!-- 036 (a) -->
<g id="node6" class="node"><title>036 (a)</title>
<ellipse fill="#ff8a8a" stroke="#b43f3f" cx="36.3968" cy="-18" rx="36.2938" ry="18"/>
<text text-anchor="middle" x="36.3968" y="-14.3" font-family="Times,serif" font-size="14.00">036 (a)</text>
</g>
<!-- 021 (a)&#45;&gt;036 (a) -->
<g id="edge1" class="edge"><title>021 (a)&#45;&gt;036 (a)</title>
<path fill="none" stroke="#b43f3f" d="M106.025,-90.006C97.4044,-83.9634 87.5824,-76.5539 79.3968,-69 70.8527,-61.1154 62.3211,-51.6186 55.1364,-43.0293"/>
<polygon fill="#b43f3f" stroke="#b43f3f" points="57.741,-40.6853 48.7043,-35.1545 52.3196,-45.1135 57.741,-40.6853"/>
<text text-anchor="middle" x="101.397" y="-57.8" font-family="Times,serif" font-size="14.00">1 (97.6)</text>
</g>
<!-- 047 (a) -->
<g id="node24" class="node"><title>047 (a)</title>
<ellipse fill="#ff8a8a" stroke="#b43f3f" cx="127.397" cy="-18" rx="36.2938" ry="18"/>
<text text-anchor="middle" x="127.397" y="-14.3" font-family="Times,serif" font-size="14.00">047 (a)</text>
</g>
<!-- 021 (a)&#45;&gt;047 (a) -->
<g id="edge2" class="edge"><title>021 (a)&#45;&gt;047 (a)</title>
<path fill="none" stroke="#b43f3f" d="M127.397,-86.799C127.397,-75.1626 127.397,-59.5479 127.397,-46.2368"/>
<polygon fill="#b43f3f" stroke="#b43f3f" points="130.897,-46.1754 127.397,-36.1754 123.897,-46.1755 130.897,-46.1754"/>
<text text-anchor="middle" x="149.397" y="-57.8" font-family="Times,serif" font-size="14.00">1 (95.1)</text>
</g>
<!-- 037 (a) -->
<g id="node4" class="node"><title>037 (a)</title>
<ellipse fill="#ff8a8a" stroke="#b43f3f" cx="218.397" cy="-18" rx="36.2938" ry="18"/>
<text text-anchor="middle" x="218.397" y="-14.3" font-family="Times,serif" font-size="14.00">037 (a)</text>
</g>
<!-- 05 (a) -->
<g id="node5" class="node"><title>05 (a)</title>
<ellipse fill="#ff8a8a" stroke="#b43f3f" cx="940.397" cy="-18" rx="31.6951" ry="18"/>
<text text-anchor="middle" x="940.397" y="-14.3" font-family="Times,serif" font-size="14.00">05 (a)</text>
</g>
<!-- 07 (a) -->
<g id="node7" class="node"><title>07 (a)</title>
<ellipse fill="#ff8a8a" stroke="#b43f3f" cx="331.397" cy="-105" rx="31.6951" ry="18"/>
<text text-anchor="middle" x="331.397" y="-101.3" font-family="Times,serif" font-size="14.00">07 (a)</text>
</g>
<!-- 07 (a)&#45;&gt;037 (a) -->
<g id="edge6" class="edge"><title>07 (a)&#45;&gt;037 (a)</title>
<path fill="none" stroke="#b43f3f" d="M308.687,-92.3572C297.125,-86.0368 283.082,-77.7397 271.397,-69 260.634,-60.95 249.675,-50.9692 240.538,-42.0471"/>
<polygon fill="#b43f3f" stroke="#b43f3f" points="242.888,-39.4479 233.334,-34.8671 237.946,-44.4057 242.888,-39.4479"/>
<text text-anchor="middle" x="293.397" y="-57.8" font-family="Times,serif" font-size="14.00">1 (97.5)</text>
</g>
<!-- 034 (a) -->
<g id="node9" class="node"><title>034 (a)</title>
<ellipse fill="#ff8a8a" stroke="#b43f3f" cx="309.397" cy="-18" rx="36.2938" ry="18"/>
<text text-anchor="middle" x="309.397" y="-14.3" font-family="Times,serif" font-size="14.00">034 (a)</text>
</g>
<!-- 07 (a)&#45;&gt;034 (a) -->
<g id="edge4" class="edge"><title>07 (a)&#45;&gt;034 (a)</title>
<path fill="none" stroke="#b43f3f" d="M326.945,-86.799C323.883,-74.9701 319.758,-59.0301 316.276,-45.578"/>
<polygon fill="#b43f3f" stroke="#b43f3f" points="319.661,-44.6893 313.767,-35.8854 312.884,-46.4434 319.661,-44.6893"/>
<text text-anchor="middle" x="344.397" y="-57.8" font-family="Times,serif" font-size="14.00">1 (95.1)</text>
</g>
<!-- 0211 (a) -->
<g id="node11" class="node"><title>0211 (a)</title>
<ellipse fill="#ff8a8a" stroke="#b43f3f" cx="404.397" cy="-18" rx="40.0939" ry="18"/>
<text text-anchor="middle" x="404.397" y="-14.3" font-family="Times,serif" font-size="14.00">0211 (a)</text>
</g>
<!-- 07 (a)&#45;&gt;0211 (a) -->
<g id="edge5" class="edge"><title>07 (a)&#45;&gt;0211 (a)</title>
<path fill="none" stroke="#b43f3f" d="M348.946,-89.8496C355.979,-83.7831 363.931,-76.3979 370.397,-69 377.093,-61.3382 383.594,-52.3097 389.086,-44.048"/>
<polygon fill="#b43f3f" stroke="#b43f3f" points="392.13,-45.7853 394.612,-35.4851 386.249,-41.9897 392.13,-45.7853"/>
<text text-anchor="middle" x="404.397" y="-57.8" font-family="Times,serif" font-size="14.00">2 (82.9)</text>
</g>
<!-- 030 (a) -->
<g id="node17" class="node"><title>030 (a)</title>
<ellipse fill="#ff8a8a" stroke="#b43f3f" cx="499.397" cy="-18" rx="36.2938" ry="18"/>
<text text-anchor="middle" x="499.397" y="-14.3" font-family="Times,serif" font-size="14.00">030 (a)</text>
</g>
<!-- 07 (a)&#45;&gt;030 (a) -->
<g id="edge3" class="edge"><title>07 (a)&#45;&gt;030 (a)</title>
<path fill="none" stroke="#b43f3f" d="M355.969,-93.3805C361.346,-91.1777 367.034,-88.9391 372.397,-87 397.779,-77.8214 406.26,-81.079 430.397,-69 445.768,-61.3078 461.399,-50.2986 473.889,-40.5677"/>
<polygon fill="#b43f3f" stroke="#b43f3f" points="476.365,-43.0692 481.992,-34.0917 471.995,-37.6011 476.365,-43.0692"/>
<text text-anchor="middle" x="477.397" y="-57.8" font-family="Times,serif" font-size="14.00">1 (95.1)</text>
</g>
<!-- 022 (b) -->
<g id="node8" class="node"><title>022 (b)</title>
<ellipse fill="#cea8f4" stroke="#835da9" cx="817.397" cy="-105" rx="36.2938" ry="18"/>
<text text-anchor="middle" x="817.397" y="-101.3" font-family="Times,serif" font-size="14.00">022 (b)</text>
</g>
<!-- 0141 (a) -->
<g id="node10" class="node"><title>0141 (a)</title>
<ellipse fill="#ff8a8a" stroke="#b43f3f" cx="930.397" cy="-105" rx="40.0939" ry="18"/>
<text text-anchor="middle" x="930.397" y="-101.3" font-family="Times,serif" font-size="14.00">0141 (a)</text>
</g>
<!-- 0141 (a)&#45;&gt;05 (a) -->
<g id="edge7" class="edge"><title>0141 (a)&#45;&gt;05 (a)</title>
<path fill="none" stroke="#b43f3f" d="M932.42,-86.799C933.789,-75.1626 935.626,-59.5479 937.192,-46.2368"/>
<polygon fill="#b43f3f" stroke="#b43f3f" points="940.684,-46.5159 938.376,-36.1754 933.732,-45.698 940.684,-46.5159"/>
<text text-anchor="middle" x="958.397" y="-57.8" font-family="Times,serif" font-size="14.00">9 (70.6)</text>
</g>
<!-- 01 (a) -->
<g id="node12" class="node"><title>01 (a)</title>
<ellipse fill="#ff8a8a" stroke="#b43f3f" cx="858.397" cy="-18" rx="31.6951" ry="18"/>
<text text-anchor="middle" x="858.397" y="-14.3" font-family="Times,serif" font-size="14.00">01 (a)</text>
</g>
<!-- 032 (b) -->
<g id="node13" class="node"><title>032 (b)</title>
<ellipse fill="#cea8f4" stroke="#835da9" cx="726.397" cy="-192" rx="36.2938" ry="18"/>
<text text-anchor="middle" x="726.397" y="-188.3" font-family="Times,serif" font-size="14.00">032 (b)</text>
</g>
<!-- 044 (b) -->
<g id="node14" class="node"><title>044 (b)</title>
<ellipse fill="#cea8f4" stroke="#835da9" cx="817.397" cy="-192" rx="36.2938" ry="18"/>
<text text-anchor="middle" x="817.397" y="-188.3" font-family="Times,serif" font-size="14.00">044 (b)</text>
</g>
<!-- 044 (b)&#45;&gt;022 (b) -->
<g id="edge9" class="edge"><title>044 (b)&#45;&gt;022 (b)</title>
<path fill="none" stroke="#835da9" d="M817.397,-173.799C817.397,-162.163 817.397,-146.548 817.397,-133.237"/>
<polygon fill="#835da9" stroke="#835da9" points="820.897,-133.175 817.397,-123.175 813.897,-133.175 820.897,-133.175"/>
<text text-anchor="middle" x="839.397" y="-144.8" font-family="Times,serif" font-size="14.00">1 (91.7)</text>
</g>
<!-- 044 (b)&#45;&gt;0141 (a) -->
<g id="edge8" class="edge"><title>044 (b)&#45;&gt;0141 (a)</title>
<path fill="none" stroke="#b43f3f" d="M837.098,-176.809C845.808,-170.49 856.152,-162.925 865.397,-156 877.867,-146.659 891.554,-136.167 903.139,-127.216"/>
<polygon fill="#b43f3f" stroke="#b43f3f" points="905.392,-129.898 911.155,-121.008 901.106,-124.363 905.392,-129.898"/>
<text text-anchor="middle" x="907.397" y="-144.8" font-family="Times,serif" font-size="14.00">1 (89.2)</text>
</g>
<!-- 011 (a) -->
<g id="node15" class="node"><title>011 (a)</title>
<ellipse fill="#ff8a8a" stroke="#b43f3f" cx="417.397" cy="-105" rx="36.2938" ry="18"/>
<text text-anchor="middle" x="417.397" y="-101.3" font-family="Times,serif" font-size="14.00">011 (a)</text>
</g>
<!-- 038 (a) -->
<g id="node16" class="node"><title>038 (a)</title>
<ellipse fill="#ff8a8a" stroke="#b43f3f" cx="590.397" cy="-18" rx="36.2938" ry="18"/>
<text text-anchor="middle" x="590.397" y="-14.3" font-family="Times,serif" font-size="14.00">038 (a)</text>
</g>
<!-- 028 (a) -->
<g id="node18" class="node"><title>028 (a)</title>
<ellipse fill="#ff8a8a" stroke="#b43f3f" cx="508.397" cy="-105" rx="36.2938" ry="18"/>
<text text-anchor="middle" x="508.397" y="-101.3" font-family="Times,serif" font-size="14.00">028 (a)</text>
</g>
<!-- A (b) -->
<g id="node19" class="node"><title>A (b)</title>
<ellipse fill="#cea8f4" stroke="#835da9" cx="614.397" cy="-366" rx="29.795" ry="18"/>
<text text-anchor="middle" x="614.397" y="-362.3" font-family="Times,serif" font-size="14.00">A (b)</text>
</g>
<!-- P75 (b) -->
<g id="node20" class="node"><title>P75 (b)</title>
<ellipse fill="#cea8f4" stroke="#835da9" cx="523.397" cy="-279" rx="37.0935" ry="18"/>
<text text-anchor="middle" x="523.397" y="-275.3" font-family="Times,serif" font-size="14.00">P75 (b)</text>
</g>
<!-- A (b)&#45;&gt;P75 (b) -->
<g id="edge11" class="edge"><title>A (b)&#45;&gt;P75 (b)</title>
<path fill="none" stroke="#835da9" d="M594.92,-352.326C585.869,-346.06 575.189,-338.113 566.397,-330 557.853,-322.115 549.321,-312.619 542.136,-304.029"/>
<polygon fill="#835da9" stroke="#835da9" points="544.741,-301.685 535.704,-296.155 539.32,-306.113 544.741,-301.685"/>
<text text-anchor="middle" x="588.397" y="-318.8" font-family="Times,serif" font-size="14.00">1 (93.3)</text>
</g>
<!-- 019 (b) -->
<g id="node22" class="node"><title>019 (b)</title>
<ellipse fill="#cea8f4" stroke="#835da9" cx="614.397" cy="-279" rx="36.2938" ry="18"/>
<text text-anchor="middle" x="614.397" y="-275.3" font-family="Times,serif" font-size="14.00">019 (b)</text>
</g>
<!-- A (b)&#45;&gt;019 (b) -->
<g id="edge12" class="edge"><title>A (b)&#45;&gt;019 (b)</title>
<path fill="none" stroke="#835da9" d="M614.397,-347.799C614.397,-336.163 614.397,-320.548 614.397,-307.237"/>
<polygon fill="#835da9" stroke="#835da9" points="617.897,-307.175 614.397,-297.175 610.897,-307.175 617.897,-307.175"/>
<text text-anchor="middle" x="636.397" y="-318.8" font-family="Times,serif" font-size="14.00">1 (93.3)</text>
</g>
<!-- 03 (b) -->
<g id="node26" class="node"><title>03 (b)</title>
<ellipse fill="#cea8f4" stroke="#835da9" cx="736.397" cy="-279" rx="32.4942" ry="18"/>
<text text-anchor="middle" x="736.397" y="-275.3" font-family="Times,serif" font-size="14.00">03 (b)</text>
</g>
<!-- A (b)&#45;&gt;03 (b) -->
<g id="edge10" class="edge"><title>A (b)&#45;&gt;03 (b)</title>
<path fill="none" stroke="#835da9" d="M633.192,-351.905C653.343,-337.865 685.547,-315.428 708.622,-299.351"/>
<polygon fill="#835da9" stroke="#835da9" points="710.771,-302.12 716.975,-293.532 706.769,-296.376 710.771,-302.12"/>
<text text-anchor="middle" x="705.397" y="-318.8" font-family="Times,serif" font-size="14.00">1 (93.3)</text>
</g>
<!-- 045 (a) -->
<g id="node21" class="node"><title>045 (a)</title>
<ellipse fill="#ff8a8a" stroke="#b43f3f" cx="599.397" cy="-105" rx="36.2938" ry="18"/>
<text text-anchor="middle" x="599.397" y="-101.3" font-family="Times,serif" font-size="14.00">045 (a)</text>
</g>
<!-- 045 (a)&#45;&gt;038 (a) -->
<g id="edge13" class="edge"><title>045 (a)&#45;&gt;038 (a)</title>
<path fill="none" stroke="#b43f3f" d="M597.575,-86.799C596.343,-75.1626 594.69,-59.5479 593.281,-46.2368"/>
<polygon fill="#b43f3f" stroke="#b43f3f" points="596.749,-45.7513 592.215,-36.1754 589.788,-46.4884 596.749,-45.7513"/>
<text text-anchor="middle" x="618.397" y="-57.8" font-family="Times,serif" font-size="14.00">1 (92.7)</text>
</g>
<!-- 063 (b) -->
<g id="node23" class="node"><title>063 (b)</title>
<ellipse fill="#cea8f4" stroke="#835da9" cx="508.397" cy="-192" rx="36.2938" ry="18"/>
<text text-anchor="middle" x="508.397" y="-188.3" font-family="Times,serif" font-size="14.00">063 (b)</text>
</g>
<!-- 019 (b)&#45;&gt;063 (b) -->
<g id="edge14" class="edge"><title>019 (b)&#45;&gt;063 (b)</title>
<path fill="none" stroke="#835da9" d="M595.933,-263.194C578.985,-249.604 553.693,-229.322 534.647,-214.05"/>
<polygon fill="#835da9" stroke="#835da9" points="536.64,-211.162 526.649,-207.636 532.261,-216.623 536.64,-211.162"/>
<text text-anchor="middle" x="590.397" y="-231.8" font-family="Times,serif" font-size="14.00">1 (85.7)</text>
</g>
<!-- 063 (b)&#45;&gt;021 (a) -->
<g id="edge19" class="edge"><title>063 (b)&#45;&gt;021 (a)</title>
<path fill="none" stroke="#b43f3f" d="M474.783,-185.001C438.544,-178.409 379.216,-167.254 328.397,-156 272.727,-143.672 208.908,-127.434 168.392,-116.859"/>
<polygon fill="#b43f3f" stroke="#b43f3f" points="169.173,-113.445 158.613,-114.298 167.4,-120.217 169.173,-113.445"/>
<text text-anchor="middle" x="350.397" y="-144.8" font-family="Times,serif" font-size="14.00">1 (93.1)</text>
</g>
<!-- 063 (b)&#45;&gt;07 (a) -->
<g id="edge18" class="edge"><title>063 (b)&#45;&gt;07 (a)</title>
<path fill="none" stroke="#b43f3f" d="M475.838,-183.501C453.587,-177.675 423.821,-168.479 399.397,-156 384.024,-148.145 368.398,-136.931 356.009,-127.112"/>
<polygon fill="#b43f3f" stroke="#b43f3f" points="357.959,-124.187 347.992,-120.596 353.545,-129.619 357.959,-124.187"/>
<text text-anchor="middle" x="421.397" y="-144.8" font-family="Times,serif" font-size="14.00">1 (96.6)</text>
</g>
<!-- 063 (b)&#45;&gt;011 (a) -->
<g id="edge17" class="edge"><title>063 (b)&#45;&gt;011 (a)</title>
<path fill="none" stroke="#b43f3f" d="M487.025,-177.006C478.404,-170.963 468.582,-163.554 460.397,-156 451.853,-148.115 443.321,-138.619 436.136,-130.029"/>
<polygon fill="#b43f3f" stroke="#b43f3f" points="438.741,-127.685 429.704,-122.155 433.32,-132.113 438.741,-127.685"/>
<text text-anchor="middle" x="482.397" y="-144.8" font-family="Times,serif" font-size="14.00">1 (93.1)</text>
</g>
<!-- 063 (b)&#45;&gt;028 (a) -->
<g id="edge16" class="edge"><title>063 (b)&#45;&gt;028 (a)</title>
<path fill="none" stroke="#b43f3f" d="M508.397,-173.799C508.397,-162.163 508.397,-146.548 508.397,-133.237"/>
<polygon fill="#b43f3f" stroke="#b43f3f" points="511.897,-133.175 508.397,-123.175 504.897,-133.175 511.897,-133.175"/>
<text text-anchor="middle" x="530.397" y="-144.8" font-family="Times,serif" font-size="14.00">1 (96.6)</text>
</g>
<!-- 063 (b)&#45;&gt;045 (a) -->
<g id="edge15" class="edge"><title>063 (b)&#45;&gt;045 (a)</title>
<path fill="none" stroke="#b43f3f" d="M529.768,-177.006C538.389,-170.963 548.211,-163.554 556.397,-156 564.941,-148.115 573.472,-138.619 580.657,-130.029"/>
<polygon fill="#b43f3f" stroke="#b43f3f" points="583.474,-132.113 587.089,-122.155 578.053,-127.685 583.474,-132.113"/>
<text text-anchor="middle" x="592.397" y="-144.8" font-family="Times,serif" font-size="14.00">1 (93.1)</text>
</g>
<!-- 031 (a) -->
<g id="node27" class="node"><title>031 (a)</title>
<ellipse fill="#ff8a8a" stroke="#b43f3f" cx="690.397" cy="-105" rx="36.2938" ry="18"/>
<text text-anchor="middle" x="690.397" y="-101.3" font-family="Times,serif" font-size="14.00">031 (a)</text>
</g>
<!-- 063 (b)&#45;&gt;031 (a) -->
<g id="edge20" class="edge"><title>063 (b)&#45;&gt;031 (a)</title>
<path fill="none" stroke="#b43f3f" d="M540.664,-183.461C563.123,-177.566 593.405,-168.305 618.397,-156 634.525,-148.059 651.099,-136.801 664.273,-126.977"/>
<polygon fill="#b43f3f" stroke="#b43f3f" points="666.572,-129.626 672.401,-120.778 662.327,-124.06 666.572,-129.626"/>
<text text-anchor="middle" x="665.397" y="-144.8" font-family="Times,serif" font-size="14.00">1 (95.8)</text>
</g>
<!-- 02 (b) -->
<g id="node25" class="node"><title>02 (b)</title>
<ellipse fill="#cea8f4" stroke="#835da9" cx="904.397" cy="-192" rx="32.4942" ry="18"/>
<text text-anchor="middle" x="904.397" y="-188.3" font-family="Times,serif" font-size="14.00">02 (b)</text>
</g>
<!-- 03 (b)&#45;&gt;032 (b) -->
<g id="edge21" class="edge"><title>03 (b)&#45;&gt;032 (b)</title>
<path fill="none" stroke="#835da9" d="M734.373,-260.799C733.004,-249.163 731.167,-233.548 729.601,-220.237"/>
<polygon fill="#835da9" stroke="#835da9" points="733.062,-219.698 728.417,-210.175 726.11,-220.516 733.062,-219.698"/>
<text text-anchor="middle" x="754.397" y="-231.8" font-family="Times,serif" font-size="14.00">1 (91.7)</text>
</g>
<!-- 03 (b)&#45;&gt;044 (b) -->
<g id="edge23" class="edge"><title>03 (b)&#45;&gt;044 (b)</title>
<path fill="none" stroke="#835da9" d="M755.729,-264.369C763.766,-258.272 772.938,-250.723 780.397,-243 787.746,-235.39 794.889,-226.282 800.907,-217.937"/>
<polygon fill="#835da9" stroke="#835da9" points="803.867,-219.811 806.733,-209.611 798.132,-215.798 803.867,-219.811"/>
<text text-anchor="middle" x="815.397" y="-231.8" font-family="Times,serif" font-size="14.00">1 (89.2)</text>
</g>
<!-- 03 (b)&#45;&gt;02 (b) -->
<g id="edge22" class="edge"><title>03 (b)&#45;&gt;02 (b)</title>
<path fill="none" stroke="#835da9" d="M766.044,-271.089C787.721,-265.34 817.403,-255.993 841.397,-243 855.625,-235.295 869.88,-224.321 881.223,-214.616"/>
<polygon fill="#835da9" stroke="#835da9" points="883.73,-217.072 888.925,-207.839 879.106,-211.817 883.73,-217.072"/>
<text text-anchor="middle" x="886.397" y="-231.8" font-family="Times,serif" font-size="14.00">1 (86.5)</text>
</g>
<!-- 031 (a)&#45;&gt;013 (a) -->
<g id="edge24" class="edge"><title>031 (a)&#45;&gt;013 (a)</title>
<path fill="none" stroke="#b43f3f" d="M688.575,-86.799C687.343,-75.1626 685.69,-59.5479 684.281,-46.2368"/>
<polygon fill="#b43f3f" stroke="#b43f3f" points="687.749,-45.7513 683.215,-36.1754 680.788,-46.4884 687.749,-45.7513"/>
<text text-anchor="middle" x="709.397" y="-57.8" font-family="Times,serif" font-size="14.00">1 (97.1)</text>
</g>
<!-- 031 (a)&#45;&gt;017 (a) -->
<g id="edge25" class="edge"><title>031 (a)&#45;&gt;017 (a)</title>
<path fill="none" stroke="#b43f3f" d="M711.092,-89.7645C719.093,-83.7977 728.068,-76.5068 735.397,-69 742.787,-61.43 749.94,-52.3314 755.955,-43.9827"/>
<polygon fill="#b43f3f" stroke="#b43f3f" points="758.918,-45.8525 761.773,-35.6495 753.178,-41.8453 758.918,-45.8525"/>
<text text-anchor="middle" x="770.397" y="-57.8" font-family="Times,serif" font-size="14.00">1 (94.3)</text>
</g>
<!-- 031 (a)&#45;&gt;01 (a) -->
<g id="edge26" class="edge"><title>031 (a)&#45;&gt;01 (a)</title>
<path fill="none" stroke="#b43f3f" d="M722.702,-96.5758C744.363,-90.8315 773.081,-81.7008 796.397,-69 810.468,-61.3351 824.503,-50.365 835.652,-40.6523"/>
<polygon fill="#b43f3f" stroke="#b43f3f" points="838.111,-43.1489 843.22,-33.8673 833.438,-37.937 838.111,-43.1489"/>
<text text-anchor="middle" x="840.397" y="-57.8" font-family="Times,serif" font-size="14.00">2 (48.5)</text>
</g>
</g>
</svg>
