<?xml version="1.0" encoding="UTF-8" standalone="no"?>
<!DOCTYPE svg PUBLIC "-//W3C//DTD SVG 1.1//EN"
 "http://www.w3.org/Graphics/SVG/1.1/DTD/svg11.dtd">
<!-- Generated by graphviz version 2.38.0 (20140413.2041)
 -->
<!-- Title: %3 Pages: 1 -->
<svg width="1010pt" height="408pt"
 viewBox="0.00 0.00 1010.40 408.00" xmlns="http://www.w3.org/2000/svg" xmlns:xlink="http://www.w3.org/1999/xlink">
<g id="graph0" class="graph" transform="scale(1 1) rotate(0) translate(4 404)">
<title>%3</title>
<polygon fill="white" stroke="none" points="-4,4 -4,-404 1006.4,-404 1006.4,4 -4,4"/>
<g id="clust1" class="cluster"><title>cluster_legend</title>
<path fill="none" stroke="black" d="M304.397,-264C304.397,-264 494.397,-264 494.397,-264 500.397,-264 506.397,-270 506.397,-276 506.397,-276 506.397,-380 506.397,-380 506.397,-386 500.397,-392 494.397,-392 494.397,-392 304.397,-392 304.397,-392 298.397,-392 292.397,-386 292.397,-380 292.397,-380 292.397,-276 292.397,-276 292.397,-270 298.397,-264 304.397,-264"/>
</g>
<!-- leg_s -->
<g id="node1" class="node"><title>leg_s</title>
<text text-anchor="middle" x="399.397" y="-362.3" font-family="Times,serif" font-size="14.00">Textual flow strength</text>
</g>
<!-- leg_e1 -->
<!-- leg_s&#45;&gt;leg_e1 -->
<g id="edge1" class="edge"><title>leg_s&#45;&gt;leg_e1</title>
<path fill="none" stroke="black" stroke-dasharray="1,5" d="M381.062,-347.686C375.529,-342.194 369.557,-335.989 364.397,-330 354.568,-318.593 344.469,-304.779 337.31,-294.563"/>
<polygon fill="black" stroke="black" points="340.011,-292.314 331.453,-286.068 334.248,-296.288 340.011,-292.314"/>
<text text-anchor="middle" x="379.897" y="-318.8" font-family="Times,serif" font-size="14.00">&lt;=5 &#160;</text>
</g>
<!-- leg_e2 -->
<!-- leg_s&#45;&gt;leg_e2 -->
<g id="edge2" class="edge"><title>leg_s&#45;&gt;leg_e2</title>
<path fill="none" stroke="black" stroke-dasharray="5,2" d="M399.397,-347.799C399.397,-332.794 399.397,-311.174 399.397,-296.409"/>
<polygon fill="black" stroke="black" points="402.897,-296.293 399.397,-286.293 395.897,-296.293 402.897,-296.293"/>
<text text-anchor="middle" x="418.397" y="-318.8" font-family="Times,serif" font-size="14.00"> &#160;&lt;=25</text>
</g>
<!-- leg_e3 -->
<!-- leg_s&#45;&gt;leg_e3 -->
<g id="edge3" class="edge"><title>leg_s&#45;&gt;leg_e3</title>
<path fill="none" stroke="black" d="M422.9,-347.76C429.303,-342.462 435.963,-336.344 441.397,-330 450.484,-319.39 458.492,-305.689 463.943,-295.313"/>
<polygon fill="black" stroke="black" points="467.119,-296.789 468.488,-286.283 460.866,-293.642 467.119,-296.789"/>
<text text-anchor="middle" x="463.397" y="-318.8" font-family="Times,serif" font-size="14.00">&gt;25</text>
</g>
<!-- A -->
<g id="node5" class="node"><title>A</title>
<ellipse fill="#ff8a8a" stroke="#b43f3f" cx="700.397" cy="-366" rx="29.4969" ry="18"/>
<text text-anchor="middle" x="700.397" y="-362.3" font-family="Times,serif" font-size="14.00">A (a)</text>
</g>
<!-- 091 -->
<g id="node6" class="node"><title>091</title>
<ellipse fill="#ff8a8a" stroke="#b43f3f" cx="552.397" cy="-279" rx="36.2938" ry="18"/>
<text text-anchor="middle" x="552.397" y="-275.3" font-family="Times,serif" font-size="14.00">091 (a)</text>
</g>
<!-- A&#45;&gt;091 -->
<g id="edge4" class="edge"><title>A&#45;&gt;091</title>
<path fill="none" stroke="#b43f3f" stroke-dasharray="1,5" d="M674.425,-357.301C656.095,-351.277 631.348,-341.928 611.397,-330 598.54,-322.314 585.684,-311.831 575.27,-302.449"/>
<polygon fill="#b43f3f" stroke="#b43f3f" points="577.538,-299.779 567.823,-295.553 572.783,-304.915 577.538,-299.779"/>
<text text-anchor="middle" x="633.397" y="-318.8" font-family="Times,serif" font-size="14.00">1 (87.5)</text>
</g>
<!-- 019 -->
<g id="node7" class="node"><title>019</title>
<ellipse fill="#ff8a8a" stroke="#b43f3f" cx="643.397" cy="-279" rx="36.2938" ry="18"/>
<text text-anchor="middle" x="643.397" y="-275.3" font-family="Times,serif" font-size="14.00">019 (a)</text>
</g>
<!-- A&#45;&gt;019 -->
<g id="edge5" class="edge"><title>A&#45;&gt;019</title>
<path fill="none" stroke="#b43f3f" stroke-dasharray="1,5" d="M684.846,-350.549C678.927,-344.552 672.408,-337.297 667.397,-330 662.359,-322.664 657.831,-314.108 654.101,-306.169"/>
<polygon fill="#b43f3f" stroke="#b43f3f" points="657.241,-304.617 649.966,-296.915 650.85,-307.473 657.241,-304.617"/>
<text text-anchor="middle" x="689.397" y="-318.8" font-family="Times,serif" font-size="14.00">1 (93.3)</text>
</g>
<!-- P75 -->
<g id="node8" class="node"><title>P75</title>
<ellipse fill="#ff8a8a" stroke="#b43f3f" cx="734.397" cy="-279" rx="36.2938" ry="18"/>
<text text-anchor="middle" x="734.397" y="-275.3" font-family="Times,serif" font-size="14.00">P75 (a)</text>
</g>
<!-- A&#45;&gt;P75 -->
<g id="edge6" class="edge"><title>A&#45;&gt;P75</title>
<path fill="none" stroke="#b43f3f" stroke-dasharray="1,5" d="M707.114,-348.207C711.911,-336.216 718.456,-319.851 723.934,-306.157"/>
<polygon fill="#b43f3f" stroke="#b43f3f" points="727.229,-307.343 727.693,-296.758 720.73,-304.743 727.229,-307.343"/>
<text text-anchor="middle" x="742.397" y="-318.8" font-family="Times,serif" font-size="14.00">1 (93.3)</text>
</g>
<!-- 03 -->
<g id="node9" class="node"><title>03</title>
<ellipse fill="#ff8a8a" stroke="#b43f3f" cx="863.397" cy="-279" rx="31.6951" ry="18"/>
<text text-anchor="middle" x="863.397" y="-275.3" font-family="Times,serif" font-size="14.00">03 (a)</text>
</g>
<!-- A&#45;&gt;03 -->
<g id="edge7" class="edge"><title>A&#45;&gt;03</title>
<path fill="none" stroke="#b43f3f" stroke-dasharray="1,5" d="M722.166,-353.859C735.523,-347.007 752.968,-338.031 768.397,-330 789.611,-318.958 813.427,-306.423 831.906,-296.666"/>
<polygon fill="#b43f3f" stroke="#b43f3f" points="833.571,-299.745 840.777,-291.979 830.301,-293.556 833.571,-299.745"/>
<text text-anchor="middle" x="817.397" y="-318.8" font-family="Times,serif" font-size="14.00">1 (93.3)</text>
</g>
<!-- 063 -->
<g id="node10" class="node"><title>063</title>
<ellipse fill="#cea8f4" stroke="#835da9" cx="600.397" cy="-192" rx="36.2938" ry="18"/>
<text text-anchor="middle" x="600.397" y="-188.3" font-family="Times,serif" font-size="14.00">063 (b)</text>
</g>
<!-- 019&#45;&gt;063 -->
<g id="edge8" class="edge"><title>019&#45;&gt;063</title>
<path fill="none" stroke="#835da9" stroke-dasharray="1,5" d="M634.901,-261.207C628.776,-249.099 620.396,-232.533 613.428,-218.759"/>
<polygon fill="#835da9" stroke="#835da9" points="616.512,-217.102 608.875,-209.758 610.266,-220.262 616.512,-217.102"/>
<text text-anchor="middle" x="647.397" y="-231.8" font-family="Times,serif" font-size="14.00">1 (85.7)</text>
</g>
<!-- 044 -->
<g id="node11" class="node"><title>044</title>
<ellipse fill="#cea8f4" stroke="#835da9" cx="863.397" cy="-192" rx="36.2938" ry="18"/>
<text text-anchor="middle" x="863.397" y="-188.3" font-family="Times,serif" font-size="14.00">044 (b)</text>
</g>
<!-- 03&#45;&gt;044 -->
<g id="edge9" class="edge"><title>03&#45;&gt;044</title>
<path fill="none" stroke="#835da9" stroke-dasharray="1,5" d="M863.397,-260.799C863.397,-249.163 863.397,-233.548 863.397,-220.237"/>
<polygon fill="#835da9" stroke="#835da9" points="866.897,-220.175 863.397,-210.175 859.897,-220.175 866.897,-220.175"/>
<text text-anchor="middle" x="885.397" y="-231.8" font-family="Times,serif" font-size="14.00">1 (89.2)</text>
</g>
<!-- 032 -->
<g id="node12" class="node"><title>032</title>
<ellipse fill="#cea8f4" stroke="#835da9" cx="954.397" cy="-192" rx="36.2938" ry="18"/>
<text text-anchor="middle" x="954.397" y="-188.3" font-family="Times,serif" font-size="14.00">032 (b)</text>
</g>
<!-- 03&#45;&gt;032 -->
<g id="edge10" class="edge"><title>03&#45;&gt;032</title>
<path fill="none" stroke="#835da9" stroke-dasharray="1,5" d="M883.816,-264.672C892.659,-258.512 902.908,-250.834 911.397,-243 919.941,-235.115 928.472,-225.619 935.657,-217.029"/>
<polygon fill="#835da9" stroke="#835da9" points="938.474,-219.113 942.089,-209.155 933.053,-214.685 938.474,-219.113"/>
<text text-anchor="middle" x="947.397" y="-231.8" font-family="Times,serif" font-size="14.00">1 (91.7)</text>
</g>
<!-- 07 -->
<g id="node15" class="node"><title>07</title>
<ellipse fill="#cea8f4" stroke="#835da9" cx="317.397" cy="-105" rx="32.4942" ry="18"/>
<text text-anchor="middle" x="317.397" y="-101.3" font-family="Times,serif" font-size="14.00">07 (b)</text>
</g>
<!-- 063&#45;&gt;07 -->
<g id="edge19" class="edge"><title>063&#45;&gt;07</title>
<path fill="none" stroke="#835da9" stroke-dasharray="1,5" d="M570.111,-181.904C518.054,-166.268 411.746,-134.338 355.022,-117.301"/>
<polygon fill="#835da9" stroke="#835da9" points="355.947,-113.924 345.363,-114.4 353.934,-120.629 355.947,-113.924"/>
<text text-anchor="middle" x="498.397" y="-144.8" font-family="Times,serif" font-size="14.00">1 (96.6)</text>
</g>
<!-- 011 -->
<g id="node22" class="node"><title>011</title>
<ellipse fill="#cea8f4" stroke="#835da9" cx="499.397" cy="-105" rx="36.2938" ry="18"/>
<text text-anchor="middle" x="499.397" y="-101.3" font-family="Times,serif" font-size="14.00">011 (b)</text>
</g>
<!-- 063&#45;&gt;011 -->
<g id="edge20" class="edge"><title>063&#45;&gt;011</title>
<path fill="none" stroke="#835da9" stroke-dasharray="1,5" d="M577.96,-177.74C568.215,-171.594 556.884,-163.906 547.397,-156 537.673,-147.897 527.836,-138.012 519.621,-129.176"/>
<polygon fill="#835da9" stroke="#835da9" points="522.183,-126.791 512.862,-121.753 517.007,-131.504 522.183,-126.791"/>
<text text-anchor="middle" x="569.397" y="-144.8" font-family="Times,serif" font-size="14.00">1 (93.1)</text>
</g>
<!-- 045 -->
<g id="node23" class="node"><title>045</title>
<ellipse fill="#cea8f4" stroke="#835da9" cx="590.397" cy="-105" rx="36.2938" ry="18"/>
<text text-anchor="middle" x="590.397" y="-101.3" font-family="Times,serif" font-size="14.00">045 (b)</text>
</g>
<!-- 063&#45;&gt;045 -->
<g id="edge21" class="edge"><title>063&#45;&gt;045</title>
<path fill="none" stroke="#835da9" stroke-dasharray="1,5" d="M598.373,-173.799C597.004,-162.163 595.167,-146.548 593.601,-133.237"/>
<polygon fill="#835da9" stroke="#835da9" points="597.062,-132.698 592.417,-123.175 590.11,-133.516 597.062,-132.698"/>
<text text-anchor="middle" x="618.397" y="-144.8" font-family="Times,serif" font-size="14.00">1 (93.1)</text>
</g>
<!-- 021 -->
<g id="node24" class="node"><title>021</title>
<ellipse fill="#cea8f4" stroke="#835da9" cx="681.397" cy="-105" rx="36.2938" ry="18"/>
<text text-anchor="middle" x="681.397" y="-101.3" font-family="Times,serif" font-size="14.00">021 (b)</text>
</g>
<!-- 063&#45;&gt;021 -->
<g id="edge22" class="edge"><title>063&#45;&gt;021</title>
<path fill="none" stroke="#835da9" stroke-dasharray="1,5" d="M620.61,-176.698C628.43,-170.723 637.209,-163.443 644.397,-156 651.746,-148.39 658.889,-139.282 664.907,-130.937"/>
<polygon fill="#835da9" stroke="#835da9" points="667.867,-132.811 670.733,-122.611 662.132,-128.798 667.867,-132.811"/>
<text text-anchor="middle" x="679.397" y="-144.8" font-family="Times,serif" font-size="14.00">1 (93.1)</text>
</g>
<!-- 028 -->
<g id="node25" class="node"><title>028</title>
<ellipse fill="#cea8f4" stroke="#835da9" cx="772.397" cy="-105" rx="36.2938" ry="18"/>
<text text-anchor="middle" x="772.397" y="-101.3" font-family="Times,serif" font-size="14.00">028 (b)</text>
</g>
<!-- 063&#45;&gt;028 -->
<g id="edge23" class="edge"><title>063&#45;&gt;028</title>
<path fill="none" stroke="#835da9" stroke-dasharray="1,5" d="M632.244,-183.244C653.634,-177.356 682.064,-168.19 705.397,-156 720.343,-148.191 735.524,-137.172 747.647,-127.464"/>
<polygon fill="#835da9" stroke="#835da9" points="750.003,-130.058 755.511,-121.008 745.561,-124.648 750.003,-130.058"/>
<text text-anchor="middle" x="751.397" y="-144.8" font-family="Times,serif" font-size="14.00">1 (96.6)</text>
</g>
<!-- 022 -->
<g id="node13" class="node"><title>022</title>
<ellipse fill="#cea8f4" stroke="#835da9" cx="863.397" cy="-105" rx="36.2938" ry="18"/>
<text text-anchor="middle" x="863.397" y="-101.3" font-family="Times,serif" font-size="14.00">022 (b)</text>
</g>
<!-- 044&#45;&gt;022 -->
<g id="edge11" class="edge"><title>044&#45;&gt;022</title>
<path fill="none" stroke="#835da9" stroke-dasharray="1,5" d="M863.397,-173.799C863.397,-162.163 863.397,-146.548 863.397,-133.237"/>
<polygon fill="#835da9" stroke="#835da9" points="866.897,-133.175 863.397,-123.175 859.897,-133.175 866.897,-133.175"/>
<text text-anchor="middle" x="885.397" y="-144.8" font-family="Times,serif" font-size="14.00">1 (91.7)</text>
</g>
<!-- 0141 -->
<g id="node14" class="node"><title>0141</title>
<ellipse fill="#cea8f4" stroke="#835da9" cx="958.397" cy="-105" rx="40.8928" ry="18"/>
<text text-anchor="middle" x="958.397" y="-101.3" font-family="Times,serif" font-size="14.00">0141 (b)</text>
</g>
<!-- 044&#45;&gt;0141 -->
<g id="edge12" class="edge"><title>044&#45;&gt;0141</title>
<path fill="none" stroke="#835da9" stroke-dasharray="1,5" d="M884.127,-177.159C892.833,-171.025 902.891,-163.508 911.397,-156 920.56,-147.911 929.927,-138.276 937.863,-129.632"/>
<polygon fill="#835da9" stroke="#835da9" points="940.606,-131.816 944.702,-122.045 935.407,-127.129 940.606,-131.816"/>
<text text-anchor="middle" x="949.397" y="-144.8" font-family="Times,serif" font-size="14.00">1 (89.2)</text>
</g>
<!-- 02 -->
<g id="node29" class="node"><title>02</title>
<ellipse fill="#cea8f4" stroke="#835da9" cx="958.397" cy="-18" rx="32.4942" ry="18"/>
<text text-anchor="middle" x="958.397" y="-14.3" font-family="Times,serif" font-size="14.00">02 (b)</text>
</g>
<!-- 0141&#45;&gt;02 -->
<g id="edge27" class="edge"><title>0141&#45;&gt;02</title>
<path fill="none" stroke="#835da9" stroke-dasharray="1,5" d="M958.397,-86.799C958.397,-75.1626 958.397,-59.5479 958.397,-46.2368"/>
<polygon fill="#835da9" stroke="#835da9" points="961.897,-46.1754 958.397,-36.1754 954.897,-46.1755 961.897,-46.1754"/>
<text text-anchor="middle" x="980.397" y="-57.8" font-family="Times,serif" font-size="14.00">1 (86.5)</text>
</g>
<!-- 013 -->
<g id="node16" class="node"><title>013</title>
<ellipse fill="#cea8f4" stroke="#835da9" cx="36.3968" cy="-18" rx="36.2938" ry="18"/>
<text text-anchor="middle" x="36.3968" y="-14.3" font-family="Times,serif" font-size="14.00">013 (b)</text>
</g>
<!-- 07&#45;&gt;013 -->
<g id="edge13" class="edge"><title>07&#45;&gt;013</title>
<path fill="none" stroke="#835da9" stroke-dasharray="1,5" d="M285.613,-100.685C248.548,-96.1929 185.8,-86.6286 134.397,-69 110.951,-60.9595 86.0943,-48.2232 67.2807,-37.6176"/>
<polygon fill="#835da9" stroke="#835da9" points="68.9781,-34.5564 58.5632,-32.6123 65.4926,-40.6269 68.9781,-34.5564"/>
<text text-anchor="middle" x="156.397" y="-57.8" font-family="Times,serif" font-size="14.00">2 (95.1)</text>
</g>
<!-- 0211 -->
<g id="node17" class="node"><title>0211</title>
<ellipse fill="#cea8f4" stroke="#835da9" cx="131.397" cy="-18" rx="40.8928" ry="18"/>
<text text-anchor="middle" x="131.397" y="-14.3" font-family="Times,serif" font-size="14.00">0211 (b)</text>
</g>
<!-- 07&#45;&gt;0211 -->
<g id="edge14" class="edge"><title>07&#45;&gt;0211</title>
<path fill="none" stroke="#835da9" stroke-dasharray="1,5" d="M287.908,-96.8134C265.507,-90.8159 234.251,-81.2762 208.397,-69 191.346,-60.9037 173.593,-49.5986 159.436,-39.7859"/>
<polygon fill="#835da9" stroke="#835da9" points="161.311,-36.825 151.125,-33.911 157.271,-42.5412 161.311,-36.825"/>
<text text-anchor="middle" x="230.397" y="-57.8" font-family="Times,serif" font-size="14.00">2 (82.9)</text>
</g>
<!-- 017 -->
<g id="node18" class="node"><title>017</title>
<ellipse fill="#cea8f4" stroke="#835da9" cx="226.397" cy="-18" rx="36.2938" ry="18"/>
<text text-anchor="middle" x="226.397" y="-14.3" font-family="Times,serif" font-size="14.00">017 (b)</text>
</g>
<!-- 07&#45;&gt;017 -->
<g id="edge15" class="edge"><title>07&#45;&gt;017</title>
<path fill="none" stroke="#835da9" stroke-dasharray="1,5" d="M296.978,-90.6717C288.134,-84.5121 277.886,-76.8337 269.397,-69 260.853,-61.1154 252.321,-51.6186 245.136,-43.0293"/>
<polygon fill="#835da9" stroke="#835da9" points="247.741,-40.6853 238.704,-35.1545 242.32,-45.1135 247.741,-40.6853"/>
<text text-anchor="middle" x="291.397" y="-57.8" font-family="Times,serif" font-size="14.00">2 (92.7)</text>
</g>
<!-- 037 -->
<g id="node19" class="node"><title>037</title>
<ellipse fill="#cea8f4" stroke="#835da9" cx="317.397" cy="-18" rx="36.2938" ry="18"/>
<text text-anchor="middle" x="317.397" y="-14.3" font-family="Times,serif" font-size="14.00">037 (b)</text>
</g>
<!-- 07&#45;&gt;037 -->
<g id="edge16" class="edge"><title>07&#45;&gt;037</title>
<path fill="none" stroke="#835da9" stroke-dasharray="1,5" d="M317.397,-86.799C317.397,-75.1626 317.397,-59.5479 317.397,-46.2368"/>
<polygon fill="#835da9" stroke="#835da9" points="320.897,-46.1754 317.397,-36.1754 313.897,-46.1755 320.897,-46.1754"/>
<text text-anchor="middle" x="339.397" y="-57.8" font-family="Times,serif" font-size="14.00">1 (97.5)</text>
</g>
<!-- 034 -->
<g id="node20" class="node"><title>034</title>
<ellipse fill="#cea8f4" stroke="#835da9" cx="408.397" cy="-18" rx="36.2938" ry="18"/>
<text text-anchor="middle" x="408.397" y="-14.3" font-family="Times,serif" font-size="14.00">034 (b)</text>
</g>
<!-- 07&#45;&gt;034 -->
<g id="edge17" class="edge"><title>07&#45;&gt;034</title>
<path fill="none" stroke="#835da9" stroke-dasharray="1,5" d="M337.816,-90.6717C346.659,-84.5121 356.908,-76.8337 365.397,-69 373.941,-61.1154 382.472,-51.6186 389.657,-43.0293"/>
<polygon fill="#835da9" stroke="#835da9" points="392.474,-45.1135 396.089,-35.1545 387.053,-40.6853 392.474,-45.1135"/>
<text text-anchor="middle" x="401.397" y="-57.8" font-family="Times,serif" font-size="14.00">1 (95.1)</text>
</g>
<!-- 030 -->
<g id="node21" class="node"><title>030</title>
<ellipse fill="#cea8f4" stroke="#835da9" cx="499.397" cy="-18" rx="36.2938" ry="18"/>
<text text-anchor="middle" x="499.397" y="-14.3" font-family="Times,serif" font-size="14.00">030 (b)</text>
</g>
<!-- 07&#45;&gt;030 -->
<g id="edge18" class="edge"><title>07&#45;&gt;030</title>
<path fill="none" stroke="#835da9" stroke-dasharray="1,5" d="M346.8,-97.2055C369.499,-91.3598 401.327,-81.836 427.397,-69 443.525,-61.0592 460.099,-49.8009 473.273,-39.9773"/>
<polygon fill="#835da9" stroke="#835da9" points="475.572,-42.6257 481.401,-33.7783 471.327,-37.0598 475.572,-42.6257"/>
<text text-anchor="middle" x="474.397" y="-57.8" font-family="Times,serif" font-size="14.00">1 (95.1)</text>
</g>
<!-- 038 -->
<g id="node26" class="node"><title>038</title>
<ellipse fill="#cea8f4" stroke="#835da9" cx="590.397" cy="-18" rx="36.2938" ry="18"/>
<text text-anchor="middle" x="590.397" y="-14.3" font-family="Times,serif" font-size="14.00">038 (b)</text>
</g>
<!-- 045&#45;&gt;038 -->
<g id="edge24" class="edge"><title>045&#45;&gt;038</title>
<path fill="none" stroke="#835da9" stroke-dasharray="1,5" d="M590.397,-86.799C590.397,-75.1626 590.397,-59.5479 590.397,-46.2368"/>
<polygon fill="#835da9" stroke="#835da9" points="593.897,-46.1754 590.397,-36.1754 586.897,-46.1755 593.897,-46.1754"/>
<text text-anchor="middle" x="612.397" y="-57.8" font-family="Times,serif" font-size="14.00">1 (92.7)</text>
</g>
<!-- 036 -->
<g id="node27" class="node"><title>036</title>
<ellipse fill="#cea8f4" stroke="#835da9" cx="681.397" cy="-18" rx="36.2938" ry="18"/>
<text text-anchor="middle" x="681.397" y="-14.3" font-family="Times,serif" font-size="14.00">036 (b)</text>
</g>
<!-- 021&#45;&gt;036 -->
<g id="edge25" class="edge"><title>021&#45;&gt;036</title>
<path fill="none" stroke="#835da9" stroke-dasharray="1,5" d="M681.397,-86.799C681.397,-75.1626 681.397,-59.5479 681.397,-46.2368"/>
<polygon fill="#835da9" stroke="#835da9" points="684.897,-46.1754 681.397,-36.1754 677.897,-46.1755 684.897,-46.1754"/>
<text text-anchor="middle" x="703.397" y="-57.8" font-family="Times,serif" font-size="14.00">1 (97.6)</text>
</g>
<!-- 047 -->
<g id="node28" class="node"><title>047</title>
<ellipse fill="#cea8f4" stroke="#835da9" cx="772.397" cy="-18" rx="36.2938" ry="18"/>
<text text-anchor="middle" x="772.397" y="-14.3" font-family="Times,serif" font-size="14.00">047 (b)</text>
</g>
<!-- 021&#45;&gt;047 -->
<g id="edge26" class="edge"><title>021&#45;&gt;047</title>
<path fill="none" stroke="#835da9" stroke-dasharray="1,5" d="M702.768,-90.006C711.389,-83.9634 721.211,-76.5539 729.397,-69 737.941,-61.1154 746.472,-51.6186 753.657,-43.0293"/>
<polygon fill="#835da9" stroke="#835da9" points="756.474,-45.1135 760.089,-35.1545 751.053,-40.6853 756.474,-45.1135"/>
<text text-anchor="middle" x="765.397" y="-57.8" font-family="Times,serif" font-size="14.00">1 (95.1)</text>
</g>
</g>
</svg>
