<?xml version="1.0" encoding="UTF-8" standalone="no"?>
<!DOCTYPE svg PUBLIC "-//W3C//DTD SVG 1.1//EN"
 "http://www.w3.org/Graphics/SVG/1.1/DTD/svg11.dtd">
<!-- Generated by graphviz version 2.38.0 (20140413.2041)
 -->
<!-- Title: %3 Pages: 1 -->
<svg width="878pt" height="250pt"
 viewBox="0.00 0.00 878.00 250.00" xmlns="http://www.w3.org/2000/svg" xmlns:xlink="http://www.w3.org/1999/xlink">
<g id="graph0" class="graph" transform="scale(1 1) rotate(0) translate(4 246)">
<title>%3</title>
<polygon fill="white" stroke="none" points="-4,4 -4,-246 874,-246 874,4 -4,4"/>
<g id="clust1" class="cluster"><title>cluster_reading</title>
<polygon fill="none" stroke="black" points="8,-8 8,-234 640,-234 640,-8 8,-8"/>
</g>
<g id="clust2" class="cluster"><title>cluster_legend</title>
<path fill="none" stroke="black" d="M660,-106C660,-106 850,-106 850,-106 856,-106 862,-112 862,-118 862,-118 862,-222 862,-222 862,-228 856,-234 850,-234 850,-234 660,-234 660,-234 654,-234 648,-228 648,-222 648,-222 648,-118 648,-118 648,-112 654,-106 660,-106"/>
</g>
<!-- 021 -->
<g id="node1" class="node"><title>021</title>
<ellipse fill="#ff8a8a" stroke="#b43f3f" cx="52" cy="-121" rx="36.2938" ry="18"/>
<text text-anchor="middle" x="52" y="-117.3" font-family="Times,serif" font-size="14.00">021 (a)</text>
</g>
<!-- 036 -->
<g id="node2" class="node"><title>036</title>
<ellipse fill="#ff8a8a" stroke="#b43f3f" cx="52" cy="-34" rx="36.2938" ry="18"/>
<text text-anchor="middle" x="52" y="-30.3" font-family="Times,serif" font-size="14.00">036 (a)</text>
</g>
<!-- 021&#45;&gt;036 -->
<g id="edge1" class="edge"><title>021&#45;&gt;036</title>
<path fill="none" stroke="#b43f3f" stroke-dasharray="1,5" d="M52,-102.799C52,-91.1626 52,-75.5479 52,-62.2368"/>
<polygon fill="#b43f3f" stroke="#b43f3f" points="55.5001,-62.1754 52,-52.1754 48.5001,-62.1755 55.5001,-62.1754"/>
<text text-anchor="middle" x="74" y="-73.8" font-family="Times,serif" font-size="14.00">1 (97.6)</text>
</g>
<!-- 047 -->
<g id="node3" class="node"><title>047</title>
<ellipse fill="#ff8a8a" stroke="#b43f3f" cx="143" cy="-34" rx="36.2938" ry="18"/>
<text text-anchor="middle" x="143" y="-30.3" font-family="Times,serif" font-size="14.00">047 (a)</text>
</g>
<!-- 021&#45;&gt;047 -->
<g id="edge2" class="edge"><title>021&#45;&gt;047</title>
<path fill="none" stroke="#b43f3f" stroke-dasharray="1,5" d="M73.3716,-106.006C81.9923,-99.9634 91.8143,-92.5539 100,-85 108.544,-77.1154 117.076,-67.6186 124.26,-59.0293"/>
<polygon fill="#b43f3f" stroke="#b43f3f" points="127.077,-61.1135 130.692,-51.1545 121.656,-56.6853 127.077,-61.1135"/>
<text text-anchor="middle" x="136" y="-73.8" font-family="Times,serif" font-size="14.00">1 (95.1)</text>
</g>
<!-- 044 -->
<g id="node4" class="node"><title>044</title>
<ellipse fill="#ff8a8a" stroke="#b43f3f" cx="588" cy="-208" rx="36.2938" ry="18"/>
<text text-anchor="middle" x="588" y="-204.3" font-family="Times,serif" font-size="14.00">044 (a)</text>
</g>
<!-- 0141 -->
<g id="node5" class="node"><title>0141</title>
<ellipse fill="#ff8a8a" stroke="#b43f3f" cx="592" cy="-121" rx="40.0939" ry="18"/>
<text text-anchor="middle" x="592" y="-117.3" font-family="Times,serif" font-size="14.00">0141 (a)</text>
</g>
<!-- 044&#45;&gt;0141 -->
<g id="edge3" class="edge"><title>044&#45;&gt;0141</title>
<path fill="none" stroke="#b43f3f" stroke-dasharray="1,5" d="M588.809,-189.799C589.357,-178.163 590.092,-162.548 590.718,-149.237"/>
<polygon fill="#b43f3f" stroke="#b43f3f" points="594.218,-149.329 591.192,-139.175 587.225,-149 594.218,-149.329"/>
<text text-anchor="middle" x="613" y="-160.8" font-family="Times,serif" font-size="14.00">1 (89.2)</text>
</g>
<!-- 063 -->
<g id="node6" class="node"><title>063</title>
<ellipse fill="#ff8a8a" stroke="#b43f3f" cx="282" cy="-208" rx="36.2938" ry="18"/>
<text text-anchor="middle" x="282" y="-204.3" font-family="Times,serif" font-size="14.00">063 (a)</text>
</g>
<!-- 063&#45;&gt;021 -->
<g id="edge4" class="edge"><title>063&#45;&gt;021</title>
<path fill="none" stroke="#b43f3f" stroke-dasharray="1,5" d="M247.145,-202.46C215.637,-197.551 168.44,-188.17 130,-172 112.074,-164.459 93.6816,-152.888 79.2624,-142.776"/>
<polygon fill="#b43f3f" stroke="#b43f3f" points="80.9997,-139.715 70.8375,-136.718 76.9128,-145.398 80.9997,-139.715"/>
<text text-anchor="middle" x="152" y="-160.8" font-family="Times,serif" font-size="14.00">1 (93.1)</text>
</g>
<!-- 011 -->
<g id="node7" class="node"><title>011</title>
<ellipse fill="#ff8a8a" stroke="#b43f3f" cx="143" cy="-121" rx="36.2938" ry="18"/>
<text text-anchor="middle" x="143" y="-117.3" font-family="Times,serif" font-size="14.00">011 (a)</text>
</g>
<!-- 063&#45;&gt;011 -->
<g id="edge5" class="edge"><title>063&#45;&gt;011</title>
<path fill="none" stroke="#b43f3f" stroke-dasharray="1,5" d="M252.011,-197.611C235.13,-191.616 214.077,-182.916 197,-172 185.394,-164.581 173.986,-154.543 164.668,-145.407"/>
<polygon fill="#b43f3f" stroke="#b43f3f" points="166.891,-142.678 157.373,-138.023 161.911,-147.597 166.891,-142.678"/>
<text text-anchor="middle" x="219" y="-160.8" font-family="Times,serif" font-size="14.00">1 (93.1)</text>
</g>
<!-- 031 -->
<g id="node8" class="node"><title>031</title>
<ellipse fill="#ff8a8a" stroke="#b43f3f" cx="234" cy="-121" rx="36.2938" ry="18"/>
<text text-anchor="middle" x="234" y="-117.3" font-family="Times,serif" font-size="14.00">031 (a)</text>
</g>
<!-- 063&#45;&gt;031 -->
<g id="edge6" class="edge"><title>063&#45;&gt;031</title>
<path fill="none" stroke="#b43f3f" stroke-dasharray="1,5" d="M266.038,-191.668C260.7,-185.895 255.078,-179.019 251,-172 246.837,-164.834 243.494,-156.495 240.912,-148.705"/>
<polygon fill="#b43f3f" stroke="#b43f3f" points="244.198,-147.48 237.949,-138.924 237.498,-149.509 244.198,-147.48"/>
<text text-anchor="middle" x="273" y="-160.8" font-family="Times,serif" font-size="14.00">1 (95.8)</text>
</g>
<!-- 07 -->
<g id="node9" class="node"><title>07</title>
<ellipse fill="#ff8a8a" stroke="#b43f3f" cx="320" cy="-121" rx="31.6951" ry="18"/>
<text text-anchor="middle" x="320" y="-117.3" font-family="Times,serif" font-size="14.00">07 (a)</text>
</g>
<!-- 063&#45;&gt;07 -->
<g id="edge7" class="edge"><title>063&#45;&gt;07</title>
<path fill="none" stroke="#b43f3f" stroke-dasharray="1,5" d="M289.508,-190.207C294.868,-178.216 302.184,-161.851 308.306,-148.157"/>
<polygon fill="#b43f3f" stroke="#b43f3f" points="311.622,-149.316 312.508,-138.758 305.231,-146.459 311.622,-149.316"/>
<text text-anchor="middle" x="326" y="-160.8" font-family="Times,serif" font-size="14.00">1 (96.6)</text>
</g>
<!-- 028 -->
<g id="node10" class="node"><title>028</title>
<ellipse fill="#ff8a8a" stroke="#b43f3f" cx="406" cy="-121" rx="36.2938" ry="18"/>
<text text-anchor="middle" x="406" y="-117.3" font-family="Times,serif" font-size="14.00">028 (a)</text>
</g>
<!-- 063&#45;&gt;028 -->
<g id="edge8" class="edge"><title>063&#45;&gt;028</title>
<path fill="none" stroke="#b43f3f" stroke-dasharray="1,5" d="M308.925,-195.717C322.373,-189.548 338.592,-181.278 352,-172 363.327,-164.162 374.691,-154.058 384.052,-144.986"/>
<polygon fill="#b43f3f" stroke="#b43f3f" points="386.775,-147.214 391.399,-137.682 381.84,-142.25 386.775,-147.214"/>
<text text-anchor="middle" x="394" y="-160.8" font-family="Times,serif" font-size="14.00">1 (96.6)</text>
</g>
<!-- 045 -->
<g id="node11" class="node"><title>045</title>
<ellipse fill="#ff8a8a" stroke="#b43f3f" cx="497" cy="-121" rx="36.2938" ry="18"/>
<text text-anchor="middle" x="497" y="-117.3" font-family="Times,serif" font-size="14.00">045 (a)</text>
</g>
<!-- 063&#45;&gt;045 -->
<g id="edge9" class="edge"><title>063&#45;&gt;045</title>
<path fill="none" stroke="#b43f3f" stroke-dasharray="1,5" d="M316.2,-201.553C344.766,-196.252 386.143,-186.802 420,-172 437.658,-164.28 455.812,-152.699 470.055,-142.627"/>
<polygon fill="#b43f3f" stroke="#b43f3f" points="472.332,-145.299 478.378,-136.598 468.226,-139.629 472.332,-145.299"/>
<text text-anchor="middle" x="469" y="-160.8" font-family="Times,serif" font-size="14.00">1 (93.1)</text>
</g>
<!-- 017 -->
<g id="node12" class="node"><title>017</title>
<ellipse fill="#ff8a8a" stroke="#b43f3f" cx="234" cy="-34" rx="36.2938" ry="18"/>
<text text-anchor="middle" x="234" y="-30.3" font-family="Times,serif" font-size="14.00">017 (a)</text>
</g>
<!-- 031&#45;&gt;017 -->
<g id="edge10" class="edge"><title>031&#45;&gt;017</title>
<path fill="none" stroke="#b43f3f" stroke-dasharray="1,5" d="M234,-102.799C234,-91.1626 234,-75.5479 234,-62.2368"/>
<polygon fill="#b43f3f" stroke="#b43f3f" points="237.5,-62.1754 234,-52.1754 230.5,-62.1755 237.5,-62.1754"/>
<text text-anchor="middle" x="256" y="-73.8" font-family="Times,serif" font-size="14.00">1 (94.3)</text>
</g>
<!-- 013 -->
<g id="node13" class="node"><title>013</title>
<ellipse fill="#ff8a8a" stroke="#b43f3f" cx="325" cy="-34" rx="36.2938" ry="18"/>
<text text-anchor="middle" x="325" y="-30.3" font-family="Times,serif" font-size="14.00">013 (a)</text>
</g>
<!-- 031&#45;&gt;013 -->
<g id="edge11" class="edge"><title>031&#45;&gt;013</title>
<path fill="none" stroke="#b43f3f" stroke-dasharray="1,5" d="M255.372,-106.006C263.992,-99.9634 273.814,-92.5539 282,-85 290.544,-77.1154 299.076,-67.6186 306.26,-59.0293"/>
<polygon fill="#b43f3f" stroke="#b43f3f" points="309.077,-61.1135 312.692,-51.1545 303.656,-56.6853 309.077,-61.1135"/>
<text text-anchor="middle" x="318" y="-73.8" font-family="Times,serif" font-size="14.00">1 (97.1)</text>
</g>
<!-- 030 -->
<g id="node14" class="node"><title>030</title>
<ellipse fill="#ff8a8a" stroke="#b43f3f" cx="416" cy="-34" rx="36.2938" ry="18"/>
<text text-anchor="middle" x="416" y="-30.3" font-family="Times,serif" font-size="14.00">030 (a)</text>
</g>
<!-- 07&#45;&gt;030 -->
<g id="edge12" class="edge"><title>07&#45;&gt;030</title>
<path fill="none" stroke="#b43f3f" stroke-dasharray="1,5" d="M336.722,-105.194C351.68,-91.9504 373.815,-72.3517 390.897,-57.2267"/>
<polygon fill="#b43f3f" stroke="#b43f3f" points="393.656,-59.4581 398.823,-50.2086 389.016,-54.2172 393.656,-59.4581"/>
<text text-anchor="middle" x="396" y="-73.8" font-family="Times,serif" font-size="14.00">1 (95.1)</text>
</g>
<!-- 034 -->
<g id="node15" class="node"><title>034</title>
<ellipse fill="#ff8a8a" stroke="#b43f3f" cx="507" cy="-34" rx="36.2938" ry="18"/>
<text text-anchor="middle" x="507" y="-30.3" font-family="Times,serif" font-size="14.00">034 (a)</text>
</g>
<!-- 07&#45;&gt;034 -->
<g id="edge13" class="edge"><title>07&#45;&gt;034</title>
<path fill="none" stroke="#b43f3f" stroke-dasharray="1,5" d="M344.552,-109.324C349.93,-107.124 355.624,-104.902 361,-103 387.649,-93.5734 396.068,-96.2501 422,-85 441.3,-76.6268 461.657,-64.7715 477.609,-54.7063"/>
<polygon fill="#b43f3f" stroke="#b43f3f" points="479.928,-57.3762 486.45,-49.0268 476.145,-51.4866 479.928,-57.3762"/>
<text text-anchor="middle" x="474" y="-73.8" font-family="Times,serif" font-size="14.00">1 (95.1)</text>
</g>
<!-- leg_s -->
<g id="node16" class="node"><title>leg_s</title>
<text text-anchor="middle" x="755" y="-204.3" font-family="Times,serif" font-size="14.00">Textual flow strength</text>
</g>
<!-- leg_e1 -->
<!-- leg_s&#45;&gt;leg_e1 -->
<g id="edge14" class="edge"><title>leg_s&#45;&gt;leg_e1</title>
<path fill="none" stroke="black" stroke-dasharray="1,5" d="M736.666,-189.686C731.132,-184.194 725.161,-177.989 720,-172 710.171,-160.593 700.072,-146.779 692.914,-136.563"/>
<polygon fill="black" stroke="black" points="695.614,-134.314 687.056,-128.068 689.851,-138.288 695.614,-134.314"/>
<text text-anchor="middle" x="735.5" y="-160.8" font-family="Times,serif" font-size="14.00">&lt;=5 &#160;</text>
</g>
<!-- leg_e2 -->
<!-- leg_s&#45;&gt;leg_e2 -->
<g id="edge15" class="edge"><title>leg_s&#45;&gt;leg_e2</title>
<path fill="none" stroke="black" stroke-dasharray="5,2" d="M755,-189.799C755,-174.794 755,-153.174 755,-138.409"/>
<polygon fill="black" stroke="black" points="758.5,-138.293 755,-128.293 751.5,-138.293 758.5,-138.293"/>
<text text-anchor="middle" x="774" y="-160.8" font-family="Times,serif" font-size="14.00"> &#160;&lt;=25</text>
</g>
<!-- leg_e3 -->
<!-- leg_s&#45;&gt;leg_e3 -->
<g id="edge16" class="edge"><title>leg_s&#45;&gt;leg_e3</title>
<path fill="none" stroke="black" d="M778.503,-189.76C784.906,-184.462 791.567,-178.344 797,-172 806.087,-161.39 814.095,-147.689 819.546,-137.313"/>
<polygon fill="black" stroke="black" points="822.722,-138.789 824.091,-128.283 816.469,-135.642 822.722,-138.789"/>
<text text-anchor="middle" x="818" y="-160.8" font-family="Times,serif" font-size="14.00">&gt;25</text>
</g>
</g>
</svg>
