<?xml version="1.0" encoding="UTF-8" standalone="no"?>
<!DOCTYPE svg PUBLIC "-//W3C//DTD SVG 1.1//EN"
 "http://www.w3.org/Graphics/SVG/1.1/DTD/svg11.dtd">
<!-- Generated by graphviz version 2.38.0 (20140413.2041)
 -->
<!-- Title: G Pages: 1 -->
<svg width="939pt" height="392pt"
 viewBox="0.00 0.00 938.69 392.00" xmlns="http://www.w3.org/2000/svg" xmlns:xlink="http://www.w3.org/1999/xlink">
<g id="graph0" class="graph" transform="scale(1 1) rotate(0) translate(4 388)">
<title>G</title>
<polygon fill="white" stroke="none" points="-4,4 -4,-388 934.693,-388 934.693,4 -4,4"/>
<!-- 013 (a) -->
<g id="node1" class="node"><title>013 (a)</title>
<ellipse fill="#ff8a8a" stroke="#b43f3f" cx="701.397" cy="-18" rx="36.2938" ry="18"/>
<text text-anchor="middle" x="701.397" y="-14.3" font-family="Times,serif" font-size="14.00">013 (a)</text>
</g>
<!-- 05 (b) -->
<g id="node2" class="node"><title>05 (b)</title>
<ellipse fill="#cea8f4" stroke="#835da9" cx="799.397" cy="-192" rx="32.4942" ry="18"/>
<text text-anchor="middle" x="799.397" y="-188.3" font-family="Times,serif" font-size="14.00">05 (b)</text>
</g>
<!-- 047 (b) -->
<g id="node25" class="node"><title>047 (b)</title>
<ellipse fill="#cea8f4" stroke="#835da9" cx="835.397" cy="-105" rx="36.2938" ry="18"/>
<text text-anchor="middle" x="835.397" y="-101.3" font-family="Times,serif" font-size="14.00">047 (b)</text>
</g>
<!-- 05 (b)&#45;&gt;047 (b) -->
<g id="edge1" class="edge"><title>05 (b)&#45;&gt;047 (b)</title>
<path fill="none" stroke="#835da9" d="M806.509,-174.207C811.588,-162.216 818.519,-145.851 824.318,-132.157"/>
<polygon fill="#835da9" stroke="#835da9" points="827.622,-133.332 828.299,-122.758 821.176,-130.602 827.622,-133.332"/>
<text text-anchor="middle" x="845.897" y="-144.8" font-family="Times,serif" font-size="14.00">24 (67.6)</text>
</g>
<!-- 017 (a) -->
<g id="node3" class="node"><title>017 (a)</title>
<ellipse fill="#ff8a8a" stroke="#b43f3f" cx="792.397" cy="-18" rx="36.2938" ry="18"/>
<text text-anchor="middle" x="792.397" y="-14.3" font-family="Times,serif" font-size="14.00">017 (a)</text>
</g>
<!-- 032 (a) -->
<g id="node4" class="node"><title>032 (a)</title>
<ellipse fill="#ff8a8a" stroke="#b43f3f" cx="36.3968" cy="-192" rx="36.2938" ry="18"/>
<text text-anchor="middle" x="36.3968" y="-188.3" font-family="Times,serif" font-size="14.00">032 (a)</text>
</g>
<!-- 021 (a) -->
<g id="node5" class="node"><title>021 (a)</title>
<ellipse fill="#ff8a8a" stroke="#b43f3f" cx="299.397" cy="-105" rx="36.2938" ry="18"/>
<text text-anchor="middle" x="299.397" y="-101.3" font-family="Times,serif" font-size="14.00">021 (a)</text>
</g>
<!-- 036 (a) -->
<g id="node8" class="node"><title>036 (a)</title>
<ellipse fill="#ff8a8a" stroke="#b43f3f" cx="203.397" cy="-18" rx="36.2938" ry="18"/>
<text text-anchor="middle" x="203.397" y="-14.3" font-family="Times,serif" font-size="14.00">036 (a)</text>
</g>
<!-- 021 (a)&#45;&gt;036 (a) -->
<g id="edge2" class="edge"><title>021 (a)&#45;&gt;036 (a)</title>
<path fill="none" stroke="#b43f3f" d="M282.234,-88.8037C267.217,-75.5078 245.218,-56.0291 228.272,-41.0245"/>
<polygon fill="#b43f3f" stroke="#b43f3f" points="230.218,-38.0734 220.411,-34.0647 225.578,-43.3143 230.218,-38.0734"/>
<text text-anchor="middle" x="279.397" y="-57.8" font-family="Times,serif" font-size="14.00">1 (97.6)</text>
</g>
<!-- 037 (a) -->
<g id="node6" class="node"><title>037 (a)</title>
<ellipse fill="#ff8a8a" stroke="#b43f3f" cx="294.397" cy="-18" rx="36.2938" ry="18"/>
<text text-anchor="middle" x="294.397" y="-14.3" font-family="Times,serif" font-size="14.00">037 (a)</text>
</g>
<!-- 02 (a) -->
<g id="node7" class="node"><title>02 (a)</title>
<ellipse fill="#ff8a8a" stroke="#b43f3f" cx="122.397" cy="-192" rx="31.6951" ry="18"/>
<text text-anchor="middle" x="122.397" y="-188.3" font-family="Times,serif" font-size="14.00">02 (a)</text>
</g>
<!-- 07 (a) -->
<g id="node9" class="node"><title>07 (a)</title>
<ellipse fill="#ff8a8a" stroke="#b43f3f" cx="385.397" cy="-105" rx="31.6951" ry="18"/>
<text text-anchor="middle" x="385.397" y="-101.3" font-family="Times,serif" font-size="14.00">07 (a)</text>
</g>
<!-- 07 (a)&#45;&gt;037 (a) -->
<g id="edge5" class="edge"><title>07 (a)&#45;&gt;037 (a)</title>
<path fill="none" stroke="#b43f3f" d="M364.978,-90.6717C356.134,-84.5121 345.886,-76.8337 337.397,-69 328.853,-61.1154 320.321,-51.6186 313.136,-43.0293"/>
<polygon fill="#b43f3f" stroke="#b43f3f" points="315.741,-40.6853 306.704,-35.1545 310.32,-45.1135 315.741,-40.6853"/>
<text text-anchor="middle" x="359.397" y="-57.8" font-family="Times,serif" font-size="14.00">1 (97.5)</text>
</g>
<!-- 034 (a) -->
<g id="node17" class="node"><title>034 (a)</title>
<ellipse fill="#ff8a8a" stroke="#b43f3f" cx="385.397" cy="-18" rx="36.2938" ry="18"/>
<text text-anchor="middle" x="385.397" y="-14.3" font-family="Times,serif" font-size="14.00">034 (a)</text>
</g>
<!-- 07 (a)&#45;&gt;034 (a) -->
<g id="edge4" class="edge"><title>07 (a)&#45;&gt;034 (a)</title>
<path fill="none" stroke="#b43f3f" d="M385.397,-86.799C385.397,-75.1626 385.397,-59.5479 385.397,-46.2368"/>
<polygon fill="#b43f3f" stroke="#b43f3f" points="388.897,-46.1754 385.397,-36.1754 381.897,-46.1755 388.897,-46.1754"/>
<text text-anchor="middle" x="407.397" y="-57.8" font-family="Times,serif" font-size="14.00">1 (95.1)</text>
</g>
<!-- 030 (a) -->
<g id="node21" class="node"><title>030 (a)</title>
<ellipse fill="#ff8a8a" stroke="#b43f3f" cx="476.397" cy="-18" rx="36.2938" ry="18"/>
<text text-anchor="middle" x="476.397" y="-14.3" font-family="Times,serif" font-size="14.00">030 (a)</text>
</g>
<!-- 07 (a)&#45;&gt;030 (a) -->
<g id="edge3" class="edge"><title>07 (a)&#45;&gt;030 (a)</title>
<path fill="none" stroke="#b43f3f" d="M405.816,-90.6717C414.659,-84.5121 424.908,-76.8337 433.397,-69 441.941,-61.1154 450.472,-51.6186 457.657,-43.0293"/>
<polygon fill="#b43f3f" stroke="#b43f3f" points="460.474,-45.1135 464.089,-35.1545 455.053,-40.6853 460.474,-45.1135"/>
<text text-anchor="middle" x="469.397" y="-57.8" font-family="Times,serif" font-size="14.00">1 (95.1)</text>
</g>
<!-- 03 (a) -->
<g id="node10" class="node"><title>03 (a)</title>
<ellipse fill="#ff8a8a" stroke="#b43f3f" cx="161.397" cy="-279" rx="31.6951" ry="18"/>
<text text-anchor="middle" x="161.397" y="-275.3" font-family="Times,serif" font-size="14.00">03 (a)</text>
</g>
<!-- 03 (a)&#45;&gt;032 (a) -->
<g id="edge7" class="edge"><title>03 (a)&#45;&gt;032 (a)</title>
<path fill="none" stroke="#b43f3f" d="M133.931,-269.554C117.46,-263.687 96.63,-254.799 80.3968,-243 70.6575,-235.921 61.5617,-226.329 54.1972,-217.439"/>
<polygon fill="#b43f3f" stroke="#b43f3f" points="56.908,-215.225 47.9517,-209.565 51.4236,-219.575 56.908,-215.225"/>
<text text-anchor="middle" x="102.397" y="-231.8" font-family="Times,serif" font-size="14.00">1 (91.7)</text>
</g>
<!-- 03 (a)&#45;&gt;02 (a) -->
<g id="edge8" class="edge"><title>03 (a)&#45;&gt;02 (a)</title>
<path fill="none" stroke="#b43f3f" d="M146.613,-262.672C141.757,-256.898 136.751,-250.022 133.397,-243 130.025,-235.942 127.672,-227.829 126.035,-220.219"/>
<polygon fill="#b43f3f" stroke="#b43f3f" points="129.463,-219.507 124.219,-210.301 122.578,-220.768 129.463,-219.507"/>
<text text-anchor="middle" x="155.397" y="-231.8" font-family="Times,serif" font-size="14.00">1 (86.5)</text>
</g>
<!-- 044 (a) -->
<g id="node26" class="node"><title>044 (a)</title>
<ellipse fill="#ff8a8a" stroke="#b43f3f" cx="208.397" cy="-192" rx="36.2938" ry="18"/>
<text text-anchor="middle" x="208.397" y="-188.3" font-family="Times,serif" font-size="14.00">044 (a)</text>
</g>
<!-- 03 (a)&#45;&gt;044 (a) -->
<g id="edge6" class="edge"><title>03 (a)&#45;&gt;044 (a)</title>
<path fill="none" stroke="#b43f3f" d="M170.459,-261.611C177.178,-249.46 186.467,-232.66 194.172,-218.725"/>
<polygon fill="#b43f3f" stroke="#b43f3f" points="197.426,-220.073 199.202,-209.629 191.3,-216.686 197.426,-220.073"/>
<text text-anchor="middle" x="210.397" y="-231.8" font-family="Times,serif" font-size="14.00">1 (89.2)</text>
</g>
<!-- P75 (a) -->
<g id="node11" class="node"><title>P75 (a)</title>
<ellipse fill="#ff8a8a" stroke="#b43f3f" cx="420.397" cy="-279" rx="36.2938" ry="18"/>
<text text-anchor="middle" x="420.397" y="-275.3" font-family="Times,serif" font-size="14.00">P75 (a)</text>
</g>
<!-- 038 (a) -->
<g id="node12" class="node"><title>038 (a)</title>
<ellipse fill="#ff8a8a" stroke="#b43f3f" cx="567.397" cy="-18" rx="36.2938" ry="18"/>
<text text-anchor="middle" x="567.397" y="-14.3" font-family="Times,serif" font-size="14.00">038 (a)</text>
</g>
<!-- A (a) -->
<g id="node13" class="node"><title>A (a)</title>
<ellipse fill="#ff8a8a" stroke="#b43f3f" cx="511.397" cy="-366" rx="29.4969" ry="18"/>
<text text-anchor="middle" x="511.397" y="-362.3" font-family="Times,serif" font-size="14.00">A (a)</text>
</g>
<!-- A (a)&#45;&gt;03 (a) -->
<g id="edge9" class="edge"><title>A (a)&#45;&gt;03 (a)</title>
<path fill="none" stroke="#b43f3f" d="M484.514,-358.471C423.029,-343.539 271.941,-306.846 200.297,-289.447"/>
<polygon fill="#b43f3f" stroke="#b43f3f" points="200.867,-285.984 190.324,-287.025 199.215,-292.786 200.867,-285.984"/>
<text text-anchor="middle" x="379.397" y="-318.8" font-family="Times,serif" font-size="14.00">1 (93.3)</text>
</g>
<!-- A (a)&#45;&gt;P75 (a) -->
<g id="edge11" class="edge"><title>A (a)&#45;&gt;P75 (a)</title>
<path fill="none" stroke="#b43f3f" d="M491.92,-352.326C482.869,-346.06 472.189,-338.113 463.397,-330 454.853,-322.115 446.321,-312.619 439.136,-304.029"/>
<polygon fill="#b43f3f" stroke="#b43f3f" points="441.741,-301.685 432.704,-296.155 436.32,-306.113 441.741,-301.685"/>
<text text-anchor="middle" x="485.397" y="-318.8" font-family="Times,serif" font-size="14.00">1 (93.3)</text>
</g>
<!-- 019 (a) -->
<g id="node14" class="node"><title>019 (a)</title>
<ellipse fill="#ff8a8a" stroke="#b43f3f" cx="511.397" cy="-279" rx="36.2938" ry="18"/>
<text text-anchor="middle" x="511.397" y="-275.3" font-family="Times,serif" font-size="14.00">019 (a)</text>
</g>
<!-- A (a)&#45;&gt;019 (a) -->
<g id="edge12" class="edge"><title>A (a)&#45;&gt;019 (a)</title>
<path fill="none" stroke="#b43f3f" d="M511.397,-347.799C511.397,-336.163 511.397,-320.548 511.397,-307.237"/>
<polygon fill="#b43f3f" stroke="#b43f3f" points="514.897,-307.175 511.397,-297.175 507.897,-307.175 514.897,-307.175"/>
<text text-anchor="middle" x="533.397" y="-318.8" font-family="Times,serif" font-size="14.00">1 (93.3)</text>
</g>
<!-- 01 (a) -->
<g id="node18" class="node"><title>01 (a)</title>
<ellipse fill="#ff8a8a" stroke="#b43f3f" cx="597.397" cy="-279" rx="31.6951" ry="18"/>
<text text-anchor="middle" x="597.397" y="-275.3" font-family="Times,serif" font-size="14.00">01 (a)</text>
</g>
<!-- A (a)&#45;&gt;01 (a) -->
<g id="edge10" class="edge"><title>A (a)&#45;&gt;01 (a)</title>
<path fill="none" stroke="#b43f3f" d="M531.097,-352.561C540.197,-346.347 550.854,-338.375 559.397,-330 567.221,-322.329 574.759,-312.975 581.029,-304.442"/>
<polygon fill="#b43f3f" stroke="#b43f3f" points="583.894,-306.452 586.84,-296.275 578.191,-302.394 583.894,-306.452"/>
<text text-anchor="middle" x="594.397" y="-318.8" font-family="Times,serif" font-size="14.00">1 (57.1)</text>
</g>
<!-- 091 (a) -->
<g id="node23" class="node"><title>091 (a)</title>
<ellipse fill="#ff8a8a" stroke="#b43f3f" cx="799.397" cy="-279" rx="36.2938" ry="18"/>
<text text-anchor="middle" x="799.397" y="-275.3" font-family="Times,serif" font-size="14.00">091 (a)</text>
</g>
<!-- A (a)&#45;&gt;091 (a) -->
<g id="edge13" class="edge"><title>A (a)&#45;&gt;091 (a)</title>
<path fill="none" stroke="#b43f3f" d="M537.208,-357.382C587.457,-342.552 698.748,-309.705 758.91,-291.949"/>
<polygon fill="#b43f3f" stroke="#b43f3f" points="760.216,-295.213 768.816,-289.026 758.234,-288.499 760.216,-295.213"/>
<text text-anchor="middle" x="695.397" y="-318.8" font-family="Times,serif" font-size="14.00">1 (87.5)</text>
</g>
<!-- 063 (a) -->
<g id="node27" class="node"><title>063 (a)</title>
<ellipse fill="#ff8a8a" stroke="#b43f3f" cx="511.397" cy="-192" rx="36.2938" ry="18"/>
<text text-anchor="middle" x="511.397" y="-188.3" font-family="Times,serif" font-size="14.00">063 (a)</text>
</g>
<!-- 019 (a)&#45;&gt;063 (a) -->
<g id="edge14" class="edge"><title>019 (a)&#45;&gt;063 (a)</title>
<path fill="none" stroke="#b43f3f" d="M511.397,-260.799C511.397,-249.163 511.397,-233.548 511.397,-220.237"/>
<polygon fill="#b43f3f" stroke="#b43f3f" points="514.897,-220.175 511.397,-210.175 507.897,-220.175 514.897,-220.175"/>
<text text-anchor="middle" x="533.397" y="-231.8" font-family="Times,serif" font-size="14.00">1 (85.7)</text>
</g>
<!-- 0141 (a) -->
<g id="node15" class="node"><title>0141 (a)</title>
<ellipse fill="#ff8a8a" stroke="#b43f3f" cx="113.397" cy="-105" rx="40.0939" ry="18"/>
<text text-anchor="middle" x="113.397" y="-101.3" font-family="Times,serif" font-size="14.00">0141 (a)</text>
</g>
<!-- 0211 (a) -->
<g id="node16" class="node"><title>0211 (a)</title>
<ellipse fill="#ff8a8a" stroke="#b43f3f" cx="890.397" cy="-192" rx="40.0939" ry="18"/>
<text text-anchor="middle" x="890.397" y="-188.3" font-family="Times,serif" font-size="14.00">0211 (a)</text>
</g>
<!-- 011 (a) -->
<g id="node19" class="node"><title>011 (a)</title>
<ellipse fill="#ff8a8a" stroke="#b43f3f" cx="471.397" cy="-105" rx="36.2938" ry="18"/>
<text text-anchor="middle" x="471.397" y="-101.3" font-family="Times,serif" font-size="14.00">011 (a)</text>
</g>
<!-- 045 (a) -->
<g id="node20" class="node"><title>045 (a)</title>
<ellipse fill="#ff8a8a" stroke="#b43f3f" cx="562.397" cy="-105" rx="36.2938" ry="18"/>
<text text-anchor="middle" x="562.397" y="-101.3" font-family="Times,serif" font-size="14.00">045 (a)</text>
</g>
<!-- 045 (a)&#45;&gt;038 (a) -->
<g id="edge15" class="edge"><title>045 (a)&#45;&gt;038 (a)</title>
<path fill="none" stroke="#b43f3f" d="M563.409,-86.799C564.093,-75.1626 565.012,-59.5479 565.795,-46.2368"/>
<polygon fill="#b43f3f" stroke="#b43f3f" points="569.293,-46.3637 566.386,-36.1754 562.305,-45.9526 569.293,-46.3637"/>
<text text-anchor="middle" x="587.397" y="-57.8" font-family="Times,serif" font-size="14.00">1 (92.7)</text>
</g>
<!-- 028 (a) -->
<g id="node22" class="node"><title>028 (a)</title>
<ellipse fill="#ff8a8a" stroke="#b43f3f" cx="653.397" cy="-105" rx="36.2938" ry="18"/>
<text text-anchor="middle" x="653.397" y="-101.3" font-family="Times,serif" font-size="14.00">028 (a)</text>
</g>
<!-- 091 (a)&#45;&gt;05 (b) -->
<g id="edge16" class="edge"><title>091 (a)&#45;&gt;05 (b)</title>
<path fill="none" stroke="#835da9" d="M799.397,-260.799C799.397,-249.163 799.397,-233.548 799.397,-220.237"/>
<polygon fill="#835da9" stroke="#835da9" points="802.897,-220.175 799.397,-210.175 795.897,-220.175 802.897,-220.175"/>
<text text-anchor="middle" x="821.397" y="-231.8" font-family="Times,serif" font-size="14.00">1 (87.5)</text>
</g>
<!-- 091 (a)&#45;&gt;0211 (a) -->
<g id="edge17" class="edge"><title>091 (a)&#45;&gt;0211 (a)</title>
<path fill="none" stroke="#b43f3f" d="M820.768,-264.006C829.389,-257.963 839.211,-250.554 847.397,-243 855.941,-235.115 864.472,-225.619 871.657,-217.029"/>
<polygon fill="#b43f3f" stroke="#b43f3f" points="874.474,-219.113 878.089,-209.155 869.053,-214.685 874.474,-219.113"/>
<text text-anchor="middle" x="883.397" y="-231.8" font-family="Times,serif" font-size="14.00">1 (83.3)</text>
</g>
<!-- 022 (a) -->
<g id="node24" class="node"><title>022 (a)</title>
<ellipse fill="#ff8a8a" stroke="#b43f3f" cx="208.397" cy="-105" rx="36.2938" ry="18"/>
<text text-anchor="middle" x="208.397" y="-101.3" font-family="Times,serif" font-size="14.00">022 (a)</text>
</g>
<!-- 044 (a)&#45;&gt;0141 (a) -->
<g id="edge19" class="edge"><title>044 (a)&#45;&gt;0141 (a)</title>
<path fill="none" stroke="#b43f3f" d="M187.667,-177.159C178.96,-171.025 168.902,-163.508 160.397,-156 151.233,-147.911 141.866,-138.276 133.93,-129.632"/>
<polygon fill="#b43f3f" stroke="#b43f3f" points="136.386,-127.129 127.091,-122.045 131.187,-131.816 136.386,-127.129"/>
<text text-anchor="middle" x="182.397" y="-144.8" font-family="Times,serif" font-size="14.00">1 (89.2)</text>
</g>
<!-- 044 (a)&#45;&gt;022 (a) -->
<g id="edge18" class="edge"><title>044 (a)&#45;&gt;022 (a)</title>
<path fill="none" stroke="#b43f3f" d="M208.397,-173.799C208.397,-162.163 208.397,-146.548 208.397,-133.237"/>
<polygon fill="#b43f3f" stroke="#b43f3f" points="211.897,-133.175 208.397,-123.175 204.897,-133.175 211.897,-133.175"/>
<text text-anchor="middle" x="230.397" y="-144.8" font-family="Times,serif" font-size="14.00">1 (91.7)</text>
</g>
<!-- 063 (a)&#45;&gt;021 (a) -->
<g id="edge24" class="edge"><title>063 (a)&#45;&gt;021 (a)</title>
<path fill="none" stroke="#b43f3f" d="M476.662,-186.498C446.671,-181.703 402.724,-172.469 367.397,-156 351.858,-148.756 336.319,-137.69 324.025,-127.808"/>
<polygon fill="#b43f3f" stroke="#b43f3f" points="326.006,-124.904 316.073,-121.217 321.539,-130.293 326.006,-124.904"/>
<text text-anchor="middle" x="389.397" y="-144.8" font-family="Times,serif" font-size="14.00">1 (93.1)</text>
</g>
<!-- 063 (a)&#45;&gt;07 (a) -->
<g id="edge23" class="edge"><title>063 (a)&#45;&gt;07 (a)</title>
<path fill="none" stroke="#b43f3f" d="M481.728,-181.388C465.947,-175.471 446.699,-166.918 431.397,-156 421.252,-148.762 411.645,-138.981 403.861,-129.99"/>
<polygon fill="#b43f3f" stroke="#b43f3f" points="406.345,-127.503 397.261,-122.05 400.962,-131.978 406.345,-127.503"/>
<text text-anchor="middle" x="453.397" y="-144.8" font-family="Times,serif" font-size="14.00">1 (96.6)</text>
</g>
<!-- 063 (a)&#45;&gt;011 (a) -->
<g id="edge22" class="edge"><title>063 (a)&#45;&gt;011 (a)</title>
<path fill="none" stroke="#b43f3f" d="M497.02,-175.178C492.439,-169.465 487.707,-162.753 484.397,-156 480.923,-148.913 478.301,-140.79 476.356,-133.18"/>
<polygon fill="#b43f3f" stroke="#b43f3f" points="479.733,-132.246 474.107,-123.268 472.907,-133.795 479.733,-132.246"/>
<text text-anchor="middle" x="506.397" y="-144.8" font-family="Times,serif" font-size="14.00">1 (93.1)</text>
</g>
<!-- 063 (a)&#45;&gt;045 (a) -->
<g id="edge20" class="edge"><title>063 (a)&#45;&gt;045 (a)</title>
<path fill="none" stroke="#b43f3f" d="M521.23,-174.611C528.638,-162.264 538.927,-145.117 547.365,-131.053"/>
<polygon fill="#b43f3f" stroke="#b43f3f" points="550.45,-132.714 552.594,-122.339 544.447,-129.113 550.45,-132.714"/>
<text text-anchor="middle" x="562.397" y="-144.8" font-family="Times,serif" font-size="14.00">1 (93.1)</text>
</g>
<!-- 063 (a)&#45;&gt;028 (a) -->
<g id="edge21" class="edge"><title>063 (a)&#45;&gt;028 (a)</title>
<path fill="none" stroke="#b43f3f" d="M539.253,-180.161C554.237,-173.885 572.79,-165.38 588.397,-156 602.242,-147.679 616.583,-136.912 628.26,-127.502"/>
<polygon fill="#b43f3f" stroke="#b43f3f" points="630.74,-129.995 636.247,-120.944 626.298,-124.585 630.74,-129.995"/>
<text text-anchor="middle" x="631.397" y="-144.8" font-family="Times,serif" font-size="14.00">1 (96.6)</text>
</g>
<!-- 031 (a) -->
<g id="node28" class="node"><title>031 (a)</title>
<ellipse fill="#ff8a8a" stroke="#b43f3f" cx="744.397" cy="-105" rx="36.2938" ry="18"/>
<text text-anchor="middle" x="744.397" y="-101.3" font-family="Times,serif" font-size="14.00">031 (a)</text>
</g>
<!-- 063 (a)&#45;&gt;031 (a) -->
<g id="edge25" class="edge"><title>063 (a)&#45;&gt;031 (a)</title>
<path fill="none" stroke="#b43f3f" d="M545.581,-185.665C575.72,-180.296 620.46,-170.687 657.397,-156 677.612,-147.962 698.806,-135.869 715.215,-125.589"/>
<polygon fill="#b43f3f" stroke="#b43f3f" points="717.26,-128.436 723.801,-120.102 713.49,-122.537 717.26,-128.436"/>
<text text-anchor="middle" x="709.397" y="-144.8" font-family="Times,serif" font-size="14.00">1 (95.8)</text>
</g>
<!-- 031 (a)&#45;&gt;013 (a) -->
<g id="edge26" class="edge"><title>031 (a)&#45;&gt;013 (a)</title>
<path fill="none" stroke="#b43f3f" d="M735.752,-87.2851C732.773,-81.501 729.425,-74.9722 726.397,-69 722.402,-61.1233 718.089,-52.5285 714.188,-44.7215"/>
<polygon fill="#b43f3f" stroke="#b43f3f" points="717.278,-43.0767 709.683,-35.6905 711.015,-46.2013 717.278,-43.0767"/>
<text text-anchor="middle" x="748.397" y="-57.8" font-family="Times,serif" font-size="14.00">1 (97.1)</text>
</g>
<!-- 031 (a)&#45;&gt;017 (a) -->
<g id="edge27" class="edge"><title>031 (a)&#45;&gt;017 (a)</title>
<path fill="none" stroke="#b43f3f" d="M757.355,-88.1391C761.792,-82.3156 766.592,-75.5436 770.397,-69 774.687,-61.6215 778.68,-53.2512 782.055,-45.4984"/>
<polygon fill="#b43f3f" stroke="#b43f3f" points="785.343,-46.7057 785.973,-36.1296 778.886,-44.0044 785.343,-46.7057"/>
<text text-anchor="middle" x="800.397" y="-57.8" font-family="Times,serif" font-size="14.00">1 (94.3)</text>
</g>
</g>
</svg>
