<?xml version="1.0" encoding="UTF-8" standalone="no"?>
<!DOCTYPE svg PUBLIC "-//W3C//DTD SVG 1.1//EN"
 "http://www.w3.org/Graphics/SVG/1.1/DTD/svg11.dtd">
<!-- Generated by graphviz version 2.38.0 (20140413.2041)
 -->
<!-- Title: %3 Pages: 1 -->
<svg width="971pt" height="250pt"
 viewBox="0.00 0.00 971.00 250.00" xmlns="http://www.w3.org/2000/svg" xmlns:xlink="http://www.w3.org/1999/xlink">
<g id="graph0" class="graph" transform="scale(1 1) rotate(0) translate(4 246)">
<title>%3</title>
<polygon fill="white" stroke="none" points="-4,4 -4,-246 967,-246 967,4 -4,4"/>
<g id="clust1" class="cluster"><title>cluster_legend</title>
<path fill="none" stroke="black" d="M20,-106C20,-106 210,-106 210,-106 216,-106 222,-112 222,-118 222,-118 222,-222 222,-222 222,-228 216,-234 210,-234 210,-234 20,-234 20,-234 14,-234 8,-228 8,-222 8,-222 8,-118 8,-118 8,-112 14,-106 20,-106"/>
</g>
<g id="clust2" class="cluster"><title>cluster_reading</title>
<polygon fill="none" stroke="black" points="230,-8 230,-234 955,-234 955,-8 230,-8"/>
</g>
<!-- leg_s -->
<g id="node1" class="node"><title>leg_s</title>
<text text-anchor="middle" x="115" y="-204.3" font-family="Times,serif" font-size="14.00">Textual flow strength</text>
</g>
<!-- leg_e1 -->
<!-- leg_s&#45;&gt;leg_e1 -->
<g id="edge1" class="edge"><title>leg_s&#45;&gt;leg_e1</title>
<path fill="none" stroke="black" stroke-dasharray="1,5" d="M96.6657,-189.686C91.1324,-184.194 85.1607,-177.989 80,-172 70.1708,-160.593 60.0722,-146.779 52.9137,-136.563"/>
<polygon fill="black" stroke="black" points="55.6142,-134.314 47.056,-128.068 49.8514,-138.288 55.6142,-134.314"/>
<text text-anchor="middle" x="95.5" y="-160.8" font-family="Times,serif" font-size="14.00">&lt;=5 &#160;</text>
</g>
<!-- leg_e2 -->
<!-- leg_s&#45;&gt;leg_e2 -->
<g id="edge2" class="edge"><title>leg_s&#45;&gt;leg_e2</title>
<path fill="none" stroke="black" stroke-dasharray="5,2" d="M115,-189.799C115,-174.794 115,-153.174 115,-138.409"/>
<polygon fill="black" stroke="black" points="118.5,-138.293 115,-128.293 111.5,-138.293 118.5,-138.293"/>
<text text-anchor="middle" x="134" y="-160.8" font-family="Times,serif" font-size="14.00"> &#160;&lt;=25</text>
</g>
<!-- leg_e3 -->
<!-- leg_s&#45;&gt;leg_e3 -->
<g id="edge3" class="edge"><title>leg_s&#45;&gt;leg_e3</title>
<path fill="none" stroke="black" d="M138.503,-189.76C144.906,-184.462 151.567,-178.344 157,-172 166.087,-161.39 174.095,-147.689 179.546,-137.313"/>
<polygon fill="black" stroke="black" points="182.722,-138.789 184.091,-128.283 176.469,-135.642 182.722,-138.789"/>
<text text-anchor="middle" x="179" y="-160.8" font-family="Times,serif" font-size="14.00">&gt;25</text>
</g>
<!-- 03 -->
<g id="node5" class="node"><title>03</title>
<ellipse fill="#ff8a8a" stroke="#b43f3f" cx="903" cy="-208" rx="31.6951" ry="18"/>
<text text-anchor="middle" x="903" y="-204.3" font-family="Times,serif" font-size="14.00">03 (a)</text>
</g>
<!-- 022 -->
<g id="node6" class="node"><title>022</title>
<ellipse fill="#ff8a8a" stroke="#b43f3f" cx="911" cy="-121" rx="36.2938" ry="18"/>
<text text-anchor="middle" x="911" y="-117.3" font-family="Times,serif" font-size="14.00">022 (a)</text>
</g>
<!-- 03&#45;&gt;022 -->
<g id="edge4" class="edge"><title>03&#45;&gt;022</title>
<path fill="none" stroke="#b43f3f" stroke-dasharray="1,5" d="M904.619,-189.799C905.714,-178.163 907.184,-162.548 908.437,-149.237"/>
<polygon fill="#b43f3f" stroke="#b43f3f" points="911.931,-149.459 909.383,-139.175 904.962,-148.803 911.931,-149.459"/>
<text text-anchor="middle" x="929" y="-160.8" font-family="Times,serif" font-size="14.00">1 (91.7)</text>
</g>
<!-- 031 -->
<g id="node7" class="node"><title>031</title>
<ellipse fill="#ff8a8a" stroke="#b43f3f" cx="365" cy="-121" rx="36.2938" ry="18"/>
<text text-anchor="middle" x="365" y="-117.3" font-family="Times,serif" font-size="14.00">031 (a)</text>
</g>
<!-- 013 -->
<g id="node8" class="node"><title>013</title>
<ellipse fill="#ff8a8a" stroke="#b43f3f" cx="274" cy="-34" rx="36.2938" ry="18"/>
<text text-anchor="middle" x="274" y="-30.3" font-family="Times,serif" font-size="14.00">013 (a)</text>
</g>
<!-- 031&#45;&gt;013 -->
<g id="edge5" class="edge"><title>031&#45;&gt;013</title>
<path fill="none" stroke="#b43f3f" stroke-dasharray="1,5" d="M343.628,-106.006C335.008,-99.9634 325.186,-92.5539 317,-85 308.456,-77.1154 299.924,-67.6186 292.74,-59.0293"/>
<polygon fill="#b43f3f" stroke="#b43f3f" points="295.344,-56.6853 286.308,-51.1545 289.923,-61.1135 295.344,-56.6853"/>
<text text-anchor="middle" x="339" y="-73.8" font-family="Times,serif" font-size="14.00">1 (97.1)</text>
</g>
<!-- 017 -->
<g id="node9" class="node"><title>017</title>
<ellipse fill="#ff8a8a" stroke="#b43f3f" cx="365" cy="-34" rx="36.2938" ry="18"/>
<text text-anchor="middle" x="365" y="-30.3" font-family="Times,serif" font-size="14.00">017 (a)</text>
</g>
<!-- 031&#45;&gt;017 -->
<g id="edge6" class="edge"><title>031&#45;&gt;017</title>
<path fill="none" stroke="#b43f3f" stroke-dasharray="1,5" d="M365,-102.799C365,-91.1626 365,-75.5479 365,-62.2368"/>
<polygon fill="#b43f3f" stroke="#b43f3f" points="368.5,-62.1754 365,-52.1754 361.5,-62.1755 368.5,-62.1754"/>
<text text-anchor="middle" x="387" y="-73.8" font-family="Times,serif" font-size="14.00">1 (94.3)</text>
</g>
<!-- 063 -->
<g id="node10" class="node"><title>063</title>
<ellipse fill="#ff8a8a" stroke="#b43f3f" cx="816" cy="-208" rx="36.2938" ry="18"/>
<text text-anchor="middle" x="816" y="-204.3" font-family="Times,serif" font-size="14.00">063 (a)</text>
</g>
<!-- 063&#45;&gt;031 -->
<g id="edge7" class="edge"><title>063&#45;&gt;031</title>
<path fill="none" stroke="#b43f3f" stroke-dasharray="1,5" d="M789.269,-195.403C783.352,-193.261 777.043,-191.294 771,-190 642.124,-162.4 602.905,-203.8 475,-172 447.336,-165.122 418.046,-151.457 396.652,-140.149"/>
<polygon fill="#b43f3f" stroke="#b43f3f" points="398.165,-136.989 387.703,-135.313 394.837,-143.147 398.165,-136.989"/>
<text text-anchor="middle" x="497" y="-160.8" font-family="Times,serif" font-size="14.00">1 (95.8)</text>
</g>
<!-- 011 -->
<g id="node11" class="node"><title>011</title>
<ellipse fill="#ff8a8a" stroke="#b43f3f" cx="466" cy="-121" rx="36.2938" ry="18"/>
<text text-anchor="middle" x="466" y="-117.3" font-family="Times,serif" font-size="14.00">011 (a)</text>
</g>
<!-- 063&#45;&gt;011 -->
<g id="edge8" class="edge"><title>063&#45;&gt;011</title>
<path fill="none" stroke="#b43f3f" stroke-dasharray="1,5" d="M789.246,-195.507C783.331,-193.358 777.028,-191.363 771,-190 677.471,-168.853 647.739,-199.908 556,-172 534.011,-165.311 511.405,-152.727 494.35,-141.857"/>
<polygon fill="#b43f3f" stroke="#b43f3f" points="496.253,-138.92 485.97,-136.37 492.418,-144.776 496.253,-138.92"/>
<text text-anchor="middle" x="578" y="-160.8" font-family="Times,serif" font-size="14.00">1 (93.1)</text>
</g>
<!-- 07 -->
<g id="node12" class="node"><title>07</title>
<ellipse fill="#ff8a8a" stroke="#b43f3f" cx="552" cy="-121" rx="31.6951" ry="18"/>
<text text-anchor="middle" x="552" y="-117.3" font-family="Times,serif" font-size="14.00">07 (a)</text>
</g>
<!-- 063&#45;&gt;07 -->
<g id="edge9" class="edge"><title>063&#45;&gt;07</title>
<path fill="none" stroke="#b43f3f" stroke-dasharray="1,5" d="M789.194,-195.726C783.282,-193.564 776.993,-191.507 771,-190 711.87,-175.128 692.544,-192.154 635,-172 614.827,-164.934 594.232,-152.565 578.603,-141.898"/>
<polygon fill="#b43f3f" stroke="#b43f3f" points="580.211,-138.75 570.016,-135.866 576.188,-144.478 580.211,-138.75"/>
<text text-anchor="middle" x="657" y="-160.8" font-family="Times,serif" font-size="14.00">1 (96.6)</text>
</g>
<!-- 045 -->
<g id="node13" class="node"><title>045</title>
<ellipse fill="#ff8a8a" stroke="#b43f3f" cx="638" cy="-121" rx="36.2938" ry="18"/>
<text text-anchor="middle" x="638" y="-117.3" font-family="Times,serif" font-size="14.00">045 (a)</text>
</g>
<!-- 063&#45;&gt;045 -->
<g id="edge10" class="edge"><title>063&#45;&gt;045</title>
<path fill="none" stroke="#b43f3f" stroke-dasharray="1,5" d="M788.529,-196.189C782.771,-194.045 776.712,-191.878 771,-190 742.931,-180.77 733.598,-184.869 707,-172 691.419,-164.462 675.668,-153.37 663.156,-143.548"/>
<polygon fill="#b43f3f" stroke="#b43f3f" points="665.034,-140.565 655.054,-137.009 660.638,-146.013 665.034,-140.565"/>
<text text-anchor="middle" x="729" y="-160.8" font-family="Times,serif" font-size="14.00">1 (93.1)</text>
</g>
<!-- 021 -->
<g id="node14" class="node"><title>021</title>
<ellipse fill="#ff8a8a" stroke="#b43f3f" cx="729" cy="-121" rx="36.2938" ry="18"/>
<text text-anchor="middle" x="729" y="-117.3" font-family="Times,serif" font-size="14.00">021 (a)</text>
</g>
<!-- 063&#45;&gt;021 -->
<g id="edge11" class="edge"><title>063&#45;&gt;021</title>
<path fill="none" stroke="#b43f3f" stroke-dasharray="1,5" d="M794.961,-193.086C786.503,-187.056 776.903,-179.634 769,-172 760.964,-164.238 753.073,-154.865 746.452,-146.341"/>
<polygon fill="#b43f3f" stroke="#b43f3f" points="749.116,-144.061 740.295,-138.192 743.531,-148.281 749.116,-144.061"/>
<text text-anchor="middle" x="791" y="-160.8" font-family="Times,serif" font-size="14.00">1 (93.1)</text>
</g>
<!-- 028 -->
<g id="node15" class="node"><title>028</title>
<ellipse fill="#ff8a8a" stroke="#b43f3f" cx="820" cy="-121" rx="36.2938" ry="18"/>
<text text-anchor="middle" x="820" y="-117.3" font-family="Times,serif" font-size="14.00">028 (a)</text>
</g>
<!-- 063&#45;&gt;028 -->
<g id="edge12" class="edge"><title>063&#45;&gt;028</title>
<path fill="none" stroke="#b43f3f" stroke-dasharray="1,5" d="M816.809,-189.799C817.357,-178.163 818.092,-162.548 818.718,-149.237"/>
<polygon fill="#b43f3f" stroke="#b43f3f" points="822.218,-149.329 819.192,-139.175 815.225,-149 822.218,-149.329"/>
<text text-anchor="middle" x="840" y="-160.8" font-family="Times,serif" font-size="14.00">1 (96.6)</text>
</g>
<!-- 037 -->
<g id="node16" class="node"><title>037</title>
<ellipse fill="#ff8a8a" stroke="#b43f3f" cx="456" cy="-34" rx="36.2938" ry="18"/>
<text text-anchor="middle" x="456" y="-30.3" font-family="Times,serif" font-size="14.00">037 (a)</text>
</g>
<!-- 07&#45;&gt;037 -->
<g id="edge13" class="edge"><title>07&#45;&gt;037</title>
<path fill="none" stroke="#b43f3f" stroke-dasharray="1,5" d="M531.305,-106.983C522,-100.766 511.09,-92.9548 502,-85 492.893,-77.0308 483.698,-67.4187 475.947,-58.7604"/>
<polygon fill="#b43f3f" stroke="#b43f3f" points="478.503,-56.3659 469.28,-51.1516 473.238,-60.9793 478.503,-56.3659"/>
<text text-anchor="middle" x="524" y="-73.8" font-family="Times,serif" font-size="14.00">1 (97.5)</text>
</g>
<!-- 034 -->
<g id="node17" class="node"><title>034</title>
<ellipse fill="#ff8a8a" stroke="#b43f3f" cx="547" cy="-34" rx="36.2938" ry="18"/>
<text text-anchor="middle" x="547" y="-30.3" font-family="Times,serif" font-size="14.00">034 (a)</text>
</g>
<!-- 07&#45;&gt;034 -->
<g id="edge14" class="edge"><title>07&#45;&gt;034</title>
<path fill="none" stroke="#b43f3f" stroke-dasharray="1,5" d="M550.988,-102.799C550.304,-91.1626 549.385,-75.5479 548.602,-62.2368"/>
<polygon fill="#b43f3f" stroke="#b43f3f" points="552.092,-61.9526 548.01,-52.1754 545.104,-62.3637 552.092,-61.9526"/>
<text text-anchor="middle" x="572" y="-73.8" font-family="Times,serif" font-size="14.00">1 (95.1)</text>
</g>
<!-- 030 -->
<g id="node18" class="node"><title>030</title>
<ellipse fill="#ff8a8a" stroke="#b43f3f" cx="638" cy="-34" rx="36.2938" ry="18"/>
<text text-anchor="middle" x="638" y="-30.3" font-family="Times,serif" font-size="14.00">030 (a)</text>
</g>
<!-- 07&#45;&gt;030 -->
<g id="edge15" class="edge"><title>07&#45;&gt;030</title>
<path fill="none" stroke="#b43f3f" stroke-dasharray="1,5" d="M571.655,-106.687C580.147,-100.531 589.957,-92.8501 598,-85 605.995,-77.1968 613.878,-67.8144 620.504,-59.2954"/>
<polygon fill="#b43f3f" stroke="#b43f3f" points="623.422,-61.2397 626.669,-51.1546 617.841,-57.0138 623.422,-61.2397"/>
<text text-anchor="middle" x="634" y="-73.8" font-family="Times,serif" font-size="14.00">1 (95.1)</text>
</g>
<!-- 038 -->
<g id="node19" class="node"><title>038</title>
<ellipse fill="#ff8a8a" stroke="#b43f3f" cx="729" cy="-34" rx="36.2938" ry="18"/>
<text text-anchor="middle" x="729" y="-30.3" font-family="Times,serif" font-size="14.00">038 (a)</text>
</g>
<!-- 045&#45;&gt;038 -->
<g id="edge16" class="edge"><title>045&#45;&gt;038</title>
<path fill="none" stroke="#b43f3f" stroke-dasharray="1,5" d="M654.269,-104.804C668.416,-91.5898 689.1,-72.2693 705.123,-57.3029"/>
<polygon fill="#b43f3f" stroke="#b43f3f" points="707.646,-59.7352 712.565,-50.3513 702.868,-54.6196 707.646,-59.7352"/>
<text text-anchor="middle" x="711" y="-73.8" font-family="Times,serif" font-size="14.00">1 (92.7)</text>
</g>
<!-- 036 -->
<g id="node20" class="node"><title>036</title>
<ellipse fill="#ff8a8a" stroke="#b43f3f" cx="820" cy="-34" rx="36.2938" ry="18"/>
<text text-anchor="middle" x="820" y="-30.3" font-family="Times,serif" font-size="14.00">036 (a)</text>
</g>
<!-- 021&#45;&gt;036 -->
<g id="edge17" class="edge"><title>021&#45;&gt;036</title>
<path fill="none" stroke="#b43f3f" stroke-dasharray="1,5" d="M745.269,-104.804C759.416,-91.5898 780.1,-72.2693 796.123,-57.3029"/>
<polygon fill="#b43f3f" stroke="#b43f3f" points="798.646,-59.7352 803.565,-50.3513 793.868,-54.6196 798.646,-59.7352"/>
<text text-anchor="middle" x="801" y="-73.8" font-family="Times,serif" font-size="14.00">1 (97.6)</text>
</g>
<!-- 047 -->
<g id="node21" class="node"><title>047</title>
<ellipse fill="#ff8a8a" stroke="#b43f3f" cx="911" cy="-34" rx="36.2938" ry="18"/>
<text text-anchor="middle" x="911" y="-30.3" font-family="Times,serif" font-size="14.00">047 (a)</text>
</g>
<!-- 021&#45;&gt;047 -->
<g id="edge18" class="edge"><title>021&#45;&gt;047</title>
<path fill="none" stroke="#b43f3f" stroke-dasharray="1,5" d="M757.186,-109.478C763.064,-107.313 769.228,-105.065 775,-103 798.027,-94.7606 804.822,-95.308 827,-85 845.783,-76.2699 865.749,-64.4995 881.5,-54.572"/>
<polygon fill="#b43f3f" stroke="#b43f3f" points="883.709,-57.314 890.247,-48.9767 879.937,-51.4173 883.709,-57.314"/>
<text text-anchor="middle" x="877" y="-73.8" font-family="Times,serif" font-size="14.00">1 (95.1)</text>
</g>
<!-- 01 -->
<g id="node22" class="node"><title>01</title>
<ellipse fill="#ff8a8a" stroke="#b43f3f" cx="730" cy="-208" rx="31.6951" ry="18"/>
<text text-anchor="middle" x="730" y="-204.3" font-family="Times,serif" font-size="14.00">01 (a)</text>
</g>
<!-- P75 -->
<g id="node23" class="node"><title>P75</title>
<ellipse fill="#ff8a8a" stroke="#b43f3f" cx="644" cy="-208" rx="36.2938" ry="18"/>
<text text-anchor="middle" x="644" y="-204.3" font-family="Times,serif" font-size="14.00">P75 (a)</text>
</g>
<!-- 019 -->
<g id="node24" class="node"><title>019</title>
<ellipse fill="#ff8a8a" stroke="#b43f3f" cx="553" cy="-208" rx="36.2938" ry="18"/>
<text text-anchor="middle" x="553" y="-204.3" font-family="Times,serif" font-size="14.00">019 (a)</text>
</g>
<!-- 0211 -->
<g id="node25" class="node"><title>0211</title>
<ellipse fill="#ff8a8a" stroke="#b43f3f" cx="458" cy="-208" rx="40.0939" ry="18"/>
<text text-anchor="middle" x="458" y="-204.3" font-family="Times,serif" font-size="14.00">0211 (a)</text>
</g>
<!-- 02 -->
<g id="node26" class="node"><title>02</title>
<ellipse fill="#ff8a8a" stroke="#b43f3f" cx="368" cy="-208" rx="31.6951" ry="18"/>
<text text-anchor="middle" x="368" y="-204.3" font-family="Times,serif" font-size="14.00">02 (a)</text>
</g>
<!-- 0141 -->
<g id="node27" class="node"><title>0141</title>
<ellipse fill="#ff8a8a" stroke="#b43f3f" cx="278" cy="-208" rx="40.0939" ry="18"/>
<text text-anchor="middle" x="278" y="-204.3" font-family="Times,serif" font-size="14.00">0141 (a)</text>
</g>
</g>
</svg>
