<?xml version="1.0" encoding="UTF-8" standalone="no"?>
<!DOCTYPE svg PUBLIC "-//W3C//DTD SVG 1.1//EN"
 "http://www.w3.org/Graphics/SVG/1.1/DTD/svg11.dtd">
<!-- Generated by graphviz version 2.38.0 (20140413.2041)
 -->
<!-- Title: %3 Pages: 1 -->
<svg width="789pt" height="250pt"
 viewBox="0.00 0.00 789.00 250.00" xmlns="http://www.w3.org/2000/svg" xmlns:xlink="http://www.w3.org/1999/xlink">
<g id="graph0" class="graph" transform="scale(1 1) rotate(0) translate(4 246)">
<title>%3</title>
<polygon fill="white" stroke="none" points="-4,4 -4,-246 785,-246 785,4 -4,4"/>
<g id="clust1" class="cluster"><title>cluster_legend</title>
<path fill="none" stroke="black" d="M20,-106C20,-106 210,-106 210,-106 216,-106 222,-112 222,-118 222,-118 222,-222 222,-222 222,-228 216,-234 210,-234 210,-234 20,-234 20,-234 14,-234 8,-228 8,-222 8,-222 8,-118 8,-118 8,-112 14,-106 20,-106"/>
</g>
<g id="clust2" class="cluster"><title>cluster_reading</title>
<polygon fill="none" stroke="black" points="230,-8 230,-234 773,-234 773,-8 230,-8"/>
</g>
<!-- leg_s -->
<g id="node1" class="node"><title>leg_s</title>
<text text-anchor="middle" x="115" y="-204.3" font-family="Times,serif" font-size="14.00">Textual flow strength</text>
</g>
<!-- leg_e1 -->
<!-- leg_s&#45;&gt;leg_e1 -->
<g id="edge1" class="edge"><title>leg_s&#45;&gt;leg_e1</title>
<path fill="none" stroke="black" stroke-dasharray="1,5" d="M96.6657,-189.686C91.1324,-184.194 85.1607,-177.989 80,-172 70.1708,-160.593 60.0722,-146.779 52.9137,-136.563"/>
<polygon fill="black" stroke="black" points="55.6142,-134.314 47.056,-128.068 49.8514,-138.288 55.6142,-134.314"/>
<text text-anchor="middle" x="95.5" y="-160.8" font-family="Times,serif" font-size="14.00">&lt;=5 &#160;</text>
</g>
<!-- leg_e2 -->
<!-- leg_s&#45;&gt;leg_e2 -->
<g id="edge2" class="edge"><title>leg_s&#45;&gt;leg_e2</title>
<path fill="none" stroke="black" stroke-dasharray="5,2" d="M115,-189.799C115,-174.794 115,-153.174 115,-138.409"/>
<polygon fill="black" stroke="black" points="118.5,-138.293 115,-128.293 111.5,-138.293 118.5,-138.293"/>
<text text-anchor="middle" x="134" y="-160.8" font-family="Times,serif" font-size="14.00"> &#160;&lt;=25</text>
</g>
<!-- leg_e3 -->
<!-- leg_s&#45;&gt;leg_e3 -->
<g id="edge3" class="edge"><title>leg_s&#45;&gt;leg_e3</title>
<path fill="none" stroke="black" d="M138.503,-189.76C144.906,-184.462 151.567,-178.344 157,-172 166.087,-161.39 174.095,-147.689 179.546,-137.313"/>
<polygon fill="black" stroke="black" points="182.722,-138.789 184.091,-128.283 176.469,-135.642 182.722,-138.789"/>
<text text-anchor="middle" x="179" y="-160.8" font-family="Times,serif" font-size="14.00">&gt;25</text>
</g>
<!-- 063 -->
<g id="node5" class="node"><title>063</title>
<ellipse fill="#ff8a8a" stroke="#b43f3f" cx="531" cy="-208" rx="36.2938" ry="18"/>
<text text-anchor="middle" x="531" y="-204.3" font-family="Times,serif" font-size="14.00">063 (a)</text>
</g>
<!-- 045 -->
<g id="node6" class="node"><title>045</title>
<ellipse fill="#ff8a8a" stroke="#b43f3f" cx="275" cy="-121" rx="36.2938" ry="18"/>
<text text-anchor="middle" x="275" y="-117.3" font-family="Times,serif" font-size="14.00">045 (a)</text>
</g>
<!-- 063&#45;&gt;045 -->
<g id="edge4" class="edge"><title>063&#45;&gt;045</title>
<path fill="none" stroke="#b43f3f" stroke-dasharray="1,5" d="M500.753,-197.884C490.993,-195.127 480.089,-192.24 470,-190 422.495,-179.453 407.821,-188.383 362,-172 341.377,-164.626 320.028,-152.437 303.639,-141.939"/>
<polygon fill="#b43f3f" stroke="#b43f3f" points="305.362,-138.883 295.081,-136.323 301.521,-144.736 305.362,-138.883"/>
<text text-anchor="middle" x="384" y="-160.8" font-family="Times,serif" font-size="14.00">1 (93.1)</text>
</g>
<!-- 031 -->
<g id="node7" class="node"><title>031</title>
<ellipse fill="#ff8a8a" stroke="#b43f3f" cx="366" cy="-121" rx="36.2938" ry="18"/>
<text text-anchor="middle" x="366" y="-117.3" font-family="Times,serif" font-size="14.00">031 (a)</text>
</g>
<!-- 063&#45;&gt;031 -->
<g id="edge5" class="edge"><title>063&#45;&gt;031</title>
<path fill="none" stroke="#b43f3f" stroke-dasharray="1,5" d="M499.98,-198.522C480.187,-192.491 454.337,-183.437 433,-172 418.241,-164.089 403.177,-153.153 391.08,-143.525"/>
<polygon fill="#b43f3f" stroke="#b43f3f" points="393.183,-140.724 383.22,-137.122 388.762,-146.151 393.183,-140.724"/>
<text text-anchor="middle" x="455" y="-160.8" font-family="Times,serif" font-size="14.00">1 (95.8)</text>
</g>
<!-- 021 -->
<g id="node8" class="node"><title>021</title>
<ellipse fill="#ff8a8a" stroke="#b43f3f" cx="459" cy="-121" rx="36.2938" ry="18"/>
<text text-anchor="middle" x="459" y="-117.3" font-family="Times,serif" font-size="14.00">021 (a)</text>
</g>
<!-- 063&#45;&gt;021 -->
<g id="edge6" class="edge"><title>063&#45;&gt;021</title>
<path fill="none" stroke="#b43f3f" stroke-dasharray="1,5" d="M512.613,-192.215C505.772,-186.287 498.177,-179.167 492,-172 485.417,-164.363 479.088,-155.341 473.765,-147.077"/>
<polygon fill="#b43f3f" stroke="#b43f3f" points="476.681,-145.14 468.418,-138.509 470.743,-148.846 476.681,-145.14"/>
<text text-anchor="middle" x="514" y="-160.8" font-family="Times,serif" font-size="14.00">1 (93.1)</text>
</g>
<!-- 028 -->
<g id="node9" class="node"><title>028</title>
<ellipse fill="#ff8a8a" stroke="#b43f3f" cx="550" cy="-121" rx="36.2938" ry="18"/>
<text text-anchor="middle" x="550" y="-117.3" font-family="Times,serif" font-size="14.00">028 (a)</text>
</g>
<!-- 063&#45;&gt;028 -->
<g id="edge7" class="edge"><title>063&#45;&gt;028</title>
<path fill="none" stroke="#b43f3f" stroke-dasharray="1,5" d="M534.845,-189.799C537.446,-178.163 540.936,-162.548 543.912,-149.237"/>
<polygon fill="#b43f3f" stroke="#b43f3f" points="547.395,-149.698 546.161,-139.175 540.564,-148.171 547.395,-149.698"/>
<text text-anchor="middle" x="564" y="-160.8" font-family="Times,serif" font-size="14.00">1 (96.6)</text>
</g>
<!-- 07 -->
<g id="node10" class="node"><title>07</title>
<ellipse fill="#ff8a8a" stroke="#b43f3f" cx="637" cy="-121" rx="31.6951" ry="18"/>
<text text-anchor="middle" x="637" y="-117.3" font-family="Times,serif" font-size="14.00">07 (a)</text>
</g>
<!-- 063&#45;&gt;07 -->
<g id="edge8" class="edge"><title>063&#45;&gt;07</title>
<path fill="none" stroke="#b43f3f" stroke-dasharray="1,5" d="M555.543,-194.48C566.549,-188.363 579.408,-180.494 590,-172 599.678,-164.24 609.259,-154.52 617.22,-145.72"/>
<polygon fill="#b43f3f" stroke="#b43f3f" points="620.054,-147.797 624.033,-137.978 614.799,-143.173 620.054,-147.797"/>
<text text-anchor="middle" x="627" y="-160.8" font-family="Times,serif" font-size="14.00">1 (96.6)</text>
</g>
<!-- 011 -->
<g id="node11" class="node"><title>011</title>
<ellipse fill="#ff8a8a" stroke="#b43f3f" cx="723" cy="-121" rx="36.2938" ry="18"/>
<text text-anchor="middle" x="723" y="-117.3" font-family="Times,serif" font-size="14.00">011 (a)</text>
</g>
<!-- 063&#45;&gt;011 -->
<g id="edge9" class="edge"><title>063&#45;&gt;011</title>
<path fill="none" stroke="#b43f3f" stroke-dasharray="1,5" d="M564.477,-200.628C589.639,-195.081 624.525,-185.748 653,-172 668.887,-164.329 685.016,-153.092 697.782,-143.213"/>
<polygon fill="#b43f3f" stroke="#b43f3f" points="699.993,-145.926 705.649,-136.968 695.641,-140.444 699.993,-145.926"/>
<text text-anchor="middle" x="699" y="-160.8" font-family="Times,serif" font-size="14.00">1 (93.1)</text>
</g>
<!-- 013 -->
<g id="node12" class="node"><title>013</title>
<ellipse fill="#ff8a8a" stroke="#b43f3f" cx="274" cy="-34" rx="36.2938" ry="18"/>
<text text-anchor="middle" x="274" y="-30.3" font-family="Times,serif" font-size="14.00">013 (a)</text>
</g>
<!-- 031&#45;&gt;013 -->
<g id="edge10" class="edge"><title>031&#45;&gt;013</title>
<path fill="none" stroke="#b43f3f" stroke-dasharray="1,5" d="M344.671,-105.959C336.057,-99.9094 326.229,-92.5072 318,-85 309.326,-77.0861 300.61,-67.5834 293.25,-58.9974"/>
<polygon fill="#b43f3f" stroke="#b43f3f" points="295.761,-56.5445 286.655,-51.1283 290.396,-61.0408 295.761,-56.5445"/>
<text text-anchor="middle" x="340" y="-73.8" font-family="Times,serif" font-size="14.00">1 (97.1)</text>
</g>
<!-- 017 -->
<g id="node13" class="node"><title>017</title>
<ellipse fill="#ff8a8a" stroke="#b43f3f" cx="365" cy="-34" rx="36.2938" ry="18"/>
<text text-anchor="middle" x="365" y="-30.3" font-family="Times,serif" font-size="14.00">017 (a)</text>
</g>
<!-- 031&#45;&gt;017 -->
<g id="edge11" class="edge"><title>031&#45;&gt;017</title>
<path fill="none" stroke="#b43f3f" stroke-dasharray="1,5" d="M365.798,-102.799C365.661,-91.1626 365.477,-75.5479 365.32,-62.2368"/>
<polygon fill="#b43f3f" stroke="#b43f3f" points="368.82,-62.1335 365.202,-52.1754 361.82,-62.216 368.82,-62.1335"/>
<text text-anchor="middle" x="388" y="-73.8" font-family="Times,serif" font-size="14.00">1 (94.3)</text>
</g>
<!-- 036 -->
<g id="node14" class="node"><title>036</title>
<ellipse fill="#ff8a8a" stroke="#b43f3f" cx="456" cy="-34" rx="36.2938" ry="18"/>
<text text-anchor="middle" x="456" y="-30.3" font-family="Times,serif" font-size="14.00">036 (a)</text>
</g>
<!-- 021&#45;&gt;036 -->
<g id="edge12" class="edge"><title>021&#45;&gt;036</title>
<path fill="none" stroke="#b43f3f" stroke-dasharray="1,5" d="M458.393,-102.799C457.982,-91.1626 457.431,-75.5479 456.961,-62.2368"/>
<polygon fill="#b43f3f" stroke="#b43f3f" points="460.457,-62.0457 456.606,-52.1754 453.461,-62.2927 460.457,-62.0457"/>
<text text-anchor="middle" x="480" y="-73.8" font-family="Times,serif" font-size="14.00">1 (97.6)</text>
</g>
<!-- 047 -->
<g id="node15" class="node"><title>047</title>
<ellipse fill="#ff8a8a" stroke="#b43f3f" cx="547" cy="-34" rx="36.2938" ry="18"/>
<text text-anchor="middle" x="547" y="-30.3" font-family="Times,serif" font-size="14.00">047 (a)</text>
</g>
<!-- 021&#45;&gt;047 -->
<g id="edge13" class="edge"><title>021&#45;&gt;047</title>
<path fill="none" stroke="#b43f3f" stroke-dasharray="1,5" d="M479.993,-106.038C488.444,-100 498.051,-92.5857 506,-85 514.162,-77.211 522.234,-67.8317 529.029,-59.3112"/>
<polygon fill="#b43f3f" stroke="#b43f3f" points="531.985,-61.2121 535.355,-51.1676 526.456,-56.918 531.985,-61.2121"/>
<text text-anchor="middle" x="542" y="-73.8" font-family="Times,serif" font-size="14.00">1 (95.1)</text>
</g>
<!-- 030 -->
<g id="node16" class="node"><title>030</title>
<ellipse fill="#ff8a8a" stroke="#b43f3f" cx="638" cy="-34" rx="36.2938" ry="18"/>
<text text-anchor="middle" x="638" y="-30.3" font-family="Times,serif" font-size="14.00">030 (a)</text>
</g>
<!-- 07&#45;&gt;030 -->
<g id="edge14" class="edge"><title>07&#45;&gt;030</title>
<path fill="none" stroke="#b43f3f" stroke-dasharray="1,5" d="M637.202,-102.799C637.339,-91.1626 637.523,-75.5479 637.68,-62.2368"/>
<polygon fill="#b43f3f" stroke="#b43f3f" points="641.18,-62.216 637.798,-52.1754 634.18,-62.1335 641.18,-62.216"/>
<text text-anchor="middle" x="659" y="-73.8" font-family="Times,serif" font-size="14.00">1 (95.1)</text>
</g>
<!-- 034 -->
<g id="node17" class="node"><title>034</title>
<ellipse fill="#ff8a8a" stroke="#b43f3f" cx="729" cy="-34" rx="36.2938" ry="18"/>
<text text-anchor="middle" x="729" y="-30.3" font-family="Times,serif" font-size="14.00">034 (a)</text>
</g>
<!-- 07&#45;&gt;034 -->
<g id="edge15" class="edge"><title>07&#45;&gt;034</title>
<path fill="none" stroke="#b43f3f" stroke-dasharray="1,5" d="M657.377,-106.626C666.213,-100.458 676.467,-92.7852 685,-85 693.674,-77.0861 702.39,-67.5834 709.75,-58.9974"/>
<polygon fill="#b43f3f" stroke="#b43f3f" points="712.604,-61.0408 716.345,-51.1283 707.239,-56.5445 712.604,-61.0408"/>
<text text-anchor="middle" x="721" y="-73.8" font-family="Times,serif" font-size="14.00">1 (95.1)</text>
</g>
<!-- 044 -->
<g id="node18" class="node"><title>044</title>
<ellipse fill="#ff8a8a" stroke="#b43f3f" cx="425" cy="-208" rx="36.2938" ry="18"/>
<text text-anchor="middle" x="425" y="-204.3" font-family="Times,serif" font-size="14.00">044 (a)</text>
</g>
<!-- 0141 -->
<g id="node19" class="node"><title>0141</title>
<ellipse fill="#ff8a8a" stroke="#b43f3f" cx="301" cy="-208" rx="40.0939" ry="18"/>
<text text-anchor="middle" x="301" y="-204.3" font-family="Times,serif" font-size="14.00">0141 (a)</text>
</g>
</g>
</svg>
