<?xml version="1.0" encoding="UTF-8" standalone="no"?>
<!DOCTYPE svg PUBLIC "-//W3C//DTD SVG 1.1//EN"
 "http://www.w3.org/Graphics/SVG/1.1/DTD/svg11.dtd">
<!-- Generated by graphviz version 2.38.0 (20140413.2041)
 -->
<!-- Title: %3 Pages: 1 -->
<svg width="326pt" height="141pt"
 viewBox="0.00 0.00 326.00 141.00" xmlns="http://www.w3.org/2000/svg" xmlns:xlink="http://www.w3.org/1999/xlink">
<g id="graph0" class="graph" transform="scale(1 1) rotate(0) translate(4 137)">
<title>%3</title>
<polygon fill="white" stroke="none" points="-4,4 -4,-137 322,-137 322,4 -4,4"/>
<g id="clust1" class="cluster"><title>cluster_reading</title>
<polygon fill="none" stroke="black" points="8,-73 8,-125 88,-125 88,-73 8,-73"/>
</g>
<g id="clust2" class="cluster"><title>cluster_legend</title>
<path fill="none" stroke="black" d="M108,-8C108,-8 298,-8 298,-8 304,-8 310,-14 310,-20 310,-20 310,-113 310,-113 310,-119 304,-125 298,-125 298,-125 108,-125 108,-125 102,-125 96,-119 96,-113 96,-113 96,-20 96,-20 96,-14 102,-8 108,-8"/>
</g>
<!-- 02 -->
<g id="node1" class="node"><title>02</title>
<ellipse fill="#cea8f4" stroke="#835da9" cx="48" cy="-99" rx="32.4942" ry="18"/>
<text text-anchor="middle" x="48" y="-95.3" font-family="Times,serif" font-size="14.00">02 (b)</text>
</g>
<!-- leg_s -->
<g id="node2" class="node"><title>leg_s</title>
<text text-anchor="middle" x="203" y="-95.3" font-family="Times,serif" font-size="14.00">Textual flow strength</text>
</g>
<!-- leg_e1 -->
<!-- leg_s&#45;&gt;leg_e1 -->
<g id="edge1" class="edge"><title>leg_s&#45;&gt;leg_e1</title>
<path fill="none" stroke="black" stroke-dasharray="1,5" d="M185.82,-80.9995C180.117,-75.3088 173.756,-68.9096 168,-63 159.856,-54.6386 150.839,-45.1391 143.745,-37.609"/>
<polygon fill="black" stroke="black" points="145.866,-34.7543 136.469,-29.8601 140.763,-39.5459 145.866,-34.7543"/>
<text text-anchor="middle" x="183.5" y="-51.8" font-family="Times,serif" font-size="14.00">&lt;=5 &#160;</text>
</g>
<!-- leg_e2 -->
<!-- leg_s&#45;&gt;leg_e2 -->
<g id="edge2" class="edge"><title>leg_s&#45;&gt;leg_e2</title>
<path fill="none" stroke="black" stroke-dasharray="5,2" d="M203,-80.8369C203,-68.6686 203,-52.4362 203,-40.4345"/>
<polygon fill="black" stroke="black" points="206.5,-40.1502 203,-30.1503 199.5,-40.1503 206.5,-40.1502"/>
<text text-anchor="middle" x="222" y="-51.8" font-family="Times,serif" font-size="14.00"> &#160;&lt;=25</text>
</g>
<!-- leg_e3 -->
<!-- leg_s&#45;&gt;leg_e3 -->
<g id="edge3" class="edge"><title>leg_s&#45;&gt;leg_e3</title>
<path fill="none" stroke="black" d="M225.608,-80.7027C232.13,-75.311 239.079,-69.1572 245,-63 252.325,-55.3835 259.576,-46.0214 265.114,-38.3792"/>
<polygon fill="black" stroke="black" points="268.017,-40.3356 270.909,-30.1433 262.292,-36.3072 268.017,-40.3356"/>
<text text-anchor="middle" x="268" y="-51.8" font-family="Times,serif" font-size="14.00">&gt;25</text>
</g>
</g>
</svg>
