<?xml version="1.0" encoding="UTF-8" standalone="no"?>
<!DOCTYPE svg PUBLIC "-//W3C//DTD SVG 1.1//EN"
 "http://www.w3.org/Graphics/SVG/1.1/DTD/svg11.dtd">
<!-- Generated by graphviz version 2.38.0 (20140413.2041)
 -->
<!-- Title: %3 Pages: 1 -->
<svg width="1062pt" height="250pt"
 viewBox="0.00 0.00 1062.00 250.00" xmlns="http://www.w3.org/2000/svg" xmlns:xlink="http://www.w3.org/1999/xlink">
<g id="graph0" class="graph" transform="scale(1 1) rotate(0) translate(4 246)">
<title>%3</title>
<polygon fill="white" stroke="none" points="-4,4 -4,-246 1058,-246 1058,4 -4,4"/>
<g id="clust1" class="cluster"><title>cluster_legend</title>
<path fill="none" stroke="black" d="M20,-106C20,-106 210,-106 210,-106 216,-106 222,-112 222,-118 222,-118 222,-222 222,-222 222,-228 216,-234 210,-234 210,-234 20,-234 20,-234 14,-234 8,-228 8,-222 8,-222 8,-118 8,-118 8,-112 14,-106 20,-106"/>
</g>
<g id="clust2" class="cluster"><title>cluster_reading</title>
<polygon fill="none" stroke="black" points="230,-8 230,-234 1046,-234 1046,-8 230,-8"/>
</g>
<!-- leg_s -->
<g id="node1" class="node"><title>leg_s</title>
<text text-anchor="middle" x="115" y="-204.3" font-family="Times,serif" font-size="14.00">Textual flow strength</text>
</g>
<!-- leg_e1 -->
<!-- leg_s&#45;&gt;leg_e1 -->
<g id="edge1" class="edge"><title>leg_s&#45;&gt;leg_e1</title>
<path fill="none" stroke="black" stroke-dasharray="1,5" d="M96.6657,-189.686C91.1324,-184.194 85.1607,-177.989 80,-172 70.1708,-160.593 60.0722,-146.779 52.9137,-136.563"/>
<polygon fill="black" stroke="black" points="55.6142,-134.314 47.056,-128.068 49.8514,-138.288 55.6142,-134.314"/>
<text text-anchor="middle" x="95.5" y="-160.8" font-family="Times,serif" font-size="14.00">&lt;=5 &#160;</text>
</g>
<!-- leg_e2 -->
<!-- leg_s&#45;&gt;leg_e2 -->
<g id="edge2" class="edge"><title>leg_s&#45;&gt;leg_e2</title>
<path fill="none" stroke="black" stroke-dasharray="5,2" d="M115,-189.799C115,-174.794 115,-153.174 115,-138.409"/>
<polygon fill="black" stroke="black" points="118.5,-138.293 115,-128.293 111.5,-138.293 118.5,-138.293"/>
<text text-anchor="middle" x="134" y="-160.8" font-family="Times,serif" font-size="14.00"> &#160;&lt;=25</text>
</g>
<!-- leg_e3 -->
<!-- leg_s&#45;&gt;leg_e3 -->
<g id="edge3" class="edge"><title>leg_s&#45;&gt;leg_e3</title>
<path fill="none" stroke="black" d="M138.503,-189.76C144.906,-184.462 151.567,-178.344 157,-172 166.087,-161.39 174.095,-147.689 179.546,-137.313"/>
<polygon fill="black" stroke="black" points="182.722,-138.789 184.091,-128.283 176.469,-135.642 182.722,-138.789"/>
<text text-anchor="middle" x="179" y="-160.8" font-family="Times,serif" font-size="14.00">&gt;25</text>
</g>
<!-- A -->
<g id="node5" class="node"><title>A</title>
<ellipse fill="#ff8a8a" stroke="#b43f3f" cx="982" cy="-208" rx="29.4969" ry="18"/>
<text text-anchor="middle" x="982" y="-204.3" font-family="Times,serif" font-size="14.00">A (a)</text>
</g>
<!-- P75 -->
<g id="node6" class="node"><title>P75</title>
<ellipse fill="#ff8a8a" stroke="#b43f3f" cx="829" cy="-121" rx="36.2938" ry="18"/>
<text text-anchor="middle" x="829" y="-117.3" font-family="Times,serif" font-size="14.00">P75 (a)</text>
</g>
<!-- A&#45;&gt;P75 -->
<g id="edge4" class="edge"><title>A&#45;&gt;P75</title>
<path fill="none" stroke="#b43f3f" stroke-dasharray="1,5" d="M959.06,-196.546C953.822,-194.287 948.252,-191.983 943,-190 918.542,-180.765 909.8,-184.79 887,-172 874.065,-164.744 861.388,-154.316 851.202,-144.859"/>
<polygon fill="#b43f3f" stroke="#b43f3f" points="853.574,-142.284 843.935,-137.886 848.727,-147.335 853.574,-142.284"/>
<text text-anchor="middle" x="909" y="-160.8" font-family="Times,serif" font-size="14.00">1 (93.3)</text>
</g>
<!-- 019 -->
<g id="node7" class="node"><title>019</title>
<ellipse fill="#ff8a8a" stroke="#b43f3f" cx="920" cy="-121" rx="36.2938" ry="18"/>
<text text-anchor="middle" x="920" y="-117.3" font-family="Times,serif" font-size="14.00">019 (a)</text>
</g>
<!-- A&#45;&gt;019 -->
<g id="edge5" class="edge"><title>A&#45;&gt;019</title>
<path fill="none" stroke="#b43f3f" stroke-dasharray="1,5" d="M964.36,-193.24C957.425,-187.233 949.761,-179.787 944,-172 938.707,-164.846 934.108,-156.341 930.391,-148.392"/>
<polygon fill="#b43f3f" stroke="#b43f3f" points="933.536,-146.848 926.308,-139.101 927.127,-149.664 933.536,-146.848"/>
<text text-anchor="middle" x="966" y="-160.8" font-family="Times,serif" font-size="14.00">1 (93.3)</text>
</g>
<!-- 03 -->
<g id="node8" class="node"><title>03</title>
<ellipse fill="#ff8a8a" stroke="#b43f3f" cx="1006" cy="-121" rx="31.6951" ry="18"/>
<text text-anchor="middle" x="1006" y="-117.3" font-family="Times,serif" font-size="14.00">03 (a)</text>
</g>
<!-- A&#45;&gt;03 -->
<g id="edge6" class="edge"><title>A&#45;&gt;03</title>
<path fill="none" stroke="#b43f3f" stroke-dasharray="1,5" d="M986.742,-190.207C990.073,-178.409 994.599,-162.378 998.427,-148.822"/>
<polygon fill="#b43f3f" stroke="#b43f3f" points="1001.84,-149.624 1001.19,-139.049 995.1,-147.722 1001.84,-149.624"/>
<text text-anchor="middle" x="1017" y="-160.8" font-family="Times,serif" font-size="14.00">1 (93.3)</text>
</g>
<!-- 032 -->
<g id="node23" class="node"><title>032</title>
<ellipse fill="#ff8a8a" stroke="#b43f3f" cx="1002" cy="-34" rx="36.2938" ry="18"/>
<text text-anchor="middle" x="1002" y="-30.3" font-family="Times,serif" font-size="14.00">032 (a)</text>
</g>
<!-- 03&#45;&gt;032 -->
<g id="edge20" class="edge"><title>03&#45;&gt;032</title>
<path fill="none" stroke="#b43f3f" stroke-dasharray="1,5" d="M1005.19,-102.799C1004.64,-91.1626 1003.91,-75.5479 1003.28,-62.2368"/>
<polygon fill="#b43f3f" stroke="#b43f3f" points="1006.77,-61.9998 1002.81,-52.1754 999.782,-62.3289 1006.77,-61.9998"/>
<text text-anchor="middle" x="1026" y="-73.8" font-family="Times,serif" font-size="14.00">1 (91.7)</text>
</g>
<!-- 07 -->
<g id="node9" class="node"><title>07</title>
<ellipse fill="#ff8a8a" stroke="#b43f3f" cx="379" cy="-121" rx="31.6951" ry="18"/>
<text text-anchor="middle" x="379" y="-117.3" font-family="Times,serif" font-size="14.00">07 (a)</text>
</g>
<!-- 013 -->
<g id="node10" class="node"><title>013</title>
<ellipse fill="#ff8a8a" stroke="#b43f3f" cx="274" cy="-34" rx="36.2938" ry="18"/>
<text text-anchor="middle" x="274" y="-30.3" font-family="Times,serif" font-size="14.00">013 (a)</text>
</g>
<!-- 07&#45;&gt;013 -->
<g id="edge7" class="edge"><title>07&#45;&gt;013</title>
<path fill="none" stroke="#b43f3f" stroke-dasharray="1,5" d="M357.366,-107.739C346.917,-101.446 334.418,-93.3568 324,-85 313.927,-76.92 303.691,-67.0385 295.125,-58.2"/>
<polygon fill="#b43f3f" stroke="#b43f3f" points="297.498,-55.6157 288.075,-50.7729 292.421,-60.4351 297.498,-55.6157"/>
<text text-anchor="middle" x="346" y="-73.8" font-family="Times,serif" font-size="14.00">2 (95.1)</text>
</g>
<!-- 017 -->
<g id="node11" class="node"><title>017</title>
<ellipse fill="#ff8a8a" stroke="#b43f3f" cx="365" cy="-34" rx="36.2938" ry="18"/>
<text text-anchor="middle" x="365" y="-30.3" font-family="Times,serif" font-size="14.00">017 (a)</text>
</g>
<!-- 07&#45;&gt;017 -->
<g id="edge8" class="edge"><title>07&#45;&gt;017</title>
<path fill="none" stroke="#b43f3f" stroke-dasharray="1,5" d="M376.167,-102.799C374.25,-91.1626 371.678,-75.5479 369.486,-62.2368"/>
<polygon fill="#b43f3f" stroke="#b43f3f" points="372.908,-61.4737 367.829,-52.1754 366.001,-62.6113 372.908,-61.4737"/>
<text text-anchor="middle" x="395" y="-73.8" font-family="Times,serif" font-size="14.00">2 (92.7)</text>
</g>
<!-- 037 -->
<g id="node12" class="node"><title>037</title>
<ellipse fill="#ff8a8a" stroke="#b43f3f" cx="456" cy="-34" rx="36.2938" ry="18"/>
<text text-anchor="middle" x="456" y="-30.3" font-family="Times,serif" font-size="14.00">037 (a)</text>
</g>
<!-- 07&#45;&gt;037 -->
<g id="edge9" class="edge"><title>07&#45;&gt;037</title>
<path fill="none" stroke="#b43f3f" stroke-dasharray="1,5" d="M397.506,-106.333C405.186,-100.229 413.934,-92.6863 421,-85 427.952,-77.4384 434.657,-68.4341 440.306,-60.164"/>
<polygon fill="#b43f3f" stroke="#b43f3f" points="443.385,-61.8527 445.983,-51.5811 437.547,-57.991 443.385,-61.8527"/>
<text text-anchor="middle" x="455" y="-73.8" font-family="Times,serif" font-size="14.00">1 (97.5)</text>
</g>
<!-- 034 -->
<g id="node13" class="node"><title>034</title>
<ellipse fill="#ff8a8a" stroke="#b43f3f" cx="547" cy="-34" rx="36.2938" ry="18"/>
<text text-anchor="middle" x="547" y="-30.3" font-family="Times,serif" font-size="14.00">034 (a)</text>
</g>
<!-- 07&#45;&gt;034 -->
<g id="edge10" class="edge"><title>07&#45;&gt;034</title>
<path fill="none" stroke="#b43f3f" stroke-dasharray="1,5" d="M403.552,-109.324C408.93,-107.124 414.624,-104.902 420,-103 446.649,-93.5734 455.768,-97.742 481,-85 495.909,-77.4711 510.88,-66.4769 522.786,-56.7139"/>
<polygon fill="#b43f3f" stroke="#b43f3f" points="525.111,-59.3313 530.5,-50.2092 520.599,-53.9798 525.111,-59.3313"/>
<text text-anchor="middle" x="527" y="-73.8" font-family="Times,serif" font-size="14.00">1 (95.1)</text>
</g>
<!-- 030 -->
<g id="node14" class="node"><title>030</title>
<ellipse fill="#ff8a8a" stroke="#b43f3f" cx="638" cy="-34" rx="36.2938" ry="18"/>
<text text-anchor="middle" x="638" y="-30.3" font-family="Times,serif" font-size="14.00">030 (a)</text>
</g>
<!-- 07&#45;&gt;030 -->
<g id="edge11" class="edge"><title>07&#45;&gt;030</title>
<path fill="none" stroke="#b43f3f" stroke-dasharray="1,5" d="M402.92,-108.87C408.436,-106.646 414.346,-104.527 420,-103 477.587,-87.4468 496.629,-104.505 553,-85 573.341,-77.9618 594.203,-65.7779 610.168,-55.1998"/>
<polygon fill="#b43f3f" stroke="#b43f3f" points="612.201,-58.0501 618.5,-49.5311 608.263,-52.2626 612.201,-58.0501"/>
<text text-anchor="middle" x="607" y="-73.8" font-family="Times,serif" font-size="14.00">1 (95.1)</text>
</g>
<!-- 063 -->
<g id="node15" class="node"><title>063</title>
<ellipse fill="#ff8a8a" stroke="#b43f3f" cx="898" cy="-208" rx="36.2938" ry="18"/>
<text text-anchor="middle" x="898" y="-204.3" font-family="Times,serif" font-size="14.00">063 (a)</text>
</g>
<!-- 063&#45;&gt;07 -->
<g id="edge12" class="edge"><title>063&#45;&gt;07</title>
<path fill="none" stroke="#b43f3f" stroke-dasharray="1,5" d="M871.76,-195.523C865.704,-193.317 859.214,-191.293 853,-190 693.553,-156.819 645.142,-210.928 487,-172 459.212,-165.16 429.879,-151.085 408.807,-139.607"/>
<polygon fill="#b43f3f" stroke="#b43f3f" points="410.466,-136.524 400.027,-134.713 407.058,-142.639 410.466,-136.524"/>
<text text-anchor="middle" x="509" y="-160.8" font-family="Times,serif" font-size="14.00">1 (96.6)</text>
</g>
<!-- 011 -->
<g id="node16" class="node"><title>011</title>
<ellipse fill="#ff8a8a" stroke="#b43f3f" cx="465" cy="-121" rx="36.2938" ry="18"/>
<text text-anchor="middle" x="465" y="-117.3" font-family="Times,serif" font-size="14.00">011 (a)</text>
</g>
<!-- 063&#45;&gt;011 -->
<g id="edge13" class="edge"><title>063&#45;&gt;011</title>
<path fill="none" stroke="#b43f3f" stroke-dasharray="1,5" d="M871.266,-195.42C865.349,-193.277 859.04,-191.306 853,-190 731.982,-163.835 695.098,-202.109 575,-172 547.349,-165.068 518.059,-151.407 496.661,-140.113"/>
<polygon fill="#b43f3f" stroke="#b43f3f" points="498.173,-136.952 487.71,-135.285 494.85,-143.113 498.173,-136.952"/>
<text text-anchor="middle" x="597" y="-160.8" font-family="Times,serif" font-size="14.00">1 (93.1)</text>
</g>
<!-- 045 -->
<g id="node17" class="node"><title>045</title>
<ellipse fill="#ff8a8a" stroke="#b43f3f" cx="556" cy="-121" rx="36.2938" ry="18"/>
<text text-anchor="middle" x="556" y="-117.3" font-family="Times,serif" font-size="14.00">045 (a)</text>
</g>
<!-- 063&#45;&gt;045 -->
<g id="edge14" class="edge"><title>063&#45;&gt;045</title>
<path fill="none" stroke="#b43f3f" stroke-dasharray="1,5" d="M871.236,-195.552C865.321,-193.401 859.021,-191.393 853,-190 769.498,-170.683 743.626,-194.774 661,-172 634.837,-164.789 607.201,-151.366 586.852,-140.242"/>
<polygon fill="#b43f3f" stroke="#b43f3f" points="588.484,-137.145 578.047,-135.324 585.07,-143.256 588.484,-137.145"/>
<text text-anchor="middle" x="683" y="-160.8" font-family="Times,serif" font-size="14.00">1 (93.1)</text>
</g>
<!-- 021 -->
<g id="node18" class="node"><title>021</title>
<ellipse fill="#ff8a8a" stroke="#b43f3f" cx="647" cy="-121" rx="36.2938" ry="18"/>
<text text-anchor="middle" x="647" y="-117.3" font-family="Times,serif" font-size="14.00">021 (a)</text>
</g>
<!-- 063&#45;&gt;021 -->
<g id="edge15" class="edge"><title>063&#45;&gt;021</title>
<path fill="none" stroke="#b43f3f" stroke-dasharray="1,5" d="M870.675,-195.702C864.906,-193.593 858.806,-191.564 853,-190 806.013,-177.341 791.215,-187.236 745,-172 721.305,-164.188 696.275,-151.33 677.443,-140.61"/>
<polygon fill="#b43f3f" stroke="#b43f3f" points="679.134,-137.545 668.729,-135.55 675.619,-143.598 679.134,-137.545"/>
<text text-anchor="middle" x="767" y="-160.8" font-family="Times,serif" font-size="14.00">1 (93.1)</text>
</g>
<!-- 028 -->
<g id="node19" class="node"><title>028</title>
<ellipse fill="#ff8a8a" stroke="#b43f3f" cx="738" cy="-121" rx="36.2938" ry="18"/>
<text text-anchor="middle" x="738" y="-117.3" font-family="Times,serif" font-size="14.00">028 (a)</text>
</g>
<!-- 063&#45;&gt;028 -->
<g id="edge16" class="edge"><title>063&#45;&gt;028</title>
<path fill="none" stroke="#b43f3f" stroke-dasharray="1,5" d="M870.503,-196.139C854.85,-189.669 835.028,-180.985 818,-172 800.726,-162.886 782.186,-151.413 767.308,-141.757"/>
<polygon fill="#b43f3f" stroke="#b43f3f" points="768.842,-138.578 758.561,-136.017 765.001,-144.43 768.842,-138.578"/>
<text text-anchor="middle" x="840" y="-160.8" font-family="Times,serif" font-size="14.00">1 (96.6)</text>
</g>
<!-- 038 -->
<g id="node20" class="node"><title>038</title>
<ellipse fill="#ff8a8a" stroke="#b43f3f" cx="729" cy="-34" rx="36.2938" ry="18"/>
<text text-anchor="middle" x="729" y="-30.3" font-family="Times,serif" font-size="14.00">038 (a)</text>
</g>
<!-- 045&#45;&gt;038 -->
<g id="edge17" class="edge"><title>045&#45;&gt;038</title>
<path fill="none" stroke="#b43f3f" stroke-dasharray="1,5" d="M584.095,-109.213C589.98,-107.067 596.17,-104.894 602,-103 630.103,-93.8713 639.69,-98.448 666,-85 680.307,-77.6871 694.481,-66.8462 705.751,-57.1264"/>
<polygon fill="#b43f3f" stroke="#b43f3f" points="708.262,-59.5769 713.404,-50.3136 703.608,-54.3484 708.262,-59.5769"/>
<text text-anchor="middle" x="711" y="-73.8" font-family="Times,serif" font-size="14.00">1 (92.7)</text>
</g>
<!-- 036 -->
<g id="node21" class="node"><title>036</title>
<ellipse fill="#ff8a8a" stroke="#b43f3f" cx="820" cy="-34" rx="36.2938" ry="18"/>
<text text-anchor="middle" x="820" y="-30.3" font-family="Times,serif" font-size="14.00">036 (a)</text>
</g>
<!-- 021&#45;&gt;036 -->
<g id="edge18" class="edge"><title>021&#45;&gt;036</title>
<path fill="none" stroke="#b43f3f" stroke-dasharray="1,5" d="M675.593,-109.488C697.524,-101.313 725.865,-90.4692 737,-85 755.302,-76.0109 774.88,-64.325 790.423,-54.5112"/>
<polygon fill="#b43f3f" stroke="#b43f3f" points="792.528,-57.3195 799.068,-48.9838 788.757,-51.422 792.528,-57.3195"/>
<text text-anchor="middle" x="785" y="-73.8" font-family="Times,serif" font-size="14.00">1 (97.6)</text>
</g>
<!-- 047 -->
<g id="node22" class="node"><title>047</title>
<ellipse fill="#ff8a8a" stroke="#b43f3f" cx="911" cy="-34" rx="36.2938" ry="18"/>
<text text-anchor="middle" x="911" y="-30.3" font-family="Times,serif" font-size="14.00">047 (a)</text>
</g>
<!-- 021&#45;&gt;047 -->
<g id="edge19" class="edge"><title>021&#45;&gt;047</title>
<path fill="none" stroke="#b43f3f" stroke-dasharray="1,5" d="M674.441,-108.829C680.482,-106.66 686.9,-104.575 693,-103 744.366,-89.7369 760.438,-101.058 811,-85 835.165,-77.3254 860.706,-64.4649 879.926,-53.7088"/>
<polygon fill="#b43f3f" stroke="#b43f3f" points="881.872,-56.628 888.82,-48.6296 878.401,-50.5494 881.872,-56.628"/>
<text text-anchor="middle" x="869" y="-73.8" font-family="Times,serif" font-size="14.00">1 (95.1)</text>
</g>
<!-- 01 -->
<g id="node24" class="node"><title>01</title>
<ellipse fill="#ff8a8a" stroke="#b43f3f" cx="812" cy="-208" rx="31.6951" ry="18"/>
<text text-anchor="middle" x="812" y="-204.3" font-family="Times,serif" font-size="14.00">01 (a)</text>
</g>
<!-- 044 -->
<g id="node25" class="node"><title>044</title>
<ellipse fill="#ff8a8a" stroke="#b43f3f" cx="726" cy="-208" rx="36.2938" ry="18"/>
<text text-anchor="middle" x="726" y="-204.3" font-family="Times,serif" font-size="14.00">044 (a)</text>
</g>
<!-- 0211 -->
<g id="node26" class="node"><title>0211</title>
<ellipse fill="#ff8a8a" stroke="#b43f3f" cx="631" cy="-208" rx="40.0939" ry="18"/>
<text text-anchor="middle" x="631" y="-204.3" font-family="Times,serif" font-size="14.00">0211 (a)</text>
</g>
<!-- 091 -->
<g id="node27" class="node"><title>091</title>
<ellipse fill="#ff8a8a" stroke="#b43f3f" cx="536" cy="-208" rx="36.2938" ry="18"/>
<text text-anchor="middle" x="536" y="-204.3" font-family="Times,serif" font-size="14.00">091 (a)</text>
</g>
<!-- 02 -->
<g id="node28" class="node"><title>02</title>
<ellipse fill="#ff8a8a" stroke="#b43f3f" cx="450" cy="-208" rx="31.6951" ry="18"/>
<text text-anchor="middle" x="450" y="-204.3" font-family="Times,serif" font-size="14.00">02 (a)</text>
</g>
<!-- 0141 -->
<g id="node29" class="node"><title>0141</title>
<ellipse fill="#ff8a8a" stroke="#b43f3f" cx="360" cy="-208" rx="40.0939" ry="18"/>
<text text-anchor="middle" x="360" y="-204.3" font-family="Times,serif" font-size="14.00">0141 (a)</text>
</g>
<!-- 05 -->
<g id="node30" class="node"><title>05</title>
<ellipse fill="#ff8a8a" stroke="#b43f3f" cx="270" cy="-208" rx="31.6951" ry="18"/>
<text text-anchor="middle" x="270" y="-204.3" font-family="Times,serif" font-size="14.00">05 (a)</text>
</g>
</g>
</svg>
