<?xml version="1.0" encoding="UTF-8" standalone="no"?>
<!DOCTYPE svg PUBLIC "-//W3C//DTD SVG 1.1//EN"
 "http://www.w3.org/Graphics/SVG/1.1/DTD/svg11.dtd">
<!-- Generated by graphviz version 2.38.0 (20140413.2041)
 -->
<!-- Title: %3 Pages: 1 -->
<svg width="1140pt" height="250pt"
 viewBox="0.00 0.00 1140.00 250.00" xmlns="http://www.w3.org/2000/svg" xmlns:xlink="http://www.w3.org/1999/xlink">
<g id="graph0" class="graph" transform="scale(1 1) rotate(0) translate(4 246)">
<title>%3</title>
<polygon fill="white" stroke="none" points="-4,4 -4,-246 1136,-246 1136,4 -4,4"/>
<g id="clust1" class="cluster"><title>cluster_legend</title>
<path fill="none" stroke="black" d="M20,-106C20,-106 210,-106 210,-106 216,-106 222,-112 222,-118 222,-118 222,-222 222,-222 222,-228 216,-234 210,-234 210,-234 20,-234 20,-234 14,-234 8,-228 8,-222 8,-222 8,-118 8,-118 8,-112 14,-106 20,-106"/>
</g>
<g id="clust2" class="cluster"><title>cluster_reading</title>
<polygon fill="none" stroke="black" points="230,-8 230,-234 1124,-234 1124,-8 230,-8"/>
</g>
<!-- leg_s -->
<g id="node1" class="node"><title>leg_s</title>
<text text-anchor="middle" x="115" y="-204.3" font-family="Times,serif" font-size="14.00">Textual flow strength</text>
</g>
<!-- leg_e1 -->
<!-- leg_s&#45;&gt;leg_e1 -->
<g id="edge1" class="edge"><title>leg_s&#45;&gt;leg_e1</title>
<path fill="none" stroke="black" stroke-dasharray="1,5" d="M96.6657,-189.686C91.1324,-184.194 85.1607,-177.989 80,-172 70.1708,-160.593 60.0722,-146.779 52.9137,-136.563"/>
<polygon fill="black" stroke="black" points="55.6142,-134.314 47.056,-128.068 49.8514,-138.288 55.6142,-134.314"/>
<text text-anchor="middle" x="95.5" y="-160.8" font-family="Times,serif" font-size="14.00">&lt;=5 &#160;</text>
</g>
<!-- leg_e2 -->
<!-- leg_s&#45;&gt;leg_e2 -->
<g id="edge2" class="edge"><title>leg_s&#45;&gt;leg_e2</title>
<path fill="none" stroke="black" stroke-dasharray="5,2" d="M115,-189.799C115,-174.794 115,-153.174 115,-138.409"/>
<polygon fill="black" stroke="black" points="118.5,-138.293 115,-128.293 111.5,-138.293 118.5,-138.293"/>
<text text-anchor="middle" x="134" y="-160.8" font-family="Times,serif" font-size="14.00"> &#160;&lt;=25</text>
</g>
<!-- leg_e3 -->
<!-- leg_s&#45;&gt;leg_e3 -->
<g id="edge3" class="edge"><title>leg_s&#45;&gt;leg_e3</title>
<path fill="none" stroke="black" d="M138.503,-189.76C144.906,-184.462 151.567,-178.344 157,-172 166.087,-161.39 174.095,-147.689 179.546,-137.313"/>
<polygon fill="black" stroke="black" points="182.722,-138.789 184.091,-128.283 176.469,-135.642 182.722,-138.789"/>
<text text-anchor="middle" x="179" y="-160.8" font-family="Times,serif" font-size="14.00">&gt;25</text>
</g>
<!-- 044 -->
<g id="node5" class="node"><title>044</title>
<ellipse fill="#ff8a8a" stroke="#b43f3f" cx="1080" cy="-208" rx="36.2938" ry="18"/>
<text text-anchor="middle" x="1080" y="-204.3" font-family="Times,serif" font-size="14.00">044 (a)</text>
</g>
<!-- 022 -->
<g id="node6" class="node"><title>022</title>
<ellipse fill="#ff8a8a" stroke="#b43f3f" cx="1080" cy="-121" rx="36.2938" ry="18"/>
<text text-anchor="middle" x="1080" y="-117.3" font-family="Times,serif" font-size="14.00">022 (a)</text>
</g>
<!-- 044&#45;&gt;022 -->
<g id="edge4" class="edge"><title>044&#45;&gt;022</title>
<path fill="none" stroke="#b43f3f" stroke-dasharray="1,5" d="M1080,-189.799C1080,-178.163 1080,-162.548 1080,-149.237"/>
<polygon fill="#b43f3f" stroke="#b43f3f" points="1083.5,-149.175 1080,-139.175 1076.5,-149.175 1083.5,-149.175"/>
<text text-anchor="middle" x="1102" y="-160.8" font-family="Times,serif" font-size="14.00">1 (91.7)</text>
</g>
<!-- 07 -->
<g id="node7" class="node"><title>07</title>
<ellipse fill="#ff8a8a" stroke="#b43f3f" cx="630" cy="-121" rx="31.6951" ry="18"/>
<text text-anchor="middle" x="630" y="-117.3" font-family="Times,serif" font-size="14.00">07 (a)</text>
</g>
<!-- 013 -->
<g id="node8" class="node"><title>013</title>
<ellipse fill="#ff8a8a" stroke="#b43f3f" cx="443" cy="-34" rx="36.2938" ry="18"/>
<text text-anchor="middle" x="443" y="-30.3" font-family="Times,serif" font-size="14.00">013 (a)</text>
</g>
<!-- 07&#45;&gt;013 -->
<g id="edge5" class="edge"><title>07&#45;&gt;013</title>
<path fill="none" stroke="#b43f3f" stroke-dasharray="1,5" d="M605.502,-109.166C600.12,-106.976 594.412,-104.797 589,-103 558.106,-92.7388 547.749,-98.219 518,-85 500.828,-77.3695 483.264,-65.8967 469.454,-55.8648"/>
<polygon fill="#b43f3f" stroke="#b43f3f" points="471.489,-53.0162 461.378,-49.8519 467.309,-58.6311 471.489,-53.0162"/>
<text text-anchor="middle" x="540" y="-73.8" font-family="Times,serif" font-size="14.00">2 (95.1)</text>
</g>
<!-- 017 -->
<g id="node9" class="node"><title>017</title>
<ellipse fill="#ff8a8a" stroke="#b43f3f" cx="534" cy="-34" rx="36.2938" ry="18"/>
<text text-anchor="middle" x="534" y="-30.3" font-family="Times,serif" font-size="14.00">017 (a)</text>
</g>
<!-- 07&#45;&gt;017 -->
<g id="edge6" class="edge"><title>07&#45;&gt;017</title>
<path fill="none" stroke="#b43f3f" stroke-dasharray="1,5" d="M609.305,-106.983C600,-100.766 589.09,-92.9548 580,-85 570.893,-77.0308 561.698,-67.4187 553.947,-58.7604"/>
<polygon fill="#b43f3f" stroke="#b43f3f" points="556.503,-56.3659 547.28,-51.1516 551.238,-60.9793 556.503,-56.3659"/>
<text text-anchor="middle" x="602" y="-73.8" font-family="Times,serif" font-size="14.00">2 (92.7)</text>
</g>
<!-- 037 -->
<g id="node10" class="node"><title>037</title>
<ellipse fill="#ff8a8a" stroke="#b43f3f" cx="625" cy="-34" rx="36.2938" ry="18"/>
<text text-anchor="middle" x="625" y="-30.3" font-family="Times,serif" font-size="14.00">037 (a)</text>
</g>
<!-- 07&#45;&gt;037 -->
<g id="edge7" class="edge"><title>07&#45;&gt;037</title>
<path fill="none" stroke="#b43f3f" stroke-dasharray="1,5" d="M628.988,-102.799C628.304,-91.1626 627.385,-75.5479 626.602,-62.2368"/>
<polygon fill="#b43f3f" stroke="#b43f3f" points="630.092,-61.9526 626.01,-52.1754 623.104,-62.3637 630.092,-61.9526"/>
<text text-anchor="middle" x="650" y="-73.8" font-family="Times,serif" font-size="14.00">1 (97.5)</text>
</g>
<!-- 034 -->
<g id="node11" class="node"><title>034</title>
<ellipse fill="#ff8a8a" stroke="#b43f3f" cx="716" cy="-34" rx="36.2938" ry="18"/>
<text text-anchor="middle" x="716" y="-30.3" font-family="Times,serif" font-size="14.00">034 (a)</text>
</g>
<!-- 07&#45;&gt;034 -->
<g id="edge8" class="edge"><title>07&#45;&gt;034</title>
<path fill="none" stroke="#b43f3f" stroke-dasharray="1,5" d="M649.655,-106.687C658.147,-100.531 667.957,-92.8501 676,-85 683.995,-77.1968 691.878,-67.8144 698.504,-59.2954"/>
<polygon fill="#b43f3f" stroke="#b43f3f" points="701.422,-61.2397 704.669,-51.1546 695.841,-57.0138 701.422,-61.2397"/>
<text text-anchor="middle" x="711" y="-73.8" font-family="Times,serif" font-size="14.00">1 (95.1)</text>
</g>
<!-- 030 -->
<g id="node12" class="node"><title>030</title>
<ellipse fill="#ff8a8a" stroke="#b43f3f" cx="807" cy="-34" rx="36.2938" ry="18"/>
<text text-anchor="middle" x="807" y="-30.3" font-family="Times,serif" font-size="14.00">030 (a)</text>
</g>
<!-- 07&#45;&gt;030 -->
<g id="edge9" class="edge"><title>07&#45;&gt;030</title>
<path fill="none" stroke="#b43f3f" stroke-dasharray="1,5" d="M654.522,-109.239C659.903,-107.045 665.605,-104.846 671,-103 699.768,-93.1575 709.534,-98.0399 737,-85 752.937,-77.4339 769.07,-66.2046 781.826,-56.3034"/>
<polygon fill="#b43f3f" stroke="#b43f3f" points="784.045,-59.0102 789.684,-50.0407 779.682,-53.536 784.045,-59.0102"/>
<text text-anchor="middle" x="783" y="-73.8" font-family="Times,serif" font-size="14.00">1 (95.1)</text>
</g>
<!-- 063 -->
<g id="node13" class="node"><title>063</title>
<ellipse fill="#ff8a8a" stroke="#b43f3f" cx="989" cy="-208" rx="36.2938" ry="18"/>
<text text-anchor="middle" x="989" y="-204.3" font-family="Times,serif" font-size="14.00">063 (a)</text>
</g>
<!-- 063&#45;&gt;07 -->
<g id="edge10" class="edge"><title>063&#45;&gt;07</title>
<path fill="none" stroke="#b43f3f" stroke-dasharray="1,5" d="M962.249,-195.496C956.333,-193.349 950.029,-191.356 944,-190 847.854,-168.375 817.509,-199.923 723,-172 699.796,-165.144 675.796,-152.066 657.991,-141.005"/>
<polygon fill="#b43f3f" stroke="#b43f3f" points="659.594,-137.876 649.281,-135.448 655.829,-143.777 659.594,-137.876"/>
<text text-anchor="middle" x="745" y="-160.8" font-family="Times,serif" font-size="14.00">1 (96.6)</text>
</g>
<!-- 011 -->
<g id="node14" class="node"><title>011</title>
<ellipse fill="#ff8a8a" stroke="#b43f3f" cx="716" cy="-121" rx="36.2938" ry="18"/>
<text text-anchor="middle" x="716" y="-117.3" font-family="Times,serif" font-size="14.00">011 (a)</text>
</g>
<!-- 063&#45;&gt;011 -->
<g id="edge11" class="edge"><title>063&#45;&gt;011</title>
<path fill="none" stroke="#b43f3f" stroke-dasharray="1,5" d="M962.197,-195.713C956.285,-193.552 949.995,-191.499 944,-190 883.567,-174.891 864.125,-191.614 805,-172 783.711,-164.937 761.718,-152.637 744.922,-142.005"/>
<polygon fill="#b43f3f" stroke="#b43f3f" points="746.455,-138.827 736.162,-136.313 742.641,-144.696 746.455,-138.827"/>
<text text-anchor="middle" x="827" y="-160.8" font-family="Times,serif" font-size="14.00">1 (93.1)</text>
</g>
<!-- 045 -->
<g id="node15" class="node"><title>045</title>
<ellipse fill="#ff8a8a" stroke="#b43f3f" cx="807" cy="-121" rx="36.2938" ry="18"/>
<text text-anchor="middle" x="807" y="-117.3" font-family="Times,serif" font-size="14.00">045 (a)</text>
</g>
<!-- 063&#45;&gt;045 -->
<g id="edge12" class="edge"><title>063&#45;&gt;045</title>
<path fill="none" stroke="#b43f3f" stroke-dasharray="1,5" d="M961.535,-196.171C955.776,-194.028 949.716,-191.867 944,-190 915.505,-180.694 906.139,-184.729 879,-172 862.611,-164.313 845.909,-152.975 832.722,-143.039"/>
<polygon fill="#b43f3f" stroke="#b43f3f" points="834.655,-140.109 824.602,-136.764 830.374,-145.648 834.655,-140.109"/>
<text text-anchor="middle" x="901" y="-160.8" font-family="Times,serif" font-size="14.00">1 (93.1)</text>
</g>
<!-- 021 -->
<g id="node16" class="node"><title>021</title>
<ellipse fill="#ff8a8a" stroke="#b43f3f" cx="898" cy="-121" rx="36.2938" ry="18"/>
<text text-anchor="middle" x="898" y="-117.3" font-family="Times,serif" font-size="14.00">021 (a)</text>
</g>
<!-- 063&#45;&gt;021 -->
<g id="edge13" class="edge"><title>063&#45;&gt;021</title>
<path fill="none" stroke="#b43f3f" stroke-dasharray="1,5" d="M967.628,-193.006C959.008,-186.963 949.186,-179.554 941,-172 932.456,-164.115 923.924,-154.619 916.74,-146.029"/>
<polygon fill="#b43f3f" stroke="#b43f3f" points="919.344,-143.685 910.308,-138.155 913.923,-148.113 919.344,-143.685"/>
<text text-anchor="middle" x="963" y="-160.8" font-family="Times,serif" font-size="14.00">1 (93.1)</text>
</g>
<!-- 028 -->
<g id="node17" class="node"><title>028</title>
<ellipse fill="#ff8a8a" stroke="#b43f3f" cx="989" cy="-121" rx="36.2938" ry="18"/>
<text text-anchor="middle" x="989" y="-117.3" font-family="Times,serif" font-size="14.00">028 (a)</text>
</g>
<!-- 063&#45;&gt;028 -->
<g id="edge14" class="edge"><title>063&#45;&gt;028</title>
<path fill="none" stroke="#b43f3f" stroke-dasharray="1,5" d="M989,-189.799C989,-178.163 989,-162.548 989,-149.237"/>
<polygon fill="#b43f3f" stroke="#b43f3f" points="992.5,-149.175 989,-139.175 985.5,-149.175 992.5,-149.175"/>
<text text-anchor="middle" x="1011" y="-160.8" font-family="Times,serif" font-size="14.00">1 (96.6)</text>
</g>
<!-- 036 -->
<g id="node18" class="node"><title>036</title>
<ellipse fill="#ff8a8a" stroke="#b43f3f" cx="898" cy="-34" rx="36.2938" ry="18"/>
<text text-anchor="middle" x="898" y="-30.3" font-family="Times,serif" font-size="14.00">036 (a)</text>
</g>
<!-- 021&#45;&gt;036 -->
<g id="edge15" class="edge"><title>021&#45;&gt;036</title>
<path fill="none" stroke="#b43f3f" stroke-dasharray="1,5" d="M898,-102.799C898,-91.1626 898,-75.5479 898,-62.2368"/>
<polygon fill="#b43f3f" stroke="#b43f3f" points="901.5,-62.1754 898,-52.1754 894.5,-62.1755 901.5,-62.1754"/>
<text text-anchor="middle" x="920" y="-73.8" font-family="Times,serif" font-size="14.00">1 (97.6)</text>
</g>
<!-- 047 -->
<g id="node19" class="node"><title>047</title>
<ellipse fill="#ff8a8a" stroke="#b43f3f" cx="989" cy="-34" rx="36.2938" ry="18"/>
<text text-anchor="middle" x="989" y="-30.3" font-family="Times,serif" font-size="14.00">047 (a)</text>
</g>
<!-- 021&#45;&gt;047 -->
<g id="edge16" class="edge"><title>021&#45;&gt;047</title>
<path fill="none" stroke="#b43f3f" stroke-dasharray="1,5" d="M919.372,-106.006C927.992,-99.9634 937.814,-92.5539 946,-85 954.544,-77.1154 963.076,-67.6186 970.26,-59.0293"/>
<polygon fill="#b43f3f" stroke="#b43f3f" points="973.077,-61.1135 976.692,-51.1545 967.656,-56.6853 973.077,-61.1135"/>
<text text-anchor="middle" x="981" y="-73.8" font-family="Times,serif" font-size="14.00">1 (95.1)</text>
</g>
<!-- 03 -->
<g id="node20" class="node"><title>03</title>
<ellipse fill="#ff8a8a" stroke="#b43f3f" cx="903" cy="-208" rx="31.6951" ry="18"/>
<text text-anchor="middle" x="903" y="-204.3" font-family="Times,serif" font-size="14.00">03 (a)</text>
</g>
<!-- 032 -->
<g id="node21" class="node"><title>032</title>
<ellipse fill="#ff8a8a" stroke="#b43f3f" cx="544" cy="-121" rx="36.2938" ry="18"/>
<text text-anchor="middle" x="544" y="-117.3" font-family="Times,serif" font-size="14.00">032 (a)</text>
</g>
<!-- 03&#45;&gt;032 -->
<g id="edge17" class="edge"><title>03&#45;&gt;032</title>
<path fill="none" stroke="#b43f3f" stroke-dasharray="1,5" d="M879.138,-195.644C873.619,-193.432 867.693,-191.375 862,-190 765.776,-166.76 735.121,-199.408 640,-172 616.366,-165.19 591.804,-152.273 573.441,-141.275"/>
<polygon fill="#b43f3f" stroke="#b43f3f" points="575.052,-138.156 564.699,-135.903 571.387,-144.12 575.052,-138.156"/>
<text text-anchor="middle" x="662" y="-160.8" font-family="Times,serif" font-size="14.00">1 (91.7)</text>
</g>
<!-- P75 -->
<g id="node22" class="node"><title>P75</title>
<ellipse fill="#ff8a8a" stroke="#b43f3f" cx="817" cy="-208" rx="36.2938" ry="18"/>
<text text-anchor="middle" x="817" y="-204.3" font-family="Times,serif" font-size="14.00">P75 (a)</text>
</g>
<!-- 019 -->
<g id="node23" class="node"><title>019</title>
<ellipse fill="#ff8a8a" stroke="#b43f3f" cx="726" cy="-208" rx="36.2938" ry="18"/>
<text text-anchor="middle" x="726" y="-204.3" font-family="Times,serif" font-size="14.00">019 (a)</text>
</g>
<!-- 0211 -->
<g id="node24" class="node"><title>0211</title>
<ellipse fill="#ff8a8a" stroke="#b43f3f" cx="631" cy="-208" rx="40.0939" ry="18"/>
<text text-anchor="middle" x="631" y="-204.3" font-family="Times,serif" font-size="14.00">0211 (a)</text>
</g>
<!-- 091 -->
<g id="node25" class="node"><title>091</title>
<ellipse fill="#ff8a8a" stroke="#b43f3f" cx="536" cy="-208" rx="36.2938" ry="18"/>
<text text-anchor="middle" x="536" y="-204.3" font-family="Times,serif" font-size="14.00">091 (a)</text>
</g>
<!-- 02 -->
<g id="node26" class="node"><title>02</title>
<ellipse fill="#ff8a8a" stroke="#b43f3f" cx="450" cy="-208" rx="31.6951" ry="18"/>
<text text-anchor="middle" x="450" y="-204.3" font-family="Times,serif" font-size="14.00">02 (a)</text>
</g>
<!-- 0141 -->
<g id="node27" class="node"><title>0141</title>
<ellipse fill="#ff8a8a" stroke="#b43f3f" cx="360" cy="-208" rx="40.0939" ry="18"/>
<text text-anchor="middle" x="360" y="-204.3" font-family="Times,serif" font-size="14.00">0141 (a)</text>
</g>
<!-- 05 -->
<g id="node28" class="node"><title>05</title>
<ellipse fill="#ff8a8a" stroke="#b43f3f" cx="270" cy="-208" rx="31.6951" ry="18"/>
<text text-anchor="middle" x="270" y="-204.3" font-family="Times,serif" font-size="14.00">05 (a)</text>
</g>
</g>
</svg>
