<?xml version="1.0" encoding="UTF-8" standalone="no"?>
<!DOCTYPE svg PUBLIC "-//W3C//DTD SVG 1.1//EN"
 "http://www.w3.org/Graphics/SVG/1.1/DTD/svg11.dtd">
<!-- Generated by graphviz version 2.38.0 (20140413.2041)
 -->
<!-- Title: %3 Pages: 1 -->
<svg width="1133pt" height="250pt"
 viewBox="0.00 0.00 1133.00 250.00" xmlns="http://www.w3.org/2000/svg" xmlns:xlink="http://www.w3.org/1999/xlink">
<g id="graph0" class="graph" transform="scale(1 1) rotate(0) translate(4 246)">
<title>%3</title>
<polygon fill="white" stroke="none" points="-4,4 -4,-246 1129,-246 1129,4 -4,4"/>
<g id="clust1" class="cluster"><title>cluster_legend</title>
<path fill="none" stroke="black" d="M20,-106C20,-106 210,-106 210,-106 216,-106 222,-112 222,-118 222,-118 222,-222 222,-222 222,-228 216,-234 210,-234 210,-234 20,-234 20,-234 14,-234 8,-228 8,-222 8,-222 8,-118 8,-118 8,-112 14,-106 20,-106"/>
</g>
<g id="clust2" class="cluster"><title>cluster_reading</title>
<polygon fill="none" stroke="black" points="230,-8 230,-234 1117,-234 1117,-8 230,-8"/>
</g>
<!-- leg_s -->
<g id="node1" class="node"><title>leg_s</title>
<text text-anchor="middle" x="115" y="-204.3" font-family="Times,serif" font-size="14.00">Textual flow strength</text>
</g>
<!-- leg_e1 -->
<!-- leg_s&#45;&gt;leg_e1 -->
<g id="edge1" class="edge"><title>leg_s&#45;&gt;leg_e1</title>
<path fill="none" stroke="black" stroke-dasharray="1,5" d="M96.6657,-189.686C91.1324,-184.194 85.1607,-177.989 80,-172 70.1708,-160.593 60.0722,-146.779 52.9137,-136.563"/>
<polygon fill="black" stroke="black" points="55.6142,-134.314 47.056,-128.068 49.8514,-138.288 55.6142,-134.314"/>
<text text-anchor="middle" x="95.5" y="-160.8" font-family="Times,serif" font-size="14.00">&lt;=5 &#160;</text>
</g>
<!-- leg_e2 -->
<!-- leg_s&#45;&gt;leg_e2 -->
<g id="edge2" class="edge"><title>leg_s&#45;&gt;leg_e2</title>
<path fill="none" stroke="black" stroke-dasharray="5,2" d="M115,-189.799C115,-174.794 115,-153.174 115,-138.409"/>
<polygon fill="black" stroke="black" points="118.5,-138.293 115,-128.293 111.5,-138.293 118.5,-138.293"/>
<text text-anchor="middle" x="134" y="-160.8" font-family="Times,serif" font-size="14.00"> &#160;&lt;=25</text>
</g>
<!-- leg_e3 -->
<!-- leg_s&#45;&gt;leg_e3 -->
<g id="edge3" class="edge"><title>leg_s&#45;&gt;leg_e3</title>
<path fill="none" stroke="black" d="M138.503,-189.76C144.906,-184.462 151.567,-178.344 157,-172 166.087,-161.39 174.095,-147.689 179.546,-137.313"/>
<polygon fill="black" stroke="black" points="182.722,-138.789 184.091,-128.283 176.469,-135.642 182.722,-138.789"/>
<text text-anchor="middle" x="179" y="-160.8" font-family="Times,serif" font-size="14.00">&gt;25</text>
</g>
<!-- 044 -->
<g id="node5" class="node"><title>044</title>
<ellipse fill="#ff8a8a" stroke="#b43f3f" cx="1065" cy="-208" rx="36.2938" ry="18"/>
<text text-anchor="middle" x="1065" y="-204.3" font-family="Times,serif" font-size="14.00">044 (a)</text>
</g>
<!-- 022 -->
<g id="node6" class="node"><title>022</title>
<ellipse fill="#ff8a8a" stroke="#b43f3f" cx="1073" cy="-121" rx="36.2938" ry="18"/>
<text text-anchor="middle" x="1073" y="-117.3" font-family="Times,serif" font-size="14.00">022 (a)</text>
</g>
<!-- 044&#45;&gt;022 -->
<g id="edge4" class="edge"><title>044&#45;&gt;022</title>
<path fill="none" stroke="#b43f3f" stroke-dasharray="1,5" d="M1066.62,-189.799C1067.71,-178.163 1069.18,-162.548 1070.44,-149.237"/>
<polygon fill="#b43f3f" stroke="#b43f3f" points="1073.93,-149.459 1071.38,-139.175 1066.96,-148.803 1073.93,-149.459"/>
<text text-anchor="middle" x="1091" y="-160.8" font-family="Times,serif" font-size="14.00">1 (91.7)</text>
</g>
<!-- A -->
<g id="node7" class="node"><title>A</title>
<ellipse fill="#ff8a8a" stroke="#b43f3f" cx="901" cy="-208" rx="29.4969" ry="18"/>
<text text-anchor="middle" x="901" y="-204.3" font-family="Times,serif" font-size="14.00">A (a)</text>
</g>
<!-- P75 -->
<g id="node8" class="node"><title>P75</title>
<ellipse fill="#ff8a8a" stroke="#b43f3f" cx="810" cy="-121" rx="36.2938" ry="18"/>
<text text-anchor="middle" x="810" y="-117.3" font-family="Times,serif" font-size="14.00">P75 (a)</text>
</g>
<!-- A&#45;&gt;P75 -->
<g id="edge5" class="edge"><title>A&#45;&gt;P75</title>
<path fill="none" stroke="#b43f3f" stroke-dasharray="1,5" d="M881.523,-194.326C872.472,-188.06 861.792,-180.113 853,-172 844.456,-164.115 835.924,-154.619 828.74,-146.029"/>
<polygon fill="#b43f3f" stroke="#b43f3f" points="831.344,-143.685 822.308,-138.155 825.923,-148.113 831.344,-143.685"/>
<text text-anchor="middle" x="875" y="-160.8" font-family="Times,serif" font-size="14.00">1 (93.3)</text>
</g>
<!-- 019 -->
<g id="node9" class="node"><title>019</title>
<ellipse fill="#ff8a8a" stroke="#b43f3f" cx="901" cy="-121" rx="36.2938" ry="18"/>
<text text-anchor="middle" x="901" y="-117.3" font-family="Times,serif" font-size="14.00">019 (a)</text>
</g>
<!-- A&#45;&gt;019 -->
<g id="edge6" class="edge"><title>A&#45;&gt;019</title>
<path fill="none" stroke="#b43f3f" stroke-dasharray="1,5" d="M901,-189.799C901,-178.163 901,-162.548 901,-149.237"/>
<polygon fill="#b43f3f" stroke="#b43f3f" points="904.5,-149.175 901,-139.175 897.5,-149.175 904.5,-149.175"/>
<text text-anchor="middle" x="923" y="-160.8" font-family="Times,serif" font-size="14.00">1 (93.3)</text>
</g>
<!-- 03 -->
<g id="node10" class="node"><title>03</title>
<ellipse fill="#ff8a8a" stroke="#b43f3f" cx="987" cy="-121" rx="31.6951" ry="18"/>
<text text-anchor="middle" x="987" y="-117.3" font-family="Times,serif" font-size="14.00">03 (a)</text>
</g>
<!-- A&#45;&gt;03 -->
<g id="edge7" class="edge"><title>A&#45;&gt;03</title>
<path fill="none" stroke="#b43f3f" stroke-dasharray="1,5" d="M920.7,-194.561C929.801,-188.347 940.457,-180.375 949,-172 956.825,-164.329 964.362,-154.975 970.632,-146.442"/>
<polygon fill="#b43f3f" stroke="#b43f3f" points="973.497,-148.452 976.443,-138.275 967.794,-144.394 973.497,-148.452"/>
<text text-anchor="middle" x="983" y="-160.8" font-family="Times,serif" font-size="14.00">1 (93.3)</text>
</g>
<!-- 032 -->
<g id="node26" class="node"><title>032</title>
<ellipse fill="#ff8a8a" stroke="#b43f3f" cx="1002" cy="-34" rx="36.2938" ry="18"/>
<text text-anchor="middle" x="1002" y="-30.3" font-family="Times,serif" font-size="14.00">032 (a)</text>
</g>
<!-- 03&#45;&gt;032 -->
<g id="edge22" class="edge"><title>03&#45;&gt;032</title>
<path fill="none" stroke="#b43f3f" stroke-dasharray="1,5" d="M990.035,-102.799C992.089,-91.1626 994.844,-75.5479 997.194,-62.2368"/>
<polygon fill="#b43f3f" stroke="#b43f3f" points="1000.68,-62.6316 998.969,-52.1754 993.784,-61.415 1000.68,-62.6316"/>
<text text-anchor="middle" x="1017" y="-73.8" font-family="Times,serif" font-size="14.00">1 (91.7)</text>
</g>
<!-- 031 -->
<g id="node11" class="node"><title>031</title>
<ellipse fill="#ff8a8a" stroke="#b43f3f" cx="274" cy="-121" rx="36.2938" ry="18"/>
<text text-anchor="middle" x="274" y="-117.3" font-family="Times,serif" font-size="14.00">031 (a)</text>
</g>
<!-- 013 -->
<g id="node12" class="node"><title>013</title>
<ellipse fill="#ff8a8a" stroke="#b43f3f" cx="274" cy="-34" rx="36.2938" ry="18"/>
<text text-anchor="middle" x="274" y="-30.3" font-family="Times,serif" font-size="14.00">013 (a)</text>
</g>
<!-- 031&#45;&gt;013 -->
<g id="edge8" class="edge"><title>031&#45;&gt;013</title>
<path fill="none" stroke="#b43f3f" stroke-dasharray="1,5" d="M274,-102.799C274,-91.1626 274,-75.5479 274,-62.2368"/>
<polygon fill="#b43f3f" stroke="#b43f3f" points="277.5,-62.1754 274,-52.1754 270.5,-62.1755 277.5,-62.1754"/>
<text text-anchor="middle" x="296" y="-73.8" font-family="Times,serif" font-size="14.00">1 (97.1)</text>
</g>
<!-- 017 -->
<g id="node13" class="node"><title>017</title>
<ellipse fill="#ff8a8a" stroke="#b43f3f" cx="365" cy="-34" rx="36.2938" ry="18"/>
<text text-anchor="middle" x="365" y="-30.3" font-family="Times,serif" font-size="14.00">017 (a)</text>
</g>
<!-- 031&#45;&gt;017 -->
<g id="edge9" class="edge"><title>031&#45;&gt;017</title>
<path fill="none" stroke="#b43f3f" stroke-dasharray="1,5" d="M295.372,-106.006C303.992,-99.9634 313.814,-92.5539 322,-85 330.544,-77.1154 339.076,-67.6186 346.26,-59.0293"/>
<polygon fill="#b43f3f" stroke="#b43f3f" points="349.077,-61.1135 352.692,-51.1545 343.656,-56.6853 349.077,-61.1135"/>
<text text-anchor="middle" x="358" y="-73.8" font-family="Times,serif" font-size="14.00">1 (94.3)</text>
</g>
<!-- 063 -->
<g id="node14" class="node"><title>063</title>
<ellipse fill="#ff8a8a" stroke="#b43f3f" cx="635" cy="-208" rx="36.2938" ry="18"/>
<text text-anchor="middle" x="635" y="-204.3" font-family="Times,serif" font-size="14.00">063 (a)</text>
</g>
<!-- 063&#45;&gt;031 -->
<g id="edge10" class="edge"><title>063&#45;&gt;031</title>
<path fill="none" stroke="#b43f3f" stroke-dasharray="1,5" d="M608.125,-195.681C601.938,-193.466 595.318,-191.399 589,-190 493.65,-168.878 463.829,-199.092 370,-172 346.369,-165.177 321.808,-152.261 303.444,-141.265"/>
<polygon fill="#b43f3f" stroke="#b43f3f" points="305.054,-138.147 294.701,-135.896 301.391,-144.112 305.054,-138.147"/>
<text text-anchor="middle" x="392" y="-160.8" font-family="Times,serif" font-size="14.00">1 (95.8)</text>
</g>
<!-- 011 -->
<g id="node15" class="node"><title>011</title>
<ellipse fill="#ff8a8a" stroke="#b43f3f" cx="365" cy="-121" rx="36.2938" ry="18"/>
<text text-anchor="middle" x="365" y="-117.3" font-family="Times,serif" font-size="14.00">011 (a)</text>
</g>
<!-- 063&#45;&gt;011 -->
<g id="edge11" class="edge"><title>063&#45;&gt;011</title>
<path fill="none" stroke="#b43f3f" stroke-dasharray="1,5" d="M607.586,-195.72C601.543,-193.558 595.118,-191.503 589,-190 528.078,-175.031 508.301,-192.47 449,-172 429.018,-165.102 408.596,-153.081 392.892,-142.554"/>
<polygon fill="#b43f3f" stroke="#b43f3f" points="394.448,-139.376 384.229,-136.578 390.473,-145.138 394.448,-139.376"/>
<text text-anchor="middle" x="471" y="-160.8" font-family="Times,serif" font-size="14.00">1 (93.1)</text>
</g>
<!-- 07 -->
<g id="node16" class="node"><title>07</title>
<ellipse fill="#ff8a8a" stroke="#b43f3f" cx="451" cy="-121" rx="31.6951" ry="18"/>
<text text-anchor="middle" x="451" y="-117.3" font-family="Times,serif" font-size="14.00">07 (a)</text>
</g>
<!-- 063&#45;&gt;07 -->
<g id="edge12" class="edge"><title>063&#45;&gt;07</title>
<path fill="none" stroke="#b43f3f" stroke-dasharray="1,5" d="M606.927,-196.143C601.04,-194.003 594.845,-191.849 589,-190 559.193,-180.571 549.292,-185.302 521,-172 504.813,-164.389 488.451,-152.956 475.621,-142.943"/>
<polygon fill="#b43f3f" stroke="#b43f3f" points="477.728,-140.147 467.736,-136.622 473.349,-145.608 477.728,-140.147"/>
<text text-anchor="middle" x="543" y="-160.8" font-family="Times,serif" font-size="14.00">1 (96.6)</text>
</g>
<!-- 045 -->
<g id="node17" class="node"><title>045</title>
<ellipse fill="#ff8a8a" stroke="#b43f3f" cx="537" cy="-121" rx="36.2938" ry="18"/>
<text text-anchor="middle" x="537" y="-117.3" font-family="Times,serif" font-size="14.00">045 (a)</text>
</g>
<!-- 063&#45;&gt;045 -->
<g id="edge13" class="edge"><title>063&#45;&gt;045</title>
<path fill="none" stroke="#b43f3f" stroke-dasharray="1,5" d="M613.158,-193.502C603.838,-187.37 593.048,-179.76 584,-172 574.722,-164.043 565.332,-154.434 557.41,-145.774"/>
<polygon fill="#b43f3f" stroke="#b43f3f" points="559.871,-143.276 550.592,-138.163 554.657,-147.947 559.871,-143.276"/>
<text text-anchor="middle" x="606" y="-160.8" font-family="Times,serif" font-size="14.00">1 (93.1)</text>
</g>
<!-- 021 -->
<g id="node18" class="node"><title>021</title>
<ellipse fill="#ff8a8a" stroke="#b43f3f" cx="628" cy="-121" rx="36.2938" ry="18"/>
<text text-anchor="middle" x="628" y="-117.3" font-family="Times,serif" font-size="14.00">021 (a)</text>
</g>
<!-- 063&#45;&gt;021 -->
<g id="edge14" class="edge"><title>063&#45;&gt;021</title>
<path fill="none" stroke="#b43f3f" stroke-dasharray="1,5" d="M633.583,-189.799C632.625,-178.163 631.339,-162.548 630.243,-149.237"/>
<polygon fill="#b43f3f" stroke="#b43f3f" points="633.723,-148.854 629.414,-139.175 626.747,-149.429 633.723,-148.854"/>
<text text-anchor="middle" x="654" y="-160.8" font-family="Times,serif" font-size="14.00">1 (93.1)</text>
</g>
<!-- 028 -->
<g id="node19" class="node"><title>028</title>
<ellipse fill="#ff8a8a" stroke="#b43f3f" cx="719" cy="-121" rx="36.2938" ry="18"/>
<text text-anchor="middle" x="719" y="-117.3" font-family="Times,serif" font-size="14.00">028 (a)</text>
</g>
<!-- 063&#45;&gt;028 -->
<g id="edge15" class="edge"><title>063&#45;&gt;028</title>
<path fill="none" stroke="#b43f3f" stroke-dasharray="1,5" d="M655.147,-193.005C663.246,-186.963 672.436,-179.553 680,-172 687.712,-164.299 695.292,-155.076 701.688,-146.661"/>
<polygon fill="#b43f3f" stroke="#b43f3f" points="704.517,-148.722 707.651,-138.601 698.89,-144.558 704.517,-148.722"/>
<text text-anchor="middle" x="715" y="-160.8" font-family="Times,serif" font-size="14.00">1 (96.6)</text>
</g>
<!-- 037 -->
<g id="node20" class="node"><title>037</title>
<ellipse fill="#ff8a8a" stroke="#b43f3f" cx="456" cy="-34" rx="36.2938" ry="18"/>
<text text-anchor="middle" x="456" y="-30.3" font-family="Times,serif" font-size="14.00">037 (a)</text>
</g>
<!-- 07&#45;&gt;037 -->
<g id="edge16" class="edge"><title>07&#45;&gt;037</title>
<path fill="none" stroke="#b43f3f" stroke-dasharray="1,5" d="M452.012,-102.799C452.696,-91.1626 453.615,-75.5479 454.398,-62.2368"/>
<polygon fill="#b43f3f" stroke="#b43f3f" points="457.896,-62.3637 454.99,-52.1754 450.908,-61.9526 457.896,-62.3637"/>
<text text-anchor="middle" x="476" y="-73.8" font-family="Times,serif" font-size="14.00">1 (97.5)</text>
</g>
<!-- 034 -->
<g id="node21" class="node"><title>034</title>
<ellipse fill="#ff8a8a" stroke="#b43f3f" cx="547" cy="-34" rx="36.2938" ry="18"/>
<text text-anchor="middle" x="547" y="-30.3" font-family="Times,serif" font-size="14.00">034 (a)</text>
</g>
<!-- 07&#45;&gt;034 -->
<g id="edge17" class="edge"><title>07&#45;&gt;034</title>
<path fill="none" stroke="#b43f3f" stroke-dasharray="1,5" d="M472.17,-107.089C481.674,-100.893 492.794,-93.0696 502,-85 511.01,-77.1022 520.026,-67.5043 527.595,-58.8374"/>
<polygon fill="#b43f3f" stroke="#b43f3f" points="530.271,-61.0942 534.099,-51.2152 524.945,-56.5506 530.271,-61.0942"/>
<text text-anchor="middle" x="539" y="-73.8" font-family="Times,serif" font-size="14.00">1 (95.1)</text>
</g>
<!-- 030 -->
<g id="node22" class="node"><title>030</title>
<ellipse fill="#ff8a8a" stroke="#b43f3f" cx="638" cy="-34" rx="36.2938" ry="18"/>
<text text-anchor="middle" x="638" y="-30.3" font-family="Times,serif" font-size="14.00">030 (a)</text>
</g>
<!-- 07&#45;&gt;030 -->
<g id="edge18" class="edge"><title>07&#45;&gt;030</title>
<path fill="none" stroke="#b43f3f" stroke-dasharray="1,5" d="M475.489,-109.139C480.871,-106.951 486.583,-104.78 492,-103 523.747,-92.5707 534.504,-98.6608 565,-85 581.675,-77.5304 598.614,-66.208 611.972,-56.2255"/>
<polygon fill="#b43f3f" stroke="#b43f3f" points="614.393,-58.779 620.194,-49.9131 610.13,-53.2266 614.393,-58.779"/>
<text text-anchor="middle" x="613" y="-73.8" font-family="Times,serif" font-size="14.00">1 (95.1)</text>
</g>
<!-- 038 -->
<g id="node23" class="node"><title>038</title>
<ellipse fill="#ff8a8a" stroke="#b43f3f" cx="729" cy="-34" rx="36.2938" ry="18"/>
<text text-anchor="middle" x="729" y="-30.3" font-family="Times,serif" font-size="14.00">038 (a)</text>
</g>
<!-- 045&#45;&gt;038 -->
<g id="edge19" class="edge"><title>045&#45;&gt;038</title>
<path fill="none" stroke="#b43f3f" stroke-dasharray="1,5" d="M565.151,-109.379C571.032,-107.221 577.206,-105.001 583,-103 607.711,-94.4668 615.014,-95.398 639,-85 659.479,-76.1223 681.394,-64.0084 698.471,-53.928"/>
<polygon fill="#b43f3f" stroke="#b43f3f" points="700.638,-56.7098 707.421,-48.5704 697.043,-50.7038 700.638,-56.7098"/>
<text text-anchor="middle" x="692" y="-73.8" font-family="Times,serif" font-size="14.00">1 (92.7)</text>
</g>
<!-- 036 -->
<g id="node24" class="node"><title>036</title>
<ellipse fill="#ff8a8a" stroke="#b43f3f" cx="820" cy="-34" rx="36.2938" ry="18"/>
<text text-anchor="middle" x="820" y="-30.3" font-family="Times,serif" font-size="14.00">036 (a)</text>
</g>
<!-- 021&#45;&gt;036 -->
<g id="edge20" class="edge"><title>021&#45;&gt;036</title>
<path fill="none" stroke="#b43f3f" stroke-dasharray="1,5" d="M656.627,-109.576C674.439,-102.916 697.734,-93.8887 718,-85 741.126,-74.8569 766.636,-62.3515 786.36,-52.3845"/>
<polygon fill="#b43f3f" stroke="#b43f3f" points="788.213,-55.3686 795.542,-47.717 785.041,-49.1286 788.213,-55.3686"/>
<text text-anchor="middle" x="772" y="-73.8" font-family="Times,serif" font-size="14.00">1 (97.6)</text>
</g>
<!-- 047 -->
<g id="node25" class="node"><title>047</title>
<ellipse fill="#ff8a8a" stroke="#b43f3f" cx="911" cy="-34" rx="36.2938" ry="18"/>
<text text-anchor="middle" x="911" y="-30.3" font-family="Times,serif" font-size="14.00">047 (a)</text>
</g>
<!-- 021&#45;&gt;047 -->
<g id="edge21" class="edge"><title>021&#45;&gt;047</title>
<path fill="none" stroke="#b43f3f" stroke-dasharray="1,5" d="M655.433,-108.795C661.474,-106.629 667.894,-104.553 674,-103 727.97,-89.2723 744.486,-100.41 798,-85 825.959,-76.9491 856.01,-63.3951 878.088,-52.4285"/>
<polygon fill="#b43f3f" stroke="#b43f3f" points="879.685,-55.5432 887.033,-47.9106 876.529,-49.295 879.685,-55.5432"/>
<text text-anchor="middle" x="862" y="-73.8" font-family="Times,serif" font-size="14.00">1 (95.1)</text>
</g>
<!-- 0211 -->
<g id="node27" class="node"><title>0211</title>
<ellipse fill="#ff8a8a" stroke="#b43f3f" cx="540" cy="-208" rx="40.0939" ry="18"/>
<text text-anchor="middle" x="540" y="-204.3" font-family="Times,serif" font-size="14.00">0211 (a)</text>
</g>
<!-- 02 -->
<g id="node28" class="node"><title>02</title>
<ellipse fill="#ff8a8a" stroke="#b43f3f" cx="450" cy="-208" rx="31.6951" ry="18"/>
<text text-anchor="middle" x="450" y="-204.3" font-family="Times,serif" font-size="14.00">02 (a)</text>
</g>
<!-- 0141 -->
<g id="node29" class="node"><title>0141</title>
<ellipse fill="#ff8a8a" stroke="#b43f3f" cx="360" cy="-208" rx="40.0939" ry="18"/>
<text text-anchor="middle" x="360" y="-204.3" font-family="Times,serif" font-size="14.00">0141 (a)</text>
</g>
<!-- 05 -->
<g id="node30" class="node"><title>05</title>
<ellipse fill="#ff8a8a" stroke="#b43f3f" cx="270" cy="-208" rx="31.6951" ry="18"/>
<text text-anchor="middle" x="270" y="-204.3" font-family="Times,serif" font-size="14.00">05 (a)</text>
</g>
</g>
</svg>
