<?xml version="1.0" encoding="UTF-8" standalone="no"?>
<!DOCTYPE svg PUBLIC "-//W3C//DTD SVG 1.1//EN"
 "http://www.w3.org/Graphics/SVG/1.1/DTD/svg11.dtd">
<!-- Generated by graphviz version 2.38.0 (20140413.2041)
 -->
<!-- Title: %3 Pages: 1 -->
<svg width="1140pt" height="337pt"
 viewBox="0.00 0.00 1140.00 337.00" xmlns="http://www.w3.org/2000/svg" xmlns:xlink="http://www.w3.org/1999/xlink">
<g id="graph0" class="graph" transform="scale(1 1) rotate(0) translate(4 333)">
<title>%3</title>
<polygon fill="white" stroke="none" points="-4,4 -4,-333 1136,-333 1136,4 -4,4"/>
<g id="clust1" class="cluster"><title>cluster_legend</title>
<path fill="none" stroke="black" d="M20,-193C20,-193 210,-193 210,-193 216,-193 222,-199 222,-205 222,-205 222,-309 222,-309 222,-315 216,-321 210,-321 210,-321 20,-321 20,-321 14,-321 8,-315 8,-309 8,-309 8,-205 8,-205 8,-199 14,-193 20,-193"/>
</g>
<g id="clust2" class="cluster"><title>cluster_reading</title>
<polygon fill="none" stroke="black" points="230,-8 230,-234 1124,-234 1124,-8 230,-8"/>
</g>
<!-- leg_s -->
<g id="node1" class="node"><title>leg_s</title>
<text text-anchor="middle" x="115" y="-291.3" font-family="Times,serif" font-size="14.00">Textual flow strength</text>
</g>
<!-- leg_e1 -->
<!-- leg_s&#45;&gt;leg_e1 -->
<g id="edge1" class="edge"><title>leg_s&#45;&gt;leg_e1</title>
<path fill="none" stroke="black" stroke-dasharray="1,5" d="M96.6657,-276.686C91.1324,-271.194 85.1607,-264.989 80,-259 70.1708,-247.593 60.0722,-233.779 52.9137,-223.563"/>
<polygon fill="black" stroke="black" points="55.6142,-221.314 47.056,-215.068 49.8514,-225.288 55.6142,-221.314"/>
<text text-anchor="middle" x="95.5" y="-247.8" font-family="Times,serif" font-size="14.00">&lt;=5 &#160;</text>
</g>
<!-- leg_e2 -->
<!-- leg_s&#45;&gt;leg_e2 -->
<g id="edge2" class="edge"><title>leg_s&#45;&gt;leg_e2</title>
<path fill="none" stroke="black" stroke-dasharray="5,2" d="M115,-276.799C115,-261.794 115,-240.174 115,-225.409"/>
<polygon fill="black" stroke="black" points="118.5,-225.293 115,-215.293 111.5,-225.293 118.5,-225.293"/>
<text text-anchor="middle" x="134" y="-247.8" font-family="Times,serif" font-size="14.00"> &#160;&lt;=25</text>
</g>
<!-- leg_e3 -->
<!-- leg_s&#45;&gt;leg_e3 -->
<g id="edge3" class="edge"><title>leg_s&#45;&gt;leg_e3</title>
<path fill="none" stroke="black" d="M138.503,-276.76C144.906,-271.462 151.567,-265.344 157,-259 166.087,-248.39 174.095,-234.689 179.546,-224.313"/>
<polygon fill="black" stroke="black" points="182.722,-225.789 184.091,-215.283 176.469,-222.642 182.722,-225.789"/>
<text text-anchor="middle" x="179" y="-247.8" font-family="Times,serif" font-size="14.00">&gt;25</text>
</g>
<!-- 044 -->
<g id="node5" class="node"><title>044</title>
<ellipse fill="#ff8a8a" stroke="#b43f3f" cx="1080" cy="-208" rx="36.2938" ry="18"/>
<text text-anchor="middle" x="1080" y="-204.3" font-family="Times,serif" font-size="14.00">044 (a)</text>
</g>
<!-- 022 -->
<g id="node6" class="node"><title>022</title>
<ellipse fill="#ff8a8a" stroke="#b43f3f" cx="1080" cy="-121" rx="36.2938" ry="18"/>
<text text-anchor="middle" x="1080" y="-117.3" font-family="Times,serif" font-size="14.00">022 (a)</text>
</g>
<!-- 044&#45;&gt;022 -->
<g id="edge4" class="edge"><title>044&#45;&gt;022</title>
<path fill="none" stroke="#b43f3f" stroke-dasharray="1,5" d="M1080,-189.799C1080,-178.163 1080,-162.548 1080,-149.237"/>
<polygon fill="#b43f3f" stroke="#b43f3f" points="1083.5,-149.175 1080,-139.175 1076.5,-149.175 1083.5,-149.175"/>
<text text-anchor="middle" x="1102" y="-160.8" font-family="Times,serif" font-size="14.00">1 (91.7)</text>
</g>
<!-- P75 -->
<g id="node7" class="node"><title>P75</title>
<ellipse fill="#ff8a8a" stroke="#b43f3f" cx="726" cy="-208" rx="36.2938" ry="18"/>
<text text-anchor="middle" x="726" y="-204.3" font-family="Times,serif" font-size="14.00">P75 (a)</text>
</g>
<!-- 031 -->
<g id="node8" class="node"><title>031</title>
<ellipse fill="#ff8a8a" stroke="#b43f3f" cx="898" cy="-121" rx="36.2938" ry="18"/>
<text text-anchor="middle" x="898" y="-117.3" font-family="Times,serif" font-size="14.00">031 (a)</text>
</g>
<!-- 013 -->
<g id="node9" class="node"><title>013</title>
<ellipse fill="#ff8a8a" stroke="#b43f3f" cx="898" cy="-34" rx="36.2938" ry="18"/>
<text text-anchor="middle" x="898" y="-30.3" font-family="Times,serif" font-size="14.00">013 (a)</text>
</g>
<!-- 031&#45;&gt;013 -->
<g id="edge5" class="edge"><title>031&#45;&gt;013</title>
<path fill="none" stroke="#b43f3f" stroke-dasharray="1,5" d="M898,-102.799C898,-91.1626 898,-75.5479 898,-62.2368"/>
<polygon fill="#b43f3f" stroke="#b43f3f" points="901.5,-62.1754 898,-52.1754 894.5,-62.1755 901.5,-62.1754"/>
<text text-anchor="middle" x="920" y="-73.8" font-family="Times,serif" font-size="14.00">1 (97.1)</text>
</g>
<!-- 017 -->
<g id="node10" class="node"><title>017</title>
<ellipse fill="#ff8a8a" stroke="#b43f3f" cx="989" cy="-34" rx="36.2938" ry="18"/>
<text text-anchor="middle" x="989" y="-30.3" font-family="Times,serif" font-size="14.00">017 (a)</text>
</g>
<!-- 031&#45;&gt;017 -->
<g id="edge6" class="edge"><title>031&#45;&gt;017</title>
<path fill="none" stroke="#b43f3f" stroke-dasharray="1,5" d="M919.372,-106.006C927.992,-99.9634 937.814,-92.5539 946,-85 954.544,-77.1154 963.076,-67.6186 970.26,-59.0293"/>
<polygon fill="#b43f3f" stroke="#b43f3f" points="973.077,-61.1135 976.692,-51.1545 967.656,-56.6853 973.077,-61.1135"/>
<text text-anchor="middle" x="981" y="-73.8" font-family="Times,serif" font-size="14.00">1 (94.3)</text>
</g>
<!-- 019 -->
<g id="node11" class="node"><title>019</title>
<ellipse fill="#ff8a8a" stroke="#b43f3f" cx="908" cy="-208" rx="36.2938" ry="18"/>
<text text-anchor="middle" x="908" y="-204.3" font-family="Times,serif" font-size="14.00">019 (a)</text>
</g>
<!-- 063 -->
<g id="node12" class="node"><title>063</title>
<ellipse fill="#ff8a8a" stroke="#b43f3f" cx="817" cy="-208" rx="36.2938" ry="18"/>
<text text-anchor="middle" x="817" y="-204.3" font-family="Times,serif" font-size="14.00">063 (a)</text>
</g>
<!-- 063&#45;&gt;031 -->
<g id="edge7" class="edge"><title>063&#45;&gt;031</title>
<path fill="none" stroke="#b43f3f" stroke-dasharray="1,5" d="M836.682,-192.586C844.315,-186.595 852.906,-179.334 860,-172 867.426,-164.322 874.734,-155.198 880.926,-146.859"/>
<polygon fill="#b43f3f" stroke="#b43f3f" points="883.912,-148.702 886.933,-138.547 878.239,-144.602 883.912,-148.702"/>
<text text-anchor="middle" x="894" y="-160.8" font-family="Times,serif" font-size="14.00">1 (95.8)</text>
</g>
<!-- 011 -->
<g id="node13" class="node"><title>011</title>
<ellipse fill="#ff8a8a" stroke="#b43f3f" cx="448" cy="-121" rx="36.2938" ry="18"/>
<text text-anchor="middle" x="448" y="-117.3" font-family="Times,serif" font-size="14.00">011 (a)</text>
</g>
<!-- 063&#45;&gt;011 -->
<g id="edge8" class="edge"><title>063&#45;&gt;011</title>
<path fill="none" stroke="#b43f3f" stroke-dasharray="1,5" d="M790.128,-195.667C783.941,-193.454 777.32,-191.39 771,-190 672.158,-168.253 641.274,-199.935 544,-172 520.36,-165.211 495.798,-152.294 477.437,-141.29"/>
<polygon fill="#b43f3f" stroke="#b43f3f" points="479.048,-138.171 468.696,-135.915 475.381,-144.134 479.048,-138.171"/>
<text text-anchor="middle" x="566" y="-160.8" font-family="Times,serif" font-size="14.00">1 (93.1)</text>
</g>
<!-- 07 -->
<g id="node14" class="node"><title>07</title>
<ellipse fill="#ff8a8a" stroke="#b43f3f" cx="534" cy="-121" rx="31.6951" ry="18"/>
<text text-anchor="middle" x="534" y="-117.3" font-family="Times,serif" font-size="14.00">07 (a)</text>
</g>
<!-- 063&#45;&gt;07 -->
<g id="edge9" class="edge"><title>063&#45;&gt;07</title>
<path fill="none" stroke="#b43f3f" stroke-dasharray="1,5" d="M790.08,-195.875C783.895,-193.65 777.287,-191.53 771,-190 707.903,-174.643 687.831,-191.851 626,-172 603.302,-164.712 579.716,-151.77 562.109,-140.879"/>
<polygon fill="#b43f3f" stroke="#b43f3f" points="563.803,-137.809 553.482,-135.412 560.055,-143.722 563.803,-137.809"/>
<text text-anchor="middle" x="648" y="-160.8" font-family="Times,serif" font-size="14.00">1 (96.6)</text>
</g>
<!-- 045 -->
<g id="node15" class="node"><title>045</title>
<ellipse fill="#ff8a8a" stroke="#b43f3f" cx="625" cy="-121" rx="36.2938" ry="18"/>
<text text-anchor="middle" x="625" y="-117.3" font-family="Times,serif" font-size="14.00">045 (a)</text>
</g>
<!-- 063&#45;&gt;045 -->
<g id="edge10" class="edge"><title>063&#45;&gt;045</title>
<path fill="none" stroke="#b43f3f" stroke-dasharray="1,5" d="M788.947,-196.081C783.058,-193.945 776.857,-191.809 771,-190 739.483,-180.268 729.124,-185.438 699,-172 682.157,-164.487 664.991,-153.161 651.437,-143.188"/>
<polygon fill="#b43f3f" stroke="#b43f3f" points="653.181,-140.119 643.092,-136.883 648.961,-145.704 653.181,-140.119"/>
<text text-anchor="middle" x="721" y="-160.8" font-family="Times,serif" font-size="14.00">1 (93.1)</text>
</g>
<!-- 021 -->
<g id="node16" class="node"><title>021</title>
<ellipse fill="#ff8a8a" stroke="#b43f3f" cx="716" cy="-121" rx="36.2938" ry="18"/>
<text text-anchor="middle" x="716" y="-117.3" font-family="Times,serif" font-size="14.00">021 (a)</text>
</g>
<!-- 063&#45;&gt;021 -->
<g id="edge11" class="edge"><title>063&#45;&gt;021</title>
<path fill="none" stroke="#b43f3f" stroke-dasharray="1,5" d="M794.081,-193.848C784.141,-187.721 772.605,-180.02 763,-172 753.478,-164.049 743.926,-154.295 735.944,-145.519"/>
<polygon fill="#b43f3f" stroke="#b43f3f" points="738.359,-142.967 729.101,-137.814 733.125,-147.615 738.359,-142.967"/>
<text text-anchor="middle" x="785" y="-160.8" font-family="Times,serif" font-size="14.00">1 (93.1)</text>
</g>
<!-- 028 -->
<g id="node17" class="node"><title>028</title>
<ellipse fill="#ff8a8a" stroke="#b43f3f" cx="807" cy="-121" rx="36.2938" ry="18"/>
<text text-anchor="middle" x="807" y="-117.3" font-family="Times,serif" font-size="14.00">028 (a)</text>
</g>
<!-- 063&#45;&gt;028 -->
<g id="edge12" class="edge"><title>063&#45;&gt;028</title>
<path fill="none" stroke="#b43f3f" stroke-dasharray="1,5" d="M814.976,-189.799C813.607,-178.163 811.77,-162.548 810.204,-149.237"/>
<polygon fill="#b43f3f" stroke="#b43f3f" points="813.665,-148.698 809.021,-139.175 806.713,-149.516 813.665,-148.698"/>
<text text-anchor="middle" x="834" y="-160.8" font-family="Times,serif" font-size="14.00">1 (96.6)</text>
</g>
<!-- 037 -->
<g id="node18" class="node"><title>037</title>
<ellipse fill="#ff8a8a" stroke="#b43f3f" cx="352" cy="-34" rx="36.2938" ry="18"/>
<text text-anchor="middle" x="352" y="-30.3" font-family="Times,serif" font-size="14.00">037 (a)</text>
</g>
<!-- 07&#45;&gt;037 -->
<g id="edge13" class="edge"><title>07&#45;&gt;037</title>
<path fill="none" stroke="#b43f3f" stroke-dasharray="1,5" d="M509.488,-109.209C504.107,-107.016 498.402,-104.826 493,-103 463.383,-92.9903 453.422,-98.0229 425,-85 408.389,-77.3888 391.455,-66.0563 378.083,-56.1037"/>
<polygon fill="#b43f3f" stroke="#b43f3f" points="379.922,-53.1039 369.85,-49.8157 375.673,-58.667 379.922,-53.1039"/>
<text text-anchor="middle" x="447" y="-73.8" font-family="Times,serif" font-size="14.00">1 (97.5)</text>
</g>
<!-- 034 -->
<g id="node19" class="node"><title>034</title>
<ellipse fill="#ff8a8a" stroke="#b43f3f" cx="443" cy="-34" rx="36.2938" ry="18"/>
<text text-anchor="middle" x="443" y="-30.3" font-family="Times,serif" font-size="14.00">034 (a)</text>
</g>
<!-- 07&#45;&gt;034 -->
<g id="edge14" class="edge"><title>07&#45;&gt;034</title>
<path fill="none" stroke="#b43f3f" stroke-dasharray="1,5" d="M513.581,-106.672C504.737,-100.512 494.489,-92.8337 486,-85 477.456,-77.1154 468.924,-67.6186 461.74,-59.0293"/>
<polygon fill="#b43f3f" stroke="#b43f3f" points="464.344,-56.6853 455.308,-51.1545 458.923,-61.1135 464.344,-56.6853"/>
<text text-anchor="middle" x="508" y="-73.8" font-family="Times,serif" font-size="14.00">1 (95.1)</text>
</g>
<!-- 030 -->
<g id="node20" class="node"><title>030</title>
<ellipse fill="#ff8a8a" stroke="#b43f3f" cx="534" cy="-34" rx="36.2938" ry="18"/>
<text text-anchor="middle" x="534" y="-30.3" font-family="Times,serif" font-size="14.00">030 (a)</text>
</g>
<!-- 07&#45;&gt;030 -->
<g id="edge15" class="edge"><title>07&#45;&gt;030</title>
<path fill="none" stroke="#b43f3f" stroke-dasharray="1,5" d="M534,-102.799C534,-91.1626 534,-75.5479 534,-62.2368"/>
<polygon fill="#b43f3f" stroke="#b43f3f" points="537.5,-62.1754 534,-52.1754 530.5,-62.1755 537.5,-62.1754"/>
<text text-anchor="middle" x="556" y="-73.8" font-family="Times,serif" font-size="14.00">1 (95.1)</text>
</g>
<!-- 038 -->
<g id="node21" class="node"><title>038</title>
<ellipse fill="#ff8a8a" stroke="#b43f3f" cx="625" cy="-34" rx="36.2938" ry="18"/>
<text text-anchor="middle" x="625" y="-30.3" font-family="Times,serif" font-size="14.00">038 (a)</text>
</g>
<!-- 045&#45;&gt;038 -->
<g id="edge16" class="edge"><title>045&#45;&gt;038</title>
<path fill="none" stroke="#b43f3f" stroke-dasharray="1,5" d="M625,-102.799C625,-91.1626 625,-75.5479 625,-62.2368"/>
<polygon fill="#b43f3f" stroke="#b43f3f" points="628.5,-62.1754 625,-52.1754 621.5,-62.1755 628.5,-62.1754"/>
<text text-anchor="middle" x="647" y="-73.8" font-family="Times,serif" font-size="14.00">1 (92.7)</text>
</g>
<!-- 036 -->
<g id="node22" class="node"><title>036</title>
<ellipse fill="#ff8a8a" stroke="#b43f3f" cx="716" cy="-34" rx="36.2938" ry="18"/>
<text text-anchor="middle" x="716" y="-30.3" font-family="Times,serif" font-size="14.00">036 (a)</text>
</g>
<!-- 021&#45;&gt;036 -->
<g id="edge17" class="edge"><title>021&#45;&gt;036</title>
<path fill="none" stroke="#b43f3f" stroke-dasharray="1,5" d="M716,-102.799C716,-91.1626 716,-75.5479 716,-62.2368"/>
<polygon fill="#b43f3f" stroke="#b43f3f" points="719.5,-62.1754 716,-52.1754 712.5,-62.1755 719.5,-62.1754"/>
<text text-anchor="middle" x="738" y="-73.8" font-family="Times,serif" font-size="14.00">1 (97.6)</text>
</g>
<!-- 047 -->
<g id="node23" class="node"><title>047</title>
<ellipse fill="#ff8a8a" stroke="#b43f3f" cx="807" cy="-34" rx="36.2938" ry="18"/>
<text text-anchor="middle" x="807" y="-30.3" font-family="Times,serif" font-size="14.00">047 (a)</text>
</g>
<!-- 021&#45;&gt;047 -->
<g id="edge18" class="edge"><title>021&#45;&gt;047</title>
<path fill="none" stroke="#b43f3f" stroke-dasharray="1,5" d="M737.372,-106.006C745.992,-99.9634 755.814,-92.5539 764,-85 772.544,-77.1154 781.076,-67.6186 788.26,-59.0293"/>
<polygon fill="#b43f3f" stroke="#b43f3f" points="791.077,-61.1135 794.692,-51.1545 785.656,-56.6853 791.077,-61.1135"/>
<text text-anchor="middle" x="799" y="-73.8" font-family="Times,serif" font-size="14.00">1 (95.1)</text>
</g>
<!-- 03 -->
<g id="node24" class="node"><title>03</title>
<ellipse fill="#ff8a8a" stroke="#b43f3f" cx="994" cy="-208" rx="31.6951" ry="18"/>
<text text-anchor="middle" x="994" y="-204.3" font-family="Times,serif" font-size="14.00">03 (a)</text>
</g>
<!-- 032 -->
<g id="node25" class="node"><title>032</title>
<ellipse fill="#ff8a8a" stroke="#b43f3f" cx="989" cy="-121" rx="36.2938" ry="18"/>
<text text-anchor="middle" x="989" y="-117.3" font-family="Times,serif" font-size="14.00">032 (a)</text>
</g>
<!-- 03&#45;&gt;032 -->
<g id="edge19" class="edge"><title>03&#45;&gt;032</title>
<path fill="none" stroke="#b43f3f" stroke-dasharray="1,5" d="M992.988,-189.799C992.304,-178.163 991.385,-162.548 990.602,-149.237"/>
<polygon fill="#b43f3f" stroke="#b43f3f" points="994.092,-148.953 990.01,-139.175 987.104,-149.364 994.092,-148.953"/>
<text text-anchor="middle" x="1013" y="-160.8" font-family="Times,serif" font-size="14.00">1 (91.7)</text>
</g>
<!-- 0211 -->
<g id="node26" class="node"><title>0211</title>
<ellipse fill="#ff8a8a" stroke="#b43f3f" cx="631" cy="-208" rx="40.0939" ry="18"/>
<text text-anchor="middle" x="631" y="-204.3" font-family="Times,serif" font-size="14.00">0211 (a)</text>
</g>
<!-- 091 -->
<g id="node27" class="node"><title>091</title>
<ellipse fill="#ff8a8a" stroke="#b43f3f" cx="536" cy="-208" rx="36.2938" ry="18"/>
<text text-anchor="middle" x="536" y="-204.3" font-family="Times,serif" font-size="14.00">091 (a)</text>
</g>
<!-- 02 -->
<g id="node28" class="node"><title>02</title>
<ellipse fill="#ff8a8a" stroke="#b43f3f" cx="450" cy="-208" rx="31.6951" ry="18"/>
<text text-anchor="middle" x="450" y="-204.3" font-family="Times,serif" font-size="14.00">02 (a)</text>
</g>
<!-- 0141 -->
<g id="node29" class="node"><title>0141</title>
<ellipse fill="#ff8a8a" stroke="#b43f3f" cx="360" cy="-208" rx="40.0939" ry="18"/>
<text text-anchor="middle" x="360" y="-204.3" font-family="Times,serif" font-size="14.00">0141 (a)</text>
</g>
<!-- 05 -->
<g id="node30" class="node"><title>05</title>
<ellipse fill="#ff8a8a" stroke="#b43f3f" cx="270" cy="-208" rx="31.6951" ry="18"/>
<text text-anchor="middle" x="270" y="-204.3" font-family="Times,serif" font-size="14.00">05 (a)</text>
</g>
<!-- A -->
<g id="node31" class="node"><title>A</title>
<ellipse fill="#cea8f4" stroke="#835da9" cx="908" cy="-295" rx="29.795" ry="18"/>
<text text-anchor="middle" x="908" y="-291.3" font-family="Times,serif" font-size="14.00">A (b)</text>
</g>
<!-- A&#45;&gt;P75 -->
<g id="edge20" class="edge"><title>A&#45;&gt;P75</title>
<path fill="none" stroke="#b43f3f" stroke-dasharray="1,5" d="M883.648,-283.971C856.219,-272.51 810.45,-252.89 772,-234 767.544,-231.811 762.895,-229.417 758.338,-227.007"/>
<polygon fill="#b43f3f" stroke="#b43f3f" points="759.671,-223.75 749.207,-222.095 756.355,-229.914 759.671,-223.75"/>
<text text-anchor="middle" x="845" y="-247.8" font-family="Times,serif" font-size="14.00">1 (93.3)</text>
</g>
<!-- A&#45;&gt;019 -->
<g id="edge21" class="edge"><title>A&#45;&gt;019</title>
<path fill="none" stroke="#b43f3f" stroke-dasharray="1,5" d="M908,-276.799C908,-265.163 908,-249.548 908,-236.237"/>
<polygon fill="#b43f3f" stroke="#b43f3f" points="911.5,-236.175 908,-226.175 904.5,-236.175 911.5,-236.175"/>
<text text-anchor="middle" x="930" y="-247.8" font-family="Times,serif" font-size="14.00">1 (93.3)</text>
</g>
<!-- A&#45;&gt;03 -->
<g id="edge22" class="edge"><title>A&#45;&gt;03</title>
<path fill="none" stroke="#b43f3f" stroke-dasharray="1,5" d="M928.172,-281.238C937.167,-275.072 947.604,-267.231 956,-259 963.825,-251.329 971.362,-241.975 977.632,-233.442"/>
<polygon fill="#b43f3f" stroke="#b43f3f" points="980.497,-235.452 983.443,-225.275 974.794,-231.394 980.497,-235.452"/>
<text text-anchor="middle" x="990" y="-247.8" font-family="Times,serif" font-size="14.00">1 (93.3)</text>
</g>
</g>
</svg>
