<?xml version="1.0" encoding="UTF-8" standalone="no"?>
<!DOCTYPE svg PUBLIC "-//W3C//DTD SVG 1.1//EN"
 "http://www.w3.org/Graphics/SVG/1.1/DTD/svg11.dtd">
<!-- Generated by graphviz version 2.38.0 (20140413.2041)
 -->
<!-- Title: %3 Pages: 1 -->
<svg width="683pt" height="163pt"
 viewBox="0.00 0.00 683.00 163.00" xmlns="http://www.w3.org/2000/svg" xmlns:xlink="http://www.w3.org/1999/xlink">
<g id="graph0" class="graph" transform="scale(1 1) rotate(0) translate(4 159)">
<title>%3</title>
<polygon fill="white" stroke="none" points="-4,4 -4,-159 679,-159 679,4 -4,4"/>
<g id="clust1" class="cluster"><title>cluster_legend</title>
<path fill="none" stroke="black" d="M20,-19C20,-19 210,-19 210,-19 216,-19 222,-25 222,-31 222,-31 222,-135 222,-135 222,-141 216,-147 210,-147 210,-147 20,-147 20,-147 14,-147 8,-141 8,-135 8,-135 8,-31 8,-31 8,-25 14,-19 20,-19"/>
</g>
<g id="clust2" class="cluster"><title>cluster_reading</title>
<polygon fill="none" stroke="black" points="230,-8 230,-147 667,-147 667,-8 230,-8"/>
</g>
<!-- leg_s -->
<g id="node1" class="node"><title>leg_s</title>
<text text-anchor="middle" x="115" y="-117.3" font-family="Times,serif" font-size="14.00">Textual flow strength</text>
</g>
<!-- leg_e1 -->
<!-- leg_s&#45;&gt;leg_e1 -->
<g id="edge1" class="edge"><title>leg_s&#45;&gt;leg_e1</title>
<path fill="none" stroke="black" stroke-dasharray="1,5" d="M96.6657,-102.686C91.1324,-97.1938 85.1607,-90.9891 80,-85 70.1708,-73.593 60.0722,-59.7786 52.9137,-49.5634"/>
<polygon fill="black" stroke="black" points="55.6142,-47.3142 47.056,-41.0685 49.8514,-51.2879 55.6142,-47.3142"/>
<text text-anchor="middle" x="95.5" y="-73.8" font-family="Times,serif" font-size="14.00">&lt;=5 &#160;</text>
</g>
<!-- leg_e2 -->
<!-- leg_s&#45;&gt;leg_e2 -->
<g id="edge2" class="edge"><title>leg_s&#45;&gt;leg_e2</title>
<path fill="none" stroke="black" stroke-dasharray="5,2" d="M115,-102.799C115,-87.7942 115,-66.1745 115,-51.4086"/>
<polygon fill="black" stroke="black" points="118.5,-51.2934 115,-41.2934 111.5,-51.2934 118.5,-51.2934"/>
<text text-anchor="middle" x="134" y="-73.8" font-family="Times,serif" font-size="14.00"> &#160;&lt;=25</text>
</g>
<!-- leg_e3 -->
<!-- leg_s&#45;&gt;leg_e3 -->
<g id="edge3" class="edge"><title>leg_s&#45;&gt;leg_e3</title>
<path fill="none" stroke="black" d="M138.503,-102.76C144.906,-97.4621 151.567,-91.3439 157,-85 166.087,-74.3897 174.095,-60.6892 179.546,-50.3134"/>
<polygon fill="black" stroke="black" points="182.722,-51.7893 184.091,-41.2833 176.469,-48.6425 182.722,-51.7893"/>
<text text-anchor="middle" x="179" y="-73.8" font-family="Times,serif" font-size="14.00">&gt;25</text>
</g>
<!-- 044 -->
<g id="node5" class="node"><title>044</title>
<ellipse fill="#cea8f4" stroke="#835da9" cx="623" cy="-121" rx="36.2938" ry="18"/>
<text text-anchor="middle" x="623" y="-117.3" font-family="Times,serif" font-size="14.00">044 (b)</text>
</g>
<!-- 022 -->
<g id="node6" class="node"><title>022</title>
<ellipse fill="#cea8f4" stroke="#835da9" cx="619" cy="-34" rx="36.2938" ry="18"/>
<text text-anchor="middle" x="619" y="-30.3" font-family="Times,serif" font-size="14.00">022 (b)</text>
</g>
<!-- 044&#45;&gt;022 -->
<g id="edge4" class="edge"><title>044&#45;&gt;022</title>
<path fill="none" stroke="#835da9" stroke-dasharray="1,5" d="M622.191,-102.799C621.643,-91.1626 620.908,-75.5479 620.282,-62.2368"/>
<polygon fill="#835da9" stroke="#835da9" points="623.775,-61.9998 619.808,-52.1754 616.782,-62.3289 623.775,-61.9998"/>
<text text-anchor="middle" x="643" y="-73.8" font-family="Times,serif" font-size="14.00">1 (91.7)</text>
</g>
<!-- 03 -->
<g id="node7" class="node"><title>03</title>
<ellipse fill="#cea8f4" stroke="#835da9" cx="536" cy="-121" rx="32.4942" ry="18"/>
<text text-anchor="middle" x="536" y="-117.3" font-family="Times,serif" font-size="14.00">03 (b)</text>
</g>
<!-- 032 -->
<g id="node8" class="node"><title>032</title>
<ellipse fill="#cea8f4" stroke="#835da9" cx="528" cy="-34" rx="36.2938" ry="18"/>
<text text-anchor="middle" x="528" y="-30.3" font-family="Times,serif" font-size="14.00">032 (b)</text>
</g>
<!-- 03&#45;&gt;032 -->
<g id="edge5" class="edge"><title>03&#45;&gt;032</title>
<path fill="none" stroke="#835da9" stroke-dasharray="1,5" d="M534.381,-102.799C533.286,-91.1626 531.816,-75.5479 530.563,-62.2368"/>
<polygon fill="#835da9" stroke="#835da9" points="534.038,-61.8034 529.617,-52.1754 527.069,-62.4594 534.038,-61.8034"/>
<text text-anchor="middle" x="554" y="-73.8" font-family="Times,serif" font-size="14.00">1 (91.7)</text>
</g>
<!-- P75 -->
<g id="node9" class="node"><title>P75</title>
<ellipse fill="#cea8f4" stroke="#835da9" cx="448" cy="-121" rx="37.0935" ry="18"/>
<text text-anchor="middle" x="448" y="-117.3" font-family="Times,serif" font-size="14.00">P75 (b)</text>
</g>
<!-- 019 -->
<g id="node10" class="node"><title>019</title>
<ellipse fill="#cea8f4" stroke="#835da9" cx="357" cy="-121" rx="36.2938" ry="18"/>
<text text-anchor="middle" x="357" y="-117.3" font-family="Times,serif" font-size="14.00">019 (b)</text>
</g>
<!-- 05 -->
<g id="node11" class="node"><title>05</title>
<ellipse fill="#cea8f4" stroke="#835da9" cx="270" cy="-121" rx="32.4942" ry="18"/>
<text text-anchor="middle" x="270" y="-117.3" font-family="Times,serif" font-size="14.00">05 (b)</text>
</g>
</g>
</svg>
