<?xml version="1.0" encoding="UTF-8" standalone="no"?>
<!DOCTYPE svg PUBLIC "-//W3C//DTD SVG 1.1//EN"
 "http://www.w3.org/Graphics/SVG/1.1/DTD/svg11.dtd">
<!-- Generated by graphviz version 2.38.0 (20140413.2041)
 -->
<!-- Title: %3 Pages: 1 -->
<svg width="971pt" height="250pt"
 viewBox="0.00 0.00 971.00 250.00" xmlns="http://www.w3.org/2000/svg" xmlns:xlink="http://www.w3.org/1999/xlink">
<g id="graph0" class="graph" transform="scale(1 1) rotate(0) translate(4 246)">
<title>%3</title>
<polygon fill="white" stroke="none" points="-4,4 -4,-246 967,-246 967,4 -4,4"/>
<g id="clust1" class="cluster"><title>cluster_reading</title>
<polygon fill="none" stroke="black" points="8,-8 8,-234 733,-234 733,-8 8,-8"/>
</g>
<g id="clust2" class="cluster"><title>cluster_legend</title>
<path fill="none" stroke="black" d="M753,-106C753,-106 943,-106 943,-106 949,-106 955,-112 955,-118 955,-118 955,-222 955,-222 955,-228 949,-234 943,-234 943,-234 753,-234 753,-234 747,-234 741,-228 741,-222 741,-222 741,-118 741,-118 741,-112 747,-106 753,-106"/>
</g>
<!-- 045 -->
<g id="node1" class="node"><title>045</title>
<ellipse fill="#ff8a8a" stroke="#b43f3f" cx="98" cy="-121" rx="36.2938" ry="18"/>
<text text-anchor="middle" x="98" y="-117.3" font-family="Times,serif" font-size="14.00">045 (a)</text>
</g>
<!-- 038 -->
<g id="node2" class="node"><title>038</title>
<ellipse fill="#ff8a8a" stroke="#b43f3f" cx="52" cy="-34" rx="36.2938" ry="18"/>
<text text-anchor="middle" x="52" y="-30.3" font-family="Times,serif" font-size="14.00">038 (a)</text>
</g>
<!-- 045&#45;&gt;038 -->
<g id="edge1" class="edge"><title>045&#45;&gt;038</title>
<path fill="none" stroke="#b43f3f" stroke-dasharray="1,5" d="M88.9119,-103.207C82.317,-91.0205 73.2777,-74.3176 65.7951,-60.491"/>
<polygon fill="#b43f3f" stroke="#b43f3f" points="68.7504,-58.598 60.9127,-51.4692 62.5941,-61.9297 68.7504,-58.598"/>
<text text-anchor="middle" x="100" y="-73.8" font-family="Times,serif" font-size="14.00">1 (92.7)</text>
</g>
<!-- 063 -->
<g id="node3" class="node"><title>063</title>
<ellipse fill="#ff8a8a" stroke="#b43f3f" cx="325" cy="-208" rx="36.2938" ry="18"/>
<text text-anchor="middle" x="325" y="-204.3" font-family="Times,serif" font-size="14.00">063 (a)</text>
</g>
<!-- 063&#45;&gt;045 -->
<g id="edge2" class="edge"><title>063&#45;&gt;045</title>
<path fill="none" stroke="#b43f3f" stroke-dasharray="1,5" d="M294.208,-197.923C272.237,-191.25 242.083,-181.691 216,-172 187.896,-161.558 156.685,-148.255 133.424,-137.997"/>
<polygon fill="#b43f3f" stroke="#b43f3f" points="134.534,-134.66 123.974,-133.804 131.695,-141.059 134.534,-134.66"/>
<text text-anchor="middle" x="238" y="-160.8" font-family="Times,serif" font-size="14.00">1 (93.1)</text>
</g>
<!-- 031 -->
<g id="node4" class="node"><title>031</title>
<ellipse fill="#ff8a8a" stroke="#b43f3f" cx="234" cy="-121" rx="36.2938" ry="18"/>
<text text-anchor="middle" x="234" y="-117.3" font-family="Times,serif" font-size="14.00">031 (a)</text>
</g>
<!-- 063&#45;&gt;031 -->
<g id="edge3" class="edge"><title>063&#45;&gt;031</title>
<path fill="none" stroke="#b43f3f" stroke-dasharray="1,5" d="M303.628,-193.006C295.008,-186.963 285.186,-179.554 277,-172 268.456,-164.115 259.924,-154.619 252.74,-146.029"/>
<polygon fill="#b43f3f" stroke="#b43f3f" points="255.344,-143.685 246.308,-138.155 249.923,-148.113 255.344,-143.685"/>
<text text-anchor="middle" x="299" y="-160.8" font-family="Times,serif" font-size="14.00">1 (95.8)</text>
</g>
<!-- 021 -->
<g id="node5" class="node"><title>021</title>
<ellipse fill="#ff8a8a" stroke="#b43f3f" cx="325" cy="-121" rx="36.2938" ry="18"/>
<text text-anchor="middle" x="325" y="-117.3" font-family="Times,serif" font-size="14.00">021 (a)</text>
</g>
<!-- 063&#45;&gt;021 -->
<g id="edge4" class="edge"><title>063&#45;&gt;021</title>
<path fill="none" stroke="#b43f3f" stroke-dasharray="1,5" d="M325,-189.799C325,-178.163 325,-162.548 325,-149.237"/>
<polygon fill="#b43f3f" stroke="#b43f3f" points="328.5,-149.175 325,-139.175 321.5,-149.175 328.5,-149.175"/>
<text text-anchor="middle" x="347" y="-160.8" font-family="Times,serif" font-size="14.00">1 (93.1)</text>
</g>
<!-- 028 -->
<g id="node6" class="node"><title>028</title>
<ellipse fill="#ff8a8a" stroke="#b43f3f" cx="416" cy="-121" rx="36.2938" ry="18"/>
<text text-anchor="middle" x="416" y="-117.3" font-family="Times,serif" font-size="14.00">028 (a)</text>
</g>
<!-- 063&#45;&gt;028 -->
<g id="edge5" class="edge"><title>063&#45;&gt;028</title>
<path fill="none" stroke="#b43f3f" stroke-dasharray="1,5" d="M346.372,-193.006C354.992,-186.963 364.814,-179.554 373,-172 381.544,-164.115 390.076,-154.619 397.26,-146.029"/>
<polygon fill="#b43f3f" stroke="#b43f3f" points="400.077,-148.113 403.692,-138.155 394.656,-143.685 400.077,-148.113"/>
<text text-anchor="middle" x="409" y="-160.8" font-family="Times,serif" font-size="14.00">1 (96.6)</text>
</g>
<!-- 07 -->
<g id="node7" class="node"><title>07</title>
<ellipse fill="#ff8a8a" stroke="#b43f3f" cx="546" cy="-121" rx="31.6951" ry="18"/>
<text text-anchor="middle" x="546" y="-117.3" font-family="Times,serif" font-size="14.00">07 (a)</text>
</g>
<!-- 063&#45;&gt;07 -->
<g id="edge6" class="edge"><title>063&#45;&gt;07</title>
<path fill="none" stroke="#b43f3f" stroke-dasharray="1,5" d="M355.674,-198.273C377.921,-191.695 408.611,-182.103 435,-172 461.823,-161.731 491.446,-148.275 513.339,-137.91"/>
<polygon fill="#b43f3f" stroke="#b43f3f" points="514.998,-140.996 522.516,-133.531 511.983,-134.678 514.998,-140.996"/>
<text text-anchor="middle" x="492" y="-160.8" font-family="Times,serif" font-size="14.00">1 (96.6)</text>
</g>
<!-- 013 -->
<g id="node8" class="node"><title>013</title>
<ellipse fill="#ff8a8a" stroke="#b43f3f" cx="143" cy="-34" rx="36.2938" ry="18"/>
<text text-anchor="middle" x="143" y="-30.3" font-family="Times,serif" font-size="14.00">013 (a)</text>
</g>
<!-- 031&#45;&gt;013 -->
<g id="edge7" class="edge"><title>031&#45;&gt;013</title>
<path fill="none" stroke="#b43f3f" stroke-dasharray="1,5" d="M212.628,-106.006C204.008,-99.9634 194.186,-92.5539 186,-85 177.456,-77.1154 168.924,-67.6186 161.74,-59.0293"/>
<polygon fill="#b43f3f" stroke="#b43f3f" points="164.344,-56.6853 155.308,-51.1545 158.923,-61.1135 164.344,-56.6853"/>
<text text-anchor="middle" x="208" y="-73.8" font-family="Times,serif" font-size="14.00">1 (97.1)</text>
</g>
<!-- 017 -->
<g id="node9" class="node"><title>017</title>
<ellipse fill="#ff8a8a" stroke="#b43f3f" cx="234" cy="-34" rx="36.2938" ry="18"/>
<text text-anchor="middle" x="234" y="-30.3" font-family="Times,serif" font-size="14.00">017 (a)</text>
</g>
<!-- 031&#45;&gt;017 -->
<g id="edge8" class="edge"><title>031&#45;&gt;017</title>
<path fill="none" stroke="#b43f3f" stroke-dasharray="1,5" d="M234,-102.799C234,-91.1626 234,-75.5479 234,-62.2368"/>
<polygon fill="#b43f3f" stroke="#b43f3f" points="237.5,-62.1754 234,-52.1754 230.5,-62.1755 237.5,-62.1754"/>
<text text-anchor="middle" x="256" y="-73.8" font-family="Times,serif" font-size="14.00">1 (94.3)</text>
</g>
<!-- 036 -->
<g id="node10" class="node"><title>036</title>
<ellipse fill="#ff8a8a" stroke="#b43f3f" cx="325" cy="-34" rx="36.2938" ry="18"/>
<text text-anchor="middle" x="325" y="-30.3" font-family="Times,serif" font-size="14.00">036 (a)</text>
</g>
<!-- 021&#45;&gt;036 -->
<g id="edge9" class="edge"><title>021&#45;&gt;036</title>
<path fill="none" stroke="#b43f3f" stroke-dasharray="1,5" d="M325,-102.799C325,-91.1626 325,-75.5479 325,-62.2368"/>
<polygon fill="#b43f3f" stroke="#b43f3f" points="328.5,-62.1754 325,-52.1754 321.5,-62.1755 328.5,-62.1754"/>
<text text-anchor="middle" x="347" y="-73.8" font-family="Times,serif" font-size="14.00">1 (97.6)</text>
</g>
<!-- 047 -->
<g id="node11" class="node"><title>047</title>
<ellipse fill="#ff8a8a" stroke="#b43f3f" cx="416" cy="-34" rx="36.2938" ry="18"/>
<text text-anchor="middle" x="416" y="-30.3" font-family="Times,serif" font-size="14.00">047 (a)</text>
</g>
<!-- 021&#45;&gt;047 -->
<g id="edge10" class="edge"><title>021&#45;&gt;047</title>
<path fill="none" stroke="#b43f3f" stroke-dasharray="1,5" d="M346.372,-106.006C354.992,-99.9634 364.814,-92.5539 373,-85 381.544,-77.1154 390.076,-67.6186 397.26,-59.0293"/>
<polygon fill="#b43f3f" stroke="#b43f3f" points="400.077,-61.1135 403.692,-51.1545 394.656,-56.6853 400.077,-61.1135"/>
<text text-anchor="middle" x="409" y="-73.8" font-family="Times,serif" font-size="14.00">1 (95.1)</text>
</g>
<!-- 030 -->
<g id="node12" class="node"><title>030</title>
<ellipse fill="#ff8a8a" stroke="#b43f3f" cx="507" cy="-34" rx="36.2938" ry="18"/>
<text text-anchor="middle" x="507" y="-30.3" font-family="Times,serif" font-size="14.00">030 (a)</text>
</g>
<!-- 07&#45;&gt;030 -->
<g id="edge11" class="edge"><title>07&#45;&gt;030</title>
<path fill="none" stroke="#b43f3f" stroke-dasharray="1,5" d="M535.895,-103.548C532.546,-97.7846 528.928,-91.2019 526,-85 522.471,-77.5266 519.1,-69.2062 516.202,-61.5312"/>
<polygon fill="#b43f3f" stroke="#b43f3f" points="519.416,-60.1279 512.694,-51.9388 512.842,-62.5326 519.416,-60.1279"/>
<text text-anchor="middle" x="548" y="-73.8" font-family="Times,serif" font-size="14.00">1 (95.1)</text>
</g>
<!-- 034 -->
<g id="node13" class="node"><title>034</title>
<ellipse fill="#ff8a8a" stroke="#b43f3f" cx="598" cy="-34" rx="36.2938" ry="18"/>
<text text-anchor="middle" x="598" y="-30.3" font-family="Times,serif" font-size="14.00">034 (a)</text>
</g>
<!-- 07&#45;&gt;034 -->
<g id="edge12" class="edge"><title>07&#45;&gt;034</title>
<path fill="none" stroke="#b43f3f" stroke-dasharray="1,5" d="M557.544,-103.822C561.6,-97.9685 566.113,-91.2588 570,-85 574.829,-77.2246 579.804,-68.5802 584.195,-60.6957"/>
<polygon fill="#b43f3f" stroke="#b43f3f" points="587.288,-62.3356 589.039,-51.8865 581.154,-58.9627 587.288,-62.3356"/>
<text text-anchor="middle" x="601" y="-73.8" font-family="Times,serif" font-size="14.00">1 (95.1)</text>
</g>
<!-- 037 -->
<g id="node14" class="node"><title>037</title>
<ellipse fill="#ff8a8a" stroke="#b43f3f" cx="689" cy="-34" rx="36.2938" ry="18"/>
<text text-anchor="middle" x="689" y="-30.3" font-family="Times,serif" font-size="14.00">037 (a)</text>
</g>
<!-- 07&#45;&gt;037 -->
<g id="edge13" class="edge"><title>07&#45;&gt;037</title>
<path fill="none" stroke="#b43f3f" stroke-dasharray="1,5" d="M572.418,-110.678C588.696,-104.432 609.69,-95.4531 627,-85 640.335,-76.9472 653.94,-66.299 664.996,-56.8993"/>
<polygon fill="#b43f3f" stroke="#b43f3f" points="667.302,-59.5318 672.554,-50.3304 662.71,-54.2482 667.302,-59.5318"/>
<text text-anchor="middle" x="671" y="-73.8" font-family="Times,serif" font-size="14.00">1 (97.5)</text>
</g>
<!-- 01 -->
<g id="node15" class="node"><title>01</title>
<ellipse fill="#ff8a8a" stroke="#b43f3f" cx="216" cy="-208" rx="31.6951" ry="18"/>
<text text-anchor="middle" x="216" y="-204.3" font-family="Times,serif" font-size="14.00">01 (a)</text>
</g>
<!-- 0211 -->
<g id="node16" class="node"><title>0211</title>
<ellipse fill="#ff8a8a" stroke="#b43f3f" cx="80" cy="-208" rx="40.0939" ry="18"/>
<text text-anchor="middle" x="80" y="-204.3" font-family="Times,serif" font-size="14.00">0211 (a)</text>
</g>
<!-- leg_s -->
<g id="node17" class="node"><title>leg_s</title>
<text text-anchor="middle" x="848" y="-204.3" font-family="Times,serif" font-size="14.00">Textual flow strength</text>
</g>
<!-- leg_e1 -->
<!-- leg_s&#45;&gt;leg_e1 -->
<g id="edge14" class="edge"><title>leg_s&#45;&gt;leg_e1</title>
<path fill="none" stroke="black" stroke-dasharray="1,5" d="M829.666,-189.686C824.132,-184.194 818.161,-177.989 813,-172 803.171,-160.593 793.072,-146.779 785.914,-136.563"/>
<polygon fill="black" stroke="black" points="788.614,-134.314 780.056,-128.068 782.851,-138.288 788.614,-134.314"/>
<text text-anchor="middle" x="828.5" y="-160.8" font-family="Times,serif" font-size="14.00">&lt;=5 &#160;</text>
</g>
<!-- leg_e2 -->
<!-- leg_s&#45;&gt;leg_e2 -->
<g id="edge15" class="edge"><title>leg_s&#45;&gt;leg_e2</title>
<path fill="none" stroke="black" stroke-dasharray="5,2" d="M848,-189.799C848,-174.794 848,-153.174 848,-138.409"/>
<polygon fill="black" stroke="black" points="851.5,-138.293 848,-128.293 844.5,-138.293 851.5,-138.293"/>
<text text-anchor="middle" x="867" y="-160.8" font-family="Times,serif" font-size="14.00"> &#160;&lt;=25</text>
</g>
<!-- leg_e3 -->
<!-- leg_s&#45;&gt;leg_e3 -->
<g id="edge16" class="edge"><title>leg_s&#45;&gt;leg_e3</title>
<path fill="none" stroke="black" d="M871.503,-189.76C877.906,-184.462 884.567,-178.344 890,-172 899.087,-161.39 907.095,-147.689 912.546,-137.313"/>
<polygon fill="black" stroke="black" points="915.722,-138.789 917.091,-128.283 909.469,-135.642 915.722,-138.789"/>
<text text-anchor="middle" x="911" y="-160.8" font-family="Times,serif" font-size="14.00">&gt;25</text>
</g>
</g>
</svg>
