<?xml version="1.0" encoding="UTF-8" standalone="no"?>
<!DOCTYPE svg PUBLIC "-//W3C//DTD SVG 1.1//EN"
 "http://www.w3.org/Graphics/SVG/1.1/DTD/svg11.dtd">
<!-- Generated by graphviz version 2.38.0 (20140413.2041)
 -->
<!-- Title: %3 Pages: 1 -->
<svg width="1140pt" height="250pt"
 viewBox="0.00 0.00 1140.00 250.00" xmlns="http://www.w3.org/2000/svg" xmlns:xlink="http://www.w3.org/1999/xlink">
<g id="graph0" class="graph" transform="scale(1 1) rotate(0) translate(4 246)">
<title>%3</title>
<polygon fill="white" stroke="none" points="-4,4 -4,-246 1136,-246 1136,4 -4,4"/>
<g id="clust1" class="cluster"><title>cluster_reading</title>
<polygon fill="none" stroke="black" points="8,-8 8,-234 902,-234 902,-8 8,-8"/>
</g>
<g id="clust2" class="cluster"><title>cluster_legend</title>
<path fill="none" stroke="black" d="M922,-106C922,-106 1112,-106 1112,-106 1118,-106 1124,-112 1124,-118 1124,-118 1124,-222 1124,-222 1124,-228 1118,-234 1112,-234 1112,-234 922,-234 922,-234 916,-234 910,-228 910,-222 910,-222 910,-118 910,-118 910,-112 916,-106 922,-106"/>
</g>
<!-- 044 -->
<g id="node1" class="node"><title>044</title>
<ellipse fill="#ff8a8a" stroke="#b43f3f" cx="858" cy="-208" rx="36.2938" ry="18"/>
<text text-anchor="middle" x="858" y="-204.3" font-family="Times,serif" font-size="14.00">044 (a)</text>
</g>
<!-- 022 -->
<g id="node2" class="node"><title>022</title>
<ellipse fill="#ff8a8a" stroke="#b43f3f" cx="858" cy="-121" rx="36.2938" ry="18"/>
<text text-anchor="middle" x="858" y="-117.3" font-family="Times,serif" font-size="14.00">022 (a)</text>
</g>
<!-- 044&#45;&gt;022 -->
<g id="edge1" class="edge"><title>044&#45;&gt;022</title>
<path fill="none" stroke="#b43f3f" stroke-dasharray="1,5" d="M858,-189.799C858,-178.163 858,-162.548 858,-149.237"/>
<polygon fill="#b43f3f" stroke="#b43f3f" points="861.5,-149.175 858,-139.175 854.5,-149.175 861.5,-149.175"/>
<text text-anchor="middle" x="880" y="-160.8" font-family="Times,serif" font-size="14.00">1 (91.7)</text>
</g>
<!-- 063 -->
<g id="node3" class="node"><title>063</title>
<ellipse fill="#ff8a8a" stroke="#b43f3f" cx="767" cy="-208" rx="36.2938" ry="18"/>
<text text-anchor="middle" x="767" y="-204.3" font-family="Times,serif" font-size="14.00">063 (a)</text>
</g>
<!-- 031 -->
<g id="node4" class="node"><title>031</title>
<ellipse fill="#ff8a8a" stroke="#b43f3f" cx="322" cy="-121" rx="36.2938" ry="18"/>
<text text-anchor="middle" x="322" y="-117.3" font-family="Times,serif" font-size="14.00">031 (a)</text>
</g>
<!-- 063&#45;&gt;031 -->
<g id="edge2" class="edge"><title>063&#45;&gt;031</title>
<path fill="none" stroke="#b43f3f" stroke-dasharray="1,5" d="M740.27,-195.4C734.353,-193.258 728.043,-191.292 722,-190 591.814,-162.161 551.658,-206.213 423,-172 397.862,-165.315 371.594,-152.089 352.15,-140.918"/>
<polygon fill="#b43f3f" stroke="#b43f3f" points="353.85,-137.858 343.457,-135.8 350.298,-143.89 353.85,-137.858"/>
<text text-anchor="middle" x="445" y="-160.8" font-family="Times,serif" font-size="14.00">1 (95.8)</text>
</g>
<!-- 011 -->
<g id="node5" class="node"><title>011</title>
<ellipse fill="#ff8a8a" stroke="#b43f3f" cx="413" cy="-121" rx="36.2938" ry="18"/>
<text text-anchor="middle" x="413" y="-117.3" font-family="Times,serif" font-size="14.00">011 (a)</text>
</g>
<!-- 063&#45;&gt;011 -->
<g id="edge3" class="edge"><title>063&#45;&gt;011</title>
<path fill="none" stroke="#b43f3f" stroke-dasharray="1,5" d="M740.247,-195.503C734.332,-193.355 728.028,-191.361 722,-190 627.599,-168.694 597.727,-199.7 505,-172 482.454,-165.265 459.188,-152.558 441.694,-141.64"/>
<polygon fill="#b43f3f" stroke="#b43f3f" points="443.413,-138.585 433.106,-136.135 439.636,-144.479 443.413,-138.585"/>
<text text-anchor="middle" x="527" y="-160.8" font-family="Times,serif" font-size="14.00">1 (93.1)</text>
</g>
<!-- 07 -->
<g id="node6" class="node"><title>07</title>
<ellipse fill="#ff8a8a" stroke="#b43f3f" cx="499" cy="-121" rx="31.6951" ry="18"/>
<text text-anchor="middle" x="499" y="-117.3" font-family="Times,serif" font-size="14.00">07 (a)</text>
</g>
<!-- 063&#45;&gt;07 -->
<g id="edge4" class="edge"><title>063&#45;&gt;07</title>
<path fill="none" stroke="#b43f3f" stroke-dasharray="1,5" d="M740.195,-195.722C734.283,-193.56 727.994,-191.505 722,-190 662.435,-175.049 643.126,-191.821 585,-172 564.036,-164.851 542.493,-152.316 526.212,-141.586"/>
<polygon fill="#b43f3f" stroke="#b43f3f" points="527.989,-138.563 517.746,-135.856 524.066,-144.36 527.989,-138.563"/>
<text text-anchor="middle" x="607" y="-160.8" font-family="Times,serif" font-size="14.00">1 (96.6)</text>
</g>
<!-- 045 -->
<g id="node7" class="node"><title>045</title>
<ellipse fill="#ff8a8a" stroke="#b43f3f" cx="585" cy="-121" rx="36.2938" ry="18"/>
<text text-anchor="middle" x="585" y="-117.3" font-family="Times,serif" font-size="14.00">045 (a)</text>
</g>
<!-- 063&#45;&gt;045 -->
<g id="edge5" class="edge"><title>063&#45;&gt;045</title>
<path fill="none" stroke="#b43f3f" stroke-dasharray="1,5" d="M739.529,-196.189C733.771,-194.045 727.712,-191.878 722,-190 693.931,-180.77 684.767,-184.515 658,-172 641.448,-164.261 624.518,-152.92 611.134,-142.994"/>
<polygon fill="#b43f3f" stroke="#b43f3f" points="612.97,-139.993 602.891,-136.728 608.734,-145.566 612.97,-139.993"/>
<text text-anchor="middle" x="680" y="-160.8" font-family="Times,serif" font-size="14.00">1 (93.1)</text>
</g>
<!-- 021 -->
<g id="node8" class="node"><title>021</title>
<ellipse fill="#ff8a8a" stroke="#b43f3f" cx="676" cy="-121" rx="36.2938" ry="18"/>
<text text-anchor="middle" x="676" y="-117.3" font-family="Times,serif" font-size="14.00">021 (a)</text>
</g>
<!-- 063&#45;&gt;021 -->
<g id="edge6" class="edge"><title>063&#45;&gt;021</title>
<path fill="none" stroke="#b43f3f" stroke-dasharray="1,5" d="M745.628,-193.006C737.008,-186.963 727.186,-179.554 719,-172 710.456,-164.115 701.924,-154.619 694.74,-146.029"/>
<polygon fill="#b43f3f" stroke="#b43f3f" points="697.344,-143.685 688.308,-138.155 691.923,-148.113 697.344,-143.685"/>
<text text-anchor="middle" x="741" y="-160.8" font-family="Times,serif" font-size="14.00">1 (93.1)</text>
</g>
<!-- 028 -->
<g id="node9" class="node"><title>028</title>
<ellipse fill="#ff8a8a" stroke="#b43f3f" cx="767" cy="-121" rx="36.2938" ry="18"/>
<text text-anchor="middle" x="767" y="-117.3" font-family="Times,serif" font-size="14.00">028 (a)</text>
</g>
<!-- 063&#45;&gt;028 -->
<g id="edge7" class="edge"><title>063&#45;&gt;028</title>
<path fill="none" stroke="#b43f3f" stroke-dasharray="1,5" d="M767,-189.799C767,-178.163 767,-162.548 767,-149.237"/>
<polygon fill="#b43f3f" stroke="#b43f3f" points="770.5,-149.175 767,-139.175 763.5,-149.175 770.5,-149.175"/>
<text text-anchor="middle" x="789" y="-160.8" font-family="Times,serif" font-size="14.00">1 (96.6)</text>
</g>
<!-- 017 -->
<g id="node10" class="node"><title>017</title>
<ellipse fill="#ff8a8a" stroke="#b43f3f" cx="315" cy="-34" rx="36.2938" ry="18"/>
<text text-anchor="middle" x="315" y="-30.3" font-family="Times,serif" font-size="14.00">017 (a)</text>
</g>
<!-- 031&#45;&gt;017 -->
<g id="edge8" class="edge"><title>031&#45;&gt;017</title>
<path fill="none" stroke="#b43f3f" stroke-dasharray="1,5" d="M320.583,-102.799C319.625,-91.1626 318.339,-75.5479 317.243,-62.2368"/>
<polygon fill="#b43f3f" stroke="#b43f3f" points="320.723,-61.8544 316.414,-52.1754 313.747,-62.429 320.723,-61.8544"/>
<text text-anchor="middle" x="341" y="-73.8" font-family="Times,serif" font-size="14.00">1 (94.3)</text>
</g>
<!-- 037 -->
<g id="node11" class="node"><title>037</title>
<ellipse fill="#ff8a8a" stroke="#b43f3f" cx="406" cy="-34" rx="36.2938" ry="18"/>
<text text-anchor="middle" x="406" y="-30.3" font-family="Times,serif" font-size="14.00">037 (a)</text>
</g>
<!-- 07&#45;&gt;037 -->
<g id="edge9" class="edge"><title>07&#45;&gt;037</title>
<path fill="none" stroke="#b43f3f" stroke-dasharray="1,5" d="M478.659,-107.015C469.528,-100.804 458.843,-92.9892 450,-85 441.287,-77.1287 432.563,-67.6347 425.208,-59.0439"/>
<polygon fill="#b43f3f" stroke="#b43f3f" points="427.721,-56.5924 418.621,-51.1665 422.351,-61.083 427.721,-56.5924"/>
<text text-anchor="middle" x="472" y="-73.8" font-family="Times,serif" font-size="14.00">1 (97.5)</text>
</g>
<!-- 034 -->
<g id="node12" class="node"><title>034</title>
<ellipse fill="#ff8a8a" stroke="#b43f3f" cx="497" cy="-34" rx="36.2938" ry="18"/>
<text text-anchor="middle" x="497" y="-30.3" font-family="Times,serif" font-size="14.00">034 (a)</text>
</g>
<!-- 07&#45;&gt;034 -->
<g id="edge10" class="edge"><title>07&#45;&gt;034</title>
<path fill="none" stroke="#b43f3f" stroke-dasharray="1,5" d="M498.595,-102.799C498.321,-91.1626 497.954,-75.5479 497.641,-62.2368"/>
<polygon fill="#b43f3f" stroke="#b43f3f" points="501.138,-62.0903 497.404,-52.1754 494.14,-62.255 501.138,-62.0903"/>
<text text-anchor="middle" x="521" y="-73.8" font-family="Times,serif" font-size="14.00">1 (95.1)</text>
</g>
<!-- 038 -->
<g id="node13" class="node"><title>038</title>
<ellipse fill="#ff8a8a" stroke="#b43f3f" cx="588" cy="-34" rx="36.2938" ry="18"/>
<text text-anchor="middle" x="588" y="-30.3" font-family="Times,serif" font-size="14.00">038 (a)</text>
</g>
<!-- 045&#45;&gt;038 -->
<g id="edge11" class="edge"><title>045&#45;&gt;038</title>
<path fill="none" stroke="#b43f3f" stroke-dasharray="1,5" d="M585.607,-102.799C586.018,-91.1626 586.569,-75.5479 587.039,-62.2368"/>
<polygon fill="#b43f3f" stroke="#b43f3f" points="590.539,-62.2927 587.394,-52.1754 583.543,-62.0457 590.539,-62.2927"/>
<text text-anchor="middle" x="609" y="-73.8" font-family="Times,serif" font-size="14.00">1 (92.7)</text>
</g>
<!-- 036 -->
<g id="node14" class="node"><title>036</title>
<ellipse fill="#ff8a8a" stroke="#b43f3f" cx="679" cy="-34" rx="36.2938" ry="18"/>
<text text-anchor="middle" x="679" y="-30.3" font-family="Times,serif" font-size="14.00">036 (a)</text>
</g>
<!-- 021&#45;&gt;036 -->
<g id="edge12" class="edge"><title>021&#45;&gt;036</title>
<path fill="none" stroke="#b43f3f" stroke-dasharray="1,5" d="M676.607,-102.799C677.018,-91.1626 677.569,-75.5479 678.039,-62.2368"/>
<polygon fill="#b43f3f" stroke="#b43f3f" points="681.539,-62.2927 678.394,-52.1754 674.543,-62.0457 681.539,-62.2927"/>
<text text-anchor="middle" x="700" y="-73.8" font-family="Times,serif" font-size="14.00">1 (97.6)</text>
</g>
<!-- 047 -->
<g id="node15" class="node"><title>047</title>
<ellipse fill="#ff8a8a" stroke="#b43f3f" cx="770" cy="-34" rx="36.2938" ry="18"/>
<text text-anchor="middle" x="770" y="-30.3" font-family="Times,serif" font-size="14.00">047 (a)</text>
</g>
<!-- 021&#45;&gt;047 -->
<g id="edge13" class="edge"><title>021&#45;&gt;047</title>
<path fill="none" stroke="#b43f3f" stroke-dasharray="1,5" d="M697.763,-106.417C706.861,-100.327 717.314,-92.7722 726,-85 734.75,-77.1702 743.482,-67.6848 750.833,-59.0893"/>
<polygon fill="#b43f3f" stroke="#b43f3f" points="753.693,-61.1242 757.413,-51.2039 748.319,-56.6393 753.693,-61.1242"/>
<text text-anchor="middle" x="763" y="-73.8" font-family="Times,serif" font-size="14.00">1 (95.1)</text>
</g>
<!-- 03 -->
<g id="node16" class="node"><title>03</title>
<ellipse fill="#ff8a8a" stroke="#b43f3f" cx="681" cy="-208" rx="31.6951" ry="18"/>
<text text-anchor="middle" x="681" y="-204.3" font-family="Times,serif" font-size="14.00">03 (a)</text>
</g>
<!-- 032 -->
<g id="node17" class="node"><title>032</title>
<ellipse fill="#ff8a8a" stroke="#b43f3f" cx="231" cy="-121" rx="36.2938" ry="18"/>
<text text-anchor="middle" x="231" y="-117.3" font-family="Times,serif" font-size="14.00">032 (a)</text>
</g>
<!-- 03&#45;&gt;032 -->
<g id="edge14" class="edge"><title>03&#45;&gt;032</title>
<path fill="none" stroke="#b43f3f" stroke-dasharray="1,5" d="M657.594,-195.729C651.951,-193.454 645.857,-191.349 640,-190 508.968,-159.831 468.336,-205.049 338,-172 311.112,-165.182 282.762,-151.607 262.003,-140.321"/>
<polygon fill="#b43f3f" stroke="#b43f3f" points="263.472,-137.133 253.032,-135.329 260.068,-143.25 263.472,-137.133"/>
<text text-anchor="middle" x="360" y="-160.8" font-family="Times,serif" font-size="14.00">1 (91.7)</text>
</g>
<!-- P75 -->
<g id="node18" class="node"><title>P75</title>
<ellipse fill="#ff8a8a" stroke="#b43f3f" cx="595" cy="-208" rx="36.2938" ry="18"/>
<text text-anchor="middle" x="595" y="-204.3" font-family="Times,serif" font-size="14.00">P75 (a)</text>
</g>
<!-- 019 -->
<g id="node19" class="node"><title>019</title>
<ellipse fill="#ff8a8a" stroke="#b43f3f" cx="504" cy="-208" rx="36.2938" ry="18"/>
<text text-anchor="middle" x="504" y="-204.3" font-family="Times,serif" font-size="14.00">019 (a)</text>
</g>
<!-- 0211 -->
<g id="node20" class="node"><title>0211</title>
<ellipse fill="#ff8a8a" stroke="#b43f3f" cx="409" cy="-208" rx="40.0939" ry="18"/>
<text text-anchor="middle" x="409" y="-204.3" font-family="Times,serif" font-size="14.00">0211 (a)</text>
</g>
<!-- 091 -->
<g id="node21" class="node"><title>091</title>
<ellipse fill="#ff8a8a" stroke="#b43f3f" cx="314" cy="-208" rx="36.2938" ry="18"/>
<text text-anchor="middle" x="314" y="-204.3" font-family="Times,serif" font-size="14.00">091 (a)</text>
</g>
<!-- 02 -->
<g id="node22" class="node"><title>02</title>
<ellipse fill="#ff8a8a" stroke="#b43f3f" cx="228" cy="-208" rx="31.6951" ry="18"/>
<text text-anchor="middle" x="228" y="-204.3" font-family="Times,serif" font-size="14.00">02 (a)</text>
</g>
<!-- 0141 -->
<g id="node23" class="node"><title>0141</title>
<ellipse fill="#ff8a8a" stroke="#b43f3f" cx="138" cy="-208" rx="40.0939" ry="18"/>
<text text-anchor="middle" x="138" y="-204.3" font-family="Times,serif" font-size="14.00">0141 (a)</text>
</g>
<!-- 05 -->
<g id="node24" class="node"><title>05</title>
<ellipse fill="#ff8a8a" stroke="#b43f3f" cx="48" cy="-208" rx="31.6951" ry="18"/>
<text text-anchor="middle" x="48" y="-204.3" font-family="Times,serif" font-size="14.00">05 (a)</text>
</g>
<!-- leg_s -->
<g id="node25" class="node"><title>leg_s</title>
<text text-anchor="middle" x="1017" y="-204.3" font-family="Times,serif" font-size="14.00">Textual flow strength</text>
</g>
<!-- leg_e1 -->
<!-- leg_s&#45;&gt;leg_e1 -->
<g id="edge15" class="edge"><title>leg_s&#45;&gt;leg_e1</title>
<path fill="none" stroke="black" stroke-dasharray="1,5" d="M998.666,-189.686C993.132,-184.194 987.161,-177.989 982,-172 972.171,-160.593 962.072,-146.779 954.914,-136.563"/>
<polygon fill="black" stroke="black" points="957.614,-134.314 949.056,-128.068 951.851,-138.288 957.614,-134.314"/>
<text text-anchor="middle" x="997.5" y="-160.8" font-family="Times,serif" font-size="14.00">&lt;=5 &#160;</text>
</g>
<!-- leg_e2 -->
<!-- leg_s&#45;&gt;leg_e2 -->
<g id="edge16" class="edge"><title>leg_s&#45;&gt;leg_e2</title>
<path fill="none" stroke="black" stroke-dasharray="5,2" d="M1017,-189.799C1017,-174.794 1017,-153.174 1017,-138.409"/>
<polygon fill="black" stroke="black" points="1020.5,-138.293 1017,-128.293 1013.5,-138.293 1020.5,-138.293"/>
<text text-anchor="middle" x="1036" y="-160.8" font-family="Times,serif" font-size="14.00"> &#160;&lt;=25</text>
</g>
<!-- leg_e3 -->
<!-- leg_s&#45;&gt;leg_e3 -->
<g id="edge17" class="edge"><title>leg_s&#45;&gt;leg_e3</title>
<path fill="none" stroke="black" d="M1040.5,-189.76C1046.91,-184.462 1053.57,-178.344 1059,-172 1068.09,-161.39 1076.1,-147.689 1081.55,-137.313"/>
<polygon fill="black" stroke="black" points="1084.72,-138.789 1086.09,-128.283 1078.47,-135.642 1084.72,-138.789"/>
<text text-anchor="middle" x="1080" y="-160.8" font-family="Times,serif" font-size="14.00">&gt;25</text>
</g>
</g>
</svg>
