<?xml version="1.0" encoding="UTF-8" standalone="no"?>
<!DOCTYPE svg PUBLIC "-//W3C//DTD SVG 1.1//EN"
 "http://www.w3.org/Graphics/SVG/1.1/DTD/svg11.dtd">
<!-- Generated by graphviz version 2.38.0 (20140413.2041)
 -->
<!-- Title: %3 Pages: 1 -->
<svg width="698pt" height="250pt"
 viewBox="0.00 0.00 698.00 250.00" xmlns="http://www.w3.org/2000/svg" xmlns:xlink="http://www.w3.org/1999/xlink">
<g id="graph0" class="graph" transform="scale(1 1) rotate(0) translate(4 246)">
<title>%3</title>
<polygon fill="white" stroke="none" points="-4,4 -4,-246 694,-246 694,4 -4,4"/>
<g id="clust1" class="cluster"><title>cluster_legend</title>
<path fill="none" stroke="black" d="M20,-106C20,-106 210,-106 210,-106 216,-106 222,-112 222,-118 222,-118 222,-222 222,-222 222,-228 216,-234 210,-234 210,-234 20,-234 20,-234 14,-234 8,-228 8,-222 8,-222 8,-118 8,-118 8,-112 14,-106 20,-106"/>
</g>
<g id="clust2" class="cluster"><title>cluster_reading</title>
<polygon fill="none" stroke="black" points="230,-8 230,-234 682,-234 682,-8 230,-8"/>
</g>
<!-- leg_s -->
<g id="node1" class="node"><title>leg_s</title>
<text text-anchor="middle" x="115" y="-204.3" font-family="Times,serif" font-size="14.00">Textual flow strength</text>
</g>
<!-- leg_e1 -->
<!-- leg_s&#45;&gt;leg_e1 -->
<g id="edge1" class="edge"><title>leg_s&#45;&gt;leg_e1</title>
<path fill="none" stroke="black" stroke-dasharray="1,5" d="M96.6657,-189.686C91.1324,-184.194 85.1607,-177.989 80,-172 70.1708,-160.593 60.0722,-146.779 52.9137,-136.563"/>
<polygon fill="black" stroke="black" points="55.6142,-134.314 47.056,-128.068 49.8514,-138.288 55.6142,-134.314"/>
<text text-anchor="middle" x="95.5" y="-160.8" font-family="Times,serif" font-size="14.00">&lt;=5 &#160;</text>
</g>
<!-- leg_e2 -->
<!-- leg_s&#45;&gt;leg_e2 -->
<g id="edge2" class="edge"><title>leg_s&#45;&gt;leg_e2</title>
<path fill="none" stroke="black" stroke-dasharray="5,2" d="M115,-189.799C115,-174.794 115,-153.174 115,-138.409"/>
<polygon fill="black" stroke="black" points="118.5,-138.293 115,-128.293 111.5,-138.293 118.5,-138.293"/>
<text text-anchor="middle" x="134" y="-160.8" font-family="Times,serif" font-size="14.00"> &#160;&lt;=25</text>
</g>
<!-- leg_e3 -->
<!-- leg_s&#45;&gt;leg_e3 -->
<g id="edge3" class="edge"><title>leg_s&#45;&gt;leg_e3</title>
<path fill="none" stroke="black" d="M138.503,-189.76C144.906,-184.462 151.567,-178.344 157,-172 166.087,-161.39 174.095,-147.689 179.546,-137.313"/>
<polygon fill="black" stroke="black" points="182.722,-138.789 184.091,-128.283 176.469,-135.642 182.722,-138.789"/>
<text text-anchor="middle" x="179" y="-160.8" font-family="Times,serif" font-size="14.00">&gt;25</text>
</g>
<!-- 045 -->
<g id="node5" class="node"><title>045</title>
<ellipse fill="#ff8a8a" stroke="#b43f3f" cx="274" cy="-121" rx="36.2938" ry="18"/>
<text text-anchor="middle" x="274" y="-117.3" font-family="Times,serif" font-size="14.00">045 (a)</text>
</g>
<!-- 038 -->
<g id="node6" class="node"><title>038</title>
<ellipse fill="#ff8a8a" stroke="#b43f3f" cx="274" cy="-34" rx="36.2938" ry="18"/>
<text text-anchor="middle" x="274" y="-30.3" font-family="Times,serif" font-size="14.00">038 (a)</text>
</g>
<!-- 045&#45;&gt;038 -->
<g id="edge4" class="edge"><title>045&#45;&gt;038</title>
<path fill="none" stroke="#b43f3f" stroke-dasharray="1,5" d="M274,-102.799C274,-91.1626 274,-75.5479 274,-62.2368"/>
<polygon fill="#b43f3f" stroke="#b43f3f" points="277.5,-62.1754 274,-52.1754 270.5,-62.1755 277.5,-62.1754"/>
<text text-anchor="middle" x="296" y="-73.8" font-family="Times,serif" font-size="14.00">1 (92.7)</text>
</g>
<!-- 063 -->
<g id="node7" class="node"><title>063</title>
<ellipse fill="#ff8a8a" stroke="#b43f3f" cx="456" cy="-208" rx="36.2938" ry="18"/>
<text text-anchor="middle" x="456" y="-204.3" font-family="Times,serif" font-size="14.00">063 (a)</text>
</g>
<!-- 063&#45;&gt;045 -->
<g id="edge5" class="edge"><title>063&#45;&gt;045</title>
<path fill="none" stroke="#b43f3f" stroke-dasharray="1,5" d="M428.529,-196.189C422.771,-194.045 416.712,-191.878 411,-190 382.931,-180.77 373.767,-184.515 347,-172 330.448,-164.261 313.518,-152.92 300.134,-142.994"/>
<polygon fill="#b43f3f" stroke="#b43f3f" points="301.97,-139.993 291.891,-136.728 297.734,-145.566 301.97,-139.993"/>
<text text-anchor="middle" x="369" y="-160.8" font-family="Times,serif" font-size="14.00">1 (93.1)</text>
</g>
<!-- 031 -->
<g id="node8" class="node"><title>031</title>
<ellipse fill="#ff8a8a" stroke="#b43f3f" cx="365" cy="-121" rx="36.2938" ry="18"/>
<text text-anchor="middle" x="365" y="-117.3" font-family="Times,serif" font-size="14.00">031 (a)</text>
</g>
<!-- 063&#45;&gt;031 -->
<g id="edge6" class="edge"><title>063&#45;&gt;031</title>
<path fill="none" stroke="#b43f3f" stroke-dasharray="1,5" d="M434.628,-193.006C426.008,-186.963 416.186,-179.554 408,-172 399.456,-164.115 390.924,-154.619 383.74,-146.029"/>
<polygon fill="#b43f3f" stroke="#b43f3f" points="386.344,-143.685 377.308,-138.155 380.923,-148.113 386.344,-143.685"/>
<text text-anchor="middle" x="430" y="-160.8" font-family="Times,serif" font-size="14.00">1 (95.8)</text>
</g>
<!-- 028 -->
<g id="node9" class="node"><title>028</title>
<ellipse fill="#ff8a8a" stroke="#b43f3f" cx="456" cy="-121" rx="36.2938" ry="18"/>
<text text-anchor="middle" x="456" y="-117.3" font-family="Times,serif" font-size="14.00">028 (a)</text>
</g>
<!-- 063&#45;&gt;028 -->
<g id="edge7" class="edge"><title>063&#45;&gt;028</title>
<path fill="none" stroke="#b43f3f" stroke-dasharray="1,5" d="M456,-189.799C456,-178.163 456,-162.548 456,-149.237"/>
<polygon fill="#b43f3f" stroke="#b43f3f" points="459.5,-149.175 456,-139.175 452.5,-149.175 459.5,-149.175"/>
<text text-anchor="middle" x="478" y="-160.8" font-family="Times,serif" font-size="14.00">1 (96.6)</text>
</g>
<!-- 07 -->
<g id="node10" class="node"><title>07</title>
<ellipse fill="#ff8a8a" stroke="#b43f3f" cx="542" cy="-121" rx="31.6951" ry="18"/>
<text text-anchor="middle" x="542" y="-117.3" font-family="Times,serif" font-size="14.00">07 (a)</text>
</g>
<!-- 063&#45;&gt;07 -->
<g id="edge8" class="edge"><title>063&#45;&gt;07</title>
<path fill="none" stroke="#b43f3f" stroke-dasharray="1,5" d="M477.604,-193.25C486.26,-187.245 496.046,-179.798 504,-172 511.825,-164.329 519.362,-154.975 525.632,-146.442"/>
<polygon fill="#b43f3f" stroke="#b43f3f" points="528.497,-148.452 531.443,-138.275 522.794,-144.394 528.497,-148.452"/>
<text text-anchor="middle" x="539" y="-160.8" font-family="Times,serif" font-size="14.00">1 (96.6)</text>
</g>
<!-- 011 -->
<g id="node11" class="node"><title>011</title>
<ellipse fill="#ff8a8a" stroke="#b43f3f" cx="628" cy="-121" rx="36.2938" ry="18"/>
<text text-anchor="middle" x="628" y="-117.3" font-family="Times,serif" font-size="14.00">011 (a)</text>
</g>
<!-- 063&#45;&gt;011 -->
<g id="edge9" class="edge"><title>063&#45;&gt;011</title>
<path fill="none" stroke="#b43f3f" stroke-dasharray="1,5" d="M488.708,-199.786C511.025,-194.088 540.81,-184.927 565,-172 579.072,-164.48 593.134,-153.712 604.39,-144.093"/>
<polygon fill="#b43f3f" stroke="#b43f3f" points="606.854,-146.588 612.051,-137.355 602.231,-141.331 606.854,-146.588"/>
<text text-anchor="middle" x="609" y="-160.8" font-family="Times,serif" font-size="14.00">1 (93.1)</text>
</g>
<!-- 013 -->
<g id="node12" class="node"><title>013</title>
<ellipse fill="#ff8a8a" stroke="#b43f3f" cx="365" cy="-34" rx="36.2938" ry="18"/>
<text text-anchor="middle" x="365" y="-30.3" font-family="Times,serif" font-size="14.00">013 (a)</text>
</g>
<!-- 031&#45;&gt;013 -->
<g id="edge10" class="edge"><title>031&#45;&gt;013</title>
<path fill="none" stroke="#b43f3f" stroke-dasharray="1,5" d="M365,-102.799C365,-91.1626 365,-75.5479 365,-62.2368"/>
<polygon fill="#b43f3f" stroke="#b43f3f" points="368.5,-62.1754 365,-52.1754 361.5,-62.1755 368.5,-62.1754"/>
<text text-anchor="middle" x="387" y="-73.8" font-family="Times,serif" font-size="14.00">1 (97.1)</text>
</g>
<!-- 030 -->
<g id="node13" class="node"><title>030</title>
<ellipse fill="#ff8a8a" stroke="#b43f3f" cx="456" cy="-34" rx="36.2938" ry="18"/>
<text text-anchor="middle" x="456" y="-30.3" font-family="Times,serif" font-size="14.00">030 (a)</text>
</g>
<!-- 07&#45;&gt;030 -->
<g id="edge11" class="edge"><title>07&#45;&gt;030</title>
<path fill="none" stroke="#b43f3f" stroke-dasharray="1,5" d="M522.345,-106.687C513.853,-100.531 504.043,-92.8501 496,-85 488.005,-77.1968 480.122,-67.8144 473.496,-59.2954"/>
<polygon fill="#b43f3f" stroke="#b43f3f" points="476.159,-57.0138 467.331,-51.1546 470.578,-61.2397 476.159,-57.0138"/>
<text text-anchor="middle" x="518" y="-73.8" font-family="Times,serif" font-size="14.00">1 (95.1)</text>
</g>
<!-- 034 -->
<g id="node14" class="node"><title>034</title>
<ellipse fill="#ff8a8a" stroke="#b43f3f" cx="547" cy="-34" rx="36.2938" ry="18"/>
<text text-anchor="middle" x="547" y="-30.3" font-family="Times,serif" font-size="14.00">034 (a)</text>
</g>
<!-- 07&#45;&gt;034 -->
<g id="edge12" class="edge"><title>07&#45;&gt;034</title>
<path fill="none" stroke="#b43f3f" stroke-dasharray="1,5" d="M543.012,-102.799C543.696,-91.1626 544.615,-75.5479 545.398,-62.2368"/>
<polygon fill="#b43f3f" stroke="#b43f3f" points="548.896,-62.3637 545.99,-52.1754 541.908,-61.9526 548.896,-62.3637"/>
<text text-anchor="middle" x="566" y="-73.8" font-family="Times,serif" font-size="14.00">1 (95.1)</text>
</g>
<!-- 037 -->
<g id="node15" class="node"><title>037</title>
<ellipse fill="#ff8a8a" stroke="#b43f3f" cx="638" cy="-34" rx="36.2938" ry="18"/>
<text text-anchor="middle" x="638" y="-30.3" font-family="Times,serif" font-size="14.00">037 (a)</text>
</g>
<!-- 07&#45;&gt;037 -->
<g id="edge13" class="edge"><title>07&#45;&gt;037</title>
<path fill="none" stroke="#b43f3f" stroke-dasharray="1,5" d="M562.695,-106.983C572,-100.766 582.91,-92.9548 592,-85 601.107,-77.0308 610.302,-67.4187 618.053,-58.7604"/>
<polygon fill="#b43f3f" stroke="#b43f3f" points="620.762,-60.9793 624.72,-51.1516 615.497,-56.3659 620.762,-60.9793"/>
<text text-anchor="middle" x="628" y="-73.8" font-family="Times,serif" font-size="14.00">1 (97.5)</text>
</g>
<!-- 02 -->
<g id="node16" class="node"><title>02</title>
<ellipse fill="#ff8a8a" stroke="#b43f3f" cx="370" cy="-208" rx="31.6951" ry="18"/>
<text text-anchor="middle" x="370" y="-204.3" font-family="Times,serif" font-size="14.00">02 (a)</text>
</g>
<!-- 0211 -->
<g id="node17" class="node"><title>0211</title>
<ellipse fill="#ff8a8a" stroke="#b43f3f" cx="279" cy="-208" rx="40.0939" ry="18"/>
<text text-anchor="middle" x="279" y="-204.3" font-family="Times,serif" font-size="14.00">0211 (a)</text>
</g>
</g>
</svg>
