<?xml version="1.0" encoding="UTF-8" standalone="no"?>
<!DOCTYPE svg PUBLIC "-//W3C//DTD SVG 1.1//EN"
 "http://www.w3.org/Graphics/SVG/1.1/DTD/svg11.dtd">
<!-- Generated by graphviz version 2.38.0 (20140413.2041)
 -->
<!-- Title: %3 Pages: 1 -->
<svg width="1321pt" height="163pt"
 viewBox="0.00 0.00 1321.00 163.00" xmlns="http://www.w3.org/2000/svg" xmlns:xlink="http://www.w3.org/1999/xlink">
<g id="graph0" class="graph" transform="scale(1 1) rotate(0) translate(4 159)">
<title>%3</title>
<polygon fill="white" stroke="none" points="-4,4 -4,-159 1317,-159 1317,4 -4,4"/>
<g id="clust1" class="cluster"><title>cluster_reading</title>
<polygon fill="none" stroke="black" points="8,-8 8,-147 1083,-147 1083,-8 8,-8"/>
</g>
<g id="clust2" class="cluster"><title>cluster_legend</title>
<path fill="none" stroke="black" d="M1103,-19C1103,-19 1293,-19 1293,-19 1299,-19 1305,-25 1305,-31 1305,-31 1305,-135 1305,-135 1305,-141 1299,-147 1293,-147 1293,-147 1103,-147 1103,-147 1097,-147 1091,-141 1091,-135 1091,-135 1091,-31 1091,-31 1091,-25 1097,-19 1103,-19"/>
</g>
<!-- 044 -->
<g id="node1" class="node"><title>044</title>
<ellipse fill="#ff8a8a" stroke="#b43f3f" cx="1039" cy="-121" rx="36.2938" ry="18"/>
<text text-anchor="middle" x="1039" y="-117.3" font-family="Times,serif" font-size="14.00">044 (a)</text>
</g>
<!-- 022 -->
<g id="node2" class="node"><title>022</title>
<ellipse fill="#ff8a8a" stroke="#b43f3f" cx="1039" cy="-34" rx="36.2938" ry="18"/>
<text text-anchor="middle" x="1039" y="-30.3" font-family="Times,serif" font-size="14.00">022 (a)</text>
</g>
<!-- 044&#45;&gt;022 -->
<g id="edge1" class="edge"><title>044&#45;&gt;022</title>
<path fill="none" stroke="#b43f3f" stroke-dasharray="1,5" d="M1039,-102.799C1039,-91.1626 1039,-75.5479 1039,-62.2368"/>
<polygon fill="#b43f3f" stroke="#b43f3f" points="1042.5,-62.1754 1039,-52.1754 1035.5,-62.1755 1042.5,-62.1754"/>
<text text-anchor="middle" x="1061" y="-73.8" font-family="Times,serif" font-size="14.00">1 (91.7)</text>
</g>
<!-- 031 -->
<g id="node3" class="node"><title>031</title>
<ellipse fill="#ff8a8a" stroke="#b43f3f" cx="948" cy="-121" rx="36.2938" ry="18"/>
<text text-anchor="middle" x="948" y="-117.3" font-family="Times,serif" font-size="14.00">031 (a)</text>
</g>
<!-- 013 -->
<g id="node4" class="node"><title>013</title>
<ellipse fill="#ff8a8a" stroke="#b43f3f" cx="857" cy="-34" rx="36.2938" ry="18"/>
<text text-anchor="middle" x="857" y="-30.3" font-family="Times,serif" font-size="14.00">013 (a)</text>
</g>
<!-- 031&#45;&gt;013 -->
<g id="edge2" class="edge"><title>031&#45;&gt;013</title>
<path fill="none" stroke="#b43f3f" stroke-dasharray="1,5" d="M926.628,-106.006C918.008,-99.9634 908.186,-92.5539 900,-85 891.456,-77.1154 882.924,-67.6186 875.74,-59.0293"/>
<polygon fill="#b43f3f" stroke="#b43f3f" points="878.344,-56.6853 869.308,-51.1545 872.923,-61.1135 878.344,-56.6853"/>
<text text-anchor="middle" x="922" y="-73.8" font-family="Times,serif" font-size="14.00">1 (97.1)</text>
</g>
<!-- 017 -->
<g id="node5" class="node"><title>017</title>
<ellipse fill="#ff8a8a" stroke="#b43f3f" cx="948" cy="-34" rx="36.2938" ry="18"/>
<text text-anchor="middle" x="948" y="-30.3" font-family="Times,serif" font-size="14.00">017 (a)</text>
</g>
<!-- 031&#45;&gt;017 -->
<g id="edge3" class="edge"><title>031&#45;&gt;017</title>
<path fill="none" stroke="#b43f3f" stroke-dasharray="1,5" d="M948,-102.799C948,-91.1626 948,-75.5479 948,-62.2368"/>
<polygon fill="#b43f3f" stroke="#b43f3f" points="951.5,-62.1754 948,-52.1754 944.5,-62.1755 951.5,-62.1754"/>
<text text-anchor="middle" x="970" y="-73.8" font-family="Times,serif" font-size="14.00">1 (94.3)</text>
</g>
<!-- 07 -->
<g id="node6" class="node"><title>07</title>
<ellipse fill="#ff8a8a" stroke="#b43f3f" cx="862" cy="-121" rx="31.6951" ry="18"/>
<text text-anchor="middle" x="862" y="-117.3" font-family="Times,serif" font-size="14.00">07 (a)</text>
</g>
<!-- 037 -->
<g id="node7" class="node"><title>037</title>
<ellipse fill="#ff8a8a" stroke="#b43f3f" cx="584" cy="-34" rx="36.2938" ry="18"/>
<text text-anchor="middle" x="584" y="-30.3" font-family="Times,serif" font-size="14.00">037 (a)</text>
</g>
<!-- 07&#45;&gt;037 -->
<g id="edge4" class="edge"><title>07&#45;&gt;037</title>
<path fill="none" stroke="#b43f3f" stroke-dasharray="1,5" d="M838.085,-108.854C832.568,-106.63 826.657,-104.516 821,-103 761.681,-87.1025 742.721,-102.981 684,-85 659.597,-77.5276 633.882,-64.5412 614.639,-53.6761"/>
<polygon fill="#b43f3f" stroke="#b43f3f" points="616.158,-50.5117 605.747,-48.5462 612.66,-56.575 616.158,-50.5117"/>
<text text-anchor="middle" x="706" y="-73.8" font-family="Times,serif" font-size="14.00">1 (97.5)</text>
</g>
<!-- 034 -->
<g id="node8" class="node"><title>034</title>
<ellipse fill="#ff8a8a" stroke="#b43f3f" cx="675" cy="-34" rx="36.2938" ry="18"/>
<text text-anchor="middle" x="675" y="-30.3" font-family="Times,serif" font-size="14.00">034 (a)</text>
</g>
<!-- 07&#45;&gt;034 -->
<g id="edge5" class="edge"><title>07&#45;&gt;034</title>
<path fill="none" stroke="#b43f3f" stroke-dasharray="1,5" d="M837.442,-109.342C832.063,-107.142 826.371,-104.914 821,-103 794.774,-93.6562 786.544,-96.0731 761,-85 741.346,-76.4802 720.549,-64.4792 704.331,-54.3701"/>
<polygon fill="#b43f3f" stroke="#b43f3f" points="706.148,-51.3783 695.828,-48.9828 702.402,-57.2913 706.148,-51.3783"/>
<text text-anchor="middle" x="783" y="-73.8" font-family="Times,serif" font-size="14.00">1 (95.1)</text>
</g>
<!-- 030 -->
<g id="node9" class="node"><title>030</title>
<ellipse fill="#ff8a8a" stroke="#b43f3f" cx="766" cy="-34" rx="36.2938" ry="18"/>
<text text-anchor="middle" x="766" y="-30.3" font-family="Times,serif" font-size="14.00">030 (a)</text>
</g>
<!-- 07&#45;&gt;030 -->
<g id="edge6" class="edge"><title>07&#45;&gt;030</title>
<path fill="none" stroke="#b43f3f" stroke-dasharray="1,5" d="M845.278,-105.194C830.32,-91.9504 808.185,-72.3517 791.103,-57.2267"/>
<polygon fill="#b43f3f" stroke="#b43f3f" points="792.984,-54.2172 783.177,-50.2086 788.344,-59.4581 792.984,-54.2172"/>
<text text-anchor="middle" x="842" y="-73.8" font-family="Times,serif" font-size="14.00">1 (95.1)</text>
</g>
<!-- 045 -->
<g id="node10" class="node"><title>045</title>
<ellipse fill="#ff8a8a" stroke="#b43f3f" cx="776" cy="-121" rx="36.2938" ry="18"/>
<text text-anchor="middle" x="776" y="-117.3" font-family="Times,serif" font-size="14.00">045 (a)</text>
</g>
<!-- 038 -->
<g id="node11" class="node"><title>038</title>
<ellipse fill="#ff8a8a" stroke="#b43f3f" cx="493" cy="-34" rx="36.2938" ry="18"/>
<text text-anchor="middle" x="493" y="-30.3" font-family="Times,serif" font-size="14.00">038 (a)</text>
</g>
<!-- 045&#45;&gt;038 -->
<g id="edge7" class="edge"><title>045&#45;&gt;038</title>
<path fill="none" stroke="#b43f3f" stroke-dasharray="1,5" d="M748.576,-108.76C742.534,-106.596 736.112,-104.53 730,-103 672.99,-88.7296 655.338,-101.729 599,-85 572.951,-77.2649 545.233,-63.9933 524.677,-53.0665"/>
<polygon fill="#b43f3f" stroke="#b43f3f" points="526.227,-49.926 515.768,-48.2395 522.893,-56.0807 526.227,-49.926"/>
<text text-anchor="middle" x="621" y="-73.8" font-family="Times,serif" font-size="14.00">1 (92.7)</text>
</g>
<!-- 021 -->
<g id="node12" class="node"><title>021</title>
<ellipse fill="#ff8a8a" stroke="#b43f3f" cx="685" cy="-121" rx="36.2938" ry="18"/>
<text text-anchor="middle" x="685" y="-117.3" font-family="Times,serif" font-size="14.00">021 (a)</text>
</g>
<!-- 036 -->
<g id="node13" class="node"><title>036</title>
<ellipse fill="#ff8a8a" stroke="#b43f3f" cx="311" cy="-34" rx="36.2938" ry="18"/>
<text text-anchor="middle" x="311" y="-30.3" font-family="Times,serif" font-size="14.00">036 (a)</text>
</g>
<!-- 021&#45;&gt;036 -->
<g id="edge8" class="edge"><title>021&#45;&gt;036</title>
<path fill="none" stroke="#b43f3f" stroke-dasharray="1,5" d="M658.247,-108.505C652.331,-106.357 646.028,-104.362 640,-103 546.035,-81.7732 517.341,-108.82 424,-85 395.626,-77.7592 365.384,-64.0248 343.333,-52.7801"/>
<polygon fill="#b43f3f" stroke="#b43f3f" points="344.899,-49.65 334.413,-48.1396 341.669,-55.8599 344.899,-49.65"/>
<text text-anchor="middle" x="446" y="-73.8" font-family="Times,serif" font-size="14.00">1 (97.6)</text>
</g>
<!-- 047 -->
<g id="node14" class="node"><title>047</title>
<ellipse fill="#ff8a8a" stroke="#b43f3f" cx="402" cy="-34" rx="36.2938" ry="18"/>
<text text-anchor="middle" x="402" y="-30.3" font-family="Times,serif" font-size="14.00">047 (a)</text>
</g>
<!-- 021&#45;&gt;047 -->
<g id="edge9" class="edge"><title>021&#45;&gt;047</title>
<path fill="none" stroke="#b43f3f" stroke-dasharray="1,5" d="M658.185,-108.763C652.273,-106.598 645.987,-104.532 640,-103 584.344,-88.7616 567.161,-101.051 512,-85 484.804,-77.0864 455.697,-63.6118 434.259,-52.6435"/>
<polygon fill="#b43f3f" stroke="#b43f3f" points="435.763,-49.4804 425.277,-47.9649 432.529,-55.6887 435.763,-49.4804"/>
<text text-anchor="middle" x="534" y="-73.8" font-family="Times,serif" font-size="14.00">1 (95.1)</text>
</g>
<!-- 03 -->
<g id="node15" class="node"><title>03</title>
<ellipse fill="#ff8a8a" stroke="#b43f3f" cx="599" cy="-121" rx="31.6951" ry="18"/>
<text text-anchor="middle" x="599" y="-117.3" font-family="Times,serif" font-size="14.00">03 (a)</text>
</g>
<!-- 032 -->
<g id="node16" class="node"><title>032</title>
<ellipse fill="#ff8a8a" stroke="#b43f3f" cx="220" cy="-34" rx="36.2938" ry="18"/>
<text text-anchor="middle" x="220" y="-30.3" font-family="Times,serif" font-size="14.00">032 (a)</text>
</g>
<!-- 03&#45;&gt;032 -->
<g id="edge10" class="edge"><title>03&#45;&gt;032</title>
<path fill="none" stroke="#b43f3f" stroke-dasharray="1,5" d="M575.138,-108.643C569.619,-106.43 563.693,-104.374 558,-103 461.341,-79.6736 431.456,-109.151 335,-85 305.988,-77.736 274.997,-63.8699 252.506,-52.5792"/>
<polygon fill="#b43f3f" stroke="#b43f3f" points="253.914,-49.3679 243.418,-47.9247 250.723,-55.5983 253.914,-49.3679"/>
<text text-anchor="middle" x="357" y="-73.8" font-family="Times,serif" font-size="14.00">1 (91.7)</text>
</g>
<!-- P75 -->
<g id="node17" class="node"><title>P75</title>
<ellipse fill="#ff8a8a" stroke="#b43f3f" cx="513" cy="-121" rx="36.2938" ry="18"/>
<text text-anchor="middle" x="513" y="-117.3" font-family="Times,serif" font-size="14.00">P75 (a)</text>
</g>
<!-- 019 -->
<g id="node18" class="node"><title>019</title>
<ellipse fill="#ff8a8a" stroke="#b43f3f" cx="422" cy="-121" rx="36.2938" ry="18"/>
<text text-anchor="middle" x="422" y="-117.3" font-family="Times,serif" font-size="14.00">019 (a)</text>
</g>
<!-- 0211 -->
<g id="node19" class="node"><title>0211</title>
<ellipse fill="#ff8a8a" stroke="#b43f3f" cx="327" cy="-121" rx="40.0939" ry="18"/>
<text text-anchor="middle" x="327" y="-117.3" font-family="Times,serif" font-size="14.00">0211 (a)</text>
</g>
<!-- 011 -->
<g id="node20" class="node"><title>011</title>
<ellipse fill="#ff8a8a" stroke="#b43f3f" cx="232" cy="-121" rx="36.2938" ry="18"/>
<text text-anchor="middle" x="232" y="-117.3" font-family="Times,serif" font-size="14.00">011 (a)</text>
</g>
<!-- 02 -->
<g id="node21" class="node"><title>02</title>
<ellipse fill="#ff8a8a" stroke="#b43f3f" cx="146" cy="-121" rx="31.6951" ry="18"/>
<text text-anchor="middle" x="146" y="-117.3" font-family="Times,serif" font-size="14.00">02 (a)</text>
</g>
<!-- 0141 -->
<g id="node22" class="node"><title>0141</title>
<ellipse fill="#ff8a8a" stroke="#b43f3f" cx="56" cy="-121" rx="40.0939" ry="18"/>
<text text-anchor="middle" x="56" y="-117.3" font-family="Times,serif" font-size="14.00">0141 (a)</text>
</g>
<!-- leg_s -->
<g id="node23" class="node"><title>leg_s</title>
<text text-anchor="middle" x="1198" y="-117.3" font-family="Times,serif" font-size="14.00">Textual flow strength</text>
</g>
<!-- leg_e1 -->
<!-- leg_s&#45;&gt;leg_e1 -->
<g id="edge11" class="edge"><title>leg_s&#45;&gt;leg_e1</title>
<path fill="none" stroke="black" stroke-dasharray="1,5" d="M1179.67,-102.686C1174.13,-97.1938 1168.16,-90.9891 1163,-85 1153.17,-73.593 1143.07,-59.7786 1135.91,-49.5634"/>
<polygon fill="black" stroke="black" points="1138.61,-47.3142 1130.06,-41.0685 1132.85,-51.2879 1138.61,-47.3142"/>
<text text-anchor="middle" x="1178.5" y="-73.8" font-family="Times,serif" font-size="14.00">&lt;=5 &#160;</text>
</g>
<!-- leg_e2 -->
<!-- leg_s&#45;&gt;leg_e2 -->
<g id="edge12" class="edge"><title>leg_s&#45;&gt;leg_e2</title>
<path fill="none" stroke="black" stroke-dasharray="5,2" d="M1198,-102.799C1198,-87.7942 1198,-66.1745 1198,-51.4086"/>
<polygon fill="black" stroke="black" points="1201.5,-51.2934 1198,-41.2934 1194.5,-51.2934 1201.5,-51.2934"/>
<text text-anchor="middle" x="1217" y="-73.8" font-family="Times,serif" font-size="14.00"> &#160;&lt;=25</text>
</g>
<!-- leg_e3 -->
<!-- leg_s&#45;&gt;leg_e3 -->
<g id="edge13" class="edge"><title>leg_s&#45;&gt;leg_e3</title>
<path fill="none" stroke="black" d="M1221.5,-102.76C1227.91,-97.4621 1234.57,-91.3439 1240,-85 1249.09,-74.3897 1257.1,-60.6892 1262.55,-50.3134"/>
<polygon fill="black" stroke="black" points="1265.72,-51.7893 1267.09,-41.2833 1259.47,-48.6425 1265.72,-51.7893"/>
<text text-anchor="middle" x="1261" y="-73.8" font-family="Times,serif" font-size="14.00">&gt;25</text>
</g>
</g>
</svg>
