<?xml version="1.0" encoding="UTF-8" standalone="no"?>
<!DOCTYPE svg PUBLIC "-//W3C//DTD SVG 1.1//EN"
 "http://www.w3.org/Graphics/SVG/1.1/DTD/svg11.dtd">
<!-- Generated by graphviz version 2.38.0 (20140413.2041)
 -->
<!-- Title: %3 Pages: 1 -->
<svg width="1208pt" height="250pt"
 viewBox="0.00 0.00 1208.00 250.00" xmlns="http://www.w3.org/2000/svg" xmlns:xlink="http://www.w3.org/1999/xlink">
<g id="graph0" class="graph" transform="scale(1 1) rotate(0) translate(4 246)">
<title>%3</title>
<polygon fill="white" stroke="none" points="-4,4 -4,-246 1204,-246 1204,4 -4,4"/>
<g id="clust1" class="cluster"><title>cluster_legend</title>
<path fill="none" stroke="black" d="M20,-106C20,-106 210,-106 210,-106 216,-106 222,-112 222,-118 222,-118 222,-222 222,-222 222,-228 216,-234 210,-234 210,-234 20,-234 20,-234 14,-234 8,-228 8,-222 8,-222 8,-118 8,-118 8,-112 14,-106 20,-106"/>
</g>
<g id="clust2" class="cluster"><title>cluster_reading</title>
<polygon fill="none" stroke="black" points="230,-8 230,-234 1192,-234 1192,-8 230,-8"/>
</g>
<!-- leg_s -->
<g id="node1" class="node"><title>leg_s</title>
<text text-anchor="middle" x="115" y="-204.3" font-family="Times,serif" font-size="14.00">Textual flow strength</text>
</g>
<!-- leg_e1 -->
<!-- leg_s&#45;&gt;leg_e1 -->
<g id="edge1" class="edge"><title>leg_s&#45;&gt;leg_e1</title>
<path fill="none" stroke="black" stroke-dasharray="1,5" d="M96.6657,-189.686C91.1324,-184.194 85.1607,-177.989 80,-172 70.1708,-160.593 60.0722,-146.779 52.9137,-136.563"/>
<polygon fill="black" stroke="black" points="55.6142,-134.314 47.056,-128.068 49.8514,-138.288 55.6142,-134.314"/>
<text text-anchor="middle" x="95.5" y="-160.8" font-family="Times,serif" font-size="14.00">&lt;=5 &#160;</text>
</g>
<!-- leg_e2 -->
<!-- leg_s&#45;&gt;leg_e2 -->
<g id="edge2" class="edge"><title>leg_s&#45;&gt;leg_e2</title>
<path fill="none" stroke="black" stroke-dasharray="5,2" d="M115,-189.799C115,-174.794 115,-153.174 115,-138.409"/>
<polygon fill="black" stroke="black" points="118.5,-138.293 115,-128.293 111.5,-138.293 118.5,-138.293"/>
<text text-anchor="middle" x="134" y="-160.8" font-family="Times,serif" font-size="14.00"> &#160;&lt;=25</text>
</g>
<!-- leg_e3 -->
<!-- leg_s&#45;&gt;leg_e3 -->
<g id="edge3" class="edge"><title>leg_s&#45;&gt;leg_e3</title>
<path fill="none" stroke="black" d="M138.503,-189.76C144.906,-184.462 151.567,-178.344 157,-172 166.087,-161.39 174.095,-147.689 179.546,-137.313"/>
<polygon fill="black" stroke="black" points="182.722,-138.789 184.091,-128.283 176.469,-135.642 182.722,-138.789"/>
<text text-anchor="middle" x="179" y="-160.8" font-family="Times,serif" font-size="14.00">&gt;25</text>
</g>
<!-- 044 -->
<g id="node5" class="node"><title>044</title>
<ellipse fill="#ff8a8a" stroke="#b43f3f" cx="1148" cy="-208" rx="36.2938" ry="18"/>
<text text-anchor="middle" x="1148" y="-204.3" font-family="Times,serif" font-size="14.00">044 (a)</text>
</g>
<!-- 022 -->
<g id="node6" class="node"><title>022</title>
<ellipse fill="#ff8a8a" stroke="#b43f3f" cx="1148" cy="-121" rx="36.2938" ry="18"/>
<text text-anchor="middle" x="1148" y="-117.3" font-family="Times,serif" font-size="14.00">022 (a)</text>
</g>
<!-- 044&#45;&gt;022 -->
<g id="edge4" class="edge"><title>044&#45;&gt;022</title>
<path fill="none" stroke="#b43f3f" stroke-dasharray="1,5" d="M1148,-189.799C1148,-178.163 1148,-162.548 1148,-149.237"/>
<polygon fill="#b43f3f" stroke="#b43f3f" points="1151.5,-149.175 1148,-139.175 1144.5,-149.175 1151.5,-149.175"/>
<text text-anchor="middle" x="1170" y="-160.8" font-family="Times,serif" font-size="14.00">1 (91.7)</text>
</g>
<!-- A -->
<g id="node7" class="node"><title>A</title>
<ellipse fill="#ff8a8a" stroke="#b43f3f" cx="1064" cy="-208" rx="29.4969" ry="18"/>
<text text-anchor="middle" x="1064" y="-204.3" font-family="Times,serif" font-size="14.00">A (a)</text>
</g>
<!-- P75 -->
<g id="node8" class="node"><title>P75</title>
<ellipse fill="#ff8a8a" stroke="#b43f3f" cx="885" cy="-121" rx="36.2938" ry="18"/>
<text text-anchor="middle" x="885" y="-117.3" font-family="Times,serif" font-size="14.00">P75 (a)</text>
</g>
<!-- A&#45;&gt;P75 -->
<g id="edge5" class="edge"><title>A&#45;&gt;P75</title>
<path fill="none" stroke="#b43f3f" stroke-dasharray="1,5" d="M1041.15,-196.288C1035.91,-194.041 1030.31,-191.808 1025,-190 993.774,-179.373 982.85,-186.035 953,-172 937.485,-164.705 921.948,-153.634 909.65,-143.763"/>
<polygon fill="#b43f3f" stroke="#b43f3f" points="911.63,-140.858 901.693,-137.181 907.168,-146.252 911.63,-140.858"/>
<text text-anchor="middle" x="975" y="-160.8" font-family="Times,serif" font-size="14.00">1 (93.3)</text>
</g>
<!-- 019 -->
<g id="node9" class="node"><title>019</title>
<ellipse fill="#ff8a8a" stroke="#b43f3f" cx="976" cy="-121" rx="36.2938" ry="18"/>
<text text-anchor="middle" x="976" y="-117.3" font-family="Times,serif" font-size="14.00">019 (a)</text>
</g>
<!-- A&#45;&gt;019 -->
<g id="edge6" class="edge"><title>A&#45;&gt;019</title>
<path fill="none" stroke="#b43f3f" stroke-dasharray="1,5" d="M1043.44,-194.69C1033.96,-188.505 1022.86,-180.52 1014,-172 1006.1,-164.405 998.548,-155.067 992.286,-146.526"/>
<polygon fill="#b43f3f" stroke="#b43f3f" points="995.127,-144.48 986.49,-138.344 989.415,-148.527 995.127,-144.48"/>
<text text-anchor="middle" x="1036" y="-160.8" font-family="Times,serif" font-size="14.00">1 (93.3)</text>
</g>
<!-- 03 -->
<g id="node10" class="node"><title>03</title>
<ellipse fill="#ff8a8a" stroke="#b43f3f" cx="1062" cy="-121" rx="31.6951" ry="18"/>
<text text-anchor="middle" x="1062" y="-117.3" font-family="Times,serif" font-size="14.00">03 (a)</text>
</g>
<!-- A&#45;&gt;03 -->
<g id="edge7" class="edge"><title>A&#45;&gt;03</title>
<path fill="none" stroke="#b43f3f" stroke-dasharray="1,5" d="M1063.6,-189.799C1063.32,-178.163 1062.95,-162.548 1062.64,-149.237"/>
<polygon fill="#b43f3f" stroke="#b43f3f" points="1066.14,-149.09 1062.4,-139.175 1059.14,-149.255 1066.14,-149.09"/>
<text text-anchor="middle" x="1085" y="-160.8" font-family="Times,serif" font-size="14.00">1 (93.3)</text>
</g>
<!-- 032 -->
<g id="node19" class="node"><title>032</title>
<ellipse fill="#ff8a8a" stroke="#b43f3f" cx="1062" cy="-34" rx="36.2938" ry="18"/>
<text text-anchor="middle" x="1062" y="-30.3" font-family="Times,serif" font-size="14.00">032 (a)</text>
</g>
<!-- 03&#45;&gt;032 -->
<g id="edge13" class="edge"><title>03&#45;&gt;032</title>
<path fill="none" stroke="#b43f3f" stroke-dasharray="1,5" d="M1062,-102.799C1062,-91.1626 1062,-75.5479 1062,-62.2368"/>
<polygon fill="#b43f3f" stroke="#b43f3f" points="1065.5,-62.1754 1062,-52.1754 1058.5,-62.1755 1065.5,-62.1754"/>
<text text-anchor="middle" x="1084" y="-73.8" font-family="Times,serif" font-size="14.00">1 (91.7)</text>
</g>
<!-- 031 -->
<g id="node11" class="node"><title>031</title>
<ellipse fill="#ff8a8a" stroke="#b43f3f" cx="980" cy="-208" rx="36.2938" ry="18"/>
<text text-anchor="middle" x="980" y="-204.3" font-family="Times,serif" font-size="14.00">031 (a)</text>
</g>
<!-- 013 -->
<g id="node12" class="node"><title>013</title>
<ellipse fill="#ff8a8a" stroke="#b43f3f" cx="703" cy="-121" rx="36.2938" ry="18"/>
<text text-anchor="middle" x="703" y="-117.3" font-family="Times,serif" font-size="14.00">013 (a)</text>
</g>
<!-- 031&#45;&gt;013 -->
<g id="edge8" class="edge"><title>031&#45;&gt;013</title>
<path fill="none" stroke="#b43f3f" stroke-dasharray="1,5" d="M953.188,-195.748C947.277,-193.585 940.99,-191.522 935,-190 878.041,-175.524 860.177,-189.262 804,-172 779.297,-164.409 753.199,-151.342 733.721,-140.469"/>
<polygon fill="#b43f3f" stroke="#b43f3f" points="735.418,-137.408 724.996,-135.499 731.953,-143.49 735.418,-137.408"/>
<text text-anchor="middle" x="826" y="-160.8" font-family="Times,serif" font-size="14.00">1 (97.1)</text>
</g>
<!-- 017 -->
<g id="node13" class="node"><title>017</title>
<ellipse fill="#ff8a8a" stroke="#b43f3f" cx="794" cy="-121" rx="36.2938" ry="18"/>
<text text-anchor="middle" x="794" y="-117.3" font-family="Times,serif" font-size="14.00">017 (a)</text>
</g>
<!-- 031&#45;&gt;017 -->
<g id="edge9" class="edge"><title>031&#45;&gt;017</title>
<path fill="none" stroke="#b43f3f" stroke-dasharray="1,5" d="M951.977,-196.218C946.369,-194.116 940.508,-191.958 935,-190 911.162,-181.528 904.082,-182.355 881,-172 861.285,-163.156 840.252,-151.145 823.805,-141.112"/>
<polygon fill="#b43f3f" stroke="#b43f3f" points="825.523,-138.059 815.178,-135.774 821.84,-144.012 825.523,-138.059"/>
<text text-anchor="middle" x="903" y="-160.8" font-family="Times,serif" font-size="14.00">1 (94.3)</text>
</g>
<!-- 07 -->
<g id="node14" class="node"><title>07</title>
<ellipse fill="#ff8a8a" stroke="#b43f3f" cx="894" cy="-208" rx="31.6951" ry="18"/>
<text text-anchor="middle" x="894" y="-204.3" font-family="Times,serif" font-size="14.00">07 (a)</text>
</g>
<!-- 037 -->
<g id="node15" class="node"><title>037</title>
<ellipse fill="#ff8a8a" stroke="#b43f3f" cx="521" cy="-121" rx="36.2938" ry="18"/>
<text text-anchor="middle" x="521" y="-117.3" font-family="Times,serif" font-size="14.00">037 (a)</text>
</g>
<!-- 07&#45;&gt;037 -->
<g id="edge10" class="edge"><title>07&#45;&gt;037</title>
<path fill="none" stroke="#b43f3f" stroke-dasharray="1,5" d="M870.138,-195.646C864.618,-193.433 858.692,-191.376 853,-190 757.211,-166.847 727.429,-196.596 632,-172 604.188,-164.832 574.625,-151.185 553.008,-139.957"/>
<polygon fill="#b43f3f" stroke="#b43f3f" points="554.438,-136.754 543.964,-135.161 551.158,-142.938 554.438,-136.754"/>
<text text-anchor="middle" x="654" y="-160.8" font-family="Times,serif" font-size="14.00">1 (97.5)</text>
</g>
<!-- 034 -->
<g id="node16" class="node"><title>034</title>
<ellipse fill="#ff8a8a" stroke="#b43f3f" cx="612" cy="-121" rx="36.2938" ry="18"/>
<text text-anchor="middle" x="612" y="-117.3" font-family="Times,serif" font-size="14.00">034 (a)</text>
</g>
<!-- 07&#45;&gt;034 -->
<g id="edge11" class="edge"><title>07&#45;&gt;034</title>
<path fill="none" stroke="#b43f3f" stroke-dasharray="1,5" d="M870.082,-195.866C864.565,-193.642 858.654,-191.524 853,-190 794.98,-174.361 776.661,-188.914 719,-172 692.724,-164.292 664.744,-151.019 643.989,-140.085"/>
<polygon fill="#b43f3f" stroke="#b43f3f" points="645.459,-136.902 634.993,-135.255 642.147,-143.069 645.459,-136.902"/>
<text text-anchor="middle" x="741" y="-160.8" font-family="Times,serif" font-size="14.00">1 (95.1)</text>
</g>
<!-- 045 -->
<g id="node17" class="node"><title>045</title>
<ellipse fill="#ff8a8a" stroke="#b43f3f" cx="808" cy="-208" rx="36.2938" ry="18"/>
<text text-anchor="middle" x="808" y="-204.3" font-family="Times,serif" font-size="14.00">045 (a)</text>
</g>
<!-- 038 -->
<g id="node18" class="node"><title>038</title>
<ellipse fill="#ff8a8a" stroke="#b43f3f" cx="430" cy="-121" rx="36.2938" ry="18"/>
<text text-anchor="middle" x="430" y="-117.3" font-family="Times,serif" font-size="14.00">038 (a)</text>
</g>
<!-- 045&#45;&gt;038 -->
<g id="edge12" class="edge"><title>045&#45;&gt;038</title>
<path fill="none" stroke="#b43f3f" stroke-dasharray="1,5" d="M781.125,-195.683C774.938,-193.468 768.317,-191.401 762,-190 667.086,-168.956 638.248,-195.85 544,-172 515.218,-164.717 484.499,-150.852 462.209,-139.567"/>
<polygon fill="#b43f3f" stroke="#b43f3f" points="463.694,-136.394 453.203,-134.915 460.481,-142.614 463.694,-136.394"/>
<text text-anchor="middle" x="566" y="-160.8" font-family="Times,serif" font-size="14.00">1 (92.7)</text>
</g>
<!-- 021 -->
<g id="node20" class="node"><title>021</title>
<ellipse fill="#ff8a8a" stroke="#b43f3f" cx="717" cy="-208" rx="36.2938" ry="18"/>
<text text-anchor="middle" x="717" y="-204.3" font-family="Times,serif" font-size="14.00">021 (a)</text>
</g>
<!-- 047 -->
<g id="node21" class="node"><title>047</title>
<ellipse fill="#ff8a8a" stroke="#b43f3f" cx="339" cy="-121" rx="36.2938" ry="18"/>
<text text-anchor="middle" x="339" y="-117.3" font-family="Times,serif" font-size="14.00">047 (a)</text>
</g>
<!-- 021&#45;&gt;047 -->
<g id="edge14" class="edge"><title>021&#45;&gt;047</title>
<path fill="none" stroke="#b43f3f" stroke-dasharray="1,5" d="M690.248,-195.502C684.332,-193.353 678.029,-191.359 672,-190 577.163,-168.614 548.286,-195.699 454,-172 424.995,-164.709 394.003,-150.845 371.51,-139.562"/>
<polygon fill="#b43f3f" stroke="#b43f3f" points="372.918,-136.351 362.421,-134.911 369.729,-142.582 372.918,-136.351"/>
<text text-anchor="middle" x="476" y="-160.8" font-family="Times,serif" font-size="14.00">1 (95.1)</text>
</g>
<!-- 01 -->
<g id="node22" class="node"><title>01</title>
<ellipse fill="#ff8a8a" stroke="#b43f3f" cx="631" cy="-208" rx="31.6951" ry="18"/>
<text text-anchor="middle" x="631" y="-204.3" font-family="Times,serif" font-size="14.00">01 (a)</text>
</g>
<!-- 011 -->
<g id="node23" class="node"><title>011</title>
<ellipse fill="#ff8a8a" stroke="#b43f3f" cx="545" cy="-208" rx="36.2938" ry="18"/>
<text text-anchor="middle" x="545" y="-204.3" font-family="Times,serif" font-size="14.00">011 (a)</text>
</g>
<!-- 02 -->
<g id="node24" class="node"><title>02</title>
<ellipse fill="#ff8a8a" stroke="#b43f3f" cx="459" cy="-208" rx="31.6951" ry="18"/>
<text text-anchor="middle" x="459" y="-204.3" font-family="Times,serif" font-size="14.00">02 (a)</text>
</g>
<!-- 028 -->
<g id="node25" class="node"><title>028</title>
<ellipse fill="#ff8a8a" stroke="#b43f3f" cx="373" cy="-208" rx="36.2938" ry="18"/>
<text text-anchor="middle" x="373" y="-204.3" font-family="Times,serif" font-size="14.00">028 (a)</text>
</g>
<!-- 0141 -->
<g id="node26" class="node"><title>0141</title>
<ellipse fill="#ff8a8a" stroke="#b43f3f" cx="278" cy="-208" rx="40.0939" ry="18"/>
<text text-anchor="middle" x="278" y="-204.3" font-family="Times,serif" font-size="14.00">0141 (a)</text>
</g>
</g>
</svg>
