<?xml version="1.0" encoding="UTF-8" standalone="no"?>
<!DOCTYPE svg PUBLIC "-//W3C//DTD SVG 1.1//EN"
 "http://www.w3.org/Graphics/SVG/1.1/DTD/svg11.dtd">
<!-- Generated by graphviz version 2.38.0 (20140413.2041)
 -->
<!-- Title: %3 Pages: 1 -->
<svg width="1308pt" height="250pt"
 viewBox="0.00 0.00 1308.00 250.00" xmlns="http://www.w3.org/2000/svg" xmlns:xlink="http://www.w3.org/1999/xlink">
<g id="graph0" class="graph" transform="scale(1 1) rotate(0) translate(4 246)">
<title>%3</title>
<polygon fill="white" stroke="none" points="-4,4 -4,-246 1304,-246 1304,4 -4,4"/>
<g id="clust1" class="cluster"><title>cluster_legend</title>
<path fill="none" stroke="black" d="M20,-106C20,-106 210,-106 210,-106 216,-106 222,-112 222,-118 222,-118 222,-222 222,-222 222,-228 216,-234 210,-234 210,-234 20,-234 20,-234 14,-234 8,-228 8,-222 8,-222 8,-118 8,-118 8,-112 14,-106 20,-106"/>
</g>
<g id="clust2" class="cluster"><title>cluster_reading</title>
<polygon fill="none" stroke="black" points="230,-8 230,-234 1292,-234 1292,-8 230,-8"/>
</g>
<!-- leg_s -->
<g id="node1" class="node"><title>leg_s</title>
<text text-anchor="middle" x="115" y="-204.3" font-family="Times,serif" font-size="14.00">Textual flow strength</text>
</g>
<!-- leg_e1 -->
<!-- leg_s&#45;&gt;leg_e1 -->
<g id="edge1" class="edge"><title>leg_s&#45;&gt;leg_e1</title>
<path fill="none" stroke="black" stroke-dasharray="1,5" d="M96.6657,-189.686C91.1324,-184.194 85.1607,-177.989 80,-172 70.1708,-160.593 60.0722,-146.779 52.9137,-136.563"/>
<polygon fill="black" stroke="black" points="55.6142,-134.314 47.056,-128.068 49.8514,-138.288 55.6142,-134.314"/>
<text text-anchor="middle" x="95.5" y="-160.8" font-family="Times,serif" font-size="14.00">&lt;=5 &#160;</text>
</g>
<!-- leg_e2 -->
<!-- leg_s&#45;&gt;leg_e2 -->
<g id="edge2" class="edge"><title>leg_s&#45;&gt;leg_e2</title>
<path fill="none" stroke="black" stroke-dasharray="5,2" d="M115,-189.799C115,-174.794 115,-153.174 115,-138.409"/>
<polygon fill="black" stroke="black" points="118.5,-138.293 115,-128.293 111.5,-138.293 118.5,-138.293"/>
<text text-anchor="middle" x="134" y="-160.8" font-family="Times,serif" font-size="14.00"> &#160;&lt;=25</text>
</g>
<!-- leg_e3 -->
<!-- leg_s&#45;&gt;leg_e3 -->
<g id="edge3" class="edge"><title>leg_s&#45;&gt;leg_e3</title>
<path fill="none" stroke="black" d="M138.503,-189.76C144.906,-184.462 151.567,-178.344 157,-172 166.087,-161.39 174.095,-147.689 179.546,-137.313"/>
<polygon fill="black" stroke="black" points="182.722,-138.789 184.091,-128.283 176.469,-135.642 182.722,-138.789"/>
<text text-anchor="middle" x="179" y="-160.8" font-family="Times,serif" font-size="14.00">&gt;25</text>
</g>
<!-- 044 -->
<g id="node5" class="node"><title>044</title>
<ellipse fill="#ff8a8a" stroke="#b43f3f" cx="1248" cy="-208" rx="36.2938" ry="18"/>
<text text-anchor="middle" x="1248" y="-204.3" font-family="Times,serif" font-size="14.00">044 (a)</text>
</g>
<!-- 022 -->
<g id="node6" class="node"><title>022</title>
<ellipse fill="#ff8a8a" stroke="#b43f3f" cx="1248" cy="-121" rx="36.2938" ry="18"/>
<text text-anchor="middle" x="1248" y="-117.3" font-family="Times,serif" font-size="14.00">022 (a)</text>
</g>
<!-- 044&#45;&gt;022 -->
<g id="edge4" class="edge"><title>044&#45;&gt;022</title>
<path fill="none" stroke="#b43f3f" stroke-dasharray="1,5" d="M1248,-189.799C1248,-178.163 1248,-162.548 1248,-149.237"/>
<polygon fill="#b43f3f" stroke="#b43f3f" points="1251.5,-149.175 1248,-139.175 1244.5,-149.175 1251.5,-149.175"/>
<text text-anchor="middle" x="1270" y="-160.8" font-family="Times,serif" font-size="14.00">1 (91.7)</text>
</g>
<!-- A -->
<g id="node7" class="node"><title>A</title>
<ellipse fill="#ff8a8a" stroke="#b43f3f" cx="1164" cy="-208" rx="29.4969" ry="18"/>
<text text-anchor="middle" x="1164" y="-204.3" font-family="Times,serif" font-size="14.00">A (a)</text>
</g>
<!-- P75 -->
<g id="node8" class="node"><title>P75</title>
<ellipse fill="#ff8a8a" stroke="#b43f3f" cx="985" cy="-121" rx="36.2938" ry="18"/>
<text text-anchor="middle" x="985" y="-117.3" font-family="Times,serif" font-size="14.00">P75 (a)</text>
</g>
<!-- A&#45;&gt;P75 -->
<g id="edge5" class="edge"><title>A&#45;&gt;P75</title>
<path fill="none" stroke="#b43f3f" stroke-dasharray="1,5" d="M1141.76,-196.254C1136.65,-194.01 1131.19,-191.786 1126,-190 1094.4,-179.134 1083.26,-186.169 1053,-172 1037.47,-164.73 1021.94,-153.662 1009.64,-143.785"/>
<polygon fill="#b43f3f" stroke="#b43f3f" points="1011.62,-140.881 1001.68,-137.199 1007.16,-146.272 1011.62,-140.881"/>
<text text-anchor="middle" x="1075" y="-160.8" font-family="Times,serif" font-size="14.00">1 (93.3)</text>
</g>
<!-- 019 -->
<g id="node9" class="node"><title>019</title>
<ellipse fill="#ff8a8a" stroke="#b43f3f" cx="1076" cy="-121" rx="36.2938" ry="18"/>
<text text-anchor="middle" x="1076" y="-117.3" font-family="Times,serif" font-size="14.00">019 (a)</text>
</g>
<!-- A&#45;&gt;019 -->
<g id="edge6" class="edge"><title>A&#45;&gt;019</title>
<path fill="none" stroke="#b43f3f" stroke-dasharray="1,5" d="M1143.44,-194.69C1133.96,-188.505 1122.86,-180.52 1114,-172 1106.1,-164.405 1098.55,-155.067 1092.29,-146.526"/>
<polygon fill="#b43f3f" stroke="#b43f3f" points="1095.13,-144.48 1086.49,-138.344 1089.41,-148.527 1095.13,-144.48"/>
<text text-anchor="middle" x="1136" y="-160.8" font-family="Times,serif" font-size="14.00">1 (93.3)</text>
</g>
<!-- 03 -->
<g id="node10" class="node"><title>03</title>
<ellipse fill="#ff8a8a" stroke="#b43f3f" cx="1162" cy="-121" rx="31.6951" ry="18"/>
<text text-anchor="middle" x="1162" y="-117.3" font-family="Times,serif" font-size="14.00">03 (a)</text>
</g>
<!-- A&#45;&gt;03 -->
<g id="edge7" class="edge"><title>A&#45;&gt;03</title>
<path fill="none" stroke="#b43f3f" stroke-dasharray="1,5" d="M1163.6,-189.799C1163.32,-178.163 1162.95,-162.548 1162.64,-149.237"/>
<polygon fill="#b43f3f" stroke="#b43f3f" points="1166.14,-149.09 1162.4,-139.175 1159.14,-149.255 1166.14,-149.09"/>
<text text-anchor="middle" x="1185" y="-160.8" font-family="Times,serif" font-size="14.00">1 (93.3)</text>
</g>
<!-- 032 -->
<g id="node19" class="node"><title>032</title>
<ellipse fill="#ff8a8a" stroke="#b43f3f" cx="1162" cy="-34" rx="36.2938" ry="18"/>
<text text-anchor="middle" x="1162" y="-30.3" font-family="Times,serif" font-size="14.00">032 (a)</text>
</g>
<!-- 03&#45;&gt;032 -->
<g id="edge14" class="edge"><title>03&#45;&gt;032</title>
<path fill="none" stroke="#b43f3f" stroke-dasharray="1,5" d="M1162,-102.799C1162,-91.1626 1162,-75.5479 1162,-62.2368"/>
<polygon fill="#b43f3f" stroke="#b43f3f" points="1165.5,-62.1754 1162,-52.1754 1158.5,-62.1755 1165.5,-62.1754"/>
<text text-anchor="middle" x="1184" y="-73.8" font-family="Times,serif" font-size="14.00">1 (91.7)</text>
</g>
<!-- 07 -->
<g id="node11" class="node"><title>07</title>
<ellipse fill="#ff8a8a" stroke="#b43f3f" cx="1085" cy="-208" rx="31.6951" ry="18"/>
<text text-anchor="middle" x="1085" y="-204.3" font-family="Times,serif" font-size="14.00">07 (a)</text>
</g>
<!-- 017 -->
<g id="node12" class="node"><title>017</title>
<ellipse fill="#ff8a8a" stroke="#b43f3f" cx="621" cy="-121" rx="36.2938" ry="18"/>
<text text-anchor="middle" x="621" y="-117.3" font-family="Times,serif" font-size="14.00">017 (a)</text>
</g>
<!-- 07&#45;&gt;017 -->
<g id="edge8" class="edge"><title>07&#45;&gt;017</title>
<path fill="none" stroke="#b43f3f" stroke-dasharray="1,5" d="M1061.6,-195.72C1055.95,-193.445 1049.86,-191.342 1044,-190 908.179,-158.878 866.279,-205.397 731,-172 703.324,-165.168 674.036,-151.5 652.644,-140.179"/>
<polygon fill="#b43f3f" stroke="#b43f3f" points="654.158,-137.019 643.697,-135.337 650.826,-143.175 654.158,-137.019"/>
<text text-anchor="middle" x="753" y="-160.8" font-family="Times,serif" font-size="14.00">2 (92.7)</text>
</g>
<!-- 037 -->
<g id="node13" class="node"><title>037</title>
<ellipse fill="#ff8a8a" stroke="#b43f3f" cx="712" cy="-121" rx="36.2938" ry="18"/>
<text text-anchor="middle" x="712" y="-117.3" font-family="Times,serif" font-size="14.00">037 (a)</text>
</g>
<!-- 07&#45;&gt;037 -->
<g id="edge9" class="edge"><title>07&#45;&gt;037</title>
<path fill="none" stroke="#b43f3f" stroke-dasharray="1,5" d="M1061.14,-195.637C1055.62,-193.425 1049.69,-191.37 1044,-190 945.602,-166.327 914.758,-198.191 817,-172 790.786,-164.977 763.153,-151.544 742.817,-140.37"/>
<polygon fill="#b43f3f" stroke="#b43f3f" points="744.452,-137.273 734.019,-135.425 741.022,-143.376 744.452,-137.273"/>
<text text-anchor="middle" x="839" y="-160.8" font-family="Times,serif" font-size="14.00">1 (97.5)</text>
</g>
<!-- 034 -->
<g id="node14" class="node"><title>034</title>
<ellipse fill="#ff8a8a" stroke="#b43f3f" cx="803" cy="-121" rx="36.2938" ry="18"/>
<text text-anchor="middle" x="803" y="-117.3" font-family="Times,serif" font-size="14.00">034 (a)</text>
</g>
<!-- 07&#45;&gt;034 -->
<g id="edge10" class="edge"><title>07&#45;&gt;034</title>
<path fill="none" stroke="#b43f3f" stroke-dasharray="1,5" d="M1061.09,-195.838C1055.57,-193.616 1049.66,-191.506 1044,-190 982.948,-173.758 963.441,-190.386 903,-172 878.583,-164.572 852.868,-151.585 833.63,-140.708"/>
<polygon fill="#b43f3f" stroke="#b43f3f" points="835.149,-137.544 824.74,-135.571 831.647,-143.605 835.149,-137.544"/>
<text text-anchor="middle" x="925" y="-160.8" font-family="Times,serif" font-size="14.00">1 (95.1)</text>
</g>
<!-- 030 -->
<g id="node15" class="node"><title>030</title>
<ellipse fill="#ff8a8a" stroke="#b43f3f" cx="894" cy="-121" rx="36.2938" ry="18"/>
<text text-anchor="middle" x="894" y="-117.3" font-family="Times,serif" font-size="14.00">030 (a)</text>
</g>
<!-- 07&#45;&gt;030 -->
<g id="edge11" class="edge"><title>07&#45;&gt;030</title>
<path fill="none" stroke="#b43f3f" stroke-dasharray="1,5" d="M1060.46,-196.288C1055.08,-194.091 1049.38,-191.878 1044,-190 1016.5,-180.407 1007.82,-183.339 981,-172 960.963,-163.529 939.772,-151.425 923.322,-141.248"/>
<polygon fill="#b43f3f" stroke="#b43f3f" points="925.036,-138.191 914.708,-135.828 921.308,-144.116 925.036,-138.191"/>
<text text-anchor="middle" x="1003" y="-160.8" font-family="Times,serif" font-size="14.00">1 (95.1)</text>
</g>
<!-- 021 -->
<g id="node16" class="node"><title>021</title>
<ellipse fill="#ff8a8a" stroke="#b43f3f" cx="999" cy="-208" rx="36.2938" ry="18"/>
<text text-anchor="middle" x="999" y="-204.3" font-family="Times,serif" font-size="14.00">021 (a)</text>
</g>
<!-- 036 -->
<g id="node17" class="node"><title>036</title>
<ellipse fill="#ff8a8a" stroke="#b43f3f" cx="439" cy="-121" rx="36.2938" ry="18"/>
<text text-anchor="middle" x="439" y="-117.3" font-family="Times,serif" font-size="14.00">036 (a)</text>
</g>
<!-- 021&#45;&gt;036 -->
<g id="edge12" class="edge"><title>021&#45;&gt;036</title>
<path fill="none" stroke="#b43f3f" stroke-dasharray="1,5" d="M972.162,-195.508C965.973,-193.302 959.342,-191.283 953,-190 779.009,-154.814 726.936,-212.055 554,-172 524.864,-165.252 493.882,-151.348 471.426,-139.911"/>
<polygon fill="#b43f3f" stroke="#b43f3f" points="472.84,-136.702 462.354,-135.189 469.608,-142.911 472.84,-136.702"/>
<text text-anchor="middle" x="576" y="-160.8" font-family="Times,serif" font-size="14.00">1 (97.6)</text>
</g>
<!-- 047 -->
<g id="node18" class="node"><title>047</title>
<ellipse fill="#ff8a8a" stroke="#b43f3f" cx="530" cy="-121" rx="36.2938" ry="18"/>
<text text-anchor="middle" x="530" y="-117.3" font-family="Times,serif" font-size="14.00">047 (a)</text>
</g>
<!-- 021&#45;&gt;047 -->
<g id="edge13" class="edge"><title>021&#45;&gt;047</title>
<path fill="none" stroke="#b43f3f" stroke-dasharray="1,5" d="M972.149,-195.568C965.961,-193.36 959.334,-191.324 953,-190 817.908,-161.771 777.143,-204.442 643,-172 614.355,-165.072 583.913,-151.182 561.852,-139.796"/>
<polygon fill="#b43f3f" stroke="#b43f3f" points="563.418,-136.665 552.94,-135.097 560.153,-142.857 563.418,-136.665"/>
<text text-anchor="middle" x="665" y="-160.8" font-family="Times,serif" font-size="14.00">1 (95.1)</text>
</g>
<!-- 0211 -->
<g id="node20" class="node"><title>0211</title>
<ellipse fill="#ff8a8a" stroke="#b43f3f" cx="904" cy="-208" rx="40.0939" ry="18"/>
<text text-anchor="middle" x="904" y="-204.3" font-family="Times,serif" font-size="14.00">0211 (a)</text>
</g>
<!-- 091 -->
<g id="node21" class="node"><title>091</title>
<ellipse fill="#ff8a8a" stroke="#b43f3f" cx="809" cy="-208" rx="36.2938" ry="18"/>
<text text-anchor="middle" x="809" y="-204.3" font-family="Times,serif" font-size="14.00">091 (a)</text>
</g>
<!-- 011 -->
<g id="node22" class="node"><title>011</title>
<ellipse fill="#ff8a8a" stroke="#b43f3f" cx="718" cy="-208" rx="36.2938" ry="18"/>
<text text-anchor="middle" x="718" y="-204.3" font-family="Times,serif" font-size="14.00">011 (a)</text>
</g>
<!-- 045 -->
<g id="node23" class="node"><title>045</title>
<ellipse fill="#ff8a8a" stroke="#b43f3f" cx="627" cy="-208" rx="36.2938" ry="18"/>
<text text-anchor="middle" x="627" y="-204.3" font-family="Times,serif" font-size="14.00">045 (a)</text>
</g>
<!-- 02 -->
<g id="node24" class="node"><title>02</title>
<ellipse fill="#ff8a8a" stroke="#b43f3f" cx="541" cy="-208" rx="31.6951" ry="18"/>
<text text-anchor="middle" x="541" y="-204.3" font-family="Times,serif" font-size="14.00">02 (a)</text>
</g>
<!-- 028 -->
<g id="node25" class="node"><title>028</title>
<ellipse fill="#ff8a8a" stroke="#b43f3f" cx="455" cy="-208" rx="36.2938" ry="18"/>
<text text-anchor="middle" x="455" y="-204.3" font-family="Times,serif" font-size="14.00">028 (a)</text>
</g>
<!-- 0141 -->
<g id="node26" class="node"><title>0141</title>
<ellipse fill="#ff8a8a" stroke="#b43f3f" cx="360" cy="-208" rx="40.0939" ry="18"/>
<text text-anchor="middle" x="360" y="-204.3" font-family="Times,serif" font-size="14.00">0141 (a)</text>
</g>
<!-- 05 -->
<g id="node27" class="node"><title>05</title>
<ellipse fill="#ff8a8a" stroke="#b43f3f" cx="270" cy="-208" rx="31.6951" ry="18"/>
<text text-anchor="middle" x="270" y="-204.3" font-family="Times,serif" font-size="14.00">05 (a)</text>
</g>
</g>
</svg>
