<?xml version="1.0" encoding="UTF-8" standalone="no"?>
<!DOCTYPE svg PUBLIC "-//W3C//DTD SVG 1.1//EN"
 "http://www.w3.org/Graphics/SVG/1.1/DTD/svg11.dtd">
<!-- Generated by graphviz version 2.38.0 (20140413.2041)
 -->
<!-- Title: %3 Pages: 1 -->
<svg width="1140pt" height="250pt"
 viewBox="0.00 0.00 1140.00 250.00" xmlns="http://www.w3.org/2000/svg" xmlns:xlink="http://www.w3.org/1999/xlink">
<g id="graph0" class="graph" transform="scale(1 1) rotate(0) translate(4 246)">
<title>%3</title>
<polygon fill="white" stroke="none" points="-4,4 -4,-246 1136,-246 1136,4 -4,4"/>
<g id="clust1" class="cluster"><title>cluster_legend</title>
<path fill="none" stroke="black" d="M20,-106C20,-106 210,-106 210,-106 216,-106 222,-112 222,-118 222,-118 222,-222 222,-222 222,-228 216,-234 210,-234 210,-234 20,-234 20,-234 14,-234 8,-228 8,-222 8,-222 8,-118 8,-118 8,-112 14,-106 20,-106"/>
</g>
<g id="clust2" class="cluster"><title>cluster_reading</title>
<polygon fill="none" stroke="black" points="230,-8 230,-234 1124,-234 1124,-8 230,-8"/>
</g>
<!-- leg_s -->
<g id="node1" class="node"><title>leg_s</title>
<text text-anchor="middle" x="115" y="-204.3" font-family="Times,serif" font-size="14.00">Textual flow strength</text>
</g>
<!-- leg_e1 -->
<!-- leg_s&#45;&gt;leg_e1 -->
<g id="edge1" class="edge"><title>leg_s&#45;&gt;leg_e1</title>
<path fill="none" stroke="black" stroke-dasharray="1,5" d="M96.6657,-189.686C91.1324,-184.194 85.1607,-177.989 80,-172 70.1708,-160.593 60.0722,-146.779 52.9137,-136.563"/>
<polygon fill="black" stroke="black" points="55.6142,-134.314 47.056,-128.068 49.8514,-138.288 55.6142,-134.314"/>
<text text-anchor="middle" x="95.5" y="-160.8" font-family="Times,serif" font-size="14.00">&lt;=5 &#160;</text>
</g>
<!-- leg_e2 -->
<!-- leg_s&#45;&gt;leg_e2 -->
<g id="edge2" class="edge"><title>leg_s&#45;&gt;leg_e2</title>
<path fill="none" stroke="black" stroke-dasharray="5,2" d="M115,-189.799C115,-174.794 115,-153.174 115,-138.409"/>
<polygon fill="black" stroke="black" points="118.5,-138.293 115,-128.293 111.5,-138.293 118.5,-138.293"/>
<text text-anchor="middle" x="134" y="-160.8" font-family="Times,serif" font-size="14.00"> &#160;&lt;=25</text>
</g>
<!-- leg_e3 -->
<!-- leg_s&#45;&gt;leg_e3 -->
<g id="edge3" class="edge"><title>leg_s&#45;&gt;leg_e3</title>
<path fill="none" stroke="black" d="M138.503,-189.76C144.906,-184.462 151.567,-178.344 157,-172 166.087,-161.39 174.095,-147.689 179.546,-137.313"/>
<polygon fill="black" stroke="black" points="182.722,-138.789 184.091,-128.283 176.469,-135.642 182.722,-138.789"/>
<text text-anchor="middle" x="179" y="-160.8" font-family="Times,serif" font-size="14.00">&gt;25</text>
</g>
<!-- 044 -->
<g id="node5" class="node"><title>044</title>
<ellipse fill="#ff8a8a" stroke="#b43f3f" cx="1080" cy="-208" rx="36.2938" ry="18"/>
<text text-anchor="middle" x="1080" y="-204.3" font-family="Times,serif" font-size="14.00">044 (a)</text>
</g>
<!-- 022 -->
<g id="node6" class="node"><title>022</title>
<ellipse fill="#ff8a8a" stroke="#b43f3f" cx="1080" cy="-121" rx="36.2938" ry="18"/>
<text text-anchor="middle" x="1080" y="-117.3" font-family="Times,serif" font-size="14.00">022 (a)</text>
</g>
<!-- 044&#45;&gt;022 -->
<g id="edge4" class="edge"><title>044&#45;&gt;022</title>
<path fill="none" stroke="#b43f3f" stroke-dasharray="1,5" d="M1080,-189.799C1080,-178.163 1080,-162.548 1080,-149.237"/>
<polygon fill="#b43f3f" stroke="#b43f3f" points="1083.5,-149.175 1080,-139.175 1076.5,-149.175 1083.5,-149.175"/>
<text text-anchor="middle" x="1102" y="-160.8" font-family="Times,serif" font-size="14.00">1 (91.7)</text>
</g>
<!-- 031 -->
<g id="node7" class="node"><title>031</title>
<ellipse fill="#ff8a8a" stroke="#b43f3f" cx="496" cy="-121" rx="36.2938" ry="18"/>
<text text-anchor="middle" x="496" y="-117.3" font-family="Times,serif" font-size="14.00">031 (a)</text>
</g>
<!-- 013 -->
<g id="node8" class="node"><title>013</title>
<ellipse fill="#ff8a8a" stroke="#b43f3f" cx="382" cy="-34" rx="36.2938" ry="18"/>
<text text-anchor="middle" x="382" y="-30.3" font-family="Times,serif" font-size="14.00">013 (a)</text>
</g>
<!-- 031&#45;&gt;013 -->
<g id="edge5" class="edge"><title>031&#45;&gt;013</title>
<path fill="none" stroke="#b43f3f" stroke-dasharray="1,5" d="M471.879,-107.517C460.614,-101.293 447.241,-93.3262 436,-85 425.091,-76.92 413.936,-66.9342 404.617,-58.0164"/>
<polygon fill="#b43f3f" stroke="#b43f3f" points="406.868,-55.3227 397.268,-50.8418 401.979,-60.3317 406.868,-55.3227"/>
<text text-anchor="middle" x="458" y="-73.8" font-family="Times,serif" font-size="14.00">1 (97.1)</text>
</g>
<!-- 017 -->
<g id="node9" class="node"><title>017</title>
<ellipse fill="#ff8a8a" stroke="#b43f3f" cx="473" cy="-34" rx="36.2938" ry="18"/>
<text text-anchor="middle" x="473" y="-30.3" font-family="Times,serif" font-size="14.00">017 (a)</text>
</g>
<!-- 031&#45;&gt;017 -->
<g id="edge6" class="edge"><title>031&#45;&gt;017</title>
<path fill="none" stroke="#b43f3f" stroke-dasharray="1,5" d="M491.346,-102.799C488.145,-90.9701 483.832,-75.0301 480.192,-61.578"/>
<polygon fill="#b43f3f" stroke="#b43f3f" points="483.56,-60.624 477.569,-51.8854 476.803,-62.4524 483.56,-60.624"/>
<text text-anchor="middle" x="508" y="-73.8" font-family="Times,serif" font-size="14.00">1 (94.3)</text>
</g>
<!-- 063 -->
<g id="node10" class="node"><title>063</title>
<ellipse fill="#ff8a8a" stroke="#b43f3f" cx="989" cy="-208" rx="36.2938" ry="18"/>
<text text-anchor="middle" x="989" y="-204.3" font-family="Times,serif" font-size="14.00">063 (a)</text>
</g>
<!-- 063&#45;&gt;031 -->
<g id="edge7" class="edge"><title>063&#45;&gt;031</title>
<path fill="none" stroke="#b43f3f" stroke-dasharray="1,5" d="M962.27,-195.399C956.353,-193.257 950.044,-191.292 944,-190 813.377,-162.081 775.097,-197.602 644,-172 604.78,-164.341 561.679,-148.935 532.157,-137.237"/>
<polygon fill="#b43f3f" stroke="#b43f3f" points="533.274,-133.914 522.691,-133.428 530.661,-140.408 533.274,-133.914"/>
<text text-anchor="middle" x="666" y="-160.8" font-family="Times,serif" font-size="14.00">1 (95.8)</text>
</g>
<!-- 011 -->
<g id="node11" class="node"><title>011</title>
<ellipse fill="#ff8a8a" stroke="#b43f3f" cx="635" cy="-121" rx="36.2938" ry="18"/>
<text text-anchor="middle" x="635" y="-117.3" font-family="Times,serif" font-size="14.00">011 (a)</text>
</g>
<!-- 063&#45;&gt;011 -->
<g id="edge8" class="edge"><title>063&#45;&gt;011</title>
<path fill="none" stroke="#b43f3f" stroke-dasharray="1,5" d="M962.248,-195.5C956.332,-193.352 950.029,-191.358 944,-190 848.727,-168.534 818.455,-200.352 725,-172 703.006,-165.327 680.4,-152.743 663.346,-141.87"/>
<polygon fill="#b43f3f" stroke="#b43f3f" points="665.249,-138.932 654.967,-136.38 661.413,-144.788 665.249,-138.932"/>
<text text-anchor="middle" x="747" y="-160.8" font-family="Times,serif" font-size="14.00">1 (93.1)</text>
</g>
<!-- 07 -->
<g id="node12" class="node"><title>07</title>
<ellipse fill="#ff8a8a" stroke="#b43f3f" cx="721" cy="-121" rx="31.6951" ry="18"/>
<text text-anchor="middle" x="721" y="-117.3" font-family="Times,serif" font-size="14.00">07 (a)</text>
</g>
<!-- 063&#45;&gt;07 -->
<g id="edge9" class="edge"><title>063&#45;&gt;07</title>
<path fill="none" stroke="#b43f3f" stroke-dasharray="1,5" d="M962.197,-195.713C956.285,-193.552 949.995,-191.499 944,-190 883.567,-174.891 863.875,-192.353 805,-172 784.429,-164.888 763.387,-152.353 747.509,-141.614"/>
<polygon fill="#b43f3f" stroke="#b43f3f" points="749.464,-138.71 739.255,-135.878 745.469,-144.459 749.464,-138.71"/>
<text text-anchor="middle" x="827" y="-160.8" font-family="Times,serif" font-size="14.00">1 (96.6)</text>
</g>
<!-- 045 -->
<g id="node13" class="node"><title>045</title>
<ellipse fill="#ff8a8a" stroke="#b43f3f" cx="807" cy="-121" rx="36.2938" ry="18"/>
<text text-anchor="middle" x="807" y="-117.3" font-family="Times,serif" font-size="14.00">045 (a)</text>
</g>
<!-- 063&#45;&gt;045 -->
<g id="edge10" class="edge"><title>063&#45;&gt;045</title>
<path fill="none" stroke="#b43f3f" stroke-dasharray="1,5" d="M961.535,-196.171C955.776,-194.028 949.716,-191.867 944,-190 915.505,-180.694 906.139,-184.729 879,-172 862.611,-164.313 845.909,-152.975 832.722,-143.039"/>
<polygon fill="#b43f3f" stroke="#b43f3f" points="834.655,-140.109 824.602,-136.764 830.374,-145.648 834.655,-140.109"/>
<text text-anchor="middle" x="901" y="-160.8" font-family="Times,serif" font-size="14.00">1 (93.1)</text>
</g>
<!-- 021 -->
<g id="node14" class="node"><title>021</title>
<ellipse fill="#ff8a8a" stroke="#b43f3f" cx="898" cy="-121" rx="36.2938" ry="18"/>
<text text-anchor="middle" x="898" y="-117.3" font-family="Times,serif" font-size="14.00">021 (a)</text>
</g>
<!-- 063&#45;&gt;021 -->
<g id="edge11" class="edge"><title>063&#45;&gt;021</title>
<path fill="none" stroke="#b43f3f" stroke-dasharray="1,5" d="M967.628,-193.006C959.008,-186.963 949.186,-179.554 941,-172 932.456,-164.115 923.924,-154.619 916.74,-146.029"/>
<polygon fill="#b43f3f" stroke="#b43f3f" points="919.344,-143.685 910.308,-138.155 913.923,-148.113 919.344,-143.685"/>
<text text-anchor="middle" x="963" y="-160.8" font-family="Times,serif" font-size="14.00">1 (93.1)</text>
</g>
<!-- 028 -->
<g id="node15" class="node"><title>028</title>
<ellipse fill="#ff8a8a" stroke="#b43f3f" cx="989" cy="-121" rx="36.2938" ry="18"/>
<text text-anchor="middle" x="989" y="-117.3" font-family="Times,serif" font-size="14.00">028 (a)</text>
</g>
<!-- 063&#45;&gt;028 -->
<g id="edge12" class="edge"><title>063&#45;&gt;028</title>
<path fill="none" stroke="#b43f3f" stroke-dasharray="1,5" d="M989,-189.799C989,-178.163 989,-162.548 989,-149.237"/>
<polygon fill="#b43f3f" stroke="#b43f3f" points="992.5,-149.175 989,-139.175 985.5,-149.175 992.5,-149.175"/>
<text text-anchor="middle" x="1011" y="-160.8" font-family="Times,serif" font-size="14.00">1 (96.6)</text>
</g>
<!-- 037 -->
<g id="node16" class="node"><title>037</title>
<ellipse fill="#ff8a8a" stroke="#b43f3f" cx="564" cy="-34" rx="36.2938" ry="18"/>
<text text-anchor="middle" x="564" y="-30.3" font-family="Times,serif" font-size="14.00">037 (a)</text>
</g>
<!-- 07&#45;&gt;037 -->
<g id="edge13" class="edge"><title>07&#45;&gt;037</title>
<path fill="none" stroke="#b43f3f" stroke-dasharray="1,5" d="M696.388,-109.488C691.013,-107.278 685.336,-105.01 680,-103 656.72,-94.2311 648.842,-96.9076 627,-85 612.991,-77.3627 598.936,-66.5818 587.668,-56.9852"/>
<polygon fill="#b43f3f" stroke="#b43f3f" points="589.825,-54.222 579.996,-50.2685 585.214,-59.4889 589.825,-54.222"/>
<text text-anchor="middle" x="649" y="-73.8" font-family="Times,serif" font-size="14.00">1 (97.5)</text>
</g>
<!-- 034 -->
<g id="node17" class="node"><title>034</title>
<ellipse fill="#ff8a8a" stroke="#b43f3f" cx="655" cy="-34" rx="36.2938" ry="18"/>
<text text-anchor="middle" x="655" y="-30.3" font-family="Times,serif" font-size="14.00">034 (a)</text>
</g>
<!-- 07&#45;&gt;034 -->
<g id="edge14" class="edge"><title>07&#45;&gt;034</title>
<path fill="none" stroke="#b43f3f" stroke-dasharray="1,5" d="M703.768,-105.603C697.159,-99.6142 689.816,-92.3502 684,-85 678.182,-77.6469 672.748,-69.0006 668.192,-60.9845"/>
<polygon fill="#b43f3f" stroke="#b43f3f" points="671.14,-59.0804 663.277,-51.9792 664.996,-62.4338 671.14,-59.0804"/>
<text text-anchor="middle" x="706" y="-73.8" font-family="Times,serif" font-size="14.00">1 (95.1)</text>
</g>
<!-- 030 -->
<g id="node18" class="node"><title>030</title>
<ellipse fill="#ff8a8a" stroke="#b43f3f" cx="746" cy="-34" rx="36.2938" ry="18"/>
<text text-anchor="middle" x="746" y="-30.3" font-family="Times,serif" font-size="14.00">030 (a)</text>
</g>
<!-- 07&#45;&gt;030 -->
<g id="edge15" class="edge"><title>07&#45;&gt;030</title>
<path fill="none" stroke="#b43f3f" stroke-dasharray="1,5" d="M725.939,-103.207C729.409,-91.4091 734.124,-75.3781 738.111,-61.8221"/>
<polygon fill="#b43f3f" stroke="#b43f3f" points="741.522,-62.6306 740.985,-52.0493 734.806,-60.6554 741.522,-62.6306"/>
<text text-anchor="middle" x="756" y="-73.8" font-family="Times,serif" font-size="14.00">1 (95.1)</text>
</g>
<!-- 038 -->
<g id="node19" class="node"><title>038</title>
<ellipse fill="#ff8a8a" stroke="#b43f3f" cx="837" cy="-34" rx="36.2938" ry="18"/>
<text text-anchor="middle" x="837" y="-30.3" font-family="Times,serif" font-size="14.00">038 (a)</text>
</g>
<!-- 045&#45;&gt;038 -->
<g id="edge16" class="edge"><title>045&#45;&gt;038</title>
<path fill="none" stroke="#b43f3f" stroke-dasharray="1,5" d="M812.927,-103.207C817.091,-91.4091 822.749,-75.3781 827.533,-61.8221"/>
<polygon fill="#b43f3f" stroke="#b43f3f" points="830.955,-62.6441 830.983,-52.0493 824.354,-60.3143 830.955,-62.6441"/>
<text text-anchor="middle" x="845" y="-73.8" font-family="Times,serif" font-size="14.00">1 (92.7)</text>
</g>
<!-- 036 -->
<g id="node20" class="node"><title>036</title>
<ellipse fill="#ff8a8a" stroke="#b43f3f" cx="928" cy="-34" rx="36.2938" ry="18"/>
<text text-anchor="middle" x="928" y="-30.3" font-family="Times,serif" font-size="14.00">036 (a)</text>
</g>
<!-- 021&#45;&gt;036 -->
<g id="edge17" class="edge"><title>021&#45;&gt;036</title>
<path fill="none" stroke="#b43f3f" stroke-dasharray="1,5" d="M903.927,-103.207C908.091,-91.4091 913.749,-75.3781 918.533,-61.8221"/>
<polygon fill="#b43f3f" stroke="#b43f3f" points="921.955,-62.6441 921.983,-52.0493 915.354,-60.3143 921.955,-62.6441"/>
<text text-anchor="middle" x="936" y="-73.8" font-family="Times,serif" font-size="14.00">1 (97.6)</text>
</g>
<!-- 047 -->
<g id="node21" class="node"><title>047</title>
<ellipse fill="#ff8a8a" stroke="#b43f3f" cx="1019" cy="-34" rx="36.2938" ry="18"/>
<text text-anchor="middle" x="1019" y="-30.3" font-family="Times,serif" font-size="14.00">047 (a)</text>
</g>
<!-- 021&#45;&gt;047 -->
<g id="edge18" class="edge"><title>021&#45;&gt;047</title>
<path fill="none" stroke="#b43f3f" stroke-dasharray="1,5" d="M923.066,-107.919C935.199,-101.669 949.754,-93.5639 962,-85 973.747,-76.7856 985.813,-66.5129 995.802,-57.4192"/>
<polygon fill="#b43f3f" stroke="#b43f3f" points="998.373,-59.8087 1003.32,-50.4408 993.611,-54.6776 998.373,-59.8087"/>
<text text-anchor="middle" x="1002" y="-73.8" font-family="Times,serif" font-size="14.00">1 (95.1)</text>
</g>
<!-- 03 -->
<g id="node22" class="node"><title>03</title>
<ellipse fill="#ff8a8a" stroke="#b43f3f" cx="903" cy="-208" rx="31.6951" ry="18"/>
<text text-anchor="middle" x="903" y="-204.3" font-family="Times,serif" font-size="14.00">03 (a)</text>
</g>
<!-- 032 -->
<g id="node23" class="node"><title>032</title>
<ellipse fill="#ff8a8a" stroke="#b43f3f" cx="405" cy="-121" rx="36.2938" ry="18"/>
<text text-anchor="middle" x="405" y="-117.3" font-family="Times,serif" font-size="14.00">032 (a)</text>
</g>
<!-- 03&#45;&gt;032 -->
<g id="edge19" class="edge"><title>03&#45;&gt;032</title>
<path fill="none" stroke="#b43f3f" stroke-dasharray="1,5" d="M879.597,-195.715C873.954,-193.441 867.859,-191.339 862,-190 723.567,-158.358 682.162,-200.265 543,-172 506.858,-164.659 467.475,-149.638 440.067,-137.967"/>
<polygon fill="#b43f3f" stroke="#b43f3f" points="441.107,-134.603 430.539,-133.839 438.324,-141.026 441.107,-134.603"/>
<text text-anchor="middle" x="565" y="-160.8" font-family="Times,serif" font-size="14.00">1 (91.7)</text>
</g>
<!-- P75 -->
<g id="node24" class="node"><title>P75</title>
<ellipse fill="#ff8a8a" stroke="#b43f3f" cx="817" cy="-208" rx="36.2938" ry="18"/>
<text text-anchor="middle" x="817" y="-204.3" font-family="Times,serif" font-size="14.00">P75 (a)</text>
</g>
<!-- 019 -->
<g id="node25" class="node"><title>019</title>
<ellipse fill="#ff8a8a" stroke="#b43f3f" cx="726" cy="-208" rx="36.2938" ry="18"/>
<text text-anchor="middle" x="726" y="-204.3" font-family="Times,serif" font-size="14.00">019 (a)</text>
</g>
<!-- 0211 -->
<g id="node26" class="node"><title>0211</title>
<ellipse fill="#ff8a8a" stroke="#b43f3f" cx="631" cy="-208" rx="40.0939" ry="18"/>
<text text-anchor="middle" x="631" y="-204.3" font-family="Times,serif" font-size="14.00">0211 (a)</text>
</g>
<!-- 091 -->
<g id="node27" class="node"><title>091</title>
<ellipse fill="#ff8a8a" stroke="#b43f3f" cx="536" cy="-208" rx="36.2938" ry="18"/>
<text text-anchor="middle" x="536" y="-204.3" font-family="Times,serif" font-size="14.00">091 (a)</text>
</g>
<!-- 02 -->
<g id="node28" class="node"><title>02</title>
<ellipse fill="#ff8a8a" stroke="#b43f3f" cx="450" cy="-208" rx="31.6951" ry="18"/>
<text text-anchor="middle" x="450" y="-204.3" font-family="Times,serif" font-size="14.00">02 (a)</text>
</g>
<!-- 0141 -->
<g id="node29" class="node"><title>0141</title>
<ellipse fill="#ff8a8a" stroke="#b43f3f" cx="360" cy="-208" rx="40.0939" ry="18"/>
<text text-anchor="middle" x="360" y="-204.3" font-family="Times,serif" font-size="14.00">0141 (a)</text>
</g>
<!-- 05 -->
<g id="node30" class="node"><title>05</title>
<ellipse fill="#ff8a8a" stroke="#b43f3f" cx="270" cy="-208" rx="31.6951" ry="18"/>
<text text-anchor="middle" x="270" y="-204.3" font-family="Times,serif" font-size="14.00">05 (a)</text>
</g>
</g>
</svg>
