<?xml version="1.0" encoding="UTF-8" standalone="no"?>
<!DOCTYPE svg PUBLIC "-//W3C//DTD SVG 1.1//EN"
 "http://www.w3.org/Graphics/SVG/1.1/DTD/svg11.dtd">
<!-- Generated by graphviz version 2.38.0 (20140413.2041)
 -->
<!-- Title: %3 Pages: 1 -->
<svg width="507pt" height="163pt"
 viewBox="0.00 0.00 507.00 163.00" xmlns="http://www.w3.org/2000/svg" xmlns:xlink="http://www.w3.org/1999/xlink">
<g id="graph0" class="graph" transform="scale(1 1) rotate(0) translate(4 159)">
<title>%3</title>
<polygon fill="white" stroke="none" points="-4,4 -4,-159 503,-159 503,4 -4,4"/>
<g id="clust1" class="cluster"><title>cluster_legend</title>
<path fill="none" stroke="black" d="M20,-19C20,-19 210,-19 210,-19 216,-19 222,-25 222,-31 222,-31 222,-135 222,-135 222,-141 216,-147 210,-147 210,-147 20,-147 20,-147 14,-147 8,-141 8,-135 8,-135 8,-31 8,-31 8,-25 14,-19 20,-19"/>
</g>
<g id="clust2" class="cluster"><title>cluster_reading</title>
<polygon fill="none" stroke="black" points="230,-8 230,-147 491,-147 491,-8 230,-8"/>
</g>
<!-- leg_s -->
<g id="node1" class="node"><title>leg_s</title>
<text text-anchor="middle" x="115" y="-117.3" font-family="Times,serif" font-size="14.00">Textual flow strength</text>
</g>
<!-- leg_e1 -->
<!-- leg_s&#45;&gt;leg_e1 -->
<g id="edge1" class="edge"><title>leg_s&#45;&gt;leg_e1</title>
<path fill="none" stroke="black" stroke-dasharray="1,5" d="M96.6657,-102.686C91.1324,-97.1938 85.1607,-90.9891 80,-85 70.1708,-73.593 60.0722,-59.7786 52.9137,-49.5634"/>
<polygon fill="black" stroke="black" points="55.6142,-47.3142 47.056,-41.0685 49.8514,-51.2879 55.6142,-47.3142"/>
<text text-anchor="middle" x="95.5" y="-73.8" font-family="Times,serif" font-size="14.00">&lt;=5 &#160;</text>
</g>
<!-- leg_e2 -->
<!-- leg_s&#45;&gt;leg_e2 -->
<g id="edge2" class="edge"><title>leg_s&#45;&gt;leg_e2</title>
<path fill="none" stroke="black" stroke-dasharray="5,2" d="M115,-102.799C115,-87.7942 115,-66.1745 115,-51.4086"/>
<polygon fill="black" stroke="black" points="118.5,-51.2934 115,-41.2934 111.5,-51.2934 118.5,-51.2934"/>
<text text-anchor="middle" x="134" y="-73.8" font-family="Times,serif" font-size="14.00"> &#160;&lt;=25</text>
</g>
<!-- leg_e3 -->
<!-- leg_s&#45;&gt;leg_e3 -->
<g id="edge3" class="edge"><title>leg_s&#45;&gt;leg_e3</title>
<path fill="none" stroke="black" d="M138.503,-102.76C144.906,-97.4621 151.567,-91.3439 157,-85 166.087,-74.3897 174.095,-60.6892 179.546,-50.3134"/>
<polygon fill="black" stroke="black" points="182.722,-51.7893 184.091,-41.2833 176.469,-48.6425 182.722,-51.7893"/>
<text text-anchor="middle" x="179" y="-73.8" font-family="Times,serif" font-size="14.00">&gt;25</text>
</g>
<!-- A -->
<g id="node5" class="node"><title>A</title>
<ellipse fill="#ff8a8a" stroke="#b43f3f" cx="365" cy="-121" rx="29.4969" ry="18"/>
<text text-anchor="middle" x="365" y="-117.3" font-family="Times,serif" font-size="14.00">A (a)</text>
</g>
<!-- 019 -->
<g id="node6" class="node"><title>019</title>
<ellipse fill="#ff8a8a" stroke="#b43f3f" cx="274" cy="-34" rx="36.2938" ry="18"/>
<text text-anchor="middle" x="274" y="-30.3" font-family="Times,serif" font-size="14.00">019 (a)</text>
</g>
<!-- A&#45;&gt;019 -->
<g id="edge4" class="edge"><title>A&#45;&gt;019</title>
<path fill="none" stroke="#b43f3f" stroke-dasharray="1,5" d="M345.523,-107.326C336.472,-101.06 325.792,-93.1134 317,-85 308.456,-77.1154 299.924,-67.6186 292.74,-59.0293"/>
<polygon fill="#b43f3f" stroke="#b43f3f" points="295.344,-56.6853 286.308,-51.1545 289.923,-61.1135 295.344,-56.6853"/>
<text text-anchor="middle" x="339" y="-73.8" font-family="Times,serif" font-size="14.00">1 (93.3)</text>
</g>
<!-- P75 -->
<g id="node7" class="node"><title>P75</title>
<ellipse fill="#ff8a8a" stroke="#b43f3f" cx="365" cy="-34" rx="36.2938" ry="18"/>
<text text-anchor="middle" x="365" y="-30.3" font-family="Times,serif" font-size="14.00">P75 (a)</text>
</g>
<!-- A&#45;&gt;P75 -->
<g id="edge5" class="edge"><title>A&#45;&gt;P75</title>
<path fill="none" stroke="#b43f3f" stroke-dasharray="1,5" d="M365,-102.799C365,-91.1626 365,-75.5479 365,-62.2368"/>
<polygon fill="#b43f3f" stroke="#b43f3f" points="368.5,-62.1754 365,-52.1754 361.5,-62.1755 368.5,-62.1754"/>
<text text-anchor="middle" x="387" y="-73.8" font-family="Times,serif" font-size="14.00">1 (93.3)</text>
</g>
<!-- 03 -->
<g id="node8" class="node"><title>03</title>
<ellipse fill="#ff8a8a" stroke="#b43f3f" cx="451" cy="-34" rx="31.6951" ry="18"/>
<text text-anchor="middle" x="451" y="-30.3" font-family="Times,serif" font-size="14.00">03 (a)</text>
</g>
<!-- A&#45;&gt;03 -->
<g id="edge6" class="edge"><title>A&#45;&gt;03</title>
<path fill="none" stroke="#b43f3f" stroke-dasharray="1,5" d="M384.7,-107.561C393.801,-101.347 404.457,-93.3752 413,-85 420.825,-77.3291 428.362,-67.9752 434.632,-59.4419"/>
<polygon fill="#b43f3f" stroke="#b43f3f" points="437.497,-61.452 440.443,-51.2749 431.794,-57.3937 437.497,-61.452"/>
<text text-anchor="middle" x="447" y="-73.8" font-family="Times,serif" font-size="14.00">1 (93.3)</text>
</g>
<!-- 091 -->
<g id="node9" class="node"><title>091</title>
<ellipse fill="#ff8a8a" stroke="#b43f3f" cx="278" cy="-121" rx="36.2938" ry="18"/>
<text text-anchor="middle" x="278" y="-117.3" font-family="Times,serif" font-size="14.00">091 (a)</text>
</g>
</g>
</svg>
