<?xml version="1.0" encoding="UTF-8" standalone="no"?>
<!DOCTYPE svg PUBLIC "-//W3C//DTD SVG 1.1//EN"
 "http://www.w3.org/Graphics/SVG/1.1/DTD/svg11.dtd">
<!-- Generated by graphviz version 2.38.0 (20140413.2041)
 -->
<!-- Title: %3 Pages: 1 -->
<svg width="1058pt" height="163pt"
 viewBox="0.00 0.00 1058.00 163.00" xmlns="http://www.w3.org/2000/svg" xmlns:xlink="http://www.w3.org/1999/xlink">
<g id="graph0" class="graph" transform="scale(1 1) rotate(0) translate(4 159)">
<title>%3</title>
<polygon fill="white" stroke="none" points="-4,4 -4,-159 1054,-159 1054,4 -4,4"/>
<g id="clust1" class="cluster"><title>cluster_reading</title>
<polygon fill="none" stroke="black" points="8,-8 8,-147 820,-147 820,-8 8,-8"/>
</g>
<g id="clust2" class="cluster"><title>cluster_legend</title>
<path fill="none" stroke="black" d="M840,-19C840,-19 1030,-19 1030,-19 1036,-19 1042,-25 1042,-31 1042,-31 1042,-135 1042,-135 1042,-141 1036,-147 1030,-147 1030,-147 840,-147 840,-147 834,-147 828,-141 828,-135 828,-135 828,-31 828,-31 828,-25 834,-19 840,-19"/>
</g>
<!-- 031 -->
<g id="node1" class="node"><title>031</title>
<ellipse fill="#ff8a8a" stroke="#b43f3f" cx="776" cy="-121" rx="36.2938" ry="18"/>
<text text-anchor="middle" x="776" y="-117.3" font-family="Times,serif" font-size="14.00">031 (a)</text>
</g>
<!-- 013 -->
<g id="node2" class="node"><title>013</title>
<ellipse fill="#ff8a8a" stroke="#b43f3f" cx="685" cy="-34" rx="36.2938" ry="18"/>
<text text-anchor="middle" x="685" y="-30.3" font-family="Times,serif" font-size="14.00">013 (a)</text>
</g>
<!-- 031&#45;&gt;013 -->
<g id="edge1" class="edge"><title>031&#45;&gt;013</title>
<path fill="none" stroke="#b43f3f" stroke-dasharray="1,5" d="M754.628,-106.006C746.008,-99.9634 736.186,-92.5539 728,-85 719.456,-77.1154 710.924,-67.6186 703.74,-59.0293"/>
<polygon fill="#b43f3f" stroke="#b43f3f" points="706.344,-56.6853 697.308,-51.1545 700.923,-61.1135 706.344,-56.6853"/>
<text text-anchor="middle" x="750" y="-73.8" font-family="Times,serif" font-size="14.00">1 (97.1)</text>
</g>
<!-- 017 -->
<g id="node3" class="node"><title>017</title>
<ellipse fill="#ff8a8a" stroke="#b43f3f" cx="776" cy="-34" rx="36.2938" ry="18"/>
<text text-anchor="middle" x="776" y="-30.3" font-family="Times,serif" font-size="14.00">017 (a)</text>
</g>
<!-- 031&#45;&gt;017 -->
<g id="edge2" class="edge"><title>031&#45;&gt;017</title>
<path fill="none" stroke="#b43f3f" stroke-dasharray="1,5" d="M776,-102.799C776,-91.1626 776,-75.5479 776,-62.2368"/>
<polygon fill="#b43f3f" stroke="#b43f3f" points="779.5,-62.1754 776,-52.1754 772.5,-62.1755 779.5,-62.1754"/>
<text text-anchor="middle" x="798" y="-73.8" font-family="Times,serif" font-size="14.00">1 (94.3)</text>
</g>
<!-- 07 -->
<g id="node4" class="node"><title>07</title>
<ellipse fill="#ff8a8a" stroke="#b43f3f" cx="690" cy="-121" rx="31.6951" ry="18"/>
<text text-anchor="middle" x="690" y="-117.3" font-family="Times,serif" font-size="14.00">07 (a)</text>
</g>
<!-- 037 -->
<g id="node5" class="node"><title>037</title>
<ellipse fill="#ff8a8a" stroke="#b43f3f" cx="412" cy="-34" rx="36.2938" ry="18"/>
<text text-anchor="middle" x="412" y="-30.3" font-family="Times,serif" font-size="14.00">037 (a)</text>
</g>
<!-- 07&#45;&gt;037 -->
<g id="edge3" class="edge"><title>07&#45;&gt;037</title>
<path fill="none" stroke="#b43f3f" stroke-dasharray="1,5" d="M666.085,-108.854C660.568,-106.63 654.657,-104.516 649,-103 589.681,-87.1025 570.721,-102.981 512,-85 487.597,-77.5276 461.882,-64.5412 442.639,-53.6761"/>
<polygon fill="#b43f3f" stroke="#b43f3f" points="444.158,-50.5117 433.747,-48.5462 440.66,-56.575 444.158,-50.5117"/>
<text text-anchor="middle" x="534" y="-73.8" font-family="Times,serif" font-size="14.00">1 (97.5)</text>
</g>
<!-- 034 -->
<g id="node6" class="node"><title>034</title>
<ellipse fill="#ff8a8a" stroke="#b43f3f" cx="503" cy="-34" rx="36.2938" ry="18"/>
<text text-anchor="middle" x="503" y="-30.3" font-family="Times,serif" font-size="14.00">034 (a)</text>
</g>
<!-- 07&#45;&gt;034 -->
<g id="edge4" class="edge"><title>07&#45;&gt;034</title>
<path fill="none" stroke="#b43f3f" stroke-dasharray="1,5" d="M665.442,-109.342C660.063,-107.142 654.371,-104.914 649,-103 622.774,-93.6562 614.544,-96.0731 589,-85 569.346,-76.4802 548.549,-64.4792 532.331,-54.3701"/>
<polygon fill="#b43f3f" stroke="#b43f3f" points="534.148,-51.3783 523.828,-48.9828 530.402,-57.2913 534.148,-51.3783"/>
<text text-anchor="middle" x="611" y="-73.8" font-family="Times,serif" font-size="14.00">1 (95.1)</text>
</g>
<!-- 030 -->
<g id="node7" class="node"><title>030</title>
<ellipse fill="#ff8a8a" stroke="#b43f3f" cx="594" cy="-34" rx="36.2938" ry="18"/>
<text text-anchor="middle" x="594" y="-30.3" font-family="Times,serif" font-size="14.00">030 (a)</text>
</g>
<!-- 07&#45;&gt;030 -->
<g id="edge5" class="edge"><title>07&#45;&gt;030</title>
<path fill="none" stroke="#b43f3f" stroke-dasharray="1,5" d="M673.278,-105.194C658.32,-91.9504 636.185,-72.3517 619.103,-57.2267"/>
<polygon fill="#b43f3f" stroke="#b43f3f" points="620.984,-54.2172 611.177,-50.2086 616.344,-59.4581 620.984,-54.2172"/>
<text text-anchor="middle" x="670" y="-73.8" font-family="Times,serif" font-size="14.00">1 (95.1)</text>
</g>
<!-- 045 -->
<g id="node8" class="node"><title>045</title>
<ellipse fill="#ff8a8a" stroke="#b43f3f" cx="604" cy="-121" rx="36.2938" ry="18"/>
<text text-anchor="middle" x="604" y="-117.3" font-family="Times,serif" font-size="14.00">045 (a)</text>
</g>
<!-- 038 -->
<g id="node9" class="node"><title>038</title>
<ellipse fill="#ff8a8a" stroke="#b43f3f" cx="321" cy="-34" rx="36.2938" ry="18"/>
<text text-anchor="middle" x="321" y="-30.3" font-family="Times,serif" font-size="14.00">038 (a)</text>
</g>
<!-- 045&#45;&gt;038 -->
<g id="edge6" class="edge"><title>045&#45;&gt;038</title>
<path fill="none" stroke="#b43f3f" stroke-dasharray="1,5" d="M576.576,-108.76C570.534,-106.596 564.112,-104.53 558,-103 500.99,-88.7296 483.338,-101.729 427,-85 400.951,-77.2649 373.233,-63.9933 352.677,-53.0665"/>
<polygon fill="#b43f3f" stroke="#b43f3f" points="354.227,-49.926 343.768,-48.2395 350.893,-56.0807 354.227,-49.926"/>
<text text-anchor="middle" x="449" y="-73.8" font-family="Times,serif" font-size="14.00">1 (92.7)</text>
</g>
<!-- 021 -->
<g id="node10" class="node"><title>021</title>
<ellipse fill="#ff8a8a" stroke="#b43f3f" cx="513" cy="-121" rx="36.2938" ry="18"/>
<text text-anchor="middle" x="513" y="-117.3" font-family="Times,serif" font-size="14.00">021 (a)</text>
</g>
<!-- 036 -->
<g id="node11" class="node"><title>036</title>
<ellipse fill="#ff8a8a" stroke="#b43f3f" cx="139" cy="-34" rx="36.2938" ry="18"/>
<text text-anchor="middle" x="139" y="-30.3" font-family="Times,serif" font-size="14.00">036 (a)</text>
</g>
<!-- 021&#45;&gt;036 -->
<g id="edge7" class="edge"><title>021&#45;&gt;036</title>
<path fill="none" stroke="#b43f3f" stroke-dasharray="1,5" d="M486.124,-108.688C479.937,-106.473 473.316,-104.404 467,-103 373.395,-82.1899 344.908,-108.729 252,-85 223.628,-77.7538 193.385,-64.0197 171.333,-52.7766"/>
<polygon fill="#b43f3f" stroke="#b43f3f" points="172.9,-49.6464 162.413,-48.1368 169.67,-55.8565 172.9,-49.6464"/>
<text text-anchor="middle" x="274" y="-73.8" font-family="Times,serif" font-size="14.00">1 (97.6)</text>
</g>
<!-- 047 -->
<g id="node12" class="node"><title>047</title>
<ellipse fill="#ff8a8a" stroke="#b43f3f" cx="230" cy="-34" rx="36.2938" ry="18"/>
<text text-anchor="middle" x="230" y="-30.3" font-family="Times,serif" font-size="14.00">047 (a)</text>
</g>
<!-- 021&#45;&gt;047 -->
<g id="edge8" class="edge"><title>021&#45;&gt;047</title>
<path fill="none" stroke="#b43f3f" stroke-dasharray="1,5" d="M485.571,-108.78C479.529,-106.614 473.109,-104.543 467,-103 411.727,-89.0397 394.73,-100.958 340,-85 312.809,-77.0716 283.701,-63.5978 262.262,-52.6336"/>
<polygon fill="#b43f3f" stroke="#b43f3f" points="263.766,-49.4704 253.279,-47.957 260.533,-55.6794 263.766,-49.4704"/>
<text text-anchor="middle" x="362" y="-73.8" font-family="Times,serif" font-size="14.00">1 (95.1)</text>
</g>
<!-- 0211 -->
<g id="node13" class="node"><title>0211</title>
<ellipse fill="#ff8a8a" stroke="#b43f3f" cx="418" cy="-121" rx="40.0939" ry="18"/>
<text text-anchor="middle" x="418" y="-117.3" font-family="Times,serif" font-size="14.00">0211 (a)</text>
</g>
<!-- 011 -->
<g id="node14" class="node"><title>011</title>
<ellipse fill="#ff8a8a" stroke="#b43f3f" cx="323" cy="-121" rx="36.2938" ry="18"/>
<text text-anchor="middle" x="323" y="-117.3" font-family="Times,serif" font-size="14.00">011 (a)</text>
</g>
<!-- 02 -->
<g id="node15" class="node"><title>02</title>
<ellipse fill="#ff8a8a" stroke="#b43f3f" cx="237" cy="-121" rx="31.6951" ry="18"/>
<text text-anchor="middle" x="237" y="-117.3" font-family="Times,serif" font-size="14.00">02 (a)</text>
</g>
<!-- 028 -->
<g id="node16" class="node"><title>028</title>
<ellipse fill="#ff8a8a" stroke="#b43f3f" cx="151" cy="-121" rx="36.2938" ry="18"/>
<text text-anchor="middle" x="151" y="-117.3" font-family="Times,serif" font-size="14.00">028 (a)</text>
</g>
<!-- 0141 -->
<g id="node17" class="node"><title>0141</title>
<ellipse fill="#ff8a8a" stroke="#b43f3f" cx="56" cy="-121" rx="40.0939" ry="18"/>
<text text-anchor="middle" x="56" y="-117.3" font-family="Times,serif" font-size="14.00">0141 (a)</text>
</g>
<!-- leg_s -->
<g id="node18" class="node"><title>leg_s</title>
<text text-anchor="middle" x="935" y="-117.3" font-family="Times,serif" font-size="14.00">Textual flow strength</text>
</g>
<!-- leg_e1 -->
<!-- leg_s&#45;&gt;leg_e1 -->
<g id="edge9" class="edge"><title>leg_s&#45;&gt;leg_e1</title>
<path fill="none" stroke="black" stroke-dasharray="1,5" d="M916.666,-102.686C911.132,-97.1938 905.161,-90.9891 900,-85 890.171,-73.593 880.072,-59.7786 872.914,-49.5634"/>
<polygon fill="black" stroke="black" points="875.614,-47.3142 867.056,-41.0685 869.851,-51.2879 875.614,-47.3142"/>
<text text-anchor="middle" x="915.5" y="-73.8" font-family="Times,serif" font-size="14.00">&lt;=5 &#160;</text>
</g>
<!-- leg_e2 -->
<!-- leg_s&#45;&gt;leg_e2 -->
<g id="edge10" class="edge"><title>leg_s&#45;&gt;leg_e2</title>
<path fill="none" stroke="black" stroke-dasharray="5,2" d="M935,-102.799C935,-87.7942 935,-66.1745 935,-51.4086"/>
<polygon fill="black" stroke="black" points="938.5,-51.2934 935,-41.2934 931.5,-51.2934 938.5,-51.2934"/>
<text text-anchor="middle" x="954" y="-73.8" font-family="Times,serif" font-size="14.00"> &#160;&lt;=25</text>
</g>
<!-- leg_e3 -->
<!-- leg_s&#45;&gt;leg_e3 -->
<g id="edge11" class="edge"><title>leg_s&#45;&gt;leg_e3</title>
<path fill="none" stroke="black" d="M958.503,-102.76C964.906,-97.4621 971.567,-91.3439 977,-85 986.087,-74.3897 994.095,-60.6892 999.546,-50.3134"/>
<polygon fill="black" stroke="black" points="1002.72,-51.7893 1004.09,-41.2833 996.469,-48.6425 1002.72,-51.7893"/>
<text text-anchor="middle" x="998" y="-73.8" font-family="Times,serif" font-size="14.00">&gt;25</text>
</g>
</g>
</svg>
