<?xml version="1.0" encoding="UTF-8" standalone="no"?>
<!DOCTYPE svg PUBLIC "-//W3C//DTD SVG 1.1//EN"
 "http://www.w3.org/Graphics/SVG/1.1/DTD/svg11.dtd">
<!-- Generated by graphviz version 2.38.0 (20140413.2041)
 -->
<!-- Title: %3 Pages: 1 -->
<svg width="1140pt" height="250pt"
 viewBox="0.00 0.00 1140.00 250.00" xmlns="http://www.w3.org/2000/svg" xmlns:xlink="http://www.w3.org/1999/xlink">
<g id="graph0" class="graph" transform="scale(1 1) rotate(0) translate(4 246)">
<title>%3</title>
<polygon fill="white" stroke="none" points="-4,4 -4,-246 1136,-246 1136,4 -4,4"/>
<g id="clust1" class="cluster"><title>cluster_reading</title>
<polygon fill="none" stroke="black" points="8,-8 8,-147 902,-147 902,-8 8,-8"/>
</g>
<g id="clust2" class="cluster"><title>cluster_legend</title>
<path fill="none" stroke="black" d="M922,-106C922,-106 1112,-106 1112,-106 1118,-106 1124,-112 1124,-118 1124,-118 1124,-222 1124,-222 1124,-228 1118,-234 1112,-234 1112,-234 922,-234 922,-234 916,-234 910,-228 910,-222 910,-222 910,-118 910,-118 910,-112 916,-106 922,-106"/>
</g>
<!-- 031 -->
<g id="node1" class="node"><title>031</title>
<ellipse fill="#ff8a8a" stroke="#b43f3f" cx="413" cy="-121" rx="36.2938" ry="18"/>
<text text-anchor="middle" x="413" y="-117.3" font-family="Times,serif" font-size="14.00">031 (a)</text>
</g>
<!-- 013 -->
<g id="node2" class="node"><title>013</title>
<ellipse fill="#ff8a8a" stroke="#b43f3f" cx="221" cy="-34" rx="36.2938" ry="18"/>
<text text-anchor="middle" x="221" y="-30.3" font-family="Times,serif" font-size="14.00">013 (a)</text>
</g>
<!-- 031&#45;&gt;013 -->
<g id="edge1" class="edge"><title>031&#45;&gt;013</title>
<path fill="none" stroke="#b43f3f" stroke-dasharray="1,5" d="M385.584,-109.017C379.821,-106.886 373.747,-104.768 368,-103 335.235,-92.9228 324.283,-99.0176 293,-85 276.481,-77.5979 259.769,-66.2803 246.609,-56.2836"/>
<polygon fill="#b43f3f" stroke="#b43f3f" points="248.548,-53.3566 238.513,-49.9595 244.239,-58.8733 248.548,-53.3566"/>
<text text-anchor="middle" x="315" y="-73.8" font-family="Times,serif" font-size="14.00">1 (97.1)</text>
</g>
<!-- 017 -->
<g id="node3" class="node"><title>017</title>
<ellipse fill="#ff8a8a" stroke="#b43f3f" cx="312" cy="-34" rx="36.2938" ry="18"/>
<text text-anchor="middle" x="312" y="-30.3" font-family="Times,serif" font-size="14.00">017 (a)</text>
</g>
<!-- 031&#45;&gt;017 -->
<g id="edge2" class="edge"><title>031&#45;&gt;017</title>
<path fill="none" stroke="#b43f3f" stroke-dasharray="1,5" d="M388.427,-107.469C377.64,-101.404 365.15,-93.5791 355,-85 346.121,-77.4947 337.52,-68.0764 330.374,-59.4436"/>
<polygon fill="#b43f3f" stroke="#b43f3f" points="332.99,-57.1117 324.006,-51.4956 327.527,-61.4883 332.99,-57.1117"/>
<text text-anchor="middle" x="377" y="-73.8" font-family="Times,serif" font-size="14.00">1 (94.3)</text>
</g>
<!-- 011 -->
<g id="node4" class="node"><title>011</title>
<ellipse fill="#ff8a8a" stroke="#b43f3f" cx="504" cy="-121" rx="36.2938" ry="18"/>
<text text-anchor="middle" x="504" y="-117.3" font-family="Times,serif" font-size="14.00">011 (a)</text>
</g>
<!-- 07 -->
<g id="node5" class="node"><title>07</title>
<ellipse fill="#ff8a8a" stroke="#b43f3f" cx="590" cy="-121" rx="31.6951" ry="18"/>
<text text-anchor="middle" x="590" y="-117.3" font-family="Times,serif" font-size="14.00">07 (a)</text>
</g>
<!-- 037 -->
<g id="node6" class="node"><title>037</title>
<ellipse fill="#ff8a8a" stroke="#b43f3f" cx="494" cy="-34" rx="36.2938" ry="18"/>
<text text-anchor="middle" x="494" y="-30.3" font-family="Times,serif" font-size="14.00">037 (a)</text>
</g>
<!-- 07&#45;&gt;037 -->
<g id="edge3" class="edge"><title>07&#45;&gt;037</title>
<path fill="none" stroke="#b43f3f" stroke-dasharray="1,5" d="M569.305,-106.983C560,-100.766 549.09,-92.9548 540,-85 530.893,-77.0308 521.698,-67.4187 513.947,-58.7604"/>
<polygon fill="#b43f3f" stroke="#b43f3f" points="516.503,-56.3659 507.28,-51.1516 511.238,-60.9793 516.503,-56.3659"/>
<text text-anchor="middle" x="562" y="-73.8" font-family="Times,serif" font-size="14.00">1 (97.5)</text>
</g>
<!-- 034 -->
<g id="node7" class="node"><title>034</title>
<ellipse fill="#ff8a8a" stroke="#b43f3f" cx="585" cy="-34" rx="36.2938" ry="18"/>
<text text-anchor="middle" x="585" y="-30.3" font-family="Times,serif" font-size="14.00">034 (a)</text>
</g>
<!-- 07&#45;&gt;034 -->
<g id="edge4" class="edge"><title>07&#45;&gt;034</title>
<path fill="none" stroke="#b43f3f" stroke-dasharray="1,5" d="M588.988,-102.799C588.304,-91.1626 587.385,-75.5479 586.602,-62.2368"/>
<polygon fill="#b43f3f" stroke="#b43f3f" points="590.092,-61.9526 586.01,-52.1754 583.104,-62.3637 590.092,-61.9526"/>
<text text-anchor="middle" x="610" y="-73.8" font-family="Times,serif" font-size="14.00">1 (95.1)</text>
</g>
<!-- 030 -->
<g id="node8" class="node"><title>030</title>
<ellipse fill="#ff8a8a" stroke="#b43f3f" cx="403" cy="-34" rx="36.2938" ry="18"/>
<text text-anchor="middle" x="403" y="-30.3" font-family="Times,serif" font-size="14.00">030 (a)</text>
</g>
<!-- 07&#45;&gt;030 -->
<g id="edge5" class="edge"><title>07&#45;&gt;030</title>
<path fill="none" stroke="#b43f3f" stroke-dasharray="1,5" d="M565.502,-109.166C560.12,-106.976 554.412,-104.797 549,-103 518.106,-92.7388 507.749,-98.219 478,-85 460.828,-77.3695 443.264,-65.8967 429.454,-55.8648"/>
<polygon fill="#b43f3f" stroke="#b43f3f" points="431.489,-53.0162 421.378,-49.8519 427.309,-58.6311 431.489,-53.0162"/>
<text text-anchor="middle" x="500" y="-73.8" font-family="Times,serif" font-size="14.00">1 (95.1)</text>
</g>
<!-- 045 -->
<g id="node9" class="node"><title>045</title>
<ellipse fill="#ff8a8a" stroke="#b43f3f" cx="676" cy="-121" rx="36.2938" ry="18"/>
<text text-anchor="middle" x="676" y="-117.3" font-family="Times,serif" font-size="14.00">045 (a)</text>
</g>
<!-- 038 -->
<g id="node10" class="node"><title>038</title>
<ellipse fill="#ff8a8a" stroke="#b43f3f" cx="676" cy="-34" rx="36.2938" ry="18"/>
<text text-anchor="middle" x="676" y="-30.3" font-family="Times,serif" font-size="14.00">038 (a)</text>
</g>
<!-- 045&#45;&gt;038 -->
<g id="edge6" class="edge"><title>045&#45;&gt;038</title>
<path fill="none" stroke="#b43f3f" stroke-dasharray="1,5" d="M676,-102.799C676,-91.1626 676,-75.5479 676,-62.2368"/>
<polygon fill="#b43f3f" stroke="#b43f3f" points="679.5,-62.1754 676,-52.1754 672.5,-62.1755 679.5,-62.1754"/>
<text text-anchor="middle" x="698" y="-73.8" font-family="Times,serif" font-size="14.00">1 (92.7)</text>
</g>
<!-- 021 -->
<g id="node11" class="node"><title>021</title>
<ellipse fill="#ff8a8a" stroke="#b43f3f" cx="767" cy="-121" rx="36.2938" ry="18"/>
<text text-anchor="middle" x="767" y="-117.3" font-family="Times,serif" font-size="14.00">021 (a)</text>
</g>
<!-- 036 -->
<g id="node12" class="node"><title>036</title>
<ellipse fill="#ff8a8a" stroke="#b43f3f" cx="767" cy="-34" rx="36.2938" ry="18"/>
<text text-anchor="middle" x="767" y="-30.3" font-family="Times,serif" font-size="14.00">036 (a)</text>
</g>
<!-- 021&#45;&gt;036 -->
<g id="edge7" class="edge"><title>021&#45;&gt;036</title>
<path fill="none" stroke="#b43f3f" stroke-dasharray="1,5" d="M767,-102.799C767,-91.1626 767,-75.5479 767,-62.2368"/>
<polygon fill="#b43f3f" stroke="#b43f3f" points="770.5,-62.1754 767,-52.1754 763.5,-62.1755 770.5,-62.1754"/>
<text text-anchor="middle" x="789" y="-73.8" font-family="Times,serif" font-size="14.00">1 (97.6)</text>
</g>
<!-- 047 -->
<g id="node13" class="node"><title>047</title>
<ellipse fill="#ff8a8a" stroke="#b43f3f" cx="858" cy="-34" rx="36.2938" ry="18"/>
<text text-anchor="middle" x="858" y="-30.3" font-family="Times,serif" font-size="14.00">047 (a)</text>
</g>
<!-- 021&#45;&gt;047 -->
<g id="edge8" class="edge"><title>021&#45;&gt;047</title>
<path fill="none" stroke="#b43f3f" stroke-dasharray="1,5" d="M788.372,-106.006C796.992,-99.9634 806.814,-92.5539 815,-85 823.544,-77.1154 832.076,-67.6186 839.26,-59.0293"/>
<polygon fill="#b43f3f" stroke="#b43f3f" points="842.077,-61.1135 845.692,-51.1545 836.656,-56.6853 842.077,-61.1135"/>
<text text-anchor="middle" x="851" y="-73.8" font-family="Times,serif" font-size="14.00">1 (95.1)</text>
</g>
<!-- 028 -->
<g id="node14" class="node"><title>028</title>
<ellipse fill="#ff8a8a" stroke="#b43f3f" cx="858" cy="-121" rx="36.2938" ry="18"/>
<text text-anchor="middle" x="858" y="-117.3" font-family="Times,serif" font-size="14.00">028 (a)</text>
</g>
<!-- 01 -->
<g id="node15" class="node"><title>01</title>
<ellipse fill="#ff8a8a" stroke="#b43f3f" cx="327" cy="-121" rx="31.6951" ry="18"/>
<text text-anchor="middle" x="327" y="-117.3" font-family="Times,serif" font-size="14.00">01 (a)</text>
</g>
<!-- 0211 -->
<g id="node16" class="node"><title>0211</title>
<ellipse fill="#ff8a8a" stroke="#b43f3f" cx="237" cy="-121" rx="40.0939" ry="18"/>
<text text-anchor="middle" x="237" y="-117.3" font-family="Times,serif" font-size="14.00">0211 (a)</text>
</g>
<!-- 0141 -->
<g id="node17" class="node"><title>0141</title>
<ellipse fill="#ff8a8a" stroke="#b43f3f" cx="138" cy="-121" rx="40.0939" ry="18"/>
<text text-anchor="middle" x="138" y="-117.3" font-family="Times,serif" font-size="14.00">0141 (a)</text>
</g>
<!-- 05 -->
<g id="node18" class="node"><title>05</title>
<ellipse fill="#ff8a8a" stroke="#b43f3f" cx="48" cy="-121" rx="31.6951" ry="18"/>
<text text-anchor="middle" x="48" y="-117.3" font-family="Times,serif" font-size="14.00">05 (a)</text>
</g>
<!-- leg_s -->
<g id="node19" class="node"><title>leg_s</title>
<text text-anchor="middle" x="1017" y="-204.3" font-family="Times,serif" font-size="14.00">Textual flow strength</text>
</g>
<!-- leg_e1 -->
<!-- leg_s&#45;&gt;leg_e1 -->
<g id="edge9" class="edge"><title>leg_s&#45;&gt;leg_e1</title>
<path fill="none" stroke="black" stroke-dasharray="1,5" d="M998.666,-189.686C993.132,-184.194 987.161,-177.989 982,-172 972.171,-160.593 962.072,-146.779 954.914,-136.563"/>
<polygon fill="black" stroke="black" points="957.614,-134.314 949.056,-128.068 951.851,-138.288 957.614,-134.314"/>
<text text-anchor="middle" x="997.5" y="-160.8" font-family="Times,serif" font-size="14.00">&lt;=5 &#160;</text>
</g>
<!-- leg_e2 -->
<!-- leg_s&#45;&gt;leg_e2 -->
<g id="edge10" class="edge"><title>leg_s&#45;&gt;leg_e2</title>
<path fill="none" stroke="black" stroke-dasharray="5,2" d="M1017,-189.799C1017,-174.794 1017,-153.174 1017,-138.409"/>
<polygon fill="black" stroke="black" points="1020.5,-138.293 1017,-128.293 1013.5,-138.293 1020.5,-138.293"/>
<text text-anchor="middle" x="1036" y="-160.8" font-family="Times,serif" font-size="14.00"> &#160;&lt;=25</text>
</g>
<!-- leg_e3 -->
<!-- leg_s&#45;&gt;leg_e3 -->
<g id="edge11" class="edge"><title>leg_s&#45;&gt;leg_e3</title>
<path fill="none" stroke="black" d="M1040.5,-189.76C1046.91,-184.462 1053.57,-178.344 1059,-172 1068.09,-161.39 1076.1,-147.689 1081.55,-137.313"/>
<polygon fill="black" stroke="black" points="1084.72,-138.789 1086.09,-128.283 1078.47,-135.642 1084.72,-138.789"/>
<text text-anchor="middle" x="1080" y="-160.8" font-family="Times,serif" font-size="14.00">&gt;25</text>
</g>
<!-- 063 -->
<g id="node23" class="node"><title>063</title>
<ellipse fill="#cea8f4" stroke="#835da9" cx="633" cy="-208" rx="36.2938" ry="18"/>
<text text-anchor="middle" x="633" y="-204.3" font-family="Times,serif" font-size="14.00">063 (b)</text>
</g>
<!-- 063&#45;&gt;031 -->
<g id="edge12" class="edge"><title>063&#45;&gt;031</title>
<path fill="none" stroke="#b43f3f" stroke-dasharray="1,5" d="M598.281,-202.411C567.74,-197.527 522.577,-188.209 486,-172 469.295,-164.597 452.354,-153.28 439.003,-143.283"/>
<polygon fill="#b43f3f" stroke="#b43f3f" points="440.845,-140.284 430.786,-136.959 436.576,-145.832 440.845,-140.284"/>
<text text-anchor="middle" x="508" y="-160.8" font-family="Times,serif" font-size="14.00">1 (95.8)</text>
</g>
<!-- 063&#45;&gt;011 -->
<g id="edge13" class="edge"><title>063&#45;&gt;011</title>
<path fill="none" stroke="#b43f3f" stroke-dasharray="1,5" d="M603.018,-197.59C586.782,-191.686 566.86,-183.082 551,-172 540.576,-164.717 530.675,-154.815 522.671,-145.745"/>
<polygon fill="#b43f3f" stroke="#b43f3f" points="525.301,-143.434 516.162,-138.074 519.964,-147.963 525.301,-143.434"/>
<text text-anchor="middle" x="573" y="-160.8" font-family="Times,serif" font-size="14.00">1 (93.1)</text>
</g>
<!-- 063&#45;&gt;07 -->
<g id="edge14" class="edge"><title>063&#45;&gt;07</title>
<path fill="none" stroke="#b43f3f" stroke-dasharray="1,5" d="M618.216,-191.178C613.476,-185.465 608.542,-178.753 605,-172 601.295,-164.937 598.365,-156.822 596.115,-149.213"/>
<polygon fill="#b43f3f" stroke="#b43f3f" points="599.427,-148.049 593.459,-139.295 592.665,-149.86 599.427,-148.049"/>
<text text-anchor="middle" x="627" y="-160.8" font-family="Times,serif" font-size="14.00">1 (96.6)</text>
</g>
<!-- 063&#45;&gt;045 -->
<g id="edge15" class="edge"><title>063&#45;&gt;045</title>
<path fill="none" stroke="#b43f3f" stroke-dasharray="1,5" d="M641.495,-190.207C647.62,-178.099 656.001,-161.533 662.969,-147.759"/>
<polygon fill="#b43f3f" stroke="#b43f3f" points="666.131,-149.262 667.522,-138.758 659.885,-146.102 666.131,-149.262"/>
<text text-anchor="middle" x="680" y="-160.8" font-family="Times,serif" font-size="14.00">1 (93.1)</text>
</g>
<!-- 063&#45;&gt;021 -->
<g id="edge16" class="edge"><title>063&#45;&gt;021</title>
<path fill="none" stroke="#b43f3f" stroke-dasharray="1,5" d="M660.175,-195.839C674.278,-189.588 691.535,-181.208 706,-172 718.887,-163.797 732.127,-153.248 742.964,-143.955"/>
<polygon fill="#b43f3f" stroke="#b43f3f" points="745.517,-146.373 750.738,-137.154 740.907,-141.105 745.517,-146.373"/>
<text text-anchor="middle" x="748" y="-160.8" font-family="Times,serif" font-size="14.00">1 (93.1)</text>
</g>
<!-- 063&#45;&gt;028 -->
<g id="edge17" class="edge"><title>063&#45;&gt;028</title>
<path fill="none" stroke="#b43f3f" stroke-dasharray="1,5" d="M666.926,-201.476C696.049,-196.058 738.776,-186.483 774,-172 793.288,-164.069 813.414,-152.232 829.128,-142.065"/>
<polygon fill="#b43f3f" stroke="#b43f3f" points="831.418,-144.747 837.832,-136.315 827.559,-138.907 831.418,-144.747"/>
<text text-anchor="middle" x="825" y="-160.8" font-family="Times,serif" font-size="14.00">1 (96.6)</text>
</g>
</g>
</svg>
