<?xml version="1.0" encoding="UTF-8" standalone="no"?>
<!DOCTYPE svg PUBLIC "-//W3C//DTD SVG 1.1//EN"
 "http://www.w3.org/Graphics/SVG/1.1/DTD/svg11.dtd">
<!-- Generated by graphviz version 2.38.0 (20140413.2041)
 -->
<!-- Title: %3 Pages: 1 -->
<svg width="344pt" height="141pt"
 viewBox="0.00 0.00 344.00 141.00" xmlns="http://www.w3.org/2000/svg" xmlns:xlink="http://www.w3.org/1999/xlink">
<g id="graph0" class="graph" transform="scale(1 1) rotate(0) translate(4 137)">
<title>%3</title>
<polygon fill="white" stroke="none" points="-4,4 -4,-137 340,-137 340,4 -4,4"/>
<g id="clust1" class="cluster"><title>cluster_reading</title>
<polygon fill="none" stroke="black" points="8,-73 8,-125 106,-125 106,-73 8,-73"/>
</g>
<g id="clust2" class="cluster"><title>cluster_legend</title>
<path fill="none" stroke="black" d="M126,-8C126,-8 316,-8 316,-8 322,-8 328,-14 328,-20 328,-20 328,-113 328,-113 328,-119 322,-125 316,-125 316,-125 126,-125 126,-125 120,-125 114,-119 114,-113 114,-113 114,-20 114,-20 114,-14 120,-8 126,-8"/>
</g>
<!-- 0211 -->
<g id="node1" class="node"><title>0211</title>
<ellipse fill="#cea8f4" stroke="#835da9" cx="57" cy="-99" rx="40.8928" ry="18"/>
<text text-anchor="middle" x="57" y="-95.3" font-family="Times,serif" font-size="14.00">0211 (b)</text>
</g>
<!-- leg_s -->
<g id="node2" class="node"><title>leg_s</title>
<text text-anchor="middle" x="221" y="-95.3" font-family="Times,serif" font-size="14.00">Textual flow strength</text>
</g>
<!-- leg_e1 -->
<!-- leg_s&#45;&gt;leg_e1 -->
<g id="edge1" class="edge"><title>leg_s&#45;&gt;leg_e1</title>
<path fill="none" stroke="black" stroke-dasharray="1,5" d="M203.82,-80.9995C198.117,-75.3088 191.756,-68.9096 186,-63 177.856,-54.6386 168.839,-45.1391 161.745,-37.609"/>
<polygon fill="black" stroke="black" points="163.866,-34.7543 154.469,-29.8601 158.763,-39.5459 163.866,-34.7543"/>
<text text-anchor="middle" x="201.5" y="-51.8" font-family="Times,serif" font-size="14.00">&lt;=5 &#160;</text>
</g>
<!-- leg_e2 -->
<!-- leg_s&#45;&gt;leg_e2 -->
<g id="edge2" class="edge"><title>leg_s&#45;&gt;leg_e2</title>
<path fill="none" stroke="black" stroke-dasharray="5,2" d="M221,-80.8369C221,-68.6686 221,-52.4362 221,-40.4345"/>
<polygon fill="black" stroke="black" points="224.5,-40.1502 221,-30.1503 217.5,-40.1503 224.5,-40.1502"/>
<text text-anchor="middle" x="240" y="-51.8" font-family="Times,serif" font-size="14.00"> &#160;&lt;=25</text>
</g>
<!-- leg_e3 -->
<!-- leg_s&#45;&gt;leg_e3 -->
<g id="edge3" class="edge"><title>leg_s&#45;&gt;leg_e3</title>
<path fill="none" stroke="black" d="M243.608,-80.7027C250.13,-75.311 257.079,-69.1572 263,-63 270.325,-55.3835 277.576,-46.0214 283.114,-38.3792"/>
<polygon fill="black" stroke="black" points="286.017,-40.3356 288.909,-30.1433 280.292,-36.3072 286.017,-40.3356"/>
<text text-anchor="middle" x="286" y="-51.8" font-family="Times,serif" font-size="14.00">&gt;25</text>
</g>
</g>
</svg>
