<?xml version="1.0" encoding="UTF-8" standalone="no"?>
<!DOCTYPE svg PUBLIC "-//W3C//DTD SVG 1.1//EN"
 "http://www.w3.org/Graphics/SVG/1.1/DTD/svg11.dtd">
<!-- Generated by graphviz version 2.38.0 (20140413.2041)
 -->
<!-- Title: %3 Pages: 1 -->
<svg width="598pt" height="163pt"
 viewBox="0.00 0.00 598.00 163.00" xmlns="http://www.w3.org/2000/svg" xmlns:xlink="http://www.w3.org/1999/xlink">
<g id="graph0" class="graph" transform="scale(1 1) rotate(0) translate(4 159)">
<title>%3</title>
<polygon fill="white" stroke="none" points="-4,4 -4,-159 594,-159 594,4 -4,4"/>
<g id="clust1" class="cluster"><title>cluster_reading</title>
<polygon fill="none" stroke="black" points="8,-8 8,-147 360,-147 360,-8 8,-8"/>
</g>
<g id="clust2" class="cluster"><title>cluster_legend</title>
<path fill="none" stroke="black" d="M380,-19C380,-19 570,-19 570,-19 576,-19 582,-25 582,-31 582,-31 582,-135 582,-135 582,-141 576,-147 570,-147 570,-147 380,-147 380,-147 374,-147 368,-141 368,-135 368,-135 368,-31 368,-31 368,-25 374,-19 380,-19"/>
</g>
<!-- A -->
<g id="node1" class="node"><title>A</title>
<ellipse fill="#ff8a8a" stroke="#b43f3f" cx="181" cy="-121" rx="29.4969" ry="18"/>
<text text-anchor="middle" x="181" y="-117.3" font-family="Times,serif" font-size="14.00">A (a)</text>
</g>
<!-- 091 -->
<g id="node2" class="node"><title>091</title>
<ellipse fill="#ff8a8a" stroke="#b43f3f" cx="52" cy="-34" rx="36.2938" ry="18"/>
<text text-anchor="middle" x="52" y="-30.3" font-family="Times,serif" font-size="14.00">091 (a)</text>
</g>
<!-- A&#45;&gt;091 -->
<g id="edge1" class="edge"><title>A&#45;&gt;091</title>
<path fill="none" stroke="#b43f3f" stroke-dasharray="1,5" d="M156.707,-110.664C141.777,-104.413 122.59,-95.434 107,-85 95.3222,-77.1844 83.6279,-66.9713 74.0439,-57.8143"/>
<polygon fill="#b43f3f" stroke="#b43f3f" points="76.442,-55.2639 66.8508,-50.763 71.5418,-60.2627 76.442,-55.2639"/>
<text text-anchor="middle" x="129" y="-73.8" font-family="Times,serif" font-size="14.00">1 (87.5)</text>
</g>
<!-- 019 -->
<g id="node3" class="node"><title>019</title>
<ellipse fill="#ff8a8a" stroke="#b43f3f" cx="143" cy="-34" rx="36.2938" ry="18"/>
<text text-anchor="middle" x="143" y="-30.3" font-family="Times,serif" font-size="14.00">019 (a)</text>
</g>
<!-- A&#45;&gt;019 -->
<g id="edge2" class="edge"><title>A&#45;&gt;019</title>
<path fill="none" stroke="#b43f3f" stroke-dasharray="1,5" d="M171.038,-103.928C167.626,-98.0851 163.932,-91.3545 161,-85 157.56,-77.5445 154.336,-69.2296 151.594,-61.5541"/>
<polygon fill="#b43f3f" stroke="#b43f3f" points="154.854,-60.2734 148.289,-51.9581 148.236,-62.5528 154.854,-60.2734"/>
<text text-anchor="middle" x="183" y="-73.8" font-family="Times,serif" font-size="14.00">1 (93.3)</text>
</g>
<!-- P75 -->
<g id="node4" class="node"><title>P75</title>
<ellipse fill="#ff8a8a" stroke="#b43f3f" cx="234" cy="-34" rx="36.2938" ry="18"/>
<text text-anchor="middle" x="234" y="-30.3" font-family="Times,serif" font-size="14.00">P75 (a)</text>
</g>
<!-- A&#45;&gt;P75 -->
<g id="edge3" class="edge"><title>A&#45;&gt;P75</title>
<path fill="none" stroke="#b43f3f" stroke-dasharray="1,5" d="M192.249,-104.139C196.362,-98.2008 200.987,-91.3539 205,-85 209.93,-77.1944 215.062,-68.5415 219.614,-60.6585"/>
<polygon fill="#b43f3f" stroke="#b43f3f" points="222.722,-62.274 224.644,-51.855 216.644,-58.801 222.722,-62.274"/>
<text text-anchor="middle" x="237" y="-73.8" font-family="Times,serif" font-size="14.00">1 (93.3)</text>
</g>
<!-- 03 -->
<g id="node5" class="node"><title>03</title>
<ellipse fill="#ff8a8a" stroke="#b43f3f" cx="320" cy="-34" rx="31.6951" ry="18"/>
<text text-anchor="middle" x="320" y="-30.3" font-family="Times,serif" font-size="14.00">03 (a)</text>
</g>
<!-- A&#45;&gt;03 -->
<g id="edge4" class="edge"><title>A&#45;&gt;03</title>
<path fill="none" stroke="#b43f3f" stroke-dasharray="1,5" d="M206.049,-111.665C222.831,-105.525 245.053,-96.2956 263,-85 275.307,-77.2542 287.606,-66.8829 297.613,-57.5943"/>
<polygon fill="#b43f3f" stroke="#b43f3f" points="300.284,-59.8835 305.103,-50.4481 295.452,-54.8189 300.284,-59.8835"/>
<text text-anchor="middle" x="306" y="-73.8" font-family="Times,serif" font-size="14.00">1 (93.3)</text>
</g>
<!-- leg_s -->
<g id="node6" class="node"><title>leg_s</title>
<text text-anchor="middle" x="475" y="-117.3" font-family="Times,serif" font-size="14.00">Textual flow strength</text>
</g>
<!-- leg_e1 -->
<!-- leg_s&#45;&gt;leg_e1 -->
<g id="edge5" class="edge"><title>leg_s&#45;&gt;leg_e1</title>
<path fill="none" stroke="black" stroke-dasharray="1,5" d="M456.666,-102.686C451.132,-97.1938 445.161,-90.9891 440,-85 430.171,-73.593 420.072,-59.7786 412.914,-49.5634"/>
<polygon fill="black" stroke="black" points="415.614,-47.3142 407.056,-41.0685 409.851,-51.2879 415.614,-47.3142"/>
<text text-anchor="middle" x="455.5" y="-73.8" font-family="Times,serif" font-size="14.00">&lt;=5 &#160;</text>
</g>
<!-- leg_e2 -->
<!-- leg_s&#45;&gt;leg_e2 -->
<g id="edge6" class="edge"><title>leg_s&#45;&gt;leg_e2</title>
<path fill="none" stroke="black" stroke-dasharray="5,2" d="M475,-102.799C475,-87.7942 475,-66.1745 475,-51.4086"/>
<polygon fill="black" stroke="black" points="478.5,-51.2934 475,-41.2934 471.5,-51.2934 478.5,-51.2934"/>
<text text-anchor="middle" x="494" y="-73.8" font-family="Times,serif" font-size="14.00"> &#160;&lt;=25</text>
</g>
<!-- leg_e3 -->
<!-- leg_s&#45;&gt;leg_e3 -->
<g id="edge7" class="edge"><title>leg_s&#45;&gt;leg_e3</title>
<path fill="none" stroke="black" d="M498.503,-102.76C504.906,-97.4621 511.567,-91.3439 517,-85 526.087,-74.3897 534.095,-60.6892 539.546,-50.3134"/>
<polygon fill="black" stroke="black" points="542.722,-51.7893 544.091,-41.2833 536.469,-48.6425 542.722,-51.7893"/>
<text text-anchor="middle" x="538" y="-73.8" font-family="Times,serif" font-size="14.00">&gt;25</text>
</g>
</g>
</svg>
