<?xml version="1.0" encoding="UTF-8" standalone="no"?>
<!DOCTYPE svg PUBLIC "-//W3C//DTD SVG 1.1//EN"
 "http://www.w3.org/Graphics/SVG/1.1/DTD/svg11.dtd">
<!-- Generated by graphviz version 2.38.0 (20140413.2041)
 -->
<!-- Title: %3 Pages: 1 -->
<svg width="1052pt" height="424pt"
 viewBox="0.00 0.00 1052.00 424.00" xmlns="http://www.w3.org/2000/svg" xmlns:xlink="http://www.w3.org/1999/xlink">
<g id="graph0" class="graph" transform="scale(1 1) rotate(0) translate(4 420)">
<title>%3</title>
<polygon fill="white" stroke="none" points="-4,4 -4,-420 1048,-420 1048,4 -4,4"/>
<g id="clust1" class="cluster"><title>cluster_legend</title>
<path fill="none" stroke="black" d="M20,-280C20,-280 210,-280 210,-280 216,-280 222,-286 222,-292 222,-292 222,-396 222,-396 222,-402 216,-408 210,-408 210,-408 20,-408 20,-408 14,-408 8,-402 8,-396 8,-396 8,-292 8,-292 8,-286 14,-280 20,-280"/>
</g>
<g id="clust2" class="cluster"><title>cluster_reading</title>
<polygon fill="none" stroke="black" points="230,-8 230,-408 1036,-408 1036,-8 230,-8"/>
</g>
<!-- leg_s -->
<g id="node1" class="node"><title>leg_s</title>
<text text-anchor="middle" x="115" y="-378.3" font-family="Times,serif" font-size="14.00">Textual flow strength</text>
</g>
<!-- leg_e1 -->
<!-- leg_s&#45;&gt;leg_e1 -->
<g id="edge1" class="edge"><title>leg_s&#45;&gt;leg_e1</title>
<path fill="none" stroke="black" stroke-dasharray="1,5" d="M96.6657,-363.686C91.1324,-358.194 85.1607,-351.989 80,-346 70.1708,-334.593 60.0722,-320.779 52.9137,-310.563"/>
<polygon fill="black" stroke="black" points="55.6142,-308.314 47.056,-302.068 49.8514,-312.288 55.6142,-308.314"/>
<text text-anchor="middle" x="95.5" y="-334.8" font-family="Times,serif" font-size="14.00">&lt;=5 &#160;</text>
</g>
<!-- leg_e2 -->
<!-- leg_s&#45;&gt;leg_e2 -->
<g id="edge2" class="edge"><title>leg_s&#45;&gt;leg_e2</title>
<path fill="none" stroke="black" stroke-dasharray="5,2" d="M115,-363.799C115,-348.794 115,-327.174 115,-312.409"/>
<polygon fill="black" stroke="black" points="118.5,-312.293 115,-302.293 111.5,-312.293 118.5,-312.293"/>
<text text-anchor="middle" x="134" y="-334.8" font-family="Times,serif" font-size="14.00"> &#160;&lt;=25</text>
</g>
<!-- leg_e3 -->
<!-- leg_s&#45;&gt;leg_e3 -->
<g id="edge3" class="edge"><title>leg_s&#45;&gt;leg_e3</title>
<path fill="none" stroke="black" d="M138.503,-363.76C144.906,-358.462 151.567,-352.344 157,-346 166.087,-335.39 174.095,-321.689 179.546,-311.313"/>
<polygon fill="black" stroke="black" points="182.722,-312.789 184.091,-302.283 176.469,-309.642 182.722,-312.789"/>
<text text-anchor="middle" x="179" y="-334.8" font-family="Times,serif" font-size="14.00">&gt;25</text>
</g>
<!-- 044 -->
<g id="node5" class="node"><title>044</title>
<ellipse fill="#ff8a8a" stroke="#b43f3f" cx="820" cy="-295" rx="36.2938" ry="18"/>
<text text-anchor="middle" x="820" y="-291.3" font-family="Times,serif" font-size="14.00">044 (a)</text>
</g>
<!-- 022 -->
<g id="node6" class="node"><title>022</title>
<ellipse fill="#ff8a8a" stroke="#b43f3f" cx="729" cy="-208" rx="36.2938" ry="18"/>
<text text-anchor="middle" x="729" y="-204.3" font-family="Times,serif" font-size="14.00">022 (a)</text>
</g>
<!-- 044&#45;&gt;022 -->
<g id="edge4" class="edge"><title>044&#45;&gt;022</title>
<path fill="none" stroke="#b43f3f" stroke-dasharray="1,5" d="M798.628,-280.006C790.008,-273.963 780.186,-266.554 772,-259 763.456,-251.115 754.924,-241.619 747.74,-233.029"/>
<polygon fill="#b43f3f" stroke="#b43f3f" points="750.344,-230.685 741.308,-225.155 744.923,-235.113 750.344,-230.685"/>
<text text-anchor="middle" x="794" y="-247.8" font-family="Times,serif" font-size="14.00">1 (91.7)</text>
</g>
<!-- 011 -->
<g id="node7" class="node"><title>011</title>
<ellipse fill="#ff8a8a" stroke="#b43f3f" cx="820" cy="-208" rx="36.2938" ry="18"/>
<text text-anchor="middle" x="820" y="-204.3" font-family="Times,serif" font-size="14.00">011 (a)</text>
</g>
<!-- 044&#45;&gt;011 -->
<g id="edge5" class="edge"><title>044&#45;&gt;011</title>
<path fill="none" stroke="#b43f3f" stroke-dasharray="1,5" d="M820,-276.799C820,-265.163 820,-249.548 820,-236.237"/>
<polygon fill="#b43f3f" stroke="#b43f3f" points="823.5,-236.175 820,-226.175 816.5,-236.175 823.5,-236.175"/>
<text text-anchor="middle" x="842" y="-247.8" font-family="Times,serif" font-size="14.00">2 (86.5)</text>
</g>
<!-- 0141 -->
<g id="node8" class="node"><title>0141</title>
<ellipse fill="#ff8a8a" stroke="#b43f3f" cx="915" cy="-208" rx="40.0939" ry="18"/>
<text text-anchor="middle" x="915" y="-204.3" font-family="Times,serif" font-size="14.00">0141 (a)</text>
</g>
<!-- 044&#45;&gt;0141 -->
<g id="edge6" class="edge"><title>044&#45;&gt;0141</title>
<path fill="none" stroke="#b43f3f" stroke-dasharray="1,5" d="M840.73,-280.159C849.436,-274.025 859.495,-266.508 868,-259 877.163,-250.911 886.531,-241.276 894.467,-232.632"/>
<polygon fill="#b43f3f" stroke="#b43f3f" points="897.21,-234.816 901.306,-225.045 892.01,-230.129 897.21,-234.816"/>
<text text-anchor="middle" x="905" y="-247.8" font-family="Times,serif" font-size="14.00">1 (89.2)</text>
</g>
<!-- 031 -->
<g id="node9" class="node"><title>031</title>
<ellipse fill="#ff8a8a" stroke="#b43f3f" cx="729" cy="-121" rx="36.2938" ry="18"/>
<text text-anchor="middle" x="729" y="-117.3" font-family="Times,serif" font-size="14.00">031 (a)</text>
</g>
<!-- 022&#45;&gt;031 -->
<g id="edge7" class="edge"><title>022&#45;&gt;031</title>
<path fill="none" stroke="#b43f3f" stroke-dasharray="1,5" d="M729,-189.799C729,-178.163 729,-162.548 729,-149.237"/>
<polygon fill="#b43f3f" stroke="#b43f3f" points="732.5,-149.175 729,-139.175 725.5,-149.175 732.5,-149.175"/>
<text text-anchor="middle" x="751" y="-160.8" font-family="Times,serif" font-size="14.00">2 (86.7)</text>
</g>
<!-- 013 -->
<g id="node10" class="node"><title>013</title>
<ellipse fill="#ff8a8a" stroke="#b43f3f" cx="695" cy="-34" rx="36.2938" ry="18"/>
<text text-anchor="middle" x="695" y="-30.3" font-family="Times,serif" font-size="14.00">013 (a)</text>
</g>
<!-- 031&#45;&gt;013 -->
<g id="edge8" class="edge"><title>031&#45;&gt;013</title>
<path fill="none" stroke="#b43f3f" stroke-dasharray="1,5" d="M717.948,-103.778C714.395,-98.0332 710.688,-91.4033 708,-85 704.945,-77.7222 702.455,-69.5397 700.501,-61.9344"/>
<polygon fill="#b43f3f" stroke="#b43f3f" points="703.874,-60.9875 698.168,-52.0606 697.061,-62.5975 703.874,-60.9875"/>
<text text-anchor="middle" x="730" y="-73.8" font-family="Times,serif" font-size="14.00">1 (97.1)</text>
</g>
<!-- 017 -->
<g id="node11" class="node"><title>017</title>
<ellipse fill="#ff8a8a" stroke="#b43f3f" cx="786" cy="-34" rx="36.2938" ry="18"/>
<text text-anchor="middle" x="786" y="-30.3" font-family="Times,serif" font-size="14.00">017 (a)</text>
</g>
<!-- 031&#45;&gt;017 -->
<g id="edge9" class="edge"><title>031&#45;&gt;017</title>
<path fill="none" stroke="#b43f3f" stroke-dasharray="1,5" d="M739.99,-103.611C748.349,-91.1466 759.988,-73.7897 769.468,-59.6524"/>
<polygon fill="#b43f3f" stroke="#b43f3f" points="772.381,-61.5933 775.044,-51.3385 766.567,-57.6946 772.381,-61.5933"/>
<text text-anchor="middle" x="783" y="-73.8" font-family="Times,serif" font-size="14.00">1 (94.3)</text>
</g>
<!-- 03 -->
<g id="node12" class="node"><title>03</title>
<ellipse fill="#ff8a8a" stroke="#b43f3f" cx="906" cy="-382" rx="31.6951" ry="18"/>
<text text-anchor="middle" x="906" y="-378.3" font-family="Times,serif" font-size="14.00">03 (a)</text>
</g>
<!-- 03&#45;&gt;044 -->
<g id="edge10" class="edge"><title>03&#45;&gt;044</title>
<path fill="none" stroke="#b43f3f" stroke-dasharray="1,5" d="M885.353,-367.912C876.467,-361.796 866.248,-354.086 858,-346 850.175,-338.329 842.638,-328.975 836.368,-320.442"/>
<polygon fill="#b43f3f" stroke="#b43f3f" points="839.206,-318.394 830.557,-312.275 833.503,-322.452 839.206,-318.394"/>
<text text-anchor="middle" x="880" y="-334.8" font-family="Times,serif" font-size="14.00">1 (89.2)</text>
</g>
<!-- 02 -->
<g id="node13" class="node"><title>02</title>
<ellipse fill="#ff8a8a" stroke="#b43f3f" cx="906" cy="-295" rx="31.6951" ry="18"/>
<text text-anchor="middle" x="906" y="-291.3" font-family="Times,serif" font-size="14.00">02 (a)</text>
</g>
<!-- 03&#45;&gt;02 -->
<g id="edge11" class="edge"><title>03&#45;&gt;02</title>
<path fill="none" stroke="#b43f3f" stroke-dasharray="1,5" d="M906,-363.799C906,-352.163 906,-336.548 906,-323.237"/>
<polygon fill="#b43f3f" stroke="#b43f3f" points="909.5,-323.175 906,-313.175 902.5,-323.175 909.5,-323.175"/>
<text text-anchor="middle" x="928" y="-334.8" font-family="Times,serif" font-size="14.00">1 (86.5)</text>
</g>
<!-- 032 -->
<g id="node14" class="node"><title>032</title>
<ellipse fill="#ff8a8a" stroke="#b43f3f" cx="992" cy="-295" rx="36.2938" ry="18"/>
<text text-anchor="middle" x="992" y="-291.3" font-family="Times,serif" font-size="14.00">032 (a)</text>
</g>
<!-- 03&#45;&gt;032 -->
<g id="edge12" class="edge"><title>03&#45;&gt;032</title>
<path fill="none" stroke="#b43f3f" stroke-dasharray="1,5" d="M926.647,-367.912C935.533,-361.796 945.752,-354.086 954,-346 961.825,-338.329 969.362,-328.975 975.632,-320.442"/>
<polygon fill="#b43f3f" stroke="#b43f3f" points="978.497,-322.452 981.443,-312.275 972.794,-318.394 978.497,-322.452"/>
<text text-anchor="middle" x="988" y="-334.8" font-family="Times,serif" font-size="14.00">1 (91.7)</text>
</g>
<!-- 07 -->
<g id="node15" class="node"><title>07</title>
<ellipse fill="#ff8a8a" stroke="#b43f3f" cx="732" cy="-382" rx="31.6951" ry="18"/>
<text text-anchor="middle" x="732" y="-378.3" font-family="Times,serif" font-size="14.00">07 (a)</text>
</g>
<!-- 037 -->
<g id="node16" class="node"><title>037</title>
<ellipse fill="#ff8a8a" stroke="#b43f3f" cx="547" cy="-295" rx="36.2938" ry="18"/>
<text text-anchor="middle" x="547" y="-291.3" font-family="Times,serif" font-size="14.00">037 (a)</text>
</g>
<!-- 07&#45;&gt;037 -->
<g id="edge13" class="edge"><title>07&#45;&gt;037</title>
<path fill="none" stroke="#b43f3f" stroke-dasharray="1,5" d="M707.498,-370.179C702.116,-367.989 696.408,-365.807 691,-364 660.532,-353.823 650.293,-359.185 621,-346 604.183,-338.43 587.018,-327.101 573.459,-317.139"/>
<polygon fill="#b43f3f" stroke="#b43f3f" points="575.201,-314.07 565.109,-310.844 570.987,-319.659 575.201,-314.07"/>
<text text-anchor="middle" x="643" y="-334.8" font-family="Times,serif" font-size="14.00">1 (97.5)</text>
</g>
<!-- 034 -->
<g id="node17" class="node"><title>034</title>
<ellipse fill="#ff8a8a" stroke="#b43f3f" cx="638" cy="-295" rx="36.2938" ry="18"/>
<text text-anchor="middle" x="638" y="-291.3" font-family="Times,serif" font-size="14.00">034 (a)</text>
</g>
<!-- 07&#45;&gt;034 -->
<g id="edge14" class="edge"><title>07&#45;&gt;034</title>
<path fill="none" stroke="#b43f3f" stroke-dasharray="1,5" d="M711.7,-367.969C702.577,-361.749 691.888,-353.94 683,-346 674.065,-338.018 665.064,-328.403 657.485,-319.747"/>
<polygon fill="#b43f3f" stroke="#b43f3f" points="660.132,-317.456 650.968,-312.14 654.816,-322.011 660.132,-317.456"/>
<text text-anchor="middle" x="705" y="-334.8" font-family="Times,serif" font-size="14.00">1 (95.1)</text>
</g>
<!-- 030 -->
<g id="node18" class="node"><title>030</title>
<ellipse fill="#ff8a8a" stroke="#b43f3f" cx="729" cy="-295" rx="36.2938" ry="18"/>
<text text-anchor="middle" x="729" y="-291.3" font-family="Times,serif" font-size="14.00">030 (a)</text>
</g>
<!-- 07&#45;&gt;030 -->
<g id="edge15" class="edge"><title>07&#45;&gt;030</title>
<path fill="none" stroke="#b43f3f" stroke-dasharray="1,5" d="M731.393,-363.799C730.982,-352.163 730.431,-336.548 729.961,-323.237"/>
<polygon fill="#b43f3f" stroke="#b43f3f" points="733.457,-323.046 729.606,-313.175 726.461,-323.293 733.457,-323.046"/>
<text text-anchor="middle" x="753" y="-334.8" font-family="Times,serif" font-size="14.00">1 (95.1)</text>
</g>
<!-- 045 -->
<g id="node19" class="node"><title>045</title>
<ellipse fill="#ff8a8a" stroke="#b43f3f" cx="646" cy="-382" rx="36.2938" ry="18"/>
<text text-anchor="middle" x="646" y="-378.3" font-family="Times,serif" font-size="14.00">045 (a)</text>
</g>
<!-- 038 -->
<g id="node20" class="node"><title>038</title>
<ellipse fill="#ff8a8a" stroke="#b43f3f" cx="456" cy="-295" rx="36.2938" ry="18"/>
<text text-anchor="middle" x="456" y="-291.3" font-family="Times,serif" font-size="14.00">038 (a)</text>
</g>
<!-- 045&#45;&gt;038 -->
<g id="edge16" class="edge"><title>045&#45;&gt;038</title>
<path fill="none" stroke="#b43f3f" stroke-dasharray="1,5" d="M617.814,-370.478C611.936,-368.313 605.772,-366.065 600,-364 576.973,-355.761 570.375,-355.873 548,-346 527.039,-336.751 504.419,-324.491 486.853,-314.425"/>
<polygon fill="#b43f3f" stroke="#b43f3f" points="488.571,-311.375 478.164,-309.389 485.061,-317.432 488.571,-311.375"/>
<text text-anchor="middle" x="570" y="-334.8" font-family="Times,serif" font-size="14.00">1 (92.7)</text>
</g>
<!-- 021 -->
<g id="node21" class="node"><title>021</title>
<ellipse fill="#ff8a8a" stroke="#b43f3f" cx="555" cy="-382" rx="36.2938" ry="18"/>
<text text-anchor="middle" x="555" y="-378.3" font-family="Times,serif" font-size="14.00">021 (a)</text>
</g>
<!-- 036 -->
<g id="node22" class="node"><title>036</title>
<ellipse fill="#ff8a8a" stroke="#b43f3f" cx="274" cy="-295" rx="36.2938" ry="18"/>
<text text-anchor="middle" x="274" y="-291.3" font-family="Times,serif" font-size="14.00">036 (a)</text>
</g>
<!-- 021&#45;&gt;036 -->
<g id="edge17" class="edge"><title>021&#45;&gt;036</title>
<path fill="none" stroke="#b43f3f" stroke-dasharray="1,5" d="M527.557,-369.834C521.516,-367.666 515.099,-365.579 509,-364 458.067,-350.814 442.61,-360.374 392,-346 362.655,-337.666 330.895,-323.916 307.724,-312.943"/>
<polygon fill="#b43f3f" stroke="#b43f3f" points="309.194,-309.766 298.665,-308.587 306.161,-316.075 309.194,-309.766"/>
<text text-anchor="middle" x="414" y="-334.8" font-family="Times,serif" font-size="14.00">1 (97.6)</text>
</g>
<!-- 047 -->
<g id="node23" class="node"><title>047</title>
<ellipse fill="#ff8a8a" stroke="#b43f3f" cx="365" cy="-295" rx="36.2938" ry="18"/>
<text text-anchor="middle" x="365" y="-291.3" font-family="Times,serif" font-size="14.00">047 (a)</text>
</g>
<!-- 021&#45;&gt;047 -->
<g id="edge18" class="edge"><title>021&#45;&gt;047</title>
<path fill="none" stroke="#b43f3f" stroke-dasharray="1,5" d="M527.975,-369.909C511.692,-363.151 490.579,-354.255 472,-346 447.626,-335.171 420.396,-322.437 399.505,-312.531"/>
<polygon fill="#b43f3f" stroke="#b43f3f" points="400.92,-309.328 390.386,-308.195 397.914,-315.65 400.92,-309.328"/>
<text text-anchor="middle" x="494" y="-334.8" font-family="Times,serif" font-size="14.00">1 (95.1)</text>
</g>
<!-- P75 -->
<g id="node24" class="node"><title>P75</title>
<ellipse fill="#ff8a8a" stroke="#b43f3f" cx="464" cy="-382" rx="36.2938" ry="18"/>
<text text-anchor="middle" x="464" y="-378.3" font-family="Times,serif" font-size="14.00">P75 (a)</text>
</g>
<!-- 019 -->
<g id="node25" class="node"><title>019</title>
<ellipse fill="#ff8a8a" stroke="#b43f3f" cx="373" cy="-382" rx="36.2938" ry="18"/>
<text text-anchor="middle" x="373" y="-378.3" font-family="Times,serif" font-size="14.00">019 (a)</text>
</g>
<!-- 0211 -->
<g id="node26" class="node"><title>0211</title>
<ellipse fill="#ff8a8a" stroke="#b43f3f" cx="278" cy="-382" rx="40.0939" ry="18"/>
<text text-anchor="middle" x="278" y="-378.3" font-family="Times,serif" font-size="14.00">0211 (a)</text>
</g>
</g>
</svg>
