<?xml version="1.0" encoding="UTF-8" standalone="no"?>
<!DOCTYPE svg PUBLIC "-//W3C//DTD SVG 1.1//EN"
 "http://www.w3.org/Graphics/SVG/1.1/DTD/svg11.dtd">
<!-- Generated by graphviz version 2.38.0 (20140413.2041)
 -->
<!-- Title: %3 Pages: 1 -->
<svg width="416pt" height="141pt"
 viewBox="0.00 0.00 416.00 141.00" xmlns="http://www.w3.org/2000/svg" xmlns:xlink="http://www.w3.org/1999/xlink">
<g id="graph0" class="graph" transform="scale(1 1) rotate(0) translate(4 137)">
<title>%3</title>
<polygon fill="white" stroke="none" points="-4,4 -4,-137 412,-137 412,4 -4,4"/>
<g id="clust1" class="cluster"><title>cluster_reading</title>
<polygon fill="none" stroke="black" points="8,-73 8,-125 178,-125 178,-73 8,-73"/>
</g>
<g id="clust2" class="cluster"><title>cluster_legend</title>
<path fill="none" stroke="black" d="M198,-8C198,-8 388,-8 388,-8 394,-8 400,-14 400,-20 400,-20 400,-113 400,-113 400,-119 394,-125 388,-125 388,-125 198,-125 198,-125 192,-125 186,-119 186,-113 186,-113 186,-20 186,-20 186,-14 192,-8 198,-8"/>
</g>
<!-- 01 -->
<g id="node1" class="node"><title>01</title>
<ellipse fill="#72fe95" stroke="#27b34a" cx="138" cy="-99" rx="31.6951" ry="18"/>
<text text-anchor="middle" x="138" y="-95.3" font-family="Times,serif" font-size="14.00">01 (c)</text>
</g>
<!-- 028 -->
<g id="node2" class="node"><title>028</title>
<ellipse fill="#72fe95" stroke="#27b34a" cx="52" cy="-99" rx="36.2938" ry="18"/>
<text text-anchor="middle" x="52" y="-95.3" font-family="Times,serif" font-size="14.00">028 (c)</text>
</g>
<!-- leg_s -->
<g id="node3" class="node"><title>leg_s</title>
<text text-anchor="middle" x="293" y="-95.3" font-family="Times,serif" font-size="14.00">Textual flow strength</text>
</g>
<!-- leg_e1 -->
<!-- leg_s&#45;&gt;leg_e1 -->
<g id="edge1" class="edge"><title>leg_s&#45;&gt;leg_e1</title>
<path fill="none" stroke="black" stroke-dasharray="1,5" d="M275.82,-80.9995C270.117,-75.3088 263.756,-68.9096 258,-63 249.856,-54.6386 240.839,-45.1391 233.745,-37.609"/>
<polygon fill="black" stroke="black" points="235.866,-34.7543 226.469,-29.8601 230.763,-39.5459 235.866,-34.7543"/>
<text text-anchor="middle" x="273.5" y="-51.8" font-family="Times,serif" font-size="14.00">&lt;=5 &#160;</text>
</g>
<!-- leg_e2 -->
<!-- leg_s&#45;&gt;leg_e2 -->
<g id="edge2" class="edge"><title>leg_s&#45;&gt;leg_e2</title>
<path fill="none" stroke="black" stroke-dasharray="5,2" d="M293,-80.8369C293,-68.6686 293,-52.4362 293,-40.4345"/>
<polygon fill="black" stroke="black" points="296.5,-40.1502 293,-30.1503 289.5,-40.1503 296.5,-40.1502"/>
<text text-anchor="middle" x="312" y="-51.8" font-family="Times,serif" font-size="14.00"> &#160;&lt;=25</text>
</g>
<!-- leg_e3 -->
<!-- leg_s&#45;&gt;leg_e3 -->
<g id="edge3" class="edge"><title>leg_s&#45;&gt;leg_e3</title>
<path fill="none" stroke="black" d="M315.608,-80.7027C322.13,-75.311 329.079,-69.1572 335,-63 342.325,-55.3835 349.576,-46.0214 355.114,-38.3792"/>
<polygon fill="black" stroke="black" points="358.017,-40.3356 360.909,-30.1433 352.292,-36.3072 358.017,-40.3356"/>
<text text-anchor="middle" x="358" y="-51.8" font-family="Times,serif" font-size="14.00">&gt;25</text>
</g>
</g>
</svg>
