<?xml version="1.0" encoding="UTF-8" standalone="no"?>
<!DOCTYPE svg PUBLIC "-//W3C//DTD SVG 1.1//EN"
 "http://www.w3.org/Graphics/SVG/1.1/DTD/svg11.dtd">
<!-- Generated by graphviz version 2.38.0 (20140413.2041)
 -->
<!-- Title: %3 Pages: 1 -->
<svg width="971pt" height="337pt"
 viewBox="0.00 0.00 971.00 337.00" xmlns="http://www.w3.org/2000/svg" xmlns:xlink="http://www.w3.org/1999/xlink">
<g id="graph0" class="graph" transform="scale(1 1) rotate(0) translate(4 333)">
<title>%3</title>
<polygon fill="white" stroke="none" points="-4,4 -4,-333 967,-333 967,4 -4,4"/>
<g id="clust1" class="cluster"><title>cluster_legend</title>
<path fill="none" stroke="black" d="M20,-193C20,-193 210,-193 210,-193 216,-193 222,-199 222,-205 222,-205 222,-309 222,-309 222,-315 216,-321 210,-321 210,-321 20,-321 20,-321 14,-321 8,-315 8,-309 8,-309 8,-205 8,-205 8,-199 14,-193 20,-193"/>
</g>
<g id="clust2" class="cluster"><title>cluster_reading</title>
<polygon fill="none" stroke="black" points="230,-8 230,-321 955,-321 955,-8 230,-8"/>
</g>
<!-- leg_s -->
<g id="node1" class="node"><title>leg_s</title>
<text text-anchor="middle" x="115" y="-291.3" font-family="Times,serif" font-size="14.00">Textual flow strength</text>
</g>
<!-- leg_e1 -->
<!-- leg_s&#45;&gt;leg_e1 -->
<g id="edge1" class="edge"><title>leg_s&#45;&gt;leg_e1</title>
<path fill="none" stroke="black" stroke-dasharray="1,5" d="M96.6657,-276.686C91.1324,-271.194 85.1607,-264.989 80,-259 70.1708,-247.593 60.0722,-233.779 52.9137,-223.563"/>
<polygon fill="black" stroke="black" points="55.6142,-221.314 47.056,-215.068 49.8514,-225.288 55.6142,-221.314"/>
<text text-anchor="middle" x="95.5" y="-247.8" font-family="Times,serif" font-size="14.00">&lt;=5 &#160;</text>
</g>
<!-- leg_e2 -->
<!-- leg_s&#45;&gt;leg_e2 -->
<g id="edge2" class="edge"><title>leg_s&#45;&gt;leg_e2</title>
<path fill="none" stroke="black" stroke-dasharray="5,2" d="M115,-276.799C115,-261.794 115,-240.174 115,-225.409"/>
<polygon fill="black" stroke="black" points="118.5,-225.293 115,-215.293 111.5,-225.293 118.5,-225.293"/>
<text text-anchor="middle" x="134" y="-247.8" font-family="Times,serif" font-size="14.00"> &#160;&lt;=25</text>
</g>
<!-- leg_e3 -->
<!-- leg_s&#45;&gt;leg_e3 -->
<g id="edge3" class="edge"><title>leg_s&#45;&gt;leg_e3</title>
<path fill="none" stroke="black" d="M138.503,-276.76C144.906,-271.462 151.567,-265.344 157,-259 166.087,-248.39 174.095,-234.689 179.546,-224.313"/>
<polygon fill="black" stroke="black" points="182.722,-225.789 184.091,-215.283 176.469,-222.642 182.722,-225.789"/>
<text text-anchor="middle" x="179" y="-247.8" font-family="Times,serif" font-size="14.00">&gt;25</text>
</g>
<!-- 03 -->
<g id="node5" class="node"><title>03</title>
<ellipse fill="#ff8a8a" stroke="#b43f3f" cx="816" cy="-295" rx="31.6951" ry="18"/>
<text text-anchor="middle" x="816" y="-291.3" font-family="Times,serif" font-size="14.00">03 (a)</text>
</g>
<!-- 022 -->
<g id="node6" class="node"><title>022</title>
<ellipse fill="#ff8a8a" stroke="#b43f3f" cx="730" cy="-208" rx="36.2938" ry="18"/>
<text text-anchor="middle" x="730" y="-204.3" font-family="Times,serif" font-size="14.00">022 (a)</text>
</g>
<!-- 03&#45;&gt;022 -->
<g id="edge4" class="edge"><title>03&#45;&gt;022</title>
<path fill="none" stroke="#b43f3f" stroke-dasharray="1,5" d="M795.353,-280.912C786.467,-274.796 776.248,-267.086 768,-259 760.175,-251.329 752.638,-241.975 746.368,-233.442"/>
<polygon fill="#b43f3f" stroke="#b43f3f" points="749.206,-231.394 740.557,-225.275 743.503,-235.452 749.206,-231.394"/>
<text text-anchor="middle" x="790" y="-247.8" font-family="Times,serif" font-size="14.00">1 (91.7)</text>
</g>
<!-- 02 -->
<g id="node7" class="node"><title>02</title>
<ellipse fill="#ff8a8a" stroke="#b43f3f" cx="816" cy="-208" rx="31.6951" ry="18"/>
<text text-anchor="middle" x="816" y="-204.3" font-family="Times,serif" font-size="14.00">02 (a)</text>
</g>
<!-- 03&#45;&gt;02 -->
<g id="edge5" class="edge"><title>03&#45;&gt;02</title>
<path fill="none" stroke="#b43f3f" stroke-dasharray="1,5" d="M816,-276.799C816,-265.163 816,-249.548 816,-236.237"/>
<polygon fill="#b43f3f" stroke="#b43f3f" points="819.5,-236.175 816,-226.175 812.5,-236.175 819.5,-236.175"/>
<text text-anchor="middle" x="838" y="-247.8" font-family="Times,serif" font-size="14.00">1 (86.5)</text>
</g>
<!-- 0141 -->
<g id="node8" class="node"><title>0141</title>
<ellipse fill="#ff8a8a" stroke="#b43f3f" cx="906" cy="-208" rx="40.0939" ry="18"/>
<text text-anchor="middle" x="906" y="-204.3" font-family="Times,serif" font-size="14.00">0141 (a)</text>
</g>
<!-- 03&#45;&gt;0141 -->
<g id="edge6" class="edge"><title>03&#45;&gt;0141</title>
<path fill="none" stroke="#b43f3f" stroke-dasharray="1,5" d="M836.462,-280.718C845.314,-274.567 855.557,-266.883 864,-259 872.204,-251.341 880.343,-242.128 887.242,-233.709"/>
<polygon fill="#b43f3f" stroke="#b43f3f" points="890.179,-235.639 893.683,-225.641 884.709,-231.272 890.179,-235.639"/>
<text text-anchor="middle" x="899" y="-247.8" font-family="Times,serif" font-size="14.00">2 (86.5)</text>
</g>
<!-- 031 -->
<g id="node9" class="node"><title>031</title>
<ellipse fill="#ff8a8a" stroke="#b43f3f" cx="365" cy="-121" rx="36.2938" ry="18"/>
<text text-anchor="middle" x="365" y="-117.3" font-family="Times,serif" font-size="14.00">031 (a)</text>
</g>
<!-- 013 -->
<g id="node10" class="node"><title>013</title>
<ellipse fill="#ff8a8a" stroke="#b43f3f" cx="274" cy="-34" rx="36.2938" ry="18"/>
<text text-anchor="middle" x="274" y="-30.3" font-family="Times,serif" font-size="14.00">013 (a)</text>
</g>
<!-- 031&#45;&gt;013 -->
<g id="edge7" class="edge"><title>031&#45;&gt;013</title>
<path fill="none" stroke="#b43f3f" stroke-dasharray="1,5" d="M343.628,-106.006C335.008,-99.9634 325.186,-92.5539 317,-85 308.456,-77.1154 299.924,-67.6186 292.74,-59.0293"/>
<polygon fill="#b43f3f" stroke="#b43f3f" points="295.344,-56.6853 286.308,-51.1545 289.923,-61.1135 295.344,-56.6853"/>
<text text-anchor="middle" x="339" y="-73.8" font-family="Times,serif" font-size="14.00">1 (97.1)</text>
</g>
<!-- 017 -->
<g id="node11" class="node"><title>017</title>
<ellipse fill="#ff8a8a" stroke="#b43f3f" cx="365" cy="-34" rx="36.2938" ry="18"/>
<text text-anchor="middle" x="365" y="-30.3" font-family="Times,serif" font-size="14.00">017 (a)</text>
</g>
<!-- 031&#45;&gt;017 -->
<g id="edge8" class="edge"><title>031&#45;&gt;017</title>
<path fill="none" stroke="#b43f3f" stroke-dasharray="1,5" d="M365,-102.799C365,-91.1626 365,-75.5479 365,-62.2368"/>
<polygon fill="#b43f3f" stroke="#b43f3f" points="368.5,-62.1754 365,-52.1754 361.5,-62.1755 368.5,-62.1754"/>
<text text-anchor="middle" x="387" y="-73.8" font-family="Times,serif" font-size="14.00">1 (94.3)</text>
</g>
<!-- 063 -->
<g id="node12" class="node"><title>063</title>
<ellipse fill="#ff8a8a" stroke="#b43f3f" cx="638" cy="-208" rx="36.2938" ry="18"/>
<text text-anchor="middle" x="638" y="-204.3" font-family="Times,serif" font-size="14.00">063 (a)</text>
</g>
<!-- 063&#45;&gt;031 -->
<g id="edge9" class="edge"><title>063&#45;&gt;031</title>
<path fill="none" stroke="#b43f3f" stroke-dasharray="1,5" d="M608.003,-197.66C558.583,-182.273 460.035,-151.59 404.829,-134.401"/>
<polygon fill="#b43f3f" stroke="#b43f3f" points="405.635,-130.986 395.046,-131.355 403.554,-137.67 405.635,-130.986"/>
<text text-anchor="middle" x="540" y="-160.8" font-family="Times,serif" font-size="14.00">1 (95.8)</text>
</g>
<!-- 011 -->
<g id="node13" class="node"><title>011</title>
<ellipse fill="#ff8a8a" stroke="#b43f3f" cx="552" cy="-121" rx="36.2938" ry="18"/>
<text text-anchor="middle" x="552" y="-117.3" font-family="Times,serif" font-size="14.00">011 (a)</text>
</g>
<!-- 063&#45;&gt;011 -->
<g id="edge10" class="edge"><title>063&#45;&gt;011</title>
<path fill="none" stroke="#b43f3f" stroke-dasharray="1,5" d="M616.396,-193.25C607.74,-187.245 597.954,-179.798 590,-172 582.175,-164.329 574.638,-154.975 568.368,-146.442"/>
<polygon fill="#b43f3f" stroke="#b43f3f" points="571.206,-144.394 562.557,-138.275 565.503,-148.452 571.206,-144.394"/>
<text text-anchor="middle" x="612" y="-160.8" font-family="Times,serif" font-size="14.00">1 (93.1)</text>
</g>
<!-- 07 -->
<g id="node14" class="node"><title>07</title>
<ellipse fill="#ff8a8a" stroke="#b43f3f" cx="638" cy="-121" rx="31.6951" ry="18"/>
<text text-anchor="middle" x="638" y="-117.3" font-family="Times,serif" font-size="14.00">07 (a)</text>
</g>
<!-- 063&#45;&gt;07 -->
<g id="edge11" class="edge"><title>063&#45;&gt;07</title>
<path fill="none" stroke="#b43f3f" stroke-dasharray="1,5" d="M638,-189.799C638,-178.163 638,-162.548 638,-149.237"/>
<polygon fill="#b43f3f" stroke="#b43f3f" points="641.5,-149.175 638,-139.175 634.5,-149.175 641.5,-149.175"/>
<text text-anchor="middle" x="660" y="-160.8" font-family="Times,serif" font-size="14.00">1 (96.6)</text>
</g>
<!-- 045 -->
<g id="node15" class="node"><title>045</title>
<ellipse fill="#ff8a8a" stroke="#b43f3f" cx="726" cy="-121" rx="36.2938" ry="18"/>
<text text-anchor="middle" x="726" y="-117.3" font-family="Times,serif" font-size="14.00">045 (a)</text>
</g>
<!-- 063&#45;&gt;045 -->
<g id="edge12" class="edge"><title>063&#45;&gt;045</title>
<path fill="none" stroke="#b43f3f" stroke-dasharray="1,5" d="M659.507,-193.151C668.149,-187.13 677.95,-179.698 686,-172 694.074,-164.279 701.974,-154.914 708.591,-146.386"/>
<polygon fill="#b43f3f" stroke="#b43f3f" points="711.516,-148.321 714.74,-138.229 705.926,-144.107 711.516,-148.321"/>
<text text-anchor="middle" x="722" y="-160.8" font-family="Times,serif" font-size="14.00">1 (93.1)</text>
</g>
<!-- 021 -->
<g id="node16" class="node"><title>021</title>
<ellipse fill="#ff8a8a" stroke="#b43f3f" cx="818" cy="-121" rx="36.2938" ry="18"/>
<text text-anchor="middle" x="818" y="-117.3" font-family="Times,serif" font-size="14.00">021 (a)</text>
</g>
<!-- 063&#45;&gt;021 -->
<g id="edge13" class="edge"><title>063&#45;&gt;021</title>
<path fill="none" stroke="#b43f3f" stroke-dasharray="1,5" d="M666.225,-196.435C672.386,-194.229 678.89,-191.975 685,-190 712.708,-181.042 721.769,-184.647 748,-172 763.891,-164.338 780.021,-153.101 792.786,-143.22"/>
<polygon fill="#b43f3f" stroke="#b43f3f" points="794.997,-145.933 800.652,-136.974 790.644,-140.451 794.997,-145.933"/>
<text text-anchor="middle" x="794" y="-160.8" font-family="Times,serif" font-size="14.00">1 (93.1)</text>
</g>
<!-- 028 -->
<g id="node17" class="node"><title>028</title>
<ellipse fill="#ff8a8a" stroke="#b43f3f" cx="909" cy="-121" rx="36.2938" ry="18"/>
<text text-anchor="middle" x="909" y="-117.3" font-family="Times,serif" font-size="14.00">028 (a)</text>
</g>
<!-- 063&#45;&gt;028 -->
<g id="edge14" class="edge"><title>063&#45;&gt;028</title>
<path fill="none" stroke="#b43f3f" stroke-dasharray="1,5" d="M665.532,-195.928C671.849,-193.701 678.594,-191.566 685,-190 743.799,-175.623 762.584,-191.168 820,-172 841.276,-164.897 863.268,-152.597 880.068,-141.974"/>
<polygon fill="#b43f3f" stroke="#b43f3f" points="882.346,-144.668 888.829,-136.288 878.536,-138.796 882.346,-144.668"/>
<text text-anchor="middle" x="875" y="-160.8" font-family="Times,serif" font-size="14.00">1 (96.6)</text>
</g>
<!-- 037 -->
<g id="node19" class="node"><title>037</title>
<ellipse fill="#ff8a8a" stroke="#b43f3f" cx="456" cy="-34" rx="36.2938" ry="18"/>
<text text-anchor="middle" x="456" y="-30.3" font-family="Times,serif" font-size="14.00">037 (a)</text>
</g>
<!-- 07&#45;&gt;037 -->
<g id="edge16" class="edge"><title>07&#45;&gt;037</title>
<path fill="none" stroke="#b43f3f" stroke-dasharray="1,5" d="M613.488,-109.209C608.107,-107.016 602.402,-104.826 597,-103 567.383,-92.9903 557.422,-98.0229 529,-85 512.389,-77.3888 495.455,-66.0563 482.083,-56.1037"/>
<polygon fill="#b43f3f" stroke="#b43f3f" points="483.922,-53.1039 473.85,-49.8157 479.673,-58.667 483.922,-53.1039"/>
<text text-anchor="middle" x="551" y="-73.8" font-family="Times,serif" font-size="14.00">1 (97.5)</text>
</g>
<!-- 034 -->
<g id="node20" class="node"><title>034</title>
<ellipse fill="#ff8a8a" stroke="#b43f3f" cx="547" cy="-34" rx="36.2938" ry="18"/>
<text text-anchor="middle" x="547" y="-30.3" font-family="Times,serif" font-size="14.00">034 (a)</text>
</g>
<!-- 07&#45;&gt;034 -->
<g id="edge17" class="edge"><title>07&#45;&gt;034</title>
<path fill="none" stroke="#b43f3f" stroke-dasharray="1,5" d="M617.581,-106.672C608.737,-100.512 598.489,-92.8337 590,-85 581.456,-77.1154 572.924,-67.6186 565.74,-59.0293"/>
<polygon fill="#b43f3f" stroke="#b43f3f" points="568.344,-56.6853 559.308,-51.1545 562.923,-61.1135 568.344,-56.6853"/>
<text text-anchor="middle" x="612" y="-73.8" font-family="Times,serif" font-size="14.00">1 (95.1)</text>
</g>
<!-- 030 -->
<g id="node21" class="node"><title>030</title>
<ellipse fill="#ff8a8a" stroke="#b43f3f" cx="638" cy="-34" rx="36.2938" ry="18"/>
<text text-anchor="middle" x="638" y="-30.3" font-family="Times,serif" font-size="14.00">030 (a)</text>
</g>
<!-- 07&#45;&gt;030 -->
<g id="edge18" class="edge"><title>07&#45;&gt;030</title>
<path fill="none" stroke="#b43f3f" stroke-dasharray="1,5" d="M638,-102.799C638,-91.1626 638,-75.5479 638,-62.2368"/>
<polygon fill="#b43f3f" stroke="#b43f3f" points="641.5,-62.1754 638,-52.1754 634.5,-62.1755 641.5,-62.1754"/>
<text text-anchor="middle" x="660" y="-73.8" font-family="Times,serif" font-size="14.00">1 (95.1)</text>
</g>
<!-- 038 -->
<g id="node22" class="node"><title>038</title>
<ellipse fill="#ff8a8a" stroke="#b43f3f" cx="729" cy="-34" rx="36.2938" ry="18"/>
<text text-anchor="middle" x="729" y="-30.3" font-family="Times,serif" font-size="14.00">038 (a)</text>
</g>
<!-- 045&#45;&gt;038 -->
<g id="edge19" class="edge"><title>045&#45;&gt;038</title>
<path fill="none" stroke="#b43f3f" stroke-dasharray="1,5" d="M726.607,-102.799C727.018,-91.1626 727.569,-75.5479 728.039,-62.2368"/>
<polygon fill="#b43f3f" stroke="#b43f3f" points="731.539,-62.2927 728.394,-52.1754 724.543,-62.0457 731.539,-62.2927"/>
<text text-anchor="middle" x="749" y="-73.8" font-family="Times,serif" font-size="14.00">1 (92.7)</text>
</g>
<!-- 036 -->
<g id="node23" class="node"><title>036</title>
<ellipse fill="#ff8a8a" stroke="#b43f3f" cx="820" cy="-34" rx="36.2938" ry="18"/>
<text text-anchor="middle" x="820" y="-30.3" font-family="Times,serif" font-size="14.00">036 (a)</text>
</g>
<!-- 021&#45;&gt;036 -->
<g id="edge20" class="edge"><title>021&#45;&gt;036</title>
<path fill="none" stroke="#b43f3f" stroke-dasharray="1,5" d="M818.405,-102.799C818.679,-91.1626 819.046,-75.5479 819.359,-62.2368"/>
<polygon fill="#b43f3f" stroke="#b43f3f" points="822.86,-62.255 819.596,-52.1754 815.862,-62.0903 822.86,-62.255"/>
<text text-anchor="middle" x="841" y="-73.8" font-family="Times,serif" font-size="14.00">1 (97.6)</text>
</g>
<!-- 047 -->
<g id="node24" class="node"><title>047</title>
<ellipse fill="#ff8a8a" stroke="#b43f3f" cx="911" cy="-34" rx="36.2938" ry="18"/>
<text text-anchor="middle" x="911" y="-30.3" font-family="Times,serif" font-size="14.00">047 (a)</text>
</g>
<!-- 021&#45;&gt;047 -->
<g id="edge21" class="edge"><title>021&#45;&gt;047</title>
<path fill="none" stroke="#b43f3f" stroke-dasharray="1,5" d="M839.308,-106.355C848.22,-100.255 858.467,-92.7089 867,-85 875.713,-77.1287 884.437,-67.6347 891.792,-59.0439"/>
<polygon fill="#b43f3f" stroke="#b43f3f" points="894.649,-61.083 898.379,-51.1665 889.279,-56.5924 894.649,-61.083"/>
<text text-anchor="middle" x="903" y="-73.8" font-family="Times,serif" font-size="14.00">1 (95.1)</text>
</g>
<!-- 019 -->
<g id="node18" class="node"><title>019</title>
<ellipse fill="#ff8a8a" stroke="#b43f3f" cx="638" cy="-295" rx="36.2938" ry="18"/>
<text text-anchor="middle" x="638" y="-291.3" font-family="Times,serif" font-size="14.00">019 (a)</text>
</g>
<!-- 019&#45;&gt;063 -->
<g id="edge15" class="edge"><title>019&#45;&gt;063</title>
<path fill="none" stroke="#b43f3f" stroke-dasharray="1,5" d="M638,-276.799C638,-265.163 638,-249.548 638,-236.237"/>
<polygon fill="#b43f3f" stroke="#b43f3f" points="641.5,-236.175 638,-226.175 634.5,-236.175 641.5,-236.175"/>
<text text-anchor="middle" x="660" y="-247.8" font-family="Times,serif" font-size="14.00">1 (85.7)</text>
</g>
<!-- 01 -->
<g id="node25" class="node"><title>01</title>
<ellipse fill="#ff8a8a" stroke="#b43f3f" cx="540" cy="-295" rx="31.6951" ry="18"/>
<text text-anchor="middle" x="540" y="-291.3" font-family="Times,serif" font-size="14.00">01 (a)</text>
</g>
<!-- P75 -->
<g id="node26" class="node"><title>P75</title>
<ellipse fill="#ff8a8a" stroke="#b43f3f" cx="431" cy="-295" rx="36.2938" ry="18"/>
<text text-anchor="middle" x="431" y="-291.3" font-family="Times,serif" font-size="14.00">P75 (a)</text>
</g>
<!-- 0211 -->
<g id="node27" class="node"><title>0211</title>
<ellipse fill="#ff8a8a" stroke="#b43f3f" cx="290" cy="-295" rx="40.0939" ry="18"/>
<text text-anchor="middle" x="290" y="-291.3" font-family="Times,serif" font-size="14.00">0211 (a)</text>
</g>
</g>
</svg>
