<?xml version="1.0" encoding="UTF-8" standalone="no"?>
<!DOCTYPE svg PUBLIC "-//W3C//DTD SVG 1.1//EN"
 "http://www.w3.org/Graphics/SVG/1.1/DTD/svg11.dtd">
<!-- Generated by graphviz version 2.38.0 (20140413.2041)
 -->
<!-- Title: %3 Pages: 1 -->
<svg width="592pt" height="250pt"
 viewBox="0.00 0.00 592.00 250.00" xmlns="http://www.w3.org/2000/svg" xmlns:xlink="http://www.w3.org/1999/xlink">
<g id="graph0" class="graph" transform="scale(1 1) rotate(0) translate(4 246)">
<title>%3</title>
<polygon fill="white" stroke="none" points="-4,4 -4,-246 588,-246 588,4 -4,4"/>
<g id="clust1" class="cluster"><title>cluster_legend</title>
<path fill="none" stroke="black" d="M20,-106C20,-106 210,-106 210,-106 216,-106 222,-112 222,-118 222,-118 222,-222 222,-222 222,-228 216,-234 210,-234 210,-234 20,-234 20,-234 14,-234 8,-228 8,-222 8,-222 8,-118 8,-118 8,-112 14,-106 20,-106"/>
</g>
<g id="clust2" class="cluster"><title>cluster_reading</title>
<polygon fill="none" stroke="black" points="230,-8 230,-234 576,-234 576,-8 230,-8"/>
</g>
<!-- leg_s -->
<g id="node1" class="node"><title>leg_s</title>
<text text-anchor="middle" x="115" y="-204.3" font-family="Times,serif" font-size="14.00">Textual flow strength</text>
</g>
<!-- leg_e1 -->
<!-- leg_s&#45;&gt;leg_e1 -->
<g id="edge1" class="edge"><title>leg_s&#45;&gt;leg_e1</title>
<path fill="none" stroke="black" stroke-dasharray="1,5" d="M96.6657,-189.686C91.1324,-184.194 85.1607,-177.989 80,-172 70.1708,-160.593 60.0722,-146.779 52.9137,-136.563"/>
<polygon fill="black" stroke="black" points="55.6142,-134.314 47.056,-128.068 49.8514,-138.288 55.6142,-134.314"/>
<text text-anchor="middle" x="95.5" y="-160.8" font-family="Times,serif" font-size="14.00">&lt;=5 &#160;</text>
</g>
<!-- leg_e2 -->
<!-- leg_s&#45;&gt;leg_e2 -->
<g id="edge2" class="edge"><title>leg_s&#45;&gt;leg_e2</title>
<path fill="none" stroke="black" stroke-dasharray="5,2" d="M115,-189.799C115,-174.794 115,-153.174 115,-138.409"/>
<polygon fill="black" stroke="black" points="118.5,-138.293 115,-128.293 111.5,-138.293 118.5,-138.293"/>
<text text-anchor="middle" x="134" y="-160.8" font-family="Times,serif" font-size="14.00"> &#160;&lt;=25</text>
</g>
<!-- leg_e3 -->
<!-- leg_s&#45;&gt;leg_e3 -->
<g id="edge3" class="edge"><title>leg_s&#45;&gt;leg_e3</title>
<path fill="none" stroke="black" d="M138.503,-189.76C144.906,-184.462 151.567,-178.344 157,-172 166.087,-161.39 174.095,-147.689 179.546,-137.313"/>
<polygon fill="black" stroke="black" points="182.722,-138.789 184.091,-128.283 176.469,-135.642 182.722,-138.789"/>
<text text-anchor="middle" x="179" y="-160.8" font-family="Times,serif" font-size="14.00">&gt;25</text>
</g>
<!-- 044 -->
<g id="node5" class="node"><title>044</title>
<ellipse fill="#cea8f4" stroke="#835da9" cx="437" cy="-121" rx="36.2938" ry="18"/>
<text text-anchor="middle" x="437" y="-117.3" font-family="Times,serif" font-size="14.00">044 (b)</text>
</g>
<!-- 022 -->
<g id="node6" class="node"><title>022</title>
<ellipse fill="#cea8f4" stroke="#835da9" cx="437" cy="-34" rx="36.2938" ry="18"/>
<text text-anchor="middle" x="437" y="-30.3" font-family="Times,serif" font-size="14.00">022 (b)</text>
</g>
<!-- 044&#45;&gt;022 -->
<g id="edge4" class="edge"><title>044&#45;&gt;022</title>
<path fill="none" stroke="#835da9" stroke-dasharray="1,5" d="M437,-102.799C437,-91.1626 437,-75.5479 437,-62.2368"/>
<polygon fill="#835da9" stroke="#835da9" points="440.5,-62.1754 437,-52.1754 433.5,-62.1755 440.5,-62.1754"/>
<text text-anchor="middle" x="459" y="-73.8" font-family="Times,serif" font-size="14.00">1 (91.7)</text>
</g>
<!-- 03 -->
<g id="node7" class="node"><title>03</title>
<ellipse fill="#cea8f4" stroke="#835da9" cx="536" cy="-208" rx="32.4942" ry="18"/>
<text text-anchor="middle" x="536" y="-204.3" font-family="Times,serif" font-size="14.00">03 (b)</text>
</g>
<!-- 03&#45;&gt;044 -->
<g id="edge5" class="edge"><title>03&#45;&gt;044</title>
<path fill="none" stroke="#835da9" stroke-dasharray="1,5" d="M514.522,-194.486C504.534,-188.256 492.739,-180.292 483,-172 473.786,-164.155 464.569,-154.567 456.832,-145.894"/>
<polygon fill="#835da9" stroke="#835da9" points="459.392,-143.504 450.185,-138.262 454.113,-148.102 459.392,-143.504"/>
<text text-anchor="middle" x="505" y="-160.8" font-family="Times,serif" font-size="14.00">1 (89.2)</text>
</g>
<!-- 032 -->
<g id="node8" class="node"><title>032</title>
<ellipse fill="#cea8f4" stroke="#835da9" cx="528" cy="-121" rx="36.2938" ry="18"/>
<text text-anchor="middle" x="528" y="-117.3" font-family="Times,serif" font-size="14.00">032 (b)</text>
</g>
<!-- 03&#45;&gt;032 -->
<g id="edge6" class="edge"><title>03&#45;&gt;032</title>
<path fill="none" stroke="#835da9" stroke-dasharray="1,5" d="M534.381,-189.799C533.286,-178.163 531.816,-162.548 530.563,-149.237"/>
<polygon fill="#835da9" stroke="#835da9" points="534.038,-148.803 529.617,-139.175 527.069,-149.459 534.038,-148.803"/>
<text text-anchor="middle" x="554" y="-160.8" font-family="Times,serif" font-size="14.00">1 (91.7)</text>
</g>
<!-- P75 -->
<g id="node9" class="node"><title>P75</title>
<ellipse fill="#cea8f4" stroke="#835da9" cx="448" cy="-208" rx="37.0935" ry="18"/>
<text text-anchor="middle" x="448" y="-204.3" font-family="Times,serif" font-size="14.00">P75 (b)</text>
</g>
<!-- 019 -->
<g id="node10" class="node"><title>019</title>
<ellipse fill="#cea8f4" stroke="#835da9" cx="357" cy="-208" rx="36.2938" ry="18"/>
<text text-anchor="middle" x="357" y="-204.3" font-family="Times,serif" font-size="14.00">019 (b)</text>
</g>
<!-- 05 -->
<g id="node11" class="node"><title>05</title>
<ellipse fill="#cea8f4" stroke="#835da9" cx="270" cy="-208" rx="32.4942" ry="18"/>
<text text-anchor="middle" x="270" y="-204.3" font-family="Times,serif" font-size="14.00">05 (b)</text>
</g>
</g>
</svg>
