<?xml version="1.0" encoding="UTF-8" standalone="no"?>
<!DOCTYPE svg PUBLIC "-//W3C//DTD SVG 1.1//EN"
 "http://www.w3.org/Graphics/SVG/1.1/DTD/svg11.dtd">
<!-- Generated by graphviz version 2.38.0 (20140413.2041)
 -->
<!-- Title: %3 Pages: 1 -->
<svg width="880pt" height="337pt"
 viewBox="0.00 0.00 880.00 337.00" xmlns="http://www.w3.org/2000/svg" xmlns:xlink="http://www.w3.org/1999/xlink">
<g id="graph0" class="graph" transform="scale(1 1) rotate(0) translate(4 333)">
<title>%3</title>
<polygon fill="white" stroke="none" points="-4,4 -4,-333 876,-333 876,4 -4,4"/>
<g id="clust1" class="cluster"><title>cluster_legend</title>
<path fill="none" stroke="black" d="M20,-193C20,-193 210,-193 210,-193 216,-193 222,-199 222,-205 222,-205 222,-309 222,-309 222,-315 216,-321 210,-321 210,-321 20,-321 20,-321 14,-321 8,-315 8,-309 8,-309 8,-205 8,-205 8,-199 14,-193 20,-193"/>
</g>
<g id="clust2" class="cluster"><title>cluster_reading</title>
<polygon fill="none" stroke="black" points="230,-8 230,-321 864,-321 864,-8 230,-8"/>
</g>
<!-- leg_s -->
<g id="node1" class="node"><title>leg_s</title>
<text text-anchor="middle" x="115" y="-291.3" font-family="Times,serif" font-size="14.00">Textual flow strength</text>
</g>
<!-- leg_e1 -->
<!-- leg_s&#45;&gt;leg_e1 -->
<g id="edge1" class="edge"><title>leg_s&#45;&gt;leg_e1</title>
<path fill="none" stroke="black" stroke-dasharray="1,5" d="M96.6657,-276.686C91.1324,-271.194 85.1607,-264.989 80,-259 70.1708,-247.593 60.0722,-233.779 52.9137,-223.563"/>
<polygon fill="black" stroke="black" points="55.6142,-221.314 47.056,-215.068 49.8514,-225.288 55.6142,-221.314"/>
<text text-anchor="middle" x="95.5" y="-247.8" font-family="Times,serif" font-size="14.00">&lt;=5 &#160;</text>
</g>
<!-- leg_e2 -->
<!-- leg_s&#45;&gt;leg_e2 -->
<g id="edge2" class="edge"><title>leg_s&#45;&gt;leg_e2</title>
<path fill="none" stroke="black" stroke-dasharray="5,2" d="M115,-276.799C115,-261.794 115,-240.174 115,-225.409"/>
<polygon fill="black" stroke="black" points="118.5,-225.293 115,-215.293 111.5,-225.293 118.5,-225.293"/>
<text text-anchor="middle" x="134" y="-247.8" font-family="Times,serif" font-size="14.00"> &#160;&lt;=25</text>
</g>
<!-- leg_e3 -->
<!-- leg_s&#45;&gt;leg_e3 -->
<g id="edge3" class="edge"><title>leg_s&#45;&gt;leg_e3</title>
<path fill="none" stroke="black" d="M138.503,-276.76C144.906,-271.462 151.567,-265.344 157,-259 166.087,-248.39 174.095,-234.689 179.546,-224.313"/>
<polygon fill="black" stroke="black" points="182.722,-225.789 184.091,-215.283 176.469,-222.642 182.722,-225.789"/>
<text text-anchor="middle" x="179" y="-247.8" font-family="Times,serif" font-size="14.00">&gt;25</text>
</g>
<!-- 044 -->
<g id="node5" class="node"><title>044</title>
<ellipse fill="#ff8a8a" stroke="#b43f3f" cx="648" cy="-208" rx="36.2938" ry="18"/>
<text text-anchor="middle" x="648" y="-204.3" font-family="Times,serif" font-size="14.00">044 (a)</text>
</g>
<!-- 022 -->
<g id="node6" class="node"><title>022</title>
<ellipse fill="#ff8a8a" stroke="#b43f3f" cx="721" cy="-121" rx="36.2938" ry="18"/>
<text text-anchor="middle" x="721" y="-117.3" font-family="Times,serif" font-size="14.00">022 (a)</text>
</g>
<!-- 044&#45;&gt;022 -->
<g id="edge4" class="edge"><title>044&#45;&gt;022</title>
<path fill="none" stroke="#b43f3f" stroke-dasharray="1,5" d="M661.731,-191.012C672.743,-178.19 688.358,-160.007 700.797,-145.524"/>
<polygon fill="#b43f3f" stroke="#b43f3f" points="703.471,-147.783 707.331,-137.916 698.16,-143.222 703.471,-147.783"/>
<text text-anchor="middle" x="710" y="-160.8" font-family="Times,serif" font-size="14.00">1 (91.7)</text>
</g>
<!-- 0141 -->
<g id="node7" class="node"><title>0141</title>
<ellipse fill="#ff8a8a" stroke="#b43f3f" cx="816" cy="-121" rx="40.0939" ry="18"/>
<text text-anchor="middle" x="816" y="-117.3" font-family="Times,serif" font-size="14.00">0141 (a)</text>
</g>
<!-- 044&#45;&gt;0141 -->
<g id="edge5" class="edge"><title>044&#45;&gt;0141</title>
<path fill="none" stroke="#b43f3f" stroke-dasharray="1,5" d="M676.411,-196.336C697.802,-188.188 725.218,-177.458 736,-172 753.305,-163.241 771.719,-151.886 786.512,-142.211"/>
<polygon fill="#b43f3f" stroke="#b43f3f" points="788.813,-144.886 795.214,-136.443 784.945,-139.051 788.813,-144.886"/>
<text text-anchor="middle" x="782" y="-160.8" font-family="Times,serif" font-size="14.00">1 (89.2)</text>
</g>
<!-- 07 -->
<g id="node8" class="node"><title>07</title>
<ellipse fill="#ff8a8a" stroke="#b43f3f" cx="271" cy="-121" rx="31.6951" ry="18"/>
<text text-anchor="middle" x="271" y="-117.3" font-family="Times,serif" font-size="14.00">07 (a)</text>
</g>
<!-- 013 -->
<g id="node9" class="node"><title>013</title>
<ellipse fill="#ff8a8a" stroke="#b43f3f" cx="274" cy="-34" rx="36.2938" ry="18"/>
<text text-anchor="middle" x="274" y="-30.3" font-family="Times,serif" font-size="14.00">013 (a)</text>
</g>
<!-- 07&#45;&gt;013 -->
<g id="edge6" class="edge"><title>07&#45;&gt;013</title>
<path fill="none" stroke="#b43f3f" stroke-dasharray="1,5" d="M271.607,-102.799C272.018,-91.1626 272.569,-75.5479 273.039,-62.2368"/>
<polygon fill="#b43f3f" stroke="#b43f3f" points="276.539,-62.2927 273.394,-52.1754 269.543,-62.0457 276.539,-62.2927"/>
<text text-anchor="middle" x="295" y="-73.8" font-family="Times,serif" font-size="14.00">2 (95.1)</text>
</g>
<!-- 017 -->
<g id="node10" class="node"><title>017</title>
<ellipse fill="#ff8a8a" stroke="#b43f3f" cx="365" cy="-34" rx="36.2938" ry="18"/>
<text text-anchor="middle" x="365" y="-30.3" font-family="Times,serif" font-size="14.00">017 (a)</text>
</g>
<!-- 07&#45;&gt;017 -->
<g id="edge7" class="edge"><title>07&#45;&gt;017</title>
<path fill="none" stroke="#b43f3f" stroke-dasharray="1,5" d="M291.776,-107.075C301.098,-100.876 311.998,-93.0548 321,-85 329.75,-77.1702 338.482,-67.6848 345.833,-59.0893"/>
<polygon fill="#b43f3f" stroke="#b43f3f" points="348.693,-61.1242 352.413,-51.2039 343.319,-56.6393 348.693,-61.1242"/>
<text text-anchor="middle" x="358" y="-73.8" font-family="Times,serif" font-size="14.00">2 (92.7)</text>
</g>
<!-- 037 -->
<g id="node11" class="node"><title>037</title>
<ellipse fill="#ff8a8a" stroke="#b43f3f" cx="456" cy="-34" rx="36.2938" ry="18"/>
<text text-anchor="middle" x="456" y="-30.3" font-family="Times,serif" font-size="14.00">037 (a)</text>
</g>
<!-- 07&#45;&gt;037 -->
<g id="edge8" class="edge"><title>07&#45;&gt;037</title>
<path fill="none" stroke="#b43f3f" stroke-dasharray="1,5" d="M295.493,-109.152C300.875,-106.963 306.586,-104.788 312,-103 343.321,-92.6548 353.963,-98.6299 384,-85 400.484,-77.5201 417.193,-66.1969 430.36,-56.2166"/>
<polygon fill="#b43f3f" stroke="#b43f3f" points="432.724,-58.8118 438.463,-49.906 428.423,-53.2891 432.724,-58.8118"/>
<text text-anchor="middle" x="432" y="-73.8" font-family="Times,serif" font-size="14.00">1 (97.5)</text>
</g>
<!-- 034 -->
<g id="node12" class="node"><title>034</title>
<ellipse fill="#ff8a8a" stroke="#b43f3f" cx="547" cy="-34" rx="36.2938" ry="18"/>
<text text-anchor="middle" x="547" y="-30.3" font-family="Times,serif" font-size="14.00">034 (a)</text>
</g>
<!-- 07&#45;&gt;034 -->
<g id="edge9" class="edge"><title>07&#45;&gt;034</title>
<path fill="none" stroke="#b43f3f" stroke-dasharray="1,5" d="M294.906,-108.82C300.423,-106.598 306.337,-104.493 312,-103 375.219,-86.3271 395.883,-105.396 458,-85 479.453,-77.9558 501.597,-65.5388 518.43,-54.8417"/>
<polygon fill="#b43f3f" stroke="#b43f3f" points="520.735,-57.5168 527.197,-49.1208 516.91,-51.6544 520.735,-57.5168"/>
<text text-anchor="middle" x="514" y="-73.8" font-family="Times,serif" font-size="14.00">1 (95.1)</text>
</g>
<!-- 030 -->
<g id="node13" class="node"><title>030</title>
<ellipse fill="#ff8a8a" stroke="#b43f3f" cx="638" cy="-34" rx="36.2938" ry="18"/>
<text text-anchor="middle" x="638" y="-30.3" font-family="Times,serif" font-size="14.00">030 (a)</text>
</g>
<!-- 07&#45;&gt;030 -->
<g id="edge10" class="edge"><title>07&#45;&gt;030</title>
<path fill="none" stroke="#b43f3f" stroke-dasharray="1,5" d="M294.86,-108.635C300.379,-106.423 306.306,-104.369 312,-103 410.833,-79.2408 442.179,-112.63 540,-85 564.168,-78.1736 589.363,-65.1696 608.153,-54.1346"/>
<polygon fill="#b43f3f" stroke="#b43f3f" points="610.068,-57.0671 616.831,-48.9112 606.458,-51.0698 610.068,-57.0671"/>
<text text-anchor="middle" x="599" y="-73.8" font-family="Times,serif" font-size="14.00">1 (95.1)</text>
</g>
<!-- 03 -->
<g id="node14" class="node"><title>03</title>
<ellipse fill="#ff8a8a" stroke="#b43f3f" cx="734" cy="-295" rx="31.6951" ry="18"/>
<text text-anchor="middle" x="734" y="-291.3" font-family="Times,serif" font-size="14.00">03 (a)</text>
</g>
<!-- 03&#45;&gt;044 -->
<g id="edge11" class="edge"><title>03&#45;&gt;044</title>
<path fill="none" stroke="#b43f3f" stroke-dasharray="1,5" d="M713.353,-280.912C704.467,-274.796 694.248,-267.086 686,-259 678.175,-251.329 670.638,-241.975 664.368,-233.442"/>
<polygon fill="#b43f3f" stroke="#b43f3f" points="667.206,-231.394 658.557,-225.275 661.503,-235.452 667.206,-231.394"/>
<text text-anchor="middle" x="708" y="-247.8" font-family="Times,serif" font-size="14.00">1 (89.2)</text>
</g>
<!-- 02 -->
<g id="node15" class="node"><title>02</title>
<ellipse fill="#ff8a8a" stroke="#b43f3f" cx="734" cy="-208" rx="31.6951" ry="18"/>
<text text-anchor="middle" x="734" y="-204.3" font-family="Times,serif" font-size="14.00">02 (a)</text>
</g>
<!-- 03&#45;&gt;02 -->
<g id="edge12" class="edge"><title>03&#45;&gt;02</title>
<path fill="none" stroke="#b43f3f" stroke-dasharray="1,5" d="M734,-276.799C734,-265.163 734,-249.548 734,-236.237"/>
<polygon fill="#b43f3f" stroke="#b43f3f" points="737.5,-236.175 734,-226.175 730.5,-236.175 737.5,-236.175"/>
<text text-anchor="middle" x="756" y="-247.8" font-family="Times,serif" font-size="14.00">1 (86.5)</text>
</g>
<!-- 032 -->
<g id="node16" class="node"><title>032</title>
<ellipse fill="#ff8a8a" stroke="#b43f3f" cx="820" cy="-208" rx="36.2938" ry="18"/>
<text text-anchor="middle" x="820" y="-204.3" font-family="Times,serif" font-size="14.00">032 (a)</text>
</g>
<!-- 03&#45;&gt;032 -->
<g id="edge13" class="edge"><title>03&#45;&gt;032</title>
<path fill="none" stroke="#b43f3f" stroke-dasharray="1,5" d="M754.647,-280.912C763.533,-274.796 773.752,-267.086 782,-259 789.825,-251.329 797.362,-241.975 803.632,-233.442"/>
<polygon fill="#b43f3f" stroke="#b43f3f" points="806.497,-235.452 809.443,-225.275 800.794,-231.394 806.497,-235.452"/>
<text text-anchor="middle" x="816" y="-247.8" font-family="Times,serif" font-size="14.00">1 (91.7)</text>
</g>
<!-- 019 -->
<g id="node17" class="node"><title>019</title>
<ellipse fill="#ff8a8a" stroke="#b43f3f" cx="555" cy="-295" rx="36.2938" ry="18"/>
<text text-anchor="middle" x="555" y="-291.3" font-family="Times,serif" font-size="14.00">019 (a)</text>
</g>
<!-- 063 -->
<g id="node18" class="node"><title>063</title>
<ellipse fill="#ff8a8a" stroke="#b43f3f" cx="539" cy="-208" rx="36.2938" ry="18"/>
<text text-anchor="middle" x="539" y="-204.3" font-family="Times,serif" font-size="14.00">063 (a)</text>
</g>
<!-- 019&#45;&gt;063 -->
<g id="edge14" class="edge"><title>019&#45;&gt;063</title>
<path fill="none" stroke="#b43f3f" stroke-dasharray="1,5" d="M551.762,-276.799C549.572,-265.163 546.633,-249.548 544.127,-236.237"/>
<polygon fill="#b43f3f" stroke="#b43f3f" points="547.523,-235.355 542.233,-226.175 540.643,-236.65 547.523,-235.355"/>
<text text-anchor="middle" x="570" y="-247.8" font-family="Times,serif" font-size="14.00">1 (85.7)</text>
</g>
<!-- 063&#45;&gt;07 -->
<g id="edge15" class="edge"><title>063&#45;&gt;07</title>
<path fill="none" stroke="#b43f3f" stroke-dasharray="1,5" d="M512.195,-195.722C506.283,-193.56 499.994,-191.505 494,-190 434.435,-175.049 415.126,-191.821 357,-172 336.036,-164.851 314.493,-152.316 298.212,-141.586"/>
<polygon fill="#b43f3f" stroke="#b43f3f" points="299.989,-138.563 289.746,-135.856 296.066,-144.36 299.989,-138.563"/>
<text text-anchor="middle" x="379" y="-160.8" font-family="Times,serif" font-size="14.00">1 (96.6)</text>
</g>
<!-- 011 -->
<g id="node19" class="node"><title>011</title>
<ellipse fill="#ff8a8a" stroke="#b43f3f" cx="357" cy="-121" rx="36.2938" ry="18"/>
<text text-anchor="middle" x="357" y="-117.3" font-family="Times,serif" font-size="14.00">011 (a)</text>
</g>
<!-- 063&#45;&gt;011 -->
<g id="edge16" class="edge"><title>063&#45;&gt;011</title>
<path fill="none" stroke="#b43f3f" stroke-dasharray="1,5" d="M511.529,-196.189C505.771,-194.045 499.712,-191.878 494,-190 465.931,-180.77 456.767,-184.515 430,-172 413.448,-164.261 396.518,-152.92 383.134,-142.994"/>
<polygon fill="#b43f3f" stroke="#b43f3f" points="384.97,-139.993 374.891,-136.728 380.734,-145.566 384.97,-139.993"/>
<text text-anchor="middle" x="452" y="-160.8" font-family="Times,serif" font-size="14.00">1 (93.1)</text>
</g>
<!-- 045 -->
<g id="node20" class="node"><title>045</title>
<ellipse fill="#ff8a8a" stroke="#b43f3f" cx="448" cy="-121" rx="36.2938" ry="18"/>
<text text-anchor="middle" x="448" y="-117.3" font-family="Times,serif" font-size="14.00">045 (a)</text>
</g>
<!-- 063&#45;&gt;045 -->
<g id="edge17" class="edge"><title>063&#45;&gt;045</title>
<path fill="none" stroke="#b43f3f" stroke-dasharray="1,5" d="M517.628,-193.006C509.008,-186.963 499.186,-179.554 491,-172 482.456,-164.115 473.924,-154.619 466.74,-146.029"/>
<polygon fill="#b43f3f" stroke="#b43f3f" points="469.344,-143.685 460.308,-138.155 463.923,-148.113 469.344,-143.685"/>
<text text-anchor="middle" x="513" y="-160.8" font-family="Times,serif" font-size="14.00">1 (93.1)</text>
</g>
<!-- 021 -->
<g id="node21" class="node"><title>021</title>
<ellipse fill="#ff8a8a" stroke="#b43f3f" cx="539" cy="-121" rx="36.2938" ry="18"/>
<text text-anchor="middle" x="539" y="-117.3" font-family="Times,serif" font-size="14.00">021 (a)</text>
</g>
<!-- 063&#45;&gt;021 -->
<g id="edge18" class="edge"><title>063&#45;&gt;021</title>
<path fill="none" stroke="#b43f3f" stroke-dasharray="1,5" d="M539,-189.799C539,-178.163 539,-162.548 539,-149.237"/>
<polygon fill="#b43f3f" stroke="#b43f3f" points="542.5,-149.175 539,-139.175 535.5,-149.175 542.5,-149.175"/>
<text text-anchor="middle" x="561" y="-160.8" font-family="Times,serif" font-size="14.00">1 (93.1)</text>
</g>
<!-- 028 -->
<g id="node22" class="node"><title>028</title>
<ellipse fill="#ff8a8a" stroke="#b43f3f" cx="630" cy="-121" rx="36.2938" ry="18"/>
<text text-anchor="middle" x="630" y="-117.3" font-family="Times,serif" font-size="14.00">028 (a)</text>
</g>
<!-- 063&#45;&gt;028 -->
<g id="edge19" class="edge"><title>063&#45;&gt;028</title>
<path fill="none" stroke="#b43f3f" stroke-dasharray="1,5" d="M560.372,-193.006C568.992,-186.963 578.814,-179.554 587,-172 595.544,-164.115 604.076,-154.619 611.26,-146.029"/>
<polygon fill="#b43f3f" stroke="#b43f3f" points="614.077,-148.113 617.692,-138.155 608.656,-143.685 614.077,-148.113"/>
<text text-anchor="middle" x="623" y="-160.8" font-family="Times,serif" font-size="14.00">1 (96.6)</text>
</g>
<!-- 036 -->
<g id="node23" class="node"><title>036</title>
<ellipse fill="#ff8a8a" stroke="#b43f3f" cx="729" cy="-34" rx="36.2938" ry="18"/>
<text text-anchor="middle" x="729" y="-30.3" font-family="Times,serif" font-size="14.00">036 (a)</text>
</g>
<!-- 021&#45;&gt;036 -->
<g id="edge20" class="edge"><title>021&#45;&gt;036</title>
<path fill="none" stroke="#b43f3f" stroke-dasharray="1,5" d="M566.534,-109.163C572.57,-106.974 578.961,-104.796 585,-103 619.517,-92.7367 631.417,-100.334 664,-85 679.072,-77.907 693.944,-66.8536 705.651,-56.9414"/>
<polygon fill="#b43f3f" stroke="#b43f3f" points="707.993,-59.5432 713.214,-50.3241 703.383,-54.2751 707.993,-59.5432"/>
<text text-anchor="middle" x="709" y="-73.8" font-family="Times,serif" font-size="14.00">1 (97.6)</text>
</g>
<!-- 047 -->
<g id="node24" class="node"><title>047</title>
<ellipse fill="#ff8a8a" stroke="#b43f3f" cx="820" cy="-34" rx="36.2938" ry="18"/>
<text text-anchor="middle" x="820" y="-30.3" font-family="Times,serif" font-size="14.00">047 (a)</text>
</g>
<!-- 021&#45;&gt;047 -->
<g id="edge21" class="edge"><title>021&#45;&gt;047</title>
<path fill="none" stroke="#b43f3f" stroke-dasharray="1,5" d="M565.915,-108.856C572.1,-106.632 578.71,-104.517 585,-103 650.273,-87.2539 671.382,-106.477 735,-85 755.53,-78.0692 776.536,-65.7706 792.529,-55.1056"/>
<polygon fill="#b43f3f" stroke="#b43f3f" points="794.594,-57.9337 800.864,-49.3932 790.637,-52.1597 794.594,-57.9337"/>
<text text-anchor="middle" x="788" y="-73.8" font-family="Times,serif" font-size="14.00">1 (95.1)</text>
</g>
<!-- 091 -->
<g id="node25" class="node"><title>091</title>
<ellipse fill="#ff8a8a" stroke="#b43f3f" cx="464" cy="-295" rx="36.2938" ry="18"/>
<text text-anchor="middle" x="464" y="-291.3" font-family="Times,serif" font-size="14.00">091 (a)</text>
</g>
<!-- 05 -->
<g id="node26" class="node"><title>05</title>
<ellipse fill="#ff8a8a" stroke="#b43f3f" cx="453" cy="-208" rx="31.6951" ry="18"/>
<text text-anchor="middle" x="453" y="-204.3" font-family="Times,serif" font-size="14.00">05 (a)</text>
</g>
<!-- 091&#45;&gt;05 -->
<g id="edge22" class="edge"><title>091&#45;&gt;05</title>
<path fill="none" stroke="#b43f3f" stroke-dasharray="1,5" d="M461.774,-276.799C460.268,-265.163 458.247,-249.548 456.525,-236.237"/>
<polygon fill="#b43f3f" stroke="#b43f3f" points="459.977,-235.644 455.223,-226.175 453.035,-236.542 459.977,-235.644"/>
<text text-anchor="middle" x="482" y="-247.8" font-family="Times,serif" font-size="14.00">1 (87.5)</text>
</g>
<!-- P75 -->
<g id="node27" class="node"><title>P75</title>
<ellipse fill="#ff8a8a" stroke="#b43f3f" cx="373" cy="-295" rx="36.2938" ry="18"/>
<text text-anchor="middle" x="373" y="-291.3" font-family="Times,serif" font-size="14.00">P75 (a)</text>
</g>
<!-- 0211 -->
<g id="node28" class="node"><title>0211</title>
<ellipse fill="#ff8a8a" stroke="#b43f3f" cx="278" cy="-295" rx="40.0939" ry="18"/>
<text text-anchor="middle" x="278" y="-291.3" font-family="Times,serif" font-size="14.00">0211 (a)</text>
</g>
</g>
</svg>
