<?xml version="1.0" encoding="UTF-8" standalone="no"?>
<!DOCTYPE svg PUBLIC "-//W3C//DTD SVG 1.1//EN"
 "http://www.w3.org/Graphics/SVG/1.1/DTD/svg11.dtd">
<!-- Generated by graphviz version 2.38.0 (20140413.2041)
 -->
<!-- Title: %3 Pages: 1 -->
<svg width="969pt" height="337pt"
 viewBox="0.00 0.00 969.00 337.00" xmlns="http://www.w3.org/2000/svg" xmlns:xlink="http://www.w3.org/1999/xlink">
<g id="graph0" class="graph" transform="scale(1 1) rotate(0) translate(4 333)">
<title>%3</title>
<polygon fill="white" stroke="none" points="-4,4 -4,-333 965,-333 965,4 -4,4"/>
<g id="clust1" class="cluster"><title>cluster_legend</title>
<path fill="none" stroke="black" d="M20,-193C20,-193 210,-193 210,-193 216,-193 222,-199 222,-205 222,-205 222,-309 222,-309 222,-315 216,-321 210,-321 210,-321 20,-321 20,-321 14,-321 8,-315 8,-309 8,-309 8,-205 8,-205 8,-199 14,-193 20,-193"/>
</g>
<g id="clust2" class="cluster"><title>cluster_reading</title>
<polygon fill="none" stroke="black" points="230,-8 230,-321 953,-321 953,-8 230,-8"/>
</g>
<!-- leg_s -->
<g id="node1" class="node"><title>leg_s</title>
<text text-anchor="middle" x="115" y="-291.3" font-family="Times,serif" font-size="14.00">Textual flow strength</text>
</g>
<!-- leg_e1 -->
<!-- leg_s&#45;&gt;leg_e1 -->
<g id="edge1" class="edge"><title>leg_s&#45;&gt;leg_e1</title>
<path fill="none" stroke="black" stroke-dasharray="1,5" d="M96.6657,-276.686C91.1324,-271.194 85.1607,-264.989 80,-259 70.1708,-247.593 60.0722,-233.779 52.9137,-223.563"/>
<polygon fill="black" stroke="black" points="55.6142,-221.314 47.056,-215.068 49.8514,-225.288 55.6142,-221.314"/>
<text text-anchor="middle" x="95.5" y="-247.8" font-family="Times,serif" font-size="14.00">&lt;=5 &#160;</text>
</g>
<!-- leg_e2 -->
<!-- leg_s&#45;&gt;leg_e2 -->
<g id="edge2" class="edge"><title>leg_s&#45;&gt;leg_e2</title>
<path fill="none" stroke="black" stroke-dasharray="5,2" d="M115,-276.799C115,-261.794 115,-240.174 115,-225.409"/>
<polygon fill="black" stroke="black" points="118.5,-225.293 115,-215.293 111.5,-225.293 118.5,-225.293"/>
<text text-anchor="middle" x="134" y="-247.8" font-family="Times,serif" font-size="14.00"> &#160;&lt;=25</text>
</g>
<!-- leg_e3 -->
<!-- leg_s&#45;&gt;leg_e3 -->
<g id="edge3" class="edge"><title>leg_s&#45;&gt;leg_e3</title>
<path fill="none" stroke="black" d="M138.503,-276.76C144.906,-271.462 151.567,-265.344 157,-259 166.087,-248.39 174.095,-234.689 179.546,-224.313"/>
<polygon fill="black" stroke="black" points="182.722,-225.789 184.091,-215.283 176.469,-222.642 182.722,-225.789"/>
<text text-anchor="middle" x="179" y="-247.8" font-family="Times,serif" font-size="14.00">&gt;25</text>
</g>
<!-- 044 -->
<g id="node5" class="node"><title>044</title>
<ellipse fill="#ff8a8a" stroke="#b43f3f" cx="737" cy="-208" rx="36.2938" ry="18"/>
<text text-anchor="middle" x="737" y="-204.3" font-family="Times,serif" font-size="14.00">044 (a)</text>
</g>
<!-- 022 -->
<g id="node6" class="node"><title>022</title>
<ellipse fill="#ff8a8a" stroke="#b43f3f" cx="810" cy="-121" rx="36.2938" ry="18"/>
<text text-anchor="middle" x="810" y="-117.3" font-family="Times,serif" font-size="14.00">022 (a)</text>
</g>
<!-- 044&#45;&gt;022 -->
<g id="edge4" class="edge"><title>044&#45;&gt;022</title>
<path fill="none" stroke="#b43f3f" stroke-dasharray="1,5" d="M750.731,-191.012C761.743,-178.19 777.358,-160.007 789.797,-145.524"/>
<polygon fill="#b43f3f" stroke="#b43f3f" points="792.471,-147.783 796.331,-137.916 787.16,-143.222 792.471,-147.783"/>
<text text-anchor="middle" x="799" y="-160.8" font-family="Times,serif" font-size="14.00">1 (91.7)</text>
</g>
<!-- 0141 -->
<g id="node7" class="node"><title>0141</title>
<ellipse fill="#ff8a8a" stroke="#b43f3f" cx="905" cy="-121" rx="40.0939" ry="18"/>
<text text-anchor="middle" x="905" y="-117.3" font-family="Times,serif" font-size="14.00">0141 (a)</text>
</g>
<!-- 044&#45;&gt;0141 -->
<g id="edge5" class="edge"><title>044&#45;&gt;0141</title>
<path fill="none" stroke="#b43f3f" stroke-dasharray="1,5" d="M765.411,-196.336C786.802,-188.188 814.218,-177.458 825,-172 842.305,-163.241 860.719,-151.886 875.512,-142.211"/>
<polygon fill="#b43f3f" stroke="#b43f3f" points="877.813,-144.886 884.214,-136.443 873.945,-139.051 877.813,-144.886"/>
<text text-anchor="middle" x="871" y="-160.8" font-family="Times,serif" font-size="14.00">1 (89.2)</text>
</g>
<!-- 03 -->
<g id="node8" class="node"><title>03</title>
<ellipse fill="#ff8a8a" stroke="#b43f3f" cx="823" cy="-295" rx="31.6951" ry="18"/>
<text text-anchor="middle" x="823" y="-291.3" font-family="Times,serif" font-size="14.00">03 (a)</text>
</g>
<!-- 03&#45;&gt;044 -->
<g id="edge6" class="edge"><title>03&#45;&gt;044</title>
<path fill="none" stroke="#b43f3f" stroke-dasharray="1,5" d="M802.353,-280.912C793.467,-274.796 783.248,-267.086 775,-259 767.175,-251.329 759.638,-241.975 753.368,-233.442"/>
<polygon fill="#b43f3f" stroke="#b43f3f" points="756.206,-231.394 747.557,-225.275 750.503,-235.452 756.206,-231.394"/>
<text text-anchor="middle" x="797" y="-247.8" font-family="Times,serif" font-size="14.00">1 (89.2)</text>
</g>
<!-- 02 -->
<g id="node9" class="node"><title>02</title>
<ellipse fill="#ff8a8a" stroke="#b43f3f" cx="823" cy="-208" rx="31.6951" ry="18"/>
<text text-anchor="middle" x="823" y="-204.3" font-family="Times,serif" font-size="14.00">02 (a)</text>
</g>
<!-- 03&#45;&gt;02 -->
<g id="edge7" class="edge"><title>03&#45;&gt;02</title>
<path fill="none" stroke="#b43f3f" stroke-dasharray="1,5" d="M823,-276.799C823,-265.163 823,-249.548 823,-236.237"/>
<polygon fill="#b43f3f" stroke="#b43f3f" points="826.5,-236.175 823,-226.175 819.5,-236.175 826.5,-236.175"/>
<text text-anchor="middle" x="845" y="-247.8" font-family="Times,serif" font-size="14.00">1 (86.5)</text>
</g>
<!-- 032 -->
<g id="node10" class="node"><title>032</title>
<ellipse fill="#ff8a8a" stroke="#b43f3f" cx="909" cy="-208" rx="36.2938" ry="18"/>
<text text-anchor="middle" x="909" y="-204.3" font-family="Times,serif" font-size="14.00">032 (a)</text>
</g>
<!-- 03&#45;&gt;032 -->
<g id="edge8" class="edge"><title>03&#45;&gt;032</title>
<path fill="none" stroke="#b43f3f" stroke-dasharray="1,5" d="M843.647,-280.912C852.533,-274.796 862.752,-267.086 871,-259 878.825,-251.329 886.362,-241.975 892.632,-233.442"/>
<polygon fill="#b43f3f" stroke="#b43f3f" points="895.497,-235.452 898.443,-225.275 889.794,-231.394 895.497,-235.452"/>
<text text-anchor="middle" x="905" y="-247.8" font-family="Times,serif" font-size="14.00">1 (91.7)</text>
</g>
<!-- 063 -->
<g id="node11" class="node"><title>063</title>
<ellipse fill="#ff8a8a" stroke="#b43f3f" cx="542" cy="-208" rx="36.2938" ry="18"/>
<text text-anchor="middle" x="542" y="-204.3" font-family="Times,serif" font-size="14.00">063 (a)</text>
</g>
<!-- 031 -->
<g id="node12" class="node"><title>031</title>
<ellipse fill="#ff8a8a" stroke="#b43f3f" cx="274" cy="-121" rx="36.2938" ry="18"/>
<text text-anchor="middle" x="274" y="-117.3" font-family="Times,serif" font-size="14.00">031 (a)</text>
</g>
<!-- 063&#45;&gt;031 -->
<g id="edge9" class="edge"><title>063&#45;&gt;031</title>
<path fill="none" stroke="#b43f3f" stroke-dasharray="1,5" d="M515.195,-195.722C509.283,-193.56 502.994,-191.505 497,-190 437.435,-175.049 418.126,-191.821 360,-172 339.312,-164.945 318.06,-152.645 301.858,-142.011"/>
<polygon fill="#b43f3f" stroke="#b43f3f" points="303.66,-139.005 293.412,-136.318 299.748,-144.809 303.66,-139.005"/>
<text text-anchor="middle" x="382" y="-160.8" font-family="Times,serif" font-size="14.00">1 (95.8)</text>
</g>
<!-- 011 -->
<g id="node13" class="node"><title>011</title>
<ellipse fill="#ff8a8a" stroke="#b43f3f" cx="365" cy="-121" rx="36.2938" ry="18"/>
<text text-anchor="middle" x="365" y="-117.3" font-family="Times,serif" font-size="14.00">011 (a)</text>
</g>
<!-- 063&#45;&gt;011 -->
<g id="edge10" class="edge"><title>063&#45;&gt;011</title>
<path fill="none" stroke="#b43f3f" stroke-dasharray="1,5" d="M514.541,-196.154C508.781,-194.012 502.72,-191.856 497,-190 468.079,-180.617 458.281,-185.424 431,-172 416.014,-164.626 401.036,-153.646 389.145,-143.852"/>
<polygon fill="#b43f3f" stroke="#b43f3f" points="391.335,-141.12 381.445,-137.32 386.807,-146.458 391.335,-141.12"/>
<text text-anchor="middle" x="453" y="-160.8" font-family="Times,serif" font-size="14.00">1 (93.1)</text>
</g>
<!-- 07 -->
<g id="node14" class="node"><title>07</title>
<ellipse fill="#ff8a8a" stroke="#b43f3f" cx="451" cy="-121" rx="31.6951" ry="18"/>
<text text-anchor="middle" x="451" y="-117.3" font-family="Times,serif" font-size="14.00">07 (a)</text>
</g>
<!-- 063&#45;&gt;07 -->
<g id="edge11" class="edge"><title>063&#45;&gt;07</title>
<path fill="none" stroke="#b43f3f" stroke-dasharray="1,5" d="M520.103,-193.563C510.983,-187.498 500.549,-179.922 492,-172 483.725,-164.332 475.628,-154.978 468.845,-146.445"/>
<polygon fill="#b43f3f" stroke="#b43f3f" points="471.422,-144.056 462.542,-138.277 465.881,-148.332 471.422,-144.056"/>
<text text-anchor="middle" x="514" y="-160.8" font-family="Times,serif" font-size="14.00">1 (96.6)</text>
</g>
<!-- 045 -->
<g id="node15" class="node"><title>045</title>
<ellipse fill="#ff8a8a" stroke="#b43f3f" cx="537" cy="-121" rx="36.2938" ry="18"/>
<text text-anchor="middle" x="537" y="-117.3" font-family="Times,serif" font-size="14.00">045 (a)</text>
</g>
<!-- 063&#45;&gt;045 -->
<g id="edge12" class="edge"><title>063&#45;&gt;045</title>
<path fill="none" stroke="#b43f3f" stroke-dasharray="1,5" d="M540.988,-189.799C540.304,-178.163 539.385,-162.548 538.602,-149.237"/>
<polygon fill="#b43f3f" stroke="#b43f3f" points="542.092,-148.953 538.01,-139.175 535.104,-149.364 542.092,-148.953"/>
<text text-anchor="middle" x="562" y="-160.8" font-family="Times,serif" font-size="14.00">1 (93.1)</text>
</g>
<!-- 021 -->
<g id="node16" class="node"><title>021</title>
<ellipse fill="#ff8a8a" stroke="#b43f3f" cx="628" cy="-121" rx="36.2938" ry="18"/>
<text text-anchor="middle" x="628" y="-117.3" font-family="Times,serif" font-size="14.00">021 (a)</text>
</g>
<!-- 063&#45;&gt;021 -->
<g id="edge13" class="edge"><title>063&#45;&gt;021</title>
<path fill="none" stroke="#b43f3f" stroke-dasharray="1,5" d="M562.57,-193.022C570.845,-186.982 580.244,-179.57 588,-172 595.995,-164.197 603.878,-154.814 610.504,-146.295"/>
<polygon fill="#b43f3f" stroke="#b43f3f" points="613.422,-148.24 616.669,-138.155 607.841,-144.014 613.422,-148.24"/>
<text text-anchor="middle" x="624" y="-160.8" font-family="Times,serif" font-size="14.00">1 (93.1)</text>
</g>
<!-- 028 -->
<g id="node17" class="node"><title>028</title>
<ellipse fill="#ff8a8a" stroke="#b43f3f" cx="719" cy="-121" rx="36.2938" ry="18"/>
<text text-anchor="middle" x="719" y="-117.3" font-family="Times,serif" font-size="14.00">028 (a)</text>
</g>
<!-- 063&#45;&gt;028 -->
<g id="edge14" class="edge"><title>063&#45;&gt;028</title>
<path fill="none" stroke="#b43f3f" stroke-dasharray="1,5" d="M574.23,-199.402C596.263,-193.532 625.752,-184.324 650,-172 665.323,-164.212 680.95,-153.194 693.449,-143.482"/>
<polygon fill="#b43f3f" stroke="#b43f3f" points="695.918,-145.99 701.56,-137.023 691.557,-140.514 695.918,-145.99"/>
<text text-anchor="middle" x="697" y="-160.8" font-family="Times,serif" font-size="14.00">1 (96.6)</text>
</g>
<!-- 017 -->
<g id="node18" class="node"><title>017</title>
<ellipse fill="#ff8a8a" stroke="#b43f3f" cx="274" cy="-34" rx="36.2938" ry="18"/>
<text text-anchor="middle" x="274" y="-30.3" font-family="Times,serif" font-size="14.00">017 (a)</text>
</g>
<!-- 031&#45;&gt;017 -->
<g id="edge15" class="edge"><title>031&#45;&gt;017</title>
<path fill="none" stroke="#b43f3f" stroke-dasharray="1,5" d="M274,-102.799C274,-91.1626 274,-75.5479 274,-62.2368"/>
<polygon fill="#b43f3f" stroke="#b43f3f" points="277.5,-62.1754 274,-52.1754 270.5,-62.1755 277.5,-62.1754"/>
<text text-anchor="middle" x="296" y="-73.8" font-family="Times,serif" font-size="14.00">1 (94.3)</text>
</g>
<!-- 037 -->
<g id="node20" class="node"><title>037</title>
<ellipse fill="#ff8a8a" stroke="#b43f3f" cx="365" cy="-34" rx="36.2938" ry="18"/>
<text text-anchor="middle" x="365" y="-30.3" font-family="Times,serif" font-size="14.00">037 (a)</text>
</g>
<!-- 07&#45;&gt;037 -->
<g id="edge17" class="edge"><title>07&#45;&gt;037</title>
<path fill="none" stroke="#b43f3f" stroke-dasharray="1,5" d="M431.839,-106.58C423.544,-100.403 413.939,-92.7366 406,-85 397.92,-77.1259 389.866,-67.7284 383.062,-59.217"/>
<polygon fill="#b43f3f" stroke="#b43f3f" points="385.631,-56.8207 376.72,-51.0903 380.113,-61.1272 385.631,-56.8207"/>
<text text-anchor="middle" x="428" y="-73.8" font-family="Times,serif" font-size="14.00">1 (97.5)</text>
</g>
<!-- 034 -->
<g id="node21" class="node"><title>034</title>
<ellipse fill="#ff8a8a" stroke="#b43f3f" cx="456" cy="-34" rx="36.2938" ry="18"/>
<text text-anchor="middle" x="456" y="-30.3" font-family="Times,serif" font-size="14.00">034 (a)</text>
</g>
<!-- 07&#45;&gt;034 -->
<g id="edge18" class="edge"><title>07&#45;&gt;034</title>
<path fill="none" stroke="#b43f3f" stroke-dasharray="1,5" d="M452.012,-102.799C452.696,-91.1626 453.615,-75.5479 454.398,-62.2368"/>
<polygon fill="#b43f3f" stroke="#b43f3f" points="457.896,-62.3637 454.99,-52.1754 450.908,-61.9526 457.896,-62.3637"/>
<text text-anchor="middle" x="476" y="-73.8" font-family="Times,serif" font-size="14.00">1 (95.1)</text>
</g>
<!-- 038 -->
<g id="node22" class="node"><title>038</title>
<ellipse fill="#ff8a8a" stroke="#b43f3f" cx="547" cy="-34" rx="36.2938" ry="18"/>
<text text-anchor="middle" x="547" y="-30.3" font-family="Times,serif" font-size="14.00">038 (a)</text>
</g>
<!-- 045&#45;&gt;038 -->
<g id="edge19" class="edge"><title>045&#45;&gt;038</title>
<path fill="none" stroke="#b43f3f" stroke-dasharray="1,5" d="M539.024,-102.799C540.393,-91.1626 542.23,-75.5479 543.796,-62.2368"/>
<polygon fill="#b43f3f" stroke="#b43f3f" points="547.287,-62.5159 544.979,-52.1754 540.335,-61.698 547.287,-62.5159"/>
<text text-anchor="middle" x="565" y="-73.8" font-family="Times,serif" font-size="14.00">1 (92.7)</text>
</g>
<!-- 036 -->
<g id="node23" class="node"><title>036</title>
<ellipse fill="#ff8a8a" stroke="#b43f3f" cx="638" cy="-34" rx="36.2938" ry="18"/>
<text text-anchor="middle" x="638" y="-30.3" font-family="Times,serif" font-size="14.00">036 (a)</text>
</g>
<!-- 021&#45;&gt;036 -->
<g id="edge20" class="edge"><title>021&#45;&gt;036</title>
<path fill="none" stroke="#b43f3f" stroke-dasharray="1,5" d="M630.024,-102.799C631.393,-91.1626 633.23,-75.5479 634.796,-62.2368"/>
<polygon fill="#b43f3f" stroke="#b43f3f" points="638.287,-62.5159 635.979,-52.1754 631.335,-61.698 638.287,-62.5159"/>
<text text-anchor="middle" x="656" y="-73.8" font-family="Times,serif" font-size="14.00">1 (97.6)</text>
</g>
<!-- 047 -->
<g id="node24" class="node"><title>047</title>
<ellipse fill="#ff8a8a" stroke="#b43f3f" cx="729" cy="-34" rx="36.2938" ry="18"/>
<text text-anchor="middle" x="729" y="-30.3" font-family="Times,serif" font-size="14.00">047 (a)</text>
</g>
<!-- 021&#45;&gt;047 -->
<g id="edge21" class="edge"><title>021&#45;&gt;047</title>
<path fill="none" stroke="#b43f3f" stroke-dasharray="1,5" d="M650.919,-106.848C660.859,-100.721 672.395,-93.0196 682,-85 691.522,-77.0494 701.074,-67.2946 709.056,-58.5186"/>
<polygon fill="#b43f3f" stroke="#b43f3f" points="711.875,-60.6151 715.899,-50.8141 706.641,-55.9666 711.875,-60.6151"/>
<text text-anchor="middle" x="720" y="-73.8" font-family="Times,serif" font-size="14.00">1 (95.1)</text>
</g>
<!-- 019 -->
<g id="node19" class="node"><title>019</title>
<ellipse fill="#ff8a8a" stroke="#b43f3f" cx="555" cy="-295" rx="36.2938" ry="18"/>
<text text-anchor="middle" x="555" y="-291.3" font-family="Times,serif" font-size="14.00">019 (a)</text>
</g>
<!-- 019&#45;&gt;063 -->
<g id="edge16" class="edge"><title>019&#45;&gt;063</title>
<path fill="none" stroke="#b43f3f" stroke-dasharray="1,5" d="M552.369,-276.799C550.59,-265.163 548.201,-249.548 546.166,-236.237"/>
<polygon fill="#b43f3f" stroke="#b43f3f" points="549.599,-235.531 544.627,-226.175 542.679,-236.59 549.599,-235.531"/>
<text text-anchor="middle" x="572" y="-247.8" font-family="Times,serif" font-size="14.00">1 (85.7)</text>
</g>
<!-- 091 -->
<g id="node25" class="node"><title>091</title>
<ellipse fill="#ff8a8a" stroke="#b43f3f" cx="464" cy="-295" rx="36.2938" ry="18"/>
<text text-anchor="middle" x="464" y="-291.3" font-family="Times,serif" font-size="14.00">091 (a)</text>
</g>
<!-- 05 -->
<g id="node26" class="node"><title>05</title>
<ellipse fill="#ff8a8a" stroke="#b43f3f" cx="456" cy="-208" rx="31.6951" ry="18"/>
<text text-anchor="middle" x="456" y="-204.3" font-family="Times,serif" font-size="14.00">05 (a)</text>
</g>
<!-- 091&#45;&gt;05 -->
<g id="edge22" class="edge"><title>091&#45;&gt;05</title>
<path fill="none" stroke="#b43f3f" stroke-dasharray="1,5" d="M462.381,-276.799C461.286,-265.163 459.816,-249.548 458.563,-236.237"/>
<polygon fill="#b43f3f" stroke="#b43f3f" points="462.038,-235.803 457.617,-226.175 455.069,-236.459 462.038,-235.803"/>
<text text-anchor="middle" x="483" y="-247.8" font-family="Times,serif" font-size="14.00">1 (87.5)</text>
</g>
<!-- P75 -->
<g id="node27" class="node"><title>P75</title>
<ellipse fill="#ff8a8a" stroke="#b43f3f" cx="373" cy="-295" rx="36.2938" ry="18"/>
<text text-anchor="middle" x="373" y="-291.3" font-family="Times,serif" font-size="14.00">P75 (a)</text>
</g>
<!-- 0211 -->
<g id="node28" class="node"><title>0211</title>
<ellipse fill="#ff8a8a" stroke="#b43f3f" cx="278" cy="-295" rx="40.0939" ry="18"/>
<text text-anchor="middle" x="278" y="-291.3" font-family="Times,serif" font-size="14.00">0211 (a)</text>
</g>
</g>
</svg>
