<?xml version="1.0" encoding="UTF-8" standalone="no"?>
<!DOCTYPE svg PUBLIC "-//W3C//DTD SVG 1.1//EN"
 "http://www.w3.org/Graphics/SVG/1.1/DTD/svg11.dtd">
<!-- Generated by graphviz version 2.38.0 (20140413.2041)
 -->
<!-- Title: %3 Pages: 1 -->
<svg width="971pt" height="337pt"
 viewBox="0.00 0.00 971.00 337.00" xmlns="http://www.w3.org/2000/svg" xmlns:xlink="http://www.w3.org/1999/xlink">
<g id="graph0" class="graph" transform="scale(1 1) rotate(0) translate(4 333)">
<title>%3</title>
<polygon fill="white" stroke="none" points="-4,4 -4,-333 967,-333 967,4 -4,4"/>
<g id="clust1" class="cluster"><title>cluster_legend</title>
<path fill="none" stroke="black" d="M20,-193C20,-193 210,-193 210,-193 216,-193 222,-199 222,-205 222,-205 222,-309 222,-309 222,-315 216,-321 210,-321 210,-321 20,-321 20,-321 14,-321 8,-315 8,-309 8,-309 8,-205 8,-205 8,-199 14,-193 20,-193"/>
</g>
<g id="clust2" class="cluster"><title>cluster_reading</title>
<polygon fill="none" stroke="black" points="230,-8 230,-321 955,-321 955,-8 230,-8"/>
</g>
<!-- leg_s -->
<g id="node1" class="node"><title>leg_s</title>
<text text-anchor="middle" x="115" y="-291.3" font-family="Times,serif" font-size="14.00">Textual flow strength</text>
</g>
<!-- leg_e1 -->
<!-- leg_s&#45;&gt;leg_e1 -->
<g id="edge1" class="edge"><title>leg_s&#45;&gt;leg_e1</title>
<path fill="none" stroke="black" stroke-dasharray="1,5" d="M96.6657,-276.686C91.1324,-271.194 85.1607,-264.989 80,-259 70.1708,-247.593 60.0722,-233.779 52.9137,-223.563"/>
<polygon fill="black" stroke="black" points="55.6142,-221.314 47.056,-215.068 49.8514,-225.288 55.6142,-221.314"/>
<text text-anchor="middle" x="95.5" y="-247.8" font-family="Times,serif" font-size="14.00">&lt;=5 &#160;</text>
</g>
<!-- leg_e2 -->
<!-- leg_s&#45;&gt;leg_e2 -->
<g id="edge2" class="edge"><title>leg_s&#45;&gt;leg_e2</title>
<path fill="none" stroke="black" stroke-dasharray="5,2" d="M115,-276.799C115,-261.794 115,-240.174 115,-225.409"/>
<polygon fill="black" stroke="black" points="118.5,-225.293 115,-215.293 111.5,-225.293 118.5,-225.293"/>
<text text-anchor="middle" x="134" y="-247.8" font-family="Times,serif" font-size="14.00"> &#160;&lt;=25</text>
</g>
<!-- leg_e3 -->
<!-- leg_s&#45;&gt;leg_e3 -->
<g id="edge3" class="edge"><title>leg_s&#45;&gt;leg_e3</title>
<path fill="none" stroke="black" d="M138.503,-276.76C144.906,-271.462 151.567,-265.344 157,-259 166.087,-248.39 174.095,-234.689 179.546,-224.313"/>
<polygon fill="black" stroke="black" points="182.722,-225.789 184.091,-215.283 176.469,-222.642 182.722,-225.789"/>
<text text-anchor="middle" x="179" y="-247.8" font-family="Times,serif" font-size="14.00">&gt;25</text>
</g>
<!-- 044 -->
<g id="node5" class="node"><title>044</title>
<ellipse fill="#ff8a8a" stroke="#b43f3f" cx="816" cy="-208" rx="36.2938" ry="18"/>
<text text-anchor="middle" x="816" y="-204.3" font-family="Times,serif" font-size="14.00">044 (a)</text>
</g>
<!-- 022 -->
<g id="node6" class="node"><title>022</title>
<ellipse fill="#ff8a8a" stroke="#b43f3f" cx="812" cy="-121" rx="36.2938" ry="18"/>
<text text-anchor="middle" x="812" y="-117.3" font-family="Times,serif" font-size="14.00">022 (a)</text>
</g>
<!-- 044&#45;&gt;022 -->
<g id="edge4" class="edge"><title>044&#45;&gt;022</title>
<path fill="none" stroke="#b43f3f" stroke-dasharray="1,5" d="M815.191,-189.799C814.643,-178.163 813.908,-162.548 813.282,-149.237"/>
<polygon fill="#b43f3f" stroke="#b43f3f" points="816.775,-149 812.808,-139.175 809.782,-149.329 816.775,-149"/>
<text text-anchor="middle" x="836" y="-160.8" font-family="Times,serif" font-size="14.00">1 (91.7)</text>
</g>
<!-- 0141 -->
<g id="node7" class="node"><title>0141</title>
<ellipse fill="#ff8a8a" stroke="#b43f3f" cx="907" cy="-121" rx="40.0939" ry="18"/>
<text text-anchor="middle" x="907" y="-117.3" font-family="Times,serif" font-size="14.00">0141 (a)</text>
</g>
<!-- 044&#45;&gt;0141 -->
<g id="edge5" class="edge"><title>044&#45;&gt;0141</title>
<path fill="none" stroke="#b43f3f" stroke-dasharray="1,5" d="M836.353,-192.793C844.595,-186.718 854.027,-179.341 862,-172 870.594,-164.087 879.342,-154.723 886.812,-146.252"/>
<polygon fill="#b43f3f" stroke="#b43f3f" points="889.641,-148.331 893.536,-138.479 884.347,-143.752 889.641,-148.331"/>
<text text-anchor="middle" x="898" y="-160.8" font-family="Times,serif" font-size="14.00">1 (89.2)</text>
</g>
<!-- 031 -->
<g id="node8" class="node"><title>031</title>
<ellipse fill="#ff8a8a" stroke="#b43f3f" cx="276" cy="-121" rx="36.2938" ry="18"/>
<text text-anchor="middle" x="276" y="-117.3" font-family="Times,serif" font-size="14.00">031 (a)</text>
</g>
<!-- 013 -->
<g id="node9" class="node"><title>013</title>
<ellipse fill="#ff8a8a" stroke="#b43f3f" cx="274" cy="-34" rx="36.2938" ry="18"/>
<text text-anchor="middle" x="274" y="-30.3" font-family="Times,serif" font-size="14.00">013 (a)</text>
</g>
<!-- 031&#45;&gt;013 -->
<g id="edge6" class="edge"><title>031&#45;&gt;013</title>
<path fill="none" stroke="#b43f3f" stroke-dasharray="1,5" d="M275.595,-102.799C275.321,-91.1626 274.954,-75.5479 274.641,-62.2368"/>
<polygon fill="#b43f3f" stroke="#b43f3f" points="278.138,-62.0903 274.404,-52.1754 271.14,-62.255 278.138,-62.0903"/>
<text text-anchor="middle" x="298" y="-73.8" font-family="Times,serif" font-size="14.00">1 (97.1)</text>
</g>
<!-- 017 -->
<g id="node10" class="node"><title>017</title>
<ellipse fill="#ff8a8a" stroke="#b43f3f" cx="365" cy="-34" rx="36.2938" ry="18"/>
<text text-anchor="middle" x="365" y="-30.3" font-family="Times,serif" font-size="14.00">017 (a)</text>
</g>
<!-- 031&#45;&gt;017 -->
<g id="edge7" class="edge"><title>031&#45;&gt;017</title>
<path fill="none" stroke="#b43f3f" stroke-dasharray="1,5" d="M297.461,-106.102C306.095,-100.074 315.903,-92.6494 324,-85 332.201,-77.2521 340.281,-67.8817 347.073,-59.3567"/>
<polygon fill="#b43f3f" stroke="#b43f3f" points="350.031,-61.2531 353.39,-51.205 344.498,-56.965 350.031,-61.2531"/>
<text text-anchor="middle" x="360" y="-73.8" font-family="Times,serif" font-size="14.00">1 (94.3)</text>
</g>
<!-- 03 -->
<g id="node11" class="node"><title>03</title>
<ellipse fill="#ff8a8a" stroke="#b43f3f" cx="862" cy="-295" rx="31.6951" ry="18"/>
<text text-anchor="middle" x="862" y="-291.3" font-family="Times,serif" font-size="14.00">03 (a)</text>
</g>
<!-- 03&#45;&gt;044 -->
<g id="edge8" class="edge"><title>03&#45;&gt;044</title>
<path fill="none" stroke="#b43f3f" stroke-dasharray="1,5" d="M847.407,-278.868C842.33,-273.009 836.928,-266.025 833,-259 829.018,-251.878 825.75,-243.664 823.18,-235.979"/>
<polygon fill="#b43f3f" stroke="#b43f3f" points="826.493,-234.844 820.204,-226.318 819.803,-236.905 826.493,-234.844"/>
<text text-anchor="middle" x="855" y="-247.8" font-family="Times,serif" font-size="14.00">1 (89.2)</text>
</g>
<!-- 032 -->
<g id="node12" class="node"><title>032</title>
<ellipse fill="#ff8a8a" stroke="#b43f3f" cx="907" cy="-208" rx="36.2938" ry="18"/>
<text text-anchor="middle" x="907" y="-204.3" font-family="Times,serif" font-size="14.00">032 (a)</text>
</g>
<!-- 03&#45;&gt;032 -->
<g id="edge9" class="edge"><title>03&#45;&gt;032</title>
<path fill="none" stroke="#b43f3f" stroke-dasharray="1,5" d="M870.676,-277.611C877.109,-265.46 886.004,-248.66 893.381,-234.725"/>
<polygon fill="#b43f3f" stroke="#b43f3f" points="896.611,-236.104 898.197,-225.629 890.424,-232.829 896.611,-236.104"/>
<text text-anchor="middle" x="909" y="-247.8" font-family="Times,serif" font-size="14.00">1 (91.7)</text>
</g>
<!-- 063 -->
<g id="node13" class="node"><title>063</title>
<ellipse fill="#ff8a8a" stroke="#b43f3f" cx="539" cy="-208" rx="36.2938" ry="18"/>
<text text-anchor="middle" x="539" y="-204.3" font-family="Times,serif" font-size="14.00">063 (a)</text>
</g>
<!-- 063&#45;&gt;031 -->
<g id="edge10" class="edge"><title>063&#45;&gt;031</title>
<path fill="none" stroke="#b43f3f" stroke-dasharray="1,5" d="M503.58,-203.595C466.947,-199.261 408.55,-190.058 361,-172 340.878,-164.359 320.02,-152.164 304.002,-141.731"/>
<polygon fill="#b43f3f" stroke="#b43f3f" points="305.899,-138.789 295.636,-136.156 302.017,-144.614 305.899,-138.789"/>
<text text-anchor="middle" x="383" y="-160.8" font-family="Times,serif" font-size="14.00">1 (95.8)</text>
</g>
<!-- 011 -->
<g id="node14" class="node"><title>011</title>
<ellipse fill="#ff8a8a" stroke="#b43f3f" cx="367" cy="-121" rx="36.2938" ry="18"/>
<text text-anchor="middle" x="367" y="-117.3" font-family="Times,serif" font-size="14.00">011 (a)</text>
</g>
<!-- 063&#45;&gt;011 -->
<g id="edge11" class="edge"><title>063&#45;&gt;011</title>
<path fill="none" stroke="#b43f3f" stroke-dasharray="1,5" d="M506.626,-199.68C484.528,-193.934 455.021,-184.76 431,-172 416.771,-164.442 402.494,-153.669 391.046,-144.058"/>
<polygon fill="#b43f3f" stroke="#b43f3f" points="393.108,-141.214 383.252,-137.327 388.533,-146.512 393.108,-141.214"/>
<text text-anchor="middle" x="453" y="-160.8" font-family="Times,serif" font-size="14.00">1 (93.1)</text>
</g>
<!-- 07 -->
<g id="node15" class="node"><title>07</title>
<ellipse fill="#ff8a8a" stroke="#b43f3f" cx="453" cy="-121" rx="31.6951" ry="18"/>
<text text-anchor="middle" x="453" y="-117.3" font-family="Times,serif" font-size="14.00">07 (a)</text>
</g>
<!-- 063&#45;&gt;07 -->
<g id="edge12" class="edge"><title>063&#45;&gt;07</title>
<path fill="none" stroke="#b43f3f" stroke-dasharray="1,5" d="M517.396,-193.25C508.74,-187.245 498.954,-179.798 491,-172 483.175,-164.329 475.638,-154.975 469.368,-146.442"/>
<polygon fill="#b43f3f" stroke="#b43f3f" points="472.206,-144.394 463.557,-138.275 466.503,-148.452 472.206,-144.394"/>
<text text-anchor="middle" x="513" y="-160.8" font-family="Times,serif" font-size="14.00">1 (96.6)</text>
</g>
<!-- 045 -->
<g id="node16" class="node"><title>045</title>
<ellipse fill="#ff8a8a" stroke="#b43f3f" cx="539" cy="-121" rx="36.2938" ry="18"/>
<text text-anchor="middle" x="539" y="-117.3" font-family="Times,serif" font-size="14.00">045 (a)</text>
</g>
<!-- 063&#45;&gt;045 -->
<g id="edge13" class="edge"><title>063&#45;&gt;045</title>
<path fill="none" stroke="#b43f3f" stroke-dasharray="1,5" d="M539,-189.799C539,-178.163 539,-162.548 539,-149.237"/>
<polygon fill="#b43f3f" stroke="#b43f3f" points="542.5,-149.175 539,-139.175 535.5,-149.175 542.5,-149.175"/>
<text text-anchor="middle" x="561" y="-160.8" font-family="Times,serif" font-size="14.00">1 (93.1)</text>
</g>
<!-- 021 -->
<g id="node17" class="node"><title>021</title>
<ellipse fill="#ff8a8a" stroke="#b43f3f" cx="630" cy="-121" rx="36.2938" ry="18"/>
<text text-anchor="middle" x="630" y="-117.3" font-family="Times,serif" font-size="14.00">021 (a)</text>
</g>
<!-- 063&#45;&gt;021 -->
<g id="edge14" class="edge"><title>063&#45;&gt;021</title>
<path fill="none" stroke="#b43f3f" stroke-dasharray="1,5" d="M560.372,-193.006C568.992,-186.963 578.814,-179.554 587,-172 595.544,-164.115 604.076,-154.619 611.26,-146.029"/>
<polygon fill="#b43f3f" stroke="#b43f3f" points="614.077,-148.113 617.692,-138.155 608.656,-143.685 614.077,-148.113"/>
<text text-anchor="middle" x="623" y="-160.8" font-family="Times,serif" font-size="14.00">1 (93.1)</text>
</g>
<!-- 028 -->
<g id="node18" class="node"><title>028</title>
<ellipse fill="#ff8a8a" stroke="#b43f3f" cx="721" cy="-121" rx="36.2938" ry="18"/>
<text text-anchor="middle" x="721" y="-117.3" font-family="Times,serif" font-size="14.00">028 (a)</text>
</g>
<!-- 063&#45;&gt;028 -->
<g id="edge15" class="edge"><title>063&#45;&gt;028</title>
<path fill="none" stroke="#b43f3f" stroke-dasharray="1,5" d="M571.267,-199.461C593.727,-193.566 624.009,-184.305 649,-172 665.128,-164.059 681.702,-152.801 694.877,-142.977"/>
<polygon fill="#b43f3f" stroke="#b43f3f" points="697.176,-145.626 703.004,-136.778 692.931,-140.06 697.176,-145.626"/>
<text text-anchor="middle" x="696" y="-160.8" font-family="Times,serif" font-size="14.00">1 (96.6)</text>
</g>
<!-- 037 -->
<g id="node20" class="node"><title>037</title>
<ellipse fill="#ff8a8a" stroke="#b43f3f" cx="456" cy="-34" rx="36.2938" ry="18"/>
<text text-anchor="middle" x="456" y="-30.3" font-family="Times,serif" font-size="14.00">037 (a)</text>
</g>
<!-- 07&#45;&gt;037 -->
<g id="edge17" class="edge"><title>07&#45;&gt;037</title>
<path fill="none" stroke="#b43f3f" stroke-dasharray="1,5" d="M453.607,-102.799C454.018,-91.1626 454.569,-75.5479 455.039,-62.2368"/>
<polygon fill="#b43f3f" stroke="#b43f3f" points="458.539,-62.2927 455.394,-52.1754 451.543,-62.0457 458.539,-62.2927"/>
<text text-anchor="middle" x="477" y="-73.8" font-family="Times,serif" font-size="14.00">1 (97.5)</text>
</g>
<!-- 034 -->
<g id="node21" class="node"><title>034</title>
<ellipse fill="#ff8a8a" stroke="#b43f3f" cx="547" cy="-34" rx="36.2938" ry="18"/>
<text text-anchor="middle" x="547" y="-30.3" font-family="Times,serif" font-size="14.00">034 (a)</text>
</g>
<!-- 07&#45;&gt;034 -->
<g id="edge18" class="edge"><title>07&#45;&gt;034</title>
<path fill="none" stroke="#b43f3f" stroke-dasharray="1,5" d="M473.776,-107.075C483.098,-100.876 493.998,-93.0548 503,-85 511.75,-77.1702 520.482,-67.6848 527.833,-59.0893"/>
<polygon fill="#b43f3f" stroke="#b43f3f" points="530.693,-61.1242 534.413,-51.2039 525.319,-56.6393 530.693,-61.1242"/>
<text text-anchor="middle" x="540" y="-73.8" font-family="Times,serif" font-size="14.00">1 (95.1)</text>
</g>
<!-- 030 -->
<g id="node22" class="node"><title>030</title>
<ellipse fill="#ff8a8a" stroke="#b43f3f" cx="638" cy="-34" rx="36.2938" ry="18"/>
<text text-anchor="middle" x="638" y="-30.3" font-family="Times,serif" font-size="14.00">030 (a)</text>
</g>
<!-- 07&#45;&gt;030 -->
<g id="edge19" class="edge"><title>07&#45;&gt;030</title>
<path fill="none" stroke="#b43f3f" stroke-dasharray="1,5" d="M477.493,-109.152C482.875,-106.963 488.586,-104.788 494,-103 525.321,-92.6548 535.963,-98.6299 566,-85 582.484,-77.5201 599.193,-66.1969 612.36,-56.2166"/>
<polygon fill="#b43f3f" stroke="#b43f3f" points="614.724,-58.8118 620.463,-49.906 610.423,-53.2891 614.724,-58.8118"/>
<text text-anchor="middle" x="614" y="-73.8" font-family="Times,serif" font-size="14.00">1 (95.1)</text>
</g>
<!-- 038 -->
<g id="node23" class="node"><title>038</title>
<ellipse fill="#ff8a8a" stroke="#b43f3f" cx="729" cy="-34" rx="36.2938" ry="18"/>
<text text-anchor="middle" x="729" y="-30.3" font-family="Times,serif" font-size="14.00">038 (a)</text>
</g>
<!-- 045&#45;&gt;038 -->
<g id="edge20" class="edge"><title>045&#45;&gt;038</title>
<path fill="none" stroke="#b43f3f" stroke-dasharray="1,5" d="M567.159,-109.403C573.04,-107.243 579.211,-105.016 585,-103 609.289,-94.5405 616.453,-95.3483 640,-85 660.124,-76.1558 681.64,-64.1448 698.475,-54.1115"/>
<polygon fill="#b43f3f" stroke="#b43f3f" points="700.559,-56.9414 707.307,-48.7737 696.938,-50.9505 700.559,-56.9414"/>
<text text-anchor="middle" x="693" y="-73.8" font-family="Times,serif" font-size="14.00">1 (92.7)</text>
</g>
<!-- 036 -->
<g id="node24" class="node"><title>036</title>
<ellipse fill="#ff8a8a" stroke="#b43f3f" cx="820" cy="-34" rx="36.2938" ry="18"/>
<text text-anchor="middle" x="820" y="-30.3" font-family="Times,serif" font-size="14.00">036 (a)</text>
</g>
<!-- 021&#45;&gt;036 -->
<g id="edge21" class="edge"><title>021&#45;&gt;036</title>
<path fill="none" stroke="#b43f3f" stroke-dasharray="1,5" d="M658.312,-109.57C675.927,-102.908 698.963,-93.8801 719,-85 741.905,-74.8488 767.165,-62.3433 786.694,-52.3784"/>
<polygon fill="#b43f3f" stroke="#b43f3f" points="788.487,-55.3924 795.785,-47.7121 785.29,-49.1648 788.487,-55.3924"/>
<text text-anchor="middle" x="771" y="-73.8" font-family="Times,serif" font-size="14.00">1 (97.6)</text>
</g>
<!-- 047 -->
<g id="node25" class="node"><title>047</title>
<ellipse fill="#ff8a8a" stroke="#b43f3f" cx="911" cy="-34" rx="36.2938" ry="18"/>
<text text-anchor="middle" x="911" y="-30.3" font-family="Times,serif" font-size="14.00">047 (a)</text>
</g>
<!-- 021&#45;&gt;047 -->
<g id="edge22" class="edge"><title>021&#45;&gt;047</title>
<path fill="none" stroke="#b43f3f" stroke-dasharray="1,5" d="M657.437,-108.811C663.478,-106.644 669.897,-104.564 676,-103 728.668,-89.5046 744.755,-100.052 797,-85 825.347,-76.8333 855.875,-63.1603 878.2,-52.1748"/>
<polygon fill="#b43f3f" stroke="#b43f3f" points="879.857,-55.2593 887.235,-47.6552 876.725,-48.9989 879.857,-55.2593"/>
<text text-anchor="middle" x="860" y="-73.8" font-family="Times,serif" font-size="14.00">1 (95.1)</text>
</g>
<!-- 019 -->
<g id="node19" class="node"><title>019</title>
<ellipse fill="#ff8a8a" stroke="#b43f3f" cx="545" cy="-295" rx="36.2938" ry="18"/>
<text text-anchor="middle" x="545" y="-291.3" font-family="Times,serif" font-size="14.00">019 (a)</text>
</g>
<!-- 019&#45;&gt;063 -->
<g id="edge16" class="edge"><title>019&#45;&gt;063</title>
<path fill="none" stroke="#b43f3f" stroke-dasharray="1,5" d="M543.786,-276.799C542.964,-265.163 541.862,-249.548 540.923,-236.237"/>
<polygon fill="#b43f3f" stroke="#b43f3f" points="544.408,-235.904 540.212,-226.175 537.425,-236.397 544.408,-235.904"/>
<text text-anchor="middle" x="565" y="-247.8" font-family="Times,serif" font-size="14.00">1 (85.7)</text>
</g>
<!-- 01 -->
<g id="node26" class="node"><title>01</title>
<ellipse fill="#ff8a8a" stroke="#b43f3f" cx="459" cy="-295" rx="31.6951" ry="18"/>
<text text-anchor="middle" x="459" y="-291.3" font-family="Times,serif" font-size="14.00">01 (a)</text>
</g>
<!-- P75 -->
<g id="node27" class="node"><title>P75</title>
<ellipse fill="#ff8a8a" stroke="#b43f3f" cx="373" cy="-295" rx="36.2938" ry="18"/>
<text text-anchor="middle" x="373" y="-291.3" font-family="Times,serif" font-size="14.00">P75 (a)</text>
</g>
<!-- 0211 -->
<g id="node28" class="node"><title>0211</title>
<ellipse fill="#ff8a8a" stroke="#b43f3f" cx="278" cy="-295" rx="40.0939" ry="18"/>
<text text-anchor="middle" x="278" y="-291.3" font-family="Times,serif" font-size="14.00">0211 (a)</text>
</g>
</g>
</svg>
