<?xml version="1.0" encoding="UTF-8" standalone="no"?>
<!DOCTYPE svg PUBLIC "-//W3C//DTD SVG 1.1//EN"
 "http://www.w3.org/Graphics/SVG/1.1/DTD/svg11.dtd">
<!-- Generated by graphviz version 2.38.0 (20140413.2041)
 -->
<!-- Title: %3 Pages: 1 -->
<svg width="508pt" height="141pt"
 viewBox="0.00 0.00 508.00 141.00" xmlns="http://www.w3.org/2000/svg" xmlns:xlink="http://www.w3.org/1999/xlink">
<g id="graph0" class="graph" transform="scale(1 1) rotate(0) translate(4 137)">
<title>%3</title>
<polygon fill="white" stroke="none" points="-4,4 -4,-137 504,-137 504,4 -4,4"/>
<g id="clust1" class="cluster"><title>cluster_reading</title>
<polygon fill="none" stroke="black" points="8,-73 8,-125 270,-125 270,-73 8,-73"/>
</g>
<g id="clust2" class="cluster"><title>cluster_legend</title>
<path fill="none" stroke="black" d="M290,-8C290,-8 480,-8 480,-8 486,-8 492,-14 492,-20 492,-20 492,-113 492,-113 492,-119 486,-125 480,-125 480,-125 290,-125 290,-125 284,-125 278,-119 278,-113 278,-113 278,-20 278,-20 278,-14 284,-8 290,-8"/>
</g>
<!-- 05 -->
<g id="node1" class="node"><title>05</title>
<ellipse fill="#cea8f4" stroke="#835da9" cx="230" cy="-99" rx="32.4942" ry="18"/>
<text text-anchor="middle" x="230" y="-95.3" font-family="Times,serif" font-size="14.00">05 (b)</text>
</g>
<!-- 044 -->
<g id="node2" class="node"><title>044</title>
<ellipse fill="#cea8f4" stroke="#835da9" cx="143" cy="-99" rx="36.2938" ry="18"/>
<text text-anchor="middle" x="143" y="-95.3" font-family="Times,serif" font-size="14.00">044 (b)</text>
</g>
<!-- 032 -->
<g id="node3" class="node"><title>032</title>
<ellipse fill="#cea8f4" stroke="#835da9" cx="52" cy="-99" rx="36.2938" ry="18"/>
<text text-anchor="middle" x="52" y="-95.3" font-family="Times,serif" font-size="14.00">032 (b)</text>
</g>
<!-- leg_s -->
<g id="node4" class="node"><title>leg_s</title>
<text text-anchor="middle" x="385" y="-95.3" font-family="Times,serif" font-size="14.00">Textual flow strength</text>
</g>
<!-- leg_e1 -->
<!-- leg_s&#45;&gt;leg_e1 -->
<g id="edge1" class="edge"><title>leg_s&#45;&gt;leg_e1</title>
<path fill="none" stroke="black" stroke-dasharray="1,5" d="M367.82,-80.9995C362.117,-75.3088 355.756,-68.9096 350,-63 341.856,-54.6386 332.839,-45.1391 325.745,-37.609"/>
<polygon fill="black" stroke="black" points="327.866,-34.7543 318.469,-29.8601 322.763,-39.5459 327.866,-34.7543"/>
<text text-anchor="middle" x="365.5" y="-51.8" font-family="Times,serif" font-size="14.00">&lt;=5 &#160;</text>
</g>
<!-- leg_e2 -->
<!-- leg_s&#45;&gt;leg_e2 -->
<g id="edge2" class="edge"><title>leg_s&#45;&gt;leg_e2</title>
<path fill="none" stroke="black" stroke-dasharray="5,2" d="M385,-80.8369C385,-68.6686 385,-52.4362 385,-40.4345"/>
<polygon fill="black" stroke="black" points="388.5,-40.1502 385,-30.1503 381.5,-40.1503 388.5,-40.1502"/>
<text text-anchor="middle" x="404" y="-51.8" font-family="Times,serif" font-size="14.00"> &#160;&lt;=25</text>
</g>
<!-- leg_e3 -->
<!-- leg_s&#45;&gt;leg_e3 -->
<g id="edge3" class="edge"><title>leg_s&#45;&gt;leg_e3</title>
<path fill="none" stroke="black" d="M407.608,-80.7027C414.13,-75.311 421.079,-69.1572 427,-63 434.325,-55.3835 441.576,-46.0214 447.114,-38.3792"/>
<polygon fill="black" stroke="black" points="450.017,-40.3356 452.909,-30.1433 444.292,-36.3072 450.017,-40.3356"/>
<text text-anchor="middle" x="450" y="-51.8" font-family="Times,serif" font-size="14.00">&gt;25</text>
</g>
</g>
</svg>
