<?xml version="1.0" encoding="UTF-8" standalone="no"?>
<!DOCTYPE svg PUBLIC "-//W3C//DTD SVG 1.1//EN"
 "http://www.w3.org/Graphics/SVG/1.1/DTD/svg11.dtd">
<!-- Generated by graphviz version 2.38.0 (20140413.2041)
 -->
<!-- Title: %3 Pages: 1 -->
<svg width="971pt" height="424pt"
 viewBox="0.00 0.00 971.00 424.00" xmlns="http://www.w3.org/2000/svg" xmlns:xlink="http://www.w3.org/1999/xlink">
<g id="graph0" class="graph" transform="scale(1 1) rotate(0) translate(4 420)">
<title>%3</title>
<polygon fill="white" stroke="none" points="-4,4 -4,-420 967,-420 967,4 -4,4"/>
<g id="clust1" class="cluster"><title>cluster_legend</title>
<path fill="none" stroke="black" d="M20,-280C20,-280 210,-280 210,-280 216,-280 222,-286 222,-292 222,-292 222,-396 222,-396 222,-402 216,-408 210,-408 210,-408 20,-408 20,-408 14,-408 8,-402 8,-396 8,-396 8,-292 8,-292 8,-286 14,-280 20,-280"/>
</g>
<g id="clust2" class="cluster"><title>cluster_reading</title>
<polygon fill="none" stroke="black" points="230,-8 230,-408 955,-408 955,-8 230,-8"/>
</g>
<!-- leg_s -->
<g id="node1" class="node"><title>leg_s</title>
<text text-anchor="middle" x="115" y="-378.3" font-family="Times,serif" font-size="14.00">Textual flow strength</text>
</g>
<!-- leg_e1 -->
<!-- leg_s&#45;&gt;leg_e1 -->
<g id="edge1" class="edge"><title>leg_s&#45;&gt;leg_e1</title>
<path fill="none" stroke="black" stroke-dasharray="1,5" d="M96.6657,-363.686C91.1324,-358.194 85.1607,-351.989 80,-346 70.1708,-334.593 60.0722,-320.779 52.9137,-310.563"/>
<polygon fill="black" stroke="black" points="55.6142,-308.314 47.056,-302.068 49.8514,-312.288 55.6142,-308.314"/>
<text text-anchor="middle" x="95.5" y="-334.8" font-family="Times,serif" font-size="14.00">&lt;=5 &#160;</text>
</g>
<!-- leg_e2 -->
<!-- leg_s&#45;&gt;leg_e2 -->
<g id="edge2" class="edge"><title>leg_s&#45;&gt;leg_e2</title>
<path fill="none" stroke="black" stroke-dasharray="5,2" d="M115,-363.799C115,-348.794 115,-327.174 115,-312.409"/>
<polygon fill="black" stroke="black" points="118.5,-312.293 115,-302.293 111.5,-312.293 118.5,-312.293"/>
<text text-anchor="middle" x="134" y="-334.8" font-family="Times,serif" font-size="14.00"> &#160;&lt;=25</text>
</g>
<!-- leg_e3 -->
<!-- leg_s&#45;&gt;leg_e3 -->
<g id="edge3" class="edge"><title>leg_s&#45;&gt;leg_e3</title>
<path fill="none" stroke="black" d="M138.503,-363.76C144.906,-358.462 151.567,-352.344 157,-346 166.087,-335.39 174.095,-321.689 179.546,-311.313"/>
<polygon fill="black" stroke="black" points="182.722,-312.789 184.091,-302.283 176.469,-309.642 182.722,-312.789"/>
<text text-anchor="middle" x="179" y="-334.8" font-family="Times,serif" font-size="14.00">&gt;25</text>
</g>
<!-- A -->
<g id="node5" class="node"><title>A</title>
<ellipse fill="#ff8a8a" stroke="#b43f3f" cx="700" cy="-382" rx="29.4969" ry="18"/>
<text text-anchor="middle" x="700" y="-378.3" font-family="Times,serif" font-size="14.00">A (a)</text>
</g>
<!-- P75 -->
<g id="node6" class="node"><title>P75</title>
<ellipse fill="#ff8a8a" stroke="#b43f3f" cx="566" cy="-295" rx="36.2938" ry="18"/>
<text text-anchor="middle" x="566" y="-291.3" font-family="Times,serif" font-size="14.00">P75 (a)</text>
</g>
<!-- A&#45;&gt;P75 -->
<g id="edge4" class="edge"><title>A&#45;&gt;P75</title>
<path fill="none" stroke="#b43f3f" stroke-dasharray="1,5" d="M674.411,-372.796C657.6,-366.769 635.555,-357.617 618,-346 606.74,-338.548 595.741,-328.505 586.781,-319.375"/>
<polygon fill="#b43f3f" stroke="#b43f3f" points="589.197,-316.837 579.773,-311.997 584.122,-321.658 589.197,-316.837"/>
<text text-anchor="middle" x="640" y="-334.8" font-family="Times,serif" font-size="14.00">1 (93.3)</text>
</g>
<!-- 019 -->
<g id="node7" class="node"><title>019</title>
<ellipse fill="#ff8a8a" stroke="#b43f3f" cx="657" cy="-295" rx="36.2938" ry="18"/>
<text text-anchor="middle" x="657" y="-291.3" font-family="Times,serif" font-size="14.00">019 (a)</text>
</g>
<!-- A&#45;&gt;019 -->
<g id="edge5" class="edge"><title>A&#45;&gt;019</title>
<path fill="none" stroke="#b43f3f" stroke-dasharray="1,5" d="M685.796,-365.872C680.881,-360.013 675.687,-353.029 672,-346 668.295,-338.937 665.365,-330.822 663.115,-323.213"/>
<polygon fill="#b43f3f" stroke="#b43f3f" points="666.427,-322.049 660.459,-313.295 659.665,-323.86 666.427,-322.049"/>
<text text-anchor="middle" x="694" y="-334.8" font-family="Times,serif" font-size="14.00">1 (93.3)</text>
</g>
<!-- 03 -->
<g id="node8" class="node"><title>03</title>
<ellipse fill="#ff8a8a" stroke="#b43f3f" cx="743" cy="-295" rx="31.6951" ry="18"/>
<text text-anchor="middle" x="743" y="-291.3" font-family="Times,serif" font-size="14.00">03 (a)</text>
</g>
<!-- A&#45;&gt;03 -->
<g id="edge6" class="edge"><title>A&#45;&gt;03</title>
<path fill="none" stroke="#b43f3f" stroke-dasharray="1,5" d="M708.291,-364.611C714.438,-352.46 722.937,-335.66 729.986,-321.725"/>
<polygon fill="#b43f3f" stroke="#b43f3f" points="733.197,-323.132 734.588,-312.629 726.951,-319.972 733.197,-323.132"/>
<text text-anchor="middle" x="746" y="-334.8" font-family="Times,serif" font-size="14.00">1 (93.3)</text>
</g>
<!-- 091 -->
<g id="node9" class="node"><title>091</title>
<ellipse fill="#ff8a8a" stroke="#b43f3f" cx="869" cy="-295" rx="36.2938" ry="18"/>
<text text-anchor="middle" x="869" y="-291.3" font-family="Times,serif" font-size="14.00">091 (a)</text>
</g>
<!-- A&#45;&gt;091 -->
<g id="edge7" class="edge"><title>A&#45;&gt;091</title>
<path fill="none" stroke="#b43f3f" stroke-dasharray="1,5" d="M722.445,-370.256C736.683,-363.4 755.471,-354.276 772,-346 793.304,-335.333 817.084,-323.081 835.767,-313.375"/>
<polygon fill="#b43f3f" stroke="#b43f3f" points="837.509,-316.414 844.764,-308.693 834.277,-310.204 837.509,-316.414"/>
<text text-anchor="middle" x="823" y="-334.8" font-family="Times,serif" font-size="14.00">1 (87.5)</text>
</g>
<!-- 063 -->
<g id="node16" class="node"><title>063</title>
<ellipse fill="#ff8a8a" stroke="#b43f3f" cx="566" cy="-208" rx="36.2938" ry="18"/>
<text text-anchor="middle" x="566" y="-204.3" font-family="Times,serif" font-size="14.00">063 (a)</text>
</g>
<!-- 019&#45;&gt;063 -->
<g id="edge13" class="edge"><title>019&#45;&gt;063</title>
<path fill="none" stroke="#b43f3f" stroke-dasharray="1,5" d="M640.731,-278.804C626.584,-265.59 605.9,-246.269 589.877,-231.303"/>
<polygon fill="#b43f3f" stroke="#b43f3f" points="592.132,-228.62 582.435,-224.351 587.354,-233.735 592.132,-228.62"/>
<text text-anchor="middle" x="639" y="-247.8" font-family="Times,serif" font-size="14.00">1 (85.7)</text>
</g>
<!-- 044 -->
<g id="node17" class="node"><title>044</title>
<ellipse fill="#ff8a8a" stroke="#b43f3f" cx="657" cy="-208" rx="36.2938" ry="18"/>
<text text-anchor="middle" x="657" y="-204.3" font-family="Times,serif" font-size="14.00">044 (a)</text>
</g>
<!-- 03&#45;&gt;044 -->
<g id="edge14" class="edge"><title>03&#45;&gt;044</title>
<path fill="none" stroke="#b43f3f" stroke-dasharray="1,5" d="M722.353,-280.912C713.467,-274.796 703.248,-267.086 695,-259 687.175,-251.329 679.638,-241.975 673.368,-233.442"/>
<polygon fill="#b43f3f" stroke="#b43f3f" points="676.206,-231.394 667.557,-225.275 670.503,-235.452 676.206,-231.394"/>
<text text-anchor="middle" x="717" y="-247.8" font-family="Times,serif" font-size="14.00">1 (89.2)</text>
</g>
<!-- 02 -->
<g id="node18" class="node"><title>02</title>
<ellipse fill="#ff8a8a" stroke="#b43f3f" cx="743" cy="-208" rx="31.6951" ry="18"/>
<text text-anchor="middle" x="743" y="-204.3" font-family="Times,serif" font-size="14.00">02 (a)</text>
</g>
<!-- 03&#45;&gt;02 -->
<g id="edge15" class="edge"><title>03&#45;&gt;02</title>
<path fill="none" stroke="#b43f3f" stroke-dasharray="1,5" d="M743,-276.799C743,-265.163 743,-249.548 743,-236.237"/>
<polygon fill="#b43f3f" stroke="#b43f3f" points="746.5,-236.175 743,-226.175 739.5,-236.175 746.5,-236.175"/>
<text text-anchor="middle" x="765" y="-247.8" font-family="Times,serif" font-size="14.00">1 (86.5)</text>
</g>
<!-- 032 -->
<g id="node19" class="node"><title>032</title>
<ellipse fill="#ff8a8a" stroke="#b43f3f" cx="829" cy="-208" rx="36.2938" ry="18"/>
<text text-anchor="middle" x="829" y="-204.3" font-family="Times,serif" font-size="14.00">032 (a)</text>
</g>
<!-- 03&#45;&gt;032 -->
<g id="edge16" class="edge"><title>03&#45;&gt;032</title>
<path fill="none" stroke="#b43f3f" stroke-dasharray="1,5" d="M763.647,-280.912C772.533,-274.796 782.752,-267.086 791,-259 798.825,-251.329 806.362,-241.975 812.632,-233.442"/>
<polygon fill="#b43f3f" stroke="#b43f3f" points="815.497,-235.452 818.443,-225.275 809.794,-231.394 815.497,-235.452"/>
<text text-anchor="middle" x="825" y="-247.8" font-family="Times,serif" font-size="14.00">1 (91.7)</text>
</g>
<!-- 05 -->
<g id="node25" class="node"><title>05</title>
<ellipse fill="#ff8a8a" stroke="#b43f3f" cx="915" cy="-208" rx="31.6951" ry="18"/>
<text text-anchor="middle" x="915" y="-204.3" font-family="Times,serif" font-size="14.00">05 (a)</text>
</g>
<!-- 091&#45;&gt;05 -->
<g id="edge23" class="edge"><title>091&#45;&gt;05</title>
<path fill="none" stroke="#b43f3f" stroke-dasharray="1,5" d="M878.088,-277.207C884.683,-265.021 893.722,-248.318 901.205,-234.491"/>
<polygon fill="#b43f3f" stroke="#b43f3f" points="904.406,-235.93 906.087,-225.469 898.25,-232.598 904.406,-235.93"/>
<text text-anchor="middle" x="916" y="-247.8" font-family="Times,serif" font-size="14.00">1 (87.5)</text>
</g>
<!-- 07 -->
<g id="node10" class="node"><title>07</title>
<ellipse fill="#ff8a8a" stroke="#b43f3f" cx="453" cy="-121" rx="31.6951" ry="18"/>
<text text-anchor="middle" x="453" y="-117.3" font-family="Times,serif" font-size="14.00">07 (a)</text>
</g>
<!-- 013 -->
<g id="node11" class="node"><title>013</title>
<ellipse fill="#ff8a8a" stroke="#b43f3f" cx="274" cy="-34" rx="36.2938" ry="18"/>
<text text-anchor="middle" x="274" y="-30.3" font-family="Times,serif" font-size="14.00">013 (a)</text>
</g>
<!-- 07&#45;&gt;013 -->
<g id="edge8" class="edge"><title>07&#45;&gt;013</title>
<path fill="none" stroke="#b43f3f" stroke-dasharray="1,5" d="M423.949,-112.961C401.905,-107.042 371.2,-97.5341 346,-85 329.904,-76.9941 313.333,-65.7308 300.151,-55.9207"/>
<polygon fill="#b43f3f" stroke="#b43f3f" points="302.096,-53.0023 292.018,-49.7328 297.857,-58.5732 302.096,-53.0023"/>
<text text-anchor="middle" x="368" y="-73.8" font-family="Times,serif" font-size="14.00">2 (95.1)</text>
</g>
<!-- 017 -->
<g id="node12" class="node"><title>017</title>
<ellipse fill="#ff8a8a" stroke="#b43f3f" cx="365" cy="-34" rx="36.2938" ry="18"/>
<text text-anchor="middle" x="365" y="-30.3" font-family="Times,serif" font-size="14.00">017 (a)</text>
</g>
<!-- 07&#45;&gt;017 -->
<g id="edge9" class="edge"><title>07&#45;&gt;017</title>
<path fill="none" stroke="#b43f3f" stroke-dasharray="1,5" d="M433.433,-106.595C424.958,-100.422 415.137,-92.7533 407,-85 398.666,-77.0584 390.335,-67.5499 383.316,-58.9672"/>
<polygon fill="#b43f3f" stroke="#b43f3f" points="386.009,-56.7301 377.031,-51.1034 380.54,-61.1003 386.009,-56.7301"/>
<text text-anchor="middle" x="429" y="-73.8" font-family="Times,serif" font-size="14.00">2 (92.7)</text>
</g>
<!-- 037 -->
<g id="node13" class="node"><title>037</title>
<ellipse fill="#ff8a8a" stroke="#b43f3f" cx="456" cy="-34" rx="36.2938" ry="18"/>
<text text-anchor="middle" x="456" y="-30.3" font-family="Times,serif" font-size="14.00">037 (a)</text>
</g>
<!-- 07&#45;&gt;037 -->
<g id="edge10" class="edge"><title>07&#45;&gt;037</title>
<path fill="none" stroke="#b43f3f" stroke-dasharray="1,5" d="M453.607,-102.799C454.018,-91.1626 454.569,-75.5479 455.039,-62.2368"/>
<polygon fill="#b43f3f" stroke="#b43f3f" points="458.539,-62.2927 455.394,-52.1754 451.543,-62.0457 458.539,-62.2927"/>
<text text-anchor="middle" x="477" y="-73.8" font-family="Times,serif" font-size="14.00">1 (97.5)</text>
</g>
<!-- 034 -->
<g id="node14" class="node"><title>034</title>
<ellipse fill="#ff8a8a" stroke="#b43f3f" cx="547" cy="-34" rx="36.2938" ry="18"/>
<text text-anchor="middle" x="547" y="-30.3" font-family="Times,serif" font-size="14.00">034 (a)</text>
</g>
<!-- 07&#45;&gt;034 -->
<g id="edge11" class="edge"><title>07&#45;&gt;034</title>
<path fill="none" stroke="#b43f3f" stroke-dasharray="1,5" d="M472.327,-106.335C480.757,-100.113 490.611,-92.4792 499,-85 508.215,-76.7847 517.753,-67.1238 525.875,-58.4953"/>
<polygon fill="#b43f3f" stroke="#b43f3f" points="528.655,-60.6455 532.887,-50.9326 523.521,-55.8864 528.655,-60.6455"/>
<text text-anchor="middle" x="537" y="-73.8" font-family="Times,serif" font-size="14.00">1 (95.1)</text>
</g>
<!-- 030 -->
<g id="node15" class="node"><title>030</title>
<ellipse fill="#ff8a8a" stroke="#b43f3f" cx="638" cy="-34" rx="36.2938" ry="18"/>
<text text-anchor="middle" x="638" y="-30.3" font-family="Times,serif" font-size="14.00">030 (a)</text>
</g>
<!-- 07&#45;&gt;030 -->
<g id="edge12" class="edge"><title>07&#45;&gt;030</title>
<path fill="none" stroke="#b43f3f" stroke-dasharray="1,5" d="M477.507,-109.194C482.889,-107.003 488.595,-104.816 494,-103 524.043,-92.9066 534.082,-97.9692 563,-85 580.146,-77.3104 597.708,-65.8339 611.523,-55.8148"/>
<polygon fill="#b43f3f" stroke="#b43f3f" points="613.664,-58.5847 619.604,-49.8117 609.49,-52.9655 613.664,-58.5847"/>
<text text-anchor="middle" x="612" y="-73.8" font-family="Times,serif" font-size="14.00">1 (95.1)</text>
</g>
<!-- 063&#45;&gt;07 -->
<g id="edge18" class="edge"><title>063&#45;&gt;07</title>
<path fill="none" stroke="#b43f3f" stroke-dasharray="1,5" d="M540.48,-194.888C528.609,-188.746 514.587,-180.74 503,-172 492.539,-164.11 482.11,-154.107 473.504,-145.125"/>
<polygon fill="#b43f3f" stroke="#b43f3f" points="475.838,-142.496 466.456,-137.574 470.72,-147.272 475.838,-142.496"/>
<text text-anchor="middle" x="525" y="-160.8" font-family="Times,serif" font-size="14.00">1 (96.6)</text>
</g>
<!-- 011 -->
<g id="node21" class="node"><title>011</title>
<ellipse fill="#ff8a8a" stroke="#b43f3f" cx="539" cy="-121" rx="36.2938" ry="18"/>
<text text-anchor="middle" x="539" y="-117.3" font-family="Times,serif" font-size="14.00">011 (a)</text>
</g>
<!-- 063&#45;&gt;011 -->
<g id="edge19" class="edge"><title>063&#45;&gt;011</title>
<path fill="none" stroke="#b43f3f" stroke-dasharray="1,5" d="M560.536,-189.799C556.779,-177.97 551.715,-162.03 547.442,-148.578"/>
<polygon fill="#b43f3f" stroke="#b43f3f" points="550.727,-147.356 544.364,-138.885 544.055,-149.476 550.727,-147.356"/>
<text text-anchor="middle" x="577" y="-160.8" font-family="Times,serif" font-size="14.00">1 (93.1)</text>
</g>
<!-- 045 -->
<g id="node22" class="node"><title>045</title>
<ellipse fill="#ff8a8a" stroke="#b43f3f" cx="630" cy="-121" rx="36.2938" ry="18"/>
<text text-anchor="middle" x="630" y="-117.3" font-family="Times,serif" font-size="14.00">045 (a)</text>
</g>
<!-- 063&#45;&gt;045 -->
<g id="edge20" class="edge"><title>063&#45;&gt;045</title>
<path fill="none" stroke="#b43f3f" stroke-dasharray="1,5" d="M583.529,-191.896C589.769,-186.04 596.584,-179.051 602,-172 607.663,-164.628 612.922,-155.976 617.318,-147.961"/>
<polygon fill="#b43f3f" stroke="#b43f3f" points="620.495,-149.439 622.054,-138.96 614.3,-146.18 620.495,-149.439"/>
<text text-anchor="middle" x="634" y="-160.8" font-family="Times,serif" font-size="14.00">1 (93.1)</text>
</g>
<!-- 021 -->
<g id="node23" class="node"><title>021</title>
<ellipse fill="#ff8a8a" stroke="#b43f3f" cx="721" cy="-121" rx="36.2938" ry="18"/>
<text text-anchor="middle" x="721" y="-117.3" font-family="Times,serif" font-size="14.00">021 (a)</text>
</g>
<!-- 063&#45;&gt;021 -->
<g id="edge21" class="edge"><title>063&#45;&gt;021</title>
<path fill="none" stroke="#b43f3f" stroke-dasharray="1,5" d="M594.151,-196.58C621.565,-186.424 659.233,-172.441 660,-172 673.246,-164.389 686.531,-153.916 697.307,-144.521"/>
<polygon fill="#b43f3f" stroke="#b43f3f" points="699.905,-146.892 705.015,-137.612 695.232,-141.68 699.905,-146.892"/>
<text text-anchor="middle" x="704" y="-160.8" font-family="Times,serif" font-size="14.00">1 (93.1)</text>
</g>
<!-- 028 -->
<g id="node24" class="node"><title>028</title>
<ellipse fill="#ff8a8a" stroke="#b43f3f" cx="812" cy="-121" rx="36.2938" ry="18"/>
<text text-anchor="middle" x="812" y="-117.3" font-family="Times,serif" font-size="14.00">028 (a)</text>
</g>
<!-- 063&#45;&gt;028 -->
<g id="edge22" class="edge"><title>063&#45;&gt;028</title>
<path fill="none" stroke="#b43f3f" stroke-dasharray="1,5" d="M593.441,-195.829C599.482,-193.66 605.9,-191.575 612,-190 663.366,-176.737 680.156,-190.165 730,-172 749.513,-164.889 769.449,-152.861 784.778,-142.385"/>
<polygon fill="#b43f3f" stroke="#b43f3f" points="787.063,-145.057 793.233,-136.445 783.038,-139.33 787.063,-145.057"/>
<text text-anchor="middle" x="782" y="-160.8" font-family="Times,serif" font-size="14.00">1 (96.6)</text>
</g>
<!-- 0141 -->
<g id="node20" class="node"><title>0141</title>
<ellipse fill="#ff8a8a" stroke="#b43f3f" cx="907" cy="-121" rx="40.0939" ry="18"/>
<text text-anchor="middle" x="907" y="-117.3" font-family="Times,serif" font-size="14.00">0141 (a)</text>
</g>
<!-- 044&#45;&gt;0141 -->
<g id="edge17" class="edge"><title>044&#45;&gt;0141</title>
<path fill="none" stroke="#b43f3f" stroke-dasharray="1,5" d="M684.329,-195.716C690.098,-193.606 696.196,-191.573 702,-190 748.121,-177.498 762.609,-186.938 808,-172 831.577,-164.241 856.512,-151.618 875.459,-140.997"/>
<polygon fill="#b43f3f" stroke="#b43f3f" points="877.302,-143.975 884.247,-135.974 873.828,-137.898 877.302,-143.975"/>
<text text-anchor="middle" x="866" y="-160.8" font-family="Times,serif" font-size="14.00">1 (89.2)</text>
</g>
<!-- 038 -->
<g id="node26" class="node"><title>038</title>
<ellipse fill="#ff8a8a" stroke="#b43f3f" cx="729" cy="-34" rx="36.2938" ry="18"/>
<text text-anchor="middle" x="729" y="-30.3" font-family="Times,serif" font-size="14.00">038 (a)</text>
</g>
<!-- 045&#45;&gt;038 -->
<g id="edge24" class="edge"><title>045&#45;&gt;038</title>
<path fill="none" stroke="#b43f3f" stroke-dasharray="1,5" d="M635.669,-102.97C639.898,-92.3909 646.58,-79.119 656,-70 661.812,-64.3735 677.157,-56.7306 692.286,-50.0221"/>
<polygon fill="#b43f3f" stroke="#b43f3f" points="693.806,-53.1781 701.591,-45.9922 691.024,-46.7546 693.806,-53.1781"/>
<text text-anchor="middle" x="678" y="-73.8" font-family="Times,serif" font-size="14.00">1 (92.7)</text>
</g>
<!-- 036 -->
<g id="node27" class="node"><title>036</title>
<ellipse fill="#ff8a8a" stroke="#b43f3f" cx="820" cy="-34" rx="36.2938" ry="18"/>
<text text-anchor="middle" x="820" y="-30.3" font-family="Times,serif" font-size="14.00">036 (a)</text>
</g>
<!-- 021&#45;&gt;036 -->
<g id="edge25" class="edge"><title>021&#45;&gt;036</title>
<path fill="none" stroke="#b43f3f" stroke-dasharray="1,5" d="M738.699,-104.804C754.326,-91.3869 777.285,-71.6744 794.823,-56.6164"/>
<polygon fill="#b43f3f" stroke="#b43f3f" points="797.147,-59.2345 802.454,-50.0647 792.587,-53.9235 797.147,-59.2345"/>
<text text-anchor="middle" x="798" y="-73.8" font-family="Times,serif" font-size="14.00">1 (97.6)</text>
</g>
<!-- 047 -->
<g id="node28" class="node"><title>047</title>
<ellipse fill="#ff8a8a" stroke="#b43f3f" cx="911" cy="-34" rx="36.2938" ry="18"/>
<text text-anchor="middle" x="911" y="-30.3" font-family="Times,serif" font-size="14.00">047 (a)</text>
</g>
<!-- 021&#45;&gt;047 -->
<g id="edge26" class="edge"><title>021&#45;&gt;047</title>
<path fill="none" stroke="#b43f3f" stroke-dasharray="1,5" d="M749.143,-109.356C755.025,-107.2 761.201,-104.986 767,-103 792.134,-94.3929 799.675,-95.6809 824,-85 843.784,-76.3129 864.82,-64.3067 881.25,-54.2367"/>
<polygon fill="#b43f3f" stroke="#b43f3f" points="883.226,-57.1297 889.867,-48.8749 879.527,-51.1864 883.226,-57.1297"/>
<text text-anchor="middle" x="875" y="-73.8" font-family="Times,serif" font-size="14.00">1 (95.1)</text>
</g>
<!-- 01 -->
<g id="node29" class="node"><title>01</title>
<ellipse fill="#ff8a8a" stroke="#b43f3f" cx="552" cy="-382" rx="31.6951" ry="18"/>
<text text-anchor="middle" x="552" y="-378.3" font-family="Times,serif" font-size="14.00">01 (a)</text>
</g>
<!-- 0211 -->
<g id="node30" class="node"><title>0211</title>
<ellipse fill="#ff8a8a" stroke="#b43f3f" cx="324" cy="-382" rx="40.0939" ry="18"/>
<text text-anchor="middle" x="324" y="-378.3" font-family="Times,serif" font-size="14.00">0211 (a)</text>
</g>
</g>
</svg>
