<?xml version="1.0" encoding="UTF-8" standalone="no"?>
<!DOCTYPE svg PUBLIC "-//W3C//DTD SVG 1.1//EN"
 "http://www.w3.org/Graphics/SVG/1.1/DTD/svg11.dtd">
<!-- Generated by graphviz version 2.38.0 (20140413.2041)
 -->
<!-- Title: %3 Pages: 1 -->
<svg width="1143pt" height="337pt"
 viewBox="0.00 0.00 1143.00 337.00" xmlns="http://www.w3.org/2000/svg" xmlns:xlink="http://www.w3.org/1999/xlink">
<g id="graph0" class="graph" transform="scale(1 1) rotate(0) translate(4 333)">
<title>%3</title>
<polygon fill="white" stroke="none" points="-4,4 -4,-333 1139,-333 1139,4 -4,4"/>
<g id="clust1" class="cluster"><title>cluster_legend</title>
<path fill="none" stroke="black" d="M20,-193C20,-193 210,-193 210,-193 216,-193 222,-199 222,-205 222,-205 222,-309 222,-309 222,-315 216,-321 210,-321 210,-321 20,-321 20,-321 14,-321 8,-315 8,-309 8,-309 8,-205 8,-205 8,-199 14,-193 20,-193"/>
</g>
<g id="clust2" class="cluster"><title>cluster_reading</title>
<polygon fill="none" stroke="black" points="230,-8 230,-321 1127,-321 1127,-8 230,-8"/>
</g>
<!-- leg_s -->
<g id="node1" class="node"><title>leg_s</title>
<text text-anchor="middle" x="115" y="-291.3" font-family="Times,serif" font-size="14.00">Textual flow strength</text>
</g>
<!-- leg_e1 -->
<!-- leg_s&#45;&gt;leg_e1 -->
<g id="edge1" class="edge"><title>leg_s&#45;&gt;leg_e1</title>
<path fill="none" stroke="black" stroke-dasharray="1,5" d="M96.6657,-276.686C91.1324,-271.194 85.1607,-264.989 80,-259 70.1708,-247.593 60.0722,-233.779 52.9137,-223.563"/>
<polygon fill="black" stroke="black" points="55.6142,-221.314 47.056,-215.068 49.8514,-225.288 55.6142,-221.314"/>
<text text-anchor="middle" x="95.5" y="-247.8" font-family="Times,serif" font-size="14.00">&lt;=5 &#160;</text>
</g>
<!-- leg_e2 -->
<!-- leg_s&#45;&gt;leg_e2 -->
<g id="edge2" class="edge"><title>leg_s&#45;&gt;leg_e2</title>
<path fill="none" stroke="black" stroke-dasharray="5,2" d="M115,-276.799C115,-261.794 115,-240.174 115,-225.409"/>
<polygon fill="black" stroke="black" points="118.5,-225.293 115,-215.293 111.5,-225.293 118.5,-225.293"/>
<text text-anchor="middle" x="134" y="-247.8" font-family="Times,serif" font-size="14.00"> &#160;&lt;=25</text>
</g>
<!-- leg_e3 -->
<!-- leg_s&#45;&gt;leg_e3 -->
<g id="edge3" class="edge"><title>leg_s&#45;&gt;leg_e3</title>
<path fill="none" stroke="black" d="M138.503,-276.76C144.906,-271.462 151.567,-265.344 157,-259 166.087,-248.39 174.095,-234.689 179.546,-224.313"/>
<polygon fill="black" stroke="black" points="182.722,-225.789 184.091,-215.283 176.469,-222.642 182.722,-225.789"/>
<text text-anchor="middle" x="179" y="-247.8" font-family="Times,serif" font-size="14.00">&gt;25</text>
</g>
<!-- 044 -->
<g id="node5" class="node"><title>044</title>
<ellipse fill="#ff8a8a" stroke="#b43f3f" cx="828" cy="-121" rx="36.2938" ry="18"/>
<text text-anchor="middle" x="828" y="-117.3" font-family="Times,serif" font-size="14.00">044 (a)</text>
</g>
<!-- 022 -->
<g id="node6" class="node"><title>022</title>
<ellipse fill="#ff8a8a" stroke="#b43f3f" cx="737" cy="-34" rx="36.2938" ry="18"/>
<text text-anchor="middle" x="737" y="-30.3" font-family="Times,serif" font-size="14.00">022 (a)</text>
</g>
<!-- 044&#45;&gt;022 -->
<g id="edge4" class="edge"><title>044&#45;&gt;022</title>
<path fill="none" stroke="#b43f3f" stroke-dasharray="1,5" d="M806.628,-106.006C798.008,-99.9634 788.186,-92.5539 780,-85 771.456,-77.1154 762.924,-67.6186 755.74,-59.0293"/>
<polygon fill="#b43f3f" stroke="#b43f3f" points="758.344,-56.6853 749.308,-51.1545 752.923,-61.1135 758.344,-56.6853"/>
<text text-anchor="middle" x="802" y="-73.8" font-family="Times,serif" font-size="14.00">1 (91.7)</text>
</g>
<!-- 011 -->
<g id="node7" class="node"><title>011</title>
<ellipse fill="#ff8a8a" stroke="#b43f3f" cx="828" cy="-34" rx="36.2938" ry="18"/>
<text text-anchor="middle" x="828" y="-30.3" font-family="Times,serif" font-size="14.00">011 (a)</text>
</g>
<!-- 044&#45;&gt;011 -->
<g id="edge5" class="edge"><title>044&#45;&gt;011</title>
<path fill="none" stroke="#b43f3f" stroke-dasharray="1,5" d="M828,-102.799C828,-91.1626 828,-75.5479 828,-62.2368"/>
<polygon fill="#b43f3f" stroke="#b43f3f" points="831.5,-62.1754 828,-52.1754 824.5,-62.1755 831.5,-62.1754"/>
<text text-anchor="middle" x="850" y="-73.8" font-family="Times,serif" font-size="14.00">2 (86.5)</text>
</g>
<!-- 0141 -->
<g id="node8" class="node"><title>0141</title>
<ellipse fill="#ff8a8a" stroke="#b43f3f" cx="923" cy="-34" rx="40.0939" ry="18"/>
<text text-anchor="middle" x="923" y="-30.3" font-family="Times,serif" font-size="14.00">0141 (a)</text>
</g>
<!-- 044&#45;&gt;0141 -->
<g id="edge6" class="edge"><title>044&#45;&gt;0141</title>
<path fill="none" stroke="#b43f3f" stroke-dasharray="1,5" d="M848.73,-106.159C857.436,-100.025 867.495,-92.5076 876,-85 885.163,-76.9115 894.531,-67.2757 902.467,-58.6319"/>
<polygon fill="#b43f3f" stroke="#b43f3f" points="905.21,-60.8165 909.306,-51.0454 900.01,-56.1295 905.21,-60.8165"/>
<text text-anchor="middle" x="913" y="-73.8" font-family="Times,serif" font-size="14.00">1 (89.2)</text>
</g>
<!-- A -->
<g id="node9" class="node"><title>A</title>
<ellipse fill="#ff8a8a" stroke="#b43f3f" cx="949" cy="-295" rx="29.4969" ry="18"/>
<text text-anchor="middle" x="949" y="-291.3" font-family="Times,serif" font-size="14.00">A (a)</text>
</g>
<!-- P75 -->
<g id="node10" class="node"><title>P75</title>
<ellipse fill="#ff8a8a" stroke="#b43f3f" cx="820" cy="-208" rx="36.2938" ry="18"/>
<text text-anchor="middle" x="820" y="-204.3" font-family="Times,serif" font-size="14.00">P75 (a)</text>
</g>
<!-- A&#45;&gt;P75 -->
<g id="edge7" class="edge"><title>A&#45;&gt;P75</title>
<path fill="none" stroke="#b43f3f" stroke-dasharray="1,5" d="M924.299,-285.257C908.616,-279.12 888.282,-270.049 872,-259 860.827,-251.418 849.842,-241.354 840.869,-232.244"/>
<polygon fill="#b43f3f" stroke="#b43f3f" points="843.282,-229.704 833.844,-224.891 838.221,-234.539 843.282,-229.704"/>
<text text-anchor="middle" x="894" y="-247.8" font-family="Times,serif" font-size="14.00">1 (93.3)</text>
</g>
<!-- 019 -->
<g id="node11" class="node"><title>019</title>
<ellipse fill="#ff8a8a" stroke="#b43f3f" cx="911" cy="-208" rx="36.2938" ry="18"/>
<text text-anchor="middle" x="911" y="-204.3" font-family="Times,serif" font-size="14.00">019 (a)</text>
</g>
<!-- A&#45;&gt;019 -->
<g id="edge8" class="edge"><title>A&#45;&gt;019</title>
<path fill="none" stroke="#b43f3f" stroke-dasharray="1,5" d="M937.211,-278.19C933.255,-272.371 929.073,-265.589 926,-259 922.629,-251.772 919.803,-243.605 917.546,-235.999"/>
<polygon fill="#b43f3f" stroke="#b43f3f" points="920.853,-234.826 914.822,-226.115 914.105,-236.686 920.853,-234.826"/>
<text text-anchor="middle" x="948" y="-247.8" font-family="Times,serif" font-size="14.00">1 (93.3)</text>
</g>
<!-- 03 -->
<g id="node12" class="node"><title>03</title>
<ellipse fill="#ff8a8a" stroke="#b43f3f" cx="997" cy="-208" rx="31.6951" ry="18"/>
<text text-anchor="middle" x="997" y="-204.3" font-family="Times,serif" font-size="14.00">03 (a)</text>
</g>
<!-- A&#45;&gt;03 -->
<g id="edge9" class="edge"><title>A&#45;&gt;03</title>
<path fill="none" stroke="#b43f3f" stroke-dasharray="1,5" d="M958.983,-277.709C962.521,-271.845 966.493,-265.157 970,-259 974.443,-251.199 979.139,-242.627 983.347,-234.816"/>
<polygon fill="#b43f3f" stroke="#b43f3f" points="986.555,-236.239 988.188,-225.771 980.383,-232.936 986.555,-236.239"/>
<text text-anchor="middle" x="999" y="-247.8" font-family="Times,serif" font-size="14.00">1 (93.3)</text>
</g>
<!-- 091 -->
<g id="node13" class="node"><title>091</title>
<ellipse fill="#ff8a8a" stroke="#b43f3f" cx="1083" cy="-208" rx="36.2938" ry="18"/>
<text text-anchor="middle" x="1083" y="-204.3" font-family="Times,serif" font-size="14.00">091 (a)</text>
</g>
<!-- A&#45;&gt;091 -->
<g id="edge10" class="edge"><title>A&#45;&gt;091</title>
<path fill="none" stroke="#b43f3f" stroke-dasharray="1,5" d="M973.521,-284.762C988.872,-278.489 1008.75,-269.45 1025,-259 1037.18,-251.17 1049.49,-240.954 1059.62,-231.8"/>
<polygon fill="#b43f3f" stroke="#b43f3f" points="1062.27,-234.114 1067.23,-224.751 1057.51,-228.978 1062.27,-234.114"/>
<text text-anchor="middle" x="1067" y="-247.8" font-family="Times,serif" font-size="14.00">1 (87.5)</text>
</g>
<!-- 03&#45;&gt;044 -->
<g id="edge11" class="edge"><title>03&#45;&gt;044</title>
<path fill="none" stroke="#b43f3f" stroke-dasharray="1,5" d="M972.483,-196.224C967.102,-194.031 961.399,-191.836 956,-190 926.808,-180.074 916.427,-186.089 889,-172 875.082,-164.851 861.436,-154.122 850.592,-144.434"/>
<polygon fill="#b43f3f" stroke="#b43f3f" points="852.947,-141.845 843.227,-137.629 848.196,-146.986 852.947,-141.845"/>
<text text-anchor="middle" x="911" y="-160.8" font-family="Times,serif" font-size="14.00">1 (89.2)</text>
</g>
<!-- 02 -->
<g id="node14" class="node"><title>02</title>
<ellipse fill="#ff8a8a" stroke="#b43f3f" cx="914" cy="-121" rx="31.6951" ry="18"/>
<text text-anchor="middle" x="914" y="-117.3" font-family="Times,serif" font-size="14.00">02 (a)</text>
</g>
<!-- 03&#45;&gt;02 -->
<g id="edge12" class="edge"><title>03&#45;&gt;02</title>
<path fill="none" stroke="#b43f3f" stroke-dasharray="1,5" d="M976.703,-193.945C967.987,-187.836 957.992,-180.122 950,-172 942.538,-164.418 935.441,-155.18 929.551,-146.718"/>
<polygon fill="#b43f3f" stroke="#b43f3f" points="932.367,-144.633 923.886,-138.283 926.556,-148.536 932.367,-144.633"/>
<text text-anchor="middle" x="972" y="-160.8" font-family="Times,serif" font-size="14.00">1 (86.5)</text>
</g>
<!-- 032 -->
<g id="node15" class="node"><title>032</title>
<ellipse fill="#ff8a8a" stroke="#b43f3f" cx="1000" cy="-121" rx="36.2938" ry="18"/>
<text text-anchor="middle" x="1000" y="-117.3" font-family="Times,serif" font-size="14.00">032 (a)</text>
</g>
<!-- 03&#45;&gt;032 -->
<g id="edge13" class="edge"><title>03&#45;&gt;032</title>
<path fill="none" stroke="#b43f3f" stroke-dasharray="1,5" d="M997.607,-189.799C998.018,-178.163 998.569,-162.548 999.039,-149.237"/>
<polygon fill="#b43f3f" stroke="#b43f3f" points="1002.54,-149.293 999.394,-139.175 995.543,-149.046 1002.54,-149.293"/>
<text text-anchor="middle" x="1020" y="-160.8" font-family="Times,serif" font-size="14.00">1 (91.7)</text>
</g>
<!-- 05 -->
<g id="node21" class="node"><title>05</title>
<ellipse fill="#ff8a8a" stroke="#b43f3f" cx="1086" cy="-121" rx="31.6951" ry="18"/>
<text text-anchor="middle" x="1086" y="-117.3" font-family="Times,serif" font-size="14.00">05 (a)</text>
</g>
<!-- 091&#45;&gt;05 -->
<g id="edge18" class="edge"><title>091&#45;&gt;05</title>
<path fill="none" stroke="#b43f3f" stroke-dasharray="1,5" d="M1083.61,-189.799C1084.02,-178.163 1084.57,-162.548 1085.04,-149.237"/>
<polygon fill="#b43f3f" stroke="#b43f3f" points="1088.54,-149.293 1085.39,-139.175 1081.54,-149.046 1088.54,-149.293"/>
<text text-anchor="middle" x="1106" y="-160.8" font-family="Times,serif" font-size="14.00">1 (87.5)</text>
</g>
<!-- 07 -->
<g id="node16" class="node"><title>07</title>
<ellipse fill="#ff8a8a" stroke="#b43f3f" cx="641" cy="-295" rx="31.6951" ry="18"/>
<text text-anchor="middle" x="641" y="-291.3" font-family="Times,serif" font-size="14.00">07 (a)</text>
</g>
<!-- 017 -->
<g id="node17" class="node"><title>017</title>
<ellipse fill="#ff8a8a" stroke="#b43f3f" cx="456" cy="-208" rx="36.2938" ry="18"/>
<text text-anchor="middle" x="456" y="-204.3" font-family="Times,serif" font-size="14.00">017 (a)</text>
</g>
<!-- 07&#45;&gt;017 -->
<g id="edge14" class="edge"><title>07&#45;&gt;017</title>
<path fill="none" stroke="#b43f3f" stroke-dasharray="1,5" d="M616.498,-283.179C611.116,-280.989 605.408,-278.807 600,-277 569.532,-266.823 559.293,-272.185 530,-259 513.183,-251.43 496.018,-240.101 482.459,-230.139"/>
<polygon fill="#b43f3f" stroke="#b43f3f" points="484.201,-227.07 474.109,-223.844 479.987,-232.659 484.201,-227.07"/>
<text text-anchor="middle" x="552" y="-247.8" font-family="Times,serif" font-size="14.00">2 (92.7)</text>
</g>
<!-- 037 -->
<g id="node18" class="node"><title>037</title>
<ellipse fill="#ff8a8a" stroke="#b43f3f" cx="547" cy="-208" rx="36.2938" ry="18"/>
<text text-anchor="middle" x="547" y="-204.3" font-family="Times,serif" font-size="14.00">037 (a)</text>
</g>
<!-- 07&#45;&gt;037 -->
<g id="edge15" class="edge"><title>07&#45;&gt;037</title>
<path fill="none" stroke="#b43f3f" stroke-dasharray="1,5" d="M620.7,-280.969C611.577,-274.749 600.888,-266.94 592,-259 583.065,-251.018 574.064,-241.403 566.485,-232.747"/>
<polygon fill="#b43f3f" stroke="#b43f3f" points="569.132,-230.456 559.968,-225.14 563.816,-235.011 569.132,-230.456"/>
<text text-anchor="middle" x="614" y="-247.8" font-family="Times,serif" font-size="14.00">1 (97.5)</text>
</g>
<!-- 034 -->
<g id="node19" class="node"><title>034</title>
<ellipse fill="#ff8a8a" stroke="#b43f3f" cx="638" cy="-208" rx="36.2938" ry="18"/>
<text text-anchor="middle" x="638" y="-204.3" font-family="Times,serif" font-size="14.00">034 (a)</text>
</g>
<!-- 07&#45;&gt;034 -->
<g id="edge16" class="edge"><title>07&#45;&gt;034</title>
<path fill="none" stroke="#b43f3f" stroke-dasharray="1,5" d="M640.393,-276.799C639.982,-265.163 639.431,-249.548 638.961,-236.237"/>
<polygon fill="#b43f3f" stroke="#b43f3f" points="642.457,-236.046 638.606,-226.175 635.461,-236.293 642.457,-236.046"/>
<text text-anchor="middle" x="662" y="-247.8" font-family="Times,serif" font-size="14.00">1 (95.1)</text>
</g>
<!-- 030 -->
<g id="node20" class="node"><title>030</title>
<ellipse fill="#ff8a8a" stroke="#b43f3f" cx="729" cy="-208" rx="36.2938" ry="18"/>
<text text-anchor="middle" x="729" y="-204.3" font-family="Times,serif" font-size="14.00">030 (a)</text>
</g>
<!-- 07&#45;&gt;030 -->
<g id="edge17" class="edge"><title>07&#45;&gt;030</title>
<path fill="none" stroke="#b43f3f" stroke-dasharray="1,5" d="M661.059,-280.703C669.73,-274.549 679.757,-266.867 688,-259 696.162,-251.211 704.234,-241.832 711.029,-233.311"/>
<polygon fill="#b43f3f" stroke="#b43f3f" points="713.985,-235.212 717.355,-225.168 708.456,-230.918 713.985,-235.212"/>
<text text-anchor="middle" x="724" y="-247.8" font-family="Times,serif" font-size="14.00">1 (95.1)</text>
</g>
<!-- 021 -->
<g id="node22" class="node"><title>021</title>
<ellipse fill="#ff8a8a" stroke="#b43f3f" cx="555" cy="-295" rx="36.2938" ry="18"/>
<text text-anchor="middle" x="555" y="-291.3" font-family="Times,serif" font-size="14.00">021 (a)</text>
</g>
<!-- 036 -->
<g id="node23" class="node"><title>036</title>
<ellipse fill="#ff8a8a" stroke="#b43f3f" cx="274" cy="-208" rx="36.2938" ry="18"/>
<text text-anchor="middle" x="274" y="-204.3" font-family="Times,serif" font-size="14.00">036 (a)</text>
</g>
<!-- 021&#45;&gt;036 -->
<g id="edge19" class="edge"><title>021&#45;&gt;036</title>
<path fill="none" stroke="#b43f3f" stroke-dasharray="1,5" d="M527.572,-282.775C521.53,-280.609 515.109,-278.54 509,-277 453.293,-262.962 436.076,-275.341 381,-259 354.748,-251.211 326.767,-237.942 306.005,-227.03"/>
<polygon fill="#b43f3f" stroke="#b43f3f" points="307.474,-223.846 297.006,-222.21 304.169,-230.017 307.474,-223.846"/>
<text text-anchor="middle" x="403" y="-247.8" font-family="Times,serif" font-size="14.00">1 (97.6)</text>
</g>
<!-- 047 -->
<g id="node24" class="node"><title>047</title>
<ellipse fill="#ff8a8a" stroke="#b43f3f" cx="365" cy="-208" rx="36.2938" ry="18"/>
<text text-anchor="middle" x="365" y="-204.3" font-family="Times,serif" font-size="14.00">047 (a)</text>
</g>
<!-- 021&#45;&gt;047 -->
<g id="edge20" class="edge"><title>021&#45;&gt;047</title>
<path fill="none" stroke="#b43f3f" stroke-dasharray="1,5" d="M526.814,-283.478C520.936,-281.313 514.772,-279.065 509,-277 485.973,-268.761 479.375,-268.873 457,-259 436.039,-249.751 413.419,-237.491 395.853,-227.425"/>
<polygon fill="#b43f3f" stroke="#b43f3f" points="397.571,-224.375 387.164,-222.389 394.061,-230.432 397.571,-224.375"/>
<text text-anchor="middle" x="479" y="-247.8" font-family="Times,serif" font-size="14.00">1 (95.1)</text>
</g>
<!-- 0211 -->
<g id="node25" class="node"><title>0211</title>
<ellipse fill="#ff8a8a" stroke="#b43f3f" cx="460" cy="-295" rx="40.0939" ry="18"/>
<text text-anchor="middle" x="460" y="-291.3" font-family="Times,serif" font-size="14.00">0211 (a)</text>
</g>
<!-- 045 -->
<g id="node26" class="node"><title>045</title>
<ellipse fill="#ff8a8a" stroke="#b43f3f" cx="365" cy="-295" rx="36.2938" ry="18"/>
<text text-anchor="middle" x="365" y="-291.3" font-family="Times,serif" font-size="14.00">045 (a)</text>
</g>
<!-- 028 -->
<g id="node27" class="node"><title>028</title>
<ellipse fill="#ff8a8a" stroke="#b43f3f" cx="274" cy="-295" rx="36.2938" ry="18"/>
<text text-anchor="middle" x="274" y="-291.3" font-family="Times,serif" font-size="14.00">028 (a)</text>
</g>
</g>
</svg>
