<?xml version="1.0" encoding="UTF-8" standalone="no"?>
<!DOCTYPE svg PUBLIC "-//W3C//DTD SVG 1.1//EN"
 "http://www.w3.org/Graphics/SVG/1.1/DTD/svg11.dtd">
<!-- Generated by graphviz version 2.38.0 (20140413.2041)
 -->
<!-- Title: %3 Pages: 1 -->
<svg width="1054pt" height="337pt"
 viewBox="0.00 0.00 1054.00 337.00" xmlns="http://www.w3.org/2000/svg" xmlns:xlink="http://www.w3.org/1999/xlink">
<g id="graph0" class="graph" transform="scale(1 1) rotate(0) translate(4 333)">
<title>%3</title>
<polygon fill="white" stroke="none" points="-4,4 -4,-333 1050,-333 1050,4 -4,4"/>
<g id="clust1" class="cluster"><title>cluster_legend</title>
<path fill="none" stroke="black" d="M20,-193C20,-193 210,-193 210,-193 216,-193 222,-199 222,-205 222,-205 222,-309 222,-309 222,-315 216,-321 210,-321 210,-321 20,-321 20,-321 14,-321 8,-315 8,-309 8,-309 8,-205 8,-205 8,-199 14,-193 20,-193"/>
</g>
<g id="clust2" class="cluster"><title>cluster_reading</title>
<polygon fill="none" stroke="black" points="230,-8 230,-234 1038,-234 1038,-8 230,-8"/>
</g>
<!-- leg_s -->
<g id="node1" class="node"><title>leg_s</title>
<text text-anchor="middle" x="115" y="-291.3" font-family="Times,serif" font-size="14.00">Textual flow strength</text>
</g>
<!-- leg_e1 -->
<!-- leg_s&#45;&gt;leg_e1 -->
<g id="edge1" class="edge"><title>leg_s&#45;&gt;leg_e1</title>
<path fill="none" stroke="black" stroke-dasharray="1,5" d="M96.6657,-276.686C91.1324,-271.194 85.1607,-264.989 80,-259 70.1708,-247.593 60.0722,-233.779 52.9137,-223.563"/>
<polygon fill="black" stroke="black" points="55.6142,-221.314 47.056,-215.068 49.8514,-225.288 55.6142,-221.314"/>
<text text-anchor="middle" x="95.5" y="-247.8" font-family="Times,serif" font-size="14.00">&lt;=5 &#160;</text>
</g>
<!-- leg_e2 -->
<!-- leg_s&#45;&gt;leg_e2 -->
<g id="edge2" class="edge"><title>leg_s&#45;&gt;leg_e2</title>
<path fill="none" stroke="black" stroke-dasharray="5,2" d="M115,-276.799C115,-261.794 115,-240.174 115,-225.409"/>
<polygon fill="black" stroke="black" points="118.5,-225.293 115,-215.293 111.5,-225.293 118.5,-225.293"/>
<text text-anchor="middle" x="134" y="-247.8" font-family="Times,serif" font-size="14.00"> &#160;&lt;=25</text>
</g>
<!-- leg_e3 -->
<!-- leg_s&#45;&gt;leg_e3 -->
<g id="edge3" class="edge"><title>leg_s&#45;&gt;leg_e3</title>
<path fill="none" stroke="black" d="M138.503,-276.76C144.906,-271.462 151.567,-265.344 157,-259 166.087,-248.39 174.095,-234.689 179.546,-224.313"/>
<polygon fill="black" stroke="black" points="182.722,-225.789 184.091,-215.283 176.469,-222.642 182.722,-225.789"/>
<text text-anchor="middle" x="179" y="-247.8" font-family="Times,serif" font-size="14.00">&gt;25</text>
</g>
<!-- 044 -->
<g id="node5" class="node"><title>044</title>
<ellipse fill="#cea8f4" stroke="#835da9" cx="374" cy="-208" rx="36.2938" ry="18"/>
<text text-anchor="middle" x="374" y="-204.3" font-family="Times,serif" font-size="14.00">044 (b)</text>
</g>
<!-- 022 -->
<g id="node6" class="node"><title>022</title>
<ellipse fill="#cea8f4" stroke="#835da9" cx="274" cy="-121" rx="36.2938" ry="18"/>
<text text-anchor="middle" x="274" y="-117.3" font-family="Times,serif" font-size="14.00">022 (b)</text>
</g>
<!-- 044&#45;&gt;022 -->
<g id="edge4" class="edge"><title>044&#45;&gt;022</title>
<path fill="none" stroke="#835da9" stroke-dasharray="1,5" d="M352.474,-193.143C343.416,-187.007 332.929,-179.491 324,-172 314.108,-163.7 303.903,-153.78 295.313,-144.971"/>
<polygon fill="#835da9" stroke="#835da9" points="297.677,-142.379 288.228,-137.586 292.625,-147.225 297.677,-142.379"/>
<text text-anchor="middle" x="346" y="-160.8" font-family="Times,serif" font-size="14.00">1 (91.7)</text>
</g>
<!-- 0141 -->
<g id="node7" class="node"><title>0141</title>
<ellipse fill="#cea8f4" stroke="#835da9" cx="369" cy="-121" rx="40.8928" ry="18"/>
<text text-anchor="middle" x="369" y="-117.3" font-family="Times,serif" font-size="14.00">0141 (b)</text>
</g>
<!-- 044&#45;&gt;0141 -->
<g id="edge5" class="edge"><title>044&#45;&gt;0141</title>
<path fill="none" stroke="#835da9" stroke-dasharray="1,5" d="M372.988,-189.799C372.304,-178.163 371.385,-162.548 370.602,-149.237"/>
<polygon fill="#835da9" stroke="#835da9" points="374.092,-148.953 370.01,-139.175 367.104,-149.364 374.092,-148.953"/>
<text text-anchor="middle" x="394" y="-160.8" font-family="Times,serif" font-size="14.00">1 (89.2)</text>
</g>
<!-- 02 -->
<g id="node22" class="node"><title>02</title>
<ellipse fill="#cea8f4" stroke="#835da9" cx="270" cy="-34" rx="32.4942" ry="18"/>
<text text-anchor="middle" x="270" y="-30.3" font-family="Times,serif" font-size="14.00">02 (b)</text>
</g>
<!-- 0141&#45;&gt;02 -->
<g id="edge19" class="edge"><title>0141&#45;&gt;02</title>
<path fill="none" stroke="#835da9" stroke-dasharray="1,5" d="M343.178,-106.931C332.646,-100.98 320.693,-93.3897 311,-85 302.252,-77.4282 293.903,-67.8492 287.049,-59.1063"/>
<polygon fill="#835da9" stroke="#835da9" points="289.796,-56.9363 280.971,-51.073 284.213,-61.1596 289.796,-56.9363"/>
<text text-anchor="middle" x="333" y="-73.8" font-family="Times,serif" font-size="14.00">1 (86.5)</text>
</g>
<!-- 07 -->
<g id="node8" class="node"><title>07</title>
<ellipse fill="#cea8f4" stroke="#835da9" cx="733" cy="-121" rx="32.4942" ry="18"/>
<text text-anchor="middle" x="733" y="-117.3" font-family="Times,serif" font-size="14.00">07 (b)</text>
</g>
<!-- 013 -->
<g id="node9" class="node"><title>013</title>
<ellipse fill="#cea8f4" stroke="#835da9" cx="721" cy="-34" rx="36.2938" ry="18"/>
<text text-anchor="middle" x="721" y="-30.3" font-family="Times,serif" font-size="14.00">013 (b)</text>
</g>
<!-- 07&#45;&gt;013 -->
<g id="edge6" class="edge"><title>07&#45;&gt;013</title>
<path fill="none" stroke="#835da9" stroke-dasharray="1,5" d="M730.572,-102.799C728.929,-91.1626 726.724,-75.5479 724.845,-62.2368"/>
<polygon fill="#835da9" stroke="#835da9" points="728.288,-61.588 723.425,-52.1754 721.357,-62.5665 728.288,-61.588"/>
<text text-anchor="middle" x="750" y="-73.8" font-family="Times,serif" font-size="14.00">2 (95.1)</text>
</g>
<!-- 017 -->
<g id="node10" class="node"><title>017</title>
<ellipse fill="#cea8f4" stroke="#835da9" cx="812" cy="-34" rx="36.2938" ry="18"/>
<text text-anchor="middle" x="812" y="-30.3" font-family="Times,serif" font-size="14.00">017 (b)</text>
</g>
<!-- 07&#45;&gt;017 -->
<g id="edge7" class="edge"><title>07&#45;&gt;017</title>
<path fill="none" stroke="#835da9" stroke-dasharray="1,5" d="M751.919,-106.351C759.777,-100.251 768.738,-92.7052 776,-85 783.187,-77.3741 790.146,-68.2624 795.998,-59.9188"/>
<polygon fill="#835da9" stroke="#835da9" points="798.929,-61.8334 801.66,-51.5965 793.141,-57.8961 798.929,-61.8334"/>
<text text-anchor="middle" x="811" y="-73.8" font-family="Times,serif" font-size="14.00">2 (92.7)</text>
</g>
<!-- 037 -->
<g id="node11" class="node"><title>037</title>
<ellipse fill="#cea8f4" stroke="#835da9" cx="903" cy="-34" rx="36.2938" ry="18"/>
<text text-anchor="middle" x="903" y="-30.3" font-family="Times,serif" font-size="14.00">037 (b)</text>
</g>
<!-- 07&#45;&gt;037 -->
<g id="edge8" class="edge"><title>07&#45;&gt;037</title>
<path fill="none" stroke="#835da9" stroke-dasharray="1,5" d="M758.161,-109.33C763.67,-107.131 769.5,-104.906 775,-103 802.112,-93.605 811.359,-97.8781 837,-85 851.925,-77.5038 866.898,-66.5126 878.8,-56.7431"/>
<polygon fill="#835da9" stroke="#835da9" points="881.129,-59.3581 886.512,-50.2327 876.613,-54.0094 881.129,-59.3581"/>
<text text-anchor="middle" x="882" y="-73.8" font-family="Times,serif" font-size="14.00">1 (97.5)</text>
</g>
<!-- 034 -->
<g id="node12" class="node"><title>034</title>
<ellipse fill="#cea8f4" stroke="#835da9" cx="994" cy="-34" rx="36.2938" ry="18"/>
<text text-anchor="middle" x="994" y="-30.3" font-family="Times,serif" font-size="14.00">034 (b)</text>
</g>
<!-- 07&#45;&gt;034 -->
<g id="edge9" class="edge"><title>07&#45;&gt;034</title>
<path fill="none" stroke="#835da9" stroke-dasharray="1,5" d="M757.523,-108.881C763.173,-106.656 769.222,-104.534 775,-103 832.652,-87.6903 851.58,-104.362 908,-85 928.675,-77.9052 949.927,-65.6047 966.132,-54.9798"/>
<polygon fill="#835da9" stroke="#835da9" points="968.239,-57.7808 974.58,-49.2932 964.33,-51.9738 968.239,-57.7808"/>
<text text-anchor="middle" x="962" y="-73.8" font-family="Times,serif" font-size="14.00">1 (95.1)</text>
</g>
<!-- 030 -->
<g id="node13" class="node"><title>030</title>
<ellipse fill="#cea8f4" stroke="#835da9" cx="630" cy="-34" rx="36.2938" ry="18"/>
<text text-anchor="middle" x="630" y="-30.3" font-family="Times,serif" font-size="14.00">030 (b)</text>
</g>
<!-- 07&#45;&gt;030 -->
<g id="edge10" class="edge"><title>07&#45;&gt;030</title>
<path fill="none" stroke="#835da9" stroke-dasharray="1,5" d="M711.217,-107.405C701.062,-101.157 689.034,-93.202 679,-85 669.102,-76.9088 659.065,-67.0252 650.675,-58.1883"/>
<polygon fill="#835da9" stroke="#835da9" points="653.143,-55.703 643.77,-50.7634 648.017,-60.4699 653.143,-55.703"/>
<text text-anchor="middle" x="701" y="-73.8" font-family="Times,serif" font-size="14.00">1 (95.1)</text>
</g>
<!-- 063 -->
<g id="node14" class="node"><title>063</title>
<ellipse fill="#cea8f4" stroke="#835da9" cx="646" cy="-208" rx="36.2938" ry="18"/>
<text text-anchor="middle" x="646" y="-204.3" font-family="Times,serif" font-size="14.00">063 (b)</text>
</g>
<!-- 063&#45;&gt;07 -->
<g id="edge11" class="edge"><title>063&#45;&gt;07</title>
<path fill="none" stroke="#835da9" stroke-dasharray="1,5" d="M667.555,-193.2C676.204,-187.187 685.997,-179.748 694,-172 701.949,-164.304 709.667,-154.945 716.111,-146.414"/>
<polygon fill="#835da9" stroke="#835da9" points="719.004,-148.388 722.091,-138.252 713.358,-144.25 719.004,-148.388"/>
<text text-anchor="middle" x="729" y="-160.8" font-family="Times,serif" font-size="14.00">1 (96.6)</text>
</g>
<!-- 011 -->
<g id="node15" class="node"><title>011</title>
<ellipse fill="#cea8f4" stroke="#835da9" cx="820" cy="-121" rx="36.2938" ry="18"/>
<text text-anchor="middle" x="820" y="-117.3" font-family="Times,serif" font-size="14.00">011 (b)</text>
</g>
<!-- 063&#45;&gt;011 -->
<g id="edge12" class="edge"><title>063&#45;&gt;011</title>
<path fill="none" stroke="#835da9" stroke-dasharray="1,5" d="M678.646,-199.669C700.936,-193.918 730.712,-184.743 755,-172 769.406,-164.442 783.901,-153.669 795.536,-144.058"/>
<polygon fill="#835da9" stroke="#835da9" points="798.105,-146.468 803.461,-137.327 793.573,-141.133 798.105,-146.468"/>
<text text-anchor="middle" x="800" y="-160.8" font-family="Times,serif" font-size="14.00">1 (93.1)</text>
</g>
<!-- 045 -->
<g id="node16" class="node"><title>045</title>
<ellipse fill="#cea8f4" stroke="#835da9" cx="464" cy="-121" rx="36.2938" ry="18"/>
<text text-anchor="middle" x="464" y="-117.3" font-family="Times,serif" font-size="14.00">045 (b)</text>
</g>
<!-- 063&#45;&gt;045 -->
<g id="edge13" class="edge"><title>063&#45;&gt;045</title>
<path fill="none" stroke="#835da9" stroke-dasharray="1,5" d="M614.054,-199.368C591.811,-193.43 561.808,-184.156 537,-172 520.705,-164.016 503.906,-152.754 490.536,-142.939"/>
<polygon fill="#835da9" stroke="#835da9" points="492.385,-139.951 482.286,-136.748 488.183,-145.55 492.385,-139.951"/>
<text text-anchor="middle" x="559" y="-160.8" font-family="Times,serif" font-size="14.00">1 (93.1)</text>
</g>
<!-- 021 -->
<g id="node17" class="node"><title>021</title>
<ellipse fill="#cea8f4" stroke="#835da9" cx="555" cy="-121" rx="36.2938" ry="18"/>
<text text-anchor="middle" x="555" y="-117.3" font-family="Times,serif" font-size="14.00">021 (b)</text>
</g>
<!-- 063&#45;&gt;021 -->
<g id="edge14" class="edge"><title>063&#45;&gt;021</title>
<path fill="none" stroke="#835da9" stroke-dasharray="1,5" d="M624.628,-193.006C616.008,-186.963 606.186,-179.554 598,-172 589.456,-164.115 580.924,-154.619 573.74,-146.029"/>
<polygon fill="#835da9" stroke="#835da9" points="576.344,-143.685 567.308,-138.155 570.923,-148.113 576.344,-143.685"/>
<text text-anchor="middle" x="620" y="-160.8" font-family="Times,serif" font-size="14.00">1 (93.1)</text>
</g>
<!-- 028 -->
<g id="node18" class="node"><title>028</title>
<ellipse fill="#cea8f4" stroke="#835da9" cx="646" cy="-121" rx="36.2938" ry="18"/>
<text text-anchor="middle" x="646" y="-117.3" font-family="Times,serif" font-size="14.00">028 (b)</text>
</g>
<!-- 063&#45;&gt;028 -->
<g id="edge15" class="edge"><title>063&#45;&gt;028</title>
<path fill="none" stroke="#835da9" stroke-dasharray="1,5" d="M646,-189.799C646,-178.163 646,-162.548 646,-149.237"/>
<polygon fill="#835da9" stroke="#835da9" points="649.5,-149.175 646,-139.175 642.5,-149.175 649.5,-149.175"/>
<text text-anchor="middle" x="668" y="-160.8" font-family="Times,serif" font-size="14.00">1 (96.6)</text>
</g>
<!-- 038 -->
<g id="node19" class="node"><title>038</title>
<ellipse fill="#cea8f4" stroke="#835da9" cx="357" cy="-34" rx="36.2938" ry="18"/>
<text text-anchor="middle" x="357" y="-30.3" font-family="Times,serif" font-size="14.00">038 (b)</text>
</g>
<!-- 045&#45;&gt;038 -->
<g id="edge16" class="edge"><title>045&#45;&gt;038</title>
<path fill="none" stroke="#835da9" stroke-dasharray="1,5" d="M437.143,-108.749C424.539,-102.746 409.744,-94.6099 398,-85 389.046,-77.6732 380.656,-68.1419 373.828,-59.3686"/>
<polygon fill="#835da9" stroke="#835da9" points="376.58,-57.2042 367.792,-51.2861 370.971,-61.3927 376.58,-57.2042"/>
<text text-anchor="middle" x="420" y="-73.8" font-family="Times,serif" font-size="14.00">1 (92.7)</text>
</g>
<!-- 036 -->
<g id="node20" class="node"><title>036</title>
<ellipse fill="#cea8f4" stroke="#835da9" cx="448" cy="-34" rx="36.2938" ry="18"/>
<text text-anchor="middle" x="448" y="-30.3" font-family="Times,serif" font-size="14.00">036 (b)</text>
</g>
<!-- 021&#45;&gt;036 -->
<g id="edge17" class="edge"><title>021&#45;&gt;036</title>
<path fill="none" stroke="#835da9" stroke-dasharray="1,5" d="M531.628,-106.941C521.282,-100.774 509.178,-93.0151 499,-85 488.753,-76.9308 478.316,-67.0513 469.576,-58.2113"/>
<polygon fill="#835da9" stroke="#835da9" points="471.851,-55.5294 462.379,-50.7822 466.823,-60.3999 471.851,-55.5294"/>
<text text-anchor="middle" x="521" y="-73.8" font-family="Times,serif" font-size="14.00">1 (97.6)</text>
</g>
<!-- 047 -->
<g id="node21" class="node"><title>047</title>
<ellipse fill="#cea8f4" stroke="#835da9" cx="539" cy="-34" rx="36.2938" ry="18"/>
<text text-anchor="middle" x="539" y="-30.3" font-family="Times,serif" font-size="14.00">047 (b)</text>
</g>
<!-- 021&#45;&gt;047 -->
<g id="edge18" class="edge"><title>021&#45;&gt;047</title>
<path fill="none" stroke="#835da9" stroke-dasharray="1,5" d="M551.762,-102.799C549.572,-91.1626 546.633,-75.5479 544.127,-62.2368"/>
<polygon fill="#835da9" stroke="#835da9" points="547.523,-61.3554 542.233,-52.1754 540.643,-62.6503 547.523,-61.3554"/>
<text text-anchor="middle" x="570" y="-73.8" font-family="Times,serif" font-size="14.00">1 (95.1)</text>
</g>
<!-- 032 -->
<g id="node23" class="node"><title>032</title>
<ellipse fill="#cea8f4" stroke="#835da9" cx="465" cy="-208" rx="36.2938" ry="18"/>
<text text-anchor="middle" x="465" y="-204.3" font-family="Times,serif" font-size="14.00">032 (b)</text>
</g>
<!-- 0211 -->
<g id="node24" class="node"><title>0211</title>
<ellipse fill="#cea8f4" stroke="#835da9" cx="279" cy="-208" rx="40.8928" ry="18"/>
<text text-anchor="middle" x="279" y="-204.3" font-family="Times,serif" font-size="14.00">0211 (b)</text>
</g>
<!-- 03 -->
<g id="node25" class="node"><title>03</title>
<ellipse fill="#ff8a8a" stroke="#b43f3f" cx="414" cy="-295" rx="31.6951" ry="18"/>
<text text-anchor="middle" x="414" y="-291.3" font-family="Times,serif" font-size="14.00">03 (a)</text>
</g>
<!-- 03&#45;&gt;044 -->
<g id="edge20" class="edge"><title>03&#45;&gt;044</title>
<path fill="none" stroke="#835da9" stroke-dasharray="1,5" d="M399.904,-278.526C395.236,-272.739 390.378,-265.891 387,-259 383.526,-251.913 380.905,-243.79 378.96,-236.18"/>
<polygon fill="#835da9" stroke="#835da9" points="382.337,-235.246 376.71,-226.268 375.51,-236.795 382.337,-235.246"/>
<text text-anchor="middle" x="409" y="-247.8" font-family="Times,serif" font-size="14.00">1 (89.2)</text>
</g>
<!-- 03&#45;&gt;032 -->
<g id="edge21" class="edge"><title>03&#45;&gt;032</title>
<path fill="none" stroke="#835da9" stroke-dasharray="1,5" d="M423.833,-277.611C431.242,-265.264 441.53,-248.117 449.968,-234.053"/>
<polygon fill="#835da9" stroke="#835da9" points="453.053,-235.714 455.197,-225.339 447.051,-232.113 453.053,-235.714"/>
<text text-anchor="middle" x="465" y="-247.8" font-family="Times,serif" font-size="14.00">1 (91.7)</text>
</g>
<!-- 019 -->
<g id="node26" class="node"><title>019</title>
<ellipse fill="#ff8a8a" stroke="#b43f3f" cx="646" cy="-295" rx="36.2938" ry="18"/>
<text text-anchor="middle" x="646" y="-291.3" font-family="Times,serif" font-size="14.00">019 (a)</text>
</g>
<!-- 019&#45;&gt;063 -->
<g id="edge22" class="edge"><title>019&#45;&gt;063</title>
<path fill="none" stroke="#835da9" stroke-dasharray="1,5" d="M646,-276.799C646,-265.163 646,-249.548 646,-236.237"/>
<polygon fill="#835da9" stroke="#835da9" points="649.5,-236.175 646,-226.175 642.5,-236.175 649.5,-236.175"/>
<text text-anchor="middle" x="668" y="-247.8" font-family="Times,serif" font-size="14.00">1 (85.7)</text>
</g>
</g>
</svg>
