<?xml version="1.0" encoding="UTF-8" standalone="no"?>
<!DOCTYPE svg PUBLIC "-//W3C//DTD SVG 1.1//EN"
 "http://www.w3.org/Graphics/SVG/1.1/DTD/svg11.dtd">
<!-- Generated by graphviz version 2.38.0 (20140413.2041)
 -->
<!-- Title: %3 Pages: 1 -->
<svg width="871pt" height="511pt"
 viewBox="0.00 0.00 871.00 511.00" xmlns="http://www.w3.org/2000/svg" xmlns:xlink="http://www.w3.org/1999/xlink">
<g id="graph0" class="graph" transform="scale(1 1) rotate(0) translate(4 507)">
<title>%3</title>
<polygon fill="white" stroke="none" points="-4,4 -4,-507 867,-507 867,4 -4,4"/>
<g id="clust1" class="cluster"><title>cluster_reading</title>
<polygon fill="none" stroke="black" points="8,-8 8,-495 633,-495 633,-8 8,-8"/>
</g>
<g id="clust2" class="cluster"><title>cluster_legend</title>
<path fill="none" stroke="black" d="M653,-367C653,-367 843,-367 843,-367 849,-367 855,-373 855,-379 855,-379 855,-483 855,-483 855,-489 849,-495 843,-495 843,-495 653,-495 653,-495 647,-495 641,-489 641,-483 641,-483 641,-379 641,-379 641,-373 647,-367 653,-367"/>
</g>
<!-- 044 -->
<g id="node1" class="node"><title>044</title>
<ellipse fill="#ff8a8a" stroke="#b43f3f" cx="417" cy="-295" rx="36.2938" ry="18"/>
<text text-anchor="middle" x="417" y="-291.3" font-family="Times,serif" font-size="14.00">044 (a)</text>
</g>
<!-- 022 -->
<g id="node2" class="node"><title>022</title>
<ellipse fill="#ff8a8a" stroke="#b43f3f" cx="326" cy="-208" rx="36.2938" ry="18"/>
<text text-anchor="middle" x="326" y="-204.3" font-family="Times,serif" font-size="14.00">022 (a)</text>
</g>
<!-- 044&#45;&gt;022 -->
<g id="edge1" class="edge"><title>044&#45;&gt;022</title>
<path fill="none" stroke="#b43f3f" stroke-dasharray="1,5" d="M395.628,-280.006C387.008,-273.963 377.186,-266.554 369,-259 360.456,-251.115 351.924,-241.619 344.74,-233.029"/>
<polygon fill="#b43f3f" stroke="#b43f3f" points="347.344,-230.685 338.308,-225.155 341.923,-235.113 347.344,-230.685"/>
<text text-anchor="middle" x="391" y="-247.8" font-family="Times,serif" font-size="14.00">1 (91.7)</text>
</g>
<!-- 011 -->
<g id="node3" class="node"><title>011</title>
<ellipse fill="#ff8a8a" stroke="#b43f3f" cx="417" cy="-208" rx="36.2938" ry="18"/>
<text text-anchor="middle" x="417" y="-204.3" font-family="Times,serif" font-size="14.00">011 (a)</text>
</g>
<!-- 044&#45;&gt;011 -->
<g id="edge2" class="edge"><title>044&#45;&gt;011</title>
<path fill="none" stroke="#b43f3f" stroke-dasharray="1,5" d="M417,-276.799C417,-265.163 417,-249.548 417,-236.237"/>
<polygon fill="#b43f3f" stroke="#b43f3f" points="420.5,-236.175 417,-226.175 413.5,-236.175 420.5,-236.175"/>
<text text-anchor="middle" x="439" y="-247.8" font-family="Times,serif" font-size="14.00">2 (86.5)</text>
</g>
<!-- 0141 -->
<g id="node4" class="node"><title>0141</title>
<ellipse fill="#ff8a8a" stroke="#b43f3f" cx="512" cy="-208" rx="40.0939" ry="18"/>
<text text-anchor="middle" x="512" y="-204.3" font-family="Times,serif" font-size="14.00">0141 (a)</text>
</g>
<!-- 044&#45;&gt;0141 -->
<g id="edge3" class="edge"><title>044&#45;&gt;0141</title>
<path fill="none" stroke="#b43f3f" stroke-dasharray="1,5" d="M437.73,-280.159C446.436,-274.025 456.495,-266.508 465,-259 474.163,-250.911 483.531,-241.276 491.467,-232.632"/>
<polygon fill="#b43f3f" stroke="#b43f3f" points="494.21,-234.816 498.306,-225.045 489.01,-230.129 494.21,-234.816"/>
<text text-anchor="middle" x="503" y="-247.8" font-family="Times,serif" font-size="14.00">1 (89.2)</text>
</g>
<!-- 031 -->
<g id="node5" class="node"><title>031</title>
<ellipse fill="#ff8a8a" stroke="#b43f3f" cx="326" cy="-121" rx="36.2938" ry="18"/>
<text text-anchor="middle" x="326" y="-117.3" font-family="Times,serif" font-size="14.00">031 (a)</text>
</g>
<!-- 022&#45;&gt;031 -->
<g id="edge4" class="edge"><title>022&#45;&gt;031</title>
<path fill="none" stroke="#b43f3f" stroke-dasharray="1,5" d="M326,-189.799C326,-178.163 326,-162.548 326,-149.237"/>
<polygon fill="#b43f3f" stroke="#b43f3f" points="329.5,-149.175 326,-139.175 322.5,-149.175 329.5,-149.175"/>
<text text-anchor="middle" x="348" y="-160.8" font-family="Times,serif" font-size="14.00">2 (86.7)</text>
</g>
<!-- 013 -->
<g id="node10" class="node"><title>013</title>
<ellipse fill="#ff8a8a" stroke="#b43f3f" cx="292" cy="-34" rx="36.2938" ry="18"/>
<text text-anchor="middle" x="292" y="-30.3" font-family="Times,serif" font-size="14.00">013 (a)</text>
</g>
<!-- 031&#45;&gt;013 -->
<g id="edge8" class="edge"><title>031&#45;&gt;013</title>
<path fill="none" stroke="#b43f3f" stroke-dasharray="1,5" d="M314.948,-103.778C311.395,-98.0332 307.688,-91.4033 305,-85 301.945,-77.7222 299.455,-69.5397 297.501,-61.9344"/>
<polygon fill="#b43f3f" stroke="#b43f3f" points="300.874,-60.9875 295.168,-52.0606 294.061,-62.5975 300.874,-60.9875"/>
<text text-anchor="middle" x="327" y="-73.8" font-family="Times,serif" font-size="14.00">1 (97.1)</text>
</g>
<!-- 017 -->
<g id="node11" class="node"><title>017</title>
<ellipse fill="#ff8a8a" stroke="#b43f3f" cx="383" cy="-34" rx="36.2938" ry="18"/>
<text text-anchor="middle" x="383" y="-30.3" font-family="Times,serif" font-size="14.00">017 (a)</text>
</g>
<!-- 031&#45;&gt;017 -->
<g id="edge9" class="edge"><title>031&#45;&gt;017</title>
<path fill="none" stroke="#b43f3f" stroke-dasharray="1,5" d="M336.99,-103.611C345.349,-91.1466 356.988,-73.7897 366.468,-59.6524"/>
<polygon fill="#b43f3f" stroke="#b43f3f" points="369.381,-61.5933 372.044,-51.3385 363.567,-57.6946 369.381,-61.5933"/>
<text text-anchor="middle" x="380" y="-73.8" font-family="Times,serif" font-size="14.00">1 (94.3)</text>
</g>
<!-- A -->
<g id="node6" class="node"><title>A</title>
<ellipse fill="#ff8a8a" stroke="#b43f3f" cx="507" cy="-469" rx="29.4969" ry="18"/>
<text text-anchor="middle" x="507" y="-465.3" font-family="Times,serif" font-size="14.00">A (a)</text>
</g>
<!-- P75 -->
<g id="node7" class="node"><title>P75</title>
<ellipse fill="#ff8a8a" stroke="#b43f3f" cx="416" cy="-382" rx="36.2938" ry="18"/>
<text text-anchor="middle" x="416" y="-378.3" font-family="Times,serif" font-size="14.00">P75 (a)</text>
</g>
<!-- A&#45;&gt;P75 -->
<g id="edge5" class="edge"><title>A&#45;&gt;P75</title>
<path fill="none" stroke="#b43f3f" stroke-dasharray="1,5" d="M487.523,-455.326C478.472,-449.06 467.792,-441.113 459,-433 450.456,-425.115 441.924,-415.619 434.74,-407.029"/>
<polygon fill="#b43f3f" stroke="#b43f3f" points="437.344,-404.685 428.308,-399.155 431.923,-409.113 437.344,-404.685"/>
<text text-anchor="middle" x="481" y="-421.8" font-family="Times,serif" font-size="14.00">1 (93.3)</text>
</g>
<!-- 019 -->
<g id="node8" class="node"><title>019</title>
<ellipse fill="#ff8a8a" stroke="#b43f3f" cx="507" cy="-382" rx="36.2938" ry="18"/>
<text text-anchor="middle" x="507" y="-378.3" font-family="Times,serif" font-size="14.00">019 (a)</text>
</g>
<!-- A&#45;&gt;019 -->
<g id="edge6" class="edge"><title>A&#45;&gt;019</title>
<path fill="none" stroke="#b43f3f" stroke-dasharray="1,5" d="M507,-450.799C507,-439.163 507,-423.548 507,-410.237"/>
<polygon fill="#b43f3f" stroke="#b43f3f" points="510.5,-410.175 507,-400.175 503.5,-410.175 510.5,-410.175"/>
<text text-anchor="middle" x="529" y="-421.8" font-family="Times,serif" font-size="14.00">1 (93.3)</text>
</g>
<!-- 03 -->
<g id="node9" class="node"><title>03</title>
<ellipse fill="#ff8a8a" stroke="#b43f3f" cx="593" cy="-382" rx="31.6951" ry="18"/>
<text text-anchor="middle" x="593" y="-378.3" font-family="Times,serif" font-size="14.00">03 (a)</text>
</g>
<!-- A&#45;&gt;03 -->
<g id="edge7" class="edge"><title>A&#45;&gt;03</title>
<path fill="none" stroke="#b43f3f" stroke-dasharray="1,5" d="M526.7,-455.561C535.801,-449.347 546.457,-441.375 555,-433 562.825,-425.329 570.362,-415.975 576.632,-407.442"/>
<polygon fill="#b43f3f" stroke="#b43f3f" points="579.497,-409.452 582.443,-399.275 573.794,-405.394 579.497,-409.452"/>
<text text-anchor="middle" x="590" y="-421.8" font-family="Times,serif" font-size="14.00">1 (93.3)</text>
</g>
<!-- 03&#45;&gt;044 -->
<g id="edge10" class="edge"><title>03&#45;&gt;044</title>
<path fill="none" stroke="#b43f3f" stroke-dasharray="1,5" d="M568.498,-370.179C563.116,-367.989 557.408,-365.807 552,-364 521.532,-353.823 510.873,-360.079 482,-346 467.132,-338.75 452.37,-327.782 440.682,-317.963"/>
<polygon fill="#b43f3f" stroke="#b43f3f" points="442.967,-315.312 433.117,-311.41 438.383,-320.603 442.967,-315.312"/>
<text text-anchor="middle" x="504" y="-334.8" font-family="Times,serif" font-size="14.00">1 (89.2)</text>
</g>
<!-- 02 -->
<g id="node12" class="node"><title>02</title>
<ellipse fill="#ff8a8a" stroke="#b43f3f" cx="503" cy="-295" rx="31.6951" ry="18"/>
<text text-anchor="middle" x="503" y="-291.3" font-family="Times,serif" font-size="14.00">02 (a)</text>
</g>
<!-- 03&#45;&gt;02 -->
<g id="edge11" class="edge"><title>03&#45;&gt;02</title>
<path fill="none" stroke="#b43f3f" stroke-dasharray="1,5" d="M572.047,-368.268C562.689,-362.108 551.81,-354.264 543,-346 534.851,-338.357 526.936,-329.009 520.327,-320.473"/>
<polygon fill="#b43f3f" stroke="#b43f3f" points="522.995,-318.197 514.192,-312.3 517.396,-322.399 522.995,-318.197"/>
<text text-anchor="middle" x="565" y="-334.8" font-family="Times,serif" font-size="14.00">1 (86.5)</text>
</g>
<!-- 032 -->
<g id="node13" class="node"><title>032</title>
<ellipse fill="#ff8a8a" stroke="#b43f3f" cx="589" cy="-295" rx="36.2938" ry="18"/>
<text text-anchor="middle" x="589" y="-291.3" font-family="Times,serif" font-size="14.00">032 (a)</text>
</g>
<!-- 03&#45;&gt;032 -->
<g id="edge12" class="edge"><title>03&#45;&gt;032</title>
<path fill="none" stroke="#b43f3f" stroke-dasharray="1,5" d="M592.191,-363.799C591.643,-352.163 590.908,-336.548 590.282,-323.237"/>
<polygon fill="#b43f3f" stroke="#b43f3f" points="593.775,-323 589.808,-313.175 586.782,-323.329 593.775,-323"/>
<text text-anchor="middle" x="614" y="-334.8" font-family="Times,serif" font-size="14.00">1 (91.7)</text>
</g>
<!-- 07 -->
<g id="node14" class="node"><title>07</title>
<ellipse fill="#ff8a8a" stroke="#b43f3f" cx="401" cy="-469" rx="31.6951" ry="18"/>
<text text-anchor="middle" x="401" y="-465.3" font-family="Times,serif" font-size="14.00">07 (a)</text>
</g>
<!-- 037 -->
<g id="node15" class="node"><title>037</title>
<ellipse fill="#ff8a8a" stroke="#b43f3f" cx="234" cy="-382" rx="36.2938" ry="18"/>
<text text-anchor="middle" x="234" y="-378.3" font-family="Times,serif" font-size="14.00">037 (a)</text>
</g>
<!-- 07&#45;&gt;037 -->
<g id="edge13" class="edge"><title>07&#45;&gt;037</title>
<path fill="none" stroke="#b43f3f" stroke-dasharray="1,5" d="M376.428,-457.381C371.05,-455.178 365.362,-452.939 360,-451 334.618,-441.821 326.095,-445.163 302,-433 286.801,-425.328 271.391,-414.32 259.093,-404.586"/>
<polygon fill="#b43f3f" stroke="#b43f3f" points="261.085,-401.695 251.117,-398.106 256.672,-407.128 261.085,-401.695"/>
<text text-anchor="middle" x="324" y="-421.8" font-family="Times,serif" font-size="14.00">1 (97.5)</text>
</g>
<!-- 034 -->
<g id="node16" class="node"><title>034</title>
<ellipse fill="#ff8a8a" stroke="#b43f3f" cx="325" cy="-382" rx="36.2938" ry="18"/>
<text text-anchor="middle" x="325" y="-378.3" font-family="Times,serif" font-size="14.00">034 (a)</text>
</g>
<!-- 07&#45;&gt;034 -->
<g id="edge14" class="edge"><title>07&#45;&gt;034</title>
<path fill="none" stroke="#b43f3f" stroke-dasharray="1,5" d="M383.597,-453.719C376.587,-447.632 368.612,-440.267 362,-433 354.88,-425.175 347.791,-416.016 341.752,-407.691"/>
<polygon fill="#b43f3f" stroke="#b43f3f" points="344.519,-405.542 335.881,-399.407 338.808,-409.59 344.519,-405.542"/>
<text text-anchor="middle" x="384" y="-421.8" font-family="Times,serif" font-size="14.00">1 (95.1)</text>
</g>
<!-- 045 -->
<g id="node17" class="node"><title>045</title>
<ellipse fill="#ff8a8a" stroke="#b43f3f" cx="315" cy="-469" rx="36.2938" ry="18"/>
<text text-anchor="middle" x="315" y="-465.3" font-family="Times,serif" font-size="14.00">045 (a)</text>
</g>
<!-- 038 -->
<g id="node18" class="node"><title>038</title>
<ellipse fill="#ff8a8a" stroke="#b43f3f" cx="143" cy="-382" rx="36.2938" ry="18"/>
<text text-anchor="middle" x="143" y="-378.3" font-family="Times,serif" font-size="14.00">038 (a)</text>
</g>
<!-- 045&#45;&gt;038 -->
<g id="edge15" class="edge"><title>045&#45;&gt;038</title>
<path fill="none" stroke="#b43f3f" stroke-dasharray="1,5" d="M287.004,-457.328C270.487,-450.787 249.3,-441.97 231,-433 211.563,-423.473 190.456,-411.537 173.786,-401.717"/>
<polygon fill="#b43f3f" stroke="#b43f3f" points="175.405,-398.607 165.02,-396.507 171.829,-404.625 175.405,-398.607"/>
<text text-anchor="middle" x="253" y="-421.8" font-family="Times,serif" font-size="14.00">1 (92.7)</text>
</g>
<!-- 021 -->
<g id="node19" class="node"><title>021</title>
<ellipse fill="#ff8a8a" stroke="#b43f3f" cx="224" cy="-469" rx="36.2938" ry="18"/>
<text text-anchor="middle" x="224" y="-465.3" font-family="Times,serif" font-size="14.00">021 (a)</text>
</g>
<!-- 047 -->
<g id="node20" class="node"><title>047</title>
<ellipse fill="#ff8a8a" stroke="#b43f3f" cx="52" cy="-382" rx="36.2938" ry="18"/>
<text text-anchor="middle" x="52" y="-378.3" font-family="Times,serif" font-size="14.00">047 (a)</text>
</g>
<!-- 021&#45;&gt;047 -->
<g id="edge16" class="edge"><title>021&#45;&gt;047</title>
<path fill="none" stroke="#b43f3f" stroke-dasharray="1,5" d="M198.99,-455.64C169.225,-440.931 119.378,-416.297 86.0974,-399.85"/>
<polygon fill="#b43f3f" stroke="#b43f3f" points="87.2771,-396.529 76.7614,-395.237 84.1758,-402.805 87.2771,-396.529"/>
<text text-anchor="middle" x="171" y="-421.8" font-family="Times,serif" font-size="14.00">1 (95.1)</text>
</g>
<!-- 01 -->
<g id="node21" class="node"><title>01</title>
<ellipse fill="#ff8a8a" stroke="#b43f3f" cx="138" cy="-469" rx="31.6951" ry="18"/>
<text text-anchor="middle" x="138" y="-465.3" font-family="Times,serif" font-size="14.00">01 (a)</text>
</g>
<!-- 028 -->
<g id="node22" class="node"><title>028</title>
<ellipse fill="#ff8a8a" stroke="#b43f3f" cx="52" cy="-469" rx="36.2938" ry="18"/>
<text text-anchor="middle" x="52" y="-465.3" font-family="Times,serif" font-size="14.00">028 (a)</text>
</g>
<!-- leg_s -->
<g id="node23" class="node"><title>leg_s</title>
<text text-anchor="middle" x="748" y="-465.3" font-family="Times,serif" font-size="14.00">Textual flow strength</text>
</g>
<!-- leg_e1 -->
<!-- leg_s&#45;&gt;leg_e1 -->
<g id="edge17" class="edge"><title>leg_s&#45;&gt;leg_e1</title>
<path fill="none" stroke="black" stroke-dasharray="1,5" d="M729.666,-450.686C724.132,-445.194 718.161,-438.989 713,-433 703.171,-421.593 693.072,-407.779 685.914,-397.563"/>
<polygon fill="black" stroke="black" points="688.614,-395.314 680.056,-389.068 682.851,-399.288 688.614,-395.314"/>
<text text-anchor="middle" x="728.5" y="-421.8" font-family="Times,serif" font-size="14.00">&lt;=5 &#160;</text>
</g>
<!-- leg_e2 -->
<!-- leg_s&#45;&gt;leg_e2 -->
<g id="edge18" class="edge"><title>leg_s&#45;&gt;leg_e2</title>
<path fill="none" stroke="black" stroke-dasharray="5,2" d="M748,-450.799C748,-435.794 748,-414.174 748,-399.409"/>
<polygon fill="black" stroke="black" points="751.5,-399.293 748,-389.293 744.5,-399.293 751.5,-399.293"/>
<text text-anchor="middle" x="767" y="-421.8" font-family="Times,serif" font-size="14.00"> &#160;&lt;=25</text>
</g>
<!-- leg_e3 -->
<!-- leg_s&#45;&gt;leg_e3 -->
<g id="edge19" class="edge"><title>leg_s&#45;&gt;leg_e3</title>
<path fill="none" stroke="black" d="M771.503,-450.76C777.906,-445.462 784.567,-439.344 790,-433 799.087,-422.39 807.095,-408.689 812.546,-398.313"/>
<polygon fill="black" stroke="black" points="815.722,-399.789 817.091,-389.283 809.469,-396.642 815.722,-399.789"/>
<text text-anchor="middle" x="811" y="-421.8" font-family="Times,serif" font-size="14.00">&gt;25</text>
</g>
</g>
</svg>
