<?xml version="1.0" encoding="UTF-8" standalone="no"?>
<!DOCTYPE svg PUBLIC "-//W3C//DTD SVG 1.1//EN"
 "http://www.w3.org/Graphics/SVG/1.1/DTD/svg11.dtd">
<!-- Generated by graphviz version 2.38.0 (20140413.2041)
 -->
<!-- Title: %3 Pages: 1 -->
<svg width="404pt" height="141pt"
 viewBox="0.00 0.00 404.00 141.00" xmlns="http://www.w3.org/2000/svg" xmlns:xlink="http://www.w3.org/1999/xlink">
<g id="graph0" class="graph" transform="scale(1 1) rotate(0) translate(4 137)">
<title>%3</title>
<polygon fill="white" stroke="none" points="-4,4 -4,-137 400,-137 400,4 -4,4"/>
<g id="clust1" class="cluster"><title>cluster_legend</title>
<path fill="none" stroke="black" d="M20,-8C20,-8 210,-8 210,-8 216,-8 222,-14 222,-20 222,-20 222,-113 222,-113 222,-119 216,-125 210,-125 210,-125 20,-125 20,-125 14,-125 8,-119 8,-113 8,-113 8,-20 8,-20 8,-14 14,-8 20,-8"/>
</g>
<g id="clust2" class="cluster"><title>cluster_reading</title>
<polygon fill="none" stroke="black" points="230,-73 230,-125 388,-125 388,-73 230,-73"/>
</g>
<!-- leg_s -->
<g id="node1" class="node"><title>leg_s</title>
<text text-anchor="middle" x="115" y="-95.3" font-family="Times,serif" font-size="14.00">Textual flow strength</text>
</g>
<!-- leg_e1 -->
<!-- leg_s&#45;&gt;leg_e1 -->
<g id="edge1" class="edge"><title>leg_s&#45;&gt;leg_e1</title>
<path fill="none" stroke="black" stroke-dasharray="1,5" d="M97.8196,-80.9995C92.117,-75.3088 85.7561,-68.9096 80,-63 71.8558,-54.6386 62.8386,-45.1391 55.745,-37.609"/>
<polygon fill="black" stroke="black" points="57.8656,-34.7543 48.469,-29.8601 52.7626,-39.5459 57.8656,-34.7543"/>
<text text-anchor="middle" x="95.5" y="-51.8" font-family="Times,serif" font-size="14.00">&lt;=5 &#160;</text>
</g>
<!-- leg_e2 -->
<!-- leg_s&#45;&gt;leg_e2 -->
<g id="edge2" class="edge"><title>leg_s&#45;&gt;leg_e2</title>
<path fill="none" stroke="black" stroke-dasharray="5,2" d="M115,-80.8369C115,-68.6686 115,-52.4362 115,-40.4345"/>
<polygon fill="black" stroke="black" points="118.5,-40.1502 115,-30.1503 111.5,-40.1503 118.5,-40.1502"/>
<text text-anchor="middle" x="134" y="-51.8" font-family="Times,serif" font-size="14.00"> &#160;&lt;=25</text>
</g>
<!-- leg_e3 -->
<!-- leg_s&#45;&gt;leg_e3 -->
<g id="edge3" class="edge"><title>leg_s&#45;&gt;leg_e3</title>
<path fill="none" stroke="black" d="M137.608,-80.7027C144.13,-75.311 151.079,-69.1572 157,-63 164.325,-55.3835 171.576,-46.0214 177.114,-38.3792"/>
<polygon fill="black" stroke="black" points="180.017,-40.3356 182.909,-30.1433 174.292,-36.3072 180.017,-40.3356"/>
<text text-anchor="middle" x="180" y="-51.8" font-family="Times,serif" font-size="14.00">&gt;25</text>
</g>
<!-- 01 -->
<g id="node5" class="node"><title>01</title>
<ellipse fill="#cea8f4" stroke="#835da9" cx="348" cy="-99" rx="32.4942" ry="18"/>
<text text-anchor="middle" x="348" y="-95.3" font-family="Times,serif" font-size="14.00">01 (b)</text>
</g>
<!-- A -->
<g id="node6" class="node"><title>A</title>
<ellipse fill="#cea8f4" stroke="#835da9" cx="268" cy="-99" rx="29.795" ry="18"/>
<text text-anchor="middle" x="268" y="-95.3" font-family="Times,serif" font-size="14.00">A (b)</text>
</g>
</g>
</svg>
