<?xml version="1.0" encoding="UTF-8" standalone="no"?>
<!DOCTYPE svg PUBLIC "-//W3C//DTD SVG 1.1//EN"
 "http://www.w3.org/Graphics/SVG/1.1/DTD/svg11.dtd">
<!-- Generated by graphviz version 2.38.0 (20140413.2041)
 -->
<!-- Title: %3 Pages: 1 -->
<svg width="971pt" height="163pt"
 viewBox="0.00 0.00 971.00 163.00" xmlns="http://www.w3.org/2000/svg" xmlns:xlink="http://www.w3.org/1999/xlink">
<g id="graph0" class="graph" transform="scale(1 1) rotate(0) translate(4 159)">
<title>%3</title>
<polygon fill="white" stroke="none" points="-4,4 -4,-159 967,-159 967,4 -4,4"/>
<g id="clust1" class="cluster"><title>cluster_reading</title>
<polygon fill="none" stroke="black" points="8,-8 8,-147 733,-147 733,-8 8,-8"/>
</g>
<g id="clust2" class="cluster"><title>cluster_legend</title>
<path fill="none" stroke="black" d="M753,-19C753,-19 943,-19 943,-19 949,-19 955,-25 955,-31 955,-31 955,-135 955,-135 955,-141 949,-147 943,-147 943,-147 753,-147 753,-147 747,-147 741,-141 741,-135 741,-135 741,-31 741,-31 741,-25 747,-19 753,-19"/>
</g>
<!-- 031 -->
<g id="node1" class="node"><title>031</title>
<ellipse fill="#ff8a8a" stroke="#b43f3f" cx="679" cy="-121" rx="36.2938" ry="18"/>
<text text-anchor="middle" x="679" y="-117.3" font-family="Times,serif" font-size="14.00">031 (a)</text>
</g>
<!-- 013 -->
<g id="node2" class="node"><title>013</title>
<ellipse fill="#ff8a8a" stroke="#b43f3f" cx="598" cy="-34" rx="36.2938" ry="18"/>
<text text-anchor="middle" x="598" y="-30.3" font-family="Times,serif" font-size="14.00">013 (a)</text>
</g>
<!-- 031&#45;&gt;013 -->
<g id="edge1" class="edge"><title>031&#45;&gt;013</title>
<path fill="none" stroke="#b43f3f" stroke-dasharray="1,5" d="M659.318,-105.586C651.685,-99.5951 643.094,-92.3339 636,-85 628.574,-77.3222 621.266,-68.1983 615.074,-59.8595"/>
<polygon fill="#b43f3f" stroke="#b43f3f" points="617.761,-57.6021 609.067,-51.5473 612.088,-61.7023 617.761,-57.6021"/>
<text text-anchor="middle" x="658" y="-73.8" font-family="Times,serif" font-size="14.00">1 (97.1)</text>
</g>
<!-- 017 -->
<g id="node3" class="node"><title>017</title>
<ellipse fill="#ff8a8a" stroke="#b43f3f" cx="689" cy="-34" rx="36.2938" ry="18"/>
<text text-anchor="middle" x="689" y="-30.3" font-family="Times,serif" font-size="14.00">017 (a)</text>
</g>
<!-- 031&#45;&gt;017 -->
<g id="edge2" class="edge"><title>031&#45;&gt;017</title>
<path fill="none" stroke="#b43f3f" stroke-dasharray="1,5" d="M681.024,-102.799C682.393,-91.1626 684.23,-75.5479 685.796,-62.2368"/>
<polygon fill="#b43f3f" stroke="#b43f3f" points="689.287,-62.5159 686.979,-52.1754 682.335,-61.698 689.287,-62.5159"/>
<text text-anchor="middle" x="707" y="-73.8" font-family="Times,serif" font-size="14.00">1 (94.3)</text>
</g>
<!-- 07 -->
<g id="node4" class="node"><title>07</title>
<ellipse fill="#ff8a8a" stroke="#b43f3f" cx="591" cy="-121" rx="31.6951" ry="18"/>
<text text-anchor="middle" x="591" y="-117.3" font-family="Times,serif" font-size="14.00">07 (a)</text>
</g>
<!-- 037 -->
<g id="node5" class="node"><title>037</title>
<ellipse fill="#ff8a8a" stroke="#b43f3f" cx="325" cy="-34" rx="36.2938" ry="18"/>
<text text-anchor="middle" x="325" y="-30.3" font-family="Times,serif" font-size="14.00">037 (a)</text>
</g>
<!-- 07&#45;&gt;037 -->
<g id="edge3" class="edge"><title>07&#45;&gt;037</title>
<path fill="none" stroke="#b43f3f" stroke-dasharray="1,5" d="M567.076,-108.887C561.56,-106.662 555.651,-104.539 550,-103 494.145,-87.791 476.14,-102.627 421,-85 397.725,-77.5596 373.327,-64.7778 354.951,-54.0004"/>
<polygon fill="#b43f3f" stroke="#b43f3f" points="356.564,-50.8864 346.188,-48.7449 352.963,-56.8896 356.564,-50.8864"/>
<text text-anchor="middle" x="443" y="-73.8" font-family="Times,serif" font-size="14.00">1 (97.5)</text>
</g>
<!-- 034 -->
<g id="node6" class="node"><title>034</title>
<ellipse fill="#ff8a8a" stroke="#b43f3f" cx="416" cy="-34" rx="36.2938" ry="18"/>
<text text-anchor="middle" x="416" y="-30.3" font-family="Times,serif" font-size="14.00">034 (a)</text>
</g>
<!-- 07&#45;&gt;034 -->
<g id="edge4" class="edge"><title>07&#45;&gt;034</title>
<path fill="none" stroke="#b43f3f" stroke-dasharray="1,5" d="M566.397,-109.465C561.021,-107.257 555.342,-104.995 550,-103 526.3,-94.1496 518.887,-95.7795 496,-85 478.04,-76.5409 459.153,-64.8831 444.243,-54.952"/>
<polygon fill="#b43f3f" stroke="#b43f3f" points="446.203,-52.0522 435.96,-49.3414 442.277,-57.8477 446.203,-52.0522"/>
<text text-anchor="middle" x="518" y="-73.8" font-family="Times,serif" font-size="14.00">1 (95.1)</text>
</g>
<!-- 030 -->
<g id="node7" class="node"><title>030</title>
<ellipse fill="#ff8a8a" stroke="#b43f3f" cx="507" cy="-34" rx="36.2938" ry="18"/>
<text text-anchor="middle" x="507" y="-30.3" font-family="Times,serif" font-size="14.00">030 (a)</text>
</g>
<!-- 07&#45;&gt;030 -->
<g id="edge5" class="edge"><title>07&#45;&gt;030</title>
<path fill="none" stroke="#b43f3f" stroke-dasharray="1,5" d="M575.982,-104.804C563.123,-91.7913 544.412,-72.857 529.72,-57.9904"/>
<polygon fill="#b43f3f" stroke="#b43f3f" points="531.974,-55.2924 522.456,-50.6398 526.995,-60.2128 531.974,-55.2924"/>
<text text-anchor="middle" x="577" y="-73.8" font-family="Times,serif" font-size="14.00">1 (95.1)</text>
</g>
<!-- 045 -->
<g id="node8" class="node"><title>045</title>
<ellipse fill="#ff8a8a" stroke="#b43f3f" cx="505" cy="-121" rx="36.2938" ry="18"/>
<text text-anchor="middle" x="505" y="-117.3" font-family="Times,serif" font-size="14.00">045 (a)</text>
</g>
<!-- 038 -->
<g id="node9" class="node"><title>038</title>
<ellipse fill="#ff8a8a" stroke="#b43f3f" cx="234" cy="-34" rx="36.2938" ry="18"/>
<text text-anchor="middle" x="234" y="-30.3" font-family="Times,serif" font-size="14.00">038 (a)</text>
</g>
<!-- 045&#45;&gt;038 -->
<g id="edge6" class="edge"><title>045&#45;&gt;038</title>
<path fill="none" stroke="#b43f3f" stroke-dasharray="1,5" d="M477.563,-108.811C471.522,-106.644 465.103,-104.564 459,-103 406.332,-89.5046 389.975,-100.959 338,-85 312.704,-77.233 285.826,-64.1707 265.732,-53.3449"/>
<polygon fill="#b43f3f" stroke="#b43f3f" points="267.179,-50.1463 256.729,-48.3996 263.809,-56.2817 267.179,-50.1463"/>
<text text-anchor="middle" x="360" y="-73.8" font-family="Times,serif" font-size="14.00">1 (92.7)</text>
</g>
<!-- 021 -->
<g id="node10" class="node"><title>021</title>
<ellipse fill="#ff8a8a" stroke="#b43f3f" cx="414" cy="-121" rx="36.2938" ry="18"/>
<text text-anchor="middle" x="414" y="-117.3" font-family="Times,serif" font-size="14.00">021 (a)</text>
</g>
<!-- 036 -->
<g id="node11" class="node"><title>036</title>
<ellipse fill="#ff8a8a" stroke="#b43f3f" cx="52" cy="-34" rx="36.2938" ry="18"/>
<text text-anchor="middle" x="52" y="-30.3" font-family="Times,serif" font-size="14.00">036 (a)</text>
</g>
<!-- 021&#45;&gt;036 -->
<g id="edge7" class="edge"><title>021&#45;&gt;036</title>
<path fill="none" stroke="#b43f3f" stroke-dasharray="1,5" d="M387.242,-108.525C381.327,-106.376 375.025,-104.375 369,-103 279.831,-82.6485 252.533,-107.958 164,-85 135.99,-77.7364 106.158,-64.0955 84.3309,-52.8945"/>
<polygon fill="#b43f3f" stroke="#b43f3f" points="85.6809,-49.6506 75.1986,-48.1107 82.4327,-55.8513 85.6809,-49.6506"/>
<text text-anchor="middle" x="186" y="-73.8" font-family="Times,serif" font-size="14.00">1 (97.6)</text>
</g>
<!-- 047 -->
<g id="node12" class="node"><title>047</title>
<ellipse fill="#ff8a8a" stroke="#b43f3f" cx="143" cy="-34" rx="36.2938" ry="18"/>
<text text-anchor="middle" x="143" y="-30.3" font-family="Times,serif" font-size="14.00">047 (a)</text>
</g>
<!-- 021&#45;&gt;047 -->
<g id="edge8" class="edge"><title>021&#45;&gt;047</title>
<path fill="none" stroke="#b43f3f" stroke-dasharray="1,5" d="M387.17,-108.821C381.259,-106.653 374.977,-104.57 369,-103 318.115,-89.6309 302.394,-100.113 252,-85 225.248,-76.9771 196.602,-63.6328 175.393,-52.7471"/>
<polygon fill="#b43f3f" stroke="#b43f3f" points="176.981,-49.6277 166.497,-48.1012 173.741,-55.8326 176.981,-49.6277"/>
<text text-anchor="middle" x="274" y="-73.8" font-family="Times,serif" font-size="14.00">1 (95.1)</text>
</g>
<!-- 01 -->
<g id="node13" class="node"><title>01</title>
<ellipse fill="#ff8a8a" stroke="#b43f3f" cx="328" cy="-121" rx="31.6951" ry="18"/>
<text text-anchor="middle" x="328" y="-117.3" font-family="Times,serif" font-size="14.00">01 (a)</text>
</g>
<!-- 011 -->
<g id="node14" class="node"><title>011</title>
<ellipse fill="#ff8a8a" stroke="#b43f3f" cx="242" cy="-121" rx="36.2938" ry="18"/>
<text text-anchor="middle" x="242" y="-117.3" font-family="Times,serif" font-size="14.00">011 (a)</text>
</g>
<!-- 028 -->
<g id="node15" class="node"><title>028</title>
<ellipse fill="#ff8a8a" stroke="#b43f3f" cx="151" cy="-121" rx="36.2938" ry="18"/>
<text text-anchor="middle" x="151" y="-117.3" font-family="Times,serif" font-size="14.00">028 (a)</text>
</g>
<!-- 0141 -->
<g id="node16" class="node"><title>0141</title>
<ellipse fill="#ff8a8a" stroke="#b43f3f" cx="56" cy="-121" rx="40.0939" ry="18"/>
<text text-anchor="middle" x="56" y="-117.3" font-family="Times,serif" font-size="14.00">0141 (a)</text>
</g>
<!-- leg_s -->
<g id="node17" class="node"><title>leg_s</title>
<text text-anchor="middle" x="848" y="-117.3" font-family="Times,serif" font-size="14.00">Textual flow strength</text>
</g>
<!-- leg_e1 -->
<!-- leg_s&#45;&gt;leg_e1 -->
<g id="edge9" class="edge"><title>leg_s&#45;&gt;leg_e1</title>
<path fill="none" stroke="black" stroke-dasharray="1,5" d="M829.666,-102.686C824.132,-97.1938 818.161,-90.9891 813,-85 803.171,-73.593 793.072,-59.7786 785.914,-49.5634"/>
<polygon fill="black" stroke="black" points="788.614,-47.3142 780.056,-41.0685 782.851,-51.2879 788.614,-47.3142"/>
<text text-anchor="middle" x="828.5" y="-73.8" font-family="Times,serif" font-size="14.00">&lt;=5 &#160;</text>
</g>
<!-- leg_e2 -->
<!-- leg_s&#45;&gt;leg_e2 -->
<g id="edge10" class="edge"><title>leg_s&#45;&gt;leg_e2</title>
<path fill="none" stroke="black" stroke-dasharray="5,2" d="M848,-102.799C848,-87.7942 848,-66.1745 848,-51.4086"/>
<polygon fill="black" stroke="black" points="851.5,-51.2934 848,-41.2934 844.5,-51.2934 851.5,-51.2934"/>
<text text-anchor="middle" x="867" y="-73.8" font-family="Times,serif" font-size="14.00"> &#160;&lt;=25</text>
</g>
<!-- leg_e3 -->
<!-- leg_s&#45;&gt;leg_e3 -->
<g id="edge11" class="edge"><title>leg_s&#45;&gt;leg_e3</title>
<path fill="none" stroke="black" d="M871.503,-102.76C877.906,-97.4621 884.567,-91.3439 890,-85 899.087,-74.3897 907.095,-60.6892 912.546,-50.3134"/>
<polygon fill="black" stroke="black" points="915.722,-51.7893 917.091,-41.2833 909.469,-48.6425 915.722,-51.7893"/>
<text text-anchor="middle" x="911" y="-73.8" font-family="Times,serif" font-size="14.00">&gt;25</text>
</g>
</g>
</svg>
